MidiFile(type=1, ticks_per_beat=96, tracks=[
  MidiTrack([
    MetaMessage('time_signature', numerator=4, denominator=4, clocks_per_click=24, notated_32nd_notes_per_beat=8, time=0),
    MetaMessage('end_of_track', time=0)]),
  MidiTrack([
    MetaMessage('set_tempo', tempo=689655, time=0),
    MetaMessage('set_tempo', tempo=689655, time=0),
    MetaMessage('set_tempo', tempo=689655, time=0),
    MetaMessage('set_tempo', tempo=500000, time=12864),
    MetaMessage('set_tempo', tempo=375000, time=192),
    MetaMessage('set_tempo', tempo=689655, time=35712),
    MetaMessage('set_tempo', tempo=645161, time=2592),
    MetaMessage('set_tempo', tempo=500000, time=6624),
    MetaMessage('set_tempo', tempo=689655, time=1296),
    MetaMessage('end_of_track', time=0)]),
  MidiTrack([
    MetaMessage('track_name', name='Celesta', time=0),
    Message('control_change', channel=12, control=10, value=64, time=0),
    Message('control_change', channel=12, control=7, value=100, time=0),
    Message('pitchwheel', channel=12, pitch=0, time=0),
    Message('control_change', channel=12, control=101, value=0, time=0),
    Message('control_change', channel=12, control=100, value=0, time=0),
    Message('control_change', channel=12, control=6, value=12, time=0),
    Message('control_change', channel=12, control=10, value=64, time=0),
    Message('control_change', channel=12, control=7, value=100, time=0),
    Message('pitchwheel', channel=12, pitch=0, time=0),
    Message('program_change', channel=12, program=8, time=0),
    Message('program_change', channel=12, program=8, time=0),
    Message('control_change', channel=12, control=7, value=100, time=0),
    Message('control_change', channel=12, control=10, value=64, time=0),
    Message('control_change', channel=12, control=101, value=0, time=0),
    Message('control_change', channel=12, control=100, value=0, time=0),
    Message('control_change', channel=12, control=6, value=12, time=0),
    Message('control_change', channel=12, control=10, value=64, time=0),
    Message('control_change', channel=12, control=7, value=100, time=0),
    Message('pitchwheel', channel=12, pitch=0, time=0),
    Message('program_change', channel=12, program=8, time=0),
    Message('program_change', channel=12, program=8, time=0),
    Message('control_change', channel=12, control=7, value=100, time=0),
    Message('control_change', channel=12, control=10, value=64, time=0),
    Message('note_on', channel=12, note=83, velocity=75, time=0),
    Message('control_change', channel=12, control=101, value=0, time=0),
    Message('control_change', channel=12, control=100, value=0, time=0),
    Message('control_change', channel=12, control=6, value=12, time=0),
    Message('control_change', channel=12, control=10, value=64, time=0),
    Message('control_change', channel=12, control=7, value=100, time=0),
    Message('pitchwheel', channel=12, pitch=0, time=0),
    Message('program_change', channel=12, program=8, time=0),
    Message('note_off', channel=12, note=83, velocity=0, time=47),
    Message('note_on', channel=12, note=88, velocity=75, time=1),
    Message('note_off', channel=12, note=88, velocity=0, time=71),
    Message('note_on', channel=12, note=91, velocity=75, time=1),
    Message('note_off', channel=12, note=91, velocity=0, time=23),
    Message('note_on', channel=12, note=90, velocity=75, time=1),
    Message('note_off', channel=12, note=90, velocity=0, time=47),
    Message('note_on', channel=12, note=88, velocity=75, time=1),
    Message('note_off', channel=12, note=88, velocity=0, time=80),
    Message('note_on', channel=12, note=95, velocity=75, time=16),
    Message('note_off', channel=12, note=95, velocity=0, time=47),
    Message('note_on', channel=12, note=93, velocity=75, time=1),
    Message('note_off', channel=12, note=93, velocity=0, time=128),
    Message('note_on', channel=12, note=90, velocity=75, time=16),
    Message('note_off', channel=12, note=90, velocity=0, time=128),
    Message('note_on', channel=12, note=88, velocity=75, time=16),
    Message('note_off', channel=12, note=88, velocity=0, time=71),
    Message('note_on', channel=12, note=91, velocity=75, time=1),
    Message('note_off', channel=12, note=91, velocity=0, time=23),
    Message('note_on', channel=12, note=90, velocity=75, time=1),
    Message('note_off', channel=12, note=90, velocity=0, time=47),
    Message('note_on', channel=12, note=87, velocity=75, time=1),
    Message('note_off', channel=12, note=87, velocity=0, time=80),
    Message('note_on', channel=12, note=89, velocity=75, time=16),
    Message('note_off', channel=12, note=89, velocity=0, time=47),
    Message('note_on', channel=12, note=83, velocity=75, time=1),
    Message('note_off', channel=12, note=83, velocity=0, time=224),
    Message('note_on', channel=12, note=83, velocity=75, time=16),
    Message('note_off', channel=12, note=83, velocity=0, time=47),
    Message('note_on', channel=12, note=88, velocity=75, time=1),
    Message('note_off', channel=12, note=88, velocity=0, time=71),
    Message('note_on', channel=12, note=91, velocity=75, time=1),
    Message('note_off', channel=12, note=91, velocity=0, time=23),
    Message('note_on', channel=12, note=90, velocity=75, time=1),
    Message('note_off', channel=12, note=90, velocity=0, time=47),
    Message('note_on', channel=12, note=88, velocity=75, time=1),
    Message('note_off', channel=12, note=88, velocity=0, time=80),
    Message('note_on', channel=12, note=95, velocity=75, time=16),
    Message('note_off', channel=12, note=95, velocity=0, time=47),
    Message('note_on', channel=12, note=98, velocity=75, time=1),
    Message('note_off', channel=12, note=98, velocity=0, time=80),
    Message('note_on', channel=12, note=97, velocity=75, time=16),
    Message('note_off', channel=12, note=97, velocity=0, time=47),
    Message('note_on', channel=12, note=96, velocity=75, time=1),
    Message('note_off', channel=12, note=96, velocity=0, time=80),
    Message('note_on', channel=12, note=92, velocity=75, time=16),
    Message('note_off', channel=12, note=92, velocity=0, time=47),
    Message('note_on', channel=12, note=96, velocity=75, time=1),
    Message('note_off', channel=12, note=96, velocity=0, time=71),
    Message('note_on', channel=12, note=95, velocity=75, time=1),
    Message('note_off', channel=12, note=95, velocity=0, time=23),
    Message('note_on', channel=12, note=94, velocity=75, time=1),
    Message('note_off', channel=12, note=94, velocity=0, time=47),
    Message('note_on', channel=12, note=82, velocity=75, time=1),
    Message('note_off', channel=12, note=82, velocity=0, time=80),
    Message('note_on', channel=12, note=91, velocity=75, time=16),
    Message('note_off', channel=12, note=91, velocity=0, time=47),
    Message('note_on', channel=12, note=88, velocity=75, time=1),
    Message('note_off', channel=12, note=88, velocity=0, time=224),
    Message('note_on', channel=12, note=91, velocity=75, time=16),
    Message('note_off', channel=12, note=91, velocity=0, time=47),
    Message('note_on', channel=12, note=95, velocity=75, time=1),
    Message('note_off', channel=12, note=95, velocity=0, time=80),
    Message('note_on', channel=12, note=91, velocity=75, time=16),
    Message('note_off', channel=12, note=91, velocity=0, time=47),
    Message('note_on', channel=12, note=95, velocity=75, time=1),
    Message('note_off', channel=12, note=95, velocity=0, time=80),
    Message('note_on', channel=12, note=91, velocity=75, time=16),
    Message('note_off', channel=12, note=91, velocity=0, time=47),
    Message('note_on', channel=12, note=96, velocity=75, time=1),
    Message('note_off', channel=12, note=96, velocity=0, time=80),
    Message('note_on', channel=12, note=95, velocity=75, time=16),
    Message('note_off', channel=12, note=95, velocity=0, time=47),
    Message('note_on', channel=12, note=94, velocity=75, time=1),
    Message('note_off', channel=12, note=94, velocity=0, time=80),
    Message('note_on', channel=12, note=90, velocity=75, time=16),
    Message('note_off', channel=12, note=90, velocity=0, time=47),
    Message('note_on', channel=12, note=91, velocity=75, time=1),
    Message('note_off', channel=12, note=91, velocity=0, time=71),
    Message('note_on', channel=12, note=95, velocity=75, time=1),
    Message('note_off', channel=12, note=95, velocity=0, time=23),
    Message('note_on', channel=12, note=94, velocity=75, time=1),
    Message('note_off', channel=12, note=94, velocity=0, time=47),
    Message('note_on', channel=12, note=82, velocity=75, time=1),
    Message('note_off', channel=12, note=82, velocity=0, time=80),
    Message('note_on', channel=12, note=83, velocity=75, time=16),
    Message('note_off', channel=12, note=83, velocity=0, time=47),
    Message('note_on', channel=12, note=95, velocity=75, time=1),
    Message('note_off', channel=12, note=95, velocity=0, time=224),
    Message('note_on', channel=12, note=91, velocity=75, time=16),
    Message('note_off', channel=12, note=91, velocity=0, time=47),
    Message('note_on', channel=12, note=95, velocity=75, time=1),
    Message('note_off', channel=12, note=95, velocity=0, time=80),
    Message('note_on', channel=12, note=91, velocity=75, time=16),
    Message('note_off', channel=12, note=91, velocity=0, time=47),
    Message('note_on', channel=12, note=95, velocity=75, time=1),
    Message('note_off', channel=12, note=95, velocity=0, time=80),
    Message('note_on', channel=12, note=91, velocity=75, time=16),
    Message('note_off', channel=12, note=91, velocity=0, time=47),
    Message('note_on', channel=12, note=98, velocity=75, time=1),
    Message('note_off', channel=12, note=98, velocity=0, time=80),
    Message('note_on', channel=12, note=97, velocity=75, time=16),
    Message('note_off', channel=12, note=97, velocity=0, time=47),
    Message('note_on', channel=12, note=96, velocity=75, time=1),
    Message('note_off', channel=12, note=96, velocity=0, time=80),
    Message('note_on', channel=12, note=92, velocity=75, time=16),
    Message('note_off', channel=12, note=92, velocity=0, time=47),
    Message('note_on', channel=12, note=96, velocity=75, time=1),
    Message('note_off', channel=12, note=96, velocity=0, time=71),
    Message('note_on', channel=12, note=95, velocity=75, time=1),
    Message('note_off', channel=12, note=95, velocity=0, time=23),
    Message('note_on', channel=12, note=94, velocity=75, time=1),
    Message('note_off', channel=12, note=94, velocity=0, time=47),
    Message('note_on', channel=12, note=82, velocity=75, time=1),
    Message('note_off', channel=12, note=82, velocity=0, time=80),
    Message('note_on', channel=12, note=91, velocity=75, time=16),
    Message('note_off', channel=12, note=91, velocity=0, time=47),
    Message('note_on', channel=12, note=88, velocity=75, time=1),
    Message('note_off', channel=12, note=88, velocity=0, time=560),
    Message('control_change', channel=12, control=7, value=80, time=16),
    Message('note_on', channel=12, note=76, velocity=45, time=0),
    Message('note_off', channel=12, note=76, velocity=0, time=12),
    Message('note_on', channel=12, note=75, velocity=46, time=0),
    Message('control_change', channel=12, control=7, value=81, time=2),
    Message('note_off', channel=12, note=75, velocity=0, time=10),
    Message('note_on', channel=12, note=76, velocity=47, time=0),
    Message('control_change', channel=12, control=7, value=82, time=4),
    Message('note_off', channel=12, note=76, velocity=0, time=8),
    Message('note_on', channel=12, note=78, velocity=48, time=0),
    Message('control_change', channel=12, control=7, value=83, time=7),
    Message('note_off', channel=12, note=78, velocity=0, time=5),
    Message('note_on', channel=12, note=79, velocity=49, time=0),
    Message('control_change', channel=12, control=7, value=84, time=9),
    Message('note_off', channel=12, note=79, velocity=0, time=3),
    Message('note_on', channel=12, note=81, velocity=50, time=0),
    Message('control_change', channel=12, control=7, value=85, time=11),
    Message('note_off', channel=12, note=81, velocity=0, time=1),
    Message('note_on', channel=12, note=83, velocity=51, time=0),
    Message('note_off', channel=12, note=83, velocity=0, time=12),
    Message('note_on', channel=12, note=84, velocity=52, time=0),
    Message('control_change', channel=12, control=7, value=86, time=2),
    Message('note_off', channel=12, note=84, velocity=0, time=10),
    Message('note_on', channel=12, note=87, velocity=53, time=0),
    Message('control_change', channel=12, control=7, value=87, time=4),
    Message('note_off', channel=12, note=87, velocity=0, time=8),
    Message('note_on', channel=12, note=88, velocity=54, time=0),
    Message('control_change', channel=12, control=7, value=88, time=7),
    Message('note_off', channel=12, note=88, velocity=0, time=5),
    Message('note_on', channel=12, note=90, velocity=56, time=0),
    Message('control_change', channel=12, control=7, value=89, time=9),
    Message('note_off', channel=12, note=90, velocity=0, time=3),
    Message('note_on', channel=12, note=91, velocity=58, time=0),
    Message('control_change', channel=12, control=7, value=90, time=11),
    Message('note_off', channel=12, note=91, velocity=0, time=1),
    Message('note_on', channel=12, note=93, velocity=84, time=0),
    Message('note_off', channel=12, note=93, velocity=0, time=12),
    Message('note_on', channel=12, note=94, velocity=59, time=0),
    Message('control_change', channel=12, control=7, value=89, time=2),
    Message('note_off', channel=12, note=94, velocity=0, time=10),
    Message('note_on', channel=12, note=93, velocity=58, time=0),
    Message('control_change', channel=12, control=7, value=88, time=4),
    Message('note_off', channel=12, note=93, velocity=0, time=8),
    Message('note_on', channel=12, note=91, velocity=57, time=0),
    Message('control_change', channel=12, control=7, value=87, time=7),
    Message('note_off', channel=12, note=91, velocity=0, time=5),
    Message('note_on', channel=12, note=90, velocity=56, time=0),
    Message('control_change', channel=12, control=7, value=86, time=9),
    Message('note_off', channel=12, note=90, velocity=0, time=3),
    Message('note_on', channel=12, note=88, velocity=55, time=0),
    Message('control_change', channel=12, control=7, value=85, time=11),
    Message('note_off', channel=12, note=88, velocity=0, time=1),
    Message('note_on', channel=12, note=87, velocity=54, time=0),
    Message('note_off', channel=12, note=87, velocity=0, time=12),
    Message('note_on', channel=12, note=84, velocity=53, time=0),
    Message('control_change', channel=12, control=7, value=84, time=2),
    Message('note_off', channel=12, note=84, velocity=0, time=10),
    Message('note_on', channel=12, note=83, velocity=52, time=0),
    Message('control_change', channel=12, control=7, value=83, time=4),
    Message('note_off', channel=12, note=83, velocity=0, time=8),
    Message('note_on', channel=12, note=81, velocity=51, time=0),
    Message('control_change', channel=12, control=7, value=82, time=7),
    Message('note_off', channel=12, note=81, velocity=0, time=5),
    Message('note_on', channel=12, note=79, velocity=49, time=0),
    Message('control_change', channel=12, control=7, value=81, time=9),
    Message('note_off', channel=12, note=79, velocity=0, time=3),
    Message('note_on', channel=12, note=78, velocity=47, time=0),
    Message('note_off', channel=12, note=78, velocity=0, time=11),
    Message('control_change', channel=12, control=7, value=80, time=0),
    Message('note_on', channel=12, note=76, velocity=45, time=1),
    Message('note_off', channel=12, note=76, velocity=0, time=12),
    Message('note_on', channel=12, note=78, velocity=46, time=0),
    Message('control_change', channel=12, control=7, value=81, time=2),
    Message('note_off', channel=12, note=78, velocity=0, time=10),
    Message('note_on', channel=12, note=79, velocity=47, time=0),
    Message('control_change', channel=12, control=7, value=82, time=4),
    Message('note_off', channel=12, note=79, velocity=0, time=8),
    Message('note_on', channel=12, note=81, velocity=48, time=0),
    Message('control_change', channel=12, control=7, value=83, time=7),
    Message('note_off', channel=12, note=81, velocity=0, time=5),
    Message('note_on', channel=12, note=83, velocity=49, time=0),
    Message('control_change', channel=12, control=7, value=84, time=9),
    Message('note_off', channel=12, note=83, velocity=0, time=3),
    Message('note_on', channel=12, note=84, velocity=50, time=0),
    Message('control_change', channel=12, control=7, value=85, time=11),
    Message('note_off', channel=12, note=84, velocity=0, time=1),
    Message('note_on', channel=12, note=87, velocity=51, time=0),
    Message('note_off', channel=12, note=87, velocity=0, time=12),
    Message('note_on', channel=12, note=88, velocity=52, time=0),
    Message('control_change', channel=12, control=7, value=86, time=2),
    Message('note_off', channel=12, note=88, velocity=0, time=10),
    Message('note_on', channel=12, note=90, velocity=53, time=0),
    Message('control_change', channel=12, control=7, value=87, time=4),
    Message('note_off', channel=12, note=90, velocity=0, time=8),
    Message('note_on', channel=12, note=91, velocity=54, time=0),
    Message('control_change', channel=12, control=7, value=88, time=7),
    Message('note_off', channel=12, note=91, velocity=0, time=5),
    Message('note_on', channel=12, note=93, velocity=56, time=0),
    Message('control_change', channel=12, control=7, value=89, time=9),
    Message('note_off', channel=12, note=93, velocity=0, time=3),
    Message('note_on', channel=12, note=95, velocity=58, time=0),
    Message('control_change', channel=12, control=7, value=90, time=11),
    Message('note_off', channel=12, note=95, velocity=0, time=1),
    Message('note_on', channel=12, note=96, velocity=60, time=0),
    Message('note_off', channel=12, note=96, velocity=0, time=12),
    Message('note_on', channel=12, note=98, velocity=59, time=0),
    Message('control_change', channel=12, control=7, value=89, time=2),
    Message('note_off', channel=12, note=98, velocity=0, time=9),
    Message('note_on', channel=12, note=100, velocity=58, time=1),
    Message('control_change', channel=12, control=7, value=88, time=4),
    Message('note_off', channel=12, note=100, velocity=0, time=8),
    Message('note_on', channel=12, note=96, velocity=57, time=0),
    Message('control_change', channel=12, control=7, value=87, time=7),
    Message('note_off', channel=12, note=96, velocity=0, time=5),
    Message('note_on', channel=12, note=93, velocity=56, time=0),
    Message('control_change', channel=12, control=7, value=86, time=9),
    Message('note_off', channel=12, note=93, velocity=0, time=3),
    Message('note_on', channel=12, note=88, velocity=55, time=0),
    Message('control_change', channel=12, control=7, value=85, time=11),
    Message('note_off', channel=12, note=88, velocity=0, time=1),
    Message('note_on', channel=12, note=84, velocity=54, time=0),
    Message('note_off', channel=12, note=84, velocity=0, time=12),
    Message('note_on', channel=12, note=81, velocity=53, time=0),
    Message('control_change', channel=12, control=7, value=84, time=2),
    Message('note_off', channel=12, note=81, velocity=0, time=10),
    Message('note_on', channel=12, note=76, velocity=52, time=0),
    Message('control_change', channel=12, control=7, value=83, time=4),
    Message('note_off', channel=12, note=76, velocity=0, time=8),
    Message('note_on', channel=12, note=72, velocity=51, time=0),
    Message('control_change', channel=12, control=7, value=82, time=7),
    Message('note_off', channel=12, note=72, velocity=0, time=5),
    Message('note_on', channel=12, note=69, velocity=49, time=0),
    Message('control_change', channel=12, control=7, value=81, time=9),
    Message('note_off', channel=12, note=69, velocity=0, time=3),
    Message('note_on', channel=12, note=72, velocity=47, time=0),
    Message('note_off', channel=12, note=72, velocity=0, time=11),
    Message('control_change', channel=12, control=7, value=80, time=0),
    Message('note_on', channel=12, note=76, velocity=45, time=1),
    Message('note_off', channel=12, note=76, velocity=0, time=12),
    Message('note_on', channel=12, note=78, velocity=46, time=0),
    Message('control_change', channel=12, control=7, value=81, time=2),
    Message('note_off', channel=12, note=78, velocity=0, time=10),
    Message('note_on', channel=12, note=76, velocity=47, time=0),
    Message('control_change', channel=12, control=7, value=82, time=4),
    Message('note_off', channel=12, note=76, velocity=0, time=8),
    Message('note_on', channel=12, note=78, velocity=48, time=0),
    Message('control_change', channel=12, control=7, value=83, time=7),
    Message('note_off', channel=12, note=78, velocity=0, time=5),
    Message('note_on', channel=12, note=83, velocity=49, time=0),
    Message('control_change', channel=12, control=7, value=84, time=9),
    Message('note_off', channel=12, note=83, velocity=0, time=3),
    Message('note_on', channel=12, note=84, velocity=50, time=0),
    Message('control_change', channel=12, control=7, value=85, time=11),
    Message('note_off', channel=12, note=84, velocity=0, time=1),
    Message('note_on', channel=12, note=83, velocity=51, time=0),
    Message('note_off', channel=12, note=83, velocity=0, time=12),
    Message('note_on', channel=12, note=84, velocity=52, time=0),
    Message('control_change', channel=12, control=7, value=86, time=2),
    Message('note_off', channel=12, note=84, velocity=0, time=10),
    Message('note_on', channel=12, note=81, velocity=53, time=0),
    Message('control_change', channel=12, control=7, value=87, time=4),
    Message('note_off', channel=12, note=81, velocity=0, time=8),
    Message('note_on', channel=12, note=83, velocity=54, time=0),
    Message('control_change', channel=12, control=7, value=88, time=7),
    Message('note_off', channel=12, note=83, velocity=0, time=5),
    Message('note_on', channel=12, note=81, velocity=56, time=0),
    Message('control_change', channel=12, control=7, value=89, time=9),
    Message('note_off', channel=12, note=81, velocity=0, time=3),
    Message('note_on', channel=12, note=83, velocity=58, time=0),
    Message('control_change', channel=12, control=7, value=90, time=11),
    Message('note_off', channel=12, note=83, velocity=0, time=1),
    Message('note_on', channel=12, note=84, velocity=60, time=0),
    Message('note_off', channel=12, note=84, velocity=0, time=12),
    Message('note_on', channel=12, note=83, velocity=59, time=0),
    Message('control_change', channel=12, control=7, value=89, time=2),
    Message('note_off', channel=12, note=83, velocity=0, time=10),
    Message('note_on', channel=12, note=81, velocity=58, time=0),
    Message('control_change', channel=12, control=7, value=88, time=4),
    Message('note_off', channel=12, note=81, velocity=0, time=8),
    Message('note_on', channel=12, note=79, velocity=57, time=0),
    Message('control_change', channel=12, control=7, value=87, time=7),
    Message('note_off', channel=12, note=79, velocity=0, time=4),
    Message('note_on', channel=12, note=90, velocity=56, time=1),
    Message('control_change', channel=12, control=7, value=86, time=9),
    Message('note_off', channel=12, note=90, velocity=0, time=3),
    Message('note_on', channel=12, note=88, velocity=55, time=0),
    Message('control_change', channel=12, control=7, value=85, time=11),
    Message('note_off', channel=12, note=88, velocity=0, time=1),
    Message('note_on', channel=12, note=86, velocity=54, time=0),
    Message('note_off', channel=12, note=86, velocity=0, time=12),
    Message('note_on', channel=12, note=84, velocity=53, time=0),
    Message('control_change', channel=12, control=7, value=84, time=2),
    Message('note_off', channel=12, note=84, velocity=0, time=10),
    Message('note_on', channel=12, note=95, velocity=52, time=0),
    Message('control_change', channel=12, control=7, value=83, time=4),
    Message('note_off', channel=12, note=95, velocity=0, time=8),
    Message('note_on', channel=12, note=93, velocity=51, time=0),
    Message('control_change', channel=12, control=7, value=82, time=7),
    Message('note_off', channel=12, note=93, velocity=0, time=5),
    Message('note_on', channel=12, note=91, velocity=49, time=0),
    Message('control_change', channel=12, control=7, value=81, time=9),
    Message('note_off', channel=12, note=91, velocity=0, time=3),
    Message('note_on', channel=12, note=90, velocity=47, time=0),
    Message('note_off', channel=12, note=90, velocity=0, time=11),
    Message('control_change', channel=12, control=7, value=80, time=0),
    Message('note_on', channel=12, note=96, velocity=45, time=1),
    Message('control_change', channel=12, control=7, value=81, time=4),
    Message('control_change', channel=12, control=7, value=82, time=5),
    Message('note_off', channel=12, note=96, velocity=0, time=3),
    Message('note_on', channel=12, note=98, velocity=47, time=0),
    Message('control_change', channel=12, control=7, value=83, time=2),
    Message('control_change', channel=12, control=7, value=84, time=5),
    Message('note_off', channel=12, note=98, velocity=0, time=5),
    Message('control_change', channel=12, control=7, value=85, time=0),
    Message('note_on', channel=12, note=100, velocity=49, time=0),
    Message('control_change', channel=12, control=7, value=86, time=4),
    Message('control_change', channel=12, control=7, value=87, time=5),
    Message('note_off', channel=12, note=100, velocity=0, time=3),
    Message('note_on', channel=12, note=98, velocity=51, time=0),
    Message('control_change', channel=12, control=7, value=88, time=2),
    Message('control_change', channel=12, control=7, value=89, time=5),
    Message('note_off', channel=12, note=98, velocity=0, time=5),
    Message('control_change', channel=12, control=7, value=90, time=0),
    Message('note_on', channel=12, note=96, velocity=53, time=0),
    Message('control_change', channel=12, control=7, value=91, time=4),
    Message('control_change', channel=12, control=7, value=92, time=5),
    Message('note_off', channel=12, note=96, velocity=0, time=3),
    Message('note_on', channel=12, note=95, velocity=55, time=0),
    Message('control_change', channel=12, control=7, value=93, time=2),
    Message('control_change', channel=12, control=7, value=94, time=5),
    Message('note_off', channel=12, note=95, velocity=0, time=5),
    Message('control_change', channel=12, control=7, value=95, time=0),
    Message('note_on', channel=12, note=93, velocity=57, time=0),
    Message('control_change', channel=12, control=7, value=96, time=4),
    Message('control_change', channel=12, control=7, value=97, time=5),
    Message('note_off', channel=12, note=93, velocity=0, time=3),
    Message('note_on', channel=12, note=91, velocity=60, time=0),
    Message('control_change', channel=12, control=7, value=98, time=2),
    Message('control_change', channel=12, control=7, value=99, time=5),
    Message('note_off', channel=12, note=91, velocity=0, time=5),
    Message('control_change', channel=12, control=7, value=100, time=0),
    Message('note_on', channel=12, note=90, velocity=63, time=0),
    Message('control_change', channel=12, control=7, value=101, time=4),
    Message('control_change', channel=12, control=7, value=102, time=5),
    Message('note_off', channel=12, note=90, velocity=0, time=3),
    Message('note_on', channel=12, note=88, velocity=66, time=0),
    Message('control_change', channel=12, control=7, value=103, time=2),
    Message('control_change', channel=12, control=7, value=104, time=5),
    Message('note_off', channel=12, note=88, velocity=0, time=5),
    Message('control_change', channel=12, control=7, value=105, time=0),
    Message('note_on', channel=12, note=86, velocity=69, time=0),
    Message('control_change', channel=12, control=7, value=106, time=4),
    Message('control_change', channel=12, control=7, value=107, time=5),
    Message('note_off', channel=12, note=86, velocity=0, time=3),
    Message('note_on', channel=12, note=84, velocity=72, time=0),
    Message('control_change', channel=12, control=7, value=108, time=2),
    Message('control_change', channel=12, control=7, value=109, time=5),
    Message('note_off', channel=12, note=84, velocity=0, time=4),
    Message('control_change', channel=12, control=7, value=110, time=1),
    Message('note_on', channel=12, note=83, velocity=75, time=0),
    Message('control_change', channel=12, control=7, value=109, time=4),
    Message('control_change', channel=12, control=7, value=108, time=5),
    Message('note_off', channel=12, note=83, velocity=0, time=3),
    Message('note_on', channel=12, note=84, velocity=73, time=0),
    Message('control_change', channel=12, control=7, value=107, time=2),
    Message('control_change', channel=12, control=7, value=106, time=5),
    Message('note_off', channel=12, note=84, velocity=0, time=5),
    Message('control_change', channel=12, control=7, value=105, time=0),
    Message('note_on', channel=12, note=86, velocity=71, time=0),
    Message('control_change', channel=12, control=7, value=104, time=4),
    Message('control_change', channel=12, control=7, value=103, time=5),
    Message('note_off', channel=12, note=86, velocity=0, time=3),
    Message('note_on', channel=12, note=87, velocity=69, time=0),
    Message('control_change', channel=12, control=7, value=102, time=2),
    Message('control_change', channel=12, control=7, value=101, time=5),
    Message('note_off', channel=12, note=87, velocity=0, time=5),
    Message('control_change', channel=12, control=7, value=100, time=0),
    Message('note_on', channel=12, note=86, velocity=67, time=0),
    Message('control_change', channel=12, control=7, value=99, time=4),
    Message('control_change', channel=12, control=7, value=98, time=5),
    Message('note_off', channel=12, note=86, velocity=0, time=3),
    Message('note_on', channel=12, note=84, velocity=65, time=0),
    Message('control_change', channel=12, control=7, value=97, time=2),
    Message('control_change', channel=12, control=7, value=96, time=5),
    Message('note_off', channel=12, note=84, velocity=0, time=5),
    Message('control_change', channel=12, control=7, value=95, time=0),
    Message('note_on', channel=12, note=83, velocity=63, time=0),
    Message('control_change', channel=12, control=7, value=94, time=4),
    Message('control_change', channel=12, control=7, value=93, time=5),
    Message('note_off', channel=12, note=83, velocity=0, time=3),
    Message('note_on', channel=12, note=81, velocity=60, time=0),
    Message('control_change', channel=12, control=7, value=92, time=2),
    Message('control_change', channel=12, control=7, value=91, time=5),
    Message('note_off', channel=12, note=81, velocity=0, time=5),
    Message('control_change', channel=12, control=7, value=90, time=0),
    Message('note_on', channel=12, note=79, velocity=57, time=0),
    Message('control_change', channel=12, control=7, value=89, time=4),
    Message('control_change', channel=12, control=7, value=88, time=5),
    Message('note_off', channel=12, note=79, velocity=0, time=3),
    Message('note_on', channel=12, note=78, velocity=54, time=0),
    Message('control_change', channel=12, control=7, value=87, time=2),
    Message('control_change', channel=12, control=7, value=86, time=5),
    Message('note_off', channel=12, note=78, velocity=0, time=5),
    Message('control_change', channel=12, control=7, value=85, time=0),
    Message('note_on', channel=12, note=76, velocity=51, time=0),
    Message('control_change', channel=12, control=7, value=84, time=4),
    Message('control_change', channel=12, control=7, value=83, time=5),
    Message('note_off', channel=12, note=76, velocity=0, time=3),
    Message('note_on', channel=12, note=75, velocity=48, time=0),
    Message('control_change', channel=12, control=7, value=82, time=2),
    Message('control_change', channel=12, control=7, value=81, time=5),
    Message('note_off', channel=12, note=75, velocity=0, time=4),
    Message('control_change', channel=12, control=7, value=80, time=1),
    Message('note_on', channel=12, note=81, velocity=45, time=0),
    Message('note_off', channel=12, note=81, velocity=0, time=12),
    Message('note_on', channel=12, note=79, velocity=45, time=0),
    Message('note_off', channel=12, note=79, velocity=0, time=12),
    Message('note_on', channel=12, note=78, velocity=45, time=0),
    Message('note_off', channel=12, note=78, velocity=0, time=12),
    Message('note_on', channel=12, note=76, velocity=45, time=0),
    Message('note_off', channel=12, note=76, velocity=0, time=12),
    Message('note_on', channel=12, note=83, velocity=45, time=0),
    Message('note_off', channel=12, note=83, velocity=0, time=12),
    Message('note_on', channel=12, note=81, velocity=45, time=0),
    Message('note_off', channel=12, note=81, velocity=0, time=12),
    Message('note_on', channel=12, note=79, velocity=45, time=0),
    Message('note_off', channel=12, note=79, velocity=0, time=12),
    Message('note_on', channel=12, note=78, velocity=45, time=0),
    Message('note_off', channel=12, note=78, velocity=0, time=12),
    Message('note_on', channel=12, note=84, velocity=45, time=0),
    Message('note_off', channel=12, note=84, velocity=0, time=12),
    Message('note_on', channel=12, note=83, velocity=45, time=0),
    Message('note_off', channel=12, note=83, velocity=0, time=12),
    Message('note_on', channel=12, note=81, velocity=45, time=0),
    Message('note_off', channel=12, note=81, velocity=0, time=12),
    Message('note_on', channel=12, note=79, velocity=45, time=0),
    Message('note_off', channel=12, note=79, velocity=0, time=11),
    Message('note_on', channel=12, note=81, velocity=45, time=1),
    Message('note_off', channel=12, note=81, velocity=0, time=12),
    Message('note_on', channel=12, note=83, velocity=45, time=0),
    Message('note_off', channel=12, note=83, velocity=0, time=12),
    Message('note_on', channel=12, note=84, velocity=45, time=0),
    Message('note_off', channel=12, note=84, velocity=0, time=12),
    Message('note_on', channel=12, note=86, velocity=45, time=0),
    Message('note_off', channel=12, note=86, velocity=0, time=12),
    Message('note_on', channel=12, note=88, velocity=45, time=0),
    Message('note_off', channel=12, note=88, velocity=0, time=12),
    Message('note_on', channel=12, note=89, velocity=45, time=0),
    Message('note_off', channel=12, note=89, velocity=0, time=12),
    Message('note_on', channel=12, note=88, velocity=45, time=0),
    Message('note_off', channel=12, note=88, velocity=0, time=12),
    Message('note_on', channel=12, note=86, velocity=45, time=0),
    Message('note_off', channel=12, note=86, velocity=0, time=12),
    Message('note_on', channel=12, note=84, velocity=45, time=0),
    Message('note_off', channel=12, note=84, velocity=0, time=12),
    Message('note_on', channel=12, note=83, velocity=45, time=0),
    Message('note_off', channel=12, note=83, velocity=0, time=12),
    Message('note_on', channel=12, note=81, velocity=45, time=0),
    Message('note_off', channel=12, note=81, velocity=0, time=12),
    Message('note_on', channel=12, note=79, velocity=45, time=0),
    Message('note_off', channel=12, note=79, velocity=0, time=11),
    Message('note_on', channel=12, note=84, velocity=45, time=1),
    Message('note_off', channel=12, note=84, velocity=0, time=12),
    Message('note_on', channel=12, note=86, velocity=45, time=0),
    Message('note_off', channel=12, note=86, velocity=0, time=12),
    Message('note_on', channel=12, note=88, velocity=45, time=0),
    Message('note_off', channel=12, note=88, velocity=0, time=12),
    Message('note_on', channel=12, note=90, velocity=45, time=0),
    Message('note_off', channel=12, note=90, velocity=0, time=12),
    Message('note_on', channel=12, note=91, velocity=45, time=0),
    Message('note_off', channel=12, note=91, velocity=0, time=12),
    Message('note_on', channel=12, note=93, velocity=45, time=0),
    Message('note_off', channel=12, note=93, velocity=0, time=12),
    Message('note_on', channel=12, note=91, velocity=45, time=0),
    Message('note_off', channel=12, note=91, velocity=0, time=12),
    Message('note_on', channel=12, note=90, velocity=45, time=0),
    Message('note_off', channel=12, note=90, velocity=0, time=12),
    Message('note_on', channel=12, note=88, velocity=45, time=0),
    Message('note_off', channel=12, note=88, velocity=0, time=12),
    Message('note_on', channel=12, note=86, velocity=45, time=0),
    Message('note_off', channel=12, note=86, velocity=0, time=12),
    Message('note_on', channel=12, note=84, velocity=45, time=0),
    Message('note_off', channel=12, note=84, velocity=0, time=12),
    Message('note_on', channel=12, note=83, velocity=45, time=0),
    Message('note_off', channel=12, note=83, velocity=0, time=11),
    Message('note_on', channel=12, note=81, velocity=45, time=1),
    Message('note_off', channel=12, note=81, velocity=0, time=12),
    Message('note_on', channel=12, note=83, velocity=45, time=0),
    Message('note_off', channel=12, note=83, velocity=0, time=12),
    Message('note_on', channel=12, note=84, velocity=45, time=0),
    Message('note_off', channel=12, note=84, velocity=0, time=12),
    Message('note_on', channel=12, note=86, velocity=45, time=0),
    Message('note_off', channel=12, note=86, velocity=0, time=12),
    Message('note_on', channel=12, note=88, velocity=45, time=0),
    Message('note_off', channel=12, note=88, velocity=0, time=12),
    Message('note_on', channel=12, note=90, velocity=45, time=0),
    Message('note_off', channel=12, note=90, velocity=0, time=12),
    Message('note_on', channel=12, note=91, velocity=45, time=0),
    Message('note_off', channel=12, note=91, velocity=0, time=12),
    Message('note_on', channel=12, note=93, velocity=45, time=0),
    Message('note_off', channel=12, note=93, velocity=0, time=12),
    Message('note_on', channel=12, note=95, velocity=45, time=0),
    Message('note_off', channel=12, note=95, velocity=0, time=12),
    Message('note_on', channel=12, note=96, velocity=45, time=0),
    Message('note_off', channel=12, note=96, velocity=0, time=12),
    Message('note_on', channel=12, note=98, velocity=45, time=0),
    Message('note_off', channel=12, note=98, velocity=0, time=12),
    Message('note_on', channel=12, note=96, velocity=45, time=0),
    Message('note_off', channel=12, note=96, velocity=0, time=11),
    Message('note_on', channel=12, note=95, velocity=45, time=1),
    Message('note_off', channel=12, note=95, velocity=0, time=12),
    Message('note_on', channel=12, note=91, velocity=45, time=0),
    Message('note_off', channel=12, note=91, velocity=0, time=12),
    Message('note_on', channel=12, note=88, velocity=45, time=0),
    Message('note_off', channel=12, note=88, velocity=0, time=12),
    Message('note_on', channel=12, note=83, velocity=45, time=0),
    Message('note_off', channel=12, note=83, velocity=0, time=12),
    Message('note_on', channel=12, note=79, velocity=45, time=0),
    Message('note_off', channel=12, note=79, velocity=0, time=12),
    Message('note_on', channel=12, note=83, velocity=45, time=0),
    Message('note_off', channel=12, note=83, velocity=0, time=12),
    Message('note_on', channel=12, note=88, velocity=45, time=0),
    Message('note_off', channel=12, note=88, velocity=0, time=12),
    Message('note_on', channel=12, note=91, velocity=45, time=0),
    Message('note_off', channel=12, note=91, velocity=0, time=12),
    Message('note_on', channel=12, note=95, velocity=45, time=0),
    Message('note_off', channel=12, note=95, velocity=0, time=12),
    Message('note_on', channel=12, note=91, velocity=45, time=0),
    Message('note_off', channel=12, note=91, velocity=0, time=12),
    Message('note_on', channel=12, note=88, velocity=45, time=0),
    Message('note_off', channel=12, note=88, velocity=0, time=12),
    Message('note_on', channel=12, note=83, velocity=45, time=0),
    Message('note_off', channel=12, note=83, velocity=0, time=11),
    Message('note_on', channel=12, note=88, velocity=45, time=1),
    Message('note_off', channel=12, note=88, velocity=0, time=12),
    Message('note_on', channel=12, note=93, velocity=45, time=0),
    Message('note_off', channel=12, note=93, velocity=0, time=12),
    Message('note_on', channel=12, note=91, velocity=45, time=0),
    Message('note_off', channel=12, note=91, velocity=0, time=12),
    Message('note_on', channel=12, note=90, velocity=45, time=0),
    Message('note_off', channel=12, note=90, velocity=0, time=12),
    Message('note_on', channel=12, note=88, velocity=45, time=0),
    Message('note_off', channel=12, note=88, velocity=0, time=12),
    Message('note_on', channel=12, note=86, velocity=45, time=0),
    Message('note_off', channel=12, note=86, velocity=0, time=12),
    Message('note_on', channel=12, note=84, velocity=45, time=0),
    Message('note_off', channel=12, note=84, velocity=0, time=12),
    Message('note_on', channel=12, note=83, velocity=45, time=0),
    Message('note_off', channel=12, note=83, velocity=0, time=12),
    Message('note_on', channel=12, note=86, velocity=45, time=0),
    Message('note_off', channel=12, note=86, velocity=0, time=12),
    Message('note_on', channel=12, note=82, velocity=45, time=0),
    Message('note_off', channel=12, note=82, velocity=0, time=12),
    Message('note_on', channel=12, note=78, velocity=45, time=0),
    Message('note_off', channel=12, note=78, velocity=0, time=12),
    Message('note_on', channel=12, note=77, velocity=45, time=0),
    Message('note_off', channel=12, note=77, velocity=0, time=11),
    Message('note_on', channel=12, note=76, velocity=45, time=1),
    Message('control_change', channel=12, control=7, value=81, time=7),
    Message('note_off', channel=12, note=76, velocity=0, time=5),
    Message('note_on', channel=12, note=75, velocity=47, time=0),
    Message('control_change', channel=12, control=7, value=82, time=2),
    Message('control_change', channel=12, control=7, value=83, time=7),
    Message('note_off', channel=12, note=75, velocity=0, time=3),
    Message('note_on', channel=12, note=76, velocity=49, time=0),
    Message('control_change', channel=12, control=7, value=84, time=4),
    Message('control_change', channel=12, control=7, value=85, time=7),
    Message('note_off', channel=12, note=76, velocity=0, time=1),
    Message('note_on', channel=12, note=78, velocity=51, time=0),
    Message('control_change', channel=12, control=7, value=86, time=7),
    Message('note_off', channel=12, note=78, velocity=0, time=5),
    Message('note_on', channel=12, note=79, velocity=53, time=0),
    Message('control_change', channel=12, control=7, value=87, time=2),
    Message('control_change', channel=12, control=7, value=88, time=7),
    Message('note_off', channel=12, note=79, velocity=0, time=3),
    Message('note_on', channel=12, note=81, velocity=55, time=0),
    Message('control_change', channel=12, control=7, value=89, time=4),
    Message('control_change', channel=12, control=7, value=90, time=7),
    Message('note_off', channel=12, note=81, velocity=0, time=1),
    Message('note_on', channel=12, note=83, velocity=57, time=0),
    Message('control_change', channel=12, control=7, value=91, time=7),
    Message('note_off', channel=12, note=83, velocity=0, time=5),
    Message('note_on', channel=12, note=84, velocity=60, time=0),
    Message('control_change', channel=12, control=7, value=92, time=2),
    Message('control_change', channel=12, control=7, value=93, time=7),
    Message('note_off', channel=12, note=84, velocity=0, time=3),
    Message('note_on', channel=12, note=87, velocity=63, time=0),
    Message('control_change', channel=12, control=7, value=94, time=4),
    Message('control_change', channel=12, control=7, value=95, time=7),
    Message('note_off', channel=12, note=87, velocity=0, time=1),
    Message('note_on', channel=12, note=88, velocity=66, time=0),
    Message('control_change', channel=12, control=7, value=96, time=7),
    Message('note_off', channel=12, note=88, velocity=0, time=5),
    Message('note_on', channel=12, note=90, velocity=69, time=0),
    Message('control_change', channel=12, control=7, value=97, time=2),
    Message('control_change', channel=12, control=7, value=98, time=7),
    Message('note_off', channel=12, note=90, velocity=0, time=3),
    Message('note_on', channel=12, note=91, velocity=72, time=0),
    Message('control_change', channel=12, control=7, value=99, time=4),
    Message('note_off', channel=12, note=91, velocity=0, time=7),
    Message('control_change', channel=12, control=7, value=100, time=0),
    Message('note_on', channel=12, note=93, velocity=105, time=1),
    Message('note_off', channel=12, note=93, velocity=0, time=12),
    Message('note_on', channel=12, note=94, velocity=74, time=0),
    Message('control_change', channel=12, control=7, value=99, time=2),
    Message('note_off', channel=12, note=94, velocity=0, time=10),
    Message('note_on', channel=12, note=93, velocity=73, time=0),
    Message('control_change', channel=12, control=7, value=98, time=4),
    Message('note_off', channel=12, note=93, velocity=0, time=8),
    Message('note_on', channel=12, note=91, velocity=72, time=0),
    Message('control_change', channel=12, control=7, value=97, time=7),
    Message('note_off', channel=12, note=91, velocity=0, time=5),
    Message('note_on', channel=12, note=90, velocity=71, time=0),
    Message('control_change', channel=12, control=7, value=96, time=9),
    Message('note_off', channel=12, note=90, velocity=0, time=3),
    Message('note_on', channel=12, note=88, velocity=70, time=0),
    Message('control_change', channel=12, control=7, value=95, time=11),
    Message('note_off', channel=12, note=88, velocity=0, time=1),
    Message('note_on', channel=12, note=86, velocity=69, time=0),
    Message('note_off', channel=12, note=86, velocity=0, time=12),
    Message('note_on', channel=12, note=84, velocity=68, time=0),
    Message('control_change', channel=12, control=7, value=94, time=2),
    Message('note_off', channel=12, note=84, velocity=0, time=10),
    Message('note_on', channel=12, note=83, velocity=67, time=0),
    Message('control_change', channel=12, control=7, value=93, time=4),
    Message('note_off', channel=12, note=83, velocity=0, time=8),
    Message('note_on', channel=12, note=81, velocity=66, time=0),
    Message('control_change', channel=12, control=7, value=92, time=7),
    Message('note_off', channel=12, note=81, velocity=0, time=5),
    Message('note_on', channel=12, note=79, velocity=64, time=0),
    Message('control_change', channel=12, control=7, value=91, time=9),
    Message('note_off', channel=12, note=79, velocity=0, time=3),
    Message('note_on', channel=12, note=78, velocity=62, time=0),
    Message('note_off', channel=12, note=78, velocity=0, time=11),
    Message('control_change', channel=12, control=7, value=90, time=0),
    Message('note_on', channel=12, note=76, velocity=60, time=1),
    Message('note_off', channel=12, note=76, velocity=0, time=11),
    Message('note_on', channel=12, note=77, velocity=60, time=1),
    Message('note_off', channel=12, note=77, velocity=0, time=11),
    Message('note_on', channel=12, note=76, velocity=60, time=1),
    Message('note_off', channel=12, note=76, velocity=0, time=23),
    Message('note_on', channel=12, note=83, velocity=60, time=1),
    Message('note_off', channel=12, note=83, velocity=0, time=11),
    Message('note_on', channel=12, note=84, velocity=60, time=1),
    Message('note_off', channel=12, note=84, velocity=0, time=11),
    Message('note_on', channel=12, note=83, velocity=60, time=1),
    Message('note_off', channel=12, note=83, velocity=0, time=23),
    Message('note_on', channel=12, note=82, velocity=60, time=1),
    Message('note_off', channel=12, note=82, velocity=0, time=11),
    Message('note_on', channel=12, note=83, velocity=60, time=1),
    Message('note_off', channel=12, note=83, velocity=0, time=11),
    Message('note_on', channel=12, note=82, velocity=60, time=1),
    Message('note_off', channel=12, note=82, velocity=0, time=23),
    Message('note_on', channel=12, note=83, velocity=60, time=1),
    Message('note_off', channel=12, note=83, velocity=0, time=12),
    Message('note_on', channel=12, note=79, velocity=60, time=0),
    Message('note_off', channel=12, note=79, velocity=0, time=12),
    Message('note_on', channel=12, note=81, velocity=60, time=0),
    Message('note_off', channel=12, note=81, velocity=0, time=12),
    Message('note_on', channel=12, note=83, velocity=60, time=0),
    Message('note_off', channel=12, note=83, velocity=0, time=12),
    Message('note_on', channel=12, note=84, velocity=60, time=0),
    Message('note_off', channel=12, note=84, velocity=0, time=12),
    Message('note_on', channel=12, note=87, velocity=60, time=0),
    Message('note_off', channel=12, note=87, velocity=0, time=12),
    Message('note_on', channel=12, note=88, velocity=60, time=0),
    Message('note_off', channel=12, note=88, velocity=0, time=12),
    Message('note_on', channel=12, note=90, velocity=60, time=0),
    Message('note_off', channel=12, note=90, velocity=0, time=12),
    Message('note_on', channel=12, note=91, velocity=60, time=0),
    Message('note_off', channel=12, note=91, velocity=0, time=12),
    Message('note_on', channel=12, note=93, velocity=60, time=0),
    Message('note_off', channel=12, note=93, velocity=0, time=12),
    Message('note_on', channel=12, note=95, velocity=60, time=0),
    Message('note_off', channel=12, note=95, velocity=0, time=12),
    Message('note_on', channel=12, note=96, velocity=60, time=0),
    Message('note_off', channel=12, note=96, velocity=0, time=11),
    Message('note_on', channel=12, note=98, velocity=60, time=1),
    Message('note_off', channel=12, note=98, velocity=0, time=12),
    Message('note_on', channel=12, note=94, velocity=60, time=0),
    Message('note_off', channel=12, note=94, velocity=0, time=12),
    Message('note_on', channel=12, note=89, velocity=60, time=0),
    Message('note_off', channel=12, note=89, velocity=0, time=12),
    Message('note_on', channel=12, note=86, velocity=60, time=0),
    Message('note_off', channel=12, note=86, velocity=0, time=12),
    Message('note_on', channel=12, note=82, velocity=60, time=0),
    Message('note_off', channel=12, note=82, velocity=0, time=12),
    Message('note_on', channel=12, note=79, velocity=60, time=0),
    Message('note_off', channel=12, note=79, velocity=0, time=12),
    Message('note_on', channel=12, note=82, velocity=60, time=0),
    Message('note_off', channel=12, note=82, velocity=0, time=12),
    Message('note_on', channel=12, note=86, velocity=60, time=0),
    Message('note_off', channel=12, note=86, velocity=0, time=12),
    Message('note_on', channel=12, note=90, velocity=60, time=0),
    Message('note_off', channel=12, note=90, velocity=0, time=12),
    Message('note_on', channel=12, note=91, velocity=60, time=0),
    Message('note_off', channel=12, note=91, velocity=0, time=12),
    Message('note_on', channel=12, note=93, velocity=60, time=0),
    Message('note_off', channel=12, note=93, velocity=0, time=12),
    Message('note_on', channel=12, note=94, velocity=60, time=0),
    Message('note_off', channel=12, note=94, velocity=0, time=11),
    Message('note_on', channel=12, note=96, velocity=60, time=1),
    Message('note_off', channel=12, note=96, velocity=0, time=12),
    Message('note_on', channel=12, note=92, velocity=60, time=0),
    Message('note_off', channel=12, note=92, velocity=0, time=12),
    Message('note_on', channel=12, note=89, velocity=60, time=0),
    Message('note_off', channel=12, note=89, velocity=0, time=12),
    Message('note_on', channel=12, note=84, velocity=60, time=0),
    Message('note_off', channel=12, note=84, velocity=0, time=12),
    Message('note_on', channel=12, note=80, velocity=60, time=0),
    Message('note_off', channel=12, note=80, velocity=0, time=12),
    Message('note_on', channel=12, note=77, velocity=60, time=0),
    Message('note_off', channel=12, note=77, velocity=0, time=12),
    Message('note_on', channel=12, note=80, velocity=60, time=0),
    Message('note_off', channel=12, note=80, velocity=0, time=12),
    Message('note_on', channel=12, note=84, velocity=60, time=0),
    Message('note_off', channel=12, note=84, velocity=0, time=12),
    Message('note_on', channel=12, note=88, velocity=60, time=0),
    Message('note_off', channel=12, note=88, velocity=0, time=12),
    Message('note_on', channel=12, note=89, velocity=60, time=0),
    Message('note_off', channel=12, note=89, velocity=0, time=12),
    Message('note_on', channel=12, note=91, velocity=60, time=0),
    Message('note_off', channel=12, note=91, velocity=0, time=12),
    Message('note_on', channel=12, note=92, velocity=60, time=0),
    Message('note_off', channel=12, note=92, velocity=0, time=11),
    Message('note_on', channel=12, note=96, velocity=60, time=1),
    Message('note_off', channel=12, note=96, velocity=0, time=12),
    Message('note_on', channel=12, note=93, velocity=60, time=0),
    Message('note_off', channel=12, note=93, velocity=0, time=12),
    Message('note_on', channel=12, note=88, velocity=60, time=0),
    Message('note_off', channel=12, note=88, velocity=0, time=12),
    Message('note_on', channel=12, note=84, velocity=60, time=0),
    Message('note_off', channel=12, note=84, velocity=0, time=12),
    Message('note_on', channel=12, note=81, velocity=60, time=0),
    Message('note_off', channel=12, note=81, velocity=0, time=12),
    Message('note_on', channel=12, note=84, velocity=60, time=0),
    Message('note_off', channel=12, note=84, velocity=0, time=12),
    Message('note_on', channel=12, note=88, velocity=60, time=0),
    Message('note_off', channel=12, note=88, velocity=0, time=12),
    Message('note_on', channel=12, note=93, velocity=60, time=0),
    Message('note_off', channel=12, note=93, velocity=0, time=12),
    Message('note_on', channel=12, note=84, velocity=60, time=0),
    Message('note_off', channel=12, note=84, velocity=0, time=12),
    Message('note_on', channel=12, note=85, velocity=60, time=0),
    Message('note_off', channel=12, note=85, velocity=0, time=12),
    Message('note_on', channel=12, note=86, velocity=60, time=0),
    Message('note_off', channel=12, note=86, velocity=0, time=12),
    Message('note_on', channel=12, note=87, velocity=60, time=0),
    Message('note_off', channel=12, note=87, velocity=0, time=11),
    Message('note_on', channel=12, note=88, velocity=60, time=1),
    Message('note_off', channel=12, note=88, velocity=0, time=12),
    Message('note_on', channel=12, note=90, velocity=60, time=0),
    Message('note_off', channel=12, note=90, velocity=0, time=12),
    Message('note_on', channel=12, note=91, velocity=60, time=0),
    Message('note_off', channel=12, note=91, velocity=0, time=12),
    Message('note_on', channel=12, note=93, velocity=60, time=0),
    Message('note_off', channel=12, note=93, velocity=0, time=12),
    Message('note_on', channel=12, note=94, velocity=60, time=0),
    Message('note_off', channel=12, note=94, velocity=0, time=12),
    Message('note_on', channel=12, note=91, velocity=60, time=0),
    Message('note_off', channel=12, note=91, velocity=0, time=12),
    Message('note_on', channel=12, note=90, velocity=60, time=0),
    Message('note_off', channel=12, note=90, velocity=0, time=12),
    Message('note_on', channel=12, note=88, velocity=60, time=0),
    Message('note_off', channel=12, note=88, velocity=0, time=12),
    Message('note_on', channel=12, note=87, velocity=60, time=0),
    Message('note_off', channel=12, note=87, velocity=0, time=12),
    Message('note_on', channel=12, note=84, velocity=60, time=0),
    Message('note_off', channel=12, note=84, velocity=0, time=12),
    Message('note_on', channel=12, note=83, velocity=60, time=0),
    Message('note_off', channel=12, note=83, velocity=0, time=12),
    Message('note_on', channel=12, note=82, velocity=60, time=0),
    Message('note_off', channel=12, note=82, velocity=0, time=11),
    Message('note_on', channel=12, note=83, velocity=60, time=1),
    Message('note_off', channel=12, note=83, velocity=0, time=12),
    Message('note_on', channel=12, note=84, velocity=61, time=0),
    Message('control_change', channel=12, control=7, value=91, time=2),
    Message('note_off', channel=12, note=84, velocity=0, time=10),
    Message('note_on', channel=12, note=87, velocity=62, time=0),
    Message('control_change', channel=12, control=7, value=92, time=4),
    Message('note_off', channel=12, note=87, velocity=0, time=8),
    Message('note_on', channel=12, note=88, velocity=63, time=0),
    Message('control_change', channel=12, control=7, value=93, time=7),
    Message('note_off', channel=12, note=88, velocity=0, time=5),
    Message('note_on', channel=12, note=90, velocity=64, time=0),
    Message('control_change', channel=12, control=7, value=94, time=9),
    Message('note_off', channel=12, note=90, velocity=0, time=3),
    Message('note_on', channel=12, note=91, velocity=65, time=0),
    Message('control_change', channel=12, control=7, value=95, time=11),
    Message('note_off', channel=12, note=91, velocity=0, time=1),
    Message('note_on', channel=12, note=93, velocity=66, time=0),
    Message('note_off', channel=12, note=93, velocity=0, time=12),
    Message('note_on', channel=12, note=94, velocity=67, time=0),
    Message('control_change', channel=12, control=7, value=96, time=2),
    Message('note_off', channel=12, note=94, velocity=0, time=10),
    Message('note_on', channel=12, note=96, velocity=68, time=0),
    Message('control_change', channel=12, control=7, value=97, time=4),
    Message('note_off', channel=12, note=96, velocity=0, time=8),
    Message('note_on', channel=12, note=98, velocity=69, time=0),
    Message('control_change', channel=12, control=7, value=98, time=7),
    Message('note_off', channel=12, note=98, velocity=0, time=5),
    Message('note_on', channel=12, note=96, velocity=71, time=0),
    Message('control_change', channel=12, control=7, value=99, time=9),
    Message('note_off', channel=12, note=96, velocity=0, time=3),
    Message('note_on', channel=12, note=94, velocity=73, time=0),
    Message('note_off', channel=12, note=94, velocity=0, time=11),
    Message('control_change', channel=12, control=7, value=100, time=0),
    Message('note_on', channel=12, note=93, velocity=75, time=1),
    Message('note_off', channel=12, note=93, velocity=0, time=12),
    Message('note_on', channel=12, note=91, velocity=74, time=0),
    Message('control_change', channel=12, control=7, value=99, time=2),
    Message('note_off', channel=12, note=91, velocity=0, time=10),
    Message('note_on', channel=12, note=90, velocity=73, time=0),
    Message('control_change', channel=12, control=7, value=98, time=4),
    Message('note_off', channel=12, note=90, velocity=0, time=8),
    Message('note_on', channel=12, note=88, velocity=72, time=0),
    Message('control_change', channel=12, control=7, value=97, time=7),
    Message('note_off', channel=12, note=88, velocity=0, time=5),
    Message('note_on', channel=12, note=98, velocity=71, time=0),
    Message('control_change', channel=12, control=7, value=96, time=9),
    Message('note_off', channel=12, note=98, velocity=0, time=3),
    Message('note_on', channel=12, note=96, velocity=70, time=0),
    Message('control_change', channel=12, control=7, value=95, time=11),
    Message('note_off', channel=12, note=96, velocity=0, time=1),
    Message('note_on', channel=12, note=94, velocity=69, time=0),
    Message('note_off', channel=12, note=94, velocity=0, time=12),
    Message('note_on', channel=12, note=93, velocity=68, time=0),
    Message('control_change', channel=12, control=7, value=94, time=2),
    Message('note_off', channel=12, note=93, velocity=0, time=10),
    Message('note_on', channel=12, note=91, velocity=67, time=0),
    Message('control_change', channel=12, control=7, value=93, time=4),
    Message('note_off', channel=12, note=91, velocity=0, time=8),
    Message('note_on', channel=12, note=90, velocity=66, time=0),
    Message('control_change', channel=12, control=7, value=92, time=7),
    Message('note_off', channel=12, note=90, velocity=0, time=5),
    Message('note_on', channel=12, note=88, velocity=64, time=0),
    Message('control_change', channel=12, control=7, value=91, time=9),
    Message('note_off', channel=12, note=88, velocity=0, time=3),
    Message('note_on', channel=12, note=87, velocity=62, time=0),
    Message('note_off', channel=12, note=87, velocity=0, time=11),
    Message('control_change', channel=12, control=7, value=90, time=0),
    Message('note_on', channel=12, note=88, velocity=60, time=1),
    Message('note_off', channel=12, note=88, velocity=0, time=48),
    Message('note_on', channel=12, note=91, velocity=60, time=0),
    Message('note_on', channel=12, note=88, velocity=60, time=0),
    Message('note_on', channel=12, note=83, velocity=60, time=0),
    Message('note_off', channel=12, note=91, velocity=0, time=48),
    Message('note_off', channel=12, note=83, velocity=0, time=0),
    Message('note_off', channel=12, note=88, velocity=0, time=0),
    Message('note_on', channel=12, note=95, velocity=60, time=0),
    Message('note_on', channel=12, note=91, velocity=60, time=0),
    Message('note_on', channel=12, note=88, velocity=60, time=0),
    Message('note_off', channel=12, note=91, velocity=0, time=47),
    Message('note_off', channel=12, note=88, velocity=0, time=0),
    Message('note_off', channel=12, note=95, velocity=0, time=0),
    Message('note_on', channel=12, note=91, velocity=60, time=1),
    Message('note_on', channel=12, note=88, velocity=60, time=0),
    Message('note_on', channel=12, note=83, velocity=60, time=0),
    Message('note_off', channel=12, note=91, velocity=0, time=48),
    Message('note_off', channel=12, note=88, velocity=0, time=0),
    Message('note_off', channel=12, note=83, velocity=0, time=0),
    Message('note_on', channel=12, note=95, velocity=60, time=0),
    Message('note_on', channel=12, note=91, velocity=60, time=0),
    Message('note_on', channel=12, note=88, velocity=60, time=0),
    Message('note_off', channel=12, note=88, velocity=0, time=48),
    Message('note_off', channel=12, note=91, velocity=0, time=0),
    Message('note_off', channel=12, note=95, velocity=0, time=0),
    Message('note_on', channel=12, note=100, velocity=60, time=0),
    Message('note_on', channel=12, note=95, velocity=60, time=0),
    Message('note_on', channel=12, note=91, velocity=60, time=0),
    Message('note_off', channel=12, note=95, velocity=0, time=47),
    Message('note_off', channel=12, note=91, velocity=0, time=0),
    Message('note_off', channel=12, note=100, velocity=0, time=0),
    Message('note_on', channel=12, note=103, velocity=60, time=1),
    Message('note_on', channel=12, note=100, velocity=60, time=0),
    Message('note_on', channel=12, note=95, velocity=60, time=0),
    Message('note_off', channel=12, note=103, velocity=0, time=48),
    Message('note_off', channel=12, note=100, velocity=0, time=0),
    Message('note_off', channel=12, note=95, velocity=0, time=0),
    Message('note_on', channel=12, note=100, velocity=60, time=0),
    Message('note_on', channel=12, note=95, velocity=60, time=0),
    Message('note_on', channel=12, note=91, velocity=60, time=0),
    Message('note_off', channel=12, note=91, velocity=0, time=48),
    Message('note_off', channel=12, note=95, velocity=0, time=0),
    Message('note_off', channel=12, note=100, velocity=0, time=0),
    Message('note_on', channel=12, note=95, velocity=60, time=0),
    Message('note_on', channel=12, note=91, velocity=60, time=0),
    Message('note_on', channel=12, note=88, velocity=60, time=0),
    Message('note_off', channel=12, note=91, velocity=0, time=47),
    Message('note_off', channel=12, note=88, velocity=0, time=0),
    Message('note_off', channel=12, note=95, velocity=0, time=0),
    Message('note_on', channel=12, note=97, velocity=60, time=1),
    Message('note_on', channel=12, note=94, velocity=60, time=0),
    Message('note_on', channel=12, note=90, velocity=60, time=0),
    Message('note_off', channel=12, note=97, velocity=0, time=48),
    Message('note_off', channel=12, note=94, velocity=0, time=0),
    Message('note_off', channel=12, note=90, velocity=0, time=0),
    Message('note_on', channel=12, note=94, velocity=60, time=0),
    Message('note_on', channel=12, note=90, velocity=60, time=0),
    Message('note_on', channel=12, note=85, velocity=60, time=0),
    Message('note_off', channel=12, note=85, velocity=0, time=48),
    Message('note_off', channel=12, note=90, velocity=0, time=0),
    Message('note_off', channel=12, note=94, velocity=0, time=0),
    Message('note_on', channel=12, note=90, velocity=60, time=0),
    Message('note_on', channel=12, note=85, velocity=60, time=0),
    Message('note_on', channel=12, note=82, velocity=60, time=0),
    Message('note_off', channel=12, note=85, velocity=0, time=47),
    Message('note_off', channel=12, note=82, velocity=0, time=0),
    Message('note_off', channel=12, note=90, velocity=0, time=0),
    Message('note_on', channel=12, note=83, velocity=60, time=1),
    Message('note_on', channel=12, note=79, velocity=60, time=0),
    Message('note_on', channel=12, note=76, velocity=60, time=0),
    Message('note_off', channel=12, note=83, velocity=0, time=48),
    Message('note_off', channel=12, note=79, velocity=0, time=0),
    Message('note_off', channel=12, note=76, velocity=0, time=0),
    Message('note_on', channel=12, note=91, velocity=60, time=0),
    Message('note_on', channel=12, note=88, velocity=60, time=0),
    Message('note_on', channel=12, note=83, velocity=60, time=0),
    Message('note_off', channel=12, note=83, velocity=0, time=48),
    Message('note_off', channel=12, note=88, velocity=0, time=0),
    Message('note_off', channel=12, note=91, velocity=0, time=0),
    Message('note_on', channel=12, note=88, velocity=60, time=0),
    Message('note_on', channel=12, note=83, velocity=60, time=0),
    Message('note_on', channel=12, note=79, velocity=60, time=0),
    Message('note_off', channel=12, note=83, velocity=0, time=47),
    Message('note_off', channel=12, note=79, velocity=0, time=0),
    Message('note_off', channel=12, note=88, velocity=0, time=0),
    Message('note_on', channel=12, note=82, velocity=60, time=1),
    Message('note_on', channel=12, note=78, velocity=60, time=0),
    Message('note_on', channel=12, note=76, velocity=60, time=0),
    Message('note_off', channel=12, note=82, velocity=0, time=48),
    Message('note_off', channel=12, note=78, velocity=0, time=0),
    Message('note_off', channel=12, note=76, velocity=0, time=0),
    Message('note_on', channel=12, note=88, velocity=60, time=0),
    Message('note_on', channel=12, note=84, velocity=60, time=0),
    Message('note_on', channel=12, note=79, velocity=60, time=0),
    Message('note_off', channel=12, note=79, velocity=0, time=48),
    Message('note_off', channel=12, note=84, velocity=0, time=0),
    Message('note_off', channel=12, note=88, velocity=0, time=0),
    Message('note_on', channel=12, note=94, velocity=60, time=0),
    Message('note_on', channel=12, note=91, velocity=60, time=0),
    Message('note_on', channel=12, note=88, velocity=60, time=0),
    Message('note_off', channel=12, note=91, velocity=0, time=47),
    Message('note_off', channel=12, note=88, velocity=0, time=0),
    Message('note_off', channel=12, note=94, velocity=0, time=0),
    Message('note_on', channel=12, note=91, velocity=60, time=1),
    Message('note_off', channel=12, note=91, velocity=0, time=12),
    Message('note_on', channel=12, note=90, velocity=61, time=0),
    Message('control_change', channel=12, control=7, value=91, time=2),
    Message('note_off', channel=12, note=90, velocity=0, time=10),
    Message('note_on', channel=12, note=100, velocity=86, time=0),
    Message('control_change', channel=12, control=7, value=92, time=4),
    Message('note_off', channel=12, note=100, velocity=0, time=8),
    Message('note_on', channel=12, note=98, velocity=63, time=0),
    Message('control_change', channel=12, control=7, value=93, time=7),
    Message('note_off', channel=12, note=98, velocity=0, time=5),
    Message('note_on', channel=12, note=96, velocity=64, time=0),
    Message('control_change', channel=12, control=7, value=94, time=9),
    Message('note_off', channel=12, note=96, velocity=0, time=3),
    Message('note_on', channel=12, note=95, velocity=65, time=0),
    Message('control_change', channel=12, control=7, value=95, time=11),
    Message('note_off', channel=12, note=95, velocity=0, time=1),
    Message('note_on', channel=12, note=93, velocity=66, time=0),
    Message('note_off', channel=12, note=93, velocity=0, time=12),
    Message('note_on', channel=12, note=91, velocity=67, time=0),
    Message('control_change', channel=12, control=7, value=96, time=2),
    Message('note_off', channel=12, note=91, velocity=0, time=10),
    Message('note_on', channel=12, note=90, velocity=68, time=0),
    Message('control_change', channel=12, control=7, value=97, time=4),
    Message('note_off', channel=12, note=90, velocity=0, time=8),
    Message('note_on', channel=12, note=88, velocity=69, time=0),
    Message('control_change', channel=12, control=7, value=98, time=7),
    Message('note_off', channel=12, note=88, velocity=0, time=5),
    Message('note_on', channel=12, note=86, velocity=71, time=0),
    Message('control_change', channel=12, control=7, value=99, time=9),
    Message('note_off', channel=12, note=86, velocity=0, time=3),
    Message('note_on', channel=12, note=84, velocity=73, time=0),
    Message('note_off', channel=12, note=84, velocity=0, time=11),
    Message('control_change', channel=12, control=7, value=100, time=0),
    Message('note_on', channel=12, note=86, velocity=75, time=1),
    Message('note_off', channel=12, note=86, velocity=0, time=12),
    Message('note_on', channel=12, note=84, velocity=74, time=0),
    Message('control_change', channel=12, control=7, value=99, time=2),
    Message('note_off', channel=12, note=84, velocity=0, time=10),
    Message('note_on', channel=12, note=93, velocity=102, time=0),
    Message('control_change', channel=12, control=7, value=98, time=4),
    Message('note_off', channel=12, note=93, velocity=0, time=8),
    Message('note_on', channel=12, note=91, velocity=72, time=0),
    Message('control_change', channel=12, control=7, value=97, time=7),
    Message('note_off', channel=12, note=91, velocity=0, time=5),
    Message('note_on', channel=12, note=90, velocity=71, time=0),
    Message('control_change', channel=12, control=7, value=96, time=9),
    Message('note_off', channel=12, note=90, velocity=0, time=3),
    Message('note_on', channel=12, note=88, velocity=70, time=0),
    Message('control_change', channel=12, control=7, value=95, time=11),
    Message('note_off', channel=12, note=88, velocity=0, time=1),
    Message('note_on', channel=12, note=86, velocity=69, time=0),
    Message('note_off', channel=12, note=86, velocity=0, time=12),
    Message('note_on', channel=12, note=84, velocity=68, time=0),
    Message('control_change', channel=12, control=7, value=94, time=2),
    Message('note_off', channel=12, note=84, velocity=0, time=10),
    Message('note_on', channel=12, note=83, velocity=67, time=0),
    Message('control_change', channel=12, control=7, value=93, time=4),
    Message('note_off', channel=12, note=83, velocity=0, time=8),
    Message('note_on', channel=12, note=81, velocity=66, time=0),
    Message('control_change', channel=12, control=7, value=92, time=7),
    Message('note_off', channel=12, note=81, velocity=0, time=5),
    Message('note_on', channel=12, note=79, velocity=64, time=0),
    Message('control_change', channel=12, control=7, value=91, time=9),
    Message('note_off', channel=12, note=79, velocity=0, time=3),
    Message('note_on', channel=12, note=78, velocity=62, time=0),
    Message('note_off', channel=12, note=78, velocity=0, time=11),
    Message('control_change', channel=12, control=7, value=90, time=0),
    Message('note_on', channel=12, note=79, velocity=60, time=1),
    Message('note_on', channel=12, note=76, velocity=60, time=0),
    Message('note_on', channel=12, note=71, velocity=60, time=0),
    Message('note_off', channel=12, note=79, velocity=0, time=48),
    Message('note_off', channel=12, note=76, velocity=0, time=0),
    Message('note_off', channel=12, note=71, velocity=0, time=0),
    Message('note_on', channel=12, note=83, velocity=60, time=0),
    Message('note_on', channel=12, note=79, velocity=60, time=0),
    Message('note_on', channel=12, note=76, velocity=60, time=0),
    Message('note_off', channel=12, note=76, velocity=0, time=48),
    Message('note_off', channel=12, note=79, velocity=0, time=0),
    Message('note_off', channel=12, note=83, velocity=0, time=0),
    Message('note_on', channel=12, note=82, velocity=60, time=0),
    Message('note_on', channel=12, note=78, velocity=60, time=0),
    Message('note_on', channel=12, note=76, velocity=60, time=0),
    Message('note_off', channel=12, note=76, velocity=0, time=47),
    Message('note_off', channel=12, note=82, velocity=0, time=0),
    Message('note_off', channel=12, note=78, velocity=0, time=0),
    Message('note_on', channel=12, note=83, velocity=60, time=1),
    Message('note_on', channel=12, note=79, velocity=60, time=0),
    Message('note_on', channel=12, note=76, velocity=60, time=0),
    Message('note_off', channel=12, note=83, velocity=0, time=48),
    Message('note_off', channel=12, note=79, velocity=0, time=0),
    Message('note_off', channel=12, note=76, velocity=0, time=0),
    Message('note_on', channel=12, note=91, velocity=60, time=0),
    Message('note_on', channel=12, note=88, velocity=60, time=0),
    Message('note_on', channel=12, note=83, velocity=60, time=0),
    Message('note_off', channel=12, note=83, velocity=0, time=48),
    Message('note_off', channel=12, note=88, velocity=0, time=0),
    Message('note_off', channel=12, note=91, velocity=0, time=0),
    Message('note_on', channel=12, note=88, velocity=60, time=0),
    Message('note_on', channel=12, note=83, velocity=60, time=0),
    Message('note_on', channel=12, note=79, velocity=60, time=0),
    Message('note_off', channel=12, note=79, velocity=0, time=47),
    Message('note_off', channel=12, note=88, velocity=0, time=0),
    Message('note_off', channel=12, note=83, velocity=0, time=0),
    Message('note_on', channel=12, note=94, velocity=60, time=1),
    Message('note_on', channel=12, note=91, velocity=60, time=0),
    Message('note_on', channel=12, note=86, velocity=60, time=0),
    Message('note_off', channel=12, note=94, velocity=0, time=48),
    Message('note_off', channel=12, note=91, velocity=0, time=0),
    Message('note_off', channel=12, note=86, velocity=0, time=0),
    Message('note_on', channel=12, note=86, velocity=60, time=0),
    Message('note_on', channel=12, note=82, velocity=60, time=0),
    Message('note_on', channel=12, note=79, velocity=60, time=0),
    Message('note_off', channel=12, note=79, velocity=0, time=48),
    Message('note_off', channel=12, note=82, velocity=0, time=0),
    Message('note_off', channel=12, note=86, velocity=0, time=0),
    Message('note_on', channel=12, note=93, velocity=60, time=0),
    Message('note_on', channel=12, note=90, velocity=60, time=0),
    Message('note_on', channel=12, note=85, velocity=60, time=0),
    Message('note_off', channel=12, note=85, velocity=0, time=47),
    Message('note_off', channel=12, note=93, velocity=0, time=0),
    Message('note_off', channel=12, note=90, velocity=0, time=0),
    Message('note_on', channel=12, note=92, velocity=60, time=1),
    Message('note_on', channel=12, note=89, velocity=60, time=0),
    Message('note_on', channel=12, note=84, velocity=60, time=0),
    Message('note_off', channel=12, note=92, velocity=0, time=48),
    Message('note_off', channel=12, note=89, velocity=0, time=0),
    Message('note_off', channel=12, note=84, velocity=0, time=0),
    Message('note_on', channel=12, note=84, velocity=60, time=0),
    Message('note_on', channel=12, note=80, velocity=60, time=0),
    Message('note_on', channel=12, note=77, velocity=60, time=0),
    Message('note_off', channel=12, note=77, velocity=0, time=48),
    Message('note_off', channel=12, note=80, velocity=0, time=0),
    Message('note_off', channel=12, note=84, velocity=0, time=0),
    Message('note_on', channel=12, note=89, velocity=60, time=0),
    Message('note_on', channel=12, note=84, velocity=60, time=0),
    Message('note_on', channel=12, note=80, velocity=60, time=0),
    Message('note_off', channel=12, note=80, velocity=0, time=47),
    Message('note_off', channel=12, note=89, velocity=0, time=0),
    Message('note_off', channel=12, note=84, velocity=0, time=0),
    Message('note_on', channel=12, note=88, velocity=60, time=1),
    Message('note_on', channel=12, note=84, velocity=60, time=0),
    Message('note_on', channel=12, note=81, velocity=60, time=0),
    Message('note_off', channel=12, note=88, velocity=0, time=48),
    Message('note_off', channel=12, note=84, velocity=0, time=0),
    Message('note_off', channel=12, note=81, velocity=0, time=0),
    Message('note_on', channel=12, note=84, velocity=60, time=0),
    Message('note_on', channel=12, note=81, velocity=60, time=0),
    Message('note_on', channel=12, note=76, velocity=60, time=0),
    Message('note_off', channel=12, note=76, velocity=0, time=48),
    Message('note_off', channel=12, note=81, velocity=0, time=0),
    Message('note_off', channel=12, note=84, velocity=0, time=0),
    Message('note_on', channel=12, note=90, velocity=60, time=0),
    Message('note_on', channel=12, note=85, velocity=60, time=0),
    Message('note_on', channel=12, note=82, velocity=60, time=0),
    Message('note_off', channel=12, note=85, velocity=0, time=48),
    Message('note_off', channel=12, note=90, velocity=0, time=0),
    Message('note_off', channel=12, note=82, velocity=0, time=0),
    Message('note_on', channel=12, note=82, velocity=60, time=0),
    Message('note_on', channel=12, note=78, velocity=60, time=0),
    Message('note_on', channel=12, note=76, velocity=60, time=0),
    Message('note_off', channel=12, note=76, velocity=0, time=47),
    Message('note_off', channel=12, note=82, velocity=0, time=0),
    Message('note_off', channel=12, note=78, velocity=0, time=0),
    Message('note_on', channel=12, note=72, velocity=60, time=1),
    Message('note_off', channel=12, note=72, velocity=0, time=12),
    Message('note_on', channel=12, note=73, velocity=60, time=0),
    Message('note_off', channel=12, note=73, velocity=0, time=12),
    Message('note_on', channel=12, note=74, velocity=60, time=0),
    Message('note_off', channel=12, note=74, velocity=0, time=12),
    Message('note_on', channel=12, note=75, velocity=60, time=0),
    Message('note_off', channel=12, note=75, velocity=0, time=11),
    Message('note_on', channel=12, note=75, velocity=60, time=1),
    Message('note_off', channel=12, note=75, velocity=0, time=12),
    Message('note_on', channel=12, note=76, velocity=60, time=0),
    Message('note_off', channel=12, note=76, velocity=0, time=12),
    Message('note_on', channel=12, note=77, velocity=60, time=0),
    Message('note_off', channel=12, note=77, velocity=0, time=12),
    Message('note_on', channel=12, note=78, velocity=60, time=0),
    Message('note_off', channel=12, note=78, velocity=0, time=11),
    Message('note_on', channel=12, note=79, velocity=60, time=1),
    Message('note_off', channel=12, note=79, velocity=0, time=12),
    Message('note_on', channel=12, note=82, velocity=59, time=0),
    Message('control_change', channel=12, control=7, value=89, time=2),
    Message('note_off', channel=12, note=82, velocity=0, time=10),
    Message('note_on', channel=12, note=83, velocity=58, time=0),
    Message('control_change', channel=12, control=7, value=88, time=4),
    Message('note_off', channel=12, note=83, velocity=0, time=8),
    Message('note_on', channel=12, note=84, velocity=57, time=0),
    Message('control_change', channel=12, control=7, value=87, time=7),
    Message('note_off', channel=12, note=84, velocity=0, time=5),
    Message('note_on', channel=12, note=87, velocity=56, time=0),
    Message('control_change', channel=12, control=7, value=86, time=9),
    Message('note_off', channel=12, note=87, velocity=0, time=3),
    Message('note_on', channel=12, note=88, velocity=55, time=0),
    Message('control_change', channel=12, control=7, value=85, time=11),
    Message('note_off', channel=12, note=88, velocity=0, time=1),
    Message('note_on', channel=12, note=90, velocity=54, time=0),
    Message('note_off', channel=12, note=90, velocity=0, time=12),
    Message('note_on', channel=12, note=91, velocity=53, time=0),
    Message('control_change', channel=12, control=7, value=84, time=2),
    Message('note_off', channel=12, note=91, velocity=0, time=10),
    Message('note_on', channel=12, note=94, velocity=52, time=0),
    Message('control_change', channel=12, control=7, value=83, time=4),
    Message('note_off', channel=12, note=94, velocity=0, time=8),
    Message('note_on', channel=12, note=95, velocity=51, time=0),
    Message('control_change', channel=12, control=7, value=82, time=7),
    Message('note_off', channel=12, note=95, velocity=0, time=5),
    Message('note_on', channel=12, note=96, velocity=49, time=0),
    Message('control_change', channel=12, control=7, value=81, time=9),
    Message('note_off', channel=12, note=96, velocity=0, time=3),
    Message('note_on', channel=12, note=99, velocity=47, time=0),
    Message('control_change', channel=12, control=7, value=80, time=11),
    Message('note_off', channel=12, note=99, velocity=0, time=1),
    Message('note_on', channel=12, note=100, velocity=45, time=0),
    Message('note_off', channel=12, note=100, velocity=0, time=47),
    Message('control_change', channel=12, control=7, value=100, time=8497),
    Message('note_on', channel=12, note=76, velocity=75, time=0),
    Message('note_off', channel=12, note=76, velocity=0, time=24),
    Message('note_on', channel=12, note=74, velocity=75, time=0),
    Message('note_off', channel=12, note=74, velocity=0, time=24),
    Message('note_on', channel=12, note=72, velocity=75, time=0),
    Message('note_off', channel=12, note=72, velocity=0, time=24),
    Message('note_on', channel=12, note=71, velocity=75, time=0),
    Message('note_off', channel=12, note=71, velocity=0, time=24),
    Message('note_on', channel=12, note=69, velocity=75, time=0),
    Message('note_off', channel=12, note=69, velocity=0, time=24),
    Message('note_on', channel=12, note=72, velocity=75, time=0),
    Message('note_off', channel=12, note=72, velocity=0, time=24),
    Message('note_on', channel=12, note=76, velocity=75, time=0),
    Message('note_off', channel=12, note=76, velocity=0, time=24),
    Message('note_on', channel=12, note=81, velocity=75, time=0),
    Message('note_off', channel=12, note=81, velocity=0, time=24),
    Message('note_on', channel=12, note=84, velocity=75, time=0),
    Message('note_off', channel=12, note=84, velocity=0, time=24),
    Message('note_on', channel=12, note=88, velocity=75, time=0),
    Message('note_off', channel=12, note=88, velocity=0, time=24),
    Message('note_on', channel=12, note=93, velocity=75, time=0),
    Message('note_off', channel=12, note=93, velocity=0, time=24),
    Message('note_on', channel=12, note=96, velocity=75, time=0),
    Message('note_off', channel=12, note=96, velocity=0, time=24),
    Message('note_on', channel=12, note=100, velocity=75, time=0),
    Message('note_off', channel=12, note=100, velocity=0, time=24),
    Message('note_on', channel=12, note=96, velocity=75, time=0),
    Message('note_off', channel=12, note=96, velocity=0, time=24),
    Message('note_on', channel=12, note=93, velocity=75, time=0),
    Message('note_off', channel=12, note=93, velocity=0, time=24),
    Message('note_on', channel=12, note=88, velocity=75, time=0),
    Message('note_off', channel=12, note=88, velocity=0, time=24),
    Message('note_on', channel=12, note=84, velocity=75, time=0),
    Message('note_off', channel=12, note=84, velocity=0, time=24),
    Message('note_on', channel=12, note=88, velocity=75, time=0),
    Message('note_off', channel=12, note=88, velocity=0, time=24),
    Message('note_on', channel=12, note=84, velocity=75, time=0),
    Message('note_off', channel=12, note=84, velocity=0, time=24),
    Message('note_on', channel=12, note=81, velocity=75, time=0),
    Message('note_off', channel=12, note=81, velocity=0, time=23),
    Message('note_on', channel=12, note=89, velocity=75, time=1),
    Message('note_off', channel=12, note=89, velocity=0, time=24),
    Message('note_on', channel=12, note=85, velocity=75, time=0),
    Message('note_off', channel=12, note=85, velocity=0, time=24),
    Message('note_on', channel=12, note=82, velocity=75, time=0),
    Message('note_off', channel=12, note=82, velocity=0, time=24),
    Message('note_on', channel=12, note=85, velocity=75, time=0),
    Message('note_off', channel=12, note=85, velocity=0, time=24),
    Message('note_on', channel=12, note=88, velocity=75, time=0),
    Message('note_off', channel=12, note=88, velocity=0, time=24),
    Message('note_on', channel=12, note=85, velocity=75, time=0),
    Message('note_off', channel=12, note=85, velocity=0, time=24),
    Message('note_on', channel=12, note=82, velocity=75, time=0),
    Message('note_off', channel=12, note=82, velocity=0, time=24),
    Message('note_on', channel=12, note=85, velocity=75, time=0),
    Message('note_off', channel=12, note=85, velocity=0, time=24),
    Message('note_on', channel=12, note=88, velocity=75, time=0),
    Message('note_off', channel=12, note=88, velocity=0, time=24),
    Message('note_on', channel=12, note=84, velocity=75, time=0),
    Message('note_off', channel=12, note=84, velocity=0, time=24),
    Message('note_on', channel=12, note=81, velocity=75, time=0),
    Message('note_off', channel=12, note=81, velocity=0, time=24),
    Message('note_on', channel=12, note=76, velocity=75, time=0),
    Message('note_off', channel=12, note=76, velocity=0, time=24),
    Message('note_on', channel=12, note=72, velocity=75, time=0),
    Message('note_off', channel=12, note=72, velocity=0, time=24),
    Message('note_on', channel=12, note=76, velocity=75, time=0),
    Message('note_off', channel=12, note=76, velocity=0, time=24),
    Message('note_on', channel=12, note=81, velocity=75, time=0),
    Message('note_off', channel=12, note=81, velocity=0, time=24),
    Message('note_on', channel=12, note=84, velocity=75, time=0),
    Message('note_off', channel=12, note=84, velocity=0, time=23),
    Message('note_on', channel=12, note=86, velocity=75, time=1),
    Message('note_off', channel=12, note=86, velocity=0, time=24),
    Message('note_on', channel=12, note=81, velocity=75, time=0),
    Message('note_off', channel=12, note=81, velocity=0, time=24),
    Message('note_on', channel=12, note=77, velocity=75, time=0),
    Message('note_off', channel=12, note=77, velocity=0, time=24),
    Message('note_on', channel=12, note=74, velocity=75, time=0),
    Message('note_off', channel=12, note=74, velocity=0, time=24),
    Message('note_on', channel=12, note=69, velocity=75, time=0),
    Message('note_off', channel=12, note=69, velocity=0, time=24),
    Message('note_on', channel=12, note=74, velocity=75, time=0),
    Message('note_off', channel=12, note=74, velocity=0, time=24),
    Message('note_on', channel=12, note=76, velocity=75, time=0),
    Message('note_off', channel=12, note=76, velocity=0, time=24),
    Message('note_on', channel=12, note=80, velocity=75, time=0),
    Message('note_off', channel=12, note=80, velocity=0, time=23),
    Message('note_on', channel=12, note=81, velocity=75, time=1),
    Message('note_off', channel=12, note=81, velocity=0, time=24),
    Message('note_on', channel=12, note=86, velocity=75, time=0),
    Message('note_off', channel=12, note=86, velocity=0, time=24),
    Message('note_on', channel=12, note=81, velocity=75, time=0),
    Message('note_off', channel=12, note=81, velocity=0, time=24),
    Message('note_on', channel=12, note=77, velocity=75, time=0),
    Message('note_off', channel=12, note=77, velocity=0, time=24),
    Message('note_on', channel=12, note=74, velocity=75, time=0),
    Message('note_off', channel=12, note=74, velocity=0, time=24),
    Message('note_on', channel=12, note=81, velocity=75, time=0),
    Message('note_off', channel=12, note=81, velocity=0, time=24),
    Message('note_on', channel=12, note=77, velocity=75, time=0),
    Message('note_off', channel=12, note=77, velocity=0, time=24),
    Message('note_on', channel=12, note=74, velocity=75, time=0),
    Message('note_off', channel=12, note=74, velocity=0, time=23),
    Message('note_on', channel=12, note=69, velocity=75, time=1),
    Message('note_off', channel=12, note=69, velocity=0, time=24),
    Message('note_on', channel=12, note=72, velocity=75, time=0),
    Message('note_off', channel=12, note=72, velocity=0, time=24),
    Message('note_on', channel=12, note=76, velocity=75, time=0),
    Message('note_off', channel=12, note=76, velocity=0, time=24),
    Message('note_on', channel=12, note=81, velocity=75, time=0),
    Message('note_off', channel=12, note=81, velocity=0, time=24),
    Message('note_on', channel=12, note=84, velocity=75, time=0),
    Message('note_off', channel=12, note=84, velocity=0, time=24),
    Message('note_on', channel=12, note=88, velocity=75, time=0),
    Message('note_off', channel=12, note=88, velocity=0, time=24),
    Message('note_on', channel=12, note=93, velocity=75, time=0),
    Message('note_off', channel=12, note=93, velocity=0, time=24),
    Message('note_on', channel=12, note=96, velocity=75, time=0),
    Message('note_off', channel=12, note=96, velocity=0, time=24),
    Message('note_on', channel=12, note=99, velocity=75, time=0),
    Message('note_off', channel=12, note=99, velocity=0, time=168),
    Message('note_on', channel=12, note=69, velocity=75, time=24),
    Message('note_off', channel=12, note=69, velocity=0, time=24),
    Message('note_on', channel=12, note=72, velocity=75, time=0),
    Message('note_off', channel=12, note=72, velocity=0, time=24),
    Message('note_on', channel=12, note=76, velocity=75, time=0),
    Message('note_off', channel=12, note=76, velocity=0, time=24),
    Message('note_on', channel=12, note=81, velocity=75, time=0),
    Message('note_off', channel=12, note=81, velocity=0, time=24),
    Message('note_on', channel=12, note=84, velocity=75, time=0),
    Message('note_off', channel=12, note=84, velocity=0, time=24),
    Message('note_on', channel=12, note=88, velocity=75, time=0),
    Message('note_off', channel=12, note=88, velocity=0, time=24),
    Message('note_on', channel=12, note=93, velocity=75, time=0),
    Message('note_off', channel=12, note=93, velocity=0, time=24),
    Message('note_on', channel=12, note=96, velocity=75, time=0),
    Message('note_off', channel=12, note=96, velocity=0, time=24),
    Message('note_on', channel=12, note=100, velocity=75, time=0),
    Message('note_off', channel=12, note=100, velocity=0, time=24),
    Message('note_on', channel=12, note=96, velocity=75, time=0),
    Message('note_off', channel=12, note=96, velocity=0, time=24),
    Message('note_on', channel=12, note=93, velocity=75, time=0),
    Message('note_off', channel=12, note=93, velocity=0, time=24),
    Message('note_on', channel=12, note=88, velocity=75, time=0),
    Message('note_off', channel=12, note=88, velocity=0, time=24),
    Message('note_on', channel=12, note=84, velocity=75, time=0),
    Message('note_off', channel=12, note=84, velocity=0, time=24),
    Message('note_on', channel=12, note=88, velocity=75, time=0),
    Message('note_off', channel=12, note=88, velocity=0, time=24),
    Message('note_on', channel=12, note=84, velocity=75, time=0),
    Message('note_off', channel=12, note=84, velocity=0, time=24),
    Message('note_on', channel=12, note=81, velocity=75, time=0),
    Message('note_off', channel=12, note=81, velocity=0, time=23),
    Message('note_on', channel=12, note=91, velocity=75, time=1),
    Message('note_off', channel=12, note=91, velocity=0, time=24),
    Message('note_on', channel=12, note=87, velocity=75, time=0),
    Message('note_off', channel=12, note=87, velocity=0, time=24),
    Message('note_on', channel=12, note=84, velocity=75, time=0),
    Message('note_off', channel=12, note=84, velocity=0, time=24),
    Message('note_on', channel=12, note=87, velocity=75, time=0),
    Message('note_off', channel=12, note=87, velocity=0, time=24),
    Message('note_on', channel=12, note=89, velocity=75, time=0),
    Message('note_off', channel=12, note=89, velocity=0, time=24),
    Message('note_on', channel=12, note=85, velocity=75, time=0),
    Message('note_off', channel=12, note=85, velocity=0, time=24),
    Message('note_on', channel=12, note=82, velocity=75, time=0),
    Message('note_off', channel=12, note=82, velocity=0, time=24),
    Message('note_on', channel=12, note=85, velocity=75, time=0),
    Message('note_off', channel=12, note=85, velocity=0, time=24),
    Message('note_on', channel=12, note=89, velocity=75, time=0),
    Message('note_off', channel=12, note=89, velocity=0, time=24),
    Message('note_on', channel=12, note=85, velocity=75, time=0),
    Message('note_off', channel=12, note=85, velocity=0, time=24),
    Message('note_on', channel=12, note=82, velocity=75, time=0),
    Message('note_off', channel=12, note=82, velocity=0, time=24),
    Message('note_on', channel=12, note=77, velocity=75, time=0),
    Message('note_off', channel=12, note=77, velocity=0, time=23),
    Message('note_on', channel=12, note=73, velocity=75, time=1),
    Message('note_off', channel=12, note=73, velocity=0, time=24),
    Message('note_on', channel=12, note=77, velocity=75, time=0),
    Message('note_off', channel=12, note=77, velocity=0, time=24),
    Message('note_on', channel=12, note=82, velocity=75, time=0),
    Message('note_off', channel=12, note=82, velocity=0, time=24),
    Message('note_on', channel=12, note=85, velocity=75, time=0),
    Message('note_off', channel=12, note=85, velocity=0, time=23),
    Message('note_on', channel=12, note=89, velocity=75, time=1),
    Message('note_off', channel=12, note=89, velocity=0, time=24),
    Message('note_on', channel=12, note=85, velocity=75, time=0),
    Message('note_off', channel=12, note=85, velocity=0, time=24),
    Message('note_on', channel=12, note=82, velocity=75, time=0),
    Message('note_off', channel=12, note=82, velocity=0, time=24),
    Message('note_on', channel=12, note=85, velocity=75, time=0),
    Message('note_off', channel=12, note=85, velocity=0, time=24),
    Message('note_on', channel=12, note=88, velocity=75, time=0),
    Message('note_off', channel=12, note=88, velocity=0, time=24),
    Message('note_on', channel=12, note=85, velocity=75, time=0),
    Message('note_off', channel=12, note=85, velocity=0, time=24),
    Message('note_on', channel=12, note=82, velocity=75, time=0),
    Message('note_off', channel=12, note=82, velocity=0, time=24),
    Message('note_on', channel=12, note=85, velocity=75, time=0),
    Message('note_off', channel=12, note=85, velocity=0, time=24),
    Message('note_on', channel=12, note=88, velocity=75, time=0),
    Message('note_off', channel=12, note=88, velocity=0, time=24),
    Message('note_on', channel=12, note=84, velocity=75, time=0),
    Message('note_off', channel=12, note=84, velocity=0, time=24),
    Message('note_on', channel=12, note=81, velocity=75, time=0),
    Message('note_off', channel=12, note=81, velocity=0, time=24),
    Message('note_on', channel=12, note=76, velocity=75, time=0),
    Message('note_off', channel=12, note=76, velocity=0, time=23),
    Message('note_on', channel=12, note=72, velocity=75, time=1),
    Message('note_off', channel=12, note=72, velocity=0, time=24),
    Message('note_on', channel=12, note=76, velocity=75, time=0),
    Message('note_off', channel=12, note=76, velocity=0, time=24),
    Message('note_on', channel=12, note=80, velocity=75, time=0),
    Message('note_off', channel=12, note=80, velocity=0, time=24),
    Message('note_on', channel=12, note=81, velocity=75, time=0),
    Message('note_off', channel=12, note=81, velocity=0, time=23),
    Message('note_on', channel=12, note=84, velocity=75, time=1),
    Message('note_on', channel=12, note=76, velocity=75, time=0),
    Message('note_on', channel=12, note=69, velocity=75, time=0),
    Message('note_off', channel=12, note=84, velocity=0, time=192),
    Message('note_off', channel=12, note=76, velocity=0, time=0),
    Message('note_off', channel=12, note=69, velocity=0, time=0),
    Message('note_on', channel=12, note=88, velocity=75, time=0),
    Message('note_on', channel=12, note=81, velocity=75, time=0),
    Message('note_on', channel=12, note=72, velocity=75, time=0),
    Message('note_off', channel=12, note=72, velocity=0, time=192),
    Message('note_off', channel=12, note=81, velocity=0, time=0),
    Message('note_off', channel=12, note=88, velocity=0, time=0),
    Message('note_on', channel=12, note=92, velocity=75, time=0),
    Message('note_on', channel=12, note=84, velocity=75, time=0),
    Message('note_on', channel=12, note=77, velocity=75, time=0),
    Message('note_off', channel=12, note=77, velocity=0, time=192),
    Message('note_off', channel=12, note=84, velocity=0, time=0),
    Message('note_off', channel=12, note=92, velocity=0, time=0),
    Message('note_on', channel=12, note=100, velocity=75, time=0),
    Message('note_on', channel=12, note=92, velocity=75, time=0),
    Message('note_on', channel=12, note=83, velocity=75, time=0),
    Message('note_on', channel=12, note=76, velocity=75, time=0),
    Message('note_off', channel=12, note=76, velocity=0, time=168),
    Message('note_off', channel=12, note=83, velocity=0, time=0),
    Message('note_off', channel=12, note=92, velocity=0, time=0),
    Message('note_off', channel=12, note=100, velocity=0, time=0),
    Message('control_change', channel=12, control=7, value=110, time=4632),
    Message('note_on', channel=12, note=88, velocity=92, time=0),
    Message('note_on', channel=12, note=84, velocity=92, time=0),
    Message('note_on', channel=12, note=81, velocity=92, time=0),
    Message('note_off', channel=12, note=88, velocity=0, time=47),
    Message('note_off', channel=12, note=84, velocity=0, time=0),
    Message('note_off', channel=12, note=81, velocity=0, time=0),
    Message('note_on', channel=12, note=88, velocity=92, time=1),
    Message('note_on', channel=12, note=84, velocity=92, time=0),
    Message('note_on', channel=12, note=81, velocity=92, time=0),
    Message('note_off', channel=12, note=88, velocity=0, time=47),
    Message('note_off', channel=12, note=84, velocity=0, time=0),
    Message('note_off', channel=12, note=81, velocity=0, time=0),
    Message('note_on', channel=12, note=88, velocity=92, time=1),
    Message('note_on', channel=12, note=84, velocity=92, time=0),
    Message('note_on', channel=12, note=81, velocity=92, time=0),
    Message('note_off', channel=12, note=88, velocity=0, time=47),
    Message('note_off', channel=12, note=84, velocity=0, time=0),
    Message('note_off', channel=12, note=81, velocity=0, time=0),
    Message('note_on', channel=12, note=88, velocity=92, time=1),
    Message('note_on', channel=12, note=84, velocity=92, time=0),
    Message('note_on', channel=12, note=81, velocity=92, time=0),
    Message('note_off', channel=12, note=81, velocity=0, time=47),
    Message('note_off', channel=12, note=84, velocity=0, time=0),
    Message('note_off', channel=12, note=88, velocity=0, time=0),
    Message('note_on', channel=12, note=88, velocity=92, time=1),
    Message('note_on', channel=12, note=84, velocity=92, time=0),
    Message('note_on', channel=12, note=81, velocity=92, time=0),
    Message('note_off', channel=12, note=88, velocity=0, time=47),
    Message('note_off', channel=12, note=84, velocity=0, time=0),
    Message('note_off', channel=12, note=81, velocity=0, time=0),
    Message('note_on', channel=12, note=88, velocity=92, time=1),
    Message('note_on', channel=12, note=84, velocity=92, time=0),
    Message('note_on', channel=12, note=81, velocity=92, time=0),
    Message('note_off', channel=12, note=88, velocity=0, time=47),
    Message('note_off', channel=12, note=84, velocity=0, time=0),
    Message('note_off', channel=12, note=81, velocity=0, time=0),
    Message('note_on', channel=12, note=87, velocity=92, time=1),
    Message('note_on', channel=12, note=83, velocity=92, time=0),
    Message('note_on', channel=12, note=80, velocity=92, time=0),
    Message('note_off', channel=12, note=87, velocity=0, time=47),
    Message('note_off', channel=12, note=83, velocity=0, time=0),
    Message('note_off', channel=12, note=80, velocity=0, time=0),
    Message('note_on', channel=12, note=88, velocity=92, time=1),
    Message('note_on', channel=12, note=84, velocity=92, time=0),
    Message('note_on', channel=12, note=81, velocity=92, time=0),
    Message('note_off', channel=12, note=88, velocity=0, time=47),
    Message('note_off', channel=12, note=84, velocity=0, time=0),
    Message('note_off', channel=12, note=81, velocity=0, time=0),
    Message('note_on', channel=12, note=89, velocity=127, time=1),
    Message('note_on', channel=12, note=85, velocity=127, time=0),
    Message('note_on', channel=12, note=82, velocity=127, time=0),
    Message('note_off', channel=12, note=89, velocity=0, time=96),
    Message('note_off', channel=12, note=85, velocity=0, time=0),
    Message('note_off', channel=12, note=82, velocity=0, time=0),
    Message('note_on', channel=12, note=88, velocity=92, time=0),
    Message('note_on', channel=12, note=84, velocity=92, time=0),
    Message('note_on', channel=12, note=81, velocity=92, time=0),
    Message('note_off', channel=12, note=81, velocity=0, time=48),
    Message('note_off', channel=12, note=84, velocity=0, time=0),
    Message('note_off', channel=12, note=88, velocity=0, time=0),
    Message('note_on', channel=12, note=87, velocity=92, time=0),
    Message('note_on', channel=12, note=83, velocity=92, time=0),
    Message('note_on', channel=12, note=80, velocity=92, time=0),
    Message('note_off', channel=12, note=80, velocity=0, time=47),
    Message('note_off', channel=12, note=83, velocity=0, time=0),
    Message('note_off', channel=12, note=87, velocity=0, time=0),
    Message('note_on', channel=12, note=88, velocity=92, time=1),
    Message('note_on', channel=12, note=84, velocity=92, time=0),
    Message('note_on', channel=12, note=81, velocity=92, time=0),
    Message('note_off', channel=12, note=84, velocity=0, time=80),
    Message('note_off', channel=12, note=88, velocity=0, time=0),
    Message('note_off', channel=12, note=81, velocity=0, time=0),
    Message('note_on', channel=12, note=84, velocity=92, time=16),
    Message('note_on', channel=12, note=81, velocity=92, time=0),
    Message('note_on', channel=12, note=76, velocity=92, time=0),
    Message('note_off', channel=12, note=84, velocity=0, time=80),
    Message('note_off', channel=12, note=81, velocity=0, time=0),
    Message('note_off', channel=12, note=76, velocity=0, time=0),
    Message('note_on', channel=12, note=86, velocity=127, time=16),
    Message('note_on', channel=12, note=81, velocity=127, time=0),
    Message('note_on', channel=12, note=77, velocity=127, time=0),
    Message('note_off', channel=12, note=86, velocity=0, time=80),
    Message('note_off', channel=12, note=81, velocity=0, time=0),
    Message('note_off', channel=12, note=77, velocity=0, time=0),
    Message('note_on', channel=12, note=86, velocity=92, time=16),
    Message('note_on', channel=12, note=81, velocity=92, time=0),
    Message('note_on', channel=12, note=77, velocity=92, time=0),
    Message('note_off', channel=12, note=86, velocity=0, time=47),
    Message('note_off', channel=12, note=81, velocity=0, time=0),
    Message('note_off', channel=12, note=77, velocity=0, time=0),
    Message('note_on', channel=12, note=85, velocity=92, time=1),
    Message('note_on', channel=12, note=80, velocity=92, time=0),
    Message('note_on', channel=12, note=76, velocity=92, time=0),
    Message('note_off', channel=12, note=76, velocity=0, time=47),
    Message('note_off', channel=12, note=80, velocity=0, time=0),
    Message('note_off', channel=12, note=85, velocity=0, time=0),
    Message('note_on', channel=12, note=86, velocity=92, time=1),
    Message('note_on', channel=12, note=81, velocity=92, time=0),
    Message('note_on', channel=12, note=77, velocity=92, time=0),
    Message('note_off', channel=12, note=77, velocity=0, time=80),
    Message('note_off', channel=12, note=81, velocity=0, time=0),
    Message('note_off', channel=12, note=86, velocity=0, time=0),
    Message('note_on', channel=12, note=77, velocity=92, time=16),
    Message('note_on', channel=12, note=74, velocity=92, time=0),
    Message('note_on', channel=12, note=69, velocity=92, time=0),
    Message('note_off', channel=12, note=77, velocity=0, time=96),
    Message('note_off', channel=12, note=69, velocity=0, time=0),
    Message('note_off', channel=12, note=74, velocity=0, time=0),
    Message('note_on', channel=12, note=76, velocity=92, time=0),
    Message('note_on', channel=12, note=72, velocity=92, time=0),
    Message('note_on', channel=12, note=69, velocity=92, time=0),
    Message('note_off', channel=12, note=76, velocity=0, time=47),
    Message('note_off', channel=12, note=72, velocity=0, time=0),
    Message('note_off', channel=12, note=69, velocity=0, time=0),
    Message('note_on', channel=12, note=81, velocity=92, time=49),
    Message('note_on', channel=12, note=76, velocity=92, time=0),
    Message('note_on', channel=12, note=72, velocity=92, time=0),
    Message('note_off', channel=12, note=81, velocity=0, time=47),
    Message('note_off', channel=12, note=76, velocity=0, time=0),
    Message('note_off', channel=12, note=72, velocity=0, time=0),
    Message('note_on', channel=12, note=84, velocity=92, time=1),
    Message('note_on', channel=12, note=81, velocity=92, time=0),
    Message('note_on', channel=12, note=76, velocity=92, time=0),
    Message('note_off', channel=12, note=76, velocity=0, time=47),
    Message('note_off', channel=12, note=81, velocity=0, time=0),
    Message('note_off', channel=12, note=84, velocity=0, time=0),
    Message('note_on', channel=12, note=87, velocity=92, time=1),
    Message('note_on', channel=12, note=83, velocity=92, time=0),
    Message('note_on', channel=12, note=80, velocity=92, time=0),
    Message('note_off', channel=12, note=87, velocity=0, time=168),
    Message('note_off', channel=12, note=83, velocity=0, time=0),
    Message('note_off', channel=12, note=80, velocity=0, time=0),
    Message('note_on', channel=12, note=88, velocity=92, time=24),
    Message('note_on', channel=12, note=84, velocity=92, time=0),
    Message('note_on', channel=12, note=81, velocity=92, time=0),
    Message('note_off', channel=12, note=88, velocity=0, time=47),
    Message('note_off', channel=12, note=84, velocity=0, time=0),
    Message('note_off', channel=12, note=81, velocity=0, time=0),
    Message('note_on', channel=12, note=88, velocity=92, time=1),
    Message('note_on', channel=12, note=84, velocity=92, time=0),
    Message('note_on', channel=12, note=81, velocity=92, time=0),
    Message('note_off', channel=12, note=81, velocity=0, time=47),
    Message('note_off', channel=12, note=84, velocity=0, time=0),
    Message('note_off', channel=12, note=88, velocity=0, time=0),
    Message('note_on', channel=12, note=88, velocity=92, time=1),
    Message('note_on', channel=12, note=84, velocity=92, time=0),
    Message('note_on', channel=12, note=81, velocity=92, time=0),
    Message('note_off', channel=12, note=88, velocity=0, time=47),
    Message('note_off', channel=12, note=84, velocity=0, time=0),
    Message('note_off', channel=12, note=81, velocity=0, time=0),
    Message('note_on', channel=12, note=88, velocity=92, time=1),
    Message('note_on', channel=12, note=84, velocity=92, time=0),
    Message('note_on', channel=12, note=81, velocity=92, time=0),
    Message('note_off', channel=12, note=81, velocity=0, time=47),
    Message('note_off', channel=12, note=84, velocity=0, time=0),
    Message('note_off', channel=12, note=88, velocity=0, time=0),
    Message('note_on', channel=12, note=88, velocity=92, time=1),
    Message('note_on', channel=12, note=84, velocity=92, time=0),
    Message('note_on', channel=12, note=81, velocity=92, time=0),
    Message('note_off', channel=12, note=81, velocity=0, time=47),
    Message('note_off', channel=12, note=88, velocity=0, time=0),
    Message('note_off', channel=12, note=84, velocity=0, time=0),
    Message('note_on', channel=12, note=88, velocity=92, time=1),
    Message('note_on', channel=12, note=84, velocity=92, time=0),
    Message('note_on', channel=12, note=81, velocity=92, time=0),
    Message('note_off', channel=12, note=81, velocity=0, time=47),
    Message('note_off', channel=12, note=84, velocity=0, time=0),
    Message('note_off', channel=12, note=88, velocity=0, time=0),
    Message('note_on', channel=12, note=87, velocity=92, time=1),
    Message('note_on', channel=12, note=83, velocity=92, time=0),
    Message('note_on', channel=12, note=80, velocity=92, time=0),
    Message('note_off', channel=12, note=80, velocity=0, time=47),
    Message('note_off', channel=12, note=83, velocity=0, time=0),
    Message('note_off', channel=12, note=87, velocity=0, time=0),
    Message('note_on', channel=12, note=88, velocity=92, time=1),
    Message('note_on', channel=12, note=84, velocity=92, time=0),
    Message('note_on', channel=12, note=81, velocity=92, time=0),
    Message('note_off', channel=12, note=88, velocity=0, time=47),
    Message('note_off', channel=12, note=84, velocity=0, time=0),
    Message('note_off', channel=12, note=81, velocity=0, time=0),
    Message('note_on', channel=12, note=91, velocity=92, time=1),
    Message('note_on', channel=12, note=87, velocity=92, time=0),
    Message('note_on', channel=12, note=84, velocity=92, time=0),
    Message('note_off', channel=12, note=91, velocity=0, time=96),
    Message('note_off', channel=12, note=87, velocity=0, time=0),
    Message('note_off', channel=12, note=84, velocity=0, time=0),
    Message('note_on', channel=12, note=89, velocity=92, time=0),
    Message('note_on', channel=12, note=85, velocity=92, time=0),
    Message('note_on', channel=12, note=82, velocity=92, time=0),
    Message('note_off', channel=12, note=89, velocity=0, time=47),
    Message('note_off', channel=12, note=85, velocity=0, time=0),
    Message('note_off', channel=12, note=82, velocity=0, time=0),
    Message('note_on', channel=12, note=88, velocity=92, time=1),
    Message('note_on', channel=12, note=84, velocity=92, time=0),
    Message('note_on', channel=12, note=81, velocity=92, time=0),
    Message('note_off', channel=12, note=88, velocity=0, time=47),
    Message('note_off', channel=12, note=81, velocity=0, time=0),
    Message('note_off', channel=12, note=84, velocity=0, time=0),
    Message('note_on', channel=12, note=89, velocity=92, time=1),
    Message('note_on', channel=12, note=85, velocity=92, time=0),
    Message('note_on', channel=12, note=82, velocity=92, time=0),
    Message('note_off', channel=12, note=82, velocity=0, time=80),
    Message('note_off', channel=12, note=85, velocity=0, time=0),
    Message('note_off', channel=12, note=89, velocity=0, time=0),
    Message('note_on', channel=12, note=82, velocity=92, time=16),
    Message('note_on', channel=12, note=77, velocity=92, time=0),
    Message('note_on', channel=12, note=73, velocity=92, time=0),
    Message('note_off', channel=12, note=82, velocity=0, time=80),
    Message('note_off', channel=12, note=77, velocity=0, time=0),
    Message('note_off', channel=12, note=73, velocity=0, time=0),
    Message('note_on', channel=12, note=89, velocity=92, time=16),
    Message('note_on', channel=12, note=85, velocity=92, time=0),
    Message('note_on', channel=12, note=82, velocity=92, time=0),
    Message('note_off', channel=12, note=89, velocity=0, time=80),
    Message('note_off', channel=12, note=85, velocity=0, time=0),
    Message('note_off', channel=12, note=82, velocity=0, time=0),
    Message('note_on', channel=12, note=88, velocity=92, time=16),
    Message('note_on', channel=12, note=84, velocity=92, time=0),
    Message('note_on', channel=12, note=81, velocity=92, time=0),
    Message('note_off', channel=12, note=81, velocity=0, time=47),
    Message('note_off', channel=12, note=84, velocity=0, time=0),
    Message('note_off', channel=12, note=88, velocity=0, time=0),
    Message('note_on', channel=12, note=87, velocity=92, time=1),
    Message('note_on', channel=12, note=83, velocity=92, time=0),
    Message('note_on', channel=12, note=80, velocity=92, time=0),
    Message('note_off', channel=12, note=87, velocity=0, time=47),
    Message('note_off', channel=12, note=80, velocity=0, time=0),
    Message('note_off', channel=12, note=83, velocity=0, time=0),
    Message('note_on', channel=12, note=88, velocity=92, time=1),
    Message('note_on', channel=12, note=84, velocity=92, time=0),
    Message('note_on', channel=12, note=81, velocity=92, time=0),
    Message('note_off', channel=12, note=81, velocity=0, time=80),
    Message('note_off', channel=12, note=84, velocity=0, time=0),
    Message('note_off', channel=12, note=88, velocity=0, time=0),
    Message('note_on', channel=12, note=81, velocity=92, time=16),
    Message('note_on', channel=12, note=76, velocity=92, time=0),
    Message('note_on', channel=12, note=72, velocity=92, time=0),
    Message('note_off', channel=12, note=81, velocity=0, time=80),
    Message('note_off', channel=12, note=76, velocity=0, time=0),
    Message('note_off', channel=12, note=72, velocity=0, time=0),
    Message('note_on', channel=12, note=84, velocity=92, time=16),
    Message('note_on', channel=12, note=80, velocity=92, time=0),
    Message('note_on', channel=12, note=77, velocity=92, time=0),
    Message('note_off', channel=12, note=84, velocity=0, time=168),
    Message('note_off', channel=12, note=80, velocity=0, time=0),
    Message('note_off', channel=12, note=77, velocity=0, time=0),
    Message('note_on', channel=12, note=83, velocity=92, time=24),
    Message('note_on', channel=12, note=79, velocity=92, time=0),
    Message('note_on', channel=12, note=76, velocity=92, time=0),
    Message('note_off', channel=12, note=83, velocity=0, time=168),
    Message('note_off', channel=12, note=79, velocity=0, time=0),
    Message('note_off', channel=12, note=76, velocity=0, time=0),
    Message('note_on', channel=12, note=77, velocity=92, time=24),
    Message('note_on', channel=12, note=72, velocity=92, time=0),
    Message('note_on', channel=12, note=68, velocity=92, time=0),
    Message('note_off', channel=12, note=77, velocity=0, time=168),
    Message('note_off', channel=12, note=72, velocity=0, time=0),
    Message('note_off', channel=12, note=68, velocity=0, time=0),
    Message('note_on', channel=12, note=83, velocity=92, time=24),
    Message('note_on', channel=12, note=80, velocity=92, time=0),
    Message('note_on', channel=12, note=76, velocity=92, time=0),
    Message('note_off', channel=12, note=83, velocity=0, time=168),
    Message('note_off', channel=12, note=80, velocity=0, time=0),
    Message('note_off', channel=12, note=76, velocity=0, time=0),
    Message('note_on', channel=12, note=76, velocity=127, time=24),
    Message('note_on', channel=12, note=72, velocity=127, time=0),
    Message('note_on', channel=12, note=69, velocity=127, time=0),
    Message('note_off', channel=12, note=76, velocity=0, time=80),
    Message('note_off', channel=12, note=72, velocity=0, time=0),
    Message('note_off', channel=12, note=69, velocity=0, time=0),
    Message('note_on', channel=12, note=84, velocity=92, time=592),
    Message('note_off', channel=12, note=84, velocity=0, time=80),
    Message('note_on', channel=12, note=96, velocity=92, time=16),
    Message('note_off', channel=12, note=96, velocity=0, time=96),
    Message('note_on', channel=12, note=95, velocity=92, time=0),
    Message('note_off', channel=12, note=95, velocity=0, time=48),
    Message('note_on', channel=12, note=96, velocity=92, time=0),
    Message('note_off', channel=12, note=96, velocity=0, time=48),
    Message('note_on', channel=12, note=98, velocity=92, time=0),
    Message('note_off', channel=12, note=98, velocity=0, time=96),
    Message('note_on', channel=12, note=96, velocity=92, time=0),
    Message('note_off', channel=12, note=96, velocity=0, time=48),
    Message('note_on', channel=12, note=95, velocity=92, time=0),
    Message('note_off', channel=12, note=95, velocity=0, time=47),
    Message('note_on', channel=12, note=96, velocity=92, time=1),
    Message('note_off', channel=12, note=96, velocity=0, time=48),
    Message('note_on', channel=12, note=98, velocity=92, time=0),
    Message('note_off', channel=12, note=98, velocity=0, time=48),
    Message('note_on', channel=12, note=100, velocity=92, time=0),
    Message('note_off', channel=12, note=100, velocity=0, time=96),
    Message('note_on', channel=12, note=96, velocity=92, time=0),
    Message('note_off', channel=12, note=96, velocity=0, time=80),
    Message('note_on', channel=12, note=95, velocity=92, time=16),
    Message('note_off', channel=12, note=95, velocity=0, time=96),
    Message('note_on', channel=12, note=88, velocity=92, time=0),
    Message('note_off', channel=12, note=88, velocity=0, time=47),
    Message('note_on', channel=12, note=98, velocity=92, time=49),
    Message('note_off', channel=12, note=98, velocity=0, time=24),
    Message('note_on', channel=12, note=96, velocity=92, time=0),
    Message('note_off', channel=12, note=96, velocity=0, time=24),
    Message('note_on', channel=12, note=95, velocity=92, time=0),
    Message('note_off', channel=12, note=95, velocity=0, time=24),
    Message('note_on', channel=12, note=96, velocity=92, time=0),
    Message('note_off', channel=12, note=96, velocity=0, time=24),
    Message('note_on', channel=12, note=98, velocity=92, time=0),
    Message('note_off', channel=12, note=98, velocity=0, time=47),
    Message('note_on', channel=12, note=100, velocity=92, time=49),
    Message('note_off', channel=12, note=100, velocity=0, time=24),
    Message('note_on', channel=12, note=98, velocity=92, time=0),
    Message('note_off', channel=12, note=98, velocity=0, time=24),
    Message('note_on', channel=12, note=96, velocity=92, time=0),
    Message('note_off', channel=12, note=96, velocity=0, time=24),
    Message('note_on', channel=12, note=98, velocity=92, time=0),
    Message('note_off', channel=12, note=98, velocity=0, time=24),
    Message('note_on', channel=12, note=100, velocity=92, time=0),
    Message('note_off', channel=12, note=100, velocity=0, time=264),
    Message('note_on', channel=12, note=88, velocity=92, time=24),
    Message('note_off', channel=12, note=88, velocity=0, time=80),
    Message('note_on', channel=12, note=96, velocity=92, time=16),
    Message('note_off', channel=12, note=96, velocity=0, time=96),
    Message('note_on', channel=12, note=95, velocity=92, time=0),
    Message('note_off', channel=12, note=95, velocity=0, time=48),
    Message('note_on', channel=12, note=96, velocity=92, time=0),
    Message('note_off', channel=12, note=96, velocity=0, time=48),
    Message('note_on', channel=12, note=98, velocity=92, time=0),
    Message('note_off', channel=12, note=98, velocity=0, time=96),
    Message('note_on', channel=12, note=96, velocity=92, time=0),
    Message('note_off', channel=12, note=96, velocity=0, time=48),
    Message('note_on', channel=12, note=98, velocity=92, time=0),
    Message('note_off', channel=12, note=98, velocity=0, time=47),
    Message('note_on', channel=12, note=99, velocity=92, time=1),
    Message('note_off', channel=12, note=99, velocity=0, time=48),
    Message('note_on', channel=12, note=101, velocity=92, time=0),
    Message('note_off', channel=12, note=101, velocity=0, time=48),
    Message('note_on', channel=12, note=103, velocity=92, time=0),
    Message('note_off', channel=12, note=103, velocity=0, time=96),
    Message('note_on', channel=12, note=99, velocity=92, time=0),
    Message('note_off', channel=12, note=99, velocity=0, time=96),
    Message('note_on', channel=12, note=98, velocity=92, time=0),
    Message('note_off', channel=12, note=98, velocity=0, time=96),
    Message('note_on', channel=12, note=99, velocity=92, time=0),
    Message('note_off', channel=12, note=99, velocity=0, time=48),
    Message('note_on', channel=12, note=87, velocity=92, time=48),
    Message('note_off', channel=12, note=87, velocity=0, time=24),
    Message('note_on', channel=12, note=91, velocity=92, time=0),
    Message('note_off', channel=12, note=91, velocity=0, time=24),
    Message('note_on', channel=12, note=96, velocity=92, time=0),
    Message('note_off', channel=12, note=96, velocity=0, time=24),
    Message('note_on', channel=12, note=99, velocity=92, time=0),
    Message('note_off', channel=12, note=99, velocity=0, time=24),
    Message('note_on', channel=12, note=101, velocity=92, time=0),
    Message('note_off', channel=12, note=101, velocity=0, time=47),
    Message('note_on', channel=12, note=86, velocity=92, time=49),
    Message('note_off', channel=12, note=86, velocity=0, time=24),
    Message('note_on', channel=12, note=91, velocity=92, time=0),
    Message('note_off', channel=12, note=91, velocity=0, time=24),
    Message('note_on', channel=12, note=95, velocity=92, time=0),
    Message('note_off', channel=12, note=95, velocity=0, time=24),
    Message('note_on', channel=12, note=98, velocity=92, time=0),
    Message('note_off', channel=12, note=98, velocity=0, time=23),
    Message('note_on', channel=12, note=103, velocity=92, time=1),
    Message('note_on', channel=12, note=91, velocity=92, time=0),
    Message('note_off', channel=12, note=103, velocity=0, time=192),
    Message('note_off', channel=12, note=91, velocity=0, time=0),
    Message('note_on', channel=12, note=96, velocity=92, time=0),
    Message('note_on', channel=12, note=84, velocity=92, time=0),
    Message('note_off', channel=12, note=84, velocity=0, time=128),
    Message('note_off', channel=12, note=96, velocity=0, time=0),
    Message('control_change', channel=12, control=7, value=80, time=64),
    Message('note_on', channel=12, note=103, velocity=45, time=0),
    Message('note_on', channel=12, note=91, velocity=45, time=0),
    Message('note_off', channel=12, note=103, velocity=0, time=24),
    Message('note_off', channel=12, note=91, velocity=0, time=0),
    Message('note_on', channel=12, note=99, velocity=45, time=0),
    Message('note_on', channel=12, note=87, velocity=45, time=0),
    Message('note_off', channel=12, note=87, velocity=0, time=24),
    Message('note_off', channel=12, note=99, velocity=0, time=0),
    Message('note_on', channel=12, note=96, velocity=45, time=0),
    Message('note_on', channel=12, note=84, velocity=45, time=0),
    Message('note_off', channel=12, note=84, velocity=0, time=24),
    Message('note_off', channel=12, note=96, velocity=0, time=0),
    Message('note_on', channel=12, note=91, velocity=45, time=0),
    Message('note_on', channel=12, note=79, velocity=45, time=0),
    Message('note_off', channel=12, note=91, velocity=0, time=24),
    Message('note_off', channel=12, note=79, velocity=0, time=0),
    Message('note_on', channel=12, note=89, velocity=45, time=0),
    Message('note_on', channel=12, note=77, velocity=45, time=0),
    Message('note_off', channel=12, note=77, velocity=0, time=24),
    Message('note_off', channel=12, note=89, velocity=0, time=0),
    Message('note_on', channel=12, note=87, velocity=45, time=0),
    Message('note_on', channel=12, note=75, velocity=45, time=0),
    Message('note_off', channel=12, note=75, velocity=0, time=24),
    Message('note_off', channel=12, note=87, velocity=0, time=0),
    Message('note_on', channel=12, note=86, velocity=45, time=0),
    Message('note_on', channel=12, note=74, velocity=45, time=0),
    Message('note_off', channel=12, note=74, velocity=0, time=24),
    Message('note_off', channel=12, note=86, velocity=0, time=0),
    Message('note_on', channel=12, note=84, velocity=45, time=0),
    Message('note_on', channel=12, note=72, velocity=45, time=0),
    Message('note_off', channel=12, note=72, velocity=0, time=23),
    Message('note_off', channel=12, note=84, velocity=0, time=0),
    Message('note_on', channel=12, note=91, velocity=45, time=193),
    Message('note_on', channel=12, note=79, velocity=45, time=0),
    Message('note_off', channel=12, note=91, velocity=0, time=24),
    Message('note_off', channel=12, note=79, velocity=0, time=0),
    Message('note_on', channel=12, note=87, velocity=45, time=0),
    Message('note_on', channel=12, note=75, velocity=45, time=0),
    Message('note_off', channel=12, note=75, velocity=0, time=24),
    Message('note_off', channel=12, note=87, velocity=0, time=0),
    Message('note_on', channel=12, note=84, velocity=45, time=0),
    Message('note_on', channel=12, note=72, velocity=45, time=0),
    Message('note_off', channel=12, note=72, velocity=0, time=24),
    Message('note_off', channel=12, note=84, velocity=0, time=0),
    Message('note_on', channel=12, note=79, velocity=45, time=0),
    Message('note_on', channel=12, note=67, velocity=45, time=0),
    Message('note_off', channel=12, note=79, velocity=0, time=24),
    Message('note_off', channel=12, note=67, velocity=0, time=0),
    Message('note_on', channel=12, note=77, velocity=45, time=0),
    Message('note_on', channel=12, note=65, velocity=45, time=0),
    Message('note_off', channel=12, note=65, velocity=0, time=24),
    Message('note_off', channel=12, note=77, velocity=0, time=0),
    Message('note_on', channel=12, note=75, velocity=45, time=0),
    Message('note_on', channel=12, note=63, velocity=45, time=0),
    Message('note_off', channel=12, note=63, velocity=0, time=24),
    Message('note_off', channel=12, note=75, velocity=0, time=0),
    Message('note_on', channel=12, note=74, velocity=45, time=0),
    Message('note_on', channel=12, note=62, velocity=45, time=0),
    Message('note_off', channel=12, note=62, velocity=0, time=24),
    Message('note_off', channel=12, note=74, velocity=0, time=0),
    Message('note_on', channel=12, note=72, velocity=45, time=0),
    Message('note_on', channel=12, note=60, velocity=45, time=0),
    Message('note_off', channel=12, note=60, velocity=0, time=23),
    Message('note_off', channel=12, note=72, velocity=0, time=0),
    Message('control_change', channel=12, control=7, value=110, time=2113),
    Message('note_on', channel=12, note=91, velocity=127, time=0),
    Message('note_on', channel=12, note=87, velocity=127, time=0),
    Message('note_on', channel=12, note=84, velocity=127, time=0),
    Message('note_off', channel=12, note=91, velocity=0, time=47),
    Message('note_off', channel=12, note=87, velocity=0, time=0),
    Message('note_off', channel=12, note=84, velocity=0, time=0),
    Message('note_on', channel=12, note=91, velocity=92, time=1),
    Message('note_on', channel=12, note=87, velocity=92, time=0),
    Message('note_on', channel=12, note=84, velocity=92, time=0),
    Message('note_off', channel=12, note=84, velocity=0, time=47),
    Message('note_off', channel=12, note=87, velocity=0, time=0),
    Message('note_off', channel=12, note=91, velocity=0, time=0),
    Message('note_on', channel=12, note=91, velocity=92, time=1),
    Message('note_on', channel=12, note=87, velocity=92, time=0),
    Message('note_on', channel=12, note=84, velocity=92, time=0),
    Message('note_off', channel=12, note=91, velocity=0, time=47),
    Message('note_off', channel=12, note=87, velocity=0, time=0),
    Message('note_off', channel=12, note=84, velocity=0, time=0),
    Message('note_on', channel=12, note=91, velocity=92, time=1),
    Message('note_on', channel=12, note=87, velocity=92, time=0),
    Message('note_on', channel=12, note=84, velocity=92, time=0),
    Message('note_off', channel=12, note=84, velocity=0, time=47),
    Message('note_off', channel=12, note=91, velocity=0, time=0),
    Message('note_off', channel=12, note=87, velocity=0, time=0),
    Message('note_on', channel=12, note=91, velocity=92, time=1),
    Message('note_on', channel=12, note=87, velocity=92, time=0),
    Message('note_on', channel=12, note=84, velocity=92, time=0),
    Message('note_off', channel=12, note=91, velocity=0, time=47),
    Message('note_off', channel=12, note=87, velocity=0, time=0),
    Message('note_off', channel=12, note=84, velocity=0, time=0),
    Message('note_on', channel=12, note=91, velocity=92, time=1),
    Message('note_on', channel=12, note=87, velocity=92, time=0),
    Message('note_on', channel=12, note=84, velocity=92, time=0),
    Message('note_off', channel=12, note=84, velocity=0, time=47),
    Message('note_off', channel=12, note=87, velocity=0, time=0),
    Message('note_off', channel=12, note=91, velocity=0, time=0),
    Message('note_on', channel=12, note=90, velocity=92, time=1),
    Message('note_on', channel=12, note=86, velocity=92, time=0),
    Message('note_on', channel=12, note=83, velocity=92, time=0),
    Message('note_off', channel=12, note=90, velocity=0, time=47),
    Message('note_off', channel=12, note=86, velocity=0, time=0),
    Message('note_off', channel=12, note=83, velocity=0, time=0),
    Message('note_on', channel=12, note=91, velocity=92, time=1),
    Message('note_on', channel=12, note=87, velocity=92, time=0),
    Message('note_on', channel=12, note=84, velocity=92, time=0),
    Message('note_off', channel=12, note=91, velocity=0, time=47),
    Message('note_off', channel=12, note=87, velocity=0, time=0),
    Message('note_off', channel=12, note=84, velocity=0, time=0),
    Message('note_on', channel=12, note=92, velocity=127, time=1),
    Message('note_on', channel=12, note=88, velocity=127, time=0),
    Message('note_on', channel=12, note=85, velocity=127, time=0),
    Message('note_off', channel=12, note=92, velocity=0, time=80),
    Message('note_off', channel=12, note=88, velocity=0, time=0),
    Message('note_off', channel=12, note=85, velocity=0, time=0),
    Message('note_on', channel=12, note=91, velocity=92, time=16),
    Message('note_on', channel=12, note=87, velocity=92, time=0),
    Message('note_on', channel=12, note=84, velocity=92, time=0),
    Message('note_off', channel=12, note=91, velocity=0, time=47),
    Message('note_off', channel=12, note=87, velocity=0, time=0),
    Message('note_off', channel=12, note=84, velocity=0, time=0),
    Message('note_on', channel=12, note=90, velocity=92, time=1),
    Message('note_on', channel=12, note=86, velocity=92, time=0),
    Message('note_on', channel=12, note=83, velocity=92, time=0),
    Message('note_off', channel=12, note=83, velocity=0, time=47),
    Message('note_off', channel=12, note=86, velocity=0, time=0),
    Message('note_off', channel=12, note=90, velocity=0, time=0),
    Message('note_on', channel=12, note=91, velocity=92, time=1),
    Message('note_on', channel=12, note=87, velocity=92, time=0),
    Message('note_on', channel=12, note=84, velocity=92, time=0),
    Message('note_off', channel=12, note=84, velocity=0, time=80),
    Message('note_off', channel=12, note=87, velocity=0, time=0),
    Message('note_off', channel=12, note=91, velocity=0, time=0),
    Message('note_on', channel=12, note=87, velocity=92, time=16),
    Message('note_on', channel=12, note=84, velocity=92, time=0),
    Message('note_on', channel=12, note=79, velocity=92, time=0),
    Message('note_off', channel=12, note=87, velocity=0, time=80),
    Message('note_off', channel=12, note=84, velocity=0, time=0),
    Message('note_off', channel=12, note=79, velocity=0, time=0),
    Message('note_on', channel=12, note=89, velocity=127, time=16),
    Message('note_on', channel=12, note=84, velocity=127, time=0),
    Message('note_on', channel=12, note=80, velocity=127, time=0),
    Message('note_off', channel=12, note=89, velocity=0, time=80),
    Message('note_off', channel=12, note=84, velocity=0, time=0),
    Message('note_off', channel=12, note=80, velocity=0, time=0),
    Message('note_on', channel=12, note=89, velocity=92, time=16),
    Message('note_on', channel=12, note=84, velocity=92, time=0),
    Message('note_on', channel=12, note=80, velocity=92, time=0),
    Message('note_off', channel=12, note=89, velocity=0, time=16),
    Message('note_off', channel=12, note=84, velocity=0, time=0),
    Message('note_off', channel=12, note=80, velocity=0, time=0),
    Message('note_on', channel=12, note=88, velocity=92, time=32),
    Message('note_on', channel=12, note=83, velocity=92, time=0),
    Message('note_on', channel=12, note=79, velocity=92, time=0),
    Message('note_off', channel=12, note=88, velocity=0, time=16),
    Message('note_off', channel=12, note=83, velocity=0, time=0),
    Message('note_off', channel=12, note=79, velocity=0, time=0),
    Message('note_on', channel=12, note=89, velocity=92, time=32),
    Message('note_on', channel=12, note=84, velocity=92, time=0),
    Message('note_on', channel=12, note=80, velocity=92, time=0),
    Message('note_off', channel=12, note=89, velocity=0, time=24),
    Message('note_off', channel=12, note=84, velocity=0, time=0),
    Message('note_off', channel=12, note=80, velocity=0, time=0),
    Message('note_on', channel=12, note=80, velocity=92, time=72),
    Message('note_on', channel=12, note=77, velocity=92, time=0),
    Message('note_on', channel=12, note=72, velocity=92, time=0),
    Message('note_off', channel=12, note=80, velocity=0, time=96),
    Message('note_off', channel=12, note=77, velocity=0, time=0),
    Message('note_off', channel=12, note=72, velocity=0, time=0),
    Message('note_on', channel=12, note=79, velocity=92, time=0),
    Message('note_on', channel=12, note=75, velocity=92, time=0),
    Message('note_on', channel=12, note=72, velocity=92, time=0),
    Message('note_off', channel=12, note=72, velocity=0, time=16),
    Message('note_off', channel=12, note=75, velocity=0, time=0),
    Message('note_off', channel=12, note=79, velocity=0, time=0),
    Message('note_on', channel=12, note=84, velocity=92, time=80),
    Message('note_on', channel=12, note=79, velocity=92, time=0),
    Message('note_on', channel=12, note=75, velocity=92, time=0),
    Message('note_off', channel=12, note=84, velocity=0, time=47),
    Message('note_off', channel=12, note=79, velocity=0, time=0),
    Message('note_off', channel=12, note=75, velocity=0, time=0),
    Message('note_on', channel=12, note=87, velocity=92, time=1),
    Message('note_on', channel=12, note=84, velocity=92, time=0),
    Message('note_on', channel=12, note=79, velocity=92, time=0),
    Message('note_off', channel=12, note=79, velocity=0, time=47),
    Message('note_off', channel=12, note=84, velocity=0, time=0),
    Message('note_off', channel=12, note=87, velocity=0, time=0),
    Message('note_on', channel=12, note=90, velocity=92, time=1),
    Message('note_on', channel=12, note=86, velocity=92, time=0),
    Message('note_on', channel=12, note=83, velocity=92, time=0),
    Message('note_off', channel=12, note=90, velocity=0, time=168),
    Message('note_off', channel=12, note=86, velocity=0, time=0),
    Message('note_off', channel=12, note=83, velocity=0, time=0),
    Message('note_on', channel=12, note=86, velocity=92, time=24),
    Message('note_on', channel=12, note=82, velocity=92, time=0),
    Message('note_on', channel=12, note=79, velocity=92, time=0),
    Message('note_off', channel=12, note=86, velocity=0, time=47),
    Message('note_off', channel=12, note=82, velocity=0, time=0),
    Message('note_off', channel=12, note=79, velocity=0, time=0),
    Message('note_on', channel=12, note=86, velocity=92, time=1),
    Message('note_on', channel=12, note=82, velocity=92, time=0),
    Message('note_on', channel=12, note=79, velocity=92, time=0),
    Message('note_off', channel=12, note=86, velocity=0, time=47),
    Message('note_off', channel=12, note=82, velocity=0, time=0),
    Message('note_off', channel=12, note=79, velocity=0, time=0),
    Message('note_on', channel=12, note=86, velocity=92, time=1),
    Message('note_on', channel=12, note=82, velocity=92, time=0),
    Message('note_on', channel=12, note=79, velocity=92, time=0),
    Message('note_off', channel=12, note=79, velocity=0, time=47),
    Message('note_off', channel=12, note=86, velocity=0, time=0),
    Message('note_off', channel=12, note=82, velocity=0, time=0),
    Message('note_on', channel=12, note=86, velocity=92, time=1),
    Message('note_on', channel=12, note=82, velocity=92, time=0),
    Message('note_on', channel=12, note=79, velocity=92, time=0),
    Message('note_off', channel=12, note=86, velocity=0, time=47),
    Message('note_off', channel=12, note=82, velocity=0, time=0),
    Message('note_off', channel=12, note=79, velocity=0, time=0),
    Message('note_on', channel=12, note=86, velocity=92, time=1),
    Message('note_on', channel=12, note=82, velocity=92, time=0),
    Message('note_on', channel=12, note=79, velocity=92, time=0),
    Message('note_off', channel=12, note=86, velocity=0, time=47),
    Message('note_off', channel=12, note=82, velocity=0, time=0),
    Message('note_off', channel=12, note=79, velocity=0, time=0),
    Message('note_on', channel=12, note=86, velocity=92, time=1),
    Message('note_on', channel=12, note=82, velocity=92, time=0),
    Message('note_on', channel=12, note=79, velocity=92, time=0),
    Message('note_off', channel=12, note=86, velocity=0, time=47),
    Message('note_off', channel=12, note=82, velocity=0, time=0),
    Message('note_off', channel=12, note=79, velocity=0, time=0),
    Message('note_on', channel=12, note=85, velocity=92, time=1),
    Message('note_on', channel=12, note=81, velocity=92, time=0),
    Message('note_on', channel=12, note=78, velocity=92, time=0),
    Message('note_off', channel=12, note=85, velocity=0, time=47),
    Message('note_off', channel=12, note=81, velocity=0, time=0),
    Message('note_off', channel=12, note=78, velocity=0, time=0),
    Message('note_on', channel=12, note=86, velocity=92, time=1),
    Message('note_on', channel=12, note=82, velocity=92, time=0),
    Message('note_on', channel=12, note=79, velocity=92, time=0),
    Message('note_off', channel=12, note=86, velocity=0, time=47),
    Message('note_off', channel=12, note=82, velocity=0, time=0),
    Message('note_off', channel=12, note=79, velocity=0, time=0),
    Message('note_on', channel=12, note=89, velocity=92, time=1),
    Message('note_on', channel=12, note=85, velocity=92, time=0),
    Message('note_on', channel=12, note=82, velocity=92, time=0),
    Message('note_off', channel=12, note=89, velocity=0, time=80),
    Message('note_off', channel=12, note=85, velocity=0, time=0),
    Message('note_off', channel=12, note=82, velocity=0, time=0),
    Message('note_on', channel=12, note=87, velocity=92, time=16),
    Message('note_on', channel=12, note=83, velocity=92, time=0),
    Message('note_on', channel=12, note=80, velocity=92, time=0),
    Message('note_off', channel=12, note=80, velocity=0, time=47),
    Message('note_off', channel=12, note=83, velocity=0, time=0),
    Message('note_off', channel=12, note=87, velocity=0, time=0),
    Message('note_on', channel=12, note=86, velocity=92, time=1),
    Message('note_on', channel=12, note=82, velocity=92, time=0),
    Message('note_on', channel=12, note=79, velocity=92, time=0),
    Message('note_off', channel=12, note=86, velocity=0, time=47),
    Message('note_off', channel=12, note=82, velocity=0, time=0),
    Message('note_off', channel=12, note=79, velocity=0, time=0),
    Message('note_on', channel=12, note=87, velocity=92, time=1),
    Message('note_on', channel=12, note=83, velocity=92, time=0),
    Message('note_on', channel=12, note=80, velocity=92, time=0),
    Message('note_off', channel=12, note=80, velocity=0, time=80),
    Message('note_off', channel=12, note=83, velocity=0, time=0),
    Message('note_off', channel=12, note=87, velocity=0, time=0),
    Message('note_on', channel=12, note=80, velocity=92, time=16),
    Message('note_on', channel=12, note=75, velocity=92, time=0),
    Message('note_on', channel=12, note=71, velocity=92, time=0),
    Message('note_off', channel=12, note=71, velocity=0, time=80),
    Message('note_off', channel=12, note=75, velocity=0, time=0),
    Message('note_off', channel=12, note=80, velocity=0, time=0),
    Message('note_on', channel=12, note=87, velocity=92, time=16),
    Message('note_on', channel=12, note=83, velocity=92, time=0),
    Message('note_on', channel=12, note=80, velocity=92, time=0),
    Message('note_off', channel=12, note=87, velocity=0, time=80),
    Message('note_off', channel=12, note=83, velocity=0, time=0),
    Message('note_off', channel=12, note=80, velocity=0, time=0),
    Message('note_on', channel=12, note=86, velocity=92, time=16),
    Message('note_on', channel=12, note=83, velocity=92, time=0),
    Message('note_on', channel=12, note=80, velocity=92, time=0),
    Message('note_off', channel=12, note=80, velocity=0, time=47),
    Message('note_off', channel=12, note=83, velocity=0, time=0),
    Message('note_off', channel=12, note=86, velocity=0, time=0),
    Message('note_on', channel=12, note=85, velocity=92, time=1),
    Message('note_on', channel=12, note=83, velocity=92, time=0),
    Message('note_on', channel=12, note=80, velocity=92, time=0),
    Message('note_off', channel=12, note=85, velocity=0, time=47),
    Message('note_off', channel=12, note=83, velocity=0, time=0),
    Message('note_off', channel=12, note=80, velocity=0, time=0),
    Message('note_on', channel=12, note=86, velocity=92, time=1),
    Message('note_on', channel=12, note=82, velocity=92, time=0),
    Message('note_on', channel=12, note=79, velocity=92, time=0),
    Message('note_off', channel=12, note=79, velocity=0, time=80),
    Message('note_off', channel=12, note=82, velocity=0, time=0),
    Message('note_off', channel=12, note=86, velocity=0, time=0),
    Message('note_on', channel=12, note=79, velocity=92, time=16),
    Message('note_on', channel=12, note=74, velocity=92, time=0),
    Message('note_on', channel=12, note=70, velocity=92, time=0),
    Message('note_off', channel=12, note=70, velocity=0, time=80),
    Message('note_off', channel=12, note=74, velocity=0, time=0),
    Message('note_off', channel=12, note=79, velocity=0, time=0),
    Message('note_on', channel=12, note=94, velocity=92, time=16),
    Message('note_on', channel=12, note=91, velocity=92, time=0),
    Message('note_on', channel=12, note=86, velocity=92, time=0),
    Message('note_on', channel=12, note=82, velocity=92, time=0),
    Message('note_on', channel=12, note=79, velocity=92, time=0),
    Message('note_on', channel=12, note=74, velocity=92, time=0),
    Message('note_off', channel=12, note=94, velocity=0, time=168),
    Message('note_off', channel=12, note=91, velocity=0, time=0),
    Message('note_off', channel=12, note=86, velocity=0, time=0),
    Message('note_off', channel=12, note=82, velocity=0, time=0),
    Message('note_off', channel=12, note=79, velocity=0, time=0),
    Message('note_off', channel=12, note=74, velocity=0, time=0),
    Message('note_on', channel=12, note=93, velocity=92, time=24),
    Message('note_on', channel=12, note=90, velocity=92, time=0),
    Message('note_on', channel=12, note=86, velocity=92, time=0),
    Message('note_on', channel=12, note=81, velocity=92, time=0),
    Message('note_on', channel=12, note=78, velocity=92, time=0),
    Message('note_on', channel=12, note=74, velocity=92, time=0),
    Message('note_off', channel=12, note=93, velocity=0, time=168),
    Message('note_off', channel=12, note=90, velocity=0, time=0),
    Message('note_off', channel=12, note=86, velocity=0, time=0),
    Message('note_off', channel=12, note=81, velocity=0, time=0),
    Message('note_off', channel=12, note=78, velocity=0, time=0),
    Message('note_off', channel=12, note=74, velocity=0, time=0),
    Message('control_change', channel=12, control=7, value=100, time=24),
    Message('note_on', channel=12, note=91, velocity=75, time=0),
    Message('note_on', channel=12, note=79, velocity=75, time=0),
    Message('control_change', channel=12, control=7, value=101, time=7),
    Message('note_off', channel=12, note=91, velocity=0, time=5),
    Message('note_off', channel=12, note=79, velocity=0, time=0),
    Message('note_on', channel=12, note=93, velocity=77, time=0),
    Message('note_on', channel=12, note=81, velocity=77, time=0),
    Message('control_change', channel=12, control=7, value=102, time=2),
    Message('control_change', channel=12, control=7, value=103, time=7),
    Message('note_off', channel=12, note=93, velocity=0, time=3),
    Message('note_off', channel=12, note=81, velocity=0, time=0),
    Message('note_on', channel=12, note=94, velocity=79, time=0),
    Message('note_on', channel=12, note=82, velocity=79, time=0),
    Message('control_change', channel=12, control=7, value=104, time=4),
    Message('control_change', channel=12, control=7, value=105, time=7),
    Message('note_off', channel=12, note=94, velocity=0, time=1),
    Message('note_off', channel=12, note=82, velocity=0, time=0),
    Message('note_on', channel=12, note=96, velocity=81, time=0),
    Message('note_on', channel=12, note=84, velocity=81, time=0),
    Message('control_change', channel=12, control=7, value=106, time=7),
    Message('note_off', channel=12, note=84, velocity=0, time=5),
    Message('note_off', channel=12, note=96, velocity=0, time=0),
    Message('note_on', channel=12, note=98, velocity=84, time=0),
    Message('note_on', channel=12, note=86, velocity=84, time=0),
    Message('control_change', channel=12, control=7, value=107, time=2),
    Message('control_change', channel=12, control=7, value=108, time=7),
    Message('note_off', channel=12, note=86, velocity=0, time=7),
    Message('note_off', channel=12, note=98, velocity=0, time=0),
    Message('control_change', channel=12, control=7, value=109, time=0),
    Message('note_on', channel=12, note=99, velocity=88, time=0),
    Message('note_on', channel=12, note=87, velocity=88, time=0),
    Message('control_change', channel=12, control=7, value=110, time=7),
    Message('control_change', channel=12, control=7, value=111, time=8),
    Message('note_off', channel=12, note=87, velocity=0, time=1),
    Message('note_off', channel=12, note=99, velocity=0, time=0),
    Message('note_on', channel=12, note=101, velocity=92, time=0),
    Message('note_on', channel=12, note=89, velocity=92, time=0),
    Message('control_change', channel=12, control=7, value=112, time=6),
    Message('control_change', channel=12, control=7, value=113, time=7),
    Message('note_off', channel=12, note=89, velocity=0, time=3),
    Message('note_off', channel=12, note=101, velocity=0, time=0),
    Message('note_on', channel=12, note=103, velocity=96, time=0),
    Message('note_on', channel=12, note=91, velocity=96, time=0),
    Message('control_change', channel=12, control=7, value=114, time=4),
    Message('control_change', channel=12, control=7, value=115, time=7),
    Message('control_change', channel=12, control=7, value=116, time=8),
    Message('control_change', channel=12, control=7, value=117, time=7),
    Message('control_change', channel=12, control=7, value=118, time=7),
    Message('control_change', channel=12, control=7, value=119, time=7),
    Message('note_off', channel=12, note=91, velocity=0, time=7),
    Message('note_off', channel=12, note=103, velocity=0, time=0),
    Message('control_change', channel=12, control=7, value=120, time=0),
    Message('control_change', channel=12, control=7, value=100, time=625),
    Message('note_on', channel=12, note=93, velocity=75, time=0),
    Message('note_off', channel=12, note=93, velocity=0, time=24),
    Message('note_on', channel=12, note=90, velocity=75, time=0),
    Message('note_off', channel=12, note=90, velocity=0, time=24),
    Message('note_on', channel=12, note=85, velocity=75, time=0),
    Message('note_off', channel=12, note=85, velocity=0, time=24),
    Message('note_on', channel=12, note=81, velocity=75, time=0),
    Message('note_off', channel=12, note=81, velocity=0, time=24),
    Message('note_on', channel=12, note=80, velocity=75, time=0),
    Message('note_off', channel=12, note=80, velocity=0, time=24),
    Message('note_on', channel=12, note=81, velocity=75, time=0),
    Message('note_off', channel=12, note=81, velocity=0, time=24),
    Message('note_on', channel=12, note=85, velocity=75, time=0),
    Message('note_off', channel=12, note=85, velocity=0, time=24),
    Message('note_on', channel=12, note=90, velocity=75, time=0),
    Message('note_off', channel=12, note=90, velocity=0, time=23),
    Message('note_on', channel=12, note=92, velocity=75, time=1),
    Message('note_off', channel=12, note=92, velocity=0, time=24),
    Message('note_on', channel=12, note=90, velocity=75, time=0),
    Message('note_off', channel=12, note=90, velocity=0, time=24),
    Message('note_on', channel=12, note=85, velocity=75, time=0),
    Message('note_off', channel=12, note=85, velocity=0, time=24),
    Message('note_on', channel=12, note=81, velocity=75, time=0),
    Message('note_off', channel=12, note=81, velocity=0, time=24),
    Message('note_on', channel=12, note=78, velocity=75, time=0),
    Message('note_off', channel=12, note=78, velocity=0, time=24),
    Message('note_on', channel=12, note=81, velocity=75, time=0),
    Message('note_off', channel=12, note=81, velocity=0, time=24),
    Message('note_on', channel=12, note=85, velocity=75, time=0),
    Message('note_off', channel=12, note=85, velocity=0, time=24),
    Message('note_on', channel=12, note=90, velocity=75, time=0),
    Message('note_off', channel=12, note=90, velocity=0, time=23),
    Message('note_on', channel=12, note=93, velocity=75, time=1),
    Message('note_off', channel=12, note=93, velocity=0, time=24),
    Message('note_on', channel=12, note=90, velocity=75, time=0),
    Message('note_off', channel=12, note=90, velocity=0, time=24),
    Message('note_on', channel=12, note=85, velocity=75, time=0),
    Message('note_off', channel=12, note=85, velocity=0, time=24),
    Message('note_on', channel=12, note=81, velocity=75, time=0),
    Message('note_off', channel=12, note=81, velocity=0, time=24),
    Message('note_on', channel=12, note=78, velocity=75, time=0),
    Message('note_off', channel=12, note=78, velocity=0, time=24),
    Message('note_on', channel=12, note=81, velocity=75, time=0),
    Message('note_off', channel=12, note=81, velocity=0, time=24),
    Message('note_on', channel=12, note=85, velocity=75, time=0),
    Message('note_off', channel=12, note=85, velocity=0, time=24),
    Message('note_on', channel=12, note=90, velocity=75, time=0),
    Message('note_off', channel=12, note=90, velocity=0, time=23),
    Message('note_on', channel=12, note=93, velocity=75, time=1),
    Message('note_off', channel=12, note=93, velocity=0, time=24),
    Message('note_on', channel=12, note=90, velocity=75, time=0),
    Message('note_off', channel=12, note=90, velocity=0, time=24),
    Message('note_on', channel=12, note=85, velocity=75, time=0),
    Message('note_off', channel=12, note=85, velocity=0, time=24),
    Message('note_on', channel=12, note=81, velocity=75, time=0),
    Message('note_off', channel=12, note=81, velocity=0, time=24),
    Message('note_on', channel=12, note=80, velocity=75, time=0),
    Message('note_off', channel=12, note=80, velocity=0, time=24),
    Message('note_on', channel=12, note=81, velocity=75, time=0),
    Message('note_off', channel=12, note=81, velocity=0, time=24),
    Message('note_on', channel=12, note=84, velocity=75, time=0),
    Message('note_off', channel=12, note=84, velocity=0, time=24),
    Message('note_on', channel=12, note=85, velocity=75, time=0),
    Message('note_off', channel=12, note=85, velocity=0, time=24),
    Message('note_on', channel=12, note=90, velocity=75, time=0),
    Message('note_off', channel=12, note=90, velocity=0, time=47),
    Message('note_on', channel=12, note=95, velocity=75, time=49),
    Message('note_off', channel=12, note=95, velocity=0, time=24),
    Message('note_on', channel=12, note=93, velocity=75, time=0),
    Message('note_off', channel=12, note=93, velocity=0, time=24),
    Message('note_on', channel=12, note=92, velocity=75, time=0),
    Message('note_off', channel=12, note=92, velocity=0, time=24),
    Message('note_on', channel=12, note=93, velocity=75, time=0),
    Message('note_off', channel=12, note=93, velocity=0, time=24),
    Message('note_on', channel=12, note=95, velocity=75, time=0),
    Message('note_off', channel=12, note=95, velocity=0, time=47),
    Message('note_on', channel=12, note=97, velocity=75, time=49),
    Message('note_off', channel=12, note=97, velocity=0, time=24),
    Message('note_on', channel=12, note=95, velocity=75, time=0),
    Message('note_off', channel=12, note=95, velocity=0, time=24),
    Message('note_on', channel=12, note=93, velocity=75, time=0),
    Message('note_off', channel=12, note=93, velocity=0, time=24),
    Message('note_on', channel=12, note=95, velocity=75, time=0),
    Message('note_off', channel=12, note=95, velocity=0, time=24),
    Message('note_on', channel=12, note=97, velocity=75, time=0),
    Message('note_off', channel=12, note=97, velocity=0, time=264),
    Message('control_change', channel=12, control=7, value=90, time=6552),
    Message('note_on', channel=12, note=81, velocity=60, time=0),
    Message('note_off', channel=12, note=81, velocity=0, time=16),
    Message('note_on', channel=12, note=80, velocity=60, time=0),
    Message('note_off', channel=12, note=80, velocity=0, time=16),
    Message('note_on', channel=12, note=81, velocity=60, time=0),
    Message('note_off', channel=12, note=81, velocity=0, time=16),
    Message('note_on', channel=12, note=82, velocity=60, time=0),
    Message('note_off', channel=12, note=82, velocity=0, time=16),
    Message('note_on', channel=12, note=81, velocity=60, time=0),
    Message('note_off', channel=12, note=81, velocity=0, time=16),
    Message('note_on', channel=12, note=80, velocity=60, time=0),
    Message('note_off', channel=12, note=80, velocity=0, time=16),
    Message('note_on', channel=12, note=81, velocity=60, time=0),
    Message('note_off', channel=12, note=81, velocity=0, time=16),
    Message('note_on', channel=12, note=80, velocity=60, time=0),
    Message('note_off', channel=12, note=80, velocity=0, time=16),
    Message('note_on', channel=12, note=81, velocity=60, time=0),
    Message('note_off', channel=12, note=81, velocity=0, time=15),
    Message('note_on', channel=12, note=81, velocity=60, time=1),
    Message('note_off', channel=12, note=81, velocity=0, time=16),
    Message('note_on', channel=12, note=80, velocity=60, time=0),
    Message('note_off', channel=12, note=80, velocity=0, time=16),
    Message('note_on', channel=12, note=81, velocity=60, time=0),
    Message('note_off', channel=12, note=81, velocity=0, time=16),
    Message('note_on', channel=12, note=82, velocity=60, time=0),
    Message('note_off', channel=12, note=82, velocity=0, time=16),
    Message('note_on', channel=12, note=81, velocity=60, time=0),
    Message('note_off', channel=12, note=81, velocity=0, time=16),
    Message('note_on', channel=12, note=80, velocity=60, time=0),
    Message('note_off', channel=12, note=80, velocity=0, time=16),
    Message('note_on', channel=12, note=81, velocity=60, time=0),
    Message('note_off', channel=12, note=81, velocity=0, time=16),
    Message('note_on', channel=12, note=80, velocity=60, time=0),
    Message('note_off', channel=12, note=80, velocity=0, time=16),
    Message('note_on', channel=12, note=81, velocity=60, time=0),
    Message('note_off', channel=12, note=81, velocity=0, time=15),
    Message('note_on', channel=12, note=82, velocity=60, time=1),
    Message('note_off', channel=12, note=82, velocity=0, time=16),
    Message('note_on', channel=12, note=81, velocity=60, time=0),
    Message('note_off', channel=12, note=81, velocity=0, time=16),
    Message('note_on', channel=12, note=82, velocity=60, time=0),
    Message('note_off', channel=12, note=82, velocity=0, time=16),
    Message('note_on', channel=12, note=84, velocity=60, time=0),
    Message('note_off', channel=12, note=84, velocity=0, time=16),
    Message('note_on', channel=12, note=82, velocity=60, time=0),
    Message('note_off', channel=12, note=82, velocity=0, time=16),
    Message('note_on', channel=12, note=81, velocity=60, time=0),
    Message('note_off', channel=12, note=81, velocity=0, time=16),
    Message('note_on', channel=12, note=82, velocity=60, time=0),
    Message('note_off', channel=12, note=82, velocity=0, time=16),
    Message('note_on', channel=12, note=81, velocity=60, time=0),
    Message('note_off', channel=12, note=81, velocity=0, time=16),
    Message('note_on', channel=12, note=82, velocity=60, time=0),
    Message('note_off', channel=12, note=82, velocity=0, time=15),
    Message('note_on', channel=12, note=82, velocity=60, time=1),
    Message('note_off', channel=12, note=82, velocity=0, time=16),
    Message('note_on', channel=12, note=81, velocity=60, time=0),
    Message('note_off', channel=12, note=81, velocity=0, time=16),
    Message('note_on', channel=12, note=82, velocity=60, time=0),
    Message('note_off', channel=12, note=82, velocity=0, time=16),
    Message('note_on', channel=12, note=84, velocity=60, time=0),
    Message('note_off', channel=12, note=84, velocity=0, time=16),
    Message('note_on', channel=12, note=82, velocity=60, time=0),
    Message('note_off', channel=12, note=82, velocity=0, time=16),
    Message('note_on', channel=12, note=81, velocity=60, time=0),
    Message('note_off', channel=12, note=81, velocity=0, time=16),
    Message('note_on', channel=12, note=82, velocity=60, time=0),
    Message('note_off', channel=12, note=82, velocity=0, time=16),
    Message('note_on', channel=12, note=81, velocity=60, time=0),
    Message('note_off', channel=12, note=81, velocity=0, time=16),
    Message('note_on', channel=12, note=82, velocity=60, time=0),
    Message('note_off', channel=12, note=82, velocity=0, time=15),
    Message('note_on', channel=12, note=84, velocity=60, time=1),
    Message('note_off', channel=12, note=84, velocity=0, time=16),
    Message('note_on', channel=12, note=83, velocity=60, time=0),
    Message('note_off', channel=12, note=83, velocity=0, time=16),
    Message('note_on', channel=12, note=84, velocity=60, time=0),
    Message('note_off', channel=12, note=84, velocity=0, time=16),
    Message('note_on', channel=12, note=86, velocity=60, time=0),
    Message('note_off', channel=12, note=86, velocity=0, time=16),
    Message('note_on', channel=12, note=84, velocity=60, time=0),
    Message('note_off', channel=12, note=84, velocity=0, time=16),
    Message('note_on', channel=12, note=83, velocity=60, time=0),
    Message('note_off', channel=12, note=83, velocity=0, time=16),
    Message('note_on', channel=12, note=84, velocity=60, time=0),
    Message('note_off', channel=12, note=84, velocity=0, time=16),
    Message('note_on', channel=12, note=81, velocity=60, time=0),
    Message('note_off', channel=12, note=81, velocity=0, time=16),
    Message('note_on', channel=12, note=76, velocity=60, time=0),
    Message('note_off', channel=12, note=76, velocity=0, time=16),
    Message('note_on', channel=12, note=72, velocity=60, time=0),
    Message('note_off', channel=12, note=72, velocity=0, time=16),
    Message('note_on', channel=12, note=71, velocity=60, time=0),
    Message('note_off', channel=12, note=71, velocity=0, time=16),
    Message('note_on', channel=12, note=72, velocity=60, time=0),
    Message('note_off', channel=12, note=72, velocity=0, time=16),
    Message('note_on', channel=12, note=74, velocity=60, time=0),
    Message('note_off', channel=12, note=74, velocity=0, time=16),
    Message('note_on', channel=12, note=72, velocity=60, time=0),
    Message('note_off', channel=12, note=72, velocity=0, time=16),
    Message('note_on', channel=12, note=74, velocity=60, time=0),
    Message('note_off', channel=12, note=74, velocity=0, time=16),
    Message('note_on', channel=12, note=76, velocity=60, time=0),
    Message('note_off', channel=12, note=76, velocity=0, time=16),
    Message('note_on', channel=12, note=72, velocity=60, time=0),
    Message('note_off', channel=12, note=72, velocity=0, time=16),
    Message('note_on', channel=12, note=71, velocity=60, time=0),
    Message('note_off', channel=12, note=71, velocity=0, time=15),
    Message('note_on', channel=12, note=69, velocity=84, time=1),
    Message('note_off', channel=12, note=69, velocity=0, time=16),
    Message('note_on', channel=12, note=71, velocity=60, time=0),
    Message('note_off', channel=12, note=71, velocity=0, time=16),
    Message('note_on', channel=12, note=72, velocity=60, time=0),
    Message('note_off', channel=12, note=72, velocity=0, time=16),
    Message('note_on', channel=12, note=71, velocity=60, time=0),
    Message('note_off', channel=12, note=71, velocity=0, time=16),
    Message('note_on', channel=12, note=72, velocity=60, time=0),
    Message('note_off', channel=12, note=72, velocity=0, time=16),
    Message('note_on', channel=12, note=74, velocity=60, time=0),
    Message('note_off', channel=12, note=74, velocity=0, time=16),
    Message('note_on', channel=12, note=72, velocity=60, time=0),
    Message('note_off', channel=12, note=72, velocity=0, time=16),
    Message('note_on', channel=12, note=74, velocity=60, time=0),
    Message('note_off', channel=12, note=74, velocity=0, time=16),
    Message('note_on', channel=12, note=76, velocity=60, time=0),
    Message('note_off', channel=12, note=76, velocity=0, time=15),
    Message('note_on', channel=12, note=72, velocity=60, time=1),
    Message('note_off', channel=12, note=72, velocity=0, time=16),
    Message('note_on', channel=12, note=71, velocity=60, time=0),
    Message('note_off', channel=12, note=71, velocity=0, time=16),
    Message('note_on', channel=12, note=72, velocity=60, time=0),
    Message('note_off', channel=12, note=72, velocity=0, time=16),
    Message('note_on', channel=12, note=74, velocity=60, time=0),
    Message('note_off', channel=12, note=74, velocity=0, time=16),
    Message('note_on', channel=12, note=72, velocity=60, time=0),
    Message('note_off', channel=12, note=72, velocity=0, time=16),
    Message('note_on', channel=12, note=74, velocity=60, time=0),
    Message('note_off', channel=12, note=74, velocity=0, time=16),
    Message('note_on', channel=12, note=75, velocity=60, time=0),
    Message('note_off', channel=12, note=75, velocity=0, time=16),
    Message('note_on', channel=12, note=77, velocity=60, time=0),
    Message('note_off', channel=12, note=77, velocity=0, time=16),
    Message('note_on', channel=12, note=79, velocity=60, time=0),
    Message('note_off', channel=12, note=79, velocity=0, time=16),
    Message('note_on', channel=12, note=77, velocity=60, time=0),
    Message('note_off', channel=12, note=77, velocity=0, time=16),
    Message('note_on', channel=12, note=75, velocity=60, time=0),
    Message('note_off', channel=12, note=75, velocity=0, time=16),
    Message('note_on', channel=12, note=74, velocity=60, time=0),
    Message('note_off', channel=12, note=74, velocity=0, time=16),
    Message('note_on', channel=12, note=75, velocity=60, time=0),
    Message('note_off', channel=12, note=75, velocity=0, time=16),
    Message('note_on', channel=12, note=72, velocity=60, time=0),
    Message('note_off', channel=12, note=72, velocity=0, time=16),
    Message('note_on', channel=12, note=67, velocity=60, time=0),
    Message('note_off', channel=12, note=67, velocity=0, time=16),
    Message('note_on', channel=12, note=72, velocity=60, time=0),
    Message('note_off', channel=12, note=72, velocity=0, time=16),
    Message('note_on', channel=12, note=75, velocity=60, time=0),
    Message('note_off', channel=12, note=75, velocity=0, time=16),
    Message('note_on', channel=12, note=79, velocity=60, time=0),
    Message('note_off', channel=12, note=79, velocity=0, time=15),
    Message('note_on', channel=12, note=75, velocity=84, time=1),
    Message('note_off', channel=12, note=75, velocity=0, time=16),
    Message('note_on', channel=12, note=74, velocity=60, time=0),
    Message('note_off', channel=12, note=74, velocity=0, time=16),
    Message('note_on', channel=12, note=75, velocity=60, time=0),
    Message('note_off', channel=12, note=75, velocity=0, time=16),
    Message('note_on', channel=12, note=77, velocity=60, time=0),
    Message('note_off', channel=12, note=77, velocity=0, time=16),
    Message('note_on', channel=12, note=75, velocity=60, time=0),
    Message('note_off', channel=12, note=75, velocity=0, time=16),
    Message('note_on', channel=12, note=77, velocity=60, time=0),
    Message('note_off', channel=12, note=77, velocity=0, time=16),
    Message('note_on', channel=12, note=79, velocity=60, time=0),
    Message('note_off', channel=12, note=79, velocity=0, time=16),
    Message('note_on', channel=12, note=75, velocity=60, time=0),
    Message('note_off', channel=12, note=75, velocity=0, time=16),
    Message('note_on', channel=12, note=67, velocity=60, time=0),
    Message('note_off', channel=12, note=67, velocity=0, time=15),
    Message('note_on', channel=12, note=69, velocity=60, time=1),
    Message('note_off', channel=12, note=69, velocity=0, time=16),
    Message('note_on', channel=12, note=68, velocity=60, time=0),
    Message('note_off', channel=12, note=68, velocity=0, time=16),
    Message('note_on', channel=12, note=69, velocity=60, time=0),
    Message('note_off', channel=12, note=69, velocity=0, time=16),
    Message('note_on', channel=12, note=71, velocity=60, time=0),
    Message('note_off', channel=12, note=71, velocity=0, time=16),
    Message('note_on', channel=12, note=69, velocity=60, time=0),
    Message('note_off', channel=12, note=69, velocity=0, time=16),
    Message('note_on', channel=12, note=71, velocity=60, time=0),
    Message('note_off', channel=12, note=71, velocity=0, time=16),
    Message('note_on', channel=12, note=69, velocity=60, time=0),
    Message('note_off', channel=12, note=69, velocity=0, time=16),
    Message('note_on', channel=12, note=68, velocity=60, time=0),
    Message('note_off', channel=12, note=68, velocity=0, time=16),
    Message('note_on', channel=12, note=69, velocity=60, time=0),
    Message('note_off', channel=12, note=69, velocity=0, time=16),
    Message('note_on', channel=12, note=71, velocity=60, time=0),
    Message('note_off', channel=12, note=71, velocity=0, time=16),
    Message('note_on', channel=12, note=69, velocity=60, time=0),
    Message('note_off', channel=12, note=69, velocity=0, time=16),
    Message('note_on', channel=12, note=71, velocity=60, time=0),
    Message('note_off', channel=12, note=71, velocity=0, time=16),
    Message('note_on', channel=12, note=73, velocity=60, time=0),
    Message('note_off', channel=12, note=73, velocity=0, time=16),
    Message('note_on', channel=12, note=71, velocity=60, time=0),
    Message('note_off', channel=12, note=71, velocity=0, time=16),
    Message('note_on', channel=12, note=69, velocity=60, time=0),
    Message('note_off', channel=12, note=69, velocity=0, time=16),
    Message('note_on', channel=12, note=68, velocity=60, time=0),
    Message('note_off', channel=12, note=68, velocity=0, time=16),
    Message('note_on', channel=12, note=69, velocity=60, time=0),
    Message('note_off', channel=12, note=69, velocity=0, time=16),
    Message('note_on', channel=12, note=71, velocity=60, time=0),
    Message('note_off', channel=12, note=71, velocity=0, time=15),
    Message('note_on', channel=12, note=69, velocity=84, time=1),
    Message('note_off', channel=12, note=69, velocity=0, time=16),
    Message('note_on', channel=12, note=71, velocity=60, time=0),
    Message('note_off', channel=12, note=71, velocity=0, time=16),
    Message('note_on', channel=12, note=73, velocity=60, time=0),
    Message('note_off', channel=12, note=73, velocity=0, time=16),
    Message('note_on', channel=12, note=74, velocity=60, time=0),
    Message('note_off', channel=12, note=74, velocity=0, time=16),
    Message('note_on', channel=12, note=73, velocity=60, time=0),
    Message('note_off', channel=12, note=73, velocity=0, time=16),
    Message('note_on', channel=12, note=71, velocity=60, time=0),
    Message('note_off', channel=12, note=71, velocity=0, time=16),
    Message('note_on', channel=12, note=73, velocity=60, time=0),
    Message('note_off', channel=12, note=73, velocity=0, time=16),
    Message('note_on', channel=12, note=71, velocity=60, time=0),
    Message('note_off', channel=12, note=71, velocity=0, time=16),
    Message('note_on', channel=12, note=69, velocity=60, time=0),
    Message('note_off', channel=12, note=69, velocity=0, time=15),
    Message('note_on', channel=12, note=72, velocity=60, time=1),
    Message('note_off', channel=12, note=72, velocity=0, time=16),
    Message('note_on', channel=12, note=71, velocity=60, time=0),
    Message('note_off', channel=12, note=71, velocity=0, time=16),
    Message('note_on', channel=12, note=72, velocity=60, time=0),
    Message('note_off', channel=12, note=72, velocity=0, time=16),
    Message('note_on', channel=12, note=74, velocity=60, time=0),
    Message('note_off', channel=12, note=74, velocity=0, time=16),
    Message('note_on', channel=12, note=72, velocity=60, time=0),
    Message('note_off', channel=12, note=72, velocity=0, time=16),
    Message('note_on', channel=12, note=74, velocity=60, time=0),
    Message('note_off', channel=12, note=74, velocity=0, time=16),
    Message('note_on', channel=12, note=76, velocity=60, time=0),
    Message('note_off', channel=12, note=76, velocity=0, time=16),
    Message('note_on', channel=12, note=74, velocity=60, time=0),
    Message('note_off', channel=12, note=74, velocity=0, time=16),
    Message('note_on', channel=12, note=72, velocity=60, time=0),
    Message('note_off', channel=12, note=72, velocity=0, time=16),
    Message('note_on', channel=12, note=74, velocity=60, time=0),
    Message('note_off', channel=12, note=74, velocity=0, time=16),
    Message('note_on', channel=12, note=76, velocity=60, time=0),
    Message('note_off', channel=12, note=76, velocity=0, time=16),
    Message('note_on', channel=12, note=81, velocity=60, time=0),
    Message('note_off', channel=12, note=81, velocity=0, time=16),
    Message('note_on', channel=12, note=84, velocity=60, time=0),
    Message('note_off', channel=12, note=84, velocity=0, time=16),
    Message('note_on', channel=12, note=81, velocity=60, time=0),
    Message('note_off', channel=12, note=81, velocity=0, time=16),
    Message('note_on', channel=12, note=76, velocity=60, time=0),
    Message('note_off', channel=12, note=76, velocity=0, time=16),
    Message('note_on', channel=12, note=72, velocity=60, time=0),
    Message('note_off', channel=12, note=72, velocity=0, time=16),
    Message('note_on', channel=12, note=76, velocity=60, time=0),
    Message('note_off', channel=12, note=76, velocity=0, time=16),
    Message('note_on', channel=12, note=81, velocity=60, time=0),
    Message('note_off', channel=12, note=81, velocity=0, time=15),
    Message('note_on', channel=12, note=84, velocity=84, time=1),
    Message('note_off', channel=12, note=84, velocity=0, time=16),
    Message('note_on', channel=12, note=83, velocity=60, time=0),
    Message('note_off', channel=12, note=83, velocity=0, time=16),
    Message('note_on', channel=12, note=84, velocity=60, time=0),
    Message('note_off', channel=12, note=84, velocity=0, time=16),
    Message('note_on', channel=12, note=86, velocity=60, time=0),
    Message('note_off', channel=12, note=86, velocity=0, time=16),
    Message('note_on', channel=12, note=84, velocity=60, time=0),
    Message('note_off', channel=12, note=84, velocity=0, time=16),
    Message('note_on', channel=12, note=83, velocity=60, time=0),
    Message('note_off', channel=12, note=83, velocity=0, time=16),
    Message('note_on', channel=12, note=81, velocity=60, time=0),
    Message('note_off', channel=12, note=81, velocity=0, time=16),
    Message('note_on', channel=12, note=83, velocity=60, time=0),
    Message('note_off', channel=12, note=83, velocity=0, time=16),
    Message('note_on', channel=12, note=84, velocity=60, time=0),
    Message('note_off', channel=12, note=84, velocity=0, time=15),
    Message('note_on', channel=12, note=83, velocity=60, time=1),
    Message('note_off', channel=12, note=83, velocity=0, time=16),
    Message('note_on', channel=12, note=81, velocity=60, time=0),
    Message('note_off', channel=12, note=81, velocity=0, time=16),
    Message('note_on', channel=12, note=83, velocity=60, time=0),
    Message('note_off', channel=12, note=83, velocity=0, time=16),
    Message('note_on', channel=12, note=84, velocity=60, time=0),
    Message('note_off', channel=12, note=84, velocity=0, time=16),
    Message('note_on', channel=12, note=83, velocity=60, time=0),
    Message('note_off', channel=12, note=83, velocity=0, time=16),
    Message('note_on', channel=12, note=84, velocity=60, time=0),
    Message('note_off', channel=12, note=84, velocity=0, time=16),
    Message('note_on', channel=12, note=86, velocity=60, time=0),
    Message('note_off', channel=12, note=86, velocity=0, time=16),
    Message('note_on', channel=12, note=84, velocity=60, time=0),
    Message('note_off', channel=12, note=84, velocity=0, time=16),
    Message('note_on', channel=12, note=86, velocity=60, time=0),
    Message('note_off', channel=12, note=86, velocity=0, time=15),
    Message('note_on', channel=12, note=87, velocity=60, time=1),
    Message('note_off', channel=12, note=87, velocity=0, time=16),
    Message('note_on', channel=12, note=84, velocity=60, time=0),
    Message('note_off', channel=12, note=84, velocity=0, time=16),
    Message('note_on', channel=12, note=83, velocity=60, time=0),
    Message('note_off', channel=12, note=83, velocity=0, time=16),
    Message('note_on', channel=12, note=88, velocity=60, time=0),
    Message('note_off', channel=12, note=88, velocity=0, time=16),
    Message('note_on', channel=12, note=87, velocity=60, time=0),
    Message('note_off', channel=12, note=87, velocity=0, time=16),
    Message('note_on', channel=12, note=88, velocity=60, time=0),
    Message('note_off', channel=12, note=88, velocity=0, time=16),
    Message('note_on', channel=12, note=90, velocity=60, time=0),
    Message('note_off', channel=12, note=90, velocity=0, time=16),
    Message('note_on', channel=12, note=88, velocity=60, time=0),
    Message('note_off', channel=12, note=88, velocity=0, time=16),
    Message('note_on', channel=12, note=90, velocity=60, time=0),
    Message('note_off', channel=12, note=90, velocity=0, time=15),
    Message('note_on', channel=12, note=91, velocity=60, time=1),
    Message('control_change', channel=12, control=7, value=91, time=14),
    Message('note_off', channel=12, note=91, velocity=0, time=2),
    Message('note_on', channel=12, note=90, velocity=61, time=0),
    Message('control_change', channel=12, control=7, value=92, time=12),
    Message('note_off', channel=12, note=90, velocity=0, time=4),
    Message('note_on', channel=12, note=91, velocity=62, time=0),
    Message('control_change', channel=12, control=7, value=93, time=11),
    Message('note_off', channel=12, note=91, velocity=0, time=5),
    Message('note_on', channel=12, note=93, velocity=63, time=0),
    Message('control_change', channel=12, control=7, value=94, time=9),
    Message('note_off', channel=12, note=93, velocity=0, time=7),
    Message('note_on', channel=12, note=91, velocity=64, time=0),
    Message('control_change', channel=12, control=7, value=95, time=7),
    Message('note_off', channel=12, note=91, velocity=0, time=9),
    Message('note_on', channel=12, note=93, velocity=66, time=0),
    Message('control_change', channel=12, control=7, value=96, time=6),
    Message('note_off', channel=12, note=93, velocity=0, time=10),
    Message('note_on', channel=12, note=95, velocity=68, time=0),
    Message('control_change', channel=12, control=7, value=97, time=4),
    Message('note_off', channel=12, note=95, velocity=0, time=12),
    Message('note_on', channel=12, note=93, velocity=70, time=0),
    Message('control_change', channel=12, control=7, value=98, time=3),
    Message('note_off', channel=12, note=93, velocity=0, time=13),
    Message('note_on', channel=12, note=95, velocity=72, time=0),
    Message('control_change', channel=12, control=7, value=99, time=1),
    Message('note_off', channel=12, note=95, velocity=0, time=14),
    Message('control_change', channel=12, control=7, value=100, time=0),
    Message('note_on', channel=12, note=96, velocity=74, time=1),
    Message('control_change', channel=12, control=7, value=101, time=14),
    Message('note_off', channel=12, note=96, velocity=0, time=2),
    Message('note_on', channel=12, note=95, velocity=76, time=0),
    Message('control_change', channel=12, control=7, value=102, time=12),
    Message('note_off', channel=12, note=95, velocity=0, time=4),
    Message('note_on', channel=12, note=96, velocity=78, time=0),
    Message('control_change', channel=12, control=7, value=103, time=11),
    Message('note_off', channel=12, note=96, velocity=0, time=5),
    Message('note_on', channel=12, note=98, velocity=80, time=0),
    Message('control_change', channel=12, control=7, value=104, time=9),
    Message('note_off', channel=12, note=98, velocity=0, time=7),
    Message('note_on', channel=12, note=96, velocity=82, time=0),
    Message('control_change', channel=12, control=7, value=105, time=7),
    Message('note_off', channel=12, note=96, velocity=0, time=9),
    Message('note_on', channel=12, note=98, velocity=84, time=0),
    Message('control_change', channel=12, control=7, value=106, time=6),
    Message('note_off', channel=12, note=98, velocity=0, time=10),
    Message('note_on', channel=12, note=99, velocity=86, time=0),
    Message('control_change', channel=12, control=7, value=107, time=4),
    Message('note_off', channel=12, note=99, velocity=0, time=12),
    Message('note_on', channel=12, note=98, velocity=88, time=0),
    Message('control_change', channel=12, control=7, value=108, time=3),
    Message('note_off', channel=12, note=98, velocity=0, time=13),
    Message('note_on', channel=12, note=99, velocity=90, time=0),
    Message('control_change', channel=12, control=7, value=109, time=1),
    Message('control_change', channel=12, control=7, value=110, time=14),
    Message('note_off', channel=12, note=99, velocity=0, time=1),
    Message('note_on', channel=12, note=100, velocity=92, time=0),
    Message('note_off', channel=12, note=100, velocity=0, time=47),
    Message('note_on', channel=12, note=95, velocity=92, time=385),
    Message('note_on', channel=12, note=83, velocity=92, time=0),
    Message('note_off', channel=12, note=95, velocity=0, time=24),
    Message('note_off', channel=12, note=83, velocity=0, time=0),
    Message('note_on', channel=12, note=94, velocity=92, time=0),
    Message('note_on', channel=12, note=82, velocity=92, time=0),
    Message('note_off', channel=12, note=82, velocity=0, time=23),
    Message('note_off', channel=12, note=94, velocity=0, time=0),
    Message('note_on', channel=12, note=95, velocity=127, time=529),
    Message('note_on', channel=12, note=83, velocity=127, time=0),
    Message('note_off', channel=12, note=95, velocity=0, time=24),
    Message('note_off', channel=12, note=83, velocity=0, time=0),
    Message('note_on', channel=12, note=94, velocity=92, time=0),
    Message('note_on', channel=12, note=82, velocity=92, time=0),
    Message('note_off', channel=12, note=82, velocity=0, time=23),
    Message('note_off', channel=12, note=94, velocity=0, time=0),
    Message('control_change', channel=12, control=7, value=100, time=97),
    Message('note_on', channel=12, note=91, velocity=75, time=0),
    Message('note_off', channel=12, note=91, velocity=0, time=12),
    Message('note_on', channel=12, note=87, velocity=75, time=0),
    Message('note_off', channel=12, note=87, velocity=0, time=12),
    Message('note_on', channel=12, note=84, velocity=75, time=0),
    Message('note_off', channel=12, note=84, velocity=0, time=12),
    Message('note_on', channel=12, note=79, velocity=75, time=0),
    Message('note_off', channel=12, note=79, velocity=0, time=12),
    Message('note_on', channel=12, note=75, velocity=75, time=0),
    Message('note_off', channel=12, note=75, velocity=0, time=16),
    Message('note_on', channel=12, note=72, velocity=75, time=0),
    Message('note_off', channel=12, note=72, velocity=0, time=16),
    Message('note_on', channel=12, note=75, velocity=75, time=0),
    Message('note_off', channel=12, note=75, velocity=0, time=16),
    Message('note_on', channel=12, note=79, velocity=75, time=0),
    Message('note_off', channel=12, note=79, velocity=0, time=16),
    Message('note_on', channel=12, note=84, velocity=75, time=0),
    Message('note_off', channel=12, note=84, velocity=0, time=16),
    Message('note_on', channel=12, note=87, velocity=75, time=0),
    Message('note_off', channel=12, note=87, velocity=0, time=16),
    Message('note_on', channel=12, note=92, velocity=75, time=0),
    Message('note_off', channel=12, note=92, velocity=0, time=12),
    Message('note_on', channel=12, note=91, velocity=75, time=0),
    Message('note_off', channel=12, note=91, velocity=0, time=12),
    Message('note_on', channel=12, note=87, velocity=75, time=0),
    Message('note_off', channel=12, note=87, velocity=0, time=12),
    Message('note_on', channel=12, note=84, velocity=75, time=0),
    Message('note_off', channel=12, note=84, velocity=0, time=12),
    Message('note_on', channel=12, note=79, velocity=75, time=0),
    Message('note_off', channel=12, note=79, velocity=0, time=12),
    Message('note_on', channel=12, note=75, velocity=75, time=0),
    Message('note_off', channel=12, note=75, velocity=0, time=12),
    Message('note_on', channel=12, note=72, velocity=75, time=0),
    Message('note_off', channel=12, note=72, velocity=0, time=12),
    Message('note_on', channel=12, note=75, velocity=75, time=0),
    Message('note_off', channel=12, note=75, velocity=0, time=12),
    Message('note_on', channel=12, note=79, velocity=75, time=0),
    Message('note_off', channel=12, note=79, velocity=0, time=12),
    Message('note_on', channel=12, note=84, velocity=75, time=0),
    Message('note_off', channel=12, note=84, velocity=0, time=12),
    Message('note_on', channel=12, note=87, velocity=75, time=0),
    Message('note_off', channel=12, note=87, velocity=0, time=12),
    Message('note_on', channel=12, note=91, velocity=75, time=0),
    Message('note_off', channel=12, note=91, velocity=0, time=12),
    Message('note_on', channel=12, note=92, velocity=75, time=0),
    Message('note_off', channel=12, note=92, velocity=0, time=16),
    Message('note_on', channel=12, note=91, velocity=75, time=0),
    Message('note_off', channel=12, note=91, velocity=0, time=16),
    Message('note_on', channel=12, note=87, velocity=75, time=0),
    Message('note_off', channel=12, note=87, velocity=0, time=16),
    Message('note_on', channel=12, note=84, velocity=75, time=0),
    Message('note_off', channel=12, note=84, velocity=0, time=12),
    Message('note_on', channel=12, note=79, velocity=75, time=0),
    Message('note_off', channel=12, note=79, velocity=0, time=12),
    Message('note_on', channel=12, note=75, velocity=75, time=0),
    Message('note_off', channel=12, note=75, velocity=0, time=12),
    Message('note_on', channel=12, note=72, velocity=75, time=0),
    Message('note_off', channel=12, note=72, velocity=0, time=12),
    Message('note_on', channel=12, note=75, velocity=75, time=0),
    Message('note_off', channel=12, note=75, velocity=0, time=12),
    Message('note_on', channel=12, note=79, velocity=75, time=0),
    Message('note_off', channel=12, note=79, velocity=0, time=12),
    Message('note_on', channel=12, note=84, velocity=75, time=0),
    Message('note_off', channel=12, note=84, velocity=0, time=12),
    Message('note_on', channel=12, note=87, velocity=75, time=0),
    Message('note_off', channel=12, note=87, velocity=0, time=11),
    Message('note_on', channel=12, note=91, velocity=75, time=1),
    Message('note_off', channel=12, note=91, velocity=0, time=16),
    Message('note_on', channel=12, note=90, velocity=75, time=0),
    Message('note_off', channel=12, note=90, velocity=0, time=16),
    Message('note_on', channel=12, note=87, velocity=75, time=0),
    Message('note_off', channel=12, note=87, velocity=0, time=16),
    Message('note_on', channel=12, note=84, velocity=75, time=0),
    Message('note_off', channel=12, note=84, velocity=0, time=12),
    Message('note_on', channel=12, note=79, velocity=75, time=0),
    Message('note_off', channel=12, note=79, velocity=0, time=12),
    Message('note_on', channel=12, note=75, velocity=75, time=0),
    Message('note_off', channel=12, note=75, velocity=0, time=12),
    Message('note_on', channel=12, note=72, velocity=75, time=0),
    Message('note_off', channel=12, note=72, velocity=0, time=12),
    Message('note_on', channel=12, note=75, velocity=75, time=0),
    Message('note_off', channel=12, note=75, velocity=0, time=12),
    Message('note_on', channel=12, note=79, velocity=75, time=0),
    Message('note_off', channel=12, note=79, velocity=0, time=12),
    Message('note_on', channel=12, note=84, velocity=75, time=0),
    Message('note_off', channel=12, note=84, velocity=0, time=12),
    Message('note_on', channel=12, note=87, velocity=75, time=0),
    Message('note_off', channel=12, note=87, velocity=0, time=12),
    Message('note_on', channel=12, note=91, velocity=75, time=0),
    Message('note_off', channel=12, note=91, velocity=0, time=16),
    Message('note_on', channel=12, note=87, velocity=75, time=0),
    Message('note_off', channel=12, note=87, velocity=0, time=16),
    Message('note_on', channel=12, note=84, velocity=75, time=0),
    Message('note_off', channel=12, note=84, velocity=0, time=16),
    Message('note_on', channel=12, note=79, velocity=75, time=0),
    Message('note_off', channel=12, note=79, velocity=0, time=16),
    Message('note_on', channel=12, note=75, velocity=75, time=0),
    Message('note_off', channel=12, note=75, velocity=0, time=16),
    Message('note_on', channel=12, note=72, velocity=75, time=0),
    Message('note_off', channel=12, note=72, velocity=0, time=16),
    Message('note_on', channel=12, note=75, velocity=75, time=0),
    Message('note_off', channel=12, note=75, velocity=0, time=12),
    Message('note_on', channel=12, note=79, velocity=75, time=0),
    Message('note_off', channel=12, note=79, velocity=0, time=12),
    Message('note_on', channel=12, note=84, velocity=75, time=0),
    Message('note_off', channel=12, note=84, velocity=0, time=12),
    Message('note_on', channel=12, note=87, velocity=75, time=0),
    Message('note_off', channel=12, note=87, velocity=0, time=12),
    Message('note_on', channel=12, note=91, velocity=75, time=0),
    Message('note_off', channel=12, note=91, velocity=0, time=16),
    Message('note_on', channel=12, note=87, velocity=75, time=0),
    Message('note_off', channel=12, note=87, velocity=0, time=16),
    Message('note_on', channel=12, note=83, velocity=75, time=0),
    Message('note_off', channel=12, note=83, velocity=0, time=16),
    Message('note_on', channel=12, note=79, velocity=75, time=0),
    Message('note_off', channel=12, note=79, velocity=0, time=16),
    Message('note_on', channel=12, note=75, velocity=75, time=0),
    Message('note_off', channel=12, note=75, velocity=0, time=16),
    Message('note_on', channel=12, note=71, velocity=75, time=0),
    Message('note_off', channel=12, note=71, velocity=0, time=16),
    Message('note_on', channel=12, note=75, velocity=75, time=0),
    Message('note_off', channel=12, note=75, velocity=0, time=12),
    Message('note_on', channel=12, note=79, velocity=75, time=0),
    Message('note_off', channel=12, note=79, velocity=0, time=12),
    Message('note_on', channel=12, note=83, velocity=75, time=0),
    Message('note_off', channel=12, note=83, velocity=0, time=12),
    Message('note_on', channel=12, note=87, velocity=75, time=0),
    Message('note_off', channel=12, note=87, velocity=0, time=12),
    Message('note_on', channel=12, note=91, velocity=75, time=0),
    Message('note_off', channel=12, note=91, velocity=0, time=16),
    Message('note_on', channel=12, note=87, velocity=75, time=0),
    Message('note_off', channel=12, note=87, velocity=0, time=16),
    Message('note_on', channel=12, note=84, velocity=75, time=0),
    Message('note_off', channel=12, note=84, velocity=0, time=16),
    Message('note_on', channel=12, note=79, velocity=75, time=0),
    Message('note_off', channel=12, note=79, velocity=0, time=16),
    Message('note_on', channel=12, note=75, velocity=75, time=0),
    Message('note_off', channel=12, note=75, velocity=0, time=16),
    Message('note_on', channel=12, note=72, velocity=75, time=0),
    Message('note_off', channel=12, note=72, velocity=0, time=16),
    Message('note_on', channel=12, note=75, velocity=75, time=0),
    Message('note_off', channel=12, note=75, velocity=0, time=12),
    Message('note_on', channel=12, note=79, velocity=75, time=0),
    Message('note_off', channel=12, note=79, velocity=0, time=12),
    Message('note_on', channel=12, note=84, velocity=75, time=0),
    Message('note_off', channel=12, note=84, velocity=0, time=12),
    Message('note_on', channel=12, note=87, velocity=75, time=0),
    Message('note_off', channel=12, note=87, velocity=0, time=12),
    Message('note_on', channel=12, note=92, velocity=75, time=0),
    Message('note_off', channel=12, note=92, velocity=0, time=16),
    Message('note_on', channel=12, note=91, velocity=75, time=0),
    Message('note_off', channel=12, note=91, velocity=0, time=16),
    Message('note_on', channel=12, note=87, velocity=75, time=0),
    Message('note_off', channel=12, note=87, velocity=0, time=16),
    Message('note_on', channel=12, note=84, velocity=75, time=0),
    Message('note_off', channel=12, note=84, velocity=0, time=12),
    Message('note_on', channel=12, note=79, velocity=75, time=0),
    Message('note_off', channel=12, note=79, velocity=0, time=12),
    Message('note_on', channel=12, note=75, velocity=75, time=0),
    Message('note_off', channel=12, note=75, velocity=0, time=12),
    Message('note_on', channel=12, note=72, velocity=75, time=0),
    Message('note_off', channel=12, note=72, velocity=0, time=12),
    Message('note_on', channel=12, note=75, velocity=75, time=0),
    Message('note_off', channel=12, note=75, velocity=0, time=12),
    Message('note_on', channel=12, note=79, velocity=75, time=0),
    Message('note_off', channel=12, note=79, velocity=0, time=12),
    Message('note_on', channel=12, note=84, velocity=75, time=0),
    Message('note_off', channel=12, note=84, velocity=0, time=12),
    Message('note_on', channel=12, note=87, velocity=75, time=0),
    Message('note_off', channel=12, note=87, velocity=0, time=12),
    Message('note_on', channel=12, note=91, velocity=75, time=0),
    Message('note_off', channel=12, note=91, velocity=0, time=16),
    Message('note_on', channel=12, note=87, velocity=75, time=0),
    Message('note_off', channel=12, note=87, velocity=0, time=16),
    Message('note_on', channel=12, note=84, velocity=75, time=0),
    Message('note_off', channel=12, note=84, velocity=0, time=16),
    Message('note_on', channel=12, note=79, velocity=75, time=0),
    Message('note_off', channel=12, note=79, velocity=0, time=16),
    Message('note_on', channel=12, note=75, velocity=75, time=0),
    Message('note_off', channel=12, note=75, velocity=0, time=16),
    Message('note_on', channel=12, note=72, velocity=75, time=0),
    Message('note_off', channel=12, note=72, velocity=0, time=16),
    Message('note_on', channel=12, note=75, velocity=75, time=0),
    Message('note_off', channel=12, note=75, velocity=0, time=12),
    Message('note_on', channel=12, note=79, velocity=75, time=0),
    Message('note_off', channel=12, note=79, velocity=0, time=12),
    Message('note_on', channel=12, note=84, velocity=75, time=0),
    Message('note_off', channel=12, note=84, velocity=0, time=12),
    Message('note_on', channel=12, note=87, velocity=75, time=0),
    Message('note_off', channel=12, note=87, velocity=0, time=12),
    Message('note_on', channel=12, note=92, velocity=75, time=0),
    Message('note_off', channel=12, note=92, velocity=0, time=16),
    Message('note_on', channel=12, note=91, velocity=75, time=0),
    Message('note_off', channel=12, note=91, velocity=0, time=16),
    Message('note_on', channel=12, note=87, velocity=75, time=0),
    Message('note_off', channel=12, note=87, velocity=0, time=16),
    Message('note_on', channel=12, note=84, velocity=75, time=0),
    Message('note_off', channel=12, note=84, velocity=0, time=16),
    Message('note_on', channel=12, note=79, velocity=75, time=0),
    Message('note_off', channel=12, note=79, velocity=0, time=16),
    Message('note_on', channel=12, note=75, velocity=75, time=0),
    Message('note_off', channel=12, note=75, velocity=0, time=16),
    Message('note_on', channel=12, note=79, velocity=75, time=0),
    Message('note_off', channel=12, note=79, velocity=0, time=12),
    Message('note_on', channel=12, note=84, velocity=75, time=0),
    Message('note_off', channel=12, note=84, velocity=0, time=12),
    Message('note_on', channel=12, note=87, velocity=75, time=0),
    Message('note_off', channel=12, note=87, velocity=0, time=12),
    Message('note_on', channel=12, note=91, velocity=75, time=0),
    Message('note_off', channel=12, note=91, velocity=0, time=12),
    Message('note_on', channel=12, note=94, velocity=105, time=0),
    Message('note_on', channel=12, note=82, velocity=105, time=0),
    Message('note_off', channel=12, note=94, velocity=0, time=80),
    Message('note_off', channel=12, note=82, velocity=0, time=0),
    Message('note_on', channel=12, note=93, velocity=75, time=16),
    Message('note_on', channel=12, note=81, velocity=75, time=0),
    Message('note_off', channel=12, note=93, velocity=0, time=47),
    Message('note_off', channel=12, note=81, velocity=0, time=0),
    Message('note_on', channel=12, note=92, velocity=75, time=1),
    Message('note_on', channel=12, note=80, velocity=75, time=0),
    Message('note_off', channel=12, note=92, velocity=0, time=80),
    Message('note_off', channel=12, note=80, velocity=0, time=0),
    Message('note_on', channel=12, note=85, velocity=75, time=16),
    Message('note_on', channel=12, note=73, velocity=75, time=0),
    Message('note_off', channel=12, note=85, velocity=0, time=47),
    Message('note_off', channel=12, note=73, velocity=0, time=0),
    Message('note_on', channel=12, note=97, velocity=105, time=1),
    Message('note_on', channel=12, note=85, velocity=105, time=0),
    Message('note_off', channel=12, note=97, velocity=0, time=80),
    Message('note_off', channel=12, note=85, velocity=0, time=0),
    Message('note_on', channel=12, note=96, velocity=75, time=16),
    Message('note_on', channel=12, note=84, velocity=75, time=0),
    Message('note_off', channel=12, note=84, velocity=0, time=47),
    Message('note_off', channel=12, note=96, velocity=0, time=0),
    Message('note_on', channel=12, note=95, velocity=75, time=1),
    Message('note_on', channel=12, note=83, velocity=75, time=0),
    Message('note_off', channel=12, note=95, velocity=0, time=80),
    Message('note_off', channel=12, note=83, velocity=0, time=0),
    Message('note_on', channel=12, note=91, velocity=75, time=16),
    Message('note_on', channel=12, note=79, velocity=75, time=0),
    Message('note_off', channel=12, note=91, velocity=0, time=47),
    Message('note_off', channel=12, note=79, velocity=0, time=0),
    Message('note_on', channel=12, note=104, velocity=75, time=1),
    Message('note_on', channel=12, note=100, velocity=75, time=0),
    Message('note_on', channel=12, note=92, velocity=75, time=0),
    Message('note_on', channel=12, note=88, velocity=75, time=0),
    Message('note_off', channel=12, note=104, velocity=0, time=47),
    Message('note_off', channel=12, note=100, velocity=0, time=0),
    Message('note_off', channel=12, note=92, velocity=0, time=0),
    Message('note_off', channel=12, note=88, velocity=0, time=0),
    Message('note_on', channel=12, note=91, velocity=75, time=49),
    Message('note_on', channel=12, note=79, velocity=75, time=0),
    Message('note_on', channel=12, note=76, velocity=75, time=0),
    Message('note_off', channel=12, note=91, velocity=0, time=47),
    Message('note_off', channel=12, note=79, velocity=0, time=0),
    Message('note_off', channel=12, note=76, velocity=0, time=0),
    Message('note_on', channel=12, note=104, velocity=75, time=1),
    Message('note_on', channel=12, note=100, velocity=75, time=0),
    Message('note_on', channel=12, note=92, velocity=75, time=0),
    Message('note_on', channel=12, note=88, velocity=75, time=0),
    Message('note_off', channel=12, note=104, velocity=0, time=47),
    Message('note_off', channel=12, note=100, velocity=0, time=0),
    Message('note_off', channel=12, note=92, velocity=0, time=0),
    Message('note_off', channel=12, note=88, velocity=0, time=0),
    Message('note_on', channel=12, note=91, velocity=75, time=49),
    Message('note_on', channel=12, note=79, velocity=75, time=0),
    Message('note_on', channel=12, note=76, velocity=75, time=0),
    Message('note_off', channel=12, note=91, velocity=0, time=47),
    Message('note_off', channel=12, note=79, velocity=0, time=0),
    Message('note_off', channel=12, note=76, velocity=0, time=0),
    Message('note_on', channel=12, note=104, velocity=75, time=1),
    Message('note_on', channel=12, note=100, velocity=75, time=0),
    Message('note_on', channel=12, note=92, velocity=75, time=0),
    Message('note_on', channel=12, note=88, velocity=75, time=0),
    Message('note_off', channel=12, note=104, velocity=0, time=47),
    Message('note_off', channel=12, note=100, velocity=0, time=0),
    Message('note_off', channel=12, note=92, velocity=0, time=0),
    Message('note_off', channel=12, note=88, velocity=0, time=0),
    Message('note_on', channel=12, note=91, velocity=75, time=49),
    Message('note_on', channel=12, note=79, velocity=75, time=0),
    Message('note_on', channel=12, note=76, velocity=75, time=0),
    Message('note_off', channel=12, note=91, velocity=0, time=47),
    Message('note_off', channel=12, note=79, velocity=0, time=0),
    Message('note_off', channel=12, note=76, velocity=0, time=0),
    Message('note_on', channel=12, note=104, velocity=75, time=1),
    Message('note_on', channel=12, note=100, velocity=75, time=0),
    Message('note_on', channel=12, note=92, velocity=75, time=0),
    Message('note_on', channel=12, note=88, velocity=75, time=0),
    Message('note_off', channel=12, note=104, velocity=0, time=47),
    Message('note_off', channel=12, note=100, velocity=0, time=0),
    Message('note_off', channel=12, note=92, velocity=0, time=0),
    Message('note_off', channel=12, note=88, velocity=0, time=0),
    Message('note_on', channel=12, note=91, velocity=75, time=49),
    Message('note_on', channel=12, note=79, velocity=75, time=0),
    Message('note_on', channel=12, note=76, velocity=75, time=0),
    Message('note_off', channel=12, note=91, velocity=0, time=47),
    Message('note_off', channel=12, note=79, velocity=0, time=0),
    Message('note_off', channel=12, note=76, velocity=0, time=0),
    Message('control_change', channel=12, control=7, value=110, time=1),
    Message('note_on', channel=12, note=84, velocity=92, time=0),
    Message('note_off', channel=12, note=84, velocity=0, time=16),
    Message('note_on', channel=12, note=92, velocity=92, time=0),
    Message('note_off', channel=12, note=92, velocity=0, time=16),
    Message('note_on', channel=12, note=91, velocity=92, time=0),
    Message('note_off', channel=12, note=91, velocity=0, time=16),
    Message('note_on', channel=12, note=90, velocity=92, time=0),
    Message('note_off', channel=12, note=90, velocity=0, time=16),
    Message('note_on', channel=12, note=87, velocity=92, time=0),
    Message('note_off', channel=12, note=87, velocity=0, time=16),
    Message('note_on', channel=12, note=79, velocity=92, time=0),
    Message('note_off', channel=12, note=79, velocity=0, time=16),
    Message('note_on', channel=12, note=84, velocity=92, time=0),
    Message('note_off', channel=12, note=84, velocity=0, time=16),
    Message('note_on', channel=12, note=92, velocity=92, time=0),
    Message('note_off', channel=12, note=92, velocity=0, time=16),
    Message('note_on', channel=12, note=91, velocity=92, time=0),
    Message('note_off', channel=12, note=91, velocity=0, time=15),
    Message('note_on', channel=12, note=90, velocity=92, time=1),
    Message('note_off', channel=12, note=90, velocity=0, time=16),
    Message('note_on', channel=12, note=87, velocity=92, time=0),
    Message('note_off', channel=12, note=87, velocity=0, time=16),
    Message('note_on', channel=12, note=79, velocity=92, time=0),
    Message('note_off', channel=12, note=79, velocity=0, time=16),
    Message('note_on', channel=12, note=84, velocity=92, time=0),
    Message('note_off', channel=12, note=84, velocity=0, time=16),
    Message('note_on', channel=12, note=92, velocity=92, time=0),
    Message('note_off', channel=12, note=92, velocity=0, time=16),
    Message('note_on', channel=12, note=91, velocity=92, time=0),
    Message('note_off', channel=12, note=91, velocity=0, time=16),
    Message('note_on', channel=12, note=90, velocity=92, time=0),
    Message('note_off', channel=12, note=90, velocity=0, time=16),
    Message('note_on', channel=12, note=87, velocity=92, time=0),
    Message('note_off', channel=12, note=87, velocity=0, time=16),
    Message('note_on', channel=12, note=79, velocity=92, time=0),
    Message('note_off', channel=12, note=79, velocity=0, time=15),
    Message('note_on', channel=12, note=78, velocity=92, time=1),
    Message('note_off', channel=12, note=78, velocity=0, time=15),
    Message('note_on', channel=12, note=82, velocity=92, time=1),
    Message('note_off', channel=12, note=82, velocity=0, time=15),
    Message('note_on', channel=12, note=87, velocity=92, time=1),
    Message('note_off', channel=12, note=87, velocity=0, time=15),
    Message('note_on', channel=12, note=91, velocity=92, time=1),
    Message('note_off', channel=12, note=91, velocity=0, time=224),
    Message('control_change', channel=12, control=7, value=120, time=160),
    Message('note_on', channel=12, note=79, velocity=108, time=0),
    Message('note_off', channel=12, note=79, velocity=0, time=16),
    Message('control_change', channel=12, control=7, value=90, time=0),
    Message('note_on', channel=12, note=78, velocity=60, time=0),
    Message('note_off', channel=12, note=78, velocity=0, time=16),
    Message('note_on', channel=12, note=79, velocity=60, time=0),
    Message('note_off', channel=12, note=79, velocity=0, time=16),
    Message('note_on', channel=12, note=80, velocity=60, time=0),
    Message('note_off', channel=12, note=80, velocity=0, time=16),
    Message('note_on', channel=12, note=79, velocity=60, time=0),
    Message('note_off', channel=12, note=79, velocity=0, time=16),
    Message('note_on', channel=12, note=78, velocity=60, time=0),
    Message('note_off', channel=12, note=78, velocity=0, time=16),
    Message('note_on', channel=12, note=73, velocity=60, time=0),
    Message('note_off', channel=12, note=73, velocity=0, time=16),
    Message('note_on', channel=12, note=77, velocity=60, time=0),
    Message('note_off', channel=12, note=77, velocity=0, time=16),
    Message('note_on', channel=12, note=78, velocity=60, time=0),
    Message('note_off', channel=12, note=78, velocity=0, time=15),
    Message('note_on', channel=12, note=79, velocity=60, time=1),
    Message('note_off', channel=12, note=79, velocity=0, time=16),
    Message('note_on', channel=12, note=78, velocity=60, time=0),
    Message('note_off', channel=12, note=78, velocity=0, time=16),
    Message('note_on', channel=12, note=79, velocity=60, time=0),
    Message('note_off', channel=12, note=79, velocity=0, time=16),
    Message('note_on', channel=12, note=80, velocity=60, time=0),
    Message('note_off', channel=12, note=80, velocity=0, time=16),
    Message('note_on', channel=12, note=79, velocity=60, time=0),
    Message('note_off', channel=12, note=79, velocity=0, time=16),
    Message('note_on', channel=12, note=78, velocity=60, time=0),
    Message('note_off', channel=12, note=78, velocity=0, time=16),
    Message('note_on', channel=12, note=73, velocity=60, time=0),
    Message('note_off', channel=12, note=73, velocity=0, time=16),
    Message('note_on', channel=12, note=77, velocity=60, time=0),
    Message('note_off', channel=12, note=77, velocity=0, time=16),
    Message('note_on', channel=12, note=78, velocity=60, time=0),
    Message('note_off', channel=12, note=78, velocity=0, time=15),
    Message('note_on', channel=12, note=79, velocity=60, time=1),
    Message('note_off', channel=12, note=79, velocity=0, time=16),
    Message('note_on', channel=12, note=78, velocity=60, time=0),
    Message('note_off', channel=12, note=78, velocity=0, time=16),
    Message('note_on', channel=12, note=79, velocity=60, time=0),
    Message('note_off', channel=12, note=79, velocity=0, time=16),
    Message('note_on', channel=12, note=80, velocity=60, time=0),
    Message('note_off', channel=12, note=80, velocity=0, time=16),
    Message('note_on', channel=12, note=79, velocity=60, time=0),
    Message('note_off', channel=12, note=79, velocity=0, time=16),
    Message('note_on', channel=12, note=78, velocity=60, time=0),
    Message('note_off', channel=12, note=78, velocity=0, time=16),
    Message('note_on', channel=12, note=73, velocity=60, time=0),
    Message('note_off', channel=12, note=73, velocity=0, time=16),
    Message('note_on', channel=12, note=77, velocity=60, time=0),
    Message('note_off', channel=12, note=77, velocity=0, time=16),
    Message('note_on', channel=12, note=78, velocity=60, time=0),
    Message('note_off', channel=12, note=78, velocity=0, time=15),
    Message('note_on', channel=12, note=79, velocity=60, time=1),
    Message('note_off', channel=12, note=79, velocity=0, time=16),
    Message('note_on', channel=12, note=78, velocity=60, time=0),
    Message('note_off', channel=12, note=78, velocity=0, time=16),
    Message('note_on', channel=12, note=79, velocity=60, time=0),
    Message('note_off', channel=12, note=79, velocity=0, time=16),
    Message('note_on', channel=12, note=80, velocity=60, time=0),
    Message('note_off', channel=12, note=80, velocity=0, time=16),
    Message('note_on', channel=12, note=79, velocity=60, time=0),
    Message('note_off', channel=12, note=79, velocity=0, time=16),
    Message('note_on', channel=12, note=78, velocity=60, time=0),
    Message('note_off', channel=12, note=78, velocity=0, time=16),
    Message('note_on', channel=12, note=73, velocity=60, time=0),
    Message('note_off', channel=12, note=73, velocity=0, time=16),
    Message('note_on', channel=12, note=77, velocity=60, time=0),
    Message('note_off', channel=12, note=77, velocity=0, time=16),
    Message('note_on', channel=12, note=78, velocity=60, time=0),
    Message('note_off', channel=12, note=78, velocity=0, time=15),
    Message('note_on', channel=12, note=79, velocity=60, time=1),
    Message('note_off', channel=12, note=79, velocity=0, time=16),
    Message('note_on', channel=12, note=78, velocity=60, time=0),
    Message('note_off', channel=12, note=78, velocity=0, time=16),
    Message('note_on', channel=12, note=79, velocity=60, time=0),
    Message('note_off', channel=12, note=79, velocity=0, time=16),
    Message('note_on', channel=12, note=80, velocity=60, time=0),
    Message('note_off', channel=12, note=80, velocity=0, time=16),
    Message('note_on', channel=12, note=79, velocity=60, time=0),
    Message('note_off', channel=12, note=79, velocity=0, time=16),
    Message('note_on', channel=12, note=78, velocity=60, time=0),
    Message('note_off', channel=12, note=78, velocity=0, time=16),
    Message('note_on', channel=12, note=73, velocity=60, time=0),
    Message('note_off', channel=12, note=73, velocity=0, time=16),
    Message('note_on', channel=12, note=77, velocity=60, time=0),
    Message('note_off', channel=12, note=77, velocity=0, time=16),
    Message('note_on', channel=12, note=78, velocity=60, time=0),
    Message('note_off', channel=12, note=78, velocity=0, time=15),
    Message('note_on', channel=12, note=78, velocity=60, time=1),
    Message('note_off', channel=12, note=78, velocity=0, time=16),
    Message('note_on', channel=12, note=77, velocity=60, time=0),
    Message('note_off', channel=12, note=77, velocity=0, time=16),
    Message('note_on', channel=12, note=78, velocity=60, time=0),
    Message('note_off', channel=12, note=78, velocity=0, time=16),
    Message('note_on', channel=12, note=82, velocity=60, time=0),
    Message('note_off', channel=12, note=82, velocity=0, time=16),
    Message('note_on', channel=12, note=81, velocity=60, time=0),
    Message('note_off', channel=12, note=81, velocity=0, time=16),
    Message('note_on', channel=12, note=82, velocity=60, time=0),
    Message('note_off', channel=12, note=82, velocity=0, time=16),
    Message('note_on', channel=12, note=87, velocity=60, time=0),
    Message('note_off', channel=12, note=87, velocity=0, time=16),
    Message('note_on', channel=12, note=86, velocity=60, time=0),
    Message('note_off', channel=12, note=86, velocity=0, time=16),
    Message('note_on', channel=12, note=87, velocity=60, time=0),
    Message('note_off', channel=12, note=87, velocity=0, time=15),
    Message('note_on', channel=12, note=82, velocity=60, time=1),
    Message('note_off', channel=12, note=82, velocity=0, time=16),
    Message('note_on', channel=12, note=81, velocity=60, time=0),
    Message('note_off', channel=12, note=81, velocity=0, time=16),
    Message('note_on', channel=12, note=82, velocity=60, time=0),
    Message('note_off', channel=12, note=82, velocity=0, time=16),
    Message('note_on', channel=12, note=87, velocity=60, time=0),
    Message('note_off', channel=12, note=87, velocity=0, time=16),
    Message('note_on', channel=12, note=86, velocity=60, time=0),
    Message('note_off', channel=12, note=86, velocity=0, time=16),
    Message('note_on', channel=12, note=87, velocity=60, time=0),
    Message('note_off', channel=12, note=87, velocity=0, time=16),
    Message('note_on', channel=12, note=90, velocity=60, time=0),
    Message('note_off', channel=12, note=90, velocity=0, time=16),
    Message('note_on', channel=12, note=89, velocity=60, time=0),
    Message('note_off', channel=12, note=89, velocity=0, time=16),
    Message('note_on', channel=12, note=90, velocity=60, time=0),
    Message('note_off', channel=12, note=90, velocity=0, time=15),
    Message('note_on', channel=12, note=87, velocity=60, time=1),
    Message('note_off', channel=12, note=87, velocity=0, time=16),
    Message('note_on', channel=12, note=86, velocity=60, time=0),
    Message('note_off', channel=12, note=86, velocity=0, time=16),
    Message('note_on', channel=12, note=87, velocity=60, time=0),
    Message('note_off', channel=12, note=87, velocity=0, time=16),
    Message('note_on', channel=12, note=90, velocity=60, time=0),
    Message('note_off', channel=12, note=90, velocity=0, time=16),
    Message('note_on', channel=12, note=89, velocity=60, time=0),
    Message('note_off', channel=12, note=89, velocity=0, time=16),
    Message('note_on', channel=12, note=90, velocity=60, time=0),
    Message('note_off', channel=12, note=90, velocity=0, time=16),
    Message('note_on', channel=12, note=94, velocity=60, time=0),
    Message('note_off', channel=12, note=94, velocity=0, time=16),
    Message('note_on', channel=12, note=93, velocity=60, time=0),
    Message('note_off', channel=12, note=93, velocity=0, time=16),
    Message('note_on', channel=12, note=94, velocity=60, time=0),
    Message('note_off', channel=12, note=94, velocity=0, time=15),
    Message('note_on', channel=12, note=78, velocity=60, time=1),
    Message('note_on', channel=12, note=66, velocity=60, time=0),
    Message('note_off', channel=12, note=78, velocity=0, time=15),
    Message('note_off', channel=12, note=66, velocity=0, time=0),
    Message('note_on', channel=12, note=82, velocity=60, time=1),
    Message('note_on', channel=12, note=70, velocity=60, time=0),
    Message('note_off', channel=12, note=82, velocity=0, time=15),
    Message('note_off', channel=12, note=70, velocity=0, time=0),
    Message('note_on', channel=12, note=87, velocity=60, time=1),
    Message('note_on', channel=12, note=75, velocity=60, time=0),
    Message('note_off', channel=12, note=87, velocity=0, time=15),
    Message('note_off', channel=12, note=75, velocity=0, time=0),
    Message('note_on', channel=12, note=90, velocity=60, time=1),
    Message('note_on', channel=12, note=78, velocity=60, time=0),
    Message('note_off', channel=12, note=90, velocity=0, time=360),
    Message('note_off', channel=12, note=78, velocity=0, time=0),
    Message('note_on', channel=12, note=96, velocity=84, time=24),
    Message('note_on', channel=12, note=84, velocity=84, time=0),
    Message('note_off', channel=12, note=96, velocity=0, time=47),
    Message('note_off', channel=12, note=84, velocity=0, time=0),
    Message('control_change', channel=12, control=101, value=0, time=1249),
    Message('control_change', channel=12, control=100, value=0, time=0),
    Message('control_change', channel=12, control=6, value=12, time=0),
    Message('control_change', channel=12, control=10, value=64, time=0),
    Message('control_change', channel=12, control=7, value=90, time=0),
    Message('pitchwheel', channel=12, pitch=0, time=0),
    Message('program_change', channel=12, program=8, time=0),
    Message('program_change', channel=12, program=8, time=0),
    Message('control_change', channel=12, control=7, value=100, time=0),
    Message('control_change', channel=12, control=10, value=64, time=0),
    Message('control_change', channel=12, control=101, value=0, time=1),
    Message('control_change', channel=12, control=100, value=0, time=0),
    Message('control_change', channel=12, control=6, value=12, time=0),
    Message('control_change', channel=12, control=10, value=64, time=0),
    Message('control_change', channel=12, control=7, value=90, time=0),
    Message('pitchwheel', channel=12, pitch=0, time=0),
    Message('program_change', channel=12, program=8, time=0),
    MetaMessage('end_of_track', time=0)]),
  MidiTrack([
    MetaMessage('track_name', name='Piano #1', time=0),
    Message('control_change', channel=12, control=10, value=64, time=0),
    Message('control_change', channel=12, control=7, value=127, time=0),
    Message('pitchwheel', channel=12, pitch=0, time=0),
    Message('control_change', channel=12, control=101, value=0, time=0),
    Message('control_change', channel=12, control=100, value=0, time=0),
    Message('control_change', channel=12, control=6, value=12, time=0),
    Message('control_change', channel=12, control=10, value=64, time=0),
    Message('control_change', channel=12, control=7, value=127, time=0),
    Message('pitchwheel', channel=12, pitch=0, time=0),
    Message('program_change', channel=12, program=0, time=0),
    Message('control_change', channel=12, control=7, value=127, time=0),
    Message('control_change', channel=12, control=10, value=64, time=0),
    Message('control_change', channel=12, control=101, value=0, time=0),
    Message('control_change', channel=12, control=100, value=0, time=0),
    Message('control_change', channel=12, control=6, value=12, time=0),
    Message('control_change', channel=12, control=10, value=64, time=0),
    Message('control_change', channel=12, control=7, value=127, time=0),
    Message('pitchwheel', channel=12, pitch=0, time=0),
    Message('program_change', channel=12, program=0, time=0),
    Message('control_change', channel=12, control=7, value=127, time=0),
    Message('control_change', channel=12, control=10, value=64, time=0),
    Message('control_change', channel=12, control=101, value=0, time=0),
    Message('control_change', channel=12, control=100, value=0, time=0),
    Message('control_change', channel=12, control=6, value=12, time=0),
    Message('control_change', channel=12, control=10, value=64, time=0),
    Message('control_change', channel=12, control=7, value=127, time=0),
    Message('pitchwheel', channel=12, pitch=0, time=0),
    Message('program_change', channel=12, program=0, time=0),
    Message('control_change', channel=12, control=7, value=90, time=48),
    Message('note_on', channel=12, note=76, velocity=60, time=0),
    Message('note_off', channel=12, note=76, velocity=0, time=128),
    Message('note_on', channel=12, note=76, velocity=60, time=16),
    Message('note_off', channel=12, note=76, velocity=0, time=128),
    Message('note_on', channel=12, note=76, velocity=60, time=16),
    Message('note_off', channel=12, note=76, velocity=0, time=128),
    Message('note_on', channel=12, note=76, velocity=60, time=16),
    Message('note_off', channel=12, note=76, velocity=0, time=128),
    Message('note_on', channel=12, note=76, velocity=60, time=16),
    Message('note_off', channel=12, note=76, velocity=0, time=128),
    Message('note_on', channel=12, note=82, velocity=60, time=16),
    Message('note_off', channel=12, note=82, velocity=0, time=80),
    Message('note_on', channel=12, note=71, velocity=60, time=16),
    Message('note_off', channel=12, note=71, velocity=0, time=47),
    Message('note_on', channel=12, note=76, velocity=60, time=1),
    Message('note_off', channel=12, note=76, velocity=0, time=80),
    Message('note_on', channel=12, note=79, velocity=60, time=16),
    Message('note_off', channel=12, note=79, velocity=0, time=47),
    Message('note_on', channel=12, note=83, velocity=60, time=1),
    Message('note_off', channel=12, note=83, velocity=0, time=80),
    Message('note_on', channel=12, note=71, velocity=60, time=16),
    Message('note_off', channel=12, note=71, velocity=0, time=47),
    Message('note_on', channel=12, note=76, velocity=60, time=1),
    Message('note_off', channel=12, note=76, velocity=0, time=128),
    Message('note_on', channel=12, note=76, velocity=60, time=16),
    Message('note_off', channel=12, note=76, velocity=0, time=80),
    Message('note_on', channel=12, note=74, velocity=60, time=40),
    Message('note_on', channel=12, note=79, velocity=60, time=6),
    Message('note_on', channel=12, note=82, velocity=60, time=6),
    Message('note_on', channel=12, note=86, velocity=60, time=4),
    Message('note_on', channel=12, note=91, velocity=60, time=4),
    Message('note_off', channel=12, note=91, velocity=0, time=84),
    Message('note_off', channel=12, note=74, velocity=0, time=0),
    Message('note_off', channel=12, note=79, velocity=0, time=0),
    Message('note_off', channel=12, note=82, velocity=0, time=0),
    Message('note_off', channel=12, note=86, velocity=0, time=0),
    Message('note_on', channel=12, note=72, velocity=60, time=40),
    Message('note_on', channel=12, note=77, velocity=60, time=6),
    Message('note_on', channel=12, note=80, velocity=60, time=6),
    Message('note_on', channel=12, note=84, velocity=60, time=4),
    Message('note_on', channel=12, note=89, velocity=60, time=4),
    Message('note_off', channel=12, note=89, velocity=0, time=84),
    Message('note_off', channel=12, note=72, velocity=0, time=0),
    Message('note_off', channel=12, note=77, velocity=0, time=0),
    Message('note_off', channel=12, note=80, velocity=0, time=0),
    Message('note_off', channel=12, note=84, velocity=0, time=0),
    Message('note_on', channel=12, note=72, velocity=60, time=40),
    Message('note_on', channel=12, note=76, velocity=60, time=6),
    Message('note_on', channel=12, note=81, velocity=60, time=6),
    Message('note_on', channel=12, note=84, velocity=60, time=4),
    Message('note_on', channel=12, note=88, velocity=60, time=4),
    Message('note_off', channel=12, note=88, velocity=0, time=132),
    Message('note_off', channel=12, note=72, velocity=0, time=0),
    Message('note_off', channel=12, note=76, velocity=0, time=0),
    Message('note_off', channel=12, note=81, velocity=0, time=0),
    Message('note_off', channel=12, note=84, velocity=0, time=0),
    Message('note_on', channel=12, note=78, velocity=60, time=16),
    Message('note_on', channel=12, note=76, velocity=60, time=0),
    Message('note_on', channel=12, note=73, velocity=60, time=0),
    Message('note_off', channel=12, note=78, velocity=0, time=128),
    Message('note_off', channel=12, note=76, velocity=0, time=0),
    Message('note_off', channel=12, note=73, velocity=0, time=0),
    Message('note_on', channel=12, note=76, velocity=60, time=16),
    Message('note_off', channel=12, note=76, velocity=0, time=96),
    Message('note_on', channel=12, note=79, velocity=60, time=0),
    Message('note_off', channel=12, note=79, velocity=0, time=47),
    Message('note_on', channel=12, note=83, velocity=60, time=1),
    Message('note_off', channel=12, note=83, velocity=0, time=96),
    Message('note_on', channel=12, note=71, velocity=60, time=0),
    Message('note_off', channel=12, note=71, velocity=0, time=47),
    Message('note_on', channel=12, note=76, velocity=60, time=1),
    Message('note_off', channel=12, note=76, velocity=0, time=96),
    Message('note_on', channel=12, note=79, velocity=60, time=0),
    Message('note_off', channel=12, note=79, velocity=0, time=47),
    Message('note_on', channel=12, note=83, velocity=60, time=1),
    Message('note_off', channel=12, note=83, velocity=0, time=96),
    Message('note_on', channel=12, note=71, velocity=60, time=0),
    Message('note_off', channel=12, note=71, velocity=0, time=47),
    Message('note_on', channel=12, note=76, velocity=60, time=1),
    Message('note_off', channel=12, note=76, velocity=0, time=96),
    Message('note_on', channel=12, note=79, velocity=60, time=0),
    Message('note_off', channel=12, note=79, velocity=0, time=47),
    Message('note_on', channel=12, note=84, velocity=60, time=1),
    Message('note_off', channel=12, note=84, velocity=0, time=96),
    Message('note_on', channel=12, note=71, velocity=60, time=0),
    Message('note_off', channel=12, note=71, velocity=0, time=47),
    Message('note_on', channel=12, note=76, velocity=60, time=1),
    Message('note_off', channel=12, note=76, velocity=0, time=96),
    Message('note_on', channel=12, note=79, velocity=60, time=0),
    Message('note_off', channel=12, note=79, velocity=0, time=47),
    Message('note_on', channel=12, note=72, velocity=60, time=1),
    Message('note_off', channel=12, note=72, velocity=0, time=96),
    Message('note_on', channel=12, note=79, velocity=60, time=0),
    Message('note_off', channel=12, note=79, velocity=0, time=47),
    Message('note_on', channel=12, note=76, velocity=60, time=1),
    Message('note_off', channel=12, note=76, velocity=0, time=96),
    Message('note_on', channel=12, note=79, velocity=60, time=0),
    Message('note_off', channel=12, note=79, velocity=0, time=47),
    Message('note_on', channel=12, note=83, velocity=60, time=1),
    Message('note_off', channel=12, note=83, velocity=0, time=96),
    Message('note_on', channel=12, note=71, velocity=60, time=0),
    Message('note_off', channel=12, note=71, velocity=0, time=47),
    Message('note_on', channel=12, note=76, velocity=60, time=1),
    Message('note_off', channel=12, note=76, velocity=0, time=96),
    Message('note_on', channel=12, note=79, velocity=60, time=0),
    Message('note_off', channel=12, note=79, velocity=0, time=47),
    Message('note_on', channel=12, note=83, velocity=60, time=1),
    Message('note_off', channel=12, note=83, velocity=0, time=96),
    Message('note_on', channel=12, note=71, velocity=60, time=0),
    Message('note_off', channel=12, note=71, velocity=0, time=23),
    Message('note_on', channel=12, note=74, velocity=60, time=1),
    Message('note_on', channel=12, note=79, velocity=60, time=6),
    Message('note_on', channel=12, note=82, velocity=60, time=6),
    Message('note_on', channel=12, note=86, velocity=60, time=4),
    Message('note_on', channel=12, note=91, velocity=60, time=4),
    Message('note_off', channel=12, note=91, velocity=0, time=84),
    Message('note_off', channel=12, note=74, velocity=0, time=0),
    Message('note_off', channel=12, note=79, velocity=0, time=0),
    Message('note_off', channel=12, note=82, velocity=0, time=0),
    Message('note_off', channel=12, note=86, velocity=0, time=0),
    Message('note_on', channel=12, note=72, velocity=60, time=40),
    Message('note_on', channel=12, note=77, velocity=60, time=6),
    Message('note_on', channel=12, note=80, velocity=60, time=6),
    Message('note_on', channel=12, note=84, velocity=60, time=4),
    Message('note_on', channel=12, note=89, velocity=60, time=4),
    Message('note_off', channel=12, note=89, velocity=0, time=84),
    Message('note_off', channel=12, note=72, velocity=0, time=0),
    Message('note_off', channel=12, note=77, velocity=0, time=0),
    Message('note_off', channel=12, note=80, velocity=0, time=0),
    Message('note_off', channel=12, note=84, velocity=0, time=0),
    Message('note_on', channel=12, note=71, velocity=60, time=40),
    Message('note_on', channel=12, note=76, velocity=60, time=6),
    Message('note_on', channel=12, note=79, velocity=60, time=6),
    Message('note_on', channel=12, note=83, velocity=60, time=4),
    Message('note_on', channel=12, note=88, velocity=60, time=4),
    Message('note_off', channel=12, note=88, velocity=0, time=132),
    Message('note_off', channel=12, note=71, velocity=0, time=0),
    Message('note_off', channel=12, note=76, velocity=0, time=0),
    Message('note_off', channel=12, note=79, velocity=0, time=0),
    Message('note_off', channel=12, note=83, velocity=0, time=0),
    Message('note_on', channel=12, note=78, velocity=60, time=16),
    Message('note_on', channel=12, note=76, velocity=60, time=0),
    Message('note_on', channel=12, note=73, velocity=60, time=0),
    Message('note_off', channel=12, note=78, velocity=0, time=128),
    Message('note_off', channel=12, note=76, velocity=0, time=0),
    Message('note_off', channel=12, note=73, velocity=0, time=0),
    Message('note_on', channel=12, note=76, velocity=60, time=16),
    Message('note_off', channel=12, note=76, velocity=0, time=96),
    Message('note_on', channel=12, note=79, velocity=60, time=0),
    Message('note_off', channel=12, note=79, velocity=0, time=47),
    Message('note_on', channel=12, note=83, velocity=60, time=1),
    Message('note_off', channel=12, note=83, velocity=0, time=96),
    Message('note_on', channel=12, note=71, velocity=60, time=0),
    Message('note_off', channel=12, note=71, velocity=0, time=47),
    Message('note_on', channel=12, note=76, velocity=60, time=1),
    Message('note_off', channel=12, note=76, velocity=0, time=96),
    Message('note_on', channel=12, note=79, velocity=60, time=0),
    Message('note_off', channel=12, note=79, velocity=0, time=47),
    Message('note_on', channel=12, note=83, velocity=60, time=1),
    Message('note_off', channel=12, note=83, velocity=0, time=96),
    Message('note_on', channel=12, note=71, velocity=60, time=0),
    Message('note_off', channel=12, note=71, velocity=0, time=47),
    Message('control_change', channel=12, control=101, value=0, time=54337),
    Message('control_change', channel=12, control=100, value=0, time=0),
    Message('control_change', channel=12, control=6, value=12, time=0),
    Message('control_change', channel=12, control=10, value=64, time=0),
    Message('control_change', channel=12, control=7, value=90, time=0),
    Message('pitchwheel', channel=12, pitch=0, time=0),
    Message('program_change', channel=12, program=0, time=0),
    Message('control_change', channel=12, control=7, value=127, time=0),
    Message('control_change', channel=12, control=10, value=64, time=0),
    Message('control_change', channel=12, control=101, value=0, time=1),
    Message('control_change', channel=12, control=100, value=0, time=0),
    Message('control_change', channel=12, control=6, value=12, time=0),
    Message('control_change', channel=12, control=10, value=64, time=0),
    Message('control_change', channel=12, control=7, value=90, time=0),
    Message('pitchwheel', channel=12, pitch=0, time=0),
    Message('program_change', channel=12, program=0, time=0),
    MetaMessage('end_of_track', time=0)]),
  MidiTrack([
    MetaMessage('track_name', name='Violin', time=0),
    Message('control_change', channel=13, control=10, value=64, time=0),
    Message('control_change', channel=13, control=7, value=127, time=0),
    Message('pitchwheel', channel=13, pitch=0, time=0),
    Message('control_change', channel=13, control=101, value=0, time=0),
    Message('control_change', channel=13, control=100, value=0, time=0),
    Message('control_change', channel=13, control=6, value=12, time=0),
    Message('control_change', channel=13, control=10, value=64, time=0),
    Message('control_change', channel=13, control=7, value=127, time=0),
    Message('pitchwheel', channel=13, pitch=0, time=0),
    Message('program_change', channel=13, program=40, time=0),
    Message('program_change', channel=13, program=40, time=0),
    Message('control_change', channel=13, control=7, value=127, time=0),
    Message('control_change', channel=13, control=10, value=64, time=0),
    Message('control_change', channel=13, control=101, value=0, time=0),
    Message('control_change', channel=13, control=100, value=0, time=0),
    Message('control_change', channel=13, control=6, value=12, time=0),
    Message('control_change', channel=13, control=10, value=64, time=0),
    Message('control_change', channel=13, control=7, value=127, time=0),
    Message('pitchwheel', channel=13, pitch=0, time=0),
    Message('program_change', channel=13, program=40, time=0),
    Message('program_change', channel=13, program=40, time=0),
    Message('control_change', channel=13, control=7, value=127, time=0),
    Message('control_change', channel=13, control=10, value=64, time=0),
    Message('control_change', channel=13, control=101, value=0, time=0),
    Message('control_change', channel=13, control=100, value=0, time=0),
    Message('control_change', channel=13, control=6, value=12, time=0),
    Message('control_change', channel=13, control=10, value=64, time=0),
    Message('control_change', channel=13, control=7, value=127, time=0),
    Message('pitchwheel', channel=13, pitch=0, time=0),
    Message('program_change', channel=13, program=40, time=0),
    Message('control_change', channel=13, control=7, value=90, time=2352),
    Message('note_on', channel=13, note=64, velocity=30, time=0),
    Message('note_on', channel=13, note=67, velocity=30, time=12),
    Message('note_off', channel=13, note=64, velocity=0, time=12),
    Message('note_on', channel=13, note=64, velocity=30, time=0),
    Message('note_off', channel=13, note=67, velocity=0, time=12),
    Message('note_on', channel=13, note=67, velocity=30, time=0),
    Message('note_off', channel=13, note=64, velocity=0, time=12),
    Message('note_on', channel=13, note=64, velocity=30, time=0),
    Message('note_off', channel=13, note=67, velocity=0, time=12),
    Message('note_on', channel=13, note=67, velocity=30, time=0),
    Message('note_off', channel=13, note=64, velocity=0, time=12),
    Message('note_on', channel=13, note=64, velocity=30, time=0),
    Message('note_off', channel=13, note=67, velocity=0, time=12),
    Message('note_on', channel=13, note=67, velocity=30, time=0),
    Message('note_off', channel=13, note=64, velocity=0, time=12),
    Message('note_on', channel=13, note=64, velocity=30, time=0),
    Message('note_off', channel=13, note=67, velocity=0, time=12),
    Message('note_on', channel=13, note=67, velocity=30, time=0),
    Message('note_off', channel=13, note=64, velocity=0, time=12),
    Message('note_on', channel=13, note=64, velocity=30, time=0),
    Message('note_off', channel=13, note=67, velocity=0, time=12),
    Message('note_on', channel=13, note=67, velocity=30, time=0),
    Message('note_off', channel=13, note=64, velocity=0, time=12),
    Message('note_off', channel=13, note=67, velocity=0, time=0),
    Message('note_on', channel=13, note=64, velocity=30, time=0),
    Message('note_on', channel=13, note=67, velocity=30, time=12),
    Message('note_off', channel=13, note=64, velocity=0, time=12),
    Message('note_on', channel=13, note=64, velocity=30, time=0),
    Message('note_off', channel=13, note=67, velocity=0, time=12),
    Message('note_on', channel=13, note=67, velocity=30, time=0),
    Message('note_off', channel=13, note=64, velocity=0, time=12),
    Message('note_on', channel=13, note=64, velocity=30, time=0),
    Message('note_off', channel=13, note=67, velocity=0, time=12),
    Message('note_on', channel=13, note=67, velocity=30, time=0),
    Message('note_off', channel=13, note=64, velocity=0, time=12),
    Message('note_on', channel=13, note=64, velocity=30, time=0),
    Message('note_off', channel=13, note=67, velocity=0, time=12),
    Message('note_on', channel=13, note=67, velocity=30, time=0),
    Message('note_off', channel=13, note=64, velocity=0, time=12),
    Message('note_on', channel=13, note=64, velocity=30, time=0),
    Message('note_off', channel=13, note=67, velocity=0, time=12),
    Message('note_on', channel=13, note=67, velocity=30, time=0),
    Message('note_off', channel=13, note=64, velocity=0, time=12),
    Message('note_on', channel=13, note=64, velocity=30, time=0),
    Message('note_off', channel=13, note=67, velocity=0, time=12),
    Message('note_on', channel=13, note=67, velocity=30, time=0),
    Message('note_off', channel=13, note=67, velocity=0, time=12),
    Message('note_off', channel=13, note=64, velocity=0, time=0),
    Message('note_on', channel=13, note=64, velocity=30, time=0),
    Message('note_on', channel=13, note=67, velocity=30, time=12),
    Message('note_off', channel=13, note=64, velocity=0, time=12),
    Message('note_on', channel=13, note=64, velocity=30, time=0),
    Message('note_off', channel=13, note=67, velocity=0, time=12),
    Message('note_on', channel=13, note=67, velocity=30, time=0),
    Message('note_off', channel=13, note=64, velocity=0, time=12),
    Message('note_on', channel=13, note=64, velocity=30, time=0),
    Message('note_off', channel=13, note=67, velocity=0, time=12),
    Message('note_on', channel=13, note=67, velocity=30, time=0),
    Message('note_off', channel=13, note=64, velocity=0, time=12),
    Message('note_on', channel=13, note=64, velocity=30, time=0),
    Message('note_off', channel=13, note=67, velocity=0, time=12),
    Message('note_on', channel=13, note=67, velocity=30, time=0),
    Message('note_off', channel=13, note=64, velocity=0, time=12),
    Message('note_on', channel=13, note=64, velocity=30, time=0),
    Message('note_off', channel=13, note=67, velocity=0, time=12),
    Message('note_on', channel=13, note=67, velocity=30, time=0),
    Message('note_off', channel=13, note=64, velocity=0, time=12),
    Message('note_on', channel=13, note=64, velocity=30, time=0),
    Message('note_off', channel=13, note=67, velocity=0, time=12),
    Message('note_on', channel=13, note=67, velocity=30, time=0),
    Message('note_off', channel=13, note=67, velocity=0, time=12),
    Message('note_off', channel=13, note=64, velocity=0, time=0),
    Message('note_on', channel=13, note=64, velocity=30, time=0),
    Message('note_off', channel=13, note=64, velocity=0, time=48),
    Message('note_on', channel=13, note=64, velocity=30, time=0),
    Message('note_off', channel=13, note=64, velocity=0, time=12),
    Message('note_on', channel=13, note=66, velocity=30, time=0),
    Message('note_off', channel=13, note=66, velocity=0, time=12),
    Message('note_on', channel=13, note=67, velocity=30, time=0),
    Message('note_off', channel=13, note=67, velocity=0, time=12),
    Message('note_on', channel=13, note=69, velocity=30, time=0),
    Message('note_off', channel=13, note=69, velocity=0, time=12),
    Message('note_on', channel=13, note=70, velocity=30, time=0),
    Message('note_off', channel=13, note=70, velocity=0, time=12),
    Message('note_on', channel=13, note=69, velocity=30, time=0),
    Message('note_off', channel=13, note=69, velocity=0, time=12),
    Message('note_on', channel=13, note=67, velocity=30, time=0),
    Message('note_off', channel=13, note=67, velocity=0, time=12),
    Message('note_on', channel=13, note=66, velocity=30, time=0),
    Message('note_off', channel=13, note=66, velocity=0, time=11),
    Message('note_on', channel=13, note=64, velocity=30, time=1),
    Message('note_on', channel=13, note=67, velocity=30, time=12),
    Message('note_off', channel=13, note=64, velocity=0, time=12),
    Message('note_on', channel=13, note=64, velocity=30, time=0),
    Message('note_off', channel=13, note=67, velocity=0, time=12),
    Message('note_on', channel=13, note=67, velocity=30, time=0),
    Message('note_off', channel=13, note=64, velocity=0, time=12),
    Message('note_on', channel=13, note=64, velocity=30, time=0),
    Message('note_off', channel=13, note=67, velocity=0, time=12),
    Message('note_on', channel=13, note=67, velocity=30, time=0),
    Message('note_off', channel=13, note=64, velocity=0, time=12),
    Message('note_on', channel=13, note=64, velocity=30, time=0),
    Message('note_off', channel=13, note=67, velocity=0, time=12),
    Message('note_on', channel=13, note=67, velocity=30, time=0),
    Message('note_off', channel=13, note=64, velocity=0, time=12),
    Message('note_on', channel=13, note=64, velocity=30, time=0),
    Message('note_off', channel=13, note=67, velocity=0, time=12),
    Message('note_on', channel=13, note=67, velocity=30, time=0),
    Message('note_off', channel=13, note=64, velocity=0, time=12),
    Message('note_on', channel=13, note=64, velocity=30, time=0),
    Message('note_off', channel=13, note=67, velocity=0, time=12),
    Message('note_on', channel=13, note=67, velocity=30, time=0),
    Message('note_off', channel=13, note=64, velocity=0, time=12),
    Message('note_off', channel=13, note=67, velocity=0, time=0),
    Message('note_on', channel=13, note=64, velocity=30, time=0),
    Message('note_on', channel=13, note=67, velocity=30, time=12),
    Message('note_off', channel=13, note=64, velocity=0, time=12),
    Message('note_on', channel=13, note=64, velocity=30, time=0),
    Message('note_off', channel=13, note=67, velocity=0, time=12),
    Message('note_on', channel=13, note=67, velocity=30, time=0),
    Message('note_off', channel=13, note=64, velocity=0, time=12),
    Message('note_on', channel=13, note=64, velocity=30, time=0),
    Message('note_off', channel=13, note=67, velocity=0, time=12),
    Message('note_on', channel=13, note=67, velocity=30, time=0),
    Message('note_off', channel=13, note=64, velocity=0, time=12),
    Message('note_on', channel=13, note=64, velocity=30, time=0),
    Message('note_off', channel=13, note=67, velocity=0, time=12),
    Message('note_on', channel=13, note=67, velocity=30, time=0),
    Message('note_off', channel=13, note=64, velocity=0, time=12),
    Message('note_on', channel=13, note=64, velocity=30, time=0),
    Message('note_off', channel=13, note=67, velocity=0, time=12),
    Message('note_on', channel=13, note=67, velocity=30, time=0),
    Message('note_off', channel=13, note=64, velocity=0, time=12),
    Message('note_on', channel=13, note=64, velocity=30, time=0),
    Message('note_off', channel=13, note=67, velocity=0, time=12),
    Message('note_on', channel=13, note=67, velocity=30, time=0),
    Message('note_off', channel=13, note=67, velocity=0, time=12),
    Message('note_off', channel=13, note=64, velocity=0, time=0),
    Message('note_on', channel=13, note=64, velocity=30, time=0),
    Message('note_off', channel=13, note=64, velocity=0, time=47),
    Message('note_on', channel=13, note=64, velocity=30, time=1),
    Message('note_off', channel=13, note=64, velocity=0, time=12),
    Message('note_on', channel=13, note=66, velocity=30, time=0),
    Message('note_off', channel=13, note=66, velocity=0, time=12),
    Message('note_on', channel=13, note=67, velocity=30, time=0),
    Message('note_off', channel=13, note=67, velocity=0, time=12),
    Message('note_on', channel=13, note=69, velocity=30, time=0),
    Message('note_off', channel=13, note=69, velocity=0, time=12),
    Message('note_on', channel=13, note=71, velocity=30, time=0),
    Message('note_off', channel=13, note=71, velocity=0, time=12),
    Message('note_on', channel=13, note=69, velocity=30, time=0),
    Message('note_off', channel=13, note=69, velocity=0, time=12),
    Message('note_on', channel=13, note=67, velocity=30, time=0),
    Message('note_off', channel=13, note=67, velocity=0, time=12),
    Message('note_on', channel=13, note=66, velocity=30, time=0),
    Message('note_off', channel=13, note=66, velocity=0, time=12),
    Message('note_on', channel=13, note=64, velocity=30, time=0),
    Message('note_off', channel=13, note=64, velocity=0, time=48),
    Message('note_on', channel=13, note=64, velocity=30, time=0),
    Message('note_off', channel=13, note=64, velocity=0, time=12),
    Message('note_on', channel=13, note=66, velocity=30, time=0),
    Message('note_off', channel=13, note=66, velocity=0, time=12),
    Message('note_on', channel=13, note=67, velocity=30, time=0),
    Message('note_off', channel=13, note=67, velocity=0, time=12),
    Message('note_on', channel=13, note=69, velocity=30, time=0),
    Message('note_off', channel=13, note=69, velocity=0, time=12),
    Message('note_on', channel=13, note=71, velocity=30, time=0),
    Message('note_off', channel=13, note=71, velocity=0, time=12),
    Message('note_on', channel=13, note=69, velocity=30, time=0),
    Message('note_off', channel=13, note=69, velocity=0, time=12),
    Message('note_on', channel=13, note=67, velocity=30, time=0),
    Message('note_off', channel=13, note=67, velocity=0, time=12),
    Message('note_on', channel=13, note=66, velocity=30, time=0),
    Message('note_off', channel=13, note=66, velocity=0, time=12),
    Message('note_on', channel=13, note=64, velocity=30, time=0),
    Message('control_change', channel=13, control=7, value=89, time=5),
    Message('control_change', channel=13, control=7, value=88, time=6),
    Message('control_change', channel=13, control=7, value=87, time=6),
    Message('control_change', channel=13, control=7, value=86, time=6),
    Message('control_change', channel=13, control=7, value=85, time=5),
    Message('control_change', channel=13, control=7, value=84, time=6),
    Message('control_change', channel=13, control=7, value=83, time=6),
    Message('control_change', channel=13, control=7, value=82, time=6),
    Message('control_change', channel=13, control=7, value=81, time=5),
    Message('control_change', channel=13, control=7, value=80, time=6),
    Message('control_change', channel=13, control=7, value=79, time=6),
    Message('control_change', channel=13, control=7, value=78, time=6),
    Message('control_change', channel=13, control=7, value=77, time=5),
    Message('control_change', channel=13, control=7, value=76, time=6),
    Message('control_change', channel=13, control=7, value=75, time=6),
    Message('control_change', channel=13, control=7, value=74, time=6),
    Message('control_change', channel=13, control=7, value=73, time=5),
    Message('control_change', channel=13, control=7, value=72, time=6),
    Message('control_change', channel=13, control=7, value=71, time=6),
    Message('control_change', channel=13, control=7, value=70, time=6),
    Message('control_change', channel=13, control=7, value=69, time=5),
    Message('control_change', channel=13, control=7, value=68, time=6),
    Message('control_change', channel=13, control=7, value=67, time=6),
    Message('control_change', channel=13, control=7, value=66, time=6),
    Message('control_change', channel=13, control=7, value=65, time=6),
    Message('control_change', channel=13, control=7, value=64, time=5),
    Message('control_change', channel=13, control=7, value=63, time=6),
    Message('control_change', channel=13, control=7, value=62, time=6),
    Message('control_change', channel=13, control=7, value=61, time=6),
    Message('control_change', channel=13, control=7, value=60, time=5),
    Message('control_change', channel=13, control=7, value=59, time=6),
    Message('control_change', channel=13, control=7, value=58, time=6),
    Message('control_change', channel=13, control=7, value=57, time=6),
    Message('control_change', channel=13, control=7, value=56, time=5),
    Message('control_change', channel=13, control=7, value=55, time=6),
    Message('control_change', channel=13, control=7, value=54, time=6),
    Message('control_change', channel=13, control=7, value=53, time=6),
    Message('control_change', channel=13, control=7, value=52, time=5),
    Message('control_change', channel=13, control=7, value=51, time=6),
    Message('control_change', channel=13, control=7, value=50, time=6),
    Message('control_change', channel=13, control=7, value=49, time=6),
    Message('control_change', channel=13, control=7, value=48, time=5),
    Message('control_change', channel=13, control=7, value=47, time=6),
    Message('control_change', channel=13, control=7, value=46, time=6),
    Message('control_change', channel=13, control=7, value=45, time=6),
    Message('control_change', channel=13, control=7, value=44, time=5),
    Message('control_change', channel=13, control=7, value=43, time=6),
    Message('control_change', channel=13, control=7, value=42, time=6),
    Message('control_change', channel=13, control=7, value=41, time=6),
    Message('control_change', channel=13, control=7, value=40, time=6),
    Message('note_off', channel=13, note=64, velocity=0, time=47),
    Message('control_change', channel=13, control=7, value=80, time=1105),
    Message('note_on', channel=13, note=64, velocity=45, time=0),
    Message('note_off', channel=13, note=64, velocity=0, time=12),
    Message('note_on', channel=13, note=63, velocity=46, time=0),
    Message('control_change', channel=13, control=7, value=81, time=2),
    Message('note_off', channel=13, note=63, velocity=0, time=10),
    Message('note_on', channel=13, note=64, velocity=47, time=0),
    Message('control_change', channel=13, control=7, value=82, time=4),
    Message('note_off', channel=13, note=64, velocity=0, time=8),
    Message('note_on', channel=13, note=66, velocity=48, time=0),
    Message('control_change', channel=13, control=7, value=83, time=7),
    Message('note_off', channel=13, note=66, velocity=0, time=5),
    Message('note_on', channel=13, note=67, velocity=49, time=0),
    Message('control_change', channel=13, control=7, value=84, time=9),
    Message('note_off', channel=13, note=67, velocity=0, time=3),
    Message('note_on', channel=13, note=69, velocity=50, time=0),
    Message('control_change', channel=13, control=7, value=85, time=11),
    Message('note_off', channel=13, note=69, velocity=0, time=1),
    Message('note_on', channel=13, note=71, velocity=51, time=0),
    Message('note_off', channel=13, note=71, velocity=0, time=12),
    Message('note_on', channel=13, note=72, velocity=52, time=0),
    Message('control_change', channel=13, control=7, value=86, time=2),
    Message('note_off', channel=13, note=72, velocity=0, time=10),
    Message('note_on', channel=13, note=75, velocity=53, time=0),
    Message('control_change', channel=13, control=7, value=87, time=4),
    Message('note_off', channel=13, note=75, velocity=0, time=8),
    Message('note_on', channel=13, note=76, velocity=54, time=0),
    Message('control_change', channel=13, control=7, value=88, time=7),
    Message('note_off', channel=13, note=76, velocity=0, time=5),
    Message('note_on', channel=13, note=78, velocity=56, time=0),
    Message('control_change', channel=13, control=7, value=89, time=9),
    Message('note_off', channel=13, note=78, velocity=0, time=3),
    Message('note_on', channel=13, note=79, velocity=58, time=0),
    Message('control_change', channel=13, control=7, value=90, time=11),
    Message('note_off', channel=13, note=79, velocity=0, time=1),
    Message('note_on', channel=13, note=81, velocity=84, time=0),
    Message('note_off', channel=13, note=81, velocity=0, time=12),
    Message('note_on', channel=13, note=82, velocity=59, time=0),
    Message('control_change', channel=13, control=7, value=89, time=2),
    Message('note_off', channel=13, note=82, velocity=0, time=10),
    Message('note_on', channel=13, note=81, velocity=58, time=0),
    Message('control_change', channel=13, control=7, value=88, time=4),
    Message('note_off', channel=13, note=81, velocity=0, time=8),
    Message('note_on', channel=13, note=79, velocity=57, time=0),
    Message('control_change', channel=13, control=7, value=87, time=7),
    Message('note_off', channel=13, note=79, velocity=0, time=5),
    Message('note_on', channel=13, note=78, velocity=56, time=0),
    Message('control_change', channel=13, control=7, value=86, time=9),
    Message('note_off', channel=13, note=78, velocity=0, time=3),
    Message('note_on', channel=13, note=76, velocity=55, time=0),
    Message('control_change', channel=13, control=7, value=85, time=11),
    Message('note_off', channel=13, note=76, velocity=0, time=1),
    Message('note_on', channel=13, note=75, velocity=54, time=0),
    Message('note_off', channel=13, note=75, velocity=0, time=12),
    Message('note_on', channel=13, note=72, velocity=53, time=0),
    Message('control_change', channel=13, control=7, value=84, time=2),
    Message('note_off', channel=13, note=72, velocity=0, time=10),
    Message('note_on', channel=13, note=71, velocity=52, time=0),
    Message('control_change', channel=13, control=7, value=83, time=4),
    Message('note_off', channel=13, note=71, velocity=0, time=8),
    Message('note_on', channel=13, note=69, velocity=51, time=0),
    Message('control_change', channel=13, control=7, value=82, time=7),
    Message('note_off', channel=13, note=69, velocity=0, time=5),
    Message('note_on', channel=13, note=67, velocity=49, time=0),
    Message('control_change', channel=13, control=7, value=81, time=9),
    Message('note_off', channel=13, note=67, velocity=0, time=3),
    Message('note_on', channel=13, note=66, velocity=47, time=0),
    Message('note_off', channel=13, note=66, velocity=0, time=11),
    Message('control_change', channel=13, control=7, value=80, time=0),
    Message('note_on', channel=13, note=64, velocity=45, time=1),
    Message('note_off', channel=13, note=64, velocity=0, time=12),
    Message('note_on', channel=13, note=66, velocity=46, time=0),
    Message('control_change', channel=13, control=7, value=81, time=2),
    Message('note_off', channel=13, note=66, velocity=0, time=10),
    Message('note_on', channel=13, note=67, velocity=47, time=0),
    Message('control_change', channel=13, control=7, value=82, time=4),
    Message('note_off', channel=13, note=67, velocity=0, time=8),
    Message('note_on', channel=13, note=69, velocity=48, time=0),
    Message('control_change', channel=13, control=7, value=83, time=7),
    Message('note_off', channel=13, note=69, velocity=0, time=5),
    Message('note_on', channel=13, note=71, velocity=49, time=0),
    Message('control_change', channel=13, control=7, value=84, time=9),
    Message('note_off', channel=13, note=71, velocity=0, time=3),
    Message('note_on', channel=13, note=72, velocity=50, time=0),
    Message('control_change', channel=13, control=7, value=85, time=11),
    Message('note_off', channel=13, note=72, velocity=0, time=1),
    Message('note_on', channel=13, note=75, velocity=51, time=0),
    Message('note_off', channel=13, note=75, velocity=0, time=12),
    Message('note_on', channel=13, note=76, velocity=52, time=0),
    Message('control_change', channel=13, control=7, value=86, time=2),
    Message('note_off', channel=13, note=76, velocity=0, time=10),
    Message('note_on', channel=13, note=78, velocity=53, time=0),
    Message('control_change', channel=13, control=7, value=87, time=4),
    Message('note_off', channel=13, note=78, velocity=0, time=8),
    Message('note_on', channel=13, note=79, velocity=54, time=0),
    Message('control_change', channel=13, control=7, value=88, time=7),
    Message('note_off', channel=13, note=79, velocity=0, time=5),
    Message('note_on', channel=13, note=81, velocity=56, time=0),
    Message('control_change', channel=13, control=7, value=89, time=9),
    Message('note_off', channel=13, note=81, velocity=0, time=3),
    Message('note_on', channel=13, note=83, velocity=58, time=0),
    Message('control_change', channel=13, control=7, value=90, time=11),
    Message('note_off', channel=13, note=83, velocity=0, time=1),
    Message('note_on', channel=13, note=84, velocity=60, time=0),
    Message('note_off', channel=13, note=84, velocity=0, time=12),
    Message('note_on', channel=13, note=86, velocity=59, time=0),
    Message('control_change', channel=13, control=7, value=89, time=2),
    Message('note_off', channel=13, note=86, velocity=0, time=9),
    Message('note_on', channel=13, note=88, velocity=58, time=1),
    Message('control_change', channel=13, control=7, value=88, time=4),
    Message('note_off', channel=13, note=88, velocity=0, time=8),
    Message('note_on', channel=13, note=84, velocity=57, time=0),
    Message('control_change', channel=13, control=7, value=87, time=7),
    Message('note_off', channel=13, note=84, velocity=0, time=5),
    Message('note_on', channel=13, note=81, velocity=56, time=0),
    Message('control_change', channel=13, control=7, value=86, time=9),
    Message('note_off', channel=13, note=81, velocity=0, time=3),
    Message('note_on', channel=13, note=76, velocity=55, time=0),
    Message('control_change', channel=13, control=7, value=85, time=11),
    Message('note_off', channel=13, note=76, velocity=0, time=1),
    Message('note_on', channel=13, note=72, velocity=54, time=0),
    Message('note_off', channel=13, note=72, velocity=0, time=12),
    Message('note_on', channel=13, note=69, velocity=53, time=0),
    Message('control_change', channel=13, control=7, value=84, time=2),
    Message('note_off', channel=13, note=69, velocity=0, time=10),
    Message('note_on', channel=13, note=64, velocity=52, time=0),
    Message('control_change', channel=13, control=7, value=83, time=4),
    Message('note_off', channel=13, note=64, velocity=0, time=8),
    Message('note_on', channel=13, note=60, velocity=51, time=0),
    Message('control_change', channel=13, control=7, value=82, time=7),
    Message('note_off', channel=13, note=60, velocity=0, time=5),
    Message('note_on', channel=13, note=57, velocity=49, time=0),
    Message('control_change', channel=13, control=7, value=81, time=9),
    Message('note_off', channel=13, note=57, velocity=0, time=3),
    Message('note_on', channel=13, note=60, velocity=47, time=0),
    Message('note_off', channel=13, note=60, velocity=0, time=11),
    Message('control_change', channel=13, control=7, value=80, time=0),
    Message('note_on', channel=13, note=64, velocity=45, time=1),
    Message('note_off', channel=13, note=64, velocity=0, time=12),
    Message('note_on', channel=13, note=66, velocity=45, time=0),
    Message('note_off', channel=13, note=66, velocity=0, time=12),
    Message('note_on', channel=13, note=64, velocity=45, time=0),
    Message('note_off', channel=13, note=64, velocity=0, time=12),
    Message('note_on', channel=13, note=66, velocity=45, time=0),
    Message('note_off', channel=13, note=66, velocity=0, time=12),
    Message('note_on', channel=13, note=71, velocity=45, time=0),
    Message('note_off', channel=13, note=71, velocity=0, time=12),
    Message('note_on', channel=13, note=72, velocity=45, time=0),
    Message('note_off', channel=13, note=72, velocity=0, time=12),
    Message('note_on', channel=13, note=71, velocity=45, time=0),
    Message('note_off', channel=13, note=71, velocity=0, time=12),
    Message('note_on', channel=13, note=72, velocity=45, time=0),
    Message('note_off', channel=13, note=72, velocity=0, time=12),
    Message('note_on', channel=13, note=69, velocity=45, time=0),
    Message('note_off', channel=13, note=69, velocity=0, time=12),
    Message('note_on', channel=13, note=71, velocity=45, time=0),
    Message('note_off', channel=13, note=71, velocity=0, time=12),
    Message('note_on', channel=13, note=69, velocity=45, time=0),
    Message('note_off', channel=13, note=69, velocity=0, time=12),
    Message('note_on', channel=13, note=71, velocity=45, time=0),
    Message('note_off', channel=13, note=71, velocity=0, time=12),
    Message('note_on', channel=13, note=72, velocity=45, time=0),
    Message('note_off', channel=13, note=72, velocity=0, time=12),
    Message('note_on', channel=13, note=71, velocity=45, time=0),
    Message('note_off', channel=13, note=71, velocity=0, time=12),
    Message('note_on', channel=13, note=69, velocity=45, time=0),
    Message('note_off', channel=13, note=69, velocity=0, time=12),
    Message('note_on', channel=13, note=67, velocity=45, time=0),
    Message('note_off', channel=13, note=67, velocity=0, time=11),
    Message('note_on', channel=13, note=78, velocity=45, time=1),
    Message('note_off', channel=13, note=78, velocity=0, time=12),
    Message('note_on', channel=13, note=76, velocity=45, time=0),
    Message('note_off', channel=13, note=76, velocity=0, time=12),
    Message('note_on', channel=13, note=74, velocity=45, time=0),
    Message('note_off', channel=13, note=74, velocity=0, time=12),
    Message('note_on', channel=13, note=72, velocity=45, time=0),
    Message('note_off', channel=13, note=72, velocity=0, time=12),
    Message('note_on', channel=13, note=83, velocity=45, time=0),
    Message('note_off', channel=13, note=83, velocity=0, time=12),
    Message('note_on', channel=13, note=81, velocity=45, time=0),
    Message('note_off', channel=13, note=81, velocity=0, time=12),
    Message('note_on', channel=13, note=79, velocity=45, time=0),
    Message('note_off', channel=13, note=79, velocity=0, time=12),
    Message('note_on', channel=13, note=78, velocity=45, time=0),
    Message('note_off', channel=13, note=78, velocity=0, time=11),
    Message('note_on', channel=13, note=84, velocity=45, time=1),
    Message('note_off', channel=13, note=84, velocity=0, time=12),
    Message('note_on', channel=13, note=86, velocity=45, time=0),
    Message('note_off', channel=13, note=86, velocity=0, time=12),
    Message('note_on', channel=13, note=88, velocity=45, time=0),
    Message('note_off', channel=13, note=88, velocity=0, time=12),
    Message('note_on', channel=13, note=86, velocity=45, time=0),
    Message('note_off', channel=13, note=86, velocity=0, time=12),
    Message('note_on', channel=13, note=84, velocity=45, time=0),
    Message('note_off', channel=13, note=84, velocity=0, time=12),
    Message('note_on', channel=13, note=83, velocity=45, time=0),
    Message('note_off', channel=13, note=83, velocity=0, time=12),
    Message('note_on', channel=13, note=81, velocity=45, time=0),
    Message('note_off', channel=13, note=81, velocity=0, time=12),
    Message('note_on', channel=13, note=79, velocity=45, time=0),
    Message('note_off', channel=13, note=79, velocity=0, time=12),
    Message('note_on', channel=13, note=78, velocity=45, time=0),
    Message('note_off', channel=13, note=78, velocity=0, time=12),
    Message('note_on', channel=13, note=76, velocity=45, time=0),
    Message('note_off', channel=13, note=76, velocity=0, time=12),
    Message('note_on', channel=13, note=74, velocity=45, time=0),
    Message('note_off', channel=13, note=74, velocity=0, time=12),
    Message('note_on', channel=13, note=72, velocity=45, time=0),
    Message('note_off', channel=13, note=72, velocity=0, time=11),
    Message('note_on', channel=13, note=71, velocity=45, time=1),
    Message('note_off', channel=13, note=71, velocity=0, time=12),
    Message('note_on', channel=13, note=72, velocity=45, time=0),
    Message('note_off', channel=13, note=72, velocity=0, time=12),
    Message('note_on', channel=13, note=74, velocity=45, time=0),
    Message('note_off', channel=13, note=74, velocity=0, time=12),
    Message('note_on', channel=13, note=75, velocity=45, time=0),
    Message('note_off', channel=13, note=75, velocity=0, time=12),
    Message('note_on', channel=13, note=74, velocity=45, time=0),
    Message('note_off', channel=13, note=74, velocity=0, time=12),
    Message('note_on', channel=13, note=72, velocity=45, time=0),
    Message('note_off', channel=13, note=72, velocity=0, time=12),
    Message('note_on', channel=13, note=71, velocity=45, time=0),
    Message('note_off', channel=13, note=71, velocity=0, time=12),
    Message('note_on', channel=13, note=69, velocity=45, time=0),
    Message('note_off', channel=13, note=69, velocity=0, time=12),
    Message('note_on', channel=13, note=67, velocity=45, time=0),
    Message('note_off', channel=13, note=67, velocity=0, time=12),
    Message('note_on', channel=13, note=66, velocity=45, time=0),
    Message('note_off', channel=13, note=66, velocity=0, time=12),
    Message('note_on', channel=13, note=64, velocity=45, time=0),
    Message('note_off', channel=13, note=64, velocity=0, time=12),
    Message('note_on', channel=13, note=63, velocity=45, time=0),
    Message('note_off', channel=13, note=63, velocity=0, time=11),
    Message('note_on', channel=13, note=69, velocity=45, time=1),
    Message('note_off', channel=13, note=69, velocity=0, time=12),
    Message('note_on', channel=13, note=67, velocity=45, time=0),
    Message('note_off', channel=13, note=67, velocity=0, time=12),
    Message('note_on', channel=13, note=66, velocity=45, time=0),
    Message('note_off', channel=13, note=66, velocity=0, time=12),
    Message('note_on', channel=13, note=64, velocity=45, time=0),
    Message('note_off', channel=13, note=64, velocity=0, time=12),
    Message('note_on', channel=13, note=71, velocity=45, time=0),
    Message('note_off', channel=13, note=71, velocity=0, time=12),
    Message('note_on', channel=13, note=69, velocity=45, time=0),
    Message('note_off', channel=13, note=69, velocity=0, time=12),
    Message('note_on', channel=13, note=67, velocity=45, time=0),
    Message('note_off', channel=13, note=67, velocity=0, time=12),
    Message('note_on', channel=13, note=66, velocity=45, time=0),
    Message('note_off', channel=13, note=66, velocity=0, time=12),
    Message('note_on', channel=13, note=72, velocity=45, time=0),
    Message('note_off', channel=13, note=72, velocity=0, time=12),
    Message('note_on', channel=13, note=71, velocity=45, time=0),
    Message('note_off', channel=13, note=71, velocity=0, time=12),
    Message('note_on', channel=13, note=69, velocity=45, time=0),
    Message('note_off', channel=13, note=69, velocity=0, time=12),
    Message('note_on', channel=13, note=67, velocity=45, time=0),
    Message('note_off', channel=13, note=67, velocity=0, time=11),
    Message('note_on', channel=13, note=69, velocity=45, time=1),
    Message('note_off', channel=13, note=69, velocity=0, time=12),
    Message('note_on', channel=13, note=71, velocity=45, time=0),
    Message('note_off', channel=13, note=71, velocity=0, time=12),
    Message('note_on', channel=13, note=72, velocity=45, time=0),
    Message('note_off', channel=13, note=72, velocity=0, time=12),
    Message('note_on', channel=13, note=74, velocity=45, time=0),
    Message('note_off', channel=13, note=74, velocity=0, time=12),
    Message('note_on', channel=13, note=76, velocity=45, time=0),
    Message('note_off', channel=13, note=76, velocity=0, time=12),
    Message('note_on', channel=13, note=77, velocity=45, time=0),
    Message('note_off', channel=13, note=77, velocity=0, time=12),
    Message('note_on', channel=13, note=76, velocity=45, time=0),
    Message('note_off', channel=13, note=76, velocity=0, time=12),
    Message('note_on', channel=13, note=74, velocity=45, time=0),
    Message('note_off', channel=13, note=74, velocity=0, time=12),
    Message('note_on', channel=13, note=72, velocity=45, time=0),
    Message('note_off', channel=13, note=72, velocity=0, time=12),
    Message('note_on', channel=13, note=71, velocity=45, time=0),
    Message('note_off', channel=13, note=71, velocity=0, time=12),
    Message('note_on', channel=13, note=69, velocity=45, time=0),
    Message('note_off', channel=13, note=69, velocity=0, time=12),
    Message('note_on', channel=13, note=67, velocity=45, time=0),
    Message('note_off', channel=13, note=67, velocity=0, time=11),
    Message('note_on', channel=13, note=72, velocity=45, time=1),
    Message('note_off', channel=13, note=72, velocity=0, time=12),
    Message('note_on', channel=13, note=74, velocity=45, time=0),
    Message('note_off', channel=13, note=74, velocity=0, time=12),
    Message('note_on', channel=13, note=76, velocity=45, time=0),
    Message('note_off', channel=13, note=76, velocity=0, time=12),
    Message('note_on', channel=13, note=78, velocity=45, time=0),
    Message('note_off', channel=13, note=78, velocity=0, time=12),
    Message('note_on', channel=13, note=79, velocity=45, time=0),
    Message('note_off', channel=13, note=79, velocity=0, time=12),
    Message('note_on', channel=13, note=81, velocity=45, time=0),
    Message('note_off', channel=13, note=81, velocity=0, time=12),
    Message('note_on', channel=13, note=79, velocity=45, time=0),
    Message('note_off', channel=13, note=79, velocity=0, time=12),
    Message('note_on', channel=13, note=78, velocity=45, time=0),
    Message('note_off', channel=13, note=78, velocity=0, time=12),
    Message('note_on', channel=13, note=76, velocity=45, time=0),
    Message('note_off', channel=13, note=76, velocity=0, time=12),
    Message('note_on', channel=13, note=74, velocity=45, time=0),
    Message('note_off', channel=13, note=74, velocity=0, time=12),
    Message('note_on', channel=13, note=72, velocity=45, time=0),
    Message('note_off', channel=13, note=72, velocity=0, time=12),
    Message('note_on', channel=13, note=71, velocity=45, time=0),
    Message('note_off', channel=13, note=71, velocity=0, time=11),
    Message('note_on', channel=13, note=69, velocity=45, time=1),
    Message('note_off', channel=13, note=69, velocity=0, time=12),
    Message('note_on', channel=13, note=71, velocity=45, time=0),
    Message('note_off', channel=13, note=71, velocity=0, time=12),
    Message('note_on', channel=13, note=72, velocity=45, time=0),
    Message('note_off', channel=13, note=72, velocity=0, time=12),
    Message('note_on', channel=13, note=74, velocity=45, time=0),
    Message('note_off', channel=13, note=74, velocity=0, time=12),
    Message('note_on', channel=13, note=76, velocity=45, time=0),
    Message('note_off', channel=13, note=76, velocity=0, time=12),
    Message('note_on', channel=13, note=78, velocity=45, time=0),
    Message('note_off', channel=13, note=78, velocity=0, time=12),
    Message('note_on', channel=13, note=79, velocity=45, time=0),
    Message('note_off', channel=13, note=79, velocity=0, time=12),
    Message('note_on', channel=13, note=81, velocity=45, time=0),
    Message('note_off', channel=13, note=81, velocity=0, time=12),
    Message('note_on', channel=13, note=83, velocity=45, time=0),
    Message('note_off', channel=13, note=83, velocity=0, time=12),
    Message('note_on', channel=13, note=84, velocity=45, time=0),
    Message('note_off', channel=13, note=84, velocity=0, time=12),
    Message('note_on', channel=13, note=86, velocity=45, time=0),
    Message('note_off', channel=13, note=86, velocity=0, time=12),
    Message('note_on', channel=13, note=84, velocity=45, time=0),
    Message('note_off', channel=13, note=84, velocity=0, time=11),
    Message('note_on', channel=13, note=83, velocity=45, time=1),
    Message('note_off', channel=13, note=83, velocity=0, time=12),
    Message('note_on', channel=13, note=79, velocity=45, time=0),
    Message('note_off', channel=13, note=79, velocity=0, time=12),
    Message('note_on', channel=13, note=76, velocity=45, time=0),
    Message('note_off', channel=13, note=76, velocity=0, time=12),
    Message('note_on', channel=13, note=71, velocity=45, time=0),
    Message('note_off', channel=13, note=71, velocity=0, time=12),
    Message('note_on', channel=13, note=67, velocity=45, time=0),
    Message('note_off', channel=13, note=67, velocity=0, time=12),
    Message('note_on', channel=13, note=71, velocity=45, time=0),
    Message('note_off', channel=13, note=71, velocity=0, time=12),
    Message('note_on', channel=13, note=76, velocity=45, time=0),
    Message('note_off', channel=13, note=76, velocity=0, time=12),
    Message('note_on', channel=13, note=79, velocity=45, time=0),
    Message('note_off', channel=13, note=79, velocity=0, time=12),
    Message('note_on', channel=13, note=83, velocity=45, time=0),
    Message('note_off', channel=13, note=83, velocity=0, time=12),
    Message('note_on', channel=13, note=79, velocity=45, time=0),
    Message('note_off', channel=13, note=79, velocity=0, time=12),
    Message('note_on', channel=13, note=76, velocity=45, time=0),
    Message('note_off', channel=13, note=76, velocity=0, time=12),
    Message('note_on', channel=13, note=71, velocity=45, time=0),
    Message('note_off', channel=13, note=71, velocity=0, time=11),
    Message('note_on', channel=13, note=76, velocity=45, time=1),
    Message('note_off', channel=13, note=76, velocity=0, time=12),
    Message('note_on', channel=13, note=81, velocity=45, time=0),
    Message('note_off', channel=13, note=81, velocity=0, time=12),
    Message('note_on', channel=13, note=79, velocity=45, time=0),
    Message('note_off', channel=13, note=79, velocity=0, time=12),
    Message('note_on', channel=13, note=78, velocity=45, time=0),
    Message('note_off', channel=13, note=78, velocity=0, time=12),
    Message('note_on', channel=13, note=76, velocity=45, time=0),
    Message('note_off', channel=13, note=76, velocity=0, time=12),
    Message('note_on', channel=13, note=74, velocity=45, time=0),
    Message('note_off', channel=13, note=74, velocity=0, time=12),
    Message('note_on', channel=13, note=72, velocity=45, time=0),
    Message('note_off', channel=13, note=72, velocity=0, time=12),
    Message('note_on', channel=13, note=71, velocity=45, time=0),
    Message('note_off', channel=13, note=71, velocity=0, time=12),
    Message('note_on', channel=13, note=74, velocity=45, time=0),
    Message('note_off', channel=13, note=74, velocity=0, time=12),
    Message('note_on', channel=13, note=70, velocity=45, time=0),
    Message('note_off', channel=13, note=70, velocity=0, time=12),
    Message('note_on', channel=13, note=66, velocity=45, time=0),
    Message('note_off', channel=13, note=66, velocity=0, time=12),
    Message('note_on', channel=13, note=65, velocity=45, time=0),
    Message('note_off', channel=13, note=65, velocity=0, time=11),
    Message('note_on', channel=13, note=64, velocity=45, time=1),
    Message('control_change', channel=13, control=7, value=81, time=7),
    Message('note_off', channel=13, note=64, velocity=0, time=5),
    Message('note_on', channel=13, note=63, velocity=47, time=0),
    Message('control_change', channel=13, control=7, value=82, time=2),
    Message('control_change', channel=13, control=7, value=83, time=7),
    Message('note_off', channel=13, note=63, velocity=0, time=3),
    Message('note_on', channel=13, note=64, velocity=49, time=0),
    Message('control_change', channel=13, control=7, value=84, time=4),
    Message('control_change', channel=13, control=7, value=85, time=7),
    Message('note_off', channel=13, note=64, velocity=0, time=1),
    Message('note_on', channel=13, note=66, velocity=51, time=0),
    Message('control_change', channel=13, control=7, value=86, time=7),
    Message('note_off', channel=13, note=66, velocity=0, time=5),
    Message('note_on', channel=13, note=67, velocity=53, time=0),
    Message('control_change', channel=13, control=7, value=87, time=2),
    Message('control_change', channel=13, control=7, value=88, time=7),
    Message('note_off', channel=13, note=67, velocity=0, time=3),
    Message('note_on', channel=13, note=69, velocity=55, time=0),
    Message('control_change', channel=13, control=7, value=89, time=4),
    Message('control_change', channel=13, control=7, value=90, time=7),
    Message('note_off', channel=13, note=69, velocity=0, time=1),
    Message('note_on', channel=13, note=71, velocity=57, time=0),
    Message('control_change', channel=13, control=7, value=91, time=7),
    Message('note_off', channel=13, note=71, velocity=0, time=5),
    Message('note_on', channel=13, note=72, velocity=60, time=0),
    Message('control_change', channel=13, control=7, value=92, time=2),
    Message('control_change', channel=13, control=7, value=93, time=7),
    Message('note_off', channel=13, note=72, velocity=0, time=3),
    Message('note_on', channel=13, note=75, velocity=63, time=0),
    Message('control_change', channel=13, control=7, value=94, time=4),
    Message('control_change', channel=13, control=7, value=95, time=7),
    Message('note_off', channel=13, note=75, velocity=0, time=1),
    Message('note_on', channel=13, note=76, velocity=66, time=0),
    Message('control_change', channel=13, control=7, value=96, time=7),
    Message('note_off', channel=13, note=76, velocity=0, time=5),
    Message('note_on', channel=13, note=78, velocity=69, time=0),
    Message('control_change', channel=13, control=7, value=97, time=2),
    Message('control_change', channel=13, control=7, value=98, time=7),
    Message('note_off', channel=13, note=78, velocity=0, time=3),
    Message('note_on', channel=13, note=79, velocity=72, time=0),
    Message('control_change', channel=13, control=7, value=99, time=4),
    Message('note_off', channel=13, note=79, velocity=0, time=7),
    Message('control_change', channel=13, control=7, value=100, time=0),
    Message('note_on', channel=13, note=81, velocity=105, time=1),
    Message('note_off', channel=13, note=81, velocity=0, time=12),
    Message('note_on', channel=13, note=82, velocity=74, time=0),
    Message('control_change', channel=13, control=7, value=99, time=2),
    Message('note_off', channel=13, note=82, velocity=0, time=10),
    Message('note_on', channel=13, note=81, velocity=73, time=0),
    Message('control_change', channel=13, control=7, value=98, time=4),
    Message('note_off', channel=13, note=81, velocity=0, time=8),
    Message('note_on', channel=13, note=79, velocity=72, time=0),
    Message('control_change', channel=13, control=7, value=97, time=7),
    Message('note_off', channel=13, note=79, velocity=0, time=5),
    Message('note_on', channel=13, note=78, velocity=71, time=0),
    Message('control_change', channel=13, control=7, value=96, time=9),
    Message('note_off', channel=13, note=78, velocity=0, time=3),
    Message('note_on', channel=13, note=76, velocity=70, time=0),
    Message('control_change', channel=13, control=7, value=95, time=11),
    Message('note_off', channel=13, note=76, velocity=0, time=1),
    Message('note_on', channel=13, note=74, velocity=69, time=0),
    Message('note_off', channel=13, note=74, velocity=0, time=12),
    Message('note_on', channel=13, note=72, velocity=68, time=0),
    Message('control_change', channel=13, control=7, value=94, time=2),
    Message('note_off', channel=13, note=72, velocity=0, time=10),
    Message('note_on', channel=13, note=71, velocity=67, time=0),
    Message('control_change', channel=13, control=7, value=93, time=4),
    Message('note_off', channel=13, note=71, velocity=0, time=8),
    Message('note_on', channel=13, note=69, velocity=66, time=0),
    Message('control_change', channel=13, control=7, value=92, time=7),
    Message('note_off', channel=13, note=69, velocity=0, time=5),
    Message('note_on', channel=13, note=67, velocity=64, time=0),
    Message('control_change', channel=13, control=7, value=91, time=9),
    Message('note_off', channel=13, note=67, velocity=0, time=3),
    Message('note_on', channel=13, note=66, velocity=62, time=0),
    Message('note_off', channel=13, note=66, velocity=0, time=11),
    Message('control_change', channel=13, control=7, value=90, time=0),
    Message('note_on', channel=13, note=64, velocity=60, time=1),
    Message('note_off', channel=13, note=64, velocity=0, time=11),
    Message('note_on', channel=13, note=65, velocity=60, time=1),
    Message('note_off', channel=13, note=65, velocity=0, time=11),
    Message('note_on', channel=13, note=64, velocity=60, time=1),
    Message('note_off', channel=13, note=64, velocity=0, time=23),
    Message('note_on', channel=13, note=71, velocity=60, time=1),
    Message('note_off', channel=13, note=71, velocity=0, time=11),
    Message('note_on', channel=13, note=72, velocity=60, time=1),
    Message('note_off', channel=13, note=72, velocity=0, time=11),
    Message('note_on', channel=13, note=71, velocity=60, time=1),
    Message('note_off', channel=13, note=71, velocity=0, time=23),
    Message('note_on', channel=13, note=70, velocity=60, time=1),
    Message('note_off', channel=13, note=70, velocity=0, time=11),
    Message('note_on', channel=13, note=71, velocity=60, time=1),
    Message('note_off', channel=13, note=71, velocity=0, time=11),
    Message('note_on', channel=13, note=70, velocity=60, time=1),
    Message('note_off', channel=13, note=70, velocity=0, time=23),
    Message('note_on', channel=13, note=71, velocity=60, time=1),
    Message('note_off', channel=13, note=71, velocity=0, time=12),
    Message('note_on', channel=13, note=67, velocity=60, time=0),
    Message('note_off', channel=13, note=67, velocity=0, time=12),
    Message('note_on', channel=13, note=69, velocity=60, time=0),
    Message('note_off', channel=13, note=69, velocity=0, time=12),
    Message('note_on', channel=13, note=71, velocity=60, time=0),
    Message('note_off', channel=13, note=71, velocity=0, time=12),
    Message('note_on', channel=13, note=72, velocity=60, time=0),
    Message('note_off', channel=13, note=72, velocity=0, time=12),
    Message('note_on', channel=13, note=75, velocity=60, time=0),
    Message('note_off', channel=13, note=75, velocity=0, time=12),
    Message('note_on', channel=13, note=76, velocity=60, time=0),
    Message('note_off', channel=13, note=76, velocity=0, time=12),
    Message('note_on', channel=13, note=78, velocity=60, time=0),
    Message('note_off', channel=13, note=78, velocity=0, time=12),
    Message('note_on', channel=13, note=79, velocity=60, time=0),
    Message('note_off', channel=13, note=79, velocity=0, time=12),
    Message('note_on', channel=13, note=81, velocity=60, time=0),
    Message('note_off', channel=13, note=81, velocity=0, time=12),
    Message('note_on', channel=13, note=83, velocity=60, time=0),
    Message('note_off', channel=13, note=83, velocity=0, time=12),
    Message('note_on', channel=13, note=84, velocity=60, time=0),
    Message('note_off', channel=13, note=84, velocity=0, time=11),
    Message('note_on', channel=13, note=86, velocity=60, time=1),
    Message('note_off', channel=13, note=86, velocity=0, time=12),
    Message('note_on', channel=13, note=82, velocity=60, time=0),
    Message('note_off', channel=13, note=82, velocity=0, time=12),
    Message('note_on', channel=13, note=77, velocity=60, time=0),
    Message('note_off', channel=13, note=77, velocity=0, time=12),
    Message('note_on', channel=13, note=74, velocity=60, time=0),
    Message('note_off', channel=13, note=74, velocity=0, time=12),
    Message('note_on', channel=13, note=70, velocity=60, time=0),
    Message('note_off', channel=13, note=70, velocity=0, time=12),
    Message('note_on', channel=13, note=67, velocity=60, time=0),
    Message('note_off', channel=13, note=67, velocity=0, time=12),
    Message('note_on', channel=13, note=70, velocity=60, time=0),
    Message('note_off', channel=13, note=70, velocity=0, time=12),
    Message('note_on', channel=13, note=74, velocity=60, time=0),
    Message('note_off', channel=13, note=74, velocity=0, time=12),
    Message('note_on', channel=13, note=78, velocity=60, time=0),
    Message('note_off', channel=13, note=78, velocity=0, time=12),
    Message('note_on', channel=13, note=79, velocity=60, time=0),
    Message('note_off', channel=13, note=79, velocity=0, time=12),
    Message('note_on', channel=13, note=81, velocity=60, time=0),
    Message('note_off', channel=13, note=81, velocity=0, time=12),
    Message('note_on', channel=13, note=82, velocity=60, time=0),
    Message('note_off', channel=13, note=82, velocity=0, time=11),
    Message('note_on', channel=13, note=84, velocity=60, time=1),
    Message('note_off', channel=13, note=84, velocity=0, time=12),
    Message('note_on', channel=13, note=80, velocity=60, time=0),
    Message('note_off', channel=13, note=80, velocity=0, time=12),
    Message('note_on', channel=13, note=77, velocity=60, time=0),
    Message('note_off', channel=13, note=77, velocity=0, time=12),
    Message('note_on', channel=13, note=72, velocity=60, time=0),
    Message('note_off', channel=13, note=72, velocity=0, time=12),
    Message('note_on', channel=13, note=68, velocity=60, time=0),
    Message('note_off', channel=13, note=68, velocity=0, time=12),
    Message('note_on', channel=13, note=65, velocity=60, time=0),
    Message('note_off', channel=13, note=65, velocity=0, time=12),
    Message('note_on', channel=13, note=68, velocity=60, time=0),
    Message('note_off', channel=13, note=68, velocity=0, time=12),
    Message('note_on', channel=13, note=72, velocity=60, time=0),
    Message('note_off', channel=13, note=72, velocity=0, time=12),
    Message('note_on', channel=13, note=76, velocity=60, time=0),
    Message('note_off', channel=13, note=76, velocity=0, time=12),
    Message('note_on', channel=13, note=77, velocity=60, time=0),
    Message('note_off', channel=13, note=77, velocity=0, time=12),
    Message('note_on', channel=13, note=79, velocity=60, time=0),
    Message('note_off', channel=13, note=79, velocity=0, time=12),
    Message('note_on', channel=13, note=80, velocity=60, time=0),
    Message('note_off', channel=13, note=80, velocity=0, time=11),
    Message('note_on', channel=13, note=84, velocity=60, time=1),
    Message('note_off', channel=13, note=84, velocity=0, time=12),
    Message('note_on', channel=13, note=81, velocity=60, time=0),
    Message('note_off', channel=13, note=81, velocity=0, time=12),
    Message('note_on', channel=13, note=76, velocity=60, time=0),
    Message('note_off', channel=13, note=76, velocity=0, time=12),
    Message('note_on', channel=13, note=72, velocity=60, time=0),
    Message('note_off', channel=13, note=72, velocity=0, time=12),
    Message('note_on', channel=13, note=69, velocity=60, time=0),
    Message('note_off', channel=13, note=69, velocity=0, time=12),
    Message('note_on', channel=13, note=72, velocity=60, time=0),
    Message('note_off', channel=13, note=72, velocity=0, time=12),
    Message('note_on', channel=13, note=76, velocity=60, time=0),
    Message('note_off', channel=13, note=76, velocity=0, time=12),
    Message('note_on', channel=13, note=81, velocity=60, time=0),
    Message('note_off', channel=13, note=81, velocity=0, time=12),
    Message('note_on', channel=13, note=72, velocity=60, time=0),
    Message('note_off', channel=13, note=72, velocity=0, time=12),
    Message('note_on', channel=13, note=73, velocity=60, time=0),
    Message('note_off', channel=13, note=73, velocity=0, time=12),
    Message('note_on', channel=13, note=74, velocity=60, time=0),
    Message('note_off', channel=13, note=74, velocity=0, time=12),
    Message('note_on', channel=13, note=75, velocity=60, time=0),
    Message('note_off', channel=13, note=75, velocity=0, time=11),
    Message('note_on', channel=13, note=76, velocity=60, time=1),
    Message('note_off', channel=13, note=76, velocity=0, time=12),
    Message('note_on', channel=13, note=78, velocity=60, time=0),
    Message('note_off', channel=13, note=78, velocity=0, time=12),
    Message('note_on', channel=13, note=79, velocity=60, time=0),
    Message('note_off', channel=13, note=79, velocity=0, time=12),
    Message('note_on', channel=13, note=81, velocity=60, time=0),
    Message('note_off', channel=13, note=81, velocity=0, time=12),
    Message('note_on', channel=13, note=82, velocity=60, time=0),
    Message('note_off', channel=13, note=82, velocity=0, time=12),
    Message('note_on', channel=13, note=79, velocity=60, time=0),
    Message('note_off', channel=13, note=79, velocity=0, time=12),
    Message('note_on', channel=13, note=78, velocity=60, time=0),
    Message('note_off', channel=13, note=78, velocity=0, time=12),
    Message('note_on', channel=13, note=76, velocity=60, time=0),
    Message('note_off', channel=13, note=76, velocity=0, time=12),
    Message('note_on', channel=13, note=75, velocity=60, time=0),
    Message('note_off', channel=13, note=75, velocity=0, time=12),
    Message('note_on', channel=13, note=72, velocity=60, time=0),
    Message('note_off', channel=13, note=72, velocity=0, time=12),
    Message('note_on', channel=13, note=71, velocity=60, time=0),
    Message('note_off', channel=13, note=71, velocity=0, time=12),
    Message('note_on', channel=13, note=70, velocity=60, time=0),
    Message('note_off', channel=13, note=70, velocity=0, time=11),
    Message('note_on', channel=13, note=71, velocity=60, time=1),
    Message('note_off', channel=13, note=71, velocity=0, time=12),
    Message('note_on', channel=13, note=72, velocity=61, time=0),
    Message('control_change', channel=13, control=7, value=91, time=2),
    Message('note_off', channel=13, note=72, velocity=0, time=10),
    Message('note_on', channel=13, note=75, velocity=62, time=0),
    Message('control_change', channel=13, control=7, value=92, time=4),
    Message('note_off', channel=13, note=75, velocity=0, time=8),
    Message('note_on', channel=13, note=76, velocity=63, time=0),
    Message('control_change', channel=13, control=7, value=93, time=7),
    Message('note_off', channel=13, note=76, velocity=0, time=5),
    Message('note_on', channel=13, note=78, velocity=64, time=0),
    Message('control_change', channel=13, control=7, value=94, time=9),
    Message('note_off', channel=13, note=78, velocity=0, time=3),
    Message('note_on', channel=13, note=79, velocity=65, time=0),
    Message('control_change', channel=13, control=7, value=95, time=11),
    Message('note_off', channel=13, note=79, velocity=0, time=1),
    Message('note_on', channel=13, note=81, velocity=66, time=0),
    Message('note_off', channel=13, note=81, velocity=0, time=12),
    Message('note_on', channel=13, note=82, velocity=67, time=0),
    Message('control_change', channel=13, control=7, value=96, time=2),
    Message('note_off', channel=13, note=82, velocity=0, time=10),
    Message('note_on', channel=13, note=84, velocity=68, time=0),
    Message('control_change', channel=13, control=7, value=97, time=4),
    Message('note_off', channel=13, note=84, velocity=0, time=8),
    Message('note_on', channel=13, note=86, velocity=69, time=0),
    Message('control_change', channel=13, control=7, value=98, time=7),
    Message('note_off', channel=13, note=86, velocity=0, time=5),
    Message('note_on', channel=13, note=84, velocity=71, time=0),
    Message('control_change', channel=13, control=7, value=99, time=9),
    Message('note_off', channel=13, note=84, velocity=0, time=3),
    Message('note_on', channel=13, note=82, velocity=73, time=0),
    Message('note_off', channel=13, note=82, velocity=0, time=11),
    Message('control_change', channel=13, control=7, value=100, time=0),
    Message('note_on', channel=13, note=81, velocity=75, time=1),
    Message('control_change', channel=13, control=7, value=99, time=7),
    Message('note_off', channel=13, note=81, velocity=0, time=5),
    Message('note_on', channel=13, note=79, velocity=73, time=0),
    Message('control_change', channel=13, control=7, value=98, time=2),
    Message('control_change', channel=13, control=7, value=97, time=7),
    Message('note_off', channel=13, note=79, velocity=0, time=3),
    Message('note_on', channel=13, note=78, velocity=71, time=0),
    Message('control_change', channel=13, control=7, value=96, time=4),
    Message('control_change', channel=13, control=7, value=95, time=7),
    Message('note_off', channel=13, note=78, velocity=0, time=1),
    Message('note_on', channel=13, note=76, velocity=69, time=0),
    Message('control_change', channel=13, control=7, value=94, time=7),
    Message('note_off', channel=13, note=76, velocity=0, time=5),
    Message('note_on', channel=13, note=86, velocity=67, time=0),
    Message('control_change', channel=13, control=7, value=93, time=2),
    Message('control_change', channel=13, control=7, value=92, time=7),
    Message('note_off', channel=13, note=86, velocity=0, time=3),
    Message('note_on', channel=13, note=84, velocity=65, time=0),
    Message('control_change', channel=13, control=7, value=91, time=4),
    Message('control_change', channel=13, control=7, value=90, time=7),
    Message('note_off', channel=13, note=84, velocity=0, time=1),
    Message('note_on', channel=13, note=82, velocity=63, time=0),
    Message('control_change', channel=13, control=7, value=89, time=7),
    Message('note_off', channel=13, note=82, velocity=0, time=5),
    Message('note_on', channel=13, note=81, velocity=60, time=0),
    Message('control_change', channel=13, control=7, value=88, time=2),
    Message('control_change', channel=13, control=7, value=87, time=7),
    Message('note_off', channel=13, note=81, velocity=0, time=3),
    Message('note_on', channel=13, note=79, velocity=57, time=0),
    Message('control_change', channel=13, control=7, value=86, time=4),
    Message('control_change', channel=13, control=7, value=85, time=7),
    Message('note_off', channel=13, note=79, velocity=0, time=1),
    Message('note_on', channel=13, note=78, velocity=54, time=0),
    Message('control_change', channel=13, control=7, value=84, time=7),
    Message('note_off', channel=13, note=78, velocity=0, time=5),
    Message('note_on', channel=13, note=76, velocity=51, time=0),
    Message('control_change', channel=13, control=7, value=83, time=2),
    Message('control_change', channel=13, control=7, value=82, time=7),
    Message('note_off', channel=13, note=76, velocity=0, time=3),
    Message('note_on', channel=13, note=75, velocity=48, time=0),
    Message('control_change', channel=13, control=7, value=81, time=4),
    Message('note_off', channel=13, note=75, velocity=0, time=7),
    Message('control_change', channel=13, control=7, value=80, time=0),
    Message('note_on', channel=13, note=76, velocity=45, time=1),
    Message('note_off', channel=13, note=76, velocity=0, time=12),
    Message('note_on', channel=13, note=77, velocity=45, time=0),
    Message('note_off', channel=13, note=77, velocity=0, time=12),
    Message('note_on', channel=13, note=76, velocity=45, time=0),
    Message('note_off', channel=13, note=76, velocity=0, time=24),
    Message('note_on', channel=13, note=79, velocity=45, time=0),
    Message('note_on', channel=13, note=76, velocity=45, time=0),
    Message('note_off', channel=13, note=79, velocity=0, time=12),
    Message('note_off', channel=13, note=76, velocity=0, time=0),
    Message('note_on', channel=13, note=80, velocity=45, time=0),
    Message('note_on', channel=13, note=77, velocity=45, time=0),
    Message('note_off', channel=13, note=77, velocity=0, time=12),
    Message('note_off', channel=13, note=80, velocity=0, time=0),
    Message('note_on', channel=13, note=79, velocity=45, time=0),
    Message('note_on', channel=13, note=76, velocity=45, time=0),
    Message('note_off', channel=13, note=79, velocity=0, time=24),
    Message('note_off', channel=13, note=76, velocity=0, time=0),
    Message('note_on', channel=13, note=83, velocity=45, time=0),
    Message('note_on', channel=13, note=79, velocity=45, time=0),
    Message('note_off', channel=13, note=83, velocity=0, time=12),
    Message('note_off', channel=13, note=79, velocity=0, time=0),
    Message('note_on', channel=13, note=84, velocity=45, time=0),
    Message('note_on', channel=13, note=80, velocity=45, time=0),
    Message('note_off', channel=13, note=80, velocity=0, time=12),
    Message('note_off', channel=13, note=84, velocity=0, time=0),
    Message('note_on', channel=13, note=83, velocity=45, time=0),
    Message('note_on', channel=13, note=79, velocity=45, time=0),
    Message('note_off', channel=13, note=79, velocity=0, time=23),
    Message('note_off', channel=13, note=83, velocity=0, time=0),
    Message('note_on', channel=13, note=79, velocity=45, time=1),
    Message('note_on', channel=13, note=76, velocity=45, time=0),
    Message('note_off', channel=13, note=79, velocity=0, time=12),
    Message('note_off', channel=13, note=76, velocity=0, time=0),
    Message('note_on', channel=13, note=80, velocity=45, time=0),
    Message('note_on', channel=13, note=77, velocity=45, time=0),
    Message('note_off', channel=13, note=77, velocity=0, time=12),
    Message('note_off', channel=13, note=80, velocity=0, time=0),
    Message('note_on', channel=13, note=79, velocity=45, time=0),
    Message('note_on', channel=13, note=76, velocity=45, time=0),
    Message('note_off', channel=13, note=76, velocity=0, time=24),
    Message('note_off', channel=13, note=79, velocity=0, time=0),
    Message('note_on', channel=13, note=83, velocity=45, time=0),
    Message('note_on', channel=13, note=79, velocity=45, time=0),
    Message('note_off', channel=13, note=79, velocity=0, time=12),
    Message('note_off', channel=13, note=83, velocity=0, time=0),
    Message('note_on', channel=13, note=84, velocity=45, time=0),
    Message('note_on', channel=13, note=80, velocity=45, time=0),
    Message('note_off', channel=13, note=80, velocity=0, time=12),
    Message('note_off', channel=13, note=84, velocity=0, time=0),
    Message('note_on', channel=13, note=83, velocity=45, time=0),
    Message('note_on', channel=13, note=79, velocity=45, time=0),
    Message('note_off', channel=13, note=79, velocity=0, time=24),
    Message('note_off', channel=13, note=83, velocity=0, time=0),
    Message('note_on', channel=13, note=88, velocity=45, time=0),
    Message('note_on', channel=13, note=83, velocity=45, time=0),
    Message('note_off', channel=13, note=88, velocity=0, time=12),
    Message('note_off', channel=13, note=83, velocity=0, time=0),
    Message('note_on', channel=13, note=89, velocity=45, time=0),
    Message('note_on', channel=13, note=84, velocity=45, time=0),
    Message('note_off', channel=13, note=84, velocity=0, time=12),
    Message('note_off', channel=13, note=89, velocity=0, time=0),
    Message('note_on', channel=13, note=88, velocity=45, time=0),
    Message('note_on', channel=13, note=83, velocity=45, time=0),
    Message('note_off', channel=13, note=83, velocity=0, time=23),
    Message('note_off', channel=13, note=88, velocity=0, time=0),
    Message('note_on', channel=13, note=91, velocity=45, time=1),
    Message('note_on', channel=13, note=88, velocity=45, time=0),
    Message('note_off', channel=13, note=91, velocity=0, time=12),
    Message('note_off', channel=13, note=88, velocity=0, time=0),
    Message('note_on', channel=13, note=92, velocity=45, time=0),
    Message('note_on', channel=13, note=89, velocity=45, time=0),
    Message('note_off', channel=13, note=89, velocity=0, time=12),
    Message('note_off', channel=13, note=92, velocity=0, time=0),
    Message('note_on', channel=13, note=91, velocity=45, time=0),
    Message('note_on', channel=13, note=88, velocity=45, time=0),
    Message('note_off', channel=13, note=88, velocity=0, time=24),
    Message('note_off', channel=13, note=91, velocity=0, time=0),
    Message('note_on', channel=13, note=88, velocity=45, time=0),
    Message('note_on', channel=13, note=83, velocity=45, time=0),
    Message('note_off', channel=13, note=83, velocity=0, time=12),
    Message('note_off', channel=13, note=88, velocity=0, time=0),
    Message('note_on', channel=13, note=89, velocity=45, time=0),
    Message('note_on', channel=13, note=84, velocity=45, time=0),
    Message('note_off', channel=13, note=84, velocity=0, time=12),
    Message('note_off', channel=13, note=89, velocity=0, time=0),
    Message('note_on', channel=13, note=88, velocity=45, time=0),
    Message('note_on', channel=13, note=83, velocity=45, time=0),
    Message('note_off', channel=13, note=83, velocity=0, time=24),
    Message('note_off', channel=13, note=88, velocity=0, time=0),
    Message('note_on', channel=13, note=83, velocity=45, time=0),
    Message('note_on', channel=13, note=79, velocity=45, time=0),
    Message('note_off', channel=13, note=83, velocity=0, time=12),
    Message('note_off', channel=13, note=79, velocity=0, time=0),
    Message('note_on', channel=13, note=84, velocity=45, time=0),
    Message('note_on', channel=13, note=80, velocity=45, time=0),
    Message('note_off', channel=13, note=80, velocity=0, time=12),
    Message('note_off', channel=13, note=84, velocity=0, time=0),
    Message('note_on', channel=13, note=83, velocity=45, time=0),
    Message('note_on', channel=13, note=79, velocity=45, time=0),
    Message('note_off', channel=13, note=79, velocity=0, time=23),
    Message('note_off', channel=13, note=83, velocity=0, time=0),
    Message('note_on', channel=13, note=85, velocity=45, time=1),
    Message('note_on', channel=13, note=82, velocity=45, time=0),
    Message('note_off', channel=13, note=85, velocity=0, time=12),
    Message('note_off', channel=13, note=82, velocity=0, time=0),
    Message('note_on', channel=13, note=86, velocity=45, time=0),
    Message('note_on', channel=13, note=83, velocity=45, time=0),
    Message('note_off', channel=13, note=83, velocity=0, time=12),
    Message('note_off', channel=13, note=86, velocity=0, time=0),
    Message('note_on', channel=13, note=85, velocity=45, time=0),
    Message('note_on', channel=13, note=82, velocity=45, time=0),
    Message('note_off', channel=13, note=82, velocity=0, time=24),
    Message('note_off', channel=13, note=85, velocity=0, time=0),
    Message('note_on', channel=13, note=82, velocity=45, time=0),
    Message('note_on', channel=13, note=78, velocity=45, time=0),
    Message('note_off', channel=13, note=78, velocity=0, time=12),
    Message('note_off', channel=13, note=82, velocity=0, time=0),
    Message('note_on', channel=13, note=83, velocity=45, time=0),
    Message('note_on', channel=13, note=79, velocity=45, time=0),
    Message('note_off', channel=13, note=79, velocity=0, time=12),
    Message('note_off', channel=13, note=83, velocity=0, time=0),
    Message('note_on', channel=13, note=82, velocity=45, time=0),
    Message('note_on', channel=13, note=78, velocity=45, time=0),
    Message('note_off', channel=13, note=78, velocity=0, time=24),
    Message('note_off', channel=13, note=82, velocity=0, time=0),
    Message('note_on', channel=13, note=78, velocity=45, time=0),
    Message('note_on', channel=13, note=73, velocity=45, time=0),
    Message('note_off', channel=13, note=78, velocity=0, time=12),
    Message('note_off', channel=13, note=73, velocity=0, time=0),
    Message('note_on', channel=13, note=79, velocity=45, time=0),
    Message('note_on', channel=13, note=74, velocity=45, time=0),
    Message('note_off', channel=13, note=74, velocity=0, time=12),
    Message('note_off', channel=13, note=79, velocity=0, time=0),
    Message('note_on', channel=13, note=78, velocity=45, time=0),
    Message('note_on', channel=13, note=73, velocity=45, time=0),
    Message('note_off', channel=13, note=73, velocity=0, time=23),
    Message('note_off', channel=13, note=78, velocity=0, time=0),
    Message('note_on', channel=13, note=71, velocity=45, time=1),
    Message('note_on', channel=13, note=67, velocity=45, time=0),
    Message('note_off', channel=13, note=71, velocity=0, time=12),
    Message('note_off', channel=13, note=67, velocity=0, time=0),
    Message('note_on', channel=13, note=72, velocity=45, time=0),
    Message('note_on', channel=13, note=68, velocity=45, time=0),
    Message('note_off', channel=13, note=68, velocity=0, time=12),
    Message('note_off', channel=13, note=72, velocity=0, time=0),
    Message('note_on', channel=13, note=71, velocity=45, time=0),
    Message('note_on', channel=13, note=67, velocity=45, time=0),
    Message('note_off', channel=13, note=67, velocity=0, time=24),
    Message('note_off', channel=13, note=71, velocity=0, time=0),
    Message('note_on', channel=13, note=79, velocity=45, time=0),
    Message('note_on', channel=13, note=76, velocity=45, time=0),
    Message('note_off', channel=13, note=76, velocity=0, time=12),
    Message('note_off', channel=13, note=79, velocity=0, time=0),
    Message('note_on', channel=13, note=80, velocity=45, time=0),
    Message('note_on', channel=13, note=77, velocity=45, time=0),
    Message('note_off', channel=13, note=77, velocity=0, time=12),
    Message('note_off', channel=13, note=80, velocity=0, time=0),
    Message('note_on', channel=13, note=79, velocity=45, time=0),
    Message('note_on', channel=13, note=76, velocity=45, time=0),
    Message('note_off', channel=13, note=76, velocity=0, time=24),
    Message('note_off', channel=13, note=79, velocity=0, time=0),
    Message('note_on', channel=13, note=76, velocity=45, time=0),
    Message('note_on', channel=13, note=71, velocity=45, time=0),
    Message('note_off', channel=13, note=76, velocity=0, time=12),
    Message('note_off', channel=13, note=71, velocity=0, time=0),
    Message('note_on', channel=13, note=77, velocity=45, time=0),
    Message('note_on', channel=13, note=72, velocity=45, time=0),
    Message('note_off', channel=13, note=72, velocity=0, time=12),
    Message('note_off', channel=13, note=77, velocity=0, time=0),
    Message('note_on', channel=13, note=76, velocity=45, time=0),
    Message('note_on', channel=13, note=71, velocity=45, time=0),
    Message('note_off', channel=13, note=71, velocity=0, time=23),
    Message('note_off', channel=13, note=76, velocity=0, time=0),
    Message('note_on', channel=13, note=70, velocity=45, time=1),
    Message('note_on', channel=13, note=66, velocity=45, time=0),
    Message('note_off', channel=13, note=70, velocity=0, time=12),
    Message('note_off', channel=13, note=66, velocity=0, time=0),
    Message('note_on', channel=13, note=71, velocity=45, time=0),
    Message('note_on', channel=13, note=67, velocity=45, time=0),
    Message('note_off', channel=13, note=67, velocity=0, time=12),
    Message('note_off', channel=13, note=71, velocity=0, time=0),
    Message('note_on', channel=13, note=70, velocity=45, time=0),
    Message('note_on', channel=13, note=66, velocity=45, time=0),
    Message('note_off', channel=13, note=66, velocity=0, time=24),
    Message('note_off', channel=13, note=70, velocity=0, time=0),
    Message('note_on', channel=13, note=76, velocity=45, time=0),
    Message('note_on', channel=13, note=72, velocity=45, time=0),
    Message('note_off', channel=13, note=72, velocity=0, time=12),
    Message('note_off', channel=13, note=76, velocity=0, time=0),
    Message('note_on', channel=13, note=77, velocity=45, time=0),
    Message('note_on', channel=13, note=73, velocity=45, time=0),
    Message('note_off', channel=13, note=73, velocity=0, time=12),
    Message('note_off', channel=13, note=77, velocity=0, time=0),
    Message('note_on', channel=13, note=76, velocity=45, time=0),
    Message('note_on', channel=13, note=72, velocity=45, time=0),
    Message('note_off', channel=13, note=72, velocity=0, time=24),
    Message('note_off', channel=13, note=76, velocity=0, time=0),
    Message('note_on', channel=13, note=82, velocity=45, time=0),
    Message('note_on', channel=13, note=79, velocity=45, time=0),
    Message('note_off', channel=13, note=82, velocity=0, time=12),
    Message('note_off', channel=13, note=79, velocity=0, time=0),
    Message('note_on', channel=13, note=83, velocity=45, time=0),
    Message('note_on', channel=13, note=80, velocity=45, time=0),
    Message('note_off', channel=13, note=80, velocity=0, time=12),
    Message('note_off', channel=13, note=83, velocity=0, time=0),
    Message('note_on', channel=13, note=82, velocity=45, time=0),
    Message('note_on', channel=13, note=79, velocity=45, time=0),
    Message('note_off', channel=13, note=79, velocity=0, time=23),
    Message('note_off', channel=13, note=82, velocity=0, time=0),
    Message('note_on', channel=13, note=79, velocity=45, time=1),
    Message('note_on', channel=13, note=76, velocity=45, time=0),
    Message('control_change', channel=13, control=7, value=81, time=7),
    Message('note_off', channel=13, note=79, velocity=0, time=5),
    Message('note_off', channel=13, note=76, velocity=0, time=0),
    Message('note_on', channel=13, note=78, velocity=47, time=0),
    Message('note_on', channel=13, note=75, velocity=47, time=0),
    Message('control_change', channel=13, control=7, value=82, time=2),
    Message('control_change', channel=13, control=7, value=83, time=7),
    Message('note_off', channel=13, note=75, velocity=0, time=3),
    Message('note_off', channel=13, note=78, velocity=0, time=0),
    Message('note_on', channel=13, note=88, velocity=68, time=0),
    Message('note_on', channel=13, note=83, velocity=68, time=0),
    Message('control_change', channel=13, control=7, value=84, time=4),
    Message('control_change', channel=13, control=7, value=85, time=7),
    Message('note_off', channel=13, note=83, velocity=0, time=1),
    Message('note_off', channel=13, note=88, velocity=0, time=0),
    Message('note_on', channel=13, note=87, velocity=51, time=0),
    Message('note_on', channel=13, note=81, velocity=51, time=0),
    Message('control_change', channel=13, control=7, value=86, time=7),
    Message('note_off', channel=13, note=81, velocity=0, time=5),
    Message('note_off', channel=13, note=87, velocity=0, time=0),
    Message('note_on', channel=13, note=84, velocity=53, time=0),
    Message('note_on', channel=13, note=79, velocity=53, time=0),
    Message('control_change', channel=13, control=7, value=87, time=2),
    Message('control_change', channel=13, control=7, value=88, time=7),
    Message('note_off', channel=13, note=79, velocity=0, time=3),
    Message('note_off', channel=13, note=84, velocity=0, time=0),
    Message('note_on', channel=13, note=83, velocity=55, time=0),
    Message('note_on', channel=13, note=78, velocity=55, time=0),
    Message('control_change', channel=13, control=7, value=89, time=4),
    Message('control_change', channel=13, control=7, value=90, time=7),
    Message('note_off', channel=13, note=78, velocity=0, time=1),
    Message('note_off', channel=13, note=83, velocity=0, time=0),
    Message('note_on', channel=13, note=81, velocity=57, time=0),
    Message('note_on', channel=13, note=76, velocity=57, time=0),
    Message('control_change', channel=13, control=7, value=91, time=7),
    Message('note_off', channel=13, note=76, velocity=0, time=5),
    Message('note_off', channel=13, note=81, velocity=0, time=0),
    Message('note_on', channel=13, note=79, velocity=60, time=0),
    Message('note_on', channel=13, note=75, velocity=60, time=0),
    Message('control_change', channel=13, control=7, value=92, time=2),
    Message('control_change', channel=13, control=7, value=93, time=7),
    Message('note_off', channel=13, note=75, velocity=0, time=3),
    Message('note_off', channel=13, note=79, velocity=0, time=0),
    Message('note_on', channel=13, note=78, velocity=63, time=0),
    Message('note_on', channel=13, note=72, velocity=63, time=0),
    Message('control_change', channel=13, control=7, value=94, time=4),
    Message('control_change', channel=13, control=7, value=95, time=7),
    Message('note_off', channel=13, note=72, velocity=0, time=1),
    Message('note_off', channel=13, note=78, velocity=0, time=0),
    Message('note_on', channel=13, note=76, velocity=66, time=0),
    Message('note_on', channel=13, note=71, velocity=66, time=0),
    Message('control_change', channel=13, control=7, value=96, time=7),
    Message('note_off', channel=13, note=71, velocity=0, time=5),
    Message('note_off', channel=13, note=76, velocity=0, time=0),
    Message('note_on', channel=13, note=75, velocity=69, time=0),
    Message('note_on', channel=13, note=69, velocity=69, time=0),
    Message('control_change', channel=13, control=7, value=97, time=2),
    Message('control_change', channel=13, control=7, value=98, time=7),
    Message('note_off', channel=13, note=69, velocity=0, time=3),
    Message('note_off', channel=13, note=75, velocity=0, time=0),
    Message('note_on', channel=13, note=72, velocity=72, time=0),
    Message('note_on', channel=13, note=67, velocity=72, time=0),
    Message('control_change', channel=13, control=7, value=99, time=4),
    Message('note_off', channel=13, note=67, velocity=0, time=7),
    Message('note_off', channel=13, note=72, velocity=0, time=0),
    Message('control_change', channel=13, control=7, value=100, time=0),
    Message('note_on', channel=13, note=74, velocity=75, time=1),
    Message('note_on', channel=13, note=64, velocity=75, time=0),
    Message('control_change', channel=13, control=7, value=99, time=7),
    Message('note_off', channel=13, note=74, velocity=0, time=5),
    Message('note_off', channel=13, note=64, velocity=0, time=0),
    Message('note_on', channel=13, note=72, velocity=73, time=0),
    Message('note_on', channel=13, note=69, velocity=73, time=0),
    Message('control_change', channel=13, control=7, value=98, time=2),
    Message('control_change', channel=13, control=7, value=97, time=7),
    Message('note_off', channel=13, note=69, velocity=0, time=3),
    Message('note_off', channel=13, note=72, velocity=0, time=0),
    Message('note_on', channel=13, note=81, velocity=99, time=0),
    Message('note_on', channel=13, note=78, velocity=99, time=0),
    Message('control_change', channel=13, control=7, value=96, time=4),
    Message('control_change', channel=13, control=7, value=95, time=7),
    Message('note_off', channel=13, note=78, velocity=0, time=1),
    Message('note_off', channel=13, note=81, velocity=0, time=0),
    Message('note_on', channel=13, note=79, velocity=69, time=0),
    Message('note_on', channel=13, note=76, velocity=69, time=0),
    Message('control_change', channel=13, control=7, value=94, time=7),
    Message('note_off', channel=13, note=76, velocity=0, time=5),
    Message('note_off', channel=13, note=79, velocity=0, time=0),
    Message('note_on', channel=13, note=78, velocity=67, time=0),
    Message('note_on', channel=13, note=74, velocity=67, time=0),
    Message('control_change', channel=13, control=7, value=93, time=2),
    Message('control_change', channel=13, control=7, value=92, time=7),
    Message('note_off', channel=13, note=74, velocity=0, time=3),
    Message('note_off', channel=13, note=78, velocity=0, time=0),
    Message('note_on', channel=13, note=76, velocity=65, time=0),
    Message('note_on', channel=13, note=72, velocity=65, time=0),
    Message('control_change', channel=13, control=7, value=91, time=4),
    Message('control_change', channel=13, control=7, value=90, time=7),
    Message('note_off', channel=13, note=72, velocity=0, time=1),
    Message('note_off', channel=13, note=76, velocity=0, time=0),
    Message('note_on', channel=13, note=74, velocity=63, time=0),
    Message('note_on', channel=13, note=71, velocity=63, time=0),
    Message('control_change', channel=13, control=7, value=89, time=7),
    Message('note_off', channel=13, note=74, velocity=0, time=5),
    Message('note_off', channel=13, note=71, velocity=0, time=0),
    Message('note_on', channel=13, note=72, velocity=60, time=0),
    Message('note_on', channel=13, note=69, velocity=60, time=0),
    Message('control_change', channel=13, control=7, value=88, time=2),
    Message('control_change', channel=13, control=7, value=87, time=7),
    Message('note_off', channel=13, note=69, velocity=0, time=3),
    Message('note_off', channel=13, note=72, velocity=0, time=0),
    Message('note_on', channel=13, note=71, velocity=57, time=0),
    Message('note_on', channel=13, note=67, velocity=57, time=0),
    Message('control_change', channel=13, control=7, value=86, time=4),
    Message('control_change', channel=13, control=7, value=85, time=7),
    Message('note_off', channel=13, note=71, velocity=0, time=1),
    Message('note_off', channel=13, note=67, velocity=0, time=0),
    Message('note_on', channel=13, note=69, velocity=54, time=0),
    Message('note_on', channel=13, note=66, velocity=54, time=0),
    Message('control_change', channel=13, control=7, value=84, time=7),
    Message('note_off', channel=13, note=66, velocity=0, time=5),
    Message('note_off', channel=13, note=69, velocity=0, time=0),
    Message('note_on', channel=13, note=67, velocity=51, time=0),
    Message('note_on', channel=13, note=64, velocity=51, time=0),
    Message('control_change', channel=13, control=7, value=83, time=2),
    Message('control_change', channel=13, control=7, value=82, time=7),
    Message('note_off', channel=13, note=64, velocity=0, time=3),
    Message('note_off', channel=13, note=67, velocity=0, time=0),
    Message('note_on', channel=13, note=66, velocity=48, time=0),
    Message('note_on', channel=13, note=63, velocity=48, time=0),
    Message('control_change', channel=13, control=7, value=81, time=4),
    Message('note_off', channel=13, note=63, velocity=0, time=7),
    Message('note_off', channel=13, note=66, velocity=0, time=0),
    Message('control_change', channel=13, control=7, value=80, time=0),
    Message('note_on', channel=13, note=67, velocity=45, time=1),
    Message('note_on', channel=13, note=64, velocity=45, time=0),
    Message('note_off', channel=13, note=67, velocity=0, time=12),
    Message('note_off', channel=13, note=64, velocity=0, time=0),
    Message('note_on', channel=13, note=68, velocity=45, time=0),
    Message('note_on', channel=13, note=65, velocity=45, time=0),
    Message('note_off', channel=13, note=65, velocity=0, time=12),
    Message('note_off', channel=13, note=68, velocity=0, time=0),
    Message('note_on', channel=13, note=67, velocity=45, time=0),
    Message('note_on', channel=13, note=64, velocity=45, time=0),
    Message('note_off', channel=13, note=64, velocity=0, time=24),
    Message('note_off', channel=13, note=67, velocity=0, time=0),
    Message('note_on', channel=13, note=71, velocity=45, time=0),
    Message('note_on', channel=13, note=67, velocity=45, time=0),
    Message('note_off', channel=13, note=67, velocity=0, time=12),
    Message('note_off', channel=13, note=71, velocity=0, time=0),
    Message('note_on', channel=13, note=72, velocity=45, time=0),
    Message('note_on', channel=13, note=68, velocity=45, time=0),
    Message('note_off', channel=13, note=68, velocity=0, time=12),
    Message('note_off', channel=13, note=72, velocity=0, time=0),
    Message('note_on', channel=13, note=71, velocity=45, time=0),
    Message('note_on', channel=13, note=67, velocity=45, time=0),
    Message('note_off', channel=13, note=71, velocity=0, time=24),
    Message('note_off', channel=13, note=67, velocity=0, time=0),
    Message('note_on', channel=13, note=70, velocity=45, time=0),
    Message('note_on', channel=13, note=66, velocity=45, time=0),
    Message('note_off', channel=13, note=70, velocity=0, time=12),
    Message('note_off', channel=13, note=66, velocity=0, time=0),
    Message('note_on', channel=13, note=71, velocity=45, time=0),
    Message('note_on', channel=13, note=67, velocity=45, time=0),
    Message('note_off', channel=13, note=67, velocity=0, time=12),
    Message('note_off', channel=13, note=71, velocity=0, time=0),
    Message('note_on', channel=13, note=70, velocity=45, time=0),
    Message('note_on', channel=13, note=66, velocity=45, time=0),
    Message('note_off', channel=13, note=66, velocity=0, time=23),
    Message('note_off', channel=13, note=70, velocity=0, time=0),
    Message('note_on', channel=13, note=71, velocity=45, time=1),
    Message('note_on', channel=13, note=67, velocity=45, time=0),
    Message('note_off', channel=13, note=71, velocity=0, time=12),
    Message('note_off', channel=13, note=67, velocity=0, time=0),
    Message('note_on', channel=13, note=72, velocity=45, time=0),
    Message('note_on', channel=13, note=68, velocity=45, time=0),
    Message('note_off', channel=13, note=68, velocity=0, time=12),
    Message('note_off', channel=13, note=72, velocity=0, time=0),
    Message('note_on', channel=13, note=71, velocity=45, time=0),
    Message('note_on', channel=13, note=67, velocity=45, time=0),
    Message('note_off', channel=13, note=67, velocity=0, time=24),
    Message('note_off', channel=13, note=71, velocity=0, time=0),
    Message('note_on', channel=13, note=79, velocity=45, time=0),
    Message('note_on', channel=13, note=76, velocity=45, time=0),
    Message('note_off', channel=13, note=76, velocity=0, time=12),
    Message('note_off', channel=13, note=79, velocity=0, time=0),
    Message('note_on', channel=13, note=80, velocity=45, time=0),
    Message('note_on', channel=13, note=77, velocity=45, time=0),
    Message('note_off', channel=13, note=77, velocity=0, time=12),
    Message('note_off', channel=13, note=80, velocity=0, time=0),
    Message('note_on', channel=13, note=79, velocity=45, time=0),
    Message('note_on', channel=13, note=76, velocity=45, time=0),
    Message('note_off', channel=13, note=76, velocity=0, time=24),
    Message('note_off', channel=13, note=79, velocity=0, time=0),
    Message('note_on', channel=13, note=76, velocity=45, time=0),
    Message('note_on', channel=13, note=71, velocity=45, time=0),
    Message('note_off', channel=13, note=76, velocity=0, time=12),
    Message('note_off', channel=13, note=71, velocity=0, time=0),
    Message('note_on', channel=13, note=77, velocity=45, time=0),
    Message('note_on', channel=13, note=72, velocity=45, time=0),
    Message('note_off', channel=13, note=72, velocity=0, time=12),
    Message('note_off', channel=13, note=77, velocity=0, time=0),
    Message('note_on', channel=13, note=76, velocity=45, time=0),
    Message('note_on', channel=13, note=71, velocity=45, time=0),
    Message('note_off', channel=13, note=71, velocity=0, time=23),
    Message('note_off', channel=13, note=76, velocity=0, time=0),
    Message('note_on', channel=13, note=82, velocity=45, time=1),
    Message('note_on', channel=13, note=79, velocity=45, time=0),
    Message('note_off', channel=13, note=82, velocity=0, time=12),
    Message('note_off', channel=13, note=79, velocity=0, time=0),
    Message('note_on', channel=13, note=83, velocity=45, time=0),
    Message('note_on', channel=13, note=80, velocity=45, time=0),
    Message('note_off', channel=13, note=80, velocity=0, time=12),
    Message('note_off', channel=13, note=83, velocity=0, time=0),
    Message('note_on', channel=13, note=82, velocity=45, time=0),
    Message('note_on', channel=13, note=79, velocity=45, time=0),
    Message('note_off', channel=13, note=79, velocity=0, time=24),
    Message('note_off', channel=13, note=82, velocity=0, time=0),
    Message('note_on', channel=13, note=74, velocity=45, time=0),
    Message('note_on', channel=13, note=70, velocity=45, time=0),
    Message('note_off', channel=13, note=70, velocity=0, time=12),
    Message('note_off', channel=13, note=74, velocity=0, time=0),
    Message('note_on', channel=13, note=75, velocity=45, time=0),
    Message('note_on', channel=13, note=71, velocity=45, time=0),
    Message('note_off', channel=13, note=71, velocity=0, time=12),
    Message('note_off', channel=13, note=75, velocity=0, time=0),
    Message('note_on', channel=13, note=74, velocity=45, time=0),
    Message('note_on', channel=13, note=70, velocity=45, time=0),
    Message('note_off', channel=13, note=70, velocity=0, time=24),
    Message('note_off', channel=13, note=74, velocity=0, time=0),
    Message('note_on', channel=13, note=81, velocity=45, time=0),
    Message('note_on', channel=13, note=78, velocity=45, time=0),
    Message('note_off', channel=13, note=81, velocity=0, time=12),
    Message('note_off', channel=13, note=78, velocity=0, time=0),
    Message('note_on', channel=13, note=82, velocity=45, time=0),
    Message('note_on', channel=13, note=79, velocity=45, time=0),
    Message('note_off', channel=13, note=79, velocity=0, time=12),
    Message('note_off', channel=13, note=82, velocity=0, time=0),
    Message('note_on', channel=13, note=81, velocity=45, time=0),
    Message('note_on', channel=13, note=78, velocity=45, time=0),
    Message('note_off', channel=13, note=78, velocity=0, time=23),
    Message('note_off', channel=13, note=81, velocity=0, time=0),
    Message('note_on', channel=13, note=80, velocity=45, time=1),
    Message('note_on', channel=13, note=77, velocity=45, time=0),
    Message('note_off', channel=13, note=80, velocity=0, time=12),
    Message('note_off', channel=13, note=77, velocity=0, time=0),
    Message('note_on', channel=13, note=81, velocity=45, time=0),
    Message('note_on', channel=13, note=78, velocity=45, time=0),
    Message('note_off', channel=13, note=78, velocity=0, time=12),
    Message('note_off', channel=13, note=81, velocity=0, time=0),
    Message('note_on', channel=13, note=80, velocity=45, time=0),
    Message('note_on', channel=13, note=77, velocity=45, time=0),
    Message('note_off', channel=13, note=77, velocity=0, time=24),
    Message('note_off', channel=13, note=80, velocity=0, time=0),
    Message('note_on', channel=13, note=72, velocity=45, time=0),
    Message('note_on', channel=13, note=68, velocity=45, time=0),
    Message('note_off', channel=13, note=68, velocity=0, time=12),
    Message('note_off', channel=13, note=72, velocity=0, time=0),
    Message('note_on', channel=13, note=73, velocity=45, time=0),
    Message('note_on', channel=13, note=69, velocity=45, time=0),
    Message('note_off', channel=13, note=69, velocity=0, time=12),
    Message('note_off', channel=13, note=73, velocity=0, time=0),
    Message('note_on', channel=13, note=72, velocity=45, time=0),
    Message('note_on', channel=13, note=68, velocity=45, time=0),
    Message('note_off', channel=13, note=68, velocity=0, time=24),
    Message('note_off', channel=13, note=72, velocity=0, time=0),
    Message('note_on', channel=13, note=77, velocity=45, time=0),
    Message('note_on', channel=13, note=72, velocity=45, time=0),
    Message('note_off', channel=13, note=77, velocity=0, time=12),
    Message('note_off', channel=13, note=72, velocity=0, time=0),
    Message('note_on', channel=13, note=78, velocity=45, time=0),
    Message('note_on', channel=13, note=73, velocity=45, time=0),
    Message('note_off', channel=13, note=73, velocity=0, time=12),
    Message('note_off', channel=13, note=78, velocity=0, time=0),
    Message('note_on', channel=13, note=77, velocity=45, time=0),
    Message('note_on', channel=13, note=72, velocity=45, time=0),
    Message('note_off', channel=13, note=72, velocity=0, time=23),
    Message('note_off', channel=13, note=77, velocity=0, time=0),
    Message('note_on', channel=13, note=76, velocity=45, time=1),
    Message('note_on', channel=13, note=72, velocity=45, time=0),
    Message('note_off', channel=13, note=76, velocity=0, time=12),
    Message('note_off', channel=13, note=72, velocity=0, time=0),
    Message('note_on', channel=13, note=77, velocity=45, time=0),
    Message('note_on', channel=13, note=73, velocity=45, time=0),
    Message('note_off', channel=13, note=73, velocity=0, time=12),
    Message('note_off', channel=13, note=77, velocity=0, time=0),
    Message('note_on', channel=13, note=76, velocity=45, time=0),
    Message('note_on', channel=13, note=72, velocity=45, time=0),
    Message('note_off', channel=13, note=72, velocity=0, time=24),
    Message('note_off', channel=13, note=76, velocity=0, time=0),
    Message('note_on', channel=13, note=72, velocity=45, time=0),
    Message('note_on', channel=13, note=69, velocity=45, time=0),
    Message('note_off', channel=13, note=69, velocity=0, time=12),
    Message('note_off', channel=13, note=72, velocity=0, time=0),
    Message('note_on', channel=13, note=73, velocity=45, time=0),
    Message('note_on', channel=13, note=70, velocity=45, time=0),
    Message('note_off', channel=13, note=70, velocity=0, time=12),
    Message('note_off', channel=13, note=73, velocity=0, time=0),
    Message('note_on', channel=13, note=72, velocity=45, time=0),
    Message('note_on', channel=13, note=69, velocity=45, time=0),
    Message('note_off', channel=13, note=69, velocity=0, time=24),
    Message('note_off', channel=13, note=72, velocity=0, time=0),
    Message('note_on', channel=13, note=78, velocity=45, time=0),
    Message('note_on', channel=13, note=73, velocity=45, time=0),
    Message('note_off', channel=13, note=78, velocity=0, time=12),
    Message('note_off', channel=13, note=73, velocity=0, time=0),
    Message('note_on', channel=13, note=79, velocity=45, time=0),
    Message('note_on', channel=13, note=74, velocity=45, time=0),
    Message('note_off', channel=13, note=74, velocity=0, time=12),
    Message('note_off', channel=13, note=79, velocity=0, time=0),
    Message('note_on', channel=13, note=78, velocity=45, time=0),
    Message('note_on', channel=13, note=73, velocity=45, time=0),
    Message('note_off', channel=13, note=78, velocity=0, time=24),
    Message('note_off', channel=13, note=73, velocity=0, time=0),
    Message('note_on', channel=13, note=70, velocity=45, time=0),
    Message('note_on', channel=13, note=66, velocity=45, time=0),
    Message('note_off', channel=13, note=70, velocity=0, time=47),
    Message('note_off', channel=13, note=66, velocity=0, time=0),
    Message('note_on', channel=13, note=60, velocity=45, time=1),
    Message('note_off', channel=13, note=60, velocity=0, time=12),
    Message('note_on', channel=13, note=61, velocity=45, time=0),
    Message('note_off', channel=13, note=61, velocity=0, time=12),
    Message('note_on', channel=13, note=62, velocity=45, time=0),
    Message('note_off', channel=13, note=62, velocity=0, time=12),
    Message('note_on', channel=13, note=63, velocity=45, time=0),
    Message('note_off', channel=13, note=63, velocity=0, time=11),
    Message('note_on', channel=13, note=63, velocity=45, time=1),
    Message('note_off', channel=13, note=63, velocity=0, time=12),
    Message('note_on', channel=13, note=64, velocity=45, time=0),
    Message('note_off', channel=13, note=64, velocity=0, time=12),
    Message('note_on', channel=13, note=65, velocity=45, time=0),
    Message('note_off', channel=13, note=65, velocity=0, time=12),
    Message('note_on', channel=13, note=66, velocity=45, time=0),
    Message('note_off', channel=13, note=66, velocity=0, time=11),
    Message('note_on', channel=13, note=67, velocity=45, time=1),
    Message('note_off', channel=13, note=67, velocity=0, time=12),
    Message('note_on', channel=13, note=70, velocity=44, time=0),
    Message('control_change', channel=13, control=7, value=79, time=2),
    Message('note_off', channel=13, note=70, velocity=0, time=10),
    Message('note_on', channel=13, note=71, velocity=43, time=0),
    Message('control_change', channel=13, control=7, value=78, time=4),
    Message('note_off', channel=13, note=71, velocity=0, time=8),
    Message('note_on', channel=13, note=72, velocity=42, time=0),
    Message('control_change', channel=13, control=7, value=77, time=7),
    Message('note_off', channel=13, note=72, velocity=0, time=5),
    Message('note_on', channel=13, note=75, velocity=41, time=0),
    Message('control_change', channel=13, control=7, value=76, time=9),
    Message('note_off', channel=13, note=75, velocity=0, time=3),
    Message('note_on', channel=13, note=76, velocity=40, time=0),
    Message('control_change', channel=13, control=7, value=75, time=11),
    Message('note_off', channel=13, note=76, velocity=0, time=1),
    Message('note_on', channel=13, note=78, velocity=39, time=0),
    Message('note_off', channel=13, note=78, velocity=0, time=12),
    Message('note_on', channel=13, note=79, velocity=38, time=0),
    Message('control_change', channel=13, control=7, value=74, time=2),
    Message('note_off', channel=13, note=79, velocity=0, time=10),
    Message('note_on', channel=13, note=82, velocity=37, time=0),
    Message('control_change', channel=13, control=7, value=73, time=4),
    Message('note_off', channel=13, note=82, velocity=0, time=8),
    Message('note_on', channel=13, note=83, velocity=36, time=0),
    Message('control_change', channel=13, control=7, value=72, time=7),
    Message('note_off', channel=13, note=83, velocity=0, time=5),
    Message('note_on', channel=13, note=84, velocity=34, time=0),
    Message('control_change', channel=13, control=7, value=71, time=9),
    Message('note_off', channel=13, note=84, velocity=0, time=3),
    Message('note_on', channel=13, note=87, velocity=32, time=0),
    Message('control_change', channel=13, control=7, value=70, time=11),
    Message('note_off', channel=13, note=87, velocity=0, time=1),
    Message('note_on', channel=13, note=88, velocity=30, time=0),
    Message('note_off', channel=13, note=88, velocity=0, time=47),
    Message('control_change', channel=13, control=7, value=80, time=1201),
    Message('note_on', channel=13, note=66, velocity=45, time=0),
    Message('note_off', channel=13, note=66, velocity=0, time=16),
    Message('note_on', channel=13, note=64, velocity=45, time=0),
    Message('note_off', channel=13, note=64, velocity=0, time=16),
    Message('note_on', channel=13, note=63, velocity=45, time=0),
    Message('note_off', channel=13, note=63, velocity=0, time=15),
    Message('note_on', channel=13, note=64, velocity=45, time=1),
    Message('note_off', channel=13, note=64, velocity=0, time=16),
    Message('note_on', channel=13, note=63, velocity=45, time=0),
    Message('note_off', channel=13, note=63, velocity=0, time=16),
    Message('note_on', channel=13, note=64, velocity=45, time=0),
    Message('note_off', channel=13, note=64, velocity=0, time=16),
    Message('note_on', channel=13, note=66, velocity=45, time=0),
    Message('note_off', channel=13, note=66, velocity=0, time=16),
    Message('note_on', channel=13, note=64, velocity=45, time=0),
    Message('note_off', channel=13, note=64, velocity=0, time=16),
    Message('note_on', channel=13, note=63, velocity=45, time=0),
    Message('note_off', channel=13, note=63, velocity=0, time=16),
    Message('note_on', channel=13, note=64, velocity=45, time=0),
    Message('note_off', channel=13, note=64, velocity=0, time=16),
    Message('note_on', channel=13, note=63, velocity=45, time=0),
    Message('note_off', channel=13, note=63, velocity=0, time=16),
    Message('note_on', channel=13, note=64, velocity=45, time=0),
    Message('note_off', channel=13, note=64, velocity=0, time=15),
    Message('note_on', channel=13, note=64, velocity=45, time=1),
    Message('note_off', channel=13, note=64, velocity=0, time=16),
    Message('note_on', channel=13, note=63, velocity=45, time=0),
    Message('note_off', channel=13, note=63, velocity=0, time=16),
    Message('note_on', channel=13, note=64, velocity=45, time=0),
    Message('note_off', channel=13, note=64, velocity=0, time=15),
    Message('note_on', channel=13, note=64, velocity=45, time=1),
    Message('note_off', channel=13, note=64, velocity=0, time=16),
    Message('note_on', channel=13, note=63, velocity=45, time=0),
    Message('note_off', channel=13, note=63, velocity=0, time=16),
    Message('note_on', channel=13, note=64, velocity=45, time=0),
    Message('note_off', channel=13, note=64, velocity=0, time=15),
    Message('note_on', channel=13, note=64, velocity=45, time=1),
    Message('note_off', channel=13, note=64, velocity=0, time=16),
    Message('note_on', channel=13, note=63, velocity=45, time=0),
    Message('note_off', channel=13, note=63, velocity=0, time=16),
    Message('note_on', channel=13, note=64, velocity=45, time=0),
    Message('note_off', channel=13, note=64, velocity=0, time=15),
    Message('note_on', channel=13, note=55, velocity=45, time=1),
    Message('note_off', channel=13, note=55, velocity=0, time=16),
    Message('note_on', channel=13, note=58, velocity=45, time=0),
    Message('note_off', channel=13, note=58, velocity=0, time=16),
    Message('note_on', channel=13, note=62, velocity=45, time=0),
    Message('note_off', channel=13, note=62, velocity=0, time=16),
    Message('note_on', channel=13, note=67, velocity=45, time=0),
    Message('note_off', channel=13, note=67, velocity=0, time=16),
    Message('note_on', channel=13, note=70, velocity=45, time=0),
    Message('note_off', channel=13, note=70, velocity=0, time=16),
    Message('note_on', channel=13, note=74, velocity=45, time=0),
    Message('note_off', channel=13, note=74, velocity=0, time=16),
    Message('note_on', channel=13, note=70, velocity=45, time=0),
    Message('note_off', channel=13, note=70, velocity=0, time=16),
    Message('note_on', channel=13, note=67, velocity=45, time=0),
    Message('note_off', channel=13, note=67, velocity=0, time=16),
    Message('note_on', channel=13, note=62, velocity=45, time=0),
    Message('note_off', channel=13, note=62, velocity=0, time=15),
    Message('note_on', channel=13, note=56, velocity=45, time=1),
    Message('note_off', channel=13, note=56, velocity=0, time=16),
    Message('note_on', channel=13, note=60, velocity=45, time=0),
    Message('note_off', channel=13, note=60, velocity=0, time=16),
    Message('note_on', channel=13, note=65, velocity=45, time=0),
    Message('note_off', channel=13, note=65, velocity=0, time=16),
    Message('note_on', channel=13, note=68, velocity=45, time=0),
    Message('note_off', channel=13, note=68, velocity=0, time=16),
    Message('note_on', channel=13, note=72, velocity=45, time=0),
    Message('note_off', channel=13, note=72, velocity=0, time=16),
    Message('note_on', channel=13, note=68, velocity=45, time=0),
    Message('note_off', channel=13, note=68, velocity=0, time=16),
    Message('note_on', channel=13, note=65, velocity=45, time=0),
    Message('note_off', channel=13, note=65, velocity=0, time=16),
    Message('note_on', channel=13, note=60, velocity=45, time=0),
    Message('note_off', channel=13, note=60, velocity=0, time=16),
    Message('note_on', channel=13, note=56, velocity=45, time=0),
    Message('note_off', channel=13, note=56, velocity=0, time=15),
    Message('note_on', channel=13, note=55, velocity=45, time=1),
    Message('note_off', channel=13, note=55, velocity=0, time=16),
    Message('note_on', channel=13, note=60, velocity=45, time=0),
    Message('note_off', channel=13, note=60, velocity=0, time=16),
    Message('note_on', channel=13, note=59, velocity=45, time=0),
    Message('note_off', channel=13, note=59, velocity=0, time=16),
    Message('note_on', channel=13, note=67, velocity=45, time=0),
    Message('note_off', channel=13, note=67, velocity=0, time=16),
    Message('note_on', channel=13, note=64, velocity=45, time=0),
    Message('note_off', channel=13, note=64, velocity=0, time=16),
    Message('note_on', channel=13, note=59, velocity=45, time=0),
    Message('note_off', channel=13, note=59, velocity=0, time=16),
    Message('note_on', channel=13, note=55, velocity=45, time=0),
    Message('note_off', channel=13, note=55, velocity=0, time=16),
    Message('note_on', channel=13, note=58, velocity=45, time=0),
    Message('note_off', channel=13, note=58, velocity=0, time=16),
    Message('note_on', channel=13, note=59, velocity=45, time=0),
    Message('note_off', channel=13, note=59, velocity=0, time=15),
    Message('note_on', channel=13, note=55, velocity=45, time=1),
    Message('note_off', channel=13, note=55, velocity=0, time=16),
    Message('note_on', channel=13, note=64, velocity=45, time=0),
    Message('note_off', channel=13, note=64, velocity=0, time=16),
    Message('note_on', channel=13, note=60, velocity=45, time=0),
    Message('note_off', channel=13, note=60, velocity=0, time=16),
    Message('note_on', channel=13, note=55, velocity=45, time=0),
    Message('note_off', channel=13, note=55, velocity=0, time=16),
    Message('note_on', channel=13, note=64, velocity=45, time=0),
    Message('note_off', channel=13, note=64, velocity=0, time=16),
    Message('note_on', channel=13, note=57, velocity=45, time=0),
    Message('note_off', channel=13, note=57, velocity=0, time=16),
    Message('note_on', channel=13, note=58, velocity=45, time=0),
    Message('note_off', channel=13, note=58, velocity=0, time=16),
    Message('note_on', channel=13, note=60, velocity=45, time=0),
    Message('note_off', channel=13, note=60, velocity=0, time=16),
    Message('note_on', channel=13, note=64, velocity=45, time=0),
    Message('note_off', channel=13, note=64, velocity=0, time=15),
    Message('note_on', channel=13, note=58, velocity=45, time=1),
    Message('note_off', channel=13, note=58, velocity=0, time=16),
    Message('note_on', channel=13, note=59, velocity=45, time=0),
    Message('note_off', channel=13, note=59, velocity=0, time=16),
    Message('note_on', channel=13, note=63, velocity=45, time=0),
    Message('note_off', channel=13, note=63, velocity=0, time=16),
    Message('note_on', channel=13, note=64, velocity=45, time=0),
    Message('note_off', channel=13, note=64, velocity=0, time=16),
    Message('note_on', channel=13, note=66, velocity=45, time=0),
    Message('note_off', channel=13, note=66, velocity=0, time=16),
    Message('note_on', channel=13, note=67, velocity=45, time=0),
    Message('note_off', channel=13, note=67, velocity=0, time=15),
    Message('note_on', channel=13, note=72, velocity=45, time=1),
    Message('note_off', channel=13, note=72, velocity=0, time=16),
    Message('note_on', channel=13, note=71, velocity=45, time=0),
    Message('note_off', channel=13, note=71, velocity=0, time=16),
    Message('note_on', channel=13, note=67, velocity=45, time=0),
    Message('note_off', channel=13, note=67, velocity=0, time=16),
    Message('note_on', channel=13, note=64, velocity=45, time=0),
    Message('note_off', channel=13, note=64, velocity=0, time=47),
    Message('control_change', channel=13, control=7, value=100, time=3313),
    Message('note_on', channel=13, note=64, velocity=75, time=0),
    Message('note_off', channel=13, note=64, velocity=0, time=24),
    Message('note_on', channel=13, note=62, velocity=75, time=0),
    Message('note_off', channel=13, note=62, velocity=0, time=24),
    Message('note_on', channel=13, note=60, velocity=75, time=0),
    Message('note_off', channel=13, note=60, velocity=0, time=24),
    Message('note_on', channel=13, note=59, velocity=75, time=0),
    Message('note_off', channel=13, note=59, velocity=0, time=24),
    Message('note_on', channel=13, note=57, velocity=75, time=0),
    Message('note_off', channel=13, note=57, velocity=0, time=47),
    Message('note_on', channel=13, note=64, velocity=75, time=1393),
    Message('note_off', channel=13, note=64, velocity=0, time=24),
    Message('note_on', channel=13, note=62, velocity=75, time=0),
    Message('note_off', channel=13, note=62, velocity=0, time=24),
    Message('note_on', channel=13, note=60, velocity=75, time=0),
    Message('note_off', channel=13, note=60, velocity=0, time=24),
    Message('note_on', channel=13, note=59, velocity=75, time=0),
    Message('note_off', channel=13, note=59, velocity=0, time=24),
    Message('note_on', channel=13, note=57, velocity=75, time=0),
    Message('note_off', channel=13, note=57, velocity=0, time=47),
    Message('note_on', channel=13, note=65, velocity=75, time=241),
    Message('note_off', channel=13, note=65, velocity=0, time=24),
    Message('note_on', channel=13, note=63, velocity=75, time=0),
    Message('note_off', channel=13, note=63, velocity=0, time=24),
    Message('note_on', channel=13, note=61, velocity=75, time=0),
    Message('note_off', channel=13, note=61, velocity=0, time=24),
    Message('note_on', channel=13, note=60, velocity=75, time=0),
    Message('note_off', channel=13, note=60, velocity=0, time=24),
    Message('note_on', channel=13, note=58, velocity=75, time=0),
    Message('note_off', channel=13, note=58, velocity=0, time=47),
    Message('note_on', channel=13, note=76, velocity=75, time=241),
    Message('note_off', channel=13, note=76, velocity=0, time=24),
    Message('note_on', channel=13, note=74, velocity=75, time=0),
    Message('note_off', channel=13, note=74, velocity=0, time=24),
    Message('note_on', channel=13, note=72, velocity=75, time=0),
    Message('note_off', channel=13, note=72, velocity=0, time=24),
    Message('note_on', channel=13, note=71, velocity=75, time=0),
    Message('note_off', channel=13, note=71, velocity=0, time=24),
    Message('note_on', channel=13, note=69, velocity=75, time=0),
    Message('note_off', channel=13, note=69, velocity=0, time=47),
    Message('note_on', channel=13, note=72, velocity=75, time=193),
    Message('control_change', channel=13, control=7, value=99, time=5),
    Message('control_change', channel=13, control=7, value=98, time=6),
    Message('control_change', channel=13, control=7, value=97, time=5),
    Message('control_change', channel=13, control=7, value=96, time=6),
    Message('control_change', channel=13, control=7, value=95, time=5),
    Message('control_change', channel=13, control=7, value=94, time=6),
    Message('control_change', channel=13, control=7, value=93, time=6),
    Message('control_change', channel=13, control=7, value=92, time=5),
    Message('note_off', channel=13, note=72, velocity=0, time=3),
    Message('note_on', channel=13, note=65, velocity=66, time=1),
    Message('control_change', channel=13, control=7, value=91, time=2),
    Message('control_change', channel=13, control=7, value=90, time=5),
    Message('control_change', channel=13, control=7, value=89, time=6),
    Message('control_change', channel=13, control=7, value=88, time=6),
    Message('control_change', channel=13, control=7, value=87, time=5),
    Message('control_change', channel=13, control=7, value=86, time=6),
    Message('control_change', channel=13, control=7, value=85, time=5),
    Message('control_change', channel=13, control=7, value=84, time=6),
    Message('note_off', channel=13, note=65, velocity=0, time=6),
    Message('control_change', channel=13, control=7, value=83, time=0),
    Message('note_on', channel=13, note=60, velocity=57, time=1),
    Message('control_change', channel=13, control=7, value=82, time=4),
    Message('control_change', channel=13, control=7, value=81, time=6),
    Message('control_change', channel=13, control=7, value=80, time=5),
    Message('control_change', channel=13, control=7, value=79, time=6),
    Message('control_change', channel=13, control=7, value=78, time=6),
    Message('control_change', channel=13, control=7, value=77, time=5),
    Message('control_change', channel=13, control=7, value=76, time=6),
    Message('control_change', channel=13, control=7, value=75, time=5),
    Message('note_off', channel=13, note=60, velocity=0, time=4),
    Message('note_on', channel=13, note=59, velocity=48, time=1),
    Message('control_change', channel=13, control=7, value=74, time=1),
    Message('control_change', channel=13, control=7, value=73, time=6),
    Message('control_change', channel=13, control=7, value=72, time=5),
    Message('control_change', channel=13, control=7, value=71, time=6),
    Message('control_change', channel=13, control=7, value=70, time=5),
    Message('control_change', channel=13, control=7, value=69, time=6),
    Message('control_change', channel=13, control=7, value=68, time=6),
    Message('control_change', channel=13, control=7, value=67, time=5),
    Message('control_change', channel=13, control=7, value=66, time=6),
    Message('control_change', channel=13, control=7, value=65, time=5),
    Message('control_change', channel=13, control=7, value=64, time=6),
    Message('control_change', channel=13, control=7, value=63, time=6),
    Message('control_change', channel=13, control=7, value=62, time=5),
    Message('control_change', channel=13, control=7, value=61, time=6),
    Message('control_change', channel=13, control=7, value=60, time=5),
    Message('note_off', channel=13, note=59, velocity=0, time=1),
    Message('control_change', channel=13, control=7, value=59, time=5),
    Message('control_change', channel=13, control=7, value=58, time=6),
    Message('control_change', channel=13, control=7, value=57, time=5),
    Message('control_change', channel=13, control=7, value=56, time=6),
    Message('control_change', channel=13, control=7, value=55, time=5),
    Message('control_change', channel=13, control=7, value=54, time=6),
    Message('control_change', channel=13, control=7, value=53, time=6),
    Message('control_change', channel=13, control=7, value=52, time=5),
    Message('control_change', channel=13, control=7, value=51, time=6),
    Message('control_change', channel=13, control=7, value=50, time=5),
    Message('control_change', channel=13, control=7, value=49, time=6),
    Message('control_change', channel=13, control=7, value=48, time=6),
    Message('control_change', channel=13, control=7, value=47, time=5),
    Message('control_change', channel=13, control=7, value=46, time=6),
    Message('control_change', channel=13, control=7, value=45, time=5),
    Message('control_change', channel=13, control=7, value=44, time=6),
    Message('control_change', channel=13, control=7, value=43, time=6),
    Message('control_change', channel=13, control=7, value=42, time=5),
    Message('control_change', channel=13, control=7, value=41, time=6),
    Message('control_change', channel=13, control=7, value=40, time=5),
    Message('control_change', channel=13, control=7, value=100, time=3361),
    Message('note_on', channel=13, note=64, velocity=75, time=0),
    Message('note_off', channel=13, note=64, velocity=0, time=24),
    Message('note_on', channel=13, note=62, velocity=75, time=0),
    Message('note_off', channel=13, note=62, velocity=0, time=24),
    Message('note_on', channel=13, note=60, velocity=75, time=0),
    Message('note_off', channel=13, note=60, velocity=0, time=24),
    Message('note_on', channel=13, note=59, velocity=75, time=0),
    Message('note_off', channel=13, note=59, velocity=0, time=23),
    Message('note_on', channel=13, note=57, velocity=75, time=1),
    Message('note_off', channel=13, note=57, velocity=0, time=24),
    Message('note_on', channel=13, note=60, velocity=75, time=0),
    Message('note_off', channel=13, note=60, velocity=0, time=24),
    Message('note_on', channel=13, note=64, velocity=75, time=0),
    Message('note_off', channel=13, note=64, velocity=0, time=24),
    Message('note_on', channel=13, note=69, velocity=75, time=0),
    Message('note_off', channel=13, note=69, velocity=0, time=24),
    Message('note_on', channel=13, note=72, velocity=75, time=0),
    Message('note_off', channel=13, note=72, velocity=0, time=24),
    Message('note_on', channel=13, note=76, velocity=75, time=0),
    Message('note_off', channel=13, note=76, velocity=0, time=24),
    Message('note_on', channel=13, note=81, velocity=75, time=0),
    Message('note_off', channel=13, note=81, velocity=0, time=24),
    Message('note_on', channel=13, note=84, velocity=75, time=0),
    Message('note_off', channel=13, note=84, velocity=0, time=24),
    Message('note_on', channel=13, note=88, velocity=75, time=0),
    Message('note_off', channel=13, note=88, velocity=0, time=24),
    Message('note_on', channel=13, note=84, velocity=75, time=0),
    Message('note_off', channel=13, note=84, velocity=0, time=24),
    Message('note_on', channel=13, note=81, velocity=75, time=0),
    Message('note_off', channel=13, note=81, velocity=0, time=24),
    Message('note_on', channel=13, note=76, velocity=75, time=0),
    Message('note_off', channel=13, note=76, velocity=0, time=24),
    Message('note_on', channel=13, note=72, velocity=75, time=0),
    Message('note_off', channel=13, note=72, velocity=0, time=24),
    Message('note_on', channel=13, note=76, velocity=75, time=0),
    Message('note_off', channel=13, note=76, velocity=0, time=24),
    Message('note_on', channel=13, note=72, velocity=75, time=0),
    Message('note_off', channel=13, note=72, velocity=0, time=24),
    Message('note_on', channel=13, note=69, velocity=75, time=0),
    Message('note_off', channel=13, note=69, velocity=0, time=23),
    Message('note_on', channel=13, note=77, velocity=75, time=1),
    Message('note_off', channel=13, note=77, velocity=0, time=24),
    Message('note_on', channel=13, note=73, velocity=75, time=0),
    Message('note_off', channel=13, note=73, velocity=0, time=24),
    Message('note_on', channel=13, note=70, velocity=75, time=0),
    Message('note_off', channel=13, note=70, velocity=0, time=24),
    Message('note_on', channel=13, note=73, velocity=75, time=0),
    Message('note_off', channel=13, note=73, velocity=0, time=24),
    Message('note_on', channel=13, note=76, velocity=75, time=0),
    Message('note_off', channel=13, note=76, velocity=0, time=24),
    Message('note_on', channel=13, note=73, velocity=75, time=0),
    Message('note_off', channel=13, note=73, velocity=0, time=24),
    Message('note_on', channel=13, note=70, velocity=75, time=0),
    Message('note_off', channel=13, note=70, velocity=0, time=24),
    Message('note_on', channel=13, note=73, velocity=75, time=0),
    Message('note_off', channel=13, note=73, velocity=0, time=24),
    Message('note_on', channel=13, note=76, velocity=75, time=0),
    Message('note_off', channel=13, note=76, velocity=0, time=24),
    Message('note_on', channel=13, note=72, velocity=75, time=0),
    Message('note_off', channel=13, note=72, velocity=0, time=24),
    Message('note_on', channel=13, note=69, velocity=75, time=0),
    Message('note_off', channel=13, note=69, velocity=0, time=24),
    Message('note_on', channel=13, note=64, velocity=75, time=0),
    Message('note_off', channel=13, note=64, velocity=0, time=24),
    Message('note_on', channel=13, note=60, velocity=75, time=0),
    Message('note_off', channel=13, note=60, velocity=0, time=24),
    Message('note_on', channel=13, note=64, velocity=75, time=0),
    Message('note_off', channel=13, note=64, velocity=0, time=24),
    Message('note_on', channel=13, note=69, velocity=75, time=0),
    Message('note_off', channel=13, note=69, velocity=0, time=24),
    Message('note_on', channel=13, note=72, velocity=75, time=0),
    Message('note_off', channel=13, note=72, velocity=0, time=23),
    Message('note_on', channel=13, note=74, velocity=75, time=1),
    Message('note_off', channel=13, note=74, velocity=0, time=24),
    Message('note_on', channel=13, note=69, velocity=75, time=0),
    Message('note_off', channel=13, note=69, velocity=0, time=24),
    Message('note_on', channel=13, note=65, velocity=75, time=0),
    Message('note_off', channel=13, note=65, velocity=0, time=24),
    Message('note_on', channel=13, note=62, velocity=75, time=0),
    Message('note_off', channel=13, note=62, velocity=0, time=24),
    Message('note_on', channel=13, note=57, velocity=75, time=0),
    Message('note_off', channel=13, note=57, velocity=0, time=24),
    Message('note_on', channel=13, note=62, velocity=75, time=0),
    Message('note_off', channel=13, note=62, velocity=0, time=24),
    Message('note_on', channel=13, note=64, velocity=75, time=0),
    Message('note_off', channel=13, note=64, velocity=0, time=24),
    Message('note_on', channel=13, note=68, velocity=75, time=0),
    Message('note_off', channel=13, note=68, velocity=0, time=23),
    Message('note_on', channel=13, note=69, velocity=75, time=1),
    Message('note_off', channel=13, note=69, velocity=0, time=24),
    Message('note_on', channel=13, note=74, velocity=75, time=0),
    Message('note_off', channel=13, note=74, velocity=0, time=24),
    Message('note_on', channel=13, note=69, velocity=75, time=0),
    Message('note_off', channel=13, note=69, velocity=0, time=24),
    Message('note_on', channel=13, note=65, velocity=75, time=0),
    Message('note_off', channel=13, note=65, velocity=0, time=24),
    Message('note_on', channel=13, note=62, velocity=75, time=0),
    Message('note_off', channel=13, note=62, velocity=0, time=24),
    Message('note_on', channel=13, note=69, velocity=75, time=0),
    Message('note_off', channel=13, note=69, velocity=0, time=24),
    Message('note_on', channel=13, note=65, velocity=75, time=0),
    Message('note_off', channel=13, note=65, velocity=0, time=24),
    Message('note_on', channel=13, note=62, velocity=75, time=0),
    Message('note_off', channel=13, note=62, velocity=0, time=23),
    Message('note_on', channel=13, note=57, velocity=75, time=1),
    Message('note_off', channel=13, note=57, velocity=0, time=24),
    Message('note_on', channel=13, note=60, velocity=75, time=0),
    Message('note_off', channel=13, note=60, velocity=0, time=24),
    Message('note_on', channel=13, note=64, velocity=75, time=0),
    Message('note_off', channel=13, note=64, velocity=0, time=24),
    Message('note_on', channel=13, note=69, velocity=75, time=0),
    Message('note_off', channel=13, note=69, velocity=0, time=24),
    Message('note_on', channel=13, note=72, velocity=75, time=0),
    Message('note_off', channel=13, note=72, velocity=0, time=24),
    Message('note_on', channel=13, note=76, velocity=75, time=0),
    Message('note_off', channel=13, note=76, velocity=0, time=24),
    Message('note_on', channel=13, note=81, velocity=75, time=0),
    Message('note_off', channel=13, note=81, velocity=0, time=24),
    Message('note_on', channel=13, note=84, velocity=75, time=0),
    Message('note_off', channel=13, note=84, velocity=0, time=24),
    Message('note_on', channel=13, note=87, velocity=75, time=0),
    Message('note_off', channel=13, note=87, velocity=0, time=168),
    Message('note_on', channel=13, note=57, velocity=75, time=24),
    Message('note_off', channel=13, note=57, velocity=0, time=24),
    Message('note_on', channel=13, note=60, velocity=75, time=0),
    Message('note_off', channel=13, note=60, velocity=0, time=24),
    Message('note_on', channel=13, note=64, velocity=75, time=0),
    Message('note_off', channel=13, note=64, velocity=0, time=24),
    Message('note_on', channel=13, note=69, velocity=75, time=0),
    Message('note_off', channel=13, note=69, velocity=0, time=24),
    Message('note_on', channel=13, note=72, velocity=75, time=0),
    Message('note_off', channel=13, note=72, velocity=0, time=24),
    Message('note_on', channel=13, note=76, velocity=75, time=0),
    Message('note_off', channel=13, note=76, velocity=0, time=24),
    Message('note_on', channel=13, note=81, velocity=75, time=0),
    Message('note_off', channel=13, note=81, velocity=0, time=24),
    Message('note_on', channel=13, note=84, velocity=75, time=0),
    Message('note_off', channel=13, note=84, velocity=0, time=24),
    Message('note_on', channel=13, note=88, velocity=75, time=0),
    Message('note_off', channel=13, note=88, velocity=0, time=24),
    Message('note_on', channel=13, note=84, velocity=75, time=0),
    Message('note_off', channel=13, note=84, velocity=0, time=24),
    Message('note_on', channel=13, note=81, velocity=75, time=0),
    Message('note_off', channel=13, note=81, velocity=0, time=24),
    Message('note_on', channel=13, note=76, velocity=75, time=0),
    Message('note_off', channel=13, note=76, velocity=0, time=24),
    Message('note_on', channel=13, note=72, velocity=75, time=0),
    Message('note_off', channel=13, note=72, velocity=0, time=24),
    Message('note_on', channel=13, note=76, velocity=75, time=0),
    Message('note_off', channel=13, note=76, velocity=0, time=24),
    Message('note_on', channel=13, note=72, velocity=75, time=0),
    Message('note_off', channel=13, note=72, velocity=0, time=24),
    Message('note_on', channel=13, note=69, velocity=75, time=0),
    Message('note_off', channel=13, note=69, velocity=0, time=23),
    Message('note_on', channel=13, note=79, velocity=75, time=1),
    Message('note_off', channel=13, note=79, velocity=0, time=24),
    Message('note_on', channel=13, note=75, velocity=75, time=0),
    Message('note_off', channel=13, note=75, velocity=0, time=24),
    Message('note_on', channel=13, note=72, velocity=75, time=0),
    Message('note_off', channel=13, note=72, velocity=0, time=24),
    Message('note_on', channel=13, note=75, velocity=75, time=0),
    Message('note_off', channel=13, note=75, velocity=0, time=24),
    Message('note_on', channel=13, note=77, velocity=75, time=0),
    Message('note_off', channel=13, note=77, velocity=0, time=24),
    Message('note_on', channel=13, note=73, velocity=75, time=0),
    Message('note_off', channel=13, note=73, velocity=0, time=24),
    Message('note_on', channel=13, note=70, velocity=75, time=0),
    Message('note_off', channel=13, note=70, velocity=0, time=24),
    Message('note_on', channel=13, note=73, velocity=75, time=0),
    Message('note_off', channel=13, note=73, velocity=0, time=24),
    Message('note_on', channel=13, note=77, velocity=75, time=0),
    Message('note_off', channel=13, note=77, velocity=0, time=24),
    Message('note_on', channel=13, note=73, velocity=75, time=0),
    Message('note_off', channel=13, note=73, velocity=0, time=24),
    Message('note_on', channel=13, note=70, velocity=75, time=0),
    Message('note_off', channel=13, note=70, velocity=0, time=24),
    Message('note_on', channel=13, note=65, velocity=75, time=0),
    Message('note_off', channel=13, note=65, velocity=0, time=24),
    Message('note_on', channel=13, note=61, velocity=75, time=0),
    Message('note_off', channel=13, note=61, velocity=0, time=24),
    Message('note_on', channel=13, note=65, velocity=75, time=0),
    Message('note_off', channel=13, note=65, velocity=0, time=24),
    Message('note_on', channel=13, note=70, velocity=75, time=0),
    Message('note_off', channel=13, note=70, velocity=0, time=24),
    Message('note_on', channel=13, note=73, velocity=75, time=0),
    Message('note_off', channel=13, note=73, velocity=0, time=23),
    Message('note_on', channel=13, note=77, velocity=75, time=1),
    Message('note_off', channel=13, note=77, velocity=0, time=24),
    Message('note_on', channel=13, note=73, velocity=75, time=0),
    Message('note_off', channel=13, note=73, velocity=0, time=24),
    Message('note_on', channel=13, note=70, velocity=75, time=0),
    Message('note_off', channel=13, note=70, velocity=0, time=24),
    Message('note_on', channel=13, note=73, velocity=75, time=0),
    Message('note_off', channel=13, note=73, velocity=0, time=24),
    Message('note_on', channel=13, note=76, velocity=75, time=0),
    Message('note_off', channel=13, note=76, velocity=0, time=24),
    Message('note_on', channel=13, note=73, velocity=75, time=0),
    Message('note_off', channel=13, note=73, velocity=0, time=24),
    Message('note_on', channel=13, note=70, velocity=75, time=0),
    Message('note_off', channel=13, note=70, velocity=0, time=24),
    Message('note_on', channel=13, note=73, velocity=75, time=0),
    Message('note_off', channel=13, note=73, velocity=0, time=24),
    Message('note_on', channel=13, note=76, velocity=75, time=0),
    Message('note_off', channel=13, note=76, velocity=0, time=24),
    Message('note_on', channel=13, note=72, velocity=75, time=0),
    Message('note_off', channel=13, note=72, velocity=0, time=24),
    Message('note_on', channel=13, note=69, velocity=75, time=0),
    Message('note_off', channel=13, note=69, velocity=0, time=24),
    Message('note_on', channel=13, note=64, velocity=75, time=0),
    Message('note_off', channel=13, note=64, velocity=0, time=24),
    Message('note_on', channel=13, note=60, velocity=75, time=0),
    Message('note_off', channel=13, note=60, velocity=0, time=24),
    Message('note_on', channel=13, note=64, velocity=75, time=0),
    Message('note_off', channel=13, note=64, velocity=0, time=24),
    Message('note_on', channel=13, note=68, velocity=75, time=0),
    Message('note_off', channel=13, note=68, velocity=0, time=24),
    Message('note_on', channel=13, note=69, velocity=75, time=0),
    Message('note_off', channel=13, note=69, velocity=0, time=23),
    Message('note_on', channel=13, note=72, velocity=75, time=1),
    Message('note_on', channel=13, note=64, velocity=75, time=0),
    Message('note_off', channel=13, note=72, velocity=0, time=192),
    Message('note_off', channel=13, note=64, velocity=0, time=0),
    Message('note_on', channel=13, note=76, velocity=75, time=0),
    Message('note_on', channel=13, note=69, velocity=75, time=0),
    Message('note_off', channel=13, note=69, velocity=0, time=168),
    Message('note_off', channel=13, note=76, velocity=0, time=0),
    Message('note_on', channel=13, note=80, velocity=75, time=24),
    Message('note_on', channel=13, note=72, velocity=75, time=0),
    Message('note_off', channel=13, note=80, velocity=0, time=192),
    Message('note_off', channel=13, note=72, velocity=0, time=0),
    Message('note_on', channel=13, note=88, velocity=75, time=0),
    Message('note_on', channel=13, note=80, velocity=75, time=0),
    Message('note_on', channel=13, note=71, velocity=75, time=0),
    Message('note_off', channel=13, note=71, velocity=0, time=168),
    Message('note_off', channel=13, note=80, velocity=0, time=0),
    Message('note_off', channel=13, note=88, velocity=0, time=0),
    Message('control_change', channel=13, control=7, value=90, time=120),
    Message('note_on', channel=13, note=64, velocity=60, time=0),
    Message('note_off', channel=13, note=64, velocity=0, time=24),
    Message('note_on', channel=13, note=62, velocity=60, time=0),
    Message('note_off', channel=13, note=62, velocity=0, time=24),
    Message('note_on', channel=13, note=60, velocity=60, time=0),
    Message('note_off', channel=13, note=60, velocity=0, time=24),
    Message('note_on', channel=13, note=59, velocity=60, time=0),
    Message('note_off', channel=13, note=59, velocity=0, time=24),
    Message('note_on', channel=13, note=57, velocity=60, time=0),
    Message('note_off', channel=13, note=57, velocity=0, time=47),
    Message('note_on', channel=13, note=69, velocity=60, time=49),
    Message('control_change', channel=13, control=7, value=91, time=9),
    Message('control_change', channel=13, control=7, value=92, time=10),
    Message('note_off', channel=13, note=69, velocity=0, time=5),
    Message('note_on', channel=13, note=67, velocity=63, time=0),
    Message('control_change', channel=13, control=7, value=93, time=4),
    Message('control_change', channel=13, control=7, value=94, time=10),
    Message('note_off', channel=13, note=67, velocity=0, time=10),
    Message('control_change', channel=13, control=7, value=95, time=0),
    Message('note_on', channel=13, note=66, velocity=67, time=0),
    Message('control_change', channel=13, control=7, value=96, time=9),
    Message('control_change', channel=13, control=7, value=97, time=10),
    Message('note_off', channel=13, note=66, velocity=0, time=5),
    Message('note_on', channel=13, note=65, velocity=71, time=0),
    Message('control_change', channel=13, control=7, value=98, time=4),
    Message('control_change', channel=13, control=7, value=99, time=10),
    Message('note_off', channel=13, note=65, velocity=0, time=9),
    Message('control_change', channel=13, control=7, value=100, time=1),
    Message('note_on', channel=13, note=64, velocity=75, time=0),
    Message('note_off', channel=13, note=64, velocity=0, time=24),
    Message('note_on', channel=13, note=62, velocity=76, time=0),
    Message('control_change', channel=13, control=7, value=101, time=4),
    Message('note_off', channel=13, note=62, velocity=0, time=20),
    Message('note_on', channel=13, note=60, velocity=77, time=0),
    Message('control_change', channel=13, control=7, value=102, time=9),
    Message('note_off', channel=13, note=60, velocity=0, time=15),
    Message('note_on', channel=13, note=59, velocity=78, time=0),
    Message('control_change', channel=13, control=7, value=103, time=14),
    Message('note_off', channel=13, note=59, velocity=0, time=10),
    Message('note_on', channel=13, note=69, velocity=79, time=0),
    Message('note_on', channel=13, note=57, velocity=79, time=0),
    Message('control_change', channel=13, control=7, value=104, time=19),
    Message('note_off', channel=13, note=69, velocity=0, time=5),
    Message('note_on', channel=13, note=67, velocity=80, time=0),
    Message('note_off', channel=13, note=57, velocity=0, time=23),
    Message('control_change', channel=13, control=7, value=105, time=0),
    Message('note_off', channel=13, note=67, velocity=0, time=1),
    Message('note_on', channel=13, note=66, velocity=81, time=0),
    Message('note_off', channel=13, note=66, velocity=0, time=24),
    Message('note_on', channel=13, note=65, velocity=82, time=0),
    Message('control_change', channel=13, control=7, value=106, time=4),
    Message('note_off', channel=13, note=65, velocity=0, time=20),
    Message('note_on', channel=13, note=64, velocity=84, time=0),
    Message('control_change', channel=13, control=7, value=107, time=9),
    Message('control_change', channel=13, control=7, value=108, time=29),
    Message('note_off', channel=13, note=64, velocity=0, time=9),
    Message('control_change', channel=13, control=7, value=109, time=20),
    Message('control_change', channel=13, control=7, value=110, time=28),
    Message('note_on', channel=13, note=76, velocity=92, time=1),
    Message('note_on', channel=13, note=64, velocity=92, time=0),
    Message('control_change', channel=13, control=7, value=111, time=9),
    Message('control_change', channel=13, control=7, value=112, time=10),
    Message('note_off', channel=13, note=76, velocity=0, time=5),
    Message('note_off', channel=13, note=64, velocity=0, time=0),
    Message('note_on', channel=13, note=77, velocity=96, time=0),
    Message('note_on', channel=13, note=65, velocity=96, time=0),
    Message('control_change', channel=13, control=7, value=113, time=4),
    Message('control_change', channel=13, control=7, value=114, time=10),
    Message('note_off', channel=13, note=77, velocity=0, time=10),
    Message('note_off', channel=13, note=65, velocity=0, time=0),
    Message('control_change', channel=13, control=7, value=115, time=0),
    Message('note_on', channel=13, note=79, velocity=100, time=0),
    Message('note_on', channel=13, note=67, velocity=100, time=0),
    Message('control_change', channel=13, control=7, value=116, time=9),
    Message('control_change', channel=13, control=7, value=117, time=10),
    Message('note_off', channel=13, note=67, velocity=0, time=5),
    Message('note_off', channel=13, note=79, velocity=0, time=0),
    Message('note_on', channel=13, note=80, velocity=104, time=0),
    Message('note_on', channel=13, note=68, velocity=104, time=0),
    Message('control_change', channel=13, control=7, value=118, time=4),
    Message('control_change', channel=13, control=7, value=119, time=10),
    Message('note_off', channel=13, note=68, velocity=0, time=10),
    Message('note_off', channel=13, note=80, velocity=0, time=0),
    Message('control_change', channel=13, control=7, value=120, time=0),
    Message('note_on', channel=13, note=81, velocity=108, time=0),
    Message('note_on', channel=13, note=69, velocity=108, time=0),
    Message('note_off', channel=13, note=81, velocity=0, time=47),
    Message('note_off', channel=13, note=69, velocity=0, time=0),
    Message('control_change', channel=13, control=7, value=100, time=145),
    Message('note_on', channel=13, note=64, velocity=75, time=0),
    Message('control_change', channel=13, control=7, value=101, time=19),
    Message('control_change', channel=13, control=7, value=102, time=19),
    Message('control_change', channel=13, control=7, value=103, time=19),
    Message('control_change', channel=13, control=7, value=104, time=19),
    Message('control_change', channel=13, control=7, value=105, time=20),
    Message('control_change', channel=13, control=7, value=106, time=19),
    Message('control_change', channel=13, control=7, value=107, time=19),
    Message('control_change', channel=13, control=7, value=108, time=19),
    Message('note_off', channel=13, note=64, velocity=0, time=15),
    Message('control_change', channel=13, control=7, value=109, time=4),
    Message('control_change', channel=13, control=7, value=110, time=20),
    Message('note_on', channel=13, note=57, velocity=92, time=0),
    Message('note_off', channel=13, note=57, velocity=0, time=24),
    Message('note_on', channel=13, note=60, velocity=92, time=0),
    Message('note_off', channel=13, note=60, velocity=0, time=24),
    Message('note_on', channel=13, note=64, velocity=92, time=0),
    Message('note_off', channel=13, note=64, velocity=0, time=24),
    Message('note_on', channel=13, note=69, velocity=92, time=0),
    Message('note_off', channel=13, note=69, velocity=0, time=24),
    Message('note_on', channel=13, note=72, velocity=92, time=0),
    Message('note_off', channel=13, note=72, velocity=0, time=24),
    Message('note_on', channel=13, note=76, velocity=92, time=0),
    Message('note_off', channel=13, note=76, velocity=0, time=24),
    Message('note_on', channel=13, note=81, velocity=92, time=0),
    Message('note_off', channel=13, note=81, velocity=0, time=24),
    Message('note_on', channel=13, note=84, velocity=92, time=0),
    Message('note_off', channel=13, note=84, velocity=0, time=23),
    Message('note_on', channel=13, note=88, velocity=92, time=1),
    Message('note_off', channel=13, note=88, velocity=0, time=24),
    Message('note_on', channel=13, note=84, velocity=92, time=0),
    Message('note_off', channel=13, note=84, velocity=0, time=24),
    Message('note_on', channel=13, note=81, velocity=92, time=0),
    Message('note_off', channel=13, note=81, velocity=0, time=24),
    Message('note_on', channel=13, note=76, velocity=92, time=0),
    Message('note_off', channel=13, note=76, velocity=0, time=24),
    Message('note_on', channel=13, note=75, velocity=92, time=0),
    Message('note_off', channel=13, note=75, velocity=0, time=16),
    Message('note_on', channel=13, note=76, velocity=92, time=32),
    Message('note_off', channel=13, note=76, velocity=0, time=16),
    Message('note_on', channel=13, note=77, velocity=92, time=32),
    Message('note_off', channel=13, note=77, velocity=0, time=24),
    Message('note_on', channel=13, note=73, velocity=92, time=0),
    Message('note_off', channel=13, note=73, velocity=0, time=24),
    Message('note_on', channel=13, note=70, velocity=92, time=0),
    Message('note_off', channel=13, note=70, velocity=0, time=24),
    Message('note_on', channel=13, note=73, velocity=92, time=0),
    Message('note_off', channel=13, note=73, velocity=0, time=24),
    Message('note_on', channel=13, note=76, velocity=92, time=0),
    Message('note_off', channel=13, note=76, velocity=0, time=16),
    Message('note_on', channel=13, note=75, velocity=92, time=32),
    Message('note_off', channel=13, note=75, velocity=0, time=34),
    Message('note_on', channel=13, note=76, velocity=92, time=14),
    Message('note_off', channel=13, note=76, velocity=0, time=24),
    Message('note_on', channel=13, note=72, velocity=92, time=0),
    Message('note_off', channel=13, note=72, velocity=0, time=24),
    Message('note_on', channel=13, note=69, velocity=92, time=0),
    Message('note_off', channel=13, note=69, velocity=0, time=24),
    Message('note_on', channel=13, note=64, velocity=92, time=0),
    Message('note_off', channel=13, note=64, velocity=0, time=24),
    Message('note_on', channel=13, note=60, velocity=92, time=0),
    Message('note_off', channel=13, note=60, velocity=0, time=24),
    Message('note_on', channel=13, note=64, velocity=92, time=0),
    Message('note_off', channel=13, note=64, velocity=0, time=24),
    Message('note_on', channel=13, note=69, velocity=92, time=0),
    Message('note_off', channel=13, note=69, velocity=0, time=24),
    Message('note_on', channel=13, note=72, velocity=92, time=0),
    Message('note_off', channel=13, note=72, velocity=0, time=23),
    Message('note_on', channel=13, note=74, velocity=92, time=1),
    Message('note_off', channel=13, note=74, velocity=0, time=24),
    Message('note_on', channel=13, note=69, velocity=92, time=0),
    Message('note_off', channel=13, note=69, velocity=0, time=24),
    Message('note_on', channel=13, note=65, velocity=92, time=0),
    Message('note_off', channel=13, note=65, velocity=0, time=24),
    Message('note_on', channel=13, note=62, velocity=92, time=0),
    Message('note_off', channel=13, note=62, velocity=0, time=24),
    Message('note_on', channel=13, note=57, velocity=92, time=0),
    Message('note_off', channel=13, note=57, velocity=0, time=24),
    Message('note_on', channel=13, note=62, velocity=92, time=0),
    Message('note_off', channel=13, note=62, velocity=0, time=24),
    Message('note_on', channel=13, note=64, velocity=92, time=0),
    Message('note_off', channel=13, note=64, velocity=0, time=24),
    Message('note_on', channel=13, note=68, velocity=92, time=0),
    Message('note_off', channel=13, note=68, velocity=0, time=23),
    Message('note_on', channel=13, note=69, velocity=92, time=1),
    Message('note_off', channel=13, note=69, velocity=0, time=24),
    Message('note_on', channel=13, note=74, velocity=92, time=0),
    Message('note_off', channel=13, note=74, velocity=0, time=24),
    Message('note_on', channel=13, note=69, velocity=92, time=0),
    Message('note_off', channel=13, note=69, velocity=0, time=24),
    Message('note_on', channel=13, note=65, velocity=92, time=0),
    Message('note_off', channel=13, note=65, velocity=0, time=24),
    Message('note_on', channel=13, note=62, velocity=92, time=0),
    Message('note_off', channel=13, note=62, velocity=0, time=24),
    Message('note_on', channel=13, note=69, velocity=92, time=0),
    Message('note_off', channel=13, note=69, velocity=0, time=24),
    Message('note_on', channel=13, note=65, velocity=92, time=0),
    Message('note_off', channel=13, note=65, velocity=0, time=24),
    Message('note_on', channel=13, note=62, velocity=92, time=0),
    Message('note_off', channel=13, note=62, velocity=0, time=23),
    Message('note_on', channel=13, note=57, velocity=92, time=1),
    Message('note_off', channel=13, note=57, velocity=0, time=24),
    Message('note_on', channel=13, note=60, velocity=92, time=0),
    Message('note_off', channel=13, note=60, velocity=0, time=24),
    Message('note_on', channel=13, note=64, velocity=92, time=0),
    Message('note_off', channel=13, note=64, velocity=0, time=24),
    Message('note_on', channel=13, note=69, velocity=92, time=0),
    Message('note_off', channel=13, note=69, velocity=0, time=24),
    Message('note_on', channel=13, note=72, velocity=92, time=0),
    Message('note_off', channel=13, note=72, velocity=0, time=24),
    Message('note_on', channel=13, note=76, velocity=92, time=0),
    Message('note_off', channel=13, note=76, velocity=0, time=24),
    Message('note_on', channel=13, note=81, velocity=92, time=0),
    Message('note_off', channel=13, note=81, velocity=0, time=24),
    Message('note_on', channel=13, note=84, velocity=92, time=0),
    Message('note_off', channel=13, note=84, velocity=0, time=24),
    Message('note_on', channel=13, note=87, velocity=92, time=0),
    Message('note_off', channel=13, note=87, velocity=0, time=168),
    Message('note_on', channel=13, note=57, velocity=92, time=24),
    Message('note_off', channel=13, note=57, velocity=0, time=24),
    Message('note_on', channel=13, note=60, velocity=92, time=0),
    Message('note_off', channel=13, note=60, velocity=0, time=24),
    Message('note_on', channel=13, note=64, velocity=92, time=0),
    Message('note_off', channel=13, note=64, velocity=0, time=24),
    Message('note_on', channel=13, note=69, velocity=92, time=0),
    Message('note_off', channel=13, note=69, velocity=0, time=24),
    Message('note_on', channel=13, note=72, velocity=92, time=0),
    Message('note_off', channel=13, note=72, velocity=0, time=24),
    Message('note_on', channel=13, note=76, velocity=92, time=0),
    Message('note_off', channel=13, note=76, velocity=0, time=24),
    Message('note_on', channel=13, note=81, velocity=92, time=0),
    Message('note_off', channel=13, note=81, velocity=0, time=24),
    Message('note_on', channel=13, note=84, velocity=92, time=0),
    Message('note_off', channel=13, note=84, velocity=0, time=23),
    Message('note_on', channel=13, note=88, velocity=92, time=1),
    Message('note_off', channel=13, note=88, velocity=0, time=24),
    Message('note_on', channel=13, note=84, velocity=92, time=0),
    Message('note_off', channel=13, note=84, velocity=0, time=24),
    Message('note_on', channel=13, note=81, velocity=92, time=0),
    Message('note_off', channel=13, note=81, velocity=0, time=24),
    Message('note_on', channel=13, note=76, velocity=92, time=0),
    Message('note_off', channel=13, note=76, velocity=0, time=24),
    Message('note_on', channel=13, note=75, velocity=92, time=0),
    Message('note_off', channel=13, note=75, velocity=0, time=16),
    Message('note_on', channel=13, note=76, velocity=92, time=32),
    Message('note_off', channel=13, note=76, velocity=0, time=16),
    Message('note_on', channel=13, note=79, velocity=92, time=32),
    Message('note_off', channel=13, note=79, velocity=0, time=24),
    Message('note_on', channel=13, note=75, velocity=92, time=0),
    Message('note_off', channel=13, note=75, velocity=0, time=24),
    Message('note_on', channel=13, note=72, velocity=92, time=0),
    Message('note_off', channel=13, note=72, velocity=0, time=24),
    Message('note_on', channel=13, note=75, velocity=92, time=0),
    Message('note_off', channel=13, note=75, velocity=0, time=24),
    Message('note_on', channel=13, note=77, velocity=92, time=0),
    Message('note_off', channel=13, note=77, velocity=0, time=16),
    Message('note_on', channel=13, note=76, velocity=92, time=32),
    Message('note_off', channel=13, note=76, velocity=0, time=16),
    Message('note_on', channel=13, note=77, velocity=92, time=32),
    Message('note_off', channel=13, note=77, velocity=0, time=24),
    Message('note_on', channel=13, note=73, velocity=92, time=0),
    Message('note_off', channel=13, note=73, velocity=0, time=24),
    Message('note_on', channel=13, note=70, velocity=92, time=0),
    Message('note_off', channel=13, note=70, velocity=0, time=24),
    Message('note_on', channel=13, note=65, velocity=92, time=0),
    Message('note_off', channel=13, note=65, velocity=0, time=24),
    Message('note_on', channel=13, note=61, velocity=92, time=0),
    Message('note_off', channel=13, note=61, velocity=0, time=24),
    Message('note_on', channel=13, note=65, velocity=92, time=0),
    Message('note_off', channel=13, note=65, velocity=0, time=24),
    Message('note_on', channel=13, note=70, velocity=92, time=0),
    Message('note_off', channel=13, note=70, velocity=0, time=24),
    Message('note_on', channel=13, note=73, velocity=92, time=0),
    Message('note_off', channel=13, note=73, velocity=0, time=23),
    Message('note_on', channel=13, note=77, velocity=92, time=1),
    Message('note_off', channel=13, note=77, velocity=0, time=24),
    Message('note_on', channel=13, note=73, velocity=92, time=0),
    Message('note_off', channel=13, note=73, velocity=0, time=24),
    Message('note_on', channel=13, note=70, velocity=92, time=0),
    Message('note_off', channel=13, note=70, velocity=0, time=24),
    Message('note_on', channel=13, note=73, velocity=92, time=0),
    Message('note_off', channel=13, note=73, velocity=0, time=24),
    Message('note_on', channel=13, note=76, velocity=92, time=0),
    Message('note_off', channel=13, note=76, velocity=0, time=16),
    Message('note_on', channel=13, note=75, velocity=92, time=32),
    Message('note_off', channel=13, note=75, velocity=0, time=16),
    Message('note_on', channel=13, note=76, velocity=92, time=32),
    Message('note_off', channel=13, note=76, velocity=0, time=24),
    Message('note_on', channel=13, note=72, velocity=92, time=0),
    Message('note_off', channel=13, note=72, velocity=0, time=24),
    Message('note_on', channel=13, note=69, velocity=92, time=0),
    Message('note_off', channel=13, note=69, velocity=0, time=24),
    Message('note_on', channel=13, note=64, velocity=92, time=0),
    Message('note_off', channel=13, note=64, velocity=0, time=24),
    Message('note_on', channel=13, note=60, velocity=92, time=0),
    Message('note_off', channel=13, note=60, velocity=0, time=24),
    Message('note_on', channel=13, note=64, velocity=92, time=0),
    Message('note_off', channel=13, note=64, velocity=0, time=24),
    Message('note_on', channel=13, note=69, velocity=92, time=0),
    Message('note_off', channel=13, note=69, velocity=0, time=24),
    Message('note_on', channel=13, note=72, velocity=92, time=0),
    Message('note_off', channel=13, note=72, velocity=0, time=23),
    Message('note_on', channel=13, note=68, velocity=92, time=1),
    Message('note_off', channel=13, note=68, velocity=0, time=168),
    Message('note_on', channel=13, note=71, velocity=92, time=24),
    Message('note_on', channel=13, note=67, velocity=92, time=0),
    Message('note_off', channel=13, note=71, velocity=0, time=168),
    Message('note_off', channel=13, note=67, velocity=0, time=0),
    Message('note_on', channel=13, note=80, velocity=92, time=24),
    Message('note_on', channel=13, note=72, velocity=92, time=0),
    Message('note_off', channel=13, note=80, velocity=0, time=168),
    Message('note_off', channel=13, note=72, velocity=0, time=0),
    Message('note_on', channel=13, note=92, velocity=92, time=24),
    Message('note_on', channel=13, note=88, velocity=92, time=0),
    Message('note_on', channel=13, note=80, velocity=92, time=0),
    Message('note_off', channel=13, note=92, velocity=0, time=168),
    Message('note_off', channel=13, note=88, velocity=0, time=0),
    Message('note_off', channel=13, note=80, velocity=0, time=0),
    Message('note_on', channel=13, note=72, velocity=92, time=696),
    Message('note_off', channel=13, note=72, velocity=0, time=80),
    Message('note_on', channel=13, note=84, velocity=92, time=16),
    Message('note_off', channel=13, note=84, velocity=0, time=96),
    Message('note_on', channel=13, note=83, velocity=92, time=0),
    Message('note_off', channel=13, note=83, velocity=0, time=48),
    Message('note_on', channel=13, note=84, velocity=92, time=0),
    Message('note_off', channel=13, note=84, velocity=0, time=48),
    Message('note_on', channel=13, note=86, velocity=92, time=0),
    Message('note_off', channel=13, note=86, velocity=0, time=96),
    Message('note_on', channel=13, note=84, velocity=92, time=0),
    Message('note_off', channel=13, note=84, velocity=0, time=48),
    Message('note_on', channel=13, note=83, velocity=92, time=0),
    Message('note_off', channel=13, note=83, velocity=0, time=47),
    Message('note_on', channel=13, note=84, velocity=92, time=1),
    Message('note_off', channel=13, note=84, velocity=0, time=48),
    Message('note_on', channel=13, note=86, velocity=92, time=0),
    Message('note_off', channel=13, note=86, velocity=0, time=48),
    Message('note_on', channel=13, note=88, velocity=92, time=0),
    Message('note_off', channel=13, note=88, velocity=0, time=96),
    Message('note_on', channel=13, note=84, velocity=92, time=0),
    Message('note_off', channel=13, note=84, velocity=0, time=80),
    Message('note_on', channel=13, note=83, velocity=92, time=16),
    Message('note_off', channel=13, note=83, velocity=0, time=96),
    Message('note_on', channel=13, note=76, velocity=92, time=0),
    Message('note_off', channel=13, note=76, velocity=0, time=47),
    Message('note_on', channel=13, note=86, velocity=92, time=49),
    Message('note_off', channel=13, note=86, velocity=0, time=24),
    Message('note_on', channel=13, note=84, velocity=92, time=0),
    Message('note_off', channel=13, note=84, velocity=0, time=24),
    Message('note_on', channel=13, note=83, velocity=92, time=0),
    Message('note_off', channel=13, note=83, velocity=0, time=24),
    Message('note_on', channel=13, note=84, velocity=92, time=0),
    Message('note_off', channel=13, note=84, velocity=0, time=24),
    Message('note_on', channel=13, note=86, velocity=92, time=0),
    Message('note_off', channel=13, note=86, velocity=0, time=47),
    Message('note_on', channel=13, note=88, velocity=92, time=49),
    Message('note_off', channel=13, note=88, velocity=0, time=24),
    Message('note_on', channel=13, note=86, velocity=92, time=0),
    Message('note_off', channel=13, note=86, velocity=0, time=24),
    Message('note_on', channel=13, note=84, velocity=92, time=0),
    Message('note_off', channel=13, note=84, velocity=0, time=24),
    Message('note_on', channel=13, note=86, velocity=92, time=0),
    Message('note_off', channel=13, note=86, velocity=0, time=24),
    Message('note_on', channel=13, note=88, velocity=92, time=0),
    Message('note_off', channel=13, note=88, velocity=0, time=264),
    Message('note_on', channel=13, note=76, velocity=92, time=24),
    Message('note_off', channel=13, note=76, velocity=0, time=80),
    Message('note_on', channel=13, note=84, velocity=92, time=16),
    Message('note_off', channel=13, note=84, velocity=0, time=96),
    Message('note_on', channel=13, note=83, velocity=92, time=0),
    Message('note_off', channel=13, note=83, velocity=0, time=48),
    Message('note_on', channel=13, note=84, velocity=92, time=0),
    Message('note_off', channel=13, note=84, velocity=0, time=48),
    Message('note_on', channel=13, note=86, velocity=92, time=0),
    Message('note_off', channel=13, note=86, velocity=0, time=96),
    Message('note_on', channel=13, note=84, velocity=92, time=0),
    Message('note_off', channel=13, note=84, velocity=0, time=48),
    Message('note_on', channel=13, note=86, velocity=92, time=0),
    Message('note_off', channel=13, note=86, velocity=0, time=47),
    Message('note_on', channel=13, note=87, velocity=92, time=1),
    Message('note_off', channel=13, note=87, velocity=0, time=48),
    Message('note_on', channel=13, note=89, velocity=92, time=0),
    Message('note_off', channel=13, note=89, velocity=0, time=48),
    Message('note_on', channel=13, note=91, velocity=92, time=0),
    Message('note_off', channel=13, note=91, velocity=0, time=96),
    Message('note_on', channel=13, note=87, velocity=92, time=0),
    Message('note_off', channel=13, note=87, velocity=0, time=96),
    Message('note_on', channel=13, note=86, velocity=92, time=0),
    Message('note_off', channel=13, note=86, velocity=0, time=96),
    Message('note_on', channel=13, note=87, velocity=92, time=0),
    Message('note_off', channel=13, note=87, velocity=0, time=48),
    Message('note_on', channel=13, note=75, velocity=92, time=48),
    Message('note_off', channel=13, note=75, velocity=0, time=24),
    Message('note_on', channel=13, note=79, velocity=92, time=0),
    Message('note_off', channel=13, note=79, velocity=0, time=24),
    Message('note_on', channel=13, note=84, velocity=92, time=0),
    Message('note_off', channel=13, note=84, velocity=0, time=24),
    Message('note_on', channel=13, note=87, velocity=92, time=0),
    Message('note_off', channel=13, note=87, velocity=0, time=24),
    Message('note_on', channel=13, note=89, velocity=92, time=0),
    Message('note_off', channel=13, note=89, velocity=0, time=47),
    Message('note_on', channel=13, note=74, velocity=92, time=49),
    Message('note_off', channel=13, note=74, velocity=0, time=24),
    Message('note_on', channel=13, note=79, velocity=92, time=0),
    Message('note_off', channel=13, note=79, velocity=0, time=24),
    Message('note_on', channel=13, note=83, velocity=92, time=0),
    Message('note_off', channel=13, note=83, velocity=0, time=24),
    Message('note_on', channel=13, note=86, velocity=92, time=0),
    Message('note_off', channel=13, note=86, velocity=0, time=23),
    Message('note_on', channel=13, note=91, velocity=92, time=1),
    Message('note_on', channel=13, note=79, velocity=92, time=0),
    Message('note_off', channel=13, note=91, velocity=0, time=192),
    Message('note_off', channel=13, note=79, velocity=0, time=0),
    Message('note_on', channel=13, note=84, velocity=92, time=0),
    Message('note_on', channel=13, note=72, velocity=92, time=0),
    Message('note_off', channel=13, note=84, velocity=0, time=128),
    Message('note_off', channel=13, note=72, velocity=0, time=0),
    Message('control_change', channel=13, control=7, value=100, time=448),
    Message('note_on', channel=13, note=67, velocity=75, time=0),
    Message('note_off', channel=13, note=67, velocity=0, time=192),
    Message('note_on', channel=13, note=60, velocity=75, time=0),
    Message('note_off', channel=13, note=60, velocity=0, time=128),
    Message('note_on', channel=13, note=58, velocity=75, time=352),
    Message('note_off', channel=13, note=58, velocity=0, time=32),
    Message('note_on', channel=13, note=56, velocity=75, time=0),
    Message('note_off', channel=13, note=56, velocity=0, time=32),
    Message('note_on', channel=13, note=55, velocity=75, time=0),
    Message('note_off', channel=13, note=55, velocity=0, time=31),
    Message('note_on', channel=13, note=60, velocity=75, time=1),
    Message('note_off', channel=13, note=60, velocity=0, time=32),
    Message('note_on', channel=13, note=58, velocity=75, time=0),
    Message('note_off', channel=13, note=58, velocity=0, time=32),
    Message('note_on', channel=13, note=56, velocity=75, time=0),
    Message('note_off', channel=13, note=56, velocity=0, time=32),
    Message('note_on', channel=13, note=62, velocity=75, time=0),
    Message('note_off', channel=13, note=62, velocity=0, time=32),
    Message('note_on', channel=13, note=60, velocity=75, time=0),
    Message('note_off', channel=13, note=60, velocity=0, time=32),
    Message('note_on', channel=13, note=59, velocity=75, time=0),
    Message('note_off', channel=13, note=59, velocity=0, time=31),
    Message('note_on', channel=13, note=63, velocity=75, time=1),
    Message('note_off', channel=13, note=63, velocity=0, time=32),
    Message('note_on', channel=13, note=62, velocity=75, time=0),
    Message('note_off', channel=13, note=62, velocity=0, time=32),
    Message('note_on', channel=13, note=60, velocity=75, time=0),
    Message('note_off', channel=13, note=60, velocity=0, time=32),
    Message('note_on', channel=13, note=65, velocity=75, time=0),
    Message('note_off', channel=13, note=65, velocity=0, time=32),
    Message('note_on', channel=13, note=63, velocity=75, time=0),
    Message('note_off', channel=13, note=63, velocity=0, time=32),
    Message('note_on', channel=13, note=62, velocity=75, time=0),
    Message('note_off', channel=13, note=62, velocity=0, time=31),
    Message('note_on', channel=13, note=67, velocity=75, time=1),
    Message('note_off', channel=13, note=67, velocity=0, time=32),
    Message('note_on', channel=13, note=65, velocity=75, time=0),
    Message('note_off', channel=13, note=65, velocity=0, time=32),
    Message('note_on', channel=13, note=63, velocity=75, time=0),
    Message('note_off', channel=13, note=63, velocity=0, time=32),
    Message('note_on', channel=13, note=68, velocity=75, time=0),
    Message('note_off', channel=13, note=68, velocity=0, time=32),
    Message('note_on', channel=13, note=67, velocity=75, time=0),
    Message('note_off', channel=13, note=67, velocity=0, time=32),
    Message('note_on', channel=13, note=65, velocity=75, time=0),
    Message('note_off', channel=13, note=65, velocity=0, time=31),
    Message('note_on', channel=13, note=70, velocity=75, time=1),
    Message('note_off', channel=13, note=70, velocity=0, time=32),
    Message('note_on', channel=13, note=68, velocity=75, time=0),
    Message('note_off', channel=13, note=68, velocity=0, time=32),
    Message('note_on', channel=13, note=67, velocity=75, time=0),
    Message('note_off', channel=13, note=67, velocity=0, time=32),
    Message('note_on', channel=13, note=72, velocity=75, time=0),
    Message('note_off', channel=13, note=72, velocity=0, time=32),
    Message('note_on', channel=13, note=70, velocity=75, time=0),
    Message('note_off', channel=13, note=70, velocity=0, time=32),
    Message('note_on', channel=13, note=68, velocity=75, time=0),
    Message('note_off', channel=13, note=68, velocity=0, time=31),
    Message('note_on', channel=13, note=74, velocity=75, time=1),
    Message('note_off', channel=13, note=74, velocity=0, time=32),
    Message('note_on', channel=13, note=72, velocity=75, time=0),
    Message('note_off', channel=13, note=72, velocity=0, time=32),
    Message('note_on', channel=13, note=71, velocity=75, time=0),
    Message('note_off', channel=13, note=71, velocity=0, time=31),
    Message('note_on', channel=13, note=75, velocity=75, time=1),
    Message('note_off', channel=13, note=75, velocity=0, time=32),
    Message('note_on', channel=13, note=74, velocity=75, time=0),
    Message('note_off', channel=13, note=74, velocity=0, time=32),
    Message('note_on', channel=13, note=72, velocity=75, time=0),
    Message('note_off', channel=13, note=72, velocity=0, time=32),
    Message('note_on', channel=13, note=74, velocity=75, time=0),
    Message('note_off', channel=13, note=74, velocity=0, time=32),
    Message('note_on', channel=13, note=72, velocity=75, time=0),
    Message('note_off', channel=13, note=72, velocity=0, time=31),
    Message('note_on', channel=13, note=77, velocity=105, time=1),
    Message('note_off', channel=13, note=77, velocity=0, time=32),
    Message('note_on', channel=13, note=75, velocity=75, time=0),
    Message('note_off', channel=13, note=75, velocity=0, time=32),
    Message('note_on', channel=13, note=74, velocity=75, time=0),
    Message('note_off', channel=13, note=74, velocity=0, time=32),
    Message('note_on', channel=13, note=72, velocity=75, time=0),
    Message('note_off', channel=13, note=72, velocity=0, time=31),
    Message('note_on', channel=13, note=74, velocity=75, time=1),
    Message('note_off', channel=13, note=74, velocity=0, time=32),
    Message('note_on', channel=13, note=67, velocity=76, time=0),
    Message('control_change', channel=13, control=7, value=101, time=6),
    Message('note_off', channel=13, note=67, velocity=0, time=26),
    Message('note_on', channel=13, note=75, velocity=77, time=0),
    Message('control_change', channel=13, control=7, value=102, time=12),
    Message('note_off', channel=13, note=75, velocity=0, time=20),
    Message('note_on', channel=13, note=74, velocity=78, time=0),
    Message('control_change', channel=13, control=7, value=103, time=19),
    Message('note_off', channel=13, note=74, velocity=0, time=13),
    Message('note_on', channel=13, note=72, velocity=79, time=0),
    Message('control_change', channel=13, control=7, value=104, time=25),
    Message('note_off', channel=13, note=72, velocity=0, time=7),
    Message('note_on', channel=13, note=71, velocity=80, time=0),
    Message('note_off', channel=13, note=71, velocity=0, time=31),
    Message('control_change', channel=13, control=7, value=105, time=1),
    Message('note_on', channel=13, note=75, velocity=81, time=0),
    Message('note_off', channel=13, note=75, velocity=0, time=32),
    Message('note_on', channel=13, note=74, velocity=82, time=0),
    Message('control_change', channel=13, control=7, value=106, time=6),
    Message('note_off', channel=13, note=74, velocity=0, time=15),
    Message('note_on', channel=13, note=79, velocity=84, time=11),
    Message('control_change', channel=13, control=7, value=107, time=12),
    Message('note_off', channel=13, note=79, velocity=0, time=20),
    Message('note_on', channel=13, note=77, velocity=86, time=0),
    Message('control_change', channel=13, control=7, value=108, time=19),
    Message('note_off', channel=13, note=77, velocity=0, time=2),
    Message('note_on', channel=13, note=75, velocity=88, time=11),
    Message('note_off', channel=13, note=75, velocity=0, time=21),
    Message('control_change', channel=13, control=7, value=109, time=4),
    Message('note_on', channel=13, note=74, velocity=90, time=7),
    Message('note_off', channel=13, note=74, velocity=0, time=21),
    Message('control_change', channel=13, control=7, value=110, time=11),
    Message('note_on', channel=13, note=72, velocity=92, time=0),
    Message('note_off', channel=13, note=72, velocity=0, time=47),
    Message('note_on', channel=13, note=80, velocity=127, time=337),
    Message('note_on', channel=13, note=76, velocity=127, time=0),
    Message('note_off', channel=13, note=80, velocity=0, time=96),
    Message('note_off', channel=13, note=76, velocity=0, time=0),
    Message('note_on', channel=13, note=79, velocity=92, time=0),
    Message('note_on', channel=13, note=75, velocity=92, time=0),
    Message('note_off', channel=13, note=79, velocity=0, time=16),
    Message('note_off', channel=13, note=75, velocity=0, time=0),
    Message('note_on', channel=13, note=78, velocity=92, time=32),
    Message('note_on', channel=13, note=74, velocity=92, time=0),
    Message('note_off', channel=13, note=78, velocity=0, time=16),
    Message('note_off', channel=13, note=74, velocity=0, time=0),
    Message('note_on', channel=13, note=79, velocity=92, time=32),
    Message('note_on', channel=13, note=75, velocity=92, time=0),
    Message('note_off', channel=13, note=79, velocity=0, time=24),
    Message('note_off', channel=13, note=75, velocity=0, time=0),
    Message('note_on', channel=13, note=75, velocity=92, time=72),
    Message('note_on', channel=13, note=72, velocity=92, time=0),
    Message('note_off', channel=13, note=75, velocity=0, time=24),
    Message('note_off', channel=13, note=72, velocity=0, time=0),
    Message('note_on', channel=13, note=67, velocity=92, time=456),
    Message('note_on', channel=13, note=63, velocity=92, time=0),
    Message('note_off', channel=13, note=67, velocity=0, time=16),
    Message('note_off', channel=13, note=63, velocity=0, time=0),
    Message('note_on', channel=13, note=72, velocity=92, time=80),
    Message('note_on', channel=13, note=67, velocity=92, time=0),
    Message('note_off', channel=13, note=72, velocity=0, time=16),
    Message('note_off', channel=13, note=67, velocity=0, time=0),
    Message('note_on', channel=13, note=75, velocity=92, time=32),
    Message('note_on', channel=13, note=72, velocity=92, time=0),
    Message('note_off', channel=13, note=75, velocity=0, time=16),
    Message('note_off', channel=13, note=72, velocity=0, time=0),
    Message('note_on', channel=13, note=78, velocity=92, time=32),
    Message('note_on', channel=13, note=74, velocity=92, time=0),
    Message('note_off', channel=13, note=78, velocity=0, time=168),
    Message('note_off', channel=13, note=74, velocity=0, time=0),
    Message('program_change', channel=13, program=45, time=24),
    Message('note_on', channel=13, note=55, velocity=92, time=48),
    Message('note_off', channel=13, note=55, velocity=0, time=47),
    Message('note_on', channel=13, note=58, velocity=92, time=1),
    Message('note_off', channel=13, note=58, velocity=0, time=47),
    Message('note_on', channel=13, note=62, velocity=92, time=1),
    Message('note_off', channel=13, note=62, velocity=0, time=47),
    Message('note_on', channel=13, note=67, velocity=92, time=1),
    Message('note_off', channel=13, note=67, velocity=0, time=47),
    Message('note_on', channel=13, note=70, velocity=92, time=1),
    Message('note_off', channel=13, note=70, velocity=0, time=47),
    Message('note_on', channel=13, note=73, velocity=92, time=1),
    Message('note_off', channel=13, note=73, velocity=0, time=47),
    Message('note_on', channel=13, note=74, velocity=92, time=1),
    Message('note_off', channel=13, note=74, velocity=0, time=47),
    Message('note_on', channel=13, note=77, velocity=92, time=1),
    Message('note_off', channel=13, note=77, velocity=0, time=47),
    Message('note_on', channel=13, note=70, velocity=92, time=1),
    Message('note_off', channel=13, note=70, velocity=0, time=47),
    Message('note_on', channel=13, note=75, velocity=92, time=1),
    Message('note_off', channel=13, note=75, velocity=0, time=47),
    Message('note_on', channel=13, note=74, velocity=92, time=1),
    Message('note_off', channel=13, note=74, velocity=0, time=47),
    Message('note_on', channel=13, note=75, velocity=92, time=1),
    Message('note_off', channel=13, note=75, velocity=0, time=47),
    Message('note_on', channel=13, note=68, velocity=92, time=1),
    Message('note_off', channel=13, note=68, velocity=0, time=47),
    Message('note_on', channel=13, note=71, velocity=92, time=1),
    Message('note_off', channel=13, note=71, velocity=0, time=47),
    Message('note_on', channel=13, note=63, velocity=92, time=1),
    Message('note_off', channel=13, note=63, velocity=0, time=47),
    Message('note_on', channel=13, note=68, velocity=92, time=1),
    Message('note_off', channel=13, note=68, velocity=0, time=47),
    Message('note_on', channel=13, note=63, velocity=92, time=1),
    Message('note_off', channel=13, note=63, velocity=0, time=47),
    Message('note_on', channel=13, note=59, velocity=92, time=49),
    Message('note_off', channel=13, note=59, velocity=0, time=47),
    Message('note_on', channel=13, note=67, velocity=92, time=1),
    Message('note_off', channel=13, note=67, velocity=0, time=47),
    Message('note_on', channel=13, note=70, velocity=92, time=1),
    Message('note_off', channel=13, note=70, velocity=0, time=47),
    Message('note_on', channel=13, note=74, velocity=92, time=1),
    Message('note_off', channel=13, note=74, velocity=0, time=47),
    Message('note_on', channel=13, note=79, velocity=92, time=1),
    Message('note_off', channel=13, note=79, velocity=0, time=47),
    Message('note_on', channel=13, note=82, velocity=92, time=1),
    Message('note_off', channel=13, note=82, velocity=0, time=47),
    Message('note_on', channel=13, note=86, velocity=92, time=1),
    Message('note_off', channel=13, note=86, velocity=0, time=47),
    Message('note_on', channel=13, note=81, velocity=92, time=97),
    Message('note_off', channel=13, note=81, velocity=0, time=47),
    Message('note_on', channel=13, note=86, velocity=92, time=1),
    Message('note_off', channel=13, note=86, velocity=0, time=47),
    Message('program_change', channel=13, program=40, time=97),
    Message('control_change', channel=13, control=7, value=100, time=0),
    Message('note_on', channel=13, note=67, velocity=75, time=0),
    Message('note_off', channel=13, note=67, velocity=0, time=31),
    Message('note_on', channel=13, note=65, velocity=75, time=1),
    Message('note_off', channel=13, note=65, velocity=0, time=31),
    Message('note_on', channel=13, note=67, velocity=75, time=1),
    Message('note_off', channel=13, note=67, velocity=0, time=31),
    Message('note_on', channel=13, note=69, velocity=75, time=1),
    Message('note_off', channel=13, note=69, velocity=0, time=31),
    Message('note_on', channel=13, note=67, velocity=75, time=1),
    Message('note_off', channel=13, note=67, velocity=0, time=31),
    Message('note_on', channel=13, note=69, velocity=75, time=1),
    Message('note_off', channel=13, note=69, velocity=0, time=31),
    Message('note_on', channel=13, note=70, velocity=75, time=1),
    Message('note_off', channel=13, note=70, velocity=0, time=31),
    Message('note_on', channel=13, note=69, velocity=75, time=1),
    Message('note_off', channel=13, note=69, velocity=0, time=31),
    Message('note_on', channel=13, note=70, velocity=75, time=1),
    Message('note_off', channel=13, note=70, velocity=0, time=31),
    Message('note_on', channel=13, note=72, velocity=75, time=1),
    Message('note_off', channel=13, note=72, velocity=0, time=31),
    Message('note_on', channel=13, note=70, velocity=75, time=1),
    Message('note_off', channel=13, note=70, velocity=0, time=31),
    Message('note_on', channel=13, note=72, velocity=75, time=1),
    Message('note_off', channel=13, note=72, velocity=0, time=31),
    Message('note_on', channel=13, note=74, velocity=75, time=1),
    Message('note_off', channel=13, note=74, velocity=0, time=31),
    Message('note_on', channel=13, note=72, velocity=76, time=1),
    Message('control_change', channel=13, control=7, value=101, time=6),
    Message('note_off', channel=13, note=72, velocity=0, time=25),
    Message('note_on', channel=13, note=74, velocity=77, time=1),
    Message('control_change', channel=13, control=7, value=102, time=12),
    Message('note_off', channel=13, note=74, velocity=0, time=19),
    Message('note_on', channel=13, note=75, velocity=78, time=1),
    Message('control_change', channel=13, control=7, value=103, time=19),
    Message('note_off', channel=13, note=75, velocity=0, time=12),
    Message('note_on', channel=13, note=74, velocity=79, time=1),
    Message('control_change', channel=13, control=7, value=104, time=25),
    Message('note_off', channel=13, note=74, velocity=0, time=6),
    Message('note_on', channel=13, note=75, velocity=80, time=1),
    Message('note_off', channel=13, note=75, velocity=0, time=31),
    Message('control_change', channel=13, control=7, value=105, time=1),
    Message('note_on', channel=13, note=77, velocity=81, time=0),
    Message('note_off', channel=13, note=77, velocity=0, time=31),
    Message('note_on', channel=13, note=75, velocity=82, time=1),
    Message('control_change', channel=13, control=7, value=106, time=6),
    Message('note_off', channel=13, note=75, velocity=0, time=25),
    Message('note_on', channel=13, note=77, velocity=84, time=1),
    Message('control_change', channel=13, control=7, value=107, time=12),
    Message('note_off', channel=13, note=77, velocity=0, time=19),
    Message('note_on', channel=13, note=79, velocity=86, time=1),
    Message('control_change', channel=13, control=7, value=108, time=19),
    Message('note_off', channel=13, note=79, velocity=0, time=12),
    Message('note_on', channel=13, note=77, velocity=88, time=1),
    Message('control_change', channel=13, control=7, value=109, time=25),
    Message('note_off', channel=13, note=77, velocity=0, time=6),
    Message('note_on', channel=13, note=79, velocity=90, time=1),
    Message('note_off', channel=13, note=79, velocity=0, time=31),
    Message('control_change', channel=13, control=7, value=110, time=1),
    Message('note_on', channel=13, note=81, velocity=92, time=0),
    Message('note_off', channel=13, note=81, velocity=0, time=96),
    Message('note_on', channel=13, note=80, velocity=92, time=0),
    Message('note_off', channel=13, note=80, velocity=0, time=48),
    Message('note_on', channel=13, note=81, velocity=92, time=0),
    Message('note_off', channel=13, note=81, velocity=0, time=47),
    Message('note_on', channel=13, note=83, velocity=92, time=1),
    Message('note_off', channel=13, note=83, velocity=0, time=96),
    Message('note_on', channel=13, note=81, velocity=92, time=0),
    Message('note_off', channel=13, note=81, velocity=0, time=48),
    Message('note_on', channel=13, note=80, velocity=92, time=0),
    Message('note_off', channel=13, note=80, velocity=0, time=47),
    Message('note_on', channel=13, note=81, velocity=92, time=1),
    Message('note_off', channel=13, note=81, velocity=0, time=48),
    Message('note_on', channel=13, note=83, velocity=92, time=0),
    Message('note_off', channel=13, note=83, velocity=0, time=48),
    Message('note_on', channel=13, note=85, velocity=92, time=0),
    Message('note_off', channel=13, note=85, velocity=0, time=80),
    Message('note_on', channel=13, note=81, velocity=92, time=16),
    Message('note_off', channel=13, note=81, velocity=0, time=96),
    Message('note_on', channel=13, note=80, velocity=92, time=0),
    Message('note_off', channel=13, note=80, velocity=0, time=96),
    Message('note_on', channel=13, note=73, velocity=92, time=0),
    Message('note_off', channel=13, note=73, velocity=0, time=47),
    Message('note_on', channel=13, note=83, velocity=92, time=49),
    Message('note_off', channel=13, note=83, velocity=0, time=24),
    Message('note_on', channel=13, note=81, velocity=92, time=0),
    Message('note_off', channel=13, note=81, velocity=0, time=24),
    Message('note_on', channel=13, note=80, velocity=92, time=0),
    Message('note_off', channel=13, note=80, velocity=0, time=24),
    Message('note_on', channel=13, note=81, velocity=92, time=0),
    Message('note_off', channel=13, note=81, velocity=0, time=24),
    Message('note_on', channel=13, note=83, velocity=92, time=0),
    Message('note_off', channel=13, note=83, velocity=0, time=47),
    Message('note_on', channel=13, note=85, velocity=92, time=49),
    Message('note_off', channel=13, note=85, velocity=0, time=24),
    Message('note_on', channel=13, note=83, velocity=92, time=0),
    Message('note_off', channel=13, note=83, velocity=0, time=24),
    Message('note_on', channel=13, note=81, velocity=92, time=0),
    Message('note_off', channel=13, note=81, velocity=0, time=24),
    Message('note_on', channel=13, note=83, velocity=92, time=0),
    Message('note_off', channel=13, note=83, velocity=0, time=24),
    Message('note_on', channel=13, note=85, velocity=92, time=0),
    Message('note_off', channel=13, note=85, velocity=0, time=264),
    Message('note_on', channel=13, note=73, velocity=92, time=24),
    Message('note_off', channel=13, note=73, velocity=0, time=80),
    Message('note_on', channel=13, note=85, velocity=92, time=16),
    Message('note_on', channel=13, note=73, velocity=92, time=0),
    Message('note_off', channel=13, note=85, velocity=0, time=96),
    Message('note_off', channel=13, note=73, velocity=0, time=0),
    Message('note_on', channel=13, note=84, velocity=92, time=0),
    Message('note_on', channel=13, note=72, velocity=92, time=0),
    Message('note_off', channel=13, note=72, velocity=0, time=48),
    Message('note_off', channel=13, note=84, velocity=0, time=0),
    Message('note_on', channel=13, note=85, velocity=92, time=0),
    Message('note_on', channel=13, note=73, velocity=92, time=0),
    Message('note_off', channel=13, note=73, velocity=0, time=48),
    Message('note_off', channel=13, note=85, velocity=0, time=0),
    Message('note_on', channel=13, note=87, velocity=92, time=0),
    Message('note_on', channel=13, note=75, velocity=92, time=0),
    Message('note_off', channel=13, note=75, velocity=0, time=96),
    Message('note_off', channel=13, note=87, velocity=0, time=0),
    Message('note_on', channel=13, note=85, velocity=92, time=0),
    Message('note_on', channel=13, note=73, velocity=92, time=0),
    Message('note_off', channel=13, note=85, velocity=0, time=48),
    Message('note_off', channel=13, note=73, velocity=0, time=0),
    Message('note_on', channel=13, note=87, velocity=92, time=0),
    Message('note_on', channel=13, note=75, velocity=92, time=0),
    Message('note_off', channel=13, note=75, velocity=0, time=48),
    Message('note_off', channel=13, note=87, velocity=0, time=0),
    Message('note_on', channel=13, note=88, velocity=92, time=0),
    Message('note_on', channel=13, note=76, velocity=92, time=0),
    Message('note_off', channel=13, note=88, velocity=0, time=48),
    Message('note_off', channel=13, note=76, velocity=0, time=0),
    Message('note_on', channel=13, note=90, velocity=92, time=0),
    Message('note_on', channel=13, note=78, velocity=92, time=0),
    Message('note_off', channel=13, note=90, velocity=0, time=48),
    Message('note_off', channel=13, note=78, velocity=0, time=0),
    Message('note_on', channel=13, note=92, velocity=92, time=0),
    Message('note_on', channel=13, note=80, velocity=92, time=0),
    Message('note_off', channel=13, note=80, velocity=0, time=96),
    Message('note_off', channel=13, note=92, velocity=0, time=0),
    Message('note_on', channel=13, note=88, velocity=92, time=0),
    Message('note_on', channel=13, note=76, velocity=92, time=0),
    Message('note_off', channel=13, note=76, velocity=0, time=96),
    Message('note_off', channel=13, note=88, velocity=0, time=0),
    Message('note_on', channel=13, note=87, velocity=92, time=0),
    Message('note_on', channel=13, note=75, velocity=92, time=0),
    Message('note_off', channel=13, note=75, velocity=0, time=96),
    Message('note_off', channel=13, note=87, velocity=0, time=0),
    Message('note_on', channel=13, note=88, velocity=92, time=0),
    Message('note_on', channel=13, note=76, velocity=92, time=0),
    Message('note_off', channel=13, note=88, velocity=0, time=47),
    Message('note_off', channel=13, note=76, velocity=0, time=0),
    Message('note_on', channel=13, note=90, velocity=92, time=49),
    Message('note_on', channel=13, note=78, velocity=92, time=0),
    Message('note_off', channel=13, note=90, velocity=0, time=24),
    Message('note_off', channel=13, note=78, velocity=0, time=0),
    Message('note_on', channel=13, note=88, velocity=92, time=0),
    Message('note_on', channel=13, note=76, velocity=92, time=0),
    Message('note_off', channel=13, note=76, velocity=0, time=24),
    Message('note_off', channel=13, note=88, velocity=0, time=0),
    Message('note_on', channel=13, note=87, velocity=92, time=0),
    Message('note_on', channel=13, note=75, velocity=92, time=0),
    Message('note_off', channel=13, note=75, velocity=0, time=24),
    Message('note_off', channel=13, note=87, velocity=0, time=0),
    Message('note_on', channel=13, note=88, velocity=92, time=0),
    Message('note_on', channel=13, note=76, velocity=92, time=0),
    Message('note_off', channel=13, note=88, velocity=0, time=24),
    Message('note_off', channel=13, note=76, velocity=0, time=0),
    Message('note_on', channel=13, note=90, velocity=92, time=0),
    Message('note_on', channel=13, note=78, velocity=92, time=0),
    Message('note_off', channel=13, note=90, velocity=0, time=47),
    Message('note_off', channel=13, note=78, velocity=0, time=0),
    Message('note_on', channel=13, note=92, velocity=92, time=49),
    Message('note_on', channel=13, note=80, velocity=92, time=0),
    Message('note_off', channel=13, note=92, velocity=0, time=24),
    Message('note_off', channel=13, note=80, velocity=0, time=0),
    Message('note_on', channel=13, note=90, velocity=92, time=0),
    Message('note_on', channel=13, note=78, velocity=92, time=0),
    Message('note_off', channel=13, note=78, velocity=0, time=24),
    Message('note_off', channel=13, note=90, velocity=0, time=0),
    Message('note_on', channel=13, note=88, velocity=92, time=0),
    Message('note_on', channel=13, note=76, velocity=92, time=0),
    Message('note_off', channel=13, note=76, velocity=0, time=24),
    Message('note_off', channel=13, note=88, velocity=0, time=0),
    Message('note_on', channel=13, note=90, velocity=92, time=0),
    Message('note_on', channel=13, note=78, velocity=92, time=0),
    Message('note_off', channel=13, note=78, velocity=0, time=24),
    Message('note_off', channel=13, note=90, velocity=0, time=0),
    Message('note_on', channel=13, note=92, velocity=92, time=0),
    Message('note_on', channel=13, note=80, velocity=92, time=0),
    Message('note_off', channel=13, note=80, velocity=0, time=312),
    Message('note_off', channel=13, note=92, velocity=0, time=0),
    Message('control_change', channel=13, control=7, value=90, time=72),
    Message('note_on', channel=13, note=78, velocity=60, time=0),
    Message('control_change', channel=13, control=7, value=89, time=28),
    Message('note_off', channel=13, note=78, velocity=0, time=20),
    Message('note_on', channel=13, note=76, velocity=58, time=0),
    Message('control_change', channel=13, control=7, value=88, time=9),
    Message('control_change', channel=13, control=7, value=87, time=29),
    Message('note_off', channel=13, note=76, velocity=0, time=9),
    Message('note_on', channel=13, note=76, velocity=56, time=1),
    Message('control_change', channel=13, control=7, value=86, time=19),
    Message('control_change', channel=13, control=7, value=85, time=28),
    Message('note_off', channel=13, note=76, velocity=0, time=1),
    Message('note_on', channel=13, note=75, velocity=54, time=0),
    Message('control_change', channel=13, control=7, value=84, time=28),
    Message('note_off', channel=13, note=75, velocity=0, time=19),
    Message('note_on', channel=13, note=75, velocity=51, time=1),
    Message('control_change', channel=13, control=7, value=83, time=9),
    Message('control_change', channel=13, control=7, value=82, time=29),
    Message('note_off', channel=13, note=75, velocity=0, time=10),
    Message('note_on', channel=13, note=73, velocity=48, time=0),
    Message('control_change', channel=13, control=7, value=81, time=19),
    Message('note_off', channel=13, note=73, velocity=0, time=28),
    Message('control_change', channel=13, control=7, value=80, time=0),
    Message('note_on', channel=13, note=66, velocity=45, time=97),
    Message('note_off', channel=13, note=66, velocity=0, time=48),
    Message('note_on', channel=13, note=64, velocity=45, time=0),
    Message('note_off', channel=13, note=64, velocity=0, time=47),
    Message('note_on', channel=13, note=64, velocity=45, time=1),
    Message('note_off', channel=13, note=64, velocity=0, time=48),
    Message('note_on', channel=13, note=63, velocity=45, time=0),
    Message('note_off', channel=13, note=63, velocity=0, time=47),
    Message('note_on', channel=13, note=63, velocity=45, time=1),
    Message('note_off', channel=13, note=63, velocity=0, time=48),
    Message('note_on', channel=13, note=61, velocity=45, time=0),
    Message('note_off', channel=13, note=61, velocity=0, time=47),
    Message('control_change', channel=13, control=7, value=90, time=1),
    Message('note_on', channel=13, note=59, velocity=60, time=0),
    Message('note_off', channel=13, note=59, velocity=0, time=16),
    Message('note_on', channel=13, note=61, velocity=60, time=32),
    Message('note_off', channel=13, note=61, velocity=0, time=16),
    Message('note_on', channel=13, note=62, velocity=60, time=32),
    Message('note_off', channel=13, note=62, velocity=0, time=192),
    Message('note_on', channel=13, note=55, velocity=60, time=0),
    Message('note_off', channel=13, note=55, velocity=0, time=128),
    Message('program_change', channel=13, program=45, time=640),
    Message('control_change', channel=13, control=7, value=110, time=96),
    Message('note_on', channel=13, note=68, velocity=92, time=0),
    Message('note_on', channel=13, note=64, velocity=92, time=0),
    Message('note_off', channel=13, note=68, velocity=0, time=47),
    Message('note_off', channel=13, note=64, velocity=0, time=0),
    Message('note_on', channel=13, note=69, velocity=92, time=1),
    Message('note_on', channel=13, note=65, velocity=92, time=0),
    Message('note_off', channel=13, note=65, velocity=0, time=47),
    Message('note_off', channel=13, note=69, velocity=0, time=0),
    Message('note_on', channel=13, note=70, velocity=92, time=1),
    Message('note_on', channel=13, note=66, velocity=92, time=0),
    Message('note_off', channel=13, note=70, velocity=0, time=80),
    Message('note_off', channel=13, note=66, velocity=0, time=0),
    Message('note_on', channel=13, note=81, velocity=92, time=112),
    Message('note_on', channel=13, note=77, velocity=92, time=0),
    Message('note_off', channel=13, note=81, velocity=0, time=80),
    Message('note_off', channel=13, note=77, velocity=0, time=0),
    Message('note_on', channel=13, note=77, velocity=92, time=16),
    Message('note_on', channel=13, note=74, velocity=92, time=0),
    Message('note_off', channel=13, note=77, velocity=0, time=80),
    Message('note_off', channel=13, note=74, velocity=0, time=0),
    Message('note_on', channel=13, note=67, velocity=92, time=16),
    Message('note_on', channel=13, note=62, velocity=92, time=0),
    Message('note_off', channel=13, note=67, velocity=0, time=80),
    Message('note_off', channel=13, note=62, velocity=0, time=0),
    Message('note_on', channel=13, note=79, velocity=92, time=112),
    Message('note_on', channel=13, note=74, velocity=92, time=0),
    Message('note_off', channel=13, note=79, velocity=0, time=80),
    Message('note_off', channel=13, note=74, velocity=0, time=0),
    Message('note_on', channel=13, note=70, velocity=92, time=16),
    Message('note_on', channel=13, note=67, velocity=92, time=0),
    Message('note_off', channel=13, note=70, velocity=0, time=80),
    Message('note_off', channel=13, note=67, velocity=0, time=0),
    Message('note_on', channel=13, note=74, velocity=92, time=112),
    Message('note_on', channel=13, note=69, velocity=92, time=0),
    Message('note_on', channel=13, note=65, velocity=92, time=0),
    Message('note_off', channel=13, note=74, velocity=0, time=80),
    Message('note_off', channel=13, note=69, velocity=0, time=0),
    Message('note_off', channel=13, note=65, velocity=0, time=0),
    Message('note_on', channel=13, note=80, velocity=92, time=16),
    Message('note_on', channel=13, note=76, velocity=92, time=0),
    Message('note_on', channel=13, note=73, velocity=92, time=0),
    Message('note_off', channel=13, note=80, velocity=0, time=80),
    Message('note_off', channel=13, note=76, velocity=0, time=0),
    Message('note_off', channel=13, note=73, velocity=0, time=0),
    Message('note_on', channel=13, note=68, velocity=92, time=16),
    Message('note_on', channel=13, note=64, velocity=92, time=0),
    Message('note_on', channel=13, note=61, velocity=92, time=0),
    Message('note_off', channel=13, note=61, velocity=0, time=80),
    Message('note_off', channel=13, note=64, velocity=0, time=0),
    Message('note_off', channel=13, note=68, velocity=0, time=0),
    Message('note_on', channel=13, note=81, velocity=92, time=112),
    Message('note_on', channel=13, note=77, velocity=92, time=0),
    Message('note_on', channel=13, note=74, velocity=92, time=0),
    Message('note_off', channel=13, note=81, velocity=0, time=80),
    Message('note_off', channel=13, note=77, velocity=0, time=0),
    Message('note_off', channel=13, note=74, velocity=0, time=0),
    Message('note_on', channel=13, note=74, velocity=92, time=16),
    Message('note_on', channel=13, note=69, velocity=92, time=0),
    Message('note_on', channel=13, note=65, velocity=92, time=0),
    Message('note_off', channel=13, note=74, velocity=0, time=80),
    Message('note_off', channel=13, note=69, velocity=0, time=0),
    Message('note_off', channel=13, note=65, velocity=0, time=0),
    Message('note_on', channel=13, note=82, velocity=92, time=304),
    Message('note_on', channel=13, note=78, velocity=92, time=0),
    Message('note_on', channel=13, note=75, velocity=92, time=0),
    Message('note_off', channel=13, note=82, velocity=0, time=80),
    Message('note_off', channel=13, note=78, velocity=0, time=0),
    Message('note_off', channel=13, note=75, velocity=0, time=0),
    Message('note_on', channel=13, note=75, velocity=92, time=16),
    Message('note_on', channel=13, note=70, velocity=92, time=0),
    Message('note_on', channel=13, note=66, velocity=92, time=0),
    Message('note_off', channel=13, note=75, velocity=0, time=80),
    Message('note_off', channel=13, note=70, velocity=0, time=0),
    Message('note_off', channel=13, note=66, velocity=0, time=0),
    Message('note_on', channel=13, note=86, velocity=92, time=112),
    Message('note_on', channel=13, note=81, velocity=92, time=0),
    Message('note_on', channel=13, note=77, velocity=92, time=0),
    Message('note_off', channel=13, note=77, velocity=0, time=80),
    Message('note_off', channel=13, note=81, velocity=0, time=0),
    Message('note_off', channel=13, note=86, velocity=0, time=0),
    Message('note_on', channel=13, note=74, velocity=92, time=112),
    Message('note_on', channel=13, note=69, velocity=92, time=0),
    Message('note_on', channel=13, note=65, velocity=92, time=0),
    Message('note_off', channel=13, note=74, velocity=0, time=80),
    Message('note_off', channel=13, note=69, velocity=0, time=0),
    Message('note_off', channel=13, note=65, velocity=0, time=0),
    Message('program_change', channel=13, program=40, time=112),
    Message('control_change', channel=13, control=7, value=100, time=0),
    Message('note_on', channel=13, note=70, velocity=105, time=0),
    Message('note_off', channel=13, note=70, velocity=0, time=24),
    Message('note_on', channel=13, note=69, velocity=75, time=0),
    Message('note_off', channel=13, note=69, velocity=0, time=24),
    Message('note_on', channel=13, note=68, velocity=75, time=0),
    Message('note_off', channel=13, note=68, velocity=0, time=24),
    Message('note_on', channel=13, note=69, velocity=75, time=0),
    Message('note_off', channel=13, note=69, velocity=0, time=23),
    Message('note_on', channel=13, note=70, velocity=105, time=97),
    Message('note_off', channel=13, note=70, velocity=0, time=24),
    Message('note_on', channel=13, note=69, velocity=75, time=0),
    Message('note_off', channel=13, note=69, velocity=0, time=24),
    Message('note_on', channel=13, note=68, velocity=75, time=0),
    Message('note_off', channel=13, note=68, velocity=0, time=24),
    Message('note_on', channel=13, note=69, velocity=75, time=0),
    Message('note_off', channel=13, note=69, velocity=0, time=23),
    Message('control_change', channel=13, control=7, value=80, time=145),
    Message('note_on', channel=13, note=70, velocity=63, time=0),
    Message('note_off', channel=13, note=70, velocity=0, time=16),
    Message('note_on', channel=13, note=69, velocity=45, time=0),
    Message('note_off', channel=13, note=69, velocity=0, time=16),
    Message('note_on', channel=13, note=68, velocity=45, time=0),
    Message('note_off', channel=13, note=68, velocity=0, time=16),
    Message('note_on', channel=13, note=69, velocity=45, time=0),
    Message('note_off', channel=13, note=69, velocity=0, time=16),
    Message('note_on', channel=13, note=70, velocity=45, time=0),
    Message('note_off', channel=13, note=70, velocity=0, time=16),
    Message('note_on', channel=13, note=69, velocity=45, time=0),
    Message('note_off', channel=13, note=69, velocity=0, time=16),
    Message('note_on', channel=13, note=68, velocity=45, time=0),
    Message('note_off', channel=13, note=68, velocity=0, time=16),
    Message('note_on', channel=13, note=69, velocity=45, time=0),
    Message('note_off', channel=13, note=69, velocity=0, time=16),
    Message('note_on', channel=13, note=70, velocity=45, time=0),
    Message('note_off', channel=13, note=70, velocity=0, time=15),
    Message('control_change', channel=13, control=7, value=90, time=1),
    Message('note_on', channel=13, note=69, velocity=60, time=0),
    Message('note_off', channel=13, note=69, velocity=0, time=16),
    Message('note_on', channel=13, note=68, velocity=60, time=0),
    Message('note_off', channel=13, note=68, velocity=0, time=16),
    Message('note_on', channel=13, note=69, velocity=60, time=0),
    Message('note_off', channel=13, note=69, velocity=0, time=16),
    Message('note_on', channel=13, note=70, velocity=60, time=0),
    Message('note_off', channel=13, note=70, velocity=0, time=16),
    Message('note_on', channel=13, note=69, velocity=60, time=0),
    Message('note_off', channel=13, note=69, velocity=0, time=16),
    Message('note_on', channel=13, note=68, velocity=60, time=0),
    Message('note_off', channel=13, note=68, velocity=0, time=16),
    Message('note_on', channel=13, note=69, velocity=60, time=0),
    Message('note_off', channel=13, note=69, velocity=0, time=16),
    Message('note_on', channel=13, note=68, velocity=60, time=0),
    Message('note_off', channel=13, note=68, velocity=0, time=16),
    Message('note_on', channel=13, note=69, velocity=60, time=0),
    Message('note_off', channel=13, note=69, velocity=0, time=15),
    Message('note_on', channel=13, note=69, velocity=60, time=1),
    Message('note_off', channel=13, note=69, velocity=0, time=16),
    Message('note_on', channel=13, note=68, velocity=60, time=0),
    Message('note_off', channel=13, note=68, velocity=0, time=16),
    Message('note_on', channel=13, note=69, velocity=60, time=0),
    Message('note_off', channel=13, note=69, velocity=0, time=16),
    Message('note_on', channel=13, note=70, velocity=60, time=0),
    Message('note_off', channel=13, note=70, velocity=0, time=16),
    Message('note_on', channel=13, note=69, velocity=60, time=0),
    Message('note_off', channel=13, note=69, velocity=0, time=16),
    Message('note_on', channel=13, note=68, velocity=60, time=0),
    Message('note_off', channel=13, note=68, velocity=0, time=16),
    Message('note_on', channel=13, note=69, velocity=60, time=0),
    Message('note_off', channel=13, note=69, velocity=0, time=16),
    Message('note_on', channel=13, note=68, velocity=60, time=0),
    Message('note_off', channel=13, note=68, velocity=0, time=16),
    Message('note_on', channel=13, note=69, velocity=60, time=0),
    Message('note_off', channel=13, note=69, velocity=0, time=15),
    Message('note_on', channel=13, note=70, velocity=60, time=1),
    Message('note_off', channel=13, note=70, velocity=0, time=16),
    Message('note_on', channel=13, note=69, velocity=60, time=0),
    Message('note_off', channel=13, note=69, velocity=0, time=16),
    Message('note_on', channel=13, note=70, velocity=60, time=0),
    Message('note_off', channel=13, note=70, velocity=0, time=16),
    Message('note_on', channel=13, note=72, velocity=60, time=0),
    Message('note_off', channel=13, note=72, velocity=0, time=16),
    Message('note_on', channel=13, note=70, velocity=60, time=0),
    Message('note_off', channel=13, note=70, velocity=0, time=16),
    Message('note_on', channel=13, note=69, velocity=60, time=0),
    Message('note_off', channel=13, note=69, velocity=0, time=16),
    Message('note_on', channel=13, note=70, velocity=60, time=0),
    Message('note_off', channel=13, note=70, velocity=0, time=16),
    Message('note_on', channel=13, note=69, velocity=60, time=0),
    Message('note_off', channel=13, note=69, velocity=0, time=16),
    Message('note_on', channel=13, note=70, velocity=60, time=0),
    Message('note_off', channel=13, note=70, velocity=0, time=15),
    Message('note_on', channel=13, note=70, velocity=60, time=1),
    Message('note_off', channel=13, note=70, velocity=0, time=16),
    Message('note_on', channel=13, note=69, velocity=60, time=0),
    Message('note_off', channel=13, note=69, velocity=0, time=16),
    Message('note_on', channel=13, note=70, velocity=60, time=0),
    Message('note_off', channel=13, note=70, velocity=0, time=16),
    Message('note_on', channel=13, note=72, velocity=60, time=0),
    Message('note_off', channel=13, note=72, velocity=0, time=16),
    Message('note_on', channel=13, note=70, velocity=60, time=0),
    Message('note_off', channel=13, note=70, velocity=0, time=16),
    Message('note_on', channel=13, note=69, velocity=60, time=0),
    Message('note_off', channel=13, note=69, velocity=0, time=16),
    Message('note_on', channel=13, note=70, velocity=60, time=0),
    Message('note_off', channel=13, note=70, velocity=0, time=16),
    Message('note_on', channel=13, note=69, velocity=60, time=0),
    Message('note_off', channel=13, note=69, velocity=0, time=16),
    Message('note_on', channel=13, note=70, velocity=60, time=0),
    Message('note_off', channel=13, note=70, velocity=0, time=15),
    Message('note_on', channel=13, note=72, velocity=60, time=1),
    Message('note_off', channel=13, note=72, velocity=0, time=16),
    Message('note_on', channel=13, note=71, velocity=60, time=0),
    Message('note_off', channel=13, note=71, velocity=0, time=16),
    Message('note_on', channel=13, note=72, velocity=60, time=0),
    Message('note_off', channel=13, note=72, velocity=0, time=16),
    Message('note_on', channel=13, note=74, velocity=60, time=0),
    Message('note_off', channel=13, note=74, velocity=0, time=16),
    Message('note_on', channel=13, note=72, velocity=60, time=0),
    Message('note_off', channel=13, note=72, velocity=0, time=16),
    Message('note_on', channel=13, note=71, velocity=60, time=0),
    Message('note_off', channel=13, note=71, velocity=0, time=16),
    Message('note_on', channel=13, note=72, velocity=60, time=0),
    Message('note_off', channel=13, note=72, velocity=0, time=16),
    Message('note_on', channel=13, note=69, velocity=60, time=0),
    Message('note_off', channel=13, note=69, velocity=0, time=16),
    Message('note_on', channel=13, note=64, velocity=60, time=0),
    Message('note_off', channel=13, note=64, velocity=0, time=16),
    Message('note_on', channel=13, note=60, velocity=60, time=0),
    Message('note_off', channel=13, note=60, velocity=0, time=16),
    Message('note_on', channel=13, note=59, velocity=60, time=0),
    Message('note_off', channel=13, note=59, velocity=0, time=16),
    Message('note_on', channel=13, note=60, velocity=60, time=0),
    Message('note_off', channel=13, note=60, velocity=0, time=16),
    Message('note_on', channel=13, note=62, velocity=60, time=0),
    Message('note_off', channel=13, note=62, velocity=0, time=16),
    Message('note_on', channel=13, note=60, velocity=60, time=0),
    Message('note_off', channel=13, note=60, velocity=0, time=16),
    Message('note_on', channel=13, note=62, velocity=60, time=0),
    Message('note_off', channel=13, note=62, velocity=0, time=16),
    Message('note_on', channel=13, note=64, velocity=60, time=0),
    Message('note_off', channel=13, note=64, velocity=0, time=16),
    Message('note_on', channel=13, note=60, velocity=60, time=0),
    Message('note_off', channel=13, note=60, velocity=0, time=16),
    Message('note_on', channel=13, note=59, velocity=60, time=0),
    Message('note_off', channel=13, note=59, velocity=0, time=15),
    Message('note_on', channel=13, note=57, velocity=84, time=1),
    Message('note_off', channel=13, note=57, velocity=0, time=16),
    Message('note_on', channel=13, note=59, velocity=60, time=0),
    Message('note_off', channel=13, note=59, velocity=0, time=16),
    Message('note_on', channel=13, note=60, velocity=60, time=0),
    Message('note_off', channel=13, note=60, velocity=0, time=16),
    Message('note_on', channel=13, note=59, velocity=60, time=0),
    Message('note_off', channel=13, note=59, velocity=0, time=16),
    Message('note_on', channel=13, note=60, velocity=60, time=0),
    Message('note_off', channel=13, note=60, velocity=0, time=16),
    Message('note_on', channel=13, note=62, velocity=60, time=0),
    Message('note_off', channel=13, note=62, velocity=0, time=16),
    Message('note_on', channel=13, note=60, velocity=60, time=0),
    Message('note_off', channel=13, note=60, velocity=0, time=16),
    Message('note_on', channel=13, note=62, velocity=60, time=0),
    Message('note_off', channel=13, note=62, velocity=0, time=16),
    Message('note_on', channel=13, note=64, velocity=60, time=0),
    Message('note_off', channel=13, note=64, velocity=0, time=15),
    Message('note_on', channel=13, note=60, velocity=60, time=1),
    Message('note_off', channel=13, note=60, velocity=0, time=16),
    Message('note_on', channel=13, note=59, velocity=60, time=0),
    Message('note_off', channel=13, note=59, velocity=0, time=16),
    Message('note_on', channel=13, note=60, velocity=60, time=0),
    Message('note_off', channel=13, note=60, velocity=0, time=16),
    Message('note_on', channel=13, note=62, velocity=60, time=0),
    Message('note_off', channel=13, note=62, velocity=0, time=16),
    Message('note_on', channel=13, note=60, velocity=60, time=0),
    Message('note_off', channel=13, note=60, velocity=0, time=16),
    Message('note_on', channel=13, note=62, velocity=60, time=0),
    Message('note_off', channel=13, note=62, velocity=0, time=16),
    Message('note_on', channel=13, note=63, velocity=60, time=0),
    Message('note_off', channel=13, note=63, velocity=0, time=16),
    Message('note_on', channel=13, note=65, velocity=60, time=0),
    Message('note_off', channel=13, note=65, velocity=0, time=16),
    Message('note_on', channel=13, note=67, velocity=60, time=0),
    Message('note_off', channel=13, note=67, velocity=0, time=16),
    Message('note_on', channel=13, note=65, velocity=60, time=0),
    Message('note_off', channel=13, note=65, velocity=0, time=16),
    Message('note_on', channel=13, note=63, velocity=60, time=0),
    Message('note_off', channel=13, note=63, velocity=0, time=16),
    Message('note_on', channel=13, note=62, velocity=60, time=0),
    Message('note_off', channel=13, note=62, velocity=0, time=16),
    Message('note_on', channel=13, note=63, velocity=60, time=0),
    Message('note_off', channel=13, note=63, velocity=0, time=16),
    Message('note_on', channel=13, note=60, velocity=60, time=0),
    Message('note_off', channel=13, note=60, velocity=0, time=16),
    Message('note_on', channel=13, note=55, velocity=60, time=0),
    Message('note_off', channel=13, note=55, velocity=0, time=16),
    Message('note_on', channel=13, note=60, velocity=60, time=0),
    Message('note_off', channel=13, note=60, velocity=0, time=16),
    Message('note_on', channel=13, note=63, velocity=60, time=0),
    Message('note_off', channel=13, note=63, velocity=0, time=16),
    Message('note_on', channel=13, note=67, velocity=60, time=0),
    Message('note_off', channel=13, note=67, velocity=0, time=15),
    Message('note_on', channel=13, note=63, velocity=84, time=1),
    Message('note_off', channel=13, note=63, velocity=0, time=16),
    Message('note_on', channel=13, note=62, velocity=60, time=0),
    Message('note_off', channel=13, note=62, velocity=0, time=16),
    Message('note_on', channel=13, note=63, velocity=60, time=0),
    Message('note_off', channel=13, note=63, velocity=0, time=16),
    Message('note_on', channel=13, note=65, velocity=60, time=0),
    Message('note_off', channel=13, note=65, velocity=0, time=16),
    Message('note_on', channel=13, note=63, velocity=60, time=0),
    Message('note_off', channel=13, note=63, velocity=0, time=16),
    Message('note_on', channel=13, note=65, velocity=60, time=0),
    Message('note_off', channel=13, note=65, velocity=0, time=16),
    Message('note_on', channel=13, note=67, velocity=60, time=0),
    Message('note_off', channel=13, note=67, velocity=0, time=16),
    Message('note_on', channel=13, note=63, velocity=60, time=0),
    Message('note_off', channel=13, note=63, velocity=0, time=16),
    Message('note_on', channel=13, note=55, velocity=60, time=0),
    Message('note_off', channel=13, note=55, velocity=0, time=15),
    Message('note_on', channel=13, note=57, velocity=60, time=1),
    Message('note_off', channel=13, note=57, velocity=0, time=16),
    Message('note_on', channel=13, note=56, velocity=60, time=0),
    Message('note_off', channel=13, note=56, velocity=0, time=16),
    Message('note_on', channel=13, note=57, velocity=60, time=0),
    Message('note_off', channel=13, note=57, velocity=0, time=16),
    Message('note_on', channel=13, note=59, velocity=60, time=0),
    Message('note_off', channel=13, note=59, velocity=0, time=16),
    Message('note_on', channel=13, note=57, velocity=60, time=0),
    Message('note_off', channel=13, note=57, velocity=0, time=16),
    Message('note_on', channel=13, note=59, velocity=60, time=0),
    Message('note_off', channel=13, note=59, velocity=0, time=16),
    Message('note_on', channel=13, note=57, velocity=60, time=0),
    Message('note_off', channel=13, note=57, velocity=0, time=16),
    Message('note_on', channel=13, note=56, velocity=60, time=0),
    Message('note_off', channel=13, note=56, velocity=0, time=16),
    Message('note_on', channel=13, note=57, velocity=60, time=0),
    Message('note_off', channel=13, note=57, velocity=0, time=16),
    Message('note_on', channel=13, note=59, velocity=60, time=0),
    Message('note_off', channel=13, note=59, velocity=0, time=16),
    Message('note_on', channel=13, note=57, velocity=60, time=0),
    Message('note_off', channel=13, note=57, velocity=0, time=16),
    Message('note_on', channel=13, note=59, velocity=60, time=0),
    Message('note_off', channel=13, note=59, velocity=0, time=16),
    Message('note_on', channel=13, note=61, velocity=60, time=0),
    Message('note_off', channel=13, note=61, velocity=0, time=16),
    Message('note_on', channel=13, note=59, velocity=60, time=0),
    Message('note_off', channel=13, note=59, velocity=0, time=16),
    Message('note_on', channel=13, note=57, velocity=60, time=0),
    Message('note_off', channel=13, note=57, velocity=0, time=16),
    Message('note_on', channel=13, note=56, velocity=60, time=0),
    Message('note_off', channel=13, note=56, velocity=0, time=16),
    Message('note_on', channel=13, note=57, velocity=60, time=0),
    Message('note_off', channel=13, note=57, velocity=0, time=16),
    Message('note_on', channel=13, note=59, velocity=60, time=0),
    Message('note_off', channel=13, note=59, velocity=0, time=15),
    Message('note_on', channel=13, note=57, velocity=84, time=1),
    Message('note_off', channel=13, note=57, velocity=0, time=16),
    Message('note_on', channel=13, note=59, velocity=60, time=0),
    Message('note_off', channel=13, note=59, velocity=0, time=16),
    Message('note_on', channel=13, note=61, velocity=60, time=0),
    Message('note_off', channel=13, note=61, velocity=0, time=16),
    Message('note_on', channel=13, note=62, velocity=60, time=0),
    Message('note_off', channel=13, note=62, velocity=0, time=16),
    Message('note_on', channel=13, note=61, velocity=60, time=0),
    Message('note_off', channel=13, note=61, velocity=0, time=16),
    Message('note_on', channel=13, note=59, velocity=60, time=0),
    Message('note_off', channel=13, note=59, velocity=0, time=16),
    Message('note_on', channel=13, note=61, velocity=60, time=0),
    Message('note_off', channel=13, note=61, velocity=0, time=16),
    Message('note_on', channel=13, note=59, velocity=60, time=0),
    Message('note_off', channel=13, note=59, velocity=0, time=16),
    Message('note_on', channel=13, note=57, velocity=60, time=0),
    Message('note_off', channel=13, note=57, velocity=0, time=15),
    Message('note_on', channel=13, note=60, velocity=60, time=1),
    Message('note_off', channel=13, note=60, velocity=0, time=16),
    Message('note_on', channel=13, note=59, velocity=60, time=0),
    Message('note_off', channel=13, note=59, velocity=0, time=16),
    Message('note_on', channel=13, note=60, velocity=60, time=0),
    Message('note_off', channel=13, note=60, velocity=0, time=16),
    Message('note_on', channel=13, note=62, velocity=60, time=0),
    Message('note_off', channel=13, note=62, velocity=0, time=16),
    Message('note_on', channel=13, note=60, velocity=60, time=0),
    Message('note_off', channel=13, note=60, velocity=0, time=16),
    Message('note_on', channel=13, note=62, velocity=60, time=0),
    Message('note_off', channel=13, note=62, velocity=0, time=16),
    Message('note_on', channel=13, note=64, velocity=60, time=0),
    Message('note_off', channel=13, note=64, velocity=0, time=16),
    Message('note_on', channel=13, note=62, velocity=60, time=0),
    Message('note_off', channel=13, note=62, velocity=0, time=16),
    Message('note_on', channel=13, note=60, velocity=60, time=0),
    Message('note_off', channel=13, note=60, velocity=0, time=16),
    Message('note_on', channel=13, note=62, velocity=60, time=0),
    Message('note_off', channel=13, note=62, velocity=0, time=16),
    Message('note_on', channel=13, note=64, velocity=60, time=0),
    Message('note_off', channel=13, note=64, velocity=0, time=16),
    Message('note_on', channel=13, note=69, velocity=60, time=0),
    Message('note_off', channel=13, note=69, velocity=0, time=16),
    Message('note_on', channel=13, note=72, velocity=60, time=0),
    Message('note_off', channel=13, note=72, velocity=0, time=16),
    Message('note_on', channel=13, note=69, velocity=60, time=0),
    Message('note_off', channel=13, note=69, velocity=0, time=16),
    Message('note_on', channel=13, note=64, velocity=60, time=0),
    Message('note_off', channel=13, note=64, velocity=0, time=16),
    Message('note_on', channel=13, note=60, velocity=60, time=0),
    Message('note_off', channel=13, note=60, velocity=0, time=16),
    Message('note_on', channel=13, note=64, velocity=60, time=0),
    Message('note_off', channel=13, note=64, velocity=0, time=16),
    Message('note_on', channel=13, note=69, velocity=60, time=0),
    Message('note_off', channel=13, note=69, velocity=0, time=15),
    Message('note_on', channel=13, note=72, velocity=84, time=1),
    Message('note_off', channel=13, note=72, velocity=0, time=16),
    Message('note_on', channel=13, note=71, velocity=60, time=0),
    Message('note_off', channel=13, note=71, velocity=0, time=16),
    Message('note_on', channel=13, note=72, velocity=60, time=0),
    Message('note_off', channel=13, note=72, velocity=0, time=16),
    Message('note_on', channel=13, note=74, velocity=60, time=0),
    Message('note_off', channel=13, note=74, velocity=0, time=16),
    Message('note_on', channel=13, note=72, velocity=60, time=0),
    Message('note_off', channel=13, note=72, velocity=0, time=16),
    Message('note_on', channel=13, note=71, velocity=60, time=0),
    Message('note_off', channel=13, note=71, velocity=0, time=16),
    Message('note_on', channel=13, note=69, velocity=60, time=0),
    Message('note_off', channel=13, note=69, velocity=0, time=16),
    Message('note_on', channel=13, note=71, velocity=60, time=0),
    Message('note_off', channel=13, note=71, velocity=0, time=16),
    Message('note_on', channel=13, note=72, velocity=60, time=0),
    Message('note_off', channel=13, note=72, velocity=0, time=15),
    Message('note_on', channel=13, note=71, velocity=60, time=1),
    Message('note_off', channel=13, note=71, velocity=0, time=16),
    Message('note_on', channel=13, note=69, velocity=60, time=0),
    Message('note_off', channel=13, note=69, velocity=0, time=16),
    Message('note_on', channel=13, note=71, velocity=60, time=0),
    Message('note_off', channel=13, note=71, velocity=0, time=16),
    Message('note_on', channel=13, note=72, velocity=60, time=0),
    Message('note_off', channel=13, note=72, velocity=0, time=16),
    Message('note_on', channel=13, note=71, velocity=60, time=0),
    Message('note_off', channel=13, note=71, velocity=0, time=16),
    Message('note_on', channel=13, note=72, velocity=60, time=0),
    Message('note_off', channel=13, note=72, velocity=0, time=16),
    Message('note_on', channel=13, note=74, velocity=60, time=0),
    Message('note_off', channel=13, note=74, velocity=0, time=16),
    Message('note_on', channel=13, note=72, velocity=60, time=0),
    Message('note_off', channel=13, note=72, velocity=0, time=16),
    Message('note_on', channel=13, note=74, velocity=60, time=0),
    Message('note_off', channel=13, note=74, velocity=0, time=15),
    Message('note_on', channel=13, note=75, velocity=60, time=1),
    Message('note_off', channel=13, note=75, velocity=0, time=16),
    Message('note_on', channel=13, note=72, velocity=60, time=0),
    Message('note_off', channel=13, note=72, velocity=0, time=16),
    Message('note_on', channel=13, note=71, velocity=60, time=0),
    Message('note_off', channel=13, note=71, velocity=0, time=16),
    Message('note_on', channel=13, note=76, velocity=60, time=0),
    Message('note_off', channel=13, note=76, velocity=0, time=16),
    Message('note_on', channel=13, note=75, velocity=60, time=0),
    Message('note_off', channel=13, note=75, velocity=0, time=16),
    Message('note_on', channel=13, note=76, velocity=60, time=0),
    Message('note_off', channel=13, note=76, velocity=0, time=16),
    Message('note_on', channel=13, note=78, velocity=60, time=0),
    Message('note_off', channel=13, note=78, velocity=0, time=16),
    Message('note_on', channel=13, note=76, velocity=60, time=0),
    Message('note_off', channel=13, note=76, velocity=0, time=16),
    Message('note_on', channel=13, note=78, velocity=60, time=0),
    Message('note_off', channel=13, note=78, velocity=0, time=15),
    Message('note_on', channel=13, note=79, velocity=60, time=1),
    Message('note_off', channel=13, note=79, velocity=0, time=16),
    Message('note_on', channel=13, note=78, velocity=60, time=0),
    Message('control_change', channel=13, control=7, value=91, time=12),
    Message('note_off', channel=13, note=78, velocity=0, time=4),
    Message('note_on', channel=13, note=79, velocity=60, time=0),
    Message('note_off', channel=13, note=79, velocity=0, time=16),
    Message('note_on', channel=13, note=81, velocity=60, time=0),
    Message('control_change', channel=13, control=7, value=92, time=9),
    Message('note_off', channel=13, note=81, velocity=0, time=7),
    Message('note_on', channel=13, note=79, velocity=61, time=0),
    Message('note_off', channel=13, note=79, velocity=0, time=16),
    Message('note_on', channel=13, note=81, velocity=62, time=0),
    Message('control_change', channel=13, control=7, value=93, time=6),
    Message('note_off', channel=13, note=81, velocity=0, time=10),
    Message('note_on', channel=13, note=83, velocity=63, time=0),
    Message('note_off', channel=13, note=83, velocity=0, time=16),
    Message('note_on', channel=13, note=81, velocity=64, time=0),
    Message('control_change', channel=13, control=7, value=94, time=3),
    Message('note_off', channel=13, note=81, velocity=0, time=13),
    Message('note_on', channel=13, note=83, velocity=65, time=0),
    Message('note_off', channel=13, note=83, velocity=0, time=15),
    Message('control_change', channel=13, control=7, value=95, time=0),
    Message('note_on', channel=13, note=84, velocity=66, time=1),
    Message('note_off', channel=13, note=84, velocity=0, time=16),
    Message('note_on', channel=13, note=83, velocity=67, time=0),
    Message('control_change', channel=13, control=7, value=96, time=12),
    Message('note_off', channel=13, note=83, velocity=0, time=4),
    Message('note_on', channel=13, note=84, velocity=68, time=0),
    Message('note_off', channel=13, note=84, velocity=0, time=16),
    Message('note_on', channel=13, note=86, velocity=69, time=0),
    Message('control_change', channel=13, control=7, value=97, time=9),
    Message('note_off', channel=13, note=86, velocity=0, time=7),
    Message('note_on', channel=13, note=84, velocity=70, time=0),
    Message('note_off', channel=13, note=84, velocity=0, time=16),
    Message('note_on', channel=13, note=86, velocity=71, time=0),
    Message('control_change', channel=13, control=7, value=98, time=6),
    Message('note_off', channel=13, note=86, velocity=0, time=10),
    Message('note_on', channel=13, note=87, velocity=72, time=0),
    Message('note_off', channel=13, note=87, velocity=0, time=16),
    Message('note_on', channel=13, note=86, velocity=73, time=0),
    Message('control_change', channel=13, control=7, value=99, time=3),
    Message('note_off', channel=13, note=86, velocity=0, time=13),
    Message('note_on', channel=13, note=87, velocity=74, time=0),
    Message('control_change', channel=13, control=7, value=100, time=15),
    Message('note_off', channel=13, note=87, velocity=0, time=1),
    Message('note_on', channel=13, note=88, velocity=75, time=0),
    Message('note_off', channel=13, note=88, velocity=0, time=16),
    Message('note_on', channel=13, note=79, velocity=75, time=32),
    Message('note_on', channel=13, note=76, velocity=75, time=0),
    Message('note_off', channel=13, note=79, velocity=0, time=15),
    Message('note_off', channel=13, note=76, velocity=0, time=0),
    Message('note_on', channel=13, note=79, velocity=75, time=1),
    Message('note_on', channel=13, note=76, velocity=75, time=0),
    Message('note_off', channel=13, note=79, velocity=0, time=15),
    Message('note_off', channel=13, note=76, velocity=0, time=0),
    Message('note_on', channel=13, note=79, velocity=75, time=1),
    Message('note_on', channel=13, note=76, velocity=75, time=0),
    Message('note_off', channel=13, note=79, velocity=0, time=15),
    Message('note_off', channel=13, note=76, velocity=0, time=0),
    Message('note_on', channel=13, note=79, velocity=75, time=1),
    Message('note_on', channel=13, note=76, velocity=75, time=0),
    Message('note_off', channel=13, note=79, velocity=0, time=15),
    Message('note_off', channel=13, note=76, velocity=0, time=0),
    Message('note_on', channel=13, note=79, velocity=75, time=1),
    Message('note_on', channel=13, note=76, velocity=75, time=0),
    Message('note_off', channel=13, note=79, velocity=0, time=15),
    Message('note_off', channel=13, note=76, velocity=0, time=0),
    Message('note_on', channel=13, note=79, velocity=75, time=1),
    Message('note_on', channel=13, note=76, velocity=75, time=0),
    Message('note_off', channel=13, note=79, velocity=0, time=15),
    Message('note_off', channel=13, note=76, velocity=0, time=0),
    Message('note_on', channel=13, note=79, velocity=105, time=1),
    Message('note_on', channel=13, note=76, velocity=105, time=0),
    Message('note_off', channel=13, note=79, velocity=0, time=16),
    Message('note_off', channel=13, note=76, velocity=0, time=0),
    Message('note_on', channel=13, note=79, velocity=75, time=32),
    Message('note_on', channel=13, note=76, velocity=75, time=0),
    Message('note_off', channel=13, note=79, velocity=0, time=15),
    Message('note_off', channel=13, note=76, velocity=0, time=0),
    Message('note_on', channel=13, note=79, velocity=75, time=1),
    Message('note_on', channel=13, note=76, velocity=75, time=0),
    Message('note_off', channel=13, note=76, velocity=0, time=15),
    Message('note_off', channel=13, note=79, velocity=0, time=0),
    Message('note_on', channel=13, note=79, velocity=75, time=1),
    Message('note_on', channel=13, note=76, velocity=75, time=0),
    Message('note_off', channel=13, note=79, velocity=0, time=15),
    Message('note_off', channel=13, note=76, velocity=0, time=0),
    Message('note_on', channel=13, note=79, velocity=75, time=1),
    Message('note_on', channel=13, note=76, velocity=75, time=0),
    Message('note_off', channel=13, note=79, velocity=0, time=15),
    Message('note_off', channel=13, note=76, velocity=0, time=0),
    Message('note_on', channel=13, note=79, velocity=75, time=1),
    Message('note_on', channel=13, note=76, velocity=75, time=0),
    Message('note_off', channel=13, note=76, velocity=0, time=15),
    Message('note_off', channel=13, note=79, velocity=0, time=0),
    Message('note_on', channel=13, note=79, velocity=75, time=1),
    Message('note_on', channel=13, note=76, velocity=75, time=0),
    Message('note_off', channel=13, note=79, velocity=0, time=15),
    Message('note_off', channel=13, note=76, velocity=0, time=0),
    Message('note_on', channel=13, note=79, velocity=105, time=1),
    Message('note_on', channel=13, note=76, velocity=105, time=0),
    Message('note_off', channel=13, note=79, velocity=0, time=16),
    Message('note_off', channel=13, note=76, velocity=0, time=0),
    Message('note_on', channel=13, note=79, velocity=75, time=32),
    Message('note_on', channel=13, note=76, velocity=75, time=0),
    Message('note_off', channel=13, note=79, velocity=0, time=15),
    Message('note_off', channel=13, note=76, velocity=0, time=0),
    Message('note_on', channel=13, note=79, velocity=75, time=1),
    Message('note_on', channel=13, note=76, velocity=75, time=0),
    Message('note_off', channel=13, note=76, velocity=0, time=15),
    Message('note_off', channel=13, note=79, velocity=0, time=0),
    Message('note_on', channel=13, note=79, velocity=75, time=1),
    Message('note_on', channel=13, note=76, velocity=75, time=0),
    Message('note_off', channel=13, note=79, velocity=0, time=15),
    Message('note_off', channel=13, note=76, velocity=0, time=0),
    Message('note_on', channel=13, note=79, velocity=75, time=1),
    Message('note_on', channel=13, note=76, velocity=75, time=0),
    Message('note_off', channel=13, note=79, velocity=0, time=15),
    Message('note_off', channel=13, note=76, velocity=0, time=0),
    Message('note_on', channel=13, note=79, velocity=75, time=1),
    Message('note_on', channel=13, note=76, velocity=75, time=0),
    Message('note_off', channel=13, note=76, velocity=0, time=15),
    Message('note_off', channel=13, note=79, velocity=0, time=0),
    Message('note_on', channel=13, note=79, velocity=75, time=1),
    Message('note_on', channel=13, note=76, velocity=75, time=0),
    Message('note_off', channel=13, note=79, velocity=0, time=15),
    Message('note_off', channel=13, note=76, velocity=0, time=0),
    Message('note_on', channel=13, note=79, velocity=75, time=1),
    Message('note_on', channel=13, note=76, velocity=75, time=0),
    Message('note_off', channel=13, note=79, velocity=0, time=24),
    Message('note_off', channel=13, note=76, velocity=0, time=0),
    Message('note_on', channel=13, note=78, velocity=75, time=0),
    Message('note_on', channel=13, note=75, velocity=75, time=0),
    Message('note_off', channel=13, note=75, velocity=0, time=23),
    Message('note_off', channel=13, note=78, velocity=0, time=0),
    Message('note_on', channel=13, note=79, velocity=75, time=145),
    Message('note_on', channel=13, note=76, velocity=75, time=0),
    Message('note_off', channel=13, note=79, velocity=0, time=15),
    Message('note_off', channel=13, note=76, velocity=0, time=0),
    Message('note_on', channel=13, note=79, velocity=75, time=1),
    Message('note_on', channel=13, note=76, velocity=75, time=0),
    Message('note_off', channel=13, note=79, velocity=0, time=15),
    Message('note_off', channel=13, note=76, velocity=0, time=0),
    Message('note_on', channel=13, note=79, velocity=75, time=1),
    Message('note_on', channel=13, note=76, velocity=75, time=0),
    Message('note_off', channel=13, note=79, velocity=0, time=15),
    Message('note_off', channel=13, note=76, velocity=0, time=0),
    Message('note_on', channel=13, note=79, velocity=75, time=1),
    Message('note_on', channel=13, note=76, velocity=75, time=0),
    Message('note_off', channel=13, note=79, velocity=0, time=15),
    Message('note_off', channel=13, note=76, velocity=0, time=0),
    Message('note_on', channel=13, note=79, velocity=75, time=1),
    Message('note_on', channel=13, note=76, velocity=75, time=0),
    Message('note_off', channel=13, note=79, velocity=0, time=15),
    Message('note_off', channel=13, note=76, velocity=0, time=0),
    Message('note_on', channel=13, note=79, velocity=75, time=1),
    Message('note_on', channel=13, note=76, velocity=75, time=0),
    Message('note_off', channel=13, note=79, velocity=0, time=15),
    Message('note_off', channel=13, note=76, velocity=0, time=0),
    Message('note_on', channel=13, note=79, velocity=105, time=1),
    Message('note_on', channel=13, note=76, velocity=105, time=0),
    Message('note_off', channel=13, note=79, velocity=0, time=16),
    Message('note_off', channel=13, note=76, velocity=0, time=0),
    Message('note_on', channel=13, note=79, velocity=75, time=32),
    Message('note_on', channel=13, note=76, velocity=75, time=0),
    Message('note_off', channel=13, note=79, velocity=0, time=15),
    Message('note_off', channel=13, note=76, velocity=0, time=0),
    Message('note_on', channel=13, note=79, velocity=75, time=1),
    Message('note_on', channel=13, note=76, velocity=75, time=0),
    Message('note_off', channel=13, note=79, velocity=0, time=15),
    Message('note_off', channel=13, note=76, velocity=0, time=0),
    Message('note_on', channel=13, note=79, velocity=75, time=1),
    Message('note_on', channel=13, note=76, velocity=75, time=0),
    Message('note_off', channel=13, note=79, velocity=0, time=15),
    Message('note_off', channel=13, note=76, velocity=0, time=0),
    Message('note_on', channel=13, note=79, velocity=75, time=1),
    Message('note_on', channel=13, note=76, velocity=75, time=0),
    Message('note_off', channel=13, note=79, velocity=0, time=15),
    Message('note_off', channel=13, note=76, velocity=0, time=0),
    Message('note_on', channel=13, note=79, velocity=75, time=1),
    Message('note_on', channel=13, note=76, velocity=75, time=0),
    Message('note_off', channel=13, note=79, velocity=0, time=15),
    Message('note_off', channel=13, note=76, velocity=0, time=0),
    Message('note_on', channel=13, note=79, velocity=75, time=1),
    Message('note_on', channel=13, note=76, velocity=75, time=0),
    Message('note_off', channel=13, note=79, velocity=0, time=15),
    Message('note_off', channel=13, note=76, velocity=0, time=0),
    Message('note_on', channel=13, note=79, velocity=105, time=1),
    Message('note_on', channel=13, note=76, velocity=105, time=0),
    Message('note_off', channel=13, note=79, velocity=0, time=16),
    Message('note_off', channel=13, note=76, velocity=0, time=0),
    Message('note_on', channel=13, note=79, velocity=75, time=32),
    Message('note_on', channel=13, note=76, velocity=75, time=0),
    Message('note_off', channel=13, note=79, velocity=0, time=15),
    Message('note_off', channel=13, note=76, velocity=0, time=0),
    Message('note_on', channel=13, note=79, velocity=75, time=1),
    Message('note_on', channel=13, note=76, velocity=75, time=0),
    Message('note_off', channel=13, note=76, velocity=0, time=15),
    Message('note_off', channel=13, note=79, velocity=0, time=0),
    Message('note_on', channel=13, note=79, velocity=75, time=1),
    Message('note_on', channel=13, note=76, velocity=75, time=0),
    Message('note_off', channel=13, note=79, velocity=0, time=15),
    Message('note_off', channel=13, note=76, velocity=0, time=0),
    Message('note_on', channel=13, note=79, velocity=75, time=1),
    Message('note_on', channel=13, note=76, velocity=75, time=0),
    Message('note_off', channel=13, note=79, velocity=0, time=15),
    Message('note_off', channel=13, note=76, velocity=0, time=0),
    Message('note_on', channel=13, note=79, velocity=75, time=1),
    Message('note_on', channel=13, note=76, velocity=75, time=0),
    Message('note_off', channel=13, note=76, velocity=0, time=15),
    Message('note_off', channel=13, note=79, velocity=0, time=0),
    Message('note_on', channel=13, note=79, velocity=75, time=1),
    Message('note_on', channel=13, note=76, velocity=75, time=0),
    Message('note_off', channel=13, note=79, velocity=0, time=15),
    Message('note_off', channel=13, note=76, velocity=0, time=0),
    Message('note_on', channel=13, note=79, velocity=75, time=1),
    Message('note_on', channel=13, note=76, velocity=75, time=0),
    Message('note_off', channel=13, note=79, velocity=0, time=24),
    Message('note_off', channel=13, note=76, velocity=0, time=0),
    Message('note_on', channel=13, note=78, velocity=75, time=0),
    Message('note_on', channel=13, note=75, velocity=75, time=0),
    Message('note_off', channel=13, note=75, velocity=0, time=23),
    Message('note_off', channel=13, note=78, velocity=0, time=0),
    Message('note_on', channel=13, note=79, velocity=75, time=49),
    Message('note_on', channel=13, note=67, velocity=75, time=0),
    Message('note_off', channel=13, note=79, velocity=0, time=47),
    Message('note_off', channel=13, note=67, velocity=0, time=0),
    Message('note_on', channel=13, note=68, velocity=75, time=1),
    Message('note_on', channel=13, note=63, velocity=75, time=0),
    Message('note_on', channel=13, note=60, velocity=75, time=0),
    Message('note_off', channel=13, note=68, velocity=0, time=12),
    Message('note_off', channel=13, note=63, velocity=0, time=0),
    Message('note_off', channel=13, note=60, velocity=0, time=0),
    Message('note_on', channel=13, note=69, velocity=75, time=0),
    Message('note_on', channel=13, note=64, velocity=75, time=0),
    Message('note_on', channel=13, note=61, velocity=75, time=0),
    Message('note_off', channel=13, note=61, velocity=0, time=12),
    Message('note_off', channel=13, note=64, velocity=0, time=0),
    Message('note_off', channel=13, note=69, velocity=0, time=0),
    Message('note_on', channel=13, note=70, velocity=75, time=0),
    Message('note_on', channel=13, note=65, velocity=75, time=0),
    Message('note_on', channel=13, note=62, velocity=75, time=0),
    Message('note_off', channel=13, note=62, velocity=0, time=12),
    Message('note_off', channel=13, note=65, velocity=0, time=0),
    Message('note_off', channel=13, note=70, velocity=0, time=0),
    Message('note_on', channel=13, note=71, velocity=75, time=0),
    Message('note_on', channel=13, note=66, velocity=75, time=0),
    Message('note_on', channel=13, note=63, velocity=75, time=0),
    Message('note_off', channel=13, note=63, velocity=0, time=12),
    Message('note_off', channel=13, note=66, velocity=0, time=0),
    Message('note_off', channel=13, note=71, velocity=0, time=0),
    Message('note_on', channel=13, note=72, velocity=75, time=0),
    Message('note_on', channel=13, note=67, velocity=75, time=0),
    Message('note_on', channel=13, note=64, velocity=75, time=0),
    Message('note_off', channel=13, note=72, velocity=0, time=12),
    Message('note_off', channel=13, note=67, velocity=0, time=0),
    Message('note_off', channel=13, note=64, velocity=0, time=0),
    Message('note_on', channel=13, note=73, velocity=75, time=0),
    Message('note_on', channel=13, note=68, velocity=75, time=0),
    Message('note_on', channel=13, note=65, velocity=75, time=0),
    Message('note_off', channel=13, note=65, velocity=0, time=12),
    Message('note_off', channel=13, note=68, velocity=0, time=0),
    Message('note_off', channel=13, note=73, velocity=0, time=0),
    Message('note_on', channel=13, note=74, velocity=75, time=0),
    Message('note_on', channel=13, note=69, velocity=75, time=0),
    Message('note_on', channel=13, note=66, velocity=75, time=0),
    Message('note_off', channel=13, note=66, velocity=0, time=12),
    Message('note_off', channel=13, note=69, velocity=0, time=0),
    Message('note_off', channel=13, note=74, velocity=0, time=0),
    Message('note_on', channel=13, note=75, velocity=75, time=0),
    Message('note_on', channel=13, note=70, velocity=75, time=0),
    Message('note_on', channel=13, note=67, velocity=75, time=0),
    Message('note_off', channel=13, note=67, velocity=0, time=12),
    Message('note_off', channel=13, note=70, velocity=0, time=0),
    Message('note_off', channel=13, note=75, velocity=0, time=0),
    Message('note_on', channel=13, note=76, velocity=75, time=0),
    Message('note_on', channel=13, note=71, velocity=75, time=0),
    Message('note_on', channel=13, note=68, velocity=75, time=0),
    Message('note_off', channel=13, note=68, velocity=0, time=12),
    Message('note_off', channel=13, note=71, velocity=0, time=0),
    Message('note_off', channel=13, note=76, velocity=0, time=0),
    Message('note_on', channel=13, note=77, velocity=75, time=0),
    Message('note_on', channel=13, note=72, velocity=75, time=0),
    Message('note_on', channel=13, note=69, velocity=75, time=0),
    Message('note_off', channel=13, note=69, velocity=0, time=12),
    Message('note_off', channel=13, note=72, velocity=0, time=0),
    Message('note_off', channel=13, note=77, velocity=0, time=0),
    Message('note_on', channel=13, note=78, velocity=75, time=0),
    Message('note_on', channel=13, note=73, velocity=75, time=0),
    Message('note_on', channel=13, note=70, velocity=75, time=0),
    Message('note_off', channel=13, note=70, velocity=0, time=12),
    Message('note_off', channel=13, note=73, velocity=0, time=0),
    Message('note_off', channel=13, note=78, velocity=0, time=0),
    Message('note_on', channel=13, note=79, velocity=75, time=0),
    Message('note_on', channel=13, note=74, velocity=75, time=0),
    Message('note_on', channel=13, note=71, velocity=75, time=0),
    Message('note_off', channel=13, note=79, velocity=0, time=12),
    Message('note_off', channel=13, note=74, velocity=0, time=0),
    Message('note_off', channel=13, note=71, velocity=0, time=0),
    Message('note_on', channel=13, note=80, velocity=75, time=0),
    Message('note_on', channel=13, note=75, velocity=75, time=0),
    Message('note_on', channel=13, note=72, velocity=75, time=0),
    Message('note_off', channel=13, note=72, velocity=0, time=12),
    Message('note_off', channel=13, note=80, velocity=0, time=0),
    Message('note_off', channel=13, note=75, velocity=0, time=0),
    Message('note_on', channel=13, note=79, velocity=75, time=0),
    Message('note_on', channel=13, note=74, velocity=75, time=0),
    Message('note_on', channel=13, note=71, velocity=75, time=0),
    Message('note_off', channel=13, note=71, velocity=0, time=12),
    Message('note_off', channel=13, note=79, velocity=0, time=0),
    Message('note_off', channel=13, note=74, velocity=0, time=0),
    Message('note_on', channel=13, note=78, velocity=75, time=0),
    Message('note_on', channel=13, note=73, velocity=75, time=0),
    Message('note_on', channel=13, note=70, velocity=75, time=0),
    Message('note_off', channel=13, note=70, velocity=0, time=12),
    Message('note_off', channel=13, note=73, velocity=0, time=0),
    Message('note_off', channel=13, note=78, velocity=0, time=0),
    Message('note_on', channel=13, note=77, velocity=75, time=0),
    Message('note_on', channel=13, note=72, velocity=75, time=0),
    Message('note_on', channel=13, note=69, velocity=75, time=0),
    Message('note_off', channel=13, note=69, velocity=0, time=12),
    Message('note_off', channel=13, note=72, velocity=0, time=0),
    Message('note_off', channel=13, note=77, velocity=0, time=0),
    Message('note_on', channel=13, note=76, velocity=75, time=0),
    Message('note_on', channel=13, note=71, velocity=75, time=0),
    Message('note_on', channel=13, note=68, velocity=75, time=0),
    Message('note_off', channel=13, note=68, velocity=0, time=12),
    Message('note_off', channel=13, note=76, velocity=0, time=0),
    Message('note_off', channel=13, note=71, velocity=0, time=0),
    Message('note_on', channel=13, note=75, velocity=75, time=0),
    Message('note_on', channel=13, note=70, velocity=75, time=0),
    Message('note_on', channel=13, note=67, velocity=75, time=0),
    Message('note_off', channel=13, note=67, velocity=0, time=12),
    Message('note_off', channel=13, note=75, velocity=0, time=0),
    Message('note_off', channel=13, note=70, velocity=0, time=0),
    Message('note_on', channel=13, note=74, velocity=75, time=0),
    Message('note_on', channel=13, note=69, velocity=75, time=0),
    Message('note_on', channel=13, note=66, velocity=75, time=0),
    Message('note_off', channel=13, note=66, velocity=0, time=12),
    Message('note_off', channel=13, note=69, velocity=0, time=0),
    Message('note_off', channel=13, note=74, velocity=0, time=0),
    Message('note_on', channel=13, note=73, velocity=75, time=0),
    Message('note_on', channel=13, note=68, velocity=75, time=0),
    Message('note_on', channel=13, note=65, velocity=75, time=0),
    Message('note_off', channel=13, note=73, velocity=0, time=12),
    Message('note_off', channel=13, note=65, velocity=0, time=0),
    Message('note_off', channel=13, note=68, velocity=0, time=0),
    Message('note_on', channel=13, note=72, velocity=75, time=0),
    Message('note_on', channel=13, note=67, velocity=75, time=0),
    Message('note_on', channel=13, note=64, velocity=75, time=0),
    Message('note_off', channel=13, note=72, velocity=0, time=12),
    Message('note_off', channel=13, note=67, velocity=0, time=0),
    Message('note_off', channel=13, note=64, velocity=0, time=0),
    Message('note_on', channel=13, note=71, velocity=75, time=0),
    Message('note_on', channel=13, note=66, velocity=75, time=0),
    Message('note_on', channel=13, note=63, velocity=75, time=0),
    Message('note_off', channel=13, note=71, velocity=0, time=12),
    Message('note_off', channel=13, note=66, velocity=0, time=0),
    Message('note_off', channel=13, note=63, velocity=0, time=0),
    Message('note_on', channel=13, note=70, velocity=75, time=0),
    Message('note_on', channel=13, note=65, velocity=75, time=0),
    Message('note_on', channel=13, note=62, velocity=75, time=0),
    Message('note_off', channel=13, note=70, velocity=0, time=12),
    Message('note_off', channel=13, note=65, velocity=0, time=0),
    Message('note_off', channel=13, note=62, velocity=0, time=0),
    Message('note_on', channel=13, note=69, velocity=75, time=0),
    Message('note_on', channel=13, note=64, velocity=75, time=0),
    Message('note_on', channel=13, note=61, velocity=75, time=0),
    Message('note_off', channel=13, note=69, velocity=0, time=12),
    Message('note_off', channel=13, note=64, velocity=0, time=0),
    Message('note_off', channel=13, note=61, velocity=0, time=0),
    Message('note_on', channel=13, note=68, velocity=75, time=0),
    Message('note_on', channel=13, note=63, velocity=75, time=0),
    Message('note_on', channel=13, note=60, velocity=75, time=0),
    Message('note_off', channel=13, note=68, velocity=0, time=12),
    Message('note_off', channel=13, note=63, velocity=0, time=0),
    Message('note_off', channel=13, note=60, velocity=0, time=0),
    Message('note_on', channel=13, note=69, velocity=75, time=0),
    Message('note_on', channel=13, note=64, velocity=75, time=0),
    Message('note_on', channel=13, note=61, velocity=75, time=0),
    Message('note_off', channel=13, note=69, velocity=0, time=12),
    Message('note_off', channel=13, note=64, velocity=0, time=0),
    Message('note_off', channel=13, note=61, velocity=0, time=0),
    Message('note_on', channel=13, note=70, velocity=75, time=0),
    Message('note_on', channel=13, note=65, velocity=75, time=0),
    Message('note_on', channel=13, note=62, velocity=75, time=0),
    Message('note_off', channel=13, note=62, velocity=0, time=12),
    Message('note_off', channel=13, note=65, velocity=0, time=0),
    Message('note_off', channel=13, note=70, velocity=0, time=0),
    Message('note_on', channel=13, note=71, velocity=75, time=0),
    Message('note_on', channel=13, note=66, velocity=75, time=0),
    Message('note_on', channel=13, note=63, velocity=75, time=0),
    Message('note_off', channel=13, note=63, velocity=0, time=12),
    Message('note_off', channel=13, note=66, velocity=0, time=0),
    Message('note_off', channel=13, note=71, velocity=0, time=0),
    Message('note_on', channel=13, note=72, velocity=75, time=0),
    Message('note_on', channel=13, note=67, velocity=75, time=0),
    Message('note_on', channel=13, note=64, velocity=75, time=0),
    Message('note_off', channel=13, note=72, velocity=0, time=12),
    Message('note_off', channel=13, note=67, velocity=0, time=0),
    Message('note_off', channel=13, note=64, velocity=0, time=0),
    Message('note_on', channel=13, note=73, velocity=75, time=0),
    Message('note_on', channel=13, note=68, velocity=75, time=0),
    Message('note_on', channel=13, note=65, velocity=75, time=0),
    Message('note_off', channel=13, note=73, velocity=0, time=12),
    Message('note_off', channel=13, note=65, velocity=0, time=0),
    Message('note_off', channel=13, note=68, velocity=0, time=0),
    Message('note_on', channel=13, note=74, velocity=75, time=0),
    Message('note_on', channel=13, note=69, velocity=75, time=0),
    Message('note_on', channel=13, note=66, velocity=75, time=0),
    Message('note_off', channel=13, note=66, velocity=0, time=12),
    Message('note_off', channel=13, note=69, velocity=0, time=0),
    Message('note_off', channel=13, note=74, velocity=0, time=0),
    Message('note_on', channel=13, note=75, velocity=75, time=0),
    Message('note_on', channel=13, note=70, velocity=75, time=0),
    Message('note_on', channel=13, note=67, velocity=75, time=0),
    Message('note_off', channel=13, note=67, velocity=0, time=12),
    Message('note_off', channel=13, note=70, velocity=0, time=0),
    Message('note_off', channel=13, note=75, velocity=0, time=0),
    Message('note_on', channel=13, note=76, velocity=75, time=0),
    Message('note_on', channel=13, note=71, velocity=75, time=0),
    Message('note_on', channel=13, note=68, velocity=75, time=0),
    Message('note_off', channel=13, note=68, velocity=0, time=12),
    Message('note_off', channel=13, note=76, velocity=0, time=0),
    Message('note_off', channel=13, note=71, velocity=0, time=0),
    Message('note_on', channel=13, note=77, velocity=75, time=0),
    Message('note_on', channel=13, note=72, velocity=75, time=0),
    Message('note_on', channel=13, note=69, velocity=75, time=0),
    Message('note_off', channel=13, note=77, velocity=0, time=12),
    Message('note_off', channel=13, note=72, velocity=0, time=0),
    Message('note_off', channel=13, note=69, velocity=0, time=0),
    Message('note_on', channel=13, note=78, velocity=75, time=0),
    Message('note_on', channel=13, note=73, velocity=75, time=0),
    Message('note_on', channel=13, note=70, velocity=75, time=0),
    Message('note_off', channel=13, note=70, velocity=0, time=12),
    Message('note_off', channel=13, note=73, velocity=0, time=0),
    Message('note_off', channel=13, note=78, velocity=0, time=0),
    Message('note_on', channel=13, note=79, velocity=75, time=0),
    Message('note_on', channel=13, note=74, velocity=75, time=0),
    Message('note_on', channel=13, note=71, velocity=75, time=0),
    Message('note_off', channel=13, note=79, velocity=0, time=12),
    Message('note_off', channel=13, note=74, velocity=0, time=0),
    Message('note_off', channel=13, note=71, velocity=0, time=0),
    Message('note_on', channel=13, note=80, velocity=75, time=0),
    Message('note_on', channel=13, note=75, velocity=75, time=0),
    Message('note_on', channel=13, note=72, velocity=75, time=0),
    Message('note_off', channel=13, note=80, velocity=0, time=12),
    Message('note_off', channel=13, note=75, velocity=0, time=0),
    Message('note_off', channel=13, note=72, velocity=0, time=0),
    Message('note_on', channel=13, note=79, velocity=75, time=0),
    Message('note_on', channel=13, note=74, velocity=75, time=0),
    Message('note_on', channel=13, note=71, velocity=75, time=0),
    Message('note_off', channel=13, note=71, velocity=0, time=12),
    Message('note_off', channel=13, note=74, velocity=0, time=0),
    Message('note_off', channel=13, note=79, velocity=0, time=0),
    Message('note_on', channel=13, note=78, velocity=75, time=0),
    Message('note_on', channel=13, note=73, velocity=75, time=0),
    Message('note_on', channel=13, note=70, velocity=75, time=0),
    Message('note_off', channel=13, note=70, velocity=0, time=12),
    Message('note_off', channel=13, note=73, velocity=0, time=0),
    Message('note_off', channel=13, note=78, velocity=0, time=0),
    Message('note_on', channel=13, note=77, velocity=75, time=0),
    Message('note_on', channel=13, note=72, velocity=75, time=0),
    Message('note_on', channel=13, note=69, velocity=75, time=0),
    Message('note_off', channel=13, note=69, velocity=0, time=12),
    Message('note_off', channel=13, note=72, velocity=0, time=0),
    Message('note_off', channel=13, note=77, velocity=0, time=0),
    Message('note_on', channel=13, note=76, velocity=75, time=0),
    Message('note_on', channel=13, note=71, velocity=75, time=0),
    Message('note_on', channel=13, note=68, velocity=75, time=0),
    Message('note_off', channel=13, note=68, velocity=0, time=12),
    Message('note_off', channel=13, note=71, velocity=0, time=0),
    Message('note_off', channel=13, note=76, velocity=0, time=0),
    Message('note_on', channel=13, note=75, velocity=75, time=0),
    Message('note_on', channel=13, note=70, velocity=75, time=0),
    Message('note_on', channel=13, note=67, velocity=75, time=0),
    Message('note_off', channel=13, note=75, velocity=0, time=12),
    Message('note_off', channel=13, note=67, velocity=0, time=0),
    Message('note_off', channel=13, note=70, velocity=0, time=0),
    Message('note_on', channel=13, note=74, velocity=75, time=0),
    Message('note_on', channel=13, note=69, velocity=75, time=0),
    Message('note_on', channel=13, note=66, velocity=75, time=0),
    Message('note_off', channel=13, note=66, velocity=0, time=12),
    Message('note_off', channel=13, note=69, velocity=0, time=0),
    Message('note_off', channel=13, note=74, velocity=0, time=0),
    Message('note_on', channel=13, note=73, velocity=75, time=0),
    Message('note_on', channel=13, note=68, velocity=75, time=0),
    Message('note_on', channel=13, note=65, velocity=75, time=0),
    Message('note_off', channel=13, note=65, velocity=0, time=12),
    Message('note_off', channel=13, note=68, velocity=0, time=0),
    Message('note_off', channel=13, note=73, velocity=0, time=0),
    Message('note_on', channel=13, note=72, velocity=75, time=0),
    Message('note_on', channel=13, note=67, velocity=75, time=0),
    Message('note_on', channel=13, note=64, velocity=75, time=0),
    Message('note_off', channel=13, note=72, velocity=0, time=12),
    Message('note_off', channel=13, note=67, velocity=0, time=0),
    Message('note_off', channel=13, note=64, velocity=0, time=0),
    Message('note_on', channel=13, note=71, velocity=75, time=0),
    Message('note_on', channel=13, note=66, velocity=75, time=0),
    Message('note_on', channel=13, note=63, velocity=75, time=0),
    Message('note_off', channel=13, note=71, velocity=0, time=12),
    Message('note_off', channel=13, note=66, velocity=0, time=0),
    Message('note_off', channel=13, note=63, velocity=0, time=0),
    Message('note_on', channel=13, note=70, velocity=75, time=0),
    Message('note_on', channel=13, note=65, velocity=75, time=0),
    Message('note_on', channel=13, note=62, velocity=75, time=0),
    Message('note_off', channel=13, note=62, velocity=0, time=12),
    Message('note_off', channel=13, note=65, velocity=0, time=0),
    Message('note_off', channel=13, note=70, velocity=0, time=0),
    Message('note_on', channel=13, note=69, velocity=75, time=0),
    Message('note_on', channel=13, note=64, velocity=75, time=0),
    Message('note_on', channel=13, note=61, velocity=75, time=0),
    Message('note_off', channel=13, note=69, velocity=0, time=12),
    Message('note_off', channel=13, note=64, velocity=0, time=0),
    Message('note_off', channel=13, note=61, velocity=0, time=0),
    Message('note_on', channel=13, note=68, velocity=75, time=0),
    Message('note_on', channel=13, note=63, velocity=75, time=0),
    Message('note_on', channel=13, note=60, velocity=75, time=0),
    Message('note_off', channel=13, note=68, velocity=0, time=12),
    Message('note_off', channel=13, note=63, velocity=0, time=0),
    Message('note_off', channel=13, note=60, velocity=0, time=0),
    Message('note_on', channel=13, note=69, velocity=75, time=0),
    Message('note_on', channel=13, note=64, velocity=75, time=0),
    Message('note_on', channel=13, note=61, velocity=75, time=0),
    Message('note_off', channel=13, note=69, velocity=0, time=12),
    Message('note_off', channel=13, note=64, velocity=0, time=0),
    Message('note_off', channel=13, note=61, velocity=0, time=0),
    Message('note_on', channel=13, note=70, velocity=75, time=0),
    Message('note_on', channel=13, note=65, velocity=75, time=0),
    Message('note_on', channel=13, note=62, velocity=75, time=0),
    Message('note_off', channel=13, note=62, velocity=0, time=12),
    Message('note_off', channel=13, note=65, velocity=0, time=0),
    Message('note_off', channel=13, note=70, velocity=0, time=0),
    Message('note_on', channel=13, note=71, velocity=75, time=0),
    Message('note_on', channel=13, note=66, velocity=75, time=0),
    Message('note_on', channel=13, note=63, velocity=75, time=0),
    Message('note_off', channel=13, note=63, velocity=0, time=12),
    Message('note_off', channel=13, note=66, velocity=0, time=0),
    Message('note_off', channel=13, note=71, velocity=0, time=0),
    Message('note_on', channel=13, note=72, velocity=75, time=0),
    Message('note_on', channel=13, note=67, velocity=75, time=0),
    Message('note_on', channel=13, note=64, velocity=75, time=0),
    Message('note_off', channel=13, note=72, velocity=0, time=12),
    Message('note_off', channel=13, note=67, velocity=0, time=0),
    Message('note_off', channel=13, note=64, velocity=0, time=0),
    Message('note_on', channel=13, note=73, velocity=75, time=0),
    Message('note_on', channel=13, note=68, velocity=75, time=0),
    Message('note_on', channel=13, note=65, velocity=75, time=0),
    Message('note_off', channel=13, note=65, velocity=0, time=12),
    Message('note_off', channel=13, note=68, velocity=0, time=0),
    Message('note_off', channel=13, note=73, velocity=0, time=0),
    Message('note_on', channel=13, note=74, velocity=75, time=0),
    Message('note_on', channel=13, note=69, velocity=75, time=0),
    Message('note_on', channel=13, note=66, velocity=75, time=0),
    Message('note_off', channel=13, note=66, velocity=0, time=12),
    Message('note_off', channel=13, note=69, velocity=0, time=0),
    Message('note_off', channel=13, note=74, velocity=0, time=0),
    Message('note_on', channel=13, note=75, velocity=75, time=0),
    Message('note_on', channel=13, note=70, velocity=75, time=0),
    Message('note_on', channel=13, note=67, velocity=75, time=0),
    Message('note_off', channel=13, note=67, velocity=0, time=12),
    Message('note_off', channel=13, note=70, velocity=0, time=0),
    Message('note_off', channel=13, note=75, velocity=0, time=0),
    Message('note_on', channel=13, note=76, velocity=75, time=0),
    Message('note_on', channel=13, note=71, velocity=75, time=0),
    Message('note_on', channel=13, note=68, velocity=75, time=0),
    Message('note_off', channel=13, note=68, velocity=0, time=12),
    Message('note_off', channel=13, note=71, velocity=0, time=0),
    Message('note_off', channel=13, note=76, velocity=0, time=0),
    Message('note_on', channel=13, note=77, velocity=75, time=0),
    Message('note_on', channel=13, note=72, velocity=75, time=0),
    Message('note_on', channel=13, note=69, velocity=75, time=0),
    Message('note_off', channel=13, note=69, velocity=0, time=12),
    Message('note_off', channel=13, note=72, velocity=0, time=0),
    Message('note_off', channel=13, note=77, velocity=0, time=0),
    Message('note_on', channel=13, note=78, velocity=75, time=0),
    Message('note_on', channel=13, note=73, velocity=75, time=0),
    Message('note_on', channel=13, note=70, velocity=75, time=0),
    Message('note_off', channel=13, note=70, velocity=0, time=12),
    Message('note_off', channel=13, note=73, velocity=0, time=0),
    Message('note_off', channel=13, note=78, velocity=0, time=0),
    Message('note_on', channel=13, note=79, velocity=75, time=0),
    Message('note_on', channel=13, note=74, velocity=75, time=0),
    Message('note_on', channel=13, note=71, velocity=75, time=0),
    Message('note_off', channel=13, note=79, velocity=0, time=12),
    Message('note_off', channel=13, note=74, velocity=0, time=0),
    Message('note_off', channel=13, note=71, velocity=0, time=0),
    Message('note_on', channel=13, note=80, velocity=75, time=0),
    Message('note_on', channel=13, note=75, velocity=75, time=0),
    Message('note_on', channel=13, note=72, velocity=75, time=0),
    Message('note_off', channel=13, note=72, velocity=0, time=12),
    Message('note_off', channel=13, note=80, velocity=0, time=0),
    Message('note_off', channel=13, note=75, velocity=0, time=0),
    Message('note_on', channel=13, note=79, velocity=75, time=0),
    Message('note_on', channel=13, note=74, velocity=75, time=0),
    Message('note_on', channel=13, note=71, velocity=75, time=0),
    Message('note_off', channel=13, note=71, velocity=0, time=12),
    Message('note_off', channel=13, note=79, velocity=0, time=0),
    Message('note_off', channel=13, note=74, velocity=0, time=0),
    Message('note_on', channel=13, note=78, velocity=75, time=0),
    Message('note_on', channel=13, note=73, velocity=75, time=0),
    Message('note_on', channel=13, note=70, velocity=75, time=0),
    Message('note_off', channel=13, note=70, velocity=0, time=12),
    Message('note_off', channel=13, note=73, velocity=0, time=0),
    Message('note_off', channel=13, note=78, velocity=0, time=0),
    Message('note_on', channel=13, note=77, velocity=75, time=0),
    Message('note_on', channel=13, note=72, velocity=75, time=0),
    Message('note_on', channel=13, note=69, velocity=75, time=0),
    Message('note_off', channel=13, note=69, velocity=0, time=12),
    Message('note_off', channel=13, note=72, velocity=0, time=0),
    Message('note_off', channel=13, note=77, velocity=0, time=0),
    Message('note_on', channel=13, note=76, velocity=75, time=0),
    Message('note_on', channel=13, note=71, velocity=75, time=0),
    Message('note_on', channel=13, note=68, velocity=75, time=0),
    Message('note_off', channel=13, note=68, velocity=0, time=12),
    Message('note_off', channel=13, note=71, velocity=0, time=0),
    Message('note_off', channel=13, note=76, velocity=0, time=0),
    Message('note_on', channel=13, note=75, velocity=75, time=0),
    Message('note_on', channel=13, note=70, velocity=75, time=0),
    Message('note_on', channel=13, note=67, velocity=75, time=0),
    Message('note_off', channel=13, note=67, velocity=0, time=12),
    Message('note_off', channel=13, note=70, velocity=0, time=0),
    Message('note_off', channel=13, note=75, velocity=0, time=0),
    Message('note_on', channel=13, note=74, velocity=75, time=0),
    Message('note_on', channel=13, note=69, velocity=75, time=0),
    Message('note_on', channel=13, note=66, velocity=75, time=0),
    Message('note_off', channel=13, note=66, velocity=0, time=12),
    Message('note_off', channel=13, note=69, velocity=0, time=0),
    Message('note_off', channel=13, note=74, velocity=0, time=0),
    Message('note_on', channel=13, note=73, velocity=75, time=0),
    Message('note_on', channel=13, note=68, velocity=75, time=0),
    Message('note_on', channel=13, note=65, velocity=75, time=0),
    Message('note_off', channel=13, note=73, velocity=0, time=12),
    Message('note_off', channel=13, note=65, velocity=0, time=0),
    Message('note_off', channel=13, note=68, velocity=0, time=0),
    Message('note_on', channel=13, note=72, velocity=75, time=0),
    Message('note_on', channel=13, note=67, velocity=75, time=0),
    Message('note_on', channel=13, note=64, velocity=75, time=0),
    Message('note_off', channel=13, note=72, velocity=0, time=12),
    Message('note_off', channel=13, note=67, velocity=0, time=0),
    Message('note_off', channel=13, note=64, velocity=0, time=0),
    Message('note_on', channel=13, note=71, velocity=75, time=0),
    Message('note_on', channel=13, note=66, velocity=75, time=0),
    Message('note_on', channel=13, note=63, velocity=75, time=0),
    Message('note_off', channel=13, note=71, velocity=0, time=12),
    Message('note_off', channel=13, note=66, velocity=0, time=0),
    Message('note_off', channel=13, note=63, velocity=0, time=0),
    Message('note_on', channel=13, note=70, velocity=75, time=0),
    Message('note_on', channel=13, note=65, velocity=75, time=0),
    Message('note_on', channel=13, note=62, velocity=75, time=0),
    Message('note_off', channel=13, note=62, velocity=0, time=12),
    Message('note_off', channel=13, note=65, velocity=0, time=0),
    Message('note_off', channel=13, note=70, velocity=0, time=0),
    Message('note_on', channel=13, note=69, velocity=75, time=0),
    Message('note_on', channel=13, note=64, velocity=75, time=0),
    Message('note_on', channel=13, note=61, velocity=75, time=0),
    Message('note_off', channel=13, note=69, velocity=0, time=12),
    Message('note_off', channel=13, note=64, velocity=0, time=0),
    Message('note_off', channel=13, note=61, velocity=0, time=0),
    Message('note_on', channel=13, note=68, velocity=75, time=0),
    Message('note_on', channel=13, note=63, velocity=75, time=0),
    Message('note_on', channel=13, note=60, velocity=75, time=0),
    Message('note_off', channel=13, note=68, velocity=0, time=12),
    Message('note_off', channel=13, note=63, velocity=0, time=0),
    Message('note_off', channel=13, note=60, velocity=0, time=0),
    Message('note_on', channel=13, note=69, velocity=75, time=0),
    Message('note_on', channel=13, note=64, velocity=75, time=0),
    Message('note_on', channel=13, note=61, velocity=75, time=0),
    Message('note_off', channel=13, note=69, velocity=0, time=12),
    Message('note_off', channel=13, note=61, velocity=0, time=0),
    Message('note_off', channel=13, note=64, velocity=0, time=0),
    Message('note_on', channel=13, note=70, velocity=75, time=0),
    Message('note_on', channel=13, note=65, velocity=75, time=0),
    Message('note_on', channel=13, note=62, velocity=75, time=0),
    Message('note_off', channel=13, note=70, velocity=0, time=12),
    Message('note_off', channel=13, note=62, velocity=0, time=0),
    Message('note_off', channel=13, note=65, velocity=0, time=0),
    Message('note_on', channel=13, note=71, velocity=75, time=0),
    Message('note_on', channel=13, note=66, velocity=75, time=0),
    Message('note_on', channel=13, note=63, velocity=75, time=0),
    Message('note_off', channel=13, note=71, velocity=0, time=12),
    Message('note_off', channel=13, note=63, velocity=0, time=0),
    Message('note_off', channel=13, note=66, velocity=0, time=0),
    Message('note_on', channel=13, note=72, velocity=75, time=0),
    Message('note_on', channel=13, note=67, velocity=75, time=0),
    Message('note_on', channel=13, note=64, velocity=75, time=0),
    Message('note_off', channel=13, note=72, velocity=0, time=12),
    Message('note_off', channel=13, note=67, velocity=0, time=0),
    Message('note_off', channel=13, note=64, velocity=0, time=0),
    Message('note_on', channel=13, note=73, velocity=75, time=0),
    Message('note_on', channel=13, note=68, velocity=75, time=0),
    Message('note_on', channel=13, note=65, velocity=75, time=0),
    Message('note_off', channel=13, note=65, velocity=0, time=12),
    Message('note_off', channel=13, note=68, velocity=0, time=0),
    Message('note_off', channel=13, note=73, velocity=0, time=0),
    Message('note_on', channel=13, note=74, velocity=75, time=0),
    Message('note_on', channel=13, note=69, velocity=75, time=0),
    Message('note_on', channel=13, note=66, velocity=75, time=0),
    Message('note_off', channel=13, note=66, velocity=0, time=12),
    Message('note_off', channel=13, note=69, velocity=0, time=0),
    Message('note_off', channel=13, note=74, velocity=0, time=0),
    Message('note_on', channel=13, note=75, velocity=75, time=0),
    Message('note_on', channel=13, note=70, velocity=75, time=0),
    Message('note_on', channel=13, note=67, velocity=75, time=0),
    Message('note_off', channel=13, note=67, velocity=0, time=12),
    Message('note_off', channel=13, note=70, velocity=0, time=0),
    Message('note_off', channel=13, note=75, velocity=0, time=0),
    Message('note_on', channel=13, note=76, velocity=75, time=0),
    Message('note_on', channel=13, note=71, velocity=75, time=0),
    Message('note_on', channel=13, note=68, velocity=75, time=0),
    Message('note_off', channel=13, note=68, velocity=0, time=12),
    Message('note_off', channel=13, note=71, velocity=0, time=0),
    Message('note_off', channel=13, note=76, velocity=0, time=0),
    Message('note_on', channel=13, note=77, velocity=75, time=0),
    Message('note_on', channel=13, note=72, velocity=75, time=0),
    Message('note_on', channel=13, note=69, velocity=75, time=0),
    Message('note_off', channel=13, note=69, velocity=0, time=12),
    Message('note_off', channel=13, note=72, velocity=0, time=0),
    Message('note_off', channel=13, note=77, velocity=0, time=0),
    Message('note_on', channel=13, note=78, velocity=75, time=0),
    Message('note_on', channel=13, note=73, velocity=75, time=0),
    Message('note_on', channel=13, note=70, velocity=75, time=0),
    Message('note_off', channel=13, note=70, velocity=0, time=12),
    Message('note_off', channel=13, note=73, velocity=0, time=0),
    Message('note_off', channel=13, note=78, velocity=0, time=0),
    Message('note_on', channel=13, note=79, velocity=75, time=0),
    Message('note_on', channel=13, note=74, velocity=75, time=0),
    Message('note_on', channel=13, note=71, velocity=75, time=0),
    Message('note_off', channel=13, note=79, velocity=0, time=12),
    Message('note_off', channel=13, note=74, velocity=0, time=0),
    Message('note_off', channel=13, note=71, velocity=0, time=0),
    Message('note_on', channel=13, note=80, velocity=75, time=0),
    Message('note_on', channel=13, note=75, velocity=75, time=0),
    Message('note_on', channel=13, note=72, velocity=75, time=0),
    Message('note_off', channel=13, note=80, velocity=0, time=12),
    Message('note_off', channel=13, note=75, velocity=0, time=0),
    Message('note_off', channel=13, note=72, velocity=0, time=0),
    Message('note_on', channel=13, note=79, velocity=75, time=0),
    Message('note_on', channel=13, note=74, velocity=75, time=0),
    Message('note_on', channel=13, note=71, velocity=75, time=0),
    Message('note_off', channel=13, note=79, velocity=0, time=12),
    Message('note_off', channel=13, note=71, velocity=0, time=0),
    Message('note_off', channel=13, note=74, velocity=0, time=0),
    Message('note_on', channel=13, note=78, velocity=75, time=0),
    Message('note_on', channel=13, note=73, velocity=75, time=0),
    Message('note_on', channel=13, note=70, velocity=75, time=0),
    Message('note_off', channel=13, note=70, velocity=0, time=12),
    Message('note_off', channel=13, note=73, velocity=0, time=0),
    Message('note_off', channel=13, note=78, velocity=0, time=0),
    Message('note_on', channel=13, note=77, velocity=75, time=0),
    Message('note_on', channel=13, note=72, velocity=75, time=0),
    Message('note_on', channel=13, note=69, velocity=75, time=0),
    Message('note_off', channel=13, note=69, velocity=0, time=12),
    Message('note_off', channel=13, note=72, velocity=0, time=0),
    Message('note_off', channel=13, note=77, velocity=0, time=0),
    Message('note_on', channel=13, note=76, velocity=75, time=0),
    Message('note_on', channel=13, note=71, velocity=75, time=0),
    Message('note_on', channel=13, note=68, velocity=75, time=0),
    Message('note_off', channel=13, note=76, velocity=0, time=12),
    Message('note_off', channel=13, note=68, velocity=0, time=0),
    Message('note_off', channel=13, note=71, velocity=0, time=0),
    Message('note_on', channel=13, note=75, velocity=75, time=0),
    Message('note_on', channel=13, note=70, velocity=75, time=0),
    Message('note_on', channel=13, note=67, velocity=75, time=0),
    Message('note_off', channel=13, note=75, velocity=0, time=12),
    Message('note_off', channel=13, note=67, velocity=0, time=0),
    Message('note_off', channel=13, note=70, velocity=0, time=0),
    Message('note_on', channel=13, note=74, velocity=75, time=0),
    Message('note_on', channel=13, note=69, velocity=75, time=0),
    Message('note_on', channel=13, note=66, velocity=75, time=0),
    Message('note_off', channel=13, note=74, velocity=0, time=12),
    Message('note_off', channel=13, note=66, velocity=0, time=0),
    Message('note_off', channel=13, note=69, velocity=0, time=0),
    Message('note_on', channel=13, note=73, velocity=75, time=0),
    Message('note_on', channel=13, note=68, velocity=75, time=0),
    Message('note_on', channel=13, note=65, velocity=75, time=0),
    Message('note_off', channel=13, note=73, velocity=0, time=12),
    Message('note_off', channel=13, note=68, velocity=0, time=0),
    Message('note_off', channel=13, note=65, velocity=0, time=0),
    Message('note_on', channel=13, note=72, velocity=75, time=0),
    Message('note_on', channel=13, note=67, velocity=75, time=0),
    Message('note_on', channel=13, note=64, velocity=75, time=0),
    Message('note_off', channel=13, note=72, velocity=0, time=12),
    Message('note_off', channel=13, note=67, velocity=0, time=0),
    Message('note_off', channel=13, note=64, velocity=0, time=0),
    Message('note_on', channel=13, note=71, velocity=75, time=0),
    Message('note_on', channel=13, note=66, velocity=75, time=0),
    Message('note_on', channel=13, note=63, velocity=75, time=0),
    Message('note_off', channel=13, note=71, velocity=0, time=12),
    Message('note_off', channel=13, note=66, velocity=0, time=0),
    Message('note_off', channel=13, note=63, velocity=0, time=0),
    Message('note_on', channel=13, note=70, velocity=75, time=0),
    Message('note_on', channel=13, note=65, velocity=75, time=0),
    Message('note_on', channel=13, note=62, velocity=75, time=0),
    Message('note_off', channel=13, note=62, velocity=0, time=12),
    Message('note_off', channel=13, note=65, velocity=0, time=0),
    Message('note_off', channel=13, note=70, velocity=0, time=0),
    Message('note_on', channel=13, note=69, velocity=75, time=0),
    Message('note_on', channel=13, note=64, velocity=75, time=0),
    Message('note_on', channel=13, note=61, velocity=75, time=0),
    Message('note_off', channel=13, note=69, velocity=0, time=12),
    Message('note_off', channel=13, note=61, velocity=0, time=0),
    Message('note_off', channel=13, note=64, velocity=0, time=0),
    Message('note_on', channel=13, note=68, velocity=75, time=0),
    Message('note_on', channel=13, note=63, velocity=75, time=0),
    Message('note_on', channel=13, note=60, velocity=75, time=0),
    Message('note_off', channel=13, note=68, velocity=0, time=12),
    Message('note_off', channel=13, note=63, velocity=0, time=0),
    Message('note_off', channel=13, note=60, velocity=0, time=0),
    Message('note_on', channel=13, note=69, velocity=75, time=0),
    Message('note_on', channel=13, note=64, velocity=75, time=0),
    Message('note_on', channel=13, note=61, velocity=75, time=0),
    Message('note_off', channel=13, note=61, velocity=0, time=12),
    Message('note_off', channel=13, note=64, velocity=0, time=0),
    Message('note_off', channel=13, note=69, velocity=0, time=0),
    Message('note_on', channel=13, note=70, velocity=75, time=0),
    Message('note_on', channel=13, note=65, velocity=75, time=0),
    Message('note_on', channel=13, note=62, velocity=75, time=0),
    Message('note_off', channel=13, note=62, velocity=0, time=12),
    Message('note_off', channel=13, note=65, velocity=0, time=0),
    Message('note_off', channel=13, note=70, velocity=0, time=0),
    Message('note_on', channel=13, note=71, velocity=75, time=0),
    Message('note_on', channel=13, note=66, velocity=75, time=0),
    Message('note_on', channel=13, note=63, velocity=75, time=0),
    Message('note_off', channel=13, note=63, velocity=0, time=12),
    Message('note_off', channel=13, note=66, velocity=0, time=0),
    Message('note_off', channel=13, note=71, velocity=0, time=0),
    Message('note_on', channel=13, note=72, velocity=75, time=0),
    Message('note_on', channel=13, note=67, velocity=75, time=0),
    Message('note_on', channel=13, note=64, velocity=75, time=0),
    Message('note_off', channel=13, note=72, velocity=0, time=12),
    Message('note_off', channel=13, note=67, velocity=0, time=0),
    Message('note_off', channel=13, note=64, velocity=0, time=0),
    Message('note_on', channel=13, note=73, velocity=75, time=0),
    Message('note_on', channel=13, note=68, velocity=75, time=0),
    Message('note_on', channel=13, note=65, velocity=75, time=0),
    Message('note_off', channel=13, note=73, velocity=0, time=12),
    Message('note_off', channel=13, note=65, velocity=0, time=0),
    Message('note_off', channel=13, note=68, velocity=0, time=0),
    Message('note_on', channel=13, note=74, velocity=75, time=0),
    Message('note_on', channel=13, note=69, velocity=75, time=0),
    Message('note_on', channel=13, note=66, velocity=75, time=0),
    Message('note_off', channel=13, note=66, velocity=0, time=12),
    Message('note_off', channel=13, note=69, velocity=0, time=0),
    Message('note_off', channel=13, note=74, velocity=0, time=0),
    Message('note_on', channel=13, note=75, velocity=75, time=0),
    Message('note_on', channel=13, note=70, velocity=75, time=0),
    Message('note_on', channel=13, note=67, velocity=75, time=0),
    Message('note_off', channel=13, note=67, velocity=0, time=12),
    Message('note_off', channel=13, note=70, velocity=0, time=0),
    Message('note_off', channel=13, note=75, velocity=0, time=0),
    Message('note_on', channel=13, note=76, velocity=75, time=0),
    Message('note_on', channel=13, note=71, velocity=75, time=0),
    Message('note_on', channel=13, note=68, velocity=75, time=0),
    Message('note_off', channel=13, note=68, velocity=0, time=12),
    Message('note_off', channel=13, note=76, velocity=0, time=0),
    Message('note_off', channel=13, note=71, velocity=0, time=0),
    Message('note_on', channel=13, note=77, velocity=75, time=0),
    Message('note_on', channel=13, note=72, velocity=75, time=0),
    Message('note_on', channel=13, note=69, velocity=75, time=0),
    Message('note_off', channel=13, note=69, velocity=0, time=12),
    Message('note_off', channel=13, note=77, velocity=0, time=0),
    Message('note_off', channel=13, note=72, velocity=0, time=0),
    Message('note_on', channel=13, note=78, velocity=75, time=0),
    Message('note_on', channel=13, note=73, velocity=75, time=0),
    Message('note_on', channel=13, note=70, velocity=75, time=0),
    Message('note_off', channel=13, note=78, velocity=0, time=12),
    Message('note_off', channel=13, note=73, velocity=0, time=0),
    Message('note_off', channel=13, note=70, velocity=0, time=0),
    Message('note_on', channel=13, note=79, velocity=75, time=0),
    Message('note_on', channel=13, note=74, velocity=75, time=0),
    Message('note_on', channel=13, note=71, velocity=75, time=0),
    Message('note_off', channel=13, note=79, velocity=0, time=12),
    Message('note_off', channel=13, note=74, velocity=0, time=0),
    Message('note_off', channel=13, note=71, velocity=0, time=0),
    Message('note_on', channel=13, note=80, velocity=75, time=0),
    Message('note_on', channel=13, note=75, velocity=75, time=0),
    Message('note_on', channel=13, note=72, velocity=75, time=0),
    Message('note_off', channel=13, note=80, velocity=0, time=12),
    Message('note_off', channel=13, note=75, velocity=0, time=0),
    Message('note_off', channel=13, note=72, velocity=0, time=0),
    Message('note_on', channel=13, note=79, velocity=75, time=0),
    Message('note_on', channel=13, note=74, velocity=75, time=0),
    Message('note_on', channel=13, note=71, velocity=75, time=0),
    Message('note_off', channel=13, note=71, velocity=0, time=12),
    Message('note_off', channel=13, note=74, velocity=0, time=0),
    Message('note_off', channel=13, note=79, velocity=0, time=0),
    Message('note_on', channel=13, note=78, velocity=75, time=0),
    Message('note_on', channel=13, note=73, velocity=75, time=0),
    Message('note_on', channel=13, note=70, velocity=75, time=0),
    Message('note_off', channel=13, note=70, velocity=0, time=12),
    Message('note_off', channel=13, note=73, velocity=0, time=0),
    Message('note_off', channel=13, note=78, velocity=0, time=0),
    Message('note_on', channel=13, note=77, velocity=75, time=0),
    Message('note_on', channel=13, note=72, velocity=75, time=0),
    Message('note_on', channel=13, note=69, velocity=75, time=0),
    Message('note_off', channel=13, note=69, velocity=0, time=12),
    Message('note_off', channel=13, note=72, velocity=0, time=0),
    Message('note_off', channel=13, note=77, velocity=0, time=0),
    Message('note_on', channel=13, note=76, velocity=75, time=0),
    Message('note_on', channel=13, note=71, velocity=75, time=0),
    Message('note_on', channel=13, note=68, velocity=75, time=0),
    Message('note_off', channel=13, note=68, velocity=0, time=12),
    Message('note_off', channel=13, note=71, velocity=0, time=0),
    Message('note_off', channel=13, note=76, velocity=0, time=0),
    Message('note_on', channel=13, note=75, velocity=75, time=0),
    Message('note_on', channel=13, note=70, velocity=75, time=0),
    Message('note_on', channel=13, note=67, velocity=75, time=0),
    Message('note_off', channel=13, note=67, velocity=0, time=12),
    Message('note_off', channel=13, note=70, velocity=0, time=0),
    Message('note_off', channel=13, note=75, velocity=0, time=0),
    Message('note_on', channel=13, note=74, velocity=75, time=0),
    Message('note_on', channel=13, note=69, velocity=75, time=0),
    Message('note_on', channel=13, note=66, velocity=75, time=0),
    Message('note_off', channel=13, note=74, velocity=0, time=12),
    Message('note_off', channel=13, note=69, velocity=0, time=0),
    Message('note_off', channel=13, note=66, velocity=0, time=0),
    Message('note_on', channel=13, note=73, velocity=75, time=0),
    Message('note_on', channel=13, note=68, velocity=75, time=0),
    Message('note_on', channel=13, note=65, velocity=75, time=0),
    Message('note_off', channel=13, note=65, velocity=0, time=12),
    Message('note_off', channel=13, note=68, velocity=0, time=0),
    Message('note_off', channel=13, note=73, velocity=0, time=0),
    Message('note_on', channel=13, note=72, velocity=75, time=0),
    Message('note_on', channel=13, note=67, velocity=75, time=0),
    Message('note_on', channel=13, note=64, velocity=75, time=0),
    Message('note_off', channel=13, note=72, velocity=0, time=12),
    Message('note_off', channel=13, note=67, velocity=0, time=0),
    Message('note_off', channel=13, note=64, velocity=0, time=0),
    Message('note_on', channel=13, note=71, velocity=75, time=0),
    Message('note_on', channel=13, note=66, velocity=75, time=0),
    Message('note_on', channel=13, note=63, velocity=75, time=0),
    Message('note_off', channel=13, note=66, velocity=0, time=12),
    Message('note_off', channel=13, note=63, velocity=0, time=0),
    Message('note_off', channel=13, note=71, velocity=0, time=0),
    Message('note_on', channel=13, note=70, velocity=75, time=0),
    Message('note_on', channel=13, note=65, velocity=75, time=0),
    Message('note_on', channel=13, note=62, velocity=75, time=0),
    Message('note_off', channel=13, note=62, velocity=0, time=12),
    Message('note_off', channel=13, note=65, velocity=0, time=0),
    Message('note_off', channel=13, note=70, velocity=0, time=0),
    Message('note_on', channel=13, note=69, velocity=75, time=0),
    Message('note_on', channel=13, note=64, velocity=75, time=0),
    Message('note_on', channel=13, note=61, velocity=75, time=0),
    Message('note_off', channel=13, note=69, velocity=0, time=12),
    Message('note_off', channel=13, note=64, velocity=0, time=0),
    Message('note_off', channel=13, note=61, velocity=0, time=0),
    Message('note_on', channel=13, note=82, velocity=75, time=0),
    Message('note_off', channel=13, note=82, velocity=0, time=96),
    Message('note_on', channel=13, note=81, velocity=75, time=0),
    Message('note_off', channel=13, note=81, velocity=0, time=47),
    Message('note_on', channel=13, note=80, velocity=75, time=1),
    Message('note_off', channel=13, note=80, velocity=0, time=96),
    Message('note_on', channel=13, note=73, velocity=75, time=0),
    Message('note_off', channel=13, note=73, velocity=0, time=47),
    Message('note_on', channel=13, note=85, velocity=75, time=1),
    Message('note_on', channel=13, note=73, velocity=75, time=0),
    Message('note_off', channel=13, note=85, velocity=0, time=96),
    Message('note_off', channel=13, note=73, velocity=0, time=0),
    Message('note_on', channel=13, note=84, velocity=75, time=0),
    Message('note_on', channel=13, note=72, velocity=75, time=0),
    Message('note_off', channel=13, note=84, velocity=0, time=47),
    Message('note_off', channel=13, note=72, velocity=0, time=0),
    Message('note_on', channel=13, note=83, velocity=75, time=1),
    Message('note_on', channel=13, note=71, velocity=75, time=0),
    Message('note_off', channel=13, note=83, velocity=0, time=96),
    Message('note_off', channel=13, note=71, velocity=0, time=0),
    Message('note_on', channel=13, note=79, velocity=75, time=0),
    Message('note_on', channel=13, note=67, velocity=75, time=0),
    Message('note_off', channel=13, note=67, velocity=0, time=47),
    Message('note_off', channel=13, note=79, velocity=0, time=0),
    Message('note_on', channel=13, note=80, velocity=75, time=1),
    Message('note_off', channel=13, note=80, velocity=0, time=15),
    Message('note_on', channel=13, note=76, velocity=75, time=1),
    Message('note_off', channel=13, note=76, velocity=0, time=15),
    Message('note_on', channel=13, note=73, velocity=75, time=1),
    Message('note_off', channel=13, note=73, velocity=0, time=15),
    Message('note_on', channel=13, note=68, velocity=75, time=1),
    Message('note_off', channel=13, note=68, velocity=0, time=15),
    Message('note_on', channel=13, note=73, velocity=75, time=1),
    Message('note_off', channel=13, note=73, velocity=0, time=15),
    Message('note_on', channel=13, note=76, velocity=75, time=1),
    Message('note_off', channel=13, note=76, velocity=0, time=15),
    Message('note_on', channel=13, note=79, velocity=75, time=1),
    Message('note_off', channel=13, note=79, velocity=0, time=15),
    Message('note_on', channel=13, note=76, velocity=75, time=1),
    Message('note_off', channel=13, note=76, velocity=0, time=15),
    Message('note_on', channel=13, note=72, velocity=75, time=1),
    Message('note_off', channel=13, note=72, velocity=0, time=15),
    Message('note_on', channel=13, note=80, velocity=75, time=1),
    Message('note_off', channel=13, note=80, velocity=0, time=15),
    Message('note_on', channel=13, note=76, velocity=75, time=1),
    Message('note_off', channel=13, note=76, velocity=0, time=15),
    Message('note_on', channel=13, note=73, velocity=75, time=1),
    Message('note_off', channel=13, note=73, velocity=0, time=15),
    Message('note_on', channel=13, note=68, velocity=75, time=1),
    Message('note_off', channel=13, note=68, velocity=0, time=15),
    Message('note_on', channel=13, note=73, velocity=75, time=1),
    Message('note_off', channel=13, note=73, velocity=0, time=15),
    Message('note_on', channel=13, note=76, velocity=75, time=1),
    Message('note_off', channel=13, note=76, velocity=0, time=15),
    Message('note_on', channel=13, note=79, velocity=75, time=1),
    Message('note_off', channel=13, note=79, velocity=0, time=15),
    Message('note_on', channel=13, note=76, velocity=75, time=1),
    Message('note_off', channel=13, note=76, velocity=0, time=15),
    Message('note_on', channel=13, note=72, velocity=75, time=1),
    Message('note_off', channel=13, note=72, velocity=0, time=15),
    Message('note_on', channel=13, note=80, velocity=75, time=1),
    Message('note_off', channel=13, note=80, velocity=0, time=15),
    Message('note_on', channel=13, note=76, velocity=75, time=1),
    Message('note_off', channel=13, note=76, velocity=0, time=15),
    Message('note_on', channel=13, note=73, velocity=75, time=1),
    Message('note_off', channel=13, note=73, velocity=0, time=15),
    Message('note_on', channel=13, note=68, velocity=75, time=1),
    Message('note_off', channel=13, note=68, velocity=0, time=15),
    Message('note_on', channel=13, note=73, velocity=75, time=1),
    Message('note_off', channel=13, note=73, velocity=0, time=15),
    Message('note_on', channel=13, note=76, velocity=75, time=1),
    Message('note_off', channel=13, note=76, velocity=0, time=15),
    Message('note_on', channel=13, note=79, velocity=75, time=1),
    Message('note_off', channel=13, note=79, velocity=0, time=15),
    Message('note_on', channel=13, note=76, velocity=75, time=1),
    Message('note_off', channel=13, note=76, velocity=0, time=15),
    Message('note_on', channel=13, note=72, velocity=75, time=1),
    Message('note_off', channel=13, note=72, velocity=0, time=15),
    Message('note_on', channel=13, note=80, velocity=75, time=1),
    Message('note_off', channel=13, note=80, velocity=0, time=15),
    Message('note_on', channel=13, note=76, velocity=75, time=1),
    Message('note_off', channel=13, note=76, velocity=0, time=15),
    Message('note_on', channel=13, note=73, velocity=75, time=1),
    Message('note_off', channel=13, note=73, velocity=0, time=15),
    Message('note_on', channel=13, note=68, velocity=75, time=1),
    Message('note_off', channel=13, note=68, velocity=0, time=15),
    Message('note_on', channel=13, note=73, velocity=75, time=1),
    Message('note_off', channel=13, note=73, velocity=0, time=15),
    Message('note_on', channel=13, note=76, velocity=75, time=1),
    Message('note_off', channel=13, note=76, velocity=0, time=15),
    Message('note_on', channel=13, note=79, velocity=75, time=1),
    Message('note_off', channel=13, note=79, velocity=0, time=15),
    Message('note_on', channel=13, note=76, velocity=75, time=1),
    Message('note_off', channel=13, note=76, velocity=0, time=15),
    Message('note_on', channel=13, note=72, velocity=75, time=1),
    Message('note_off', channel=13, note=72, velocity=0, time=15),
    Message('note_on', channel=13, note=79, velocity=75, time=1),
    Message('note_on', channel=13, note=76, velocity=75, time=0),
    Message('control_change', channel=13, control=7, value=99, time=2),
    Message('control_change', channel=13, control=7, value=98, time=3),
    Message('control_change', channel=13, control=7, value=97, time=3),
    Message('control_change', channel=13, control=7, value=96, time=3),
    Message('control_change', channel=13, control=7, value=95, time=3),
    Message('control_change', channel=13, control=7, value=94, time=3),
    Message('control_change', channel=13, control=7, value=93, time=3),
    Message('control_change', channel=13, control=7, value=92, time=3),
    Message('control_change', channel=13, control=7, value=91, time=2),
    Message('control_change', channel=13, control=7, value=90, time=3),
    Message('control_change', channel=13, control=7, value=89, time=3),
    Message('control_change', channel=13, control=7, value=88, time=3),
    Message('control_change', channel=13, control=7, value=87, time=3),
    Message('control_change', channel=13, control=7, value=86, time=3),
    Message('control_change', channel=13, control=7, value=85, time=3),
    Message('control_change', channel=13, control=7, value=84, time=3),
    Message('control_change', channel=13, control=7, value=83, time=2),
    Message('control_change', channel=13, control=7, value=82, time=3),
    Message('control_change', channel=13, control=7, value=81, time=3),
    Message('control_change', channel=13, control=7, value=80, time=3),
    Message('control_change', channel=13, control=7, value=79, time=3),
    Message('control_change', channel=13, control=7, value=78, time=3),
    Message('control_change', channel=13, control=7, value=77, time=3),
    Message('control_change', channel=13, control=7, value=76, time=3),
    Message('control_change', channel=13, control=7, value=75, time=3),
    Message('control_change', channel=13, control=7, value=74, time=2),
    Message('control_change', channel=13, control=7, value=73, time=3),
    Message('control_change', channel=13, control=7, value=72, time=3),
    Message('control_change', channel=13, control=7, value=71, time=3),
    Message('control_change', channel=13, control=7, value=70, time=3),
    Message('control_change', channel=13, control=7, value=69, time=3),
    Message('control_change', channel=13, control=7, value=68, time=3),
    Message('control_change', channel=13, control=7, value=67, time=3),
    Message('control_change', channel=13, control=7, value=66, time=2),
    Message('control_change', channel=13, control=7, value=65, time=3),
    Message('control_change', channel=13, control=7, value=64, time=3),
    Message('control_change', channel=13, control=7, value=63, time=3),
    Message('control_change', channel=13, control=7, value=62, time=3),
    Message('control_change', channel=13, control=7, value=61, time=3),
    Message('control_change', channel=13, control=7, value=60, time=3),
    Message('control_change', channel=13, control=7, value=59, time=3),
    Message('control_change', channel=13, control=7, value=58, time=2),
    Message('control_change', channel=13, control=7, value=57, time=3),
    Message('control_change', channel=13, control=7, value=56, time=3),
    Message('control_change', channel=13, control=7, value=55, time=3),
    Message('control_change', channel=13, control=7, value=54, time=3),
    Message('control_change', channel=13, control=7, value=53, time=3),
    Message('control_change', channel=13, control=7, value=52, time=3),
    Message('control_change', channel=13, control=7, value=51, time=3),
    Message('control_change', channel=13, control=7, value=50, time=3),
    Message('control_change', channel=13, control=7, value=51, time=2),
    Message('control_change', channel=13, control=7, value=52, time=2),
    Message('control_change', channel=13, control=7, value=53, time=3),
    Message('control_change', channel=13, control=7, value=54, time=2),
    Message('control_change', channel=13, control=7, value=55, time=3),
    Message('control_change', channel=13, control=7, value=56, time=2),
    Message('control_change', channel=13, control=7, value=57, time=2),
    Message('control_change', channel=13, control=7, value=58, time=3),
    Message('control_change', channel=13, control=7, value=59, time=2),
    Message('control_change', channel=13, control=7, value=60, time=3),
    Message('control_change', channel=13, control=7, value=61, time=2),
    Message('control_change', channel=13, control=7, value=62, time=2),
    Message('control_change', channel=13, control=7, value=63, time=3),
    Message('control_change', channel=13, control=7, value=64, time=2),
    Message('control_change', channel=13, control=7, value=65, time=3),
    Message('control_change', channel=13, control=7, value=66, time=2),
    Message('control_change', channel=13, control=7, value=67, time=2),
    Message('control_change', channel=13, control=7, value=68, time=3),
    Message('control_change', channel=13, control=7, value=69, time=2),
    Message('control_change', channel=13, control=7, value=70, time=3),
    Message('control_change', channel=13, control=7, value=71, time=2),
    Message('control_change', channel=13, control=7, value=72, time=2),
    Message('control_change', channel=13, control=7, value=73, time=3),
    Message('control_change', channel=13, control=7, value=74, time=2),
    Message('control_change', channel=13, control=7, value=75, time=3),
    Message('control_change', channel=13, control=7, value=76, time=2),
    Message('control_change', channel=13, control=7, value=77, time=2),
    Message('control_change', channel=13, control=7, value=78, time=3),
    Message('control_change', channel=13, control=7, value=79, time=2),
    Message('control_change', channel=13, control=7, value=80, time=3),
    Message('control_change', channel=13, control=7, value=81, time=2),
    Message('control_change', channel=13, control=7, value=82, time=2),
    Message('control_change', channel=13, control=7, value=83, time=3),
    Message('control_change', channel=13, control=7, value=84, time=2),
    Message('control_change', channel=13, control=7, value=85, time=3),
    Message('control_change', channel=13, control=7, value=86, time=2),
    Message('control_change', channel=13, control=7, value=87, time=2),
    Message('control_change', channel=13, control=7, value=88, time=3),
    Message('control_change', channel=13, control=7, value=89, time=2),
    Message('control_change', channel=13, control=7, value=90, time=3),
    Message('control_change', channel=13, control=7, value=91, time=2),
    Message('control_change', channel=13, control=7, value=92, time=2),
    Message('control_change', channel=13, control=7, value=93, time=3),
    Message('control_change', channel=13, control=7, value=94, time=2),
    Message('control_change', channel=13, control=7, value=95, time=3),
    Message('control_change', channel=13, control=7, value=96, time=2),
    Message('control_change', channel=13, control=7, value=97, time=2),
    Message('control_change', channel=13, control=7, value=98, time=3),
    Message('control_change', channel=13, control=7, value=99, time=2),
    Message('control_change', channel=13, control=7, value=100, time=3),
    Message('control_change', channel=13, control=7, value=101, time=2),
    Message('control_change', channel=13, control=7, value=102, time=2),
    Message('control_change', channel=13, control=7, value=103, time=3),
    Message('note_off', channel=13, note=79, velocity=0, time=1),
    Message('note_off', channel=13, note=76, velocity=0, time=0),
    Message('control_change', channel=13, control=7, value=104, time=1),
    Message('control_change', channel=13, control=7, value=105, time=3),
    Message('control_change', channel=13, control=7, value=106, time=2),
    Message('control_change', channel=13, control=7, value=107, time=2),
    Message('control_change', channel=13, control=7, value=108, time=3),
    Message('control_change', channel=13, control=7, value=109, time=2),
    Message('control_change', channel=13, control=7, value=110, time=3),
    Message('note_on', channel=13, note=78, velocity=92, time=0),
    Message('note_on', channel=13, note=70, velocity=92, time=0),
    Message('note_off', channel=13, note=78, velocity=0, time=15),
    Message('note_off', channel=13, note=70, velocity=0, time=0),
    Message('note_on', channel=13, note=82, velocity=92, time=1),
    Message('note_on', channel=13, note=75, velocity=92, time=0),
    Message('note_off', channel=13, note=82, velocity=0, time=15),
    Message('note_off', channel=13, note=75, velocity=0, time=0),
    Message('note_on', channel=13, note=87, velocity=92, time=1),
    Message('note_on', channel=13, note=78, velocity=92, time=0),
    Message('control_change', channel=13, control=7, value=111, time=11),
    Message('note_off', channel=13, note=87, velocity=0, time=4),
    Message('note_off', channel=13, note=78, velocity=0, time=0),
    Message('note_on', channel=13, note=91, velocity=92, time=1),
    Message('note_on', channel=13, note=88, velocity=92, time=0),
    Message('note_on', channel=13, note=79, velocity=92, time=0),
    Message('note_on', channel=13, note=76, velocity=92, time=0),
    Message('control_change', channel=13, control=7, value=112, time=38),
    Message('control_change', channel=13, control=7, value=113, time=43),
    Message('control_change', channel=13, control=7, value=114, time=43),
    Message('control_change', channel=13, control=7, value=115, time=44),
    Message('control_change', channel=13, control=7, value=116, time=43),
    Message('control_change', channel=13, control=7, value=117, time=43),
    Message('control_change', channel=13, control=7, value=118, time=43),
    Message('control_change', channel=13, control=7, value=119, time=43),
    Message('note_off', channel=13, note=91, velocity=0, time=28),
    Message('note_off', channel=13, note=88, velocity=0, time=0),
    Message('note_off', channel=13, note=79, velocity=0, time=0),
    Message('note_off', channel=13, note=76, velocity=0, time=0),
    Message('control_change', channel=13, control=7, value=120, time=16),
    Message('note_on', channel=13, note=67, velocity=108, time=0),
    Message('note_off', channel=13, note=67, velocity=0, time=16),
    Message('control_change', channel=13, control=7, value=90, time=0),
    Message('note_on', channel=13, note=66, velocity=60, time=0),
    Message('note_off', channel=13, note=66, velocity=0, time=16),
    Message('note_on', channel=13, note=67, velocity=60, time=0),
    Message('note_off', channel=13, note=67, velocity=0, time=16),
    Message('note_on', channel=13, note=68, velocity=60, time=0),
    Message('note_off', channel=13, note=68, velocity=0, time=16),
    Message('note_on', channel=13, note=67, velocity=60, time=0),
    Message('note_off', channel=13, note=67, velocity=0, time=16),
    Message('note_on', channel=13, note=66, velocity=60, time=0),
    Message('note_off', channel=13, note=66, velocity=0, time=16),
    Message('note_on', channel=13, note=61, velocity=60, time=0),
    Message('note_off', channel=13, note=61, velocity=0, time=16),
    Message('note_on', channel=13, note=65, velocity=60, time=0),
    Message('note_off', channel=13, note=65, velocity=0, time=16),
    Message('note_on', channel=13, note=66, velocity=60, time=0),
    Message('note_off', channel=13, note=66, velocity=0, time=15),
    Message('note_on', channel=13, note=67, velocity=60, time=1),
    Message('note_off', channel=13, note=67, velocity=0, time=16),
    Message('note_on', channel=13, note=66, velocity=60, time=0),
    Message('note_off', channel=13, note=66, velocity=0, time=16),
    Message('note_on', channel=13, note=67, velocity=60, time=0),
    Message('note_off', channel=13, note=67, velocity=0, time=16),
    Message('note_on', channel=13, note=68, velocity=60, time=0),
    Message('note_off', channel=13, note=68, velocity=0, time=16),
    Message('note_on', channel=13, note=67, velocity=60, time=0),
    Message('note_off', channel=13, note=67, velocity=0, time=16),
    Message('note_on', channel=13, note=66, velocity=60, time=0),
    Message('note_off', channel=13, note=66, velocity=0, time=16),
    Message('note_on', channel=13, note=61, velocity=60, time=0),
    Message('note_off', channel=13, note=61, velocity=0, time=16),
    Message('note_on', channel=13, note=65, velocity=60, time=0),
    Message('note_off', channel=13, note=65, velocity=0, time=16),
    Message('note_on', channel=13, note=66, velocity=60, time=0),
    Message('note_off', channel=13, note=66, velocity=0, time=15),
    Message('note_on', channel=13, note=67, velocity=60, time=1),
    Message('note_off', channel=13, note=67, velocity=0, time=16),
    Message('note_on', channel=13, note=66, velocity=60, time=0),
    Message('note_off', channel=13, note=66, velocity=0, time=16),
    Message('note_on', channel=13, note=67, velocity=60, time=0),
    Message('note_off', channel=13, note=67, velocity=0, time=16),
    Message('note_on', channel=13, note=68, velocity=60, time=0),
    Message('note_off', channel=13, note=68, velocity=0, time=16),
    Message('note_on', channel=13, note=67, velocity=60, time=0),
    Message('note_off', channel=13, note=67, velocity=0, time=16),
    Message('note_on', channel=13, note=66, velocity=60, time=0),
    Message('note_off', channel=13, note=66, velocity=0, time=16),
    Message('note_on', channel=13, note=61, velocity=60, time=0),
    Message('note_off', channel=13, note=61, velocity=0, time=16),
    Message('note_on', channel=13, note=65, velocity=60, time=0),
    Message('note_off', channel=13, note=65, velocity=0, time=16),
    Message('note_on', channel=13, note=66, velocity=60, time=0),
    Message('note_off', channel=13, note=66, velocity=0, time=15),
    Message('note_on', channel=13, note=67, velocity=60, time=1),
    Message('note_off', channel=13, note=67, velocity=0, time=16),
    Message('note_on', channel=13, note=66, velocity=60, time=0),
    Message('note_off', channel=13, note=66, velocity=0, time=16),
    Message('note_on', channel=13, note=67, velocity=60, time=0),
    Message('note_off', channel=13, note=67, velocity=0, time=16),
    Message('note_on', channel=13, note=68, velocity=60, time=0),
    Message('note_off', channel=13, note=68, velocity=0, time=16),
    Message('note_on', channel=13, note=67, velocity=60, time=0),
    Message('note_off', channel=13, note=67, velocity=0, time=16),
    Message('note_on', channel=13, note=66, velocity=60, time=0),
    Message('note_off', channel=13, note=66, velocity=0, time=16),
    Message('note_on', channel=13, note=61, velocity=60, time=0),
    Message('note_off', channel=13, note=61, velocity=0, time=16),
    Message('note_on', channel=13, note=65, velocity=60, time=0),
    Message('note_off', channel=13, note=65, velocity=0, time=16),
    Message('note_on', channel=13, note=66, velocity=60, time=0),
    Message('note_off', channel=13, note=66, velocity=0, time=15),
    Message('note_on', channel=13, note=67, velocity=60, time=1),
    Message('note_off', channel=13, note=67, velocity=0, time=16),
    Message('note_on', channel=13, note=66, velocity=60, time=0),
    Message('note_off', channel=13, note=66, velocity=0, time=16),
    Message('note_on', channel=13, note=67, velocity=60, time=0),
    Message('note_off', channel=13, note=67, velocity=0, time=16),
    Message('note_on', channel=13, note=68, velocity=60, time=0),
    Message('note_off', channel=13, note=68, velocity=0, time=16),
    Message('note_on', channel=13, note=67, velocity=60, time=0),
    Message('note_off', channel=13, note=67, velocity=0, time=16),
    Message('note_on', channel=13, note=66, velocity=60, time=0),
    Message('note_off', channel=13, note=66, velocity=0, time=16),
    Message('note_on', channel=13, note=61, velocity=60, time=0),
    Message('note_off', channel=13, note=61, velocity=0, time=16),
    Message('note_on', channel=13, note=65, velocity=60, time=0),
    Message('note_off', channel=13, note=65, velocity=0, time=16),
    Message('note_on', channel=13, note=66, velocity=60, time=0),
    Message('note_off', channel=13, note=66, velocity=0, time=15),
    Message('note_on', channel=13, note=66, velocity=60, time=1),
    Message('note_off', channel=13, note=66, velocity=0, time=16),
    Message('note_on', channel=13, note=65, velocity=60, time=0),
    Message('note_off', channel=13, note=65, velocity=0, time=16),
    Message('note_on', channel=13, note=66, velocity=60, time=0),
    Message('note_off', channel=13, note=66, velocity=0, time=16),
    Message('note_on', channel=13, note=70, velocity=60, time=0),
    Message('note_off', channel=13, note=70, velocity=0, time=16),
    Message('note_on', channel=13, note=69, velocity=60, time=0),
    Message('note_off', channel=13, note=69, velocity=0, time=16),
    Message('note_on', channel=13, note=70, velocity=60, time=0),
    Message('note_off', channel=13, note=70, velocity=0, time=16),
    Message('note_on', channel=13, note=75, velocity=60, time=0),
    Message('note_off', channel=13, note=75, velocity=0, time=16),
    Message('note_on', channel=13, note=74, velocity=60, time=0),
    Message('note_off', channel=13, note=74, velocity=0, time=16),
    Message('note_on', channel=13, note=75, velocity=60, time=0),
    Message('note_off', channel=13, note=75, velocity=0, time=15),
    Message('note_on', channel=13, note=70, velocity=60, time=1),
    Message('note_off', channel=13, note=70, velocity=0, time=16),
    Message('note_on', channel=13, note=69, velocity=60, time=0),
    Message('note_off', channel=13, note=69, velocity=0, time=16),
    Message('note_on', channel=13, note=70, velocity=60, time=0),
    Message('note_off', channel=13, note=70, velocity=0, time=16),
    Message('note_on', channel=13, note=75, velocity=60, time=0),
    Message('note_off', channel=13, note=75, velocity=0, time=16),
    Message('note_on', channel=13, note=74, velocity=60, time=0),
    Message('note_off', channel=13, note=74, velocity=0, time=16),
    Message('note_on', channel=13, note=75, velocity=60, time=0),
    Message('note_off', channel=13, note=75, velocity=0, time=16),
    Message('note_on', channel=13, note=78, velocity=60, time=0),
    Message('note_off', channel=13, note=78, velocity=0, time=16),
    Message('note_on', channel=13, note=77, velocity=60, time=0),
    Message('note_off', channel=13, note=77, velocity=0, time=16),
    Message('note_on', channel=13, note=78, velocity=60, time=0),
    Message('note_off', channel=13, note=78, velocity=0, time=15),
    Message('note_on', channel=13, note=75, velocity=60, time=1),
    Message('note_off', channel=13, note=75, velocity=0, time=16),
    Message('note_on', channel=13, note=74, velocity=60, time=0),
    Message('note_off', channel=13, note=74, velocity=0, time=16),
    Message('note_on', channel=13, note=75, velocity=60, time=0),
    Message('note_off', channel=13, note=75, velocity=0, time=16),
    Message('note_on', channel=13, note=78, velocity=60, time=0),
    Message('note_off', channel=13, note=78, velocity=0, time=16),
    Message('note_on', channel=13, note=77, velocity=60, time=0),
    Message('note_off', channel=13, note=77, velocity=0, time=16),
    Message('note_on', channel=13, note=78, velocity=60, time=0),
    Message('note_off', channel=13, note=78, velocity=0, time=16),
    Message('note_on', channel=13, note=82, velocity=60, time=0),
    Message('note_off', channel=13, note=82, velocity=0, time=16),
    Message('note_on', channel=13, note=81, velocity=60, time=0),
    Message('note_off', channel=13, note=81, velocity=0, time=16),
    Message('note_on', channel=13, note=82, velocity=60, time=0),
    Message('note_off', channel=13, note=82, velocity=0, time=15),
    Message('control_change', channel=13, control=7, value=100, time=1),
    Message('note_on', channel=13, note=78, velocity=75, time=0),
    Message('note_off', channel=13, note=78, velocity=0, time=15),
    Message('note_on', channel=13, note=82, velocity=75, time=1),
    Message('note_off', channel=13, note=82, velocity=0, time=15),
    Message('note_on', channel=13, note=87, velocity=75, time=1),
    Message('note_off', channel=13, note=87, velocity=0, time=15),
    Message('note_on', channel=13, note=90, velocity=75, time=1),
    Message('note_off', channel=13, note=90, velocity=0, time=360),
    Message('note_on', channel=13, note=84, velocity=127, time=24),
    Message('note_on', channel=13, note=76, velocity=127, time=0),
    Message('note_on', channel=13, note=67, velocity=127, time=0),
    Message('note_on', channel=13, note=60, velocity=127, time=0),
    Message('note_off', channel=13, note=84, velocity=0, time=47),
    Message('note_off', channel=13, note=76, velocity=0, time=0),
    Message('note_off', channel=13, note=67, velocity=0, time=0),
    Message('note_off', channel=13, note=60, velocity=0, time=0),
    Message('control_change', channel=13, control=101, value=0, time=1249),
    Message('control_change', channel=13, control=100, value=0, time=0),
    Message('control_change', channel=13, control=6, value=12, time=0),
    Message('control_change', channel=13, control=10, value=64, time=0),
    Message('control_change', channel=13, control=7, value=100, time=0),
    Message('pitchwheel', channel=13, pitch=0, time=0),
    Message('program_change', channel=13, program=40, time=0),
    Message('program_change', channel=13, program=40, time=0),
    Message('control_change', channel=13, control=7, value=127, time=0),
    Message('control_change', channel=13, control=10, value=64, time=0),
    Message('control_change', channel=13, control=101, value=0, time=1),
    Message('control_change', channel=13, control=100, value=0, time=0),
    Message('control_change', channel=13, control=6, value=12, time=0),
    Message('control_change', channel=13, control=10, value=64, time=0),
    Message('control_change', channel=13, control=7, value=100, time=0),
    Message('pitchwheel', channel=13, pitch=0, time=0),
    Message('program_change', channel=13, program=40, time=0),
    MetaMessage('end_of_track', time=0)]),
  MidiTrack([
    MetaMessage('track_name', name='Viola', time=0),
    Message('control_change', channel=14, control=10, value=64, time=0),
    Message('control_change', channel=14, control=7, value=127, time=0),
    Message('pitchwheel', channel=14, pitch=0, time=0),
    Message('control_change', channel=14, control=101, value=0, time=0),
    Message('control_change', channel=14, control=100, value=0, time=0),
    Message('control_change', channel=14, control=6, value=12, time=0),
    Message('control_change', channel=14, control=10, value=64, time=0),
    Message('control_change', channel=14, control=7, value=127, time=0),
    Message('pitchwheel', channel=14, pitch=0, time=0),
    Message('program_change', channel=14, program=41, time=0),
    Message('program_change', channel=14, program=41, time=0),
    Message('control_change', channel=14, control=7, value=127, time=0),
    Message('control_change', channel=14, control=10, value=64, time=0),
    Message('control_change', channel=14, control=101, value=0, time=0),
    Message('control_change', channel=14, control=100, value=0, time=0),
    Message('control_change', channel=14, control=6, value=12, time=0),
    Message('control_change', channel=14, control=10, value=64, time=0),
    Message('control_change', channel=14, control=7, value=127, time=0),
    Message('pitchwheel', channel=14, pitch=0, time=0),
    Message('program_change', channel=14, program=41, time=0),
    Message('program_change', channel=14, program=41, time=0),
    Message('control_change', channel=14, control=7, value=127, time=0),
    Message('control_change', channel=14, control=10, value=64, time=0),
    Message('control_change', channel=14, control=101, value=0, time=0),
    Message('control_change', channel=14, control=100, value=0, time=0),
    Message('control_change', channel=14, control=6, value=12, time=0),
    Message('control_change', channel=14, control=10, value=64, time=0),
    Message('control_change', channel=14, control=7, value=127, time=0),
    Message('pitchwheel', channel=14, pitch=0, time=0),
    Message('program_change', channel=14, program=41, time=0),
    Message('control_change', channel=14, control=7, value=90, time=4368),
    Message('note_on', channel=14, note=64, velocity=30, time=0),
    Message('control_change', channel=14, control=7, value=89, time=734),
    Message('control_change', channel=14, control=7, value=88, time=14),
    Message('control_change', channel=14, control=7, value=87, time=15),
    Message('control_change', channel=14, control=7, value=86, time=14),
    Message('control_change', channel=14, control=7, value=85, time=14),
    Message('control_change', channel=14, control=7, value=84, time=15),
    Message('control_change', channel=14, control=7, value=83, time=14),
    Message('control_change', channel=14, control=7, value=82, time=15),
    Message('control_change', channel=14, control=7, value=81, time=14),
    Message('control_change', channel=14, control=7, value=80, time=14),
    Message('control_change', channel=14, control=7, value=81, time=15),
    Message('control_change', channel=14, control=7, value=82, time=14),
    Message('control_change', channel=14, control=7, value=83, time=15),
    Message('control_change', channel=14, control=7, value=84, time=14),
    Message('control_change', channel=14, control=7, value=85, time=14),
    Message('control_change', channel=14, control=7, value=86, time=15),
    Message('control_change', channel=14, control=7, value=87, time=14),
    Message('control_change', channel=14, control=7, value=88, time=15),
    Message('control_change', channel=14, control=7, value=89, time=14),
    Message('control_change', channel=14, control=7, value=90, time=14),
    Message('control_change', channel=14, control=7, value=89, time=3),
    Message('control_change', channel=14, control=7, value=88, time=3),
    Message('control_change', channel=14, control=7, value=87, time=3),
    Message('control_change', channel=14, control=7, value=86, time=3),
    Message('control_change', channel=14, control=7, value=85, time=3),
    Message('control_change', channel=14, control=7, value=84, time=3),
    Message('control_change', channel=14, control=7, value=83, time=3),
    Message('control_change', channel=14, control=7, value=82, time=3),
    Message('control_change', channel=14, control=7, value=81, time=2),
    Message('control_change', channel=14, control=7, value=80, time=3),
    Message('control_change', channel=14, control=7, value=79, time=3),
    Message('control_change', channel=14, control=7, value=78, time=3),
    Message('control_change', channel=14, control=7, value=77, time=3),
    Message('control_change', channel=14, control=7, value=76, time=3),
    Message('control_change', channel=14, control=7, value=75, time=3),
    Message('control_change', channel=14, control=7, value=74, time=3),
    Message('control_change', channel=14, control=7, value=73, time=2),
    Message('control_change', channel=14, control=7, value=72, time=3),
    Message('control_change', channel=14, control=7, value=71, time=3),
    Message('control_change', channel=14, control=7, value=70, time=3),
    Message('control_change', channel=14, control=7, value=69, time=3),
    Message('control_change', channel=14, control=7, value=68, time=3),
    Message('control_change', channel=14, control=7, value=67, time=3),
    Message('control_change', channel=14, control=7, value=66, time=3),
    Message('control_change', channel=14, control=7, value=65, time=3),
    Message('control_change', channel=14, control=7, value=64, time=2),
    Message('control_change', channel=14, control=7, value=63, time=3),
    Message('control_change', channel=14, control=7, value=62, time=3),
    Message('control_change', channel=14, control=7, value=61, time=3),
    Message('control_change', channel=14, control=7, value=60, time=3),
    Message('control_change', channel=14, control=7, value=59, time=3),
    Message('control_change', channel=14, control=7, value=58, time=3),
    Message('control_change', channel=14, control=7, value=57, time=3),
    Message('control_change', channel=14, control=7, value=56, time=2),
    Message('control_change', channel=14, control=7, value=55, time=3),
    Message('control_change', channel=14, control=7, value=54, time=3),
    Message('control_change', channel=14, control=7, value=53, time=3),
    Message('control_change', channel=14, control=7, value=52, time=3),
    Message('control_change', channel=14, control=7, value=51, time=3),
    Message('control_change', channel=14, control=7, value=50, time=3),
    Message('control_change', channel=14, control=7, value=49, time=3),
    Message('control_change', channel=14, control=7, value=48, time=2),
    Message('control_change', channel=14, control=7, value=47, time=3),
    Message('control_change', channel=14, control=7, value=46, time=3),
    Message('control_change', channel=14, control=7, value=45, time=3),
    Message('control_change', channel=14, control=7, value=44, time=3),
    Message('control_change', channel=14, control=7, value=43, time=3),
    Message('control_change', channel=14, control=7, value=42, time=3),
    Message('control_change', channel=14, control=7, value=41, time=3),
    Message('control_change', channel=14, control=7, value=40, time=3),
    Message('note_off', channel=14, note=64, velocity=0, time=47),
    Message('control_change', channel=14, control=7, value=80, time=529),
    Message('note_on', channel=14, note=64, velocity=45, time=0),
    Message('note_off', channel=14, note=64, velocity=0, time=560),
    Message('note_on', channel=14, note=64, velocity=45, time=16),
    Message('note_off', channel=14, note=64, velocity=0, time=128),
    Message('note_on', channel=14, note=58, velocity=45, time=16),
    Message('note_off', channel=14, note=58, velocity=0, time=128),
    Message('note_on', channel=14, note=59, velocity=45, time=16),
    Message('note_off', channel=14, note=59, velocity=0, time=272),
    Message('note_on', channel=14, note=64, velocity=45, time=16),
    Message('note_off', channel=14, note=64, velocity=0, time=272),
    Message('note_on', channel=14, note=74, velocity=45, time=16),
    Message('note_on', channel=14, note=70, velocity=45, time=0),
    Message('note_off', channel=14, note=74, velocity=0, time=80),
    Message('note_off', channel=14, note=70, velocity=0, time=0),
    Message('note_on', channel=14, note=70, velocity=45, time=16),
    Message('note_on', channel=14, note=62, velocity=45, time=0),
    Message('note_off', channel=14, note=70, velocity=0, time=47),
    Message('note_off', channel=14, note=62, velocity=0, time=0),
    Message('note_on', channel=14, note=72, velocity=45, time=1),
    Message('note_on', channel=14, note=68, velocity=45, time=0),
    Message('note_off', channel=14, note=72, velocity=0, time=80),
    Message('note_off', channel=14, note=68, velocity=0, time=0),
    Message('note_on', channel=14, note=68, velocity=45, time=16),
    Message('note_on', channel=14, note=60, velocity=45, time=0),
    Message('note_off', channel=14, note=68, velocity=0, time=47),
    Message('note_off', channel=14, note=60, velocity=0, time=0),
    Message('note_on', channel=14, note=72, velocity=45, time=1),
    Message('note_on', channel=14, note=64, velocity=45, time=0),
    Message('note_off', channel=14, note=72, velocity=0, time=80),
    Message('note_off', channel=14, note=64, velocity=0, time=0),
    Message('note_on', channel=14, note=64, velocity=45, time=16),
    Message('note_on', channel=14, note=60, velocity=45, time=0),
    Message('note_off', channel=14, note=64, velocity=0, time=47),
    Message('note_off', channel=14, note=60, velocity=0, time=0),
    Message('note_on', channel=14, note=58, velocity=45, time=1),
    Message('note_on', channel=14, note=54, velocity=45, time=0),
    Message('note_off', channel=14, note=58, velocity=0, time=80),
    Message('note_off', channel=14, note=54, velocity=0, time=0),
    Message('note_on', channel=14, note=64, velocity=45, time=16),
    Message('note_on', channel=14, note=58, velocity=45, time=0),
    Message('note_off', channel=14, note=64, velocity=0, time=47),
    Message('note_off', channel=14, note=58, velocity=0, time=0),
    Message('note_on', channel=14, note=64, velocity=45, time=1),
    Message('note_off', channel=14, note=64, velocity=0, time=335),
    Message('note_on', channel=14, note=71, velocity=45, time=1),
    Message('note_off', channel=14, note=71, velocity=0, time=12),
    Message('note_on', channel=14, note=72, velocity=45, time=0),
    Message('note_off', channel=14, note=72, velocity=0, time=12),
    Message('note_on', channel=14, note=71, velocity=45, time=0),
    Message('note_off', channel=14, note=71, velocity=0, time=24),
    Message('note_on', channel=14, note=76, velocity=45, time=0),
    Message('note_off', channel=14, note=76, velocity=0, time=12),
    Message('note_on', channel=14, note=77, velocity=45, time=0),
    Message('note_off', channel=14, note=77, velocity=0, time=12),
    Message('note_on', channel=14, note=76, velocity=45, time=0),
    Message('note_off', channel=14, note=76, velocity=0, time=23),
    Message('note_on', channel=14, note=71, velocity=45, time=1),
    Message('note_off', channel=14, note=71, velocity=0, time=12),
    Message('note_on', channel=14, note=72, velocity=45, time=0),
    Message('note_off', channel=14, note=72, velocity=0, time=12),
    Message('note_on', channel=14, note=71, velocity=45, time=0),
    Message('note_off', channel=14, note=71, velocity=0, time=24),
    Message('note_on', channel=14, note=76, velocity=45, time=0),
    Message('note_off', channel=14, note=76, velocity=0, time=12),
    Message('note_on', channel=14, note=77, velocity=45, time=0),
    Message('note_off', channel=14, note=77, velocity=0, time=12),
    Message('note_on', channel=14, note=76, velocity=45, time=0),
    Message('note_off', channel=14, note=76, velocity=0, time=24),
    Message('note_on', channel=14, note=79, velocity=45, time=0),
    Message('note_off', channel=14, note=79, velocity=0, time=12),
    Message('note_on', channel=14, note=80, velocity=45, time=0),
    Message('note_off', channel=14, note=80, velocity=0, time=12),
    Message('note_on', channel=14, note=79, velocity=45, time=0),
    Message('note_off', channel=14, note=79, velocity=0, time=23),
    Message('note_on', channel=14, note=83, velocity=45, time=1),
    Message('note_off', channel=14, note=83, velocity=0, time=12),
    Message('note_on', channel=14, note=84, velocity=45, time=0),
    Message('note_off', channel=14, note=84, velocity=0, time=12),
    Message('note_on', channel=14, note=83, velocity=45, time=0),
    Message('note_off', channel=14, note=83, velocity=0, time=24),
    Message('note_on', channel=14, note=79, velocity=45, time=0),
    Message('note_off', channel=14, note=79, velocity=0, time=12),
    Message('note_on', channel=14, note=80, velocity=45, time=0),
    Message('note_off', channel=14, note=80, velocity=0, time=12),
    Message('note_on', channel=14, note=79, velocity=45, time=0),
    Message('note_off', channel=14, note=79, velocity=0, time=24),
    Message('note_on', channel=14, note=76, velocity=45, time=0),
    Message('note_off', channel=14, note=76, velocity=0, time=12),
    Message('note_on', channel=14, note=77, velocity=45, time=0),
    Message('note_off', channel=14, note=77, velocity=0, time=12),
    Message('note_on', channel=14, note=76, velocity=45, time=0),
    Message('note_off', channel=14, note=76, velocity=0, time=23),
    Message('note_on', channel=14, note=78, velocity=45, time=1),
    Message('note_off', channel=14, note=78, velocity=0, time=12),
    Message('note_on', channel=14, note=79, velocity=45, time=0),
    Message('note_off', channel=14, note=79, velocity=0, time=12),
    Message('note_on', channel=14, note=78, velocity=45, time=0),
    Message('note_off', channel=14, note=78, velocity=0, time=24),
    Message('note_on', channel=14, note=73, velocity=45, time=0),
    Message('note_off', channel=14, note=73, velocity=0, time=12),
    Message('note_on', channel=14, note=74, velocity=45, time=0),
    Message('note_off', channel=14, note=74, velocity=0, time=12),
    Message('note_on', channel=14, note=73, velocity=45, time=0),
    Message('note_off', channel=14, note=73, velocity=0, time=24),
    Message('note_on', channel=14, note=70, velocity=45, time=0),
    Message('note_off', channel=14, note=70, velocity=0, time=12),
    Message('note_on', channel=14, note=71, velocity=45, time=0),
    Message('note_off', channel=14, note=71, velocity=0, time=12),
    Message('note_on', channel=14, note=70, velocity=45, time=0),
    Message('note_off', channel=14, note=70, velocity=0, time=23),
    Message('note_on', channel=14, note=64, velocity=45, time=1),
    Message('note_off', channel=14, note=64, velocity=0, time=12),
    Message('note_on', channel=14, note=65, velocity=45, time=0),
    Message('note_off', channel=14, note=65, velocity=0, time=12),
    Message('note_on', channel=14, note=64, velocity=45, time=0),
    Message('note_off', channel=14, note=64, velocity=0, time=24),
    Message('note_on', channel=14, note=71, velocity=45, time=0),
    Message('note_off', channel=14, note=71, velocity=0, time=12),
    Message('note_on', channel=14, note=72, velocity=45, time=0),
    Message('note_off', channel=14, note=72, velocity=0, time=12),
    Message('note_on', channel=14, note=71, velocity=45, time=0),
    Message('note_off', channel=14, note=71, velocity=0, time=24),
    Message('note_on', channel=14, note=67, velocity=45, time=0),
    Message('note_off', channel=14, note=67, velocity=0, time=12),
    Message('note_on', channel=14, note=68, velocity=45, time=0),
    Message('note_off', channel=14, note=68, velocity=0, time=12),
    Message('note_on', channel=14, note=67, velocity=45, time=0),
    Message('note_off', channel=14, note=67, velocity=0, time=23),
    Message('note_on', channel=14, note=64, velocity=45, time=1),
    Message('note_off', channel=14, note=64, velocity=0, time=12),
    Message('note_on', channel=14, note=65, velocity=45, time=0),
    Message('note_off', channel=14, note=65, velocity=0, time=12),
    Message('note_on', channel=14, note=64, velocity=45, time=0),
    Message('note_off', channel=14, note=64, velocity=0, time=24),
    Message('note_on', channel=14, note=67, velocity=45, time=0),
    Message('note_off', channel=14, note=67, velocity=0, time=12),
    Message('note_on', channel=14, note=68, velocity=45, time=0),
    Message('note_off', channel=14, note=68, velocity=0, time=12),
    Message('note_on', channel=14, note=67, velocity=45, time=0),
    Message('note_off', channel=14, note=67, velocity=0, time=24),
    Message('note_on', channel=14, note=76, velocity=45, time=0),
    Message('note_off', channel=14, note=76, velocity=0, time=12),
    Message('note_on', channel=14, note=77, velocity=45, time=0),
    Message('note_off', channel=14, note=77, velocity=0, time=12),
    Message('note_on', channel=14, note=76, velocity=45, time=0),
    Message('note_off', channel=14, note=76, velocity=0, time=23),
    Message('note_on', channel=14, note=71, velocity=45, time=1),
    Message('control_change', channel=14, control=7, value=81, time=7),
    Message('note_off', channel=14, note=71, velocity=0, time=5),
    Message('note_on', channel=14, note=70, velocity=47, time=0),
    Message('control_change', channel=14, control=7, value=82, time=2),
    Message('control_change', channel=14, control=7, value=83, time=7),
    Message('note_off', channel=14, note=70, velocity=0, time=3),
    Message('note_on', channel=14, note=79, velocity=49, time=0),
    Message('control_change', channel=14, control=7, value=84, time=4),
    Message('control_change', channel=14, control=7, value=85, time=7),
    Message('note_off', channel=14, note=79, velocity=0, time=1),
    Message('note_on', channel=14, note=78, velocity=51, time=0),
    Message('control_change', channel=14, control=7, value=86, time=7),
    Message('note_off', channel=14, note=78, velocity=0, time=5),
    Message('note_on', channel=14, note=76, velocity=53, time=0),
    Message('control_change', channel=14, control=7, value=87, time=2),
    Message('control_change', channel=14, control=7, value=88, time=7),
    Message('note_off', channel=14, note=76, velocity=0, time=3),
    Message('note_on', channel=14, note=75, velocity=55, time=0),
    Message('control_change', channel=14, control=7, value=89, time=4),
    Message('control_change', channel=14, control=7, value=90, time=7),
    Message('note_off', channel=14, note=75, velocity=0, time=1),
    Message('note_on', channel=14, note=72, velocity=57, time=0),
    Message('control_change', channel=14, control=7, value=91, time=7),
    Message('note_off', channel=14, note=72, velocity=0, time=5),
    Message('note_on', channel=14, note=71, velocity=60, time=0),
    Message('control_change', channel=14, control=7, value=92, time=2),
    Message('control_change', channel=14, control=7, value=93, time=7),
    Message('note_off', channel=14, note=71, velocity=0, time=3),
    Message('note_on', channel=14, note=69, velocity=63, time=0),
    Message('control_change', channel=14, control=7, value=94, time=4),
    Message('control_change', channel=14, control=7, value=95, time=7),
    Message('note_off', channel=14, note=69, velocity=0, time=1),
    Message('note_on', channel=14, note=67, velocity=66, time=0),
    Message('control_change', channel=14, control=7, value=96, time=7),
    Message('note_off', channel=14, note=67, velocity=0, time=5),
    Message('note_on', channel=14, note=66, velocity=69, time=0),
    Message('control_change', channel=14, control=7, value=97, time=2),
    Message('control_change', channel=14, control=7, value=98, time=7),
    Message('note_off', channel=14, note=66, velocity=0, time=3),
    Message('note_on', channel=14, note=64, velocity=72, time=0),
    Message('control_change', channel=14, control=7, value=99, time=4),
    Message('note_off', channel=14, note=64, velocity=0, time=7),
    Message('control_change', channel=14, control=7, value=100, time=0),
    Message('note_on', channel=14, note=57, velocity=75, time=1),
    Message('control_change', channel=14, control=7, value=99, time=7),
    Message('note_off', channel=14, note=57, velocity=0, time=5),
    Message('note_on', channel=14, note=64, velocity=73, time=0),
    Message('control_change', channel=14, control=7, value=98, time=2),
    Message('control_change', channel=14, control=7, value=97, time=7),
    Message('note_off', channel=14, note=64, velocity=0, time=3),
    Message('note_on', channel=14, note=72, velocity=99, time=0),
    Message('control_change', channel=14, control=7, value=96, time=4),
    Message('control_change', channel=14, control=7, value=95, time=7),
    Message('note_off', channel=14, note=72, velocity=0, time=1),
    Message('note_on', channel=14, note=71, velocity=69, time=0),
    Message('control_change', channel=14, control=7, value=94, time=7),
    Message('note_off', channel=14, note=71, velocity=0, time=5),
    Message('note_on', channel=14, note=69, velocity=67, time=0),
    Message('control_change', channel=14, control=7, value=93, time=2),
    Message('control_change', channel=14, control=7, value=92, time=7),
    Message('note_off', channel=14, note=69, velocity=0, time=3),
    Message('note_on', channel=14, note=67, velocity=65, time=0),
    Message('control_change', channel=14, control=7, value=91, time=4),
    Message('control_change', channel=14, control=7, value=90, time=7),
    Message('note_off', channel=14, note=67, velocity=0, time=1),
    Message('note_on', channel=14, note=66, velocity=63, time=0),
    Message('control_change', channel=14, control=7, value=89, time=7),
    Message('note_off', channel=14, note=66, velocity=0, time=5),
    Message('note_on', channel=14, note=64, velocity=60, time=0),
    Message('control_change', channel=14, control=7, value=88, time=2),
    Message('control_change', channel=14, control=7, value=87, time=7),
    Message('note_off', channel=14, note=64, velocity=0, time=3),
    Message('note_on', channel=14, note=62, velocity=57, time=0),
    Message('control_change', channel=14, control=7, value=86, time=4),
    Message('control_change', channel=14, control=7, value=85, time=7),
    Message('note_off', channel=14, note=62, velocity=0, time=1),
    Message('note_on', channel=14, note=60, velocity=54, time=0),
    Message('control_change', channel=14, control=7, value=84, time=7),
    Message('note_off', channel=14, note=60, velocity=0, time=5),
    Message('note_on', channel=14, note=59, velocity=51, time=0),
    Message('control_change', channel=14, control=7, value=83, time=2),
    Message('control_change', channel=14, control=7, value=82, time=7),
    Message('note_off', channel=14, note=59, velocity=0, time=3),
    Message('note_on', channel=14, note=58, velocity=48, time=0),
    Message('control_change', channel=14, control=7, value=81, time=4),
    Message('note_off', channel=14, note=58, velocity=0, time=7),
    Message('control_change', channel=14, control=7, value=80, time=0),
    Message('note_on', channel=14, note=59, velocity=45, time=1),
    Message('note_off', channel=14, note=59, velocity=0, time=12),
    Message('note_on', channel=14, note=60, velocity=45, time=0),
    Message('note_off', channel=14, note=60, velocity=0, time=12),
    Message('note_on', channel=14, note=59, velocity=45, time=0),
    Message('note_off', channel=14, note=59, velocity=0, time=24),
    Message('note_on', channel=14, note=64, velocity=45, time=0),
    Message('note_off', channel=14, note=64, velocity=0, time=12),
    Message('note_on', channel=14, note=65, velocity=45, time=0),
    Message('note_off', channel=14, note=65, velocity=0, time=12),
    Message('note_on', channel=14, note=64, velocity=45, time=0),
    Message('note_off', channel=14, note=64, velocity=0, time=24),
    Message('note_on', channel=14, note=64, velocity=45, time=0),
    Message('note_off', channel=14, note=64, velocity=0, time=12),
    Message('note_on', channel=14, note=65, velocity=45, time=0),
    Message('note_off', channel=14, note=65, velocity=0, time=12),
    Message('note_on', channel=14, note=64, velocity=45, time=0),
    Message('note_off', channel=14, note=64, velocity=0, time=23),
    Message('note_on', channel=14, note=64, velocity=45, time=1),
    Message('note_off', channel=14, note=64, velocity=0, time=12),
    Message('note_on', channel=14, note=65, velocity=45, time=0),
    Message('note_off', channel=14, note=65, velocity=0, time=12),
    Message('note_on', channel=14, note=64, velocity=45, time=0),
    Message('note_off', channel=14, note=64, velocity=0, time=24),
    Message('note_on', channel=14, note=71, velocity=45, time=0),
    Message('note_off', channel=14, note=71, velocity=0, time=12),
    Message('note_on', channel=14, note=72, velocity=45, time=0),
    Message('note_off', channel=14, note=72, velocity=0, time=12),
    Message('note_on', channel=14, note=71, velocity=45, time=0),
    Message('note_off', channel=14, note=71, velocity=0, time=24),
    Message('note_on', channel=14, note=67, velocity=45, time=0),
    Message('note_off', channel=14, note=67, velocity=0, time=12),
    Message('note_on', channel=14, note=68, velocity=45, time=0),
    Message('note_off', channel=14, note=68, velocity=0, time=12),
    Message('note_on', channel=14, note=67, velocity=45, time=0),
    Message('note_off', channel=14, note=67, velocity=0, time=23),
    Message('note_on', channel=14, note=74, velocity=45, time=1),
    Message('note_off', channel=14, note=74, velocity=0, time=12),
    Message('note_on', channel=14, note=75, velocity=45, time=0),
    Message('note_off', channel=14, note=75, velocity=0, time=12),
    Message('note_on', channel=14, note=74, velocity=45, time=0),
    Message('note_off', channel=14, note=74, velocity=0, time=24),
    Message('note_on', channel=14, note=67, velocity=45, time=0),
    Message('note_off', channel=14, note=67, velocity=0, time=12),
    Message('note_on', channel=14, note=68, velocity=45, time=0),
    Message('note_off', channel=14, note=68, velocity=0, time=12),
    Message('note_on', channel=14, note=67, velocity=45, time=0),
    Message('note_off', channel=14, note=67, velocity=0, time=24),
    Message('note_on', channel=14, note=73, velocity=45, time=0),
    Message('note_off', channel=14, note=73, velocity=0, time=12),
    Message('note_on', channel=14, note=74, velocity=45, time=0),
    Message('note_off', channel=14, note=74, velocity=0, time=12),
    Message('note_on', channel=14, note=73, velocity=45, time=0),
    Message('note_off', channel=14, note=73, velocity=0, time=23),
    Message('note_on', channel=14, note=72, velocity=45, time=1),
    Message('note_off', channel=14, note=72, velocity=0, time=12),
    Message('note_on', channel=14, note=73, velocity=45, time=0),
    Message('note_off', channel=14, note=73, velocity=0, time=12),
    Message('note_on', channel=14, note=72, velocity=45, time=0),
    Message('note_off', channel=14, note=72, velocity=0, time=24),
    Message('note_on', channel=14, note=65, velocity=45, time=0),
    Message('note_off', channel=14, note=65, velocity=0, time=12),
    Message('note_on', channel=14, note=66, velocity=45, time=0),
    Message('note_off', channel=14, note=66, velocity=0, time=12),
    Message('note_on', channel=14, note=65, velocity=45, time=0),
    Message('note_off', channel=14, note=65, velocity=0, time=24),
    Message('note_on', channel=14, note=68, velocity=45, time=0),
    Message('note_off', channel=14, note=68, velocity=0, time=12),
    Message('note_on', channel=14, note=69, velocity=45, time=0),
    Message('note_off', channel=14, note=69, velocity=0, time=12),
    Message('note_on', channel=14, note=68, velocity=45, time=0),
    Message('note_off', channel=14, note=68, velocity=0, time=23),
    Message('note_on', channel=14, note=69, velocity=45, time=1),
    Message('note_off', channel=14, note=69, velocity=0, time=12),
    Message('note_on', channel=14, note=70, velocity=45, time=0),
    Message('note_off', channel=14, note=70, velocity=0, time=12),
    Message('note_on', channel=14, note=69, velocity=45, time=0),
    Message('note_off', channel=14, note=69, velocity=0, time=24),
    Message('note_on', channel=14, note=64, velocity=45, time=0),
    Message('note_off', channel=14, note=64, velocity=0, time=12),
    Message('note_on', channel=14, note=65, velocity=45, time=0),
    Message('note_off', channel=14, note=65, velocity=0, time=12),
    Message('note_on', channel=14, note=64, velocity=45, time=0),
    Message('note_off', channel=14, note=64, velocity=0, time=24),
    Message('note_on', channel=14, note=70, velocity=45, time=0),
    Message('note_off', channel=14, note=70, velocity=0, time=12),
    Message('note_on', channel=14, note=71, velocity=45, time=0),
    Message('note_off', channel=14, note=71, velocity=0, time=12),
    Message('note_on', channel=14, note=70, velocity=45, time=0),
    Message('note_off', channel=14, note=70, velocity=0, time=24),
    Message('note_on', channel=14, note=64, velocity=45, time=0),
    Message('note_off', channel=14, note=64, velocity=0, time=47),
    Message('control_change', channel=14, control=7, value=90, time=385),
    Message('note_on', channel=14, note=59, velocity=60, time=0),
    Message('note_off', channel=14, note=59, velocity=0, time=16),
    Message('note_on', channel=14, note=60, velocity=60, time=0),
    Message('note_off', channel=14, note=60, velocity=0, time=16),
    Message('note_on', channel=14, note=59, velocity=60, time=0),
    Message('note_off', channel=14, note=59, velocity=0, time=16),
    Message('note_on', channel=14, note=58, velocity=60, time=0),
    Message('note_off', channel=14, note=58, velocity=0, time=16),
    Message('note_on', channel=14, note=59, velocity=60, time=0),
    Message('note_off', channel=14, note=59, velocity=0, time=16),
    Message('note_on', channel=14, note=60, velocity=60, time=0),
    Message('note_off', channel=14, note=60, velocity=0, time=16),
    Message('note_on', channel=14, note=59, velocity=60, time=0),
    Message('note_off', channel=14, note=59, velocity=0, time=16),
    Message('note_on', channel=14, note=58, velocity=60, time=0),
    Message('note_off', channel=14, note=58, velocity=0, time=16),
    Message('note_on', channel=14, note=59, velocity=60, time=0),
    Message('note_off', channel=14, note=59, velocity=0, time=15),
    Message('note_on', channel=14, note=60, velocity=60, time=1),
    Message('note_off', channel=14, note=60, velocity=0, time=16),
    Message('note_on', channel=14, note=59, velocity=60, time=0),
    Message('note_off', channel=14, note=59, velocity=0, time=16),
    Message('note_on', channel=14, note=58, velocity=60, time=0),
    Message('note_off', channel=14, note=58, velocity=0, time=16),
    Message('note_on', channel=14, note=59, velocity=60, time=0),
    Message('note_off', channel=14, note=59, velocity=0, time=16),
    Message('note_on', channel=14, note=60, velocity=60, time=0),
    Message('note_off', channel=14, note=60, velocity=0, time=16),
    Message('note_on', channel=14, note=59, velocity=60, time=0),
    Message('note_off', channel=14, note=59, velocity=0, time=16),
    Message('note_on', channel=14, note=52, velocity=60, time=0),
    Message('note_off', channel=14, note=52, velocity=0, time=16),
    Message('note_on', channel=14, note=55, velocity=60, time=0),
    Message('note_off', channel=14, note=55, velocity=0, time=16),
    Message('note_on', channel=14, note=59, velocity=60, time=0),
    Message('note_off', channel=14, note=59, velocity=0, time=15),
    Message('note_on', channel=14, note=52, velocity=60, time=1),
    Message('note_off', channel=14, note=52, velocity=0, time=16),
    Message('note_on', channel=14, note=54, velocity=60, time=0),
    Message('note_off', channel=14, note=54, velocity=0, time=16),
    Message('note_on', channel=14, note=64, velocity=60, time=0),
    Message('note_off', channel=14, note=64, velocity=0, time=16),
    Message('note_on', channel=14, note=62, velocity=60, time=0),
    Message('note_off', channel=14, note=62, velocity=0, time=16),
    Message('note_on', channel=14, note=60, velocity=60, time=0),
    Message('note_off', channel=14, note=60, velocity=0, time=16),
    Message('note_on', channel=14, note=59, velocity=60, time=0),
    Message('note_off', channel=14, note=59, velocity=0, time=16),
    Message('note_on', channel=14, note=57, velocity=60, time=0),
    Message('note_off', channel=14, note=57, velocity=0, time=16),
    Message('note_on', channel=14, note=55, velocity=60, time=0),
    Message('note_off', channel=14, note=55, velocity=0, time=16),
    Message('note_on', channel=14, note=54, velocity=60, time=0),
    Message('note_off', channel=14, note=54, velocity=0, time=15),
    Message('note_on', channel=14, note=60, velocity=60, time=1),
    Message('note_off', channel=14, note=60, velocity=0, time=16),
    Message('note_on', channel=14, note=59, velocity=60, time=0),
    Message('note_off', channel=14, note=59, velocity=0, time=16),
    Message('note_on', channel=14, note=57, velocity=60, time=0),
    Message('note_off', channel=14, note=57, velocity=0, time=16),
    Message('note_on', channel=14, note=55, velocity=60, time=0),
    Message('note_off', channel=14, note=55, velocity=0, time=16),
    Message('note_on', channel=14, note=54, velocity=60, time=0),
    Message('note_off', channel=14, note=54, velocity=0, time=16),
    Message('note_on', channel=14, note=52, velocity=60, time=0),
    Message('note_off', channel=14, note=52, velocity=0, time=16),
    Message('note_on', channel=14, note=51, velocity=60, time=0),
    Message('note_off', channel=14, note=51, velocity=0, time=16),
    Message('note_on', channel=14, note=52, velocity=60, time=0),
    Message('note_off', channel=14, note=52, velocity=0, time=16),
    Message('note_on', channel=14, note=54, velocity=60, time=0),
    Message('note_off', channel=14, note=54, velocity=0, time=15),
    Message('note_on', channel=14, note=52, velocity=60, time=1),
    Message('note_off', channel=14, note=52, velocity=0, time=16),
    Message('note_on', channel=14, note=55, velocity=60, time=0),
    Message('note_off', channel=14, note=55, velocity=0, time=16),
    Message('note_on', channel=14, note=54, velocity=60, time=0),
    Message('note_off', channel=14, note=54, velocity=0, time=16),
    Message('note_on', channel=14, note=52, velocity=60, time=0),
    Message('note_off', channel=14, note=52, velocity=0, time=16),
    Message('note_on', channel=14, note=60, velocity=60, time=0),
    Message('note_off', channel=14, note=60, velocity=0, time=16),
    Message('note_on', channel=14, note=59, velocity=60, time=0),
    Message('note_off', channel=14, note=59, velocity=0, time=16),
    Message('note_on', channel=14, note=57, velocity=60, time=0),
    Message('note_off', channel=14, note=57, velocity=0, time=16),
    Message('note_on', channel=14, note=55, velocity=60, time=0),
    Message('note_off', channel=14, note=55, velocity=0, time=16),
    Message('note_on', channel=14, note=54, velocity=60, time=0),
    Message('note_off', channel=14, note=54, velocity=0, time=15),
    Message('note_on', channel=14, note=58, velocity=60, time=1),
    Message('note_off', channel=14, note=58, velocity=0, time=16),
    Message('note_on', channel=14, note=59, velocity=60, time=0),
    Message('note_off', channel=14, note=59, velocity=0, time=16),
    Message('note_on', channel=14, note=60, velocity=60, time=0),
    Message('note_off', channel=14, note=60, velocity=0, time=16),
    Message('note_on', channel=14, note=59, velocity=60, time=0),
    Message('note_off', channel=14, note=59, velocity=0, time=16),
    Message('note_on', channel=14, note=58, velocity=60, time=0),
    Message('note_off', channel=14, note=58, velocity=0, time=16),
    Message('note_on', channel=14, note=59, velocity=60, time=0),
    Message('note_off', channel=14, note=59, velocity=0, time=16),
    Message('note_on', channel=14, note=60, velocity=60, time=0),
    Message('note_off', channel=14, note=60, velocity=0, time=16),
    Message('note_on', channel=14, note=59, velocity=60, time=0),
    Message('note_off', channel=14, note=59, velocity=0, time=16),
    Message('note_on', channel=14, note=58, velocity=60, time=0),
    Message('note_off', channel=14, note=58, velocity=0, time=15),
    Message('note_on', channel=14, note=52, velocity=60, time=1),
    Message('note_off', channel=14, note=52, velocity=0, time=16),
    Message('note_on', channel=14, note=57, velocity=60, time=0),
    Message('note_off', channel=14, note=57, velocity=0, time=16),
    Message('note_on', channel=14, note=55, velocity=60, time=0),
    Message('note_off', channel=14, note=55, velocity=0, time=16),
    Message('note_on', channel=14, note=55, velocity=60, time=0),
    Message('note_off', channel=14, note=55, velocity=0, time=16),
    Message('note_on', channel=14, note=54, velocity=60, time=0),
    Message('note_off', channel=14, note=54, velocity=0, time=16),
    Message('note_on', channel=14, note=52, velocity=60, time=0),
    Message('note_off', channel=14, note=52, velocity=0, time=16),
    Message('note_on', channel=14, note=51, velocity=60, time=0),
    Message('note_off', channel=14, note=51, velocity=0, time=16),
    Message('note_on', channel=14, note=52, velocity=60, time=0),
    Message('note_off', channel=14, note=52, velocity=0, time=16),
    Message('note_on', channel=14, note=55, velocity=60, time=0),
    Message('note_off', channel=14, note=55, velocity=0, time=15),
    Message('note_on', channel=14, note=54, velocity=60, time=1),
    Message('note_off', channel=14, note=54, velocity=0, time=16),
    Message('note_on', channel=14, note=57, velocity=60, time=0),
    Message('note_off', channel=14, note=57, velocity=0, time=16),
    Message('note_on', channel=14, note=69, velocity=60, time=0),
    Message('note_off', channel=14, note=69, velocity=0, time=16),
    Message('note_on', channel=14, note=67, velocity=60, time=0),
    Message('note_off', channel=14, note=67, velocity=0, time=16),
    Message('note_on', channel=14, note=66, velocity=60, time=0),
    Message('note_off', channel=14, note=66, velocity=0, time=16),
    Message('note_on', channel=14, note=64, velocity=60, time=0),
    Message('note_off', channel=14, note=64, velocity=0, time=16),
    Message('note_on', channel=14, note=54, velocity=60, time=0),
    Message('note_off', channel=14, note=54, velocity=0, time=16),
    Message('note_on', channel=14, note=52, velocity=60, time=0),
    Message('note_off', channel=14, note=52, velocity=0, time=16),
    Message('note_on', channel=14, note=51, velocity=60, time=0),
    Message('note_off', channel=14, note=51, velocity=0, time=15),
    Message('note_on', channel=14, note=52, velocity=60, time=1),
    Message('note_off', channel=14, note=52, velocity=0, time=16),
    Message('note_on', channel=14, note=51, velocity=60, time=0),
    Message('note_off', channel=14, note=51, velocity=0, time=16),
    Message('note_on', channel=14, note=52, velocity=60, time=0),
    Message('note_off', channel=14, note=52, velocity=0, time=16),
    Message('note_on', channel=14, note=54, velocity=60, time=0),
    Message('note_off', channel=14, note=54, velocity=0, time=16),
    Message('note_on', channel=14, note=52, velocity=60, time=0),
    Message('note_off', channel=14, note=52, velocity=0, time=16),
    Message('note_on', channel=14, note=51, velocity=60, time=0),
    Message('note_off', channel=14, note=51, velocity=0, time=16),
    Message('note_on', channel=14, note=52, velocity=60, time=0),
    Message('note_off', channel=14, note=52, velocity=0, time=16),
    Message('note_on', channel=14, note=51, velocity=60, time=0),
    Message('note_off', channel=14, note=51, velocity=0, time=16),
    Message('note_on', channel=14, note=52, velocity=60, time=0),
    Message('note_off', channel=14, note=52, velocity=0, time=15),
    Message('note_on', channel=14, note=52, velocity=60, time=1),
    Message('note_off', channel=14, note=52, velocity=0, time=16),
    Message('note_on', channel=14, note=51, velocity=60, time=0),
    Message('note_off', channel=14, note=51, velocity=0, time=16),
    Message('note_on', channel=14, note=52, velocity=60, time=0),
    Message('note_off', channel=14, note=52, velocity=0, time=15),
    Message('note_on', channel=14, note=52, velocity=60, time=1),
    Message('note_off', channel=14, note=52, velocity=0, time=16),
    Message('note_on', channel=14, note=51, velocity=60, time=0),
    Message('note_off', channel=14, note=51, velocity=0, time=16),
    Message('note_on', channel=14, note=52, velocity=60, time=0),
    Message('note_off', channel=14, note=52, velocity=0, time=15),
    Message('note_on', channel=14, note=52, velocity=60, time=1),
    Message('note_off', channel=14, note=52, velocity=0, time=16),
    Message('note_on', channel=14, note=51, velocity=60, time=0),
    Message('note_off', channel=14, note=51, velocity=0, time=16),
    Message('note_on', channel=14, note=52, velocity=60, time=0),
    Message('note_off', channel=14, note=52, velocity=0, time=15),
    Message('note_on', channel=14, note=55, velocity=60, time=1),
    Message('note_off', channel=14, note=55, velocity=0, time=16),
    Message('note_on', channel=14, note=58, velocity=60, time=0),
    Message('note_off', channel=14, note=58, velocity=0, time=16),
    Message('note_on', channel=14, note=62, velocity=60, time=0),
    Message('note_off', channel=14, note=62, velocity=0, time=16),
    Message('note_on', channel=14, note=67, velocity=60, time=0),
    Message('note_off', channel=14, note=67, velocity=0, time=16),
    Message('note_on', channel=14, note=70, velocity=60, time=0),
    Message('note_off', channel=14, note=70, velocity=0, time=16),
    Message('note_on', channel=14, note=74, velocity=60, time=0),
    Message('note_off', channel=14, note=74, velocity=0, time=16),
    Message('note_on', channel=14, note=70, velocity=60, time=0),
    Message('note_off', channel=14, note=70, velocity=0, time=16),
    Message('note_on', channel=14, note=67, velocity=60, time=0),
    Message('note_off', channel=14, note=67, velocity=0, time=16),
    Message('note_on', channel=14, note=62, velocity=60, time=0),
    Message('note_off', channel=14, note=62, velocity=0, time=15),
    Message('note_on', channel=14, note=56, velocity=60, time=1),
    Message('note_off', channel=14, note=56, velocity=0, time=16),
    Message('note_on', channel=14, note=60, velocity=60, time=0),
    Message('note_off', channel=14, note=60, velocity=0, time=16),
    Message('note_on', channel=14, note=65, velocity=60, time=0),
    Message('note_off', channel=14, note=65, velocity=0, time=16),
    Message('note_on', channel=14, note=68, velocity=60, time=0),
    Message('note_off', channel=14, note=68, velocity=0, time=16),
    Message('note_on', channel=14, note=72, velocity=60, time=0),
    Message('note_off', channel=14, note=72, velocity=0, time=16),
    Message('note_on', channel=14, note=68, velocity=60, time=0),
    Message('note_off', channel=14, note=68, velocity=0, time=16),
    Message('note_on', channel=14, note=65, velocity=60, time=0),
    Message('note_off', channel=14, note=65, velocity=0, time=16),
    Message('note_on', channel=14, note=60, velocity=60, time=0),
    Message('note_off', channel=14, note=60, velocity=0, time=16),
    Message('note_on', channel=14, note=56, velocity=60, time=0),
    Message('note_off', channel=14, note=56, velocity=0, time=15),
    Message('note_on', channel=14, note=55, velocity=60, time=1),
    Message('note_off', channel=14, note=55, velocity=0, time=16),
    Message('note_on', channel=14, note=60, velocity=60, time=0),
    Message('note_off', channel=14, note=60, velocity=0, time=16),
    Message('note_on', channel=14, note=59, velocity=60, time=0),
    Message('note_off', channel=14, note=59, velocity=0, time=16),
    Message('note_on', channel=14, note=67, velocity=60, time=0),
    Message('note_off', channel=14, note=67, velocity=0, time=16),
    Message('note_on', channel=14, note=64, velocity=60, time=0),
    Message('note_off', channel=14, note=64, velocity=0, time=16),
    Message('note_on', channel=14, note=59, velocity=60, time=0),
    Message('note_off', channel=14, note=59, velocity=0, time=16),
    Message('note_on', channel=14, note=55, velocity=60, time=0),
    Message('note_off', channel=14, note=55, velocity=0, time=16),
    Message('note_on', channel=14, note=58, velocity=60, time=0),
    Message('note_off', channel=14, note=58, velocity=0, time=16),
    Message('note_on', channel=14, note=59, velocity=60, time=0),
    Message('note_off', channel=14, note=59, velocity=0, time=15),
    Message('note_on', channel=14, note=55, velocity=60, time=1),
    Message('note_off', channel=14, note=55, velocity=0, time=16),
    Message('note_on', channel=14, note=64, velocity=60, time=0),
    Message('note_off', channel=14, note=64, velocity=0, time=16),
    Message('note_on', channel=14, note=59, velocity=60, time=0),
    Message('note_off', channel=14, note=59, velocity=0, time=16),
    Message('note_on', channel=14, note=55, velocity=60, time=0),
    Message('note_off', channel=14, note=55, velocity=0, time=16),
    Message('note_on', channel=14, note=64, velocity=60, time=0),
    Message('note_off', channel=14, note=64, velocity=0, time=16),
    Message('note_on', channel=14, note=57, velocity=60, time=0),
    Message('note_off', channel=14, note=57, velocity=0, time=16),
    Message('note_on', channel=14, note=58, velocity=60, time=0),
    Message('note_off', channel=14, note=58, velocity=0, time=16),
    Message('note_on', channel=14, note=60, velocity=60, time=0),
    Message('note_off', channel=14, note=60, velocity=0, time=16),
    Message('note_on', channel=14, note=64, velocity=60, time=0),
    Message('note_off', channel=14, note=64, velocity=0, time=15),
    Message('note_on', channel=14, note=58, velocity=60, time=1),
    Message('note_off', channel=14, note=58, velocity=0, time=16),
    Message('note_on', channel=14, note=59, velocity=60, time=0),
    Message('note_off', channel=14, note=59, velocity=0, time=16),
    Message('note_on', channel=14, note=63, velocity=60, time=0),
    Message('note_off', channel=14, note=63, velocity=0, time=16),
    Message('note_on', channel=14, note=64, velocity=60, time=0),
    Message('note_off', channel=14, note=64, velocity=0, time=16),
    Message('note_on', channel=14, note=66, velocity=60, time=0),
    Message('note_off', channel=14, note=66, velocity=0, time=16),
    Message('note_on', channel=14, note=67, velocity=60, time=0),
    Message('note_off', channel=14, note=67, velocity=0, time=15),
    Message('note_on', channel=14, note=72, velocity=60, time=1),
    Message('note_off', channel=14, note=72, velocity=0, time=16),
    Message('note_on', channel=14, note=71, velocity=60, time=0),
    Message('note_off', channel=14, note=71, velocity=0, time=16),
    Message('note_on', channel=14, note=67, velocity=60, time=0),
    Message('note_off', channel=14, note=67, velocity=0, time=16),
    Message('note_on', channel=14, note=64, velocity=60, time=0),
    Message('note_off', channel=14, note=64, velocity=0, time=47),
    Message('control_change', channel=14, control=7, value=100, time=3313),
    Message('note_on', channel=14, note=64, velocity=75, time=0),
    Message('note_off', channel=14, note=64, velocity=0, time=24),
    Message('note_on', channel=14, note=62, velocity=75, time=0),
    Message('note_off', channel=14, note=62, velocity=0, time=24),
    Message('note_on', channel=14, note=60, velocity=75, time=0),
    Message('note_off', channel=14, note=60, velocity=0, time=24),
    Message('note_on', channel=14, note=59, velocity=75, time=0),
    Message('note_off', channel=14, note=59, velocity=0, time=24),
    Message('note_on', channel=14, note=57, velocity=75, time=0),
    Message('note_off', channel=14, note=57, velocity=0, time=47),
    Message('note_on', channel=14, note=64, velocity=75, time=1393),
    Message('note_off', channel=14, note=64, velocity=0, time=24),
    Message('note_on', channel=14, note=62, velocity=75, time=0),
    Message('note_off', channel=14, note=62, velocity=0, time=24),
    Message('note_on', channel=14, note=60, velocity=75, time=0),
    Message('note_off', channel=14, note=60, velocity=0, time=24),
    Message('note_on', channel=14, note=59, velocity=75, time=0),
    Message('note_off', channel=14, note=59, velocity=0, time=24),
    Message('note_on', channel=14, note=57, velocity=75, time=0),
    Message('note_off', channel=14, note=57, velocity=0, time=47),
    Message('note_on', channel=14, note=65, velocity=75, time=241),
    Message('note_off', channel=14, note=65, velocity=0, time=23),
    Message('note_on', channel=14, note=63, velocity=75, time=1),
    Message('note_off', channel=14, note=63, velocity=0, time=23),
    Message('note_on', channel=14, note=61, velocity=75, time=1),
    Message('note_off', channel=14, note=61, velocity=0, time=23),
    Message('note_on', channel=14, note=60, velocity=75, time=1),
    Message('note_off', channel=14, note=60, velocity=0, time=23),
    Message('note_on', channel=14, note=58, velocity=75, time=1),
    Message('note_off', channel=14, note=58, velocity=0, time=47),
    Message('note_on', channel=14, note=64, velocity=75, time=241),
    Message('note_off', channel=14, note=64, velocity=0, time=24),
    Message('note_on', channel=14, note=62, velocity=75, time=0),
    Message('note_off', channel=14, note=62, velocity=0, time=24),
    Message('note_on', channel=14, note=60, velocity=75, time=0),
    Message('note_off', channel=14, note=60, velocity=0, time=24),
    Message('note_on', channel=14, note=59, velocity=75, time=0),
    Message('note_off', channel=14, note=59, velocity=0, time=24),
    Message('note_on', channel=14, note=57, velocity=75, time=0),
    Message('note_off', channel=14, note=57, velocity=0, time=47),
    Message('note_on', channel=14, note=60, velocity=75, time=193),
    Message('control_change', channel=14, control=7, value=99, time=5),
    Message('control_change', channel=14, control=7, value=98, time=6),
    Message('control_change', channel=14, control=7, value=97, time=5),
    Message('control_change', channel=14, control=7, value=96, time=6),
    Message('control_change', channel=14, control=7, value=95, time=5),
    Message('control_change', channel=14, control=7, value=94, time=6),
    Message('control_change', channel=14, control=7, value=93, time=6),
    Message('control_change', channel=14, control=7, value=92, time=5),
    Message('note_off', channel=14, note=60, velocity=0, time=3),
    Message('note_on', channel=14, note=53, velocity=66, time=1),
    Message('control_change', channel=14, control=7, value=91, time=2),
    Message('control_change', channel=14, control=7, value=90, time=5),
    Message('control_change', channel=14, control=7, value=89, time=6),
    Message('control_change', channel=14, control=7, value=88, time=6),
    Message('control_change', channel=14, control=7, value=87, time=5),
    Message('control_change', channel=14, control=7, value=86, time=6),
    Message('control_change', channel=14, control=7, value=85, time=5),
    Message('control_change', channel=14, control=7, value=84, time=6),
    Message('note_off', channel=14, note=53, velocity=0, time=6),
    Message('control_change', channel=14, control=7, value=83, time=0),
    Message('note_on', channel=14, note=60, velocity=57, time=1),
    Message('control_change', channel=14, control=7, value=82, time=4),
    Message('control_change', channel=14, control=7, value=81, time=6),
    Message('control_change', channel=14, control=7, value=80, time=5),
    Message('control_change', channel=14, control=7, value=79, time=6),
    Message('control_change', channel=14, control=7, value=78, time=6),
    Message('control_change', channel=14, control=7, value=77, time=5),
    Message('control_change', channel=14, control=7, value=76, time=6),
    Message('control_change', channel=14, control=7, value=75, time=5),
    Message('note_off', channel=14, note=60, velocity=0, time=4),
    Message('note_on', channel=14, note=59, velocity=48, time=1),
    Message('control_change', channel=14, control=7, value=74, time=1),
    Message('control_change', channel=14, control=7, value=73, time=6),
    Message('control_change', channel=14, control=7, value=72, time=5),
    Message('control_change', channel=14, control=7, value=71, time=6),
    Message('control_change', channel=14, control=7, value=70, time=5),
    Message('control_change', channel=14, control=7, value=69, time=6),
    Message('control_change', channel=14, control=7, value=68, time=6),
    Message('control_change', channel=14, control=7, value=67, time=5),
    Message('control_change', channel=14, control=7, value=66, time=6),
    Message('control_change', channel=14, control=7, value=65, time=5),
    Message('control_change', channel=14, control=7, value=64, time=6),
    Message('control_change', channel=14, control=7, value=63, time=6),
    Message('control_change', channel=14, control=7, value=62, time=5),
    Message('control_change', channel=14, control=7, value=61, time=6),
    Message('control_change', channel=14, control=7, value=60, time=5),
    Message('note_off', channel=14, note=59, velocity=0, time=1),
    Message('control_change', channel=14, control=7, value=59, time=5),
    Message('control_change', channel=14, control=7, value=58, time=6),
    Message('control_change', channel=14, control=7, value=57, time=5),
    Message('control_change', channel=14, control=7, value=56, time=6),
    Message('control_change', channel=14, control=7, value=55, time=5),
    Message('control_change', channel=14, control=7, value=54, time=6),
    Message('control_change', channel=14, control=7, value=53, time=6),
    Message('control_change', channel=14, control=7, value=52, time=5),
    Message('control_change', channel=14, control=7, value=51, time=6),
    Message('control_change', channel=14, control=7, value=50, time=5),
    Message('control_change', channel=14, control=7, value=49, time=6),
    Message('control_change', channel=14, control=7, value=48, time=6),
    Message('control_change', channel=14, control=7, value=47, time=5),
    Message('control_change', channel=14, control=7, value=46, time=6),
    Message('control_change', channel=14, control=7, value=45, time=5),
    Message('control_change', channel=14, control=7, value=44, time=6),
    Message('control_change', channel=14, control=7, value=43, time=6),
    Message('control_change', channel=14, control=7, value=42, time=5),
    Message('control_change', channel=14, control=7, value=41, time=6),
    Message('control_change', channel=14, control=7, value=40, time=5),
    Message('program_change', channel=14, program=45, time=2689),
    Message('control_change', channel=14, control=7, value=80, time=96),
    Message('note_on', channel=14, note=64, velocity=45, time=0),
    Message('note_off', channel=14, note=64, velocity=0, time=80),
    Message('note_on', channel=14, note=60, velocity=45, time=16),
    Message('note_off', channel=14, note=60, velocity=0, time=80),
    Message('note_on', channel=14, note=57, velocity=45, time=16),
    Message('note_off', channel=14, note=57, velocity=0, time=80),
    Message('note_on', channel=14, note=52, velocity=45, time=16),
    Message('note_off', channel=14, note=52, velocity=0, time=80),
    Message('program_change', channel=14, program=41, time=2992),
    Message('control_change', channel=14, control=7, value=90, time=0),
    Message('note_on', channel=14, note=57, velocity=60, time=0),
    Message('note_off', channel=14, note=57, velocity=0, time=192),
    Message('note_on', channel=14, note=60, velocity=60, time=0),
    Message('note_off', channel=14, note=60, velocity=0, time=168),
    Message('note_on', channel=14, note=65, velocity=60, time=24),
    Message('note_off', channel=14, note=65, velocity=0, time=192),
    Message('note_on', channel=14, note=64, velocity=60, time=0),
    Message('note_off', channel=14, note=64, velocity=0, time=168),
    Message('note_on', channel=14, note=64, velocity=60, time=120),
    Message('note_off', channel=14, note=64, velocity=0, time=24),
    Message('note_on', channel=14, note=62, velocity=60, time=0),
    Message('note_off', channel=14, note=62, velocity=0, time=24),
    Message('note_on', channel=14, note=60, velocity=60, time=0),
    Message('note_off', channel=14, note=60, velocity=0, time=24),
    Message('note_on', channel=14, note=59, velocity=60, time=0),
    Message('note_off', channel=14, note=59, velocity=0, time=24),
    Message('note_on', channel=14, note=57, velocity=60, time=0),
    Message('note_off', channel=14, note=57, velocity=0, time=47),
    Message('note_on', channel=14, note=69, velocity=60, time=49),
    Message('control_change', channel=14, control=7, value=91, time=9),
    Message('control_change', channel=14, control=7, value=92, time=10),
    Message('note_off', channel=14, note=69, velocity=0, time=5),
    Message('note_on', channel=14, note=67, velocity=63, time=0),
    Message('control_change', channel=14, control=7, value=93, time=4),
    Message('control_change', channel=14, control=7, value=94, time=10),
    Message('note_off', channel=14, note=67, velocity=0, time=10),
    Message('control_change', channel=14, control=7, value=95, time=0),
    Message('note_on', channel=14, note=66, velocity=67, time=0),
    Message('control_change', channel=14, control=7, value=96, time=9),
    Message('control_change', channel=14, control=7, value=97, time=10),
    Message('note_off', channel=14, note=66, velocity=0, time=5),
    Message('note_on', channel=14, note=65, velocity=71, time=0),
    Message('control_change', channel=14, control=7, value=98, time=4),
    Message('control_change', channel=14, control=7, value=99, time=10),
    Message('note_off', channel=14, note=65, velocity=0, time=10),
    Message('control_change', channel=14, control=7, value=100, time=0),
    Message('note_on', channel=14, note=64, velocity=75, time=0),
    Message('control_change', channel=14, control=7, value=101, time=28),
    Message('note_off', channel=14, note=64, velocity=0, time=19),
    Message('control_change', channel=14, control=7, value=102, time=10),
    Message('control_change', channel=14, control=7, value=103, time=29),
    Message('note_on', channel=14, note=69, velocity=80, time=10),
    Message('control_change', channel=14, control=7, value=104, time=19),
    Message('note_off', channel=14, note=69, velocity=0, time=5),
    Message('note_on', channel=14, note=67, velocity=81, time=0),
    Message('control_change', channel=14, control=7, value=105, time=23),
    Message('note_off', channel=14, note=67, velocity=0, time=1),
    Message('note_on', channel=14, note=66, velocity=82, time=0),
    Message('note_off', channel=14, note=66, velocity=0, time=24),
    Message('note_on', channel=14, note=65, velocity=83, time=0),
    Message('control_change', channel=14, control=7, value=106, time=4),
    Message('note_off', channel=14, note=65, velocity=0, time=20),
    Message('note_on', channel=14, note=64, velocity=84, time=0),
    Message('control_change', channel=14, control=7, value=107, time=9),
    Message('control_change', channel=14, control=7, value=108, time=29),
    Message('note_off', channel=14, note=64, velocity=0, time=9),
    Message('control_change', channel=14, control=7, value=109, time=20),
    Message('control_change', channel=14, control=7, value=110, time=28),
    Message('note_on', channel=14, note=62, velocity=92, time=1),
    Message('control_change', channel=14, control=7, value=111, time=9),
    Message('control_change', channel=14, control=7, value=112, time=10),
    Message('note_off', channel=14, note=62, velocity=0, time=5),
    Message('note_on', channel=14, note=60, velocity=96, time=0),
    Message('control_change', channel=14, control=7, value=113, time=4),
    Message('control_change', channel=14, control=7, value=114, time=10),
    Message('note_off', channel=14, note=60, velocity=0, time=10),
    Message('control_change', channel=14, control=7, value=115, time=0),
    Message('note_on', channel=14, note=59, velocity=100, time=0),
    Message('control_change', channel=14, control=7, value=116, time=9),
    Message('control_change', channel=14, control=7, value=117, time=10),
    Message('note_off', channel=14, note=59, velocity=0, time=5),
    Message('note_on', channel=14, note=58, velocity=104, time=0),
    Message('control_change', channel=14, control=7, value=118, time=4),
    Message('control_change', channel=14, control=7, value=119, time=10),
    Message('note_off', channel=14, note=58, velocity=0, time=10),
    Message('control_change', channel=14, control=7, value=120, time=0),
    Message('note_on', channel=14, note=57, velocity=108, time=0),
    Message('note_off', channel=14, note=57, velocity=0, time=47),
    Message('control_change', channel=14, control=7, value=100, time=145),
    Message('note_on', channel=14, note=52, velocity=75, time=0),
    Message('control_change', channel=14, control=7, value=101, time=19),
    Message('control_change', channel=14, control=7, value=102, time=19),
    Message('control_change', channel=14, control=7, value=103, time=19),
    Message('control_change', channel=14, control=7, value=104, time=19),
    Message('control_change', channel=14, control=7, value=105, time=20),
    Message('control_change', channel=14, control=7, value=106, time=19),
    Message('control_change', channel=14, control=7, value=107, time=19),
    Message('control_change', channel=14, control=7, value=108, time=19),
    Message('note_off', channel=14, note=52, velocity=0, time=15),
    Message('control_change', channel=14, control=7, value=109, time=4),
    Message('control_change', channel=14, control=7, value=110, time=20),
    Message('note_on', channel=14, note=64, velocity=92, time=0),
    Message('note_on', channel=14, note=60, velocity=92, time=0),
    Message('note_off', channel=14, note=64, velocity=0, time=16),
    Message('note_off', channel=14, note=60, velocity=0, time=0),
    Message('note_on', channel=14, note=64, velocity=92, time=32),
    Message('note_on', channel=14, note=60, velocity=92, time=0),
    Message('note_off', channel=14, note=64, velocity=0, time=16),
    Message('note_off', channel=14, note=60, velocity=0, time=0),
    Message('note_on', channel=14, note=64, velocity=92, time=32),
    Message('note_on', channel=14, note=60, velocity=92, time=0),
    Message('note_off', channel=14, note=64, velocity=0, time=16),
    Message('note_off', channel=14, note=60, velocity=0, time=0),
    Message('note_on', channel=14, note=64, velocity=92, time=32),
    Message('note_on', channel=14, note=60, velocity=92, time=0),
    Message('note_off', channel=14, note=64, velocity=0, time=16),
    Message('note_off', channel=14, note=60, velocity=0, time=0),
    Message('note_on', channel=14, note=64, velocity=92, time=32),
    Message('note_on', channel=14, note=60, velocity=92, time=0),
    Message('note_off', channel=14, note=64, velocity=0, time=16),
    Message('note_off', channel=14, note=60, velocity=0, time=0),
    Message('note_on', channel=14, note=64, velocity=92, time=32),
    Message('note_on', channel=14, note=60, velocity=92, time=0),
    Message('note_off', channel=14, note=64, velocity=0, time=16),
    Message('note_off', channel=14, note=60, velocity=0, time=0),
    Message('note_on', channel=14, note=63, velocity=92, time=32),
    Message('note_on', channel=14, note=59, velocity=92, time=0),
    Message('note_off', channel=14, note=63, velocity=0, time=16),
    Message('note_off', channel=14, note=59, velocity=0, time=0),
    Message('note_on', channel=14, note=64, velocity=92, time=32),
    Message('note_on', channel=14, note=60, velocity=92, time=0),
    Message('note_off', channel=14, note=64, velocity=0, time=16),
    Message('note_off', channel=14, note=60, velocity=0, time=0),
    Message('note_on', channel=14, note=65, velocity=92, time=32),
    Message('note_on', channel=14, note=61, velocity=92, time=0),
    Message('note_off', channel=14, note=65, velocity=0, time=16),
    Message('note_off', channel=14, note=61, velocity=0, time=0),
    Message('note_on', channel=14, note=65, velocity=92, time=32),
    Message('note_on', channel=14, note=61, velocity=92, time=0),
    Message('note_off', channel=14, note=65, velocity=0, time=16),
    Message('note_off', channel=14, note=61, velocity=0, time=0),
    Message('note_on', channel=14, note=64, velocity=92, time=32),
    Message('note_on', channel=14, note=60, velocity=92, time=0),
    Message('note_off', channel=14, note=64, velocity=0, time=16),
    Message('note_off', channel=14, note=60, velocity=0, time=0),
    Message('note_on', channel=14, note=63, velocity=92, time=32),
    Message('note_on', channel=14, note=59, velocity=92, time=0),
    Message('note_off', channel=14, note=63, velocity=0, time=16),
    Message('note_off', channel=14, note=59, velocity=0, time=0),
    Message('note_on', channel=14, note=64, velocity=92, time=32),
    Message('note_on', channel=14, note=60, velocity=92, time=0),
    Message('note_off', channel=14, note=64, velocity=0, time=16),
    Message('note_off', channel=14, note=60, velocity=0, time=0),
    Message('note_on', channel=14, note=64, velocity=92, time=32),
    Message('note_on', channel=14, note=60, velocity=92, time=0),
    Message('note_off', channel=14, note=64, velocity=0, time=16),
    Message('note_off', channel=14, note=60, velocity=0, time=0),
    Message('note_on', channel=14, note=60, velocity=92, time=32),
    Message('note_on', channel=14, note=57, velocity=92, time=0),
    Message('note_off', channel=14, note=60, velocity=0, time=16),
    Message('note_off', channel=14, note=57, velocity=0, time=0),
    Message('note_on', channel=14, note=60, velocity=92, time=32),
    Message('note_on', channel=14, note=57, velocity=92, time=0),
    Message('note_off', channel=14, note=60, velocity=0, time=16),
    Message('note_off', channel=14, note=57, velocity=0, time=0),
    Message('note_on', channel=14, note=69, velocity=92, time=32),
    Message('note_on', channel=14, note=65, velocity=92, time=0),
    Message('note_off', channel=14, note=69, velocity=0, time=16),
    Message('note_off', channel=14, note=65, velocity=0, time=0),
    Message('note_on', channel=14, note=69, velocity=92, time=32),
    Message('note_on', channel=14, note=65, velocity=92, time=0),
    Message('note_off', channel=14, note=69, velocity=0, time=16),
    Message('note_off', channel=14, note=65, velocity=0, time=0),
    Message('note_on', channel=14, note=69, velocity=92, time=32),
    Message('note_on', channel=14, note=65, velocity=92, time=0),
    Message('note_off', channel=14, note=69, velocity=0, time=16),
    Message('note_off', channel=14, note=65, velocity=0, time=0),
    Message('note_on', channel=14, note=68, velocity=92, time=32),
    Message('note_on', channel=14, note=64, velocity=92, time=0),
    Message('note_off', channel=14, note=68, velocity=0, time=16),
    Message('note_off', channel=14, note=64, velocity=0, time=0),
    Message('note_on', channel=14, note=69, velocity=92, time=32),
    Message('note_on', channel=14, note=65, velocity=92, time=0),
    Message('note_off', channel=14, note=69, velocity=0, time=16),
    Message('note_off', channel=14, note=65, velocity=0, time=0),
    Message('note_on', channel=14, note=69, velocity=92, time=32),
    Message('note_on', channel=14, note=65, velocity=92, time=0),
    Message('note_off', channel=14, note=69, velocity=0, time=16),
    Message('note_off', channel=14, note=65, velocity=0, time=0),
    Message('note_on', channel=14, note=65, velocity=92, time=32),
    Message('note_on', channel=14, note=62, velocity=92, time=0),
    Message('note_off', channel=14, note=65, velocity=0, time=16),
    Message('note_off', channel=14, note=62, velocity=0, time=0),
    Message('note_on', channel=14, note=65, velocity=92, time=32),
    Message('note_on', channel=14, note=62, velocity=92, time=0),
    Message('note_off', channel=14, note=65, velocity=0, time=16),
    Message('note_off', channel=14, note=62, velocity=0, time=0),
    Message('note_on', channel=14, note=64, velocity=92, time=32),
    Message('note_on', channel=14, note=60, velocity=92, time=0),
    Message('note_off', channel=14, note=64, velocity=0, time=16),
    Message('note_off', channel=14, note=60, velocity=0, time=0),
    Message('note_on', channel=14, note=64, velocity=92, time=32),
    Message('note_on', channel=14, note=60, velocity=92, time=0),
    Message('note_off', channel=14, note=64, velocity=0, time=16),
    Message('note_off', channel=14, note=60, velocity=0, time=0),
    Message('note_on', channel=14, note=69, velocity=92, time=32),
    Message('note_on', channel=14, note=64, velocity=92, time=0),
    Message('note_off', channel=14, note=69, velocity=0, time=16),
    Message('note_off', channel=14, note=64, velocity=0, time=0),
    Message('note_on', channel=14, note=72, velocity=92, time=32),
    Message('note_on', channel=14, note=69, velocity=92, time=0),
    Message('note_off', channel=14, note=72, velocity=0, time=16),
    Message('note_off', channel=14, note=69, velocity=0, time=0),
    Message('note_on', channel=14, note=75, velocity=92, time=32),
    Message('note_on', channel=14, note=71, velocity=92, time=0),
    Message('note_off', channel=14, note=75, velocity=0, time=168),
    Message('note_off', channel=14, note=71, velocity=0, time=0),
    Message('note_on', channel=14, note=64, velocity=92, time=24),
    Message('note_on', channel=14, note=60, velocity=92, time=0),
    Message('note_off', channel=14, note=64, velocity=0, time=16),
    Message('note_off', channel=14, note=60, velocity=0, time=0),
    Message('note_on', channel=14, note=64, velocity=92, time=32),
    Message('note_on', channel=14, note=60, velocity=92, time=0),
    Message('note_off', channel=14, note=64, velocity=0, time=16),
    Message('note_off', channel=14, note=60, velocity=0, time=0),
    Message('note_on', channel=14, note=64, velocity=92, time=32),
    Message('note_on', channel=14, note=60, velocity=92, time=0),
    Message('note_off', channel=14, note=64, velocity=0, time=16),
    Message('note_off', channel=14, note=60, velocity=0, time=0),
    Message('note_on', channel=14, note=64, velocity=92, time=32),
    Message('note_on', channel=14, note=60, velocity=92, time=0),
    Message('note_off', channel=14, note=64, velocity=0, time=16),
    Message('note_off', channel=14, note=60, velocity=0, time=0),
    Message('note_on', channel=14, note=64, velocity=92, time=32),
    Message('note_on', channel=14, note=60, velocity=92, time=0),
    Message('note_off', channel=14, note=64, velocity=0, time=16),
    Message('note_off', channel=14, note=60, velocity=0, time=0),
    Message('note_on', channel=14, note=64, velocity=92, time=32),
    Message('note_on', channel=14, note=60, velocity=92, time=0),
    Message('note_off', channel=14, note=64, velocity=0, time=16),
    Message('note_off', channel=14, note=60, velocity=0, time=0),
    Message('note_on', channel=14, note=63, velocity=92, time=32),
    Message('note_on', channel=14, note=59, velocity=92, time=0),
    Message('note_off', channel=14, note=63, velocity=0, time=16),
    Message('note_off', channel=14, note=59, velocity=0, time=0),
    Message('note_on', channel=14, note=64, velocity=92, time=32),
    Message('note_on', channel=14, note=60, velocity=92, time=0),
    Message('note_off', channel=14, note=64, velocity=0, time=16),
    Message('note_off', channel=14, note=60, velocity=0, time=0),
    Message('note_on', channel=14, note=67, velocity=92, time=32),
    Message('note_on', channel=14, note=63, velocity=92, time=0),
    Message('note_off', channel=14, note=67, velocity=0, time=16),
    Message('note_off', channel=14, note=63, velocity=0, time=0),
    Message('note_on', channel=14, note=67, velocity=92, time=32),
    Message('note_on', channel=14, note=63, velocity=92, time=0),
    Message('note_off', channel=14, note=67, velocity=0, time=16),
    Message('note_off', channel=14, note=63, velocity=0, time=0),
    Message('note_on', channel=14, note=65, velocity=92, time=32),
    Message('note_on', channel=14, note=61, velocity=92, time=0),
    Message('note_off', channel=14, note=65, velocity=0, time=16),
    Message('note_off', channel=14, note=61, velocity=0, time=0),
    Message('note_on', channel=14, note=64, velocity=92, time=32),
    Message('note_on', channel=14, note=60, velocity=92, time=0),
    Message('note_off', channel=14, note=64, velocity=0, time=16),
    Message('note_off', channel=14, note=60, velocity=0, time=0),
    Message('note_on', channel=14, note=65, velocity=92, time=32),
    Message('note_on', channel=14, note=61, velocity=92, time=0),
    Message('note_off', channel=14, note=65, velocity=0, time=16),
    Message('note_off', channel=14, note=61, velocity=0, time=0),
    Message('note_on', channel=14, note=65, velocity=92, time=32),
    Message('note_on', channel=14, note=61, velocity=92, time=0),
    Message('note_off', channel=14, note=65, velocity=0, time=16),
    Message('note_off', channel=14, note=61, velocity=0, time=0),
    Message('note_on', channel=14, note=58, velocity=92, time=32),
    Message('note_on', channel=14, note=53, velocity=92, time=0),
    Message('note_off', channel=14, note=58, velocity=0, time=16),
    Message('note_off', channel=14, note=53, velocity=0, time=0),
    Message('note_on', channel=14, note=58, velocity=92, time=32),
    Message('note_on', channel=14, note=53, velocity=92, time=0),
    Message('note_off', channel=14, note=58, velocity=0, time=16),
    Message('note_off', channel=14, note=53, velocity=0, time=0),
    Message('note_on', channel=14, note=65, velocity=92, time=32),
    Message('note_on', channel=14, note=61, velocity=92, time=0),
    Message('note_off', channel=14, note=65, velocity=0, time=16),
    Message('note_off', channel=14, note=61, velocity=0, time=0),
    Message('note_on', channel=14, note=65, velocity=92, time=32),
    Message('note_on', channel=14, note=61, velocity=92, time=0),
    Message('note_off', channel=14, note=65, velocity=0, time=16),
    Message('note_off', channel=14, note=61, velocity=0, time=0),
    Message('note_on', channel=14, note=64, velocity=92, time=32),
    Message('note_on', channel=14, note=60, velocity=92, time=0),
    Message('note_off', channel=14, note=64, velocity=0, time=16),
    Message('note_off', channel=14, note=60, velocity=0, time=0),
    Message('note_on', channel=14, note=63, velocity=92, time=32),
    Message('note_on', channel=14, note=59, velocity=92, time=0),
    Message('note_off', channel=14, note=63, velocity=0, time=16),
    Message('note_off', channel=14, note=59, velocity=0, time=0),
    Message('note_on', channel=14, note=64, velocity=92, time=32),
    Message('note_on', channel=14, note=60, velocity=92, time=0),
    Message('note_off', channel=14, note=64, velocity=0, time=16),
    Message('note_off', channel=14, note=60, velocity=0, time=0),
    Message('note_on', channel=14, note=64, velocity=92, time=32),
    Message('note_on', channel=14, note=60, velocity=92, time=0),
    Message('note_off', channel=14, note=64, velocity=0, time=16),
    Message('note_off', channel=14, note=60, velocity=0, time=0),
    Message('note_on', channel=14, note=57, velocity=92, time=32),
    Message('note_on', channel=14, note=52, velocity=92, time=0),
    Message('note_off', channel=14, note=57, velocity=0, time=16),
    Message('note_off', channel=14, note=52, velocity=0, time=0),
    Message('note_on', channel=14, note=57, velocity=92, time=32),
    Message('note_on', channel=14, note=52, velocity=92, time=0),
    Message('note_off', channel=14, note=57, velocity=0, time=16),
    Message('note_off', channel=14, note=52, velocity=0, time=0),
    Message('note_on', channel=14, note=60, velocity=92, time=32),
    Message('note_on', channel=14, note=56, velocity=92, time=0),
    Message('note_off', channel=14, note=60, velocity=0, time=168),
    Message('note_off', channel=14, note=56, velocity=0, time=0),
    Message('note_on', channel=14, note=64, velocity=92, time=24),
    Message('note_on', channel=14, note=59, velocity=92, time=0),
    Message('note_off', channel=14, note=64, velocity=0, time=168),
    Message('note_off', channel=14, note=59, velocity=0, time=0),
    Message('note_on', channel=14, note=72, velocity=92, time=24),
    Message('note_on', channel=14, note=68, velocity=92, time=0),
    Message('note_off', channel=14, note=72, velocity=0, time=168),
    Message('note_off', channel=14, note=68, velocity=0, time=0),
    Message('note_on', channel=14, note=80, velocity=92, time=24),
    Message('note_on', channel=14, note=71, velocity=92, time=0),
    Message('note_off', channel=14, note=80, velocity=0, time=168),
    Message('note_off', channel=14, note=71, velocity=0, time=0),
    Message('control_change', channel=14, control=7, value=100, time=24),
    Message('note_on', channel=14, note=60, velocity=75, time=0),
    Message('note_off', channel=14, note=60, velocity=0, time=32),
    Message('note_on', channel=14, note=59, velocity=75, time=0),
    Message('note_off', channel=14, note=59, velocity=0, time=32),
    Message('note_on', channel=14, note=60, velocity=75, time=0),
    Message('note_off', channel=14, note=60, velocity=0, time=32),
    Message('note_on', channel=14, note=62, velocity=75, time=0),
    Message('note_off', channel=14, note=62, velocity=0, time=32),
    Message('note_on', channel=14, note=60, velocity=75, time=0),
    Message('note_off', channel=14, note=60, velocity=0, time=32),
    Message('note_on', channel=14, note=59, velocity=75, time=0),
    Message('note_off', channel=14, note=59, velocity=0, time=31),
    Message('note_on', channel=14, note=60, velocity=75, time=1),
    Message('note_off', channel=14, note=60, velocity=0, time=32),
    Message('note_on', channel=14, note=59, velocity=75, time=0),
    Message('note_off', channel=14, note=59, velocity=0, time=32),
    Message('note_on', channel=14, note=57, velocity=75, time=0),
    Message('note_off', channel=14, note=57, velocity=0, time=32),
    Message('note_on', channel=14, note=59, velocity=75, time=0),
    Message('note_off', channel=14, note=59, velocity=0, time=32),
    Message('note_on', channel=14, note=57, velocity=75, time=0),
    Message('note_off', channel=14, note=57, velocity=0, time=32),
    Message('note_on', channel=14, note=56, velocity=75, time=0),
    Message('note_off', channel=14, note=56, velocity=0, time=31),
    Message('note_on', channel=14, note=60, velocity=75, time=1),
    Message('note_off', channel=14, note=60, velocity=0, time=32),
    Message('note_on', channel=14, note=59, velocity=75, time=0),
    Message('note_off', channel=14, note=59, velocity=0, time=32),
    Message('note_on', channel=14, note=60, velocity=75, time=0),
    Message('note_off', channel=14, note=60, velocity=0, time=32),
    Message('note_on', channel=14, note=62, velocity=75, time=0),
    Message('note_off', channel=14, note=62, velocity=0, time=32),
    Message('note_on', channel=14, note=60, velocity=75, time=0),
    Message('note_off', channel=14, note=60, velocity=0, time=32),
    Message('note_on', channel=14, note=59, velocity=75, time=0),
    Message('note_off', channel=14, note=59, velocity=0, time=31),
    Message('note_on', channel=14, note=60, velocity=75, time=1),
    Message('note_off', channel=14, note=60, velocity=0, time=32),
    Message('note_on', channel=14, note=59, velocity=75, time=0),
    Message('note_off', channel=14, note=59, velocity=0, time=32),
    Message('note_on', channel=14, note=57, velocity=75, time=0),
    Message('note_off', channel=14, note=57, velocity=0, time=32),
    Message('note_on', channel=14, note=56, velocity=75, time=0),
    Message('note_off', channel=14, note=56, velocity=0, time=32),
    Message('note_on', channel=14, note=57, velocity=75, time=0),
    Message('note_off', channel=14, note=57, velocity=0, time=32),
    Message('note_on', channel=14, note=59, velocity=75, time=0),
    Message('note_off', channel=14, note=59, velocity=0, time=31),
    Message('note_on', channel=14, note=60, velocity=75, time=1),
    Message('note_off', channel=14, note=60, velocity=0, time=32),
    Message('note_on', channel=14, note=59, velocity=75, time=0),
    Message('note_off', channel=14, note=59, velocity=0, time=32),
    Message('note_on', channel=14, note=57, velocity=75, time=0),
    Message('note_off', channel=14, note=57, velocity=0, time=32),
    Message('note_on', channel=14, note=56, velocity=75, time=0),
    Message('note_off', channel=14, note=56, velocity=0, time=32),
    Message('note_on', channel=14, note=57, velocity=75, time=0),
    Message('note_off', channel=14, note=57, velocity=0, time=32),
    Message('note_on', channel=14, note=59, velocity=75, time=0),
    Message('note_off', channel=14, note=59, velocity=0, time=31),
    Message('note_on', channel=14, note=57, velocity=75, time=1),
    Message('note_off', channel=14, note=57, velocity=0, time=32),
    Message('note_on', channel=14, note=59, velocity=75, time=0),
    Message('note_off', channel=14, note=59, velocity=0, time=32),
    Message('note_on', channel=14, note=60, velocity=75, time=0),
    Message('note_off', channel=14, note=60, velocity=0, time=32),
    Message('note_on', channel=14, note=59, velocity=75, time=0),
    Message('note_off', channel=14, note=59, velocity=0, time=32),
    Message('note_on', channel=14, note=60, velocity=75, time=0),
    Message('note_off', channel=14, note=60, velocity=0, time=32),
    Message('note_on', channel=14, note=62, velocity=75, time=0),
    Message('note_off', channel=14, note=62, velocity=0, time=31),
    Message('note_on', channel=14, note=60, velocity=75, time=1),
    Message('note_off', channel=14, note=60, velocity=0, time=32),
    Message('note_on', channel=14, note=59, velocity=75, time=0),
    Message('note_off', channel=14, note=59, velocity=0, time=32),
    Message('note_on', channel=14, note=57, velocity=75, time=0),
    Message('note_off', channel=14, note=57, velocity=0, time=32),
    Message('note_on', channel=14, note=56, velocity=75, time=0),
    Message('note_off', channel=14, note=56, velocity=0, time=32),
    Message('note_on', channel=14, note=57, velocity=75, time=0),
    Message('note_off', channel=14, note=57, velocity=0, time=32),
    Message('note_on', channel=14, note=60, velocity=75, time=0),
    Message('note_off', channel=14, note=60, velocity=0, time=31),
    Message('note_on', channel=14, note=64, velocity=75, time=1),
    Message('note_off', channel=14, note=64, velocity=0, time=32),
    Message('note_on', channel=14, note=62, velocity=75, time=0),
    Message('note_off', channel=14, note=62, velocity=0, time=32),
    Message('note_on', channel=14, note=60, velocity=75, time=0),
    Message('note_off', channel=14, note=60, velocity=0, time=32),
    Message('note_on', channel=14, note=59, velocity=75, time=0),
    Message('note_off', channel=14, note=59, velocity=0, time=32),
    Message('note_on', channel=14, note=60, velocity=75, time=0),
    Message('note_off', channel=14, note=60, velocity=0, time=32),
    Message('note_on', channel=14, note=62, velocity=75, time=0),
    Message('note_off', channel=14, note=62, velocity=0, time=31),
    Message('note_on', channel=14, note=60, velocity=75, time=1),
    Message('note_off', channel=14, note=60, velocity=0, time=32),
    Message('note_on', channel=14, note=59, velocity=75, time=0),
    Message('note_off', channel=14, note=59, velocity=0, time=32),
    Message('note_on', channel=14, note=57, velocity=75, time=0),
    Message('note_off', channel=14, note=57, velocity=0, time=32),
    Message('note_on', channel=14, note=65, velocity=75, time=0),
    Message('note_off', channel=14, note=65, velocity=0, time=32),
    Message('note_on', channel=14, note=64, velocity=75, time=0),
    Message('note_off', channel=14, note=64, velocity=0, time=32),
    Message('note_on', channel=14, note=62, velocity=75, time=0),
    Message('note_off', channel=14, note=62, velocity=0, time=32),
    Message('note_on', channel=14, note=64, velocity=75, time=0),
    Message('note_off', channel=14, note=64, velocity=0, time=32),
    Message('note_on', channel=14, note=62, velocity=75, time=0),
    Message('note_off', channel=14, note=62, velocity=0, time=32),
    Message('note_on', channel=14, note=60, velocity=75, time=0),
    Message('note_off', channel=14, note=60, velocity=0, time=32),
    Message('note_on', channel=14, note=62, velocity=75, time=0),
    Message('note_off', channel=14, note=62, velocity=0, time=32),
    Message('note_on', channel=14, note=60, velocity=75, time=0),
    Message('note_off', channel=14, note=60, velocity=0, time=32),
    Message('note_on', channel=14, note=59, velocity=75, time=0),
    Message('note_off', channel=14, note=59, velocity=0, time=32),
    Message('note_on', channel=14, note=60, velocity=75, time=0),
    Message('note_off', channel=14, note=60, velocity=0, time=32),
    Message('note_on', channel=14, note=59, velocity=75, time=0),
    Message('note_off', channel=14, note=59, velocity=0, time=32),
    Message('note_on', channel=14, note=60, velocity=75, time=0),
    Message('note_off', channel=14, note=60, velocity=0, time=31),
    Message('note_on', channel=14, note=62, velocity=105, time=1),
    Message('note_off', channel=14, note=62, velocity=0, time=32),
    Message('note_on', channel=14, note=60, velocity=75, time=0),
    Message('note_off', channel=14, note=60, velocity=0, time=32),
    Message('note_on', channel=14, note=59, velocity=75, time=0),
    Message('note_off', channel=14, note=59, velocity=0, time=32),
    Message('note_on', channel=14, note=60, velocity=75, time=0),
    Message('note_off', channel=14, note=60, velocity=0, time=32),
    Message('note_on', channel=14, note=59, velocity=75, time=0),
    Message('note_off', channel=14, note=59, velocity=0, time=32),
    Message('note_on', channel=14, note=57, velocity=75, time=0),
    Message('note_off', channel=14, note=57, velocity=0, time=32),
    Message('note_on', channel=14, note=59, velocity=75, time=0),
    Message('note_off', channel=14, note=59, velocity=0, time=32),
    Message('note_on', channel=14, note=57, velocity=75, time=0),
    Message('note_off', channel=14, note=57, velocity=0, time=32),
    Message('note_on', channel=14, note=56, velocity=75, time=0),
    Message('note_off', channel=14, note=56, velocity=0, time=31),
    Message('note_on', channel=14, note=60, velocity=75, time=1),
    Message('note_off', channel=14, note=60, velocity=0, time=32),
    Message('note_on', channel=14, note=59, velocity=75, time=0),
    Message('note_off', channel=14, note=59, velocity=0, time=32),
    Message('note_on', channel=14, note=57, velocity=75, time=0),
    Message('note_off', channel=14, note=57, velocity=0, time=32),
    Message('note_on', channel=14, note=56, velocity=75, time=0),
    Message('note_off', channel=14, note=56, velocity=0, time=32),
    Message('note_on', channel=14, note=57, velocity=75, time=0),
    Message('note_off', channel=14, note=57, velocity=0, time=32),
    Message('note_on', channel=14, note=59, velocity=75, time=0),
    Message('note_off', channel=14, note=59, velocity=0, time=32),
    Message('note_on', channel=14, note=57, velocity=75, time=0),
    Message('note_off', channel=14, note=57, velocity=0, time=32),
    Message('note_on', channel=14, note=59, velocity=75, time=0),
    Message('note_off', channel=14, note=59, velocity=0, time=32),
    Message('note_on', channel=14, note=60, velocity=75, time=0),
    Message('note_off', channel=14, note=60, velocity=0, time=32),
    Message('note_on', channel=14, note=59, velocity=75, time=0),
    Message('note_off', channel=14, note=59, velocity=0, time=32),
    Message('note_on', channel=14, note=60, velocity=75, time=0),
    Message('note_off', channel=14, note=60, velocity=0, time=32),
    Message('note_on', channel=14, note=62, velocity=75, time=0),
    Message('note_off', channel=14, note=62, velocity=0, time=31),
    Message('note_on', channel=14, note=60, velocity=75, time=1),
    Message('note_off', channel=14, note=60, velocity=0, time=32),
    Message('note_on', channel=14, note=59, velocity=75, time=0),
    Message('note_off', channel=14, note=59, velocity=0, time=32),
    Message('note_on', channel=14, note=60, velocity=75, time=0),
    Message('note_off', channel=14, note=60, velocity=0, time=32),
    Message('note_on', channel=14, note=62, velocity=75, time=0),
    Message('note_off', channel=14, note=62, velocity=0, time=32),
    Message('note_on', channel=14, note=60, velocity=75, time=0),
    Message('note_off', channel=14, note=60, velocity=0, time=32),
    Message('note_on', channel=14, note=59, velocity=75, time=0),
    Message('note_off', channel=14, note=59, velocity=0, time=32),
    Message('note_on', channel=14, note=60, velocity=75, time=0),
    Message('note_off', channel=14, note=60, velocity=0, time=32),
    Message('note_on', channel=14, note=62, velocity=75, time=0),
    Message('note_off', channel=14, note=62, velocity=0, time=32),
    Message('note_on', channel=14, note=63, velocity=75, time=0),
    Message('note_off', channel=14, note=63, velocity=0, time=32),
    Message('note_on', channel=14, note=62, velocity=75, time=0),
    Message('note_off', channel=14, note=62, velocity=0, time=32),
    Message('note_on', channel=14, note=63, velocity=75, time=0),
    Message('note_off', channel=14, note=63, velocity=0, time=32),
    Message('note_on', channel=14, note=65, velocity=75, time=0),
    Message('note_off', channel=14, note=65, velocity=0, time=31),
    Message('note_on', channel=14, note=63, velocity=75, time=1),
    Message('note_off', channel=14, note=63, velocity=0, time=32),
    Message('note_on', channel=14, note=62, velocity=75, time=0),
    Message('note_off', channel=14, note=62, velocity=0, time=32),
    Message('note_on', channel=14, note=60, velocity=75, time=0),
    Message('note_off', channel=14, note=60, velocity=0, time=32),
    Message('note_on', channel=14, note=55, velocity=75, time=0),
    Message('note_off', channel=14, note=55, velocity=0, time=32),
    Message('note_on', channel=14, note=60, velocity=75, time=0),
    Message('note_off', channel=14, note=60, velocity=0, time=32),
    Message('note_on', channel=14, note=63, velocity=75, time=0),
    Message('note_off', channel=14, note=63, velocity=0, time=32),
    Message('note_on', channel=14, note=62, velocity=75, time=0),
    Message('note_off', channel=14, note=62, velocity=0, time=32),
    Message('note_on', channel=14, note=60, velocity=75, time=0),
    Message('note_off', channel=14, note=60, velocity=0, time=32),
    Message('note_on', channel=14, note=59, velocity=75, time=0),
    Message('note_off', channel=14, note=59, velocity=0, time=32),
    Message('note_on', channel=14, note=55, velocity=75, time=0),
    Message('note_off', channel=14, note=55, velocity=0, time=32),
    Message('note_on', channel=14, note=59, velocity=75, time=0),
    Message('note_off', channel=14, note=59, velocity=0, time=32),
    Message('note_on', channel=14, note=62, velocity=75, time=0),
    Message('note_off', channel=14, note=62, velocity=0, time=31),
    Message('note_on', channel=14, note=63, velocity=75, time=1),
    Message('note_off', channel=14, note=63, velocity=0, time=32),
    Message('note_on', channel=14, note=62, velocity=75, time=0),
    Message('note_off', channel=14, note=62, velocity=0, time=32),
    Message('note_on', channel=14, note=60, velocity=75, time=0),
    Message('note_off', channel=14, note=60, velocity=0, time=32),
    Message('note_on', channel=14, note=65, velocity=75, time=0),
    Message('note_off', channel=14, note=65, velocity=0, time=32),
    Message('note_on', channel=14, note=63, velocity=75, time=0),
    Message('note_off', channel=14, note=63, velocity=0, time=32),
    Message('note_on', channel=14, note=62, velocity=75, time=0),
    Message('note_off', channel=14, note=62, velocity=0, time=32),
    Message('note_on', channel=14, note=63, velocity=75, time=0),
    Message('note_off', channel=14, note=63, velocity=0, time=32),
    Message('note_on', channel=14, note=62, velocity=75, time=0),
    Message('note_off', channel=14, note=62, velocity=0, time=32),
    Message('note_on', channel=14, note=60, velocity=75, time=0),
    Message('note_off', channel=14, note=60, velocity=0, time=32),
    Message('note_on', channel=14, note=62, velocity=75, time=0),
    Message('note_off', channel=14, note=62, velocity=0, time=32),
    Message('note_on', channel=14, note=60, velocity=75, time=0),
    Message('note_off', channel=14, note=60, velocity=0, time=32),
    Message('note_on', channel=14, note=59, velocity=75, time=0),
    Message('note_off', channel=14, note=59, velocity=0, time=31),
    Message('note_on', channel=14, note=53, velocity=75, time=289),
    Message('note_off', channel=14, note=53, velocity=0, time=16),
    Message('note_on', channel=14, note=55, velocity=75, time=32),
    Message('note_off', channel=14, note=55, velocity=0, time=16),
    Message('note_on', channel=14, note=56, velocity=75, time=32),
    Message('note_off', channel=14, note=56, velocity=0, time=48),
    Message('note_on', channel=14, note=55, velocity=75, time=0),
    Message('note_off', channel=14, note=55, velocity=0, time=47),
    Message('note_on', channel=14, note=53, velocity=75, time=1),
    Message('note_off', channel=14, note=53, velocity=0, time=16),
    Message('note_on', channel=14, note=51, velocity=75, time=32),
    Message('note_off', channel=14, note=51, velocity=0, time=16),
    Message('note_on', channel=14, note=50, velocity=75, time=32),
    Message('note_off', channel=14, note=50, velocity=0, time=48),
    Message('note_on', channel=14, note=48, velocity=75, time=0),
    Message('note_off', channel=14, note=48, velocity=0, time=16),
    Message('note_on', channel=14, note=58, velocity=75, time=416),
    Message('note_off', channel=14, note=58, velocity=0, time=32),
    Message('note_on', channel=14, note=56, velocity=75, time=0),
    Message('note_off', channel=14, note=56, velocity=0, time=32),
    Message('note_on', channel=14, note=55, velocity=75, time=0),
    Message('note_off', channel=14, note=55, velocity=0, time=31),
    Message('note_on', channel=14, note=60, velocity=75, time=1),
    Message('note_off', channel=14, note=60, velocity=0, time=32),
    Message('note_on', channel=14, note=58, velocity=75, time=0),
    Message('note_off', channel=14, note=58, velocity=0, time=32),
    Message('note_on', channel=14, note=56, velocity=75, time=0),
    Message('note_off', channel=14, note=56, velocity=0, time=32),
    Message('note_on', channel=14, note=62, velocity=75, time=0),
    Message('note_off', channel=14, note=62, velocity=0, time=32),
    Message('note_on', channel=14, note=60, velocity=75, time=0),
    Message('note_off', channel=14, note=60, velocity=0, time=32),
    Message('note_on', channel=14, note=59, velocity=75, time=0),
    Message('note_off', channel=14, note=59, velocity=0, time=31),
    Message('note_on', channel=14, note=63, velocity=75, time=1),
    Message('note_off', channel=14, note=63, velocity=0, time=32),
    Message('note_on', channel=14, note=62, velocity=75, time=0),
    Message('note_off', channel=14, note=62, velocity=0, time=32),
    Message('note_on', channel=14, note=60, velocity=75, time=0),
    Message('note_off', channel=14, note=60, velocity=0, time=32),
    Message('note_on', channel=14, note=65, velocity=75, time=0),
    Message('note_off', channel=14, note=65, velocity=0, time=32),
    Message('note_on', channel=14, note=63, velocity=75, time=0),
    Message('note_off', channel=14, note=63, velocity=0, time=32),
    Message('note_on', channel=14, note=62, velocity=75, time=0),
    Message('note_off', channel=14, note=62, velocity=0, time=31),
    Message('note_on', channel=14, note=67, velocity=75, time=1),
    Message('note_off', channel=14, note=67, velocity=0, time=32),
    Message('note_on', channel=14, note=65, velocity=75, time=0),
    Message('note_off', channel=14, note=65, velocity=0, time=32),
    Message('note_on', channel=14, note=63, velocity=75, time=0),
    Message('note_off', channel=14, note=63, velocity=0, time=32),
    Message('note_on', channel=14, note=68, velocity=75, time=0),
    Message('note_off', channel=14, note=68, velocity=0, time=32),
    Message('note_on', channel=14, note=67, velocity=75, time=0),
    Message('note_off', channel=14, note=67, velocity=0, time=32),
    Message('note_on', channel=14, note=65, velocity=75, time=0),
    Message('note_off', channel=14, note=65, velocity=0, time=31),
    Message('note_on', channel=14, note=70, velocity=75, time=1),
    Message('note_off', channel=14, note=70, velocity=0, time=32),
    Message('note_on', channel=14, note=68, velocity=75, time=0),
    Message('note_off', channel=14, note=68, velocity=0, time=32),
    Message('note_on', channel=14, note=67, velocity=75, time=0),
    Message('note_off', channel=14, note=67, velocity=0, time=32),
    Message('note_on', channel=14, note=72, velocity=75, time=0),
    Message('note_off', channel=14, note=72, velocity=0, time=32),
    Message('note_on', channel=14, note=70, velocity=75, time=0),
    Message('note_off', channel=14, note=70, velocity=0, time=32),
    Message('note_on', channel=14, note=68, velocity=75, time=0),
    Message('note_off', channel=14, note=68, velocity=0, time=31),
    Message('note_on', channel=14, note=74, velocity=75, time=1),
    Message('note_off', channel=14, note=74, velocity=0, time=32),
    Message('note_on', channel=14, note=72, velocity=75, time=0),
    Message('note_off', channel=14, note=72, velocity=0, time=32),
    Message('note_on', channel=14, note=71, velocity=75, time=0),
    Message('note_off', channel=14, note=71, velocity=0, time=31),
    Message('note_on', channel=14, note=75, velocity=75, time=1),
    Message('note_off', channel=14, note=75, velocity=0, time=32),
    Message('note_on', channel=14, note=74, velocity=75, time=0),
    Message('note_off', channel=14, note=74, velocity=0, time=32),
    Message('note_on', channel=14, note=72, velocity=75, time=0),
    Message('note_off', channel=14, note=72, velocity=0, time=32),
    Message('note_on', channel=14, note=74, velocity=75, time=0),
    Message('note_off', channel=14, note=74, velocity=0, time=32),
    Message('note_on', channel=14, note=72, velocity=75, time=0),
    Message('note_off', channel=14, note=72, velocity=0, time=31),
    Message('note_on', channel=14, note=77, velocity=105, time=1),
    Message('note_off', channel=14, note=77, velocity=0, time=32),
    Message('note_on', channel=14, note=75, velocity=75, time=0),
    Message('note_off', channel=14, note=75, velocity=0, time=32),
    Message('note_on', channel=14, note=74, velocity=75, time=0),
    Message('note_off', channel=14, note=74, velocity=0, time=32),
    Message('note_on', channel=14, note=72, velocity=75, time=0),
    Message('note_off', channel=14, note=72, velocity=0, time=31),
    Message('note_on', channel=14, note=74, velocity=75, time=1),
    Message('note_off', channel=14, note=74, velocity=0, time=32),
    Message('note_on', channel=14, note=67, velocity=76, time=0),
    Message('control_change', channel=14, control=7, value=101, time=6),
    Message('note_off', channel=14, note=67, velocity=0, time=26),
    Message('note_on', channel=14, note=75, velocity=77, time=0),
    Message('control_change', channel=14, control=7, value=102, time=12),
    Message('note_off', channel=14, note=75, velocity=0, time=20),
    Message('note_on', channel=14, note=74, velocity=78, time=0),
    Message('control_change', channel=14, control=7, value=103, time=19),
    Message('note_off', channel=14, note=74, velocity=0, time=13),
    Message('note_on', channel=14, note=72, velocity=79, time=0),
    Message('control_change', channel=14, control=7, value=104, time=25),
    Message('note_off', channel=14, note=72, velocity=0, time=7),
    Message('note_on', channel=14, note=71, velocity=80, time=0),
    Message('note_off', channel=14, note=71, velocity=0, time=31),
    Message('control_change', channel=14, control=7, value=105, time=1),
    Message('note_on', channel=14, note=75, velocity=81, time=0),
    Message('note_off', channel=14, note=75, velocity=0, time=32),
    Message('note_on', channel=14, note=74, velocity=82, time=0),
    Message('control_change', channel=14, control=7, value=106, time=6),
    Message('note_off', channel=14, note=74, velocity=0, time=15),
    Message('note_on', channel=14, note=79, velocity=84, time=11),
    Message('control_change', channel=14, control=7, value=107, time=12),
    Message('note_off', channel=14, note=79, velocity=0, time=20),
    Message('note_on', channel=14, note=77, velocity=86, time=0),
    Message('control_change', channel=14, control=7, value=108, time=19),
    Message('note_off', channel=14, note=77, velocity=0, time=2),
    Message('note_on', channel=14, note=75, velocity=88, time=11),
    Message('note_off', channel=14, note=75, velocity=0, time=21),
    Message('control_change', channel=14, control=7, value=109, time=4),
    Message('note_on', channel=14, note=74, velocity=90, time=7),
    Message('note_off', channel=14, note=74, velocity=0, time=21),
    Message('control_change', channel=14, control=7, value=110, time=11),
    Message('note_on', channel=14, note=72, velocity=92, time=0),
    Message('note_off', channel=14, note=72, velocity=0, time=47),
    Message('note_on', channel=14, note=73, velocity=127, time=337),
    Message('note_off', channel=14, note=73, velocity=0, time=96),
    Message('note_on', channel=14, note=72, velocity=92, time=0),
    Message('note_off', channel=14, note=72, velocity=0, time=16),
    Message('note_on', channel=14, note=71, velocity=92, time=32),
    Message('note_off', channel=14, note=71, velocity=0, time=16),
    Message('note_on', channel=14, note=72, velocity=92, time=32),
    Message('note_off', channel=14, note=72, velocity=0, time=24),
    Message('note_on', channel=14, note=67, velocity=92, time=72),
    Message('note_off', channel=14, note=67, velocity=0, time=24),
    Message('note_on', channel=14, note=60, velocity=92, time=456),
    Message('note_off', channel=14, note=60, velocity=0, time=16),
    Message('note_on', channel=14, note=63, velocity=92, time=80),
    Message('note_off', channel=14, note=63, velocity=0, time=16),
    Message('note_on', channel=14, note=67, velocity=92, time=32),
    Message('note_off', channel=14, note=67, velocity=0, time=16),
    Message('note_on', channel=14, note=71, velocity=92, time=32),
    Message('note_off', channel=14, note=71, velocity=0, time=168),
    Message('program_change', channel=14, program=45, time=24),
    Message('note_on', channel=14, note=55, velocity=92, time=192),
    Message('note_off', channel=14, note=55, velocity=0, time=47),
    Message('note_on', channel=14, note=58, velocity=92, time=1),
    Message('note_off', channel=14, note=58, velocity=0, time=47),
    Message('note_on', channel=14, note=61, velocity=92, time=1),
    Message('note_off', channel=14, note=61, velocity=0, time=47),
    Message('note_on', channel=14, note=62, velocity=92, time=1),
    Message('note_off', channel=14, note=62, velocity=0, time=47),
    Message('note_on', channel=14, note=65, velocity=92, time=1),
    Message('note_off', channel=14, note=65, velocity=0, time=47),
    Message('note_on', channel=14, note=58, velocity=92, time=1),
    Message('note_off', channel=14, note=58, velocity=0, time=47),
    Message('note_on', channel=14, note=63, velocity=92, time=1),
    Message('note_off', channel=14, note=63, velocity=0, time=47),
    Message('note_on', channel=14, note=62, velocity=92, time=1),
    Message('note_off', channel=14, note=62, velocity=0, time=47),
    Message('note_on', channel=14, note=63, velocity=92, time=1),
    Message('note_off', channel=14, note=63, velocity=0, time=47),
    Message('note_on', channel=14, note=56, velocity=92, time=1),
    Message('note_off', channel=14, note=56, velocity=0, time=47),
    Message('note_on', channel=14, note=59, velocity=92, time=1),
    Message('note_off', channel=14, note=59, velocity=0, time=47),
    Message('note_on', channel=14, note=51, velocity=92, time=1),
    Message('note_off', channel=14, note=51, velocity=0, time=47),
    Message('note_on', channel=14, note=56, velocity=92, time=1),
    Message('note_off', channel=14, note=56, velocity=0, time=47),
    Message('note_on', channel=14, note=51, velocity=92, time=1),
    Message('note_off', channel=14, note=51, velocity=0, time=47),
    Message('note_on', channel=14, note=59, velocity=92, time=49),
    Message('note_off', channel=14, note=59, velocity=0, time=47),
    Message('note_on', channel=14, note=55, velocity=92, time=1),
    Message('note_off', channel=14, note=55, velocity=0, time=47),
    Message('note_on', channel=14, note=58, velocity=92, time=1),
    Message('note_off', channel=14, note=58, velocity=0, time=47),
    Message('note_on', channel=14, note=62, velocity=92, time=1),
    Message('note_off', channel=14, note=62, velocity=0, time=47),
    Message('note_on', channel=14, note=67, velocity=92, time=1),
    Message('note_off', channel=14, note=67, velocity=0, time=47),
    Message('note_on', channel=14, note=70, velocity=92, time=1),
    Message('note_off', channel=14, note=70, velocity=0, time=47),
    Message('note_on', channel=14, note=74, velocity=92, time=1),
    Message('note_off', channel=14, note=74, velocity=0, time=47),
    Message('note_on', channel=14, note=69, velocity=92, time=97),
    Message('note_off', channel=14, note=69, velocity=0, time=47),
    Message('note_on', channel=14, note=74, velocity=92, time=1),
    Message('note_off', channel=14, note=74, velocity=0, time=47),
    Message('program_change', channel=14, program=41, time=97),
    Message('control_change', channel=14, control=7, value=100, time=0),
    Message('note_on', channel=14, note=55, velocity=75, time=0),
    Message('note_off', channel=14, note=55, velocity=0, time=31),
    Message('note_on', channel=14, note=53, velocity=75, time=1),
    Message('note_off', channel=14, note=53, velocity=0, time=31),
    Message('note_on', channel=14, note=55, velocity=75, time=1),
    Message('note_off', channel=14, note=55, velocity=0, time=31),
    Message('note_on', channel=14, note=57, velocity=75, time=1),
    Message('note_off', channel=14, note=57, velocity=0, time=31),
    Message('note_on', channel=14, note=55, velocity=75, time=1),
    Message('note_off', channel=14, note=55, velocity=0, time=31),
    Message('note_on', channel=14, note=57, velocity=75, time=1),
    Message('note_off', channel=14, note=57, velocity=0, time=31),
    Message('note_on', channel=14, note=58, velocity=75, time=1),
    Message('note_off', channel=14, note=58, velocity=0, time=31),
    Message('note_on', channel=14, note=57, velocity=75, time=1),
    Message('note_off', channel=14, note=57, velocity=0, time=31),
    Message('note_on', channel=14, note=58, velocity=75, time=1),
    Message('note_off', channel=14, note=58, velocity=0, time=31),
    Message('note_on', channel=14, note=60, velocity=75, time=1),
    Message('note_off', channel=14, note=60, velocity=0, time=31),
    Message('note_on', channel=14, note=58, velocity=75, time=1),
    Message('note_off', channel=14, note=58, velocity=0, time=31),
    Message('note_on', channel=14, note=60, velocity=75, time=1),
    Message('note_off', channel=14, note=60, velocity=0, time=31),
    Message('note_on', channel=14, note=62, velocity=75, time=1),
    Message('note_off', channel=14, note=62, velocity=0, time=31),
    Message('note_on', channel=14, note=60, velocity=76, time=1),
    Message('control_change', channel=14, control=7, value=101, time=6),
    Message('note_off', channel=14, note=60, velocity=0, time=25),
    Message('note_on', channel=14, note=62, velocity=77, time=1),
    Message('control_change', channel=14, control=7, value=102, time=12),
    Message('note_off', channel=14, note=62, velocity=0, time=19),
    Message('note_on', channel=14, note=63, velocity=78, time=1),
    Message('control_change', channel=14, control=7, value=103, time=19),
    Message('note_off', channel=14, note=63, velocity=0, time=12),
    Message('note_on', channel=14, note=62, velocity=79, time=1),
    Message('control_change', channel=14, control=7, value=104, time=25),
    Message('note_off', channel=14, note=62, velocity=0, time=6),
    Message('note_on', channel=14, note=63, velocity=80, time=1),
    Message('note_off', channel=14, note=63, velocity=0, time=31),
    Message('control_change', channel=14, control=7, value=105, time=1),
    Message('note_on', channel=14, note=65, velocity=81, time=0),
    Message('note_off', channel=14, note=65, velocity=0, time=31),
    Message('note_on', channel=14, note=63, velocity=82, time=1),
    Message('control_change', channel=14, control=7, value=106, time=6),
    Message('note_off', channel=14, note=63, velocity=0, time=25),
    Message('note_on', channel=14, note=65, velocity=84, time=1),
    Message('control_change', channel=14, control=7, value=107, time=12),
    Message('note_off', channel=14, note=65, velocity=0, time=19),
    Message('note_on', channel=14, note=67, velocity=86, time=1),
    Message('control_change', channel=14, control=7, value=108, time=19),
    Message('note_off', channel=14, note=67, velocity=0, time=12),
    Message('note_on', channel=14, note=65, velocity=88, time=1),
    Message('control_change', channel=14, control=7, value=109, time=25),
    Message('note_off', channel=14, note=65, velocity=0, time=6),
    Message('note_on', channel=14, note=67, velocity=90, time=1),
    Message('note_off', channel=14, note=67, velocity=0, time=31),
    Message('control_change', channel=14, control=7, value=110, time=1),
    Message('note_on', channel=14, note=69, velocity=92, time=0),
    Message('note_off', channel=14, note=69, velocity=0, time=96),
    Message('note_on', channel=14, note=68, velocity=92, time=0),
    Message('note_off', channel=14, note=68, velocity=0, time=48),
    Message('note_on', channel=14, note=69, velocity=92, time=0),
    Message('note_off', channel=14, note=69, velocity=0, time=47),
    Message('note_on', channel=14, note=71, velocity=92, time=1),
    Message('note_off', channel=14, note=71, velocity=0, time=96),
    Message('note_on', channel=14, note=69, velocity=92, time=0),
    Message('note_off', channel=14, note=69, velocity=0, time=48),
    Message('note_on', channel=14, note=68, velocity=92, time=0),
    Message('note_off', channel=14, note=68, velocity=0, time=47),
    Message('note_on', channel=14, note=69, velocity=92, time=1),
    Message('note_off', channel=14, note=69, velocity=0, time=48),
    Message('note_on', channel=14, note=71, velocity=92, time=0),
    Message('note_off', channel=14, note=71, velocity=0, time=48),
    Message('note_on', channel=14, note=73, velocity=92, time=0),
    Message('note_off', channel=14, note=73, velocity=0, time=80),
    Message('note_on', channel=14, note=69, velocity=92, time=16),
    Message('note_off', channel=14, note=69, velocity=0, time=96),
    Message('note_on', channel=14, note=68, velocity=92, time=0),
    Message('note_off', channel=14, note=68, velocity=0, time=96),
    Message('note_on', channel=14, note=61, velocity=92, time=0),
    Message('note_off', channel=14, note=61, velocity=0, time=47),
    Message('note_on', channel=14, note=71, velocity=92, time=49),
    Message('note_off', channel=14, note=71, velocity=0, time=24),
    Message('note_on', channel=14, note=69, velocity=92, time=0),
    Message('note_off', channel=14, note=69, velocity=0, time=24),
    Message('note_on', channel=14, note=68, velocity=92, time=0),
    Message('note_off', channel=14, note=68, velocity=0, time=24),
    Message('note_on', channel=14, note=69, velocity=92, time=0),
    Message('note_off', channel=14, note=69, velocity=0, time=24),
    Message('note_on', channel=14, note=71, velocity=92, time=0),
    Message('note_off', channel=14, note=71, velocity=0, time=47),
    Message('note_on', channel=14, note=73, velocity=92, time=49),
    Message('note_off', channel=14, note=73, velocity=0, time=24),
    Message('note_on', channel=14, note=71, velocity=92, time=0),
    Message('note_off', channel=14, note=71, velocity=0, time=24),
    Message('note_on', channel=14, note=69, velocity=92, time=0),
    Message('note_off', channel=14, note=69, velocity=0, time=24),
    Message('note_on', channel=14, note=71, velocity=92, time=0),
    Message('note_off', channel=14, note=71, velocity=0, time=24),
    Message('note_on', channel=14, note=73, velocity=92, time=0),
    Message('note_off', channel=14, note=73, velocity=0, time=264),
    Message('note_on', channel=14, note=61, velocity=92, time=24),
    Message('note_off', channel=14, note=61, velocity=0, time=80),
    Message('note_on', channel=14, note=73, velocity=92, time=16),
    Message('note_off', channel=14, note=73, velocity=0, time=96),
    Message('note_on', channel=14, note=72, velocity=92, time=0),
    Message('note_off', channel=14, note=72, velocity=0, time=48),
    Message('note_on', channel=14, note=73, velocity=92, time=0),
    Message('note_off', channel=14, note=73, velocity=0, time=48),
    Message('note_on', channel=14, note=75, velocity=92, time=0),
    Message('note_off', channel=14, note=75, velocity=0, time=96),
    Message('note_on', channel=14, note=73, velocity=92, time=0),
    Message('note_off', channel=14, note=73, velocity=0, time=48),
    Message('note_on', channel=14, note=75, velocity=92, time=0),
    Message('note_off', channel=14, note=75, velocity=0, time=48),
    Message('note_on', channel=14, note=76, velocity=92, time=0),
    Message('note_off', channel=14, note=76, velocity=0, time=48),
    Message('note_on', channel=14, note=78, velocity=92, time=0),
    Message('note_off', channel=14, note=78, velocity=0, time=48),
    Message('note_on', channel=14, note=80, velocity=92, time=0),
    Message('note_off', channel=14, note=80, velocity=0, time=96),
    Message('note_on', channel=14, note=76, velocity=92, time=0),
    Message('note_off', channel=14, note=76, velocity=0, time=96),
    Message('note_on', channel=14, note=75, velocity=92, time=0),
    Message('note_off', channel=14, note=75, velocity=0, time=96),
    Message('note_on', channel=14, note=76, velocity=92, time=0),
    Message('note_off', channel=14, note=76, velocity=0, time=47),
    Message('note_on', channel=14, note=78, velocity=92, time=49),
    Message('note_off', channel=14, note=78, velocity=0, time=24),
    Message('note_on', channel=14, note=76, velocity=92, time=0),
    Message('note_off', channel=14, note=76, velocity=0, time=24),
    Message('note_on', channel=14, note=75, velocity=92, time=0),
    Message('note_off', channel=14, note=75, velocity=0, time=24),
    Message('note_on', channel=14, note=76, velocity=92, time=0),
    Message('note_off', channel=14, note=76, velocity=0, time=24),
    Message('note_on', channel=14, note=78, velocity=92, time=0),
    Message('note_off', channel=14, note=78, velocity=0, time=47),
    Message('note_on', channel=14, note=80, velocity=92, time=49),
    Message('note_off', channel=14, note=80, velocity=0, time=24),
    Message('note_on', channel=14, note=78, velocity=92, time=0),
    Message('note_off', channel=14, note=78, velocity=0, time=24),
    Message('note_on', channel=14, note=76, velocity=92, time=0),
    Message('note_off', channel=14, note=76, velocity=0, time=24),
    Message('note_on', channel=14, note=78, velocity=92, time=0),
    Message('note_off', channel=14, note=78, velocity=0, time=24),
    Message('note_on', channel=14, note=80, velocity=92, time=0),
    Message('note_off', channel=14, note=80, velocity=0, time=312),
    Message('control_change', channel=14, control=7, value=90, time=72),
    Message('note_on', channel=14, note=52, velocity=60, time=288),
    Message('note_off', channel=14, note=52, velocity=0, time=16),
    Message('note_on', channel=14, note=54, velocity=60, time=32),
    Message('note_off', channel=14, note=54, velocity=0, time=16),
    Message('note_on', channel=14, note=56, velocity=60, time=32),
    Message('note_off', channel=14, note=56, velocity=0, time=192),
    Message('note_on', channel=14, note=49, velocity=60, time=0),
    Message('note_off', channel=14, note=49, velocity=0, time=128),
    Message('program_change', channel=14, program=45, time=1024),
    Message('control_change', channel=14, control=7, value=110, time=96),
    Message('note_on', channel=14, note=61, velocity=92, time=0),
    Message('note_off', channel=14, note=61, velocity=0, time=47),
    Message('note_on', channel=14, note=62, velocity=92, time=1),
    Message('note_off', channel=14, note=62, velocity=0, time=47),
    Message('note_on', channel=14, note=63, velocity=92, time=1),
    Message('note_off', channel=14, note=63, velocity=0, time=80),
    Message('note_on', channel=14, note=74, velocity=92, time=112),
    Message('note_off', channel=14, note=74, velocity=0, time=80),
    Message('note_on', channel=14, note=69, velocity=92, time=16),
    Message('note_off', channel=14, note=69, velocity=0, time=80),
    Message('note_on', channel=14, note=58, velocity=92, time=16),
    Message('note_off', channel=14, note=58, velocity=0, time=80),
    Message('note_on', channel=14, note=70, velocity=92, time=112),
    Message('note_off', channel=14, note=70, velocity=0, time=80),
    Message('note_on', channel=14, note=62, velocity=92, time=16),
    Message('note_off', channel=14, note=62, velocity=0, time=80),
    Message('control_change', channel=14, control=7, value=80, time=1936),
    Message('note_on', channel=14, note=69, velocity=45, time=0),
    Message('note_off', channel=14, note=69, velocity=0, time=71),
    Message('note_on', channel=14, note=57, velocity=45, time=1),
    Message('note_off', channel=14, note=57, velocity=0, time=71),
    Message('note_on', channel=14, note=70, velocity=45, time=1),
    Message('note_off', channel=14, note=70, velocity=0, time=71),
    Message('note_on', channel=14, note=57, velocity=45, time=1),
    Message('note_off', channel=14, note=57, velocity=0, time=71),
    Message('note_on', channel=14, note=69, velocity=63, time=1),
    Message('note_off', channel=14, note=69, velocity=0, time=47),
    Message('note_on', channel=14, note=57, velocity=63, time=1),
    Message('note_off', channel=14, note=57, velocity=0, time=47),
    Message('program_change', channel=14, program=41, time=481),
    Message('note_on', channel=14, note=64, velocity=45, time=0),
    Message('note_off', channel=14, note=64, velocity=0, time=15),
    Message('note_on', channel=14, note=64, velocity=45, time=1),
    Message('note_off', channel=14, note=64, velocity=0, time=15),
    Message('note_on', channel=14, note=64, velocity=45, time=1),
    Message('note_off', channel=14, note=64, velocity=0, time=15),
    Message('note_on', channel=14, note=60, velocity=45, time=1),
    Message('note_off', channel=14, note=60, velocity=0, time=15),
    Message('note_on', channel=14, note=60, velocity=45, time=1),
    Message('note_off', channel=14, note=60, velocity=0, time=15),
    Message('note_on', channel=14, note=60, velocity=45, time=1),
    Message('note_off', channel=14, note=60, velocity=0, time=15),
    Message('note_on', channel=14, note=57, velocity=45, time=1),
    Message('note_off', channel=14, note=57, velocity=0, time=15),
    Message('note_on', channel=14, note=57, velocity=45, time=1),
    Message('note_off', channel=14, note=57, velocity=0, time=15),
    Message('note_on', channel=14, note=57, velocity=45, time=1),
    Message('note_off', channel=14, note=57, velocity=0, time=15),
    Message('note_on', channel=14, note=64, velocity=45, time=1),
    Message('note_off', channel=14, note=64, velocity=0, time=15),
    Message('note_on', channel=14, note=64, velocity=45, time=1),
    Message('note_off', channel=14, note=64, velocity=0, time=15),
    Message('note_on', channel=14, note=64, velocity=45, time=1),
    Message('note_off', channel=14, note=64, velocity=0, time=15),
    Message('note_on', channel=14, note=60, velocity=45, time=1),
    Message('note_off', channel=14, note=60, velocity=0, time=15),
    Message('note_on', channel=14, note=60, velocity=45, time=1),
    Message('note_off', channel=14, note=60, velocity=0, time=15),
    Message('note_on', channel=14, note=60, velocity=45, time=1),
    Message('note_off', channel=14, note=60, velocity=0, time=15),
    Message('note_on', channel=14, note=57, velocity=45, time=1),
    Message('note_off', channel=14, note=57, velocity=0, time=15),
    Message('note_on', channel=14, note=57, velocity=45, time=1),
    Message('note_off', channel=14, note=57, velocity=0, time=15),
    Message('note_on', channel=14, note=57, velocity=45, time=1),
    Message('note_off', channel=14, note=57, velocity=0, time=15),
    Message('note_on', channel=14, note=52, velocity=45, time=1),
    Message('note_off', channel=14, note=52, velocity=0, time=15),
    Message('note_on', channel=14, note=52, velocity=45, time=1),
    Message('note_off', channel=14, note=52, velocity=0, time=15),
    Message('note_on', channel=14, note=52, velocity=45, time=1),
    Message('note_off', channel=14, note=52, velocity=0, time=15),
    Message('note_on', channel=14, note=57, velocity=45, time=1),
    Message('note_off', channel=14, note=57, velocity=0, time=15),
    Message('note_on', channel=14, note=57, velocity=45, time=1),
    Message('note_off', channel=14, note=57, velocity=0, time=15),
    Message('note_on', channel=14, note=57, velocity=45, time=1),
    Message('note_off', channel=14, note=57, velocity=0, time=15),
    Message('note_on', channel=14, note=60, velocity=45, time=1),
    Message('note_off', channel=14, note=60, velocity=0, time=15),
    Message('note_on', channel=14, note=60, velocity=45, time=1),
    Message('note_off', channel=14, note=60, velocity=0, time=15),
    Message('note_on', channel=14, note=60, velocity=45, time=1),
    Message('note_off', channel=14, note=60, velocity=0, time=15),
    Message('note_on', channel=14, note=63, velocity=45, time=1),
    Message('note_off', channel=14, note=63, velocity=0, time=15),
    Message('note_on', channel=14, note=63, velocity=45, time=1),
    Message('note_off', channel=14, note=63, velocity=0, time=15),
    Message('note_on', channel=14, note=63, velocity=45, time=1),
    Message('note_off', channel=14, note=63, velocity=0, time=15),
    Message('note_on', channel=14, note=60, velocity=45, time=1),
    Message('note_off', channel=14, note=60, velocity=0, time=15),
    Message('note_on', channel=14, note=60, velocity=45, time=1),
    Message('note_off', channel=14, note=60, velocity=0, time=15),
    Message('note_on', channel=14, note=60, velocity=45, time=1),
    Message('note_off', channel=14, note=60, velocity=0, time=15),
    Message('note_on', channel=14, note=55, velocity=45, time=1),
    Message('note_off', channel=14, note=55, velocity=0, time=15),
    Message('note_on', channel=14, note=55, velocity=45, time=1),
    Message('note_off', channel=14, note=55, velocity=0, time=15),
    Message('note_on', channel=14, note=55, velocity=45, time=1),
    Message('note_off', channel=14, note=55, velocity=0, time=15),
    Message('note_on', channel=14, note=63, velocity=45, time=1),
    Message('note_off', channel=14, note=63, velocity=0, time=15),
    Message('note_on', channel=14, note=63, velocity=45, time=1),
    Message('note_off', channel=14, note=63, velocity=0, time=15),
    Message('note_on', channel=14, note=63, velocity=45, time=1),
    Message('note_off', channel=14, note=63, velocity=0, time=15),
    Message('note_on', channel=14, note=60, velocity=45, time=1),
    Message('note_off', channel=14, note=60, velocity=0, time=15),
    Message('note_on', channel=14, note=60, velocity=45, time=1),
    Message('note_off', channel=14, note=60, velocity=0, time=15),
    Message('note_on', channel=14, note=60, velocity=45, time=1),
    Message('note_off', channel=14, note=60, velocity=0, time=15),
    Message('note_on', channel=14, note=55, velocity=45, time=1),
    Message('note_off', channel=14, note=55, velocity=0, time=15),
    Message('note_on', channel=14, note=55, velocity=45, time=1),
    Message('note_off', channel=14, note=55, velocity=0, time=15),
    Message('note_on', channel=14, note=55, velocity=45, time=1),
    Message('note_off', channel=14, note=55, velocity=0, time=15),
    Message('note_on', channel=14, note=51, velocity=45, time=1),
    Message('note_off', channel=14, note=51, velocity=0, time=15),
    Message('note_on', channel=14, note=51, velocity=45, time=1),
    Message('note_off', channel=14, note=51, velocity=0, time=15),
    Message('note_on', channel=14, note=51, velocity=45, time=1),
    Message('note_off', channel=14, note=51, velocity=0, time=15),
    Message('note_on', channel=14, note=55, velocity=45, time=1),
    Message('note_off', channel=14, note=55, velocity=0, time=15),
    Message('note_on', channel=14, note=55, velocity=45, time=1),
    Message('note_off', channel=14, note=55, velocity=0, time=15),
    Message('note_on', channel=14, note=55, velocity=45, time=1),
    Message('note_off', channel=14, note=55, velocity=0, time=15),
    Message('note_on', channel=14, note=60, velocity=45, time=1),
    Message('note_off', channel=14, note=60, velocity=0, time=15),
    Message('note_on', channel=14, note=60, velocity=45, time=1),
    Message('note_off', channel=14, note=60, velocity=0, time=15),
    Message('note_on', channel=14, note=60, velocity=45, time=1),
    Message('note_off', channel=14, note=60, velocity=0, time=15),
    Message('note_on', channel=14, note=61, velocity=45, time=1),
    Message('note_off', channel=14, note=61, velocity=0, time=15),
    Message('note_on', channel=14, note=61, velocity=45, time=1),
    Message('note_off', channel=14, note=61, velocity=0, time=15),
    Message('note_on', channel=14, note=61, velocity=45, time=1),
    Message('note_off', channel=14, note=61, velocity=0, time=15),
    Message('note_on', channel=14, note=57, velocity=45, time=1),
    Message('note_off', channel=14, note=57, velocity=0, time=15),
    Message('note_on', channel=14, note=57, velocity=45, time=1),
    Message('note_off', channel=14, note=57, velocity=0, time=15),
    Message('note_on', channel=14, note=57, velocity=45, time=1),
    Message('note_off', channel=14, note=57, velocity=0, time=15),
    Message('note_on', channel=14, note=54, velocity=45, time=1),
    Message('note_off', channel=14, note=54, velocity=0, time=15),
    Message('note_on', channel=14, note=54, velocity=45, time=1),
    Message('note_off', channel=14, note=54, velocity=0, time=15),
    Message('note_on', channel=14, note=54, velocity=45, time=1),
    Message('note_off', channel=14, note=54, velocity=0, time=15),
    Message('note_on', channel=14, note=61, velocity=45, time=1),
    Message('note_off', channel=14, note=61, velocity=0, time=15),
    Message('note_on', channel=14, note=61, velocity=45, time=1),
    Message('note_off', channel=14, note=61, velocity=0, time=15),
    Message('note_on', channel=14, note=61, velocity=45, time=1),
    Message('note_off', channel=14, note=61, velocity=0, time=15),
    Message('note_on', channel=14, note=57, velocity=45, time=1),
    Message('note_off', channel=14, note=57, velocity=0, time=15),
    Message('note_on', channel=14, note=57, velocity=45, time=1),
    Message('note_off', channel=14, note=57, velocity=0, time=15),
    Message('note_on', channel=14, note=57, velocity=45, time=1),
    Message('note_off', channel=14, note=57, velocity=0, time=15),
    Message('note_on', channel=14, note=54, velocity=45, time=1),
    Message('note_off', channel=14, note=54, velocity=0, time=15),
    Message('note_on', channel=14, note=54, velocity=45, time=1),
    Message('note_off', channel=14, note=54, velocity=0, time=15),
    Message('note_on', channel=14, note=54, velocity=45, time=1),
    Message('note_off', channel=14, note=54, velocity=0, time=15),
    Message('note_on', channel=14, note=62, velocity=45, time=1),
    Message('note_off', channel=14, note=62, velocity=0, time=15),
    Message('note_on', channel=14, note=62, velocity=45, time=1),
    Message('note_off', channel=14, note=62, velocity=0, time=15),
    Message('note_on', channel=14, note=62, velocity=45, time=1),
    Message('note_off', channel=14, note=62, velocity=0, time=15),
    Message('note_on', channel=14, note=57, velocity=45, time=1),
    Message('note_off', channel=14, note=57, velocity=0, time=15),
    Message('note_on', channel=14, note=57, velocity=45, time=1),
    Message('note_off', channel=14, note=57, velocity=0, time=15),
    Message('note_on', channel=14, note=57, velocity=45, time=1),
    Message('note_off', channel=14, note=57, velocity=0, time=15),
    Message('note_on', channel=14, note=61, velocity=45, time=1),
    Message('note_off', channel=14, note=61, velocity=0, time=15),
    Message('note_on', channel=14, note=61, velocity=45, time=1),
    Message('note_off', channel=14, note=61, velocity=0, time=15),
    Message('note_on', channel=14, note=61, velocity=45, time=1),
    Message('note_off', channel=14, note=61, velocity=0, time=15),
    Message('note_on', channel=14, note=60, velocity=45, time=1),
    Message('note_off', channel=14, note=60, velocity=0, time=15),
    Message('note_on', channel=14, note=60, velocity=45, time=1),
    Message('note_off', channel=14, note=60, velocity=0, time=15),
    Message('note_on', channel=14, note=60, velocity=45, time=1),
    Message('note_off', channel=14, note=60, velocity=0, time=15),
    Message('note_on', channel=14, note=57, velocity=45, time=1),
    Message('note_off', channel=14, note=57, velocity=0, time=15),
    Message('note_on', channel=14, note=57, velocity=45, time=1),
    Message('note_off', channel=14, note=57, velocity=0, time=15),
    Message('note_on', channel=14, note=57, velocity=45, time=1),
    Message('note_off', channel=14, note=57, velocity=0, time=15),
    Message('note_on', channel=14, note=52, velocity=45, time=1),
    Message('note_off', channel=14, note=52, velocity=0, time=15),
    Message('note_on', channel=14, note=52, velocity=45, time=1),
    Message('note_off', channel=14, note=52, velocity=0, time=15),
    Message('note_on', channel=14, note=52, velocity=45, time=1),
    Message('note_off', channel=14, note=52, velocity=0, time=15),
    Message('note_on', channel=14, note=60, velocity=45, time=1),
    Message('note_off', channel=14, note=60, velocity=0, time=15),
    Message('note_on', channel=14, note=60, velocity=45, time=1),
    Message('note_off', channel=14, note=60, velocity=0, time=15),
    Message('note_on', channel=14, note=60, velocity=45, time=1),
    Message('note_off', channel=14, note=60, velocity=0, time=15),
    Message('note_on', channel=14, note=57, velocity=45, time=1),
    Message('note_off', channel=14, note=57, velocity=0, time=15),
    Message('note_on', channel=14, note=57, velocity=45, time=1),
    Message('note_off', channel=14, note=57, velocity=0, time=15),
    Message('note_on', channel=14, note=57, velocity=45, time=1),
    Message('note_off', channel=14, note=57, velocity=0, time=15),
    Message('note_on', channel=14, note=48, velocity=45, time=1),
    Message('note_off', channel=14, note=48, velocity=0, time=15),
    Message('note_on', channel=14, note=48, velocity=45, time=1),
    Message('note_off', channel=14, note=48, velocity=0, time=15),
    Message('note_on', channel=14, note=48, velocity=45, time=1),
    Message('note_off', channel=14, note=48, velocity=0, time=15),
    Message('note_on', channel=14, note=52, velocity=45, time=1),
    Message('note_off', channel=14, note=52, velocity=0, time=15),
    Message('note_on', channel=14, note=52, velocity=45, time=1),
    Message('note_off', channel=14, note=52, velocity=0, time=15),
    Message('note_on', channel=14, note=52, velocity=45, time=1),
    Message('note_off', channel=14, note=52, velocity=0, time=15),
    Message('note_on', channel=14, note=57, velocity=45, time=1),
    Message('note_off', channel=14, note=57, velocity=0, time=15),
    Message('note_on', channel=14, note=57, velocity=45, time=1),
    Message('note_off', channel=14, note=57, velocity=0, time=15),
    Message('note_on', channel=14, note=57, velocity=45, time=1),
    Message('note_off', channel=14, note=57, velocity=0, time=15),
    Message('note_on', channel=14, note=60, velocity=45, time=1),
    Message('note_off', channel=14, note=60, velocity=0, time=15),
    Message('note_on', channel=14, note=60, velocity=45, time=1),
    Message('note_off', channel=14, note=60, velocity=0, time=15),
    Message('note_on', channel=14, note=60, velocity=45, time=1),
    Message('note_off', channel=14, note=60, velocity=0, time=15),
    Message('note_on', channel=14, note=63, velocity=45, time=1),
    Message('note_off', channel=14, note=63, velocity=0, time=15),
    Message('note_on', channel=14, note=63, velocity=45, time=1),
    Message('note_off', channel=14, note=63, velocity=0, time=15),
    Message('note_on', channel=14, note=63, velocity=45, time=1),
    Message('note_off', channel=14, note=63, velocity=0, time=15),
    Message('note_on', channel=14, note=59, velocity=45, time=1),
    Message('note_off', channel=14, note=59, velocity=0, time=15),
    Message('note_on', channel=14, note=59, velocity=45, time=1),
    Message('note_off', channel=14, note=59, velocity=0, time=15),
    Message('note_on', channel=14, note=59, velocity=45, time=1),
    Message('note_off', channel=14, note=59, velocity=0, time=15),
    Message('note_on', channel=14, note=57, velocity=45, time=1),
    Message('note_off', channel=14, note=57, velocity=0, time=15),
    Message('note_on', channel=14, note=57, velocity=45, time=1),
    Message('note_off', channel=14, note=57, velocity=0, time=15),
    Message('note_on', channel=14, note=57, velocity=45, time=1),
    Message('note_off', channel=14, note=57, velocity=0, time=15),
    Message('note_on', channel=14, note=53, velocity=45, time=1),
    Message('note_off', channel=14, note=53, velocity=0, time=15),
    Message('note_on', channel=14, note=53, velocity=45, time=1),
    Message('note_off', channel=14, note=53, velocity=0, time=15),
    Message('note_on', channel=14, note=53, velocity=45, time=1),
    Message('note_off', channel=14, note=53, velocity=0, time=15),
    Message('note_on', channel=14, note=57, velocity=45, time=1),
    Message('note_off', channel=14, note=57, velocity=0, time=15),
    Message('note_on', channel=14, note=57, velocity=45, time=1),
    Message('note_off', channel=14, note=57, velocity=0, time=15),
    Message('note_on', channel=14, note=57, velocity=45, time=1),
    Message('note_off', channel=14, note=57, velocity=0, time=15),
    Message('note_on', channel=14, note=59, velocity=45, time=1),
    Message('note_off', channel=14, note=59, velocity=0, time=15),
    Message('note_on', channel=14, note=59, velocity=45, time=1),
    Message('note_off', channel=14, note=59, velocity=0, time=15),
    Message('note_on', channel=14, note=59, velocity=45, time=1),
    Message('note_off', channel=14, note=59, velocity=0, time=15),
    Message('note_on', channel=14, note=63, velocity=45, time=1),
    Message('control_change', channel=14, control=7, value=81, time=14),
    Message('note_off', channel=14, note=63, velocity=0, time=1),
    Message('note_on', channel=14, note=63, velocity=46, time=1),
    Message('control_change', channel=14, control=7, value=82, time=12),
    Message('note_off', channel=14, note=63, velocity=0, time=3),
    Message('note_on', channel=14, note=63, velocity=47, time=1),
    Message('control_change', channel=14, control=7, value=83, time=11),
    Message('note_off', channel=14, note=63, velocity=0, time=4),
    Message('note_on', channel=14, note=59, velocity=48, time=1),
    Message('control_change', channel=14, control=7, value=84, time=9),
    Message('note_off', channel=14, note=59, velocity=0, time=6),
    Message('note_on', channel=14, note=59, velocity=49, time=1),
    Message('control_change', channel=14, control=7, value=85, time=7),
    Message('note_off', channel=14, note=59, velocity=0, time=8),
    Message('note_on', channel=14, note=59, velocity=50, time=1),
    Message('control_change', channel=14, control=7, value=86, time=6),
    Message('note_off', channel=14, note=59, velocity=0, time=9),
    Message('note_on', channel=14, note=57, velocity=51, time=1),
    Message('control_change', channel=14, control=7, value=87, time=4),
    Message('note_off', channel=14, note=57, velocity=0, time=11),
    Message('note_on', channel=14, note=57, velocity=53, time=1),
    Message('control_change', channel=14, control=7, value=88, time=3),
    Message('note_off', channel=14, note=57, velocity=0, time=12),
    Message('note_on', channel=14, note=57, velocity=55, time=1),
    Message('control_change', channel=14, control=7, value=89, time=1),
    Message('note_off', channel=14, note=57, velocity=0, time=14),
    Message('control_change', channel=14, control=7, value=90, time=0),
    Message('note_on', channel=14, note=53, velocity=57, time=1),
    Message('control_change', channel=14, control=7, value=91, time=14),
    Message('note_off', channel=14, note=53, velocity=0, time=1),
    Message('note_on', channel=14, note=53, velocity=59, time=1),
    Message('control_change', channel=14, control=7, value=92, time=12),
    Message('note_off', channel=14, note=53, velocity=0, time=3),
    Message('note_on', channel=14, note=53, velocity=61, time=1),
    Message('control_change', channel=14, control=7, value=93, time=11),
    Message('note_off', channel=14, note=53, velocity=0, time=4),
    Message('note_on', channel=14, note=57, velocity=63, time=1),
    Message('control_change', channel=14, control=7, value=94, time=9),
    Message('note_off', channel=14, note=57, velocity=0, time=6),
    Message('note_on', channel=14, note=57, velocity=65, time=1),
    Message('control_change', channel=14, control=7, value=95, time=7),
    Message('note_off', channel=14, note=57, velocity=0, time=8),
    Message('note_on', channel=14, note=57, velocity=67, time=1),
    Message('control_change', channel=14, control=7, value=96, time=6),
    Message('note_off', channel=14, note=57, velocity=0, time=9),
    Message('note_on', channel=14, note=59, velocity=69, time=1),
    Message('control_change', channel=14, control=7, value=97, time=4),
    Message('note_off', channel=14, note=59, velocity=0, time=11),
    Message('note_on', channel=14, note=59, velocity=71, time=1),
    Message('control_change', channel=14, control=7, value=98, time=3),
    Message('note_off', channel=14, note=59, velocity=0, time=12),
    Message('note_on', channel=14, note=59, velocity=73, time=1),
    Message('control_change', channel=14, control=7, value=99, time=1),
    Message('note_off', channel=14, note=59, velocity=0, time=14),
    Message('control_change', channel=14, control=7, value=100, time=0),
    Message('note_on', channel=14, note=64, velocity=75, time=1),
    Message('note_off', channel=14, note=64, velocity=0, time=16),
    Message('note_on', channel=14, note=71, velocity=75, time=32),
    Message('note_off', channel=14, note=71, velocity=0, time=15),
    Message('note_on', channel=14, note=71, velocity=75, time=1),
    Message('note_off', channel=14, note=71, velocity=0, time=15),
    Message('note_on', channel=14, note=71, velocity=75, time=1),
    Message('note_off', channel=14, note=71, velocity=0, time=15),
    Message('note_on', channel=14, note=71, velocity=75, time=1),
    Message('note_off', channel=14, note=71, velocity=0, time=15),
    Message('note_on', channel=14, note=71, velocity=75, time=1),
    Message('note_off', channel=14, note=71, velocity=0, time=15),
    Message('note_on', channel=14, note=71, velocity=75, time=1),
    Message('note_off', channel=14, note=71, velocity=0, time=15),
    Message('note_on', channel=14, note=71, velocity=105, time=1),
    Message('note_off', channel=14, note=71, velocity=0, time=16),
    Message('note_on', channel=14, note=71, velocity=75, time=32),
    Message('note_off', channel=14, note=71, velocity=0, time=15),
    Message('note_on', channel=14, note=71, velocity=75, time=1),
    Message('note_off', channel=14, note=71, velocity=0, time=15),
    Message('note_on', channel=14, note=71, velocity=75, time=1),
    Message('note_off', channel=14, note=71, velocity=0, time=15),
    Message('note_on', channel=14, note=71, velocity=75, time=1),
    Message('note_off', channel=14, note=71, velocity=0, time=15),
    Message('note_on', channel=14, note=71, velocity=75, time=1),
    Message('note_off', channel=14, note=71, velocity=0, time=15),
    Message('note_on', channel=14, note=71, velocity=75, time=1),
    Message('note_off', channel=14, note=71, velocity=0, time=15),
    Message('note_on', channel=14, note=71, velocity=105, time=1),
    Message('note_off', channel=14, note=71, velocity=0, time=16),
    Message('note_on', channel=14, note=71, velocity=75, time=32),
    Message('note_off', channel=14, note=71, velocity=0, time=15),
    Message('note_on', channel=14, note=71, velocity=75, time=1),
    Message('note_off', channel=14, note=71, velocity=0, time=15),
    Message('note_on', channel=14, note=71, velocity=75, time=1),
    Message('note_off', channel=14, note=71, velocity=0, time=15),
    Message('note_on', channel=14, note=71, velocity=75, time=1),
    Message('note_off', channel=14, note=71, velocity=0, time=15),
    Message('note_on', channel=14, note=71, velocity=75, time=1),
    Message('note_off', channel=14, note=71, velocity=0, time=15),
    Message('note_on', channel=14, note=71, velocity=75, time=1),
    Message('note_off', channel=14, note=71, velocity=0, time=15),
    Message('note_on', channel=14, note=71, velocity=75, time=1),
    Message('note_off', channel=14, note=71, velocity=0, time=24),
    Message('note_on', channel=14, note=70, velocity=75, time=0),
    Message('note_off', channel=14, note=70, velocity=0, time=23),
    Message('note_on', channel=14, note=71, velocity=75, time=145),
    Message('note_off', channel=14, note=71, velocity=0, time=15),
    Message('note_on', channel=14, note=71, velocity=75, time=1),
    Message('note_off', channel=14, note=71, velocity=0, time=15),
    Message('note_on', channel=14, note=71, velocity=75, time=1),
    Message('note_off', channel=14, note=71, velocity=0, time=15),
    Message('note_on', channel=14, note=71, velocity=75, time=1),
    Message('note_off', channel=14, note=71, velocity=0, time=15),
    Message('note_on', channel=14, note=71, velocity=75, time=1),
    Message('note_off', channel=14, note=71, velocity=0, time=15),
    Message('note_on', channel=14, note=71, velocity=75, time=1),
    Message('note_off', channel=14, note=71, velocity=0, time=15),
    Message('note_on', channel=14, note=71, velocity=105, time=1),
    Message('note_off', channel=14, note=71, velocity=0, time=16),
    Message('note_on', channel=14, note=71, velocity=75, time=32),
    Message('note_off', channel=14, note=71, velocity=0, time=15),
    Message('note_on', channel=14, note=71, velocity=75, time=1),
    Message('note_off', channel=14, note=71, velocity=0, time=15),
    Message('note_on', channel=14, note=71, velocity=75, time=1),
    Message('note_off', channel=14, note=71, velocity=0, time=15),
    Message('note_on', channel=14, note=71, velocity=75, time=1),
    Message('note_off', channel=14, note=71, velocity=0, time=15),
    Message('note_on', channel=14, note=71, velocity=75, time=1),
    Message('note_off', channel=14, note=71, velocity=0, time=15),
    Message('note_on', channel=14, note=71, velocity=75, time=1),
    Message('note_off', channel=14, note=71, velocity=0, time=15),
    Message('note_on', channel=14, note=71, velocity=105, time=1),
    Message('note_off', channel=14, note=71, velocity=0, time=16),
    Message('note_on', channel=14, note=71, velocity=75, time=32),
    Message('note_off', channel=14, note=71, velocity=0, time=15),
    Message('note_on', channel=14, note=71, velocity=75, time=1),
    Message('note_off', channel=14, note=71, velocity=0, time=15),
    Message('note_on', channel=14, note=71, velocity=75, time=1),
    Message('note_off', channel=14, note=71, velocity=0, time=15),
    Message('note_on', channel=14, note=71, velocity=75, time=1),
    Message('note_off', channel=14, note=71, velocity=0, time=15),
    Message('note_on', channel=14, note=71, velocity=75, time=1),
    Message('note_off', channel=14, note=71, velocity=0, time=15),
    Message('note_on', channel=14, note=71, velocity=75, time=1),
    Message('note_off', channel=14, note=71, velocity=0, time=15),
    Message('note_on', channel=14, note=71, velocity=75, time=1),
    Message('note_off', channel=14, note=71, velocity=0, time=24),
    Message('note_on', channel=14, note=70, velocity=75, time=0),
    Message('note_off', channel=14, note=70, velocity=0, time=23),
    Message('note_on', channel=14, note=67, velocity=75, time=97),
    Message('note_on', channel=14, note=63, velocity=75, time=0),
    Message('note_off', channel=14, note=67, velocity=0, time=23),
    Message('note_off', channel=14, note=63, velocity=0, time=0),
    Message('note_on', channel=14, note=55, velocity=75, time=1),
    Message('note_off', channel=14, note=55, velocity=0, time=23),
    Message('note_on', channel=14, note=55, velocity=75, time=1),
    Message('note_off', channel=14, note=55, velocity=0, time=23),
    Message('note_on', channel=14, note=55, velocity=75, time=1),
    Message('note_off', channel=14, note=55, velocity=0, time=23),
    Message('note_on', channel=14, note=55, velocity=75, time=1),
    Message('note_off', channel=14, note=55, velocity=0, time=23),
    Message('note_on', channel=14, note=55, velocity=75, time=1),
    Message('note_off', channel=14, note=55, velocity=0, time=23),
    Message('note_on', channel=14, note=67, velocity=75, time=1),
    Message('note_on', channel=14, note=63, velocity=75, time=0),
    Message('note_off', channel=14, note=67, velocity=0, time=23),
    Message('note_off', channel=14, note=63, velocity=0, time=0),
    Message('note_on', channel=14, note=55, velocity=75, time=1),
    Message('note_off', channel=14, note=55, velocity=0, time=23),
    Message('note_on', channel=14, note=55, velocity=75, time=1),
    Message('note_off', channel=14, note=55, velocity=0, time=23),
    Message('note_on', channel=14, note=55, velocity=75, time=1),
    Message('note_off', channel=14, note=55, velocity=0, time=23),
    Message('note_on', channel=14, note=55, velocity=75, time=1),
    Message('note_off', channel=14, note=55, velocity=0, time=23),
    Message('note_on', channel=14, note=55, velocity=75, time=1),
    Message('note_off', channel=14, note=55, velocity=0, time=23),
    Message('note_on', channel=14, note=68, velocity=75, time=1),
    Message('note_on', channel=14, note=63, velocity=75, time=0),
    Message('note_off', channel=14, note=68, velocity=0, time=23),
    Message('note_off', channel=14, note=63, velocity=0, time=0),
    Message('note_on', channel=14, note=55, velocity=75, time=1),
    Message('note_off', channel=14, note=55, velocity=0, time=23),
    Message('note_on', channel=14, note=55, velocity=75, time=1),
    Message('note_off', channel=14, note=55, velocity=0, time=23),
    Message('note_on', channel=14, note=55, velocity=75, time=1),
    Message('note_off', channel=14, note=55, velocity=0, time=23),
    Message('note_on', channel=14, note=60, velocity=75, time=1),
    Message('note_off', channel=14, note=60, velocity=0, time=23),
    Message('note_on', channel=14, note=63, velocity=75, time=1),
    Message('note_off', channel=14, note=63, velocity=0, time=23),
    Message('note_on', channel=14, note=66, velocity=75, time=1),
    Message('note_on', channel=14, note=63, velocity=75, time=0),
    Message('note_off', channel=14, note=66, velocity=0, time=23),
    Message('note_off', channel=14, note=63, velocity=0, time=0),
    Message('note_on', channel=14, note=55, velocity=75, time=1),
    Message('note_off', channel=14, note=55, velocity=0, time=23),
    Message('note_on', channel=14, note=55, velocity=75, time=1),
    Message('note_off', channel=14, note=55, velocity=0, time=23),
    Message('note_on', channel=14, note=55, velocity=75, time=1),
    Message('note_off', channel=14, note=55, velocity=0, time=23),
    Message('note_on', channel=14, note=62, velocity=75, time=1),
    Message('note_off', channel=14, note=62, velocity=0, time=23),
    Message('note_on', channel=14, note=55, velocity=75, time=1),
    Message('note_off', channel=14, note=55, velocity=0, time=23),
    Message('note_on', channel=14, note=63, velocity=75, time=1),
    Message('note_on', channel=14, note=60, velocity=75, time=0),
    Message('note_off', channel=14, note=63, velocity=0, time=23),
    Message('note_off', channel=14, note=60, velocity=0, time=0),
    Message('note_on', channel=14, note=55, velocity=75, time=1),
    Message('note_off', channel=14, note=55, velocity=0, time=23),
    Message('note_on', channel=14, note=55, velocity=75, time=1),
    Message('note_off', channel=14, note=55, velocity=0, time=23),
    Message('note_on', channel=14, note=55, velocity=75, time=1),
    Message('note_off', channel=14, note=55, velocity=0, time=23),
    Message('note_on', channel=14, note=60, velocity=75, time=1),
    Message('note_off', channel=14, note=60, velocity=0, time=23),
    Message('note_on', channel=14, note=63, velocity=75, time=1),
    Message('note_off', channel=14, note=63, velocity=0, time=23),
    Message('note_on', channel=14, note=67, velocity=75, time=1),
    Message('note_on', channel=14, note=59, velocity=75, time=0),
    Message('note_off', channel=14, note=67, velocity=0, time=23),
    Message('note_off', channel=14, note=59, velocity=0, time=0),
    Message('note_on', channel=14, note=55, velocity=75, time=1),
    Message('note_off', channel=14, note=55, velocity=0, time=23),
    Message('note_on', channel=14, note=55, velocity=75, time=1),
    Message('note_off', channel=14, note=55, velocity=0, time=23),
    Message('note_on', channel=14, note=55, velocity=75, time=1),
    Message('note_off', channel=14, note=55, velocity=0, time=23),
    Message('note_on', channel=14, note=63, velocity=75, time=1),
    Message('note_off', channel=14, note=63, velocity=0, time=23),
    Message('note_on', channel=14, note=55, velocity=75, time=1),
    Message('note_off', channel=14, note=55, velocity=0, time=23),
    Message('note_on', channel=14, note=67, velocity=75, time=1),
    Message('note_on', channel=14, note=63, velocity=75, time=0),
    Message('note_off', channel=14, note=67, velocity=0, time=23),
    Message('note_off', channel=14, note=63, velocity=0, time=0),
    Message('note_on', channel=14, note=55, velocity=75, time=1),
    Message('note_off', channel=14, note=55, velocity=0, time=23),
    Message('note_on', channel=14, note=55, velocity=75, time=1),
    Message('note_off', channel=14, note=55, velocity=0, time=23),
    Message('note_on', channel=14, note=55, velocity=75, time=1),
    Message('note_off', channel=14, note=55, velocity=0, time=23),
    Message('note_on', channel=14, note=55, velocity=75, time=1),
    Message('note_off', channel=14, note=55, velocity=0, time=23),
    Message('note_on', channel=14, note=55, velocity=75, time=1),
    Message('note_off', channel=14, note=55, velocity=0, time=23),
    Message('note_on', channel=14, note=63, velocity=75, time=1),
    Message('note_on', channel=14, note=60, velocity=75, time=0),
    Message('note_off', channel=14, note=63, velocity=0, time=23),
    Message('note_off', channel=14, note=60, velocity=0, time=0),
    Message('note_on', channel=14, note=55, velocity=75, time=1),
    Message('note_off', channel=14, note=55, velocity=0, time=23),
    Message('note_on', channel=14, note=55, velocity=75, time=1),
    Message('note_off', channel=14, note=55, velocity=0, time=23),
    Message('note_on', channel=14, note=55, velocity=75, time=1),
    Message('note_off', channel=14, note=55, velocity=0, time=23),
    Message('note_on', channel=14, note=55, velocity=75, time=1),
    Message('note_off', channel=14, note=55, velocity=0, time=23),
    Message('note_on', channel=14, note=55, velocity=75, time=1),
    Message('note_off', channel=14, note=55, velocity=0, time=23),
    Message('note_on', channel=14, note=67, velocity=75, time=1),
    Message('note_off', channel=14, note=67, velocity=0, time=15),
    Message('note_on', channel=14, note=67, velocity=75, time=1),
    Message('note_off', channel=14, note=67, velocity=0, time=15),
    Message('note_on', channel=14, note=67, velocity=75, time=1),
    Message('note_off', channel=14, note=67, velocity=0, time=15),
    Message('note_on', channel=14, note=67, velocity=75, time=1),
    Message('note_off', channel=14, note=67, velocity=0, time=15),
    Message('note_on', channel=14, note=67, velocity=75, time=1),
    Message('note_off', channel=14, note=67, velocity=0, time=15),
    Message('note_on', channel=14, note=67, velocity=75, time=1),
    Message('note_off', channel=14, note=67, velocity=0, time=15),
    Message('note_on', channel=14, note=63, velocity=75, time=1),
    Message('note_off', channel=14, note=63, velocity=0, time=15),
    Message('note_on', channel=14, note=63, velocity=75, time=1),
    Message('note_off', channel=14, note=63, velocity=0, time=15),
    Message('note_on', channel=14, note=63, velocity=75, time=1),
    Message('note_off', channel=14, note=63, velocity=0, time=15),
    Message('note_on', channel=14, note=67, velocity=75, time=1),
    Message('note_off', channel=14, note=67, velocity=0, time=15),
    Message('note_on', channel=14, note=67, velocity=75, time=1),
    Message('note_off', channel=14, note=67, velocity=0, time=15),
    Message('note_on', channel=14, note=67, velocity=75, time=1),
    Message('note_off', channel=14, note=67, velocity=0, time=15),
    Message('note_on', channel=14, note=67, velocity=75, time=1),
    Message('note_off', channel=14, note=67, velocity=0, time=15),
    Message('note_on', channel=14, note=67, velocity=75, time=1),
    Message('note_off', channel=14, note=67, velocity=0, time=15),
    Message('note_on', channel=14, note=67, velocity=75, time=1),
    Message('note_off', channel=14, note=67, velocity=0, time=15),
    Message('note_on', channel=14, note=63, velocity=75, time=1),
    Message('note_off', channel=14, note=63, velocity=0, time=15),
    Message('note_on', channel=14, note=63, velocity=75, time=1),
    Message('note_off', channel=14, note=63, velocity=0, time=15),
    Message('note_on', channel=14, note=63, velocity=75, time=1),
    Message('note_off', channel=14, note=63, velocity=0, time=15),
    Message('note_on', channel=14, note=70, velocity=75, time=1),
    Message('note_off', channel=14, note=70, velocity=0, time=15),
    Message('note_on', channel=14, note=70, velocity=75, time=1),
    Message('note_off', channel=14, note=70, velocity=0, time=15),
    Message('note_on', channel=14, note=70, velocity=75, time=1),
    Message('note_off', channel=14, note=70, velocity=0, time=15),
    Message('note_on', channel=14, note=70, velocity=75, time=1),
    Message('note_off', channel=14, note=70, velocity=0, time=15),
    Message('note_on', channel=14, note=70, velocity=75, time=1),
    Message('note_off', channel=14, note=70, velocity=0, time=15),
    Message('note_on', channel=14, note=70, velocity=75, time=1),
    Message('note_off', channel=14, note=70, velocity=0, time=15),
    Message('note_on', channel=14, note=69, velocity=75, time=1),
    Message('note_off', channel=14, note=69, velocity=0, time=15),
    Message('note_on', channel=14, note=69, velocity=75, time=1),
    Message('note_off', channel=14, note=69, velocity=0, time=15),
    Message('note_on', channel=14, note=69, velocity=75, time=1),
    Message('note_off', channel=14, note=69, velocity=0, time=15),
    Message('note_on', channel=14, note=68, velocity=75, time=1),
    Message('note_off', channel=14, note=68, velocity=0, time=15),
    Message('note_on', channel=14, note=68, velocity=75, time=1),
    Message('note_off', channel=14, note=68, velocity=0, time=15),
    Message('note_on', channel=14, note=68, velocity=75, time=1),
    Message('note_off', channel=14, note=68, velocity=0, time=15),
    Message('note_on', channel=14, note=68, velocity=75, time=1),
    Message('note_off', channel=14, note=68, velocity=0, time=15),
    Message('note_on', channel=14, note=68, velocity=75, time=1),
    Message('note_off', channel=14, note=68, velocity=0, time=15),
    Message('note_on', channel=14, note=68, velocity=75, time=1),
    Message('note_off', channel=14, note=68, velocity=0, time=15),
    Message('note_on', channel=14, note=61, velocity=75, time=1),
    Message('note_off', channel=14, note=61, velocity=0, time=15),
    Message('note_on', channel=14, note=61, velocity=75, time=1),
    Message('note_off', channel=14, note=61, velocity=0, time=15),
    Message('note_on', channel=14, note=61, velocity=75, time=1),
    Message('note_off', channel=14, note=61, velocity=0, time=15),
    Message('note_on', channel=14, note=75, velocity=75, time=1),
    Message('note_off', channel=14, note=75, velocity=0, time=15),
    Message('note_on', channel=14, note=75, velocity=75, time=1),
    Message('note_off', channel=14, note=75, velocity=0, time=15),
    Message('note_on', channel=14, note=75, velocity=75, time=1),
    Message('note_off', channel=14, note=75, velocity=0, time=15),
    Message('note_on', channel=14, note=75, velocity=75, time=1),
    Message('note_off', channel=14, note=75, velocity=0, time=15),
    Message('note_on', channel=14, note=75, velocity=75, time=1),
    Message('note_off', channel=14, note=75, velocity=0, time=15),
    Message('note_on', channel=14, note=75, velocity=75, time=1),
    Message('note_off', channel=14, note=75, velocity=0, time=15),
    Message('note_on', channel=14, note=72, velocity=75, time=1),
    Message('note_off', channel=14, note=72, velocity=0, time=15),
    Message('note_on', channel=14, note=72, velocity=75, time=1),
    Message('note_off', channel=14, note=72, velocity=0, time=15),
    Message('note_on', channel=14, note=72, velocity=75, time=1),
    Message('note_off', channel=14, note=72, velocity=0, time=15),
    Message('note_on', channel=14, note=71, velocity=75, time=1),
    Message('note_off', channel=14, note=71, velocity=0, time=15),
    Message('note_on', channel=14, note=71, velocity=75, time=1),
    Message('note_off', channel=14, note=71, velocity=0, time=15),
    Message('note_on', channel=14, note=71, velocity=75, time=1),
    Message('note_off', channel=14, note=71, velocity=0, time=15),
    Message('note_on', channel=14, note=71, velocity=75, time=1),
    Message('note_off', channel=14, note=71, velocity=0, time=15),
    Message('note_on', channel=14, note=71, velocity=75, time=1),
    Message('note_off', channel=14, note=71, velocity=0, time=15),
    Message('note_on', channel=14, note=71, velocity=75, time=1),
    Message('note_off', channel=14, note=71, velocity=0, time=15),
    Message('note_on', channel=14, note=67, velocity=75, time=1),
    Message('note_off', channel=14, note=67, velocity=0, time=15),
    Message('note_on', channel=14, note=67, velocity=75, time=1),
    Message('note_off', channel=14, note=67, velocity=0, time=15),
    Message('note_on', channel=14, note=67, velocity=75, time=1),
    Message('note_off', channel=14, note=67, velocity=0, time=15),
    Message('note_on', channel=14, note=64, velocity=75, time=1),
    Message('note_off', channel=14, note=64, velocity=0, time=15),
    Message('note_on', channel=14, note=61, velocity=75, time=1),
    Message('note_off', channel=14, note=61, velocity=0, time=15),
    Message('note_on', channel=14, note=56, velocity=75, time=1),
    Message('note_off', channel=14, note=56, velocity=0, time=15),
    Message('note_on', channel=14, note=52, velocity=75, time=1),
    Message('note_off', channel=14, note=52, velocity=0, time=15),
    Message('note_on', channel=14, note=56, velocity=75, time=1),
    Message('note_off', channel=14, note=56, velocity=0, time=15),
    Message('note_on', channel=14, note=61, velocity=75, time=1),
    Message('note_off', channel=14, note=61, velocity=0, time=15),
    Message('note_on', channel=14, note=64, velocity=75, time=1),
    Message('note_off', channel=14, note=64, velocity=0, time=15),
    Message('note_on', channel=14, note=60, velocity=75, time=1),
    Message('note_off', channel=14, note=60, velocity=0, time=15),
    Message('note_on', channel=14, note=55, velocity=75, time=1),
    Message('note_off', channel=14, note=55, velocity=0, time=15),
    Message('note_on', channel=14, note=64, velocity=75, time=1),
    Message('note_off', channel=14, note=64, velocity=0, time=15),
    Message('note_on', channel=14, note=61, velocity=75, time=1),
    Message('note_off', channel=14, note=61, velocity=0, time=15),
    Message('note_on', channel=14, note=56, velocity=75, time=1),
    Message('note_off', channel=14, note=56, velocity=0, time=15),
    Message('note_on', channel=14, note=52, velocity=75, time=1),
    Message('note_off', channel=14, note=52, velocity=0, time=15),
    Message('note_on', channel=14, note=56, velocity=75, time=1),
    Message('note_off', channel=14, note=56, velocity=0, time=15),
    Message('note_on', channel=14, note=61, velocity=75, time=1),
    Message('note_off', channel=14, note=61, velocity=0, time=15),
    Message('note_on', channel=14, note=64, velocity=75, time=1),
    Message('note_off', channel=14, note=64, velocity=0, time=15),
    Message('note_on', channel=14, note=60, velocity=75, time=1),
    Message('note_off', channel=14, note=60, velocity=0, time=15),
    Message('note_on', channel=14, note=55, velocity=75, time=1),
    Message('note_off', channel=14, note=55, velocity=0, time=15),
    Message('note_on', channel=14, note=64, velocity=75, time=1),
    Message('note_off', channel=14, note=64, velocity=0, time=15),
    Message('note_on', channel=14, note=61, velocity=75, time=1),
    Message('note_off', channel=14, note=61, velocity=0, time=15),
    Message('note_on', channel=14, note=56, velocity=75, time=1),
    Message('note_off', channel=14, note=56, velocity=0, time=15),
    Message('note_on', channel=14, note=52, velocity=75, time=1),
    Message('note_off', channel=14, note=52, velocity=0, time=15),
    Message('note_on', channel=14, note=56, velocity=75, time=1),
    Message('note_off', channel=14, note=56, velocity=0, time=15),
    Message('note_on', channel=14, note=61, velocity=75, time=1),
    Message('note_off', channel=14, note=61, velocity=0, time=15),
    Message('note_on', channel=14, note=64, velocity=75, time=1),
    Message('note_off', channel=14, note=64, velocity=0, time=15),
    Message('note_on', channel=14, note=60, velocity=75, time=1),
    Message('note_off', channel=14, note=60, velocity=0, time=15),
    Message('note_on', channel=14, note=55, velocity=75, time=1),
    Message('note_off', channel=14, note=55, velocity=0, time=15),
    Message('note_on', channel=14, note=64, velocity=75, time=1),
    Message('note_off', channel=14, note=64, velocity=0, time=15),
    Message('note_on', channel=14, note=61, velocity=75, time=1),
    Message('note_off', channel=14, note=61, velocity=0, time=15),
    Message('note_on', channel=14, note=56, velocity=75, time=1),
    Message('note_off', channel=14, note=56, velocity=0, time=15),
    Message('note_on', channel=14, note=52, velocity=75, time=1),
    Message('note_off', channel=14, note=52, velocity=0, time=15),
    Message('note_on', channel=14, note=56, velocity=75, time=1),
    Message('note_off', channel=14, note=56, velocity=0, time=15),
    Message('note_on', channel=14, note=61, velocity=75, time=1),
    Message('note_off', channel=14, note=61, velocity=0, time=15),
    Message('note_on', channel=14, note=64, velocity=75, time=1),
    Message('note_off', channel=14, note=64, velocity=0, time=15),
    Message('note_on', channel=14, note=60, velocity=75, time=1),
    Message('note_off', channel=14, note=60, velocity=0, time=15),
    Message('note_on', channel=14, note=55, velocity=75, time=1),
    Message('note_off', channel=14, note=55, velocity=0, time=15),
    Message('note_on', channel=14, note=67, velocity=75, time=1),
    Message('note_on', channel=14, note=64, velocity=75, time=0),
    Message('control_change', channel=14, control=7, value=99, time=2),
    Message('control_change', channel=14, control=7, value=98, time=3),
    Message('control_change', channel=14, control=7, value=97, time=3),
    Message('control_change', channel=14, control=7, value=96, time=3),
    Message('control_change', channel=14, control=7, value=95, time=3),
    Message('control_change', channel=14, control=7, value=94, time=3),
    Message('control_change', channel=14, control=7, value=93, time=3),
    Message('control_change', channel=14, control=7, value=92, time=3),
    Message('control_change', channel=14, control=7, value=91, time=2),
    Message('control_change', channel=14, control=7, value=90, time=3),
    Message('control_change', channel=14, control=7, value=89, time=3),
    Message('control_change', channel=14, control=7, value=88, time=3),
    Message('control_change', channel=14, control=7, value=87, time=3),
    Message('control_change', channel=14, control=7, value=86, time=3),
    Message('control_change', channel=14, control=7, value=85, time=3),
    Message('control_change', channel=14, control=7, value=84, time=3),
    Message('control_change', channel=14, control=7, value=83, time=2),
    Message('control_change', channel=14, control=7, value=82, time=3),
    Message('control_change', channel=14, control=7, value=81, time=3),
    Message('control_change', channel=14, control=7, value=80, time=3),
    Message('control_change', channel=14, control=7, value=79, time=3),
    Message('control_change', channel=14, control=7, value=78, time=3),
    Message('control_change', channel=14, control=7, value=77, time=3),
    Message('control_change', channel=14, control=7, value=76, time=3),
    Message('control_change', channel=14, control=7, value=75, time=3),
    Message('control_change', channel=14, control=7, value=74, time=2),
    Message('control_change', channel=14, control=7, value=73, time=3),
    Message('control_change', channel=14, control=7, value=72, time=3),
    Message('control_change', channel=14, control=7, value=71, time=3),
    Message('control_change', channel=14, control=7, value=70, time=3),
    Message('control_change', channel=14, control=7, value=69, time=3),
    Message('control_change', channel=14, control=7, value=68, time=3),
    Message('control_change', channel=14, control=7, value=67, time=3),
    Message('control_change', channel=14, control=7, value=66, time=2),
    Message('control_change', channel=14, control=7, value=65, time=3),
    Message('control_change', channel=14, control=7, value=64, time=3),
    Message('control_change', channel=14, control=7, value=63, time=3),
    Message('control_change', channel=14, control=7, value=62, time=3),
    Message('control_change', channel=14, control=7, value=61, time=3),
    Message('control_change', channel=14, control=7, value=60, time=3),
    Message('control_change', channel=14, control=7, value=59, time=3),
    Message('control_change', channel=14, control=7, value=58, time=2),
    Message('control_change', channel=14, control=7, value=57, time=3),
    Message('control_change', channel=14, control=7, value=56, time=3),
    Message('control_change', channel=14, control=7, value=55, time=3),
    Message('control_change', channel=14, control=7, value=54, time=3),
    Message('control_change', channel=14, control=7, value=53, time=3),
    Message('control_change', channel=14, control=7, value=52, time=3),
    Message('control_change', channel=14, control=7, value=51, time=3),
    Message('control_change', channel=14, control=7, value=50, time=3),
    Message('control_change', channel=14, control=7, value=51, time=2),
    Message('control_change', channel=14, control=7, value=52, time=2),
    Message('control_change', channel=14, control=7, value=53, time=3),
    Message('control_change', channel=14, control=7, value=54, time=2),
    Message('control_change', channel=14, control=7, value=55, time=3),
    Message('control_change', channel=14, control=7, value=56, time=2),
    Message('control_change', channel=14, control=7, value=57, time=2),
    Message('control_change', channel=14, control=7, value=58, time=3),
    Message('control_change', channel=14, control=7, value=59, time=2),
    Message('control_change', channel=14, control=7, value=60, time=3),
    Message('control_change', channel=14, control=7, value=61, time=2),
    Message('control_change', channel=14, control=7, value=62, time=2),
    Message('control_change', channel=14, control=7, value=63, time=3),
    Message('control_change', channel=14, control=7, value=64, time=2),
    Message('control_change', channel=14, control=7, value=65, time=3),
    Message('control_change', channel=14, control=7, value=66, time=2),
    Message('control_change', channel=14, control=7, value=67, time=2),
    Message('control_change', channel=14, control=7, value=68, time=3),
    Message('control_change', channel=14, control=7, value=69, time=2),
    Message('control_change', channel=14, control=7, value=70, time=3),
    Message('control_change', channel=14, control=7, value=71, time=2),
    Message('control_change', channel=14, control=7, value=72, time=2),
    Message('control_change', channel=14, control=7, value=73, time=3),
    Message('control_change', channel=14, control=7, value=74, time=2),
    Message('control_change', channel=14, control=7, value=75, time=3),
    Message('control_change', channel=14, control=7, value=76, time=2),
    Message('control_change', channel=14, control=7, value=77, time=2),
    Message('control_change', channel=14, control=7, value=78, time=3),
    Message('control_change', channel=14, control=7, value=79, time=2),
    Message('control_change', channel=14, control=7, value=80, time=3),
    Message('control_change', channel=14, control=7, value=81, time=2),
    Message('control_change', channel=14, control=7, value=82, time=2),
    Message('control_change', channel=14, control=7, value=83, time=3),
    Message('control_change', channel=14, control=7, value=84, time=2),
    Message('control_change', channel=14, control=7, value=85, time=3),
    Message('control_change', channel=14, control=7, value=86, time=2),
    Message('control_change', channel=14, control=7, value=87, time=2),
    Message('control_change', channel=14, control=7, value=88, time=3),
    Message('control_change', channel=14, control=7, value=89, time=2),
    Message('control_change', channel=14, control=7, value=90, time=3),
    Message('control_change', channel=14, control=7, value=91, time=2),
    Message('control_change', channel=14, control=7, value=92, time=2),
    Message('control_change', channel=14, control=7, value=93, time=3),
    Message('control_change', channel=14, control=7, value=94, time=2),
    Message('control_change', channel=14, control=7, value=95, time=3),
    Message('control_change', channel=14, control=7, value=96, time=2),
    Message('control_change', channel=14, control=7, value=97, time=2),
    Message('control_change', channel=14, control=7, value=98, time=3),
    Message('control_change', channel=14, control=7, value=99, time=2),
    Message('control_change', channel=14, control=7, value=100, time=3),
    Message('control_change', channel=14, control=7, value=101, time=2),
    Message('control_change', channel=14, control=7, value=102, time=2),
    Message('control_change', channel=14, control=7, value=103, time=3),
    Message('note_off', channel=14, note=67, velocity=0, time=1),
    Message('note_off', channel=14, note=64, velocity=0, time=0),
    Message('control_change', channel=14, control=7, value=104, time=1),
    Message('control_change', channel=14, control=7, value=105, time=3),
    Message('control_change', channel=14, control=7, value=106, time=2),
    Message('control_change', channel=14, control=7, value=107, time=2),
    Message('control_change', channel=14, control=7, value=108, time=3),
    Message('control_change', channel=14, control=7, value=109, time=2),
    Message('control_change', channel=14, control=7, value=110, time=3),
    Message('note_on', channel=14, note=58, velocity=92, time=0),
    Message('note_off', channel=14, note=58, velocity=0, time=15),
    Message('note_on', channel=14, note=63, velocity=92, time=1),
    Message('note_off', channel=14, note=63, velocity=0, time=15),
    Message('note_on', channel=14, note=66, velocity=92, time=1),
    Message('control_change', channel=14, control=7, value=111, time=11),
    Message('note_off', channel=14, note=66, velocity=0, time=4),
    Message('note_on', channel=14, note=76, velocity=92, time=1),
    Message('note_on', channel=14, note=72, velocity=92, time=0),
    Message('control_change', channel=14, control=7, value=112, time=38),
    Message('control_change', channel=14, control=7, value=113, time=43),
    Message('control_change', channel=14, control=7, value=114, time=43),
    Message('control_change', channel=14, control=7, value=115, time=44),
    Message('control_change', channel=14, control=7, value=116, time=43),
    Message('control_change', channel=14, control=7, value=117, time=43),
    Message('control_change', channel=14, control=7, value=118, time=43),
    Message('control_change', channel=14, control=7, value=119, time=43),
    Message('note_off', channel=14, note=76, velocity=0, time=28),
    Message('note_off', channel=14, note=72, velocity=0, time=0),
    Message('control_change', channel=14, control=7, value=120, time=16),
    Message('note_on', channel=14, note=72, velocity=127, time=0),
    Message('note_on', channel=14, note=64, velocity=127, time=0),
    Message('note_on', channel=14, note=55, velocity=127, time=0),
    Message('note_on', channel=14, note=48, velocity=127, time=0),
    Message('note_off', channel=14, note=72, velocity=0, time=24),
    Message('note_off', channel=14, note=64, velocity=0, time=0),
    Message('note_off', channel=14, note=55, velocity=0, time=0),
    Message('note_off', channel=14, note=48, velocity=0, time=0),
    Message('control_change', channel=14, control=7, value=80, time=696),
    Message('note_on', channel=14, note=66, velocity=45, time=0),
    Message('note_on', channel=14, note=63, velocity=45, time=0),
    Message('control_change', channel=14, control=7, value=81, time=21),
    Message('note_off', channel=14, note=66, velocity=0, time=2),
    Message('note_off', channel=14, note=63, velocity=0, time=0),
    Message('note_on', channel=14, note=66, velocity=46, time=1),
    Message('note_on', channel=14, note=63, velocity=46, time=0),
    Message('control_change', channel=14, control=7, value=82, time=19),
    Message('note_off', channel=14, note=66, velocity=0, time=4),
    Message('note_off', channel=14, note=63, velocity=0, time=0),
    Message('note_on', channel=14, note=66, velocity=47, time=1),
    Message('note_on', channel=14, note=63, velocity=47, time=0),
    Message('control_change', channel=14, control=7, value=83, time=16),
    Message('note_off', channel=14, note=66, velocity=0, time=7),
    Message('note_off', channel=14, note=63, velocity=0, time=0),
    Message('note_on', channel=14, note=70, velocity=48, time=1),
    Message('note_on', channel=14, note=66, velocity=48, time=0),
    Message('control_change', channel=14, control=7, value=84, time=14),
    Message('note_off', channel=14, note=70, velocity=0, time=9),
    Message('note_off', channel=14, note=66, velocity=0, time=0),
    Message('note_on', channel=14, note=70, velocity=49, time=1),
    Message('note_on', channel=14, note=66, velocity=49, time=0),
    Message('control_change', channel=14, control=7, value=85, time=12),
    Message('note_off', channel=14, note=70, velocity=0, time=11),
    Message('note_off', channel=14, note=66, velocity=0, time=0),
    Message('note_on', channel=14, note=70, velocity=50, time=1),
    Message('note_on', channel=14, note=66, velocity=50, time=0),
    Message('control_change', channel=14, control=7, value=86, time=9),
    Message('note_off', channel=14, note=66, velocity=0, time=14),
    Message('note_off', channel=14, note=70, velocity=0, time=0),
    Message('note_on', channel=14, note=70, velocity=51, time=1),
    Message('note_on', channel=14, note=66, velocity=51, time=0),
    Message('control_change', channel=14, control=7, value=87, time=7),
    Message('note_off', channel=14, note=70, velocity=0, time=16),
    Message('note_off', channel=14, note=66, velocity=0, time=0),
    Message('note_on', channel=14, note=70, velocity=53, time=1),
    Message('note_on', channel=14, note=66, velocity=53, time=0),
    Message('control_change', channel=14, control=7, value=88, time=4),
    Message('note_off', channel=14, note=70, velocity=0, time=19),
    Message('note_off', channel=14, note=66, velocity=0, time=0),
    Message('note_on', channel=14, note=70, velocity=55, time=1),
    Message('note_on', channel=14, note=66, velocity=55, time=0),
    Message('control_change', channel=14, control=7, value=89, time=2),
    Message('note_off', channel=14, note=70, velocity=0, time=21),
    Message('note_off', channel=14, note=66, velocity=0, time=0),
    Message('control_change', channel=14, control=7, value=90, time=1),
    Message('note_on', channel=14, note=70, velocity=57, time=0),
    Message('note_on', channel=14, note=66, velocity=57, time=0),
    Message('control_change', channel=14, control=7, value=91, time=21),
    Message('note_off', channel=14, note=70, velocity=0, time=2),
    Message('note_off', channel=14, note=66, velocity=0, time=0),
    Message('note_on', channel=14, note=70, velocity=59, time=1),
    Message('note_on', channel=14, note=66, velocity=59, time=0),
    Message('control_change', channel=14, control=7, value=92, time=19),
    Message('note_off', channel=14, note=70, velocity=0, time=4),
    Message('note_off', channel=14, note=66, velocity=0, time=0),
    Message('note_on', channel=14, note=70, velocity=61, time=1),
    Message('note_on', channel=14, note=66, velocity=61, time=0),
    Message('control_change', channel=14, control=7, value=93, time=16),
    Message('note_off', channel=14, note=66, velocity=0, time=7),
    Message('note_off', channel=14, note=70, velocity=0, time=0),
    Message('note_on', channel=14, note=70, velocity=63, time=1),
    Message('note_on', channel=14, note=66, velocity=63, time=0),
    Message('control_change', channel=14, control=7, value=94, time=14),
    Message('note_off', channel=14, note=70, velocity=0, time=9),
    Message('note_off', channel=14, note=66, velocity=0, time=0),
    Message('note_on', channel=14, note=70, velocity=65, time=1),
    Message('note_on', channel=14, note=66, velocity=65, time=0),
    Message('control_change', channel=14, control=7, value=95, time=12),
    Message('note_off', channel=14, note=70, velocity=0, time=11),
    Message('note_off', channel=14, note=66, velocity=0, time=0),
    Message('note_on', channel=14, note=70, velocity=67, time=1),
    Message('note_on', channel=14, note=66, velocity=67, time=0),
    Message('control_change', channel=14, control=7, value=96, time=9),
    Message('note_off', channel=14, note=70, velocity=0, time=14),
    Message('note_off', channel=14, note=66, velocity=0, time=0),
    Message('note_on', channel=14, note=70, velocity=69, time=1),
    Message('note_on', channel=14, note=66, velocity=69, time=0),
    Message('control_change', channel=14, control=7, value=97, time=7),
    Message('note_off', channel=14, note=70, velocity=0, time=16),
    Message('note_off', channel=14, note=66, velocity=0, time=0),
    Message('note_on', channel=14, note=70, velocity=71, time=1),
    Message('note_on', channel=14, note=66, velocity=71, time=0),
    Message('control_change', channel=14, control=7, value=98, time=4),
    Message('note_off', channel=14, note=70, velocity=0, time=19),
    Message('note_off', channel=14, note=66, velocity=0, time=0),
    Message('note_on', channel=14, note=70, velocity=73, time=1),
    Message('note_on', channel=14, note=66, velocity=73, time=0),
    Message('control_change', channel=14, control=7, value=99, time=2),
    Message('note_off', channel=14, note=66, velocity=0, time=21),
    Message('note_off', channel=14, note=70, velocity=0, time=0),
    Message('control_change', channel=14, control=7, value=100, time=1),
    Message('note_on', channel=14, note=58, velocity=75, time=0),
    Message('note_on', channel=14, note=54, velocity=75, time=0),
    Message('note_off', channel=14, note=58, velocity=0, time=15),
    Message('note_off', channel=14, note=54, velocity=0, time=0),
    Message('note_on', channel=14, note=58, velocity=75, time=1),
    Message('note_on', channel=14, note=54, velocity=75, time=0),
    Message('note_off', channel=14, note=58, velocity=0, time=15),
    Message('note_off', channel=14, note=54, velocity=0, time=0),
    Message('note_on', channel=14, note=58, velocity=75, time=1),
    Message('note_on', channel=14, note=54, velocity=75, time=0),
    Message('note_off', channel=14, note=58, velocity=0, time=15),
    Message('note_off', channel=14, note=54, velocity=0, time=0),
    Message('note_on', channel=14, note=58, velocity=75, time=1),
    Message('note_on', channel=14, note=54, velocity=75, time=0),
    Message('note_off', channel=14, note=58, velocity=0, time=15),
    Message('note_off', channel=14, note=54, velocity=0, time=0),
    Message('note_on', channel=14, note=58, velocity=75, time=1),
    Message('note_on', channel=14, note=54, velocity=75, time=0),
    Message('note_off', channel=14, note=58, velocity=0, time=15),
    Message('note_off', channel=14, note=54, velocity=0, time=0),
    Message('note_on', channel=14, note=58, velocity=75, time=1),
    Message('note_on', channel=14, note=54, velocity=75, time=0),
    Message('note_off', channel=14, note=58, velocity=0, time=15),
    Message('note_off', channel=14, note=54, velocity=0, time=0),
    Message('note_on', channel=14, note=58, velocity=75, time=1),
    Message('note_on', channel=14, note=54, velocity=75, time=0),
    Message('note_off', channel=14, note=58, velocity=0, time=15),
    Message('note_off', channel=14, note=54, velocity=0, time=0),
    Message('note_on', channel=14, note=58, velocity=75, time=1),
    Message('note_on', channel=14, note=54, velocity=75, time=0),
    Message('note_off', channel=14, note=58, velocity=0, time=15),
    Message('note_off', channel=14, note=54, velocity=0, time=0),
    Message('note_on', channel=14, note=58, velocity=75, time=1),
    Message('note_on', channel=14, note=54, velocity=75, time=0),
    Message('note_off', channel=14, note=58, velocity=0, time=15),
    Message('note_off', channel=14, note=54, velocity=0, time=0),
    Message('note_on', channel=14, note=58, velocity=75, time=1),
    Message('note_on', channel=14, note=54, velocity=75, time=0),
    Message('note_off', channel=14, note=58, velocity=0, time=15),
    Message('note_off', channel=14, note=54, velocity=0, time=0),
    Message('note_on', channel=14, note=58, velocity=75, time=1),
    Message('note_on', channel=14, note=54, velocity=75, time=0),
    Message('note_off', channel=14, note=58, velocity=0, time=15),
    Message('note_off', channel=14, note=54, velocity=0, time=0),
    Message('note_on', channel=14, note=58, velocity=76, time=1),
    Message('note_on', channel=14, note=54, velocity=76, time=0),
    Message('note_off', channel=14, note=58, velocity=0, time=15),
    Message('note_off', channel=14, note=54, velocity=0, time=0),
    Message('note_on', channel=14, note=58, velocity=77, time=1),
    Message('note_on', channel=14, note=54, velocity=77, time=0),
    Message('note_off', channel=14, note=58, velocity=0, time=15),
    Message('note_off', channel=14, note=54, velocity=0, time=0),
    Message('note_on', channel=14, note=58, velocity=78, time=1),
    Message('note_on', channel=14, note=54, velocity=78, time=0),
    Message('note_off', channel=14, note=58, velocity=0, time=15),
    Message('note_off', channel=14, note=54, velocity=0, time=0),
    Message('note_on', channel=14, note=58, velocity=79, time=1),
    Message('note_on', channel=14, note=54, velocity=79, time=0),
    Message('note_off', channel=14, note=58, velocity=0, time=15),
    Message('note_off', channel=14, note=54, velocity=0, time=0),
    Message('note_on', channel=14, note=58, velocity=80, time=1),
    Message('note_on', channel=14, note=54, velocity=80, time=0),
    Message('note_off', channel=14, note=58, velocity=0, time=15),
    Message('note_off', channel=14, note=54, velocity=0, time=0),
    Message('note_on', channel=14, note=58, velocity=81, time=1),
    Message('note_on', channel=14, note=54, velocity=81, time=0),
    Message('note_off', channel=14, note=58, velocity=0, time=15),
    Message('note_off', channel=14, note=54, velocity=0, time=0),
    Message('note_on', channel=14, note=58, velocity=82, time=1),
    Message('note_on', channel=14, note=54, velocity=82, time=0),
    Message('note_off', channel=14, note=58, velocity=0, time=15),
    Message('note_off', channel=14, note=54, velocity=0, time=0),
    Message('note_on', channel=14, note=58, velocity=83, time=1),
    Message('note_on', channel=14, note=54, velocity=83, time=0),
    Message('note_off', channel=14, note=58, velocity=0, time=15),
    Message('note_off', channel=14, note=54, velocity=0, time=0),
    Message('note_on', channel=14, note=58, velocity=84, time=1),
    Message('note_on', channel=14, note=54, velocity=84, time=0),
    Message('note_off', channel=14, note=58, velocity=0, time=15),
    Message('note_off', channel=14, note=54, velocity=0, time=0),
    Message('note_on', channel=14, note=58, velocity=85, time=1),
    Message('note_on', channel=14, note=54, velocity=85, time=0),
    Message('note_off', channel=14, note=58, velocity=0, time=15),
    Message('note_off', channel=14, note=54, velocity=0, time=0),
    Message('note_on', channel=14, note=58, velocity=86, time=1),
    Message('note_on', channel=14, note=54, velocity=86, time=0),
    Message('note_off', channel=14, note=58, velocity=0, time=15),
    Message('note_off', channel=14, note=54, velocity=0, time=0),
    Message('note_on', channel=14, note=58, velocity=87, time=1),
    Message('note_on', channel=14, note=54, velocity=87, time=0),
    Message('note_off', channel=14, note=58, velocity=0, time=15),
    Message('note_off', channel=14, note=54, velocity=0, time=0),
    Message('note_on', channel=14, note=58, velocity=88, time=1),
    Message('note_on', channel=14, note=54, velocity=88, time=0),
    Message('note_off', channel=14, note=58, velocity=0, time=15),
    Message('note_off', channel=14, note=54, velocity=0, time=0),
    Message('note_on', channel=14, note=58, velocity=89, time=1),
    Message('note_on', channel=14, note=54, velocity=89, time=0),
    Message('note_off', channel=14, note=58, velocity=0, time=15),
    Message('note_off', channel=14, note=54, velocity=0, time=0),
    Message('note_on', channel=14, note=58, velocity=90, time=1),
    Message('note_on', channel=14, note=54, velocity=90, time=0),
    Message('note_off', channel=14, note=54, velocity=0, time=15),
    Message('note_off', channel=14, note=58, velocity=0, time=0),
    Message('note_on', channel=14, note=58, velocity=91, time=1),
    Message('note_on', channel=14, note=54, velocity=91, time=0),
    Message('note_off', channel=14, note=54, velocity=0, time=15),
    Message('note_off', channel=14, note=58, velocity=0, time=0),
    Message('note_on', channel=14, note=72, velocity=127, time=1),
    Message('note_on', channel=14, note=64, velocity=127, time=0),
    Message('note_on', channel=14, note=55, velocity=127, time=0),
    Message('note_on', channel=14, note=48, velocity=127, time=0),
    Message('note_off', channel=14, note=72, velocity=0, time=47),
    Message('note_off', channel=14, note=64, velocity=0, time=0),
    Message('note_off', channel=14, note=55, velocity=0, time=0),
    Message('note_off', channel=14, note=48, velocity=0, time=0),
    Message('control_change', channel=14, control=101, value=0, time=1249),
    Message('control_change', channel=14, control=100, value=0, time=0),
    Message('control_change', channel=14, control=6, value=12, time=0),
    Message('control_change', channel=14, control=10, value=64, time=0),
    Message('control_change', channel=14, control=7, value=100, time=0),
    Message('pitchwheel', channel=14, pitch=0, time=0),
    Message('program_change', channel=14, program=41, time=0),
    Message('program_change', channel=14, program=41, time=0),
    Message('control_change', channel=14, control=7, value=127, time=0),
    Message('control_change', channel=14, control=10, value=64, time=0),
    Message('control_change', channel=14, control=101, value=0, time=1),
    Message('control_change', channel=14, control=100, value=0, time=0),
    Message('control_change', channel=14, control=6, value=12, time=0),
    Message('control_change', channel=14, control=10, value=64, time=0),
    Message('control_change', channel=14, control=7, value=100, time=0),
    Message('pitchwheel', channel=14, pitch=0, time=0),
    Message('program_change', channel=14, program=41, time=0),
    MetaMessage('end_of_track', time=0)]),
  MidiTrack([
    MetaMessage('track_name', name='Cello', time=0),
    Message('control_change', channel=15, control=10, value=64, time=0),
    Message('control_change', channel=15, control=7, value=127, time=0),
    Message('pitchwheel', channel=15, pitch=0, time=0),
    Message('control_change', channel=15, control=101, value=0, time=0),
    Message('control_change', channel=15, control=100, value=0, time=0),
    Message('control_change', channel=15, control=6, value=12, time=0),
    Message('control_change', channel=15, control=10, value=64, time=0),
    Message('control_change', channel=15, control=7, value=127, time=0),
    Message('pitchwheel', channel=15, pitch=0, time=0),
    Message('program_change', channel=15, program=42, time=0),
    Message('program_change', channel=15, program=42, time=0),
    Message('control_change', channel=15, control=7, value=127, time=0),
    Message('control_change', channel=15, control=10, value=64, time=0),
    Message('control_change', channel=15, control=101, value=0, time=0),
    Message('control_change', channel=15, control=100, value=0, time=0),
    Message('control_change', channel=15, control=6, value=12, time=0),
    Message('control_change', channel=15, control=10, value=64, time=0),
    Message('control_change', channel=15, control=7, value=127, time=0),
    Message('pitchwheel', channel=15, pitch=0, time=0),
    Message('program_change', channel=15, program=42, time=0),
    Message('program_change', channel=15, program=42, time=0),
    Message('control_change', channel=15, control=7, value=127, time=0),
    Message('control_change', channel=15, control=10, value=64, time=0),
    Message('control_change', channel=15, control=101, value=0, time=0),
    Message('control_change', channel=15, control=100, value=0, time=0),
    Message('control_change', channel=15, control=6, value=12, time=0),
    Message('control_change', channel=15, control=10, value=64, time=0),
    Message('control_change', channel=15, control=7, value=127, time=0),
    Message('pitchwheel', channel=15, pitch=0, time=0),
    Message('program_change', channel=15, program=42, time=0),
    Message('program_change', channel=15, program=45, time=4656),
    Message('note_on', channel=15, note=64, velocity=30, time=0),
    Message('note_off', channel=15, note=64, velocity=0, time=128),
    Message('note_on', channel=15, note=59, velocity=30, time=16),
    Message('note_off', channel=15, note=59, velocity=0, time=128),
    Message('control_change', channel=15, control=7, value=80, time=16),
    Message('note_on', channel=15, note=64, velocity=45, time=0),
    Message('note_off', channel=15, note=64, velocity=0, time=128),
    Message('note_on', channel=15, note=59, velocity=45, time=16),
    Message('note_off', channel=15, note=59, velocity=0, time=128),
    Message('note_on', channel=15, note=60, velocity=45, time=16),
    Message('note_off', channel=15, note=60, velocity=0, time=128),
    Message('note_on', channel=15, note=54, velocity=45, time=16),
    Message('note_off', channel=15, note=54, velocity=0, time=128),
    Message('note_on', channel=15, note=59, velocity=45, time=16),
    Message('note_off', channel=15, note=59, velocity=0, time=128),
    Message('note_on', channel=15, note=52, velocity=45, time=16),
    Message('note_off', channel=15, note=52, velocity=0, time=128),
    Message('note_on', channel=15, note=55, velocity=45, time=16),
    Message('note_off', channel=15, note=55, velocity=0, time=128),
    Message('note_on', channel=15, note=54, velocity=45, time=16),
    Message('note_off', channel=15, note=54, velocity=0, time=128),
    Message('note_on', channel=15, note=64, velocity=45, time=16),
    Message('note_off', channel=15, note=64, velocity=0, time=128),
    Message('note_on', channel=15, note=64, velocity=45, time=16),
    Message('note_off', channel=15, note=64, velocity=0, time=128),
    Message('note_on', channel=15, note=64, velocity=45, time=16),
    Message('note_off', channel=15, note=64, velocity=0, time=128),
    Message('note_on', channel=15, note=64, velocity=45, time=16),
    Message('note_off', channel=15, note=64, velocity=0, time=128),
    Message('note_on', channel=15, note=59, velocity=45, time=16),
    Message('note_off', channel=15, note=59, velocity=0, time=128),
    Message('note_on', channel=15, note=54, velocity=45, time=16),
    Message('note_off', channel=15, note=54, velocity=0, time=128),
    Message('note_on', channel=15, note=59, velocity=45, time=16),
    Message('note_off', channel=15, note=59, velocity=0, time=128),
    Message('note_on', channel=15, note=47, velocity=45, time=16),
    Message('note_off', channel=15, note=47, velocity=0, time=128),
    Message('note_on', channel=15, note=64, velocity=45, time=16),
    Message('note_off', channel=15, note=64, velocity=0, time=128),
    Message('note_on', channel=15, note=52, velocity=45, time=16),
    Message('note_off', channel=15, note=52, velocity=0, time=128),
    Message('note_on', channel=15, note=43, velocity=45, time=16),
    Message('note_on', channel=15, note=50, velocity=45, time=24),
    Message('note_off', channel=15, note=50, velocity=0, time=23),
    Message('note_on', channel=15, note=58, velocity=45, time=1),
    Message('note_off', channel=15, note=43, velocity=0, time=80),
    Message('note_off', channel=15, note=58, velocity=0, time=0),
    Message('note_on', channel=15, note=41, velocity=45, time=16),
    Message('note_off', channel=15, note=41, velocity=0, time=23),
    Message('note_on', channel=15, note=48, velocity=45, time=1),
    Message('note_off', channel=15, note=48, velocity=0, time=23),
    Message('note_on', channel=15, note=56, velocity=45, time=1),
    Message('note_off', channel=15, note=56, velocity=0, time=80),
    Message('note_on', channel=15, note=45, velocity=45, time=16),
    Message('note_on', channel=15, note=52, velocity=45, time=24),
    Message('note_off', channel=15, note=52, velocity=0, time=23),
    Message('note_on', channel=15, note=60, velocity=45, time=1),
    Message('note_off', channel=15, note=45, velocity=0, time=80),
    Message('note_off', channel=15, note=60, velocity=0, time=0),
    Message('note_on', channel=15, note=42, velocity=45, time=16),
    Message('note_off', channel=15, note=42, velocity=0, time=23),
    Message('note_on', channel=15, note=49, velocity=45, time=1),
    Message('note_off', channel=15, note=49, velocity=0, time=23),
    Message('note_on', channel=15, note=58, velocity=45, time=1),
    Message('note_off', channel=15, note=58, velocity=0, time=47),
    Message('note_on', channel=15, note=52, velocity=45, time=1),
    Message('note_off', channel=15, note=52, velocity=0, time=47),
    Message('note_on', channel=15, note=64, velocity=45, time=1),
    Message('note_off', channel=15, note=64, velocity=0, time=128),
    Message('note_on', channel=15, note=59, velocity=45, time=16),
    Message('note_off', channel=15, note=59, velocity=0, time=128),
    Message('note_on', channel=15, note=52, velocity=45, time=16),
    Message('note_off', channel=15, note=52, velocity=0, time=128),
    Message('note_on', channel=15, note=40, velocity=45, time=16),
    Message('note_off', channel=15, note=40, velocity=0, time=128),
    Message('note_on', channel=15, note=52, velocity=45, time=16),
    Message('note_off', channel=15, note=52, velocity=0, time=128),
    Message('note_on', channel=15, note=40, velocity=45, time=16),
    Message('note_off', channel=15, note=40, velocity=0, time=128),
    Message('note_on', channel=15, note=52, velocity=45, time=16),
    Message('note_off', channel=15, note=52, velocity=0, time=128),
    Message('note_on', channel=15, note=40, velocity=45, time=16),
    Message('note_off', channel=15, note=40, velocity=0, time=128),
    Message('note_on', channel=15, note=52, velocity=45, time=16),
    Message('note_off', channel=15, note=52, velocity=0, time=128),
    Message('note_on', channel=15, note=40, velocity=45, time=16),
    Message('note_off', channel=15, note=40, velocity=0, time=128),
    Message('note_on', channel=15, note=40, velocity=45, time=16),
    Message('note_off', channel=15, note=40, velocity=0, time=80),
    Message('note_on', channel=15, note=40, velocity=45, time=16),
    Message('note_off', channel=15, note=40, velocity=0, time=47),
    Message('note_on', channel=15, note=52, velocity=45, time=1),
    Message('note_off', channel=15, note=52, velocity=0, time=80),
    Message('note_on', channel=15, note=52, velocity=45, time=16),
    Message('note_off', channel=15, note=52, velocity=0, time=47),
    Message('note_on', channel=15, note=50, velocity=45, time=1),
    Message('note_off', channel=15, note=50, velocity=0, time=47),
    Message('note_on', channel=15, note=58, velocity=45, time=1),
    Message('note_off', channel=15, note=58, velocity=0, time=47),
    Message('note_on', channel=15, note=43, velocity=45, time=1),
    Message('note_off', channel=15, note=43, velocity=0, time=47),
    Message('note_on', channel=15, note=48, velocity=45, time=1),
    Message('note_off', channel=15, note=48, velocity=0, time=47),
    Message('note_on', channel=15, note=56, velocity=45, time=1),
    Message('note_off', channel=15, note=56, velocity=0, time=47),
    Message('note_on', channel=15, note=41, velocity=45, time=1),
    Message('note_off', channel=15, note=41, velocity=0, time=47),
    Message('note_on', channel=15, note=52, velocity=45, time=1),
    Message('note_off', channel=15, note=52, velocity=0, time=47),
    Message('note_on', channel=15, note=57, velocity=45, time=1),
    Message('note_off', channel=15, note=57, velocity=0, time=47),
    Message('note_on', channel=15, note=45, velocity=45, time=1),
    Message('note_off', channel=15, note=45, velocity=0, time=47),
    Message('note_on', channel=15, note=48, velocity=45, time=1),
    Message('note_off', channel=15, note=48, velocity=0, time=47),
    Message('note_on', channel=15, note=60, velocity=45, time=1),
    Message('note_off', channel=15, note=60, velocity=0, time=47),
    Message('note_on', channel=15, note=70, velocity=45, time=1),
    Message('note_on', channel=15, note=63, velocity=45, time=0),
    Message('note_off', channel=15, note=70, velocity=0, time=47),
    Message('note_off', channel=15, note=63, velocity=0, time=0),
    Message('note_on', channel=15, note=67, velocity=45, time=1),
    Message('note_on', channel=15, note=64, velocity=45, time=0),
    Message('note_on', channel=15, note=58, velocity=45, time=0),
    Message('control_change', channel=15, control=7, value=79, time=14),
    Message('control_change', channel=15, control=7, value=78, time=14),
    Message('control_change', channel=15, control=7, value=77, time=15),
    Message('note_off', channel=15, note=67, velocity=0, time=4),
    Message('note_off', channel=15, note=64, velocity=0, time=0),
    Message('note_off', channel=15, note=58, velocity=0, time=0),
    Message('note_on', channel=15, note=67, velocity=40, time=1),
    Message('note_on', channel=15, note=64, velocity=40, time=0),
    Message('note_on', channel=15, note=55, velocity=40, time=0),
    Message('control_change', channel=15, control=7, value=76, time=9),
    Message('control_change', channel=15, control=7, value=75, time=14),
    Message('control_change', channel=15, control=7, value=74, time=15),
    Message('note_off', channel=15, note=67, velocity=0, time=9),
    Message('note_off', channel=15, note=64, velocity=0, time=0),
    Message('note_off', channel=15, note=55, velocity=0, time=0),
    Message('note_on', channel=15, note=76, velocity=35, time=1),
    Message('note_on', channel=15, note=70, velocity=35, time=0),
    Message('note_on', channel=15, note=55, velocity=35, time=0),
    Message('note_on', channel=15, note=46, velocity=35, time=0),
    Message('control_change', channel=15, control=7, value=73, time=4),
    Message('control_change', channel=15, control=7, value=72, time=15),
    Message('control_change', channel=15, control=7, value=71, time=14),
    Message('note_off', channel=15, note=46, velocity=0, time=14),
    Message('note_off', channel=15, note=76, velocity=0, time=0),
    Message('note_off', channel=15, note=70, velocity=0, time=0),
    Message('note_off', channel=15, note=55, velocity=0, time=0),
    Message('control_change', channel=15, control=7, value=70, time=0),
    Message('note_on', channel=15, note=88, velocity=30, time=1),
    Message('note_on', channel=15, note=79, velocity=30, time=0),
    Message('note_on', channel=15, note=71, velocity=30, time=0),
    Message('note_on', channel=15, note=64, velocity=30, time=0),
    Message('note_on', channel=15, note=52, velocity=30, time=0),
    Message('note_on', channel=15, note=40, velocity=30, time=0),
    Message('note_off', channel=15, note=88, velocity=0, time=47),
    Message('note_off', channel=15, note=79, velocity=0, time=0),
    Message('note_off', channel=15, note=71, velocity=0, time=0),
    Message('note_off', channel=15, note=64, velocity=0, time=0),
    Message('note_off', channel=15, note=52, velocity=0, time=0),
    Message('note_off', channel=15, note=40, velocity=0, time=0),
    Message('program_change', channel=15, program=42, time=1969),
    Message('control_change', channel=15, control=7, value=80, time=96),
    Message('note_on', channel=15, note=46, velocity=45, time=0),
    Message('note_off', channel=15, note=46, velocity=0, time=16),
    Message('note_on', channel=15, note=48, velocity=45, time=0),
    Message('note_off', channel=15, note=48, velocity=0, time=16),
    Message('note_on', channel=15, note=52, velocity=45, time=0),
    Message('note_off', channel=15, note=52, velocity=0, time=16),
    Message('note_on', channel=15, note=46, velocity=45, time=0),
    Message('note_off', channel=15, note=46, velocity=0, time=16),
    Message('note_on', channel=15, note=47, velocity=45, time=0),
    Message('note_off', channel=15, note=47, velocity=0, time=16),
    Message('note_on', channel=15, note=51, velocity=45, time=0),
    Message('note_off', channel=15, note=51, velocity=0, time=16),
    Message('note_on', channel=15, note=52, velocity=45, time=0),
    Message('note_off', channel=15, note=52, velocity=0, time=16),
    Message('note_on', channel=15, note=54, velocity=45, time=0),
    Message('note_off', channel=15, note=54, velocity=0, time=16),
    Message('note_on', channel=15, note=55, velocity=45, time=0),
    Message('note_off', channel=15, note=55, velocity=0, time=15),
    Message('note_on', channel=15, note=60, velocity=45, time=1),
    Message('note_off', channel=15, note=60, velocity=0, time=16),
    Message('note_on', channel=15, note=59, velocity=45, time=0),
    Message('note_off', channel=15, note=59, velocity=0, time=16),
    Message('note_on', channel=15, note=55, velocity=45, time=0),
    Message('note_off', channel=15, note=55, velocity=0, time=16),
    Message('note_on', channel=15, note=52, velocity=45, time=0),
    Message('note_off', channel=15, note=52, velocity=0, time=47),
    Message('control_change', channel=15, control=7, value=100, time=3313),
    Message('note_on', channel=15, note=52, velocity=75, time=0),
    Message('note_off', channel=15, note=52, velocity=0, time=24),
    Message('note_on', channel=15, note=50, velocity=75, time=0),
    Message('note_off', channel=15, note=50, velocity=0, time=24),
    Message('note_on', channel=15, note=48, velocity=75, time=0),
    Message('note_off', channel=15, note=48, velocity=0, time=24),
    Message('note_on', channel=15, note=47, velocity=75, time=0),
    Message('note_off', channel=15, note=47, velocity=0, time=24),
    Message('note_on', channel=15, note=45, velocity=75, time=0),
    Message('note_off', channel=15, note=45, velocity=0, time=47),
    Message('note_on', channel=15, note=52, velocity=75, time=1393),
    Message('note_off', channel=15, note=52, velocity=0, time=24),
    Message('note_on', channel=15, note=50, velocity=75, time=0),
    Message('note_off', channel=15, note=50, velocity=0, time=24),
    Message('note_on', channel=15, note=48, velocity=75, time=0),
    Message('note_off', channel=15, note=48, velocity=0, time=24),
    Message('note_on', channel=15, note=47, velocity=75, time=0),
    Message('note_off', channel=15, note=47, velocity=0, time=24),
    Message('note_on', channel=15, note=45, velocity=75, time=0),
    Message('note_off', channel=15, note=45, velocity=0, time=47),
    Message('note_on', channel=15, note=53, velocity=75, time=241),
    Message('note_off', channel=15, note=53, velocity=0, time=24),
    Message('note_on', channel=15, note=51, velocity=75, time=0),
    Message('note_off', channel=15, note=51, velocity=0, time=24),
    Message('note_on', channel=15, note=49, velocity=75, time=0),
    Message('note_off', channel=15, note=49, velocity=0, time=24),
    Message('note_on', channel=15, note=48, velocity=75, time=0),
    Message('note_off', channel=15, note=48, velocity=0, time=24),
    Message('note_on', channel=15, note=46, velocity=75, time=0),
    Message('note_off', channel=15, note=46, velocity=0, time=47),
    Message('note_on', channel=15, note=52, velocity=75, time=241),
    Message('note_off', channel=15, note=52, velocity=0, time=24),
    Message('note_on', channel=15, note=50, velocity=75, time=0),
    Message('note_off', channel=15, note=50, velocity=0, time=24),
    Message('note_on', channel=15, note=48, velocity=75, time=0),
    Message('note_off', channel=15, note=48, velocity=0, time=24),
    Message('note_on', channel=15, note=47, velocity=75, time=0),
    Message('note_off', channel=15, note=47, velocity=0, time=24),
    Message('note_on', channel=15, note=45, velocity=75, time=0),
    Message('note_off', channel=15, note=45, velocity=0, time=47),
    Message('note_on', channel=15, note=60, velocity=75, time=193),
    Message('control_change', channel=15, control=7, value=99, time=5),
    Message('control_change', channel=15, control=7, value=98, time=6),
    Message('control_change', channel=15, control=7, value=97, time=5),
    Message('control_change', channel=15, control=7, value=96, time=6),
    Message('control_change', channel=15, control=7, value=95, time=5),
    Message('control_change', channel=15, control=7, value=94, time=6),
    Message('control_change', channel=15, control=7, value=93, time=6),
    Message('control_change', channel=15, control=7, value=92, time=5),
    Message('note_off', channel=15, note=60, velocity=0, time=3),
    Message('note_on', channel=15, note=53, velocity=66, time=1),
    Message('control_change', channel=15, control=7, value=91, time=2),
    Message('control_change', channel=15, control=7, value=90, time=5),
    Message('control_change', channel=15, control=7, value=89, time=6),
    Message('control_change', channel=15, control=7, value=88, time=6),
    Message('control_change', channel=15, control=7, value=87, time=5),
    Message('control_change', channel=15, control=7, value=86, time=6),
    Message('control_change', channel=15, control=7, value=85, time=5),
    Message('control_change', channel=15, control=7, value=84, time=6),
    Message('note_off', channel=15, note=53, velocity=0, time=6),
    Message('control_change', channel=15, control=7, value=83, time=0),
    Message('note_on', channel=15, note=48, velocity=57, time=1),
    Message('control_change', channel=15, control=7, value=82, time=4),
    Message('control_change', channel=15, control=7, value=81, time=6),
    Message('control_change', channel=15, control=7, value=80, time=5),
    Message('control_change', channel=15, control=7, value=79, time=6),
    Message('control_change', channel=15, control=7, value=78, time=6),
    Message('control_change', channel=15, control=7, value=77, time=5),
    Message('control_change', channel=15, control=7, value=76, time=6),
    Message('control_change', channel=15, control=7, value=75, time=5),
    Message('note_off', channel=15, note=48, velocity=0, time=4),
    Message('note_on', channel=15, note=47, velocity=48, time=1),
    Message('control_change', channel=15, control=7, value=74, time=1),
    Message('control_change', channel=15, control=7, value=73, time=6),
    Message('control_change', channel=15, control=7, value=72, time=5),
    Message('control_change', channel=15, control=7, value=71, time=6),
    Message('control_change', channel=15, control=7, value=70, time=5),
    Message('control_change', channel=15, control=7, value=69, time=6),
    Message('control_change', channel=15, control=7, value=68, time=6),
    Message('control_change', channel=15, control=7, value=67, time=5),
    Message('control_change', channel=15, control=7, value=66, time=6),
    Message('control_change', channel=15, control=7, value=65, time=5),
    Message('control_change', channel=15, control=7, value=64, time=6),
    Message('control_change', channel=15, control=7, value=63, time=6),
    Message('control_change', channel=15, control=7, value=62, time=5),
    Message('control_change', channel=15, control=7, value=61, time=6),
    Message('control_change', channel=15, control=7, value=60, time=5),
    Message('note_off', channel=15, note=47, velocity=0, time=1),
    Message('control_change', channel=15, control=7, value=59, time=5),
    Message('control_change', channel=15, control=7, value=58, time=6),
    Message('control_change', channel=15, control=7, value=57, time=5),
    Message('control_change', channel=15, control=7, value=56, time=6),
    Message('control_change', channel=15, control=7, value=55, time=5),
    Message('control_change', channel=15, control=7, value=54, time=6),
    Message('control_change', channel=15, control=7, value=53, time=6),
    Message('control_change', channel=15, control=7, value=52, time=5),
    Message('control_change', channel=15, control=7, value=51, time=6),
    Message('control_change', channel=15, control=7, value=50, time=5),
    Message('control_change', channel=15, control=7, value=49, time=6),
    Message('control_change', channel=15, control=7, value=48, time=6),
    Message('control_change', channel=15, control=7, value=47, time=5),
    Message('control_change', channel=15, control=7, value=46, time=6),
    Message('control_change', channel=15, control=7, value=45, time=5),
    Message('control_change', channel=15, control=7, value=44, time=6),
    Message('control_change', channel=15, control=7, value=43, time=6),
    Message('control_change', channel=15, control=7, value=42, time=5),
    Message('control_change', channel=15, control=7, value=41, time=6),
    Message('control_change', channel=15, control=7, value=40, time=5),
    Message('program_change', channel=15, program=45, time=1153),
    Message('control_change', channel=15, control=7, value=90, time=288),
    Message('note_on', channel=15, note=52, velocity=60, time=0),
    Message('note_off', channel=15, note=52, velocity=0, time=80),
    Message('note_on', channel=15, note=45, velocity=60, time=16),
    Message('note_off', channel=15, note=45, velocity=0, time=80),
    Message('control_change', channel=15, control=7, value=80, time=1456),
    Message('note_on', channel=15, note=48, velocity=45, time=96),
    Message('note_off', channel=15, note=48, velocity=0, time=80),
    Message('note_on', channel=15, note=47, velocity=45, time=16),
    Message('note_off', channel=15, note=47, velocity=0, time=80),
    Message('note_on', channel=15, note=40, velocity=45, time=16),
    Message('note_off', channel=15, note=40, velocity=0, time=80),
    Message('control_change', channel=15, control=7, value=90, time=1456),
    Message('note_on', channel=15, note=52, velocity=60, time=0),
    Message('note_off', channel=15, note=52, velocity=0, time=80),
    Message('note_on', channel=15, note=45, velocity=60, time=16),
    Message('note_off', channel=15, note=45, velocity=0, time=80),
    Message('program_change', channel=15, program=42, time=1840),
    Message('note_on', channel=15, note=52, velocity=60, time=0),
    Message('note_off', channel=15, note=52, velocity=0, time=24),
    Message('note_on', channel=15, note=50, velocity=60, time=0),
    Message('note_off', channel=15, note=50, velocity=0, time=24),
    Message('note_on', channel=15, note=48, velocity=60, time=0),
    Message('note_off', channel=15, note=48, velocity=0, time=24),
    Message('note_on', channel=15, note=47, velocity=60, time=0),
    Message('note_off', channel=15, note=47, velocity=0, time=24),
    Message('note_on', channel=15, note=45, velocity=60, time=0),
    Message('note_off', channel=15, note=45, velocity=0, time=47),
    Message('note_on', channel=15, note=57, velocity=60, time=49),
    Message('control_change', channel=15, control=7, value=91, time=14),
    Message('note_off', channel=15, note=57, velocity=0, time=10),
    Message('note_on', channel=15, note=55, velocity=62, time=0),
    Message('control_change', channel=15, control=7, value=92, time=4),
    Message('control_change', channel=15, control=7, value=93, time=15),
    Message('note_off', channel=15, note=55, velocity=0, time=5),
    Message('note_on', channel=15, note=54, velocity=64, time=0),
    Message('control_change', channel=15, control=7, value=94, time=9),
    Message('control_change', channel=15, control=7, value=95, time=14),
    Message('note_off', channel=15, note=54, velocity=0, time=1),
    Message('note_on', channel=15, note=53, velocity=66, time=0),
    Message('control_change', channel=15, control=7, value=96, time=14),
    Message('note_off', channel=15, note=53, velocity=0, time=10),
    Message('note_on', channel=15, note=52, velocity=69, time=0),
    Message('control_change', channel=15, control=7, value=97, time=4),
    Message('control_change', channel=15, control=7, value=98, time=15),
    Message('control_change', channel=15, control=7, value=99, time=14),
    Message('note_off', channel=15, note=52, velocity=0, time=14),
    Message('control_change', channel=15, control=7, value=100, time=0),
    Message('note_on', channel=15, note=64, velocity=75, time=49),
    Message('note_off', channel=15, note=64, velocity=0, time=24),
    Message('note_on', channel=15, note=62, velocity=76, time=0),
    Message('control_change', channel=15, control=7, value=101, time=4),
    Message('note_off', channel=15, note=62, velocity=0, time=20),
    Message('note_on', channel=15, note=60, velocity=77, time=0),
    Message('control_change', channel=15, control=7, value=102, time=9),
    Message('note_off', channel=15, note=60, velocity=0, time=15),
    Message('note_on', channel=15, note=59, velocity=78, time=0),
    Message('control_change', channel=15, control=7, value=103, time=14),
    Message('note_off', channel=15, note=59, velocity=0, time=10),
    Message('note_on', channel=15, note=57, velocity=79, time=0),
    Message('control_change', channel=15, control=7, value=104, time=19),
    Message('note_off', channel=15, note=57, velocity=0, time=28),
    Message('control_change', channel=15, control=7, value=105, time=0),
    Message('control_change', channel=15, control=7, value=106, time=29),
    Message('control_change', channel=15, control=7, value=107, time=29),
    Message('control_change', channel=15, control=7, value=108, time=29),
    Message('control_change', channel=15, control=7, value=109, time=29),
    Message('control_change', channel=15, control=7, value=110, time=28),
    Message('note_on', channel=15, note=50, velocity=92, time=1),
    Message('control_change', channel=15, control=7, value=111, time=9),
    Message('control_change', channel=15, control=7, value=112, time=10),
    Message('note_off', channel=15, note=50, velocity=0, time=5),
    Message('note_on', channel=15, note=48, velocity=96, time=0),
    Message('control_change', channel=15, control=7, value=113, time=4),
    Message('control_change', channel=15, control=7, value=114, time=10),
    Message('note_off', channel=15, note=48, velocity=0, time=10),
    Message('control_change', channel=15, control=7, value=115, time=0),
    Message('note_on', channel=15, note=47, velocity=100, time=0),
    Message('control_change', channel=15, control=7, value=116, time=9),
    Message('control_change', channel=15, control=7, value=117, time=10),
    Message('note_off', channel=15, note=47, velocity=0, time=5),
    Message('note_on', channel=15, note=46, velocity=104, time=0),
    Message('control_change', channel=15, control=7, value=118, time=4),
    Message('control_change', channel=15, control=7, value=119, time=10),
    Message('note_off', channel=15, note=46, velocity=0, time=10),
    Message('control_change', channel=15, control=7, value=120, time=0),
    Message('note_on', channel=15, note=45, velocity=108, time=0),
    Message('note_off', channel=15, note=45, velocity=0, time=47),
    Message('control_change', channel=15, control=7, value=100, time=145),
    Message('note_on', channel=15, note=52, velocity=75, time=0),
    Message('control_change', channel=15, control=7, value=101, time=19),
    Message('control_change', channel=15, control=7, value=102, time=19),
    Message('control_change', channel=15, control=7, value=103, time=19),
    Message('control_change', channel=15, control=7, value=104, time=19),
    Message('control_change', channel=15, control=7, value=105, time=20),
    Message('control_change', channel=15, control=7, value=106, time=19),
    Message('control_change', channel=15, control=7, value=107, time=19),
    Message('control_change', channel=15, control=7, value=108, time=19),
    Message('note_off', channel=15, note=52, velocity=0, time=15),
    Message('control_change', channel=15, control=7, value=109, time=4),
    Message('control_change', channel=15, control=7, value=110, time=20),
    Message('note_on', channel=15, note=45, velocity=92, time=0),
    Message('note_off', channel=15, note=45, velocity=0, time=264),
    Message('note_on', channel=15, note=45, velocity=92, time=24),
    Message('note_off', channel=15, note=45, velocity=0, time=80),
    Message('note_on', channel=15, note=45, velocity=92, time=16),
    Message('note_off', channel=15, note=45, velocity=0, time=264),
    Message('note_on', channel=15, note=45, velocity=92, time=24),
    Message('note_off', channel=15, note=45, velocity=0, time=80),
    Message('note_on', channel=15, note=45, velocity=92, time=16),
    Message('note_off', channel=15, note=45, velocity=0, time=264),
    Message('note_on', channel=15, note=45, velocity=92, time=24),
    Message('note_off', channel=15, note=45, velocity=0, time=80),
    Message('note_on', channel=15, note=45, velocity=92, time=16),
    Message('note_off', channel=15, note=45, velocity=0, time=168),
    Message('note_on', channel=15, note=41, velocity=92, time=24),
    Message('note_off', channel=15, note=41, velocity=0, time=168),
    Message('note_on', channel=15, note=45, velocity=92, time=24),
    Message('note_off', channel=15, note=45, velocity=0, time=360),
    Message('note_on', channel=15, note=48, velocity=92, time=24),
    Message('note_off', channel=15, note=48, velocity=0, time=192),
    Message('note_on', channel=15, note=46, velocity=92, time=0),
    Message('note_off', channel=15, note=46, velocity=0, time=168),
    Message('note_on', channel=15, note=53, velocity=92, time=24),
    Message('note_off', channel=15, note=53, velocity=0, time=192),
    Message('note_on', channel=15, note=45, velocity=92, time=0),
    Message('note_off', channel=15, note=45, velocity=0, time=168),
    Message('control_change', channel=15, control=7, value=100, time=24),
    Message('note_on', channel=15, note=41, velocity=75, time=0),
    Message('control_change', channel=15, control=7, value=101, time=38),
    Message('control_change', channel=15, control=7, value=102, time=38),
    Message('control_change', channel=15, control=7, value=103, time=39),
    Message('control_change', channel=15, control=7, value=104, time=38),
    Message('note_off', channel=15, note=41, velocity=0, time=39),
    Message('control_change', channel=15, control=7, value=105, time=0),
    Message('note_on', channel=15, note=47, velocity=83, time=0),
    Message('control_change', channel=15, control=7, value=106, time=38),
    Message('control_change', channel=15, control=7, value=107, time=38),
    Message('control_change', channel=15, control=7, value=108, time=39),
    Message('control_change', channel=15, control=7, value=109, time=38),
    Message('note_off', channel=15, note=47, velocity=0, time=15),
    Message('control_change', channel=15, control=7, value=110, time=24),
    Message('note_on', channel=15, note=53, velocity=92, time=0),
    Message('note_on', channel=15, note=41, velocity=92, time=0),
    Message('note_off', channel=15, note=53, velocity=0, time=168),
    Message('note_off', channel=15, note=41, velocity=0, time=0),
    Message('note_on', channel=15, note=52, velocity=92, time=24),
    Message('note_on', channel=15, note=40, velocity=92, time=0),
    Message('note_off', channel=15, note=52, velocity=0, time=168),
    Message('note_off', channel=15, note=40, velocity=0, time=0),
    Message('control_change', channel=15, control=7, value=100, time=24),
    Message('note_on', channel=15, note=45, velocity=75, time=96),
    Message('note_off', channel=15, note=45, velocity=0, time=80),
    Message('note_on', channel=15, note=45, velocity=75, time=304),
    Message('note_off', channel=15, note=45, velocity=0, time=16),
    Message('note_on', channel=15, note=45, velocity=75, time=32),
    Message('note_off', channel=15, note=45, velocity=0, time=16),
    Message('note_on', channel=15, note=41, velocity=75, time=512),
    Message('note_off', channel=15, note=41, velocity=0, time=16),
    Message('note_on', channel=15, note=40, velocity=75, time=32),
    Message('note_off', channel=15, note=40, velocity=0, time=16),
    Message('note_on', channel=15, note=45, velocity=75, time=32),
    Message('note_off', channel=15, note=45, velocity=0, time=431),
    Message('note_on', channel=15, note=45, velocity=75, time=49),
    Message('note_off', channel=15, note=45, velocity=0, time=24),
    Message('note_on', channel=15, note=41, velocity=75, time=168),
    Message('note_off', channel=15, note=41, velocity=0, time=16),
    Message('note_on', channel=15, note=40, velocity=75, time=32),
    Message('note_off', channel=15, note=40, velocity=0, time=16),
    Message('note_on', channel=15, note=53, velocity=105, time=128),
    Message('note_off', channel=15, note=53, velocity=0, time=32),
    Message('note_on', channel=15, note=52, velocity=75, time=0),
    Message('note_off', channel=15, note=52, velocity=0, time=32),
    Message('note_on', channel=15, note=50, velocity=75, time=0),
    Message('note_off', channel=15, note=50, velocity=0, time=32),
    Message('note_on', channel=15, note=52, velocity=75, time=0),
    Message('note_off', channel=15, note=52, velocity=0, time=32),
    Message('note_on', channel=15, note=50, velocity=75, time=0),
    Message('note_off', channel=15, note=50, velocity=0, time=32),
    Message('note_on', channel=15, note=48, velocity=75, time=0),
    Message('note_off', channel=15, note=48, velocity=0, time=31),
    Message('note_on', channel=15, note=50, velocity=75, time=1),
    Message('note_off', channel=15, note=50, velocity=0, time=32),
    Message('note_on', channel=15, note=48, velocity=75, time=0),
    Message('note_off', channel=15, note=48, velocity=0, time=32),
    Message('note_on', channel=15, note=47, velocity=75, time=0),
    Message('note_off', channel=15, note=47, velocity=0, time=31),
    Message('note_on', channel=15, note=52, velocity=75, time=1),
    Message('note_off', channel=15, note=52, velocity=0, time=32),
    Message('note_on', channel=15, note=50, velocity=75, time=0),
    Message('note_off', channel=15, note=50, velocity=0, time=32),
    Message('note_on', channel=15, note=48, velocity=75, time=0),
    Message('note_off', channel=15, note=48, velocity=0, time=32),
    Message('note_on', channel=15, note=50, velocity=75, time=0),
    Message('note_off', channel=15, note=50, velocity=0, time=32),
    Message('note_on', channel=15, note=48, velocity=75, time=0),
    Message('note_off', channel=15, note=48, velocity=0, time=32),
    Message('note_on', channel=15, note=47, velocity=75, time=0),
    Message('note_off', channel=15, note=47, velocity=0, time=31),
    Message('note_on', channel=15, note=45, velocity=75, time=1),
    Message('note_off', channel=15, note=45, velocity=0, time=168),
    Message('note_on', channel=15, note=60, velocity=75, time=120),
    Message('note_on', channel=15, note=48, velocity=75, time=0),
    Message('note_off', channel=15, note=60, velocity=0, time=24),
    Message('note_off', channel=15, note=48, velocity=0, time=0),
    Message('note_on', channel=15, note=58, velocity=75, time=0),
    Message('note_on', channel=15, note=46, velocity=75, time=0),
    Message('note_off', channel=15, note=46, velocity=0, time=24),
    Message('note_off', channel=15, note=58, velocity=0, time=0),
    Message('note_on', channel=15, note=57, velocity=75, time=0),
    Message('note_on', channel=15, note=45, velocity=75, time=0),
    Message('note_off', channel=15, note=45, velocity=0, time=24),
    Message('note_off', channel=15, note=57, velocity=0, time=0),
    Message('note_on', channel=15, note=56, velocity=75, time=0),
    Message('note_on', channel=15, note=44, velocity=75, time=0),
    Message('note_off', channel=15, note=44, velocity=0, time=24),
    Message('note_off', channel=15, note=56, velocity=0, time=0),
    Message('note_on', channel=15, note=55, velocity=75, time=0),
    Message('note_on', channel=15, note=43, velocity=75, time=0),
    Message('note_off', channel=15, note=43, velocity=0, time=16),
    Message('note_off', channel=15, note=55, velocity=0, time=0),
    Message('note_on', channel=15, note=43, velocity=75, time=80),
    Message('note_off', channel=15, note=43, velocity=0, time=24),
    Message('note_on', channel=15, note=48, velocity=75, time=168),
    Message('note_off', channel=15, note=48, velocity=0, time=168),
    Message('note_on', channel=15, note=43, velocity=75, time=24),
    Message('note_off', channel=15, note=43, velocity=0, time=80),
    Message('note_on', channel=15, note=48, velocity=75, time=112),
    Message('note_off', channel=15, note=48, velocity=0, time=31),
    Message('note_on', channel=15, note=48, velocity=75, time=1),
    Message('note_off', channel=15, note=48, velocity=0, time=31),
    Message('note_on', channel=15, note=48, velocity=75, time=1),
    Message('note_off', channel=15, note=48, velocity=0, time=31),
    Message('note_on', channel=15, note=48, velocity=75, time=1),
    Message('note_off', channel=15, note=48, velocity=0, time=47),
    Message('note_on', channel=15, note=65, velocity=75, time=49),
    Message('note_off', channel=15, note=65, velocity=0, time=16),
    Message('note_on', channel=15, note=67, velocity=75, time=32),
    Message('note_off', channel=15, note=67, velocity=0, time=16),
    Message('note_on', channel=15, note=68, velocity=75, time=32),
    Message('note_off', channel=15, note=68, velocity=0, time=48),
    Message('note_on', channel=15, note=67, velocity=75, time=0),
    Message('note_off', channel=15, note=67, velocity=0, time=47),
    Message('note_on', channel=15, note=65, velocity=75, time=1),
    Message('note_off', channel=15, note=65, velocity=0, time=16),
    Message('note_on', channel=15, note=63, velocity=75, time=32),
    Message('note_off', channel=15, note=63, velocity=0, time=16),
    Message('note_on', channel=15, note=62, velocity=75, time=32),
    Message('note_off', channel=15, note=62, velocity=0, time=48),
    Message('note_on', channel=15, note=60, velocity=75, time=0),
    Message('note_off', channel=15, note=60, velocity=0, time=16),
    Message('note_on', channel=15, note=41, velocity=75, time=416),
    Message('note_off', channel=15, note=41, velocity=0, time=16),
    Message('note_on', channel=15, note=43, velocity=75, time=32),
    Message('note_off', channel=15, note=43, velocity=0, time=16),
    Message('note_on', channel=15, note=44, velocity=75, time=32),
    Message('note_off', channel=15, note=44, velocity=0, time=48),
    Message('note_on', channel=15, note=43, velocity=75, time=0),
    Message('note_off', channel=15, note=43, velocity=0, time=47),
    Message('note_on', channel=15, note=41, velocity=75, time=1),
    Message('note_off', channel=15, note=41, velocity=0, time=16),
    Message('note_on', channel=15, note=39, velocity=75, time=32),
    Message('note_off', channel=15, note=39, velocity=0, time=16),
    Message('note_on', channel=15, note=38, velocity=75, time=32),
    Message('note_off', channel=15, note=38, velocity=0, time=48),
    Message('note_on', channel=15, note=36, velocity=75, time=0),
    Message('note_off', channel=15, note=36, velocity=0, time=16),
    Message('note_on', channel=15, note=53, velocity=75, time=224),
    Message('note_off', channel=15, note=53, velocity=0, time=32),
    Message('note_on', channel=15, note=51, velocity=75, time=0),
    Message('note_off', channel=15, note=51, velocity=0, time=32),
    Message('note_on', channel=15, note=50, velocity=75, time=0),
    Message('note_off', channel=15, note=50, velocity=0, time=31),
    Message('note_on', channel=15, note=55, velocity=105, time=1),
    Message('note_off', channel=15, note=55, velocity=0, time=32),
    Message('note_on', channel=15, note=53, velocity=75, time=0),
    Message('note_off', channel=15, note=53, velocity=0, time=32),
    Message('note_on', channel=15, note=51, velocity=75, time=0),
    Message('note_off', channel=15, note=51, velocity=0, time=32),
    Message('note_on', channel=15, note=50, velocity=75, time=0),
    Message('note_off', channel=15, note=50, velocity=0, time=32),
    Message('note_on', channel=15, note=48, velocity=75, time=0),
    Message('note_off', channel=15, note=48, velocity=0, time=32),
    Message('note_on', channel=15, note=47, velocity=75, time=0),
    Message('note_off', channel=15, note=47, velocity=0, time=31),
    Message('note_on', channel=15, note=60, velocity=75, time=97),
    Message('note_off', channel=15, note=60, velocity=0, time=32),
    Message('note_on', channel=15, note=58, velocity=75, time=0),
    Message('note_off', channel=15, note=58, velocity=0, time=32),
    Message('note_on', channel=15, note=56, velocity=75, time=0),
    Message('note_off', channel=15, note=56, velocity=0, time=31),
    Message('note_on', channel=15, note=55, velocity=105, time=1),
    Message('note_off', channel=15, note=55, velocity=0, time=32),
    Message('note_on', channel=15, note=53, velocity=75, time=0),
    Message('note_off', channel=15, note=53, velocity=0, time=32),
    Message('note_on', channel=15, note=51, velocity=75, time=0),
    Message('note_off', channel=15, note=51, velocity=0, time=32),
    Message('note_on', channel=15, note=50, velocity=75, time=0),
    Message('note_off', channel=15, note=50, velocity=0, time=32),
    Message('note_on', channel=15, note=48, velocity=75, time=0),
    Message('note_off', channel=15, note=48, velocity=0, time=32),
    Message('note_on', channel=15, note=47, velocity=75, time=0),
    Message('note_off', channel=15, note=47, velocity=0, time=31),
    Message('note_on', channel=15, note=44, velocity=105, time=1),
    Message('note_off', channel=15, note=44, velocity=0, time=32),
    Message('note_on', channel=15, note=43, velocity=75, time=0),
    Message('note_off', channel=15, note=43, velocity=0, time=32),
    Message('note_on', channel=15, note=41, velocity=75, time=0),
    Message('note_off', channel=15, note=41, velocity=0, time=31),
    Message('note_on', channel=15, note=41, velocity=75, time=97),
    Message('note_off', channel=15, note=41, velocity=0, time=32),
    Message('note_on', channel=15, note=39, velocity=75, time=0),
    Message('note_off', channel=15, note=39, velocity=0, time=32),
    Message('note_on', channel=15, note=38, velocity=75, time=0),
    Message('note_off', channel=15, note=38, velocity=0, time=31),
    Message('note_on', channel=15, note=53, velocity=75, time=193),
    Message('control_change', channel=15, control=7, value=101, time=28),
    Message('note_off', channel=15, note=53, velocity=0, time=4),
    Message('note_on', channel=15, note=51, velocity=76, time=0),
    Message('control_change', channel=15, control=7, value=102, time=25),
    Message('note_off', channel=15, note=51, velocity=0, time=7),
    Message('note_on', channel=15, note=50, velocity=78, time=0),
    Message('control_change', channel=15, control=7, value=103, time=22),
    Message('note_off', channel=15, note=50, velocity=0, time=10),
    Message('note_on', channel=15, note=48, velocity=80, time=0),
    Message('control_change', channel=15, control=7, value=104, time=19),
    Message('note_off', channel=15, note=48, velocity=0, time=13),
    Message('note_on', channel=15, note=47, velocity=82, time=0),
    Message('control_change', channel=15, control=7, value=105, time=15),
    Message('note_off', channel=15, note=47, velocity=0, time=6),
    Message('control_change', channel=15, control=7, value=106, time=23),
    Message('note_on', channel=15, note=46, velocity=86, time=20),
    Message('control_change', channel=15, control=7, value=107, time=9),
    Message('note_off', channel=15, note=46, velocity=0, time=23),
    Message('note_on', channel=15, note=44, velocity=88, time=0),
    Message('control_change', channel=15, control=7, value=108, time=6),
    Message('note_off', channel=15, note=44, velocity=0, time=26),
    Message('note_on', channel=15, note=43, velocity=90, time=0),
    Message('control_change', channel=15, control=7, value=109, time=3),
    Message('note_off', channel=15, note=43, velocity=0, time=28),
    Message('control_change', channel=15, control=7, value=110, time=0),
    Message('note_on', channel=15, note=48, velocity=92, time=97),
    Message('note_off', channel=15, note=48, velocity=0, time=648),
    Message('note_on', channel=15, note=48, velocity=92, time=504),
    Message('note_off', channel=15, note=48, velocity=0, time=24),
    Message('note_on', channel=15, note=47, velocity=92, time=0),
    Message('note_off', channel=15, note=47, velocity=0, time=24),
    Message('note_on', channel=15, note=46, velocity=92, time=0),
    Message('note_off', channel=15, note=46, velocity=0, time=24),
    Message('note_on', channel=15, note=45, velocity=92, time=0),
    Message('note_off', channel=15, note=45, velocity=0, time=24),
    Message('note_on', channel=15, note=44, velocity=92, time=0),
    Message('note_off', channel=15, note=44, velocity=0, time=168),
    Message('note_on', channel=15, note=43, velocity=127, time=120),
    Message('note_off', channel=15, note=43, velocity=0, time=16),
    Message('note_on', channel=15, note=56, velocity=92, time=752),
    Message('note_off', channel=15, note=56, velocity=0, time=16),
    Message('note_on', channel=15, note=55, velocity=92, time=80),
    Message('note_off', channel=15, note=55, velocity=0, time=16),
    Message('note_on', channel=15, note=43, velocity=92, time=80),
    Message('note_off', channel=15, note=43, velocity=0, time=16),
    Message('program_change', channel=15, program=45, time=80),
    Message('note_on', channel=15, note=50, velocity=92, time=96),
    Message('note_off', channel=15, note=50, velocity=0, time=24),
    Message('note_on', channel=15, note=50, velocity=92, time=168),
    Message('note_off', channel=15, note=50, velocity=0, time=24),
    Message('program_change', channel=15, program=42, time=72),
    Message('control_change', channel=15, control=7, value=100, time=288),
    Message('note_on', channel=15, note=53, velocity=75, time=0),
    Message('note_off', channel=15, note=53, velocity=0, time=16),
    Message('note_on', channel=15, note=51, velocity=75, time=32),
    Message('note_off', channel=15, note=51, velocity=0, time=16),
    Message('note_on', channel=15, note=50, velocity=75, time=32),
    Message('note_off', channel=15, note=50, velocity=0, time=96),
    Message('note_on', channel=15, note=48, velocity=75, time=0),
    Message('note_off', channel=15, note=48, velocity=0, time=80),
    Message('note_on', channel=15, note=46, velocity=75, time=16),
    Message('control_change', channel=15, control=7, value=101, time=19),
    Message('control_change', channel=15, control=7, value=102, time=19),
    Message('control_change', channel=15, control=7, value=103, time=19),
    Message('control_change', channel=15, control=7, value=104, time=19),
    Message('note_off', channel=15, note=46, velocity=0, time=20),
    Message('control_change', channel=15, control=7, value=105, time=0),
    Message('note_on', channel=15, note=45, velocity=83, time=0),
    Message('control_change', channel=15, control=7, value=106, time=19),
    Message('control_change', channel=15, control=7, value=107, time=19),
    Message('note_off', channel=15, note=45, velocity=0, time=10),
    Message('note_on', channel=15, note=43, velocity=87, time=0),
    Message('control_change', channel=15, control=7, value=108, time=9),
    Message('control_change', channel=15, control=7, value=109, time=19),
    Message('note_off', channel=15, note=43, velocity=0, time=19),
    Message('control_change', channel=15, control=7, value=110, time=1),
    Message('note_on', channel=15, note=42, velocity=92, time=0),
    Message('note_off', channel=15, note=42, velocity=0, time=464),
    Message('note_on', channel=15, note=42, velocity=92, time=16),
    Message('note_off', channel=15, note=42, velocity=0, time=264),
    Message('note_on', channel=15, note=42, velocity=92, time=24),
    Message('note_off', channel=15, note=42, velocity=0, time=47),
    Message('note_on', channel=15, note=42, velocity=92, time=49),
    Message('note_off', channel=15, note=42, velocity=0, time=168),
    Message('note_on', channel=15, note=49, velocity=92, time=24),
    Message('note_off', channel=15, note=49, velocity=0, time=80),
    Message('note_on', channel=15, note=42, velocity=92, time=16),
    Message('note_off', channel=15, note=42, velocity=0, time=264),
    Message('note_on', channel=15, note=49, velocity=92, time=24),
    Message('note_off', channel=15, note=49, velocity=0, time=80),
    Message('note_on', channel=15, note=61, velocity=92, time=16),
    Message('note_off', channel=15, note=61, velocity=0, time=96),
    Message('note_on', channel=15, note=60, velocity=92, time=0),
    Message('note_off', channel=15, note=60, velocity=0, time=48),
    Message('note_on', channel=15, note=61, velocity=92, time=0),
    Message('note_off', channel=15, note=61, velocity=0, time=47),
    Message('note_on', channel=15, note=63, velocity=92, time=1),
    Message('note_off', channel=15, note=63, velocity=0, time=96),
    Message('note_on', channel=15, note=61, velocity=92, time=0),
    Message('note_off', channel=15, note=61, velocity=0, time=48),
    Message('note_on', channel=15, note=63, velocity=92, time=0),
    Message('note_off', channel=15, note=63, velocity=0, time=47),
    Message('note_on', channel=15, note=64, velocity=92, time=1),
    Message('note_off', channel=15, note=64, velocity=0, time=48),
    Message('note_on', channel=15, note=66, velocity=92, time=0),
    Message('note_off', channel=15, note=66, velocity=0, time=48),
    Message('note_on', channel=15, note=68, velocity=92, time=0),
    Message('note_off', channel=15, note=68, velocity=0, time=80),
    Message('note_on', channel=15, note=64, velocity=92, time=16),
    Message('note_off', channel=15, note=64, velocity=0, time=96),
    Message('note_on', channel=15, note=63, velocity=92, time=0),
    Message('note_off', channel=15, note=63, velocity=0, time=96),
    Message('note_on', channel=15, note=64, velocity=92, time=0),
    Message('note_off', channel=15, note=64, velocity=0, time=47),
    Message('note_on', channel=15, note=66, velocity=92, time=49),
    Message('note_off', channel=15, note=66, velocity=0, time=24),
    Message('note_on', channel=15, note=64, velocity=92, time=0),
    Message('note_off', channel=15, note=64, velocity=0, time=24),
    Message('note_on', channel=15, note=63, velocity=92, time=0),
    Message('note_off', channel=15, note=63, velocity=0, time=24),
    Message('note_on', channel=15, note=64, velocity=92, time=0),
    Message('note_off', channel=15, note=64, velocity=0, time=24),
    Message('note_on', channel=15, note=66, velocity=92, time=0),
    Message('note_off', channel=15, note=66, velocity=0, time=47),
    Message('note_on', channel=15, note=68, velocity=92, time=49),
    Message('note_off', channel=15, note=68, velocity=0, time=24),
    Message('note_on', channel=15, note=66, velocity=92, time=0),
    Message('note_off', channel=15, note=66, velocity=0, time=24),
    Message('note_on', channel=15, note=64, velocity=92, time=0),
    Message('note_off', channel=15, note=64, velocity=0, time=24),
    Message('note_on', channel=15, note=66, velocity=92, time=0),
    Message('note_off', channel=15, note=66, velocity=0, time=24),
    Message('note_on', channel=15, note=68, velocity=92, time=0),
    Message('note_off', channel=15, note=68, velocity=0, time=47),
    Message('note_on', channel=15, note=56, velocity=127, time=49),
    Message('note_off', channel=15, note=56, velocity=0, time=24),
    Message('note_on', channel=15, note=54, velocity=92, time=0),
    Message('note_off', channel=15, note=54, velocity=0, time=24),
    Message('note_on', channel=15, note=52, velocity=92, time=0),
    Message('note_off', channel=15, note=52, velocity=0, time=24),
    Message('note_on', channel=15, note=51, velocity=92, time=0),
    Message('note_off', channel=15, note=51, velocity=0, time=24),
    Message('note_on', channel=15, note=49, velocity=92, time=0),
    Message('note_off', channel=15, note=49, velocity=0, time=168),
    Message('control_change', channel=15, control=7, value=100, time=792),
    Message('note_on', channel=15, note=48, velocity=75, time=0),
    Message('note_off', channel=15, note=48, velocity=0, time=48),
    Message('note_on', channel=15, note=46, velocity=75, time=0),
    Message('note_off', channel=15, note=46, velocity=0, time=47),
    Message('note_on', channel=15, note=46, velocity=75, time=1),
    Message('note_off', channel=15, note=46, velocity=0, time=48),
    Message('note_on', channel=15, note=45, velocity=75, time=0),
    Message('note_off', channel=15, note=45, velocity=0, time=47),
    Message('note_on', channel=15, note=45, velocity=75, time=1),
    Message('note_off', channel=15, note=45, velocity=0, time=48),
    Message('note_on', channel=15, note=43, velocity=75, time=0),
    Message('note_off', channel=15, note=43, velocity=0, time=47),
    Message('note_on', channel=15, note=50, velocity=75, time=1),
    Message('note_off', channel=15, note=50, velocity=0, time=16),
    Message('note_on', channel=15, note=52, velocity=75, time=32),
    Message('note_off', channel=15, note=52, velocity=0, time=16),
    Message('note_on', channel=15, note=53, velocity=75, time=32),
    Message('note_off', channel=15, note=53, velocity=0, time=192),
    Message('note_on', channel=15, note=46, velocity=75, time=0),
    Message('note_off', channel=15, note=46, velocity=0, time=128),
    Message('note_on', channel=15, note=57, velocity=75, time=160),
    Message('note_off', channel=15, note=57, velocity=0, time=24),
    Message('note_on', channel=15, note=55, velocity=75, time=0),
    Message('note_off', channel=15, note=55, velocity=0, time=24),
    Message('note_on', channel=15, note=53, velocity=75, time=0),
    Message('note_off', channel=15, note=53, velocity=0, time=24),
    Message('note_on', channel=15, note=52, velocity=75, time=0),
    Message('note_off', channel=15, note=52, velocity=0, time=24),
    Message('note_on', channel=15, note=50, velocity=75, time=0),
    Message('note_off', channel=15, note=50, velocity=0, time=24),
    Message('note_on', channel=15, note=48, velocity=75, time=0),
    Message('note_off', channel=15, note=48, velocity=0, time=24),
    Message('note_on', channel=15, note=46, velocity=75, time=0),
    Message('note_off', channel=15, note=46, velocity=0, time=24),
    Message('note_on', channel=15, note=45, velocity=75, time=0),
    Message('note_off', channel=15, note=45, velocity=0, time=23),
    Message('note_on', channel=15, note=44, velocity=75, time=1),
    Message('control_change', channel=15, control=7, value=101, time=9),
    Message('control_change', channel=15, control=7, value=102, time=10),
    Message('note_off', channel=15, note=44, velocity=0, time=5),
    Message('note_on', channel=15, note=43, velocity=79, time=0),
    Message('control_change', channel=15, control=7, value=103, time=4),
    Message('control_change', channel=15, control=7, value=104, time=10),
    Message('note_off', channel=15, note=43, velocity=0, time=10),
    Message('control_change', channel=15, control=7, value=105, time=0),
    Message('note_on', channel=15, note=41, velocity=83, time=0),
    Message('control_change', channel=15, control=7, value=106, time=9),
    Message('control_change', channel=15, control=7, value=107, time=10),
    Message('note_off', channel=15, note=41, velocity=0, time=5),
    Message('note_on', channel=15, note=40, velocity=87, time=0),
    Message('control_change', channel=15, control=7, value=108, time=4),
    Message('control_change', channel=15, control=7, value=109, time=10),
    Message('note_off', channel=15, note=40, velocity=0, time=9),
    Message('control_change', channel=15, control=7, value=110, time=1),
    Message('note_on', channel=15, note=38, velocity=92, time=0),
    Message('note_off', channel=15, note=38, velocity=0, time=815),
    Message('note_on', channel=15, note=46, velocity=92, time=145),
    Message('note_off', channel=15, note=46, velocity=0, time=168),
    Message('program_change', channel=15, program=45, time=24),
    Message('note_on', channel=15, note=50, velocity=92, time=0),
    Message('note_on', channel=15, note=38, velocity=92, time=0),
    Message('note_off', channel=15, note=50, velocity=0, time=80),
    Message('note_off', channel=15, note=38, velocity=0, time=0),
    Message('note_on', channel=15, note=38, velocity=92, time=16),
    Message('note_off', channel=15, note=38, velocity=0, time=80),
    Message('note_on', channel=15, note=51, velocity=92, time=304),
    Message('note_off', channel=15, note=51, velocity=0, time=80),
    Message('note_on', channel=15, note=39, velocity=92, time=112),
    Message('note_off', channel=15, note=39, velocity=0, time=80),
    Message('note_on', channel=15, note=50, velocity=92, time=112),
    Message('note_off', channel=15, note=50, velocity=0, time=80),
    Message('note_on', channel=15, note=38, velocity=92, time=112),
    Message('note_off', channel=15, note=38, velocity=0, time=80),
    Message('note_on', channel=15, note=57, velocity=92, time=112),
    Message('note_on', channel=15, note=45, velocity=92, time=0),
    Message('note_off', channel=15, note=45, velocity=0, time=80),
    Message('note_off', channel=15, note=57, velocity=0, time=0),
    Message('note_on', channel=15, note=45, velocity=92, time=112),
    Message('note_on', channel=15, note=33, velocity=92, time=0),
    Message('note_off', channel=15, note=33, velocity=0, time=80),
    Message('note_off', channel=15, note=45, velocity=0, time=0),
    Message('control_change', channel=15, control=7, value=90, time=16),
    Message('note_on', channel=15, note=57, velocity=60, time=0),
    Message('note_off', channel=15, note=57, velocity=0, time=128),
    Message('control_change', channel=15, control=7, value=100, time=592),
    Message('program_change', channel=15, program=42, time=144),
    Message('note_on', channel=15, note=50, velocity=75, time=288),
    Message('note_off', channel=15, note=50, velocity=0, time=16),
    Message('note_on', channel=15, note=48, velocity=75, time=0),
    Message('note_off', channel=15, note=48, velocity=0, time=16),
    Message('note_on', channel=15, note=47, velocity=75, time=0),
    Message('note_off', channel=15, note=47, velocity=0, time=16),
    Message('note_on', channel=15, note=45, velocity=75, time=0),
    Message('note_off', channel=15, note=45, velocity=0, time=47),
    Message('note_on', channel=15, note=41, velocity=105, time=337),
    Message('note_off', channel=15, note=41, velocity=0, time=16),
    Message('note_on', channel=15, note=39, velocity=75, time=0),
    Message('note_off', channel=15, note=39, velocity=0, time=16),
    Message('note_on', channel=15, note=38, velocity=75, time=0),
    Message('note_off', channel=15, note=38, velocity=0, time=16),
    Message('note_on', channel=15, note=36, velocity=75, time=0),
    Message('note_off', channel=15, note=36, velocity=0, time=47),
    Message('note_on', channel=15, note=47, velocity=105, time=337),
    Message('note_off', channel=15, note=47, velocity=0, time=16),
    Message('note_on', channel=15, note=45, velocity=75, time=0),
    Message('note_off', channel=15, note=45, velocity=0, time=16),
    Message('note_on', channel=15, note=44, velocity=75, time=0),
    Message('note_off', channel=15, note=44, velocity=0, time=16),
    Message('note_on', channel=15, note=42, velocity=75, time=0),
    Message('note_off', channel=15, note=42, velocity=0, time=47),
    Message('note_on', channel=15, note=50, velocity=105, time=193),
    Message('note_off', channel=15, note=50, velocity=0, time=16),
    Message('note_on', channel=15, note=48, velocity=75, time=0),
    Message('note_off', channel=15, note=48, velocity=0, time=16),
    Message('note_on', channel=15, note=47, velocity=75, time=0),
    Message('note_off', channel=15, note=47, velocity=0, time=16),
    Message('note_on', channel=15, note=45, velocity=75, time=0),
    Message('note_off', channel=15, note=45, velocity=0, time=47),
    Message('note_on', channel=15, note=50, velocity=75, time=145),
    Message('note_off', channel=15, note=50, velocity=0, time=16),
    Message('note_on', channel=15, note=48, velocity=75, time=0),
    Message('note_off', channel=15, note=48, velocity=0, time=16),
    Message('note_on', channel=15, note=47, velocity=75, time=0),
    Message('note_off', channel=15, note=47, velocity=0, time=16),
    Message('note_on', channel=15, note=45, velocity=75, time=0),
    Message('note_off', channel=15, note=45, velocity=0, time=128),
    Message('note_on', channel=15, note=45, velocity=75, time=16),
    Message('note_off', channel=15, note=45, velocity=0, time=80),
    Message('note_on', channel=15, note=45, velocity=75, time=16),
    Message('note_off', channel=15, note=45, velocity=0, time=47),
    Message('note_on', channel=15, note=45, velocity=75, time=1),
    Message('note_off', channel=15, note=45, velocity=0, time=128),
    Message('note_on', channel=15, note=45, velocity=75, time=16),
    Message('note_off', channel=15, note=45, velocity=0, time=80),
    Message('note_on', channel=15, note=45, velocity=75, time=16),
    Message('note_off', channel=15, note=45, velocity=0, time=16),
    Message('control_change', channel=15, control=7, value=110, time=32),
    Message('note_on', channel=15, note=52, velocity=127, time=0),
    Message('note_off', channel=15, note=52, velocity=0, time=16),
    Message('note_on', channel=15, note=52, velocity=92, time=128),
    Message('note_off', channel=15, note=52, velocity=0, time=16),
    Message('note_on', channel=15, note=52, velocity=92, time=128),
    Message('note_off', channel=15, note=52, velocity=0, time=16),
    Message('note_on', channel=15, note=52, velocity=92, time=128),
    Message('note_off', channel=15, note=52, velocity=0, time=16),
    Message('note_on', channel=15, note=52, velocity=92, time=32),
    Message('note_off', channel=15, note=52, velocity=0, time=16),
    Message('note_on', channel=15, note=47, velocity=92, time=32),
    Message('note_off', channel=15, note=47, velocity=0, time=16),
    Message('note_on', channel=15, note=52, velocity=127, time=32),
    Message('note_off', channel=15, note=52, velocity=0, time=16),
    Message('note_on', channel=15, note=52, velocity=92, time=128),
    Message('note_off', channel=15, note=52, velocity=0, time=16),
    Message('note_on', channel=15, note=52, velocity=92, time=128),
    Message('note_off', channel=15, note=52, velocity=0, time=16),
    Message('note_on', channel=15, note=52, velocity=92, time=128),
    Message('note_off', channel=15, note=52, velocity=0, time=16),
    Message('note_on', channel=15, note=52, velocity=92, time=32),
    Message('note_off', channel=15, note=52, velocity=0, time=16),
    Message('note_on', channel=15, note=47, velocity=92, time=32),
    Message('note_off', channel=15, note=47, velocity=0, time=16),
    Message('note_on', channel=15, note=48, velocity=92, time=32),
    Message('note_off', channel=15, note=48, velocity=0, time=60),
    Message('note_on', channel=15, note=47, velocity=92, time=0),
    Message('note_off', channel=15, note=47, velocity=0, time=12),
    Message('note_on', channel=15, note=46, velocity=92, time=0),
    Message('note_off', channel=15, note=46, velocity=0, time=8),
    Message('note_on', channel=15, note=45, velocity=92, time=0),
    Message('note_off', channel=15, note=45, velocity=0, time=8),
    Message('note_on', channel=15, note=44, velocity=92, time=0),
    Message('note_off', channel=15, note=44, velocity=0, time=8),
    Message('note_on', channel=15, note=43, velocity=92, time=0),
    Message('note_off', channel=15, note=43, velocity=0, time=16),
    Message('note_on', channel=15, note=48, velocity=92, time=32),
    Message('note_off', channel=15, note=48, velocity=0, time=59),
    Message('note_on', channel=15, note=47, velocity=92, time=1),
    Message('note_off', channel=15, note=47, velocity=0, time=11),
    Message('note_on', channel=15, note=46, velocity=92, time=1),
    Message('note_off', channel=15, note=46, velocity=0, time=7),
    Message('note_on', channel=15, note=45, velocity=92, time=1),
    Message('note_off', channel=15, note=45, velocity=0, time=7),
    Message('note_on', channel=15, note=44, velocity=92, time=1),
    Message('note_off', channel=15, note=44, velocity=0, time=7),
    Message('note_on', channel=15, note=43, velocity=92, time=1),
    Message('note_off', channel=15, note=43, velocity=0, time=16),
    Message('note_on', channel=15, note=48, velocity=92, time=32),
    Message('note_off', channel=15, note=48, velocity=0, time=60),
    Message('note_on', channel=15, note=47, velocity=92, time=0),
    Message('note_off', channel=15, note=47, velocity=0, time=12),
    Message('note_on', channel=15, note=46, velocity=92, time=0),
    Message('note_off', channel=15, note=46, velocity=0, time=8),
    Message('note_on', channel=15, note=45, velocity=92, time=0),
    Message('note_off', channel=15, note=45, velocity=0, time=8),
    Message('note_on', channel=15, note=44, velocity=92, time=0),
    Message('note_off', channel=15, note=44, velocity=0, time=8),
    Message('note_on', channel=15, note=43, velocity=92, time=0),
    Message('note_off', channel=15, note=43, velocity=0, time=16),
    Message('note_on', channel=15, note=48, velocity=92, time=32),
    Message('note_off', channel=15, note=48, velocity=0, time=59),
    Message('note_on', channel=15, note=47, velocity=92, time=1),
    Message('note_off', channel=15, note=47, velocity=0, time=11),
    Message('note_on', channel=15, note=46, velocity=92, time=1),
    Message('note_off', channel=15, note=46, velocity=0, time=7),
    Message('note_on', channel=15, note=45, velocity=92, time=1),
    Message('note_off', channel=15, note=45, velocity=0, time=7),
    Message('note_on', channel=15, note=44, velocity=92, time=1),
    Message('note_off', channel=15, note=44, velocity=0, time=7),
    Message('note_on', channel=15, note=43, velocity=92, time=1),
    Message('note_off', channel=15, note=43, velocity=0, time=16),
    Message('note_on', channel=15, note=48, velocity=92, time=32),
    Message('note_off', channel=15, note=48, velocity=0, time=60),
    Message('note_on', channel=15, note=47, velocity=92, time=0),
    Message('note_off', channel=15, note=47, velocity=0, time=12),
    Message('note_on', channel=15, note=46, velocity=92, time=0),
    Message('note_off', channel=15, note=46, velocity=0, time=8),
    Message('note_on', channel=15, note=45, velocity=92, time=0),
    Message('note_off', channel=15, note=45, velocity=0, time=8),
    Message('note_on', channel=15, note=44, velocity=92, time=0),
    Message('note_off', channel=15, note=44, velocity=0, time=8),
    Message('note_on', channel=15, note=43, velocity=92, time=0),
    Message('note_off', channel=15, note=43, velocity=0, time=16),
    Message('note_on', channel=15, note=55, velocity=92, time=32),
    Message('note_off', channel=15, note=55, velocity=0, time=39),
    Message('note_on', channel=15, note=54, velocity=92, time=1),
    Message('note_off', channel=15, note=54, velocity=0, time=3),
    Message('note_on', channel=15, note=53, velocity=92, time=1),
    Message('note_off', channel=15, note=53, velocity=0, time=3),
    Message('note_on', channel=15, note=52, velocity=92, time=1),
    Message('note_off', channel=15, note=52, velocity=0, time=3),
    Message('note_on', channel=15, note=51, velocity=92, time=1),
    Message('note_off', channel=15, note=51, velocity=0, time=3),
    Message('note_on', channel=15, note=50, velocity=92, time=1),
    Message('note_off', channel=15, note=50, velocity=0, time=3),
    Message('note_on', channel=15, note=49, velocity=92, time=1),
    Message('note_off', channel=15, note=49, velocity=0, time=7),
    Message('note_on', channel=15, note=48, velocity=92, time=1),
    Message('note_off', channel=15, note=48, velocity=0, time=7),
    Message('note_on', channel=15, note=47, velocity=92, time=1),
    Message('note_off', channel=15, note=47, velocity=0, time=7),
    Message('note_on', channel=15, note=46, velocity=92, time=1),
    Message('note_off', channel=15, note=46, velocity=0, time=3),
    Message('note_on', channel=15, note=45, velocity=92, time=1),
    Message('note_off', channel=15, note=45, velocity=0, time=3),
    Message('note_on', channel=15, note=44, velocity=92, time=1),
    Message('note_off', channel=15, note=44, velocity=0, time=3),
    Message('note_on', channel=15, note=43, velocity=92, time=1),
    Message('note_off', channel=15, note=43, velocity=0, time=16),
    Message('note_on', channel=15, note=48, velocity=92, time=32),
    Message('note_off', channel=15, note=48, velocity=0, time=60),
    Message('note_on', channel=15, note=47, velocity=92, time=0),
    Message('note_off', channel=15, note=47, velocity=0, time=12),
    Message('note_on', channel=15, note=46, velocity=92, time=0),
    Message('note_off', channel=15, note=46, velocity=0, time=8),
    Message('note_on', channel=15, note=45, velocity=92, time=0),
    Message('note_off', channel=15, note=45, velocity=0, time=8),
    Message('note_on', channel=15, note=44, velocity=92, time=0),
    Message('note_off', channel=15, note=44, velocity=0, time=8),
    Message('note_on', channel=15, note=43, velocity=92, time=0),
    Message('note_off', channel=15, note=43, velocity=0, time=16),
    Message('note_on', channel=15, note=48, velocity=92, time=32),
    Message('note_off', channel=15, note=48, velocity=0, time=59),
    Message('note_on', channel=15, note=47, velocity=92, time=1),
    Message('note_off', channel=15, note=47, velocity=0, time=11),
    Message('note_on', channel=15, note=46, velocity=92, time=1),
    Message('note_off', channel=15, note=46, velocity=0, time=7),
    Message('note_on', channel=15, note=45, velocity=92, time=1),
    Message('note_off', channel=15, note=45, velocity=0, time=7),
    Message('note_on', channel=15, note=44, velocity=92, time=1),
    Message('note_off', channel=15, note=44, velocity=0, time=7),
    Message('note_on', channel=15, note=43, velocity=92, time=1),
    Message('note_off', channel=15, note=43, velocity=0, time=16),
    Message('note_on', channel=15, note=48, velocity=92, time=32),
    Message('note_off', channel=15, note=48, velocity=0, time=128),
    Message('note_on', channel=15, note=48, velocity=92, time=16),
    Message('note_off', channel=15, note=48, velocity=0, time=80),
    Message('note_on', channel=15, note=48, velocity=92, time=16),
    Message('note_off', channel=15, note=48, velocity=0, time=23),
    Message('note_on', channel=15, note=50, velocity=92, time=1),
    Message('note_off', channel=15, note=50, velocity=0, time=23),
    Message('note_on', channel=15, note=51, velocity=92, time=1),
    Message('note_off', channel=15, note=51, velocity=0, time=80),
    Message('note_on', channel=15, note=50, velocity=92, time=16),
    Message('note_off', channel=15, note=50, velocity=0, time=23),
    Message('note_on', channel=15, note=51, velocity=92, time=1),
    Message('note_off', channel=15, note=51, velocity=0, time=23),
    Message('note_on', channel=15, note=52, velocity=92, time=1),
    Message('note_off', channel=15, note=52, velocity=0, time=80),
    Message('note_on', channel=15, note=53, velocity=92, time=16),
    Message('note_off', channel=15, note=53, velocity=0, time=23),
    Message('note_on', channel=15, note=54, velocity=92, time=1),
    Message('note_off', channel=15, note=54, velocity=0, time=23),
    Message('note_on', channel=15, note=55, velocity=92, time=1),
    Message('note_off', channel=15, note=55, velocity=0, time=128),
    Message('note_on', channel=15, note=43, velocity=92, time=16),
    Message('note_off', channel=15, note=43, velocity=0, time=128),
    Message('note_on', channel=15, note=48, velocity=92, time=16),
    Message('note_off', channel=15, note=48, velocity=0, time=128),
    Message('note_on', channel=15, note=48, velocity=92, time=16),
    Message('note_off', channel=15, note=48, velocity=0, time=128),
    Message('note_on', channel=15, note=48, velocity=92, time=16),
    Message('note_off', channel=15, note=48, velocity=0, time=128),
    Message('note_on', channel=15, note=48, velocity=92, time=16),
    Message('note_off', channel=15, note=48, velocity=0, time=128),
    Message('note_on', channel=15, note=52, velocity=92, time=16),
    Message('note_on', channel=15, note=43, velocity=92, time=0),
    Message('control_change', channel=15, control=7, value=109, time=2),
    Message('control_change', channel=15, control=7, value=108, time=2),
    Message('control_change', channel=15, control=7, value=107, time=3),
    Message('control_change', channel=15, control=7, value=106, time=2),
    Message('control_change', channel=15, control=7, value=105, time=3),
    Message('control_change', channel=15, control=7, value=104, time=2),
    Message('control_change', channel=15, control=7, value=103, time=2),
    Message('control_change', channel=15, control=7, value=102, time=3),
    Message('control_change', channel=15, control=7, value=101, time=2),
    Message('control_change', channel=15, control=7, value=100, time=3),
    Message('control_change', channel=15, control=7, value=99, time=2),
    Message('control_change', channel=15, control=7, value=98, time=2),
    Message('control_change', channel=15, control=7, value=97, time=3),
    Message('control_change', channel=15, control=7, value=96, time=2),
    Message('control_change', channel=15, control=7, value=95, time=3),
    Message('control_change', channel=15, control=7, value=94, time=2),
    Message('control_change', channel=15, control=7, value=93, time=2),
    Message('control_change', channel=15, control=7, value=92, time=3),
    Message('control_change', channel=15, control=7, value=91, time=2),
    Message('control_change', channel=15, control=7, value=90, time=3),
    Message('control_change', channel=15, control=7, value=89, time=2),
    Message('control_change', channel=15, control=7, value=88, time=2),
    Message('control_change', channel=15, control=7, value=87, time=3),
    Message('control_change', channel=15, control=7, value=86, time=2),
    Message('control_change', channel=15, control=7, value=85, time=3),
    Message('control_change', channel=15, control=7, value=84, time=2),
    Message('control_change', channel=15, control=7, value=83, time=2),
    Message('control_change', channel=15, control=7, value=82, time=3),
    Message('control_change', channel=15, control=7, value=81, time=2),
    Message('control_change', channel=15, control=7, value=80, time=3),
    Message('control_change', channel=15, control=7, value=79, time=2),
    Message('control_change', channel=15, control=7, value=78, time=2),
    Message('control_change', channel=15, control=7, value=77, time=3),
    Message('control_change', channel=15, control=7, value=76, time=2),
    Message('control_change', channel=15, control=7, value=75, time=3),
    Message('control_change', channel=15, control=7, value=74, time=2),
    Message('control_change', channel=15, control=7, value=73, time=2),
    Message('control_change', channel=15, control=7, value=72, time=3),
    Message('control_change', channel=15, control=7, value=71, time=2),
    Message('control_change', channel=15, control=7, value=70, time=3),
    Message('control_change', channel=15, control=7, value=69, time=2),
    Message('control_change', channel=15, control=7, value=68, time=2),
    Message('control_change', channel=15, control=7, value=67, time=3),
    Message('control_change', channel=15, control=7, value=66, time=2),
    Message('control_change', channel=15, control=7, value=65, time=3),
    Message('control_change', channel=15, control=7, value=64, time=2),
    Message('control_change', channel=15, control=7, value=63, time=2),
    Message('control_change', channel=15, control=7, value=62, time=3),
    Message('control_change', channel=15, control=7, value=61, time=2),
    Message('control_change', channel=15, control=7, value=60, time=3),
    Message('control_change', channel=15, control=7, value=59, time=2),
    Message('control_change', channel=15, control=7, value=58, time=2),
    Message('control_change', channel=15, control=7, value=57, time=3),
    Message('control_change', channel=15, control=7, value=56, time=2),
    Message('control_change', channel=15, control=7, value=55, time=3),
    Message('control_change', channel=15, control=7, value=54, time=2),
    Message('control_change', channel=15, control=7, value=53, time=2),
    Message('control_change', channel=15, control=7, value=52, time=3),
    Message('control_change', channel=15, control=7, value=51, time=2),
    Message('control_change', channel=15, control=7, value=50, time=3),
    Message('control_change', channel=15, control=7, value=51, time=2),
    Message('control_change', channel=15, control=7, value=52, time=2),
    Message('control_change', channel=15, control=7, value=53, time=3),
    Message('control_change', channel=15, control=7, value=54, time=2),
    Message('control_change', channel=15, control=7, value=55, time=3),
    Message('control_change', channel=15, control=7, value=56, time=2),
    Message('control_change', channel=15, control=7, value=57, time=2),
    Message('control_change', channel=15, control=7, value=58, time=3),
    Message('control_change', channel=15, control=7, value=59, time=2),
    Message('control_change', channel=15, control=7, value=60, time=3),
    Message('control_change', channel=15, control=7, value=61, time=2),
    Message('control_change', channel=15, control=7, value=62, time=2),
    Message('control_change', channel=15, control=7, value=63, time=3),
    Message('control_change', channel=15, control=7, value=64, time=2),
    Message('control_change', channel=15, control=7, value=65, time=3),
    Message('control_change', channel=15, control=7, value=66, time=2),
    Message('control_change', channel=15, control=7, value=67, time=2),
    Message('control_change', channel=15, control=7, value=68, time=3),
    Message('control_change', channel=15, control=7, value=69, time=2),
    Message('control_change', channel=15, control=7, value=70, time=3),
    Message('control_change', channel=15, control=7, value=71, time=2),
    Message('control_change', channel=15, control=7, value=72, time=2),
    Message('control_change', channel=15, control=7, value=73, time=3),
    Message('control_change', channel=15, control=7, value=74, time=2),
    Message('control_change', channel=15, control=7, value=75, time=3),
    Message('control_change', channel=15, control=7, value=76, time=2),
    Message('control_change', channel=15, control=7, value=77, time=2),
    Message('control_change', channel=15, control=7, value=78, time=3),
    Message('control_change', channel=15, control=7, value=79, time=2),
    Message('control_change', channel=15, control=7, value=80, time=3),
    Message('control_change', channel=15, control=7, value=81, time=2),
    Message('control_change', channel=15, control=7, value=82, time=2),
    Message('control_change', channel=15, control=7, value=83, time=3),
    Message('control_change', channel=15, control=7, value=84, time=2),
    Message('control_change', channel=15, control=7, value=85, time=3),
    Message('control_change', channel=15, control=7, value=86, time=2),
    Message('control_change', channel=15, control=7, value=87, time=2),
    Message('control_change', channel=15, control=7, value=88, time=3),
    Message('control_change', channel=15, control=7, value=89, time=2),
    Message('control_change', channel=15, control=7, value=90, time=3),
    Message('control_change', channel=15, control=7, value=91, time=2),
    Message('control_change', channel=15, control=7, value=92, time=2),
    Message('control_change', channel=15, control=7, value=93, time=3),
    Message('control_change', channel=15, control=7, value=94, time=2),
    Message('control_change', channel=15, control=7, value=95, time=3),
    Message('control_change', channel=15, control=7, value=96, time=2),
    Message('control_change', channel=15, control=7, value=97, time=2),
    Message('control_change', channel=15, control=7, value=98, time=3),
    Message('control_change', channel=15, control=7, value=99, time=2),
    Message('control_change', channel=15, control=7, value=100, time=3),
    Message('control_change', channel=15, control=7, value=101, time=2),
    Message('control_change', channel=15, control=7, value=102, time=2),
    Message('control_change', channel=15, control=7, value=103, time=3),
    Message('note_off', channel=15, note=52, velocity=0, time=1),
    Message('note_off', channel=15, note=43, velocity=0, time=0),
    Message('control_change', channel=15, control=7, value=104, time=1),
    Message('control_change', channel=15, control=7, value=105, time=3),
    Message('control_change', channel=15, control=7, value=106, time=2),
    Message('control_change', channel=15, control=7, value=107, time=2),
    Message('control_change', channel=15, control=7, value=108, time=3),
    Message('control_change', channel=15, control=7, value=109, time=2),
    Message('control_change', channel=15, control=7, value=110, time=3),
    Message('note_on', channel=15, note=51, velocity=92, time=0),
    Message('note_off', channel=15, note=51, velocity=0, time=15),
    Message('note_on', channel=15, note=54, velocity=92, time=1),
    Message('note_off', channel=15, note=54, velocity=0, time=15),
    Message('note_on', channel=15, note=58, velocity=92, time=1),
    Message('control_change', channel=15, control=7, value=111, time=11),
    Message('note_off', channel=15, note=58, velocity=0, time=4),
    Message('note_on', channel=15, note=55, velocity=92, time=1),
    Message('note_on', channel=15, note=52, velocity=92, time=0),
    Message('control_change', channel=15, control=7, value=112, time=38),
    Message('control_change', channel=15, control=7, value=113, time=43),
    Message('control_change', channel=15, control=7, value=114, time=43),
    Message('control_change', channel=15, control=7, value=115, time=44),
    Message('control_change', channel=15, control=7, value=116, time=43),
    Message('control_change', channel=15, control=7, value=117, time=43),
    Message('control_change', channel=15, control=7, value=118, time=43),
    Message('control_change', channel=15, control=7, value=119, time=43),
    Message('note_off', channel=15, note=55, velocity=0, time=28),
    Message('note_off', channel=15, note=52, velocity=0, time=0),
    Message('control_change', channel=15, control=7, value=120, time=16),
    Message('note_on', channel=15, note=60, velocity=127, time=0),
    Message('note_on', channel=15, note=52, velocity=127, time=0),
    Message('note_on', channel=15, note=43, velocity=127, time=0),
    Message('note_off', channel=15, note=60, velocity=0, time=24),
    Message('note_off', channel=15, note=52, velocity=0, time=0),
    Message('note_off', channel=15, note=43, velocity=0, time=0),
    Message('control_change', channel=15, control=7, value=100, time=696),
    Message('note_on', channel=15, note=48, velocity=75, time=0),
    Message('note_off', channel=15, note=48, velocity=0, time=416),
    Message('note_on', channel=15, note=48, velocity=75, time=16),
    Message('note_off', channel=15, note=48, velocity=0, time=416),
    Message('note_on', channel=15, note=60, velocity=127, time=16),
    Message('note_on', channel=15, note=52, velocity=127, time=0),
    Message('note_on', channel=15, note=43, velocity=127, time=0),
    Message('note_off', channel=15, note=60, velocity=0, time=47),
    Message('note_off', channel=15, note=52, velocity=0, time=0),
    Message('note_off', channel=15, note=43, velocity=0, time=0),
    Message('control_change', channel=15, control=101, value=0, time=1249),
    Message('control_change', channel=15, control=100, value=0, time=0),
    Message('control_change', channel=15, control=6, value=12, time=0),
    Message('control_change', channel=15, control=10, value=64, time=0),
    Message('control_change', channel=15, control=7, value=100, time=0),
    Message('pitchwheel', channel=15, pitch=0, time=0),
    Message('program_change', channel=15, program=42, time=0),
    Message('program_change', channel=15, program=42, time=0),
    Message('control_change', channel=15, control=7, value=127, time=0),
    Message('control_change', channel=15, control=10, value=64, time=0),
    Message('control_change', channel=15, control=101, value=0, time=1),
    Message('control_change', channel=15, control=100, value=0, time=0),
    Message('control_change', channel=15, control=6, value=12, time=0),
    Message('control_change', channel=15, control=10, value=64, time=0),
    Message('control_change', channel=15, control=7, value=100, time=0),
    Message('pitchwheel', channel=15, pitch=0, time=0),
    Message('program_change', channel=15, program=42, time=0),
    MetaMessage('end_of_track', time=0)]),
  MidiTrack([
    MetaMessage('track_name', name='Harp', time=0),
    Message('control_change', channel=10, control=10, value=64, time=0),
    Message('control_change', channel=10, control=7, value=127, time=0),
    Message('pitchwheel', channel=10, pitch=0, time=0),
    Message('control_change', channel=10, control=101, value=0, time=0),
    Message('control_change', channel=10, control=100, value=0, time=0),
    Message('control_change', channel=10, control=6, value=12, time=0),
    Message('control_change', channel=10, control=10, value=64, time=0),
    Message('control_change', channel=10, control=7, value=127, time=0),
    Message('pitchwheel', channel=10, pitch=0, time=0),
    Message('program_change', channel=10, program=46, time=0),
    Message('program_change', channel=10, program=46, time=0),
    Message('control_change', channel=10, control=7, value=127, time=0),
    Message('control_change', channel=10, control=10, value=64, time=0),
    Message('control_change', channel=10, control=101, value=0, time=0),
    Message('control_change', channel=10, control=100, value=0, time=0),
    Message('control_change', channel=10, control=6, value=12, time=0),
    Message('control_change', channel=10, control=10, value=64, time=0),
    Message('control_change', channel=10, control=7, value=127, time=0),
    Message('pitchwheel', channel=10, pitch=0, time=0),
    Message('program_change', channel=10, program=46, time=0),
    Message('program_change', channel=10, program=46, time=0),
    Message('control_change', channel=10, control=7, value=127, time=0),
    Message('control_change', channel=10, control=10, value=64, time=0),
    Message('control_change', channel=10, control=101, value=0, time=0),
    Message('control_change', channel=10, control=100, value=0, time=0),
    Message('control_change', channel=10, control=6, value=12, time=0),
    Message('control_change', channel=10, control=10, value=64, time=0),
    Message('control_change', channel=10, control=7, value=127, time=0),
    Message('pitchwheel', channel=10, pitch=0, time=0),
    Message('program_change', channel=10, program=46, time=0),
    Message('control_change', channel=10, control=7, value=80, time=4944),
    Message('note_on', channel=10, note=64, velocity=45, time=0),
    Message('note_off', channel=10, note=64, velocity=0, time=11),
    Message('note_on', channel=10, note=66, velocity=46, time=1),
    Message('control_change', channel=10, control=7, value=81, time=2),
    Message('note_off', channel=10, note=66, velocity=0, time=9),
    Message('note_on', channel=10, note=67, velocity=47, time=1),
    Message('control_change', channel=10, control=7, value=82, time=4),
    Message('note_off', channel=10, note=67, velocity=0, time=7),
    Message('note_on', channel=10, note=70, velocity=48, time=1),
    Message('control_change', channel=10, control=7, value=83, time=7),
    Message('note_off', channel=10, note=70, velocity=0, time=4),
    Message('note_on', channel=10, note=71, velocity=49, time=1),
    Message('control_change', channel=10, control=7, value=84, time=9),
    Message('note_off', channel=10, note=71, velocity=0, time=2),
    Message('note_on', channel=10, note=72, velocity=50, time=1),
    Message('note_off', channel=10, note=72, velocity=0, time=11),
    Message('control_change', channel=10, control=7, value=85, time=0),
    Message('note_on', channel=10, note=75, velocity=51, time=1),
    Message('note_off', channel=10, note=75, velocity=0, time=11),
    Message('note_on', channel=10, note=76, velocity=52, time=1),
    Message('control_change', channel=10, control=7, value=86, time=2),
    Message('note_off', channel=10, note=76, velocity=0, time=9),
    Message('note_on', channel=10, note=78, velocity=53, time=1),
    Message('control_change', channel=10, control=7, value=87, time=4),
    Message('note_off', channel=10, note=78, velocity=0, time=7),
    Message('note_on', channel=10, note=79, velocity=54, time=1),
    Message('control_change', channel=10, control=7, value=88, time=7),
    Message('note_off', channel=10, note=79, velocity=0, time=4),
    Message('note_on', channel=10, note=81, velocity=56, time=1),
    Message('control_change', channel=10, control=7, value=89, time=9),
    Message('note_off', channel=10, note=81, velocity=0, time=2),
    Message('note_on', channel=10, note=83, velocity=58, time=1),
    Message('note_off', channel=10, note=83, velocity=0, time=11),
    Message('control_change', channel=10, control=7, value=90, time=0),
    Message('note_on', channel=10, note=81, velocity=60, time=1),
    Message('note_off', channel=10, note=81, velocity=0, time=11),
    Message('note_on', channel=10, note=79, velocity=59, time=1),
    Message('control_change', channel=10, control=7, value=89, time=2),
    Message('note_off', channel=10, note=79, velocity=0, time=9),
    Message('note_on', channel=10, note=78, velocity=58, time=1),
    Message('control_change', channel=10, control=7, value=88, time=4),
    Message('note_off', channel=10, note=78, velocity=0, time=7),
    Message('note_on', channel=10, note=76, velocity=57, time=1),
    Message('control_change', channel=10, control=7, value=87, time=7),
    Message('note_off', channel=10, note=76, velocity=0, time=4),
    Message('note_on', channel=10, note=75, velocity=56, time=1),
    Message('control_change', channel=10, control=7, value=86, time=9),
    Message('note_off', channel=10, note=75, velocity=0, time=2),
    Message('note_on', channel=10, note=76, velocity=55, time=1),
    Message('note_off', channel=10, note=76, velocity=0, time=11),
    Message('control_change', channel=10, control=7, value=85, time=0),
    Message('note_on', channel=10, note=78, velocity=54, time=1),
    Message('note_off', channel=10, note=78, velocity=0, time=11),
    Message('note_on', channel=10, note=76, velocity=53, time=1),
    Message('control_change', channel=10, control=7, value=84, time=2),
    Message('note_off', channel=10, note=76, velocity=0, time=9),
    Message('note_on', channel=10, note=75, velocity=52, time=1),
    Message('control_change', channel=10, control=7, value=83, time=4),
    Message('note_off', channel=10, note=75, velocity=0, time=7),
    Message('note_on', channel=10, note=72, velocity=51, time=1),
    Message('control_change', channel=10, control=7, value=82, time=7),
    Message('note_off', channel=10, note=72, velocity=0, time=4),
    Message('note_on', channel=10, note=71, velocity=49, time=1),
    Message('control_change', channel=10, control=7, value=81, time=9),
    Message('note_off', channel=10, note=71, velocity=0, time=2),
    Message('note_on', channel=10, note=69, velocity=47, time=1),
    Message('note_off', channel=10, note=69, velocity=0, time=11),
    Message('control_change', channel=10, control=7, value=80, time=0),
    Message('note_on', channel=10, note=60, velocity=45, time=1),
    Message('note_off', channel=10, note=60, velocity=0, time=11),
    Message('note_on', channel=10, note=64, velocity=46, time=1),
    Message('control_change', channel=10, control=7, value=81, time=2),
    Message('note_off', channel=10, note=64, velocity=0, time=9),
    Message('note_on', channel=10, note=66, velocity=47, time=1),
    Message('control_change', channel=10, control=7, value=82, time=4),
    Message('note_off', channel=10, note=66, velocity=0, time=7),
    Message('note_on', channel=10, note=67, velocity=48, time=1),
    Message('control_change', channel=10, control=7, value=83, time=7),
    Message('note_off', channel=10, note=67, velocity=0, time=4),
    Message('note_on', channel=10, note=72, velocity=49, time=1),
    Message('control_change', channel=10, control=7, value=84, time=9),
    Message('note_off', channel=10, note=72, velocity=0, time=2),
    Message('note_on', channel=10, note=76, velocity=50, time=1),
    Message('note_off', channel=10, note=76, velocity=0, time=11),
    Message('control_change', channel=10, control=7, value=85, time=0),
    Message('note_on', channel=10, note=78, velocity=51, time=1),
    Message('note_off', channel=10, note=78, velocity=0, time=11),
    Message('note_on', channel=10, note=79, velocity=52, time=1),
    Message('control_change', channel=10, control=7, value=86, time=2),
    Message('note_off', channel=10, note=79, velocity=0, time=9),
    Message('note_on', channel=10, note=81, velocity=53, time=1),
    Message('control_change', channel=10, control=7, value=87, time=4),
    Message('note_off', channel=10, note=81, velocity=0, time=7),
    Message('note_on', channel=10, note=83, velocity=54, time=1),
    Message('control_change', channel=10, control=7, value=88, time=7),
    Message('note_off', channel=10, note=83, velocity=0, time=4),
    Message('note_on', channel=10, note=84, velocity=56, time=1),
    Message('control_change', channel=10, control=7, value=89, time=9),
    Message('note_off', channel=10, note=84, velocity=0, time=2),
    Message('note_on', channel=10, note=86, velocity=58, time=1),
    Message('note_off', channel=10, note=86, velocity=0, time=11),
    Message('control_change', channel=10, control=7, value=90, time=0),
    Message('note_on', channel=10, note=88, velocity=60, time=1),
    Message('control_change', channel=10, control=7, value=89, time=48),
    Message('control_change', channel=10, control=7, value=88, time=48),
    Message('note_off', channel=10, note=88, velocity=0, time=32),
    Message('control_change', channel=10, control=7, value=87, time=16),
    Message('control_change', channel=10, control=7, value=86, time=48),
    Message('control_change', channel=10, control=7, value=85, time=48),
    Message('control_change', channel=10, control=7, value=84, time=48),
    Message('control_change', channel=10, control=7, value=83, time=48),
    Message('control_change', channel=10, control=7, value=82, time=48),
    Message('control_change', channel=10, control=7, value=81, time=48),
    Message('control_change', channel=10, control=7, value=80, time=48),
    Message('note_on', channel=10, note=64, velocity=45, time=0),
    Message('control_change', channel=10, control=7, value=81, time=9),
    Message('note_off', channel=10, note=64, velocity=0, time=3),
    Message('note_on', channel=10, note=66, velocity=46, time=0),
    Message('control_change', channel=10, control=7, value=82, time=7),
    Message('note_off', channel=10, note=66, velocity=0, time=5),
    Message('note_on', channel=10, note=67, velocity=48, time=0),
    Message('control_change', channel=10, control=7, value=83, time=4),
    Message('note_off', channel=10, note=67, velocity=0, time=4),
    Message('note_on', channel=10, note=69, velocity=49, time=0),
    Message('control_change', channel=10, control=7, value=84, time=6),
    Message('note_off', channel=10, note=69, velocity=0, time=2),
    Message('note_on', channel=10, note=71, velocity=50, time=0),
    Message('note_off', channel=10, note=71, velocity=0, time=8),
    Message('control_change', channel=10, control=7, value=85, time=0),
    Message('note_on', channel=10, note=72, velocity=51, time=0),
    Message('note_off', channel=10, note=72, velocity=0, time=8),
    Message('note_on', channel=10, note=74, velocity=52, time=0),
    Message('control_change', channel=10, control=7, value=86, time=1),
    Message('note_off', channel=10, note=74, velocity=0, time=7),
    Message('note_on', channel=10, note=76, velocity=53, time=0),
    Message('control_change', channel=10, control=7, value=87, time=3),
    Message('note_off', channel=10, note=76, velocity=0, time=5),
    Message('note_on', channel=10, note=78, velocity=54, time=0),
    Message('control_change', channel=10, control=7, value=88, time=4),
    Message('note_off', channel=10, note=78, velocity=0, time=4),
    Message('note_on', channel=10, note=79, velocity=56, time=0),
    Message('control_change', channel=10, control=7, value=89, time=6),
    Message('note_off', channel=10, note=79, velocity=0, time=2),
    Message('note_on', channel=10, note=81, velocity=58, time=0),
    Message('note_off', channel=10, note=81, velocity=0, time=8),
    Message('control_change', channel=10, control=7, value=90, time=0),
    Message('note_on', channel=10, note=83, velocity=60, time=0),
    Message('control_change', channel=10, control=7, value=89, time=9),
    Message('note_off', channel=10, note=83, velocity=0, time=3),
    Message('note_on', channel=10, note=81, velocity=59, time=0),
    Message('control_change', channel=10, control=7, value=88, time=7),
    Message('note_off', channel=10, note=81, velocity=0, time=5),
    Message('note_on', channel=10, note=79, velocity=57, time=0),
    Message('control_change', channel=10, control=7, value=87, time=4),
    Message('note_off', channel=10, note=79, velocity=0, time=4),
    Message('note_on', channel=10, note=78, velocity=56, time=0),
    Message('control_change', channel=10, control=7, value=86, time=6),
    Message('note_off', channel=10, note=78, velocity=0, time=2),
    Message('note_on', channel=10, note=75, velocity=55, time=0),
    Message('note_off', channel=10, note=75, velocity=0, time=8),
    Message('control_change', channel=10, control=7, value=85, time=0),
    Message('note_on', channel=10, note=74, velocity=54, time=0),
    Message('note_off', channel=10, note=74, velocity=0, time=8),
    Message('note_on', channel=10, note=72, velocity=53, time=0),
    Message('control_change', channel=10, control=7, value=84, time=1),
    Message('note_off', channel=10, note=72, velocity=0, time=7),
    Message('note_on', channel=10, note=71, velocity=52, time=0),
    Message('control_change', channel=10, control=7, value=83, time=3),
    Message('note_off', channel=10, note=71, velocity=0, time=5),
    Message('note_on', channel=10, note=69, velocity=51, time=0),
    Message('note_off', channel=10, note=69, velocity=0, time=4),
    Message('control_change', channel=10, control=7, value=82, time=0),
    Message('note_on', channel=10, note=67, velocity=50, time=0),
    Message('note_off', channel=10, note=67, velocity=0, time=4),
    Message('note_on', channel=10, note=66, velocity=49, time=0),
    Message('note_off', channel=10, note=66, velocity=0, time=4),
    Message('note_on', channel=10, note=64, velocity=48, time=0),
    Message('control_change', channel=10, control=7, value=81, time=2),
    Message('note_off', channel=10, note=64, velocity=0, time=2),
    Message('note_on', channel=10, note=63, velocity=47, time=0),
    Message('note_off', channel=10, note=63, velocity=0, time=4),
    Message('note_on', channel=10, note=60, velocity=46, time=0),
    Message('note_off', channel=10, note=60, velocity=0, time=4),
    Message('control_change', channel=10, control=7, value=80, time=0),
    Message('note_on', channel=10, note=59, velocity=45, time=0),
    Message('note_off', channel=10, note=59, velocity=0, time=47),
    Message('note_on', channel=10, note=64, velocity=45, time=1),
    Message('note_off', channel=10, note=64, velocity=0, time=71),
    Message('note_on', channel=10, note=67, velocity=45, time=1),
    Message('note_off', channel=10, note=67, velocity=0, time=23),
    Message('note_on', channel=10, note=66, velocity=45, time=1),
    Message('note_off', channel=10, note=66, velocity=0, time=47),
    Message('note_on', channel=10, note=64, velocity=45, time=1),
    Message('note_off', channel=10, note=64, velocity=0, time=80),
    Message('note_on', channel=10, note=71, velocity=45, time=16),
    Message('note_off', channel=10, note=71, velocity=0, time=47),
    Message('note_on', channel=10, note=69, velocity=45, time=1),
    Message('note_off', channel=10, note=69, velocity=0, time=128),
    Message('note_on', channel=10, note=66, velocity=45, time=16),
    Message('note_off', channel=10, note=66, velocity=0, time=128),
    Message('note_on', channel=10, note=64, velocity=45, time=16),
    Message('note_off', channel=10, note=64, velocity=0, time=71),
    Message('note_on', channel=10, note=67, velocity=45, time=1),
    Message('note_off', channel=10, note=67, velocity=0, time=23),
    Message('note_on', channel=10, note=66, velocity=45, time=1),
    Message('note_off', channel=10, note=66, velocity=0, time=47),
    Message('note_on', channel=10, note=62, velocity=45, time=1),
    Message('note_off', channel=10, note=62, velocity=0, time=80),
    Message('note_on', channel=10, note=65, velocity=45, time=16),
    Message('note_off', channel=10, note=65, velocity=0, time=47),
    Message('note_on', channel=10, note=59, velocity=45, time=1),
    Message('note_off', channel=10, note=59, velocity=0, time=191),
    Message('note_on', channel=10, note=59, velocity=45, time=49),
    Message('note_off', channel=10, note=59, velocity=0, time=47),
    Message('note_on', channel=10, note=64, velocity=45, time=1),
    Message('note_off', channel=10, note=64, velocity=0, time=71),
    Message('note_on', channel=10, note=67, velocity=45, time=1),
    Message('note_off', channel=10, note=67, velocity=0, time=23),
    Message('note_on', channel=10, note=66, velocity=45, time=1),
    Message('note_off', channel=10, note=66, velocity=0, time=47),
    Message('note_on', channel=10, note=64, velocity=45, time=1),
    Message('note_off', channel=10, note=64, velocity=0, time=80),
    Message('note_on', channel=10, note=71, velocity=45, time=16),
    Message('note_off', channel=10, note=71, velocity=0, time=47),
    Message('note_on', channel=10, note=74, velocity=45, time=1),
    Message('note_off', channel=10, note=74, velocity=0, time=80),
    Message('note_on', channel=10, note=73, velocity=45, time=16),
    Message('note_off', channel=10, note=73, velocity=0, time=47),
    Message('note_on', channel=10, note=72, velocity=45, time=1),
    Message('note_off', channel=10, note=72, velocity=0, time=80),
    Message('note_on', channel=10, note=68, velocity=45, time=16),
    Message('note_off', channel=10, note=68, velocity=0, time=47),
    Message('note_on', channel=10, note=72, velocity=45, time=1),
    Message('note_off', channel=10, note=72, velocity=0, time=71),
    Message('note_on', channel=10, note=71, velocity=45, time=1),
    Message('note_off', channel=10, note=71, velocity=0, time=23),
    Message('note_on', channel=10, note=70, velocity=45, time=1),
    Message('note_off', channel=10, note=70, velocity=0, time=47),
    Message('note_on', channel=10, note=58, velocity=45, time=1),
    Message('note_off', channel=10, note=58, velocity=0, time=80),
    Message('note_on', channel=10, note=67, velocity=45, time=16),
    Message('note_off', channel=10, note=67, velocity=0, time=47),
    Message('note_on', channel=10, note=64, velocity=45, time=1),
    Message('note_off', channel=10, note=64, velocity=0, time=224),
    Message('note_on', channel=10, note=67, velocity=45, time=16),
    Message('note_off', channel=10, note=67, velocity=0, time=47),
    Message('note_on', channel=10, note=71, velocity=45, time=1),
    Message('note_off', channel=10, note=71, velocity=0, time=80),
    Message('note_on', channel=10, note=67, velocity=45, time=16),
    Message('note_off', channel=10, note=67, velocity=0, time=47),
    Message('note_on', channel=10, note=71, velocity=45, time=1),
    Message('note_off', channel=10, note=71, velocity=0, time=80),
    Message('note_on', channel=10, note=67, velocity=45, time=16),
    Message('note_off', channel=10, note=67, velocity=0, time=47),
    Message('note_on', channel=10, note=72, velocity=45, time=1),
    Message('note_off', channel=10, note=72, velocity=0, time=80),
    Message('note_on', channel=10, note=71, velocity=45, time=16),
    Message('note_off', channel=10, note=71, velocity=0, time=47),
    Message('note_on', channel=10, note=70, velocity=45, time=1),
    Message('note_off', channel=10, note=70, velocity=0, time=80),
    Message('note_on', channel=10, note=66, velocity=45, time=16),
    Message('note_off', channel=10, note=66, velocity=0, time=47),
    Message('note_on', channel=10, note=67, velocity=45, time=1),
    Message('note_off', channel=10, note=67, velocity=0, time=71),
    Message('note_on', channel=10, note=71, velocity=45, time=1),
    Message('note_off', channel=10, note=71, velocity=0, time=23),
    Message('note_on', channel=10, note=70, velocity=45, time=1),
    Message('note_off', channel=10, note=70, velocity=0, time=47),
    Message('note_on', channel=10, note=58, velocity=45, time=1),
    Message('note_off', channel=10, note=58, velocity=0, time=80),
    Message('note_on', channel=10, note=60, velocity=45, time=16),
    Message('note_off', channel=10, note=60, velocity=0, time=47),
    Message('note_on', channel=10, note=71, velocity=45, time=1),
    Message('note_off', channel=10, note=71, velocity=0, time=224),
    Message('note_on', channel=10, note=67, velocity=45, time=16),
    Message('note_off', channel=10, note=67, velocity=0, time=47),
    Message('note_on', channel=10, note=71, velocity=45, time=1),
    Message('note_off', channel=10, note=71, velocity=0, time=80),
    Message('note_on', channel=10, note=67, velocity=45, time=16),
    Message('note_off', channel=10, note=67, velocity=0, time=47),
    Message('note_on', channel=10, note=71, velocity=45, time=1),
    Message('note_off', channel=10, note=71, velocity=0, time=80),
    Message('note_on', channel=10, note=67, velocity=45, time=16),
    Message('note_off', channel=10, note=67, velocity=0, time=47),
    Message('note_on', channel=10, note=74, velocity=45, time=1),
    Message('note_off', channel=10, note=74, velocity=0, time=80),
    Message('note_on', channel=10, note=73, velocity=45, time=16),
    Message('note_off', channel=10, note=73, velocity=0, time=47),
    Message('note_on', channel=10, note=72, velocity=45, time=1),
    Message('note_off', channel=10, note=72, velocity=0, time=80),
    Message('note_on', channel=10, note=68, velocity=45, time=16),
    Message('note_off', channel=10, note=68, velocity=0, time=47),
    Message('note_on', channel=10, note=72, velocity=45, time=1),
    Message('note_off', channel=10, note=72, velocity=0, time=71),
    Message('note_on', channel=10, note=71, velocity=45, time=1),
    Message('note_off', channel=10, note=71, velocity=0, time=23),
    Message('note_on', channel=10, note=70, velocity=45, time=1),
    Message('note_off', channel=10, note=70, velocity=0, time=47),
    Message('note_on', channel=10, note=58, velocity=45, time=1),
    Message('note_off', channel=10, note=58, velocity=0, time=80),
    Message('note_on', channel=10, note=67, velocity=45, time=16),
    Message('note_off', channel=10, note=67, velocity=0, time=47),
    Message('note_on', channel=10, note=64, velocity=45, time=1),
    Message('note_off', channel=10, note=64, velocity=0, time=128),
    Message('note_on', channel=10, note=59, velocity=45, time=16),
    Message('note_off', channel=10, note=59, velocity=0, time=8),
    Message('note_on', channel=10, note=60, velocity=45, time=0),
    Message('note_off', channel=10, note=60, velocity=0, time=8),
    Message('note_on', channel=10, note=63, velocity=45, time=0),
    Message('note_off', channel=10, note=63, velocity=0, time=8),
    Message('note_on', channel=10, note=64, velocity=45, time=0),
    Message('note_off', channel=10, note=64, velocity=0, time=4),
    Message('note_on', channel=10, note=66, velocity=45, time=0),
    Message('note_off', channel=10, note=66, velocity=0, time=4),
    Message('note_on', channel=10, note=67, velocity=45, time=0),
    Message('note_off', channel=10, note=67, velocity=0, time=4),
    Message('note_on', channel=10, note=70, velocity=45, time=0),
    Message('note_off', channel=10, note=70, velocity=0, time=4),
    Message('note_on', channel=10, note=71, velocity=45, time=0),
    Message('note_off', channel=10, note=71, velocity=0, time=4),
    Message('note_on', channel=10, note=72, velocity=45, time=0),
    Message('note_off', channel=10, note=72, velocity=0, time=4),
    Message('note_on', channel=10, note=75, velocity=45, time=0),
    Message('note_off', channel=10, note=75, velocity=0, time=4),
    Message('note_on', channel=10, note=76, velocity=45, time=0),
    Message('note_off', channel=10, note=76, velocity=0, time=4),
    Message('note_on', channel=10, note=78, velocity=45, time=0),
    Message('note_off', channel=10, note=78, velocity=0, time=4),
    Message('note_on', channel=10, note=79, velocity=45, time=0),
    Message('note_off', channel=10, note=79, velocity=0, time=4),
    Message('note_on', channel=10, note=82, velocity=45, time=0),
    Message('note_off', channel=10, note=82, velocity=0, time=4),
    Message('note_on', channel=10, note=83, velocity=45, time=0),
    Message('note_off', channel=10, note=83, velocity=0, time=4),
    Message('note_on', channel=10, note=84, velocity=45, time=0),
    Message('note_off', channel=10, note=84, velocity=0, time=4),
    Message('note_on', channel=10, note=87, velocity=45, time=0),
    Message('note_off', channel=10, note=87, velocity=0, time=4),
    Message('note_on', channel=10, note=88, velocity=45, time=0),
    Message('note_off', channel=10, note=88, velocity=0, time=4),
    Message('note_on', channel=10, note=90, velocity=45, time=0),
    Message('note_off', channel=10, note=90, velocity=0, time=4),
    Message('note_on', channel=10, note=91, velocity=45, time=0),
    Message('note_off', channel=10, note=91, velocity=0, time=4),
    Message('note_on', channel=10, note=94, velocity=45, time=0),
    Message('note_off', channel=10, note=94, velocity=0, time=4),
    Message('note_on', channel=10, note=95, velocity=45, time=0),
    Message('note_off', channel=10, note=95, velocity=0, time=47),
    Message('control_change', channel=10, control=7, value=100, time=16177),
    Message('note_on', channel=10, note=52, velocity=75, time=0),
    Message('note_off', channel=10, note=52, velocity=0, time=24),
    Message('note_on', channel=10, note=53, velocity=76, time=0),
    Message('control_change', channel=10, control=7, value=101, time=14),
    Message('note_off', channel=10, note=53, velocity=0, time=10),
    Message('note_on', channel=10, note=55, velocity=77, time=0),
    Message('note_off', channel=10, note=55, velocity=0, time=24),
    Message('note_on', channel=10, note=57, velocity=78, time=0),
    Message('control_change', channel=10, control=7, value=102, time=4),
    Message('note_off', channel=10, note=57, velocity=0, time=20),
    Message('note_on', channel=10, note=59, velocity=79, time=0),
    Message('control_change', channel=10, control=7, value=103, time=19),
    Message('note_off', channel=10, note=59, velocity=0, time=5),
    Message('note_on', channel=10, note=60, velocity=80, time=0),
    Message('note_off', channel=10, note=60, velocity=0, time=24),
    Message('note_on', channel=10, note=62, velocity=81, time=0),
    Message('control_change', channel=10, control=7, value=104, time=9),
    Message('note_off', channel=10, note=62, velocity=0, time=7),
    Message('note_on', channel=10, note=64, velocity=81, time=0),
    Message('note_off', channel=10, note=64, velocity=0, time=16),
    Message('note_on', channel=10, note=65, velocity=81, time=0),
    Message('note_off', channel=10, note=65, velocity=0, time=16),
    Message('control_change', channel=10, control=7, value=105, time=0),
    Message('note_on', channel=10, note=68, velocity=81, time=0),
    Message('note_off', channel=10, note=68, velocity=0, time=16),
    Message('note_on', channel=10, note=69, velocity=81, time=0),
    Message('note_off', channel=10, note=69, velocity=0, time=16),
    Message('note_on', channel=10, note=71, velocity=82, time=0),
    Message('control_change', channel=10, control=7, value=106, time=6),
    Message('note_off', channel=10, note=71, velocity=0, time=10),
    Message('note_on', channel=10, note=72, velocity=83, time=0),
    Message('note_off', channel=10, note=72, velocity=0, time=12),
    Message('note_on', channel=10, note=74, velocity=83, time=0),
    Message('note_off', channel=10, note=74, velocity=0, time=12),
    Message('note_on', channel=10, note=76, velocity=83, time=0),
    Message('control_change', channel=10, control=7, value=107, time=4),
    Message('note_off', channel=10, note=76, velocity=0, time=8),
    Message('note_on', channel=10, note=77, velocity=83, time=0),
    Message('note_off', channel=10, note=77, velocity=0, time=12),
    Message('note_on', channel=10, note=80, velocity=84, time=0),
    Message('note_off', channel=10, note=80, velocity=0, time=12),
    Message('note_on', channel=10, note=81, velocity=85, time=0),
    Message('control_change', channel=10, control=7, value=108, time=7),
    Message('note_off', channel=10, note=81, velocity=0, time=5),
    Message('note_on', channel=10, note=83, velocity=86, time=0),
    Message('note_off', channel=10, note=83, velocity=0, time=12),
    Message('note_on', channel=10, note=84, velocity=87, time=0),
    Message('note_off', channel=10, note=84, velocity=0, time=12),
    Message('note_on', channel=10, note=86, velocity=88, time=0),
    Message('control_change', channel=10, control=7, value=109, time=9),
    Message('note_off', channel=10, note=86, velocity=0, time=3),
    Message('note_on', channel=10, note=88, velocity=89, time=0),
    Message('note_off', channel=10, note=88, velocity=0, time=12),
    Message('note_on', channel=10, note=90, velocity=90, time=0),
    Message('note_off', channel=10, note=90, velocity=0, time=12),
    Message('note_on', channel=10, note=92, velocity=91, time=0),
    Message('note_off', channel=10, note=92, velocity=0, time=12),
    Message('control_change', channel=10, control=7, value=110, time=0),
    Message('note_on', channel=10, note=93, velocity=92, time=0),
    Message('note_off', channel=10, note=93, velocity=0, time=47),
    Message('control_change', channel=10, control=7, value=100, time=1297),
    Message('note_on', channel=10, note=56, velocity=75, time=0),
    Message('control_change', channel=10, control=7, value=101, time=6),
    Message('note_off', channel=10, note=56, velocity=0, time=6),
    Message('note_on', channel=10, note=57, velocity=77, time=0),
    Message('control_change', channel=10, control=7, value=102, time=1),
    Message('control_change', channel=10, control=7, value=103, time=7),
    Message('note_off', channel=10, note=57, velocity=0, time=4),
    Message('note_on', channel=10, note=59, velocity=79, time=0),
    Message('control_change', channel=10, control=7, value=104, time=3),
    Message('note_off', channel=10, note=59, velocity=0, time=3),
    Message('note_on', channel=10, note=60, velocity=80, time=0),
    Message('control_change', channel=10, control=7, value=105, time=4),
    Message('note_off', channel=10, note=60, velocity=0, time=2),
    Message('note_on', channel=10, note=63, velocity=81, time=0),
    Message('control_change', channel=10, control=7, value=106, time=5),
    Message('note_off', channel=10, note=63, velocity=0, time=1),
    Message('note_on', channel=10, note=64, velocity=82, time=0),
    Message('note_off', channel=10, note=64, velocity=0, time=6),
    Message('control_change', channel=10, control=7, value=107, time=0),
    Message('note_on', channel=10, note=65, velocity=83, time=0),
    Message('note_off', channel=10, note=65, velocity=0, time=6),
    Message('note_on', channel=10, note=68, velocity=84, time=0),
    Message('control_change', channel=10, control=7, value=108, time=1),
    Message('note_off', channel=10, note=68, velocity=0, time=5),
    Message('note_on', channel=10, note=69, velocity=85, time=0),
    Message('control_change', channel=10, control=7, value=109, time=2),
    Message('note_off', channel=10, note=69, velocity=0, time=4),
    Message('note_on', channel=10, note=71, velocity=86, time=0),
    Message('control_change', channel=10, control=7, value=110, time=3),
    Message('note_off', channel=10, note=71, velocity=0, time=3),
    Message('note_on', channel=10, note=72, velocity=87, time=0),
    Message('control_change', channel=10, control=7, value=111, time=3),
    Message('note_off', channel=10, note=72, velocity=0, time=3),
    Message('note_on', channel=10, note=75, velocity=88, time=0),
    Message('control_change', channel=10, control=7, value=112, time=4),
    Message('note_off', channel=10, note=75, velocity=0, time=2),
    Message('note_on', channel=10, note=76, velocity=90, time=0),
    Message('control_change', channel=10, control=7, value=113, time=5),
    Message('note_off', channel=10, note=76, velocity=0, time=1),
    Message('note_on', channel=10, note=77, velocity=92, time=0),
    Message('note_off', channel=10, note=77, velocity=0, time=6),
    Message('control_change', channel=10, control=7, value=114, time=0),
    Message('note_on', channel=10, note=80, velocity=94, time=0),
    Message('note_off', channel=10, note=80, velocity=0, time=6),
    Message('note_on', channel=10, note=81, velocity=96, time=0),
    Message('control_change', channel=10, control=7, value=115, time=1),
    Message('note_off', channel=10, note=81, velocity=0, time=5),
    Message('note_on', channel=10, note=83, velocity=98, time=0),
    Message('control_change', channel=10, control=7, value=116, time=2),
    Message('note_off', channel=10, note=83, velocity=0, time=4),
    Message('note_on', channel=10, note=84, velocity=100, time=0),
    Message('control_change', channel=10, control=7, value=117, time=3),
    Message('note_off', channel=10, note=84, velocity=0, time=3),
    Message('note_on', channel=10, note=87, velocity=102, time=0),
    Message('control_change', channel=10, control=7, value=118, time=4),
    Message('note_off', channel=10, note=87, velocity=0, time=2),
    Message('note_on', channel=10, note=88, velocity=104, time=0),
    Message('control_change', channel=10, control=7, value=119, time=5),
    Message('note_off', channel=10, note=88, velocity=0, time=1),
    Message('note_on', channel=10, note=89, velocity=106, time=0),
    Message('note_off', channel=10, note=89, velocity=0, time=6),
    Message('control_change', channel=10, control=7, value=120, time=0),
    Message('note_on', channel=10, note=92, velocity=108, time=0),
    Message('control_change', channel=10, control=7, value=119, time=2),
    Message('control_change', channel=10, control=7, value=118, time=3),
    Message('note_off', channel=10, note=92, velocity=0, time=1),
    Message('note_on', channel=10, note=89, velocity=105, time=0),
    Message('control_change', channel=10, control=7, value=117, time=2),
    Message('control_change', channel=10, control=7, value=116, time=2),
    Message('note_off', channel=10, note=89, velocity=0, time=2),
    Message('note_on', channel=10, note=88, velocity=102, time=0),
    Message('control_change', channel=10, control=7, value=115, time=1),
    Message('control_change', channel=10, control=7, value=114, time=3),
    Message('note_off', channel=10, note=88, velocity=0, time=2),
    Message('control_change', channel=10, control=7, value=113, time=0),
    Message('note_on', channel=10, note=87, velocity=99, time=0),
    Message('control_change', channel=10, control=7, value=112, time=3),
    Message('note_off', channel=10, note=87, velocity=0, time=3),
    Message('control_change', channel=10, control=7, value=111, time=0),
    Message('note_on', channel=10, note=84, velocity=95, time=0),
    Message('control_change', channel=10, control=7, value=110, time=3),
    Message('control_change', channel=10, control=7, value=109, time=2),
    Message('note_off', channel=10, note=84, velocity=0, time=1),
    Message('note_on', channel=10, note=83, velocity=91, time=0),
    Message('control_change', channel=10, control=7, value=108, time=2),
    Message('control_change', channel=10, control=7, value=107, time=3),
    Message('note_off', channel=10, note=83, velocity=0, time=1),
    Message('note_on', channel=10, note=80, velocity=87, time=0),
    Message('control_change', channel=10, control=7, value=106, time=1),
    Message('control_change', channel=10, control=7, value=105, time=3),
    Message('note_off', channel=10, note=80, velocity=0, time=2),
    Message('note_on', channel=10, note=77, velocity=83, time=0),
    Message('control_change', channel=10, control=7, value=104, time=1),
    Message('control_change', channel=10, control=7, value=103, time=2),
    Message('note_off', channel=10, note=77, velocity=0, time=3),
    Message('control_change', channel=10, control=7, value=102, time=0),
    Message('note_on', channel=10, note=76, velocity=79, time=0),
    Message('control_change', channel=10, control=7, value=101, time=3),
    Message('note_off', channel=10, note=76, velocity=0, time=3),
    Message('control_change', channel=10, control=7, value=100, time=0),
    Message('note_on', channel=10, note=76, velocity=75, time=0),
    Message('note_off', channel=10, note=76, velocity=0, time=47),
    Message('control_change', channel=10, control=7, value=70, time=1105),
    Message('note_on', channel=10, note=53, velocity=30, time=0),
    Message('control_change', channel=10, control=7, value=71, time=12),
    Message('note_off', channel=10, note=53, velocity=0, time=12),
    Message('note_on', channel=10, note=55, velocity=32, time=0),
    Message('control_change', channel=10, control=7, value=72, time=1),
    Message('control_change', channel=10, control=7, value=73, time=13),
    Message('note_off', channel=10, note=55, velocity=0, time=10),
    Message('note_on', channel=10, note=57, velocity=34, time=0),
    Message('control_change', channel=10, control=7, value=74, time=3),
    Message('control_change', channel=10, control=7, value=75, time=13),
    Message('note_off', channel=10, note=57, velocity=0, time=8),
    Message('note_on', channel=10, note=58, velocity=36, time=0),
    Message('control_change', channel=10, control=7, value=76, time=4),
    Message('control_change', channel=10, control=7, value=77, time=13),
    Message('note_off', channel=10, note=58, velocity=0, time=7),
    Message('note_on', channel=10, note=59, velocity=39, time=0),
    Message('control_change', channel=10, control=7, value=78, time=6),
    Message('control_change', channel=10, control=7, value=79, time=13),
    Message('note_off', channel=10, note=59, velocity=0, time=5),
    Message('note_on', channel=10, note=60, velocity=42, time=0),
    Message('control_change', channel=10, control=7, value=80, time=8),
    Message('control_change', channel=10, control=7, value=81, time=12),
    Message('note_off', channel=10, note=60, velocity=0, time=4),
    Message('note_on', channel=10, note=61, velocity=45, time=0),
    Message('control_change', channel=10, control=7, value=82, time=9),
    Message('control_change', channel=10, control=7, value=83, time=13),
    Message('note_off', channel=10, note=61, velocity=0, time=2),
    Message('note_on', channel=10, note=62, velocity=48, time=0),
    Message('control_change', channel=10, control=7, value=84, time=11),
    Message('note_off', channel=10, note=62, velocity=0, time=13),
    Message('control_change', channel=10, control=7, value=85, time=0),
    Message('note_on', channel=10, note=63, velocity=51, time=0),
    Message('control_change', channel=10, control=7, value=86, time=12),
    Message('note_off', channel=10, note=63, velocity=0, time=12),
    Message('note_on', channel=10, note=64, velocity=54, time=0),
    Message('control_change', channel=10, control=7, value=87, time=1),
    Message('control_change', channel=10, control=7, value=88, time=13),
    Message('note_off', channel=10, note=64, velocity=0, time=10),
    Message('note_on', channel=10, note=65, velocity=57, time=0),
    Message('control_change', channel=10, control=7, value=89, time=3),
    Message('control_change', channel=10, control=7, value=90, time=13),
    Message('note_off', channel=10, note=65, velocity=0, time=8),
    Message('note_on', channel=10, note=67, velocity=60, time=0),
    Message('control_change', channel=10, control=7, value=91, time=4),
    Message('note_off', channel=10, note=67, velocity=0, time=12),
    Message('note_on', channel=10, note=53, velocity=62, time=0),
    Message('control_change', channel=10, control=7, value=92, time=1),
    Message('control_change', channel=10, control=7, value=93, time=13),
    Message('note_off', channel=10, note=53, velocity=0, time=2),
    Message('note_on', channel=10, note=55, velocity=64, time=0),
    Message('control_change', channel=10, control=7, value=94, time=11),
    Message('note_off', channel=10, note=55, velocity=0, time=5),
    Message('note_on', channel=10, note=57, velocity=66, time=0),
    Message('note_off', channel=10, note=57, velocity=0, time=8),
    Message('control_change', channel=10, control=7, value=95, time=0),
    Message('note_on', channel=10, note=58, velocity=67, time=0),
    Message('note_off', channel=10, note=58, velocity=0, time=8),
    Message('note_on', channel=10, note=59, velocity=68, time=0),
    Message('control_change', channel=10, control=7, value=96, time=4),
    Message('note_off', channel=10, note=59, velocity=0, time=4),
    Message('note_on', channel=10, note=60, velocity=69, time=0),
    Message('note_off', channel=10, note=60, velocity=0, time=8),
    Message('note_on', channel=10, note=61, velocity=70, time=0),
    Message('control_change', channel=10, control=7, value=97, time=1),
    Message('note_off', channel=10, note=61, velocity=0, time=7),
    Message('note_on', channel=10, note=62, velocity=71, time=0),
    Message('control_change', channel=10, control=7, value=98, time=6),
    Message('note_off', channel=10, note=62, velocity=0, time=2),
    Message('note_on', channel=10, note=64, velocity=72, time=0),
    Message('note_off', channel=10, note=64, velocity=0, time=8),
    Message('note_on', channel=10, note=65, velocity=73, time=0),
    Message('control_change', channel=10, control=7, value=99, time=3),
    Message('note_off', channel=10, note=65, velocity=0, time=5),
    Message('note_on', channel=10, note=67, velocity=74, time=0),
    Message('note_off', channel=10, note=67, velocity=0, time=8),
    Message('control_change', channel=10, control=7, value=100, time=0),
    Message('note_on', channel=10, note=68, velocity=75, time=0),
    Message('note_off', channel=10, note=68, velocity=0, time=12),
    Message('note_on', channel=10, note=69, velocity=76, time=0),
    Message('control_change', channel=10, control=7, value=101, time=7),
    Message('note_off', channel=10, note=69, velocity=0, time=5),
    Message('note_on', channel=10, note=70, velocity=77, time=0),
    Message('note_off', channel=10, note=70, velocity=0, time=12),
    Message('note_on', channel=10, note=71, velocity=78, time=0),
    Message('control_change', channel=10, control=7, value=102, time=2),
    Message('note_off', channel=10, note=71, velocity=0, time=10),
    Message('note_on', channel=10, note=72, velocity=79, time=0),
    Message('control_change', channel=10, control=7, value=103, time=9),
    Message('note_off', channel=10, note=72, velocity=0, time=3),
    Message('note_on', channel=10, note=73, velocity=80, time=0),
    Message('note_off', channel=10, note=73, velocity=0, time=12),
    Message('note_on', channel=10, note=74, velocity=81, time=0),
    Message('control_change', channel=10, control=7, value=104, time=4),
    Message('note_off', channel=10, note=74, velocity=0, time=8),
    Message('note_on', channel=10, note=75, velocity=82, time=0),
    Message('note_off', channel=10, note=75, velocity=0, time=12),
    Message('control_change', channel=10, control=7, value=105, time=0),
    Message('note_on', channel=10, note=76, velocity=83, time=0),
    Message('note_off', channel=10, note=76, velocity=0, time=12),
    Message('note_on', channel=10, note=77, velocity=84, time=0),
    Message('control_change', channel=10, control=7, value=106, time=7),
    Message('note_off', channel=10, note=77, velocity=0, time=5),
    Message('note_on', channel=10, note=78, velocity=85, time=0),
    Message('note_off', channel=10, note=78, velocity=0, time=12),
    Message('note_on', channel=10, note=79, velocity=86, time=0),
    Message('control_change', channel=10, control=7, value=107, time=2),
    Message('note_off', channel=10, note=79, velocity=0, time=10),
    Message('note_on', channel=10, note=80, velocity=87, time=0),
    Message('control_change', channel=10, control=7, value=108, time=9),
    Message('note_off', channel=10, note=80, velocity=0, time=3),
    Message('note_on', channel=10, note=79, velocity=88, time=0),
    Message('note_off', channel=10, note=79, velocity=0, time=12),
    Message('note_on', channel=10, note=78, velocity=89, time=0),
    Message('control_change', channel=10, control=7, value=109, time=4),
    Message('note_off', channel=10, note=78, velocity=0, time=8),
    Message('note_on', channel=10, note=77, velocity=90, time=0),
    Message('note_off', channel=10, note=77, velocity=0, time=12),
    Message('control_change', channel=10, control=7, value=110, time=0),
    Message('note_on', channel=10, note=76, velocity=92, time=0),
    Message('note_off', channel=10, note=76, velocity=0, time=12),
    Message('note_on', channel=10, note=75, velocity=91, time=0),
    Message('control_change', channel=10, control=7, value=109, time=7),
    Message('note_off', channel=10, note=75, velocity=0, time=5),
    Message('note_on', channel=10, note=74, velocity=90, time=0),
    Message('note_off', channel=10, note=74, velocity=0, time=12),
    Message('note_on', channel=10, note=73, velocity=89, time=0),
    Message('control_change', channel=10, control=7, value=108, time=2),
    Message('note_off', channel=10, note=73, velocity=0, time=10),
    Message('note_on', channel=10, note=72, velocity=88, time=0),
    Message('control_change', channel=10, control=7, value=107, time=9),
    Message('note_off', channel=10, note=72, velocity=0, time=3),
    Message('note_on', channel=10, note=71, velocity=87, time=0),
    Message('note_off', channel=10, note=71, velocity=0, time=12),
    Message('note_on', channel=10, note=70, velocity=86, time=0),
    Message('control_change', channel=10, control=7, value=106, time=4),
    Message('note_off', channel=10, note=70, velocity=0, time=8),
    Message('note_on', channel=10, note=69, velocity=85, time=0),
    Message('note_off', channel=10, note=69, velocity=0, time=12),
    Message('control_change', channel=10, control=7, value=105, time=0),
    Message('note_on', channel=10, note=68, velocity=84, time=0),
    Message('note_off', channel=10, note=68, velocity=0, time=12),
    Message('note_on', channel=10, note=67, velocity=83, time=0),
    Message('control_change', channel=10, control=7, value=104, time=7),
    Message('note_off', channel=10, note=67, velocity=0, time=5),
    Message('note_on', channel=10, note=66, velocity=82, time=0),
    Message('note_off', channel=10, note=66, velocity=0, time=12),
    Message('note_on', channel=10, note=65, velocity=81, time=0),
    Message('control_change', channel=10, control=7, value=103, time=2),
    Message('note_off', channel=10, note=65, velocity=0, time=10),
    Message('note_on', channel=10, note=64, velocity=80, time=0),
    Message('control_change', channel=10, control=7, value=102, time=9),
    Message('note_off', channel=10, note=64, velocity=0, time=3),
    Message('note_on', channel=10, note=63, velocity=79, time=0),
    Message('note_off', channel=10, note=63, velocity=0, time=12),
    Message('note_on', channel=10, note=62, velocity=78, time=0),
    Message('control_change', channel=10, control=7, value=101, time=4),
    Message('note_off', channel=10, note=62, velocity=0, time=8),
    Message('note_on', channel=10, note=61, velocity=77, time=0),
    Message('note_off', channel=10, note=61, velocity=0, time=12),
    Message('control_change', channel=10, control=7, value=100, time=0),
    Message('note_on', channel=10, note=60, velocity=75, time=0),
    Message('note_off', channel=10, note=60, velocity=0, time=80),
    Message('note_on', channel=10, note=60, velocity=75, time=784),
    Message('note_off', channel=10, note=60, velocity=0, time=24),
    Message('note_on', channel=10, note=64, velocity=75, time=0),
    Message('note_off', channel=10, note=64, velocity=0, time=24),
    Message('note_on', channel=10, note=69, velocity=75, time=0),
    Message('note_off', channel=10, note=69, velocity=0, time=24),
    Message('note_on', channel=10, note=72, velocity=75, time=0),
    Message('note_off', channel=10, note=72, velocity=0, time=24),
    Message('note_on', channel=10, note=76, velocity=75, time=0),
    Message('note_off', channel=10, note=76, velocity=0, time=168),
    Message('note_on', channel=10, note=60, velocity=75, time=120),
    Message('note_off', channel=10, note=60, velocity=0, time=24),
    Message('note_on', channel=10, note=64, velocity=75, time=0),
    Message('note_off', channel=10, note=64, velocity=0, time=24),
    Message('note_on', channel=10, note=69, velocity=75, time=0),
    Message('note_off', channel=10, note=69, velocity=0, time=24),
    Message('note_on', channel=10, note=72, velocity=75, time=0),
    Message('note_off', channel=10, note=72, velocity=0, time=24),
    Message('note_on', channel=10, note=76, velocity=75, time=0),
    Message('note_off', channel=10, note=76, velocity=0, time=168),
    Message('note_on', channel=10, note=62, velocity=75, time=120),
    Message('note_off', channel=10, note=62, velocity=0, time=24),
    Message('note_on', channel=10, note=65, velocity=75, time=0),
    Message('note_off', channel=10, note=65, velocity=0, time=24),
    Message('note_on', channel=10, note=69, velocity=75, time=0),
    Message('note_off', channel=10, note=69, velocity=0, time=24),
    Message('note_on', channel=10, note=74, velocity=75, time=0),
    Message('note_off', channel=10, note=74, velocity=0, time=24),
    Message('note_on', channel=10, note=77, velocity=75, time=0),
    Message('note_off', channel=10, note=77, velocity=0, time=168),
    Message('note_on', channel=10, note=69, velocity=75, time=24),
    Message('note_off', channel=10, note=69, velocity=0, time=12),
    Message('note_on', channel=10, note=71, velocity=75, time=0),
    Message('note_off', channel=10, note=71, velocity=0, time=12),
    Message('note_on', channel=10, note=72, velocity=75, time=0),
    Message('note_off', channel=10, note=72, velocity=0, time=12),
    Message('note_on', channel=10, note=74, velocity=75, time=0),
    Message('note_off', channel=10, note=74, velocity=0, time=12),
    Message('note_on', channel=10, note=76, velocity=75, time=0),
    Message('note_off', channel=10, note=76, velocity=0, time=12),
    Message('note_on', channel=10, note=78, velocity=75, time=0),
    Message('note_off', channel=10, note=78, velocity=0, time=12),
    Message('note_on', channel=10, note=79, velocity=75, time=0),
    Message('note_off', channel=10, note=79, velocity=0, time=12),
    Message('note_on', channel=10, note=81, velocity=75, time=0),
    Message('note_off', channel=10, note=81, velocity=0, time=12),
    Message('note_on', channel=10, note=83, velocity=75, time=0),
    Message('note_off', channel=10, note=83, velocity=0, time=12),
    Message('note_on', channel=10, note=84, velocity=75, time=0),
    Message('note_off', channel=10, note=84, velocity=0, time=12),
    Message('note_on', channel=10, note=86, velocity=75, time=0),
    Message('note_off', channel=10, note=86, velocity=0, time=12),
    Message('note_on', channel=10, note=88, velocity=75, time=0),
    Message('note_off', channel=10, note=88, velocity=0, time=12),
    Message('note_on', channel=10, note=90, velocity=75, time=0),
    Message('note_off', channel=10, note=90, velocity=0, time=12),
    Message('note_on', channel=10, note=91, velocity=75, time=0),
    Message('note_off', channel=10, note=91, velocity=0, time=12),
    Message('note_on', channel=10, note=93, velocity=75, time=0),
    Message('note_off', channel=10, note=93, velocity=0, time=12),
    Message('note_on', channel=10, note=91, velocity=75, time=0),
    Message('note_off', channel=10, note=91, velocity=0, time=12),
    Message('note_on', channel=10, note=90, velocity=75, time=0),
    Message('note_off', channel=10, note=90, velocity=0, time=12),
    Message('note_on', channel=10, note=88, velocity=75, time=0),
    Message('note_off', channel=10, note=88, velocity=0, time=12),
    Message('note_on', channel=10, note=86, velocity=75, time=0),
    Message('note_off', channel=10, note=86, velocity=0, time=12),
    Message('note_on', channel=10, note=84, velocity=75, time=0),
    Message('note_off', channel=10, note=84, velocity=0, time=12),
    Message('note_on', channel=10, note=83, velocity=75, time=0),
    Message('note_off', channel=10, note=83, velocity=0, time=12),
    Message('note_on', channel=10, note=81, velocity=75, time=0),
    Message('note_off', channel=10, note=81, velocity=0, time=12),
    Message('note_on', channel=10, note=79, velocity=75, time=0),
    Message('note_off', channel=10, note=79, velocity=0, time=12),
    Message('note_on', channel=10, note=78, velocity=75, time=0),
    Message('note_off', channel=10, note=78, velocity=0, time=12),
    Message('note_on', channel=10, note=76, velocity=75, time=0),
    Message('note_off', channel=10, note=76, velocity=0, time=12),
    Message('note_on', channel=10, note=74, velocity=75, time=0),
    Message('note_off', channel=10, note=74, velocity=0, time=12),
    Message('note_on', channel=10, note=72, velocity=75, time=0),
    Message('note_off', channel=10, note=72, velocity=0, time=8),
    Message('note_on', channel=10, note=71, velocity=75, time=0),
    Message('note_off', channel=10, note=71, velocity=0, time=8),
    Message('note_on', channel=10, note=69, velocity=75, time=0),
    Message('note_off', channel=10, note=69, velocity=0, time=8),
    Message('note_on', channel=10, note=67, velocity=75, time=0),
    Message('note_off', channel=10, note=67, velocity=0, time=8),
    Message('note_on', channel=10, note=66, velocity=75, time=0),
    Message('note_off', channel=10, note=66, velocity=0, time=8),
    Message('note_on', channel=10, note=64, velocity=75, time=0),
    Message('note_off', channel=10, note=64, velocity=0, time=8),
    Message('note_on', channel=10, note=62, velocity=75, time=0),
    Message('note_off', channel=10, note=62, velocity=0, time=8),
    Message('note_on', channel=10, note=60, velocity=75, time=0),
    Message('note_off', channel=10, note=60, velocity=0, time=8),
    Message('note_on', channel=10, note=59, velocity=75, time=0),
    Message('note_off', channel=10, note=59, velocity=0, time=8),
    Message('note_on', channel=10, note=57, velocity=75, time=0),
    Message('note_off', channel=10, note=57, velocity=0, time=47),
    Message('control_change', channel=10, control=7, value=70, time=1105),
    Message('note_on', channel=10, note=67, velocity=30, time=0),
    Message('control_change', channel=10, control=7, value=71, time=5),
    Message('control_change', channel=10, control=7, value=72, time=6),
    Message('note_off', channel=10, note=67, velocity=0, time=1),
    Message('note_on', channel=10, note=69, velocity=33, time=0),
    Message('control_change', channel=10, control=7, value=73, time=4),
    Message('control_change', channel=10, control=7, value=74, time=6),
    Message('note_off', channel=10, note=69, velocity=0, time=2),
    Message('note_on', channel=10, note=71, velocity=36, time=0),
    Message('control_change', channel=10, control=7, value=75, time=3),
    Message('control_change', channel=10, control=7, value=76, time=6),
    Message('note_off', channel=10, note=71, velocity=0, time=3),
    Message('note_on', channel=10, note=72, velocity=39, time=0),
    Message('control_change', channel=10, control=7, value=77, time=3),
    Message('control_change', channel=10, control=7, value=78, time=5),
    Message('note_off', channel=10, note=72, velocity=0, time=4),
    Message('note_on', channel=10, note=74, velocity=42, time=0),
    Message('control_change', channel=10, control=7, value=79, time=2),
    Message('control_change', channel=10, control=7, value=80, time=5),
    Message('note_off', channel=10, note=74, velocity=0, time=5),
    Message('note_on', channel=10, note=76, velocity=45, time=0),
    Message('control_change', channel=10, control=7, value=81, time=1),
    Message('control_change', channel=10, control=7, value=82, time=6),
    Message('note_off', channel=10, note=76, velocity=0, time=5),
    Message('control_change', channel=10, control=7, value=83, time=0),
    Message('note_on', channel=10, note=77, velocity=48, time=0),
    Message('control_change', channel=10, control=7, value=84, time=6),
    Message('control_change', channel=10, control=7, value=85, time=5),
    Message('note_off', channel=10, note=77, velocity=0, time=1),
    Message('note_on', channel=10, note=79, velocity=51, time=0),
    Message('control_change', channel=10, control=7, value=86, time=5),
    Message('control_change', channel=10, control=7, value=87, time=6),
    Message('note_off', channel=10, note=79, velocity=0, time=1),
    Message('note_on', channel=10, note=81, velocity=54, time=0),
    Message('control_change', channel=10, control=7, value=88, time=4),
    Message('control_change', channel=10, control=7, value=89, time=6),
    Message('note_off', channel=10, note=81, velocity=0, time=2),
    Message('note_on', channel=10, note=83, velocity=57, time=0),
    Message('control_change', channel=10, control=7, value=90, time=3),
    Message('control_change', channel=10, control=7, value=91, time=6),
    Message('note_off', channel=10, note=83, velocity=0, time=3),
    Message('note_on', channel=10, note=84, velocity=60, time=0),
    Message('control_change', channel=10, control=7, value=92, time=3),
    Message('control_change', channel=10, control=7, value=93, time=5),
    Message('note_off', channel=10, note=84, velocity=0, time=4),
    Message('note_on', channel=10, note=86, velocity=63, time=0),
    Message('control_change', channel=10, control=7, value=94, time=2),
    Message('control_change', channel=10, control=7, value=95, time=5),
    Message('note_off', channel=10, note=86, velocity=0, time=5),
    Message('note_on', channel=10, note=88, velocity=67, time=0),
    Message('control_change', channel=10, control=7, value=96, time=1),
    Message('control_change', channel=10, control=7, value=97, time=6),
    Message('note_off', channel=10, note=88, velocity=0, time=5),
    Message('control_change', channel=10, control=7, value=98, time=0),
    Message('note_on', channel=10, note=89, velocity=71, time=0),
    Message('control_change', channel=10, control=7, value=99, time=6),
    Message('control_change', channel=10, control=7, value=100, time=5),
    Message('note_off', channel=10, note=89, velocity=0, time=1),
    Message('note_on', channel=10, note=91, velocity=75, time=0),
    Message('control_change', channel=10, control=7, value=99, time=5),
    Message('control_change', channel=10, control=7, value=98, time=6),
    Message('note_off', channel=10, note=91, velocity=0, time=1),
    Message('note_on', channel=10, note=89, velocity=72, time=0),
    Message('control_change', channel=10, control=7, value=97, time=4),
    Message('control_change', channel=10, control=7, value=96, time=6),
    Message('note_off', channel=10, note=89, velocity=0, time=2),
    Message('note_on', channel=10, note=88, velocity=69, time=0),
    Message('control_change', channel=10, control=7, value=95, time=3),
    Message('control_change', channel=10, control=7, value=94, time=6),
    Message('note_off', channel=10, note=88, velocity=0, time=3),
    Message('note_on', channel=10, note=86, velocity=66, time=0),
    Message('control_change', channel=10, control=7, value=93, time=3),
    Message('control_change', channel=10, control=7, value=92, time=5),
    Message('note_off', channel=10, note=86, velocity=0, time=4),
    Message('note_on', channel=10, note=84, velocity=63, time=0),
    Message('control_change', channel=10, control=7, value=91, time=2),
    Message('control_change', channel=10, control=7, value=90, time=5),
    Message('note_off', channel=10, note=84, velocity=0, time=5),
    Message('note_on', channel=10, note=83, velocity=60, time=0),
    Message('control_change', channel=10, control=7, value=89, time=1),
    Message('control_change', channel=10, control=7, value=88, time=6),
    Message('note_off', channel=10, note=83, velocity=0, time=5),
    Message('control_change', channel=10, control=7, value=87, time=0),
    Message('note_on', channel=10, note=81, velocity=57, time=0),
    Message('control_change', channel=10, control=7, value=86, time=6),
    Message('control_change', channel=10, control=7, value=85, time=5),
    Message('note_off', channel=10, note=81, velocity=0, time=1),
    Message('note_on', channel=10, note=79, velocity=54, time=0),
    Message('control_change', channel=10, control=7, value=84, time=5),
    Message('control_change', channel=10, control=7, value=83, time=6),
    Message('note_off', channel=10, note=79, velocity=0, time=1),
    Message('note_on', channel=10, note=77, velocity=51, time=0),
    Message('control_change', channel=10, control=7, value=82, time=4),
    Message('note_off', channel=10, note=77, velocity=0, time=4),
    Message('note_on', channel=10, note=76, velocity=49, time=0),
    Message('control_change', channel=10, control=7, value=81, time=2),
    Message('control_change', channel=10, control=7, value=80, time=5),
    Message('note_off', channel=10, note=76, velocity=0, time=1),
    Message('note_on', channel=10, note=74, velocity=47, time=0),
    Message('control_change', channel=10, control=7, value=79, time=5),
    Message('note_off', channel=10, note=74, velocity=0, time=3),
    Message('note_on', channel=10, note=72, velocity=45, time=0),
    Message('control_change', channel=10, control=7, value=78, time=3),
    Message('control_change', channel=10, control=7, value=77, time=5),
    Message('control_change', channel=10, control=7, value=76, time=6),
    Message('control_change', channel=10, control=7, value=75, time=5),
    Message('control_change', channel=10, control=7, value=74, time=6),
    Message('control_change', channel=10, control=7, value=73, time=6),
    Message('control_change', channel=10, control=7, value=72, time=5),
    Message('control_change', channel=10, control=7, value=71, time=6),
    Message('note_off', channel=10, note=72, velocity=0, time=5),
    Message('control_change', channel=10, control=7, value=70, time=0),
    Message('control_change', channel=10, control=7, value=80, time=49),
    Message('note_on', channel=10, note=79, velocity=45, time=0),
    Message('note_off', channel=10, note=79, velocity=0, time=24),
    Message('note_on', channel=10, note=75, velocity=45, time=0),
    Message('note_off', channel=10, note=75, velocity=0, time=24),
    Message('note_on', channel=10, note=72, velocity=45, time=0),
    Message('note_off', channel=10, note=72, velocity=0, time=24),
    Message('note_on', channel=10, note=67, velocity=45, time=0),
    Message('note_off', channel=10, note=67, velocity=0, time=24),
    Message('note_on', channel=10, note=65, velocity=45, time=0),
    Message('note_off', channel=10, note=65, velocity=0, time=24),
    Message('note_on', channel=10, note=63, velocity=45, time=0),
    Message('note_off', channel=10, note=63, velocity=0, time=24),
    Message('note_on', channel=10, note=62, velocity=45, time=0),
    Message('note_off', channel=10, note=62, velocity=0, time=24),
    Message('note_on', channel=10, note=60, velocity=45, time=0),
    Message('note_off', channel=10, note=60, velocity=0, time=23),
    Message('note_on', channel=10, note=67, velocity=45, time=193),
    Message('note_off', channel=10, note=67, velocity=0, time=24),
    Message('note_on', channel=10, note=63, velocity=45, time=0),
    Message('note_off', channel=10, note=63, velocity=0, time=24),
    Message('note_on', channel=10, note=60, velocity=45, time=0),
    Message('note_off', channel=10, note=60, velocity=0, time=24),
    Message('note_on', channel=10, note=55, velocity=45, time=0),
    Message('note_off', channel=10, note=55, velocity=0, time=24),
    Message('note_on', channel=10, note=53, velocity=45, time=0),
    Message('note_off', channel=10, note=53, velocity=0, time=24),
    Message('note_on', channel=10, note=51, velocity=45, time=0),
    Message('note_off', channel=10, note=51, velocity=0, time=24),
    Message('note_on', channel=10, note=50, velocity=45, time=0),
    Message('note_off', channel=10, note=50, velocity=0, time=24),
    Message('note_on', channel=10, note=48, velocity=45, time=0),
    Message('note_off', channel=10, note=48, velocity=0, time=23),
    Message('note_on', channel=10, note=55, velocity=45, time=193),
    Message('note_off', channel=10, note=55, velocity=0, time=192),
    Message('note_on', channel=10, note=48, velocity=45, time=0),
    Message('note_off', channel=10, note=48, velocity=0, time=128),
    Message('control_change', channel=10, control=7, value=90, time=1408),
    Message('note_on', channel=10, note=53, velocity=60, time=0),
    Message('control_change', channel=10, control=7, value=91, time=6),
    Message('note_off', channel=10, note=53, velocity=0, time=6),
    Message('control_change', channel=10, control=7, value=92, time=0),
    Message('note_on', channel=10, note=55, velocity=63, time=0),
    Message('control_change', channel=10, control=7, value=93, time=7),
    Message('note_off', channel=10, note=55, velocity=0, time=5),
    Message('note_on', channel=10, note=56, velocity=66, time=0),
    Message('control_change', channel=10, control=7, value=94, time=1),
    Message('control_change', channel=10, control=7, value=95, time=7),
    Message('note_off', channel=10, note=56, velocity=0, time=4),
    Message('note_on', channel=10, note=58, velocity=69, time=0),
    Message('control_change', channel=10, control=7, value=96, time=2),
    Message('control_change', channel=10, control=7, value=97, time=6),
    Message('note_off', channel=10, note=58, velocity=0, time=4),
    Message('note_on', channel=10, note=59, velocity=72, time=0),
    Message('control_change', channel=10, control=7, value=98, time=3),
    Message('control_change', channel=10, control=7, value=99, time=6),
    Message('note_off', channel=10, note=59, velocity=0, time=3),
    Message('note_on', channel=10, note=60, velocity=75, time=0),
    Message('control_change', channel=10, control=7, value=100, time=4),
    Message('control_change', channel=10, control=7, value=101, time=6),
    Message('note_off', channel=10, note=60, velocity=0, time=2),
    Message('note_on', channel=10, note=62, velocity=78, time=0),
    Message('control_change', channel=10, control=7, value=102, time=4),
    Message('control_change', channel=10, control=7, value=103, time=7),
    Message('note_off', channel=10, note=62, velocity=0, time=1),
    Message('note_on', channel=10, note=63, velocity=81, time=0),
    Message('control_change', channel=10, control=7, value=104, time=5),
    Message('note_off', channel=10, note=63, velocity=0, time=7),
    Message('control_change', channel=10, control=7, value=105, time=0),
    Message('note_on', channel=10, note=65, velocity=84, time=0),
    Message('control_change', channel=10, control=7, value=106, time=6),
    Message('note_off', channel=10, note=65, velocity=0, time=6),
    Message('control_change', channel=10, control=7, value=107, time=0),
    Message('note_on', channel=10, note=67, velocity=87, time=0),
    Message('control_change', channel=10, control=7, value=108, time=7),
    Message('note_off', channel=10, note=67, velocity=0, time=5),
    Message('note_on', channel=10, note=68, velocity=90, time=0),
    Message('control_change', channel=10, control=7, value=109, time=1),
    Message('control_change', channel=10, control=7, value=110, time=7),
    Message('note_off', channel=10, note=68, velocity=0, time=4),
    Message('note_on', channel=10, note=71, velocity=93, time=0),
    Message('control_change', channel=10, control=7, value=111, time=2),
    Message('note_off', channel=10, note=71, velocity=0, time=2),
    Message('note_on', channel=10, note=72, velocity=94, time=0),
    Message('note_off', channel=10, note=72, velocity=0, time=4),
    Message('control_change', channel=10, control=7, value=112, time=0),
    Message('note_on', channel=10, note=74, velocity=95, time=0),
    Message('note_off', channel=10, note=74, velocity=0, time=4),
    Message('note_on', channel=10, note=75, velocity=96, time=0),
    Message('control_change', channel=10, control=7, value=113, time=3),
    Message('note_off', channel=10, note=75, velocity=0, time=1),
    Message('note_on', channel=10, note=77, velocity=97, time=0),
    Message('note_off', channel=10, note=77, velocity=0, time=4),
    Message('note_on', channel=10, note=79, velocity=98, time=0),
    Message('control_change', channel=10, control=7, value=114, time=1),
    Message('note_off', channel=10, note=79, velocity=0, time=3),
    Message('note_on', channel=10, note=80, velocity=99, time=0),
    Message('note_off', channel=10, note=80, velocity=0, time=4),
    Message('control_change', channel=10, control=7, value=115, time=0),
    Message('note_on', channel=10, note=83, velocity=100, time=0),
    Message('note_off', channel=10, note=83, velocity=0, time=4),
    Message('note_on', channel=10, note=84, velocity=101, time=0),
    Message('control_change', channel=10, control=7, value=116, time=2),
    Message('note_off', channel=10, note=84, velocity=0, time=2),
    Message('note_on', channel=10, note=86, velocity=102, time=0),
    Message('note_off', channel=10, note=86, velocity=0, time=4),
    Message('control_change', channel=10, control=7, value=117, time=0),
    Message('note_on', channel=10, note=87, velocity=103, time=0),
    Message('note_off', channel=10, note=87, velocity=0, time=4),
    Message('note_on', channel=10, note=89, velocity=104, time=0),
    Message('control_change', channel=10, control=7, value=118, time=3),
    Message('note_off', channel=10, note=89, velocity=0, time=1),
    Message('note_on', channel=10, note=91, velocity=105, time=0),
    Message('note_off', channel=10, note=91, velocity=0, time=4),
    Message('note_on', channel=10, note=92, velocity=106, time=0),
    Message('control_change', channel=10, control=7, value=119, time=1),
    Message('note_off', channel=10, note=92, velocity=0, time=3),
    Message('note_on', channel=10, note=95, velocity=107, time=0),
    Message('note_off', channel=10, note=95, velocity=0, time=3),
    Message('control_change', channel=10, control=7, value=120, time=1),
    Message('note_on', channel=10, note=96, velocity=108, time=0),
    Message('note_off', channel=10, note=96, velocity=0, time=80),
    Message('control_change', channel=10, control=7, value=110, time=1264),
    Message('note_on', channel=10, note=59, velocity=92, time=0),
    Message('note_off', channel=10, note=59, velocity=0, time=12),
    Message('note_on', channel=10, note=60, velocity=93, time=0),
    Message('control_change', channel=10, control=7, value=111, time=7),
    Message('note_off', channel=10, note=60, velocity=0, time=5),
    Message('note_on', channel=10, note=62, velocity=94, time=0),
    Message('note_off', channel=10, note=62, velocity=0, time=12),
    Message('note_on', channel=10, note=64, velocity=95, time=0),
    Message('control_change', channel=10, control=7, value=112, time=2),
    Message('note_off', channel=10, note=64, velocity=0, time=10),
    Message('note_on', channel=10, note=66, velocity=96, time=0),
    Message('control_change', channel=10, control=7, value=113, time=9),
    Message('note_off', channel=10, note=66, velocity=0, time=3),
    Message('note_on', channel=10, note=68, velocity=97, time=0),
    Message('note_off', channel=10, note=68, velocity=0, time=12),
    Message('note_on', channel=10, note=69, velocity=98, time=0),
    Message('control_change', channel=10, control=7, value=114, time=4),
    Message('note_off', channel=10, note=69, velocity=0, time=8),
    Message('note_on', channel=10, note=71, velocity=99, time=0),
    Message('note_off', channel=10, note=71, velocity=0, time=12),
    Message('control_change', channel=10, control=7, value=115, time=0),
    Message('note_on', channel=10, note=72, velocity=100, time=0),
    Message('note_off', channel=10, note=72, velocity=0, time=12),
    Message('note_on', channel=10, note=74, velocity=101, time=0),
    Message('control_change', channel=10, control=7, value=116, time=7),
    Message('note_off', channel=10, note=74, velocity=0, time=5),
    Message('note_on', channel=10, note=76, velocity=102, time=0),
    Message('note_off', channel=10, note=76, velocity=0, time=12),
    Message('note_on', channel=10, note=78, velocity=103, time=0),
    Message('control_change', channel=10, control=7, value=117, time=2),
    Message('note_off', channel=10, note=78, velocity=0, time=10),
    Message('note_on', channel=10, note=80, velocity=104, time=0),
    Message('control_change', channel=10, control=7, value=118, time=9),
    Message('note_off', channel=10, note=80, velocity=0, time=3),
    Message('note_on', channel=10, note=81, velocity=105, time=0),
    Message('note_off', channel=10, note=81, velocity=0, time=12),
    Message('note_on', channel=10, note=83, velocity=106, time=0),
    Message('control_change', channel=10, control=7, value=119, time=4),
    Message('note_off', channel=10, note=83, velocity=0, time=8),
    Message('note_on', channel=10, note=84, velocity=107, time=0),
    Message('note_off', channel=10, note=84, velocity=0, time=12),
    Message('control_change', channel=10, control=7, value=120, time=0),
    Message('note_on', channel=10, note=86, velocity=108, time=0),
    Message('note_off', channel=10, note=86, velocity=0, time=47),
    Message('control_change', channel=10, control=7, value=90, time=1393),
    Message('note_on', channel=10, note=62, velocity=60, time=0),
    Message('note_off', channel=10, note=62, velocity=0, time=12),
    Message('note_on', channel=10, note=64, velocity=60, time=0),
    Message('note_off', channel=10, note=64, velocity=0, time=12),
    Message('note_on', channel=10, note=66, velocity=60, time=0),
    Message('note_off', channel=10, note=66, velocity=0, time=8),
    Message('note_on', channel=10, note=67, velocity=60, time=0),
    Message('note_off', channel=10, note=67, velocity=0, time=8),
    Message('note_on', channel=10, note=69, velocity=60, time=0),
    Message('note_off', channel=10, note=69, velocity=0, time=8),
    Message('note_on', channel=10, note=71, velocity=60, time=0),
    Message('note_off', channel=10, note=71, velocity=0, time=4),
    Message('note_on', channel=10, note=72, velocity=60, time=0),
    Message('note_off', channel=10, note=72, velocity=0, time=4),
    Message('note_on', channel=10, note=74, velocity=60, time=0),
    Message('note_off', channel=10, note=74, velocity=0, time=4),
    Message('note_on', channel=10, note=76, velocity=60, time=0),
    Message('note_off', channel=10, note=76, velocity=0, time=4),
    Message('note_on', channel=10, note=78, velocity=60, time=0),
    Message('note_off', channel=10, note=78, velocity=0, time=4),
    Message('note_on', channel=10, note=79, velocity=60, time=0),
    Message('note_off', channel=10, note=79, velocity=0, time=4),
    Message('note_on', channel=10, note=81, velocity=60, time=0),
    Message('note_off', channel=10, note=81, velocity=0, time=4),
    Message('note_on', channel=10, note=83, velocity=60, time=0),
    Message('note_off', channel=10, note=83, velocity=0, time=4),
    Message('note_on', channel=10, note=84, velocity=60, time=0),
    Message('note_off', channel=10, note=84, velocity=0, time=4),
    Message('note_on', channel=10, note=86, velocity=60, time=0),
    Message('note_off', channel=10, note=86, velocity=0, time=4),
    Message('note_on', channel=10, note=88, velocity=60, time=0),
    Message('note_off', channel=10, note=88, velocity=0, time=4),
    Message('note_on', channel=10, note=90, velocity=60, time=0),
    Message('note_off', channel=10, note=90, velocity=0, time=4),
    Message('note_on', channel=10, note=91, velocity=84, time=0),
    Message('note_off', channel=10, note=91, velocity=0, time=47),
    Message('note_on', channel=10, note=48, velocity=60, time=433),
    Message('note_off', channel=10, note=48, velocity=0, time=12),
    Message('note_on', channel=10, note=50, velocity=61, time=0),
    Message('control_change', channel=10, control=7, value=91, time=2),
    Message('note_off', channel=10, note=50, velocity=0, time=10),
    Message('note_on', channel=10, note=51, velocity=62, time=0),
    Message('control_change', channel=10, control=7, value=92, time=4),
    Message('note_off', channel=10, note=51, velocity=0, time=8),
    Message('note_on', channel=10, note=53, velocity=63, time=0),
    Message('control_change', channel=10, control=7, value=93, time=7),
    Message('note_off', channel=10, note=53, velocity=0, time=5),
    Message('note_on', channel=10, note=55, velocity=64, time=0),
    Message('control_change', channel=10, control=7, value=94, time=9),
    Message('note_off', channel=10, note=55, velocity=0, time=3),
    Message('note_on', channel=10, note=57, velocity=65, time=0),
    Message('control_change', channel=10, control=7, value=95, time=11),
    Message('note_off', channel=10, note=57, velocity=0, time=1),
    Message('note_on', channel=10, note=58, velocity=66, time=0),
    Message('note_off', channel=10, note=58, velocity=0, time=12),
    Message('note_on', channel=10, note=60, velocity=67, time=0),
    Message('control_change', channel=10, control=7, value=96, time=2),
    Message('note_off', channel=10, note=60, velocity=0, time=10),
    Message('note_on', channel=10, note=62, velocity=68, time=0),
    Message('control_change', channel=10, control=7, value=97, time=4),
    Message('note_off', channel=10, note=62, velocity=0, time=8),
    Message('note_on', channel=10, note=63, velocity=69, time=0),
    Message('control_change', channel=10, control=7, value=98, time=7),
    Message('note_off', channel=10, note=63, velocity=0, time=5),
    Message('note_on', channel=10, note=65, velocity=70, time=0),
    Message('control_change', channel=10, control=7, value=99, time=9),
    Message('note_off', channel=10, note=65, velocity=0, time=3),
    Message('note_on', channel=10, note=67, velocity=71, time=0),
    Message('control_change', channel=10, control=7, value=100, time=11),
    Message('note_off', channel=10, note=67, velocity=0, time=1),
    Message('note_on', channel=10, note=69, velocity=72, time=0),
    Message('note_off', channel=10, note=69, velocity=0, time=12),
    Message('note_on', channel=10, note=70, velocity=73, time=0),
    Message('control_change', channel=10, control=7, value=101, time=2),
    Message('note_off', channel=10, note=70, velocity=0, time=10),
    Message('note_on', channel=10, note=72, velocity=74, time=0),
    Message('control_change', channel=10, control=7, value=102, time=4),
    Message('note_off', channel=10, note=72, velocity=0, time=8),
    Message('note_on', channel=10, note=74, velocity=75, time=0),
    Message('control_change', channel=10, control=7, value=103, time=7),
    Message('note_off', channel=10, note=74, velocity=0, time=5),
    Message('note_on', channel=10, note=75, velocity=76, time=0),
    Message('control_change', channel=10, control=7, value=104, time=9),
    Message('note_off', channel=10, note=75, velocity=0, time=3),
    Message('note_on', channel=10, note=77, velocity=78, time=0),
    Message('control_change', channel=10, control=7, value=105, time=11),
    Message('note_off', channel=10, note=77, velocity=0, time=1),
    Message('note_on', channel=10, note=79, velocity=80, time=0),
    Message('note_off', channel=10, note=79, velocity=0, time=12),
    Message('note_on', channel=10, note=81, velocity=82, time=0),
    Message('control_change', channel=10, control=7, value=106, time=2),
    Message('note_off', channel=10, note=81, velocity=0, time=10),
    Message('note_on', channel=10, note=82, velocity=84, time=0),
    Message('control_change', channel=10, control=7, value=107, time=4),
    Message('note_off', channel=10, note=82, velocity=0, time=4),
    Message('note_on', channel=10, note=84, velocity=85, time=0),
    Message('note_off', channel=10, note=84, velocity=0, time=8),
    Message('note_on', channel=10, note=86, velocity=86, time=0),
    Message('control_change', channel=10, control=7, value=108, time=3),
    Message('note_off', channel=10, note=86, velocity=0, time=5),
    Message('note_on', channel=10, note=87, velocity=87, time=0),
    Message('note_off', channel=10, note=87, velocity=0, time=8),
    Message('note_on', channel=10, note=89, velocity=88, time=0),
    Message('control_change', channel=10, control=7, value=109, time=1),
    Message('note_off', channel=10, note=89, velocity=0, time=7),
    Message('note_on', channel=10, note=91, velocity=90, time=0),
    Message('control_change', channel=10, control=7, value=110, time=7),
    Message('note_off', channel=10, note=91, velocity=0, time=1),
    Message('note_on', channel=10, note=93, velocity=92, time=0),
    Message('note_off', channel=10, note=93, velocity=0, time=47),
    Message('control_change', channel=10, control=7, value=90, time=1105),
    Message('note_on', channel=10, note=54, velocity=60, time=0),
    Message('note_on', channel=10, note=42, velocity=60, time=0),
    Message('control_change', channel=10, control=7, value=91, time=10),
    Message('note_off', channel=10, note=42, velocity=0, time=2),
    Message('note_off', channel=10, note=54, velocity=0, time=0),
    Message('note_on', channel=10, note=56, velocity=61, time=0),
    Message('control_change', channel=10, control=7, value=92, time=9),
    Message('note_off', channel=10, note=56, velocity=0, time=3),
    Message('note_on', channel=10, note=57, velocity=62, time=0),
    Message('control_change', channel=10, control=7, value=93, time=8),
    Message('note_off', channel=10, note=57, velocity=0, time=4),
    Message('note_on', channel=10, note=59, velocity=63, time=0),
    Message('control_change', channel=10, control=7, value=94, time=7),
    Message('note_off', channel=10, note=59, velocity=0, time=5),
    Message('note_on', channel=10, note=61, velocity=64, time=0),
    Message('control_change', channel=10, control=7, value=95, time=6),
    Message('note_off', channel=10, note=61, velocity=0, time=6),
    Message('note_on', channel=10, note=63, velocity=66, time=0),
    Message('control_change', channel=10, control=7, value=96, time=4),
    Message('note_off', channel=10, note=63, velocity=0, time=8),
    Message('note_on', channel=10, note=64, velocity=68, time=0),
    Message('control_change', channel=10, control=7, value=97, time=3),
    Message('note_off', channel=10, note=64, velocity=0, time=9),
    Message('note_on', channel=10, note=66, velocity=70, time=0),
    Message('control_change', channel=10, control=7, value=98, time=2),
    Message('note_off', channel=10, note=66, velocity=0, time=10),
    Message('note_on', channel=10, note=68, velocity=72, time=0),
    Message('control_change', channel=10, control=7, value=99, time=1),
    Message('note_off', channel=10, note=68, velocity=0, time=11),
    Message('control_change', channel=10, control=7, value=100, time=0),
    Message('note_on', channel=10, note=69, velocity=74, time=0),
    Message('control_change', channel=10, control=7, value=101, time=10),
    Message('note_off', channel=10, note=69, velocity=0, time=2),
    Message('note_on', channel=10, note=71, velocity=76, time=0),
    Message('control_change', channel=10, control=7, value=102, time=9),
    Message('note_off', channel=10, note=71, velocity=0, time=3),
    Message('note_on', channel=10, note=73, velocity=78, time=0),
    Message('control_change', channel=10, control=7, value=103, time=8),
    Message('note_off', channel=10, note=73, velocity=0, time=4),
    Message('note_on', channel=10, note=75, velocity=80, time=0),
    Message('control_change', channel=10, control=7, value=104, time=7),
    Message('note_off', channel=10, note=75, velocity=0, time=5),
    Message('note_on', channel=10, note=76, velocity=82, time=0),
    Message('control_change', channel=10, control=7, value=105, time=6),
    Message('note_off', channel=10, note=76, velocity=0, time=6),
    Message('note_on', channel=10, note=78, velocity=84, time=0),
    Message('control_change', channel=10, control=7, value=106, time=4),
    Message('note_off', channel=10, note=78, velocity=0, time=8),
    Message('note_on', channel=10, note=80, velocity=86, time=0),
    Message('control_change', channel=10, control=7, value=107, time=3),
    Message('note_off', channel=10, note=80, velocity=0, time=9),
    Message('note_on', channel=10, note=81, velocity=88, time=0),
    Message('control_change', channel=10, control=7, value=108, time=2),
    Message('note_off', channel=10, note=81, velocity=0, time=10),
    Message('note_on', channel=10, note=83, velocity=90, time=0),
    Message('control_change', channel=10, control=7, value=109, time=1),
    Message('note_off', channel=10, note=83, velocity=0, time=11),
    Message('control_change', channel=10, control=7, value=110, time=0),
    Message('note_on', channel=10, note=85, velocity=92, time=0),
    Message('control_change', channel=10, control=7, value=109, time=8),
    Message('note_off', channel=10, note=85, velocity=0, time=4),
    Message('note_on', channel=10, note=83, velocity=90, time=0),
    Message('control_change', channel=10, control=7, value=108, time=4),
    Message('note_off', channel=10, note=83, velocity=0, time=8),
    Message('note_on', channel=10, note=81, velocity=88, time=0),
    Message('control_change', channel=10, control=7, value=107, time=1),
    Message('control_change', channel=10, control=7, value=106, time=8),
    Message('note_off', channel=10, note=81, velocity=0, time=3),
    Message('note_on', channel=10, note=80, velocity=86, time=0),
    Message('control_change', channel=10, control=7, value=105, time=5),
    Message('note_off', channel=10, note=80, velocity=0, time=7),
    Message('note_on', channel=10, note=78, velocity=84, time=0),
    Message('control_change', channel=10, control=7, value=104, time=2),
    Message('control_change', channel=10, control=7, value=103, time=8),
    Message('note_off', channel=10, note=78, velocity=0, time=2),
    Message('note_on', channel=10, note=76, velocity=82, time=0),
    Message('control_change', channel=10, control=7, value=102, time=7),
    Message('note_off', channel=10, note=76, velocity=0, time=5),
    Message('note_on', channel=10, note=75, velocity=80, time=0),
    Message('control_change', channel=10, control=7, value=101, time=3),
    Message('control_change', channel=10, control=7, value=100, time=8),
    Message('note_off', channel=10, note=75, velocity=0, time=1),
    Message('note_on', channel=10, note=73, velocity=78, time=0),
    Message('control_change', channel=10, control=7, value=99, time=8),
    Message('note_off', channel=10, note=73, velocity=0, time=4),
    Message('note_on', channel=10, note=71, velocity=76, time=0),
    Message('control_change', channel=10, control=7, value=98, time=4),
    Message('note_off', channel=10, note=71, velocity=0, time=8),
    Message('note_on', channel=10, note=69, velocity=74, time=0),
    Message('control_change', channel=10, control=7, value=97, time=1),
    Message('control_change', channel=10, control=7, value=96, time=8),
    Message('note_off', channel=10, note=69, velocity=0, time=3),
    Message('note_on', channel=10, note=68, velocity=72, time=0),
    Message('control_change', channel=10, control=7, value=95, time=5),
    Message('note_off', channel=10, note=68, velocity=0, time=7),
    Message('note_on', channel=10, note=66, velocity=69, time=0),
    Message('control_change', channel=10, control=7, value=94, time=2),
    Message('control_change', channel=10, control=7, value=93, time=8),
    Message('note_off', channel=10, note=66, velocity=0, time=2),
    Message('note_on', channel=10, note=64, velocity=66, time=0),
    Message('control_change', channel=10, control=7, value=92, time=7),
    Message('note_off', channel=10, note=64, velocity=0, time=1),
    Message('note_on', channel=10, note=63, velocity=64, time=0),
    Message('control_change', channel=10, control=7, value=91, time=7),
    Message('note_off', channel=10, note=63, velocity=0, time=1),
    Message('note_on', channel=10, note=61, velocity=62, time=0),
    Message('note_off', channel=10, note=61, velocity=0, time=7),
    Message('control_change', channel=10, control=7, value=90, time=0),
    Message('control_change', channel=10, control=7, value=100, time=97),
    Message('note_on', channel=10, note=44, velocity=75, time=0),
    Message('note_off', channel=10, note=44, velocity=0, time=80),
    Message('note_on', channel=10, note=49, velocity=75, time=16),
    Message('note_off', channel=10, note=49, velocity=0, time=80),
    Message('note_on', channel=10, note=52, velocity=75, time=16),
    Message('note_off', channel=10, note=52, velocity=0, time=80),
    Message('note_on', channel=10, note=56, velocity=75, time=16),
    Message('note_off', channel=10, note=56, velocity=0, time=80),
    Message('note_on', channel=10, note=61, velocity=75, time=16),
    Message('note_off', channel=10, note=61, velocity=0, time=80),
    Message('note_on', channel=10, note=64, velocity=75, time=16),
    Message('note_off', channel=10, note=64, velocity=0, time=80),
    Message('note_on', channel=10, note=68, velocity=75, time=16),
    Message('note_off', channel=10, note=68, velocity=0, time=80),
    Message('note_on', channel=10, note=73, velocity=75, time=16),
    Message('note_off', channel=10, note=73, velocity=0, time=80),
    Message('control_change', channel=10, control=7, value=90, time=304),
    Message('note_on', channel=10, note=61, velocity=60, time=0),
    Message('control_change', channel=10, control=7, value=91, time=6),
    Message('note_off', channel=10, note=61, velocity=0, time=6),
    Message('control_change', channel=10, control=7, value=92, time=0),
    Message('note_on', channel=10, note=63, velocity=63, time=0),
    Message('control_change', channel=10, control=7, value=93, time=6),
    Message('note_off', channel=10, note=63, velocity=0, time=6),
    Message('control_change', channel=10, control=7, value=94, time=0),
    Message('note_on', channel=10, note=64, velocity=66, time=0),
    Message('control_change', channel=10, control=7, value=95, time=6),
    Message('note_off', channel=10, note=64, velocity=0, time=2),
    Message('note_on', channel=10, note=66, velocity=68, time=0),
    Message('control_change', channel=10, control=7, value=96, time=4),
    Message('note_off', channel=10, note=66, velocity=0, time=4),
    Message('note_on', channel=10, note=68, velocity=70, time=0),
    Message('control_change', channel=10, control=7, value=97, time=2),
    Message('note_off', channel=10, note=68, velocity=0, time=6),
    Message('control_change', channel=10, control=7, value=98, time=0),
    Message('note_on', channel=10, note=69, velocity=72, time=0),
    Message('control_change', channel=10, control=7, value=99, time=6),
    Message('note_off', channel=10, note=69, velocity=0, time=2),
    Message('note_on', channel=10, note=71, velocity=74, time=0),
    Message('control_change', channel=10, control=7, value=100, time=4),
    Message('note_off', channel=10, note=71, velocity=0, time=4),
    Message('note_on', channel=10, note=73, velocity=76, time=0),
    Message('control_change', channel=10, control=7, value=101, time=2),
    Message('note_off', channel=10, note=73, velocity=0, time=6),
    Message('control_change', channel=10, control=7, value=102, time=0),
    Message('note_on', channel=10, note=75, velocity=78, time=0),
    Message('control_change', channel=10, control=7, value=103, time=6),
    Message('note_off', channel=10, note=75, velocity=0, time=2),
    Message('note_on', channel=10, note=76, velocity=80, time=0),
    Message('control_change', channel=10, control=7, value=104, time=4),
    Message('note_off', channel=10, note=76, velocity=0, time=4),
    Message('note_on', channel=10, note=78, velocity=82, time=0),
    Message('control_change', channel=10, control=7, value=105, time=2),
    Message('note_off', channel=10, note=78, velocity=0, time=6),
    Message('control_change', channel=10, control=7, value=106, time=0),
    Message('note_on', channel=10, note=80, velocity=84, time=0),
    Message('control_change', channel=10, control=7, value=107, time=6),
    Message('note_off', channel=10, note=80, velocity=0, time=2),
    Message('note_on', channel=10, note=81, velocity=86, time=0),
    Message('control_change', channel=10, control=7, value=108, time=4),
    Message('note_off', channel=10, note=81, velocity=0, time=4),
    Message('note_on', channel=10, note=83, velocity=89, time=0),
    Message('control_change', channel=10, control=7, value=109, time=2),
    Message('note_off', channel=10, note=83, velocity=0, time=6),
    Message('control_change', channel=10, control=7, value=110, time=0),
    Message('note_on', channel=10, note=85, velocity=92, time=0),
    Message('note_off', channel=10, note=85, velocity=0, time=8),
    Message('control_change', channel=10, control=7, value=109, time=0),
    Message('note_on', channel=10, note=83, velocity=91, time=0),
    Message('note_off', channel=10, note=83, velocity=0, time=8),
    Message('control_change', channel=10, control=7, value=108, time=0),
    Message('note_on', channel=10, note=81, velocity=90, time=0),
    Message('note_off', channel=10, note=81, velocity=0, time=8),
    Message('note_on', channel=10, note=80, velocity=89, time=0),
    Message('control_change', channel=10, control=7, value=107, time=1),
    Message('note_off', channel=10, note=80, velocity=0, time=7),
    Message('note_on', channel=10, note=78, velocity=88, time=0),
    Message('control_change', channel=10, control=7, value=106, time=1),
    Message('note_off', channel=10, note=78, velocity=0, time=7),
    Message('note_on', channel=10, note=76, velocity=87, time=0),
    Message('control_change', channel=10, control=7, value=105, time=1),
    Message('note_off', channel=10, note=76, velocity=0, time=7),
    Message('note_on', channel=10, note=75, velocity=86, time=0),
    Message('control_change', channel=10, control=7, value=104, time=2),
    Message('note_off', channel=10, note=75, velocity=0, time=6),
    Message('note_on', channel=10, note=73, velocity=85, time=0),
    Message('control_change', channel=10, control=7, value=103, time=2),
    Message('note_off', channel=10, note=73, velocity=0, time=6),
    Message('note_on', channel=10, note=71, velocity=84, time=0),
    Message('control_change', channel=10, control=7, value=102, time=3),
    Message('note_off', channel=10, note=71, velocity=0, time=5),
    Message('note_on', channel=10, note=69, velocity=83, time=0),
    Message('control_change', channel=10, control=7, value=101, time=3),
    Message('note_off', channel=10, note=69, velocity=0, time=5),
    Message('note_on', channel=10, note=68, velocity=82, time=0),
    Message('control_change', channel=10, control=7, value=100, time=3),
    Message('note_off', channel=10, note=68, velocity=0, time=5),
    Message('note_on', channel=10, note=66, velocity=80, time=0),
    Message('control_change', channel=10, control=7, value=99, time=4),
    Message('note_off', channel=10, note=66, velocity=0, time=4),
    Message('note_on', channel=10, note=64, velocity=78, time=0),
    Message('control_change', channel=10, control=7, value=98, time=4),
    Message('note_off', channel=10, note=64, velocity=0, time=4),
    Message('note_on', channel=10, note=63, velocity=76, time=0),
    Message('control_change', channel=10, control=7, value=97, time=5),
    Message('note_off', channel=10, note=63, velocity=0, time=3),
    Message('note_on', channel=10, note=61, velocity=74, time=0),
    Message('control_change', channel=10, control=7, value=96, time=5),
    Message('note_off', channel=10, note=61, velocity=0, time=3),
    Message('note_on', channel=10, note=59, velocity=72, time=0),
    Message('control_change', channel=10, control=7, value=95, time=5),
    Message('note_off', channel=10, note=59, velocity=0, time=3),
    Message('note_on', channel=10, note=57, velocity=70, time=0),
    Message('control_change', channel=10, control=7, value=94, time=6),
    Message('note_off', channel=10, note=57, velocity=0, time=2),
    Message('note_on', channel=10, note=56, velocity=68, time=0),
    Message('control_change', channel=10, control=7, value=93, time=6),
    Message('note_off', channel=10, note=56, velocity=0, time=2),
    Message('note_on', channel=10, note=54, velocity=66, time=0),
    Message('control_change', channel=10, control=7, value=92, time=7),
    Message('note_off', channel=10, note=54, velocity=0, time=1),
    Message('note_on', channel=10, note=52, velocity=64, time=0),
    Message('control_change', channel=10, control=7, value=91, time=7),
    Message('note_off', channel=10, note=52, velocity=0, time=1),
    Message('note_on', channel=10, note=51, velocity=62, time=0),
    Message('control_change', channel=10, control=7, value=90, time=7),
    Message('note_off', channel=10, note=51, velocity=0, time=1),
    Message('note_on', channel=10, note=49, velocity=60, time=0),
    Message('note_off', channel=10, note=49, velocity=0, time=47),
    Message('note_on', channel=10, note=56, velocity=60, time=433),
    Message('note_off', channel=10, note=56, velocity=0, time=24),
    Message('note_on', channel=10, note=61, velocity=60, time=0),
    Message('note_off', channel=10, note=61, velocity=0, time=24),
    Message('note_on', channel=10, note=64, velocity=60, time=0),
    Message('note_off', channel=10, note=64, velocity=0, time=24),
    Message('note_on', channel=10, note=68, velocity=60, time=0),
    Message('note_off', channel=10, note=68, velocity=0, time=24),
    Message('note_on', channel=10, note=73, velocity=60, time=0),
    Message('note_off', channel=10, note=73, velocity=0, time=24),
    Message('note_on', channel=10, note=68, velocity=60, time=0),
    Message('note_off', channel=10, note=68, velocity=0, time=24),
    Message('note_on', channel=10, note=64, velocity=60, time=0),
    Message('note_off', channel=10, note=64, velocity=0, time=24),
    Message('note_on', channel=10, note=61, velocity=60, time=0),
    Message('note_off', channel=10, note=61, velocity=0, time=24),
    Message('note_on', channel=10, note=56, velocity=60, time=0),
    Message('note_off', channel=10, note=56, velocity=0, time=168),
    Message('note_on', channel=10, note=53, velocity=60, time=408),
    Message('note_off', channel=10, note=53, velocity=0, time=24),
    Message('note_on', channel=10, note=58, velocity=60, time=0),
    Message('note_off', channel=10, note=58, velocity=0, time=24),
    Message('note_on', channel=10, note=61, velocity=60, time=0),
    Message('note_off', channel=10, note=61, velocity=0, time=24),
    Message('note_on', channel=10, note=65, velocity=60, time=0),
    Message('note_off', channel=10, note=65, velocity=0, time=24),
    Message('note_on', channel=10, note=70, velocity=60, time=0),
    Message('note_off', channel=10, note=70, velocity=0, time=24),
    Message('note_on', channel=10, note=65, velocity=60, time=0),
    Message('note_off', channel=10, note=65, velocity=0, time=24),
    Message('note_on', channel=10, note=61, velocity=60, time=0),
    Message('note_off', channel=10, note=61, velocity=0, time=24),
    Message('note_on', channel=10, note=58, velocity=60, time=0),
    Message('note_off', channel=10, note=58, velocity=0, time=24),
    Message('note_on', channel=10, note=53, velocity=60, time=0),
    Message('note_off', channel=10, note=53, velocity=0, time=168),
    Message('note_on', channel=10, note=86, velocity=60, time=3384),
    Message('note_off', channel=10, note=86, velocity=0, time=6),
    Message('note_on', channel=10, note=84, velocity=61, time=0),
    Message('control_change', channel=10, control=7, value=91, time=1),
    Message('note_off', channel=10, note=84, velocity=0, time=5),
    Message('note_on', channel=10, note=82, velocity=62, time=0),
    Message('control_change', channel=10, control=7, value=92, time=3),
    Message('note_off', channel=10, note=82, velocity=0, time=3),
    Message('note_on', channel=10, note=81, velocity=63, time=0),
    Message('control_change', channel=10, control=7, value=93, time=5),
    Message('note_off', channel=10, note=81, velocity=0, time=1),
    Message('note_on', channel=10, note=80, velocity=64, time=0),
    Message('note_off', channel=10, note=80, velocity=0, time=6),
    Message('note_on', channel=10, note=77, velocity=65, time=0),
    Message('control_change', channel=10, control=7, value=94, time=1),
    Message('note_off', channel=10, note=77, velocity=0, time=5),
    Message('note_on', channel=10, note=76, velocity=66, time=0),
    Message('control_change', channel=10, control=7, value=95, time=3),
    Message('note_off', channel=10, note=76, velocity=0, time=3),
    Message('note_on', channel=10, note=74, velocity=67, time=0),
    Message('control_change', channel=10, control=7, value=96, time=4),
    Message('note_off', channel=10, note=74, velocity=0, time=2),
    Message('note_on', channel=10, note=72, velocity=68, time=0),
    Message('note_off', channel=10, note=72, velocity=0, time=6),
    Message('control_change', channel=10, control=7, value=97, time=0),
    Message('note_on', channel=10, note=70, velocity=69, time=0),
    Message('note_off', channel=10, note=70, velocity=0, time=6),
    Message('note_on', channel=10, note=69, velocity=70, time=0),
    Message('control_change', channel=10, control=7, value=98, time=2),
    Message('note_off', channel=10, note=69, velocity=0, time=4),
    Message('note_on', channel=10, note=68, velocity=71, time=0),
    Message('control_change', channel=10, control=7, value=99, time=4),
    Message('note_off', channel=10, note=68, velocity=0, time=2),
    Message('note_on', channel=10, note=65, velocity=73, time=0),
    Message('note_off', channel=10, note=65, velocity=0, time=6),
    Message('control_change', channel=10, control=7, value=100, time=0),
    Message('note_on', channel=10, note=64, velocity=75, time=0),
    Message('note_off', channel=10, note=64, velocity=0, time=6),
    Message('note_on', channel=10, note=65, velocity=75, time=0),
    Message('note_off', channel=10, note=65, velocity=0, time=6),
    Message('note_on', channel=10, note=68, velocity=75, time=0),
    Message('note_off', channel=10, note=68, velocity=0, time=6),
    Message('note_on', channel=10, note=69, velocity=75, time=0),
    Message('control_change', channel=10, control=7, value=99, time=3),
    Message('note_off', channel=10, note=69, velocity=0, time=3),
    Message('note_on', channel=10, note=70, velocity=75, time=0),
    Message('note_off', channel=10, note=70, velocity=0, time=6),
    Message('note_on', channel=10, note=72, velocity=75, time=0),
    Message('note_off', channel=10, note=72, velocity=0, time=6),
    Message('note_on', channel=10, note=74, velocity=75, time=0),
    Message('note_off', channel=10, note=74, velocity=0, time=6),
    Message('control_change', channel=10, control=7, value=98, time=0),
    Message('note_on', channel=10, note=76, velocity=75, time=0),
    Message('note_off', channel=10, note=76, velocity=0, time=6),
    Message('note_on', channel=10, note=77, velocity=75, time=0),
    Message('note_off', channel=10, note=77, velocity=0, time=6),
    Message('note_on', channel=10, note=80, velocity=75, time=0),
    Message('note_off', channel=10, note=80, velocity=0, time=6),
    Message('note_on', channel=10, note=81, velocity=75, time=0),
    Message('control_change', channel=10, control=7, value=97, time=3),
    Message('note_off', channel=10, note=81, velocity=0, time=3),
    Message('note_on', channel=10, note=82, velocity=75, time=0),
    Message('note_off', channel=10, note=82, velocity=0, time=6),
    Message('note_on', channel=10, note=84, velocity=75, time=0),
    Message('note_off', channel=10, note=84, velocity=0, time=6),
    Message('note_on', channel=10, note=86, velocity=75, time=0),
    Message('note_off', channel=10, note=86, velocity=0, time=6),
    Message('control_change', channel=10, control=7, value=96, time=0),
    Message('note_on', channel=10, note=88, velocity=75, time=0),
    Message('note_off', channel=10, note=88, velocity=0, time=6),
    Message('note_on', channel=10, note=89, velocity=75, time=0),
    Message('note_off', channel=10, note=89, velocity=0, time=6),
    Message('note_on', channel=10, note=92, velocity=75, time=0),
    Message('note_off', channel=10, note=92, velocity=0, time=6),
    Message('note_on', channel=10, note=93, velocity=75, time=0),
    Message('control_change', channel=10, control=7, value=95, time=3),
    Message('note_off', channel=10, note=93, velocity=0, time=3),
    Message('note_on', channel=10, note=94, velocity=75, time=0),
    Message('note_off', channel=10, note=94, velocity=0, time=6),
    Message('note_on', channel=10, note=96, velocity=75, time=0),
    Message('note_off', channel=10, note=96, velocity=0, time=6),
    Message('note_on', channel=10, note=94, velocity=75, time=0),
    Message('note_off', channel=10, note=94, velocity=0, time=6),
    Message('control_change', channel=10, control=7, value=94, time=0),
    Message('note_on', channel=10, note=93, velocity=74, time=0),
    Message('note_off', channel=10, note=93, velocity=0, time=4),
    Message('note_on', channel=10, note=92, velocity=74, time=0),
    Message('note_off', channel=10, note=92, velocity=0, time=4),
    Message('note_on', channel=10, note=89, velocity=74, time=0),
    Message('note_off', channel=10, note=89, velocity=0, time=4),
    Message('note_on', channel=10, note=88, velocity=74, time=0),
    Message('note_off', channel=10, note=88, velocity=0, time=4),
    Message('note_on', channel=10, note=86, velocity=74, time=0),
    Message('note_off', channel=10, note=86, velocity=0, time=4),
    Message('note_on', channel=10, note=84, velocity=74, time=0),
    Message('control_change', channel=10, control=7, value=93, time=1),
    Message('note_off', channel=10, note=84, velocity=0, time=3),
    Message('note_on', channel=10, note=82, velocity=74, time=0),
    Message('note_off', channel=10, note=82, velocity=0, time=4),
    Message('note_on', channel=10, note=81, velocity=74, time=0),
    Message('note_off', channel=10, note=81, velocity=0, time=4),
    Message('note_on', channel=10, note=80, velocity=73, time=0),
    Message('note_off', channel=10, note=80, velocity=0, time=4),
    Message('note_on', channel=10, note=77, velocity=72, time=0),
    Message('note_off', channel=10, note=77, velocity=0, time=4),
    Message('note_on', channel=10, note=80, velocity=71, time=0),
    Message('control_change', channel=10, control=7, value=92, time=2),
    Message('note_off', channel=10, note=80, velocity=0, time=2),
    Message('note_on', channel=10, note=81, velocity=70, time=0),
    Message('note_off', channel=10, note=81, velocity=0, time=4),
    Message('note_on', channel=10, note=82, velocity=69, time=0),
    Message('note_off', channel=10, note=82, velocity=0, time=4),
    Message('note_on', channel=10, note=84, velocity=68, time=0),
    Message('note_off', channel=10, note=84, velocity=0, time=4),
    Message('note_on', channel=10, note=86, velocity=67, time=0),
    Message('note_off', channel=10, note=86, velocity=0, time=4),
    Message('note_on', channel=10, note=88, velocity=66, time=0),
    Message('control_change', channel=10, control=7, value=91, time=3),
    Message('note_off', channel=10, note=88, velocity=0, time=1),
    Message('note_on', channel=10, note=89, velocity=65, time=0),
    Message('note_off', channel=10, note=89, velocity=0, time=4),
    Message('note_on', channel=10, note=92, velocity=64, time=0),
    Message('note_off', channel=10, note=92, velocity=0, time=4),
    Message('note_on', channel=10, note=93, velocity=63, time=0),
    Message('note_off', channel=10, note=93, velocity=0, time=4),
    Message('note_on', channel=10, note=94, velocity=62, time=0),
    Message('note_off', channel=10, note=94, velocity=0, time=4),
    Message('note_on', channel=10, note=96, velocity=61, time=0),
    Message('note_off', channel=10, note=96, velocity=0, time=4),
    Message('control_change', channel=10, control=7, value=90, time=0),
    Message('note_on', channel=10, note=74, velocity=60, time=0),
    Message('note_off', channel=10, note=74, velocity=0, time=5),
    Message('control_change', channel=10, control=7, value=91, time=1),
    Message('note_on', channel=10, note=76, velocity=61, time=0),
    Message('note_off', channel=10, note=76, velocity=0, time=5),
    Message('note_on', channel=10, note=77, velocity=62, time=1),
    Message('control_change', channel=10, control=7, value=92, time=1),
    Message('note_off', channel=10, note=77, velocity=0, time=4),
    Message('note_on', channel=10, note=80, velocity=63, time=1),
    Message('control_change', channel=10, control=7, value=93, time=1),
    Message('note_off', channel=10, note=80, velocity=0, time=4),
    Message('note_on', channel=10, note=81, velocity=64, time=1),
    Message('control_change', channel=10, control=7, value=94, time=2),
    Message('note_off', channel=10, note=81, velocity=0, time=3),
    Message('note_on', channel=10, note=82, velocity=65, time=1),
    Message('control_change', channel=10, control=7, value=95, time=2),
    Message('note_off', channel=10, note=82, velocity=0, time=3),
    Message('note_on', channel=10, note=84, velocity=66, time=1),
    Message('control_change', channel=10, control=7, value=96, time=3),
    Message('note_off', channel=10, note=84, velocity=0, time=2),
    Message('note_on', channel=10, note=86, velocity=67, time=1),
    Message('control_change', channel=10, control=7, value=97, time=4),
    Message('note_off', channel=10, note=86, velocity=0, time=1),
    Message('note_on', channel=10, note=88, velocity=69, time=1),
    Message('control_change', channel=10, control=7, value=98, time=4),
    Message('note_off', channel=10, note=88, velocity=0, time=1),
    Message('note_on', channel=10, note=89, velocity=71, time=1),
    Message('note_off', channel=10, note=89, velocity=0, time=5),
    Message('control_change', channel=10, control=7, value=99, time=0),
    Message('note_on', channel=10, note=92, velocity=73, time=1),
    Message('note_off', channel=10, note=92, velocity=0, time=5),
    Message('control_change', channel=10, control=7, value=100, time=0),
    Message('note_on', channel=10, note=93, velocity=75, time=1),
    Message('control_change', channel=10, control=7, value=99, time=3),
    Message('note_off', channel=10, note=93, velocity=0, time=2),
    Message('note_on', channel=10, note=95, velocity=73, time=1),
    Message('control_change', channel=10, control=7, value=98, time=1),
    Message('control_change', channel=10, control=7, value=97, time=3),
    Message('note_off', channel=10, note=95, velocity=0, time=1),
    Message('note_on', channel=10, note=96, velocity=71, time=1),
    Message('control_change', channel=10, control=7, value=96, time=2),
    Message('note_off', channel=10, note=96, velocity=0, time=3),
    Message('control_change', channel=10, control=7, value=95, time=0),
    Message('note_on', channel=10, note=98, velocity=69, time=1),
    Message('control_change', channel=10, control=7, value=94, time=3),
    Message('note_off', channel=10, note=98, velocity=0, time=2),
    Message('note_on', channel=10, note=96, velocity=66, time=1),
    Message('control_change', channel=10, control=7, value=93, time=1),
    Message('control_change', channel=10, control=7, value=92, time=3),
    Message('note_off', channel=10, note=96, velocity=0, time=1),
    Message('note_on', channel=10, note=94, velocity=63, time=1),
    Message('control_change', channel=10, control=7, value=91, time=2),
    Message('note_off', channel=10, note=94, velocity=0, time=3),
    Message('control_change', channel=10, control=7, value=90, time=0),
    Message('note_on', channel=10, note=93, velocity=60, time=1),
    Message('note_off', channel=10, note=93, velocity=0, time=5),
    Message('control_change', channel=10, control=7, value=91, time=1),
    Message('note_on', channel=10, note=92, velocity=61, time=0),
    Message('note_off', channel=10, note=92, velocity=0, time=5),
    Message('control_change', channel=10, control=7, value=92, time=1),
    Message('note_on', channel=10, note=89, velocity=62, time=0),
    Message('note_off', channel=10, note=89, velocity=0, time=5),
    Message('control_change', channel=10, control=7, value=93, time=1),
    Message('note_on', channel=10, note=88, velocity=63, time=0),
    Message('note_off', channel=10, note=88, velocity=0, time=5),
    Message('control_change', channel=10, control=7, value=94, time=1),
    Message('note_on', channel=10, note=86, velocity=64, time=0),
    Message('note_off', channel=10, note=86, velocity=0, time=5),
    Message('control_change', channel=10, control=7, value=95, time=1),
    Message('note_on', channel=10, note=84, velocity=65, time=0),
    Message('note_off', channel=10, note=84, velocity=0, time=5),
    Message('control_change', channel=10, control=7, value=96, time=1),
    Message('note_on', channel=10, note=82, velocity=67, time=0),
    Message('note_off', channel=10, note=82, velocity=0, time=5),
    Message('control_change', channel=10, control=7, value=97, time=1),
    Message('note_on', channel=10, note=81, velocity=69, time=0),
    Message('note_off', channel=10, note=81, velocity=0, time=5),
    Message('control_change', channel=10, control=7, value=98, time=1),
    Message('note_on', channel=10, note=80, velocity=71, time=0),
    Message('note_off', channel=10, note=80, velocity=0, time=5),
    Message('control_change', channel=10, control=7, value=99, time=1),
    Message('note_on', channel=10, note=76, velocity=73, time=0),
    Message('note_off', channel=10, note=76, velocity=0, time=5),
    Message('control_change', channel=10, control=7, value=100, time=1),
    Message('note_on', channel=10, note=77, velocity=75, time=0),
    Message('note_off', channel=10, note=77, velocity=0, time=5),
    Message('control_change', channel=10, control=7, value=99, time=0),
    Message('note_on', channel=10, note=80, velocity=74, time=1),
    Message('control_change', channel=10, control=7, value=98, time=4),
    Message('note_off', channel=10, note=80, velocity=0, time=1),
    Message('note_on', channel=10, note=81, velocity=73, time=1),
    Message('control_change', channel=10, control=7, value=97, time=4),
    Message('note_off', channel=10, note=81, velocity=0, time=1),
    Message('note_on', channel=10, note=82, velocity=72, time=1),
    Message('control_change', channel=10, control=7, value=96, time=3),
    Message('note_off', channel=10, note=82, velocity=0, time=2),
    Message('note_on', channel=10, note=84, velocity=70, time=1),
    Message('control_change', channel=10, control=7, value=95, time=3),
    Message('note_off', channel=10, note=84, velocity=0, time=2),
    Message('note_on', channel=10, note=82, velocity=68, time=1),
    Message('control_change', channel=10, control=7, value=94, time=2),
    Message('note_off', channel=10, note=82, velocity=0, time=3),
    Message('note_on', channel=10, note=81, velocity=66, time=1),
    Message('control_change', channel=10, control=7, value=93, time=1),
    Message('note_off', channel=10, note=81, velocity=0, time=4),
    Message('note_on', channel=10, note=80, velocity=64, time=1),
    Message('control_change', channel=10, control=7, value=92, time=1),
    Message('note_off', channel=10, note=80, velocity=0, time=4),
    Message('control_change', channel=10, control=7, value=91, time=1),
    Message('note_on', channel=10, note=77, velocity=62, time=0),
    Message('note_off', channel=10, note=77, velocity=0, time=5),
    Message('control_change', channel=10, control=7, value=90, time=1),
    Message('note_on', channel=10, note=76, velocity=60, time=0),
    Message('note_off', channel=10, note=76, velocity=0, time=5),
    Message('note_on', channel=10, note=74, velocity=61, time=1),
    Message('control_change', channel=10, control=7, value=91, time=1),
    Message('note_off', channel=10, note=74, velocity=0, time=4),
    Message('note_on', channel=10, note=72, velocity=62, time=1),
    Message('control_change', channel=10, control=7, value=92, time=2),
    Message('note_off', channel=10, note=72, velocity=0, time=3),
    Message('note_on', channel=10, note=74, velocity=63, time=1),
    Message('control_change', channel=10, control=7, value=93, time=3),
    Message('note_off', channel=10, note=74, velocity=0, time=2),
    Message('note_on', channel=10, note=76, velocity=64, time=1),
    Message('control_change', channel=10, control=7, value=94, time=4),
    Message('note_off', channel=10, note=76, velocity=0, time=1),
    Message('note_on', channel=10, note=77, velocity=65, time=1),
    Message('note_off', channel=10, note=77, velocity=0, time=5),
    Message('control_change', channel=10, control=7, value=95, time=0),
    Message('note_on', channel=10, note=80, velocity=66, time=1),
    Message('note_off', channel=10, note=80, velocity=0, time=5),
    Message('note_on', channel=10, note=81, velocity=67, time=1),
    Message('control_change', channel=10, control=7, value=96, time=1),
    Message('note_off', channel=10, note=81, velocity=0, time=4),
    Message('note_on', channel=10, note=82, velocity=68, time=1),
    Message('control_change', channel=10, control=7, value=97, time=2),
    Message('note_off', channel=10, note=82, velocity=0, time=1),
    Message('note_on', channel=10, note=84, velocity=69, time=1),
    Message('note_off', channel=10, note=84, velocity=0, time=3),
    Message('note_on', channel=10, note=86, velocity=70, time=1),
    Message('control_change', channel=10, control=7, value=98, time=1),
    Message('note_off', channel=10, note=86, velocity=0, time=2),
    Message('note_on', channel=10, note=88, velocity=71, time=1),
    Message('note_off', channel=10, note=88, velocity=0, time=3),
    Message('control_change', channel=10, control=7, value=99, time=1),
    Message('note_on', channel=10, note=89, velocity=72, time=0),
    Message('note_off', channel=10, note=89, velocity=0, time=3),
    Message('note_on', channel=10, note=91, velocity=73, time=1),
    Message('note_off', channel=10, note=91, velocity=0, time=3),
    Message('control_change', channel=10, control=7, value=100, time=0),
    Message('note_on', channel=10, note=93, velocity=75, time=1),
    Message('note_off', channel=10, note=93, velocity=0, time=47),
    Message('control_change', channel=10, control=7, value=70, time=1969),
    Message('note_on', channel=10, note=53, velocity=30, time=0),
    Message('control_change', channel=10, control=7, value=71, time=7),
    Message('note_off', channel=10, note=53, velocity=0, time=5),
    Message('note_on', channel=10, note=55, velocity=32, time=0),
    Message('control_change', channel=10, control=7, value=72, time=2),
    Message('control_change', channel=10, control=7, value=73, time=7),
    Message('note_off', channel=10, note=55, velocity=0, time=3),
    Message('note_on', channel=10, note=57, velocity=34, time=0),
    Message('control_change', channel=10, control=7, value=74, time=4),
    Message('control_change', channel=10, control=7, value=75, time=7),
    Message('note_off', channel=10, note=57, velocity=0, time=1),
    Message('note_on', channel=10, note=59, velocity=36, time=0),
    Message('control_change', channel=10, control=7, value=76, time=7),
    Message('note_off', channel=10, note=59, velocity=0, time=5),
    Message('note_on', channel=10, note=60, velocity=38, time=0),
    Message('control_change', channel=10, control=7, value=77, time=2),
    Message('control_change', channel=10, control=7, value=78, time=7),
    Message('note_off', channel=10, note=60, velocity=0, time=3),
    Message('note_on', channel=10, note=62, velocity=40, time=0),
    Message('control_change', channel=10, control=7, value=79, time=4),
    Message('control_change', channel=10, control=7, value=80, time=7),
    Message('note_off', channel=10, note=62, velocity=0, time=1),
    Message('note_on', channel=10, note=64, velocity=42, time=0),
    Message('control_change', channel=10, control=7, value=81, time=7),
    Message('note_off', channel=10, note=64, velocity=0, time=5),
    Message('note_on', channel=10, note=66, velocity=44, time=0),
    Message('control_change', channel=10, control=7, value=82, time=2),
    Message('control_change', channel=10, control=7, value=83, time=7),
    Message('note_off', channel=10, note=66, velocity=0, time=3),
    Message('note_on', channel=10, note=67, velocity=46, time=0),
    Message('control_change', channel=10, control=7, value=84, time=4),
    Message('control_change', channel=10, control=7, value=85, time=7),
    Message('note_off', channel=10, note=67, velocity=0, time=1),
    Message('note_on', channel=10, note=69, velocity=48, time=0),
    Message('control_change', channel=10, control=7, value=86, time=7),
    Message('note_off', channel=10, note=69, velocity=0, time=5),
    Message('note_on', channel=10, note=71, velocity=50, time=0),
    Message('control_change', channel=10, control=7, value=87, time=2),
    Message('control_change', channel=10, control=7, value=88, time=7),
    Message('note_off', channel=10, note=71, velocity=0, time=3),
    Message('note_on', channel=10, note=69, velocity=53, time=0),
    Message('control_change', channel=10, control=7, value=89, time=4),
    Message('control_change', channel=10, control=7, value=90, time=7),
    Message('note_off', channel=10, note=69, velocity=0, time=1),
    Message('note_on', channel=10, note=67, velocity=56, time=0),
    Message('control_change', channel=10, control=7, value=91, time=7),
    Message('note_off', channel=10, note=67, velocity=0, time=5),
    Message('note_on', channel=10, note=66, velocity=59, time=0),
    Message('control_change', channel=10, control=7, value=92, time=2),
    Message('control_change', channel=10, control=7, value=93, time=7),
    Message('note_off', channel=10, note=66, velocity=0, time=3),
    Message('note_on', channel=10, note=64, velocity=62, time=0),
    Message('control_change', channel=10, control=7, value=94, time=4),
    Message('control_change', channel=10, control=7, value=95, time=7),
    Message('note_off', channel=10, note=64, velocity=0, time=1),
    Message('note_on', channel=10, note=63, velocity=65, time=0),
    Message('control_change', channel=10, control=7, value=96, time=7),
    Message('note_off', channel=10, note=63, velocity=0, time=5),
    Message('note_on', channel=10, note=64, velocity=68, time=0),
    Message('control_change', channel=10, control=7, value=97, time=2),
    Message('control_change', channel=10, control=7, value=98, time=7),
    Message('note_off', channel=10, note=64, velocity=0, time=3),
    Message('note_on', channel=10, note=66, velocity=71, time=0),
    Message('control_change', channel=10, control=7, value=99, time=4),
    Message('note_off', channel=10, note=66, velocity=0, time=4),
    Message('note_on', channel=10, note=67, velocity=73, time=0),
    Message('control_change', channel=10, control=7, value=100, time=3),
    Message('note_off', channel=10, note=67, velocity=0, time=5),
    Message('note_on', channel=10, note=69, velocity=75, time=0),
    Message('control_change', channel=10, control=7, value=101, time=3),
    Message('note_off', channel=10, note=69, velocity=0, time=5),
    Message('note_on', channel=10, note=71, velocity=77, time=0),
    Message('control_change', channel=10, control=7, value=102, time=2),
    Message('note_off', channel=10, note=71, velocity=0, time=6),
    Message('note_on', channel=10, note=72, velocity=79, time=0),
    Message('control_change', channel=10, control=7, value=103, time=1),
    Message('note_off', channel=10, note=72, velocity=0, time=7),
    Message('control_change', channel=10, control=7, value=104, time=0),
    Message('note_on', channel=10, note=75, velocity=81, time=0),
    Message('control_change', channel=10, control=7, value=105, time=7),
    Message('note_off', channel=10, note=75, velocity=0, time=1),
    Message('note_on', channel=10, note=76, velocity=83, time=0),
    Message('note_off', channel=10, note=76, velocity=0, time=4),
    Message('note_on', channel=10, note=78, velocity=84, time=0),
    Message('control_change', channel=10, control=7, value=106, time=3),
    Message('note_off', channel=10, note=78, velocity=0, time=1),
    Message('note_on', channel=10, note=79, velocity=85, time=0),
    Message('note_off', channel=10, note=79, velocity=0, time=4),
    Message('note_on', channel=10, note=81, velocity=86, time=0),
    Message('control_change', channel=10, control=7, value=107, time=2),
    Message('note_off', channel=10, note=81, velocity=0, time=2),
    Message('note_on', channel=10, note=83, velocity=87, time=0),
    Message('note_off', channel=10, note=83, velocity=0, time=4),
    Message('note_on', channel=10, note=84, velocity=88, time=0),
    Message('control_change', channel=10, control=7, value=108, time=1),
    Message('note_off', channel=10, note=84, velocity=0, time=3),
    Message('note_on', channel=10, note=87, velocity=89, time=0),
    Message('note_off', channel=10, note=87, velocity=0, time=4),
    Message('control_change', channel=10, control=7, value=109, time=0),
    Message('note_on', channel=10, note=88, velocity=90, time=0),
    Message('note_off', channel=10, note=88, velocity=0, time=4),
    Message('note_on', channel=10, note=90, velocity=91, time=0),
    Message('control_change', channel=10, control=7, value=110, time=3),
    Message('note_off', channel=10, note=90, velocity=0, time=1),
    Message('note_on', channel=10, note=88, velocity=92, time=0),
    Message('note_off', channel=10, note=88, velocity=0, time=47),
    Message('control_change', channel=10, control=7, value=70, time=325),
    Message('note_on', channel=10, note=52, velocity=30, time=0),
    Message('control_change', channel=10, control=7, value=71, time=2),
    Message('note_off', channel=10, note=52, velocity=0, time=2),
    Message('control_change', channel=10, control=7, value=72, time=0),
    Message('note_on', channel=10, note=54, velocity=32, time=0),
    Message('control_change', channel=10, control=7, value=73, time=3),
    Message('note_off', channel=10, note=54, velocity=0, time=1),
    Message('note_on', channel=10, note=55, velocity=34, time=0),
    Message('control_change', channel=10, control=7, value=74, time=1),
    Message('note_off', channel=10, note=55, velocity=0, time=3),
    Message('control_change', channel=10, control=7, value=75, time=0),
    Message('note_on', channel=10, note=57, velocity=36, time=0),
    Message('control_change', channel=10, control=7, value=76, time=2),
    Message('note_off', channel=10, note=57, velocity=0, time=2),
    Message('control_change', channel=10, control=7, value=77, time=0),
    Message('note_on', channel=10, note=59, velocity=38, time=0),
    Message('control_change', channel=10, control=7, value=78, time=3),
    Message('note_off', channel=10, note=59, velocity=0, time=1),
    Message('note_on', channel=10, note=60, velocity=40, time=0),
    Message('control_change', channel=10, control=7, value=79, time=1),
    Message('note_off', channel=10, note=60, velocity=0, time=3),
    Message('control_change', channel=10, control=7, value=80, time=0),
    Message('note_on', channel=10, note=63, velocity=42, time=0),
    Message('control_change', channel=10, control=7, value=81, time=2),
    Message('note_off', channel=10, note=63, velocity=0, time=2),
    Message('control_change', channel=10, control=7, value=82, time=0),
    Message('note_on', channel=10, note=64, velocity=44, time=0),
    Message('control_change', channel=10, control=7, value=83, time=3),
    Message('note_off', channel=10, note=64, velocity=0, time=1),
    Message('note_on', channel=10, note=66, velocity=46, time=0),
    Message('control_change', channel=10, control=7, value=84, time=1),
    Message('note_off', channel=10, note=66, velocity=0, time=3),
    Message('control_change', channel=10, control=7, value=85, time=0),
    Message('note_on', channel=10, note=67, velocity=48, time=0),
    Message('control_change', channel=10, control=7, value=86, time=2),
    Message('note_off', channel=10, note=67, velocity=0, time=2),
    Message('control_change', channel=10, control=7, value=87, time=0),
    Message('note_on', channel=10, note=69, velocity=50, time=0),
    Message('control_change', channel=10, control=7, value=88, time=3),
    Message('note_off', channel=10, note=69, velocity=0, time=1),
    Message('note_on', channel=10, note=71, velocity=53, time=0),
    Message('control_change', channel=10, control=7, value=89, time=1),
    Message('note_off', channel=10, note=71, velocity=0, time=3),
    Message('control_change', channel=10, control=7, value=90, time=0),
    Message('note_on', channel=10, note=72, velocity=56, time=0),
    Message('control_change', channel=10, control=7, value=91, time=2),
    Message('note_off', channel=10, note=72, velocity=0, time=2),
    Message('control_change', channel=10, control=7, value=92, time=0),
    Message('note_on', channel=10, note=75, velocity=59, time=0),
    Message('control_change', channel=10, control=7, value=93, time=3),
    Message('note_off', channel=10, note=75, velocity=0, time=1),
    Message('note_on', channel=10, note=76, velocity=62, time=0),
    Message('control_change', channel=10, control=7, value=94, time=1),
    Message('note_off', channel=10, note=76, velocity=0, time=3),
    Message('control_change', channel=10, control=7, value=95, time=0),
    Message('note_on', channel=10, note=78, velocity=65, time=0),
    Message('control_change', channel=10, control=7, value=96, time=2),
    Message('note_off', channel=10, note=78, velocity=0, time=2),
    Message('control_change', channel=10, control=7, value=97, time=0),
    Message('note_on', channel=10, note=79, velocity=68, time=0),
    Message('control_change', channel=10, control=7, value=98, time=3),
    Message('note_off', channel=10, note=79, velocity=0, time=1),
    Message('note_on', channel=10, note=81, velocity=71, time=0),
    Message('control_change', channel=10, control=7, value=99, time=1),
    Message('note_off', channel=10, note=81, velocity=0, time=3),
    Message('control_change', channel=10, control=7, value=100, time=0),
    Message('note_on', channel=10, note=83, velocity=74, time=0),
    Message('control_change', channel=10, control=7, value=101, time=2),
    Message('note_off', channel=10, note=83, velocity=0, time=2),
    Message('control_change', channel=10, control=7, value=102, time=0),
    Message('note_on', channel=10, note=84, velocity=77, time=0),
    Message('control_change', channel=10, control=7, value=103, time=3),
    Message('note_off', channel=10, note=84, velocity=0, time=1),
    Message('note_on', channel=10, note=87, velocity=80, time=0),
    Message('control_change', channel=10, control=7, value=104, time=1),
    Message('note_off', channel=10, note=87, velocity=0, time=3),
    Message('control_change', channel=10, control=7, value=105, time=0),
    Message('note_on', channel=10, note=88, velocity=83, time=0),
    Message('control_change', channel=10, control=7, value=106, time=2),
    Message('note_off', channel=10, note=88, velocity=0, time=2),
    Message('control_change', channel=10, control=7, value=107, time=0),
    Message('note_on', channel=10, note=90, velocity=86, time=0),
    Message('control_change', channel=10, control=7, value=108, time=3),
    Message('note_off', channel=10, note=90, velocity=0, time=1),
    Message('note_on', channel=10, note=91, velocity=89, time=0),
    Message('control_change', channel=10, control=7, value=109, time=1),
    Message('note_off', channel=10, note=91, velocity=0, time=3),
    Message('control_change', channel=10, control=7, value=110, time=0),
    Message('note_on', channel=10, note=93, velocity=92, time=0),
    Message('control_change', channel=10, control=7, value=109, time=2),
    Message('note_off', channel=10, note=93, velocity=0, time=2),
    Message('note_on', channel=10, note=95, velocity=90, time=0),
    Message('control_change', channel=10, control=7, value=108, time=1),
    Message('note_off', channel=10, note=95, velocity=0, time=3),
    Message('control_change', channel=10, control=7, value=107, time=0),
    Message('note_on', channel=10, note=93, velocity=88, time=0),
    Message('control_change', channel=10, control=7, value=106, time=2),
    Message('note_off', channel=10, note=93, velocity=0, time=2),
    Message('note_on', channel=10, note=91, velocity=86, time=0),
    Message('control_change', channel=10, control=7, value=105, time=1),
    Message('note_off', channel=10, note=91, velocity=0, time=3),
    Message('control_change', channel=10, control=7, value=104, time=0),
    Message('note_on', channel=10, note=90, velocity=84, time=0),
    Message('control_change', channel=10, control=7, value=103, time=2),
    Message('note_off', channel=10, note=90, velocity=0, time=2),
    Message('note_on', channel=10, note=88, velocity=82, time=0),
    Message('control_change', channel=10, control=7, value=102, time=1),
    Message('note_off', channel=10, note=88, velocity=0, time=3),
    Message('control_change', channel=10, control=7, value=101, time=0),
    Message('note_on', channel=10, note=87, velocity=80, time=0),
    Message('control_change', channel=10, control=7, value=100, time=3),
    Message('note_off', channel=10, note=87, velocity=0, time=1),
    Message('note_on', channel=10, note=84, velocity=78, time=0),
    Message('control_change', channel=10, control=7, value=99, time=1),
    Message('note_off', channel=10, note=84, velocity=0, time=3),
    Message('control_change', channel=10, control=7, value=98, time=0),
    Message('note_on', channel=10, note=83, velocity=76, time=0),
    Message('control_change', channel=10, control=7, value=97, time=3),
    Message('note_off', channel=10, note=83, velocity=0, time=1),
    Message('note_on', channel=10, note=81, velocity=74, time=0),
    Message('control_change', channel=10, control=7, value=96, time=1),
    Message('note_off', channel=10, note=81, velocity=0, time=3),
    Message('control_change', channel=10, control=7, value=95, time=0),
    Message('note_on', channel=10, note=79, velocity=72, time=0),
    Message('control_change', channel=10, control=7, value=94, time=3),
    Message('note_off', channel=10, note=79, velocity=0, time=1),
    Message('note_on', channel=10, note=78, velocity=70, time=0),
    Message('control_change', channel=10, control=7, value=93, time=1),
    Message('note_off', channel=10, note=78, velocity=0, time=3),
    Message('control_change', channel=10, control=7, value=92, time=0),
    Message('note_on', channel=10, note=76, velocity=68, time=0),
    Message('control_change', channel=10, control=7, value=91, time=3),
    Message('note_off', channel=10, note=76, velocity=0, time=1),
    Message('note_on', channel=10, note=75, velocity=66, time=0),
    Message('control_change', channel=10, control=7, value=90, time=2),
    Message('note_off', channel=10, note=75, velocity=0, time=2),
    Message('control_change', channel=10, control=7, value=89, time=0),
    Message('note_on', channel=10, note=72, velocity=64, time=0),
    Message('control_change', channel=10, control=7, value=88, time=3),
    Message('note_off', channel=10, note=72, velocity=0, time=1),
    Message('note_on', channel=10, note=71, velocity=62, time=0),
    Message('control_change', channel=10, control=7, value=87, time=2),
    Message('note_off', channel=10, note=71, velocity=0, time=2),
    Message('control_change', channel=10, control=7, value=86, time=0),
    Message('note_on', channel=10, note=69, velocity=60, time=0),
    Message('control_change', channel=10, control=7, value=85, time=3),
    Message('note_off', channel=10, note=69, velocity=0, time=1),
    Message('note_on', channel=10, note=67, velocity=58, time=0),
    Message('control_change', channel=10, control=7, value=84, time=2),
    Message('note_off', channel=10, note=67, velocity=0, time=2),
    Message('control_change', channel=10, control=7, value=83, time=0),
    Message('note_on', channel=10, note=66, velocity=56, time=0),
    Message('control_change', channel=10, control=7, value=82, time=3),
    Message('note_off', channel=10, note=66, velocity=0, time=1),
    Message('note_on', channel=10, note=64, velocity=54, time=0),
    Message('control_change', channel=10, control=7, value=81, time=2),
    Message('note_off', channel=10, note=64, velocity=0, time=2),
    Message('note_on', channel=10, note=63, velocity=51, time=0),
    Message('control_change', channel=10, control=7, value=80, time=1),
    Message('control_change', channel=10, control=7, value=79, time=2),
    Message('note_off', channel=10, note=63, velocity=0, time=1),
    Message('note_on', channel=10, note=60, velocity=48, time=0),
    Message('control_change', channel=10, control=7, value=78, time=2),
    Message('note_off', channel=10, note=60, velocity=0, time=2),
    Message('note_on', channel=10, note=59, velocity=45, time=0),
    Message('control_change', channel=10, control=7, value=77, time=1),
    Message('control_change', channel=10, control=7, value=76, time=2),
    Message('note_off', channel=10, note=59, velocity=0, time=1),
    Message('note_on', channel=10, note=57, velocity=42, time=0),
    Message('control_change', channel=10, control=7, value=75, time=2),
    Message('note_off', channel=10, note=57, velocity=0, time=2),
    Message('note_on', channel=10, note=55, velocity=39, time=0),
    Message('control_change', channel=10, control=7, value=74, time=1),
    Message('control_change', channel=10, control=7, value=73, time=2),
    Message('note_off', channel=10, note=55, velocity=0, time=3),
    Message('control_change', channel=10, control=7, value=72, time=0),
    Message('note_on', channel=10, note=54, velocity=35, time=0),
    Message('control_change', channel=10, control=7, value=71, time=3),
    Message('note_off', channel=10, note=54, velocity=0, time=3),
    Message('control_change', channel=10, control=7, value=70, time=0),
    Message('note_on', channel=10, note=52, velocity=30, time=0),
    Message('note_off', channel=10, note=52, velocity=0, time=47),
    Message('control_change', channel=10, control=7, value=50, time=385),
    Message('note_on', channel=10, note=52, velocity=10, time=0),
    Message('control_change', channel=10, control=7, value=51, time=2),
    Message('control_change', channel=10, control=7, value=52, time=3),
    Message('control_change', channel=10, control=7, value=53, time=3),
    Message('control_change', channel=10, control=7, value=54, time=3),
    Message('note_off', channel=10, note=52, velocity=0, time=1),
    Message('note_on', channel=10, note=54, velocity=15, time=0),
    Message('control_change', channel=10, control=7, value=55, time=2),
    Message('control_change', channel=10, control=7, value=56, time=3),
    Message('control_change', channel=10, control=7, value=57, time=3),
    Message('control_change', channel=10, control=7, value=58, time=3),
    Message('note_off', channel=10, note=54, velocity=0, time=1),
    Message('note_on', channel=10, note=55, velocity=20, time=0),
    Message('control_change', channel=10, control=7, value=59, time=1),
    Message('control_change', channel=10, control=7, value=60, time=3),
    Message('control_change', channel=10, control=7, value=61, time=3),
    Message('control_change', channel=10, control=7, value=62, time=3),
    Message('note_off', channel=10, note=55, velocity=0, time=2),
    Message('note_on', channel=10, note=57, velocity=25, time=0),
    Message('control_change', channel=10, control=7, value=63, time=1),
    Message('control_change', channel=10, control=7, value=64, time=3),
    Message('control_change', channel=10, control=7, value=65, time=3),
    Message('control_change', channel=10, control=7, value=66, time=3),
    Message('note_off', channel=10, note=57, velocity=0, time=2),
    Message('control_change', channel=10, control=7, value=67, time=0),
    Message('note_on', channel=10, note=59, velocity=30, time=0),
    Message('control_change', channel=10, control=7, value=68, time=3),
    Message('control_change', channel=10, control=7, value=69, time=3),
    Message('control_change', channel=10, control=7, value=70, time=3),
    Message('note_off', channel=10, note=59, velocity=0, time=3),
    Message('control_change', channel=10, control=7, value=71, time=0),
    Message('note_on', channel=10, note=60, velocity=35, time=0),
    Message('control_change', channel=10, control=7, value=72, time=3),
    Message('control_change', channel=10, control=7, value=73, time=3),
    Message('control_change', channel=10, control=7, value=74, time=3),
    Message('note_off', channel=10, note=60, velocity=0, time=3),
    Message('control_change', channel=10, control=7, value=75, time=0),
    Message('note_on', channel=10, note=62, velocity=40, time=0),
    Message('control_change', channel=10, control=7, value=76, time=2),
    Message('control_change', channel=10, control=7, value=77, time=3),
    Message('control_change', channel=10, control=7, value=78, time=3),
    Message('control_change', channel=10, control=7, value=79, time=3),
    Message('note_off', channel=10, note=62, velocity=0, time=1),
    Message('note_on', channel=10, note=64, velocity=45, time=0),
    Message('control_change', channel=10, control=7, value=80, time=2),
    Message('control_change', channel=10, control=7, value=81, time=3),
    Message('control_change', channel=10, control=7, value=82, time=3),
    Message('control_change', channel=10, control=7, value=83, time=3),
    Message('note_off', channel=10, note=64, velocity=0, time=1),
    Message('note_on', channel=10, note=66, velocity=51, time=0),
    Message('control_change', channel=10, control=7, value=84, time=1),
    Message('control_change', channel=10, control=7, value=85, time=3),
    Message('control_change', channel=10, control=7, value=86, time=3),
    Message('control_change', channel=10, control=7, value=87, time=3),
    Message('note_off', channel=10, note=66, velocity=0, time=2),
    Message('note_on', channel=10, note=67, velocity=57, time=0),
    Message('control_change', channel=10, control=7, value=88, time=1),
    Message('control_change', channel=10, control=7, value=89, time=3),
    Message('control_change', channel=10, control=7, value=90, time=3),
    Message('control_change', channel=10, control=7, value=91, time=3),
    Message('note_off', channel=10, note=67, velocity=0, time=2),
    Message('control_change', channel=10, control=7, value=92, time=0),
    Message('note_on', channel=10, note=69, velocity=63, time=0),
    Message('control_change', channel=10, control=7, value=93, time=3),
    Message('control_change', channel=10, control=7, value=94, time=3),
    Message('control_change', channel=10, control=7, value=95, time=3),
    Message('note_off', channel=10, note=69, velocity=0, time=3),
    Message('control_change', channel=10, control=7, value=96, time=0),
    Message('note_on', channel=10, note=71, velocity=69, time=0),
    Message('control_change', channel=10, control=7, value=97, time=3),
    Message('control_change', channel=10, control=7, value=98, time=3),
    Message('control_change', channel=10, control=7, value=99, time=3),
    Message('note_off', channel=10, note=71, velocity=0, time=3),
    Message('control_change', channel=10, control=7, value=100, time=0),
    Message('note_on', channel=10, note=72, velocity=75, time=0),
    Message('note_off', channel=10, note=72, velocity=0, time=12),
    Message('note_on', channel=10, note=74, velocity=75, time=0),
    Message('note_off', channel=10, note=74, velocity=0, time=12),
    Message('note_on', channel=10, note=76, velocity=75, time=0),
    Message('note_off', channel=10, note=76, velocity=0, time=12),
    Message('note_on', channel=10, note=78, velocity=75, time=0),
    Message('note_off', channel=10, note=78, velocity=0, time=12),
    Message('note_on', channel=10, note=79, velocity=75, time=0),
    Message('note_off', channel=10, note=79, velocity=0, time=12),
    Message('note_on', channel=10, note=81, velocity=75, time=0),
    Message('note_off', channel=10, note=81, velocity=0, time=12),
    Message('note_on', channel=10, note=83, velocity=75, time=0),
    Message('note_off', channel=10, note=83, velocity=0, time=12),
    Message('note_on', channel=10, note=84, velocity=75, time=0),
    Message('note_off', channel=10, note=84, velocity=0, time=12),
    Message('note_on', channel=10, note=86, velocity=75, time=0),
    Message('note_off', channel=10, note=86, velocity=0, time=12),
    Message('note_on', channel=10, note=88, velocity=75, time=0),
    Message('note_off', channel=10, note=88, velocity=0, time=12),
    Message('note_on', channel=10, note=90, velocity=75, time=0),
    Message('note_off', channel=10, note=90, velocity=0, time=12),
    Message('note_on', channel=10, note=91, velocity=75, time=0),
    Message('note_off', channel=10, note=91, velocity=0, time=12),
    Message('note_on', channel=10, note=93, velocity=75, time=0),
    Message('note_off', channel=10, note=93, velocity=0, time=12),
    Message('note_on', channel=10, note=95, velocity=75, time=0),
    Message('note_off', channel=10, note=95, velocity=0, time=12),
    Message('note_on', channel=10, note=96, velocity=75, time=0),
    Message('note_off', channel=10, note=96, velocity=0, time=12),
    Message('note_on', channel=10, note=95, velocity=75, time=0),
    Message('note_off', channel=10, note=95, velocity=0, time=12),
    Message('note_on', channel=10, note=93, velocity=75, time=0),
    Message('note_off', channel=10, note=93, velocity=0, time=12),
    Message('note_on', channel=10, note=91, velocity=75, time=0),
    Message('note_off', channel=10, note=91, velocity=0, time=12),
    Message('note_on', channel=10, note=90, velocity=75, time=0),
    Message('note_off', channel=10, note=90, velocity=0, time=12),
    Message('note_on', channel=10, note=88, velocity=75, time=0),
    Message('note_off', channel=10, note=88, velocity=0, time=12),
    Message('note_on', channel=10, note=86, velocity=75, time=0),
    Message('note_off', channel=10, note=86, velocity=0, time=12),
    Message('note_on', channel=10, note=84, velocity=75, time=0),
    Message('note_off', channel=10, note=84, velocity=0, time=12),
    Message('note_on', channel=10, note=83, velocity=75, time=0),
    Message('note_off', channel=10, note=83, velocity=0, time=12),
    Message('note_on', channel=10, note=81, velocity=75, time=0),
    Message('note_off', channel=10, note=81, velocity=0, time=12),
    Message('note_on', channel=10, note=79, velocity=75, time=0),
    Message('note_off', channel=10, note=79, velocity=0, time=12),
    Message('note_on', channel=10, note=78, velocity=75, time=0),
    Message('note_off', channel=10, note=78, velocity=0, time=12),
    Message('note_on', channel=10, note=76, velocity=75, time=0),
    Message('note_off', channel=10, note=76, velocity=0, time=12),
    Message('note_on', channel=10, note=78, velocity=75, time=0),
    Message('note_off', channel=10, note=78, velocity=0, time=12),
    Message('note_on', channel=10, note=79, velocity=75, time=0),
    Message('note_off', channel=10, note=79, velocity=0, time=12),
    Message('note_on', channel=10, note=81, velocity=75, time=0),
    Message('note_off', channel=10, note=81, velocity=0, time=12),
    Message('note_on', channel=10, note=83, velocity=75, time=0),
    Message('note_off', channel=10, note=83, velocity=0, time=12),
    Message('note_on', channel=10, note=84, velocity=75, time=0),
    Message('note_off', channel=10, note=84, velocity=0, time=12),
    Message('note_on', channel=10, note=86, velocity=75, time=0),
    Message('note_off', channel=10, note=86, velocity=0, time=12),
    Message('note_on', channel=10, note=88, velocity=75, time=0),
    Message('note_off', channel=10, note=88, velocity=0, time=12),
    Message('note_on', channel=10, note=90, velocity=75, time=0),
    Message('note_off', channel=10, note=90, velocity=0, time=12),
    Message('note_on', channel=10, note=91, velocity=75, time=0),
    Message('note_off', channel=10, note=91, velocity=0, time=12),
    Message('note_on', channel=10, note=93, velocity=75, time=0),
    Message('note_off', channel=10, note=93, velocity=0, time=12),
    Message('note_on', channel=10, note=95, velocity=75, time=0),
    Message('note_off', channel=10, note=95, velocity=0, time=12),
    Message('note_on', channel=10, note=96, velocity=75, time=0),
    Message('note_off', channel=10, note=96, velocity=0, time=12),
    Message('note_on', channel=10, note=95, velocity=75, time=0),
    Message('note_off', channel=10, note=95, velocity=0, time=12),
    Message('note_on', channel=10, note=93, velocity=75, time=0),
    Message('note_off', channel=10, note=93, velocity=0, time=12),
    Message('note_on', channel=10, note=91, velocity=75, time=0),
    Message('note_off', channel=10, note=91, velocity=0, time=12),
    Message('note_on', channel=10, note=90, velocity=75, time=0),
    Message('note_off', channel=10, note=90, velocity=0, time=12),
    Message('note_on', channel=10, note=88, velocity=75, time=0),
    Message('note_off', channel=10, note=88, velocity=0, time=12),
    Message('note_on', channel=10, note=86, velocity=75, time=0),
    Message('note_off', channel=10, note=86, velocity=0, time=12),
    Message('note_on', channel=10, note=84, velocity=75, time=0),
    Message('note_off', channel=10, note=84, velocity=0, time=12),
    Message('note_on', channel=10, note=83, velocity=75, time=0),
    Message('note_off', channel=10, note=83, velocity=0, time=12),
    Message('note_on', channel=10, note=81, velocity=75, time=0),
    Message('note_off', channel=10, note=81, velocity=0, time=12),
    Message('note_on', channel=10, note=79, velocity=75, time=0),
    Message('note_off', channel=10, note=79, velocity=0, time=12),
    Message('note_on', channel=10, note=78, velocity=75, time=0),
    Message('note_off', channel=10, note=78, velocity=0, time=12),
    Message('note_on', channel=10, note=76, velocity=75, time=0),
    Message('note_off', channel=10, note=76, velocity=0, time=12),
    Message('note_on', channel=10, note=78, velocity=75, time=0),
    Message('note_off', channel=10, note=78, velocity=0, time=12),
    Message('note_on', channel=10, note=79, velocity=75, time=0),
    Message('note_off', channel=10, note=79, velocity=0, time=12),
    Message('note_on', channel=10, note=81, velocity=75, time=0),
    Message('note_off', channel=10, note=81, velocity=0, time=12),
    Message('note_on', channel=10, note=83, velocity=75, time=0),
    Message('note_off', channel=10, note=83, velocity=0, time=12),
    Message('note_on', channel=10, note=84, velocity=75, time=0),
    Message('note_off', channel=10, note=84, velocity=0, time=12),
    Message('note_on', channel=10, note=86, velocity=75, time=0),
    Message('note_off', channel=10, note=86, velocity=0, time=12),
    Message('note_on', channel=10, note=88, velocity=75, time=0),
    Message('note_off', channel=10, note=88, velocity=0, time=12),
    Message('note_on', channel=10, note=90, velocity=75, time=0),
    Message('note_off', channel=10, note=90, velocity=0, time=12),
    Message('note_on', channel=10, note=91, velocity=75, time=0),
    Message('note_off', channel=10, note=91, velocity=0, time=12),
    Message('note_on', channel=10, note=93, velocity=75, time=0),
    Message('note_off', channel=10, note=93, velocity=0, time=12),
    Message('note_on', channel=10, note=95, velocity=75, time=0),
    Message('note_off', channel=10, note=95, velocity=0, time=12),
    Message('note_on', channel=10, note=96, velocity=75, time=0),
    Message('note_off', channel=10, note=96, velocity=0, time=12),
    Message('note_on', channel=10, note=95, velocity=75, time=0),
    Message('note_off', channel=10, note=95, velocity=0, time=12),
    Message('note_on', channel=10, note=93, velocity=75, time=0),
    Message('note_off', channel=10, note=93, velocity=0, time=12),
    Message('note_on', channel=10, note=91, velocity=75, time=0),
    Message('note_off', channel=10, note=91, velocity=0, time=12),
    Message('note_on', channel=10, note=90, velocity=75, time=0),
    Message('note_off', channel=10, note=90, velocity=0, time=12),
    Message('note_on', channel=10, note=88, velocity=75, time=0),
    Message('note_off', channel=10, note=88, velocity=0, time=12),
    Message('note_on', channel=10, note=86, velocity=75, time=0),
    Message('note_off', channel=10, note=86, velocity=0, time=12),
    Message('note_on', channel=10, note=84, velocity=75, time=0),
    Message('note_off', channel=10, note=84, velocity=0, time=12),
    Message('note_on', channel=10, note=83, velocity=75, time=0),
    Message('note_off', channel=10, note=83, velocity=0, time=12),
    Message('note_on', channel=10, note=81, velocity=75, time=0),
    Message('note_off', channel=10, note=81, velocity=0, time=12),
    Message('note_on', channel=10, note=79, velocity=75, time=0),
    Message('note_off', channel=10, note=79, velocity=0, time=12),
    Message('note_on', channel=10, note=78, velocity=75, time=0),
    Message('note_off', channel=10, note=78, velocity=0, time=12),
    Message('note_on', channel=10, note=76, velocity=75, time=0),
    Message('note_off', channel=10, note=76, velocity=0, time=12),
    Message('note_on', channel=10, note=78, velocity=75, time=0),
    Message('note_off', channel=10, note=78, velocity=0, time=12),
    Message('note_on', channel=10, note=79, velocity=75, time=0),
    Message('note_off', channel=10, note=79, velocity=0, time=12),
    Message('note_on', channel=10, note=81, velocity=75, time=0),
    Message('note_off', channel=10, note=81, velocity=0, time=12),
    Message('note_on', channel=10, note=83, velocity=75, time=0),
    Message('note_off', channel=10, note=83, velocity=0, time=12),
    Message('note_on', channel=10, note=84, velocity=75, time=0),
    Message('note_off', channel=10, note=84, velocity=0, time=12),
    Message('note_on', channel=10, note=86, velocity=75, time=0),
    Message('note_off', channel=10, note=86, velocity=0, time=12),
    Message('note_on', channel=10, note=88, velocity=75, time=0),
    Message('note_off', channel=10, note=88, velocity=0, time=12),
    Message('note_on', channel=10, note=90, velocity=75, time=0),
    Message('note_off', channel=10, note=90, velocity=0, time=12),
    Message('note_on', channel=10, note=91, velocity=75, time=0),
    Message('note_off', channel=10, note=91, velocity=0, time=12),
    Message('note_on', channel=10, note=93, velocity=75, time=0),
    Message('note_off', channel=10, note=93, velocity=0, time=12),
    Message('note_on', channel=10, note=95, velocity=75, time=0),
    Message('note_off', channel=10, note=95, velocity=0, time=12),
    Message('note_on', channel=10, note=96, velocity=75, time=0),
    Message('note_off', channel=10, note=96, velocity=0, time=12),
    Message('note_on', channel=10, note=95, velocity=75, time=0),
    Message('note_off', channel=10, note=95, velocity=0, time=12),
    Message('note_on', channel=10, note=93, velocity=75, time=0),
    Message('note_off', channel=10, note=93, velocity=0, time=12),
    Message('note_on', channel=10, note=91, velocity=75, time=0),
    Message('note_off', channel=10, note=91, velocity=0, time=12),
    Message('note_on', channel=10, note=90, velocity=75, time=0),
    Message('note_off', channel=10, note=90, velocity=0, time=12),
    Message('note_on', channel=10, note=88, velocity=75, time=0),
    Message('note_off', channel=10, note=88, velocity=0, time=12),
    Message('note_on', channel=10, note=86, velocity=75, time=0),
    Message('note_off', channel=10, note=86, velocity=0, time=12),
    Message('note_on', channel=10, note=84, velocity=75, time=0),
    Message('note_off', channel=10, note=84, velocity=0, time=12),
    Message('note_on', channel=10, note=83, velocity=75, time=0),
    Message('note_off', channel=10, note=83, velocity=0, time=12),
    Message('note_on', channel=10, note=81, velocity=75, time=0),
    Message('note_off', channel=10, note=81, velocity=0, time=12),
    Message('note_on', channel=10, note=79, velocity=75, time=0),
    Message('note_off', channel=10, note=79, velocity=0, time=12),
    Message('note_on', channel=10, note=78, velocity=75, time=0),
    Message('note_off', channel=10, note=78, velocity=0, time=12),
    Message('note_on', channel=10, note=76, velocity=75, time=0),
    Message('note_off', channel=10, note=76, velocity=0, time=12),
    Message('note_on', channel=10, note=78, velocity=75, time=0),
    Message('note_off', channel=10, note=78, velocity=0, time=12),
    Message('note_on', channel=10, note=79, velocity=75, time=0),
    Message('note_off', channel=10, note=79, velocity=0, time=12),
    Message('note_on', channel=10, note=81, velocity=75, time=0),
    Message('note_off', channel=10, note=81, velocity=0, time=12),
    Message('note_on', channel=10, note=83, velocity=75, time=0),
    Message('note_off', channel=10, note=83, velocity=0, time=12),
    Message('note_on', channel=10, note=84, velocity=75, time=0),
    Message('note_off', channel=10, note=84, velocity=0, time=12),
    Message('note_on', channel=10, note=86, velocity=75, time=0),
    Message('note_off', channel=10, note=86, velocity=0, time=12),
    Message('note_on', channel=10, note=88, velocity=75, time=0),
    Message('note_off', channel=10, note=88, velocity=0, time=12),
    Message('note_on', channel=10, note=90, velocity=75, time=0),
    Message('note_off', channel=10, note=90, velocity=0, time=12),
    Message('note_on', channel=10, note=91, velocity=75, time=0),
    Message('note_off', channel=10, note=91, velocity=0, time=12),
    Message('note_on', channel=10, note=93, velocity=75, time=0),
    Message('note_off', channel=10, note=93, velocity=0, time=12),
    Message('note_on', channel=10, note=95, velocity=75, time=0),
    Message('note_off', channel=10, note=95, velocity=0, time=12),
    Message('note_on', channel=10, note=96, velocity=75, time=0),
    Message('note_off', channel=10, note=96, velocity=0, time=12),
    Message('note_on', channel=10, note=95, velocity=75, time=0),
    Message('note_off', channel=10, note=95, velocity=0, time=12),
    Message('note_on', channel=10, note=93, velocity=75, time=0),
    Message('note_off', channel=10, note=93, velocity=0, time=12),
    Message('note_on', channel=10, note=91, velocity=75, time=0),
    Message('note_off', channel=10, note=91, velocity=0, time=12),
    Message('note_on', channel=10, note=90, velocity=75, time=0),
    Message('note_off', channel=10, note=90, velocity=0, time=12),
    Message('note_on', channel=10, note=89, velocity=75, time=0),
    Message('note_off', channel=10, note=89, velocity=0, time=12),
    Message('note_on', channel=10, note=90, velocity=75, time=0),
    Message('note_off', channel=10, note=90, velocity=0, time=12),
    Message('note_on', channel=10, note=91, velocity=75, time=0),
    Message('note_off', channel=10, note=91, velocity=0, time=12),
    Message('note_on', channel=10, note=92, velocity=75, time=0),
    Message('note_off', channel=10, note=92, velocity=0, time=12),
    Message('note_on', channel=10, note=93, velocity=75, time=0),
    Message('note_off', channel=10, note=93, velocity=0, time=12),
    Message('note_on', channel=10, note=94, velocity=75, time=0),
    Message('note_off', channel=10, note=94, velocity=0, time=47),
    Message('control_change', channel=10, control=7, value=90, time=385),
    Message('note_on', channel=10, note=43, velocity=60, time=0),
    Message('note_off', channel=10, note=43, velocity=0, time=6),
    Message('note_on', channel=10, note=45, velocity=61, time=0),
    Message('control_change', channel=10, control=7, value=91, time=1),
    Message('note_off', channel=10, note=45, velocity=0, time=5),
    Message('note_on', channel=10, note=47, velocity=62, time=0),
    Message('control_change', channel=10, control=7, value=92, time=2),
    Message('note_off', channel=10, note=47, velocity=0, time=4),
    Message('note_on', channel=10, note=48, velocity=63, time=0),
    Message('control_change', channel=10, control=7, value=93, time=3),
    Message('note_off', channel=10, note=48, velocity=0, time=3),
    Message('note_on', channel=10, note=50, velocity=64, time=0),
    Message('control_change', channel=10, control=7, value=94, time=4),
    Message('note_off', channel=10, note=50, velocity=0, time=2),
    Message('note_on', channel=10, note=52, velocity=65, time=0),
    Message('control_change', channel=10, control=7, value=95, time=5),
    Message('note_off', channel=10, note=52, velocity=0, time=1),
    Message('note_on', channel=10, note=53, velocity=66, time=0),
    Message('note_off', channel=10, note=53, velocity=0, time=6),
    Message('note_on', channel=10, note=55, velocity=67, time=0),
    Message('control_change', channel=10, control=7, value=96, time=1),
    Message('note_off', channel=10, note=55, velocity=0, time=5),
    Message('note_on', channel=10, note=57, velocity=68, time=0),
    Message('control_change', channel=10, control=7, value=97, time=2),
    Message('note_off', channel=10, note=57, velocity=0, time=4),
    Message('note_on', channel=10, note=59, velocity=69, time=0),
    Message('control_change', channel=10, control=7, value=98, time=3),
    Message('note_off', channel=10, note=59, velocity=0, time=3),
    Message('note_on', channel=10, note=60, velocity=70, time=0),
    Message('control_change', channel=10, control=7, value=99, time=4),
    Message('note_off', channel=10, note=60, velocity=0, time=2),
    Message('note_on', channel=10, note=62, velocity=71, time=0),
    Message('control_change', channel=10, control=7, value=100, time=5),
    Message('note_off', channel=10, note=62, velocity=0, time=1),
    Message('note_on', channel=10, note=64, velocity=72, time=0),
    Message('note_off', channel=10, note=64, velocity=0, time=6),
    Message('note_on', channel=10, note=65, velocity=73, time=0),
    Message('control_change', channel=10, control=7, value=101, time=1),
    Message('note_off', channel=10, note=65, velocity=0, time=5),
    Message('note_on', channel=10, note=67, velocity=74, time=0),
    Message('control_change', channel=10, control=7, value=102, time=2),
    Message('note_off', channel=10, note=67, velocity=0, time=2),
    Message('note_on', channel=10, note=69, velocity=75, time=0),
    Message('note_off', channel=10, note=69, velocity=0, time=4),
    Message('note_on', channel=10, note=71, velocity=76, time=0),
    Message('control_change', channel=10, control=7, value=103, time=1),
    Message('note_off', channel=10, note=71, velocity=0, time=3),
    Message('note_on', channel=10, note=72, velocity=77, time=0),
    Message('note_off', channel=10, note=72, velocity=0, time=4),
    Message('control_change', channel=10, control=7, value=104, time=0),
    Message('note_on', channel=10, note=74, velocity=78, time=0),
    Message('note_off', channel=10, note=74, velocity=0, time=4),
    Message('note_on', channel=10, note=76, velocity=79, time=0),
    Message('control_change', channel=10, control=7, value=105, time=3),
    Message('note_off', channel=10, note=76, velocity=0, time=1),
    Message('note_on', channel=10, note=77, velocity=80, time=0),
    Message('note_off', channel=10, note=77, velocity=0, time=4),
    Message('note_on', channel=10, note=79, velocity=81, time=0),
    Message('control_change', channel=10, control=7, value=106, time=3),
    Message('note_off', channel=10, note=79, velocity=0, time=1),
    Message('note_on', channel=10, note=81, velocity=82, time=0),
    Message('note_off', channel=10, note=81, velocity=0, time=4),
    Message('note_on', channel=10, note=83, velocity=83, time=0),
    Message('control_change', channel=10, control=7, value=107, time=2),
    Message('note_off', channel=10, note=83, velocity=0, time=2),
    Message('note_on', channel=10, note=84, velocity=84, time=0),
    Message('note_off', channel=10, note=84, velocity=0, time=4),
    Message('note_on', channel=10, note=86, velocity=85, time=0),
    Message('control_change', channel=10, control=7, value=108, time=1),
    Message('note_off', channel=10, note=86, velocity=0, time=3),
    Message('note_on', channel=10, note=88, velocity=86, time=0),
    Message('note_off', channel=10, note=88, velocity=0, time=4),
    Message('control_change', channel=10, control=7, value=109, time=0),
    Message('note_on', channel=10, note=89, velocity=88, time=0),
    Message('note_off', channel=10, note=89, velocity=0, time=4),
    Message('note_on', channel=10, note=91, velocity=90, time=0),
    Message('control_change', channel=10, control=7, value=110, time=3),
    Message('note_off', channel=10, note=91, velocity=0, time=1),
    Message('note_on', channel=10, note=92, velocity=92, time=0),
    Message('note_off', channel=10, note=92, velocity=0, time=47),
    Message('control_change', channel=10, control=7, value=90, time=529),
    Message('note_on', channel=10, note=84, velocity=60, time=0),
    Message('note_off', channel=10, note=84, velocity=0, time=12),
    Message('note_on', channel=10, note=83, velocity=60, time=0),
    Message('note_off', channel=10, note=83, velocity=0, time=12),
    Message('note_on', channel=10, note=82, velocity=60, time=0),
    Message('note_off', channel=10, note=82, velocity=0, time=12),
    Message('note_on', channel=10, note=81, velocity=60, time=0),
    Message('note_off', channel=10, note=81, velocity=0, time=12),
    Message('note_on', channel=10, note=80, velocity=60, time=0),
    Message('note_off', channel=10, note=80, velocity=0, time=12),
    Message('note_on', channel=10, note=79, velocity=60, time=0),
    Message('note_off', channel=10, note=79, velocity=0, time=12),
    Message('note_on', channel=10, note=78, velocity=60, time=0),
    Message('note_off', channel=10, note=78, velocity=0, time=12),
    Message('note_on', channel=10, note=77, velocity=60, time=0),
    Message('note_off', channel=10, note=77, velocity=0, time=12),
    Message('note_on', channel=10, note=76, velocity=60, time=0),
    Message('note_off', channel=10, note=76, velocity=0, time=12),
    Message('note_on', channel=10, note=75, velocity=60, time=0),
    Message('note_off', channel=10, note=75, velocity=0, time=12),
    Message('note_on', channel=10, note=74, velocity=60, time=0),
    Message('note_off', channel=10, note=74, velocity=0, time=12),
    Message('note_on', channel=10, note=73, velocity=60, time=0),
    Message('note_off', channel=10, note=73, velocity=0, time=12),
    Message('note_on', channel=10, note=72, velocity=60, time=0),
    Message('note_off', channel=10, note=72, velocity=0, time=12),
    Message('note_on', channel=10, note=73, velocity=60, time=0),
    Message('note_off', channel=10, note=73, velocity=0, time=12),
    Message('note_on', channel=10, note=74, velocity=60, time=0),
    Message('note_off', channel=10, note=74, velocity=0, time=8),
    Message('note_on', channel=10, note=75, velocity=60, time=0),
    Message('note_off', channel=10, note=75, velocity=0, time=8),
    Message('note_on', channel=10, note=76, velocity=60, time=0),
    Message('note_off', channel=10, note=76, velocity=0, time=8),
    Message('note_on', channel=10, note=77, velocity=60, time=0),
    Message('note_off', channel=10, note=77, velocity=0, time=4),
    Message('note_on', channel=10, note=78, velocity=60, time=0),
    Message('note_off', channel=10, note=78, velocity=0, time=4),
    Message('note_on', channel=10, note=79, velocity=60, time=0),
    Message('note_off', channel=10, note=79, velocity=0, time=4),
    Message('note_on', channel=10, note=80, velocity=60, time=0),
    Message('note_off', channel=10, note=80, velocity=0, time=4),
    Message('note_on', channel=10, note=81, velocity=60, time=0),
    Message('note_off', channel=10, note=81, velocity=0, time=4),
    Message('note_on', channel=10, note=82, velocity=60, time=0),
    Message('note_off', channel=10, note=82, velocity=0, time=4),
    Message('note_on', channel=10, note=83, velocity=60, time=0),
    Message('note_off', channel=10, note=83, velocity=0, time=4),
    Message('note_on', channel=10, note=84, velocity=60, time=0),
    Message('note_off', channel=10, note=84, velocity=0, time=4),
    Message('note_on', channel=10, note=85, velocity=60, time=0),
    Message('note_off', channel=10, note=85, velocity=0, time=4),
    Message('note_on', channel=10, note=86, velocity=60, time=0),
    Message('note_off', channel=10, note=86, velocity=0, time=4),
    Message('note_on', channel=10, note=87, velocity=60, time=0),
    Message('note_off', channel=10, note=87, velocity=0, time=4),
    Message('note_on', channel=10, note=88, velocity=60, time=0),
    Message('note_off', channel=10, note=88, velocity=0, time=4),
    Message('note_on', channel=10, note=89, velocity=60, time=0),
    Message('note_off', channel=10, note=89, velocity=0, time=4),
    Message('note_on', channel=10, note=91, velocity=60, time=0),
    Message('note_off', channel=10, note=91, velocity=0, time=4),
    Message('note_on', channel=10, note=92, velocity=60, time=0),
    Message('note_off', channel=10, note=92, velocity=0, time=4),
    Message('note_on', channel=10, note=91, velocity=60, time=0),
    Message('note_off', channel=10, note=91, velocity=0, time=4),
    Message('note_on', channel=10, note=90, velocity=60, time=0),
    Message('note_off', channel=10, note=90, velocity=0, time=4),
    Message('note_on', channel=10, note=89, velocity=60, time=0),
    Message('note_off', channel=10, note=89, velocity=0, time=4),
    Message('note_on', channel=10, note=88, velocity=60, time=0),
    Message('note_off', channel=10, note=88, velocity=0, time=4),
    Message('note_on', channel=10, note=87, velocity=60, time=0),
    Message('note_off', channel=10, note=87, velocity=0, time=4),
    Message('note_on', channel=10, note=86, velocity=60, time=0),
    Message('note_off', channel=10, note=86, velocity=0, time=4),
    Message('note_on', channel=10, note=87, velocity=60, time=0),
    Message('note_off', channel=10, note=87, velocity=0, time=4),
    Message('note_on', channel=10, note=86, velocity=60, time=0),
    Message('note_off', channel=10, note=86, velocity=0, time=4),
    Message('note_on', channel=10, note=85, velocity=60, time=0),
    Message('note_off', channel=10, note=85, velocity=0, time=4),
    Message('note_on', channel=10, note=72, velocity=60, time=0),
    Message('note_off', channel=10, note=72, velocity=0, time=6),
    Message('note_on', channel=10, note=74, velocity=60, time=0),
    Message('note_off', channel=10, note=74, velocity=0, time=6),
    Message('note_on', channel=10, note=76, velocity=60, time=0),
    Message('note_off', channel=10, note=76, velocity=0, time=4),
    Message('note_on', channel=10, note=77, velocity=60, time=0),
    Message('note_off', channel=10, note=77, velocity=0, time=4),
    Message('note_on', channel=10, note=79, velocity=60, time=0),
    Message('note_off', channel=10, note=79, velocity=0, time=4),
    Message('note_on', channel=10, note=81, velocity=60, time=0),
    Message('note_off', channel=10, note=81, velocity=0, time=4),
    Message('note_on', channel=10, note=83, velocity=60, time=0),
    Message('note_off', channel=10, note=83, velocity=0, time=4),
    Message('note_on', channel=10, note=84, velocity=60, time=0),
    Message('note_off', channel=10, note=84, velocity=0, time=4),
    Message('note_on', channel=10, note=86, velocity=60, time=0),
    Message('note_off', channel=10, note=86, velocity=0, time=4),
    Message('note_on', channel=10, note=88, velocity=60, time=0),
    Message('note_off', channel=10, note=88, velocity=0, time=4),
    Message('note_on', channel=10, note=89, velocity=60, time=0),
    Message('note_off', channel=10, note=89, velocity=0, time=4),
    Message('note_on', channel=10, note=91, velocity=60, time=0),
    Message('note_off', channel=10, note=91, velocity=0, time=80),
    Message('control_change', channel=10, control=7, value=80, time=1456),
    Message('note_on', channel=10, note=82, velocity=45, time=0),
    Message('note_off', channel=10, note=82, velocity=0, time=12),
    Message('note_on', channel=10, note=80, velocity=46, time=0),
    Message('control_change', channel=10, control=7, value=81, time=9),
    Message('note_off', channel=10, note=80, velocity=0, time=3),
    Message('note_on', channel=10, note=78, velocity=47, time=0),
    Message('note_off', channel=10, note=78, velocity=0, time=12),
    Message('note_on', channel=10, note=77, velocity=48, time=0),
    Message('control_change', channel=10, control=7, value=82, time=7),
    Message('note_off', channel=10, note=77, velocity=0, time=5),
    Message('note_on', channel=10, note=75, velocity=49, time=0),
    Message('note_off', channel=10, note=75, velocity=0, time=12),
    Message('note_on', channel=10, note=73, velocity=50, time=0),
    Message('control_change', channel=10, control=7, value=83, time=4),
    Message('note_off', channel=10, note=73, velocity=0, time=8),
    Message('note_on', channel=10, note=72, velocity=51, time=0),
    Message('note_off', channel=10, note=72, velocity=0, time=12),
    Message('note_on', channel=10, note=70, velocity=52, time=0),
    Message('control_change', channel=10, control=7, value=84, time=2),
    Message('note_off', channel=10, note=70, velocity=0, time=10),
    Message('note_on', channel=10, note=68, velocity=53, time=0),
    Message('note_off', channel=10, note=68, velocity=0, time=12),
    Message('control_change', channel=10, control=7, value=85, time=0),
    Message('note_on', channel=10, note=66, velocity=54, time=0),
    Message('note_off', channel=10, note=66, velocity=0, time=12),
    Message('note_on', channel=10, note=65, velocity=55, time=0),
    Message('control_change', channel=10, control=7, value=86, time=9),
    Message('note_off', channel=10, note=65, velocity=0, time=3),
    Message('note_on', channel=10, note=64, velocity=56, time=0),
    Message('note_off', channel=10, note=64, velocity=0, time=12),
    Message('note_on', channel=10, note=65, velocity=57, time=0),
    Message('control_change', channel=10, control=7, value=87, time=7),
    Message('note_off', channel=10, note=65, velocity=0, time=5),
    Message('note_on', channel=10, note=66, velocity=58, time=0),
    Message('note_off', channel=10, note=66, velocity=0, time=12),
    Message('note_on', channel=10, note=68, velocity=59, time=0),
    Message('control_change', channel=10, control=7, value=88, time=4),
    Message('note_off', channel=10, note=68, velocity=0, time=8),
    Message('note_on', channel=10, note=70, velocity=60, time=0),
    Message('note_off', channel=10, note=70, velocity=0, time=12),
    Message('note_on', channel=10, note=72, velocity=61, time=0),
    Message('control_change', channel=10, control=7, value=89, time=2),
    Message('note_off', channel=10, note=72, velocity=0, time=10),
    Message('note_on', channel=10, note=73, velocity=62, time=0),
    Message('note_off', channel=10, note=73, velocity=0, time=12),
    Message('control_change', channel=10, control=7, value=90, time=0),
    Message('note_on', channel=10, note=75, velocity=63, time=0),
    Message('note_off', channel=10, note=75, velocity=0, time=12),
    Message('note_on', channel=10, note=77, velocity=64, time=0),
    Message('control_change', channel=10, control=7, value=91, time=9),
    Message('note_off', channel=10, note=77, velocity=0, time=3),
    Message('note_on', channel=10, note=78, velocity=65, time=0),
    Message('note_off', channel=10, note=78, velocity=0, time=12),
    Message('note_on', channel=10, note=80, velocity=66, time=0),
    Message('control_change', channel=10, control=7, value=92, time=7),
    Message('note_off', channel=10, note=80, velocity=0, time=5),
    Message('note_on', channel=10, note=82, velocity=67, time=0),
    Message('note_off', channel=10, note=82, velocity=0, time=12),
    Message('note_on', channel=10, note=80, velocity=68, time=0),
    Message('control_change', channel=10, control=7, value=93, time=4),
    Message('note_off', channel=10, note=80, velocity=0, time=8),
    Message('note_on', channel=10, note=78, velocity=69, time=0),
    Message('note_off', channel=10, note=78, velocity=0, time=12),
    Message('note_on', channel=10, note=77, velocity=70, time=0),
    Message('control_change', channel=10, control=7, value=94, time=2),
    Message('note_off', channel=10, note=77, velocity=0, time=10),
    Message('note_on', channel=10, note=75, velocity=72, time=0),
    Message('note_off', channel=10, note=75, velocity=0, time=12),
    Message('control_change', channel=10, control=7, value=95, time=0),
    Message('note_on', channel=10, note=73, velocity=74, time=0),
    Message('note_off', channel=10, note=73, velocity=0, time=12),
    Message('note_on', channel=10, note=75, velocity=76, time=0),
    Message('control_change', channel=10, control=7, value=96, time=9),
    Message('note_off', channel=10, note=75, velocity=0, time=3),
    Message('note_on', channel=10, note=77, velocity=78, time=0),
    Message('note_off', channel=10, note=77, velocity=0, time=12),
    Message('note_on', channel=10, note=78, velocity=80, time=0),
    Message('control_change', channel=10, control=7, value=97, time=7),
    Message('note_off', channel=10, note=78, velocity=0, time=5),
    Message('note_on', channel=10, note=80, velocity=82, time=0),
    Message('note_off', channel=10, note=80, velocity=0, time=12),
    Message('note_on', channel=10, note=82, velocity=84, time=0),
    Message('control_change', channel=10, control=7, value=98, time=4),
    Message('note_off', channel=10, note=82, velocity=0, time=8),
    Message('note_on', channel=10, note=84, velocity=86, time=0),
    Message('note_off', channel=10, note=84, velocity=0, time=12),
    Message('note_on', channel=10, note=85, velocity=88, time=0),
    Message('control_change', channel=10, control=7, value=99, time=2),
    Message('note_off', channel=10, note=85, velocity=0, time=2),
    Message('note_on', channel=10, note=87, velocity=88, time=0),
    Message('note_off', channel=10, note=87, velocity=0, time=4),
    Message('note_on', channel=10, note=89, velocity=88, time=0),
    Message('note_off', channel=10, note=89, velocity=0, time=4),
    Message('note_on', channel=10, note=90, velocity=89, time=0),
    Message('note_off', channel=10, note=90, velocity=0, time=4),
    Message('note_on', channel=10, note=92, velocity=90, time=0),
    Message('note_off', channel=10, note=92, velocity=0, time=4),
    Message('note_on', channel=10, note=94, velocity=91, time=0),
    Message('note_off', channel=10, note=94, velocity=0, time=4),
    Message('control_change', channel=10, control=7, value=100, time=0),
    Message('note_on', channel=10, note=96, velocity=127, time=0),
    Message('note_off', channel=10, note=96, velocity=0, time=47),
    Message('control_change', channel=10, control=101, value=0, time=1249),
    Message('control_change', channel=10, control=100, value=0, time=0),
    Message('control_change', channel=10, control=6, value=12, time=0),
    Message('control_change', channel=10, control=10, value=64, time=0),
    Message('control_change', channel=10, control=7, value=100, time=0),
    Message('pitchwheel', channel=10, pitch=0, time=0),
    Message('program_change', channel=10, program=46, time=0),
    Message('program_change', channel=10, program=46, time=0),
    Message('control_change', channel=10, control=7, value=127, time=0),
    Message('control_change', channel=10, control=10, value=64, time=0),
    Message('control_change', channel=10, control=101, value=0, time=1),
    Message('control_change', channel=10, control=100, value=0, time=0),
    Message('control_change', channel=10, control=6, value=12, time=0),
    Message('control_change', channel=10, control=10, value=64, time=0),
    Message('control_change', channel=10, control=7, value=100, time=0),
    Message('pitchwheel', channel=10, pitch=0, time=0),
    Message('program_change', channel=10, program=46, time=0),
    MetaMessage('end_of_track', time=0)]),
  MidiTrack([
    MetaMessage('track_name', name='Piano #2', time=0),
    Message('control_change', channel=0, control=10, value=64, time=0),
    Message('control_change', channel=0, control=7, value=127, time=0),
    Message('pitchwheel', channel=0, pitch=0, time=0),
    Message('control_change', channel=0, control=101, value=0, time=0),
    Message('control_change', channel=0, control=100, value=0, time=0),
    Message('control_change', channel=0, control=6, value=12, time=0),
    Message('control_change', channel=0, control=10, value=64, time=0),
    Message('control_change', channel=0, control=7, value=127, time=0),
    Message('pitchwheel', channel=0, pitch=0, time=0),
    Message('program_change', channel=0, program=0, time=0),
    Message('control_change', channel=0, control=7, value=127, time=0),
    Message('control_change', channel=0, control=10, value=64, time=0),
    Message('control_change', channel=0, control=101, value=0, time=0),
    Message('control_change', channel=0, control=100, value=0, time=0),
    Message('control_change', channel=0, control=6, value=12, time=0),
    Message('control_change', channel=0, control=10, value=64, time=0),
    Message('control_change', channel=0, control=7, value=127, time=0),
    Message('pitchwheel', channel=0, pitch=0, time=0),
    Message('program_change', channel=0, program=0, time=0),
    Message('control_change', channel=0, control=7, value=127, time=0),
    Message('control_change', channel=0, control=10, value=64, time=0),
    Message('control_change', channel=0, control=101, value=0, time=0),
    Message('control_change', channel=0, control=100, value=0, time=0),
    Message('control_change', channel=0, control=6, value=12, time=0),
    Message('control_change', channel=0, control=10, value=64, time=0),
    Message('control_change', channel=0, control=7, value=127, time=0),
    Message('pitchwheel', channel=0, pitch=0, time=0),
    Message('program_change', channel=0, program=0, time=0),
    Message('control_change', channel=0, control=7, value=90, time=6048),
    Message('note_on', channel=0, note=59, velocity=60, time=0),
    Message('note_off', channel=0, note=59, velocity=0, time=47),
    Message('note_on', channel=0, note=64, velocity=60, time=1),
    Message('note_off', channel=0, note=64, velocity=0, time=71),
    Message('note_on', channel=0, note=67, velocity=60, time=1),
    Message('note_off', channel=0, note=67, velocity=0, time=23),
    Message('note_on', channel=0, note=66, velocity=60, time=1),
    Message('note_off', channel=0, note=66, velocity=0, time=47),
    Message('note_on', channel=0, note=64, velocity=60, time=1),
    Message('note_off', channel=0, note=64, velocity=0, time=80),
    Message('note_on', channel=0, note=71, velocity=60, time=16),
    Message('note_off', channel=0, note=71, velocity=0, time=47),
    Message('note_on', channel=0, note=69, velocity=60, time=1),
    Message('note_off', channel=0, note=69, velocity=0, time=128),
    Message('note_on', channel=0, note=66, velocity=60, time=16),
    Message('note_off', channel=0, note=66, velocity=0, time=128),
    Message('note_on', channel=0, note=64, velocity=60, time=16),
    Message('note_off', channel=0, note=64, velocity=0, time=71),
    Message('note_on', channel=0, note=67, velocity=60, time=1),
    Message('note_off', channel=0, note=67, velocity=0, time=23),
    Message('note_on', channel=0, note=66, velocity=60, time=1),
    Message('note_off', channel=0, note=66, velocity=0, time=47),
    Message('note_on', channel=0, note=62, velocity=60, time=1),
    Message('note_off', channel=0, note=62, velocity=0, time=80),
    Message('note_on', channel=0, note=65, velocity=60, time=16),
    Message('note_off', channel=0, note=65, velocity=0, time=47),
    Message('note_on', channel=0, note=59, velocity=60, time=1),
    Message('note_off', channel=0, note=59, velocity=0, time=191),
    Message('note_on', channel=0, note=59, velocity=60, time=49),
    Message('note_off', channel=0, note=59, velocity=0, time=47),
    Message('note_on', channel=0, note=64, velocity=60, time=1),
    Message('note_off', channel=0, note=64, velocity=0, time=71),
    Message('note_on', channel=0, note=67, velocity=60, time=1),
    Message('note_off', channel=0, note=67, velocity=0, time=23),
    Message('note_on', channel=0, note=66, velocity=60, time=1),
    Message('note_off', channel=0, note=66, velocity=0, time=47),
    Message('note_on', channel=0, note=64, velocity=60, time=1),
    Message('note_off', channel=0, note=64, velocity=0, time=80),
    Message('note_on', channel=0, note=71, velocity=60, time=16),
    Message('note_off', channel=0, note=71, velocity=0, time=47),
    Message('note_on', channel=0, note=74, velocity=60, time=1),
    Message('note_off', channel=0, note=74, velocity=0, time=80),
    Message('note_on', channel=0, note=73, velocity=60, time=16),
    Message('note_off', channel=0, note=73, velocity=0, time=47),
    Message('note_on', channel=0, note=72, velocity=60, time=1),
    Message('note_off', channel=0, note=72, velocity=0, time=80),
    Message('note_on', channel=0, note=68, velocity=60, time=16),
    Message('note_off', channel=0, note=68, velocity=0, time=47),
    Message('note_on', channel=0, note=72, velocity=60, time=1),
    Message('note_off', channel=0, note=72, velocity=0, time=71),
    Message('note_on', channel=0, note=71, velocity=60, time=1),
    Message('note_off', channel=0, note=71, velocity=0, time=23),
    Message('note_on', channel=0, note=70, velocity=60, time=1),
    Message('note_off', channel=0, note=70, velocity=0, time=47),
    Message('note_on', channel=0, note=58, velocity=60, time=1),
    Message('note_off', channel=0, note=58, velocity=0, time=80),
    Message('note_on', channel=0, note=67, velocity=60, time=16),
    Message('note_off', channel=0, note=67, velocity=0, time=47),
    Message('note_on', channel=0, note=64, velocity=60, time=1),
    Message('note_off', channel=0, note=64, velocity=0, time=224),
    Message('note_on', channel=0, note=67, velocity=60, time=16),
    Message('note_off', channel=0, note=67, velocity=0, time=47),
    Message('note_on', channel=0, note=71, velocity=60, time=1),
    Message('note_off', channel=0, note=71, velocity=0, time=80),
    Message('note_on', channel=0, note=67, velocity=60, time=16),
    Message('note_off', channel=0, note=67, velocity=0, time=47),
    Message('note_on', channel=0, note=71, velocity=60, time=1),
    Message('note_off', channel=0, note=71, velocity=0, time=80),
    Message('note_on', channel=0, note=67, velocity=60, time=16),
    Message('note_off', channel=0, note=67, velocity=0, time=47),
    Message('note_on', channel=0, note=72, velocity=60, time=1),
    Message('note_off', channel=0, note=72, velocity=0, time=80),
    Message('note_on', channel=0, note=71, velocity=60, time=16),
    Message('note_off', channel=0, note=71, velocity=0, time=47),
    Message('note_on', channel=0, note=70, velocity=60, time=1),
    Message('note_off', channel=0, note=70, velocity=0, time=80),
    Message('note_on', channel=0, note=66, velocity=60, time=16),
    Message('note_off', channel=0, note=66, velocity=0, time=47),
    Message('note_on', channel=0, note=67, velocity=60, time=1),
    Message('note_off', channel=0, note=67, velocity=0, time=71),
    Message('note_on', channel=0, note=71, velocity=60, time=1),
    Message('note_off', channel=0, note=71, velocity=0, time=23),
    Message('note_on', channel=0, note=70, velocity=60, time=1),
    Message('note_off', channel=0, note=70, velocity=0, time=47),
    Message('note_on', channel=0, note=58, velocity=60, time=1),
    Message('note_off', channel=0, note=58, velocity=0, time=80),
    Message('note_on', channel=0, note=60, velocity=60, time=16),
    Message('note_off', channel=0, note=60, velocity=0, time=47),
    Message('note_on', channel=0, note=71, velocity=60, time=1),
    Message('note_off', channel=0, note=71, velocity=0, time=224),
    Message('note_on', channel=0, note=67, velocity=60, time=16),
    Message('note_off', channel=0, note=67, velocity=0, time=47),
    Message('note_on', channel=0, note=71, velocity=60, time=1),
    Message('note_off', channel=0, note=71, velocity=0, time=80),
    Message('note_on', channel=0, note=67, velocity=60, time=16),
    Message('note_off', channel=0, note=67, velocity=0, time=47),
    Message('note_on', channel=0, note=71, velocity=60, time=1),
    Message('note_off', channel=0, note=71, velocity=0, time=80),
    Message('note_on', channel=0, note=67, velocity=60, time=16),
    Message('note_off', channel=0, note=67, velocity=0, time=47),
    Message('note_on', channel=0, note=74, velocity=60, time=1),
    Message('note_off', channel=0, note=74, velocity=0, time=80),
    Message('note_on', channel=0, note=73, velocity=60, time=16),
    Message('note_off', channel=0, note=73, velocity=0, time=47),
    Message('note_on', channel=0, note=72, velocity=60, time=1),
    Message('note_off', channel=0, note=72, velocity=0, time=80),
    Message('note_on', channel=0, note=68, velocity=60, time=16),
    Message('note_off', channel=0, note=68, velocity=0, time=47),
    Message('note_on', channel=0, note=72, velocity=60, time=1),
    Message('note_off', channel=0, note=72, velocity=0, time=71),
    Message('note_on', channel=0, note=71, velocity=60, time=1),
    Message('note_off', channel=0, note=71, velocity=0, time=23),
    Message('note_on', channel=0, note=70, velocity=60, time=1),
    Message('note_off', channel=0, note=70, velocity=0, time=47),
    Message('note_on', channel=0, note=58, velocity=60, time=1),
    Message('note_off', channel=0, note=58, velocity=0, time=80),
    Message('note_on', channel=0, note=67, velocity=60, time=16),
    Message('note_off', channel=0, note=67, velocity=0, time=47),
    Message('note_on', channel=0, note=64, velocity=60, time=1),
    Message('control_change', channel=0, control=7, value=89, time=7),
    Message('control_change', channel=0, control=7, value=88, time=7),
    Message('control_change', channel=0, control=7, value=87, time=7),
    Message('control_change', channel=0, control=7, value=86, time=7),
    Message('control_change', channel=0, control=7, value=85, time=7),
    Message('control_change', channel=0, control=7, value=84, time=8),
    Message('control_change', channel=0, control=7, value=83, time=7),
    Message('control_change', channel=0, control=7, value=82, time=7),
    Message('control_change', channel=0, control=7, value=81, time=7),
    Message('control_change', channel=0, control=7, value=80, time=7),
    Message('control_change', channel=0, control=7, value=79, time=8),
    Message('control_change', channel=0, control=7, value=78, time=7),
    Message('control_change', channel=0, control=7, value=77, time=7),
    Message('control_change', channel=0, control=7, value=76, time=7),
    Message('control_change', channel=0, control=7, value=75, time=7),
    Message('control_change', channel=0, control=7, value=74, time=8),
    Message('control_change', channel=0, control=7, value=73, time=7),
    Message('control_change', channel=0, control=7, value=72, time=7),
    Message('control_change', channel=0, control=7, value=71, time=7),
    Message('control_change', channel=0, control=7, value=70, time=7),
    Message('note_off', channel=0, note=64, velocity=0, time=48),
    Message('control_change', channel=0, control=7, value=110, time=16177),
    Message('note_on', channel=0, note=76, velocity=92, time=0),
    Message('control_change', channel=0, control=7, value=111, time=9),
    Message('control_change', channel=0, control=7, value=112, time=10),
    Message('note_off', channel=0, note=76, velocity=0, time=5),
    Message('note_on', channel=0, note=77, velocity=96, time=0),
    Message('control_change', channel=0, control=7, value=113, time=4),
    Message('control_change', channel=0, control=7, value=114, time=10),
    Message('note_off', channel=0, note=77, velocity=0, time=10),
    Message('control_change', channel=0, control=7, value=115, time=0),
    Message('note_on', channel=0, note=79, velocity=100, time=0),
    Message('control_change', channel=0, control=7, value=116, time=9),
    Message('control_change', channel=0, control=7, value=117, time=10),
    Message('note_off', channel=0, note=79, velocity=0, time=5),
    Message('note_on', channel=0, note=80, velocity=104, time=0),
    Message('control_change', channel=0, control=7, value=118, time=4),
    Message('control_change', channel=0, control=7, value=119, time=10),
    Message('note_off', channel=0, note=80, velocity=0, time=10),
    Message('control_change', channel=0, control=7, value=120, time=0),
    Message('note_on', channel=0, note=81, velocity=127, time=0),
    Message('note_off', channel=0, note=81, velocity=0, time=47),
    Message('control_change', channel=0, control=7, value=100, time=145),
    Message('note_on', channel=0, note=76, velocity=75, time=0),
    Message('control_change', channel=0, control=7, value=101, time=19),
    Message('note_off', channel=0, note=76, velocity=0, time=5),
    Message('note_on', channel=0, note=77, velocity=77, time=0),
    Message('control_change', channel=0, control=7, value=102, time=14),
    Message('note_off', channel=0, note=77, velocity=0, time=10),
    Message('note_on', channel=0, note=80, velocity=79, time=0),
    Message('control_change', channel=0, control=7, value=103, time=9),
    Message('note_off', channel=0, note=80, velocity=0, time=7),
    Message('note_on', channel=0, note=81, velocity=80, time=0),
    Message('control_change', channel=0, control=7, value=104, time=12),
    Message('note_off', channel=0, note=81, velocity=0, time=4),
    Message('note_on', channel=0, note=83, velocity=81, time=0),
    Message('note_off', channel=0, note=83, velocity=0, time=16),
    Message('control_change', channel=0, control=7, value=105, time=0),
    Message('control_change', channel=0, control=7, value=106, time=19),
    Message('control_change', channel=0, control=7, value=107, time=19),
    Message('control_change', channel=0, control=7, value=108, time=19),
    Message('control_change', channel=0, control=7, value=109, time=19),
    Message('control_change', channel=0, control=7, value=110, time=20),
    Message('note_on', channel=0, note=84, velocity=92, time=96),
    Message('note_on', channel=0, note=81, velocity=92, time=0),
    Message('note_off', channel=0, note=81, velocity=0, time=24),
    Message('note_off', channel=0, note=84, velocity=0, time=0),
    Message('note_on', channel=0, note=85, velocity=92, time=0),
    Message('note_on', channel=0, note=82, velocity=92, time=0),
    Message('note_off', channel=0, note=82, velocity=0, time=24),
    Message('note_off', channel=0, note=85, velocity=0, time=0),
    Message('note_on', channel=0, note=84, velocity=92, time=0),
    Message('note_on', channel=0, note=81, velocity=92, time=0),
    Message('note_off', channel=0, note=81, velocity=0, time=16),
    Message('note_off', channel=0, note=84, velocity=0, time=0),
    Message('note_on', channel=0, note=84, velocity=92, time=32),
    Message('note_on', channel=0, note=81, velocity=92, time=0),
    Message('note_off', channel=0, note=81, velocity=0, time=47),
    Message('note_off', channel=0, note=84, velocity=0, time=0),
    Message('note_on', channel=0, note=83, velocity=92, time=49),
    Message('note_on', channel=0, note=80, velocity=92, time=0),
    Message('note_off', channel=0, note=83, velocity=0, time=16),
    Message('note_off', channel=0, note=80, velocity=0, time=0),
    Message('note_on', channel=0, note=84, velocity=92, time=32),
    Message('note_on', channel=0, note=81, velocity=92, time=0),
    Message('note_off', channel=0, note=84, velocity=0, time=16),
    Message('note_off', channel=0, note=81, velocity=0, time=0),
    Message('note_on', channel=0, note=89, velocity=92, time=32),
    Message('note_on', channel=0, note=85, velocity=92, time=0),
    Message('note_on', channel=0, note=82, velocity=92, time=0),
    Message('note_off', channel=0, note=82, velocity=0, time=24),
    Message('note_off', channel=0, note=85, velocity=0, time=0),
    Message('note_off', channel=0, note=89, velocity=0, time=0),
    Message('note_on', channel=0, note=90, velocity=92, time=0),
    Message('note_on', channel=0, note=86, velocity=92, time=0),
    Message('note_on', channel=0, note=83, velocity=92, time=0),
    Message('note_off', channel=0, note=83, velocity=0, time=24),
    Message('note_off', channel=0, note=86, velocity=0, time=0),
    Message('note_off', channel=0, note=90, velocity=0, time=0),
    Message('note_on', channel=0, note=89, velocity=92, time=0),
    Message('note_on', channel=0, note=85, velocity=92, time=0),
    Message('note_on', channel=0, note=82, velocity=92, time=0),
    Message('note_off', channel=0, note=82, velocity=0, time=16),
    Message('note_off', channel=0, note=85, velocity=0, time=0),
    Message('note_off', channel=0, note=89, velocity=0, time=0),
    Message('note_on', channel=0, note=88, velocity=92, time=32),
    Message('note_on', channel=0, note=84, velocity=92, time=0),
    Message('note_on', channel=0, note=81, velocity=92, time=0),
    Message('note_off', channel=0, note=81, velocity=0, time=16),
    Message('note_off', channel=0, note=84, velocity=0, time=0),
    Message('note_off', channel=0, note=88, velocity=0, time=0),
    Message('note_on', channel=0, note=87, velocity=92, time=32),
    Message('note_on', channel=0, note=83, velocity=92, time=0),
    Message('note_on', channel=0, note=80, velocity=92, time=0),
    Message('note_off', channel=0, note=80, velocity=0, time=16),
    Message('note_off', channel=0, note=83, velocity=0, time=0),
    Message('note_off', channel=0, note=87, velocity=0, time=0),
    Message('note_on', channel=0, note=88, velocity=92, time=32),
    Message('note_on', channel=0, note=84, velocity=92, time=0),
    Message('note_on', channel=0, note=81, velocity=92, time=0),
    Message('note_off', channel=0, note=81, velocity=0, time=24),
    Message('note_off', channel=0, note=84, velocity=0, time=0),
    Message('note_off', channel=0, note=88, velocity=0, time=0),
    Message('note_on', channel=0, note=84, velocity=92, time=72),
    Message('note_on', channel=0, note=81, velocity=92, time=0),
    Message('note_off', channel=0, note=81, velocity=0, time=24),
    Message('note_off', channel=0, note=84, velocity=0, time=0),
    Message('note_on', channel=0, note=86, velocity=92, time=72),
    Message('note_on', channel=0, note=81, velocity=92, time=0),
    Message('note_on', channel=0, note=77, velocity=92, time=0),
    Message('note_off', channel=0, note=77, velocity=0, time=47),
    Message('note_off', channel=0, note=81, velocity=0, time=0),
    Message('note_off', channel=0, note=86, velocity=0, time=0),
    Message('note_on', channel=0, note=86, velocity=92, time=49),
    Message('note_on', channel=0, note=77, velocity=92, time=0),
    Message('note_on', channel=0, note=74, velocity=92, time=0),
    Message('note_off', channel=0, note=74, velocity=0, time=24),
    Message('note_off', channel=0, note=77, velocity=0, time=0),
    Message('note_off', channel=0, note=86, velocity=0, time=0),
    Message('note_on', channel=0, note=89, velocity=92, time=0),
    Message('note_on', channel=0, note=81, velocity=92, time=0),
    Message('note_on', channel=0, note=77, velocity=92, time=0),
    Message('note_off', channel=0, note=77, velocity=0, time=24),
    Message('note_off', channel=0, note=81, velocity=0, time=0),
    Message('note_off', channel=0, note=89, velocity=0, time=0),
    Message('note_on', channel=0, note=93, velocity=92, time=0),
    Message('note_on', channel=0, note=86, velocity=92, time=0),
    Message('note_on', channel=0, note=81, velocity=92, time=0),
    Message('note_off', channel=0, note=81, velocity=0, time=24),
    Message('note_off', channel=0, note=86, velocity=0, time=0),
    Message('note_off', channel=0, note=93, velocity=0, time=0),
    Message('note_on', channel=0, note=97, velocity=92, time=0),
    Message('note_on', channel=0, note=88, velocity=92, time=0),
    Message('note_on', channel=0, note=85, velocity=92, time=0),
    Message('note_off', channel=0, note=85, velocity=0, time=24),
    Message('note_off', channel=0, note=88, velocity=0, time=0),
    Message('note_off', channel=0, note=97, velocity=0, time=0),
    Message('note_on', channel=0, note=98, velocity=92, time=0),
    Message('note_on', channel=0, note=89, velocity=92, time=0),
    Message('note_on', channel=0, note=86, velocity=92, time=0),
    Message('note_off', channel=0, note=86, velocity=0, time=16),
    Message('note_off', channel=0, note=89, velocity=0, time=0),
    Message('note_off', channel=0, note=98, velocity=0, time=0),
    Message('note_on', channel=0, note=89, velocity=92, time=80),
    Message('note_on', channel=0, note=86, velocity=92, time=0),
    Message('note_on', channel=0, note=81, velocity=92, time=0),
    Message('note_off', channel=0, note=81, velocity=0, time=24),
    Message('note_off', channel=0, note=86, velocity=0, time=0),
    Message('note_off', channel=0, note=89, velocity=0, time=0),
    Message('note_on', channel=0, note=90, velocity=92, time=0),
    Message('note_on', channel=0, note=87, velocity=92, time=0),
    Message('note_on', channel=0, note=82, velocity=92, time=0),
    Message('note_off', channel=0, note=82, velocity=0, time=24),
    Message('note_off', channel=0, note=87, velocity=0, time=0),
    Message('note_off', channel=0, note=90, velocity=0, time=0),
    Message('note_on', channel=0, note=89, velocity=92, time=0),
    Message('note_on', channel=0, note=86, velocity=92, time=0),
    Message('note_on', channel=0, note=81, velocity=92, time=0),
    Message('note_off', channel=0, note=81, velocity=0, time=16),
    Message('note_off', channel=0, note=86, velocity=0, time=0),
    Message('note_off', channel=0, note=89, velocity=0, time=0),
    Message('note_on', channel=0, note=88, velocity=92, time=32),
    Message('note_on', channel=0, note=76, velocity=92, time=0),
    Message('note_on', channel=0, note=72, velocity=92, time=0),
    Message('note_off', channel=0, note=72, velocity=0, time=47),
    Message('note_off', channel=0, note=76, velocity=0, time=0),
    Message('note_off', channel=0, note=88, velocity=0, time=0),
    Message('note_on', channel=0, note=81, velocity=92, time=49),
    Message('note_on', channel=0, note=76, velocity=92, time=0),
    Message('note_on', channel=0, note=72, velocity=92, time=0),
    Message('note_off', channel=0, note=72, velocity=0, time=16),
    Message('note_off', channel=0, note=81, velocity=0, time=0),
    Message('note_off', channel=0, note=76, velocity=0, time=0),
    Message('note_on', channel=0, note=84, velocity=92, time=32),
    Message('note_on', channel=0, note=81, velocity=92, time=0),
    Message('note_on', channel=0, note=76, velocity=92, time=0),
    Message('note_off', channel=0, note=76, velocity=0, time=16),
    Message('note_off', channel=0, note=84, velocity=0, time=0),
    Message('note_off', channel=0, note=81, velocity=0, time=0),
    Message('note_on', channel=0, note=87, velocity=92, time=32),
    Message('note_on', channel=0, note=83, velocity=92, time=0),
    Message('note_on', channel=0, note=80, velocity=92, time=0),
    Message('note_off', channel=0, note=80, velocity=0, time=12),
    Message('note_off', channel=0, note=87, velocity=0, time=0),
    Message('note_off', channel=0, note=83, velocity=0, time=0),
    Message('note_on', channel=0, note=88, velocity=92, time=0),
    Message('note_on', channel=0, note=84, velocity=92, time=0),
    Message('note_on', channel=0, note=81, velocity=92, time=0),
    Message('note_off', channel=0, note=81, velocity=0, time=12),
    Message('note_off', channel=0, note=84, velocity=0, time=0),
    Message('note_off', channel=0, note=88, velocity=0, time=0),
    Message('note_on', channel=0, note=87, velocity=92, time=0),
    Message('note_on', channel=0, note=83, velocity=92, time=0),
    Message('note_on', channel=0, note=80, velocity=92, time=0),
    Message('note_off', channel=0, note=80, velocity=0, time=12),
    Message('note_off', channel=0, note=83, velocity=0, time=0),
    Message('note_off', channel=0, note=87, velocity=0, time=0),
    Message('note_on', channel=0, note=88, velocity=92, time=0),
    Message('note_on', channel=0, note=84, velocity=92, time=0),
    Message('note_on', channel=0, note=81, velocity=92, time=0),
    Message('note_off', channel=0, note=81, velocity=0, time=12),
    Message('note_off', channel=0, note=84, velocity=0, time=0),
    Message('note_off', channel=0, note=88, velocity=0, time=0),
    Message('note_on', channel=0, note=87, velocity=92, time=0),
    Message('note_on', channel=0, note=83, velocity=92, time=0),
    Message('note_on', channel=0, note=80, velocity=92, time=0),
    Message('note_off', channel=0, note=80, velocity=0, time=12),
    Message('note_off', channel=0, note=83, velocity=0, time=0),
    Message('note_off', channel=0, note=87, velocity=0, time=0),
    Message('note_on', channel=0, note=88, velocity=92, time=0),
    Message('note_on', channel=0, note=84, velocity=92, time=0),
    Message('note_on', channel=0, note=81, velocity=92, time=0),
    Message('note_off', channel=0, note=81, velocity=0, time=12),
    Message('note_off', channel=0, note=84, velocity=0, time=0),
    Message('note_off', channel=0, note=88, velocity=0, time=0),
    Message('note_on', channel=0, note=87, velocity=92, time=0),
    Message('note_on', channel=0, note=83, velocity=92, time=0),
    Message('note_on', channel=0, note=80, velocity=92, time=0),
    Message('note_off', channel=0, note=80, velocity=0, time=12),
    Message('note_off', channel=0, note=83, velocity=0, time=0),
    Message('note_off', channel=0, note=87, velocity=0, time=0),
    Message('note_on', channel=0, note=88, velocity=92, time=0),
    Message('note_on', channel=0, note=84, velocity=92, time=0),
    Message('note_on', channel=0, note=81, velocity=92, time=0),
    Message('note_off', channel=0, note=81, velocity=0, time=12),
    Message('note_off', channel=0, note=84, velocity=0, time=0),
    Message('note_off', channel=0, note=88, velocity=0, time=0),
    Message('note_on', channel=0, note=87, velocity=92, time=0),
    Message('note_on', channel=0, note=83, velocity=92, time=0),
    Message('note_on', channel=0, note=80, velocity=92, time=0),
    Message('note_off', channel=0, note=80, velocity=0, time=12),
    Message('note_off', channel=0, note=83, velocity=0, time=0),
    Message('note_off', channel=0, note=87, velocity=0, time=0),
    Message('note_on', channel=0, note=88, velocity=92, time=0),
    Message('note_on', channel=0, note=84, velocity=92, time=0),
    Message('note_on', channel=0, note=81, velocity=92, time=0),
    Message('note_off', channel=0, note=81, velocity=0, time=12),
    Message('note_off', channel=0, note=84, velocity=0, time=0),
    Message('note_off', channel=0, note=88, velocity=0, time=0),
    Message('note_on', channel=0, note=87, velocity=92, time=0),
    Message('note_on', channel=0, note=83, velocity=92, time=0),
    Message('note_on', channel=0, note=80, velocity=92, time=0),
    Message('note_off', channel=0, note=80, velocity=0, time=12),
    Message('note_off', channel=0, note=83, velocity=0, time=0),
    Message('note_off', channel=0, note=87, velocity=0, time=0),
    Message('note_on', channel=0, note=88, velocity=92, time=0),
    Message('note_on', channel=0, note=84, velocity=92, time=0),
    Message('note_on', channel=0, note=81, velocity=92, time=0),
    Message('note_off', channel=0, note=81, velocity=0, time=12),
    Message('note_off', channel=0, note=84, velocity=0, time=0),
    Message('note_off', channel=0, note=88, velocity=0, time=0),
    Message('note_on', channel=0, note=87, velocity=92, time=0),
    Message('note_on', channel=0, note=83, velocity=92, time=0),
    Message('note_on', channel=0, note=80, velocity=92, time=0),
    Message('note_off', channel=0, note=80, velocity=0, time=12),
    Message('note_off', channel=0, note=83, velocity=0, time=0),
    Message('note_off', channel=0, note=87, velocity=0, time=0),
    Message('note_on', channel=0, note=88, velocity=92, time=0),
    Message('note_on', channel=0, note=84, velocity=92, time=0),
    Message('note_on', channel=0, note=81, velocity=92, time=0),
    Message('note_off', channel=0, note=81, velocity=0, time=12),
    Message('note_off', channel=0, note=84, velocity=0, time=0),
    Message('note_off', channel=0, note=88, velocity=0, time=0),
    Message('note_on', channel=0, note=87, velocity=92, time=0),
    Message('note_on', channel=0, note=83, velocity=92, time=0),
    Message('note_on', channel=0, note=80, velocity=92, time=0),
    Message('note_off', channel=0, note=80, velocity=0, time=12),
    Message('note_off', channel=0, note=83, velocity=0, time=0),
    Message('note_off', channel=0, note=87, velocity=0, time=0),
    Message('note_on', channel=0, note=88, velocity=92, time=0),
    Message('note_on', channel=0, note=84, velocity=92, time=0),
    Message('note_on', channel=0, note=81, velocity=92, time=0),
    Message('note_off', channel=0, note=81, velocity=0, time=11),
    Message('note_off', channel=0, note=84, velocity=0, time=0),
    Message('note_off', channel=0, note=88, velocity=0, time=0),
    Message('note_on', channel=0, note=88, velocity=92, time=1),
    Message('note_on', channel=0, note=84, velocity=92, time=0),
    Message('note_on', channel=0, note=81, velocity=92, time=0),
    Message('note_off', channel=0, note=81, velocity=0, time=47),
    Message('note_off', channel=0, note=84, velocity=0, time=0),
    Message('note_off', channel=0, note=88, velocity=0, time=0),
    Message('note_on', channel=0, note=93, velocity=92, time=49),
    Message('note_on', channel=0, note=88, velocity=92, time=0),
    Message('note_on', channel=0, note=84, velocity=92, time=0),
    Message('note_off', channel=0, note=84, velocity=0, time=24),
    Message('note_off', channel=0, note=88, velocity=0, time=0),
    Message('note_off', channel=0, note=93, velocity=0, time=0),
    Message('note_on', channel=0, note=94, velocity=92, time=0),
    Message('note_on', channel=0, note=89, velocity=92, time=0),
    Message('note_on', channel=0, note=85, velocity=92, time=0),
    Message('note_off', channel=0, note=85, velocity=0, time=24),
    Message('note_off', channel=0, note=89, velocity=0, time=0),
    Message('note_off', channel=0, note=94, velocity=0, time=0),
    Message('note_on', channel=0, note=93, velocity=92, time=0),
    Message('note_on', channel=0, note=88, velocity=92, time=0),
    Message('note_on', channel=0, note=84, velocity=92, time=0),
    Message('note_off', channel=0, note=84, velocity=0, time=16),
    Message('note_off', channel=0, note=88, velocity=0, time=0),
    Message('note_off', channel=0, note=93, velocity=0, time=0),
    Message('note_on', channel=0, note=88, velocity=92, time=32),
    Message('note_on', channel=0, note=84, velocity=92, time=0),
    Message('note_on', channel=0, note=81, velocity=92, time=0),
    Message('note_off', channel=0, note=88, velocity=0, time=16),
    Message('note_off', channel=0, note=84, velocity=0, time=0),
    Message('note_off', channel=0, note=81, velocity=0, time=0),
    Message('note_on', channel=0, note=88, velocity=92, time=32),
    Message('note_on', channel=0, note=84, velocity=92, time=0),
    Message('note_on', channel=0, note=81, velocity=92, time=0),
    Message('note_off', channel=0, note=81, velocity=0, time=16),
    Message('note_off', channel=0, note=88, velocity=0, time=0),
    Message('note_off', channel=0, note=84, velocity=0, time=0),
    Message('note_on', channel=0, note=87, velocity=92, time=32),
    Message('note_on', channel=0, note=83, velocity=92, time=0),
    Message('note_on', channel=0, note=80, velocity=92, time=0),
    Message('note_off', channel=0, note=80, velocity=0, time=16),
    Message('note_off', channel=0, note=87, velocity=0, time=0),
    Message('note_off', channel=0, note=83, velocity=0, time=0),
    Message('note_on', channel=0, note=88, velocity=92, time=32),
    Message('note_on', channel=0, note=84, velocity=92, time=0),
    Message('note_on', channel=0, note=81, velocity=92, time=0),
    Message('note_off', channel=0, note=88, velocity=0, time=16),
    Message('note_off', channel=0, note=84, velocity=0, time=0),
    Message('note_off', channel=0, note=81, velocity=0, time=0),
    Message('note_on', channel=0, note=91, velocity=92, time=32),
    Message('note_on', channel=0, note=87, velocity=92, time=0),
    Message('note_on', channel=0, note=84, velocity=92, time=0),
    Message('note_off', channel=0, note=84, velocity=0, time=96),
    Message('note_off', channel=0, note=87, velocity=0, time=0),
    Message('note_off', channel=0, note=91, velocity=0, time=0),
    Message('note_on', channel=0, note=89, velocity=92, time=0),
    Message('note_on', channel=0, note=85, velocity=92, time=0),
    Message('note_on', channel=0, note=82, velocity=92, time=0),
    Message('note_off', channel=0, note=82, velocity=0, time=16),
    Message('note_off', channel=0, note=85, velocity=0, time=0),
    Message('note_off', channel=0, note=89, velocity=0, time=0),
    Message('note_on', channel=0, note=88, velocity=92, time=32),
    Message('note_on', channel=0, note=84, velocity=92, time=0),
    Message('note_on', channel=0, note=81, velocity=92, time=0),
    Message('note_off', channel=0, note=88, velocity=0, time=16),
    Message('note_off', channel=0, note=84, velocity=0, time=0),
    Message('note_off', channel=0, note=81, velocity=0, time=0),
    Message('note_on', channel=0, note=89, velocity=92, time=32),
    Message('note_on', channel=0, note=85, velocity=92, time=0),
    Message('note_on', channel=0, note=82, velocity=92, time=0),
    Message('note_off', channel=0, note=82, velocity=0, time=24),
    Message('note_off', channel=0, note=85, velocity=0, time=0),
    Message('note_off', channel=0, note=89, velocity=0, time=0),
    Message('note_on', channel=0, note=77, velocity=92, time=72),
    Message('note_on', channel=0, note=73, velocity=92, time=0),
    Message('note_on', channel=0, note=70, velocity=92, time=0),
    Message('note_off', channel=0, note=70, velocity=0, time=24),
    Message('note_off', channel=0, note=73, velocity=0, time=0),
    Message('note_off', channel=0, note=77, velocity=0, time=0),
    Message('note_on', channel=0, note=82, velocity=92, time=0),
    Message('note_on', channel=0, note=77, velocity=92, time=0),
    Message('note_on', channel=0, note=73, velocity=92, time=0),
    Message('note_off', channel=0, note=73, velocity=0, time=24),
    Message('note_off', channel=0, note=77, velocity=0, time=0),
    Message('note_off', channel=0, note=82, velocity=0, time=0),
    Message('note_on', channel=0, note=85, velocity=92, time=0),
    Message('note_on', channel=0, note=82, velocity=92, time=0),
    Message('note_on', channel=0, note=77, velocity=92, time=0),
    Message('note_off', channel=0, note=77, velocity=0, time=24),
    Message('note_off', channel=0, note=82, velocity=0, time=0),
    Message('note_off', channel=0, note=85, velocity=0, time=0),
    Message('note_on', channel=0, note=88, velocity=92, time=0),
    Message('note_on', channel=0, note=84, velocity=92, time=0),
    Message('note_on', channel=0, note=81, velocity=92, time=0),
    Message('note_off', channel=0, note=81, velocity=0, time=23),
    Message('note_off', channel=0, note=84, velocity=0, time=0),
    Message('note_off', channel=0, note=88, velocity=0, time=0),
    Message('note_on', channel=0, note=89, velocity=92, time=1),
    Message('note_on', channel=0, note=85, velocity=92, time=0),
    Message('note_on', channel=0, note=82, velocity=92, time=0),
    Message('note_off', channel=0, note=82, velocity=0, time=96),
    Message('note_off', channel=0, note=85, velocity=0, time=0),
    Message('note_off', channel=0, note=89, velocity=0, time=0),
    Message('note_on', channel=0, note=88, velocity=92, time=0),
    Message('note_on', channel=0, note=84, velocity=92, time=0),
    Message('note_on', channel=0, note=81, velocity=92, time=0),
    Message('note_off', channel=0, note=81, velocity=0, time=16),
    Message('note_off', channel=0, note=84, velocity=0, time=0),
    Message('note_off', channel=0, note=88, velocity=0, time=0),
    Message('note_on', channel=0, note=87, velocity=92, time=32),
    Message('note_on', channel=0, note=83, velocity=92, time=0),
    Message('note_on', channel=0, note=80, velocity=92, time=0),
    Message('note_off', channel=0, note=87, velocity=0, time=16),
    Message('note_off', channel=0, note=83, velocity=0, time=0),
    Message('note_off', channel=0, note=80, velocity=0, time=0),
    Message('note_on', channel=0, note=88, velocity=92, time=32),
    Message('note_on', channel=0, note=84, velocity=92, time=0),
    Message('note_on', channel=0, note=81, velocity=92, time=0),
    Message('note_off', channel=0, note=81, velocity=0, time=24),
    Message('note_off', channel=0, note=84, velocity=0, time=0),
    Message('note_off', channel=0, note=88, velocity=0, time=0),
    Message('note_on', channel=0, note=76, velocity=92, time=72),
    Message('note_on', channel=0, note=72, velocity=92, time=0),
    Message('note_on', channel=0, note=69, velocity=92, time=0),
    Message('note_off', channel=0, note=69, velocity=0, time=24),
    Message('note_off', channel=0, note=72, velocity=0, time=0),
    Message('note_off', channel=0, note=76, velocity=0, time=0),
    Message('note_on', channel=0, note=81, velocity=92, time=0),
    Message('note_on', channel=0, note=76, velocity=92, time=0),
    Message('note_on', channel=0, note=72, velocity=92, time=0),
    Message('note_off', channel=0, note=72, velocity=0, time=24),
    Message('note_off', channel=0, note=76, velocity=0, time=0),
    Message('note_off', channel=0, note=81, velocity=0, time=0),
    Message('note_on', channel=0, note=84, velocity=92, time=0),
    Message('note_on', channel=0, note=81, velocity=92, time=0),
    Message('note_on', channel=0, note=76, velocity=92, time=0),
    Message('note_off', channel=0, note=76, velocity=0, time=24),
    Message('note_off', channel=0, note=81, velocity=0, time=0),
    Message('note_off', channel=0, note=84, velocity=0, time=0),
    Message('note_on', channel=0, note=88, velocity=92, time=0),
    Message('note_on', channel=0, note=84, velocity=92, time=0),
    Message('note_on', channel=0, note=81, velocity=92, time=0),
    Message('note_off', channel=0, note=81, velocity=0, time=24),
    Message('note_off', channel=0, note=84, velocity=0, time=0),
    Message('note_off', channel=0, note=88, velocity=0, time=0),
    Message('control_change', channel=0, control=7, value=100, time=0),
    Message('note_on', channel=0, note=89, velocity=75, time=0),
    Message('note_on', channel=0, note=77, velocity=75, time=0),
    Message('note_off', channel=0, note=77, velocity=0, time=16),
    Message('note_off', channel=0, note=89, velocity=0, time=0),
    Message('control_change', channel=0, control=7, value=101, time=3),
    Message('note_on', channel=0, note=94, velocity=77, time=5),
    Message('note_on', channel=0, note=82, velocity=77, time=0),
    Message('control_change', channel=0, control=7, value=102, time=14),
    Message('note_off', channel=0, note=82, velocity=0, time=10),
    Message('note_off', channel=0, note=94, velocity=0, time=0),
    Message('note_on', channel=0, note=95, velocity=79, time=0),
    Message('note_on', channel=0, note=83, velocity=79, time=0),
    Message('control_change', channel=0, control=7, value=103, time=9),
    Message('note_off', channel=0, note=83, velocity=0, time=15),
    Message('note_off', channel=0, note=95, velocity=0, time=0),
    Message('note_on', channel=0, note=96, velocity=81, time=0),
    Message('note_on', channel=0, note=84, velocity=81, time=0),
    Message('control_change', channel=0, control=7, value=104, time=4),
    Message('note_off', channel=0, note=84, velocity=0, time=20),
    Message('note_off', channel=0, note=96, velocity=0, time=0),
    Message('control_change', channel=0, control=7, value=105, time=0),
    Message('note_on', channel=0, note=97, velocity=83, time=0),
    Message('note_on', channel=0, note=85, velocity=83, time=0),
    Message('control_change', channel=0, control=7, value=106, time=19),
    Message('note_off', channel=0, note=85, velocity=0, time=5),
    Message('note_off', channel=0, note=97, velocity=0, time=0),
    Message('note_on', channel=0, note=98, velocity=85, time=0),
    Message('note_on', channel=0, note=86, velocity=85, time=0),
    Message('control_change', channel=0, control=7, value=107, time=14),
    Message('note_off', channel=0, note=86, velocity=0, time=10),
    Message('note_off', channel=0, note=98, velocity=0, time=0),
    Message('note_on', channel=0, note=99, velocity=87, time=0),
    Message('note_on', channel=0, note=87, velocity=87, time=0),
    Message('control_change', channel=0, control=7, value=108, time=9),
    Message('note_off', channel=0, note=87, velocity=0, time=15),
    Message('note_off', channel=0, note=99, velocity=0, time=0),
    Message('note_on', channel=0, note=100, velocity=89, time=0),
    Message('note_on', channel=0, note=88, velocity=89, time=0),
    Message('control_change', channel=0, control=7, value=109, time=4),
    Message('note_off', channel=0, note=88, velocity=0, time=19),
    Message('note_off', channel=0, note=100, velocity=0, time=0),
    Message('control_change', channel=0, control=7, value=110, time=1),
    Message('note_on', channel=0, note=101, velocity=92, time=0),
    Message('note_on', channel=0, note=89, velocity=92, time=0),
    Message('control_change', channel=0, control=7, value=109, time=19),
    Message('note_off', channel=0, note=89, velocity=0, time=5),
    Message('note_off', channel=0, note=101, velocity=0, time=0),
    Message('note_on', channel=0, note=100, velocity=90, time=0),
    Message('note_on', channel=0, note=88, velocity=90, time=0),
    Message('control_change', channel=0, control=7, value=108, time=14),
    Message('note_off', channel=0, note=88, velocity=0, time=10),
    Message('note_off', channel=0, note=100, velocity=0, time=0),
    Message('note_on', channel=0, note=98, velocity=88, time=0),
    Message('note_on', channel=0, note=86, velocity=88, time=0),
    Message('control_change', channel=0, control=7, value=107, time=9),
    Message('note_off', channel=0, note=86, velocity=0, time=15),
    Message('note_off', channel=0, note=98, velocity=0, time=0),
    Message('note_on', channel=0, note=97, velocity=86, time=0),
    Message('note_on', channel=0, note=85, velocity=86, time=0),
    Message('control_change', channel=0, control=7, value=106, time=4),
    Message('note_off', channel=0, note=85, velocity=0, time=20),
    Message('note_off', channel=0, note=97, velocity=0, time=0),
    Message('control_change', channel=0, control=7, value=105, time=0),
    Message('note_on', channel=0, note=96, velocity=84, time=0),
    Message('note_on', channel=0, note=84, velocity=84, time=0),
    Message('control_change', channel=0, control=7, value=104, time=19),
    Message('note_off', channel=0, note=84, velocity=0, time=5),
    Message('note_off', channel=0, note=96, velocity=0, time=0),
    Message('note_on', channel=0, note=95, velocity=82, time=0),
    Message('note_on', channel=0, note=83, velocity=82, time=0),
    Message('control_change', channel=0, control=7, value=103, time=14),
    Message('note_off', channel=0, note=83, velocity=0, time=10),
    Message('note_off', channel=0, note=95, velocity=0, time=0),
    Message('note_on', channel=0, note=94, velocity=80, time=0),
    Message('note_on', channel=0, note=82, velocity=80, time=0),
    Message('control_change', channel=0, control=7, value=102, time=9),
    Message('note_off', channel=0, note=82, velocity=0, time=15),
    Message('note_off', channel=0, note=94, velocity=0, time=0),
    Message('note_on', channel=0, note=93, velocity=78, time=0),
    Message('note_on', channel=0, note=81, velocity=78, time=0),
    Message('control_change', channel=0, control=7, value=101, time=4),
    Message('note_off', channel=0, note=81, velocity=0, time=19),
    Message('note_off', channel=0, note=93, velocity=0, time=0),
    Message('control_change', channel=0, control=7, value=100, time=1),
    Message('note_on', channel=0, note=92, velocity=75, time=0),
    Message('note_on', channel=0, note=80, velocity=75, time=0),
    Message('control_change', channel=0, control=7, value=101, time=19),
    Message('note_off', channel=0, note=80, velocity=0, time=5),
    Message('note_off', channel=0, note=92, velocity=0, time=0),
    Message('note_on', channel=0, note=93, velocity=77, time=0),
    Message('note_on', channel=0, note=81, velocity=77, time=0),
    Message('control_change', channel=0, control=7, value=102, time=14),
    Message('note_off', channel=0, note=81, velocity=0, time=10),
    Message('note_off', channel=0, note=93, velocity=0, time=0),
    Message('note_on', channel=0, note=94, velocity=79, time=0),
    Message('note_on', channel=0, note=82, velocity=79, time=0),
    Message('control_change', channel=0, control=7, value=103, time=9),
    Message('note_off', channel=0, note=82, velocity=0, time=15),
    Message('note_off', channel=0, note=94, velocity=0, time=0),
    Message('note_on', channel=0, note=95, velocity=81, time=0),
    Message('note_on', channel=0, note=83, velocity=81, time=0),
    Message('control_change', channel=0, control=7, value=104, time=4),
    Message('note_off', channel=0, note=83, velocity=0, time=20),
    Message('note_off', channel=0, note=95, velocity=0, time=0),
    Message('control_change', channel=0, control=7, value=105, time=0),
    Message('note_on', channel=0, note=96, velocity=83, time=0),
    Message('note_on', channel=0, note=84, velocity=83, time=0),
    Message('control_change', channel=0, control=7, value=106, time=19),
    Message('note_off', channel=0, note=84, velocity=0, time=5),
    Message('note_off', channel=0, note=96, velocity=0, time=0),
    Message('note_on', channel=0, note=97, velocity=85, time=0),
    Message('note_on', channel=0, note=85, velocity=85, time=0),
    Message('control_change', channel=0, control=7, value=107, time=14),
    Message('note_off', channel=0, note=85, velocity=0, time=10),
    Message('note_off', channel=0, note=97, velocity=0, time=0),
    Message('note_on', channel=0, note=98, velocity=87, time=0),
    Message('note_on', channel=0, note=86, velocity=87, time=0),
    Message('control_change', channel=0, control=7, value=108, time=9),
    Message('note_off', channel=0, note=86, velocity=0, time=15),
    Message('note_off', channel=0, note=98, velocity=0, time=0),
    Message('note_on', channel=0, note=99, velocity=89, time=0),
    Message('note_on', channel=0, note=87, velocity=89, time=0),
    Message('control_change', channel=0, control=7, value=109, time=4),
    Message('note_off', channel=0, note=87, velocity=0, time=19),
    Message('note_off', channel=0, note=99, velocity=0, time=0),
    Message('control_change', channel=0, control=7, value=110, time=1),
    Message('note_on', channel=0, note=100, velocity=92, time=0),
    Message('note_on', channel=0, note=88, velocity=92, time=0),
    Message('control_change', channel=0, control=7, value=109, time=19),
    Message('note_off', channel=0, note=88, velocity=0, time=5),
    Message('note_off', channel=0, note=100, velocity=0, time=0),
    Message('note_on', channel=0, note=101, velocity=90, time=0),
    Message('note_on', channel=0, note=89, velocity=90, time=0),
    Message('control_change', channel=0, control=7, value=108, time=14),
    Message('note_off', channel=0, note=89, velocity=0, time=10),
    Message('note_off', channel=0, note=101, velocity=0, time=0),
    Message('note_on', channel=0, note=100, velocity=88, time=0),
    Message('note_on', channel=0, note=88, velocity=88, time=0),
    Message('control_change', channel=0, control=7, value=107, time=9),
    Message('note_off', channel=0, note=88, velocity=0, time=15),
    Message('note_off', channel=0, note=100, velocity=0, time=0),
    Message('note_on', channel=0, note=98, velocity=86, time=0),
    Message('note_on', channel=0, note=86, velocity=86, time=0),
    Message('control_change', channel=0, control=7, value=106, time=4),
    Message('note_off', channel=0, note=86, velocity=0, time=20),
    Message('note_off', channel=0, note=98, velocity=0, time=0),
    Message('control_change', channel=0, control=7, value=105, time=0),
    Message('note_on', channel=0, note=97, velocity=84, time=0),
    Message('note_on', channel=0, note=85, velocity=84, time=0),
    Message('control_change', channel=0, control=7, value=104, time=19),
    Message('note_off', channel=0, note=85, velocity=0, time=5),
    Message('note_off', channel=0, note=97, velocity=0, time=0),
    Message('note_on', channel=0, note=96, velocity=82, time=0),
    Message('note_on', channel=0, note=84, velocity=82, time=0),
    Message('control_change', channel=0, control=7, value=103, time=14),
    Message('note_off', channel=0, note=84, velocity=0, time=10),
    Message('note_off', channel=0, note=96, velocity=0, time=0),
    Message('note_on', channel=0, note=95, velocity=80, time=0),
    Message('note_on', channel=0, note=83, velocity=80, time=0),
    Message('control_change', channel=0, control=7, value=102, time=9),
    Message('note_off', channel=0, note=83, velocity=0, time=15),
    Message('note_off', channel=0, note=95, velocity=0, time=0),
    Message('note_on', channel=0, note=94, velocity=78, time=0),
    Message('note_on', channel=0, note=82, velocity=78, time=0),
    Message('control_change', channel=0, control=7, value=101, time=4),
    Message('note_off', channel=0, note=82, velocity=0, time=19),
    Message('note_off', channel=0, note=94, velocity=0, time=0),
    Message('control_change', channel=0, control=7, value=100, time=1),
    Message('control_change', channel=0, control=7, value=110, time=576),
    Message('note_on', channel=0, note=72, velocity=92, time=96),
    Message('note_off', channel=0, note=72, velocity=0, time=80),
    Message('note_on', channel=0, note=84, velocity=92, time=16),
    Message('note_off', channel=0, note=84, velocity=0, time=96),
    Message('note_on', channel=0, note=83, velocity=92, time=0),
    Message('note_off', channel=0, note=83, velocity=0, time=48),
    Message('note_on', channel=0, note=84, velocity=92, time=0),
    Message('note_off', channel=0, note=84, velocity=0, time=48),
    Message('note_on', channel=0, note=86, velocity=92, time=0),
    Message('note_off', channel=0, note=86, velocity=0, time=96),
    Message('note_on', channel=0, note=84, velocity=92, time=0),
    Message('note_off', channel=0, note=84, velocity=0, time=48),
    Message('note_on', channel=0, note=83, velocity=92, time=0),
    Message('note_off', channel=0, note=83, velocity=0, time=47),
    Message('note_on', channel=0, note=84, velocity=92, time=1),
    Message('note_off', channel=0, note=84, velocity=0, time=48),
    Message('note_on', channel=0, note=86, velocity=92, time=0),
    Message('note_off', channel=0, note=86, velocity=0, time=48),
    Message('note_on', channel=0, note=88, velocity=92, time=0),
    Message('note_off', channel=0, note=88, velocity=0, time=96),
    Message('note_on', channel=0, note=84, velocity=92, time=0),
    Message('note_off', channel=0, note=84, velocity=0, time=80),
    Message('note_on', channel=0, note=83, velocity=92, time=16),
    Message('note_off', channel=0, note=83, velocity=0, time=96),
    Message('note_on', channel=0, note=76, velocity=92, time=0),
    Message('note_off', channel=0, note=76, velocity=0, time=47),
    Message('note_on', channel=0, note=86, velocity=92, time=49),
    Message('note_off', channel=0, note=86, velocity=0, time=24),
    Message('note_on', channel=0, note=84, velocity=92, time=0),
    Message('note_off', channel=0, note=84, velocity=0, time=24),
    Message('note_on', channel=0, note=83, velocity=92, time=0),
    Message('note_off', channel=0, note=83, velocity=0, time=24),
    Message('note_on', channel=0, note=84, velocity=92, time=0),
    Message('note_off', channel=0, note=84, velocity=0, time=24),
    Message('note_on', channel=0, note=86, velocity=92, time=0),
    Message('note_off', channel=0, note=86, velocity=0, time=47),
    Message('note_on', channel=0, note=88, velocity=92, time=49),
    Message('note_off', channel=0, note=88, velocity=0, time=24),
    Message('note_on', channel=0, note=86, velocity=92, time=0),
    Message('note_off', channel=0, note=86, velocity=0, time=24),
    Message('note_on', channel=0, note=84, velocity=92, time=0),
    Message('note_off', channel=0, note=84, velocity=0, time=24),
    Message('note_on', channel=0, note=86, velocity=92, time=0),
    Message('note_off', channel=0, note=86, velocity=0, time=24),
    Message('note_on', channel=0, note=88, velocity=92, time=0),
    Message('note_off', channel=0, note=88, velocity=0, time=264),
    Message('note_on', channel=0, note=76, velocity=92, time=24),
    Message('note_off', channel=0, note=76, velocity=0, time=80),
    Message('note_on', channel=0, note=84, velocity=92, time=16),
    Message('note_off', channel=0, note=84, velocity=0, time=96),
    Message('note_on', channel=0, note=83, velocity=92, time=0),
    Message('note_off', channel=0, note=83, velocity=0, time=48),
    Message('note_on', channel=0, note=84, velocity=92, time=0),
    Message('note_off', channel=0, note=84, velocity=0, time=48),
    Message('note_on', channel=0, note=86, velocity=92, time=0),
    Message('note_off', channel=0, note=86, velocity=0, time=96),
    Message('note_on', channel=0, note=84, velocity=92, time=0),
    Message('note_off', channel=0, note=84, velocity=0, time=48),
    Message('note_on', channel=0, note=86, velocity=92, time=0),
    Message('note_off', channel=0, note=86, velocity=0, time=47),
    Message('note_on', channel=0, note=87, velocity=92, time=1),
    Message('note_off', channel=0, note=87, velocity=0, time=48),
    Message('note_on', channel=0, note=89, velocity=92, time=0),
    Message('note_off', channel=0, note=89, velocity=0, time=48),
    Message('note_on', channel=0, note=91, velocity=92, time=0),
    Message('note_off', channel=0, note=91, velocity=0, time=96),
    Message('note_on', channel=0, note=87, velocity=92, time=0),
    Message('note_off', channel=0, note=87, velocity=0, time=96),
    Message('note_on', channel=0, note=86, velocity=92, time=0),
    Message('note_off', channel=0, note=86, velocity=0, time=96),
    Message('note_on', channel=0, note=87, velocity=92, time=0),
    Message('note_off', channel=0, note=87, velocity=0, time=48),
    Message('note_on', channel=0, note=75, velocity=92, time=48),
    Message('note_off', channel=0, note=75, velocity=0, time=24),
    Message('note_on', channel=0, note=79, velocity=92, time=0),
    Message('note_off', channel=0, note=79, velocity=0, time=24),
    Message('note_on', channel=0, note=84, velocity=92, time=0),
    Message('note_off', channel=0, note=84, velocity=0, time=24),
    Message('note_on', channel=0, note=87, velocity=92, time=0),
    Message('note_off', channel=0, note=87, velocity=0, time=24),
    Message('note_on', channel=0, note=89, velocity=92, time=0),
    Message('note_off', channel=0, note=89, velocity=0, time=47),
    Message('note_on', channel=0, note=74, velocity=92, time=49),
    Message('note_off', channel=0, note=74, velocity=0, time=24),
    Message('note_on', channel=0, note=79, velocity=92, time=0),
    Message('note_off', channel=0, note=79, velocity=0, time=24),
    Message('note_on', channel=0, note=83, velocity=92, time=0),
    Message('note_off', channel=0, note=83, velocity=0, time=24),
    Message('note_on', channel=0, note=86, velocity=92, time=0),
    Message('note_off', channel=0, note=86, velocity=0, time=23),
    Message('note_on', channel=0, note=91, velocity=92, time=1),
    Message('note_off', channel=0, note=91, velocity=0, time=192),
    Message('note_on', channel=0, note=84, velocity=92, time=0),
    Message('note_off', channel=0, note=84, velocity=0, time=128),
    Message('control_change', channel=0, control=7, value=100, time=2560),
    Message('note_on', channel=0, note=77, velocity=75, time=0),
    Message('control_change', channel=0, control=7, value=101, time=9),
    Message('note_off', channel=0, note=77, velocity=0, time=7),
    Message('note_on', channel=0, note=79, velocity=77, time=0),
    Message('control_change', channel=0, control=7, value=102, time=3),
    Message('control_change', channel=0, control=7, value=103, time=9),
    Message('note_off', channel=0, note=79, velocity=0, time=4),
    Message('note_on', channel=0, note=80, velocity=79, time=0),
    Message('control_change', channel=0, control=7, value=104, time=6),
    Message('note_off', channel=0, note=80, velocity=0, time=10),
    Message('control_change', channel=0, control=7, value=105, time=0),
    Message('note_on', channel=0, note=82, velocity=81, time=0),
    Message('control_change', channel=0, control=7, value=106, time=9),
    Message('note_off', channel=0, note=82, velocity=0, time=7),
    Message('note_on', channel=0, note=83, velocity=84, time=0),
    Message('control_change', channel=0, control=7, value=107, time=3),
    Message('control_change', channel=0, control=7, value=108, time=9),
    Message('note_off', channel=0, note=83, velocity=0, time=4),
    Message('note_on', channel=0, note=84, velocity=87, time=0),
    Message('control_change', channel=0, control=7, value=109, time=6),
    Message('note_off', channel=0, note=84, velocity=0, time=10),
    Message('control_change', channel=0, control=7, value=110, time=0),
    Message('note_on', channel=0, note=86, velocity=90, time=0),
    Message('control_change', channel=0, control=7, value=111, time=9),
    Message('note_off', channel=0, note=86, velocity=0, time=7),
    Message('note_on', channel=0, note=87, velocity=93, time=0),
    Message('control_change', channel=0, control=7, value=112, time=3),
    Message('control_change', channel=0, control=7, value=113, time=9),
    Message('note_off', channel=0, note=87, velocity=0, time=4),
    Message('note_on', channel=0, note=89, velocity=96, time=0),
    Message('control_change', channel=0, control=7, value=114, time=6),
    Message('note_off', channel=0, note=89, velocity=0, time=10),
    Message('control_change', channel=0, control=7, value=115, time=0),
    Message('note_on', channel=0, note=91, velocity=99, time=0),
    Message('control_change', channel=0, control=7, value=116, time=9),
    Message('note_off', channel=0, note=91, velocity=0, time=7),
    Message('note_on', channel=0, note=92, velocity=102, time=0),
    Message('control_change', channel=0, control=7, value=117, time=3),
    Message('control_change', channel=0, control=7, value=118, time=9),
    Message('note_off', channel=0, note=92, velocity=0, time=4),
    Message('note_on', channel=0, note=95, velocity=105, time=0),
    Message('control_change', channel=0, control=7, value=119, time=6),
    Message('note_off', channel=0, note=95, velocity=0, time=9),
    Message('control_change', channel=0, control=7, value=120, time=1),
    Message('note_on', channel=0, note=96, velocity=127, time=0),
    Message('note_on', channel=0, note=84, velocity=127, time=0),
    Message('note_off', channel=0, note=84, velocity=0, time=24),
    Message('note_off', channel=0, note=96, velocity=0, time=0),
    Message('note_on', channel=0, note=91, velocity=127, time=72),
    Message('note_on', channel=0, note=79, velocity=127, time=0),
    Message('note_off', channel=0, note=79, velocity=0, time=24),
    Message('note_off', channel=0, note=91, velocity=0, time=0),
    Message('note_on', channel=0, note=92, velocity=127, time=72),
    Message('note_on', channel=0, note=80, velocity=127, time=0),
    Message('note_off', channel=0, note=80, velocity=0, time=24),
    Message('note_off', channel=0, note=92, velocity=0, time=0),
    Message('note_on', channel=0, note=83, velocity=127, time=72),
    Message('note_off', channel=0, note=83, velocity=0, time=16),
    Message('note_on', channel=0, note=84, velocity=127, time=32),
    Message('note_off', channel=0, note=84, velocity=0, time=16),
    Message('note_on', channel=0, note=97, velocity=127, time=32),
    Message('note_on', channel=0, note=85, velocity=127, time=0),
    Message('note_off', channel=0, note=97, velocity=0, time=24),
    Message('note_off', channel=0, note=85, velocity=0, time=0),
    Message('note_on', channel=0, note=91, velocity=127, time=72),
    Message('note_on', channel=0, note=79, velocity=127, time=0),
    Message('note_off', channel=0, note=79, velocity=0, time=24),
    Message('note_off', channel=0, note=91, velocity=0, time=0),
    Message('note_on', channel=0, note=96, velocity=127, time=72),
    Message('note_on', channel=0, note=84, velocity=127, time=0),
    Message('note_off', channel=0, note=84, velocity=0, time=36),
    Message('note_off', channel=0, note=96, velocity=0, time=0),
    Message('note_on', channel=0, note=98, velocity=108, time=924),
    Message('note_on', channel=0, note=86, velocity=108, time=0),
    Message('note_on', channel=0, note=82, velocity=108, time=0),
    Message('note_off', channel=0, note=82, velocity=0, time=16),
    Message('note_off', channel=0, note=98, velocity=0, time=0),
    Message('note_off', channel=0, note=86, velocity=0, time=0),
    Message('note_on', channel=0, note=98, velocity=108, time=32),
    Message('note_on', channel=0, note=86, velocity=108, time=0),
    Message('note_on', channel=0, note=82, velocity=108, time=0),
    Message('note_off', channel=0, note=98, velocity=0, time=16),
    Message('note_off', channel=0, note=86, velocity=0, time=0),
    Message('note_off', channel=0, note=82, velocity=0, time=0),
    Message('note_on', channel=0, note=98, velocity=108, time=32),
    Message('note_on', channel=0, note=86, velocity=108, time=0),
    Message('note_on', channel=0, note=82, velocity=108, time=0),
    Message('note_off', channel=0, note=98, velocity=0, time=16),
    Message('note_off', channel=0, note=86, velocity=0, time=0),
    Message('note_off', channel=0, note=82, velocity=0, time=0),
    Message('note_on', channel=0, note=98, velocity=108, time=32),
    Message('note_on', channel=0, note=86, velocity=108, time=0),
    Message('note_on', channel=0, note=82, velocity=108, time=0),
    Message('note_off', channel=0, note=98, velocity=0, time=16),
    Message('note_off', channel=0, note=86, velocity=0, time=0),
    Message('note_off', channel=0, note=82, velocity=0, time=0),
    Message('note_on', channel=0, note=98, velocity=108, time=32),
    Message('note_on', channel=0, note=86, velocity=108, time=0),
    Message('note_on', channel=0, note=82, velocity=108, time=0),
    Message('note_off', channel=0, note=98, velocity=0, time=16),
    Message('note_off', channel=0, note=86, velocity=0, time=0),
    Message('note_off', channel=0, note=82, velocity=0, time=0),
    Message('note_on', channel=0, note=98, velocity=108, time=32),
    Message('note_on', channel=0, note=86, velocity=108, time=0),
    Message('note_on', channel=0, note=82, velocity=108, time=0),
    Message('note_off', channel=0, note=98, velocity=0, time=16),
    Message('note_off', channel=0, note=86, velocity=0, time=0),
    Message('note_off', channel=0, note=82, velocity=0, time=0),
    Message('note_on', channel=0, note=97, velocity=108, time=32),
    Message('note_on', channel=0, note=85, velocity=108, time=0),
    Message('note_on', channel=0, note=81, velocity=108, time=0),
    Message('note_off', channel=0, note=97, velocity=0, time=16),
    Message('note_off', channel=0, note=85, velocity=0, time=0),
    Message('note_off', channel=0, note=81, velocity=0, time=0),
    Message('note_on', channel=0, note=98, velocity=108, time=32),
    Message('note_on', channel=0, note=86, velocity=108, time=0),
    Message('note_on', channel=0, note=82, velocity=108, time=0),
    Message('note_off', channel=0, note=98, velocity=0, time=16),
    Message('note_off', channel=0, note=86, velocity=0, time=0),
    Message('note_off', channel=0, note=82, velocity=0, time=0),
    Message('note_on', channel=0, note=101, velocity=108, time=32),
    Message('note_on', channel=0, note=85, velocity=108, time=0),
    Message('note_on', channel=0, note=82, velocity=108, time=0),
    Message('note_off', channel=0, note=82, velocity=0, time=96),
    Message('note_off', channel=0, note=85, velocity=0, time=0),
    Message('note_off', channel=0, note=101, velocity=0, time=0),
    Message('note_on', channel=0, note=99, velocity=108, time=0),
    Message('note_on', channel=0, note=83, velocity=108, time=0),
    Message('note_on', channel=0, note=80, velocity=108, time=0),
    Message('note_off', channel=0, note=80, velocity=0, time=16),
    Message('note_off', channel=0, note=83, velocity=0, time=0),
    Message('note_off', channel=0, note=99, velocity=0, time=0),
    Message('note_on', channel=0, note=98, velocity=108, time=32),
    Message('note_on', channel=0, note=82, velocity=108, time=0),
    Message('note_on', channel=0, note=79, velocity=108, time=0),
    Message('note_off', channel=0, note=98, velocity=0, time=16),
    Message('note_off', channel=0, note=82, velocity=0, time=0),
    Message('note_off', channel=0, note=79, velocity=0, time=0),
    Message('note_on', channel=0, note=99, velocity=108, time=32),
    Message('note_on', channel=0, note=83, velocity=108, time=0),
    Message('note_on', channel=0, note=80, velocity=108, time=0),
    Message('note_off', channel=0, note=99, velocity=0, time=24),
    Message('note_off', channel=0, note=83, velocity=0, time=0),
    Message('note_off', channel=0, note=80, velocity=0, time=0),
    Message('note_on', channel=0, note=92, velocity=108, time=72),
    Message('note_on', channel=0, note=80, velocity=108, time=0),
    Message('note_on', channel=0, note=75, velocity=108, time=0),
    Message('note_off', channel=0, note=92, velocity=0, time=24),
    Message('note_off', channel=0, note=80, velocity=0, time=0),
    Message('note_off', channel=0, note=75, velocity=0, time=0),
    Message('note_on', channel=0, note=99, velocity=108, time=72),
    Message('note_on', channel=0, note=83, velocity=108, time=0),
    Message('note_on', channel=0, note=80, velocity=108, time=0),
    Message('note_off', channel=0, note=80, velocity=0, time=96),
    Message('note_off', channel=0, note=83, velocity=0, time=0),
    Message('note_off', channel=0, note=99, velocity=0, time=0),
    Message('note_on', channel=0, note=98, velocity=108, time=0),
    Message('note_on', channel=0, note=83, velocity=108, time=0),
    Message('note_on', channel=0, note=80, velocity=108, time=0),
    Message('note_off', channel=0, note=80, velocity=0, time=16),
    Message('note_off', channel=0, note=83, velocity=0, time=0),
    Message('note_off', channel=0, note=98, velocity=0, time=0),
    Message('note_on', channel=0, note=97, velocity=108, time=32),
    Message('note_on', channel=0, note=83, velocity=108, time=0),
    Message('note_on', channel=0, note=80, velocity=108, time=0),
    Message('note_off', channel=0, note=97, velocity=0, time=16),
    Message('note_off', channel=0, note=83, velocity=0, time=0),
    Message('note_off', channel=0, note=80, velocity=0, time=0),
    Message('note_on', channel=0, note=98, velocity=108, time=32),
    Message('note_on', channel=0, note=82, velocity=108, time=0),
    Message('note_on', channel=0, note=79, velocity=108, time=0),
    Message('note_off', channel=0, note=79, velocity=0, time=24),
    Message('note_off', channel=0, note=82, velocity=0, time=0),
    Message('note_off', channel=0, note=98, velocity=0, time=0),
    Message('note_on', channel=0, note=91, velocity=108, time=72),
    Message('note_on', channel=0, note=79, velocity=108, time=0),
    Message('note_on', channel=0, note=74, velocity=108, time=0),
    Message('note_off', channel=0, note=74, velocity=0, time=24),
    Message('note_off', channel=0, note=79, velocity=0, time=0),
    Message('note_off', channel=0, note=91, velocity=0, time=0),
    Message('note_on', channel=0, note=94, velocity=108, time=72),
    Message('note_on', channel=0, note=82, velocity=108, time=0),
    Message('note_on', channel=0, note=79, velocity=108, time=0),
    Message('note_off', channel=0, note=79, velocity=0, time=168),
    Message('note_off', channel=0, note=82, velocity=0, time=0),
    Message('note_off', channel=0, note=94, velocity=0, time=0),
    Message('note_on', channel=0, note=93, velocity=108, time=24),
    Message('note_on', channel=0, note=81, velocity=108, time=0),
    Message('note_on', channel=0, note=78, velocity=108, time=0),
    Message('note_off', channel=0, note=78, velocity=0, time=168),
    Message('note_off', channel=0, note=81, velocity=0, time=0),
    Message('note_off', channel=0, note=93, velocity=0, time=0),
    Message('control_change', channel=0, control=7, value=100, time=24),
    Message('note_on', channel=0, note=79, velocity=105, time=0),
    Message('control_change', channel=0, control=7, value=101, time=7),
    Message('control_change', channel=0, control=7, value=102, time=7),
    Message('note_off', channel=0, note=79, velocity=0, time=2),
    Message('note_on', channel=0, note=81, velocity=78, time=0),
    Message('control_change', channel=0, control=7, value=103, time=5),
    Message('control_change', channel=0, control=7, value=104, time=7),
    Message('note_off', channel=0, note=81, velocity=0, time=4),
    Message('note_on', channel=0, note=82, velocity=81, time=0),
    Message('control_change', channel=0, control=7, value=105, time=3),
    Message('control_change', channel=0, control=7, value=106, time=8),
    Message('note_off', channel=0, note=82, velocity=0, time=5),
    Message('note_on', channel=0, note=84, velocity=84, time=0),
    Message('control_change', channel=0, control=7, value=107, time=2),
    Message('control_change', channel=0, control=7, value=108, time=7),
    Message('note_off', channel=0, note=84, velocity=0, time=3),
    Message('note_on', channel=0, note=86, velocity=87, time=0),
    Message('control_change', channel=0, control=7, value=109, time=4),
    Message('control_change', channel=0, control=7, value=110, time=7),
    Message('note_off', channel=0, note=86, velocity=0, time=1),
    Message('note_on', channel=0, note=87, velocity=90, time=0),
    Message('control_change', channel=0, control=7, value=111, time=7),
    Message('note_off', channel=0, note=87, velocity=0, time=5),
    Message('note_on', channel=0, note=89, velocity=93, time=0),
    Message('control_change', channel=0, control=7, value=112, time=2),
    Message('control_change', channel=0, control=7, value=113, time=7),
    Message('note_off', channel=0, note=89, velocity=0, time=3),
    Message('note_on', channel=0, note=91, velocity=96, time=0),
    Message('control_change', channel=0, control=7, value=114, time=4),
    Message('control_change', channel=0, control=7, value=115, time=7),
    Message('control_change', channel=0, control=7, value=116, time=8),
    Message('control_change', channel=0, control=7, value=117, time=7),
    Message('control_change', channel=0, control=7, value=118, time=7),
    Message('control_change', channel=0, control=7, value=119, time=7),
    Message('note_off', channel=0, note=91, velocity=0, time=7),
    Message('control_change', channel=0, control=7, value=120, time=0),
    Message('control_change', channel=0, control=7, value=100, time=1489),
    Message('note_on', channel=0, note=83, velocity=75, time=0),
    Message('note_off', channel=0, note=83, velocity=0, time=24),
    Message('note_on', channel=0, note=81, velocity=75, time=0),
    Message('note_off', channel=0, note=81, velocity=0, time=24),
    Message('note_on', channel=0, note=80, velocity=75, time=0),
    Message('note_off', channel=0, note=80, velocity=0, time=24),
    Message('note_on', channel=0, note=81, velocity=75, time=0),
    Message('note_off', channel=0, note=81, velocity=0, time=24),
    Message('note_on', channel=0, note=83, velocity=75, time=0),
    Message('note_off', channel=0, note=83, velocity=0, time=47),
    Message('note_on', channel=0, note=85, velocity=75, time=49),
    Message('note_off', channel=0, note=85, velocity=0, time=24),
    Message('note_on', channel=0, note=83, velocity=75, time=0),
    Message('note_off', channel=0, note=83, velocity=0, time=24),
    Message('note_on', channel=0, note=81, velocity=75, time=0),
    Message('note_off', channel=0, note=81, velocity=0, time=24),
    Message('note_on', channel=0, note=83, velocity=75, time=0),
    Message('note_off', channel=0, note=83, velocity=0, time=24),
    Message('note_on', channel=0, note=85, velocity=75, time=0),
    Message('note_off', channel=0, note=85, velocity=0, time=264),
    Message('note_on', channel=0, note=85, velocity=75, time=24),
    Message('note_on', channel=0, note=73, velocity=75, time=0),
    Message('note_off', channel=0, note=73, velocity=0, time=80),
    Message('note_off', channel=0, note=85, velocity=0, time=0),
    Message('note_on', channel=0, note=85, velocity=75, time=16),
    Message('note_on', channel=0, note=73, velocity=75, time=0),
    Message('note_off', channel=0, note=73, velocity=0, time=96),
    Message('note_off', channel=0, note=85, velocity=0, time=0),
    Message('note_on', channel=0, note=84, velocity=75, time=0),
    Message('note_on', channel=0, note=72, velocity=75, time=0),
    Message('note_off', channel=0, note=72, velocity=0, time=48),
    Message('note_off', channel=0, note=84, velocity=0, time=0),
    Message('note_on', channel=0, note=85, velocity=75, time=0),
    Message('note_on', channel=0, note=73, velocity=75, time=0),
    Message('note_off', channel=0, note=73, velocity=0, time=48),
    Message('note_off', channel=0, note=85, velocity=0, time=0),
    Message('note_on', channel=0, note=87, velocity=75, time=0),
    Message('note_on', channel=0, note=75, velocity=75, time=0),
    Message('note_off', channel=0, note=75, velocity=0, time=96),
    Message('note_off', channel=0, note=87, velocity=0, time=0),
    Message('note_on', channel=0, note=85, velocity=75, time=0),
    Message('note_on', channel=0, note=73, velocity=75, time=0),
    Message('note_off', channel=0, note=73, velocity=0, time=48),
    Message('note_off', channel=0, note=85, velocity=0, time=0),
    Message('note_on', channel=0, note=87, velocity=75, time=0),
    Message('note_on', channel=0, note=75, velocity=75, time=0),
    Message('note_off', channel=0, note=75, velocity=0, time=48),
    Message('note_off', channel=0, note=87, velocity=0, time=0),
    Message('note_on', channel=0, note=88, velocity=75, time=0),
    Message('note_on', channel=0, note=76, velocity=75, time=0),
    Message('note_off', channel=0, note=76, velocity=0, time=48),
    Message('note_off', channel=0, note=88, velocity=0, time=0),
    Message('note_on', channel=0, note=90, velocity=75, time=0),
    Message('note_on', channel=0, note=78, velocity=75, time=0),
    Message('note_off', channel=0, note=78, velocity=0, time=48),
    Message('note_off', channel=0, note=90, velocity=0, time=0),
    Message('note_on', channel=0, note=92, velocity=75, time=0),
    Message('note_on', channel=0, note=80, velocity=75, time=0),
    Message('note_off', channel=0, note=80, velocity=0, time=96),
    Message('note_off', channel=0, note=92, velocity=0, time=0),
    Message('note_on', channel=0, note=88, velocity=75, time=0),
    Message('note_on', channel=0, note=76, velocity=75, time=0),
    Message('note_off', channel=0, note=76, velocity=0, time=96),
    Message('note_off', channel=0, note=88, velocity=0, time=0),
    Message('note_on', channel=0, note=87, velocity=75, time=0),
    Message('note_on', channel=0, note=75, velocity=75, time=0),
    Message('note_off', channel=0, note=75, velocity=0, time=96),
    Message('note_off', channel=0, note=87, velocity=0, time=0),
    Message('note_on', channel=0, note=88, velocity=75, time=0),
    Message('note_on', channel=0, note=76, velocity=75, time=0),
    Message('note_off', channel=0, note=76, velocity=0, time=47),
    Message('note_off', channel=0, note=88, velocity=0, time=0),
    Message('note_on', channel=0, note=90, velocity=75, time=49),
    Message('note_on', channel=0, note=78, velocity=75, time=0),
    Message('note_off', channel=0, note=78, velocity=0, time=24),
    Message('note_off', channel=0, note=90, velocity=0, time=0),
    Message('note_on', channel=0, note=88, velocity=75, time=0),
    Message('note_on', channel=0, note=76, velocity=75, time=0),
    Message('note_off', channel=0, note=76, velocity=0, time=24),
    Message('note_off', channel=0, note=88, velocity=0, time=0),
    Message('note_on', channel=0, note=87, velocity=75, time=0),
    Message('note_on', channel=0, note=75, velocity=75, time=0),
    Message('note_off', channel=0, note=75, velocity=0, time=24),
    Message('note_off', channel=0, note=87, velocity=0, time=0),
    Message('note_on', channel=0, note=88, velocity=75, time=0),
    Message('note_on', channel=0, note=76, velocity=75, time=0),
    Message('note_off', channel=0, note=76, velocity=0, time=24),
    Message('note_off', channel=0, note=88, velocity=0, time=0),
    Message('note_on', channel=0, note=90, velocity=75, time=0),
    Message('note_on', channel=0, note=78, velocity=75, time=0),
    Message('note_off', channel=0, note=78, velocity=0, time=47),
    Message('note_off', channel=0, note=90, velocity=0, time=0),
    Message('note_on', channel=0, note=92, velocity=75, time=49),
    Message('note_on', channel=0, note=80, velocity=75, time=0),
    Message('note_off', channel=0, note=92, velocity=0, time=24),
    Message('note_off', channel=0, note=80, velocity=0, time=0),
    Message('note_on', channel=0, note=90, velocity=75, time=0),
    Message('note_on', channel=0, note=78, velocity=75, time=0),
    Message('note_off', channel=0, note=78, velocity=0, time=24),
    Message('note_off', channel=0, note=90, velocity=0, time=0),
    Message('note_on', channel=0, note=88, velocity=75, time=0),
    Message('note_on', channel=0, note=76, velocity=75, time=0),
    Message('note_off', channel=0, note=76, velocity=0, time=24),
    Message('note_off', channel=0, note=88, velocity=0, time=0),
    Message('note_on', channel=0, note=90, velocity=75, time=0),
    Message('note_on', channel=0, note=78, velocity=75, time=0),
    Message('note_off', channel=0, note=78, velocity=0, time=24),
    Message('note_off', channel=0, note=90, velocity=0, time=0),
    Message('note_on', channel=0, note=92, velocity=75, time=0),
    Message('note_on', channel=0, note=80, velocity=75, time=0),
    Message('control_change', channel=0, control=7, value=99, time=4),
    Message('control_change', channel=0, control=7, value=98, time=4),
    Message('control_change', channel=0, control=7, value=97, time=4),
    Message('control_change', channel=0, control=7, value=96, time=4),
    Message('control_change', channel=0, control=7, value=95, time=4),
    Message('control_change', channel=0, control=7, value=94, time=5),
    Message('control_change', channel=0, control=7, value=93, time=4),
    Message('control_change', channel=0, control=7, value=92, time=4),
    Message('control_change', channel=0, control=7, value=91, time=4),
    Message('control_change', channel=0, control=7, value=90, time=4),
    Message('control_change', channel=0, control=7, value=89, time=5),
    Message('control_change', channel=0, control=7, value=88, time=4),
    Message('control_change', channel=0, control=7, value=87, time=4),
    Message('control_change', channel=0, control=7, value=86, time=4),
    Message('control_change', channel=0, control=7, value=85, time=4),
    Message('control_change', channel=0, control=7, value=84, time=5),
    Message('control_change', channel=0, control=7, value=83, time=4),
    Message('control_change', channel=0, control=7, value=82, time=4),
    Message('control_change', channel=0, control=7, value=81, time=4),
    Message('control_change', channel=0, control=7, value=80, time=4),
    Message('control_change', channel=0, control=7, value=79, time=5),
    Message('control_change', channel=0, control=7, value=78, time=4),
    Message('control_change', channel=0, control=7, value=77, time=4),
    Message('control_change', channel=0, control=7, value=76, time=4),
    Message('control_change', channel=0, control=7, value=75, time=4),
    Message('control_change', channel=0, control=7, value=74, time=5),
    Message('control_change', channel=0, control=7, value=73, time=4),
    Message('control_change', channel=0, control=7, value=72, time=4),
    Message('control_change', channel=0, control=7, value=71, time=4),
    Message('control_change', channel=0, control=7, value=70, time=4),
    Message('control_change', channel=0, control=7, value=69, time=5),
    Message('control_change', channel=0, control=7, value=68, time=4),
    Message('control_change', channel=0, control=7, value=67, time=4),
    Message('control_change', channel=0, control=7, value=66, time=4),
    Message('control_change', channel=0, control=7, value=65, time=4),
    Message('control_change', channel=0, control=7, value=64, time=5),
    Message('control_change', channel=0, control=7, value=63, time=4),
    Message('control_change', channel=0, control=7, value=62, time=4),
    Message('control_change', channel=0, control=7, value=61, time=4),
    Message('control_change', channel=0, control=7, value=60, time=4),
    Message('control_change', channel=0, control=7, value=59, time=5),
    Message('control_change', channel=0, control=7, value=58, time=4),
    Message('control_change', channel=0, control=7, value=57, time=4),
    Message('control_change', channel=0, control=7, value=56, time=4),
    Message('control_change', channel=0, control=7, value=55, time=4),
    Message('control_change', channel=0, control=7, value=54, time=5),
    Message('control_change', channel=0, control=7, value=53, time=4),
    Message('control_change', channel=0, control=7, value=52, time=4),
    Message('control_change', channel=0, control=7, value=51, time=4),
    Message('control_change', channel=0, control=7, value=50, time=4),
    Message('control_change', channel=0, control=7, value=49, time=5),
    Message('control_change', channel=0, control=7, value=48, time=4),
    Message('control_change', channel=0, control=7, value=47, time=4),
    Message('control_change', channel=0, control=7, value=46, time=4),
    Message('control_change', channel=0, control=7, value=45, time=4),
    Message('control_change', channel=0, control=7, value=44, time=5),
    Message('control_change', channel=0, control=7, value=43, time=4),
    Message('control_change', channel=0, control=7, value=42, time=4),
    Message('control_change', channel=0, control=7, value=41, time=4),
    Message('control_change', channel=0, control=7, value=40, time=4),
    Message('control_change', channel=0, control=7, value=39, time=5),
    Message('control_change', channel=0, control=7, value=38, time=4),
    Message('control_change', channel=0, control=7, value=37, time=4),
    Message('control_change', channel=0, control=7, value=36, time=4),
    Message('control_change', channel=0, control=7, value=35, time=4),
    Message('control_change', channel=0, control=7, value=34, time=5),
    Message('control_change', channel=0, control=7, value=33, time=4),
    Message('control_change', channel=0, control=7, value=32, time=4),
    Message('control_change', channel=0, control=7, value=31, time=4),
    Message('control_change', channel=0, control=7, value=30, time=4),
    Message('control_change', channel=0, control=7, value=29, time=5),
    Message('control_change', channel=0, control=7, value=28, time=4),
    Message('control_change', channel=0, control=7, value=27, time=4),
    Message('control_change', channel=0, control=7, value=26, time=4),
    Message('note_off', channel=0, note=80, velocity=0, time=2),
    Message('note_off', channel=0, note=92, velocity=0, time=0),
    Message('control_change', channel=0, control=7, value=25, time=2),
    Message('control_change', channel=0, control=7, value=24, time=5),
    Message('control_change', channel=0, control=7, value=23, time=4),
    Message('control_change', channel=0, control=7, value=22, time=4),
    Message('control_change', channel=0, control=7, value=21, time=4),
    Message('control_change', channel=0, control=7, value=20, time=4),
    Message('control_change', channel=0, control=7, value=110, time=1681),
    Message('note_on', channel=0, note=93, velocity=92, time=0),
    Message('note_on', channel=0, note=86, velocity=92, time=0),
    Message('note_off', channel=0, note=86, velocity=0, time=47),
    Message('note_off', channel=0, note=93, velocity=0, time=0),
    Message('note_on', channel=0, note=81, velocity=92, time=1),
    Message('note_on', channel=0, note=74, velocity=92, time=0),
    Message('note_off', channel=0, note=74, velocity=0, time=47),
    Message('note_off', channel=0, note=81, velocity=0, time=0),
    Message('note_on', channel=0, note=91, velocity=92, time=673),
    Message('note_on', channel=0, note=86, velocity=92, time=0),
    Message('note_on', channel=0, note=82, velocity=92, time=0),
    Message('note_off', channel=0, note=82, velocity=0, time=47),
    Message('note_off', channel=0, note=86, velocity=0, time=0),
    Message('note_off', channel=0, note=91, velocity=0, time=0),
    Message('note_on', channel=0, note=85, velocity=92, time=1),
    Message('note_on', channel=0, note=81, velocity=92, time=0),
    Message('note_on', channel=0, note=78, velocity=92, time=0),
    Message('note_off', channel=0, note=78, velocity=0, time=47),
    Message('note_off', channel=0, note=81, velocity=0, time=0),
    Message('note_off', channel=0, note=85, velocity=0, time=0),
    Message('note_on', channel=0, note=93, velocity=92, time=673),
    Message('note_on', channel=0, note=89, velocity=92, time=0),
    Message('note_on', channel=0, note=86, velocity=92, time=0),
    Message('note_off', channel=0, note=86, velocity=0, time=47),
    Message('note_off', channel=0, note=89, velocity=0, time=0),
    Message('note_off', channel=0, note=93, velocity=0, time=0),
    Message('note_on', channel=0, note=81, velocity=92, time=1),
    Message('note_on', channel=0, note=77, velocity=92, time=0),
    Message('note_on', channel=0, note=74, velocity=92, time=0),
    Message('note_off', channel=0, note=81, velocity=0, time=47),
    Message('note_off', channel=0, note=77, velocity=0, time=0),
    Message('note_off', channel=0, note=74, velocity=0, time=0),
    Message('note_on', channel=0, note=86, velocity=92, time=673),
    Message('note_on', channel=0, note=81, velocity=92, time=0),
    Message('note_on', channel=0, note=77, velocity=92, time=0),
    Message('note_off', channel=0, note=77, velocity=0, time=47),
    Message('note_off', channel=0, note=81, velocity=0, time=0),
    Message('note_off', channel=0, note=86, velocity=0, time=0),
    Message('note_on', channel=0, note=80, velocity=92, time=1),
    Message('note_on', channel=0, note=76, velocity=92, time=0),
    Message('note_on', channel=0, note=73, velocity=92, time=0),
    Message('note_off', channel=0, note=80, velocity=0, time=47),
    Message('note_off', channel=0, note=76, velocity=0, time=0),
    Message('note_off', channel=0, note=73, velocity=0, time=0),
    Message('note_on', channel=0, note=74, velocity=92, time=97),
    Message('note_on', channel=0, note=69, velocity=92, time=0),
    Message('note_on', channel=0, note=65, velocity=92, time=0),
    Message('note_off', channel=0, note=74, velocity=0, time=24),
    Message('note_off', channel=0, note=69, velocity=0, time=0),
    Message('note_off', channel=0, note=65, velocity=0, time=0),
    Message('control_change', channel=0, control=7, value=90, time=744),
    Message('note_on', channel=0, note=82, velocity=60, time=0),
    Message('note_on', channel=0, note=80, velocity=60, time=0),
    Message('note_on', channel=0, note=81, velocity=60, time=0),
    Message('note_on', channel=0, note=79, velocity=60, time=0),
    Message('note_off', channel=0, note=82, velocity=0, time=8),
    Message('note_off', channel=0, note=80, velocity=0, time=0),
    Message('note_on', channel=0, note=81, velocity=60, time=0),
    Message('note_on', channel=0, note=79, velocity=60, time=0),
    Message('note_off', channel=0, note=79, velocity=0, time=4),
    Message('note_off', channel=0, note=81, velocity=0, time=0),
    Message('note_off', channel=0, note=79, velocity=0, time=4),
    Message('note_off', channel=0, note=81, velocity=0, time=0),
    Message('note_on', channel=0, note=82, velocity=60, time=0),
    Message('note_on', channel=0, note=80, velocity=60, time=0),
    Message('note_off', channel=0, note=80, velocity=0, time=8),
    Message('note_off', channel=0, note=82, velocity=0, time=0),
    Message('note_on', channel=0, note=81, velocity=60, time=0),
    Message('note_on', channel=0, note=79, velocity=60, time=0),
    Message('note_off', channel=0, note=79, velocity=0, time=8),
    Message('note_off', channel=0, note=81, velocity=0, time=0),
    Message('note_on', channel=0, note=82, velocity=60, time=0),
    Message('note_on', channel=0, note=80, velocity=60, time=0),
    Message('note_off', channel=0, note=80, velocity=0, time=8),
    Message('note_off', channel=0, note=82, velocity=0, time=0),
    Message('note_on', channel=0, note=81, velocity=60, time=0),
    Message('note_on', channel=0, note=79, velocity=60, time=0),
    Message('note_off', channel=0, note=79, velocity=0, time=8),
    Message('note_off', channel=0, note=81, velocity=0, time=0),
    Message('note_on', channel=0, note=82, velocity=60, time=0),
    Message('note_on', channel=0, note=80, velocity=60, time=0),
    Message('note_off', channel=0, note=80, velocity=0, time=8),
    Message('note_off', channel=0, note=82, velocity=0, time=0),
    Message('note_on', channel=0, note=81, velocity=60, time=0),
    Message('note_on', channel=0, note=79, velocity=60, time=0),
    Message('note_off', channel=0, note=79, velocity=0, time=8),
    Message('note_off', channel=0, note=81, velocity=0, time=0),
    Message('note_on', channel=0, note=82, velocity=60, time=0),
    Message('note_on', channel=0, note=80, velocity=60, time=0),
    Message('note_off', channel=0, note=80, velocity=0, time=8),
    Message('note_off', channel=0, note=82, velocity=0, time=0),
    Message('note_on', channel=0, note=81, velocity=60, time=0),
    Message('note_on', channel=0, note=79, velocity=60, time=0),
    Message('note_off', channel=0, note=79, velocity=0, time=8),
    Message('note_off', channel=0, note=81, velocity=0, time=0),
    Message('note_on', channel=0, note=82, velocity=60, time=0),
    Message('note_on', channel=0, note=80, velocity=60, time=0),
    Message('note_off', channel=0, note=80, velocity=0, time=8),
    Message('note_off', channel=0, note=82, velocity=0, time=0),
    Message('note_on', channel=0, note=81, velocity=60, time=0),
    Message('note_on', channel=0, note=79, velocity=60, time=0),
    Message('note_off', channel=0, note=79, velocity=0, time=8),
    Message('note_off', channel=0, note=81, velocity=0, time=0),
    Message('note_on', channel=0, note=82, velocity=60, time=0),
    Message('note_on', channel=0, note=80, velocity=60, time=0),
    Message('note_off', channel=0, note=80, velocity=0, time=6),
    Message('note_off', channel=0, note=82, velocity=0, time=0),
    Message('note_on', channel=0, note=81, velocity=60, time=0),
    Message('note_on', channel=0, note=79, velocity=60, time=0),
    Message('note_off', channel=0, note=79, velocity=0, time=6),
    Message('note_off', channel=0, note=81, velocity=0, time=0),
    Message('note_on', channel=0, note=82, velocity=60, time=0),
    Message('note_on', channel=0, note=80, velocity=60, time=0),
    Message('note_off', channel=0, note=80, velocity=0, time=6),
    Message('note_off', channel=0, note=82, velocity=0, time=0),
    Message('note_on', channel=0, note=81, velocity=60, time=0),
    Message('note_on', channel=0, note=79, velocity=60, time=0),
    Message('note_off', channel=0, note=79, velocity=0, time=6),
    Message('note_off', channel=0, note=81, velocity=0, time=0),
    Message('note_on', channel=0, note=82, velocity=60, time=0),
    Message('note_on', channel=0, note=80, velocity=60, time=0),
    Message('note_off', channel=0, note=80, velocity=0, time=6),
    Message('note_off', channel=0, note=82, velocity=0, time=0),
    Message('note_on', channel=0, note=81, velocity=60, time=0),
    Message('note_on', channel=0, note=79, velocity=60, time=0),
    Message('note_off', channel=0, note=79, velocity=0, time=6),
    Message('note_off', channel=0, note=81, velocity=0, time=0),
    Message('note_on', channel=0, note=82, velocity=60, time=0),
    Message('note_on', channel=0, note=80, velocity=60, time=0),
    Message('note_off', channel=0, note=80, velocity=0, time=6),
    Message('note_off', channel=0, note=82, velocity=0, time=0),
    Message('note_on', channel=0, note=81, velocity=60, time=0),
    Message('note_on', channel=0, note=79, velocity=60, time=0),
    Message('note_off', channel=0, note=79, velocity=0, time=6),
    Message('note_off', channel=0, note=81, velocity=0, time=0),
    Message('note_on', channel=0, note=82, velocity=60, time=0),
    Message('note_on', channel=0, note=80, velocity=60, time=0),
    Message('note_off', channel=0, note=80, velocity=0, time=8),
    Message('note_off', channel=0, note=82, velocity=0, time=0),
    Message('note_on', channel=0, note=81, velocity=60, time=0),
    Message('note_on', channel=0, note=79, velocity=60, time=0),
    Message('note_off', channel=0, note=79, velocity=0, time=8),
    Message('note_off', channel=0, note=81, velocity=0, time=0),
    Message('note_on', channel=0, note=82, velocity=60, time=0),
    Message('note_on', channel=0, note=80, velocity=60, time=0),
    Message('note_off', channel=0, note=80, velocity=0, time=8),
    Message('note_off', channel=0, note=82, velocity=0, time=0),
    Message('note_on', channel=0, note=81, velocity=60, time=0),
    Message('note_on', channel=0, note=79, velocity=60, time=0),
    Message('note_off', channel=0, note=79, velocity=0, time=8),
    Message('note_off', channel=0, note=81, velocity=0, time=0),
    Message('note_on', channel=0, note=82, velocity=60, time=0),
    Message('note_on', channel=0, note=80, velocity=60, time=0),
    Message('note_off', channel=0, note=80, velocity=0, time=8),
    Message('note_off', channel=0, note=82, velocity=0, time=0),
    Message('note_on', channel=0, note=81, velocity=60, time=0),
    Message('note_on', channel=0, note=79, velocity=60, time=0),
    Message('note_off', channel=0, note=79, velocity=0, time=8),
    Message('note_off', channel=0, note=81, velocity=0, time=0),
    Message('note_on', channel=0, note=82, velocity=60, time=0),
    Message('note_on', channel=0, note=80, velocity=60, time=0),
    Message('note_off', channel=0, note=80, velocity=0, time=8),
    Message('note_off', channel=0, note=82, velocity=0, time=0),
    Message('note_on', channel=0, note=81, velocity=60, time=0),
    Message('note_on', channel=0, note=79, velocity=60, time=0),
    Message('note_off', channel=0, note=79, velocity=0, time=8),
    Message('note_off', channel=0, note=81, velocity=0, time=0),
    Message('note_on', channel=0, note=82, velocity=60, time=0),
    Message('note_on', channel=0, note=80, velocity=60, time=0),
    Message('note_off', channel=0, note=80, velocity=0, time=8),
    Message('note_off', channel=0, note=82, velocity=0, time=0),
    Message('note_on', channel=0, note=82, velocity=60, time=0),
    Message('note_on', channel=0, note=80, velocity=60, time=0),
    Message('note_off', channel=0, note=80, velocity=0, time=6),
    Message('note_off', channel=0, note=82, velocity=0, time=0),
    Message('note_on', channel=0, note=81, velocity=60, time=0),
    Message('note_on', channel=0, note=79, velocity=60, time=0),
    Message('note_off', channel=0, note=79, velocity=0, time=6),
    Message('note_off', channel=0, note=81, velocity=0, time=0),
    Message('note_on', channel=0, note=82, velocity=60, time=0),
    Message('note_on', channel=0, note=80, velocity=60, time=0),
    Message('note_off', channel=0, note=80, velocity=0, time=6),
    Message('note_off', channel=0, note=82, velocity=0, time=0),
    Message('note_on', channel=0, note=81, velocity=60, time=0),
    Message('note_on', channel=0, note=79, velocity=60, time=0),
    Message('note_off', channel=0, note=79, velocity=0, time=6),
    Message('note_off', channel=0, note=81, velocity=0, time=0),
    Message('note_on', channel=0, note=82, velocity=60, time=0),
    Message('note_on', channel=0, note=80, velocity=60, time=0),
    Message('note_off', channel=0, note=80, velocity=0, time=8),
    Message('note_off', channel=0, note=82, velocity=0, time=0),
    Message('note_on', channel=0, note=81, velocity=60, time=0),
    Message('note_on', channel=0, note=79, velocity=60, time=0),
    Message('note_off', channel=0, note=79, velocity=0, time=8),
    Message('note_off', channel=0, note=81, velocity=0, time=0),
    Message('note_on', channel=0, note=82, velocity=60, time=0),
    Message('note_on', channel=0, note=80, velocity=60, time=0),
    Message('note_off', channel=0, note=80, velocity=0, time=8),
    Message('note_off', channel=0, note=82, velocity=0, time=0),
    Message('note_on', channel=0, note=81, velocity=60, time=0),
    Message('note_on', channel=0, note=79, velocity=60, time=0),
    Message('note_off', channel=0, note=79, velocity=0, time=8),
    Message('note_off', channel=0, note=81, velocity=0, time=0),
    Message('note_on', channel=0, note=82, velocity=60, time=0),
    Message('note_on', channel=0, note=80, velocity=60, time=0),
    Message('note_off', channel=0, note=80, velocity=0, time=8),
    Message('note_off', channel=0, note=82, velocity=0, time=0),
    Message('note_on', channel=0, note=81, velocity=60, time=0),
    Message('note_on', channel=0, note=79, velocity=60, time=0),
    Message('note_off', channel=0, note=79, velocity=0, time=8),
    Message('note_off', channel=0, note=81, velocity=0, time=0),
    Message('note_on', channel=0, note=82, velocity=60, time=0),
    Message('note_on', channel=0, note=80, velocity=60, time=0),
    Message('note_off', channel=0, note=80, velocity=0, time=47),
    Message('note_off', channel=0, note=82, velocity=0, time=0),
    Message('control_change', channel=0, control=7, value=110, time=385),
    Message('note_on', channel=0, note=88, velocity=92, time=0),
    Message('note_off', channel=0, note=88, velocity=0, time=12),
    Message('note_on', channel=0, note=86, velocity=92, time=0),
    Message('note_off', channel=0, note=86, velocity=0, time=12),
    Message('note_on', channel=0, note=84, velocity=92, time=0),
    Message('note_off', channel=0, note=84, velocity=0, time=12),
    Message('note_on', channel=0, note=83, velocity=92, time=0),
    Message('note_off', channel=0, note=83, velocity=0, time=12),
    Message('note_on', channel=0, note=81, velocity=92, time=0),
    Message('note_off', channel=0, note=81, velocity=0, time=16),
    Message('note_on', channel=0, note=73, velocity=92, time=656),
    Message('note_off', channel=0, note=73, velocity=0, time=80),
    Message('note_on', channel=0, note=69, velocity=92, time=16),
    Message('note_off', channel=0, note=69, velocity=0, time=47),
    Message('note_on', channel=0, note=73, velocity=92, time=1),
    Message('note_off', channel=0, note=73, velocity=0, time=80),
    Message('note_on', channel=0, note=69, velocity=92, time=16),
    Message('note_off', channel=0, note=69, velocity=0, time=47),
    Message('note_on', channel=0, note=74, velocity=92, time=1),
    Message('note_off', channel=0, note=74, velocity=0, time=80),
    Message('note_on', channel=0, note=73, velocity=92, time=16),
    Message('note_off', channel=0, note=73, velocity=0, time=47),
    Message('note_on', channel=0, note=72, velocity=92, time=1),
    Message('note_off', channel=0, note=72, velocity=0, time=264),
    Message('note_on', channel=0, note=89, velocity=92, time=24),
    Message('note_on', channel=0, note=77, velocity=92, time=0),
    Message('note_off', channel=0, note=77, velocity=0, time=80),
    Message('note_off', channel=0, note=89, velocity=0, time=0),
    Message('note_on', channel=0, note=88, velocity=92, time=16),
    Message('note_on', channel=0, note=76, velocity=92, time=0),
    Message('note_off', channel=0, note=76, velocity=0, time=48),
    Message('note_off', channel=0, note=88, velocity=0, time=0),
    Message('note_on', channel=0, note=87, velocity=92, time=0),
    Message('note_on', channel=0, note=75, velocity=92, time=0),
    Message('note_off', channel=0, note=75, velocity=0, time=16),
    Message('note_off', channel=0, note=87, velocity=0, time=0),
    Message('note_on', channel=0, note=67, velocity=92, time=608),
    Message('note_off', channel=0, note=67, velocity=0, time=24),
    Message('note_on', channel=0, note=71, velocity=92, time=0),
    Message('note_off', channel=0, note=71, velocity=0, time=24),
    Message('note_on', channel=0, note=76, velocity=92, time=0),
    Message('note_off', channel=0, note=76, velocity=0, time=12),
    Message('note_on', channel=0, note=79, velocity=92, time=0),
    Message('note_off', channel=0, note=79, velocity=0, time=12),
    Message('note_on', channel=0, note=83, velocity=92, time=0),
    Message('note_off', channel=0, note=83, velocity=0, time=12),
    Message('note_on', channel=0, note=88, velocity=92, time=0),
    Message('note_off', channel=0, note=88, velocity=0, time=11),
    Message('note_on', channel=0, note=91, velocity=92, time=1),
    Message('note_off', channel=0, note=91, velocity=0, time=16),
    Message('note_on', channel=0, note=90, velocity=92, time=32),
    Message('note_off', channel=0, note=90, velocity=0, time=16),
    Message('note_on', channel=0, note=88, velocity=92, time=32),
    Message('note_off', channel=0, note=88, velocity=0, time=16),
    Message('note_on', channel=0, note=87, velocity=92, time=32),
    Message('note_off', channel=0, note=87, velocity=0, time=16),
    Message('note_on', channel=0, note=88, velocity=92, time=32),
    Message('note_off', channel=0, note=88, velocity=0, time=16),
    Message('note_on', channel=0, note=90, velocity=92, time=32),
    Message('note_off', channel=0, note=90, velocity=0, time=16),
    Message('note_on', channel=0, note=95, velocity=92, time=32),
    Message('note_on', channel=0, note=83, velocity=92, time=0),
    Message('note_off', channel=0, note=83, velocity=0, time=24),
    Message('note_off', channel=0, note=95, velocity=0, time=0),
    Message('note_on', channel=0, note=94, velocity=92, time=0),
    Message('note_on', channel=0, note=82, velocity=92, time=0),
    Message('note_off', channel=0, note=82, velocity=0, time=23),
    Message('note_off', channel=0, note=94, velocity=0, time=0),
    Message('note_on', channel=0, note=71, velocity=92, time=145),
    Message('note_off', channel=0, note=71, velocity=0, time=24),
    Message('note_on', channel=0, note=76, velocity=92, time=0),
    Message('note_off', channel=0, note=76, velocity=0, time=24),
    Message('note_on', channel=0, note=79, velocity=92, time=0),
    Message('note_off', channel=0, note=79, velocity=0, time=12),
    Message('note_on', channel=0, note=83, velocity=92, time=0),
    Message('note_off', channel=0, note=83, velocity=0, time=12),
    Message('note_on', channel=0, note=88, velocity=92, time=0),
    Message('note_off', channel=0, note=88, velocity=0, time=12),
    Message('note_on', channel=0, note=91, velocity=92, time=0),
    Message('note_off', channel=0, note=91, velocity=0, time=11),
    Message('note_on', channel=0, note=95, velocity=92, time=1),
    Message('note_off', channel=0, note=95, velocity=0, time=12),
    Message('note_on', channel=0, note=91, velocity=92, time=0),
    Message('note_off', channel=0, note=91, velocity=0, time=12),
    Message('note_on', channel=0, note=88, velocity=92, time=0),
    Message('note_off', channel=0, note=88, velocity=0, time=12),
    Message('note_on', channel=0, note=83, velocity=92, time=0),
    Message('note_off', channel=0, note=83, velocity=0, time=12),
    Message('note_on', channel=0, note=79, velocity=92, time=0),
    Message('note_off', channel=0, note=79, velocity=0, time=16),
    Message('note_on', channel=0, note=76, velocity=92, time=0),
    Message('note_off', channel=0, note=76, velocity=0, time=16),
    Message('note_on', channel=0, note=75, velocity=92, time=0),
    Message('note_off', channel=0, note=75, velocity=0, time=16),
    Message('note_on', channel=0, note=76, velocity=92, time=0),
    Message('note_off', channel=0, note=76, velocity=0, time=16),
    Message('note_on', channel=0, note=79, velocity=92, time=0),
    Message('note_off', channel=0, note=79, velocity=0, time=16),
    Message('note_on', channel=0, note=83, velocity=92, time=0),
    Message('note_off', channel=0, note=83, velocity=0, time=15),
    Message('note_on', channel=0, note=87, velocity=92, time=1),
    Message('note_off', channel=0, note=87, velocity=0, time=16),
    Message('note_on', channel=0, note=88, velocity=92, time=32),
    Message('note_off', channel=0, note=88, velocity=0, time=16),
    Message('note_on', channel=0, note=90, velocity=92, time=32),
    Message('note_off', channel=0, note=90, velocity=0, time=16),
    Message('note_on', channel=0, note=95, velocity=92, time=32),
    Message('note_on', channel=0, note=83, velocity=92, time=0),
    Message('note_off', channel=0, note=83, velocity=0, time=24),
    Message('note_off', channel=0, note=95, velocity=0, time=0),
    Message('note_on', channel=0, note=94, velocity=92, time=0),
    Message('note_on', channel=0, note=82, velocity=92, time=0),
    Message('note_off', channel=0, note=82, velocity=0, time=23),
    Message('note_off', channel=0, note=94, velocity=0, time=0),
    Message('note_on', channel=0, note=91, velocity=92, time=97),
    Message('note_off', channel=0, note=91, velocity=0, time=12),
    Message('note_on', channel=0, note=87, velocity=92, time=0),
    Message('note_off', channel=0, note=87, velocity=0, time=12),
    Message('note_on', channel=0, note=84, velocity=92, time=0),
    Message('note_off', channel=0, note=84, velocity=0, time=12),
    Message('note_on', channel=0, note=79, velocity=92, time=0),
    Message('note_off', channel=0, note=79, velocity=0, time=12),
    Message('note_on', channel=0, note=75, velocity=92, time=0),
    Message('note_off', channel=0, note=75, velocity=0, time=16),
    Message('note_on', channel=0, note=72, velocity=92, time=0),
    Message('note_off', channel=0, note=72, velocity=0, time=16),
    Message('note_on', channel=0, note=75, velocity=92, time=0),
    Message('note_off', channel=0, note=75, velocity=0, time=16),
    Message('note_on', channel=0, note=79, velocity=92, time=0),
    Message('note_off', channel=0, note=79, velocity=0, time=16),
    Message('note_on', channel=0, note=84, velocity=92, time=0),
    Message('note_off', channel=0, note=84, velocity=0, time=16),
    Message('note_on', channel=0, note=87, velocity=92, time=0),
    Message('note_off', channel=0, note=87, velocity=0, time=16),
    Message('note_on', channel=0, note=92, velocity=92, time=0),
    Message('note_off', channel=0, note=92, velocity=0, time=12),
    Message('note_on', channel=0, note=91, velocity=92, time=0),
    Message('note_off', channel=0, note=91, velocity=0, time=12),
    Message('note_on', channel=0, note=87, velocity=92, time=0),
    Message('note_off', channel=0, note=87, velocity=0, time=12),
    Message('note_on', channel=0, note=84, velocity=92, time=0),
    Message('note_off', channel=0, note=84, velocity=0, time=12),
    Message('note_on', channel=0, note=79, velocity=92, time=0),
    Message('note_off', channel=0, note=79, velocity=0, time=12),
    Message('note_on', channel=0, note=75, velocity=92, time=0),
    Message('note_off', channel=0, note=75, velocity=0, time=12),
    Message('note_on', channel=0, note=72, velocity=92, time=0),
    Message('note_off', channel=0, note=72, velocity=0, time=12),
    Message('note_on', channel=0, note=75, velocity=92, time=0),
    Message('note_off', channel=0, note=75, velocity=0, time=12),
    Message('note_on', channel=0, note=79, velocity=92, time=0),
    Message('note_off', channel=0, note=79, velocity=0, time=12),
    Message('note_on', channel=0, note=84, velocity=92, time=0),
    Message('note_off', channel=0, note=84, velocity=0, time=12),
    Message('note_on', channel=0, note=87, velocity=92, time=0),
    Message('note_off', channel=0, note=87, velocity=0, time=12),
    Message('note_on', channel=0, note=91, velocity=92, time=0),
    Message('note_off', channel=0, note=91, velocity=0, time=12),
    Message('note_on', channel=0, note=92, velocity=92, time=0),
    Message('note_off', channel=0, note=92, velocity=0, time=16),
    Message('note_on', channel=0, note=91, velocity=92, time=0),
    Message('note_off', channel=0, note=91, velocity=0, time=16),
    Message('note_on', channel=0, note=87, velocity=92, time=0),
    Message('note_off', channel=0, note=87, velocity=0, time=16),
    Message('note_on', channel=0, note=84, velocity=92, time=0),
    Message('note_off', channel=0, note=84, velocity=0, time=12),
    Message('note_on', channel=0, note=79, velocity=92, time=0),
    Message('note_off', channel=0, note=79, velocity=0, time=12),
    Message('note_on', channel=0, note=75, velocity=92, time=0),
    Message('note_off', channel=0, note=75, velocity=0, time=12),
    Message('note_on', channel=0, note=72, velocity=92, time=0),
    Message('note_off', channel=0, note=72, velocity=0, time=12),
    Message('note_on', channel=0, note=75, velocity=92, time=0),
    Message('note_off', channel=0, note=75, velocity=0, time=12),
    Message('note_on', channel=0, note=79, velocity=92, time=0),
    Message('note_off', channel=0, note=79, velocity=0, time=12),
    Message('note_on', channel=0, note=84, velocity=92, time=0),
    Message('note_off', channel=0, note=84, velocity=0, time=12),
    Message('note_on', channel=0, note=87, velocity=92, time=0),
    Message('note_off', channel=0, note=87, velocity=0, time=11),
    Message('note_on', channel=0, note=91, velocity=92, time=1),
    Message('note_off', channel=0, note=91, velocity=0, time=16),
    Message('note_on', channel=0, note=90, velocity=92, time=0),
    Message('note_off', channel=0, note=90, velocity=0, time=16),
    Message('note_on', channel=0, note=87, velocity=92, time=0),
    Message('note_off', channel=0, note=87, velocity=0, time=16),
    Message('note_on', channel=0, note=84, velocity=92, time=0),
    Message('note_off', channel=0, note=84, velocity=0, time=12),
    Message('note_on', channel=0, note=79, velocity=92, time=0),
    Message('note_off', channel=0, note=79, velocity=0, time=12),
    Message('note_on', channel=0, note=75, velocity=92, time=0),
    Message('note_off', channel=0, note=75, velocity=0, time=12),
    Message('note_on', channel=0, note=72, velocity=92, time=0),
    Message('note_off', channel=0, note=72, velocity=0, time=12),
    Message('note_on', channel=0, note=75, velocity=92, time=0),
    Message('note_off', channel=0, note=75, velocity=0, time=12),
    Message('note_on', channel=0, note=79, velocity=92, time=0),
    Message('note_off', channel=0, note=79, velocity=0, time=12),
    Message('note_on', channel=0, note=84, velocity=92, time=0),
    Message('note_off', channel=0, note=84, velocity=0, time=12),
    Message('note_on', channel=0, note=87, velocity=92, time=0),
    Message('note_off', channel=0, note=87, velocity=0, time=12),
    Message('note_on', channel=0, note=91, velocity=92, time=0),
    Message('note_off', channel=0, note=91, velocity=0, time=16),
    Message('note_on', channel=0, note=87, velocity=92, time=0),
    Message('note_off', channel=0, note=87, velocity=0, time=16),
    Message('note_on', channel=0, note=84, velocity=92, time=0),
    Message('note_off', channel=0, note=84, velocity=0, time=16),
    Message('note_on', channel=0, note=79, velocity=92, time=0),
    Message('note_off', channel=0, note=79, velocity=0, time=16),
    Message('note_on', channel=0, note=75, velocity=92, time=0),
    Message('note_off', channel=0, note=75, velocity=0, time=16),
    Message('note_on', channel=0, note=72, velocity=92, time=0),
    Message('note_off', channel=0, note=72, velocity=0, time=16),
    Message('note_on', channel=0, note=75, velocity=92, time=0),
    Message('note_off', channel=0, note=75, velocity=0, time=12),
    Message('note_on', channel=0, note=79, velocity=92, time=0),
    Message('note_off', channel=0, note=79, velocity=0, time=12),
    Message('note_on', channel=0, note=84, velocity=92, time=0),
    Message('note_off', channel=0, note=84, velocity=0, time=12),
    Message('note_on', channel=0, note=87, velocity=92, time=0),
    Message('note_off', channel=0, note=87, velocity=0, time=12),
    Message('note_on', channel=0, note=91, velocity=92, time=0),
    Message('note_off', channel=0, note=91, velocity=0, time=16),
    Message('note_on', channel=0, note=87, velocity=92, time=0),
    Message('note_off', channel=0, note=87, velocity=0, time=16),
    Message('note_on', channel=0, note=83, velocity=92, time=0),
    Message('note_off', channel=0, note=83, velocity=0, time=16),
    Message('note_on', channel=0, note=79, velocity=92, time=0),
    Message('note_off', channel=0, note=79, velocity=0, time=16),
    Message('note_on', channel=0, note=75, velocity=92, time=0),
    Message('note_off', channel=0, note=75, velocity=0, time=16),
    Message('note_on', channel=0, note=71, velocity=92, time=0),
    Message('note_off', channel=0, note=71, velocity=0, time=16),
    Message('note_on', channel=0, note=75, velocity=92, time=0),
    Message('note_off', channel=0, note=75, velocity=0, time=12),
    Message('note_on', channel=0, note=79, velocity=92, time=0),
    Message('note_off', channel=0, note=79, velocity=0, time=12),
    Message('note_on', channel=0, note=83, velocity=92, time=0),
    Message('note_off', channel=0, note=83, velocity=0, time=12),
    Message('note_on', channel=0, note=87, velocity=92, time=0),
    Message('note_off', channel=0, note=87, velocity=0, time=12),
    Message('note_on', channel=0, note=91, velocity=92, time=0),
    Message('note_off', channel=0, note=91, velocity=0, time=16),
    Message('note_on', channel=0, note=87, velocity=92, time=0),
    Message('note_off', channel=0, note=87, velocity=0, time=16),
    Message('note_on', channel=0, note=84, velocity=92, time=0),
    Message('note_off', channel=0, note=84, velocity=0, time=16),
    Message('note_on', channel=0, note=79, velocity=92, time=0),
    Message('note_off', channel=0, note=79, velocity=0, time=16),
    Message('note_on', channel=0, note=75, velocity=92, time=0),
    Message('note_off', channel=0, note=75, velocity=0, time=16),
    Message('note_on', channel=0, note=72, velocity=92, time=0),
    Message('note_off', channel=0, note=72, velocity=0, time=16),
    Message('note_on', channel=0, note=75, velocity=92, time=0),
    Message('note_off', channel=0, note=75, velocity=0, time=12),
    Message('note_on', channel=0, note=79, velocity=92, time=0),
    Message('note_off', channel=0, note=79, velocity=0, time=12),
    Message('note_on', channel=0, note=84, velocity=92, time=0),
    Message('note_off', channel=0, note=84, velocity=0, time=12),
    Message('note_on', channel=0, note=87, velocity=92, time=0),
    Message('note_off', channel=0, note=87, velocity=0, time=12),
    Message('note_on', channel=0, note=92, velocity=92, time=0),
    Message('note_off', channel=0, note=92, velocity=0, time=16),
    Message('note_on', channel=0, note=91, velocity=92, time=0),
    Message('note_off', channel=0, note=91, velocity=0, time=16),
    Message('note_on', channel=0, note=87, velocity=92, time=0),
    Message('note_off', channel=0, note=87, velocity=0, time=16),
    Message('note_on', channel=0, note=84, velocity=92, time=0),
    Message('note_off', channel=0, note=84, velocity=0, time=12),
    Message('note_on', channel=0, note=79, velocity=92, time=0),
    Message('note_off', channel=0, note=79, velocity=0, time=12),
    Message('note_on', channel=0, note=75, velocity=92, time=0),
    Message('note_off', channel=0, note=75, velocity=0, time=12),
    Message('note_on', channel=0, note=72, velocity=92, time=0),
    Message('note_off', channel=0, note=72, velocity=0, time=12),
    Message('note_on', channel=0, note=75, velocity=92, time=0),
    Message('note_off', channel=0, note=75, velocity=0, time=12),
    Message('note_on', channel=0, note=79, velocity=92, time=0),
    Message('note_off', channel=0, note=79, velocity=0, time=12),
    Message('note_on', channel=0, note=84, velocity=92, time=0),
    Message('note_off', channel=0, note=84, velocity=0, time=12),
    Message('note_on', channel=0, note=87, velocity=92, time=0),
    Message('note_off', channel=0, note=87, velocity=0, time=12),
    Message('note_on', channel=0, note=91, velocity=92, time=0),
    Message('note_off', channel=0, note=91, velocity=0, time=16),
    Message('note_on', channel=0, note=87, velocity=92, time=0),
    Message('note_off', channel=0, note=87, velocity=0, time=16),
    Message('note_on', channel=0, note=84, velocity=92, time=0),
    Message('note_off', channel=0, note=84, velocity=0, time=16),
    Message('note_on', channel=0, note=79, velocity=92, time=0),
    Message('note_off', channel=0, note=79, velocity=0, time=16),
    Message('note_on', channel=0, note=75, velocity=92, time=0),
    Message('note_off', channel=0, note=75, velocity=0, time=16),
    Message('note_on', channel=0, note=72, velocity=92, time=0),
    Message('note_off', channel=0, note=72, velocity=0, time=16),
    Message('note_on', channel=0, note=75, velocity=92, time=0),
    Message('note_off', channel=0, note=75, velocity=0, time=12),
    Message('note_on', channel=0, note=79, velocity=92, time=0),
    Message('note_off', channel=0, note=79, velocity=0, time=12),
    Message('note_on', channel=0, note=84, velocity=92, time=0),
    Message('note_off', channel=0, note=84, velocity=0, time=12),
    Message('note_on', channel=0, note=87, velocity=92, time=0),
    Message('note_off', channel=0, note=87, velocity=0, time=12),
    Message('note_on', channel=0, note=92, velocity=92, time=0),
    Message('note_off', channel=0, note=92, velocity=0, time=16),
    Message('note_on', channel=0, note=91, velocity=92, time=0),
    Message('note_off', channel=0, note=91, velocity=0, time=16),
    Message('note_on', channel=0, note=87, velocity=92, time=0),
    Message('note_off', channel=0, note=87, velocity=0, time=16),
    Message('note_on', channel=0, note=84, velocity=92, time=0),
    Message('note_off', channel=0, note=84, velocity=0, time=16),
    Message('note_on', channel=0, note=79, velocity=92, time=0),
    Message('note_off', channel=0, note=79, velocity=0, time=16),
    Message('note_on', channel=0, note=75, velocity=92, time=0),
    Message('note_off', channel=0, note=75, velocity=0, time=16),
    Message('note_on', channel=0, note=79, velocity=92, time=0),
    Message('note_off', channel=0, note=79, velocity=0, time=12),
    Message('note_on', channel=0, note=84, velocity=92, time=0),
    Message('note_off', channel=0, note=84, velocity=0, time=12),
    Message('note_on', channel=0, note=87, velocity=92, time=0),
    Message('note_off', channel=0, note=87, velocity=0, time=12),
    Message('note_on', channel=0, note=91, velocity=92, time=0),
    Message('note_off', channel=0, note=91, velocity=0, time=12),
    Message('note_on', channel=0, note=94, velocity=92, time=0),
    Message('note_on', channel=0, note=82, velocity=92, time=0),
    Message('note_off', channel=0, note=82, velocity=0, time=12),
    Message('note_off', channel=0, note=94, velocity=0, time=0),
    Message('note_on', channel=0, note=95, velocity=92, time=0),
    Message('note_on', channel=0, note=83, velocity=92, time=0),
    Message('note_off', channel=0, note=83, velocity=0, time=12),
    Message('note_off', channel=0, note=95, velocity=0, time=0),
    Message('note_on', channel=0, note=94, velocity=92, time=0),
    Message('note_on', channel=0, note=82, velocity=92, time=0),
    Message('note_off', channel=0, note=82, velocity=0, time=71),
    Message('note_off', channel=0, note=94, velocity=0, time=0),
    Message('note_on', channel=0, note=93, velocity=92, time=1),
    Message('note_on', channel=0, note=81, velocity=92, time=0),
    Message('note_off', channel=0, note=81, velocity=0, time=12),
    Message('note_off', channel=0, note=93, velocity=0, time=0),
    Message('note_on', channel=0, note=94, velocity=92, time=0),
    Message('note_on', channel=0, note=82, velocity=92, time=0),
    Message('note_off', channel=0, note=82, velocity=0, time=12),
    Message('note_off', channel=0, note=94, velocity=0, time=0),
    Message('note_on', channel=0, note=93, velocity=92, time=0),
    Message('note_on', channel=0, note=81, velocity=92, time=0),
    Message('note_off', channel=0, note=81, velocity=0, time=23),
    Message('note_off', channel=0, note=93, velocity=0, time=0),
    Message('note_on', channel=0, note=92, velocity=92, time=1),
    Message('note_on', channel=0, note=80, velocity=92, time=0),
    Message('note_off', channel=0, note=92, velocity=0, time=12),
    Message('note_off', channel=0, note=80, velocity=0, time=0),
    Message('note_on', channel=0, note=93, velocity=92, time=0),
    Message('note_on', channel=0, note=81, velocity=92, time=0),
    Message('note_off', channel=0, note=81, velocity=0, time=12),
    Message('note_off', channel=0, note=93, velocity=0, time=0),
    Message('note_on', channel=0, note=92, velocity=92, time=0),
    Message('note_on', channel=0, note=80, velocity=92, time=0),
    Message('note_off', channel=0, note=80, velocity=0, time=71),
    Message('note_off', channel=0, note=92, velocity=0, time=0),
    Message('note_on', channel=0, note=85, velocity=92, time=1),
    Message('note_on', channel=0, note=73, velocity=92, time=0),
    Message('note_off', channel=0, note=73, velocity=0, time=12),
    Message('note_off', channel=0, note=85, velocity=0, time=0),
    Message('note_on', channel=0, note=86, velocity=92, time=0),
    Message('note_on', channel=0, note=74, velocity=92, time=0),
    Message('note_off', channel=0, note=74, velocity=0, time=12),
    Message('note_off', channel=0, note=86, velocity=0, time=0),
    Message('note_on', channel=0, note=85, velocity=92, time=0),
    Message('note_on', channel=0, note=73, velocity=92, time=0),
    Message('note_off', channel=0, note=73, velocity=0, time=23),
    Message('note_off', channel=0, note=85, velocity=0, time=0),
    Message('note_on', channel=0, note=85, velocity=92, time=1),
    Message('note_off', channel=0, note=85, velocity=0, time=16),
    Message('note_on', channel=0, note=82, velocity=92, time=0),
    Message('note_off', channel=0, note=82, velocity=0, time=16),
    Message('note_on', channel=0, note=77, velocity=92, time=0),
    Message('note_off', channel=0, note=77, velocity=0, time=16),
    Message('note_on', channel=0, note=73, velocity=92, time=0),
    Message('note_off', channel=0, note=73, velocity=0, time=16),
    Message('note_on', channel=0, note=77, velocity=92, time=0),
    Message('note_off', channel=0, note=77, velocity=0, time=16),
    Message('note_on', channel=0, note=82, velocity=92, time=0),
    Message('note_off', channel=0, note=82, velocity=0, time=16),
    Message('note_on', channel=0, note=84, velocity=92, time=0),
    Message('note_off', channel=0, note=84, velocity=0, time=16),
    Message('note_on', channel=0, note=83, velocity=92, time=32),
    Message('note_off', channel=0, note=83, velocity=0, time=12),
    Message('note_on', channel=0, note=84, velocity=92, time=0),
    Message('note_off', channel=0, note=84, velocity=0, time=12),
    Message('note_on', channel=0, note=83, velocity=92, time=0),
    Message('note_off', channel=0, note=83, velocity=0, time=71),
    Message('note_on', channel=0, note=79, velocity=92, time=1),
    Message('note_off', channel=0, note=79, velocity=0, time=16),
    Message('note_on', channel=0, note=92, velocity=92, time=32),
    Message('note_on', channel=0, note=88, velocity=92, time=0),
    Message('note_off', channel=0, note=88, velocity=0, time=47),
    Message('note_off', channel=0, note=92, velocity=0, time=0),
    Message('note_on', channel=0, note=79, velocity=92, time=49),
    Message('note_on', channel=0, note=76, velocity=92, time=0),
    Message('note_off', channel=0, note=76, velocity=0, time=47),
    Message('note_off', channel=0, note=79, velocity=0, time=0),
    Message('note_on', channel=0, note=92, velocity=92, time=1),
    Message('note_on', channel=0, note=88, velocity=92, time=0),
    Message('note_off', channel=0, note=88, velocity=0, time=47),
    Message('note_off', channel=0, note=92, velocity=0, time=0),
    Message('note_on', channel=0, note=79, velocity=92, time=49),
    Message('note_on', channel=0, note=76, velocity=92, time=0),
    Message('note_off', channel=0, note=76, velocity=0, time=47),
    Message('note_off', channel=0, note=79, velocity=0, time=0),
    Message('note_on', channel=0, note=92, velocity=92, time=1),
    Message('note_on', channel=0, note=88, velocity=92, time=0),
    Message('note_off', channel=0, note=88, velocity=0, time=47),
    Message('note_off', channel=0, note=92, velocity=0, time=0),
    Message('note_on', channel=0, note=79, velocity=92, time=49),
    Message('note_on', channel=0, note=76, velocity=92, time=0),
    Message('note_off', channel=0, note=76, velocity=0, time=47),
    Message('note_off', channel=0, note=79, velocity=0, time=0),
    Message('note_on', channel=0, note=92, velocity=92, time=1),
    Message('note_on', channel=0, note=88, velocity=92, time=0),
    Message('note_off', channel=0, note=88, velocity=0, time=47),
    Message('note_off', channel=0, note=92, velocity=0, time=0),
    Message('note_on', channel=0, note=79, velocity=92, time=49),
    Message('note_on', channel=0, note=76, velocity=92, time=0),
    Message('note_off', channel=0, note=76, velocity=0, time=47),
    Message('note_off', channel=0, note=79, velocity=0, time=0),
    Message('note_on', channel=0, note=84, velocity=127, time=1),
    Message('note_off', channel=0, note=84, velocity=0, time=11),
    Message('note_on', channel=0, note=92, velocity=92, time=5),
    Message('note_off', channel=0, note=92, velocity=0, time=16),
    Message('note_on', channel=0, note=91, velocity=92, time=0),
    Message('note_off', channel=0, note=91, velocity=0, time=16),
    Message('note_on', channel=0, note=90, velocity=92, time=0),
    Message('note_off', channel=0, note=90, velocity=0, time=16),
    Message('note_on', channel=0, note=87, velocity=92, time=0),
    Message('note_off', channel=0, note=87, velocity=0, time=16),
    Message('note_on', channel=0, note=79, velocity=92, time=0),
    Message('note_off', channel=0, note=79, velocity=0, time=16),
    Message('note_on', channel=0, note=84, velocity=92, time=0),
    Message('note_off', channel=0, note=84, velocity=0, time=16),
    Message('note_on', channel=0, note=92, velocity=92, time=0),
    Message('note_off', channel=0, note=92, velocity=0, time=16),
    Message('note_on', channel=0, note=91, velocity=92, time=0),
    Message('note_off', channel=0, note=91, velocity=0, time=15),
    Message('note_on', channel=0, note=90, velocity=127, time=1),
    Message('note_off', channel=0, note=90, velocity=0, time=11),
    Message('note_on', channel=0, note=87, velocity=92, time=5),
    Message('note_off', channel=0, note=87, velocity=0, time=16),
    Message('note_on', channel=0, note=79, velocity=92, time=0),
    Message('note_off', channel=0, note=79, velocity=0, time=16),
    Message('note_on', channel=0, note=84, velocity=92, time=0),
    Message('note_off', channel=0, note=84, velocity=0, time=16),
    Message('note_on', channel=0, note=92, velocity=92, time=0),
    Message('note_off', channel=0, note=92, velocity=0, time=16),
    Message('note_on', channel=0, note=91, velocity=92, time=0),
    Message('note_off', channel=0, note=91, velocity=0, time=16),
    Message('note_on', channel=0, note=90, velocity=92, time=0),
    Message('note_off', channel=0, note=90, velocity=0, time=16),
    Message('note_on', channel=0, note=87, velocity=92, time=0),
    Message('note_off', channel=0, note=87, velocity=0, time=16),
    Message('note_on', channel=0, note=79, velocity=92, time=0),
    Message('note_off', channel=0, note=79, velocity=0, time=15),
    Message('control_change', channel=0, control=7, value=100, time=1),
    Message('note_on', channel=0, note=78, velocity=105, time=0),
    Message('note_off', channel=0, note=78, velocity=0, time=10),
    Message('note_on', channel=0, note=82, velocity=75, time=6),
    Message('note_off', channel=0, note=82, velocity=0, time=15),
    Message('note_on', channel=0, note=87, velocity=75, time=1),
    Message('note_off', channel=0, note=87, velocity=0, time=15),
    Message('note_on', channel=0, note=91, velocity=75, time=1),
    Message('control_change', channel=0, control=7, value=101, time=19),
    Message('control_change', channel=0, control=7, value=102, time=19),
    Message('control_change', channel=0, control=7, value=103, time=19),
    Message('control_change', channel=0, control=7, value=104, time=19),
    Message('control_change', channel=0, control=7, value=105, time=20),
    Message('control_change', channel=0, control=7, value=106, time=19),
    Message('control_change', channel=0, control=7, value=107, time=19),
    Message('control_change', channel=0, control=7, value=108, time=19),
    Message('control_change', channel=0, control=7, value=109, time=19),
    Message('control_change', channel=0, control=7, value=110, time=20),
    Message('control_change', channel=0, control=7, value=111, time=19),
    Message('control_change', channel=0, control=7, value=112, time=19),
    Message('control_change', channel=0, control=7, value=113, time=19),
    Message('control_change', channel=0, control=7, value=114, time=19),
    Message('control_change', channel=0, control=7, value=115, time=20),
    Message('control_change', channel=0, control=7, value=116, time=19),
    Message('control_change', channel=0, control=7, value=117, time=19),
    Message('control_change', channel=0, control=7, value=118, time=19),
    Message('control_change', channel=0, control=7, value=119, time=19),
    Message('note_off', channel=0, note=91, velocity=0, time=4),
    Message('control_change', channel=0, control=7, value=120, time=16),
    Message('note_on', channel=0, note=84, velocity=127, time=0),
    Message('note_off', channel=0, note=84, velocity=0, time=24),
    Message('control_change', channel=0, control=7, value=90, time=264),
    Message('note_on', channel=0, note=75, velocity=60, time=0),
    Message('note_off', channel=0, note=75, velocity=0, time=16),
    Message('note_on', channel=0, note=74, velocity=60, time=0),
    Message('note_off', channel=0, note=74, velocity=0, time=16),
    Message('note_on', channel=0, note=75, velocity=60, time=0),
    Message('note_off', channel=0, note=75, velocity=0, time=16),
    Message('note_on', channel=0, note=77, velocity=60, time=0),
    Message('note_off', channel=0, note=77, velocity=0, time=16),
    Message('note_on', channel=0, note=75, velocity=60, time=0),
    Message('note_off', channel=0, note=75, velocity=0, time=16),
    Message('note_on', channel=0, note=74, velocity=60, time=0),
    Message('note_off', channel=0, note=74, velocity=0, time=16),
    Message('note_on', channel=0, note=68, velocity=60, time=0),
    Message('note_off', channel=0, note=68, velocity=0, time=16),
    Message('note_on', channel=0, note=73, velocity=60, time=0),
    Message('note_off', channel=0, note=73, velocity=0, time=16),
    Message('note_on', channel=0, note=74, velocity=60, time=0),
    Message('note_off', channel=0, note=74, velocity=0, time=15),
    Message('note_on', channel=0, note=75, velocity=60, time=1),
    Message('note_off', channel=0, note=75, velocity=0, time=16),
    Message('note_on', channel=0, note=74, velocity=60, time=0),
    Message('note_off', channel=0, note=74, velocity=0, time=16),
    Message('note_on', channel=0, note=75, velocity=60, time=0),
    Message('note_off', channel=0, note=75, velocity=0, time=16),
    Message('note_on', channel=0, note=77, velocity=60, time=0),
    Message('note_off', channel=0, note=77, velocity=0, time=16),
    Message('note_on', channel=0, note=75, velocity=60, time=0),
    Message('note_off', channel=0, note=75, velocity=0, time=16),
    Message('note_on', channel=0, note=74, velocity=60, time=0),
    Message('note_off', channel=0, note=74, velocity=0, time=16),
    Message('note_on', channel=0, note=68, velocity=60, time=0),
    Message('note_off', channel=0, note=68, velocity=0, time=16),
    Message('note_on', channel=0, note=73, velocity=60, time=0),
    Message('note_off', channel=0, note=73, velocity=0, time=16),
    Message('note_on', channel=0, note=74, velocity=60, time=0),
    Message('note_off', channel=0, note=74, velocity=0, time=15),
    Message('note_on', channel=0, note=75, velocity=60, time=1),
    Message('control_change', channel=0, control=7, value=91, time=7),
    Message('control_change', channel=0, control=7, value=92, time=7),
    Message('note_off', channel=0, note=75, velocity=0, time=2),
    Message('note_on', channel=0, note=74, velocity=63, time=0),
    Message('control_change', channel=0, control=7, value=93, time=5),
    Message('control_change', channel=0, control=7, value=94, time=7),
    Message('note_off', channel=0, note=74, velocity=0, time=4),
    Message('note_on', channel=0, note=75, velocity=66, time=0),
    Message('control_change', channel=0, control=7, value=95, time=3),
    Message('control_change', channel=0, control=7, value=96, time=8),
    Message('note_off', channel=0, note=75, velocity=0, time=5),
    Message('note_on', channel=0, note=78, velocity=69, time=0),
    Message('control_change', channel=0, control=7, value=97, time=2),
    Message('control_change', channel=0, control=7, value=98, time=7),
    Message('note_off', channel=0, note=78, velocity=0, time=7),
    Message('control_change', channel=0, control=7, value=99, time=0),
    Message('note_on', channel=0, note=79, velocity=72, time=0),
    Message('control_change', channel=0, control=7, value=100, time=7),
    Message('control_change', channel=0, control=7, value=101, time=8),
    Message('note_off', channel=0, note=79, velocity=0, time=1),
    Message('note_on', channel=0, note=83, velocity=76, time=0),
    Message('control_change', channel=0, control=7, value=102, time=6),
    Message('control_change', channel=0, control=7, value=103, time=7),
    Message('note_off', channel=0, note=83, velocity=0, time=3),
    Message('note_on', channel=0, note=84, velocity=80, time=0),
    Message('control_change', channel=0, control=7, value=104, time=4),
    Message('control_change', channel=0, control=7, value=105, time=7),
    Message('note_off', channel=0, note=84, velocity=0, time=5),
    Message('note_on', channel=0, note=87, velocity=84, time=0),
    Message('control_change', channel=0, control=7, value=106, time=3),
    Message('control_change', channel=0, control=7, value=107, time=7),
    Message('note_off', channel=0, note=87, velocity=0, time=6),
    Message('note_on', channel=0, note=90, velocity=88, time=0),
    Message('control_change', channel=0, control=7, value=108, time=1),
    Message('control_change', channel=0, control=7, value=109, time=7),
    Message('note_off', channel=0, note=90, velocity=0, time=7),
    Message('control_change', channel=0, control=7, value=110, time=0),
    Message('control_change', channel=0, control=7, value=100, time=433),
    Message('note_on', channel=0, note=78, velocity=75, time=0),
    Message('note_off', channel=0, note=78, velocity=0, time=15),
    Message('note_on', channel=0, note=82, velocity=76, time=1),
    Message('control_change', channel=0, control=7, value=101, time=5),
    Message('note_off', channel=0, note=82, velocity=0, time=10),
    Message('note_on', channel=0, note=87, velocity=77, time=1),
    Message('control_change', channel=0, control=7, value=102, time=11),
    Message('note_off', channel=0, note=87, velocity=0, time=4),
    Message('note_on', channel=0, note=90, velocity=78, time=1),
    Message('control_change', channel=0, control=7, value=103, time=16),
    Message('control_change', channel=0, control=7, value=104, time=22),
    Message('control_change', channel=0, control=7, value=105, time=22),
    Message('control_change', channel=0, control=7, value=106, time=21),
    Message('control_change', channel=0, control=7, value=107, time=22),
    Message('control_change', channel=0, control=7, value=108, time=21),
    Message('control_change', channel=0, control=7, value=109, time=22),
    Message('control_change', channel=0, control=7, value=110, time=22),
    Message('control_change', channel=0, control=7, value=111, time=21),
    Message('control_change', channel=0, control=7, value=112, time=22),
    Message('control_change', channel=0, control=7, value=113, time=21),
    Message('control_change', channel=0, control=7, value=114, time=22),
    Message('control_change', channel=0, control=7, value=115, time=22),
    Message('control_change', channel=0, control=7, value=116, time=21),
    Message('control_change', channel=0, control=7, value=117, time=22),
    Message('control_change', channel=0, control=7, value=118, time=21),
    Message('note_off', channel=0, note=90, velocity=0, time=20),
    Message('control_change', channel=0, control=7, value=119, time=2),
    Message('control_change', channel=0, control=7, value=120, time=22),
    Message('note_on', channel=0, note=84, velocity=127, time=0),
    Message('note_off', channel=0, note=84, velocity=0, time=47),
    Message('control_change', channel=0, control=101, value=0, time=1249),
    Message('control_change', channel=0, control=100, value=0, time=0),
    Message('control_change', channel=0, control=6, value=12, time=0),
    Message('control_change', channel=0, control=10, value=64, time=0),
    Message('control_change', channel=0, control=7, value=120, time=0),
    Message('pitchwheel', channel=0, pitch=0, time=0),
    Message('program_change', channel=0, program=0, time=0),
    Message('control_change', channel=0, control=7, value=127, time=0),
    Message('control_change', channel=0, control=10, value=64, time=0),
    Message('control_change', channel=0, control=101, value=0, time=1),
    Message('control_change', channel=0, control=100, value=0, time=0),
    Message('control_change', channel=0, control=6, value=12, time=0),
    Message('control_change', channel=0, control=10, value=64, time=0),
    Message('control_change', channel=0, control=7, value=120, time=0),
    Message('pitchwheel', channel=0, pitch=0, time=0),
    Message('program_change', channel=0, program=0, time=0),
    MetaMessage('end_of_track', time=0)]),
  MidiTrack([
    MetaMessage('track_name', name='Oboe', time=0),
    Message('control_change', channel=1, control=10, value=64, time=0),
    Message('control_change', channel=1, control=7, value=127, time=0),
    Message('pitchwheel', channel=1, pitch=0, time=0),
    Message('control_change', channel=1, control=101, value=0, time=0),
    Message('control_change', channel=1, control=100, value=0, time=0),
    Message('control_change', channel=1, control=6, value=12, time=0),
    Message('control_change', channel=1, control=10, value=64, time=0),
    Message('control_change', channel=1, control=7, value=127, time=0),
    Message('pitchwheel', channel=1, pitch=0, time=0),
    Message('program_change', channel=1, program=68, time=0),
    Message('program_change', channel=1, program=68, time=0),
    Message('control_change', channel=1, control=7, value=127, time=0),
    Message('control_change', channel=1, control=10, value=64, time=0),
    Message('control_change', channel=1, control=101, value=0, time=0),
    Message('control_change', channel=1, control=100, value=0, time=0),
    Message('control_change', channel=1, control=6, value=12, time=0),
    Message('control_change', channel=1, control=10, value=64, time=0),
    Message('control_change', channel=1, control=7, value=127, time=0),
    Message('pitchwheel', channel=1, pitch=0, time=0),
    Message('program_change', channel=1, program=68, time=0),
    Message('program_change', channel=1, program=68, time=0),
    Message('control_change', channel=1, control=7, value=127, time=0),
    Message('control_change', channel=1, control=10, value=64, time=0),
    Message('control_change', channel=1, control=101, value=0, time=0),
    Message('control_change', channel=1, control=100, value=0, time=0),
    Message('control_change', channel=1, control=6, value=12, time=0),
    Message('control_change', channel=1, control=10, value=64, time=0),
    Message('control_change', channel=1, control=7, value=127, time=0),
    Message('pitchwheel', channel=1, pitch=0, time=0),
    Message('program_change', channel=1, program=68, time=0),
    Message('note_on', channel=1, note=66, velocity=30, time=5568),
    Message('note_off', channel=1, note=66, velocity=0, time=12),
    Message('note_on', channel=1, note=64, velocity=30, time=0),
    Message('note_off', channel=1, note=64, velocity=0, time=24),
    Message('note_on', channel=1, note=66, velocity=30, time=60),
    Message('note_off', channel=1, note=66, velocity=0, time=12),
    Message('note_on', channel=1, note=64, velocity=30, time=0),
    Message('note_off', channel=1, note=64, velocity=0, time=24),
    Message('note_on', channel=1, note=66, velocity=30, time=60),
    Message('note_off', channel=1, note=66, velocity=0, time=12),
    Message('note_on', channel=1, note=64, velocity=30, time=0),
    Message('note_off', channel=1, note=64, velocity=0, time=24),
    Message('note_on', channel=1, note=72, velocity=60, time=2892),
    Message('note_off', channel=1, note=72, velocity=0, time=80),
    Message('note_on', channel=1, note=71, velocity=60, time=16),
    Message('note_off', channel=1, note=71, velocity=0, time=47),
    Message('note_on', channel=1, note=70, velocity=60, time=1),
    Message('note_off', channel=1, note=70, velocity=0, time=80),
    Message('note_on', channel=1, note=66, velocity=60, time=16),
    Message('note_off', channel=1, note=66, velocity=0, time=47),
    Message('note_on', channel=1, note=67, velocity=60, time=1),
    Message('note_off', channel=1, note=67, velocity=0, time=71),
    Message('note_on', channel=1, note=71, velocity=60, time=1),
    Message('note_off', channel=1, note=71, velocity=0, time=23),
    Message('note_on', channel=1, note=70, velocity=60, time=1),
    Message('note_off', channel=1, note=70, velocity=0, time=47),
    Message('note_on', channel=1, note=58, velocity=60, time=1),
    Message('note_off', channel=1, note=58, velocity=0, time=80),
    Message('note_on', channel=1, note=60, velocity=60, time=16),
    Message('note_off', channel=1, note=60, velocity=0, time=47),
    Message('note_on', channel=1, note=71, velocity=60, time=1),
    Message('note_off', channel=1, note=71, velocity=0, time=224),
    Message('note_on', channel=1, note=67, velocity=60, time=16),
    Message('note_off', channel=1, note=67, velocity=0, time=47),
    Message('note_on', channel=1, note=71, velocity=60, time=1),
    Message('note_off', channel=1, note=71, velocity=0, time=80),
    Message('note_on', channel=1, note=67, velocity=60, time=16),
    Message('note_off', channel=1, note=67, velocity=0, time=47),
    Message('note_on', channel=1, note=71, velocity=60, time=1),
    Message('note_off', channel=1, note=71, velocity=0, time=80),
    Message('note_on', channel=1, note=67, velocity=60, time=16),
    Message('note_off', channel=1, note=67, velocity=0, time=47),
    Message('note_on', channel=1, note=74, velocity=60, time=1),
    Message('note_off', channel=1, note=74, velocity=0, time=80),
    Message('note_on', channel=1, note=73, velocity=60, time=16),
    Message('note_off', channel=1, note=73, velocity=0, time=47),
    Message('note_on', channel=1, note=72, velocity=60, time=1),
    Message('note_off', channel=1, note=72, velocity=0, time=80),
    Message('note_on', channel=1, note=68, velocity=60, time=16),
    Message('note_off', channel=1, note=68, velocity=0, time=47),
    Message('note_on', channel=1, note=72, velocity=60, time=1),
    Message('note_off', channel=1, note=72, velocity=0, time=71),
    Message('note_on', channel=1, note=71, velocity=60, time=1),
    Message('note_off', channel=1, note=71, velocity=0, time=23),
    Message('note_on', channel=1, note=70, velocity=60, time=1),
    Message('note_off', channel=1, note=70, velocity=0, time=47),
    Message('note_on', channel=1, note=58, velocity=60, time=1),
    Message('note_off', channel=1, note=58, velocity=0, time=80),
    Message('note_on', channel=1, note=67, velocity=60, time=16),
    Message('note_off', channel=1, note=67, velocity=0, time=47),
    Message('note_on', channel=1, note=64, velocity=60, time=1),
    Message('control_change', channel=1, control=7, value=70, time=144),
    Message('note_off', channel=1, note=64, velocity=0, time=47),
    Message('control_change', channel=1, control=7, value=100, time=5521),
    Message('note_on', channel=1, note=76, velocity=75, time=0),
    Message('note_on', channel=1, note=72, velocity=75, time=0),
    Message('note_off', channel=1, note=76, velocity=0, time=16),
    Message('note_off', channel=1, note=72, velocity=0, time=0),
    Message('note_on', channel=1, note=76, velocity=75, time=32),
    Message('note_on', channel=1, note=72, velocity=75, time=0),
    Message('note_off', channel=1, note=76, velocity=0, time=16),
    Message('note_off', channel=1, note=72, velocity=0, time=0),
    Message('note_on', channel=1, note=76, velocity=75, time=32),
    Message('note_on', channel=1, note=72, velocity=75, time=0),
    Message('note_off', channel=1, note=76, velocity=0, time=16),
    Message('note_off', channel=1, note=72, velocity=0, time=0),
    Message('note_on', channel=1, note=76, velocity=75, time=32),
    Message('note_on', channel=1, note=72, velocity=75, time=0),
    Message('note_off', channel=1, note=72, velocity=0, time=16),
    Message('note_off', channel=1, note=76, velocity=0, time=0),
    Message('note_on', channel=1, note=76, velocity=75, time=32),
    Message('note_on', channel=1, note=72, velocity=75, time=0),
    Message('note_off', channel=1, note=72, velocity=0, time=16),
    Message('note_off', channel=1, note=76, velocity=0, time=0),
    Message('note_on', channel=1, note=76, velocity=75, time=32),
    Message('note_on', channel=1, note=72, velocity=75, time=0),
    Message('note_off', channel=1, note=76, velocity=0, time=16),
    Message('note_off', channel=1, note=72, velocity=0, time=0),
    Message('note_on', channel=1, note=75, velocity=75, time=32),
    Message('note_on', channel=1, note=71, velocity=75, time=0),
    Message('note_off', channel=1, note=75, velocity=0, time=16),
    Message('note_off', channel=1, note=71, velocity=0, time=0),
    Message('note_on', channel=1, note=76, velocity=75, time=32),
    Message('note_on', channel=1, note=72, velocity=75, time=0),
    Message('note_off', channel=1, note=76, velocity=0, time=16),
    Message('note_off', channel=1, note=72, velocity=0, time=0),
    Message('note_on', channel=1, note=77, velocity=75, time=32),
    Message('note_on', channel=1, note=73, velocity=75, time=0),
    Message('note_off', channel=1, note=77, velocity=0, time=96),
    Message('note_off', channel=1, note=73, velocity=0, time=0),
    Message('note_on', channel=1, note=76, velocity=75, time=0),
    Message('note_on', channel=1, note=72, velocity=75, time=0),
    Message('note_off', channel=1, note=72, velocity=0, time=16),
    Message('note_off', channel=1, note=76, velocity=0, time=0),
    Message('note_on', channel=1, note=75, velocity=75, time=32),
    Message('note_on', channel=1, note=71, velocity=75, time=0),
    Message('note_off', channel=1, note=75, velocity=0, time=16),
    Message('note_off', channel=1, note=71, velocity=0, time=0),
    Message('note_on', channel=1, note=76, velocity=75, time=32),
    Message('note_on', channel=1, note=72, velocity=75, time=0),
    Message('note_off', channel=1, note=76, velocity=0, time=24),
    Message('note_off', channel=1, note=72, velocity=0, time=0),
    Message('note_on', channel=1, note=72, velocity=75, time=72),
    Message('note_on', channel=1, note=69, velocity=75, time=0),
    Message('note_off', channel=1, note=72, velocity=0, time=24),
    Message('note_off', channel=1, note=69, velocity=0, time=0),
    Message('note_on', channel=1, note=74, velocity=75, time=72),
    Message('note_on', channel=1, note=69, velocity=75, time=0),
    Message('note_off', channel=1, note=74, velocity=0, time=96),
    Message('note_off', channel=1, note=69, velocity=0, time=0),
    Message('note_on', channel=1, note=74, velocity=75, time=0),
    Message('note_on', channel=1, note=69, velocity=75, time=0),
    Message('note_off', channel=1, note=69, velocity=0, time=16),
    Message('note_off', channel=1, note=74, velocity=0, time=0),
    Message('note_on', channel=1, note=73, velocity=75, time=32),
    Message('note_on', channel=1, note=68, velocity=75, time=0),
    Message('note_off', channel=1, note=73, velocity=0, time=16),
    Message('note_off', channel=1, note=68, velocity=0, time=0),
    Message('note_on', channel=1, note=74, velocity=75, time=32),
    Message('note_on', channel=1, note=69, velocity=75, time=0),
    Message('note_off', channel=1, note=74, velocity=0, time=24),
    Message('note_off', channel=1, note=69, velocity=0, time=0),
    Message('note_on', channel=1, note=65, velocity=75, time=72),
    Message('note_on', channel=1, note=62, velocity=75, time=0),
    Message('note_off', channel=1, note=65, velocity=0, time=96),
    Message('note_off', channel=1, note=62, velocity=0, time=0),
    Message('note_on', channel=1, note=64, velocity=75, time=0),
    Message('note_on', channel=1, note=60, velocity=75, time=0),
    Message('note_off', channel=1, note=60, velocity=0, time=16),
    Message('note_off', channel=1, note=64, velocity=0, time=0),
    Message('note_on', channel=1, note=69, velocity=75, time=80),
    Message('note_on', channel=1, note=64, velocity=75, time=0),
    Message('note_off', channel=1, note=69, velocity=0, time=16),
    Message('note_off', channel=1, note=64, velocity=0, time=0),
    Message('note_on', channel=1, note=72, velocity=75, time=32),
    Message('note_on', channel=1, note=69, velocity=75, time=0),
    Message('note_off', channel=1, note=72, velocity=0, time=16),
    Message('note_off', channel=1, note=69, velocity=0, time=0),
    Message('note_on', channel=1, note=75, velocity=105, time=32),
    Message('note_on', channel=1, note=71, velocity=105, time=0),
    Message('note_off', channel=1, note=75, velocity=0, time=168),
    Message('note_off', channel=1, note=71, velocity=0, time=0),
    Message('note_on', channel=1, note=76, velocity=75, time=24),
    Message('note_on', channel=1, note=72, velocity=75, time=0),
    Message('note_off', channel=1, note=76, velocity=0, time=16),
    Message('note_off', channel=1, note=72, velocity=0, time=0),
    Message('note_on', channel=1, note=76, velocity=75, time=32),
    Message('note_on', channel=1, note=72, velocity=75, time=0),
    Message('note_off', channel=1, note=76, velocity=0, time=16),
    Message('note_off', channel=1, note=72, velocity=0, time=0),
    Message('note_on', channel=1, note=76, velocity=75, time=32),
    Message('note_on', channel=1, note=72, velocity=75, time=0),
    Message('note_off', channel=1, note=76, velocity=0, time=16),
    Message('note_off', channel=1, note=72, velocity=0, time=0),
    Message('note_on', channel=1, note=76, velocity=75, time=32),
    Message('note_on', channel=1, note=72, velocity=75, time=0),
    Message('note_off', channel=1, note=72, velocity=0, time=16),
    Message('note_off', channel=1, note=76, velocity=0, time=0),
    Message('note_on', channel=1, note=76, velocity=75, time=32),
    Message('note_on', channel=1, note=72, velocity=75, time=0),
    Message('note_off', channel=1, note=72, velocity=0, time=16),
    Message('note_off', channel=1, note=76, velocity=0, time=0),
    Message('note_on', channel=1, note=76, velocity=75, time=32),
    Message('note_on', channel=1, note=72, velocity=75, time=0),
    Message('note_off', channel=1, note=76, velocity=0, time=16),
    Message('note_off', channel=1, note=72, velocity=0, time=0),
    Message('note_on', channel=1, note=75, velocity=75, time=32),
    Message('note_on', channel=1, note=71, velocity=75, time=0),
    Message('note_off', channel=1, note=75, velocity=0, time=16),
    Message('note_off', channel=1, note=71, velocity=0, time=0),
    Message('note_on', channel=1, note=76, velocity=75, time=32),
    Message('note_on', channel=1, note=72, velocity=75, time=0),
    Message('note_off', channel=1, note=76, velocity=0, time=48),
    Message('note_off', channel=1, note=72, velocity=0, time=0),
    Message('note_on', channel=1, note=79, velocity=75, time=0),
    Message('note_on', channel=1, note=75, velocity=75, time=0),
    Message('note_off', channel=1, note=75, velocity=0, time=96),
    Message('note_off', channel=1, note=79, velocity=0, time=0),
    Message('note_on', channel=1, note=77, velocity=75, time=0),
    Message('note_on', channel=1, note=73, velocity=75, time=0),
    Message('note_off', channel=1, note=73, velocity=0, time=16),
    Message('note_off', channel=1, note=77, velocity=0, time=0),
    Message('note_on', channel=1, note=76, velocity=75, time=32),
    Message('note_on', channel=1, note=72, velocity=75, time=0),
    Message('note_off', channel=1, note=72, velocity=0, time=16),
    Message('note_off', channel=1, note=76, velocity=0, time=0),
    Message('note_on', channel=1, note=77, velocity=75, time=32),
    Message('note_on', channel=1, note=73, velocity=75, time=0),
    Message('note_off', channel=1, note=73, velocity=0, time=24),
    Message('note_off', channel=1, note=77, velocity=0, time=0),
    Message('note_on', channel=1, note=70, velocity=75, time=72),
    Message('note_on', channel=1, note=65, velocity=75, time=0),
    Message('note_off', channel=1, note=70, velocity=0, time=96),
    Message('note_off', channel=1, note=65, velocity=0, time=0),
    Message('note_on', channel=1, note=77, velocity=75, time=0),
    Message('note_on', channel=1, note=73, velocity=75, time=0),
    Message('note_off', channel=1, note=73, velocity=0, time=96),
    Message('note_off', channel=1, note=77, velocity=0, time=0),
    Message('note_on', channel=1, note=76, velocity=75, time=0),
    Message('note_on', channel=1, note=72, velocity=75, time=0),
    Message('note_off', channel=1, note=72, velocity=0, time=16),
    Message('note_off', channel=1, note=76, velocity=0, time=0),
    Message('note_on', channel=1, note=75, velocity=75, time=32),
    Message('note_on', channel=1, note=71, velocity=75, time=0),
    Message('note_off', channel=1, note=71, velocity=0, time=16),
    Message('note_off', channel=1, note=75, velocity=0, time=0),
    Message('note_on', channel=1, note=76, velocity=75, time=32),
    Message('note_on', channel=1, note=72, velocity=75, time=0),
    Message('note_off', channel=1, note=72, velocity=0, time=24),
    Message('note_off', channel=1, note=76, velocity=0, time=0),
    Message('note_on', channel=1, note=69, velocity=75, time=72),
    Message('note_on', channel=1, note=64, velocity=75, time=0),
    Message('note_off', channel=1, note=69, velocity=0, time=96),
    Message('note_off', channel=1, note=64, velocity=0, time=0),
    Message('note_on', channel=1, note=72, velocity=75, time=0),
    Message('note_on', channel=1, note=68, velocity=75, time=0),
    Message('control_change', channel=1, control=7, value=99, time=6),
    Message('control_change', channel=1, control=7, value=98, time=6),
    Message('control_change', channel=1, control=7, value=97, time=7),
    Message('control_change', channel=1, control=7, value=96, time=6),
    Message('control_change', channel=1, control=7, value=95, time=7),
    Message('control_change', channel=1, control=7, value=94, time=6),
    Message('control_change', channel=1, control=7, value=93, time=6),
    Message('control_change', channel=1, control=7, value=92, time=7),
    Message('control_change', channel=1, control=7, value=91, time=6),
    Message('control_change', channel=1, control=7, value=90, time=7),
    Message('control_change', channel=1, control=7, value=89, time=6),
    Message('control_change', channel=1, control=7, value=88, time=6),
    Message('control_change', channel=1, control=7, value=87, time=7),
    Message('control_change', channel=1, control=7, value=86, time=6),
    Message('control_change', channel=1, control=7, value=85, time=7),
    Message('control_change', channel=1, control=7, value=84, time=6),
    Message('control_change', channel=1, control=7, value=83, time=6),
    Message('control_change', channel=1, control=7, value=82, time=7),
    Message('control_change', channel=1, control=7, value=81, time=6),
    Message('control_change', channel=1, control=7, value=80, time=7),
    Message('control_change', channel=1, control=7, value=79, time=6),
    Message('control_change', channel=1, control=7, value=78, time=6),
    Message('control_change', channel=1, control=7, value=77, time=7),
    Message('control_change', channel=1, control=7, value=76, time=6),
    Message('control_change', channel=1, control=7, value=75, time=7),
    Message('control_change', channel=1, control=7, value=74, time=6),
    Message('note_off', channel=1, note=68, velocity=0, time=2),
    Message('note_off', channel=1, note=72, velocity=0, time=0),
    Message('control_change', channel=1, control=7, value=73, time=4),
    Message('control_change', channel=1, control=7, value=72, time=7),
    Message('control_change', channel=1, control=7, value=71, time=6),
    Message('control_change', channel=1, control=7, value=70, time=7),
    Message('note_on', channel=1, note=64, velocity=43, time=0),
    Message('note_on', channel=1, note=59, velocity=43, time=0),
    Message('control_change', channel=1, control=7, value=69, time=6),
    Message('control_change', channel=1, control=7, value=68, time=6),
    Message('control_change', channel=1, control=7, value=67, time=7),
    Message('control_change', channel=1, control=7, value=66, time=6),
    Message('control_change', channel=1, control=7, value=65, time=7),
    Message('control_change', channel=1, control=7, value=64, time=6),
    Message('control_change', channel=1, control=7, value=63, time=6),
    Message('control_change', channel=1, control=7, value=62, time=7),
    Message('control_change', channel=1, control=7, value=61, time=6),
    Message('control_change', channel=1, control=7, value=60, time=7),
    Message('control_change', channel=1, control=7, value=59, time=6),
    Message('control_change', channel=1, control=7, value=58, time=6),
    Message('control_change', channel=1, control=7, value=57, time=7),
    Message('control_change', channel=1, control=7, value=56, time=6),
    Message('control_change', channel=1, control=7, value=55, time=7),
    Message('control_change', channel=1, control=7, value=54, time=6),
    Message('control_change', channel=1, control=7, value=53, time=6),
    Message('control_change', channel=1, control=7, value=52, time=7),
    Message('control_change', channel=1, control=7, value=51, time=6),
    Message('control_change', channel=1, control=7, value=50, time=7),
    Message('control_change', channel=1, control=7, value=49, time=6),
    Message('control_change', channel=1, control=7, value=48, time=6),
    Message('control_change', channel=1, control=7, value=47, time=7),
    Message('control_change', channel=1, control=7, value=46, time=6),
    Message('control_change', channel=1, control=7, value=45, time=7),
    Message('control_change', channel=1, control=7, value=44, time=6),
    Message('note_off', channel=1, note=59, velocity=0, time=2),
    Message('note_off', channel=1, note=64, velocity=0, time=0),
    Message('control_change', channel=1, control=7, value=43, time=4),
    Message('control_change', channel=1, control=7, value=42, time=7),
    Message('control_change', channel=1, control=7, value=41, time=6),
    Message('control_change', channel=1, control=7, value=40, time=7),
    Message('control_change', channel=1, control=7, value=100, time=7392),
    Message('note_on', channel=1, note=69, velocity=75, time=0),
    Message('note_off', channel=1, note=69, velocity=0, time=24),
    Message('note_on', channel=1, note=67, velocity=75, time=0),
    Message('note_off', channel=1, note=67, velocity=0, time=24),
    Message('note_on', channel=1, note=66, velocity=75, time=0),
    Message('note_off', channel=1, note=66, velocity=0, time=24),
    Message('note_on', channel=1, note=65, velocity=75, time=0),
    Message('note_off', channel=1, note=65, velocity=0, time=24),
    Message('note_on', channel=1, note=64, velocity=75, time=0),
    Message('note_off', channel=1, note=64, velocity=0, time=47),
    Message('control_change', channel=1, control=7, value=110, time=49),
    Message('note_on', channel=1, note=76, velocity=92, time=0),
    Message('note_on', channel=1, note=69, velocity=92, time=0),
    Message('note_on', channel=1, note=64, velocity=92, time=0),
    Message('control_change', channel=1, control=7, value=111, time=9),
    Message('control_change', channel=1, control=7, value=112, time=10),
    Message('note_off', channel=1, note=76, velocity=0, time=5),
    Message('note_off', channel=1, note=69, velocity=0, time=0),
    Message('note_off', channel=1, note=64, velocity=0, time=0),
    Message('note_on', channel=1, note=77, velocity=96, time=0),
    Message('note_on', channel=1, note=67, velocity=96, time=0),
    Message('note_on', channel=1, note=65, velocity=96, time=0),
    Message('control_change', channel=1, control=7, value=113, time=4),
    Message('control_change', channel=1, control=7, value=114, time=10),
    Message('note_off', channel=1, note=65, velocity=0, time=10),
    Message('note_off', channel=1, note=67, velocity=0, time=0),
    Message('note_off', channel=1, note=77, velocity=0, time=0),
    Message('control_change', channel=1, control=7, value=115, time=0),
    Message('note_on', channel=1, note=79, velocity=100, time=0),
    Message('note_on', channel=1, note=67, velocity=100, time=0),
    Message('note_on', channel=1, note=66, velocity=100, time=0),
    Message('control_change', channel=1, control=7, value=116, time=9),
    Message('control_change', channel=1, control=7, value=117, time=10),
    Message('note_off', channel=1, note=66, velocity=0, time=5),
    Message('note_off', channel=1, note=67, velocity=0, time=0),
    Message('note_off', channel=1, note=79, velocity=0, time=0),
    Message('note_on', channel=1, note=80, velocity=104, time=0),
    Message('note_on', channel=1, note=68, velocity=104, time=0),
    Message('note_on', channel=1, note=65, velocity=104, time=0),
    Message('control_change', channel=1, control=7, value=118, time=4),
    Message('control_change', channel=1, control=7, value=119, time=10),
    Message('note_off', channel=1, note=65, velocity=0, time=10),
    Message('note_off', channel=1, note=68, velocity=0, time=0),
    Message('note_off', channel=1, note=80, velocity=0, time=0),
    Message('control_change', channel=1, control=7, value=120, time=0),
    Message('note_on', channel=1, note=81, velocity=127, time=0),
    Message('note_on', channel=1, note=69, velocity=127, time=0),
    Message('note_on', channel=1, note=64, velocity=127, time=0),
    Message('note_off', channel=1, note=64, velocity=0, time=47),
    Message('note_off', channel=1, note=69, velocity=0, time=0),
    Message('note_off', channel=1, note=81, velocity=0, time=0),
    Message('control_change', channel=1, control=7, value=100, time=145),
    Message('note_on', channel=1, note=76, velocity=75, time=0),
    Message('note_on', channel=1, note=64, velocity=75, time=0),
    Message('control_change', channel=1, control=7, value=101, time=19),
    Message('note_off', channel=1, note=76, velocity=0, time=5),
    Message('note_off', channel=1, note=64, velocity=0, time=0),
    Message('note_on', channel=1, note=77, velocity=77, time=0),
    Message('note_on', channel=1, note=65, velocity=77, time=0),
    Message('control_change', channel=1, control=7, value=102, time=14),
    Message('note_off', channel=1, note=65, velocity=0, time=10),
    Message('note_off', channel=1, note=77, velocity=0, time=0),
    Message('note_on', channel=1, note=80, velocity=79, time=0),
    Message('note_on', channel=1, note=68, velocity=79, time=0),
    Message('control_change', channel=1, control=7, value=103, time=9),
    Message('note_off', channel=1, note=68, velocity=0, time=15),
    Message('note_off', channel=1, note=80, velocity=0, time=0),
    Message('note_on', channel=1, note=81, velocity=81, time=0),
    Message('note_on', channel=1, note=69, velocity=81, time=0),
    Message('control_change', channel=1, control=7, value=104, time=4),
    Message('note_off', channel=1, note=69, velocity=0, time=20),
    Message('note_off', channel=1, note=81, velocity=0, time=0),
    Message('control_change', channel=1, control=7, value=105, time=0),
    Message('note_on', channel=1, note=83, velocity=83, time=0),
    Message('note_on', channel=1, note=71, velocity=83, time=0),
    Message('note_off', channel=1, note=71, velocity=0, time=16),
    Message('note_off', channel=1, note=83, velocity=0, time=0),
    Message('note_on', channel=1, note=84, velocity=84, time=0),
    Message('note_on', channel=1, note=72, velocity=84, time=0),
    Message('control_change', channel=1, control=7, value=106, time=3),
    Message('note_off', channel=1, note=72, velocity=0, time=13),
    Message('note_off', channel=1, note=84, velocity=0, time=0),
    Message('note_on', channel=1, note=74, velocity=85, time=0),
    Message('control_change', channel=1, control=7, value=107, time=6),
    Message('note_off', channel=1, note=74, velocity=0, time=10),
    Message('note_on', channel=1, note=76, velocity=86, time=0),
    Message('control_change', channel=1, control=7, value=108, time=9),
    Message('note_off', channel=1, note=76, velocity=0, time=7),
    Message('note_on', channel=1, note=77, velocity=88, time=0),
    Message('control_change', channel=1, control=7, value=109, time=12),
    Message('note_off', channel=1, note=77, velocity=0, time=4),
    Message('note_on', channel=1, note=80, velocity=90, time=0),
    Message('note_off', channel=1, note=80, velocity=0, time=16),
    Message('control_change', channel=1, control=7, value=110, time=0),
    Message('note_on', channel=1, note=81, velocity=92, time=0),
    Message('note_off', channel=1, note=81, velocity=0, time=47),
    Message('note_on', channel=1, note=76, velocity=92, time=49),
    Message('note_on', channel=1, note=69, velocity=92, time=0),
    Message('note_off', channel=1, note=69, velocity=0, time=24),
    Message('note_off', channel=1, note=76, velocity=0, time=0),
    Message('note_on', channel=1, note=77, velocity=92, time=0),
    Message('note_on', channel=1, note=70, velocity=92, time=0),
    Message('note_off', channel=1, note=70, velocity=0, time=24),
    Message('note_off', channel=1, note=77, velocity=0, time=0),
    Message('note_on', channel=1, note=76, velocity=92, time=0),
    Message('note_on', channel=1, note=69, velocity=92, time=0),
    Message('note_off', channel=1, note=69, velocity=0, time=16),
    Message('note_off', channel=1, note=76, velocity=0, time=0),
    Message('note_on', channel=1, note=76, velocity=92, time=32),
    Message('note_on', channel=1, note=69, velocity=92, time=0),
    Message('note_off', channel=1, note=69, velocity=0, time=47),
    Message('note_off', channel=1, note=76, velocity=0, time=0),
    Message('note_on', channel=1, note=75, velocity=92, time=49),
    Message('note_on', channel=1, note=68, velocity=92, time=0),
    Message('note_off', channel=1, note=75, velocity=0, time=16),
    Message('note_off', channel=1, note=68, velocity=0, time=0),
    Message('note_on', channel=1, note=76, velocity=92, time=32),
    Message('note_on', channel=1, note=69, velocity=92, time=0),
    Message('note_off', channel=1, note=76, velocity=0, time=16),
    Message('note_off', channel=1, note=69, velocity=0, time=0),
    Message('note_on', channel=1, note=77, velocity=92, time=32),
    Message('note_on', channel=1, note=70, velocity=92, time=0),
    Message('note_off', channel=1, note=77, velocity=0, time=24),
    Message('note_off', channel=1, note=70, velocity=0, time=0),
    Message('note_on', channel=1, note=78, velocity=92, time=0),
    Message('note_on', channel=1, note=71, velocity=92, time=0),
    Message('note_off', channel=1, note=71, velocity=0, time=24),
    Message('note_off', channel=1, note=78, velocity=0, time=0),
    Message('note_on', channel=1, note=77, velocity=92, time=0),
    Message('note_on', channel=1, note=70, velocity=92, time=0),
    Message('note_off', channel=1, note=70, velocity=0, time=16),
    Message('note_off', channel=1, note=77, velocity=0, time=0),
    Message('note_on', channel=1, note=76, velocity=92, time=32),
    Message('note_on', channel=1, note=69, velocity=92, time=0),
    Message('note_off', channel=1, note=69, velocity=0, time=16),
    Message('note_off', channel=1, note=76, velocity=0, time=0),
    Message('note_on', channel=1, note=75, velocity=92, time=32),
    Message('note_on', channel=1, note=68, velocity=92, time=0),
    Message('note_off', channel=1, note=75, velocity=0, time=16),
    Message('note_off', channel=1, note=68, velocity=0, time=0),
    Message('note_on', channel=1, note=76, velocity=92, time=32),
    Message('note_on', channel=1, note=69, velocity=92, time=0),
    Message('note_off', channel=1, note=76, velocity=0, time=24),
    Message('note_off', channel=1, note=69, velocity=0, time=0),
    Message('note_on', channel=1, note=72, velocity=92, time=72),
    Message('note_on', channel=1, note=69, velocity=92, time=0),
    Message('note_on', channel=1, note=64, velocity=92, time=0),
    Message('note_off', channel=1, note=64, velocity=0, time=24),
    Message('note_off', channel=1, note=72, velocity=0, time=0),
    Message('note_off', channel=1, note=69, velocity=0, time=0),
    Message('note_on', channel=1, note=74, velocity=92, time=72),
    Message('note_on', channel=1, note=69, velocity=92, time=0),
    Message('note_on', channel=1, note=65, velocity=92, time=0),
    Message('note_off', channel=1, note=65, velocity=0, time=47),
    Message('note_off', channel=1, note=69, velocity=0, time=0),
    Message('note_off', channel=1, note=74, velocity=0, time=0),
    Message('note_on', channel=1, note=74, velocity=92, time=49),
    Message('note_on', channel=1, note=69, velocity=92, time=0),
    Message('note_on', channel=1, note=65, velocity=92, time=0),
    Message('note_off', channel=1, note=65, velocity=0, time=24),
    Message('note_off', channel=1, note=69, velocity=0, time=0),
    Message('note_off', channel=1, note=74, velocity=0, time=0),
    Message('note_on', channel=1, note=77, velocity=92, time=0),
    Message('note_on', channel=1, note=74, velocity=92, time=0),
    Message('note_on', channel=1, note=69, velocity=92, time=0),
    Message('note_off', channel=1, note=69, velocity=0, time=24),
    Message('note_off', channel=1, note=74, velocity=0, time=0),
    Message('note_off', channel=1, note=77, velocity=0, time=0),
    Message('note_on', channel=1, note=81, velocity=92, time=0),
    Message('note_on', channel=1, note=77, velocity=92, time=0),
    Message('note_on', channel=1, note=74, velocity=92, time=0),
    Message('note_off', channel=1, note=74, velocity=0, time=24),
    Message('note_off', channel=1, note=77, velocity=0, time=0),
    Message('note_off', channel=1, note=81, velocity=0, time=0),
    Message('note_on', channel=1, note=85, velocity=92, time=0),
    Message('note_on', channel=1, note=80, velocity=92, time=0),
    Message('note_on', channel=1, note=76, velocity=92, time=0),
    Message('note_off', channel=1, note=76, velocity=0, time=24),
    Message('note_off', channel=1, note=80, velocity=0, time=0),
    Message('note_off', channel=1, note=85, velocity=0, time=0),
    Message('note_on', channel=1, note=86, velocity=92, time=0),
    Message('note_on', channel=1, note=81, velocity=92, time=0),
    Message('note_on', channel=1, note=77, velocity=92, time=0),
    Message('note_off', channel=1, note=77, velocity=0, time=16),
    Message('note_off', channel=1, note=81, velocity=0, time=0),
    Message('note_off', channel=1, note=86, velocity=0, time=0),
    Message('note_on', channel=1, note=86, velocity=92, time=80),
    Message('note_on', channel=1, note=77, velocity=92, time=0),
    Message('note_on', channel=1, note=69, velocity=92, time=0),
    Message('note_off', channel=1, note=86, velocity=0, time=24),
    Message('note_off', channel=1, note=77, velocity=0, time=0),
    Message('note_off', channel=1, note=69, velocity=0, time=0),
    Message('note_on', channel=1, note=87, velocity=92, time=0),
    Message('note_on', channel=1, note=78, velocity=92, time=0),
    Message('note_on', channel=1, note=70, velocity=92, time=0),
    Message('note_off', channel=1, note=70, velocity=0, time=24),
    Message('note_off', channel=1, note=78, velocity=0, time=0),
    Message('note_off', channel=1, note=87, velocity=0, time=0),
    Message('note_on', channel=1, note=86, velocity=92, time=0),
    Message('note_on', channel=1, note=77, velocity=92, time=0),
    Message('note_on', channel=1, note=69, velocity=92, time=0),
    Message('note_off', channel=1, note=69, velocity=0, time=16),
    Message('note_off', channel=1, note=77, velocity=0, time=0),
    Message('note_off', channel=1, note=86, velocity=0, time=0),
    Message('note_on', channel=1, note=72, velocity=92, time=32),
    Message('note_on', channel=1, note=64, velocity=92, time=0),
    Message('note_on', channel=1, note=60, velocity=92, time=0),
    Message('note_off', channel=1, note=60, velocity=0, time=47),
    Message('note_off', channel=1, note=64, velocity=0, time=0),
    Message('note_off', channel=1, note=72, velocity=0, time=0),
    Message('note_on', channel=1, note=81, velocity=92, time=49),
    Message('note_on', channel=1, note=72, velocity=92, time=0),
    Message('note_on', channel=1, note=64, velocity=92, time=0),
    Message('note_off', channel=1, note=81, velocity=0, time=16),
    Message('note_off', channel=1, note=72, velocity=0, time=0),
    Message('note_off', channel=1, note=64, velocity=0, time=0),
    Message('note_on', channel=1, note=84, velocity=92, time=32),
    Message('note_on', channel=1, note=76, velocity=92, time=0),
    Message('note_on', channel=1, note=69, velocity=92, time=0),
    Message('note_off', channel=1, note=84, velocity=0, time=16),
    Message('note_off', channel=1, note=76, velocity=0, time=0),
    Message('note_off', channel=1, note=69, velocity=0, time=0),
    Message('note_on', channel=1, note=83, velocity=92, time=32),
    Message('note_on', channel=1, note=75, velocity=92, time=0),
    Message('note_on', channel=1, note=68, velocity=92, time=0),
    Message('note_off', channel=1, note=83, velocity=0, time=12),
    Message('note_off', channel=1, note=75, velocity=0, time=0),
    Message('note_off', channel=1, note=68, velocity=0, time=0),
    Message('note_on', channel=1, note=84, velocity=92, time=0),
    Message('note_on', channel=1, note=76, velocity=92, time=0),
    Message('note_on', channel=1, note=69, velocity=92, time=0),
    Message('note_off', channel=1, note=69, velocity=0, time=12),
    Message('note_off', channel=1, note=76, velocity=0, time=0),
    Message('note_off', channel=1, note=84, velocity=0, time=0),
    Message('note_on', channel=1, note=83, velocity=92, time=0),
    Message('note_on', channel=1, note=75, velocity=92, time=0),
    Message('note_on', channel=1, note=68, velocity=92, time=0),
    Message('note_off', channel=1, note=68, velocity=0, time=12),
    Message('note_off', channel=1, note=75, velocity=0, time=0),
    Message('note_off', channel=1, note=83, velocity=0, time=0),
    Message('note_on', channel=1, note=84, velocity=92, time=0),
    Message('note_on', channel=1, note=76, velocity=92, time=0),
    Message('note_on', channel=1, note=69, velocity=92, time=0),
    Message('note_off', channel=1, note=69, velocity=0, time=12),
    Message('note_off', channel=1, note=76, velocity=0, time=0),
    Message('note_off', channel=1, note=84, velocity=0, time=0),
    Message('note_on', channel=1, note=83, velocity=92, time=0),
    Message('note_on', channel=1, note=75, velocity=92, time=0),
    Message('note_on', channel=1, note=68, velocity=92, time=0),
    Message('note_off', channel=1, note=68, velocity=0, time=12),
    Message('note_off', channel=1, note=75, velocity=0, time=0),
    Message('note_off', channel=1, note=83, velocity=0, time=0),
    Message('note_on', channel=1, note=84, velocity=92, time=0),
    Message('note_on', channel=1, note=76, velocity=92, time=0),
    Message('note_on', channel=1, note=69, velocity=92, time=0),
    Message('note_off', channel=1, note=69, velocity=0, time=12),
    Message('note_off', channel=1, note=76, velocity=0, time=0),
    Message('note_off', channel=1, note=84, velocity=0, time=0),
    Message('note_on', channel=1, note=83, velocity=92, time=0),
    Message('note_on', channel=1, note=75, velocity=92, time=0),
    Message('note_on', channel=1, note=68, velocity=92, time=0),
    Message('note_off', channel=1, note=68, velocity=0, time=12),
    Message('note_off', channel=1, note=75, velocity=0, time=0),
    Message('note_off', channel=1, note=83, velocity=0, time=0),
    Message('note_on', channel=1, note=84, velocity=92, time=0),
    Message('note_on', channel=1, note=76, velocity=92, time=0),
    Message('note_on', channel=1, note=69, velocity=92, time=0),
    Message('note_off', channel=1, note=69, velocity=0, time=12),
    Message('note_off', channel=1, note=76, velocity=0, time=0),
    Message('note_off', channel=1, note=84, velocity=0, time=0),
    Message('note_on', channel=1, note=83, velocity=92, time=0),
    Message('note_on', channel=1, note=75, velocity=92, time=0),
    Message('note_on', channel=1, note=68, velocity=92, time=0),
    Message('note_off', channel=1, note=68, velocity=0, time=12),
    Message('note_off', channel=1, note=75, velocity=0, time=0),
    Message('note_off', channel=1, note=83, velocity=0, time=0),
    Message('note_on', channel=1, note=84, velocity=92, time=0),
    Message('note_on', channel=1, note=76, velocity=92, time=0),
    Message('note_on', channel=1, note=69, velocity=92, time=0),
    Message('note_off', channel=1, note=69, velocity=0, time=12),
    Message('note_off', channel=1, note=76, velocity=0, time=0),
    Message('note_off', channel=1, note=84, velocity=0, time=0),
    Message('note_on', channel=1, note=83, velocity=92, time=0),
    Message('note_on', channel=1, note=75, velocity=92, time=0),
    Message('note_on', channel=1, note=68, velocity=92, time=0),
    Message('note_off', channel=1, note=68, velocity=0, time=12),
    Message('note_off', channel=1, note=75, velocity=0, time=0),
    Message('note_off', channel=1, note=83, velocity=0, time=0),
    Message('note_on', channel=1, note=84, velocity=92, time=0),
    Message('note_on', channel=1, note=76, velocity=92, time=0),
    Message('note_on', channel=1, note=69, velocity=92, time=0),
    Message('note_off', channel=1, note=69, velocity=0, time=12),
    Message('note_off', channel=1, note=76, velocity=0, time=0),
    Message('note_off', channel=1, note=84, velocity=0, time=0),
    Message('note_on', channel=1, note=83, velocity=92, time=0),
    Message('note_on', channel=1, note=75, velocity=92, time=0),
    Message('note_on', channel=1, note=68, velocity=92, time=0),
    Message('note_off', channel=1, note=68, velocity=0, time=12),
    Message('note_off', channel=1, note=75, velocity=0, time=0),
    Message('note_off', channel=1, note=83, velocity=0, time=0),
    Message('note_on', channel=1, note=84, velocity=92, time=0),
    Message('note_on', channel=1, note=76, velocity=92, time=0),
    Message('note_on', channel=1, note=69, velocity=92, time=0),
    Message('note_off', channel=1, note=69, velocity=0, time=12),
    Message('note_off', channel=1, note=76, velocity=0, time=0),
    Message('note_off', channel=1, note=84, velocity=0, time=0),
    Message('note_on', channel=1, note=83, velocity=92, time=0),
    Message('note_on', channel=1, note=75, velocity=92, time=0),
    Message('note_on', channel=1, note=68, velocity=92, time=0),
    Message('note_off', channel=1, note=68, velocity=0, time=12),
    Message('note_off', channel=1, note=75, velocity=0, time=0),
    Message('note_off', channel=1, note=83, velocity=0, time=0),
    Message('note_on', channel=1, note=84, velocity=92, time=0),
    Message('note_on', channel=1, note=76, velocity=92, time=0),
    Message('note_on', channel=1, note=69, velocity=92, time=0),
    Message('note_off', channel=1, note=69, velocity=0, time=11),
    Message('note_off', channel=1, note=76, velocity=0, time=0),
    Message('note_off', channel=1, note=84, velocity=0, time=0),
    Message('note_on', channel=1, note=84, velocity=92, time=1),
    Message('note_on', channel=1, note=76, velocity=92, time=0),
    Message('note_on', channel=1, note=69, velocity=92, time=0),
    Message('note_off', channel=1, note=69, velocity=0, time=47),
    Message('note_off', channel=1, note=76, velocity=0, time=0),
    Message('note_off', channel=1, note=84, velocity=0, time=0),
    Message('note_on', channel=1, note=81, velocity=92, time=49),
    Message('note_on', channel=1, note=76, velocity=92, time=0),
    Message('note_on', channel=1, note=72, velocity=92, time=0),
    Message('note_off', channel=1, note=72, velocity=0, time=24),
    Message('note_off', channel=1, note=76, velocity=0, time=0),
    Message('note_off', channel=1, note=81, velocity=0, time=0),
    Message('note_on', channel=1, note=82, velocity=92, time=0),
    Message('note_on', channel=1, note=77, velocity=92, time=0),
    Message('note_on', channel=1, note=73, velocity=92, time=0),
    Message('note_off', channel=1, note=73, velocity=0, time=24),
    Message('note_off', channel=1, note=77, velocity=0, time=0),
    Message('note_off', channel=1, note=82, velocity=0, time=0),
    Message('note_on', channel=1, note=81, velocity=92, time=0),
    Message('note_on', channel=1, note=76, velocity=92, time=0),
    Message('note_on', channel=1, note=72, velocity=92, time=0),
    Message('note_off', channel=1, note=72, velocity=0, time=16),
    Message('note_off', channel=1, note=76, velocity=0, time=0),
    Message('note_off', channel=1, note=81, velocity=0, time=0),
    Message('note_on', channel=1, note=81, velocity=92, time=32),
    Message('note_on', channel=1, note=76, velocity=92, time=0),
    Message('note_on', channel=1, note=69, velocity=92, time=0),
    Message('note_off', channel=1, note=81, velocity=0, time=16),
    Message('note_off', channel=1, note=76, velocity=0, time=0),
    Message('note_off', channel=1, note=69, velocity=0, time=0),
    Message('note_on', channel=1, note=81, velocity=92, time=32),
    Message('note_on', channel=1, note=76, velocity=92, time=0),
    Message('note_on', channel=1, note=69, velocity=92, time=0),
    Message('note_off', channel=1, note=81, velocity=0, time=16),
    Message('note_off', channel=1, note=76, velocity=0, time=0),
    Message('note_off', channel=1, note=69, velocity=0, time=0),
    Message('note_on', channel=1, note=80, velocity=92, time=32),
    Message('note_on', channel=1, note=75, velocity=92, time=0),
    Message('note_on', channel=1, note=68, velocity=92, time=0),
    Message('note_off', channel=1, note=80, velocity=0, time=16),
    Message('note_off', channel=1, note=75, velocity=0, time=0),
    Message('note_off', channel=1, note=68, velocity=0, time=0),
    Message('note_on', channel=1, note=81, velocity=92, time=32),
    Message('note_on', channel=1, note=76, velocity=92, time=0),
    Message('note_on', channel=1, note=69, velocity=92, time=0),
    Message('note_off', channel=1, note=81, velocity=0, time=16),
    Message('note_off', channel=1, note=76, velocity=0, time=0),
    Message('note_off', channel=1, note=69, velocity=0, time=0),
    Message('note_on', channel=1, note=79, velocity=92, time=32),
    Message('note_on', channel=1, note=75, velocity=92, time=0),
    Message('note_on', channel=1, note=72, velocity=92, time=0),
    Message('note_off', channel=1, note=79, velocity=0, time=96),
    Message('note_off', channel=1, note=75, velocity=0, time=0),
    Message('note_off', channel=1, note=72, velocity=0, time=0),
    Message('note_on', channel=1, note=77, velocity=92, time=0),
    Message('note_on', channel=1, note=73, velocity=92, time=0),
    Message('note_on', channel=1, note=70, velocity=92, time=0),
    Message('note_off', channel=1, note=70, velocity=0, time=16),
    Message('note_off', channel=1, note=73, velocity=0, time=0),
    Message('note_off', channel=1, note=77, velocity=0, time=0),
    Message('note_on', channel=1, note=76, velocity=92, time=32),
    Message('note_on', channel=1, note=72, velocity=92, time=0),
    Message('note_on', channel=1, note=69, velocity=92, time=0),
    Message('note_off', channel=1, note=76, velocity=0, time=16),
    Message('note_off', channel=1, note=72, velocity=0, time=0),
    Message('note_off', channel=1, note=69, velocity=0, time=0),
    Message('note_on', channel=1, note=77, velocity=92, time=32),
    Message('note_on', channel=1, note=73, velocity=92, time=0),
    Message('note_on', channel=1, note=70, velocity=92, time=0),
    Message('note_off', channel=1, note=70, velocity=0, time=24),
    Message('note_off', channel=1, note=73, velocity=0, time=0),
    Message('note_off', channel=1, note=77, velocity=0, time=0),
    Message('note_on', channel=1, note=77, velocity=92, time=72),
    Message('note_on', channel=1, note=73, velocity=92, time=0),
    Message('note_on', channel=1, note=65, velocity=92, time=0),
    Message('note_off', channel=1, note=77, velocity=0, time=24),
    Message('note_off', channel=1, note=73, velocity=0, time=0),
    Message('note_off', channel=1, note=65, velocity=0, time=0),
    Message('note_on', channel=1, note=82, velocity=92, time=0),
    Message('note_on', channel=1, note=77, velocity=92, time=0),
    Message('note_on', channel=1, note=70, velocity=92, time=0),
    Message('note_off', channel=1, note=70, velocity=0, time=24),
    Message('note_off', channel=1, note=77, velocity=0, time=0),
    Message('note_off', channel=1, note=82, velocity=0, time=0),
    Message('note_on', channel=1, note=85, velocity=92, time=0),
    Message('note_on', channel=1, note=82, velocity=92, time=0),
    Message('note_on', channel=1, note=73, velocity=92, time=0),
    Message('note_off', channel=1, note=73, velocity=0, time=24),
    Message('note_off', channel=1, note=82, velocity=0, time=0),
    Message('note_off', channel=1, note=85, velocity=0, time=0),
    Message('note_on', channel=1, note=84, velocity=92, time=0),
    Message('note_on', channel=1, note=81, velocity=92, time=0),
    Message('note_on', channel=1, note=76, velocity=92, time=0),
    Message('note_off', channel=1, note=76, velocity=0, time=23),
    Message('note_off', channel=1, note=81, velocity=0, time=0),
    Message('note_off', channel=1, note=84, velocity=0, time=0),
    Message('note_on', channel=1, note=85, velocity=92, time=1),
    Message('note_on', channel=1, note=82, velocity=92, time=0),
    Message('note_on', channel=1, note=77, velocity=92, time=0),
    Message('note_off', channel=1, note=82, velocity=0, time=96),
    Message('note_off', channel=1, note=85, velocity=0, time=0),
    Message('note_off', channel=1, note=77, velocity=0, time=0),
    Message('note_on', channel=1, note=84, velocity=92, time=0),
    Message('note_on', channel=1, note=81, velocity=92, time=0),
    Message('note_on', channel=1, note=76, velocity=92, time=0),
    Message('note_off', channel=1, note=76, velocity=0, time=16),
    Message('note_off', channel=1, note=81, velocity=0, time=0),
    Message('note_off', channel=1, note=84, velocity=0, time=0),
    Message('note_on', channel=1, note=83, velocity=92, time=32),
    Message('note_on', channel=1, note=80, velocity=92, time=0),
    Message('note_on', channel=1, note=75, velocity=92, time=0),
    Message('note_off', channel=1, note=83, velocity=0, time=16),
    Message('note_off', channel=1, note=80, velocity=0, time=0),
    Message('note_off', channel=1, note=75, velocity=0, time=0),
    Message('note_on', channel=1, note=84, velocity=92, time=32),
    Message('note_on', channel=1, note=81, velocity=92, time=0),
    Message('note_on', channel=1, note=76, velocity=92, time=0),
    Message('note_off', channel=1, note=76, velocity=0, time=24),
    Message('note_off', channel=1, note=81, velocity=0, time=0),
    Message('note_off', channel=1, note=84, velocity=0, time=0),
    Message('note_on', channel=1, note=76, velocity=92, time=72),
    Message('note_on', channel=1, note=72, velocity=92, time=0),
    Message('note_on', channel=1, note=69, velocity=92, time=0),
    Message('note_off', channel=1, note=76, velocity=0, time=24),
    Message('note_off', channel=1, note=72, velocity=0, time=0),
    Message('note_off', channel=1, note=69, velocity=0, time=0),
    Message('note_on', channel=1, note=81, velocity=92, time=0),
    Message('note_on', channel=1, note=76, velocity=92, time=0),
    Message('note_on', channel=1, note=72, velocity=92, time=0),
    Message('note_off', channel=1, note=72, velocity=0, time=24),
    Message('note_off', channel=1, note=76, velocity=0, time=0),
    Message('note_off', channel=1, note=81, velocity=0, time=0),
    Message('note_on', channel=1, note=84, velocity=92, time=0),
    Message('note_on', channel=1, note=81, velocity=92, time=0),
    Message('note_on', channel=1, note=76, velocity=92, time=0),
    Message('note_off', channel=1, note=76, velocity=0, time=24),
    Message('note_off', channel=1, note=81, velocity=0, time=0),
    Message('note_off', channel=1, note=84, velocity=0, time=0),
    Message('note_on', channel=1, note=88, velocity=92, time=0),
    Message('note_on', channel=1, note=84, velocity=92, time=0),
    Message('note_on', channel=1, note=81, velocity=92, time=0),
    Message('note_off', channel=1, note=81, velocity=0, time=24),
    Message('note_off', channel=1, note=84, velocity=0, time=0),
    Message('note_off', channel=1, note=88, velocity=0, time=0),
    Message('control_change', channel=1, control=7, value=100, time=0),
    Message('note_on', channel=1, note=89, velocity=75, time=0),
    Message('note_on', channel=1, note=77, velocity=75, time=0),
    Message('control_change', channel=1, control=7, value=101, time=19),
    Message('note_off', channel=1, note=77, velocity=0, time=4),
    Message('note_off', channel=1, note=89, velocity=0, time=0),
    Message('note_on', channel=1, note=82, velocity=77, time=1),
    Message('note_on', channel=1, note=70, velocity=77, time=0),
    Message('control_change', channel=1, control=7, value=102, time=14),
    Message('note_off', channel=1, note=70, velocity=0, time=10),
    Message('note_off', channel=1, note=82, velocity=0, time=0),
    Message('note_on', channel=1, note=83, velocity=79, time=0),
    Message('note_on', channel=1, note=71, velocity=79, time=0),
    Message('control_change', channel=1, control=7, value=103, time=9),
    Message('note_off', channel=1, note=71, velocity=0, time=15),
    Message('note_off', channel=1, note=83, velocity=0, time=0),
    Message('note_on', channel=1, note=84, velocity=81, time=0),
    Message('note_on', channel=1, note=72, velocity=81, time=0),
    Message('control_change', channel=1, control=7, value=104, time=4),
    Message('note_off', channel=1, note=72, velocity=0, time=20),
    Message('note_off', channel=1, note=84, velocity=0, time=0),
    Message('control_change', channel=1, control=7, value=105, time=0),
    Message('note_on', channel=1, note=85, velocity=83, time=0),
    Message('note_on', channel=1, note=73, velocity=83, time=0),
    Message('control_change', channel=1, control=7, value=106, time=19),
    Message('note_off', channel=1, note=73, velocity=0, time=5),
    Message('note_off', channel=1, note=85, velocity=0, time=0),
    Message('note_on', channel=1, note=86, velocity=85, time=0),
    Message('note_on', channel=1, note=74, velocity=85, time=0),
    Message('control_change', channel=1, control=7, value=107, time=14),
    Message('note_off', channel=1, note=74, velocity=0, time=10),
    Message('note_off', channel=1, note=86, velocity=0, time=0),
    Message('note_on', channel=1, note=87, velocity=87, time=0),
    Message('note_on', channel=1, note=75, velocity=87, time=0),
    Message('control_change', channel=1, control=7, value=108, time=9),
    Message('note_off', channel=1, note=75, velocity=0, time=15),
    Message('note_off', channel=1, note=87, velocity=0, time=0),
    Message('note_on', channel=1, note=88, velocity=89, time=0),
    Message('note_on', channel=1, note=76, velocity=89, time=0),
    Message('control_change', channel=1, control=7, value=109, time=4),
    Message('note_off', channel=1, note=76, velocity=0, time=19),
    Message('note_off', channel=1, note=88, velocity=0, time=0),
    Message('control_change', channel=1, control=7, value=110, time=1),
    Message('note_on', channel=1, note=89, velocity=92, time=0),
    Message('note_on', channel=1, note=77, velocity=92, time=0),
    Message('control_change', channel=1, control=7, value=109, time=19),
    Message('note_off', channel=1, note=77, velocity=0, time=5),
    Message('note_off', channel=1, note=89, velocity=0, time=0),
    Message('note_on', channel=1, note=88, velocity=90, time=0),
    Message('note_on', channel=1, note=76, velocity=90, time=0),
    Message('control_change', channel=1, control=7, value=108, time=14),
    Message('note_off', channel=1, note=76, velocity=0, time=10),
    Message('note_off', channel=1, note=88, velocity=0, time=0),
    Message('note_on', channel=1, note=86, velocity=88, time=0),
    Message('note_on', channel=1, note=74, velocity=88, time=0),
    Message('control_change', channel=1, control=7, value=107, time=9),
    Message('note_off', channel=1, note=74, velocity=0, time=15),
    Message('note_off', channel=1, note=86, velocity=0, time=0),
    Message('note_on', channel=1, note=85, velocity=86, time=0),
    Message('note_on', channel=1, note=73, velocity=86, time=0),
    Message('control_change', channel=1, control=7, value=106, time=4),
    Message('note_off', channel=1, note=73, velocity=0, time=20),
    Message('note_off', channel=1, note=85, velocity=0, time=0),
    Message('control_change', channel=1, control=7, value=105, time=0),
    Message('note_on', channel=1, note=84, velocity=84, time=0),
    Message('note_on', channel=1, note=72, velocity=84, time=0),
    Message('control_change', channel=1, control=7, value=104, time=19),
    Message('note_off', channel=1, note=72, velocity=0, time=5),
    Message('note_off', channel=1, note=84, velocity=0, time=0),
    Message('note_on', channel=1, note=83, velocity=82, time=0),
    Message('note_on', channel=1, note=71, velocity=82, time=0),
    Message('control_change', channel=1, control=7, value=103, time=14),
    Message('note_off', channel=1, note=71, velocity=0, time=10),
    Message('note_off', channel=1, note=83, velocity=0, time=0),
    Message('note_on', channel=1, note=82, velocity=80, time=0),
    Message('note_on', channel=1, note=70, velocity=80, time=0),
    Message('control_change', channel=1, control=7, value=102, time=9),
    Message('note_off', channel=1, note=70, velocity=0, time=15),
    Message('note_off', channel=1, note=82, velocity=0, time=0),
    Message('note_on', channel=1, note=81, velocity=78, time=0),
    Message('note_on', channel=1, note=69, velocity=78, time=0),
    Message('control_change', channel=1, control=7, value=101, time=4),
    Message('note_off', channel=1, note=69, velocity=0, time=19),
    Message('note_off', channel=1, note=81, velocity=0, time=0),
    Message('control_change', channel=1, control=7, value=100, time=1),
    Message('note_on', channel=1, note=80, velocity=75, time=0),
    Message('note_on', channel=1, note=68, velocity=75, time=0),
    Message('control_change', channel=1, control=7, value=101, time=19),
    Message('note_off', channel=1, note=68, velocity=0, time=5),
    Message('note_off', channel=1, note=80, velocity=0, time=0),
    Message('note_on', channel=1, note=81, velocity=77, time=0),
    Message('note_on', channel=1, note=69, velocity=77, time=0),
    Message('control_change', channel=1, control=7, value=102, time=14),
    Message('note_off', channel=1, note=69, velocity=0, time=10),
    Message('note_off', channel=1, note=81, velocity=0, time=0),
    Message('note_on', channel=1, note=82, velocity=79, time=0),
    Message('note_on', channel=1, note=70, velocity=79, time=0),
    Message('control_change', channel=1, control=7, value=103, time=9),
    Message('note_off', channel=1, note=70, velocity=0, time=15),
    Message('note_off', channel=1, note=82, velocity=0, time=0),
    Message('note_on', channel=1, note=83, velocity=81, time=0),
    Message('note_on', channel=1, note=71, velocity=81, time=0),
    Message('control_change', channel=1, control=7, value=104, time=4),
    Message('note_off', channel=1, note=71, velocity=0, time=20),
    Message('note_off', channel=1, note=83, velocity=0, time=0),
    Message('control_change', channel=1, control=7, value=105, time=0),
    Message('note_on', channel=1, note=84, velocity=83, time=0),
    Message('note_on', channel=1, note=72, velocity=83, time=0),
    Message('control_change', channel=1, control=7, value=106, time=19),
    Message('note_off', channel=1, note=72, velocity=0, time=5),
    Message('note_off', channel=1, note=84, velocity=0, time=0),
    Message('note_on', channel=1, note=85, velocity=85, time=0),
    Message('note_on', channel=1, note=73, velocity=85, time=0),
    Message('control_change', channel=1, control=7, value=107, time=14),
    Message('note_off', channel=1, note=73, velocity=0, time=10),
    Message('note_off', channel=1, note=85, velocity=0, time=0),
    Message('note_on', channel=1, note=86, velocity=87, time=0),
    Message('note_on', channel=1, note=74, velocity=87, time=0),
    Message('control_change', channel=1, control=7, value=108, time=9),
    Message('note_off', channel=1, note=74, velocity=0, time=15),
    Message('note_off', channel=1, note=86, velocity=0, time=0),
    Message('note_on', channel=1, note=87, velocity=89, time=0),
    Message('note_on', channel=1, note=75, velocity=89, time=0),
    Message('control_change', channel=1, control=7, value=109, time=4),
    Message('note_off', channel=1, note=75, velocity=0, time=19),
    Message('note_off', channel=1, note=87, velocity=0, time=0),
    Message('control_change', channel=1, control=7, value=110, time=1),
    Message('note_on', channel=1, note=88, velocity=92, time=0),
    Message('note_on', channel=1, note=76, velocity=92, time=0),
    Message('control_change', channel=1, control=7, value=109, time=19),
    Message('note_off', channel=1, note=76, velocity=0, time=5),
    Message('note_off', channel=1, note=88, velocity=0, time=0),
    Message('note_on', channel=1, note=89, velocity=90, time=0),
    Message('note_on', channel=1, note=77, velocity=90, time=0),
    Message('control_change', channel=1, control=7, value=108, time=14),
    Message('note_off', channel=1, note=77, velocity=0, time=10),
    Message('note_off', channel=1, note=89, velocity=0, time=0),
    Message('note_on', channel=1, note=88, velocity=88, time=0),
    Message('note_on', channel=1, note=76, velocity=88, time=0),
    Message('control_change', channel=1, control=7, value=107, time=9),
    Message('note_off', channel=1, note=76, velocity=0, time=15),
    Message('note_off', channel=1, note=88, velocity=0, time=0),
    Message('note_on', channel=1, note=86, velocity=86, time=0),
    Message('note_on', channel=1, note=74, velocity=86, time=0),
    Message('control_change', channel=1, control=7, value=106, time=4),
    Message('note_off', channel=1, note=74, velocity=0, time=20),
    Message('note_off', channel=1, note=86, velocity=0, time=0),
    Message('control_change', channel=1, control=7, value=105, time=0),
    Message('note_on', channel=1, note=85, velocity=84, time=0),
    Message('note_on', channel=1, note=73, velocity=84, time=0),
    Message('control_change', channel=1, control=7, value=104, time=19),
    Message('note_off', channel=1, note=73, velocity=0, time=5),
    Message('note_off', channel=1, note=85, velocity=0, time=0),
    Message('note_on', channel=1, note=84, velocity=82, time=0),
    Message('note_on', channel=1, note=72, velocity=82, time=0),
    Message('control_change', channel=1, control=7, value=103, time=14),
    Message('note_off', channel=1, note=72, velocity=0, time=10),
    Message('note_off', channel=1, note=84, velocity=0, time=0),
    Message('note_on', channel=1, note=83, velocity=80, time=0),
    Message('note_on', channel=1, note=71, velocity=80, time=0),
    Message('control_change', channel=1, control=7, value=102, time=9),
    Message('note_off', channel=1, note=71, velocity=0, time=15),
    Message('note_off', channel=1, note=83, velocity=0, time=0),
    Message('note_on', channel=1, note=82, velocity=78, time=0),
    Message('note_on', channel=1, note=70, velocity=78, time=0),
    Message('control_change', channel=1, control=7, value=101, time=4),
    Message('note_off', channel=1, note=70, velocity=0, time=19),
    Message('note_off', channel=1, note=82, velocity=0, time=0),
    Message('control_change', channel=1, control=7, value=100, time=1),
    Message('control_change', channel=1, control=7, value=110, time=2304),
    Message('note_on', channel=1, note=72, velocity=92, time=288),
    Message('note_off', channel=1, note=72, velocity=0, time=48),
    Message('note_on', channel=1, note=74, velocity=92, time=0),
    Message('note_off', channel=1, note=74, velocity=0, time=48),
    Message('note_on', channel=1, note=75, velocity=92, time=0),
    Message('note_off', channel=1, note=75, velocity=0, time=48),
    Message('note_on', channel=1, note=77, velocity=92, time=0),
    Message('note_off', channel=1, note=77, velocity=0, time=48),
    Message('note_on', channel=1, note=79, velocity=92, time=0),
    Message('note_off', channel=1, note=79, velocity=0, time=96),
    Message('note_on', channel=1, note=75, velocity=92, time=0),
    Message('note_off', channel=1, note=75, velocity=0, time=96),
    Message('note_on', channel=1, note=74, velocity=92, time=0),
    Message('note_off', channel=1, note=74, velocity=0, time=96),
    Message('note_on', channel=1, note=75, velocity=92, time=0),
    Message('note_off', channel=1, note=75, velocity=0, time=47),
    Message('note_on', channel=1, note=79, velocity=92, time=337),
    Message('note_off', channel=1, note=79, velocity=0, time=192),
    Message('note_on', channel=1, note=72, velocity=92, time=0),
    Message('note_off', channel=1, note=72, velocity=0, time=128),
    Message('control_change', channel=1, control=7, value=100, time=64),
    Message('note_on', channel=1, note=79, velocity=75, time=0),
    Message('note_off', channel=1, note=79, velocity=0, time=192),
    Message('note_on', channel=1, note=72, velocity=75, time=0),
    Message('note_off', channel=1, note=72, velocity=0, time=128),
    Message('note_on', channel=1, note=67, velocity=75, time=64),
    Message('note_off', channel=1, note=67, velocity=0, time=192),
    Message('note_on', channel=1, note=60, velocity=75, time=0),
    Message('note_off', channel=1, note=60, velocity=0, time=128),
    Message('note_on', channel=1, note=67, velocity=75, time=832),
    Message('note_off', channel=1, note=67, velocity=0, time=47),
    Message('control_change', channel=1, control=7, value=101, time=15),
    Message('note_on', channel=1, note=68, velocity=77, time=34),
    Message('control_change', channel=1, control=7, value=102, time=28),
    Message('note_off', channel=1, note=68, velocity=0, time=19),
    Message('control_change', channel=1, control=7, value=103, time=44),
    Message('note_on', channel=1, note=70, velocity=79, time=5),
    Message('note_off', channel=1, note=70, velocity=0, time=47),
    Message('control_change', channel=1, control=7, value=104, time=10),
    Message('note_on', channel=1, note=72, velocity=81, time=39),
    Message('control_change', channel=1, control=7, value=105, time=24),
    Message('note_off', channel=1, note=72, velocity=0, time=23),
    Message('control_change', channel=1, control=7, value=106, time=39),
    Message('note_on', channel=1, note=74, velocity=83, time=10),
    Message('note_off', channel=1, note=74, velocity=0, time=32),
    Message('note_on', channel=1, note=72, velocity=84, time=0),
    Message('control_change', channel=1, control=7, value=107, time=20),
    Message('note_off', channel=1, note=72, velocity=0, time=12),
    Message('note_on', channel=1, note=71, velocity=85, time=0),
    Message('note_off', channel=1, note=71, velocity=0, time=31),
    Message('note_on', channel=1, note=75, velocity=86, time=1),
    Message('control_change', channel=1, control=7, value=108, time=19),
    Message('note_off', channel=1, note=75, velocity=0, time=13),
    Message('note_on', channel=1, note=74, velocity=87, time=0),
    Message('note_off', channel=1, note=74, velocity=0, time=32),
    Message('note_on', channel=1, note=72, velocity=88, time=0),
    Message('control_change', channel=1, control=7, value=109, time=17),
    Message('note_off', channel=1, note=72, velocity=0, time=15),
    Message('note_on', channel=1, note=74, velocity=89, time=0),
    Message('note_off', channel=1, note=74, velocity=0, time=47),
    Message('control_change', channel=1, control=7, value=110, time=1),
    Message('control_change', channel=1, control=7, value=100, time=336),
    Message('note_on', channel=1, note=77, velocity=75, time=0),
    Message('note_on', channel=1, note=65, velocity=75, time=0),
    Message('control_change', channel=1, control=7, value=101, time=9),
    Message('note_off', channel=1, note=65, velocity=0, time=7),
    Message('note_off', channel=1, note=77, velocity=0, time=0),
    Message('note_on', channel=1, note=79, velocity=77, time=0),
    Message('note_on', channel=1, note=67, velocity=77, time=0),
    Message('control_change', channel=1, control=7, value=102, time=3),
    Message('control_change', channel=1, control=7, value=103, time=9),
    Message('note_off', channel=1, note=67, velocity=0, time=4),
    Message('note_off', channel=1, note=79, velocity=0, time=0),
    Message('note_on', channel=1, note=80, velocity=79, time=0),
    Message('note_on', channel=1, note=68, velocity=79, time=0),
    Message('control_change', channel=1, control=7, value=104, time=6),
    Message('note_off', channel=1, note=68, velocity=0, time=10),
    Message('note_off', channel=1, note=80, velocity=0, time=0),
    Message('control_change', channel=1, control=7, value=105, time=0),
    Message('note_on', channel=1, note=82, velocity=81, time=0),
    Message('note_on', channel=1, note=70, velocity=81, time=0),
    Message('control_change', channel=1, control=7, value=106, time=9),
    Message('note_off', channel=1, note=70, velocity=0, time=7),
    Message('note_off', channel=1, note=82, velocity=0, time=0),
    Message('note_on', channel=1, note=83, velocity=84, time=0),
    Message('note_on', channel=1, note=71, velocity=84, time=0),
    Message('control_change', channel=1, control=7, value=107, time=3),
    Message('control_change', channel=1, control=7, value=108, time=9),
    Message('note_off', channel=1, note=71, velocity=0, time=4),
    Message('note_off', channel=1, note=83, velocity=0, time=0),
    Message('note_on', channel=1, note=84, velocity=87, time=0),
    Message('note_on', channel=1, note=72, velocity=87, time=0),
    Message('control_change', channel=1, control=7, value=109, time=6),
    Message('note_off', channel=1, note=72, velocity=0, time=10),
    Message('note_off', channel=1, note=84, velocity=0, time=0),
    Message('control_change', channel=1, control=7, value=110, time=0),
    Message('note_on', channel=1, note=86, velocity=90, time=0),
    Message('note_on', channel=1, note=74, velocity=90, time=0),
    Message('control_change', channel=1, control=7, value=111, time=9),
    Message('note_off', channel=1, note=74, velocity=0, time=7),
    Message('note_off', channel=1, note=86, velocity=0, time=0),
    Message('note_on', channel=1, note=75, velocity=93, time=0),
    Message('control_change', channel=1, control=7, value=112, time=3),
    Message('control_change', channel=1, control=7, value=113, time=9),
    Message('note_off', channel=1, note=75, velocity=0, time=4),
    Message('note_on', channel=1, note=77, velocity=96, time=0),
    Message('control_change', channel=1, control=7, value=114, time=6),
    Message('note_off', channel=1, note=77, velocity=0, time=10),
    Message('control_change', channel=1, control=7, value=115, time=0),
    Message('note_on', channel=1, note=79, velocity=99, time=0),
    Message('control_change', channel=1, control=7, value=116, time=9),
    Message('note_off', channel=1, note=79, velocity=0, time=7),
    Message('note_on', channel=1, note=80, velocity=102, time=0),
    Message('control_change', channel=1, control=7, value=117, time=3),
    Message('control_change', channel=1, control=7, value=118, time=9),
    Message('note_off', channel=1, note=80, velocity=0, time=4),
    Message('note_on', channel=1, note=83, velocity=105, time=0),
    Message('control_change', channel=1, control=7, value=119, time=6),
    Message('note_off', channel=1, note=83, velocity=0, time=9),
    Message('control_change', channel=1, control=7, value=120, time=1),
    Message('note_on', channel=1, note=84, velocity=127, time=0),
    Message('note_on', channel=1, note=72, velocity=127, time=0),
    Message('note_off', channel=1, note=72, velocity=0, time=24),
    Message('note_off', channel=1, note=84, velocity=0, time=0),
    Message('note_on', channel=1, note=79, velocity=127, time=72),
    Message('note_on', channel=1, note=67, velocity=127, time=0),
    Message('note_off', channel=1, note=67, velocity=0, time=24),
    Message('note_off', channel=1, note=79, velocity=0, time=0),
    Message('note_on', channel=1, note=80, velocity=127, time=72),
    Message('note_on', channel=1, note=68, velocity=127, time=0),
    Message('note_off', channel=1, note=68, velocity=0, time=24),
    Message('note_off', channel=1, note=80, velocity=0, time=0),
    Message('note_on', channel=1, note=71, velocity=127, time=72),
    Message('note_on', channel=1, note=59, velocity=127, time=0),
    Message('note_off', channel=1, note=71, velocity=0, time=16),
    Message('note_off', channel=1, note=59, velocity=0, time=0),
    Message('note_on', channel=1, note=72, velocity=127, time=32),
    Message('note_on', channel=1, note=60, velocity=127, time=0),
    Message('note_off', channel=1, note=72, velocity=0, time=16),
    Message('note_off', channel=1, note=60, velocity=0, time=0),
    Message('note_on', channel=1, note=73, velocity=127, time=32),
    Message('note_on', channel=1, note=61, velocity=127, time=0),
    Message('note_off', channel=1, note=73, velocity=0, time=24),
    Message('note_off', channel=1, note=61, velocity=0, time=0),
    Message('note_on', channel=1, note=67, velocity=127, time=72),
    Message('note_on', channel=1, note=55, velocity=127, time=0),
    Message('note_off', channel=1, note=55, velocity=0, time=24),
    Message('note_off', channel=1, note=67, velocity=0, time=0),
    Message('note_on', channel=1, note=72, velocity=127, time=72),
    Message('note_on', channel=1, note=60, velocity=127, time=0),
    Message('note_off', channel=1, note=60, velocity=0, time=36),
    Message('note_off', channel=1, note=72, velocity=0, time=0),
    Message('note_on', channel=1, note=65, velocity=127, time=252),
    Message('note_off', channel=1, note=65, velocity=0, time=24),
    Message('note_on', channel=1, note=64, velocity=108, time=0),
    Message('note_off', channel=1, note=64, velocity=0, time=24),
    Message('note_on', channel=1, note=62, velocity=108, time=0),
    Message('note_off', channel=1, note=62, velocity=0, time=24),
    Message('note_on', channel=1, note=61, velocity=108, time=0),
    Message('note_off', channel=1, note=61, velocity=0, time=24),
    Message('note_on', channel=1, note=60, velocity=108, time=0),
    Message('note_off', channel=1, note=60, velocity=0, time=47),
    Message('note_on', channel=1, note=78, velocity=108, time=337),
    Message('note_on', channel=1, note=74, velocity=108, time=0),
    Message('note_off', channel=1, note=74, velocity=0, time=168),
    Message('note_off', channel=1, note=78, velocity=0, time=0),
    Message('note_on', channel=1, note=74, velocity=108, time=24),
    Message('note_on', channel=1, note=70, velocity=108, time=0),
    Message('note_on', channel=1, note=67, velocity=108, time=0),
    Message('note_off', channel=1, note=74, velocity=0, time=16),
    Message('note_off', channel=1, note=70, velocity=0, time=0),
    Message('note_off', channel=1, note=67, velocity=0, time=0),
    Message('note_on', channel=1, note=74, velocity=108, time=32),
    Message('note_on', channel=1, note=70, velocity=108, time=0),
    Message('note_on', channel=1, note=67, velocity=108, time=0),
    Message('note_off', channel=1, note=74, velocity=0, time=16),
    Message('note_off', channel=1, note=70, velocity=0, time=0),
    Message('note_off', channel=1, note=67, velocity=0, time=0),
    Message('note_on', channel=1, note=74, velocity=108, time=32),
    Message('note_on', channel=1, note=70, velocity=108, time=0),
    Message('note_on', channel=1, note=67, velocity=108, time=0),
    Message('note_off', channel=1, note=74, velocity=0, time=16),
    Message('note_off', channel=1, note=70, velocity=0, time=0),
    Message('note_off', channel=1, note=67, velocity=0, time=0),
    Message('note_on', channel=1, note=74, velocity=108, time=32),
    Message('note_on', channel=1, note=70, velocity=108, time=0),
    Message('note_on', channel=1, note=67, velocity=108, time=0),
    Message('note_off', channel=1, note=74, velocity=0, time=16),
    Message('note_off', channel=1, note=70, velocity=0, time=0),
    Message('note_off', channel=1, note=67, velocity=0, time=0),
    Message('note_on', channel=1, note=74, velocity=108, time=32),
    Message('note_on', channel=1, note=70, velocity=108, time=0),
    Message('note_on', channel=1, note=67, velocity=108, time=0),
    Message('note_off', channel=1, note=74, velocity=0, time=16),
    Message('note_off', channel=1, note=70, velocity=0, time=0),
    Message('note_off', channel=1, note=67, velocity=0, time=0),
    Message('note_on', channel=1, note=74, velocity=108, time=32),
    Message('note_on', channel=1, note=70, velocity=108, time=0),
    Message('note_on', channel=1, note=67, velocity=108, time=0),
    Message('note_off', channel=1, note=74, velocity=0, time=16),
    Message('note_off', channel=1, note=70, velocity=0, time=0),
    Message('note_off', channel=1, note=67, velocity=0, time=0),
    Message('note_on', channel=1, note=73, velocity=108, time=32),
    Message('note_on', channel=1, note=69, velocity=108, time=0),
    Message('note_on', channel=1, note=66, velocity=108, time=0),
    Message('note_off', channel=1, note=73, velocity=0, time=16),
    Message('note_off', channel=1, note=69, velocity=0, time=0),
    Message('note_off', channel=1, note=66, velocity=0, time=0),
    Message('note_on', channel=1, note=74, velocity=108, time=32),
    Message('note_on', channel=1, note=70, velocity=108, time=0),
    Message('note_on', channel=1, note=67, velocity=108, time=0),
    Message('note_off', channel=1, note=74, velocity=0, time=16),
    Message('note_off', channel=1, note=70, velocity=0, time=0),
    Message('note_off', channel=1, note=67, velocity=0, time=0),
    Message('note_on', channel=1, note=77, velocity=108, time=32),
    Message('note_on', channel=1, note=73, velocity=108, time=0),
    Message('note_on', channel=1, note=70, velocity=108, time=0),
    Message('note_off', channel=1, note=77, velocity=0, time=96),
    Message('note_off', channel=1, note=70, velocity=0, time=0),
    Message('note_off', channel=1, note=73, velocity=0, time=0),
    Message('note_on', channel=1, note=75, velocity=108, time=0),
    Message('note_on', channel=1, note=71, velocity=108, time=0),
    Message('note_on', channel=1, note=68, velocity=108, time=0),
    Message('note_off', channel=1, note=68, velocity=0, time=16),
    Message('note_off', channel=1, note=71, velocity=0, time=0),
    Message('note_off', channel=1, note=75, velocity=0, time=0),
    Message('note_on', channel=1, note=74, velocity=108, time=32),
    Message('note_on', channel=1, note=70, velocity=108, time=0),
    Message('note_on', channel=1, note=67, velocity=108, time=0),
    Message('note_off', channel=1, note=74, velocity=0, time=16),
    Message('note_off', channel=1, note=70, velocity=0, time=0),
    Message('note_off', channel=1, note=67, velocity=0, time=0),
    Message('note_on', channel=1, note=75, velocity=108, time=32),
    Message('note_on', channel=1, note=71, velocity=108, time=0),
    Message('note_on', channel=1, note=68, velocity=108, time=0),
    Message('note_off', channel=1, note=75, velocity=0, time=24),
    Message('note_off', channel=1, note=71, velocity=0, time=0),
    Message('note_off', channel=1, note=68, velocity=0, time=0),
    Message('note_on', channel=1, note=68, velocity=108, time=72),
    Message('note_on', channel=1, note=63, velocity=108, time=0),
    Message('note_on', channel=1, note=59, velocity=108, time=0),
    Message('note_off', channel=1, note=68, velocity=0, time=24),
    Message('note_off', channel=1, note=63, velocity=0, time=0),
    Message('note_off', channel=1, note=59, velocity=0, time=0),
    Message('note_on', channel=1, note=75, velocity=108, time=72),
    Message('note_on', channel=1, note=71, velocity=108, time=0),
    Message('note_on', channel=1, note=68, velocity=108, time=0),
    Message('note_off', channel=1, note=75, velocity=0, time=96),
    Message('note_off', channel=1, note=68, velocity=0, time=0),
    Message('note_off', channel=1, note=71, velocity=0, time=0),
    Message('note_on', channel=1, note=74, velocity=108, time=0),
    Message('note_on', channel=1, note=71, velocity=108, time=0),
    Message('note_on', channel=1, note=68, velocity=108, time=0),
    Message('note_off', channel=1, note=68, velocity=0, time=16),
    Message('note_off', channel=1, note=71, velocity=0, time=0),
    Message('note_off', channel=1, note=74, velocity=0, time=0),
    Message('note_on', channel=1, note=73, velocity=108, time=32),
    Message('note_on', channel=1, note=71, velocity=108, time=0),
    Message('note_on', channel=1, note=68, velocity=108, time=0),
    Message('note_off', channel=1, note=73, velocity=0, time=16),
    Message('note_off', channel=1, note=71, velocity=0, time=0),
    Message('note_off', channel=1, note=68, velocity=0, time=0),
    Message('note_on', channel=1, note=74, velocity=108, time=32),
    Message('note_on', channel=1, note=70, velocity=108, time=0),
    Message('note_on', channel=1, note=67, velocity=108, time=0),
    Message('note_off', channel=1, note=74, velocity=0, time=24),
    Message('note_off', channel=1, note=70, velocity=0, time=0),
    Message('note_off', channel=1, note=67, velocity=0, time=0),
    Message('note_on', channel=1, note=67, velocity=108, time=72),
    Message('note_on', channel=1, note=62, velocity=108, time=0),
    Message('note_on', channel=1, note=58, velocity=108, time=0),
    Message('note_off', channel=1, note=67, velocity=0, time=24),
    Message('note_off', channel=1, note=62, velocity=0, time=0),
    Message('note_off', channel=1, note=58, velocity=0, time=0),
    Message('note_on', channel=1, note=70, velocity=108, time=72),
    Message('note_on', channel=1, note=67, velocity=108, time=0),
    Message('note_on', channel=1, note=62, velocity=108, time=0),
    Message('note_off', channel=1, note=70, velocity=0, time=168),
    Message('note_off', channel=1, note=67, velocity=0, time=0),
    Message('note_off', channel=1, note=62, velocity=0, time=0),
    Message('note_on', channel=1, note=69, velocity=108, time=24),
    Message('note_on', channel=1, note=66, velocity=108, time=0),
    Message('note_on', channel=1, note=62, velocity=108, time=0),
    Message('note_off', channel=1, note=69, velocity=0, time=168),
    Message('note_off', channel=1, note=66, velocity=0, time=0),
    Message('note_off', channel=1, note=62, velocity=0, time=0),
    Message('control_change', channel=1, control=7, value=100, time=24),
    Message('note_on', channel=1, note=79, velocity=75, time=0),
    Message('note_on', channel=1, note=67, velocity=75, time=0),
    Message('control_change', channel=1, control=7, value=101, time=7),
    Message('note_off', channel=1, note=79, velocity=0, time=5),
    Message('note_off', channel=1, note=67, velocity=0, time=0),
    Message('note_on', channel=1, note=81, velocity=77, time=0),
    Message('note_on', channel=1, note=69, velocity=77, time=0),
    Message('control_change', channel=1, control=7, value=102, time=2),
    Message('control_change', channel=1, control=7, value=103, time=7),
    Message('note_off', channel=1, note=69, velocity=0, time=3),
    Message('note_off', channel=1, note=81, velocity=0, time=0),
    Message('note_on', channel=1, note=82, velocity=79, time=0),
    Message('note_on', channel=1, note=70, velocity=79, time=0),
    Message('control_change', channel=1, control=7, value=104, time=4),
    Message('control_change', channel=1, control=7, value=105, time=7),
    Message('note_off', channel=1, note=70, velocity=0, time=1),
    Message('note_off', channel=1, note=82, velocity=0, time=0),
    Message('note_on', channel=1, note=84, velocity=81, time=0),
    Message('note_on', channel=1, note=72, velocity=81, time=0),
    Message('control_change', channel=1, control=7, value=106, time=7),
    Message('note_off', channel=1, note=72, velocity=0, time=5),
    Message('note_off', channel=1, note=84, velocity=0, time=0),
    Message('note_on', channel=1, note=86, velocity=84, time=0),
    Message('note_on', channel=1, note=74, velocity=84, time=0),
    Message('control_change', channel=1, control=7, value=107, time=2),
    Message('control_change', channel=1, control=7, value=108, time=7),
    Message('note_off', channel=1, note=74, velocity=0, time=7),
    Message('note_off', channel=1, note=86, velocity=0, time=0),
    Message('control_change', channel=1, control=7, value=109, time=0),
    Message('note_on', channel=1, note=87, velocity=88, time=0),
    Message('note_on', channel=1, note=75, velocity=88, time=0),
    Message('control_change', channel=1, control=7, value=110, time=7),
    Message('control_change', channel=1, control=7, value=111, time=8),
    Message('note_off', channel=1, note=75, velocity=0, time=1),
    Message('note_off', channel=1, note=87, velocity=0, time=0),
    Message('note_on', channel=1, note=89, velocity=92, time=0),
    Message('note_on', channel=1, note=77, velocity=92, time=0),
    Message('control_change', channel=1, control=7, value=112, time=6),
    Message('control_change', channel=1, control=7, value=113, time=7),
    Message('note_off', channel=1, note=77, velocity=0, time=3),
    Message('note_off', channel=1, note=89, velocity=0, time=0),
    Message('note_on', channel=1, note=91, velocity=96, time=0),
    Message('note_on', channel=1, note=79, velocity=96, time=0),
    Message('control_change', channel=1, control=7, value=114, time=4),
    Message('control_change', channel=1, control=7, value=115, time=7),
    Message('control_change', channel=1, control=7, value=116, time=8),
    Message('control_change', channel=1, control=7, value=117, time=7),
    Message('control_change', channel=1, control=7, value=118, time=7),
    Message('control_change', channel=1, control=7, value=119, time=7),
    Message('note_off', channel=1, note=79, velocity=0, time=7),
    Message('note_off', channel=1, note=91, velocity=0, time=0),
    Message('control_change', channel=1, control=7, value=120, time=0),
    Message('control_change', channel=1, control=7, value=100, time=1489),
    Message('note_on', channel=1, note=83, velocity=75, time=0),
    Message('note_on', channel=1, note=71, velocity=75, time=0),
    Message('note_off', channel=1, note=83, velocity=0, time=24),
    Message('note_off', channel=1, note=71, velocity=0, time=0),
    Message('note_on', channel=1, note=81, velocity=75, time=0),
    Message('note_on', channel=1, note=69, velocity=75, time=0),
    Message('note_off', channel=1, note=69, velocity=0, time=24),
    Message('note_off', channel=1, note=81, velocity=0, time=0),
    Message('note_on', channel=1, note=80, velocity=75, time=0),
    Message('note_on', channel=1, note=68, velocity=75, time=0),
    Message('note_off', channel=1, note=68, velocity=0, time=24),
    Message('note_off', channel=1, note=80, velocity=0, time=0),
    Message('note_on', channel=1, note=81, velocity=75, time=0),
    Message('note_on', channel=1, note=69, velocity=75, time=0),
    Message('note_off', channel=1, note=69, velocity=0, time=24),
    Message('note_off', channel=1, note=81, velocity=0, time=0),
    Message('note_on', channel=1, note=83, velocity=75, time=0),
    Message('note_on', channel=1, note=71, velocity=75, time=0),
    Message('note_off', channel=1, note=71, velocity=0, time=47),
    Message('note_off', channel=1, note=83, velocity=0, time=0),
    Message('note_on', channel=1, note=85, velocity=75, time=49),
    Message('note_on', channel=1, note=73, velocity=75, time=0),
    Message('note_off', channel=1, note=85, velocity=0, time=24),
    Message('note_off', channel=1, note=73, velocity=0, time=0),
    Message('note_on', channel=1, note=83, velocity=75, time=0),
    Message('note_on', channel=1, note=71, velocity=75, time=0),
    Message('note_off', channel=1, note=71, velocity=0, time=24),
    Message('note_off', channel=1, note=83, velocity=0, time=0),
    Message('note_on', channel=1, note=81, velocity=75, time=0),
    Message('note_on', channel=1, note=69, velocity=75, time=0),
    Message('note_off', channel=1, note=69, velocity=0, time=24),
    Message('note_off', channel=1, note=81, velocity=0, time=0),
    Message('note_on', channel=1, note=83, velocity=75, time=0),
    Message('note_on', channel=1, note=71, velocity=75, time=0),
    Message('note_off', channel=1, note=71, velocity=0, time=24),
    Message('note_off', channel=1, note=83, velocity=0, time=0),
    Message('note_on', channel=1, note=85, velocity=75, time=0),
    Message('note_on', channel=1, note=73, velocity=75, time=0),
    Message('note_off', channel=1, note=73, velocity=0, time=264),
    Message('note_off', channel=1, note=85, velocity=0, time=0),
    Message('note_on', channel=1, note=73, velocity=75, time=24),
    Message('note_off', channel=1, note=73, velocity=0, time=80),
    Message('note_on', channel=1, note=73, velocity=75, time=16),
    Message('note_off', channel=1, note=73, velocity=0, time=96),
    Message('note_on', channel=1, note=72, velocity=75, time=0),
    Message('note_off', channel=1, note=72, velocity=0, time=48),
    Message('note_on', channel=1, note=73, velocity=75, time=0),
    Message('note_off', channel=1, note=73, velocity=0, time=48),
    Message('note_on', channel=1, note=75, velocity=75, time=0),
    Message('note_off', channel=1, note=75, velocity=0, time=96),
    Message('note_on', channel=1, note=73, velocity=75, time=0),
    Message('note_off', channel=1, note=73, velocity=0, time=48),
    Message('note_on', channel=1, note=75, velocity=75, time=0),
    Message('note_off', channel=1, note=75, velocity=0, time=48),
    Message('note_on', channel=1, note=76, velocity=75, time=0),
    Message('note_off', channel=1, note=76, velocity=0, time=48),
    Message('note_on', channel=1, note=78, velocity=75, time=0),
    Message('note_off', channel=1, note=78, velocity=0, time=48),
    Message('note_on', channel=1, note=80, velocity=75, time=0),
    Message('note_off', channel=1, note=80, velocity=0, time=96),
    Message('note_on', channel=1, note=76, velocity=75, time=0),
    Message('note_off', channel=1, note=76, velocity=0, time=96),
    Message('note_on', channel=1, note=75, velocity=75, time=0),
    Message('note_off', channel=1, note=75, velocity=0, time=96),
    Message('note_on', channel=1, note=76, velocity=75, time=0),
    Message('note_off', channel=1, note=76, velocity=0, time=47),
    Message('note_on', channel=1, note=78, velocity=75, time=49),
    Message('note_on', channel=1, note=66, velocity=75, time=0),
    Message('note_off', channel=1, note=78, velocity=0, time=24),
    Message('note_off', channel=1, note=66, velocity=0, time=0),
    Message('note_on', channel=1, note=76, velocity=75, time=0),
    Message('note_on', channel=1, note=64, velocity=75, time=0),
    Message('note_off', channel=1, note=64, velocity=0, time=24),
    Message('note_off', channel=1, note=76, velocity=0, time=0),
    Message('note_on', channel=1, note=75, velocity=75, time=0),
    Message('note_on', channel=1, note=63, velocity=75, time=0),
    Message('note_off', channel=1, note=63, velocity=0, time=24),
    Message('note_off', channel=1, note=75, velocity=0, time=0),
    Message('note_on', channel=1, note=76, velocity=75, time=0),
    Message('note_on', channel=1, note=64, velocity=75, time=0),
    Message('note_off', channel=1, note=64, velocity=0, time=24),
    Message('note_off', channel=1, note=76, velocity=0, time=0),
    Message('note_on', channel=1, note=78, velocity=75, time=0),
    Message('note_on', channel=1, note=66, velocity=75, time=0),
    Message('note_off', channel=1, note=66, velocity=0, time=47),
    Message('note_off', channel=1, note=78, velocity=0, time=0),
    Message('note_on', channel=1, note=80, velocity=75, time=49),
    Message('note_on', channel=1, note=68, velocity=75, time=0),
    Message('note_off', channel=1, note=80, velocity=0, time=24),
    Message('note_off', channel=1, note=68, velocity=0, time=0),
    Message('note_on', channel=1, note=78, velocity=75, time=0),
    Message('note_on', channel=1, note=66, velocity=75, time=0),
    Message('note_off', channel=1, note=66, velocity=0, time=24),
    Message('note_off', channel=1, note=78, velocity=0, time=0),
    Message('note_on', channel=1, note=76, velocity=75, time=0),
    Message('note_on', channel=1, note=64, velocity=75, time=0),
    Message('note_off', channel=1, note=64, velocity=0, time=24),
    Message('note_off', channel=1, note=76, velocity=0, time=0),
    Message('note_on', channel=1, note=78, velocity=75, time=0),
    Message('note_on', channel=1, note=66, velocity=75, time=0),
    Message('note_off', channel=1, note=66, velocity=0, time=24),
    Message('note_off', channel=1, note=78, velocity=0, time=0),
    Message('note_on', channel=1, note=80, velocity=75, time=0),
    Message('note_on', channel=1, note=68, velocity=75, time=0),
    Message('control_change', channel=1, control=7, value=99, time=4),
    Message('control_change', channel=1, control=7, value=98, time=4),
    Message('control_change', channel=1, control=7, value=97, time=4),
    Message('control_change', channel=1, control=7, value=96, time=4),
    Message('control_change', channel=1, control=7, value=95, time=4),
    Message('control_change', channel=1, control=7, value=94, time=5),
    Message('control_change', channel=1, control=7, value=93, time=4),
    Message('control_change', channel=1, control=7, value=92, time=4),
    Message('control_change', channel=1, control=7, value=91, time=4),
    Message('control_change', channel=1, control=7, value=90, time=4),
    Message('control_change', channel=1, control=7, value=89, time=5),
    Message('control_change', channel=1, control=7, value=88, time=4),
    Message('control_change', channel=1, control=7, value=87, time=4),
    Message('control_change', channel=1, control=7, value=86, time=4),
    Message('control_change', channel=1, control=7, value=85, time=4),
    Message('control_change', channel=1, control=7, value=84, time=5),
    Message('control_change', channel=1, control=7, value=83, time=4),
    Message('control_change', channel=1, control=7, value=82, time=4),
    Message('control_change', channel=1, control=7, value=81, time=4),
    Message('control_change', channel=1, control=7, value=80, time=4),
    Message('control_change', channel=1, control=7, value=79, time=5),
    Message('control_change', channel=1, control=7, value=78, time=4),
    Message('control_change', channel=1, control=7, value=77, time=4),
    Message('control_change', channel=1, control=7, value=76, time=4),
    Message('control_change', channel=1, control=7, value=75, time=4),
    Message('control_change', channel=1, control=7, value=74, time=5),
    Message('control_change', channel=1, control=7, value=73, time=4),
    Message('control_change', channel=1, control=7, value=72, time=4),
    Message('control_change', channel=1, control=7, value=71, time=4),
    Message('control_change', channel=1, control=7, value=70, time=4),
    Message('control_change', channel=1, control=7, value=69, time=5),
    Message('control_change', channel=1, control=7, value=68, time=4),
    Message('control_change', channel=1, control=7, value=67, time=4),
    Message('control_change', channel=1, control=7, value=66, time=4),
    Message('control_change', channel=1, control=7, value=65, time=4),
    Message('control_change', channel=1, control=7, value=64, time=5),
    Message('control_change', channel=1, control=7, value=63, time=4),
    Message('control_change', channel=1, control=7, value=62, time=4),
    Message('control_change', channel=1, control=7, value=61, time=4),
    Message('control_change', channel=1, control=7, value=60, time=4),
    Message('control_change', channel=1, control=7, value=59, time=5),
    Message('control_change', channel=1, control=7, value=58, time=4),
    Message('control_change', channel=1, control=7, value=57, time=4),
    Message('control_change', channel=1, control=7, value=56, time=4),
    Message('control_change', channel=1, control=7, value=55, time=4),
    Message('control_change', channel=1, control=7, value=54, time=5),
    Message('control_change', channel=1, control=7, value=53, time=4),
    Message('control_change', channel=1, control=7, value=52, time=4),
    Message('control_change', channel=1, control=7, value=51, time=4),
    Message('control_change', channel=1, control=7, value=50, time=4),
    Message('control_change', channel=1, control=7, value=49, time=5),
    Message('control_change', channel=1, control=7, value=48, time=4),
    Message('control_change', channel=1, control=7, value=47, time=4),
    Message('control_change', channel=1, control=7, value=46, time=4),
    Message('control_change', channel=1, control=7, value=45, time=4),
    Message('control_change', channel=1, control=7, value=44, time=5),
    Message('control_change', channel=1, control=7, value=43, time=4),
    Message('control_change', channel=1, control=7, value=42, time=4),
    Message('control_change', channel=1, control=7, value=41, time=4),
    Message('control_change', channel=1, control=7, value=40, time=4),
    Message('control_change', channel=1, control=7, value=39, time=5),
    Message('control_change', channel=1, control=7, value=38, time=4),
    Message('control_change', channel=1, control=7, value=37, time=4),
    Message('control_change', channel=1, control=7, value=36, time=4),
    Message('control_change', channel=1, control=7, value=35, time=4),
    Message('control_change', channel=1, control=7, value=34, time=5),
    Message('control_change', channel=1, control=7, value=33, time=4),
    Message('control_change', channel=1, control=7, value=32, time=4),
    Message('control_change', channel=1, control=7, value=31, time=4),
    Message('control_change', channel=1, control=7, value=30, time=4),
    Message('control_change', channel=1, control=7, value=29, time=5),
    Message('control_change', channel=1, control=7, value=28, time=4),
    Message('control_change', channel=1, control=7, value=27, time=4),
    Message('control_change', channel=1, control=7, value=26, time=4),
    Message('note_off', channel=1, note=68, velocity=0, time=2),
    Message('note_off', channel=1, note=80, velocity=0, time=0),
    Message('control_change', channel=1, control=7, value=25, time=2),
    Message('control_change', channel=1, control=7, value=24, time=5),
    Message('control_change', channel=1, control=7, value=23, time=4),
    Message('control_change', channel=1, control=7, value=22, time=4),
    Message('control_change', channel=1, control=7, value=21, time=4),
    Message('control_change', channel=1, control=7, value=20, time=4),
    Message('control_change', channel=1, control=7, value=110, time=1969),
    Message('note_on', channel=1, note=82, velocity=92, time=0),
    Message('note_on', channel=1, note=78, velocity=92, time=0),
    Message('note_on', channel=1, note=75, velocity=92, time=0),
    Message('note_off', channel=1, note=75, velocity=0, time=96),
    Message('note_off', channel=1, note=78, velocity=0, time=0),
    Message('note_off', channel=1, note=82, velocity=0, time=0),
    Message('note_on', channel=1, note=81, velocity=92, time=0),
    Message('note_on', channel=1, note=77, velocity=92, time=0),
    Message('note_on', channel=1, note=74, velocity=92, time=0),
    Message('note_off', channel=1, note=74, velocity=0, time=16),
    Message('note_off', channel=1, note=77, velocity=0, time=0),
    Message('note_off', channel=1, note=81, velocity=0, time=0),
    Message('note_on', channel=1, note=80, velocity=92, time=32),
    Message('note_on', channel=1, note=76, velocity=92, time=0),
    Message('note_on', channel=1, note=73, velocity=92, time=0),
    Message('note_off', channel=1, note=80, velocity=0, time=16),
    Message('note_off', channel=1, note=76, velocity=0, time=0),
    Message('note_off', channel=1, note=73, velocity=0, time=0),
    Message('note_on', channel=1, note=81, velocity=92, time=32),
    Message('note_on', channel=1, note=77, velocity=92, time=0),
    Message('note_on', channel=1, note=74, velocity=92, time=0),
    Message('note_off', channel=1, note=81, velocity=0, time=24),
    Message('note_off', channel=1, note=77, velocity=0, time=0),
    Message('note_off', channel=1, note=74, velocity=0, time=0),
    Message('note_on', channel=1, note=77, velocity=92, time=72),
    Message('note_on', channel=1, note=74, velocity=92, time=0),
    Message('note_on', channel=1, note=69, velocity=92, time=0),
    Message('note_off', channel=1, note=77, velocity=0, time=24),
    Message('note_off', channel=1, note=74, velocity=0, time=0),
    Message('note_off', channel=1, note=69, velocity=0, time=0),
    Message('note_on', channel=1, note=69, velocity=92, time=456),
    Message('note_on', channel=1, note=65, velocity=92, time=0),
    Message('note_on', channel=1, note=62, velocity=92, time=0),
    Message('note_off', channel=1, note=69, velocity=0, time=47),
    Message('note_off', channel=1, note=65, velocity=0, time=0),
    Message('note_off', channel=1, note=62, velocity=0, time=0),
    Message('note_on', channel=1, note=74, velocity=92, time=49),
    Message('note_on', channel=1, note=69, velocity=92, time=0),
    Message('note_on', channel=1, note=65, velocity=92, time=0),
    Message('note_off', channel=1, note=74, velocity=0, time=16),
    Message('note_off', channel=1, note=69, velocity=0, time=0),
    Message('note_off', channel=1, note=65, velocity=0, time=0),
    Message('note_on', channel=1, note=77, velocity=92, time=32),
    Message('note_on', channel=1, note=74, velocity=92, time=0),
    Message('note_on', channel=1, note=69, velocity=92, time=0),
    Message('note_off', channel=1, note=77, velocity=0, time=16),
    Message('note_off', channel=1, note=74, velocity=0, time=0),
    Message('note_off', channel=1, note=69, velocity=0, time=0),
    Message('note_on', channel=1, note=80, velocity=92, time=32),
    Message('note_on', channel=1, note=76, velocity=92, time=0),
    Message('note_on', channel=1, note=73, velocity=92, time=0),
    Message('note_off', channel=1, note=73, velocity=0, time=168),
    Message('note_off', channel=1, note=76, velocity=0, time=0),
    Message('note_off', channel=1, note=80, velocity=0, time=0),
    Message('note_on', channel=1, note=84, velocity=92, time=408),
    Message('note_on', channel=1, note=80, velocity=92, time=0),
    Message('note_on', channel=1, note=77, velocity=92, time=0),
    Message('note_off', channel=1, note=84, velocity=0, time=96),
    Message('note_off', channel=1, note=80, velocity=0, time=0),
    Message('note_off', channel=1, note=77, velocity=0, time=0),
    Message('note_on', channel=1, note=82, velocity=92, time=0),
    Message('note_on', channel=1, note=78, velocity=92, time=0),
    Message('note_on', channel=1, note=75, velocity=92, time=0),
    Message('note_off', channel=1, note=75, velocity=0, time=16),
    Message('note_off', channel=1, note=78, velocity=0, time=0),
    Message('note_off', channel=1, note=82, velocity=0, time=0),
    Message('note_on', channel=1, note=81, velocity=92, time=32),
    Message('note_on', channel=1, note=77, velocity=92, time=0),
    Message('note_on', channel=1, note=74, velocity=92, time=0),
    Message('note_off', channel=1, note=81, velocity=0, time=16),
    Message('note_off', channel=1, note=77, velocity=0, time=0),
    Message('note_off', channel=1, note=74, velocity=0, time=0),
    Message('note_on', channel=1, note=82, velocity=92, time=32),
    Message('note_on', channel=1, note=78, velocity=92, time=0),
    Message('note_on', channel=1, note=75, velocity=92, time=0),
    Message('note_off', channel=1, note=82, velocity=0, time=24),
    Message('note_off', channel=1, note=78, velocity=0, time=0),
    Message('note_off', channel=1, note=75, velocity=0, time=0),
    Message('note_on', channel=1, note=75, velocity=92, time=72),
    Message('note_on', channel=1, note=70, velocity=92, time=0),
    Message('note_on', channel=1, note=66, velocity=92, time=0),
    Message('note_off', channel=1, note=75, velocity=0, time=24),
    Message('note_off', channel=1, note=70, velocity=0, time=0),
    Message('note_off', channel=1, note=66, velocity=0, time=0),
    Message('note_on', channel=1, note=74, velocity=92, time=360),
    Message('note_on', channel=1, note=69, velocity=92, time=0),
    Message('note_on', channel=1, note=65, velocity=92, time=0),
    Message('note_off', channel=1, note=74, velocity=0, time=24),
    Message('note_off', channel=1, note=69, velocity=0, time=0),
    Message('note_off', channel=1, note=65, velocity=0, time=0),
    Message('note_on', channel=1, note=77, velocity=92, time=72),
    Message('note_on', channel=1, note=74, velocity=92, time=0),
    Message('note_on', channel=1, note=69, velocity=92, time=0),
    Message('note_off', channel=1, note=77, velocity=0, time=168),
    Message('note_off', channel=1, note=74, velocity=0, time=0),
    Message('note_off', channel=1, note=69, velocity=0, time=0),
    Message('note_on', channel=1, note=73, velocity=92, time=24),
    Message('note_on', channel=1, note=69, velocity=92, time=0),
    Message('note_on', channel=1, note=67, velocity=92, time=0),
    Message('note_off', channel=1, note=73, velocity=0, time=168),
    Message('note_off', channel=1, note=69, velocity=0, time=0),
    Message('note_off', channel=1, note=67, velocity=0, time=0),
    Message('control_change', channel=1, control=7, value=100, time=600),
    Message('note_on', channel=1, note=70, velocity=75, time=0),
    Message('note_on', channel=1, note=61, velocity=75, time=144),
    Message('note_off', channel=1, note=61, velocity=0, time=72),
    Message('note_off', channel=1, note=70, velocity=0, time=0),
    Message('note_on', channel=1, note=72, velocity=75, time=0),
    Message('note_off', channel=1, note=72, velocity=0, time=24),
    Message('note_on', channel=1, note=73, velocity=75, time=0),
    Message('note_off', channel=1, note=73, velocity=0, time=24),
    Message('note_on', channel=1, note=75, velocity=75, time=0),
    Message('note_off', channel=1, note=75, velocity=0, time=23),
    Message('control_change', channel=1, control=7, value=110, time=145),
    Message('note_on', channel=1, note=88, velocity=92, time=0),
    Message('note_off', channel=1, note=88, velocity=0, time=12),
    Message('note_on', channel=1, note=86, velocity=92, time=0),
    Message('note_off', channel=1, note=86, velocity=0, time=12),
    Message('note_on', channel=1, note=84, velocity=92, time=0),
    Message('note_off', channel=1, note=84, velocity=0, time=12),
    Message('note_on', channel=1, note=83, velocity=92, time=0),
    Message('note_off', channel=1, note=83, velocity=0, time=12),
    Message('note_on', channel=1, note=81, velocity=92, time=0),
    Message('note_off', channel=1, note=81, velocity=0, time=16),
    Message('note_on', channel=1, note=73, velocity=92, time=656),
    Message('note_off', channel=1, note=73, velocity=0, time=80),
    Message('note_on', channel=1, note=69, velocity=92, time=16),
    Message('note_off', channel=1, note=69, velocity=0, time=47),
    Message('note_on', channel=1, note=73, velocity=92, time=1),
    Message('note_off', channel=1, note=73, velocity=0, time=80),
    Message('note_on', channel=1, note=69, velocity=92, time=16),
    Message('note_off', channel=1, note=69, velocity=0, time=47),
    Message('note_on', channel=1, note=74, velocity=92, time=1),
    Message('note_off', channel=1, note=74, velocity=0, time=80),
    Message('note_on', channel=1, note=73, velocity=92, time=16),
    Message('note_off', channel=1, note=73, velocity=0, time=47),
    Message('note_on', channel=1, note=72, velocity=92, time=1),
    Message('note_off', channel=1, note=72, velocity=0, time=264),
    Message('note_on', channel=1, note=77, velocity=92, time=24),
    Message('note_on', channel=1, note=65, velocity=92, time=0),
    Message('note_off', channel=1, note=77, velocity=0, time=80),
    Message('note_off', channel=1, note=65, velocity=0, time=0),
    Message('note_on', channel=1, note=76, velocity=92, time=16),
    Message('note_on', channel=1, note=64, velocity=92, time=0),
    Message('note_off', channel=1, note=64, velocity=0, time=48),
    Message('note_off', channel=1, note=76, velocity=0, time=0),
    Message('note_on', channel=1, note=75, velocity=92, time=0),
    Message('note_on', channel=1, note=63, velocity=92, time=0),
    Message('note_off', channel=1, note=63, velocity=0, time=16),
    Message('note_off', channel=1, note=75, velocity=0, time=0),
    Message('note_on', channel=1, note=79, velocity=92, time=704),
    Message('note_off', channel=1, note=79, velocity=0, time=16),
    Message('note_on', channel=1, note=78, velocity=92, time=32),
    Message('note_off', channel=1, note=78, velocity=0, time=16),
    Message('note_on', channel=1, note=76, velocity=92, time=32),
    Message('note_off', channel=1, note=76, velocity=0, time=16),
    Message('note_on', channel=1, note=75, velocity=92, time=32),
    Message('note_off', channel=1, note=75, velocity=0, time=16),
    Message('note_on', channel=1, note=76, velocity=92, time=32),
    Message('note_off', channel=1, note=76, velocity=0, time=16),
    Message('note_on', channel=1, note=78, velocity=92, time=32),
    Message('note_off', channel=1, note=78, velocity=0, time=16),
    Message('note_on', channel=1, note=83, velocity=92, time=32),
    Message('note_on', channel=1, note=71, velocity=92, time=0),
    Message('note_off', channel=1, note=71, velocity=0, time=24),
    Message('note_off', channel=1, note=83, velocity=0, time=0),
    Message('note_on', channel=1, note=82, velocity=92, time=0),
    Message('note_on', channel=1, note=70, velocity=92, time=0),
    Message('note_off', channel=1, note=70, velocity=0, time=23),
    Message('note_off', channel=1, note=82, velocity=0, time=0),
    Message('note_on', channel=1, note=75, velocity=92, time=385),
    Message('note_off', channel=1, note=75, velocity=0, time=16),
    Message('note_on', channel=1, note=76, velocity=92, time=32),
    Message('note_off', channel=1, note=76, velocity=0, time=16),
    Message('note_on', channel=1, note=78, velocity=92, time=32),
    Message('note_off', channel=1, note=78, velocity=0, time=16),
    Message('note_on', channel=1, note=83, velocity=92, time=32),
    Message('note_on', channel=1, note=71, velocity=92, time=0),
    Message('note_off', channel=1, note=83, velocity=0, time=24),
    Message('note_off', channel=1, note=71, velocity=0, time=0),
    Message('note_on', channel=1, note=82, velocity=92, time=0),
    Message('note_on', channel=1, note=70, velocity=92, time=0),
    Message('note_off', channel=1, note=70, velocity=0, time=23),
    Message('note_off', channel=1, note=82, velocity=0, time=0),
    Message('note_on', channel=1, note=63, velocity=92, time=1201),
    Message('note_off', channel=1, note=63, velocity=0, time=16),
    Message('note_on', channel=1, note=67, velocity=127, time=32),
    Message('note_off', channel=1, note=67, velocity=0, time=80),
    Message('note_on', channel=1, note=63, velocity=92, time=16),
    Message('note_off', channel=1, note=63, velocity=0, time=47),
    Message('note_on', channel=1, note=67, velocity=127, time=1),
    Message('note_off', channel=1, note=67, velocity=0, time=80),
    Message('note_on', channel=1, note=63, velocity=92, time=16),
    Message('note_off', channel=1, note=63, velocity=0, time=47),
    Message('note_on', channel=1, note=70, velocity=127, time=1),
    Message('note_off', channel=1, note=70, velocity=0, time=96),
    Message('note_on', channel=1, note=69, velocity=92, time=0),
    Message('note_off', channel=1, note=69, velocity=0, time=47),
    Message('note_on', channel=1, note=68, velocity=127, time=1),
    Message('note_off', channel=1, note=68, velocity=0, time=96),
    Message('note_on', channel=1, note=61, velocity=92, time=0),
    Message('note_off', channel=1, note=61, velocity=0, time=47),
    Message('note_on', channel=1, note=73, velocity=92, time=1),
    Message('note_off', channel=1, note=73, velocity=0, time=96),
    Message('note_on', channel=1, note=72, velocity=92, time=0),
    Message('note_off', channel=1, note=72, velocity=0, time=47),
    Message('note_on', channel=1, note=71, velocity=92, time=1),
    Message('note_off', channel=1, note=71, velocity=0, time=80),
    Message('note_on', channel=1, note=67, velocity=92, time=16),
    Message('note_off', channel=1, note=67, velocity=0, time=47),
    Message('note_on', channel=1, note=88, velocity=92, time=1),
    Message('note_on', channel=1, note=80, velocity=92, time=0),
    Message('note_off', channel=1, note=80, velocity=0, time=47),
    Message('note_off', channel=1, note=88, velocity=0, time=0),
    Message('note_on', channel=1, note=79, velocity=92, time=49),
    Message('note_on', channel=1, note=76, velocity=92, time=0),
    Message('note_on', channel=1, note=67, velocity=92, time=0),
    Message('note_off', channel=1, note=67, velocity=0, time=47),
    Message('note_off', channel=1, note=76, velocity=0, time=0),
    Message('note_off', channel=1, note=79, velocity=0, time=0),
    Message('note_on', channel=1, note=88, velocity=92, time=1),
    Message('note_on', channel=1, note=80, velocity=92, time=0),
    Message('note_off', channel=1, note=88, velocity=0, time=47),
    Message('note_off', channel=1, note=80, velocity=0, time=0),
    Message('note_on', channel=1, note=79, velocity=92, time=49),
    Message('note_on', channel=1, note=76, velocity=92, time=0),
    Message('note_on', channel=1, note=67, velocity=92, time=0),
    Message('note_off', channel=1, note=67, velocity=0, time=47),
    Message('note_off', channel=1, note=76, velocity=0, time=0),
    Message('note_off', channel=1, note=79, velocity=0, time=0),
    Message('note_on', channel=1, note=88, velocity=92, time=1),
    Message('note_on', channel=1, note=80, velocity=92, time=0),
    Message('note_off', channel=1, note=88, velocity=0, time=47),
    Message('note_off', channel=1, note=80, velocity=0, time=0),
    Message('note_on', channel=1, note=79, velocity=92, time=49),
    Message('note_on', channel=1, note=76, velocity=92, time=0),
    Message('note_on', channel=1, note=67, velocity=92, time=0),
    Message('note_off', channel=1, note=67, velocity=0, time=47),
    Message('note_off', channel=1, note=76, velocity=0, time=0),
    Message('note_off', channel=1, note=79, velocity=0, time=0),
    Message('note_on', channel=1, note=88, velocity=92, time=1),
    Message('note_on', channel=1, note=80, velocity=92, time=0),
    Message('note_off', channel=1, note=88, velocity=0, time=47),
    Message('note_off', channel=1, note=80, velocity=0, time=0),
    Message('note_on', channel=1, note=79, velocity=92, time=49),
    Message('note_on', channel=1, note=76, velocity=92, time=0),
    Message('note_on', channel=1, note=67, velocity=92, time=0),
    Message('note_off', channel=1, note=67, velocity=0, time=47),
    Message('note_off', channel=1, note=76, velocity=0, time=0),
    Message('note_off', channel=1, note=79, velocity=0, time=0),
    Message('note_on', channel=1, note=84, velocity=127, time=1),
    Message('note_on', channel=1, note=72, velocity=127, time=0),
    Message('note_off', channel=1, note=84, velocity=0, time=11),
    Message('note_off', channel=1, note=72, velocity=0, time=0),
    Message('note_on', channel=1, note=80, velocity=92, time=5),
    Message('note_off', channel=1, note=80, velocity=0, time=16),
    Message('note_on', channel=1, note=79, velocity=92, time=0),
    Message('note_off', channel=1, note=79, velocity=0, time=16),
    Message('note_on', channel=1, note=78, velocity=92, time=0),
    Message('note_off', channel=1, note=78, velocity=0, time=16),
    Message('note_on', channel=1, note=75, velocity=92, time=0),
    Message('note_off', channel=1, note=75, velocity=0, time=16),
    Message('note_on', channel=1, note=79, velocity=92, time=0),
    Message('note_on', channel=1, note=67, velocity=92, time=0),
    Message('note_off', channel=1, note=67, velocity=0, time=16),
    Message('note_off', channel=1, note=79, velocity=0, time=0),
    Message('note_on', channel=1, note=84, velocity=92, time=0),
    Message('note_on', channel=1, note=72, velocity=92, time=0),
    Message('note_off', channel=1, note=72, velocity=0, time=16),
    Message('note_off', channel=1, note=84, velocity=0, time=0),
    Message('note_on', channel=1, note=80, velocity=92, time=0),
    Message('note_off', channel=1, note=80, velocity=0, time=16),
    Message('note_on', channel=1, note=79, velocity=92, time=0),
    Message('note_off', channel=1, note=79, velocity=0, time=15),
    Message('note_on', channel=1, note=78, velocity=127, time=1),
    Message('note_off', channel=1, note=78, velocity=0, time=11),
    Message('note_on', channel=1, note=75, velocity=92, time=5),
    Message('note_off', channel=1, note=75, velocity=0, time=16),
    Message('note_on', channel=1, note=79, velocity=92, time=0),
    Message('note_on', channel=1, note=67, velocity=92, time=0),
    Message('note_off', channel=1, note=67, velocity=0, time=16),
    Message('note_off', channel=1, note=79, velocity=0, time=0),
    Message('note_on', channel=1, note=84, velocity=92, time=0),
    Message('note_on', channel=1, note=72, velocity=92, time=0),
    Message('note_off', channel=1, note=72, velocity=0, time=16),
    Message('note_off', channel=1, note=84, velocity=0, time=0),
    Message('note_on', channel=1, note=80, velocity=92, time=0),
    Message('note_off', channel=1, note=80, velocity=0, time=16),
    Message('note_on', channel=1, note=79, velocity=92, time=0),
    Message('note_off', channel=1, note=79, velocity=0, time=16),
    Message('note_on', channel=1, note=78, velocity=92, time=0),
    Message('note_off', channel=1, note=78, velocity=0, time=16),
    Message('note_on', channel=1, note=75, velocity=92, time=0),
    Message('note_off', channel=1, note=75, velocity=0, time=16),
    Message('note_on', channel=1, note=79, velocity=92, time=0),
    Message('note_on', channel=1, note=67, velocity=92, time=0),
    Message('note_off', channel=1, note=67, velocity=0, time=15),
    Message('note_off', channel=1, note=79, velocity=0, time=0),
    Message('control_change', channel=1, control=7, value=100, time=1),
    Message('note_on', channel=1, note=78, velocity=105, time=0),
    Message('note_on', channel=1, note=66, velocity=105, time=0),
    Message('note_off', channel=1, note=66, velocity=0, time=10),
    Message('note_off', channel=1, note=78, velocity=0, time=0),
    Message('note_on', channel=1, note=82, velocity=75, time=6),
    Message('note_on', channel=1, note=70, velocity=75, time=0),
    Message('note_off', channel=1, note=70, velocity=0, time=15),
    Message('note_off', channel=1, note=82, velocity=0, time=0),
    Message('note_on', channel=1, note=75, velocity=75, time=1),
    Message('note_off', channel=1, note=75, velocity=0, time=15),
    Message('note_on', channel=1, note=79, velocity=75, time=1),
    Message('control_change', channel=1, control=7, value=101, time=19),
    Message('control_change', channel=1, control=7, value=102, time=19),
    Message('control_change', channel=1, control=7, value=103, time=19),
    Message('control_change', channel=1, control=7, value=104, time=19),
    Message('control_change', channel=1, control=7, value=105, time=20),
    Message('control_change', channel=1, control=7, value=106, time=19),
    Message('control_change', channel=1, control=7, value=107, time=19),
    Message('control_change', channel=1, control=7, value=108, time=19),
    Message('control_change', channel=1, control=7, value=109, time=19),
    Message('control_change', channel=1, control=7, value=110, time=20),
    Message('control_change', channel=1, control=7, value=111, time=19),
    Message('control_change', channel=1, control=7, value=112, time=19),
    Message('control_change', channel=1, control=7, value=113, time=19),
    Message('control_change', channel=1, control=7, value=114, time=19),
    Message('control_change', channel=1, control=7, value=115, time=20),
    Message('control_change', channel=1, control=7, value=116, time=19),
    Message('control_change', channel=1, control=7, value=117, time=19),
    Message('control_change', channel=1, control=7, value=118, time=19),
    Message('control_change', channel=1, control=7, value=119, time=19),
    Message('note_off', channel=1, note=79, velocity=0, time=4),
    Message('control_change', channel=1, control=7, value=120, time=16),
    Message('note_on', channel=1, note=84, velocity=127, time=0),
    Message('note_on', channel=1, note=72, velocity=127, time=0),
    Message('note_off', channel=1, note=72, velocity=0, time=24),
    Message('note_off', channel=1, note=84, velocity=0, time=0),
    Message('control_change', channel=1, control=7, value=100, time=1128),
    Message('note_on', channel=1, note=78, velocity=75, time=0),
    Message('note_on', channel=1, note=66, velocity=75, time=0),
    Message('note_off', channel=1, note=78, velocity=0, time=15),
    Message('note_off', channel=1, note=66, velocity=0, time=0),
    Message('note_on', channel=1, note=82, velocity=76, time=1),
    Message('note_on', channel=1, note=70, velocity=76, time=0),
    Message('control_change', channel=1, control=7, value=101, time=5),
    Message('note_off', channel=1, note=82, velocity=0, time=10),
    Message('note_off', channel=1, note=70, velocity=0, time=0),
    Message('note_on', channel=1, note=75, velocity=77, time=1),
    Message('control_change', channel=1, control=7, value=102, time=11),
    Message('note_off', channel=1, note=75, velocity=0, time=4),
    Message('note_on', channel=1, note=78, velocity=78, time=1),
    Message('control_change', channel=1, control=7, value=103, time=16),
    Message('control_change', channel=1, control=7, value=104, time=22),
    Message('control_change', channel=1, control=7, value=105, time=22),
    Message('control_change', channel=1, control=7, value=106, time=21),
    Message('control_change', channel=1, control=7, value=107, time=22),
    Message('control_change', channel=1, control=7, value=108, time=21),
    Message('control_change', channel=1, control=7, value=109, time=22),
    Message('control_change', channel=1, control=7, value=110, time=22),
    Message('control_change', channel=1, control=7, value=111, time=21),
    Message('control_change', channel=1, control=7, value=112, time=22),
    Message('control_change', channel=1, control=7, value=113, time=21),
    Message('control_change', channel=1, control=7, value=114, time=22),
    Message('control_change', channel=1, control=7, value=115, time=22),
    Message('control_change', channel=1, control=7, value=116, time=21),
    Message('control_change', channel=1, control=7, value=117, time=22),
    Message('control_change', channel=1, control=7, value=118, time=21),
    Message('note_off', channel=1, note=78, velocity=0, time=20),
    Message('control_change', channel=1, control=7, value=119, time=2),
    Message('control_change', channel=1, control=7, value=120, time=22),
    Message('note_on', channel=1, note=72, velocity=127, time=0),
    Message('note_on', channel=1, note=67, velocity=127, time=0),
    Message('note_on', channel=1, note=60, velocity=127, time=0),
    Message('note_off', channel=1, note=60, velocity=0, time=47),
    Message('note_off', channel=1, note=72, velocity=0, time=0),
    Message('note_off', channel=1, note=67, velocity=0, time=0),
    Message('control_change', channel=1, control=101, value=0, time=1249),
    Message('control_change', channel=1, control=100, value=0, time=0),
    Message('control_change', channel=1, control=6, value=12, time=0),
    Message('control_change', channel=1, control=10, value=64, time=0),
    Message('control_change', channel=1, control=7, value=120, time=0),
    Message('pitchwheel', channel=1, pitch=0, time=0),
    Message('program_change', channel=1, program=68, time=0),
    Message('program_change', channel=1, program=68, time=0),
    Message('control_change', channel=1, control=7, value=127, time=0),
    Message('control_change', channel=1, control=10, value=64, time=0),
    Message('control_change', channel=1, control=101, value=0, time=1),
    Message('control_change', channel=1, control=100, value=0, time=0),
    Message('control_change', channel=1, control=6, value=12, time=0),
    Message('control_change', channel=1, control=10, value=64, time=0),
    Message('control_change', channel=1, control=7, value=120, time=0),
    Message('pitchwheel', channel=1, pitch=0, time=0),
    Message('program_change', channel=1, program=68, time=0),
    MetaMessage('end_of_track', time=0)]),
  MidiTrack([
    MetaMessage('track_name', name='Oboe #2', time=0),
    Message('control_change', channel=1, control=10, value=64, time=0),
    Message('control_change', channel=1, control=7, value=127, time=0),
    Message('pitchwheel', channel=1, pitch=0, time=0),
    Message('control_change', channel=1, control=101, value=0, time=0),
    Message('control_change', channel=1, control=100, value=0, time=0),
    Message('control_change', channel=1, control=6, value=12, time=0),
    Message('control_change', channel=1, control=10, value=64, time=0),
    Message('control_change', channel=1, control=7, value=127, time=0),
    Message('pitchwheel', channel=1, pitch=0, time=0),
    Message('program_change', channel=1, program=68, time=0),
    Message('program_change', channel=1, program=68, time=0),
    Message('control_change', channel=1, control=7, value=127, time=0),
    Message('control_change', channel=1, control=10, value=64, time=0),
    Message('control_change', channel=1, control=101, value=0, time=0),
    Message('control_change', channel=1, control=100, value=0, time=0),
    Message('control_change', channel=1, control=6, value=12, time=0),
    Message('control_change', channel=1, control=10, value=64, time=0),
    Message('control_change', channel=1, control=7, value=127, time=0),
    Message('pitchwheel', channel=1, pitch=0, time=0),
    Message('program_change', channel=1, program=68, time=0),
    Message('program_change', channel=1, program=68, time=0),
    Message('control_change', channel=1, control=7, value=127, time=0),
    Message('control_change', channel=1, control=10, value=64, time=0),
    Message('control_change', channel=1, control=101, value=0, time=0),
    Message('control_change', channel=1, control=100, value=0, time=0),
    Message('control_change', channel=1, control=6, value=12, time=0),
    Message('control_change', channel=1, control=10, value=64, time=0),
    Message('control_change', channel=1, control=7, value=127, time=0),
    Message('pitchwheel', channel=1, pitch=0, time=0),
    Message('program_change', channel=1, program=68, time=0),
    Message('control_change', channel=1, control=7, value=90, time=6048),
    Message('note_on', channel=1, note=59, velocity=60, time=0),
    Message('note_off', channel=1, note=59, velocity=0, time=47),
    Message('note_on', channel=1, note=64, velocity=60, time=1),
    Message('note_off', channel=1, note=64, velocity=0, time=71),
    Message('note_on', channel=1, note=67, velocity=60, time=1),
    Message('note_off', channel=1, note=67, velocity=0, time=23),
    Message('note_on', channel=1, note=66, velocity=60, time=1),
    Message('note_off', channel=1, note=66, velocity=0, time=47),
    Message('note_on', channel=1, note=64, velocity=60, time=1),
    Message('note_off', channel=1, note=64, velocity=0, time=80),
    Message('note_on', channel=1, note=71, velocity=60, time=16),
    Message('note_off', channel=1, note=71, velocity=0, time=47),
    Message('note_on', channel=1, note=69, velocity=60, time=1),
    Message('note_off', channel=1, note=69, velocity=0, time=128),
    Message('note_on', channel=1, note=66, velocity=60, time=16),
    Message('note_off', channel=1, note=66, velocity=0, time=128),
    Message('note_on', channel=1, note=64, velocity=60, time=16),
    Message('note_off', channel=1, note=64, velocity=0, time=71),
    Message('note_on', channel=1, note=67, velocity=60, time=1),
    Message('note_off', channel=1, note=67, velocity=0, time=23),
    Message('note_on', channel=1, note=66, velocity=60, time=1),
    Message('note_off', channel=1, note=66, velocity=0, time=47),
    Message('note_on', channel=1, note=62, velocity=60, time=1),
    Message('note_off', channel=1, note=62, velocity=0, time=80),
    Message('note_on', channel=1, note=65, velocity=60, time=16),
    Message('note_off', channel=1, note=65, velocity=0, time=47),
    Message('note_on', channel=1, note=59, velocity=60, time=1),
    Message('note_off', channel=1, note=59, velocity=0, time=191),
    Message('note_on', channel=1, note=59, velocity=60, time=49),
    Message('note_off', channel=1, note=59, velocity=0, time=47),
    Message('note_on', channel=1, note=64, velocity=60, time=1),
    Message('note_off', channel=1, note=64, velocity=0, time=71),
    Message('note_on', channel=1, note=67, velocity=60, time=1),
    Message('note_off', channel=1, note=67, velocity=0, time=23),
    Message('note_on', channel=1, note=66, velocity=60, time=1),
    Message('note_off', channel=1, note=66, velocity=0, time=47),
    Message('note_on', channel=1, note=64, velocity=60, time=1),
    Message('note_off', channel=1, note=64, velocity=0, time=80),
    Message('note_on', channel=1, note=71, velocity=60, time=16),
    Message('note_off', channel=1, note=71, velocity=0, time=47),
    Message('note_on', channel=1, note=74, velocity=60, time=1),
    Message('note_off', channel=1, note=74, velocity=0, time=80),
    Message('note_on', channel=1, note=73, velocity=60, time=16),
    Message('note_off', channel=1, note=73, velocity=0, time=47),
    Message('note_on', channel=1, note=72, velocity=60, time=1),
    Message('note_off', channel=1, note=72, velocity=0, time=80),
    Message('note_on', channel=1, note=68, velocity=60, time=16),
    Message('note_off', channel=1, note=68, velocity=0, time=47),
    Message('note_on', channel=1, note=72, velocity=60, time=1),
    Message('note_off', channel=1, note=72, velocity=0, time=71),
    Message('note_on', channel=1, note=71, velocity=60, time=1),
    Message('note_off', channel=1, note=71, velocity=0, time=23),
    Message('note_on', channel=1, note=70, velocity=60, time=1),
    Message('note_off', channel=1, note=70, velocity=0, time=47),
    Message('note_on', channel=1, note=58, velocity=60, time=1),
    Message('note_off', channel=1, note=58, velocity=0, time=80),
    Message('note_on', channel=1, note=67, velocity=60, time=16),
    Message('note_off', channel=1, note=67, velocity=0, time=47),
    Message('note_on', channel=1, note=64, velocity=60, time=1),
    Message('note_off', channel=1, note=64, velocity=0, time=224),
    Message('note_on', channel=1, note=67, velocity=60, time=16),
    Message('note_off', channel=1, note=67, velocity=0, time=47),
    Message('note_on', channel=1, note=71, velocity=60, time=1),
    Message('note_off', channel=1, note=71, velocity=0, time=80),
    Message('note_on', channel=1, note=67, velocity=60, time=16),
    Message('note_off', channel=1, note=67, velocity=0, time=47),
    Message('note_on', channel=1, note=71, velocity=60, time=1),
    Message('note_off', channel=1, note=71, velocity=0, time=80),
    Message('note_on', channel=1, note=67, velocity=60, time=16),
    Message('note_off', channel=1, note=67, velocity=0, time=47),
    Message('control_change', channel=1, control=7, value=100, time=1969),
    Message('note_on', channel=1, note=59, velocity=75, time=0),
    Message('note_off', channel=1, note=59, velocity=0, time=47),
    Message('note_on', channel=1, note=64, velocity=75, time=1),
    Message('note_off', channel=1, note=64, velocity=0, time=71),
    Message('note_on', channel=1, note=67, velocity=75, time=1),
    Message('note_off', channel=1, note=67, velocity=0, time=23),
    Message('note_on', channel=1, note=66, velocity=75, time=1),
    Message('note_off', channel=1, note=66, velocity=0, time=47),
    Message('note_on', channel=1, note=64, velocity=75, time=1),
    Message('note_off', channel=1, note=64, velocity=0, time=80),
    Message('note_on', channel=1, note=71, velocity=75, time=16),
    Message('note_off', channel=1, note=71, velocity=0, time=47),
    Message('note_on', channel=1, note=69, velocity=75, time=1),
    Message('note_off', channel=1, note=69, velocity=0, time=128),
    Message('note_on', channel=1, note=66, velocity=75, time=16),
    Message('note_off', channel=1, note=66, velocity=0, time=128),
    Message('note_on', channel=1, note=64, velocity=75, time=16),
    Message('note_off', channel=1, note=64, velocity=0, time=71),
    Message('note_on', channel=1, note=67, velocity=75, time=1),
    Message('note_off', channel=1, note=67, velocity=0, time=23),
    Message('note_on', channel=1, note=66, velocity=75, time=1),
    Message('note_off', channel=1, note=66, velocity=0, time=47),
    Message('note_on', channel=1, note=62, velocity=75, time=1),
    Message('note_off', channel=1, note=62, velocity=0, time=80),
    Message('note_on', channel=1, note=65, velocity=75, time=16),
    Message('note_off', channel=1, note=65, velocity=0, time=47),
    Message('note_on', channel=1, note=59, velocity=75, time=1),
    Message('note_off', channel=1, note=59, velocity=0, time=224),
    Message('note_on', channel=1, note=59, velocity=75, time=16),
    Message('note_off', channel=1, note=59, velocity=0, time=47),
    Message('note_on', channel=1, note=64, velocity=75, time=1),
    Message('note_off', channel=1, note=64, velocity=0, time=71),
    Message('note_on', channel=1, note=67, velocity=75, time=1),
    Message('note_off', channel=1, note=67, velocity=0, time=23),
    Message('note_on', channel=1, note=66, velocity=75, time=1),
    Message('note_off', channel=1, note=66, velocity=0, time=47),
    Message('note_on', channel=1, note=64, velocity=75, time=1),
    Message('note_off', channel=1, note=64, velocity=0, time=80),
    Message('note_on', channel=1, note=71, velocity=75, time=16),
    Message('note_off', channel=1, note=71, velocity=0, time=47),
    Message('note_on', channel=1, note=74, velocity=75, time=1),
    Message('note_off', channel=1, note=74, velocity=0, time=80),
    Message('note_on', channel=1, note=73, velocity=75, time=16),
    Message('note_off', channel=1, note=73, velocity=0, time=47),
    Message('note_on', channel=1, note=72, velocity=75, time=1),
    Message('note_off', channel=1, note=72, velocity=0, time=80),
    Message('note_on', channel=1, note=68, velocity=75, time=16),
    Message('note_off', channel=1, note=68, velocity=0, time=47),
    Message('note_on', channel=1, note=72, velocity=75, time=1),
    Message('note_off', channel=1, note=72, velocity=0, time=71),
    Message('note_on', channel=1, note=71, velocity=75, time=1),
    Message('note_off', channel=1, note=71, velocity=0, time=23),
    Message('note_on', channel=1, note=70, velocity=75, time=1),
    Message('note_off', channel=1, note=70, velocity=0, time=47),
    Message('note_on', channel=1, note=58, velocity=75, time=1),
    Message('note_off', channel=1, note=58, velocity=0, time=80),
    Message('note_on', channel=1, note=67, velocity=75, time=16),
    Message('note_off', channel=1, note=67, velocity=0, time=47),
    Message('note_on', channel=1, note=64, velocity=75, time=1),
    Message('note_off', channel=1, note=64, velocity=0, time=191),
    Message('note_on', channel=1, note=71, velocity=75, time=145),
    Message('note_off', channel=1, note=71, velocity=0, time=16),
    Message('note_on', channel=1, note=71, velocity=75, time=32),
    Message('note_off', channel=1, note=71, velocity=0, time=16),
    Message('note_on', channel=1, note=71, velocity=75, time=32),
    Message('note_off', channel=1, note=71, velocity=0, time=16),
    Message('note_on', channel=1, note=71, velocity=75, time=32),
    Message('note_off', channel=1, note=71, velocity=0, time=16),
    Message('note_on', channel=1, note=71, velocity=75, time=32),
    Message('note_off', channel=1, note=71, velocity=0, time=16),
    Message('note_on', channel=1, note=71, velocity=75, time=32),
    Message('note_off', channel=1, note=71, velocity=0, time=16),
    Message('note_on', channel=1, note=70, velocity=75, time=32),
    Message('note_off', channel=1, note=70, velocity=0, time=16),
    Message('note_on', channel=1, note=71, velocity=75, time=32),
    Message('note_off', channel=1, note=71, velocity=0, time=16),
    Message('note_on', channel=1, note=72, velocity=75, time=32),
    Message('note_off', channel=1, note=72, velocity=0, time=96),
    Message('note_on', channel=1, note=71, velocity=75, time=0),
    Message('note_off', channel=1, note=71, velocity=0, time=16),
    Message('note_on', channel=1, note=70, velocity=75, time=32),
    Message('note_off', channel=1, note=70, velocity=0, time=16),
    Message('note_on', channel=1, note=71, velocity=75, time=32),
    Message('note_off', channel=1, note=71, velocity=0, time=24),
    Message('note_on', channel=1, note=67, velocity=75, time=72),
    Message('note_off', channel=1, note=67, velocity=0, time=24),
    Message('note_on', channel=1, note=69, velocity=75, time=72),
    Message('note_off', channel=1, note=69, velocity=0, time=96),
    Message('note_on', channel=1, note=69, velocity=75, time=0),
    Message('note_off', channel=1, note=69, velocity=0, time=16),
    Message('note_on', channel=1, note=68, velocity=75, time=32),
    Message('note_off', channel=1, note=68, velocity=0, time=16),
    Message('note_on', channel=1, note=69, velocity=75, time=32),
    Message('note_off', channel=1, note=69, velocity=0, time=24),
    Message('note_on', channel=1, note=60, velocity=75, time=72),
    Message('note_off', channel=1, note=60, velocity=0, time=96),
    Message('note_on', channel=1, note=59, velocity=75, time=0),
    Message('note_off', channel=1, note=59, velocity=0, time=16),
    Message('note_on', channel=1, note=64, velocity=75, time=80),
    Message('note_off', channel=1, note=64, velocity=0, time=16),
    Message('note_on', channel=1, note=67, velocity=75, time=32),
    Message('note_off', channel=1, note=67, velocity=0, time=16),
    Message('note_on', channel=1, note=70, velocity=105, time=32),
    Message('note_off', channel=1, note=70, velocity=0, time=168),
    Message('note_on', channel=1, note=71, velocity=75, time=24),
    Message('note_off', channel=1, note=71, velocity=0, time=16),
    Message('note_on', channel=1, note=71, velocity=75, time=32),
    Message('note_off', channel=1, note=71, velocity=0, time=16),
    Message('note_on', channel=1, note=71, velocity=75, time=32),
    Message('note_off', channel=1, note=71, velocity=0, time=16),
    Message('note_on', channel=1, note=71, velocity=75, time=32),
    Message('note_off', channel=1, note=71, velocity=0, time=16),
    Message('note_on', channel=1, note=71, velocity=75, time=32),
    Message('note_off', channel=1, note=71, velocity=0, time=16),
    Message('note_on', channel=1, note=71, velocity=75, time=32),
    Message('note_off', channel=1, note=71, velocity=0, time=16),
    Message('note_on', channel=1, note=70, velocity=75, time=32),
    Message('note_off', channel=1, note=70, velocity=0, time=16),
    Message('note_on', channel=1, note=71, velocity=75, time=32),
    Message('note_off', channel=1, note=71, velocity=0, time=48),
    Message('note_on', channel=1, note=74, velocity=75, time=0),
    Message('note_off', channel=1, note=74, velocity=0, time=96),
    Message('note_on', channel=1, note=72, velocity=75, time=0),
    Message('note_off', channel=1, note=72, velocity=0, time=16),
    Message('note_on', channel=1, note=71, velocity=75, time=32),
    Message('note_off', channel=1, note=71, velocity=0, time=16),
    Message('note_on', channel=1, note=72, velocity=75, time=32),
    Message('note_off', channel=1, note=72, velocity=0, time=24),
    Message('note_on', channel=1, note=65, velocity=75, time=72),
    Message('note_off', channel=1, note=65, velocity=0, time=24),
    Message('note_on', channel=1, note=72, velocity=75, time=72),
    Message('note_off', channel=1, note=72, velocity=0, time=96),
    Message('note_on', channel=1, note=71, velocity=75, time=0),
    Message('note_off', channel=1, note=71, velocity=0, time=16),
    Message('note_on', channel=1, note=70, velocity=75, time=32),
    Message('note_off', channel=1, note=70, velocity=0, time=16),
    Message('note_on', channel=1, note=71, velocity=75, time=32),
    Message('note_off', channel=1, note=71, velocity=0, time=24),
    Message('note_on', channel=1, note=64, velocity=75, time=72),
    Message('note_off', channel=1, note=64, velocity=0, time=96),
    Message('note_on', channel=1, note=67, velocity=75, time=0),
    Message('note_off', channel=1, note=67, velocity=0, time=168),
    Message('note_on', channel=1, note=63, velocity=75, time=24),
    Message('note_off', channel=1, note=63, velocity=0, time=168),
    Message('note_on', channel=1, note=69, velocity=75, time=24),
    Message('note_off', channel=1, note=69, velocity=0, time=16),
    Message('note_on', channel=1, note=69, velocity=75, time=32),
    Message('note_off', channel=1, note=69, velocity=0, time=16),
    Message('note_on', channel=1, note=69, velocity=75, time=32),
    Message('note_off', channel=1, note=69, velocity=0, time=16),
    Message('note_on', channel=1, note=69, velocity=75, time=32),
    Message('note_off', channel=1, note=69, velocity=0, time=16),
    Message('note_on', channel=1, note=69, velocity=75, time=32),
    Message('note_off', channel=1, note=69, velocity=0, time=16),
    Message('note_on', channel=1, note=69, velocity=75, time=32),
    Message('note_off', channel=1, note=69, velocity=0, time=16),
    Message('note_on', channel=1, note=68, velocity=75, time=32),
    Message('note_off', channel=1, note=68, velocity=0, time=16),
    Message('note_on', channel=1, note=69, velocity=75, time=32),
    Message('note_off', channel=1, note=69, velocity=0, time=16),
    Message('note_on', channel=1, note=70, velocity=75, time=32),
    Message('note_off', channel=1, note=70, velocity=0, time=96),
    Message('note_on', channel=1, note=69, velocity=75, time=0),
    Message('note_off', channel=1, note=69, velocity=0, time=16),
    Message('note_on', channel=1, note=68, velocity=75, time=32),
    Message('note_off', channel=1, note=68, velocity=0, time=16),
    Message('note_on', channel=1, note=69, velocity=75, time=32),
    Message('note_off', channel=1, note=69, velocity=0, time=24),
    Message('note_on', channel=1, note=64, velocity=75, time=72),
    Message('note_off', channel=1, note=64, velocity=0, time=24),
    Message('note_on', channel=1, note=65, velocity=75, time=72),
    Message('note_off', channel=1, note=65, velocity=0, time=96),
    Message('note_on', channel=1, note=65, velocity=75, time=0),
    Message('note_off', channel=1, note=65, velocity=0, time=16),
    Message('note_on', channel=1, note=64, velocity=75, time=32),
    Message('note_off', channel=1, note=64, velocity=0, time=16),
    Message('note_on', channel=1, note=65, velocity=75, time=32),
    Message('note_off', channel=1, note=65, velocity=0, time=24),
    Message('note_on', channel=1, note=57, velocity=75, time=72),
    Message('note_off', channel=1, note=57, velocity=0, time=96),
    Message('note_on', channel=1, note=57, velocity=75, time=0),
    Message('note_off', channel=1, note=57, velocity=0, time=16),
    Message('note_on', channel=1, note=60, velocity=75, time=80),
    Message('note_off', channel=1, note=60, velocity=0, time=16),
    Message('note_on', channel=1, note=64, velocity=75, time=32),
    Message('note_off', channel=1, note=64, velocity=0, time=16),
    Message('note_on', channel=1, note=68, velocity=105, time=32),
    Message('note_off', channel=1, note=68, velocity=0, time=168),
    Message('note_on', channel=1, note=69, velocity=75, time=24),
    Message('note_off', channel=1, note=69, velocity=0, time=16),
    Message('note_on', channel=1, note=69, velocity=75, time=32),
    Message('note_off', channel=1, note=69, velocity=0, time=16),
    Message('note_on', channel=1, note=69, velocity=75, time=32),
    Message('note_off', channel=1, note=69, velocity=0, time=16),
    Message('note_on', channel=1, note=69, velocity=75, time=32),
    Message('note_off', channel=1, note=69, velocity=0, time=16),
    Message('note_on', channel=1, note=69, velocity=75, time=32),
    Message('note_off', channel=1, note=69, velocity=0, time=16),
    Message('note_on', channel=1, note=69, velocity=75, time=32),
    Message('note_off', channel=1, note=69, velocity=0, time=16),
    Message('note_on', channel=1, note=68, velocity=75, time=32),
    Message('note_off', channel=1, note=68, velocity=0, time=16),
    Message('note_on', channel=1, note=69, velocity=75, time=32),
    Message('note_off', channel=1, note=69, velocity=0, time=48),
    Message('note_on', channel=1, note=72, velocity=75, time=0),
    Message('note_off', channel=1, note=72, velocity=0, time=96),
    Message('note_on', channel=1, note=70, velocity=75, time=0),
    Message('note_off', channel=1, note=70, velocity=0, time=16),
    Message('note_on', channel=1, note=69, velocity=75, time=32),
    Message('note_off', channel=1, note=69, velocity=0, time=16),
    Message('note_on', channel=1, note=70, velocity=75, time=32),
    Message('note_off', channel=1, note=70, velocity=0, time=24),
    Message('note_on', channel=1, note=61, velocity=75, time=72),
    Message('note_off', channel=1, note=61, velocity=0, time=96),
    Message('note_on', channel=1, note=70, velocity=75, time=0),
    Message('note_off', channel=1, note=70, velocity=0, time=96),
    Message('note_on', channel=1, note=69, velocity=75, time=0),
    Message('note_off', channel=1, note=69, velocity=0, time=16),
    Message('note_on', channel=1, note=68, velocity=75, time=32),
    Message('note_off', channel=1, note=68, velocity=0, time=16),
    Message('note_on', channel=1, note=69, velocity=75, time=32),
    Message('note_off', channel=1, note=69, velocity=0, time=24),
    Message('note_on', channel=1, note=60, velocity=75, time=72),
    Message('note_off', channel=1, note=60, velocity=0, time=96),
    Message('note_on', channel=1, note=65, velocity=75, time=0),
    Message('control_change', channel=1, control=7, value=99, time=6),
    Message('control_change', channel=1, control=7, value=98, time=6),
    Message('control_change', channel=1, control=7, value=97, time=7),
    Message('control_change', channel=1, control=7, value=96, time=6),
    Message('control_change', channel=1, control=7, value=95, time=7),
    Message('control_change', channel=1, control=7, value=94, time=6),
    Message('control_change', channel=1, control=7, value=93, time=6),
    Message('control_change', channel=1, control=7, value=92, time=7),
    Message('control_change', channel=1, control=7, value=91, time=6),
    Message('control_change', channel=1, control=7, value=90, time=7),
    Message('control_change', channel=1, control=7, value=89, time=6),
    Message('control_change', channel=1, control=7, value=88, time=6),
    Message('control_change', channel=1, control=7, value=87, time=7),
    Message('control_change', channel=1, control=7, value=86, time=6),
    Message('control_change', channel=1, control=7, value=85, time=7),
    Message('control_change', channel=1, control=7, value=84, time=6),
    Message('control_change', channel=1, control=7, value=83, time=6),
    Message('control_change', channel=1, control=7, value=82, time=7),
    Message('control_change', channel=1, control=7, value=81, time=6),
    Message('control_change', channel=1, control=7, value=80, time=7),
    Message('control_change', channel=1, control=7, value=79, time=6),
    Message('control_change', channel=1, control=7, value=78, time=6),
    Message('control_change', channel=1, control=7, value=77, time=7),
    Message('control_change', channel=1, control=7, value=76, time=6),
    Message('control_change', channel=1, control=7, value=75, time=7),
    Message('control_change', channel=1, control=7, value=74, time=6),
    Message('note_off', channel=1, note=65, velocity=0, time=2),
    Message('control_change', channel=1, control=7, value=73, time=4),
    Message('control_change', channel=1, control=7, value=72, time=7),
    Message('control_change', channel=1, control=7, value=71, time=6),
    Message('control_change', channel=1, control=7, value=70, time=7),
    Message('note_on', channel=1, note=56, velocity=43, time=0),
    Message('control_change', channel=1, control=7, value=69, time=6),
    Message('control_change', channel=1, control=7, value=68, time=6),
    Message('control_change', channel=1, control=7, value=67, time=7),
    Message('control_change', channel=1, control=7, value=66, time=6),
    Message('control_change', channel=1, control=7, value=65, time=7),
    Message('control_change', channel=1, control=7, value=64, time=6),
    Message('control_change', channel=1, control=7, value=63, time=6),
    Message('control_change', channel=1, control=7, value=62, time=7),
    Message('control_change', channel=1, control=7, value=61, time=6),
    Message('control_change', channel=1, control=7, value=60, time=7),
    Message('control_change', channel=1, control=7, value=59, time=6),
    Message('control_change', channel=1, control=7, value=58, time=6),
    Message('control_change', channel=1, control=7, value=57, time=7),
    Message('control_change', channel=1, control=7, value=56, time=6),
    Message('control_change', channel=1, control=7, value=55, time=7),
    Message('control_change', channel=1, control=7, value=54, time=6),
    Message('control_change', channel=1, control=7, value=53, time=6),
    Message('control_change', channel=1, control=7, value=52, time=7),
    Message('control_change', channel=1, control=7, value=51, time=6),
    Message('control_change', channel=1, control=7, value=50, time=7),
    Message('control_change', channel=1, control=7, value=49, time=6),
    Message('control_change', channel=1, control=7, value=48, time=6),
    Message('control_change', channel=1, control=7, value=47, time=7),
    Message('control_change', channel=1, control=7, value=46, time=6),
    Message('control_change', channel=1, control=7, value=45, time=7),
    Message('control_change', channel=1, control=7, value=44, time=6),
    Message('note_off', channel=1, note=56, velocity=0, time=2),
    Message('control_change', channel=1, control=7, value=43, time=4),
    Message('control_change', channel=1, control=7, value=42, time=7),
    Message('control_change', channel=1, control=7, value=41, time=6),
    Message('control_change', channel=1, control=7, value=40, time=7),
    Message('control_change', channel=1, control=7, value=110, time=13728),
    Message('note_on', channel=1, note=64, velocity=92, time=0),
    Message('note_off', channel=1, note=64, velocity=0, time=96),
    Message('note_on', channel=1, note=72, velocity=92, time=0),
    Message('note_off', channel=1, note=72, velocity=0, time=96),
    Message('note_on', channel=1, note=71, velocity=92, time=0),
    Message('note_off', channel=1, note=71, velocity=0, time=48),
    Message('note_on', channel=1, note=72, velocity=92, time=0),
    Message('note_off', channel=1, note=72, velocity=0, time=48),
    Message('note_on', channel=1, note=74, velocity=92, time=0),
    Message('note_off', channel=1, note=74, velocity=0, time=80),
    Message('note_on', channel=1, note=63, velocity=92, time=592),
    Message('note_off', channel=1, note=63, velocity=0, time=24),
    Message('note_on', channel=1, note=67, velocity=92, time=0),
    Message('note_off', channel=1, note=67, velocity=0, time=24),
    Message('note_on', channel=1, note=72, velocity=92, time=0),
    Message('note_off', channel=1, note=72, velocity=0, time=24),
    Message('note_on', channel=1, note=75, velocity=92, time=0),
    Message('note_off', channel=1, note=75, velocity=0, time=24),
    Message('note_on', channel=1, note=77, velocity=92, time=0),
    Message('note_off', channel=1, note=77, velocity=0, time=47),
    Message('note_on', channel=1, note=62, velocity=92, time=49),
    Message('note_off', channel=1, note=62, velocity=0, time=24),
    Message('note_on', channel=1, note=67, velocity=92, time=0),
    Message('note_off', channel=1, note=67, velocity=0, time=24),
    Message('note_on', channel=1, note=71, velocity=92, time=0),
    Message('note_off', channel=1, note=71, velocity=0, time=24),
    Message('note_on', channel=1, note=74, velocity=92, time=0),
    Message('note_off', channel=1, note=74, velocity=0, time=24),
    Message('control_change', channel=1, control=7, value=100, time=288),
    Message('note_on', channel=1, note=65, velocity=75, time=0),
    Message('note_off', channel=1, note=65, velocity=0, time=16),
    Message('note_on', channel=1, note=67, velocity=75, time=32),
    Message('note_off', channel=1, note=67, velocity=0, time=16),
    Message('note_on', channel=1, note=68, velocity=75, time=32),
    Message('note_off', channel=1, note=68, velocity=0, time=48),
    Message('note_on', channel=1, note=67, velocity=75, time=0),
    Message('note_off', channel=1, note=67, velocity=0, time=47),
    Message('note_on', channel=1, note=65, velocity=75, time=1),
    Message('note_off', channel=1, note=65, velocity=0, time=16),
    Message('note_on', channel=1, note=63, velocity=75, time=32),
    Message('note_off', channel=1, note=63, velocity=0, time=16),
    Message('note_on', channel=1, note=62, velocity=75, time=32),
    Message('note_off', channel=1, note=62, velocity=0, time=48),
    Message('note_on', channel=1, note=60, velocity=75, time=0),
    Message('note_off', channel=1, note=60, velocity=0, time=16),
    Message('note_on', channel=1, note=58, velocity=75, time=800),
    Message('note_off', channel=1, note=58, velocity=0, time=47),
    Message('note_on', channel=1, note=60, velocity=75, time=49),
    Message('note_off', channel=1, note=60, velocity=0, time=47),
    Message('note_on', channel=1, note=62, velocity=75, time=49),
    Message('note_off', channel=1, note=62, velocity=0, time=47),
    Message('note_on', channel=1, note=63, velocity=75, time=49),
    Message('note_off', channel=1, note=63, velocity=0, time=47),
    Message('note_on', channel=1, note=65, velocity=75, time=49),
    Message('note_off', channel=1, note=65, velocity=0, time=47),
    Message('note_on', channel=1, note=74, velocity=75, time=817),
    Message('note_off', channel=1, note=74, velocity=0, time=32),
    Message('note_on', channel=1, note=67, velocity=75, time=0),
    Message('note_off', channel=1, note=67, velocity=0, time=32),
    Message('note_on', channel=1, note=75, velocity=75, time=0),
    Message('note_off', channel=1, note=75, velocity=0, time=32),
    Message('note_on', channel=1, note=74, velocity=75, time=0),
    Message('note_off', channel=1, note=74, velocity=0, time=32),
    Message('note_on', channel=1, note=72, velocity=75, time=0),
    Message('note_off', channel=1, note=72, velocity=0, time=32),
    Message('note_on', channel=1, note=71, velocity=75, time=0),
    Message('note_off', channel=1, note=71, velocity=0, time=31),
    Message('note_on', channel=1, note=61, velocity=75, time=5473),
    Message('note_off', channel=1, note=61, velocity=0, time=80),
    Message('note_on', channel=1, note=56, velocity=75, time=400),
    Message('note_off', channel=1, note=56, velocity=0, time=80),
    Message('note_on', channel=1, note=61, velocity=75, time=16),
    Message('note_off', channel=1, note=61, velocity=0, time=80),
    Message('note_on', channel=1, note=64, velocity=75, time=16),
    Message('note_off', channel=1, note=64, velocity=0, time=80),
    Message('note_on', channel=1, note=68, velocity=75, time=16),
    Message('note_off', channel=1, note=68, velocity=0, time=80),
    Message('note_on', channel=1, note=73, velocity=75, time=16),
    Message('note_off', channel=1, note=73, velocity=0, time=47),
    Message('note_on', channel=1, note=59, velocity=75, time=1393),
    Message('note_off', channel=1, note=59, velocity=0, time=16),
    Message('note_on', channel=1, note=61, velocity=75, time=32),
    Message('note_off', channel=1, note=61, velocity=0, time=16),
    Message('note_on', channel=1, note=62, velocity=75, time=32),
    Message('note_off', channel=1, note=62, velocity=0, time=192),
    Message('note_on', channel=1, note=55, velocity=75, time=0),
    Message('control_change', channel=1, control=7, value=99, time=7),
    Message('control_change', channel=1, control=7, value=98, time=7),
    Message('control_change', channel=1, control=7, value=97, time=7),
    Message('control_change', channel=1, control=7, value=96, time=7),
    Message('control_change', channel=1, control=7, value=95, time=7),
    Message('control_change', channel=1, control=7, value=94, time=8),
    Message('control_change', channel=1, control=7, value=93, time=7),
    Message('control_change', channel=1, control=7, value=92, time=7),
    Message('control_change', channel=1, control=7, value=91, time=7),
    Message('control_change', channel=1, control=7, value=90, time=7),
    Message('control_change', channel=1, control=7, value=89, time=8),
    Message('control_change', channel=1, control=7, value=88, time=7),
    Message('control_change', channel=1, control=7, value=87, time=7),
    Message('control_change', channel=1, control=7, value=86, time=7),
    Message('control_change', channel=1, control=7, value=85, time=7),
    Message('control_change', channel=1, control=7, value=84, time=8),
    Message('control_change', channel=1, control=7, value=83, time=7),
    Message('note_off', channel=1, note=55, velocity=0, time=6),
    Message('control_change', channel=1, control=7, value=82, time=1),
    Message('control_change', channel=1, control=7, value=81, time=7),
    Message('control_change', channel=1, control=7, value=80, time=7),
    Message('control_change', channel=1, control=7, value=100, time=5713),
    Message('note_on', channel=1, note=64, velocity=75, time=0),
    Message('note_off', channel=1, note=64, velocity=0, time=12),
    Message('note_on', channel=1, note=62, velocity=75, time=0),
    Message('note_off', channel=1, note=62, velocity=0, time=12),
    Message('note_on', channel=1, note=60, velocity=75, time=0),
    Message('note_off', channel=1, note=60, velocity=0, time=12),
    Message('note_on', channel=1, note=59, velocity=75, time=0),
    Message('note_off', channel=1, note=59, velocity=0, time=12),
    Message('note_on', channel=1, note=57, velocity=75, time=0),
    Message('note_off', channel=1, note=57, velocity=0, time=47),
    Message('control_change', channel=1, control=101, value=0, time=8209),
    Message('control_change', channel=1, control=100, value=0, time=0),
    Message('control_change', channel=1, control=6, value=12, time=0),
    Message('control_change', channel=1, control=10, value=64, time=0),
    Message('control_change', channel=1, control=7, value=100, time=0),
    Message('pitchwheel', channel=1, pitch=0, time=0),
    Message('program_change', channel=1, program=68, time=0),
    Message('program_change', channel=1, program=68, time=0),
    Message('control_change', channel=1, control=7, value=127, time=0),
    Message('control_change', channel=1, control=10, value=64, time=0),
    Message('control_change', channel=1, control=101, value=0, time=1),
    Message('control_change', channel=1, control=100, value=0, time=0),
    Message('control_change', channel=1, control=6, value=12, time=0),
    Message('control_change', channel=1, control=10, value=64, time=0),
    Message('control_change', channel=1, control=7, value=100, time=0),
    Message('pitchwheel', channel=1, pitch=0, time=0),
    Message('program_change', channel=1, program=68, time=0),
    MetaMessage('end_of_track', time=0)]),
  MidiTrack([
    MetaMessage('track_name', name='Bassoon', time=0),
    Message('control_change', channel=4, control=10, value=64, time=0),
    Message('control_change', channel=4, control=7, value=127, time=0),
    Message('pitchwheel', channel=4, pitch=0, time=0),
    Message('control_change', channel=4, control=101, value=0, time=0),
    Message('control_change', channel=4, control=100, value=0, time=0),
    Message('control_change', channel=4, control=6, value=12, time=0),
    Message('control_change', channel=4, control=10, value=64, time=0),
    Message('control_change', channel=4, control=7, value=127, time=0),
    Message('pitchwheel', channel=4, pitch=0, time=0),
    Message('program_change', channel=4, program=70, time=0),
    Message('program_change', channel=4, program=70, time=0),
    Message('control_change', channel=4, control=7, value=127, time=0),
    Message('control_change', channel=4, control=10, value=64, time=0),
    Message('control_change', channel=4, control=101, value=0, time=0),
    Message('control_change', channel=4, control=100, value=0, time=0),
    Message('control_change', channel=4, control=6, value=12, time=0),
    Message('control_change', channel=4, control=10, value=64, time=0),
    Message('control_change', channel=4, control=7, value=127, time=0),
    Message('pitchwheel', channel=4, pitch=0, time=0),
    Message('program_change', channel=4, program=70, time=0),
    Message('program_change', channel=4, program=70, time=0),
    Message('control_change', channel=4, control=7, value=127, time=0),
    Message('control_change', channel=4, control=10, value=64, time=0),
    Message('control_change', channel=4, control=101, value=0, time=0),
    Message('control_change', channel=4, control=100, value=0, time=0),
    Message('control_change', channel=4, control=6, value=12, time=0),
    Message('control_change', channel=4, control=10, value=64, time=0),
    Message('control_change', channel=4, control=7, value=127, time=0),
    Message('pitchwheel', channel=4, pitch=0, time=0),
    Message('program_change', channel=4, program=70, time=0),
    Message('control_change', channel=4, control=7, value=90, time=6048),
    Message('note_on', channel=4, note=59, velocity=60, time=0),
    Message('note_off', channel=4, note=59, velocity=0, time=47),
    Message('note_on', channel=4, note=64, velocity=60, time=1),
    Message('note_off', channel=4, note=64, velocity=0, time=71),
    Message('note_on', channel=4, note=67, velocity=60, time=1),
    Message('note_off', channel=4, note=67, velocity=0, time=23),
    Message('note_on', channel=4, note=66, velocity=60, time=1),
    Message('note_off', channel=4, note=66, velocity=0, time=47),
    Message('note_on', channel=4, note=64, velocity=60, time=1),
    Message('note_off', channel=4, note=64, velocity=0, time=80),
    Message('note_on', channel=4, note=71, velocity=60, time=16),
    Message('note_off', channel=4, note=71, velocity=0, time=47),
    Message('note_on', channel=4, note=69, velocity=60, time=1),
    Message('note_off', channel=4, note=69, velocity=0, time=128),
    Message('note_on', channel=4, note=66, velocity=60, time=16),
    Message('note_off', channel=4, note=66, velocity=0, time=128),
    Message('note_on', channel=4, note=64, velocity=60, time=16),
    Message('note_off', channel=4, note=64, velocity=0, time=71),
    Message('note_on', channel=4, note=67, velocity=60, time=1),
    Message('note_off', channel=4, note=67, velocity=0, time=23),
    Message('note_on', channel=4, note=66, velocity=60, time=1),
    Message('note_off', channel=4, note=66, velocity=0, time=47),
    Message('note_on', channel=4, note=62, velocity=60, time=1),
    Message('note_off', channel=4, note=62, velocity=0, time=80),
    Message('note_on', channel=4, note=65, velocity=60, time=16),
    Message('note_off', channel=4, note=65, velocity=0, time=47),
    Message('note_on', channel=4, note=59, velocity=60, time=1),
    Message('note_off', channel=4, note=59, velocity=0, time=191),
    Message('note_on', channel=4, note=59, velocity=60, time=49),
    Message('note_off', channel=4, note=59, velocity=0, time=47),
    Message('note_on', channel=4, note=64, velocity=60, time=1),
    Message('note_off', channel=4, note=64, velocity=0, time=71),
    Message('note_on', channel=4, note=67, velocity=60, time=1),
    Message('note_off', channel=4, note=67, velocity=0, time=23),
    Message('note_on', channel=4, note=66, velocity=60, time=1),
    Message('note_off', channel=4, note=66, velocity=0, time=47),
    Message('note_on', channel=4, note=64, velocity=60, time=1),
    Message('note_off', channel=4, note=64, velocity=0, time=80),
    Message('note_on', channel=4, note=71, velocity=60, time=16),
    Message('note_off', channel=4, note=71, velocity=0, time=47),
    Message('note_on', channel=4, note=74, velocity=60, time=1),
    Message('note_off', channel=4, note=74, velocity=0, time=80),
    Message('note_on', channel=4, note=73, velocity=60, time=16),
    Message('note_off', channel=4, note=73, velocity=0, time=47),
    Message('note_on', channel=4, note=72, velocity=60, time=1),
    Message('note_off', channel=4, note=72, velocity=0, time=80),
    Message('note_on', channel=4, note=68, velocity=60, time=16),
    Message('note_off', channel=4, note=68, velocity=0, time=47),
    Message('note_on', channel=4, note=72, velocity=60, time=1),
    Message('note_off', channel=4, note=72, velocity=0, time=71),
    Message('note_on', channel=4, note=71, velocity=60, time=1),
    Message('note_off', channel=4, note=71, velocity=0, time=23),
    Message('note_on', channel=4, note=70, velocity=60, time=1),
    Message('note_off', channel=4, note=70, velocity=0, time=47),
    Message('note_on', channel=4, note=58, velocity=60, time=1),
    Message('note_off', channel=4, note=58, velocity=0, time=80),
    Message('note_on', channel=4, note=67, velocity=60, time=16),
    Message('note_off', channel=4, note=67, velocity=0, time=47),
    Message('note_on', channel=4, note=64, velocity=60, time=1),
    Message('note_off', channel=4, note=64, velocity=0, time=224),
    Message('note_on', channel=4, note=67, velocity=60, time=16),
    Message('note_off', channel=4, note=67, velocity=0, time=47),
    Message('note_on', channel=4, note=71, velocity=60, time=1),
    Message('note_off', channel=4, note=71, velocity=0, time=80),
    Message('note_on', channel=4, note=67, velocity=60, time=16),
    Message('note_off', channel=4, note=67, velocity=0, time=47),
    Message('note_on', channel=4, note=71, velocity=60, time=1),
    Message('note_off', channel=4, note=71, velocity=0, time=80),
    Message('note_on', channel=4, note=67, velocity=60, time=16),
    Message('note_off', channel=4, note=67, velocity=0, time=47),
    Message('note_on', channel=4, note=72, velocity=60, time=1),
    Message('note_off', channel=4, note=72, velocity=0, time=80),
    Message('note_on', channel=4, note=71, velocity=60, time=16),
    Message('note_off', channel=4, note=71, velocity=0, time=47),
    Message('note_on', channel=4, note=70, velocity=60, time=1),
    Message('note_off', channel=4, note=70, velocity=0, time=80),
    Message('note_on', channel=4, note=66, velocity=60, time=16),
    Message('note_off', channel=4, note=66, velocity=0, time=47),
    Message('note_on', channel=4, note=67, velocity=60, time=1),
    Message('note_off', channel=4, note=67, velocity=0, time=71),
    Message('note_on', channel=4, note=71, velocity=60, time=1),
    Message('note_off', channel=4, note=71, velocity=0, time=23),
    Message('note_on', channel=4, note=70, velocity=60, time=1),
    Message('note_off', channel=4, note=70, velocity=0, time=47),
    Message('note_on', channel=4, note=58, velocity=60, time=1),
    Message('note_off', channel=4, note=58, velocity=0, time=80),
    Message('note_on', channel=4, note=60, velocity=60, time=16),
    Message('note_off', channel=4, note=60, velocity=0, time=47),
    Message('note_on', channel=4, note=71, velocity=60, time=1),
    Message('note_off', channel=4, note=71, velocity=0, time=224),
    Message('note_on', channel=4, note=67, velocity=60, time=16),
    Message('note_off', channel=4, note=67, velocity=0, time=47),
    Message('note_on', channel=4, note=71, velocity=60, time=1),
    Message('note_off', channel=4, note=71, velocity=0, time=80),
    Message('note_on', channel=4, note=67, velocity=60, time=16),
    Message('note_off', channel=4, note=67, velocity=0, time=47),
    Message('note_on', channel=4, note=71, velocity=60, time=1),
    Message('note_off', channel=4, note=71, velocity=0, time=80),
    Message('note_on', channel=4, note=67, velocity=60, time=16),
    Message('note_off', channel=4, note=67, velocity=0, time=47),
    Message('note_on', channel=4, note=74, velocity=60, time=1),
    Message('note_off', channel=4, note=74, velocity=0, time=80),
    Message('note_on', channel=4, note=73, velocity=60, time=16),
    Message('note_off', channel=4, note=73, velocity=0, time=47),
    Message('note_on', channel=4, note=72, velocity=60, time=1),
    Message('note_off', channel=4, note=72, velocity=0, time=80),
    Message('note_on', channel=4, note=68, velocity=60, time=16),
    Message('note_off', channel=4, note=68, velocity=0, time=47),
    Message('note_on', channel=4, note=72, velocity=60, time=1),
    Message('note_off', channel=4, note=72, velocity=0, time=71),
    Message('note_on', channel=4, note=71, velocity=60, time=1),
    Message('note_off', channel=4, note=71, velocity=0, time=23),
    Message('note_on', channel=4, note=70, velocity=60, time=1),
    Message('note_off', channel=4, note=70, velocity=0, time=47),
    Message('note_on', channel=4, note=58, velocity=60, time=1),
    Message('note_off', channel=4, note=58, velocity=0, time=80),
    Message('note_on', channel=4, note=67, velocity=60, time=16),
    Message('note_off', channel=4, note=67, velocity=0, time=47),
    Message('note_on', channel=4, note=64, velocity=60, time=1),
    Message('control_change', channel=4, control=7, value=89, time=7),
    Message('control_change', channel=4, control=7, value=88, time=7),
    Message('control_change', channel=4, control=7, value=87, time=7),
    Message('control_change', channel=4, control=7, value=86, time=7),
    Message('control_change', channel=4, control=7, value=85, time=7),
    Message('control_change', channel=4, control=7, value=84, time=8),
    Message('control_change', channel=4, control=7, value=83, time=7),
    Message('control_change', channel=4, control=7, value=82, time=7),
    Message('control_change', channel=4, control=7, value=81, time=7),
    Message('control_change', channel=4, control=7, value=80, time=7),
    Message('control_change', channel=4, control=7, value=79, time=8),
    Message('control_change', channel=4, control=7, value=78, time=7),
    Message('control_change', channel=4, control=7, value=77, time=7),
    Message('control_change', channel=4, control=7, value=76, time=7),
    Message('control_change', channel=4, control=7, value=75, time=7),
    Message('control_change', channel=4, control=7, value=74, time=8),
    Message('control_change', channel=4, control=7, value=73, time=7),
    Message('control_change', channel=4, control=7, value=72, time=7),
    Message('control_change', channel=4, control=7, value=71, time=7),
    Message('control_change', channel=4, control=7, value=70, time=7),
    Message('note_off', channel=4, note=64, velocity=0, time=48),
    Message('control_change', channel=4, control=7, value=100, time=2449),
    Message('note_on', channel=4, note=67, velocity=75, time=0),
    Message('note_off', channel=4, note=67, velocity=0, time=16),
    Message('note_on', channel=4, note=67, velocity=75, time=32),
    Message('note_off', channel=4, note=67, velocity=0, time=16),
    Message('note_on', channel=4, note=67, velocity=75, time=32),
    Message('note_off', channel=4, note=67, velocity=0, time=16),
    Message('note_on', channel=4, note=67, velocity=75, time=32),
    Message('note_off', channel=4, note=67, velocity=0, time=16),
    Message('note_on', channel=4, note=67, velocity=75, time=32),
    Message('note_off', channel=4, note=67, velocity=0, time=16),
    Message('note_on', channel=4, note=67, velocity=75, time=32),
    Message('note_off', channel=4, note=67, velocity=0, time=16),
    Message('note_on', channel=4, note=66, velocity=75, time=32),
    Message('note_off', channel=4, note=66, velocity=0, time=16),
    Message('note_on', channel=4, note=67, velocity=75, time=32),
    Message('note_off', channel=4, note=67, velocity=0, time=16),
    Message('note_on', channel=4, note=68, velocity=75, time=32),
    Message('note_off', channel=4, note=68, velocity=0, time=96),
    Message('note_on', channel=4, note=67, velocity=75, time=0),
    Message('note_off', channel=4, note=67, velocity=0, time=16),
    Message('note_on', channel=4, note=66, velocity=75, time=32),
    Message('note_off', channel=4, note=66, velocity=0, time=16),
    Message('note_on', channel=4, note=67, velocity=75, time=32),
    Message('note_off', channel=4, note=67, velocity=0, time=24),
    Message('note_on', channel=4, note=64, velocity=75, time=72),
    Message('note_off', channel=4, note=64, velocity=0, time=24),
    Message('note_on', channel=4, note=64, velocity=75, time=72),
    Message('note_off', channel=4, note=64, velocity=0, time=96),
    Message('note_on', channel=4, note=64, velocity=75, time=0),
    Message('note_off', channel=4, note=64, velocity=0, time=16),
    Message('note_on', channel=4, note=63, velocity=75, time=32),
    Message('note_off', channel=4, note=63, velocity=0, time=16),
    Message('note_on', channel=4, note=64, velocity=75, time=32),
    Message('note_off', channel=4, note=64, velocity=0, time=24),
    Message('note_on', channel=4, note=57, velocity=75, time=72),
    Message('note_off', channel=4, note=57, velocity=0, time=96),
    Message('note_on', channel=4, note=55, velocity=75, time=0),
    Message('note_off', channel=4, note=55, velocity=0, time=16),
    Message('note_on', channel=4, note=59, velocity=75, time=80),
    Message('note_off', channel=4, note=59, velocity=0, time=16),
    Message('note_on', channel=4, note=64, velocity=75, time=32),
    Message('note_off', channel=4, note=64, velocity=0, time=16),
    Message('note_on', channel=4, note=66, velocity=105, time=32),
    Message('note_off', channel=4, note=66, velocity=0, time=168),
    Message('note_on', channel=4, note=67, velocity=75, time=24),
    Message('note_off', channel=4, note=67, velocity=0, time=16),
    Message('note_on', channel=4, note=67, velocity=75, time=32),
    Message('note_off', channel=4, note=67, velocity=0, time=16),
    Message('note_on', channel=4, note=67, velocity=75, time=32),
    Message('note_off', channel=4, note=67, velocity=0, time=16),
    Message('note_on', channel=4, note=67, velocity=75, time=32),
    Message('note_off', channel=4, note=67, velocity=0, time=16),
    Message('note_on', channel=4, note=67, velocity=75, time=32),
    Message('note_off', channel=4, note=67, velocity=0, time=16),
    Message('note_on', channel=4, note=67, velocity=75, time=32),
    Message('note_off', channel=4, note=67, velocity=0, time=16),
    Message('note_on', channel=4, note=66, velocity=75, time=32),
    Message('note_off', channel=4, note=66, velocity=0, time=16),
    Message('note_on', channel=4, note=67, velocity=75, time=32),
    Message('note_off', channel=4, note=67, velocity=0, time=48),
    Message('note_on', channel=4, note=70, velocity=75, time=0),
    Message('note_off', channel=4, note=70, velocity=0, time=96),
    Message('note_on', channel=4, note=68, velocity=75, time=0),
    Message('note_off', channel=4, note=68, velocity=0, time=16),
    Message('note_on', channel=4, note=67, velocity=75, time=32),
    Message('note_off', channel=4, note=67, velocity=0, time=16),
    Message('note_on', channel=4, note=68, velocity=75, time=32),
    Message('note_off', channel=4, note=68, velocity=0, time=24),
    Message('note_on', channel=4, note=60, velocity=75, time=72),
    Message('note_off', channel=4, note=60, velocity=0, time=24),
    Message('note_on', channel=4, note=68, velocity=75, time=72),
    Message('note_off', channel=4, note=68, velocity=0, time=96),
    Message('note_on', channel=4, note=67, velocity=75, time=0),
    Message('note_off', channel=4, note=67, velocity=0, time=16),
    Message('note_on', channel=4, note=66, velocity=75, time=32),
    Message('note_off', channel=4, note=66, velocity=0, time=16),
    Message('note_on', channel=4, note=67, velocity=75, time=32),
    Message('note_off', channel=4, note=67, velocity=0, time=24),
    Message('note_on', channel=4, note=59, velocity=75, time=72),
    Message('note_off', channel=4, note=59, velocity=0, time=96),
    Message('note_on', channel=4, note=64, velocity=75, time=0),
    Message('note_off', channel=4, note=64, velocity=0, time=168),
    Message('note_on', channel=4, note=59, velocity=75, time=24),
    Message('note_off', channel=4, note=59, velocity=0, time=168),
    Message('note_on', channel=4, note=60, velocity=75, time=120),
    Message('note_off', channel=4, note=60, velocity=0, time=47),
    Message('control_change', channel=4, control=7, value=90, time=9841),
    Message('note_on', channel=4, note=52, velocity=60, time=0),
    Message('note_off', channel=4, note=52, velocity=0, time=24),
    Message('note_on', channel=4, note=50, velocity=60, time=0),
    Message('note_off', channel=4, note=50, velocity=0, time=24),
    Message('note_on', channel=4, note=48, velocity=60, time=0),
    Message('note_off', channel=4, note=48, velocity=0, time=24),
    Message('note_on', channel=4, note=47, velocity=60, time=0),
    Message('note_off', channel=4, note=47, velocity=0, time=24),
    Message('note_on', channel=4, note=45, velocity=60, time=0),
    Message('note_off', channel=4, note=45, velocity=0, time=47),
    Message('note_on', channel=4, note=57, velocity=60, time=49),
    Message('control_change', channel=4, control=7, value=91, time=14),
    Message('note_off', channel=4, note=57, velocity=0, time=10),
    Message('note_on', channel=4, note=55, velocity=62, time=0),
    Message('control_change', channel=4, control=7, value=92, time=4),
    Message('control_change', channel=4, control=7, value=93, time=15),
    Message('note_off', channel=4, note=55, velocity=0, time=5),
    Message('note_on', channel=4, note=54, velocity=64, time=0),
    Message('control_change', channel=4, control=7, value=94, time=9),
    Message('control_change', channel=4, control=7, value=95, time=14),
    Message('note_off', channel=4, note=54, velocity=0, time=1),
    Message('note_on', channel=4, note=53, velocity=66, time=0),
    Message('control_change', channel=4, control=7, value=96, time=14),
    Message('note_off', channel=4, note=53, velocity=0, time=10),
    Message('note_on', channel=4, note=52, velocity=69, time=0),
    Message('control_change', channel=4, control=7, value=97, time=4),
    Message('control_change', channel=4, control=7, value=98, time=15),
    Message('control_change', channel=4, control=7, value=99, time=14),
    Message('note_off', channel=4, note=52, velocity=0, time=14),
    Message('control_change', channel=4, control=7, value=100, time=0),
    Message('note_on', channel=4, note=64, velocity=75, time=49),
    Message('note_off', channel=4, note=64, velocity=0, time=24),
    Message('note_on', channel=4, note=62, velocity=76, time=0),
    Message('control_change', channel=4, control=7, value=101, time=4),
    Message('note_off', channel=4, note=62, velocity=0, time=20),
    Message('note_on', channel=4, note=60, velocity=77, time=0),
    Message('control_change', channel=4, control=7, value=102, time=9),
    Message('note_off', channel=4, note=60, velocity=0, time=15),
    Message('note_on', channel=4, note=59, velocity=78, time=0),
    Message('control_change', channel=4, control=7, value=103, time=14),
    Message('note_off', channel=4, note=59, velocity=0, time=10),
    Message('note_on', channel=4, note=57, velocity=79, time=0),
    Message('control_change', channel=4, control=7, value=104, time=19),
    Message('note_off', channel=4, note=57, velocity=0, time=28),
    Message('control_change', channel=4, control=7, value=105, time=0),
    Message('control_change', channel=4, control=7, value=106, time=29),
    Message('control_change', channel=4, control=7, value=107, time=29),
    Message('control_change', channel=4, control=7, value=108, time=29),
    Message('control_change', channel=4, control=7, value=109, time=29),
    Message('control_change', channel=4, control=7, value=110, time=28),
    Message('note_on', channel=4, note=50, velocity=92, time=1),
    Message('control_change', channel=4, control=7, value=111, time=9),
    Message('control_change', channel=4, control=7, value=112, time=10),
    Message('note_off', channel=4, note=50, velocity=0, time=5),
    Message('note_on', channel=4, note=48, velocity=96, time=0),
    Message('control_change', channel=4, control=7, value=113, time=4),
    Message('control_change', channel=4, control=7, value=114, time=10),
    Message('note_off', channel=4, note=48, velocity=0, time=10),
    Message('control_change', channel=4, control=7, value=115, time=0),
    Message('note_on', channel=4, note=47, velocity=100, time=0),
    Message('control_change', channel=4, control=7, value=116, time=9),
    Message('control_change', channel=4, control=7, value=117, time=10),
    Message('note_off', channel=4, note=47, velocity=0, time=5),
    Message('note_on', channel=4, note=46, velocity=104, time=0),
    Message('control_change', channel=4, control=7, value=118, time=4),
    Message('control_change', channel=4, control=7, value=119, time=10),
    Message('note_off', channel=4, note=46, velocity=0, time=10),
    Message('control_change', channel=4, control=7, value=120, time=0),
    Message('note_on', channel=4, note=45, velocity=108, time=0),
    Message('note_off', channel=4, note=45, velocity=0, time=47),
    Message('control_change', channel=4, control=7, value=100, time=145),
    Message('note_on', channel=4, note=52, velocity=75, time=0),
    Message('note_on', channel=4, note=40, velocity=75, time=0),
    Message('control_change', channel=4, control=7, value=101, time=19),
    Message('control_change', channel=4, control=7, value=102, time=19),
    Message('control_change', channel=4, control=7, value=103, time=19),
    Message('control_change', channel=4, control=7, value=104, time=19),
    Message('control_change', channel=4, control=7, value=105, time=20),
    Message('control_change', channel=4, control=7, value=106, time=19),
    Message('control_change', channel=4, control=7, value=107, time=19),
    Message('control_change', channel=4, control=7, value=108, time=19),
    Message('note_off', channel=4, note=52, velocity=0, time=15),
    Message('note_off', channel=4, note=40, velocity=0, time=0),
    Message('control_change', channel=4, control=7, value=109, time=4),
    Message('control_change', channel=4, control=7, value=110, time=20),
    Message('note_on', channel=4, note=45, velocity=92, time=0),
    Message('note_off', channel=4, note=45, velocity=0, time=264),
    Message('note_on', channel=4, note=45, velocity=92, time=24),
    Message('note_off', channel=4, note=45, velocity=0, time=80),
    Message('note_on', channel=4, note=45, velocity=92, time=16),
    Message('note_off', channel=4, note=45, velocity=0, time=264),
    Message('note_on', channel=4, note=45, velocity=92, time=24),
    Message('note_off', channel=4, note=45, velocity=0, time=80),
    Message('note_on', channel=4, note=45, velocity=92, time=16),
    Message('note_off', channel=4, note=45, velocity=0, time=80),
    Message('note_on', channel=4, note=69, velocity=127, time=256),
    Message('note_off', channel=4, note=69, velocity=0, time=16),
    Message('note_on', channel=4, note=57, velocity=92, time=32),
    Message('note_off', channel=4, note=57, velocity=0, time=16),
    Message('note_on', channel=4, note=60, velocity=92, time=80),
    Message('note_off', channel=4, note=60, velocity=0, time=16),
    Message('note_on', channel=4, note=64, velocity=92, time=32),
    Message('note_off', channel=4, note=64, velocity=0, time=16),
    Message('note_on', channel=4, note=68, velocity=92, time=32),
    Message('note_off', channel=4, note=68, velocity=0, time=12),
    Message('note_on', channel=4, note=69, velocity=92, time=0),
    Message('note_off', channel=4, note=69, velocity=0, time=12),
    Message('note_on', channel=4, note=68, velocity=92, time=0),
    Message('note_off', channel=4, note=68, velocity=0, time=12),
    Message('note_on', channel=4, note=69, velocity=92, time=0),
    Message('note_off', channel=4, note=69, velocity=0, time=12),
    Message('note_on', channel=4, note=68, velocity=92, time=0),
    Message('note_off', channel=4, note=68, velocity=0, time=12),
    Message('note_on', channel=4, note=69, velocity=92, time=0),
    Message('note_off', channel=4, note=69, velocity=0, time=12),
    Message('note_on', channel=4, note=68, velocity=92, time=0),
    Message('note_off', channel=4, note=68, velocity=0, time=12),
    Message('note_on', channel=4, note=69, velocity=92, time=0),
    Message('note_off', channel=4, note=69, velocity=0, time=12),
    Message('note_on', channel=4, note=68, velocity=92, time=0),
    Message('note_off', channel=4, note=68, velocity=0, time=12),
    Message('note_on', channel=4, note=69, velocity=92, time=0),
    Message('note_off', channel=4, note=69, velocity=0, time=12),
    Message('note_on', channel=4, note=68, velocity=92, time=0),
    Message('note_off', channel=4, note=68, velocity=0, time=12),
    Message('note_on', channel=4, note=69, velocity=92, time=0),
    Message('note_off', channel=4, note=69, velocity=0, time=12),
    Message('note_on', channel=4, note=68, velocity=92, time=0),
    Message('note_off', channel=4, note=68, velocity=0, time=12),
    Message('note_on', channel=4, note=69, velocity=92, time=0),
    Message('note_off', channel=4, note=69, velocity=0, time=12),
    Message('note_on', channel=4, note=68, velocity=92, time=0),
    Message('note_off', channel=4, note=68, velocity=0, time=12),
    Message('note_on', channel=4, note=69, velocity=92, time=0),
    Message('note_off', channel=4, note=69, velocity=0, time=11),
    Message('note_on', channel=4, note=69, velocity=92, time=1),
    Message('note_off', channel=4, note=69, velocity=0, time=47),
    Message('note_on', channel=4, note=58, velocity=92, time=625),
    Message('note_off', channel=4, note=58, velocity=0, time=24),
    Message('note_on', channel=4, note=61, velocity=92, time=0),
    Message('note_off', channel=4, note=61, velocity=0, time=24),
    Message('note_on', channel=4, note=65, velocity=92, time=0),
    Message('note_off', channel=4, note=65, velocity=0, time=24),
    Message('note_on', channel=4, note=69, velocity=92, time=0),
    Message('note_off', channel=4, note=69, velocity=0, time=24),
    Message('note_on', channel=4, note=70, velocity=92, time=0),
    Message('note_off', channel=4, note=70, velocity=0, time=47),
    Message('note_on', channel=4, note=57, velocity=92, time=241),
    Message('note_off', channel=4, note=57, velocity=0, time=24),
    Message('note_on', channel=4, note=60, velocity=92, time=0),
    Message('note_off', channel=4, note=60, velocity=0, time=24),
    Message('note_on', channel=4, note=64, velocity=92, time=0),
    Message('note_off', channel=4, note=64, velocity=0, time=24),
    Message('note_on', channel=4, note=69, velocity=92, time=0),
    Message('note_off', channel=4, note=69, velocity=0, time=24),
    Message('note_on', channel=4, note=65, velocity=92, time=0),
    Message('note_off', channel=4, note=65, velocity=0, time=16),
    Message('note_on', channel=4, note=53, velocity=92, time=368),
    Message('note_on', channel=4, note=41, velocity=92, time=0),
    Message('note_off', channel=4, note=41, velocity=0, time=168),
    Message('note_off', channel=4, note=53, velocity=0, time=0),
    Message('note_on', channel=4, note=52, velocity=92, time=24),
    Message('note_on', channel=4, note=40, velocity=92, time=0),
    Message('note_off', channel=4, note=52, velocity=0, time=168),
    Message('note_off', channel=4, note=40, velocity=0, time=0),
    Message('control_change', channel=4, control=7, value=100, time=24),
    Message('note_on', channel=4, note=60, velocity=75, time=0),
    Message('note_off', channel=4, note=60, velocity=0, time=32),
    Message('note_on', channel=4, note=59, velocity=75, time=0),
    Message('note_off', channel=4, note=59, velocity=0, time=32),
    Message('note_on', channel=4, note=60, velocity=75, time=0),
    Message('note_off', channel=4, note=60, velocity=0, time=32),
    Message('note_on', channel=4, note=62, velocity=75, time=0),
    Message('note_off', channel=4, note=62, velocity=0, time=32),
    Message('note_on', channel=4, note=60, velocity=75, time=0),
    Message('note_off', channel=4, note=60, velocity=0, time=32),
    Message('note_on', channel=4, note=59, velocity=75, time=0),
    Message('note_off', channel=4, note=59, velocity=0, time=31),
    Message('note_on', channel=4, note=60, velocity=75, time=1),
    Message('note_off', channel=4, note=60, velocity=0, time=32),
    Message('note_on', channel=4, note=59, velocity=75, time=0),
    Message('note_off', channel=4, note=59, velocity=0, time=32),
    Message('note_on', channel=4, note=57, velocity=75, time=0),
    Message('note_off', channel=4, note=57, velocity=0, time=32),
    Message('note_on', channel=4, note=59, velocity=75, time=0),
    Message('note_off', channel=4, note=59, velocity=0, time=32),
    Message('note_on', channel=4, note=57, velocity=75, time=0),
    Message('note_off', channel=4, note=57, velocity=0, time=32),
    Message('note_on', channel=4, note=56, velocity=75, time=0),
    Message('note_off', channel=4, note=56, velocity=0, time=31),
    Message('note_on', channel=4, note=60, velocity=75, time=1),
    Message('note_off', channel=4, note=60, velocity=0, time=32),
    Message('note_on', channel=4, note=59, velocity=75, time=0),
    Message('note_off', channel=4, note=59, velocity=0, time=32),
    Message('note_on', channel=4, note=60, velocity=75, time=0),
    Message('note_off', channel=4, note=60, velocity=0, time=32),
    Message('note_on', channel=4, note=62, velocity=75, time=0),
    Message('note_off', channel=4, note=62, velocity=0, time=32),
    Message('note_on', channel=4, note=60, velocity=75, time=0),
    Message('note_off', channel=4, note=60, velocity=0, time=32),
    Message('note_on', channel=4, note=59, velocity=75, time=0),
    Message('note_off', channel=4, note=59, velocity=0, time=31),
    Message('note_on', channel=4, note=60, velocity=75, time=1),
    Message('note_off', channel=4, note=60, velocity=0, time=32),
    Message('note_on', channel=4, note=59, velocity=75, time=0),
    Message('note_off', channel=4, note=59, velocity=0, time=32),
    Message('note_on', channel=4, note=57, velocity=75, time=0),
    Message('note_off', channel=4, note=57, velocity=0, time=32),
    Message('note_on', channel=4, note=56, velocity=75, time=0),
    Message('note_off', channel=4, note=56, velocity=0, time=32),
    Message('note_on', channel=4, note=57, velocity=75, time=0),
    Message('note_off', channel=4, note=57, velocity=0, time=32),
    Message('note_on', channel=4, note=59, velocity=75, time=0),
    Message('note_off', channel=4, note=59, velocity=0, time=31),
    Message('note_on', channel=4, note=65, velocity=75, time=2977),
    Message('note_off', channel=4, note=65, velocity=0, time=16),
    Message('note_on', channel=4, note=67, velocity=75, time=32),
    Message('note_off', channel=4, note=67, velocity=0, time=16),
    Message('note_on', channel=4, note=68, velocity=75, time=32),
    Message('note_off', channel=4, note=68, velocity=0, time=48),
    Message('note_on', channel=4, note=67, velocity=75, time=0),
    Message('note_off', channel=4, note=67, velocity=0, time=47),
    Message('note_on', channel=4, note=65, velocity=75, time=1),
    Message('note_off', channel=4, note=65, velocity=0, time=16),
    Message('note_on', channel=4, note=63, velocity=75, time=32),
    Message('note_off', channel=4, note=63, velocity=0, time=16),
    Message('note_on', channel=4, note=62, velocity=75, time=32),
    Message('note_off', channel=4, note=62, velocity=0, time=48),
    Message('note_on', channel=4, note=60, velocity=75, time=0),
    Message('note_off', channel=4, note=60, velocity=0, time=16),
    Message('note_on', channel=4, note=53, velocity=75, time=32),
    Message('note_off', channel=4, note=53, velocity=0, time=16),
    Message('note_on', channel=4, note=55, velocity=75, time=32),
    Message('note_off', channel=4, note=55, velocity=0, time=16),
    Message('note_on', channel=4, note=56, velocity=75, time=32),
    Message('note_off', channel=4, note=56, velocity=0, time=48),
    Message('note_on', channel=4, note=55, velocity=75, time=0),
    Message('note_off', channel=4, note=55, velocity=0, time=47),
    Message('note_on', channel=4, note=53, velocity=75, time=1),
    Message('note_off', channel=4, note=53, velocity=0, time=16),
    Message('note_on', channel=4, note=51, velocity=75, time=32),
    Message('note_off', channel=4, note=51, velocity=0, time=16),
    Message('note_on', channel=4, note=50, velocity=75, time=32),
    Message('note_off', channel=4, note=50, velocity=0, time=48),
    Message('note_on', channel=4, note=48, velocity=75, time=0),
    Message('note_off', channel=4, note=48, velocity=0, time=16),
    Message('note_on', channel=4, note=41, velocity=75, time=32),
    Message('note_off', channel=4, note=41, velocity=0, time=16),
    Message('note_on', channel=4, note=43, velocity=75, time=32),
    Message('note_off', channel=4, note=43, velocity=0, time=16),
    Message('note_on', channel=4, note=44, velocity=75, time=32),
    Message('note_off', channel=4, note=44, velocity=0, time=48),
    Message('note_on', channel=4, note=43, velocity=75, time=0),
    Message('note_off', channel=4, note=43, velocity=0, time=47),
    Message('note_on', channel=4, note=41, velocity=75, time=1),
    Message('note_off', channel=4, note=41, velocity=0, time=16),
    Message('note_on', channel=4, note=39, velocity=75, time=32),
    Message('note_off', channel=4, note=39, velocity=0, time=16),
    Message('note_on', channel=4, note=38, velocity=75, time=32),
    Message('note_off', channel=4, note=38, velocity=0, time=48),
    Message('note_on', channel=4, note=36, velocity=75, time=0),
    Message('note_off', channel=4, note=36, velocity=0, time=16),
    Message('note_on', channel=4, note=53, velocity=75, time=224),
    Message('note_off', channel=4, note=53, velocity=0, time=32),
    Message('note_on', channel=4, note=51, velocity=75, time=0),
    Message('note_off', channel=4, note=51, velocity=0, time=32),
    Message('note_on', channel=4, note=50, velocity=75, time=0),
    Message('note_off', channel=4, note=50, velocity=0, time=31),
    Message('note_on', channel=4, note=55, velocity=105, time=1),
    Message('note_off', channel=4, note=55, velocity=0, time=32),
    Message('note_on', channel=4, note=53, velocity=75, time=0),
    Message('note_off', channel=4, note=53, velocity=0, time=32),
    Message('note_on', channel=4, note=51, velocity=75, time=0),
    Message('note_off', channel=4, note=51, velocity=0, time=32),
    Message('note_on', channel=4, note=50, velocity=75, time=0),
    Message('note_off', channel=4, note=50, velocity=0, time=32),
    Message('note_on', channel=4, note=48, velocity=75, time=0),
    Message('note_off', channel=4, note=48, velocity=0, time=32),
    Message('note_on', channel=4, note=47, velocity=75, time=0),
    Message('note_off', channel=4, note=47, velocity=0, time=31),
    Message('note_on', channel=4, note=60, velocity=75, time=97),
    Message('note_off', channel=4, note=60, velocity=0, time=32),
    Message('note_on', channel=4, note=58, velocity=75, time=0),
    Message('note_off', channel=4, note=58, velocity=0, time=32),
    Message('note_on', channel=4, note=56, velocity=75, time=0),
    Message('note_off', channel=4, note=56, velocity=0, time=31),
    Message('note_on', channel=4, note=55, velocity=105, time=1),
    Message('note_off', channel=4, note=55, velocity=0, time=32),
    Message('note_on', channel=4, note=53, velocity=75, time=0),
    Message('note_off', channel=4, note=53, velocity=0, time=32),
    Message('note_on', channel=4, note=51, velocity=75, time=0),
    Message('note_off', channel=4, note=51, velocity=0, time=32),
    Message('note_on', channel=4, note=50, velocity=75, time=0),
    Message('note_off', channel=4, note=50, velocity=0, time=32),
    Message('note_on', channel=4, note=48, velocity=75, time=0),
    Message('note_off', channel=4, note=48, velocity=0, time=32),
    Message('note_on', channel=4, note=47, velocity=75, time=0),
    Message('note_off', channel=4, note=47, velocity=0, time=31),
    Message('note_on', channel=4, note=44, velocity=105, time=1),
    Message('note_off', channel=4, note=44, velocity=0, time=32),
    Message('note_on', channel=4, note=43, velocity=75, time=0),
    Message('note_off', channel=4, note=43, velocity=0, time=32),
    Message('note_on', channel=4, note=41, velocity=75, time=0),
    Message('note_off', channel=4, note=41, velocity=0, time=31),
    Message('note_on', channel=4, note=41, velocity=75, time=97),
    Message('note_off', channel=4, note=41, velocity=0, time=32),
    Message('note_on', channel=4, note=39, velocity=75, time=0),
    Message('note_off', channel=4, note=39, velocity=0, time=32),
    Message('note_on', channel=4, note=38, velocity=75, time=0),
    Message('note_off', channel=4, note=38, velocity=0, time=31),
    Message('note_on', channel=4, note=53, velocity=75, time=193),
    Message('note_on', channel=4, note=41, velocity=75, time=0),
    Message('control_change', channel=4, control=7, value=101, time=14),
    Message('control_change', channel=4, control=7, value=102, time=14),
    Message('note_off', channel=4, note=53, velocity=0, time=4),
    Message('note_off', channel=4, note=41, velocity=0, time=0),
    Message('note_on', channel=4, note=51, velocity=78, time=0),
    Message('note_on', channel=4, note=39, velocity=78, time=0),
    Message('control_change', channel=4, control=7, value=103, time=11),
    Message('control_change', channel=4, control=7, value=104, time=14),
    Message('note_off', channel=4, note=39, velocity=0, time=7),
    Message('note_off', channel=4, note=51, velocity=0, time=0),
    Message('note_on', channel=4, note=50, velocity=81, time=0),
    Message('note_on', channel=4, note=38, velocity=81, time=0),
    Message('control_change', channel=4, control=7, value=105, time=7),
    Message('control_change', channel=4, control=7, value=106, time=15),
    Message('note_off', channel=4, note=38, velocity=0, time=10),
    Message('note_off', channel=4, note=50, velocity=0, time=0),
    Message('note_on', channel=4, note=48, velocity=84, time=0),
    Message('note_on', channel=4, note=36, velocity=84, time=0),
    Message('control_change', channel=4, control=7, value=107, time=4),
    Message('control_change', channel=4, control=7, value=108, time=15),
    Message('note_off', channel=4, note=36, velocity=0, time=13),
    Message('note_off', channel=4, note=48, velocity=0, time=0),
    Message('note_on', channel=4, note=47, velocity=88, time=0),
    Message('note_on', channel=4, note=35, velocity=88, time=0),
    Message('control_change', channel=4, control=7, value=109, time=1),
    Message('control_change', channel=4, control=7, value=110, time=14),
    Message('note_off', channel=4, note=35, velocity=0, time=6),
    Message('note_off', channel=4, note=47, velocity=0, time=0),
    Message('control_change', channel=4, control=7, value=111, time=9),
    Message('control_change', channel=4, control=7, value=112, time=14),
    Message('control_change', channel=4, control=7, value=113, time=15),
    Message('note_on', channel=4, note=46, velocity=96, time=5),
    Message('note_on', channel=4, note=34, velocity=96, time=0),
    Message('control_change', channel=4, control=7, value=114, time=9),
    Message('control_change', channel=4, control=7, value=115, time=14),
    Message('note_off', channel=4, note=34, velocity=0, time=9),
    Message('note_off', channel=4, note=46, velocity=0, time=0),
    Message('note_on', channel=4, note=44, velocity=100, time=0),
    Message('note_on', channel=4, note=32, velocity=100, time=0),
    Message('control_change', channel=4, control=7, value=116, time=6),
    Message('control_change', channel=4, control=7, value=117, time=14),
    Message('note_off', channel=4, note=32, velocity=0, time=12),
    Message('note_off', channel=4, note=44, velocity=0, time=0),
    Message('note_on', channel=4, note=43, velocity=104, time=0),
    Message('note_on', channel=4, note=31, velocity=104, time=0),
    Message('control_change', channel=4, control=7, value=118, time=3),
    Message('control_change', channel=4, control=7, value=119, time=14),
    Message('note_off', channel=4, note=31, velocity=0, time=14),
    Message('note_off', channel=4, note=43, velocity=0, time=0),
    Message('control_change', channel=4, control=7, value=120, time=0),
    Message('note_on', channel=4, note=60, velocity=127, time=1),
    Message('note_off', channel=4, note=60, velocity=0, time=24),
    Message('note_on', channel=4, note=67, velocity=127, time=72),
    Message('note_off', channel=4, note=67, velocity=0, time=24),
    Message('note_on', channel=4, note=68, velocity=127, time=72),
    Message('note_off', channel=4, note=68, velocity=0, time=24),
    Message('note_on', channel=4, note=59, velocity=127, time=72),
    Message('note_off', channel=4, note=59, velocity=0, time=16),
    Message('note_on', channel=4, note=60, velocity=127, time=32),
    Message('note_off', channel=4, note=60, velocity=0, time=16),
    Message('note_on', channel=4, note=61, velocity=127, time=32),
    Message('note_off', channel=4, note=61, velocity=0, time=24),
    Message('note_on', channel=4, note=55, velocity=127, time=72),
    Message('note_off', channel=4, note=55, velocity=0, time=24),
    Message('note_on', channel=4, note=60, velocity=127, time=72),
    Message('note_off', channel=4, note=60, velocity=0, time=36),
    Message('note_on', channel=4, note=66, velocity=108, time=732),
    Message('note_on', channel=4, note=59, velocity=108, time=0),
    Message('note_off', channel=4, note=66, velocity=0, time=168),
    Message('note_off', channel=4, note=59, velocity=0, time=0),
    Message('note_on', channel=4, note=67, velocity=108, time=1176),
    Message('note_on', channel=4, note=62, velocity=108, time=0),
    Message('note_off', channel=4, note=67, velocity=0, time=168),
    Message('note_off', channel=4, note=62, velocity=0, time=0),
    Message('note_on', channel=4, note=66, velocity=108, time=24),
    Message('note_on', channel=4, note=62, velocity=108, time=0),
    Message('note_off', channel=4, note=66, velocity=0, time=168),
    Message('note_off', channel=4, note=62, velocity=0, time=0),
    Message('note_on', channel=4, note=67, velocity=127, time=24),
    Message('note_on', channel=4, note=55, velocity=127, time=0),
    Message('note_off', channel=4, note=67, velocity=0, time=16),
    Message('note_off', channel=4, note=55, velocity=0, time=0),
    Message('control_change', channel=4, control=7, value=100, time=272),
    Message('note_on', channel=4, note=53, velocity=75, time=0),
    Message('note_off', channel=4, note=53, velocity=0, time=16),
    Message('note_on', channel=4, note=51, velocity=75, time=32),
    Message('note_off', channel=4, note=51, velocity=0, time=16),
    Message('note_on', channel=4, note=50, velocity=75, time=32),
    Message('note_off', channel=4, note=50, velocity=0, time=96),
    Message('note_on', channel=4, note=48, velocity=75, time=0),
    Message('note_off', channel=4, note=48, velocity=0, time=80),
    Message('note_on', channel=4, note=46, velocity=75, time=16),
    Message('control_change', channel=4, control=7, value=101, time=19),
    Message('control_change', channel=4, control=7, value=102, time=19),
    Message('control_change', channel=4, control=7, value=103, time=19),
    Message('control_change', channel=4, control=7, value=104, time=19),
    Message('note_off', channel=4, note=46, velocity=0, time=20),
    Message('control_change', channel=4, control=7, value=105, time=0),
    Message('note_on', channel=4, note=45, velocity=83, time=0),
    Message('control_change', channel=4, control=7, value=106, time=19),
    Message('control_change', channel=4, control=7, value=107, time=19),
    Message('note_off', channel=4, note=45, velocity=0, time=10),
    Message('note_on', channel=4, note=43, velocity=87, time=0),
    Message('control_change', channel=4, control=7, value=108, time=9),
    Message('control_change', channel=4, control=7, value=109, time=19),
    Message('note_off', channel=4, note=43, velocity=0, time=19),
    Message('control_change', channel=4, control=7, value=110, time=1),
    Message('note_on', channel=4, note=42, velocity=92, time=0),
    Message('note_off', channel=4, note=42, velocity=0, time=47),
    Message('control_change', channel=4, control=7, value=100, time=1489),
    Message('note_on', channel=4, note=44, velocity=75, time=96),
    Message('note_off', channel=4, note=44, velocity=0, time=80),
    Message('note_on', channel=4, note=49, velocity=75, time=16),
    Message('note_off', channel=4, note=49, velocity=0, time=80),
    Message('note_on', channel=4, note=52, velocity=75, time=16),
    Message('note_off', channel=4, note=52, velocity=0, time=80),
    Message('note_on', channel=4, note=56, velocity=75, time=16),
    Message('note_off', channel=4, note=56, velocity=0, time=80),
    Message('note_on', channel=4, note=61, velocity=75, time=16),
    Message('note_off', channel=4, note=61, velocity=0, time=80),
    Message('note_on', channel=4, note=64, velocity=75, time=16),
    Message('note_off', channel=4, note=64, velocity=0, time=80),
    Message('note_on', channel=4, note=68, velocity=75, time=16),
    Message('note_off', channel=4, note=68, velocity=0, time=80),
    Message('note_on', channel=4, note=66, velocity=75, time=112),
    Message('note_off', channel=4, note=66, velocity=0, time=24),
    Message('note_on', channel=4, note=64, velocity=75, time=0),
    Message('note_off', channel=4, note=64, velocity=0, time=24),
    Message('note_on', channel=4, note=63, velocity=75, time=0),
    Message('note_off', channel=4, note=63, velocity=0, time=24),
    Message('note_on', channel=4, note=64, velocity=75, time=0),
    Message('note_off', channel=4, note=64, velocity=0, time=24),
    Message('note_on', channel=4, note=66, velocity=75, time=0),
    Message('note_off', channel=4, note=66, velocity=0, time=47),
    Message('note_on', channel=4, note=68, velocity=75, time=49),
    Message('note_off', channel=4, note=68, velocity=0, time=24),
    Message('note_on', channel=4, note=66, velocity=75, time=0),
    Message('note_off', channel=4, note=66, velocity=0, time=24),
    Message('note_on', channel=4, note=64, velocity=75, time=0),
    Message('note_off', channel=4, note=64, velocity=0, time=24),
    Message('note_on', channel=4, note=66, velocity=75, time=0),
    Message('note_off', channel=4, note=66, velocity=0, time=24),
    Message('note_on', channel=4, note=68, velocity=75, time=0),
    Message('control_change', channel=4, control=7, value=99, time=4),
    Message('control_change', channel=4, control=7, value=98, time=4),
    Message('control_change', channel=4, control=7, value=97, time=4),
    Message('control_change', channel=4, control=7, value=96, time=4),
    Message('control_change', channel=4, control=7, value=95, time=4),
    Message('control_change', channel=4, control=7, value=94, time=5),
    Message('control_change', channel=4, control=7, value=93, time=4),
    Message('control_change', channel=4, control=7, value=92, time=4),
    Message('control_change', channel=4, control=7, value=91, time=4),
    Message('control_change', channel=4, control=7, value=90, time=4),
    Message('control_change', channel=4, control=7, value=89, time=5),
    Message('control_change', channel=4, control=7, value=88, time=4),
    Message('control_change', channel=4, control=7, value=87, time=4),
    Message('control_change', channel=4, control=7, value=86, time=4),
    Message('control_change', channel=4, control=7, value=85, time=4),
    Message('control_change', channel=4, control=7, value=84, time=5),
    Message('control_change', channel=4, control=7, value=83, time=4),
    Message('control_change', channel=4, control=7, value=82, time=4),
    Message('control_change', channel=4, control=7, value=81, time=4),
    Message('control_change', channel=4, control=7, value=80, time=4),
    Message('control_change', channel=4, control=7, value=79, time=5),
    Message('control_change', channel=4, control=7, value=78, time=4),
    Message('control_change', channel=4, control=7, value=77, time=4),
    Message('control_change', channel=4, control=7, value=76, time=4),
    Message('control_change', channel=4, control=7, value=75, time=4),
    Message('control_change', channel=4, control=7, value=74, time=5),
    Message('control_change', channel=4, control=7, value=73, time=4),
    Message('control_change', channel=4, control=7, value=72, time=4),
    Message('control_change', channel=4, control=7, value=71, time=4),
    Message('control_change', channel=4, control=7, value=70, time=4),
    Message('control_change', channel=4, control=7, value=69, time=5),
    Message('control_change', channel=4, control=7, value=68, time=4),
    Message('control_change', channel=4, control=7, value=67, time=4),
    Message('control_change', channel=4, control=7, value=66, time=4),
    Message('control_change', channel=4, control=7, value=65, time=4),
    Message('control_change', channel=4, control=7, value=64, time=5),
    Message('control_change', channel=4, control=7, value=63, time=4),
    Message('control_change', channel=4, control=7, value=62, time=4),
    Message('control_change', channel=4, control=7, value=61, time=4),
    Message('control_change', channel=4, control=7, value=60, time=4),
    Message('control_change', channel=4, control=7, value=59, time=5),
    Message('control_change', channel=4, control=7, value=58, time=4),
    Message('control_change', channel=4, control=7, value=57, time=4),
    Message('control_change', channel=4, control=7, value=56, time=4),
    Message('control_change', channel=4, control=7, value=55, time=4),
    Message('control_change', channel=4, control=7, value=54, time=5),
    Message('control_change', channel=4, control=7, value=53, time=4),
    Message('control_change', channel=4, control=7, value=52, time=4),
    Message('control_change', channel=4, control=7, value=51, time=4),
    Message('control_change', channel=4, control=7, value=50, time=4),
    Message('control_change', channel=4, control=7, value=49, time=5),
    Message('control_change', channel=4, control=7, value=48, time=4),
    Message('control_change', channel=4, control=7, value=47, time=4),
    Message('control_change', channel=4, control=7, value=46, time=4),
    Message('control_change', channel=4, control=7, value=45, time=4),
    Message('control_change', channel=4, control=7, value=44, time=5),
    Message('control_change', channel=4, control=7, value=43, time=4),
    Message('control_change', channel=4, control=7, value=42, time=4),
    Message('control_change', channel=4, control=7, value=41, time=4),
    Message('control_change', channel=4, control=7, value=40, time=4),
    Message('control_change', channel=4, control=7, value=39, time=5),
    Message('control_change', channel=4, control=7, value=38, time=4),
    Message('control_change', channel=4, control=7, value=37, time=4),
    Message('control_change', channel=4, control=7, value=36, time=4),
    Message('control_change', channel=4, control=7, value=35, time=4),
    Message('control_change', channel=4, control=7, value=34, time=5),
    Message('control_change', channel=4, control=7, value=33, time=4),
    Message('control_change', channel=4, control=7, value=32, time=4),
    Message('control_change', channel=4, control=7, value=31, time=4),
    Message('control_change', channel=4, control=7, value=30, time=4),
    Message('control_change', channel=4, control=7, value=29, time=5),
    Message('control_change', channel=4, control=7, value=28, time=4),
    Message('control_change', channel=4, control=7, value=27, time=4),
    Message('control_change', channel=4, control=7, value=26, time=4),
    Message('note_off', channel=4, note=68, velocity=0, time=2),
    Message('control_change', channel=4, control=7, value=25, time=2),
    Message('control_change', channel=4, control=7, value=24, time=5),
    Message('control_change', channel=4, control=7, value=23, time=4),
    Message('control_change', channel=4, control=7, value=22, time=4),
    Message('control_change', channel=4, control=7, value=21, time=4),
    Message('control_change', channel=4, control=7, value=20, time=4),
    Message('control_change', channel=4, control=7, value=100, time=1105),
    Message('note_on', channel=4, note=50, velocity=75, time=0),
    Message('note_off', channel=4, note=50, velocity=0, time=16),
    Message('note_on', channel=4, note=52, velocity=75, time=32),
    Message('note_off', channel=4, note=52, velocity=0, time=16),
    Message('note_on', channel=4, note=53, velocity=75, time=32),
    Message('control_change', channel=4, control=7, value=99, time=9),
    Message('control_change', channel=4, control=7, value=98, time=10),
    Message('control_change', channel=4, control=7, value=97, time=9),
    Message('control_change', channel=4, control=7, value=96, time=10),
    Message('control_change', channel=4, control=7, value=95, time=10),
    Message('control_change', channel=4, control=7, value=94, time=9),
    Message('control_change', channel=4, control=7, value=93, time=10),
    Message('control_change', channel=4, control=7, value=92, time=9),
    Message('control_change', channel=4, control=7, value=91, time=10),
    Message('control_change', channel=4, control=7, value=90, time=10),
    Message('control_change', channel=4, control=7, value=89, time=9),
    Message('control_change', channel=4, control=7, value=88, time=10),
    Message('control_change', channel=4, control=7, value=87, time=9),
    Message('control_change', channel=4, control=7, value=86, time=10),
    Message('control_change', channel=4, control=7, value=85, time=10),
    Message('control_change', channel=4, control=7, value=84, time=9),
    Message('control_change', channel=4, control=7, value=83, time=10),
    Message('control_change', channel=4, control=7, value=82, time=9),
    Message('control_change', channel=4, control=7, value=81, time=10),
    Message('note_off', channel=4, note=53, velocity=0, time=10),
    Message('control_change', channel=4, control=7, value=80, time=0),
    Message('note_on', channel=4, note=46, velocity=45, time=0),
    Message('note_off', channel=4, note=46, velocity=0, time=128),
    Message('control_change', channel=4, control=7, value=100, time=3856),
    Message('note_on', channel=4, note=61, velocity=75, time=0),
    Message('note_off', channel=4, note=61, velocity=0, time=128),
    Message('control_change', channel=4, control=7, value=110, time=160),
    Message('note_on', channel=4, note=50, velocity=92, time=144),
    Message('note_off', channel=4, note=50, velocity=0, time=16),
    Message('note_on', channel=4, note=48, velocity=92, time=0),
    Message('note_off', channel=4, note=48, velocity=0, time=16),
    Message('note_on', channel=4, note=47, velocity=92, time=0),
    Message('note_off', channel=4, note=47, velocity=0, time=16),
    Message('note_on', channel=4, note=45, velocity=92, time=0),
    Message('note_off', channel=4, note=45, velocity=0, time=47),
    Message('note_on', channel=4, note=41, velocity=127, time=337),
    Message('note_off', channel=4, note=41, velocity=0, time=16),
    Message('note_on', channel=4, note=39, velocity=92, time=0),
    Message('note_off', channel=4, note=39, velocity=0, time=16),
    Message('note_on', channel=4, note=38, velocity=92, time=0),
    Message('note_off', channel=4, note=38, velocity=0, time=16),
    Message('note_on', channel=4, note=36, velocity=92, time=0),
    Message('note_off', channel=4, note=36, velocity=0, time=47),
    Message('note_on', channel=4, note=47, velocity=127, time=337),
    Message('note_off', channel=4, note=47, velocity=0, time=16),
    Message('note_on', channel=4, note=45, velocity=92, time=0),
    Message('note_off', channel=4, note=45, velocity=0, time=16),
    Message('note_on', channel=4, note=44, velocity=92, time=0),
    Message('note_off', channel=4, note=44, velocity=0, time=16),
    Message('note_on', channel=4, note=42, velocity=92, time=0),
    Message('note_off', channel=4, note=42, velocity=0, time=47),
    Message('note_on', channel=4, note=50, velocity=127, time=193),
    Message('note_off', channel=4, note=50, velocity=0, time=16),
    Message('note_on', channel=4, note=48, velocity=92, time=0),
    Message('note_off', channel=4, note=48, velocity=0, time=16),
    Message('note_on', channel=4, note=47, velocity=92, time=0),
    Message('note_off', channel=4, note=47, velocity=0, time=16),
    Message('note_on', channel=4, note=45, velocity=92, time=0),
    Message('note_off', channel=4, note=45, velocity=0, time=47),
    Message('note_on', channel=4, note=65, velocity=92, time=49),
    Message('note_off', channel=4, note=65, velocity=0, time=80),
    Message('note_on', channel=4, note=64, velocity=92, time=16),
    Message('note_off', channel=4, note=64, velocity=0, time=48),
    Message('note_on', channel=4, note=63, velocity=92, time=0),
    Message('note_on', channel=4, note=45, velocity=92, time=0),
    Message('note_off', channel=4, note=63, velocity=0, time=16),
    Message('note_off', channel=4, note=45, velocity=0, time=112),
    Message('note_on', channel=4, note=45, velocity=92, time=16),
    Message('note_off', channel=4, note=45, velocity=0, time=80),
    Message('note_on', channel=4, note=45, velocity=92, time=16),
    Message('note_off', channel=4, note=45, velocity=0, time=47),
    Message('note_on', channel=4, note=45, velocity=92, time=1),
    Message('note_off', channel=4, note=45, velocity=0, time=128),
    Message('note_on', channel=4, note=45, velocity=92, time=16),
    Message('note_off', channel=4, note=45, velocity=0, time=80),
    Message('note_on', channel=4, note=45, velocity=92, time=16),
    Message('note_off', channel=4, note=45, velocity=0, time=16),
    Message('note_on', channel=4, note=52, velocity=127, time=32),
    Message('note_off', channel=4, note=52, velocity=0, time=16),
    Message('note_on', channel=4, note=52, velocity=92, time=128),
    Message('note_off', channel=4, note=52, velocity=0, time=16),
    Message('note_on', channel=4, note=52, velocity=92, time=128),
    Message('note_off', channel=4, note=52, velocity=0, time=16),
    Message('note_on', channel=4, note=47, velocity=92, time=224),
    Message('note_on', channel=4, note=35, velocity=92, time=0),
    Message('note_off', channel=4, note=35, velocity=0, time=16),
    Message('note_off', channel=4, note=47, velocity=0, time=0),
    Message('note_on', channel=4, note=52, velocity=92, time=32),
    Message('note_on', channel=4, note=40, velocity=92, time=0),
    Message('note_off', channel=4, note=40, velocity=0, time=16),
    Message('note_off', channel=4, note=52, velocity=0, time=0),
    Message('note_on', channel=4, note=52, velocity=92, time=128),
    Message('note_off', channel=4, note=52, velocity=0, time=16),
    Message('note_on', channel=4, note=52, velocity=92, time=128),
    Message('note_off', channel=4, note=52, velocity=0, time=16),
    Message('note_on', channel=4, note=47, velocity=92, time=224),
    Message('note_on', channel=4, note=35, velocity=92, time=0),
    Message('note_off', channel=4, note=35, velocity=0, time=16),
    Message('note_off', channel=4, note=47, velocity=0, time=0),
    Message('note_on', channel=4, note=48, velocity=92, time=32),
    Message('note_on', channel=4, note=36, velocity=92, time=0),
    Message('note_off', channel=4, note=36, velocity=0, time=16),
    Message('note_off', channel=4, note=48, velocity=0, time=0),
    Message('note_on', channel=4, note=43, velocity=92, time=224),
    Message('note_off', channel=4, note=43, velocity=0, time=16),
    Message('note_on', channel=4, note=48, velocity=92, time=32),
    Message('note_on', channel=4, note=36, velocity=92, time=0),
    Message('note_off', channel=4, note=36, velocity=0, time=16),
    Message('note_off', channel=4, note=48, velocity=0, time=0),
    Message('note_on', channel=4, note=43, velocity=92, time=224),
    Message('note_off', channel=4, note=43, velocity=0, time=16),
    Message('note_on', channel=4, note=48, velocity=92, time=32),
    Message('note_on', channel=4, note=36, velocity=92, time=0),
    Message('note_off', channel=4, note=36, velocity=0, time=16),
    Message('note_off', channel=4, note=48, velocity=0, time=0),
    Message('note_on', channel=4, note=43, velocity=92, time=224),
    Message('note_off', channel=4, note=43, velocity=0, time=16),
    Message('note_on', channel=4, note=48, velocity=92, time=32),
    Message('note_on', channel=4, note=36, velocity=92, time=0),
    Message('note_off', channel=4, note=36, velocity=0, time=16),
    Message('note_off', channel=4, note=48, velocity=0, time=0),
    Message('note_on', channel=4, note=43, velocity=92, time=224),
    Message('note_off', channel=4, note=43, velocity=0, time=16),
    Message('note_on', channel=4, note=48, velocity=92, time=32),
    Message('note_on', channel=4, note=36, velocity=92, time=0),
    Message('note_off', channel=4, note=36, velocity=0, time=128),
    Message('note_off', channel=4, note=48, velocity=0, time=0),
    Message('note_on', channel=4, note=48, velocity=92, time=16),
    Message('note_on', channel=4, note=36, velocity=92, time=0),
    Message('note_off', channel=4, note=36, velocity=0, time=80),
    Message('note_off', channel=4, note=48, velocity=0, time=0),
    Message('note_on', channel=4, note=48, velocity=92, time=16),
    Message('note_on', channel=4, note=36, velocity=92, time=0),
    Message('note_off', channel=4, note=36, velocity=0, time=23),
    Message('note_off', channel=4, note=48, velocity=0, time=0),
    Message('note_on', channel=4, note=50, velocity=92, time=1),
    Message('note_on', channel=4, note=38, velocity=92, time=0),
    Message('note_off', channel=4, note=38, velocity=0, time=23),
    Message('note_off', channel=4, note=50, velocity=0, time=0),
    Message('note_on', channel=4, note=51, velocity=92, time=1),
    Message('note_on', channel=4, note=39, velocity=92, time=0),
    Message('note_off', channel=4, note=39, velocity=0, time=80),
    Message('note_off', channel=4, note=51, velocity=0, time=0),
    Message('note_on', channel=4, note=50, velocity=92, time=16),
    Message('note_on', channel=4, note=38, velocity=92, time=0),
    Message('note_off', channel=4, note=50, velocity=0, time=23),
    Message('note_off', channel=4, note=38, velocity=0, time=0),
    Message('note_on', channel=4, note=51, velocity=92, time=1),
    Message('note_on', channel=4, note=39, velocity=92, time=0),
    Message('note_off', channel=4, note=51, velocity=0, time=23),
    Message('note_off', channel=4, note=39, velocity=0, time=0),
    Message('note_on', channel=4, note=52, velocity=92, time=1),
    Message('note_on', channel=4, note=40, velocity=92, time=0),
    Message('note_off', channel=4, note=52, velocity=0, time=80),
    Message('note_off', channel=4, note=40, velocity=0, time=0),
    Message('note_on', channel=4, note=53, velocity=92, time=16),
    Message('note_on', channel=4, note=41, velocity=92, time=0),
    Message('note_off', channel=4, note=53, velocity=0, time=23),
    Message('note_off', channel=4, note=41, velocity=0, time=0),
    Message('note_on', channel=4, note=54, velocity=92, time=1),
    Message('note_on', channel=4, note=42, velocity=92, time=0),
    Message('note_off', channel=4, note=54, velocity=0, time=23),
    Message('note_off', channel=4, note=42, velocity=0, time=0),
    Message('note_on', channel=4, note=55, velocity=92, time=1),
    Message('note_on', channel=4, note=43, velocity=92, time=0),
    Message('note_off', channel=4, note=55, velocity=0, time=128),
    Message('note_off', channel=4, note=43, velocity=0, time=0),
    Message('note_on', channel=4, note=43, velocity=92, time=16),
    Message('note_on', channel=4, note=31, velocity=92, time=0),
    Message('note_off', channel=4, note=31, velocity=0, time=128),
    Message('note_off', channel=4, note=43, velocity=0, time=0),
    Message('note_on', channel=4, note=48, velocity=92, time=16),
    Message('note_on', channel=4, note=36, velocity=92, time=0),
    Message('note_off', channel=4, note=48, velocity=0, time=128),
    Message('note_off', channel=4, note=36, velocity=0, time=0),
    Message('note_on', channel=4, note=48, velocity=92, time=16),
    Message('note_on', channel=4, note=36, velocity=92, time=0),
    Message('note_off', channel=4, note=48, velocity=0, time=128),
    Message('note_off', channel=4, note=36, velocity=0, time=0),
    Message('note_on', channel=4, note=48, velocity=92, time=16),
    Message('note_on', channel=4, note=36, velocity=92, time=0),
    Message('note_off', channel=4, note=48, velocity=0, time=128),
    Message('note_off', channel=4, note=36, velocity=0, time=0),
    Message('note_on', channel=4, note=48, velocity=92, time=16),
    Message('note_on', channel=4, note=36, velocity=92, time=0),
    Message('note_off', channel=4, note=48, velocity=0, time=128),
    Message('note_off', channel=4, note=36, velocity=0, time=0),
    Message('note_on', channel=4, note=48, velocity=92, time=16),
    Message('note_on', channel=4, note=36, velocity=92, time=0),
    Message('control_change', channel=4, control=7, value=109, time=2),
    Message('control_change', channel=4, control=7, value=108, time=2),
    Message('control_change', channel=4, control=7, value=107, time=3),
    Message('control_change', channel=4, control=7, value=106, time=2),
    Message('control_change', channel=4, control=7, value=105, time=3),
    Message('control_change', channel=4, control=7, value=104, time=2),
    Message('control_change', channel=4, control=7, value=103, time=2),
    Message('control_change', channel=4, control=7, value=102, time=3),
    Message('control_change', channel=4, control=7, value=101, time=2),
    Message('control_change', channel=4, control=7, value=100, time=3),
    Message('control_change', channel=4, control=7, value=99, time=2),
    Message('control_change', channel=4, control=7, value=98, time=2),
    Message('control_change', channel=4, control=7, value=97, time=3),
    Message('control_change', channel=4, control=7, value=96, time=2),
    Message('control_change', channel=4, control=7, value=95, time=3),
    Message('control_change', channel=4, control=7, value=94, time=2),
    Message('control_change', channel=4, control=7, value=93, time=2),
    Message('control_change', channel=4, control=7, value=92, time=3),
    Message('control_change', channel=4, control=7, value=91, time=2),
    Message('control_change', channel=4, control=7, value=90, time=3),
    Message('control_change', channel=4, control=7, value=89, time=2),
    Message('control_change', channel=4, control=7, value=88, time=2),
    Message('control_change', channel=4, control=7, value=87, time=3),
    Message('control_change', channel=4, control=7, value=86, time=2),
    Message('control_change', channel=4, control=7, value=85, time=3),
    Message('control_change', channel=4, control=7, value=84, time=2),
    Message('control_change', channel=4, control=7, value=83, time=2),
    Message('control_change', channel=4, control=7, value=82, time=3),
    Message('control_change', channel=4, control=7, value=81, time=2),
    Message('control_change', channel=4, control=7, value=80, time=3),
    Message('control_change', channel=4, control=7, value=79, time=2),
    Message('control_change', channel=4, control=7, value=78, time=2),
    Message('control_change', channel=4, control=7, value=77, time=3),
    Message('control_change', channel=4, control=7, value=76, time=2),
    Message('control_change', channel=4, control=7, value=75, time=3),
    Message('control_change', channel=4, control=7, value=74, time=2),
    Message('control_change', channel=4, control=7, value=73, time=2),
    Message('control_change', channel=4, control=7, value=72, time=3),
    Message('control_change', channel=4, control=7, value=71, time=2),
    Message('control_change', channel=4, control=7, value=70, time=3),
    Message('control_change', channel=4, control=7, value=69, time=2),
    Message('control_change', channel=4, control=7, value=68, time=2),
    Message('control_change', channel=4, control=7, value=67, time=3),
    Message('control_change', channel=4, control=7, value=66, time=2),
    Message('control_change', channel=4, control=7, value=65, time=3),
    Message('control_change', channel=4, control=7, value=64, time=2),
    Message('control_change', channel=4, control=7, value=63, time=2),
    Message('control_change', channel=4, control=7, value=62, time=3),
    Message('control_change', channel=4, control=7, value=61, time=2),
    Message('control_change', channel=4, control=7, value=60, time=3),
    Message('control_change', channel=4, control=7, value=59, time=2),
    Message('control_change', channel=4, control=7, value=58, time=2),
    Message('control_change', channel=4, control=7, value=57, time=3),
    Message('control_change', channel=4, control=7, value=56, time=2),
    Message('control_change', channel=4, control=7, value=55, time=3),
    Message('control_change', channel=4, control=7, value=54, time=2),
    Message('control_change', channel=4, control=7, value=53, time=2),
    Message('control_change', channel=4, control=7, value=52, time=3),
    Message('control_change', channel=4, control=7, value=51, time=2),
    Message('control_change', channel=4, control=7, value=50, time=3),
    Message('control_change', channel=4, control=7, value=51, time=2),
    Message('control_change', channel=4, control=7, value=52, time=2),
    Message('control_change', channel=4, control=7, value=53, time=3),
    Message('control_change', channel=4, control=7, value=54, time=2),
    Message('control_change', channel=4, control=7, value=55, time=3),
    Message('control_change', channel=4, control=7, value=56, time=2),
    Message('control_change', channel=4, control=7, value=57, time=2),
    Message('control_change', channel=4, control=7, value=58, time=3),
    Message('control_change', channel=4, control=7, value=59, time=2),
    Message('control_change', channel=4, control=7, value=60, time=3),
    Message('control_change', channel=4, control=7, value=61, time=2),
    Message('control_change', channel=4, control=7, value=62, time=2),
    Message('control_change', channel=4, control=7, value=63, time=3),
    Message('control_change', channel=4, control=7, value=64, time=2),
    Message('control_change', channel=4, control=7, value=65, time=3),
    Message('control_change', channel=4, control=7, value=66, time=2),
    Message('control_change', channel=4, control=7, value=67, time=2),
    Message('control_change', channel=4, control=7, value=68, time=3),
    Message('control_change', channel=4, control=7, value=69, time=2),
    Message('control_change', channel=4, control=7, value=70, time=3),
    Message('control_change', channel=4, control=7, value=71, time=2),
    Message('control_change', channel=4, control=7, value=72, time=2),
    Message('control_change', channel=4, control=7, value=73, time=3),
    Message('control_change', channel=4, control=7, value=74, time=2),
    Message('control_change', channel=4, control=7, value=75, time=3),
    Message('control_change', channel=4, control=7, value=76, time=2),
    Message('control_change', channel=4, control=7, value=77, time=2),
    Message('control_change', channel=4, control=7, value=78, time=3),
    Message('control_change', channel=4, control=7, value=79, time=2),
    Message('control_change', channel=4, control=7, value=80, time=3),
    Message('control_change', channel=4, control=7, value=81, time=2),
    Message('control_change', channel=4, control=7, value=82, time=2),
    Message('control_change', channel=4, control=7, value=83, time=3),
    Message('control_change', channel=4, control=7, value=84, time=2),
    Message('control_change', channel=4, control=7, value=85, time=3),
    Message('control_change', channel=4, control=7, value=86, time=2),
    Message('control_change', channel=4, control=7, value=87, time=2),
    Message('control_change', channel=4, control=7, value=88, time=3),
    Message('control_change', channel=4, control=7, value=89, time=2),
    Message('control_change', channel=4, control=7, value=90, time=3),
    Message('control_change', channel=4, control=7, value=91, time=2),
    Message('control_change', channel=4, control=7, value=92, time=2),
    Message('control_change', channel=4, control=7, value=93, time=3),
    Message('control_change', channel=4, control=7, value=94, time=2),
    Message('control_change', channel=4, control=7, value=95, time=3),
    Message('control_change', channel=4, control=7, value=96, time=2),
    Message('control_change', channel=4, control=7, value=97, time=2),
    Message('control_change', channel=4, control=7, value=98, time=3),
    Message('control_change', channel=4, control=7, value=99, time=2),
    Message('control_change', channel=4, control=7, value=100, time=3),
    Message('control_change', channel=4, control=7, value=101, time=2),
    Message('control_change', channel=4, control=7, value=102, time=2),
    Message('control_change', channel=4, control=7, value=103, time=3),
    Message('note_off', channel=4, note=36, velocity=0, time=1),
    Message('note_off', channel=4, note=48, velocity=0, time=0),
    Message('control_change', channel=4, control=7, value=104, time=1),
    Message('control_change', channel=4, control=7, value=105, time=3),
    Message('control_change', channel=4, control=7, value=106, time=2),
    Message('control_change', channel=4, control=7, value=107, time=2),
    Message('control_change', channel=4, control=7, value=108, time=3),
    Message('control_change', channel=4, control=7, value=109, time=2),
    Message('control_change', channel=4, control=7, value=110, time=3),
    Message('note_on', channel=4, note=48, velocity=92, time=0),
    Message('note_off', channel=4, note=48, velocity=0, time=16),
    Message('note_on', channel=4, note=36, velocity=92, time=32),
    Message('control_change', channel=4, control=7, value=111, time=38),
    Message('control_change', channel=4, control=7, value=112, time=38),
    Message('control_change', channel=4, control=7, value=113, time=39),
    Message('control_change', channel=4, control=7, value=114, time=38),
    Message('control_change', channel=4, control=7, value=115, time=39),
    Message('control_change', channel=4, control=7, value=116, time=38),
    Message('control_change', channel=4, control=7, value=117, time=38),
    Message('control_change', channel=4, control=7, value=118, time=39),
    Message('control_change', channel=4, control=7, value=119, time=38),
    Message('note_off', channel=4, note=36, velocity=0, time=23),
    Message('control_change', channel=4, control=7, value=120, time=16),
    Message('note_on', channel=4, note=36, velocity=127, time=0),
    Message('note_off', channel=4, note=36, velocity=0, time=24),
    Message('control_change', channel=4, control=7, value=100, time=1128),
    Message('note_on', channel=4, note=48, velocity=75, time=0),
    Message('control_change', channel=4, control=7, value=101, time=21),
    Message('control_change', channel=4, control=7, value=102, time=22),
    Message('control_change', channel=4, control=7, value=103, time=21),
    Message('control_change', channel=4, control=7, value=104, time=22),
    Message('control_change', channel=4, control=7, value=105, time=22),
    Message('control_change', channel=4, control=7, value=106, time=21),
    Message('control_change', channel=4, control=7, value=107, time=22),
    Message('control_change', channel=4, control=7, value=108, time=21),
    Message('control_change', channel=4, control=7, value=109, time=22),
    Message('control_change', channel=4, control=7, value=110, time=22),
    Message('control_change', channel=4, control=7, value=111, time=21),
    Message('control_change', channel=4, control=7, value=112, time=22),
    Message('control_change', channel=4, control=7, value=113, time=21),
    Message('control_change', channel=4, control=7, value=114, time=22),
    Message('control_change', channel=4, control=7, value=115, time=22),
    Message('control_change', channel=4, control=7, value=116, time=21),
    Message('control_change', channel=4, control=7, value=117, time=22),
    Message('control_change', channel=4, control=7, value=118, time=21),
    Message('control_change', channel=4, control=7, value=119, time=22),
    Message('note_off', channel=4, note=48, velocity=0, time=6),
    Message('control_change', channel=4, control=7, value=120, time=16),
    Message('note_on', channel=4, note=36, velocity=127, time=0),
    Message('note_off', channel=4, note=36, velocity=0, time=47),
    Message('control_change', channel=4, control=101, value=0, time=1249),
    Message('control_change', channel=4, control=100, value=0, time=0),
    Message('control_change', channel=4, control=6, value=12, time=0),
    Message('control_change', channel=4, control=10, value=64, time=0),
    Message('control_change', channel=4, control=7, value=120, time=0),
    Message('pitchwheel', channel=4, pitch=0, time=0),
    Message('program_change', channel=4, program=70, time=0),
    Message('program_change', channel=4, program=70, time=0),
    Message('control_change', channel=4, control=7, value=127, time=0),
    Message('control_change', channel=4, control=10, value=64, time=0),
    Message('control_change', channel=4, control=101, value=0, time=1),
    Message('control_change', channel=4, control=100, value=0, time=0),
    Message('control_change', channel=4, control=6, value=12, time=0),
    Message('control_change', channel=4, control=10, value=64, time=0),
    Message('control_change', channel=4, control=7, value=120, time=0),
    Message('pitchwheel', channel=4, pitch=0, time=0),
    Message('program_change', channel=4, program=70, time=0),
    MetaMessage('end_of_track', time=0)]),
  MidiTrack([
    MetaMessage('track_name', name='French Horn', time=0),
    Message('control_change', channel=5, control=10, value=64, time=0),
    Message('control_change', channel=5, control=7, value=127, time=0),
    Message('pitchwheel', channel=5, pitch=0, time=0),
    Message('control_change', channel=5, control=101, value=0, time=0),
    Message('control_change', channel=5, control=100, value=0, time=0),
    Message('control_change', channel=5, control=6, value=12, time=0),
    Message('control_change', channel=5, control=10, value=64, time=0),
    Message('control_change', channel=5, control=7, value=127, time=0),
    Message('pitchwheel', channel=5, pitch=0, time=0),
    Message('program_change', channel=5, program=60, time=0),
    Message('program_change', channel=5, program=60, time=0),
    Message('control_change', channel=5, control=7, value=127, time=0),
    Message('control_change', channel=5, control=10, value=64, time=0),
    Message('control_change', channel=5, control=101, value=0, time=0),
    Message('control_change', channel=5, control=100, value=0, time=0),
    Message('control_change', channel=5, control=6, value=12, time=0),
    Message('control_change', channel=5, control=10, value=64, time=0),
    Message('control_change', channel=5, control=7, value=127, time=0),
    Message('pitchwheel', channel=5, pitch=0, time=0),
    Message('program_change', channel=5, program=60, time=0),
    Message('program_change', channel=5, program=60, time=0),
    Message('control_change', channel=5, control=7, value=127, time=0),
    Message('control_change', channel=5, control=10, value=64, time=0),
    Message('control_change', channel=5, control=101, value=0, time=0),
    Message('control_change', channel=5, control=100, value=0, time=0),
    Message('control_change', channel=5, control=6, value=12, time=0),
    Message('control_change', channel=5, control=10, value=64, time=0),
    Message('control_change', channel=5, control=7, value=127, time=0),
    Message('pitchwheel', channel=5, pitch=0, time=0),
    Message('program_change', channel=5, program=60, time=0),
    Message('control_change', channel=5, control=7, value=90, time=8544),
    Message('note_on', channel=5, note=40, velocity=42, time=0),
    Message('control_change', channel=5, control=7, value=89, time=734),
    Message('control_change', channel=5, control=7, value=88, time=14),
    Message('control_change', channel=5, control=7, value=87, time=15),
    Message('control_change', channel=5, control=7, value=86, time=14),
    Message('control_change', channel=5, control=7, value=85, time=14),
    Message('control_change', channel=5, control=7, value=84, time=15),
    Message('control_change', channel=5, control=7, value=83, time=14),
    Message('control_change', channel=5, control=7, value=82, time=15),
    Message('control_change', channel=5, control=7, value=81, time=14),
    Message('control_change', channel=5, control=7, value=80, time=14),
    Message('control_change', channel=5, control=7, value=81, time=15),
    Message('control_change', channel=5, control=7, value=82, time=14),
    Message('control_change', channel=5, control=7, value=83, time=15),
    Message('control_change', channel=5, control=7, value=84, time=14),
    Message('control_change', channel=5, control=7, value=85, time=14),
    Message('control_change', channel=5, control=7, value=86, time=15),
    Message('control_change', channel=5, control=7, value=87, time=14),
    Message('control_change', channel=5, control=7, value=88, time=15),
    Message('control_change', channel=5, control=7, value=89, time=14),
    Message('control_change', channel=5, control=7, value=90, time=14),
    Message('note_off', channel=5, note=40, velocity=0, time=48),
    Message('control_change', channel=5, control=7, value=110, time=1009),
    Message('note_on', channel=5, note=59, velocity=92, time=48),
    Message('note_off', channel=5, note=59, velocity=0, time=47),
    Message('note_on', channel=5, note=64, velocity=92, time=1),
    Message('note_off', channel=5, note=64, velocity=0, time=71),
    Message('note_on', channel=5, note=67, velocity=92, time=1),
    Message('note_off', channel=5, note=67, velocity=0, time=23),
    Message('note_on', channel=5, note=66, velocity=92, time=1),
    Message('note_off', channel=5, note=66, velocity=0, time=47),
    Message('note_on', channel=5, note=64, velocity=92, time=1),
    Message('note_off', channel=5, note=64, velocity=0, time=80),
    Message('note_on', channel=5, note=71, velocity=92, time=16),
    Message('note_off', channel=5, note=71, velocity=0, time=47),
    Message('note_on', channel=5, note=69, velocity=92, time=1),
    Message('note_off', channel=5, note=69, velocity=0, time=128),
    Message('note_on', channel=5, note=66, velocity=92, time=16),
    Message('note_off', channel=5, note=66, velocity=0, time=128),
    Message('note_on', channel=5, note=64, velocity=92, time=16),
    Message('note_off', channel=5, note=64, velocity=0, time=71),
    Message('note_on', channel=5, note=67, velocity=92, time=1),
    Message('note_off', channel=5, note=67, velocity=0, time=23),
    Message('note_on', channel=5, note=66, velocity=92, time=1),
    Message('note_off', channel=5, note=66, velocity=0, time=47),
    Message('note_on', channel=5, note=62, velocity=92, time=1),
    Message('note_off', channel=5, note=62, velocity=0, time=80),
    Message('note_on', channel=5, note=65, velocity=92, time=16),
    Message('note_off', channel=5, note=65, velocity=0, time=47),
    Message('note_on', channel=5, note=59, velocity=92, time=1),
    Message('note_off', channel=5, note=59, velocity=0, time=224),
    Message('note_on', channel=5, note=59, velocity=92, time=16),
    Message('note_off', channel=5, note=59, velocity=0, time=47),
    Message('note_on', channel=5, note=64, velocity=92, time=1),
    Message('note_off', channel=5, note=64, velocity=0, time=71),
    Message('note_on', channel=5, note=67, velocity=92, time=1),
    Message('note_off', channel=5, note=67, velocity=0, time=23),
    Message('note_on', channel=5, note=66, velocity=92, time=1),
    Message('note_off', channel=5, note=66, velocity=0, time=47),
    Message('note_on', channel=5, note=64, velocity=92, time=1),
    Message('note_off', channel=5, note=64, velocity=0, time=80),
    Message('note_on', channel=5, note=71, velocity=92, time=16),
    Message('note_off', channel=5, note=71, velocity=0, time=47),
    Message('note_on', channel=5, note=74, velocity=92, time=1),
    Message('note_off', channel=5, note=74, velocity=0, time=80),
    Message('note_on', channel=5, note=73, velocity=92, time=16),
    Message('note_off', channel=5, note=73, velocity=0, time=47),
    Message('note_on', channel=5, note=72, velocity=92, time=1),
    Message('note_off', channel=5, note=72, velocity=0, time=80),
    Message('note_on', channel=5, note=68, velocity=92, time=16),
    Message('note_off', channel=5, note=68, velocity=0, time=47),
    Message('note_on', channel=5, note=72, velocity=92, time=1),
    Message('note_off', channel=5, note=72, velocity=0, time=71),
    Message('note_on', channel=5, note=71, velocity=92, time=1),
    Message('note_off', channel=5, note=71, velocity=0, time=23),
    Message('note_on', channel=5, note=70, velocity=92, time=1),
    Message('note_off', channel=5, note=70, velocity=0, time=47),
    Message('note_on', channel=5, note=58, velocity=92, time=1),
    Message('note_off', channel=5, note=58, velocity=0, time=80),
    Message('note_on', channel=5, note=67, velocity=92, time=16),
    Message('note_off', channel=5, note=67, velocity=0, time=47),
    Message('control_change', channel=5, control=7, value=70, time=6481),
    Message('note_on', channel=5, note=57, velocity=30, time=0),
    Message('note_off', channel=5, note=57, velocity=0, time=1464),
    Message('note_on', channel=5, note=57, velocity=30, time=72),
    Message('note_off', channel=5, note=57, velocity=0, time=552),
    Message('note_on', channel=5, note=58, velocity=30, time=24),
    Message('note_off', channel=5, note=58, velocity=0, time=168),
    Message('note_on', channel=5, note=61, velocity=30, time=24),
    Message('note_off', channel=5, note=61, velocity=0, time=168),
    Message('note_on', channel=5, note=60, velocity=30, time=24),
    Message('note_off', channel=5, note=60, velocity=0, time=128),
    Message('control_change', channel=5, control=7, value=80, time=832),
    Message('note_on', channel=5, note=57, velocity=45, time=0),
    Message('note_off', channel=5, note=57, velocity=0, time=1472),
    Message('note_on', channel=5, note=57, velocity=45, time=64),
    Message('note_off', channel=5, note=57, velocity=0, time=552),
    Message('note_on', channel=5, note=58, velocity=45, time=24),
    Message('note_off', channel=5, note=58, velocity=0, time=168),
    Message('note_on', channel=5, note=61, velocity=45, time=24),
    Message('note_off', channel=5, note=61, velocity=0, time=168),
    Message('note_on', channel=5, note=60, velocity=45, time=24),
    Message('note_off', channel=5, note=60, velocity=0, time=168),
    Message('note_on', channel=5, note=57, velocity=45, time=24),
    Message('note_off', channel=5, note=57, velocity=0, time=128),
    Message('control_change', channel=5, control=7, value=100, time=1312),
    Message('note_on', channel=5, note=64, velocity=105, time=0),
    Message('note_on', channel=5, note=52, velocity=105, time=0),
    Message('note_off', channel=5, note=64, velocity=0, time=47),
    Message('note_off', channel=5, note=52, velocity=0, time=0),
    Message('control_change', channel=5, control=7, value=110, time=49),
    Message('note_on', channel=5, note=69, velocity=127, time=0),
    Message('note_on', channel=5, note=57, velocity=127, time=0),
    Message('note_on', channel=5, note=45, velocity=127, time=0),
    Message('note_off', channel=5, note=45, velocity=0, time=47),
    Message('note_off', channel=5, note=57, velocity=0, time=0),
    Message('note_off', channel=5, note=69, velocity=0, time=0),
    Message('control_change', channel=5, control=7, value=100, time=145),
    Message('note_on', channel=5, note=52, velocity=75, time=0),
    Message('control_change', channel=5, control=7, value=101, time=19),
    Message('control_change', channel=5, control=7, value=102, time=19),
    Message('control_change', channel=5, control=7, value=103, time=19),
    Message('control_change', channel=5, control=7, value=104, time=19),
    Message('control_change', channel=5, control=7, value=105, time=20),
    Message('control_change', channel=5, control=7, value=106, time=19),
    Message('control_change', channel=5, control=7, value=107, time=19),
    Message('control_change', channel=5, control=7, value=108, time=19),
    Message('note_off', channel=5, note=52, velocity=0, time=15),
    Message('control_change', channel=5, control=7, value=109, time=4),
    Message('control_change', channel=5, control=7, value=110, time=20),
    Message('note_on', channel=5, note=64, velocity=92, time=0),
    Message('note_on', channel=5, note=60, velocity=92, time=0),
    Message('note_on', channel=5, note=57, velocity=92, time=0),
    Message('note_off', channel=5, note=57, velocity=0, time=24),
    Message('note_off', channel=5, note=60, velocity=0, time=0),
    Message('note_off', channel=5, note=64, velocity=0, time=0),
    Message('note_on', channel=5, note=64, velocity=92, time=168),
    Message('note_on', channel=5, note=60, velocity=92, time=0),
    Message('note_on', channel=5, note=57, velocity=92, time=0),
    Message('note_off', channel=5, note=64, velocity=0, time=24),
    Message('note_off', channel=5, note=60, velocity=0, time=0),
    Message('note_off', channel=5, note=57, velocity=0, time=0),
    Message('note_on', channel=5, note=65, velocity=92, time=168),
    Message('note_on', channel=5, note=61, velocity=92, time=0),
    Message('note_on', channel=5, note=58, velocity=92, time=0),
    Message('note_off', channel=5, note=65, velocity=0, time=24),
    Message('note_off', channel=5, note=61, velocity=0, time=0),
    Message('note_off', channel=5, note=58, velocity=0, time=0),
    Message('note_on', channel=5, note=64, velocity=92, time=168),
    Message('note_on', channel=5, note=60, velocity=92, time=0),
    Message('note_on', channel=5, note=57, velocity=92, time=0),
    Message('note_off', channel=5, note=64, velocity=0, time=24),
    Message('note_off', channel=5, note=60, velocity=0, time=0),
    Message('note_off', channel=5, note=57, velocity=0, time=0),
    Message('note_on', channel=5, note=62, velocity=92, time=168),
    Message('note_on', channel=5, note=57, velocity=92, time=0),
    Message('note_on', channel=5, note=53, velocity=92, time=0),
    Message('note_off', channel=5, note=62, velocity=0, time=24),
    Message('note_off', channel=5, note=57, velocity=0, time=0),
    Message('note_off', channel=5, note=53, velocity=0, time=0),
    Message('note_on', channel=5, note=62, velocity=92, time=168),
    Message('note_on', channel=5, note=57, velocity=92, time=0),
    Message('note_on', channel=5, note=53, velocity=92, time=0),
    Message('note_off', channel=5, note=53, velocity=0, time=24),
    Message('note_off', channel=5, note=57, velocity=0, time=0),
    Message('note_off', channel=5, note=62, velocity=0, time=0),
    Message('note_on', channel=5, note=52, velocity=92, time=168),
    Message('note_off', channel=5, note=52, velocity=0, time=47),
    Message('note_on', channel=5, note=57, velocity=92, time=49),
    Message('note_off', channel=5, note=57, velocity=0, time=16),
    Message('note_on', channel=5, note=60, velocity=92, time=32),
    Message('note_off', channel=5, note=60, velocity=0, time=16),
    Message('note_on', channel=5, note=63, velocity=92, time=32),
    Message('note_on', channel=5, note=59, velocity=92, time=0),
    Message('note_on', channel=5, note=56, velocity=92, time=0),
    Message('note_off', channel=5, note=63, velocity=0, time=168),
    Message('note_off', channel=5, note=59, velocity=0, time=0),
    Message('note_off', channel=5, note=56, velocity=0, time=0),
    Message('note_on', channel=5, note=64, velocity=92, time=24),
    Message('note_on', channel=5, note=60, velocity=92, time=0),
    Message('note_on', channel=5, note=57, velocity=92, time=0),
    Message('note_off', channel=5, note=57, velocity=0, time=96),
    Message('note_off', channel=5, note=60, velocity=0, time=0),
    Message('note_off', channel=5, note=64, velocity=0, time=0),
    Message('note_on', channel=5, note=64, velocity=92, time=96),
    Message('note_on', channel=5, note=60, velocity=92, time=0),
    Message('note_on', channel=5, note=57, velocity=92, time=0),
    Message('note_off', channel=5, note=57, velocity=0, time=24),
    Message('note_off', channel=5, note=60, velocity=0, time=0),
    Message('note_off', channel=5, note=64, velocity=0, time=0),
    Message('note_on', channel=5, note=63, velocity=92, time=72),
    Message('note_on', channel=5, note=59, velocity=92, time=0),
    Message('note_on', channel=5, note=56, velocity=92, time=0),
    Message('note_off', channel=5, note=63, velocity=0, time=16),
    Message('note_off', channel=5, note=59, velocity=0, time=0),
    Message('note_off', channel=5, note=56, velocity=0, time=0),
    Message('note_on', channel=5, note=64, velocity=92, time=32),
    Message('note_on', channel=5, note=60, velocity=92, time=0),
    Message('note_on', channel=5, note=57, velocity=92, time=0),
    Message('note_off', channel=5, note=64, velocity=0, time=16),
    Message('note_off', channel=5, note=60, velocity=0, time=0),
    Message('note_off', channel=5, note=57, velocity=0, time=0),
    Message('note_on', channel=5, note=67, velocity=92, time=32),
    Message('note_on', channel=5, note=63, velocity=92, time=0),
    Message('note_on', channel=5, note=60, velocity=92, time=0),
    Message('note_off', channel=5, note=67, velocity=0, time=96),
    Message('note_off', channel=5, note=63, velocity=0, time=0),
    Message('note_off', channel=5, note=60, velocity=0, time=0),
    Message('note_on', channel=5, note=65, velocity=92, time=0),
    Message('note_on', channel=5, note=61, velocity=92, time=0),
    Message('note_on', channel=5, note=58, velocity=92, time=0),
    Message('note_off', channel=5, note=58, velocity=0, time=16),
    Message('note_off', channel=5, note=61, velocity=0, time=0),
    Message('note_off', channel=5, note=65, velocity=0, time=0),
    Message('note_on', channel=5, note=64, velocity=92, time=32),
    Message('note_on', channel=5, note=60, velocity=92, time=0),
    Message('note_on', channel=5, note=57, velocity=92, time=0),
    Message('note_off', channel=5, note=64, velocity=0, time=16),
    Message('note_off', channel=5, note=60, velocity=0, time=0),
    Message('note_off', channel=5, note=57, velocity=0, time=0),
    Message('note_on', channel=5, note=65, velocity=92, time=32),
    Message('note_on', channel=5, note=61, velocity=92, time=0),
    Message('note_on', channel=5, note=58, velocity=92, time=0),
    Message('note_off', channel=5, note=65, velocity=0, time=24),
    Message('note_off', channel=5, note=61, velocity=0, time=0),
    Message('note_off', channel=5, note=58, velocity=0, time=0),
    Message('note_on', channel=5, note=58, velocity=92, time=72),
    Message('note_on', channel=5, note=53, velocity=92, time=0),
    Message('note_on', channel=5, note=49, velocity=92, time=0),
    Message('note_off', channel=5, note=58, velocity=0, time=24),
    Message('note_off', channel=5, note=53, velocity=0, time=0),
    Message('note_off', channel=5, note=49, velocity=0, time=0),
    Message('note_on', channel=5, note=65, velocity=127, time=72),
    Message('note_on', channel=5, note=61, velocity=127, time=0),
    Message('note_on', channel=5, note=58, velocity=127, time=0),
    Message('note_off', channel=5, note=65, velocity=0, time=96),
    Message('note_off', channel=5, note=61, velocity=0, time=0),
    Message('note_off', channel=5, note=58, velocity=0, time=0),
    Message('note_on', channel=5, note=64, velocity=92, time=0),
    Message('note_on', channel=5, note=60, velocity=92, time=0),
    Message('note_on', channel=5, note=57, velocity=92, time=0),
    Message('note_off', channel=5, note=57, velocity=0, time=16),
    Message('note_off', channel=5, note=60, velocity=0, time=0),
    Message('note_off', channel=5, note=64, velocity=0, time=0),
    Message('note_on', channel=5, note=63, velocity=92, time=32),
    Message('note_on', channel=5, note=59, velocity=92, time=0),
    Message('note_on', channel=5, note=56, velocity=92, time=0),
    Message('note_off', channel=5, note=63, velocity=0, time=16),
    Message('note_off', channel=5, note=59, velocity=0, time=0),
    Message('note_off', channel=5, note=56, velocity=0, time=0),
    Message('note_on', channel=5, note=64, velocity=92, time=32),
    Message('note_on', channel=5, note=60, velocity=92, time=0),
    Message('note_on', channel=5, note=57, velocity=92, time=0),
    Message('note_off', channel=5, note=64, velocity=0, time=24),
    Message('note_off', channel=5, note=60, velocity=0, time=0),
    Message('note_off', channel=5, note=57, velocity=0, time=0),
    Message('note_on', channel=5, note=57, velocity=92, time=72),
    Message('note_on', channel=5, note=52, velocity=92, time=0),
    Message('note_on', channel=5, note=48, velocity=92, time=0),
    Message('note_off', channel=5, note=57, velocity=0, time=24),
    Message('note_off', channel=5, note=52, velocity=0, time=0),
    Message('note_off', channel=5, note=48, velocity=0, time=0),
    Message('note_on', channel=5, note=60, velocity=92, time=72),
    Message('note_on', channel=5, note=56, velocity=92, time=0),
    Message('note_on', channel=5, note=53, velocity=92, time=0),
    Message('note_off', channel=5, note=60, velocity=0, time=168),
    Message('note_off', channel=5, note=53, velocity=0, time=0),
    Message('note_off', channel=5, note=56, velocity=0, time=0),
    Message('note_on', channel=5, note=59, velocity=92, time=24),
    Message('note_on', channel=5, note=55, velocity=92, time=0),
    Message('note_on', channel=5, note=52, velocity=92, time=0),
    Message('note_off', channel=5, note=59, velocity=0, time=168),
    Message('note_off', channel=5, note=55, velocity=0, time=0),
    Message('note_off', channel=5, note=52, velocity=0, time=0),
    Message('note_on', channel=5, note=65, velocity=92, time=24),
    Message('note_on', channel=5, note=60, velocity=92, time=0),
    Message('note_on', channel=5, note=56, velocity=92, time=0),
    Message('note_off', channel=5, note=65, velocity=0, time=47),
    Message('note_off', channel=5, note=60, velocity=0, time=0),
    Message('note_off', channel=5, note=56, velocity=0, time=0),
    Message('note_on', channel=5, note=65, velocity=92, time=1),
    Message('note_on', channel=5, note=60, velocity=92, time=0),
    Message('note_on', channel=5, note=56, velocity=92, time=0),
    Message('note_off', channel=5, note=60, velocity=0, time=47),
    Message('note_off', channel=5, note=56, velocity=0, time=0),
    Message('note_off', channel=5, note=65, velocity=0, time=0),
    Message('note_on', channel=5, note=65, velocity=92, time=49),
    Message('note_on', channel=5, note=60, velocity=92, time=0),
    Message('note_on', channel=5, note=56, velocity=92, time=0),
    Message('note_off', channel=5, note=65, velocity=0, time=47),
    Message('note_off', channel=5, note=56, velocity=0, time=0),
    Message('note_off', channel=5, note=60, velocity=0, time=0),
    Message('note_on', channel=5, note=68, velocity=92, time=1),
    Message('note_on', channel=5, note=64, velocity=92, time=0),
    Message('note_on', channel=5, note=59, velocity=92, time=0),
    Message('note_off', channel=5, note=68, velocity=0, time=168),
    Message('note_off', channel=5, note=64, velocity=0, time=0),
    Message('note_off', channel=5, note=59, velocity=0, time=0),
    Message('note_on', channel=5, note=64, velocity=127, time=24),
    Message('note_on', channel=5, note=60, velocity=127, time=0),
    Message('note_on', channel=5, note=57, velocity=127, time=0),
    Message('note_off', channel=5, note=64, velocity=0, time=80),
    Message('note_off', channel=5, note=60, velocity=0, time=0),
    Message('note_off', channel=5, note=57, velocity=0, time=0),
    Message('control_change', channel=5, control=7, value=100, time=688),
    Message('note_on', channel=5, note=64, velocity=75, time=0),
    Message('note_on', channel=5, note=60, velocity=75, time=0),
    Message('note_on', channel=5, note=57, velocity=75, time=0),
    Message('note_off', channel=5, note=64, velocity=0, time=168),
    Message('note_off', channel=5, note=60, velocity=0, time=0),
    Message('note_off', channel=5, note=57, velocity=0, time=0),
    Message('note_on', channel=5, note=62, velocity=75, time=24),
    Message('note_on', channel=5, note=59, velocity=75, time=0),
    Message('note_on', channel=5, note=57, velocity=75, time=0),
    Message('note_off', channel=5, note=57, velocity=0, time=168),
    Message('note_off', channel=5, note=59, velocity=0, time=0),
    Message('note_off', channel=5, note=62, velocity=0, time=0),
    Message('note_on', channel=5, note=64, velocity=75, time=24),
    Message('note_on', channel=5, note=60, velocity=75, time=0),
    Message('note_on', channel=5, note=57, velocity=75, time=0),
    Message('note_off', channel=5, note=64, velocity=0, time=168),
    Message('note_off', channel=5, note=60, velocity=0, time=0),
    Message('note_off', channel=5, note=57, velocity=0, time=0),
    Message('note_on', channel=5, note=60, velocity=75, time=24),
    Message('note_on', channel=5, note=57, velocity=75, time=0),
    Message('note_on', channel=5, note=52, velocity=75, time=0),
    Message('note_off', channel=5, note=60, velocity=0, time=96),
    Message('note_off', channel=5, note=52, velocity=0, time=0),
    Message('note_on', channel=5, note=59, velocity=75, time=0),
    Message('note_on', channel=5, note=53, velocity=75, time=0),
    Message('note_off', channel=5, note=53, velocity=0, time=80),
    Message('note_off', channel=5, note=57, velocity=0, time=0),
    Message('note_off', channel=5, note=59, velocity=0, time=0),
    Message('note_on', channel=5, note=60, velocity=75, time=16),
    Message('note_on', channel=5, note=57, velocity=75, time=0),
    Message('note_on', channel=5, note=52, velocity=75, time=0),
    Message('note_off', channel=5, note=52, velocity=0, time=24),
    Message('note_off', channel=5, note=60, velocity=0, time=0),
    Message('note_off', channel=5, note=57, velocity=0, time=0),
    Message('note_on', channel=5, note=62, velocity=75, time=168),
    Message('note_on', channel=5, note=59, velocity=75, time=0),
    Message('note_on', channel=5, note=57, velocity=75, time=0),
    Message('note_off', channel=5, note=57, velocity=0, time=24),
    Message('note_off', channel=5, note=59, velocity=0, time=0),
    Message('note_off', channel=5, note=62, velocity=0, time=0),
    Message('note_on', channel=5, note=64, velocity=75, time=168),
    Message('note_on', channel=5, note=60, velocity=75, time=0),
    Message('note_on', channel=5, note=57, velocity=75, time=0),
    Message('note_off', channel=5, note=64, velocity=0, time=239),
    Message('note_off', channel=5, note=57, velocity=0, time=0),
    Message('note_off', channel=5, note=60, velocity=0, time=0),
    Message('note_on', channel=5, note=62, velocity=75, time=49),
    Message('note_on', channel=5, note=59, velocity=75, time=0),
    Message('note_on', channel=5, note=57, velocity=75, time=0),
    Message('note_off', channel=5, note=57, velocity=0, time=24),
    Message('note_off', channel=5, note=62, velocity=0, time=0),
    Message('note_off', channel=5, note=59, velocity=0, time=0),
    Message('note_on', channel=5, note=64, velocity=75, time=72),
    Message('note_on', channel=5, note=60, velocity=75, time=0),
    Message('note_on', channel=5, note=57, velocity=75, time=0),
    Message('note_off', channel=5, note=57, velocity=0, time=168),
    Message('note_off', channel=5, note=60, velocity=0, time=0),
    Message('note_off', channel=5, note=64, velocity=0, time=0),
    Message('note_on', channel=5, note=57, velocity=75, time=24),
    Message('note_on', channel=5, note=52, velocity=75, time=0),
    Message('note_on', channel=5, note=48, velocity=75, time=0),
    Message('note_off', channel=5, note=57, velocity=0, time=168),
    Message('note_off', channel=5, note=48, velocity=0, time=0),
    Message('note_off', channel=5, note=52, velocity=0, time=0),
    Message('note_on', channel=5, note=63, velocity=75, time=120),
    Message('note_on', channel=5, note=60, velocity=75, time=0),
    Message('note_on', channel=5, note=55, velocity=75, time=0),
    Message('note_off', channel=5, note=55, velocity=0, time=168),
    Message('note_off', channel=5, note=60, velocity=0, time=0),
    Message('note_off', channel=5, note=63, velocity=0, time=0),
    Message('note_on', channel=5, note=62, velocity=75, time=24),
    Message('note_on', channel=5, note=59, velocity=75, time=0),
    Message('note_on', channel=5, note=55, velocity=75, time=0),
    Message('note_off', channel=5, note=55, velocity=0, time=80),
    Message('note_off', channel=5, note=59, velocity=0, time=0),
    Message('note_off', channel=5, note=62, velocity=0, time=0),
    Message('note_on', channel=5, note=67, velocity=75, time=16),
    Message('note_on', channel=5, note=63, velocity=75, time=0),
    Message('note_on', channel=5, note=60, velocity=75, time=0),
    Message('note_off', channel=5, note=60, velocity=0, time=47),
    Message('note_off', channel=5, note=67, velocity=0, time=0),
    Message('note_off', channel=5, note=63, velocity=0, time=0),
    Message('note_on', channel=5, note=67, velocity=75, time=1),
    Message('note_on', channel=5, note=63, velocity=75, time=0),
    Message('note_on', channel=5, note=60, velocity=75, time=0),
    Message('note_off', channel=5, note=60, velocity=0, time=47),
    Message('note_off', channel=5, note=67, velocity=0, time=0),
    Message('note_off', channel=5, note=63, velocity=0, time=0),
    Message('note_on', channel=5, note=67, velocity=75, time=1),
    Message('note_on', channel=5, note=63, velocity=75, time=0),
    Message('note_on', channel=5, note=60, velocity=75, time=0),
    Message('note_off', channel=5, note=67, velocity=0, time=47),
    Message('note_off', channel=5, note=63, velocity=0, time=0),
    Message('note_off', channel=5, note=60, velocity=0, time=0),
    Message('note_on', channel=5, note=67, velocity=75, time=1),
    Message('note_on', channel=5, note=63, velocity=75, time=0),
    Message('note_on', channel=5, note=60, velocity=75, time=0),
    Message('note_off', channel=5, note=60, velocity=0, time=47),
    Message('note_off', channel=5, note=63, velocity=0, time=0),
    Message('note_off', channel=5, note=67, velocity=0, time=0),
    Message('note_on', channel=5, note=67, velocity=75, time=1),
    Message('note_on', channel=5, note=62, velocity=75, time=0),
    Message('note_on', channel=5, note=59, velocity=75, time=0),
    Message('note_off', channel=5, note=59, velocity=0, time=47),
    Message('note_off', channel=5, note=62, velocity=0, time=0),
    Message('note_off', channel=5, note=67, velocity=0, time=0),
    Message('note_on', channel=5, note=67, velocity=75, time=1),
    Message('note_on', channel=5, note=62, velocity=75, time=0),
    Message('note_on', channel=5, note=59, velocity=75, time=0),
    Message('note_off', channel=5, note=67, velocity=0, time=47),
    Message('note_off', channel=5, note=59, velocity=0, time=0),
    Message('note_off', channel=5, note=62, velocity=0, time=0),
    Message('note_on', channel=5, note=67, velocity=75, time=1),
    Message('note_on', channel=5, note=62, velocity=75, time=0),
    Message('note_on', channel=5, note=59, velocity=75, time=0),
    Message('note_off', channel=5, note=67, velocity=0, time=47),
    Message('note_off', channel=5, note=62, velocity=0, time=0),
    Message('note_off', channel=5, note=59, velocity=0, time=0),
    Message('note_on', channel=5, note=67, velocity=75, time=1),
    Message('note_on', channel=5, note=62, velocity=75, time=0),
    Message('note_on', channel=5, note=59, velocity=75, time=0),
    Message('note_off', channel=5, note=67, velocity=0, time=47),
    Message('note_off', channel=5, note=59, velocity=0, time=0),
    Message('note_off', channel=5, note=62, velocity=0, time=0),
    Message('note_on', channel=5, note=67, velocity=75, time=1),
    Message('note_on', channel=5, note=63, velocity=75, time=0),
    Message('note_on', channel=5, note=60, velocity=75, time=0),
    Message('note_off', channel=5, note=63, velocity=0, time=192),
    Message('note_off', channel=5, note=60, velocity=0, time=0),
    Message('note_off', channel=5, note=67, velocity=0, time=0),
    Message('note_on', channel=5, note=60, velocity=75, time=0),
    Message('note_off', channel=5, note=60, velocity=0, time=16),
    Message('note_on', channel=5, note=65, velocity=75, time=80),
    Message('note_off', channel=5, note=65, velocity=0, time=16),
    Message('note_on', channel=5, note=67, velocity=75, time=32),
    Message('note_off', channel=5, note=67, velocity=0, time=16),
    Message('note_on', channel=5, note=68, velocity=75, time=32),
    Message('note_off', channel=5, note=68, velocity=0, time=48),
    Message('note_on', channel=5, note=67, velocity=75, time=0),
    Message('note_off', channel=5, note=67, velocity=0, time=47),
    Message('note_on', channel=5, note=65, velocity=75, time=1),
    Message('note_off', channel=5, note=65, velocity=0, time=16),
    Message('note_on', channel=5, note=63, velocity=75, time=32),
    Message('note_off', channel=5, note=63, velocity=0, time=16),
    Message('note_on', channel=5, note=62, velocity=75, time=32),
    Message('note_off', channel=5, note=62, velocity=0, time=48),
    Message('note_on', channel=5, note=60, velocity=75, time=0),
    Message('note_off', channel=5, note=60, velocity=0, time=16),
    Message('note_on', channel=5, note=53, velocity=75, time=32),
    Message('note_off', channel=5, note=53, velocity=0, time=16),
    Message('note_on', channel=5, note=55, velocity=75, time=32),
    Message('note_off', channel=5, note=55, velocity=0, time=16),
    Message('note_on', channel=5, note=56, velocity=75, time=32),
    Message('note_off', channel=5, note=56, velocity=0, time=48),
    Message('note_on', channel=5, note=55, velocity=75, time=0),
    Message('note_off', channel=5, note=55, velocity=0, time=47),
    Message('note_on', channel=5, note=53, velocity=75, time=1),
    Message('note_off', channel=5, note=53, velocity=0, time=16),
    Message('note_on', channel=5, note=51, velocity=75, time=32),
    Message('note_off', channel=5, note=51, velocity=0, time=16),
    Message('note_on', channel=5, note=50, velocity=75, time=32),
    Message('note_off', channel=5, note=50, velocity=0, time=48),
    Message('note_on', channel=5, note=48, velocity=75, time=0),
    Message('note_off', channel=5, note=48, velocity=0, time=16),
    Message('note_on', channel=5, note=55, velocity=75, time=896),
    Message('note_on', channel=5, note=53, velocity=75, time=0),
    Message('note_on', channel=5, note=48, velocity=75, time=0),
    Message('note_off', channel=5, note=55, velocity=0, time=47),
    Message('note_off', channel=5, note=53, velocity=0, time=0),
    Message('note_off', channel=5, note=48, velocity=0, time=0),
    Message('note_on', channel=5, note=60, velocity=75, time=49),
    Message('note_on', channel=5, note=55, velocity=75, time=0),
    Message('note_on', channel=5, note=53, velocity=75, time=0),
    Message('note_off', channel=5, note=60, velocity=0, time=47),
    Message('note_off', channel=5, note=55, velocity=0, time=0),
    Message('note_off', channel=5, note=53, velocity=0, time=0),
    Message('note_on', channel=5, note=62, velocity=75, time=49),
    Message('note_on', channel=5, note=60, velocity=75, time=0),
    Message('note_on', channel=5, note=55, velocity=75, time=0),
    Message('note_off', channel=5, note=62, velocity=0, time=47),
    Message('note_off', channel=5, note=60, velocity=0, time=0),
    Message('note_off', channel=5, note=55, velocity=0, time=0),
    Message('note_on', channel=5, note=67, velocity=75, time=49),
    Message('note_on', channel=5, note=62, velocity=75, time=0),
    Message('note_on', channel=5, note=60, velocity=75, time=0),
    Message('note_off', channel=5, note=60, velocity=0, time=47),
    Message('note_off', channel=5, note=62, velocity=0, time=0),
    Message('note_off', channel=5, note=67, velocity=0, time=0),
    Message('control_change', channel=5, control=7, value=119, time=49),
    Message('note_on', channel=5, note=62, velocity=127, time=0),
    Message('note_on', channel=5, note=60, velocity=127, time=0),
    Message('note_on', channel=5, note=55, velocity=127, time=0),
    Message('control_change', channel=5, control=7, value=118, time=1),
    Message('control_change', channel=5, control=7, value=116, time=1),
    Message('control_change', channel=5, control=7, value=115, time=1),
    Message('control_change', channel=5, control=7, value=113, time=1),
    Message('control_change', channel=5, control=7, value=112, time=1),
    Message('control_change', channel=5, control=7, value=110, time=1),
    Message('control_change', channel=5, control=7, value=109, time=1),
    Message('control_change', channel=5, control=7, value=107, time=1),
    Message('control_change', channel=5, control=7, value=106, time=1),
    Message('control_change', channel=5, control=7, value=104, time=1),
    Message('control_change', channel=5, control=7, value=103, time=1),
    Message('control_change', channel=5, control=7, value=102, time=1),
    Message('control_change', channel=5, control=7, value=100, time=1),
    Message('control_change', channel=5, control=7, value=99, time=1),
    Message('control_change', channel=5, control=7, value=97, time=1),
    Message('control_change', channel=5, control=7, value=96, time=1),
    Message('control_change', channel=5, control=7, value=94, time=1),
    Message('control_change', channel=5, control=7, value=93, time=1),
    Message('control_change', channel=5, control=7, value=91, time=1),
    Message('control_change', channel=5, control=7, value=90, time=1),
    Message('control_change', channel=5, control=7, value=88, time=1),
    Message('control_change', channel=5, control=7, value=87, time=1),
    Message('control_change', channel=5, control=7, value=86, time=1),
    Message('control_change', channel=5, control=7, value=84, time=1),
    Message('control_change', channel=5, control=7, value=83, time=1),
    Message('control_change', channel=5, control=7, value=81, time=1),
    Message('control_change', channel=5, control=7, value=80, time=1),
    Message('control_change', channel=5, control=7, value=78, time=1),
    Message('control_change', channel=5, control=7, value=77, time=1),
    Message('control_change', channel=5, control=7, value=75, time=1),
    Message('control_change', channel=5, control=7, value=74, time=1),
    Message('control_change', channel=5, control=7, value=72, time=1),
    Message('control_change', channel=5, control=7, value=71, time=1),
    Message('control_change', channel=5, control=7, value=69, time=1),
    Message('control_change', channel=5, control=7, value=68, time=1),
    Message('control_change', channel=5, control=7, value=67, time=1),
    Message('control_change', channel=5, control=7, value=65, time=1),
    Message('control_change', channel=5, control=7, value=64, time=1),
    Message('control_change', channel=5, control=7, value=62, time=1),
    Message('control_change', channel=5, control=7, value=61, time=1),
    Message('control_change', channel=5, control=7, value=59, time=1),
    Message('control_change', channel=5, control=7, value=58, time=1),
    Message('control_change', channel=5, control=7, value=56, time=1),
    Message('control_change', channel=5, control=7, value=55, time=1),
    Message('control_change', channel=5, control=7, value=53, time=1),
    Message('control_change', channel=5, control=7, value=52, time=1),
    Message('control_change', channel=5, control=7, value=51, time=1),
    Message('control_change', channel=5, control=7, value=50, time=1),
    Message('control_change', channel=5, control=7, value=51, time=6),
    Message('control_change', channel=5, control=7, value=52, time=7),
    Message('control_change', channel=5, control=7, value=53, time=7),
    Message('control_change', channel=5, control=7, value=54, time=6),
    Message('control_change', channel=5, control=7, value=55, time=7),
    Message('control_change', channel=5, control=7, value=56, time=7),
    Message('control_change', channel=5, control=7, value=57, time=7),
    Message('control_change', channel=5, control=7, value=58, time=6),
    Message('control_change', channel=5, control=7, value=59, time=7),
    Message('control_change', channel=5, control=7, value=60, time=7),
    Message('control_change', channel=5, control=7, value=61, time=6),
    Message('control_change', channel=5, control=7, value=62, time=7),
    Message('control_change', channel=5, control=7, value=63, time=7),
    Message('control_change', channel=5, control=7, value=64, time=7),
    Message('control_change', channel=5, control=7, value=65, time=6),
    Message('control_change', channel=5, control=7, value=66, time=7),
    Message('control_change', channel=5, control=7, value=67, time=7),
    Message('control_change', channel=5, control=7, value=68, time=6),
    Message('control_change', channel=5, control=7, value=69, time=7),
    Message('control_change', channel=5, control=7, value=70, time=7),
    Message('control_change', channel=5, control=7, value=71, time=7),
    Message('control_change', channel=5, control=7, value=72, time=6),
    Message('control_change', channel=5, control=7, value=73, time=7),
    Message('control_change', channel=5, control=7, value=74, time=7),
    Message('control_change', channel=5, control=7, value=75, time=6),
    Message('control_change', channel=5, control=7, value=76, time=7),
    Message('control_change', channel=5, control=7, value=77, time=7),
    Message('control_change', channel=5, control=7, value=78, time=7),
    Message('control_change', channel=5, control=7, value=79, time=6),
    Message('control_change', channel=5, control=7, value=80, time=7),
    Message('control_change', channel=5, control=7, value=81, time=7),
    Message('control_change', channel=5, control=7, value=82, time=7),
    Message('control_change', channel=5, control=7, value=83, time=6),
    Message('control_change', channel=5, control=7, value=84, time=7),
    Message('control_change', channel=5, control=7, value=85, time=7),
    Message('control_change', channel=5, control=7, value=86, time=6),
    Message('control_change', channel=5, control=7, value=87, time=7),
    Message('control_change', channel=5, control=7, value=88, time=7),
    Message('control_change', channel=5, control=7, value=89, time=7),
    Message('control_change', channel=5, control=7, value=90, time=6),
    Message('control_change', channel=5, control=7, value=91, time=7),
    Message('control_change', channel=5, control=7, value=92, time=7),
    Message('control_change', channel=5, control=7, value=93, time=6),
    Message('control_change', channel=5, control=7, value=94, time=7),
    Message('control_change', channel=5, control=7, value=95, time=7),
    Message('control_change', channel=5, control=7, value=96, time=7),
    Message('note_off', channel=5, note=55, velocity=0, time=3),
    Message('note_off', channel=5, note=60, velocity=0, time=0),
    Message('note_off', channel=5, note=62, velocity=0, time=0),
    Message('control_change', channel=5, control=7, value=97, time=3),
    Message('control_change', channel=5, control=7, value=98, time=7),
    Message('control_change', channel=5, control=7, value=99, time=7),
    Message('control_change', channel=5, control=7, value=100, time=6),
    Message('note_on', channel=5, note=67, velocity=75, time=1),
    Message('note_on', channel=5, note=62, velocity=75, time=0),
    Message('note_off', channel=5, note=67, velocity=0, time=16),
    Message('note_off', channel=5, note=62, velocity=0, time=0),
    Message('note_on', channel=5, note=62, velocity=75, time=80),
    Message('note_on', channel=5, note=60, velocity=75, time=0),
    Message('note_on', channel=5, note=55, velocity=75, time=0),
    Message('note_off', channel=5, note=55, velocity=0, time=176),
    Message('note_off', channel=5, note=60, velocity=0, time=0),
    Message('note_off', channel=5, note=62, velocity=0, time=0),
    Message('note_on', channel=5, note=55, velocity=75, time=16),
    Message('note_off', channel=5, note=55, velocity=0, time=24),
    Message('control_change', channel=5, control=7, value=120, time=72),
    Message('note_on', channel=5, note=67, velocity=127, time=0),
    Message('note_on', channel=5, note=63, velocity=127, time=0),
    Message('note_on', channel=5, note=60, velocity=127, time=0),
    Message('note_off', channel=5, note=60, velocity=0, time=264),
    Message('note_off', channel=5, note=63, velocity=0, time=0),
    Message('note_off', channel=5, note=67, velocity=0, time=0),
    Message('note_on', channel=5, note=66, velocity=108, time=24),
    Message('note_on', channel=5, note=62, velocity=108, time=0),
    Message('note_on', channel=5, note=59, velocity=108, time=0),
    Message('note_off', channel=5, note=66, velocity=0, time=16),
    Message('note_off', channel=5, note=62, velocity=0, time=0),
    Message('note_off', channel=5, note=59, velocity=0, time=0),
    Message('note_on', channel=5, note=67, velocity=108, time=32),
    Message('note_on', channel=5, note=63, velocity=108, time=0),
    Message('note_on', channel=5, note=60, velocity=108, time=0),
    Message('note_off', channel=5, note=67, velocity=0, time=16),
    Message('note_off', channel=5, note=63, velocity=0, time=0),
    Message('note_off', channel=5, note=60, velocity=0, time=0),
    Message('note_on', channel=5, note=68, velocity=127, time=32),
    Message('note_on', channel=5, note=64, velocity=127, time=0),
    Message('note_on', channel=5, note=61, velocity=127, time=0),
    Message('note_off', channel=5, note=61, velocity=0, time=96),
    Message('note_off', channel=5, note=64, velocity=0, time=0),
    Message('note_off', channel=5, note=68, velocity=0, time=0),
    Message('note_on', channel=5, note=67, velocity=108, time=0),
    Message('note_on', channel=5, note=63, velocity=108, time=0),
    Message('note_on', channel=5, note=60, velocity=108, time=0),
    Message('note_off', channel=5, note=60, velocity=0, time=16),
    Message('note_off', channel=5, note=63, velocity=0, time=0),
    Message('note_off', channel=5, note=67, velocity=0, time=0),
    Message('note_on', channel=5, note=66, velocity=108, time=32),
    Message('note_on', channel=5, note=62, velocity=108, time=0),
    Message('note_on', channel=5, note=59, velocity=108, time=0),
    Message('note_off', channel=5, note=66, velocity=0, time=16),
    Message('note_off', channel=5, note=62, velocity=0, time=0),
    Message('note_off', channel=5, note=59, velocity=0, time=0),
    Message('note_on', channel=5, note=67, velocity=108, time=32),
    Message('note_on', channel=5, note=63, velocity=108, time=0),
    Message('note_on', channel=5, note=60, velocity=108, time=0),
    Message('note_off', channel=5, note=67, velocity=0, time=24),
    Message('note_off', channel=5, note=63, velocity=0, time=0),
    Message('note_off', channel=5, note=60, velocity=0, time=0),
    Message('note_on', channel=5, note=63, velocity=108, time=72),
    Message('note_on', channel=5, note=60, velocity=108, time=0),
    Message('note_on', channel=5, note=55, velocity=108, time=0),
    Message('note_off', channel=5, note=63, velocity=0, time=24),
    Message('note_off', channel=5, note=60, velocity=0, time=0),
    Message('note_off', channel=5, note=55, velocity=0, time=0),
    Message('note_on', channel=5, note=60, velocity=108, time=168),
    Message('note_off', channel=5, note=60, velocity=0, time=264),
    Message('note_on', channel=5, note=55, velocity=108, time=24),
    Message('note_off', channel=5, note=55, velocity=0, time=16),
    Message('note_on', channel=5, note=60, velocity=108, time=80),
    Message('note_off', channel=5, note=60, velocity=0, time=16),
    Message('note_on', channel=5, note=63, velocity=108, time=32),
    Message('note_off', channel=5, note=63, velocity=0, time=16),
    Message('note_on', channel=5, note=66, velocity=108, time=32),
    Message('note_on', channel=5, note=62, velocity=108, time=0),
    Message('note_on', channel=5, note=59, velocity=108, time=0),
    Message('note_off', channel=5, note=66, velocity=0, time=168),
    Message('note_off', channel=5, note=62, velocity=0, time=0),
    Message('note_off', channel=5, note=59, velocity=0, time=0),
    Message('note_on', channel=5, note=62, velocity=127, time=120),
    Message('note_on', channel=5, note=58, velocity=127, time=0),
    Message('note_on', channel=5, note=55, velocity=127, time=0),
    Message('note_off', channel=5, note=62, velocity=0, time=16),
    Message('note_off', channel=5, note=58, velocity=0, time=0),
    Message('note_off', channel=5, note=55, velocity=0, time=0),
    Message('note_on', channel=5, note=62, velocity=127, time=32),
    Message('note_on', channel=5, note=58, velocity=127, time=0),
    Message('note_on', channel=5, note=55, velocity=127, time=0),
    Message('note_off', channel=5, note=62, velocity=0, time=16),
    Message('note_off', channel=5, note=58, velocity=0, time=0),
    Message('note_off', channel=5, note=55, velocity=0, time=0),
    Message('note_on', channel=5, note=70, velocity=108, time=224),
    Message('note_on', channel=5, note=65, velocity=108, time=0),
    Message('note_on', channel=5, note=61, velocity=108, time=0),
    Message('note_off', channel=5, note=70, velocity=0, time=47),
    Message('note_off', channel=5, note=65, velocity=0, time=0),
    Message('note_off', channel=5, note=61, velocity=0, time=0),
    Message('note_on', channel=5, note=68, velocity=108, time=145),
    Message('note_on', channel=5, note=63, velocity=108, time=0),
    Message('note_on', channel=5, note=59, velocity=108, time=0),
    Message('note_off', channel=5, note=68, velocity=0, time=47),
    Message('note_off', channel=5, note=63, velocity=0, time=0),
    Message('note_off', channel=5, note=59, velocity=0, time=0),
    Message('note_on', channel=5, note=71, velocity=108, time=145),
    Message('note_on', channel=5, note=68, velocity=108, time=0),
    Message('note_on', channel=5, note=63, velocity=108, time=0),
    Message('note_off', channel=5, note=71, velocity=0, time=47),
    Message('note_off', channel=5, note=68, velocity=0, time=0),
    Message('note_off', channel=5, note=63, velocity=0, time=0),
    Message('note_on', channel=5, note=62, velocity=108, time=145),
    Message('note_on', channel=5, note=58, velocity=108, time=0),
    Message('note_on', channel=5, note=55, velocity=108, time=0),
    Message('note_off', channel=5, note=62, velocity=0, time=24),
    Message('note_off', channel=5, note=58, velocity=0, time=0),
    Message('note_off', channel=5, note=55, velocity=0, time=0),
    Message('note_on', channel=5, note=67, velocity=108, time=72),
    Message('note_on', channel=5, note=62, velocity=108, time=0),
    Message('note_on', channel=5, note=58, velocity=108, time=0),
    Message('note_off', channel=5, note=67, velocity=0, time=24),
    Message('note_off', channel=5, note=62, velocity=0, time=0),
    Message('note_off', channel=5, note=58, velocity=0, time=0),
    Message('note_on', channel=5, note=70, velocity=108, time=72),
    Message('note_on', channel=5, note=67, velocity=108, time=0),
    Message('note_on', channel=5, note=62, velocity=108, time=0),
    Message('note_off', channel=5, note=70, velocity=0, time=168),
    Message('note_off', channel=5, note=67, velocity=0, time=0),
    Message('note_off', channel=5, note=62, velocity=0, time=0),
    Message('note_on', channel=5, note=69, velocity=108, time=24),
    Message('note_on', channel=5, note=66, velocity=108, time=0),
    Message('note_on', channel=5, note=62, velocity=108, time=0),
    Message('note_off', channel=5, note=69, velocity=0, time=168),
    Message('note_off', channel=5, note=66, velocity=0, time=0),
    Message('note_off', channel=5, note=62, velocity=0, time=0),
    Message('note_on', channel=5, note=74, velocity=127, time=24),
    Message('note_on', channel=5, note=67, velocity=127, time=0),
    Message('note_on', channel=5, note=62, velocity=127, time=0),
    Message('note_on', channel=5, note=60, velocity=127, time=0),
    Message('note_off', channel=5, note=74, velocity=0, time=16),
    Message('note_off', channel=5, note=67, velocity=0, time=0),
    Message('note_off', channel=5, note=62, velocity=0, time=0),
    Message('note_off', channel=5, note=60, velocity=0, time=0),
    Message('note_on', channel=5, note=61, velocity=127, time=752),
    Message('note_on', channel=5, note=57, velocity=127, time=0),
    Message('note_on', channel=5, note=54, velocity=127, time=0),
    Message('note_off', channel=5, note=61, velocity=0, time=16),
    Message('note_off', channel=5, note=57, velocity=0, time=0),
    Message('note_off', channel=5, note=54, velocity=0, time=0),
    Message('control_change', channel=5, control=7, value=110, time=1232),
    Message('note_on', channel=5, note=61, velocity=127, time=0),
    Message('note_off', channel=5, note=61, velocity=0, time=24),
    Message('note_on', channel=5, note=59, velocity=92, time=0),
    Message('note_off', channel=5, note=59, velocity=0, time=24),
    Message('note_on', channel=5, note=57, velocity=92, time=0),
    Message('note_off', channel=5, note=57, velocity=0, time=24),
    Message('note_on', channel=5, note=59, velocity=92, time=0),
    Message('note_off', channel=5, note=59, velocity=0, time=24),
    Message('note_on', channel=5, note=61, velocity=92, time=0),
    Message('note_off', channel=5, note=61, velocity=0, time=168),
    Message('control_change', channel=5, control=7, value=100, time=24),
    Message('note_on', channel=5, note=44, velocity=75, time=96),
    Message('note_off', channel=5, note=44, velocity=0, time=80),
    Message('note_on', channel=5, note=49, velocity=75, time=16),
    Message('note_off', channel=5, note=49, velocity=0, time=80),
    Message('note_on', channel=5, note=52, velocity=75, time=16),
    Message('note_off', channel=5, note=52, velocity=0, time=80),
    Message('note_on', channel=5, note=56, velocity=75, time=16),
    Message('note_off', channel=5, note=56, velocity=0, time=80),
    Message('note_on', channel=5, note=61, velocity=75, time=16),
    Message('note_off', channel=5, note=61, velocity=0, time=80),
    Message('note_on', channel=5, note=64, velocity=75, time=16),
    Message('note_off', channel=5, note=64, velocity=0, time=80),
    Message('note_on', channel=5, note=68, velocity=75, time=16),
    Message('note_off', channel=5, note=68, velocity=0, time=80),
    Message('note_on', channel=5, note=73, velocity=75, time=16),
    Message('note_off', channel=5, note=73, velocity=0, time=24),
    Message('note_on', channel=5, note=61, velocity=75, time=168),
    Message('control_change', channel=5, control=7, value=99, time=48),
    Message('control_change', channel=5, control=7, value=98, time=48),
    Message('control_change', channel=5, control=7, value=97, time=48),
    Message('control_change', channel=5, control=7, value=96, time=48),
    Message('control_change', channel=5, control=7, value=95, time=48),
    Message('control_change', channel=5, control=7, value=94, time=48),
    Message('control_change', channel=5, control=7, value=93, time=48),
    Message('control_change', channel=5, control=7, value=92, time=48),
    Message('note_off', channel=5, note=61, velocity=0, time=47),
    Message('control_change', channel=5, control=7, value=91, time=1),
    Message('control_change', channel=5, control=7, value=90, time=48),
    Message('note_on', channel=5, note=64, velocity=60, time=0),
    Message('control_change', channel=5, control=7, value=91, time=4),
    Message('control_change', channel=5, control=7, value=92, time=5),
    Message('control_change', channel=5, control=7, value=93, time=5),
    Message('note_off', channel=5, note=64, velocity=0, time=2),
    Message('control_change', channel=5, control=7, value=94, time=3),
    Message('control_change', channel=5, control=7, value=95, time=5),
    Message('control_change', channel=5, control=7, value=96, time=4),
    Message('control_change', channel=5, control=7, value=97, time=5),
    Message('control_change', channel=5, control=7, value=98, time=5),
    Message('control_change', channel=5, control=7, value=99, time=5),
    Message('control_change', channel=5, control=7, value=100, time=5),
    Message('note_on', channel=5, note=66, velocity=76, time=0),
    Message('control_change', channel=5, control=7, value=101, time=4),
    Message('control_change', channel=5, control=7, value=102, time=5),
    Message('control_change', channel=5, control=7, value=103, time=5),
    Message('note_off', channel=5, note=66, velocity=0, time=2),
    Message('control_change', channel=5, control=7, value=104, time=3),
    Message('control_change', channel=5, control=7, value=105, time=5),
    Message('control_change', channel=5, control=7, value=106, time=4),
    Message('control_change', channel=5, control=7, value=107, time=5),
    Message('control_change', channel=5, control=7, value=108, time=5),
    Message('control_change', channel=5, control=7, value=109, time=5),
    Message('control_change', channel=5, control=7, value=110, time=5),
    Message('note_on', channel=5, note=68, velocity=92, time=0),
    Message('control_change', channel=5, control=7, value=109, time=9),
    Message('control_change', channel=5, control=7, value=108, time=10),
    Message('control_change', channel=5, control=7, value=107, time=9),
    Message('control_change', channel=5, control=7, value=106, time=10),
    Message('control_change', channel=5, control=7, value=105, time=10),
    Message('control_change', channel=5, control=7, value=104, time=9),
    Message('control_change', channel=5, control=7, value=103, time=10),
    Message('control_change', channel=5, control=7, value=102, time=9),
    Message('control_change', channel=5, control=7, value=101, time=10),
    Message('control_change', channel=5, control=7, value=100, time=10),
    Message('control_change', channel=5, control=7, value=99, time=9),
    Message('control_change', channel=5, control=7, value=98, time=10),
    Message('control_change', channel=5, control=7, value=97, time=9),
    Message('control_change', channel=5, control=7, value=96, time=10),
    Message('control_change', channel=5, control=7, value=95, time=10),
    Message('control_change', channel=5, control=7, value=94, time=9),
    Message('control_change', channel=5, control=7, value=93, time=10),
    Message('control_change', channel=5, control=7, value=92, time=9),
    Message('control_change', channel=5, control=7, value=91, time=10),
    Message('note_off', channel=5, note=68, velocity=0, time=10),
    Message('control_change', channel=5, control=7, value=90, time=0),
    Message('note_on', channel=5, note=61, velocity=60, time=0),
    Message('note_off', channel=5, note=61, velocity=0, time=128),
    Message('control_change', channel=5, control=7, value=100, time=352),
    Message('note_on', channel=5, note=59, velocity=75, time=0),
    Message('note_off', channel=5, note=59, velocity=0, time=16),
    Message('note_on', channel=5, note=61, velocity=75, time=32),
    Message('note_off', channel=5, note=61, velocity=0, time=16),
    Message('note_on', channel=5, note=62, velocity=75, time=32),
    Message('note_off', channel=5, note=62, velocity=0, time=192),
    Message('note_on', channel=5, note=55, velocity=75, time=0),
    Message('control_change', channel=5, control=7, value=99, time=7),
    Message('control_change', channel=5, control=7, value=98, time=7),
    Message('control_change', channel=5, control=7, value=97, time=7),
    Message('control_change', channel=5, control=7, value=96, time=7),
    Message('control_change', channel=5, control=7, value=95, time=7),
    Message('control_change', channel=5, control=7, value=94, time=8),
    Message('control_change', channel=5, control=7, value=93, time=7),
    Message('control_change', channel=5, control=7, value=92, time=7),
    Message('control_change', channel=5, control=7, value=91, time=7),
    Message('control_change', channel=5, control=7, value=90, time=7),
    Message('control_change', channel=5, control=7, value=89, time=8),
    Message('control_change', channel=5, control=7, value=88, time=7),
    Message('control_change', channel=5, control=7, value=87, time=7),
    Message('control_change', channel=5, control=7, value=86, time=7),
    Message('control_change', channel=5, control=7, value=85, time=7),
    Message('control_change', channel=5, control=7, value=84, time=8),
    Message('control_change', channel=5, control=7, value=83, time=7),
    Message('note_off', channel=5, note=55, velocity=0, time=6),
    Message('control_change', channel=5, control=7, value=82, time=1),
    Message('control_change', channel=5, control=7, value=81, time=7),
    Message('control_change', channel=5, control=7, value=80, time=7),
    Message('control_change', channel=5, control=7, value=100, time=337),
    Message('note_on', channel=5, note=57, velocity=75, time=0),
    Message('control_change', channel=5, control=7, value=101, time=4),
    Message('control_change', channel=5, control=7, value=102, time=5),
    Message('control_change', channel=5, control=7, value=103, time=5),
    Message('note_off', channel=5, note=57, velocity=0, time=2),
    Message('control_change', channel=5, control=7, value=104, time=3),
    Message('control_change', channel=5, control=7, value=105, time=5),
    Message('control_change', channel=5, control=7, value=106, time=4),
    Message('control_change', channel=5, control=7, value=107, time=5),
    Message('control_change', channel=5, control=7, value=108, time=5),
    Message('control_change', channel=5, control=7, value=109, time=5),
    Message('control_change', channel=5, control=7, value=110, time=5),
    Message('note_on', channel=5, note=57, velocity=91, time=0),
    Message('control_change', channel=5, control=7, value=111, time=4),
    Message('control_change', channel=5, control=7, value=112, time=5),
    Message('control_change', channel=5, control=7, value=113, time=5),
    Message('note_off', channel=5, note=57, velocity=0, time=2),
    Message('control_change', channel=5, control=7, value=114, time=3),
    Message('control_change', channel=5, control=7, value=115, time=5),
    Message('control_change', channel=5, control=7, value=116, time=4),
    Message('control_change', channel=5, control=7, value=117, time=5),
    Message('control_change', channel=5, control=7, value=118, time=5),
    Message('control_change', channel=5, control=7, value=119, time=5),
    Message('control_change', channel=5, control=7, value=120, time=5),
    Message('note_on', channel=5, note=69, velocity=108, time=0),
    Message('note_on', channel=5, note=65, velocity=108, time=0),
    Message('note_on', channel=5, note=62, velocity=108, time=0),
    Message('note_off', channel=5, note=69, velocity=0, time=16),
    Message('note_off', channel=5, note=65, velocity=0, time=0),
    Message('note_off', channel=5, note=62, velocity=0, time=0),
    Message('note_on', channel=5, note=69, velocity=108, time=32),
    Message('note_on', channel=5, note=65, velocity=108, time=0),
    Message('note_on', channel=5, note=62, velocity=108, time=0),
    Message('note_off', channel=5, note=69, velocity=0, time=16),
    Message('note_off', channel=5, note=65, velocity=0, time=0),
    Message('note_off', channel=5, note=62, velocity=0, time=0),
    Message('note_on', channel=5, note=69, velocity=108, time=32),
    Message('note_on', channel=5, note=65, velocity=108, time=0),
    Message('note_on', channel=5, note=62, velocity=108, time=0),
    Message('note_off', channel=5, note=69, velocity=0, time=16),
    Message('note_off', channel=5, note=65, velocity=0, time=0),
    Message('note_off', channel=5, note=62, velocity=0, time=0),
    Message('note_on', channel=5, note=69, velocity=108, time=32),
    Message('note_on', channel=5, note=65, velocity=108, time=0),
    Message('note_on', channel=5, note=62, velocity=108, time=0),
    Message('note_off', channel=5, note=69, velocity=0, time=16),
    Message('note_off', channel=5, note=65, velocity=0, time=0),
    Message('note_off', channel=5, note=62, velocity=0, time=0),
    Message('note_on', channel=5, note=69, velocity=108, time=32),
    Message('note_on', channel=5, note=65, velocity=108, time=0),
    Message('note_on', channel=5, note=62, velocity=108, time=0),
    Message('note_off', channel=5, note=62, velocity=0, time=16),
    Message('note_off', channel=5, note=65, velocity=0, time=0),
    Message('note_off', channel=5, note=69, velocity=0, time=0),
    Message('note_on', channel=5, note=69, velocity=108, time=32),
    Message('note_on', channel=5, note=65, velocity=108, time=0),
    Message('note_on', channel=5, note=62, velocity=108, time=0),
    Message('note_off', channel=5, note=62, velocity=0, time=16),
    Message('note_off', channel=5, note=65, velocity=0, time=0),
    Message('note_off', channel=5, note=69, velocity=0, time=0),
    Message('note_on', channel=5, note=68, velocity=108, time=32),
    Message('note_on', channel=5, note=64, velocity=108, time=0),
    Message('note_on', channel=5, note=61, velocity=108, time=0),
    Message('note_off', channel=5, note=68, velocity=0, time=16),
    Message('note_off', channel=5, note=64, velocity=0, time=0),
    Message('note_off', channel=5, note=61, velocity=0, time=0),
    Message('note_on', channel=5, note=69, velocity=108, time=32),
    Message('note_on', channel=5, note=65, velocity=108, time=0),
    Message('note_on', channel=5, note=62, velocity=108, time=0),
    Message('note_off', channel=5, note=62, velocity=0, time=16),
    Message('note_off', channel=5, note=65, velocity=0, time=0),
    Message('note_off', channel=5, note=69, velocity=0, time=0),
    Message('note_on', channel=5, note=70, velocity=108, time=32),
    Message('note_on', channel=5, note=66, velocity=108, time=0),
    Message('note_on', channel=5, note=63, velocity=108, time=0),
    Message('note_off', channel=5, note=70, velocity=0, time=96),
    Message('note_off', channel=5, note=66, velocity=0, time=0),
    Message('note_off', channel=5, note=63, velocity=0, time=0),
    Message('note_on', channel=5, note=69, velocity=108, time=0),
    Message('note_on', channel=5, note=65, velocity=108, time=0),
    Message('note_on', channel=5, note=62, velocity=108, time=0),
    Message('note_off', channel=5, note=62, velocity=0, time=16),
    Message('note_off', channel=5, note=65, velocity=0, time=0),
    Message('note_off', channel=5, note=69, velocity=0, time=0),
    Message('note_on', channel=5, note=68, velocity=108, time=32),
    Message('note_on', channel=5, note=64, velocity=108, time=0),
    Message('note_on', channel=5, note=61, velocity=108, time=0),
    Message('note_off', channel=5, note=68, velocity=0, time=16),
    Message('note_off', channel=5, note=64, velocity=0, time=0),
    Message('note_off', channel=5, note=61, velocity=0, time=0),
    Message('note_on', channel=5, note=69, velocity=108, time=32),
    Message('note_on', channel=5, note=65, velocity=108, time=0),
    Message('note_on', channel=5, note=62, velocity=108, time=0),
    Message('note_off', channel=5, note=69, velocity=0, time=24),
    Message('note_off', channel=5, note=65, velocity=0, time=0),
    Message('note_off', channel=5, note=62, velocity=0, time=0),
    Message('note_on', channel=5, note=65, velocity=108, time=72),
    Message('note_on', channel=5, note=62, velocity=108, time=0),
    Message('note_on', channel=5, note=57, velocity=108, time=0),
    Message('note_off', channel=5, note=65, velocity=0, time=24),
    Message('note_off', channel=5, note=62, velocity=0, time=0),
    Message('note_off', channel=5, note=57, velocity=0, time=0),
    Message('note_on', channel=5, note=67, velocity=108, time=72),
    Message('note_on', channel=5, note=62, velocity=108, time=0),
    Message('note_on', channel=5, note=58, velocity=108, time=0),
    Message('note_off', channel=5, note=58, velocity=0, time=96),
    Message('note_off', channel=5, note=62, velocity=0, time=0),
    Message('note_off', channel=5, note=67, velocity=0, time=0),
    Message('note_on', channel=5, note=67, velocity=108, time=0),
    Message('note_on', channel=5, note=62, velocity=108, time=0),
    Message('note_on', channel=5, note=58, velocity=108, time=0),
    Message('note_off', channel=5, note=67, velocity=0, time=16),
    Message('note_off', channel=5, note=62, velocity=0, time=0),
    Message('note_off', channel=5, note=58, velocity=0, time=0),
    Message('note_on', channel=5, note=66, velocity=108, time=32),
    Message('note_on', channel=5, note=61, velocity=108, time=0),
    Message('note_on', channel=5, note=57, velocity=108, time=0),
    Message('note_off', channel=5, note=66, velocity=0, time=16),
    Message('note_off', channel=5, note=61, velocity=0, time=0),
    Message('note_off', channel=5, note=57, velocity=0, time=0),
    Message('note_on', channel=5, note=67, velocity=108, time=32),
    Message('note_on', channel=5, note=62, velocity=108, time=0),
    Message('note_on', channel=5, note=58, velocity=108, time=0),
    Message('note_off', channel=5, note=67, velocity=0, time=24),
    Message('note_off', channel=5, note=62, velocity=0, time=0),
    Message('note_off', channel=5, note=58, velocity=0, time=0),
    Message('note_on', channel=5, note=58, velocity=108, time=72),
    Message('note_on', channel=5, note=55, velocity=108, time=0),
    Message('note_on', channel=5, note=50, velocity=108, time=0),
    Message('note_off', channel=5, note=58, velocity=0, time=24),
    Message('note_off', channel=5, note=55, velocity=0, time=0),
    Message('note_off', channel=5, note=50, velocity=0, time=0),
    Message('note_on', channel=5, note=57, velocity=108, time=72),
    Message('note_on', channel=5, note=53, velocity=108, time=0),
    Message('note_on', channel=5, note=50, velocity=108, time=0),
    Message('note_off', channel=5, note=57, velocity=0, time=47),
    Message('note_off', channel=5, note=53, velocity=0, time=0),
    Message('note_off', channel=5, note=50, velocity=0, time=0),
    Message('note_on', channel=5, note=62, velocity=108, time=49),
    Message('note_on', channel=5, note=57, velocity=108, time=0),
    Message('note_on', channel=5, note=53, velocity=108, time=0),
    Message('note_off', channel=5, note=62, velocity=0, time=16),
    Message('note_off', channel=5, note=57, velocity=0, time=0),
    Message('note_off', channel=5, note=53, velocity=0, time=0),
    Message('note_on', channel=5, note=65, velocity=108, time=32),
    Message('note_on', channel=5, note=62, velocity=108, time=0),
    Message('note_on', channel=5, note=57, velocity=108, time=0),
    Message('note_off', channel=5, note=65, velocity=0, time=16),
    Message('note_off', channel=5, note=62, velocity=0, time=0),
    Message('note_off', channel=5, note=57, velocity=0, time=0),
    Message('note_on', channel=5, note=68, velocity=108, time=32),
    Message('note_on', channel=5, note=64, velocity=108, time=0),
    Message('note_on', channel=5, note=61, velocity=108, time=0),
    Message('note_off', channel=5, note=61, velocity=0, time=168),
    Message('note_off', channel=5, note=68, velocity=0, time=0),
    Message('note_off', channel=5, note=64, velocity=0, time=0),
    Message('note_on', channel=5, note=69, velocity=108, time=24),
    Message('note_on', channel=5, note=65, velocity=108, time=0),
    Message('note_on', channel=5, note=62, velocity=108, time=0),
    Message('note_off', channel=5, note=69, velocity=0, time=16),
    Message('note_off', channel=5, note=65, velocity=0, time=0),
    Message('note_off', channel=5, note=62, velocity=0, time=0),
    Message('note_on', channel=5, note=69, velocity=108, time=32),
    Message('note_on', channel=5, note=65, velocity=108, time=0),
    Message('note_on', channel=5, note=62, velocity=108, time=0),
    Message('note_off', channel=5, note=69, velocity=0, time=16),
    Message('note_off', channel=5, note=65, velocity=0, time=0),
    Message('note_off', channel=5, note=62, velocity=0, time=0),
    Message('note_on', channel=5, note=69, velocity=108, time=32),
    Message('note_on', channel=5, note=65, velocity=108, time=0),
    Message('note_on', channel=5, note=62, velocity=108, time=0),
    Message('note_off', channel=5, note=69, velocity=0, time=16),
    Message('note_off', channel=5, note=65, velocity=0, time=0),
    Message('note_off', channel=5, note=62, velocity=0, time=0),
    Message('note_on', channel=5, note=69, velocity=108, time=32),
    Message('note_on', channel=5, note=65, velocity=108, time=0),
    Message('note_on', channel=5, note=62, velocity=108, time=0),
    Message('note_off', channel=5, note=69, velocity=0, time=16),
    Message('note_off', channel=5, note=65, velocity=0, time=0),
    Message('note_off', channel=5, note=62, velocity=0, time=0),
    Message('note_on', channel=5, note=69, velocity=108, time=32),
    Message('note_on', channel=5, note=65, velocity=108, time=0),
    Message('note_on', channel=5, note=62, velocity=108, time=0),
    Message('note_off', channel=5, note=69, velocity=0, time=16),
    Message('note_off', channel=5, note=65, velocity=0, time=0),
    Message('note_off', channel=5, note=62, velocity=0, time=0),
    Message('note_on', channel=5, note=69, velocity=108, time=32),
    Message('note_on', channel=5, note=65, velocity=108, time=0),
    Message('note_on', channel=5, note=62, velocity=108, time=0),
    Message('note_off', channel=5, note=69, velocity=0, time=16),
    Message('note_off', channel=5, note=65, velocity=0, time=0),
    Message('note_off', channel=5, note=62, velocity=0, time=0),
    Message('note_on', channel=5, note=68, velocity=108, time=32),
    Message('note_on', channel=5, note=64, velocity=108, time=0),
    Message('note_on', channel=5, note=61, velocity=108, time=0),
    Message('note_off', channel=5, note=68, velocity=0, time=16),
    Message('note_off', channel=5, note=64, velocity=0, time=0),
    Message('note_off', channel=5, note=61, velocity=0, time=0),
    Message('note_on', channel=5, note=69, velocity=108, time=32),
    Message('note_on', channel=5, note=65, velocity=108, time=0),
    Message('note_on', channel=5, note=62, velocity=108, time=0),
    Message('note_off', channel=5, note=69, velocity=0, time=16),
    Message('note_off', channel=5, note=65, velocity=0, time=0),
    Message('note_off', channel=5, note=62, velocity=0, time=0),
    Message('note_on', channel=5, note=72, velocity=108, time=32),
    Message('note_on', channel=5, note=68, velocity=108, time=0),
    Message('note_on', channel=5, note=65, velocity=108, time=0),
    Message('note_off', channel=5, note=72, velocity=0, time=96),
    Message('note_off', channel=5, note=68, velocity=0, time=0),
    Message('note_off', channel=5, note=65, velocity=0, time=0),
    Message('note_on', channel=5, note=70, velocity=108, time=0),
    Message('note_on', channel=5, note=66, velocity=108, time=0),
    Message('note_on', channel=5, note=63, velocity=108, time=0),
    Message('note_off', channel=5, note=63, velocity=0, time=16),
    Message('note_off', channel=5, note=66, velocity=0, time=0),
    Message('note_off', channel=5, note=70, velocity=0, time=0),
    Message('note_on', channel=5, note=69, velocity=108, time=32),
    Message('note_on', channel=5, note=65, velocity=108, time=0),
    Message('note_on', channel=5, note=62, velocity=108, time=0),
    Message('note_off', channel=5, note=69, velocity=0, time=16),
    Message('note_off', channel=5, note=65, velocity=0, time=0),
    Message('note_off', channel=5, note=62, velocity=0, time=0),
    Message('note_on', channel=5, note=70, velocity=108, time=32),
    Message('note_on', channel=5, note=66, velocity=108, time=0),
    Message('note_on', channel=5, note=63, velocity=108, time=0),
    Message('note_off', channel=5, note=70, velocity=0, time=24),
    Message('note_off', channel=5, note=66, velocity=0, time=0),
    Message('note_off', channel=5, note=63, velocity=0, time=0),
    Message('note_on', channel=5, note=63, velocity=108, time=72),
    Message('note_on', channel=5, note=58, velocity=108, time=0),
    Message('note_on', channel=5, note=54, velocity=108, time=0),
    Message('note_off', channel=5, note=63, velocity=0, time=24),
    Message('note_off', channel=5, note=58, velocity=0, time=0),
    Message('note_off', channel=5, note=54, velocity=0, time=0),
    Message('note_on', channel=5, note=70, velocity=108, time=72),
    Message('note_on', channel=5, note=66, velocity=108, time=0),
    Message('note_on', channel=5, note=63, velocity=108, time=0),
    Message('note_off', channel=5, note=70, velocity=0, time=96),
    Message('note_off', channel=5, note=66, velocity=0, time=0),
    Message('note_off', channel=5, note=63, velocity=0, time=0),
    Message('note_on', channel=5, note=69, velocity=108, time=0),
    Message('note_on', channel=5, note=65, velocity=108, time=0),
    Message('note_on', channel=5, note=62, velocity=108, time=0),
    Message('note_off', channel=5, note=69, velocity=0, time=16),
    Message('note_off', channel=5, note=65, velocity=0, time=0),
    Message('note_off', channel=5, note=62, velocity=0, time=0),
    Message('note_on', channel=5, note=68, velocity=108, time=32),
    Message('note_on', channel=5, note=64, velocity=108, time=0),
    Message('note_on', channel=5, note=61, velocity=108, time=0),
    Message('note_off', channel=5, note=68, velocity=0, time=16),
    Message('note_off', channel=5, note=64, velocity=0, time=0),
    Message('note_off', channel=5, note=61, velocity=0, time=0),
    Message('note_on', channel=5, note=69, velocity=108, time=32),
    Message('note_on', channel=5, note=65, velocity=108, time=0),
    Message('note_on', channel=5, note=62, velocity=108, time=0),
    Message('note_off', channel=5, note=69, velocity=0, time=24),
    Message('note_off', channel=5, note=65, velocity=0, time=0),
    Message('note_off', channel=5, note=62, velocity=0, time=0),
    Message('note_on', channel=5, note=62, velocity=108, time=72),
    Message('note_on', channel=5, note=57, velocity=108, time=0),
    Message('note_on', channel=5, note=53, velocity=108, time=0),
    Message('note_off', channel=5, note=62, velocity=0, time=24),
    Message('note_off', channel=5, note=57, velocity=0, time=0),
    Message('note_off', channel=5, note=53, velocity=0, time=0),
    Message('note_on', channel=5, note=65, velocity=108, time=72),
    Message('note_on', channel=5, note=62, velocity=108, time=0),
    Message('note_on', channel=5, note=57, velocity=108, time=0),
    Message('note_off', channel=5, note=65, velocity=0, time=168),
    Message('note_off', channel=5, note=62, velocity=0, time=0),
    Message('note_off', channel=5, note=57, velocity=0, time=0),
    Message('note_on', channel=5, note=61, velocity=108, time=24),
    Message('note_on', channel=5, note=57, velocity=108, time=0),
    Message('note_on', channel=5, note=55, velocity=108, time=0),
    Message('note_off', channel=5, note=61, velocity=0, time=168),
    Message('note_off', channel=5, note=57, velocity=0, time=0),
    Message('note_off', channel=5, note=55, velocity=0, time=0),
    Message('note_on', channel=5, note=69, velocity=127, time=24),
    Message('note_off', channel=5, note=69, velocity=0, time=24),
    Message('control_change', channel=5, control=7, value=119, time=48),
    Message('note_on', channel=5, note=57, velocity=127, time=0),
    Message('control_change', channel=5, control=7, value=118, time=1),
    Message('control_change', channel=5, control=7, value=117, time=1),
    Message('control_change', channel=5, control=7, value=116, time=1),
    Message('control_change', channel=5, control=7, value=115, time=1),
    Message('control_change', channel=5, control=7, value=114, time=1),
    Message('control_change', channel=5, control=7, value=113, time=1),
    Message('control_change', channel=5, control=7, value=112, time=1),
    Message('control_change', channel=5, control=7, value=111, time=1),
    Message('control_change', channel=5, control=7, value=110, time=1),
    Message('control_change', channel=5, control=7, value=109, time=1),
    Message('control_change', channel=5, control=7, value=108, time=1),
    Message('control_change', channel=5, control=7, value=107, time=1),
    Message('control_change', channel=5, control=7, value=106, time=1),
    Message('control_change', channel=5, control=7, value=105, time=1),
    Message('control_change', channel=5, control=7, value=104, time=1),
    Message('control_change', channel=5, control=7, value=103, time=1),
    Message('control_change', channel=5, control=7, value=102, time=1),
    Message('control_change', channel=5, control=7, value=101, time=1),
    Message('control_change', channel=5, control=7, value=100, time=1),
    Message('control_change', channel=5, control=7, value=99, time=1),
    Message('control_change', channel=5, control=7, value=98, time=1),
    Message('control_change', channel=5, control=7, value=97, time=1),
    Message('control_change', channel=5, control=7, value=95, time=1),
    Message('control_change', channel=5, control=7, value=94, time=1),
    Message('control_change', channel=5, control=7, value=93, time=1),
    Message('control_change', channel=5, control=7, value=92, time=1),
    Message('control_change', channel=5, control=7, value=91, time=1),
    Message('control_change', channel=5, control=7, value=90, time=1),
    Message('control_change', channel=5, control=7, value=89, time=1),
    Message('control_change', channel=5, control=7, value=88, time=1),
    Message('control_change', channel=5, control=7, value=87, time=1),
    Message('control_change', channel=5, control=7, value=86, time=1),
    Message('control_change', channel=5, control=7, value=85, time=1),
    Message('control_change', channel=5, control=7, value=84, time=1),
    Message('control_change', channel=5, control=7, value=83, time=1),
    Message('control_change', channel=5, control=7, value=82, time=1),
    Message('control_change', channel=5, control=7, value=81, time=1),
    Message('control_change', channel=5, control=7, value=80, time=1),
    Message('control_change', channel=5, control=7, value=79, time=1),
    Message('control_change', channel=5, control=7, value=78, time=1),
    Message('control_change', channel=5, control=7, value=77, time=1),
    Message('control_change', channel=5, control=7, value=76, time=1),
    Message('control_change', channel=5, control=7, value=75, time=1),
    Message('control_change', channel=5, control=7, value=74, time=1),
    Message('control_change', channel=5, control=7, value=73, time=1),
    Message('control_change', channel=5, control=7, value=72, time=1),
    Message('control_change', channel=5, control=7, value=70, time=1),
    Message('control_change', channel=5, control=7, value=71, time=180),
    Message('control_change', channel=5, control=7, value=72, time=12),
    Message('control_change', channel=5, control=7, value=73, time=11),
    Message('control_change', channel=5, control=7, value=74, time=12),
    Message('control_change', channel=5, control=7, value=75, time=11),
    Message('control_change', channel=5, control=7, value=76, time=12),
    Message('control_change', channel=5, control=7, value=77, time=11),
    Message('control_change', channel=5, control=7, value=78, time=12),
    Message('control_change', channel=5, control=7, value=79, time=11),
    Message('control_change', channel=5, control=7, value=80, time=12),
    Message('control_change', channel=5, control=7, value=81, time=11),
    Message('control_change', channel=5, control=7, value=82, time=12),
    Message('control_change', channel=5, control=7, value=83, time=11),
    Message('control_change', channel=5, control=7, value=84, time=12),
    Message('control_change', channel=5, control=7, value=85, time=11),
    Message('control_change', channel=5, control=7, value=86, time=12),
    Message('control_change', channel=5, control=7, value=87, time=11),
    Message('control_change', channel=5, control=7, value=88, time=12),
    Message('control_change', channel=5, control=7, value=89, time=11),
    Message('control_change', channel=5, control=7, value=90, time=12),
    Message('control_change', channel=5, control=7, value=91, time=11),
    Message('control_change', channel=5, control=7, value=92, time=12),
    Message('control_change', channel=5, control=7, value=93, time=11),
    Message('control_change', channel=5, control=7, value=94, time=12),
    Message('control_change', channel=5, control=7, value=95, time=12),
    Message('control_change', channel=5, control=7, value=96, time=11),
    Message('control_change', channel=5, control=7, value=97, time=12),
    Message('control_change', channel=5, control=7, value=98, time=11),
    Message('control_change', channel=5, control=7, value=99, time=12),
    Message('control_change', channel=5, control=7, value=100, time=11),
    Message('control_change', channel=5, control=7, value=101, time=12),
    Message('control_change', channel=5, control=7, value=102, time=11),
    Message('control_change', channel=5, control=7, value=103, time=12),
    Message('control_change', channel=5, control=7, value=104, time=11),
    Message('control_change', channel=5, control=7, value=105, time=12),
    Message('control_change', channel=5, control=7, value=106, time=11),
    Message('control_change', channel=5, control=7, value=107, time=12),
    Message('control_change', channel=5, control=7, value=108, time=11),
    Message('control_change', channel=5, control=7, value=109, time=12),
    Message('control_change', channel=5, control=7, value=110, time=11),
    Message('control_change', channel=5, control=7, value=111, time=12),
    Message('control_change', channel=5, control=7, value=112, time=11),
    Message('control_change', channel=5, control=7, value=113, time=12),
    Message('control_change', channel=5, control=7, value=114, time=11),
    Message('control_change', channel=5, control=7, value=115, time=12),
    Message('control_change', channel=5, control=7, value=116, time=11),
    Message('control_change', channel=5, control=7, value=117, time=12),
    Message('note_off', channel=5, note=57, velocity=0, time=11),
    Message('control_change', channel=5, control=7, value=118, time=0),
    Message('control_change', channel=5, control=7, value=119, time=12),
    Message('control_change', channel=5, control=7, value=120, time=12),
    Message('note_on', channel=5, note=64, velocity=108, time=0),
    Message('note_off', channel=5, note=64, velocity=0, time=80),
    Message('note_on', channel=5, note=60, velocity=108, time=16),
    Message('note_off', channel=5, note=60, velocity=0, time=47),
    Message('note_on', channel=5, note=64, velocity=108, time=1),
    Message('note_off', channel=5, note=64, velocity=0, time=80),
    Message('note_on', channel=5, note=60, velocity=108, time=16),
    Message('note_off', channel=5, note=60, velocity=0, time=47),
    Message('note_on', channel=5, note=65, velocity=127, time=1),
    Message('note_off', channel=5, note=65, velocity=0, time=80),
    Message('note_on', channel=5, note=64, velocity=108, time=16),
    Message('note_off', channel=5, note=64, velocity=0, time=47),
    Message('note_on', channel=5, note=63, velocity=108, time=1),
    Message('note_off', channel=5, note=63, velocity=0, time=368),
    Message('note_on', channel=5, note=64, velocity=108, time=496),
    Message('note_off', channel=5, note=64, velocity=0, time=80),
    Message('note_on', channel=5, note=60, velocity=108, time=16),
    Message('note_off', channel=5, note=60, velocity=0, time=47),
    Message('note_on', channel=5, note=64, velocity=108, time=1),
    Message('note_off', channel=5, note=64, velocity=0, time=80),
    Message('note_on', channel=5, note=60, velocity=108, time=16),
    Message('note_off', channel=5, note=60, velocity=0, time=47),
    Message('note_on', channel=5, note=65, velocity=127, time=1),
    Message('note_off', channel=5, note=65, velocity=0, time=80),
    Message('note_on', channel=5, note=64, velocity=108, time=16),
    Message('note_off', channel=5, note=64, velocity=0, time=47),
    Message('note_on', channel=5, note=63, velocity=108, time=1),
    Message('control_change', channel=5, control=7, value=119, time=5),
    Message('control_change', channel=5, control=7, value=118, time=6),
    Message('control_change', channel=5, control=7, value=117, time=6),
    Message('control_change', channel=5, control=7, value=116, time=6),
    Message('control_change', channel=5, control=7, value=115, time=5),
    Message('control_change', channel=5, control=7, value=114, time=6),
    Message('control_change', channel=5, control=7, value=113, time=6),
    Message('control_change', channel=5, control=7, value=112, time=6),
    Message('control_change', channel=5, control=7, value=111, time=5),
    Message('control_change', channel=5, control=7, value=110, time=6),
    Message('control_change', channel=5, control=7, value=109, time=6),
    Message('control_change', channel=5, control=7, value=108, time=6),
    Message('control_change', channel=5, control=7, value=107, time=5),
    Message('control_change', channel=5, control=7, value=106, time=6),
    Message('control_change', channel=5, control=7, value=105, time=6),
    Message('control_change', channel=5, control=7, value=104, time=6),
    Message('control_change', channel=5, control=7, value=103, time=5),
    Message('control_change', channel=5, control=7, value=102, time=6),
    Message('control_change', channel=5, control=7, value=101, time=6),
    Message('control_change', channel=5, control=7, value=100, time=6),
    Message('control_change', channel=5, control=7, value=99, time=5),
    Message('control_change', channel=5, control=7, value=98, time=6),
    Message('control_change', channel=5, control=7, value=97, time=6),
    Message('control_change', channel=5, control=7, value=96, time=6),
    Message('control_change', channel=5, control=7, value=95, time=6),
    Message('control_change', channel=5, control=7, value=94, time=5),
    Message('control_change', channel=5, control=7, value=93, time=6),
    Message('control_change', channel=5, control=7, value=92, time=6),
    Message('control_change', channel=5, control=7, value=91, time=6),
    Message('control_change', channel=5, control=7, value=90, time=5),
    Message('control_change', channel=5, control=7, value=89, time=6),
    Message('control_change', channel=5, control=7, value=88, time=6),
    Message('control_change', channel=5, control=7, value=87, time=6),
    Message('control_change', channel=5, control=7, value=86, time=5),
    Message('control_change', channel=5, control=7, value=85, time=6),
    Message('control_change', channel=5, control=7, value=84, time=6),
    Message('control_change', channel=5, control=7, value=83, time=6),
    Message('control_change', channel=5, control=7, value=82, time=5),
    Message('control_change', channel=5, control=7, value=81, time=6),
    Message('control_change', channel=5, control=7, value=80, time=6),
    Message('control_change', channel=5, control=7, value=79, time=6),
    Message('control_change', channel=5, control=7, value=78, time=5),
    Message('control_change', channel=5, control=7, value=77, time=6),
    Message('control_change', channel=5, control=7, value=76, time=6),
    Message('control_change', channel=5, control=7, value=75, time=6),
    Message('control_change', channel=5, control=7, value=74, time=5),
    Message('control_change', channel=5, control=7, value=73, time=6),
    Message('control_change', channel=5, control=7, value=72, time=6),
    Message('control_change', channel=5, control=7, value=71, time=6),
    Message('control_change', channel=5, control=7, value=70, time=6),
    Message('control_change', channel=5, control=7, value=71, time=7),
    Message('control_change', channel=5, control=7, value=72, time=7),
    Message('control_change', channel=5, control=7, value=73, time=7),
    Message('control_change', channel=5, control=7, value=74, time=7),
    Message('control_change', channel=5, control=7, value=75, time=7),
    Message('control_change', channel=5, control=7, value=76, time=8),
    Message('control_change', channel=5, control=7, value=77, time=7),
    Message('control_change', channel=5, control=7, value=78, time=7),
    Message('control_change', channel=5, control=7, value=79, time=7),
    Message('control_change', channel=5, control=7, value=80, time=7),
    Message('control_change', channel=5, control=7, value=81, time=8),
    Message('control_change', channel=5, control=7, value=82, time=7),
    Message('control_change', channel=5, control=7, value=83, time=7),
    Message('control_change', channel=5, control=7, value=84, time=7),
    Message('control_change', channel=5, control=7, value=85, time=7),
    Message('control_change', channel=5, control=7, value=86, time=8),
    Message('control_change', channel=5, control=7, value=87, time=7),
    Message('control_change', channel=5, control=7, value=88, time=7),
    Message('control_change', channel=5, control=7, value=89, time=7),
    Message('control_change', channel=5, control=7, value=90, time=7),
    Message('control_change', channel=5, control=7, value=91, time=8),
    Message('control_change', channel=5, control=7, value=92, time=7),
    Message('control_change', channel=5, control=7, value=93, time=7),
    Message('control_change', channel=5, control=7, value=94, time=7),
    Message('control_change', channel=5, control=7, value=95, time=7),
    Message('control_change', channel=5, control=7, value=96, time=8),
    Message('control_change', channel=5, control=7, value=97, time=7),
    Message('control_change', channel=5, control=7, value=98, time=7),
    Message('control_change', channel=5, control=7, value=99, time=7),
    Message('control_change', channel=5, control=7, value=100, time=7),
    Message('control_change', channel=5, control=7, value=101, time=8),
    Message('control_change', channel=5, control=7, value=102, time=7),
    Message('control_change', channel=5, control=7, value=103, time=7),
    Message('control_change', channel=5, control=7, value=104, time=7),
    Message('control_change', channel=5, control=7, value=105, time=7),
    Message('control_change', channel=5, control=7, value=106, time=8),
    Message('note_off', channel=5, note=63, velocity=0, time=5),
    Message('control_change', channel=5, control=7, value=107, time=2),
    Message('control_change', channel=5, control=7, value=108, time=7),
    Message('control_change', channel=5, control=7, value=109, time=7),
    Message('control_change', channel=5, control=7, value=110, time=7),
    Message('note_on', channel=5, note=67, velocity=92, time=49),
    Message('note_on', channel=5, note=64, velocity=92, time=0),
    Message('note_on', channel=5, note=59, velocity=92, time=0),
    Message('note_off', channel=5, note=59, velocity=0, time=23),
    Message('note_off', channel=5, note=67, velocity=0, time=0),
    Message('note_off', channel=5, note=64, velocity=0, time=0),
    Message('note_on', channel=5, note=67, velocity=92, time=1),
    Message('note_on', channel=5, note=64, velocity=92, time=0),
    Message('note_on', channel=5, note=59, velocity=92, time=0),
    Message('note_off', channel=5, note=59, velocity=0, time=23),
    Message('note_off', channel=5, note=64, velocity=0, time=0),
    Message('note_off', channel=5, note=67, velocity=0, time=0),
    Message('note_on', channel=5, note=67, velocity=92, time=1),
    Message('note_on', channel=5, note=64, velocity=92, time=0),
    Message('note_on', channel=5, note=59, velocity=92, time=0),
    Message('note_off', channel=5, note=59, velocity=0, time=23),
    Message('note_off', channel=5, note=64, velocity=0, time=0),
    Message('note_off', channel=5, note=67, velocity=0, time=0),
    Message('note_on', channel=5, note=67, velocity=92, time=1),
    Message('note_on', channel=5, note=64, velocity=92, time=0),
    Message('note_on', channel=5, note=59, velocity=92, time=0),
    Message('note_off', channel=5, note=59, velocity=0, time=23),
    Message('note_off', channel=5, note=64, velocity=0, time=0),
    Message('note_off', channel=5, note=67, velocity=0, time=0),
    Message('note_on', channel=5, note=67, velocity=92, time=1),
    Message('note_on', channel=5, note=64, velocity=92, time=0),
    Message('note_on', channel=5, note=59, velocity=92, time=0),
    Message('note_off', channel=5, note=67, velocity=0, time=16),
    Message('note_off', channel=5, note=64, velocity=0, time=0),
    Message('note_off', channel=5, note=59, velocity=0, time=0),
    Message('note_on', channel=5, note=67, velocity=92, time=32),
    Message('note_on', channel=5, note=64, velocity=92, time=0),
    Message('note_on', channel=5, note=59, velocity=92, time=0),
    Message('note_off', channel=5, note=59, velocity=0, time=23),
    Message('note_off', channel=5, note=64, velocity=0, time=0),
    Message('note_off', channel=5, note=67, velocity=0, time=0),
    Message('note_on', channel=5, note=67, velocity=92, time=1),
    Message('note_on', channel=5, note=64, velocity=92, time=0),
    Message('note_on', channel=5, note=59, velocity=92, time=0),
    Message('note_off', channel=5, note=59, velocity=0, time=23),
    Message('note_off', channel=5, note=64, velocity=0, time=0),
    Message('note_off', channel=5, note=67, velocity=0, time=0),
    Message('note_on', channel=5, note=67, velocity=92, time=1),
    Message('note_on', channel=5, note=64, velocity=92, time=0),
    Message('note_on', channel=5, note=59, velocity=92, time=0),
    Message('note_off', channel=5, note=59, velocity=0, time=23),
    Message('note_off', channel=5, note=64, velocity=0, time=0),
    Message('note_off', channel=5, note=67, velocity=0, time=0),
    Message('note_on', channel=5, note=67, velocity=92, time=1),
    Message('note_on', channel=5, note=64, velocity=92, time=0),
    Message('note_on', channel=5, note=59, velocity=92, time=0),
    Message('note_off', channel=5, note=59, velocity=0, time=23),
    Message('note_off', channel=5, note=64, velocity=0, time=0),
    Message('note_off', channel=5, note=67, velocity=0, time=0),
    Message('note_on', channel=5, note=67, velocity=92, time=1),
    Message('note_on', channel=5, note=64, velocity=92, time=0),
    Message('note_on', channel=5, note=59, velocity=92, time=0),
    Message('note_off', channel=5, note=67, velocity=0, time=16),
    Message('note_off', channel=5, note=64, velocity=0, time=0),
    Message('note_off', channel=5, note=59, velocity=0, time=0),
    Message('note_on', channel=5, note=67, velocity=92, time=32),
    Message('note_on', channel=5, note=64, velocity=92, time=0),
    Message('note_on', channel=5, note=59, velocity=92, time=0),
    Message('note_off', channel=5, note=59, velocity=0, time=23),
    Message('note_off', channel=5, note=64, velocity=0, time=0),
    Message('note_off', channel=5, note=67, velocity=0, time=0),
    Message('note_on', channel=5, note=67, velocity=92, time=1),
    Message('note_on', channel=5, note=64, velocity=92, time=0),
    Message('note_on', channel=5, note=59, velocity=92, time=0),
    Message('note_off', channel=5, note=59, velocity=0, time=23),
    Message('note_off', channel=5, note=64, velocity=0, time=0),
    Message('note_off', channel=5, note=67, velocity=0, time=0),
    Message('note_on', channel=5, note=67, velocity=92, time=1),
    Message('note_on', channel=5, note=64, velocity=92, time=0),
    Message('note_on', channel=5, note=59, velocity=92, time=0),
    Message('note_off', channel=5, note=59, velocity=0, time=23),
    Message('note_off', channel=5, note=64, velocity=0, time=0),
    Message('note_off', channel=5, note=67, velocity=0, time=0),
    Message('note_on', channel=5, note=67, velocity=92, time=1),
    Message('note_on', channel=5, note=64, velocity=92, time=0),
    Message('note_on', channel=5, note=59, velocity=92, time=0),
    Message('note_off', channel=5, note=59, velocity=0, time=23),
    Message('note_off', channel=5, note=64, velocity=0, time=0),
    Message('note_off', channel=5, note=67, velocity=0, time=0),
    Message('note_on', channel=5, note=67, velocity=92, time=1),
    Message('note_on', channel=5, note=64, velocity=92, time=0),
    Message('note_on', channel=5, note=59, velocity=92, time=0),
    Message('note_off', channel=5, note=67, velocity=0, time=24),
    Message('note_off', channel=5, note=64, velocity=0, time=0),
    Message('note_off', channel=5, note=59, velocity=0, time=0),
    Message('note_on', channel=5, note=66, velocity=92, time=0),
    Message('note_on', channel=5, note=63, velocity=92, time=0),
    Message('note_on', channel=5, note=58, velocity=92, time=0),
    Message('note_off', channel=5, note=58, velocity=0, time=23),
    Message('note_off', channel=5, note=63, velocity=0, time=0),
    Message('note_off', channel=5, note=66, velocity=0, time=0),
    Message('note_on', channel=5, note=67, velocity=92, time=145),
    Message('note_on', channel=5, note=64, velocity=92, time=0),
    Message('note_on', channel=5, note=59, velocity=92, time=0),
    Message('note_off', channel=5, note=59, velocity=0, time=23),
    Message('note_off', channel=5, note=64, velocity=0, time=0),
    Message('note_off', channel=5, note=67, velocity=0, time=0),
    Message('note_on', channel=5, note=67, velocity=92, time=1),
    Message('note_on', channel=5, note=64, velocity=92, time=0),
    Message('note_on', channel=5, note=59, velocity=92, time=0),
    Message('note_off', channel=5, note=59, velocity=0, time=23),
    Message('note_off', channel=5, note=64, velocity=0, time=0),
    Message('note_off', channel=5, note=67, velocity=0, time=0),
    Message('note_on', channel=5, note=67, velocity=92, time=1),
    Message('note_on', channel=5, note=64, velocity=92, time=0),
    Message('note_on', channel=5, note=59, velocity=92, time=0),
    Message('note_off', channel=5, note=59, velocity=0, time=23),
    Message('note_off', channel=5, note=64, velocity=0, time=0),
    Message('note_off', channel=5, note=67, velocity=0, time=0),
    Message('note_on', channel=5, note=67, velocity=92, time=1),
    Message('note_on', channel=5, note=64, velocity=92, time=0),
    Message('note_on', channel=5, note=59, velocity=92, time=0),
    Message('note_off', channel=5, note=59, velocity=0, time=23),
    Message('note_off', channel=5, note=64, velocity=0, time=0),
    Message('note_off', channel=5, note=67, velocity=0, time=0),
    Message('note_on', channel=5, note=67, velocity=92, time=1),
    Message('note_on', channel=5, note=64, velocity=92, time=0),
    Message('note_on', channel=5, note=59, velocity=92, time=0),
    Message('note_off', channel=5, note=67, velocity=0, time=16),
    Message('note_off', channel=5, note=64, velocity=0, time=0),
    Message('note_off', channel=5, note=59, velocity=0, time=0),
    Message('note_on', channel=5, note=67, velocity=92, time=32),
    Message('note_on', channel=5, note=64, velocity=92, time=0),
    Message('note_on', channel=5, note=59, velocity=92, time=0),
    Message('note_off', channel=5, note=59, velocity=0, time=23),
    Message('note_off', channel=5, note=64, velocity=0, time=0),
    Message('note_off', channel=5, note=67, velocity=0, time=0),
    Message('note_on', channel=5, note=67, velocity=92, time=1),
    Message('note_on', channel=5, note=64, velocity=92, time=0),
    Message('note_on', channel=5, note=59, velocity=92, time=0),
    Message('note_off', channel=5, note=59, velocity=0, time=23),
    Message('note_off', channel=5, note=64, velocity=0, time=0),
    Message('note_off', channel=5, note=67, velocity=0, time=0),
    Message('note_on', channel=5, note=67, velocity=92, time=1),
    Message('note_on', channel=5, note=64, velocity=92, time=0),
    Message('note_on', channel=5, note=59, velocity=92, time=0),
    Message('note_off', channel=5, note=59, velocity=0, time=23),
    Message('note_off', channel=5, note=64, velocity=0, time=0),
    Message('note_off', channel=5, note=67, velocity=0, time=0),
    Message('note_on', channel=5, note=67, velocity=92, time=1),
    Message('note_on', channel=5, note=64, velocity=92, time=0),
    Message('note_on', channel=5, note=59, velocity=92, time=0),
    Message('note_off', channel=5, note=59, velocity=0, time=23),
    Message('note_off', channel=5, note=64, velocity=0, time=0),
    Message('note_off', channel=5, note=67, velocity=0, time=0),
    Message('note_on', channel=5, note=67, velocity=92, time=1),
    Message('note_on', channel=5, note=64, velocity=92, time=0),
    Message('note_on', channel=5, note=59, velocity=92, time=0),
    Message('note_off', channel=5, note=67, velocity=0, time=16),
    Message('note_off', channel=5, note=64, velocity=0, time=0),
    Message('note_off', channel=5, note=59, velocity=0, time=0),
    Message('note_on', channel=5, note=67, velocity=92, time=32),
    Message('note_on', channel=5, note=64, velocity=92, time=0),
    Message('note_on', channel=5, note=59, velocity=92, time=0),
    Message('note_off', channel=5, note=59, velocity=0, time=23),
    Message('note_off', channel=5, note=64, velocity=0, time=0),
    Message('note_off', channel=5, note=67, velocity=0, time=0),
    Message('note_on', channel=5, note=67, velocity=92, time=1),
    Message('note_on', channel=5, note=64, velocity=92, time=0),
    Message('note_on', channel=5, note=59, velocity=92, time=0),
    Message('note_off', channel=5, note=59, velocity=0, time=23),
    Message('note_off', channel=5, note=64, velocity=0, time=0),
    Message('note_off', channel=5, note=67, velocity=0, time=0),
    Message('note_on', channel=5, note=67, velocity=92, time=1),
    Message('note_on', channel=5, note=64, velocity=92, time=0),
    Message('note_on', channel=5, note=59, velocity=92, time=0),
    Message('note_off', channel=5, note=59, velocity=0, time=23),
    Message('note_off', channel=5, note=64, velocity=0, time=0),
    Message('note_off', channel=5, note=67, velocity=0, time=0),
    Message('note_on', channel=5, note=67, velocity=92, time=1),
    Message('note_on', channel=5, note=64, velocity=92, time=0),
    Message('note_on', channel=5, note=59, velocity=92, time=0),
    Message('note_off', channel=5, note=59, velocity=0, time=23),
    Message('note_off', channel=5, note=64, velocity=0, time=0),
    Message('note_off', channel=5, note=67, velocity=0, time=0),
    Message('note_on', channel=5, note=67, velocity=92, time=1),
    Message('note_on', channel=5, note=64, velocity=92, time=0),
    Message('note_on', channel=5, note=59, velocity=92, time=0),
    Message('note_off', channel=5, note=67, velocity=0, time=24),
    Message('note_off', channel=5, note=64, velocity=0, time=0),
    Message('note_off', channel=5, note=59, velocity=0, time=0),
    Message('note_on', channel=5, note=66, velocity=92, time=0),
    Message('note_on', channel=5, note=63, velocity=92, time=0),
    Message('note_on', channel=5, note=58, velocity=92, time=0),
    Message('note_off', channel=5, note=58, velocity=0, time=23),
    Message('note_off', channel=5, note=63, velocity=0, time=0),
    Message('note_off', channel=5, note=66, velocity=0, time=0),
    Message('note_on', channel=5, note=55, velocity=92, time=49),
    Message('note_off', channel=5, note=55, velocity=0, time=47),
    Message('note_on', channel=5, note=67, velocity=92, time=1),
    Message('note_on', channel=5, note=63, velocity=92, time=0),
    Message('note_on', channel=5, note=60, velocity=92, time=0),
    Message('note_off', channel=5, note=67, velocity=0, time=15),
    Message('note_off', channel=5, note=63, velocity=0, time=0),
    Message('note_off', channel=5, note=60, velocity=0, time=0),
    Message('note_on', channel=5, note=67, velocity=92, time=1),
    Message('note_on', channel=5, note=63, velocity=92, time=0),
    Message('note_on', channel=5, note=60, velocity=92, time=0),
    Message('note_off', channel=5, note=67, velocity=0, time=15),
    Message('note_off', channel=5, note=63, velocity=0, time=0),
    Message('note_off', channel=5, note=60, velocity=0, time=0),
    Message('note_on', channel=5, note=67, velocity=92, time=1),
    Message('note_on', channel=5, note=63, velocity=92, time=0),
    Message('note_on', channel=5, note=60, velocity=92, time=0),
    Message('note_off', channel=5, note=67, velocity=0, time=15),
    Message('note_off', channel=5, note=63, velocity=0, time=0),
    Message('note_off', channel=5, note=60, velocity=0, time=0),
    Message('note_on', channel=5, note=67, velocity=92, time=1),
    Message('note_on', channel=5, note=63, velocity=92, time=0),
    Message('note_on', channel=5, note=60, velocity=92, time=0),
    Message('note_off', channel=5, note=60, velocity=0, time=224),
    Message('note_off', channel=5, note=63, velocity=0, time=0),
    Message('note_off', channel=5, note=67, velocity=0, time=0),
    Message('note_on', channel=5, note=55, velocity=92, time=544),
    Message('note_off', channel=5, note=55, velocity=0, time=47),
    Message('note_on', channel=5, note=67, velocity=92, time=1),
    Message('note_on', channel=5, note=63, velocity=92, time=0),
    Message('note_on', channel=5, note=60, velocity=92, time=0),
    Message('note_off', channel=5, note=60, velocity=0, time=15),
    Message('note_off', channel=5, note=63, velocity=0, time=0),
    Message('note_off', channel=5, note=67, velocity=0, time=0),
    Message('note_on', channel=5, note=67, velocity=92, time=1),
    Message('note_on', channel=5, note=63, velocity=92, time=0),
    Message('note_on', channel=5, note=60, velocity=92, time=0),
    Message('note_off', channel=5, note=60, velocity=0, time=15),
    Message('note_off', channel=5, note=63, velocity=0, time=0),
    Message('note_off', channel=5, note=67, velocity=0, time=0),
    Message('note_on', channel=5, note=67, velocity=92, time=1),
    Message('note_on', channel=5, note=63, velocity=92, time=0),
    Message('note_on', channel=5, note=60, velocity=92, time=0),
    Message('note_off', channel=5, note=60, velocity=0, time=15),
    Message('note_off', channel=5, note=67, velocity=0, time=0),
    Message('note_off', channel=5, note=63, velocity=0, time=0),
    Message('note_on', channel=5, note=67, velocity=92, time=1),
    Message('note_on', channel=5, note=63, velocity=92, time=0),
    Message('note_on', channel=5, note=60, velocity=92, time=0),
    Message('note_off', channel=5, note=60, velocity=0, time=176),
    Message('note_off', channel=5, note=63, velocity=0, time=0),
    Message('note_off', channel=5, note=67, velocity=0, time=0),
    Message('note_on', channel=5, note=63, velocity=92, time=16),
    Message('note_off', channel=5, note=63, velocity=0, time=16),
    Message('note_on', channel=5, note=67, velocity=92, time=32),
    Message('note_off', channel=5, note=67, velocity=0, time=80),
    Message('note_on', channel=5, note=63, velocity=92, time=16),
    Message('note_off', channel=5, note=63, velocity=0, time=47),
    Message('note_on', channel=5, note=67, velocity=92, time=1),
    Message('note_off', channel=5, note=67, velocity=0, time=80),
    Message('note_on', channel=5, note=63, velocity=92, time=16),
    Message('note_off', channel=5, note=63, velocity=0, time=47),
    Message('note_on', channel=5, note=70, velocity=92, time=1),
    Message('note_off', channel=5, note=70, velocity=0, time=96),
    Message('note_on', channel=5, note=69, velocity=92, time=0),
    Message('note_off', channel=5, note=69, velocity=0, time=47),
    Message('note_on', channel=5, note=68, velocity=92, time=1),
    Message('note_off', channel=5, note=68, velocity=0, time=80),
    Message('note_on', channel=5, note=61, velocity=92, time=16),
    Message('note_off', channel=5, note=61, velocity=0, time=47),
    Message('note_on', channel=5, note=73, velocity=127, time=1),
    Message('note_off', channel=5, note=73, velocity=0, time=96),
    Message('note_on', channel=5, note=72, velocity=92, time=0),
    Message('note_off', channel=5, note=72, velocity=0, time=47),
    Message('note_on', channel=5, note=71, velocity=92, time=1),
    Message('note_off', channel=5, note=71, velocity=0, time=80),
    Message('note_on', channel=5, note=67, velocity=92, time=16),
    Message('note_off', channel=5, note=67, velocity=0, time=47),
    Message('note_on', channel=5, note=64, velocity=127, time=1),
    Message('note_on', channel=5, note=61, velocity=127, time=0),
    Message('note_on', channel=5, note=56, velocity=127, time=0),
    Message('note_off', channel=5, note=64, velocity=0, time=16),
    Message('note_off', channel=5, note=61, velocity=0, time=0),
    Message('note_off', channel=5, note=56, velocity=0, time=0),
    Message('note_on', channel=5, note=68, velocity=92, time=32),
    Message('note_on', channel=5, note=64, velocity=92, time=0),
    Message('note_on', channel=5, note=61, velocity=92, time=0),
    Message('note_off', channel=5, note=61, velocity=0, time=16),
    Message('note_off', channel=5, note=64, velocity=0, time=0),
    Message('note_off', channel=5, note=68, velocity=0, time=0),
    Message('note_on', channel=5, note=67, velocity=92, time=32),
    Message('note_on', channel=5, note=64, velocity=92, time=0),
    Message('note_on', channel=5, note=60, velocity=92, time=0),
    Message('note_off', channel=5, note=67, velocity=0, time=16),
    Message('note_off', channel=5, note=64, velocity=0, time=0),
    Message('note_off', channel=5, note=60, velocity=0, time=0),
    Message('note_on', channel=5, note=64, velocity=127, time=32),
    Message('note_on', channel=5, note=61, velocity=127, time=0),
    Message('note_on', channel=5, note=56, velocity=127, time=0),
    Message('note_off', channel=5, note=64, velocity=0, time=16),
    Message('note_off', channel=5, note=61, velocity=0, time=0),
    Message('note_off', channel=5, note=56, velocity=0, time=0),
    Message('note_on', channel=5, note=68, velocity=92, time=32),
    Message('note_on', channel=5, note=64, velocity=92, time=0),
    Message('note_on', channel=5, note=61, velocity=92, time=0),
    Message('note_off', channel=5, note=61, velocity=0, time=16),
    Message('note_off', channel=5, note=64, velocity=0, time=0),
    Message('note_off', channel=5, note=68, velocity=0, time=0),
    Message('note_on', channel=5, note=67, velocity=92, time=32),
    Message('note_on', channel=5, note=64, velocity=92, time=0),
    Message('note_on', channel=5, note=60, velocity=92, time=0),
    Message('note_off', channel=5, note=67, velocity=0, time=16),
    Message('note_off', channel=5, note=64, velocity=0, time=0),
    Message('note_off', channel=5, note=60, velocity=0, time=0),
    Message('note_on', channel=5, note=64, velocity=127, time=32),
    Message('note_on', channel=5, note=61, velocity=127, time=0),
    Message('note_on', channel=5, note=56, velocity=127, time=0),
    Message('note_off', channel=5, note=64, velocity=0, time=16),
    Message('note_off', channel=5, note=61, velocity=0, time=0),
    Message('note_off', channel=5, note=56, velocity=0, time=0),
    Message('note_on', channel=5, note=68, velocity=92, time=32),
    Message('note_on', channel=5, note=64, velocity=92, time=0),
    Message('note_on', channel=5, note=61, velocity=92, time=0),
    Message('note_off', channel=5, note=61, velocity=0, time=16),
    Message('note_off', channel=5, note=64, velocity=0, time=0),
    Message('note_off', channel=5, note=68, velocity=0, time=0),
    Message('note_on', channel=5, note=67, velocity=92, time=32),
    Message('note_on', channel=5, note=64, velocity=92, time=0),
    Message('note_on', channel=5, note=60, velocity=92, time=0),
    Message('note_off', channel=5, note=67, velocity=0, time=16),
    Message('note_off', channel=5, note=64, velocity=0, time=0),
    Message('note_off', channel=5, note=60, velocity=0, time=0),
    Message('note_on', channel=5, note=64, velocity=127, time=32),
    Message('note_on', channel=5, note=61, velocity=127, time=0),
    Message('note_on', channel=5, note=56, velocity=127, time=0),
    Message('note_off', channel=5, note=64, velocity=0, time=16),
    Message('note_off', channel=5, note=61, velocity=0, time=0),
    Message('note_off', channel=5, note=56, velocity=0, time=0),
    Message('note_on', channel=5, note=68, velocity=92, time=32),
    Message('note_on', channel=5, note=64, velocity=92, time=0),
    Message('note_on', channel=5, note=61, velocity=92, time=0),
    Message('note_off', channel=5, note=61, velocity=0, time=16),
    Message('note_off', channel=5, note=64, velocity=0, time=0),
    Message('note_off', channel=5, note=68, velocity=0, time=0),
    Message('note_on', channel=5, note=67, velocity=92, time=32),
    Message('note_on', channel=5, note=64, velocity=92, time=0),
    Message('note_on', channel=5, note=60, velocity=92, time=0),
    Message('note_off', channel=5, note=67, velocity=0, time=16),
    Message('note_off', channel=5, note=64, velocity=0, time=0),
    Message('note_off', channel=5, note=60, velocity=0, time=0),
    Message('note_on', channel=5, note=64, velocity=92, time=32),
    Message('note_on', channel=5, note=60, velocity=92, time=0),
    Message('note_on', channel=5, note=55, velocity=92, time=0),
    Message('control_change', channel=5, control=7, value=109, time=2),
    Message('control_change', channel=5, control=7, value=108, time=2),
    Message('control_change', channel=5, control=7, value=107, time=3),
    Message('control_change', channel=5, control=7, value=106, time=2),
    Message('control_change', channel=5, control=7, value=105, time=3),
    Message('control_change', channel=5, control=7, value=104, time=2),
    Message('control_change', channel=5, control=7, value=103, time=2),
    Message('control_change', channel=5, control=7, value=102, time=3),
    Message('control_change', channel=5, control=7, value=101, time=2),
    Message('control_change', channel=5, control=7, value=100, time=3),
    Message('control_change', channel=5, control=7, value=99, time=2),
    Message('control_change', channel=5, control=7, value=98, time=2),
    Message('control_change', channel=5, control=7, value=97, time=3),
    Message('control_change', channel=5, control=7, value=96, time=2),
    Message('control_change', channel=5, control=7, value=95, time=3),
    Message('control_change', channel=5, control=7, value=94, time=2),
    Message('control_change', channel=5, control=7, value=93, time=2),
    Message('control_change', channel=5, control=7, value=92, time=3),
    Message('control_change', channel=5, control=7, value=91, time=2),
    Message('control_change', channel=5, control=7, value=90, time=3),
    Message('control_change', channel=5, control=7, value=89, time=2),
    Message('control_change', channel=5, control=7, value=88, time=2),
    Message('control_change', channel=5, control=7, value=87, time=3),
    Message('control_change', channel=5, control=7, value=86, time=2),
    Message('control_change', channel=5, control=7, value=85, time=3),
    Message('control_change', channel=5, control=7, value=84, time=2),
    Message('control_change', channel=5, control=7, value=83, time=2),
    Message('control_change', channel=5, control=7, value=82, time=3),
    Message('control_change', channel=5, control=7, value=81, time=2),
    Message('control_change', channel=5, control=7, value=80, time=3),
    Message('control_change', channel=5, control=7, value=79, time=2),
    Message('control_change', channel=5, control=7, value=78, time=2),
    Message('control_change', channel=5, control=7, value=77, time=3),
    Message('control_change', channel=5, control=7, value=76, time=2),
    Message('control_change', channel=5, control=7, value=75, time=3),
    Message('control_change', channel=5, control=7, value=74, time=2),
    Message('control_change', channel=5, control=7, value=73, time=2),
    Message('control_change', channel=5, control=7, value=72, time=3),
    Message('control_change', channel=5, control=7, value=71, time=2),
    Message('control_change', channel=5, control=7, value=70, time=3),
    Message('control_change', channel=5, control=7, value=69, time=2),
    Message('control_change', channel=5, control=7, value=68, time=2),
    Message('control_change', channel=5, control=7, value=67, time=3),
    Message('control_change', channel=5, control=7, value=66, time=2),
    Message('control_change', channel=5, control=7, value=65, time=3),
    Message('control_change', channel=5, control=7, value=64, time=2),
    Message('control_change', channel=5, control=7, value=63, time=2),
    Message('control_change', channel=5, control=7, value=62, time=3),
    Message('control_change', channel=5, control=7, value=61, time=2),
    Message('control_change', channel=5, control=7, value=60, time=3),
    Message('control_change', channel=5, control=7, value=59, time=2),
    Message('control_change', channel=5, control=7, value=58, time=2),
    Message('control_change', channel=5, control=7, value=57, time=3),
    Message('control_change', channel=5, control=7, value=56, time=2),
    Message('control_change', channel=5, control=7, value=55, time=3),
    Message('control_change', channel=5, control=7, value=54, time=2),
    Message('control_change', channel=5, control=7, value=53, time=2),
    Message('control_change', channel=5, control=7, value=52, time=3),
    Message('control_change', channel=5, control=7, value=51, time=2),
    Message('control_change', channel=5, control=7, value=50, time=3),
    Message('control_change', channel=5, control=7, value=51, time=2),
    Message('control_change', channel=5, control=7, value=52, time=2),
    Message('control_change', channel=5, control=7, value=53, time=3),
    Message('control_change', channel=5, control=7, value=54, time=2),
    Message('control_change', channel=5, control=7, value=55, time=3),
    Message('control_change', channel=5, control=7, value=56, time=2),
    Message('control_change', channel=5, control=7, value=57, time=2),
    Message('control_change', channel=5, control=7, value=58, time=3),
    Message('control_change', channel=5, control=7, value=59, time=2),
    Message('control_change', channel=5, control=7, value=60, time=3),
    Message('control_change', channel=5, control=7, value=61, time=2),
    Message('control_change', channel=5, control=7, value=62, time=2),
    Message('control_change', channel=5, control=7, value=63, time=3),
    Message('control_change', channel=5, control=7, value=64, time=2),
    Message('control_change', channel=5, control=7, value=65, time=3),
    Message('control_change', channel=5, control=7, value=66, time=2),
    Message('control_change', channel=5, control=7, value=67, time=2),
    Message('control_change', channel=5, control=7, value=68, time=3),
    Message('control_change', channel=5, control=7, value=69, time=2),
    Message('control_change', channel=5, control=7, value=70, time=3),
    Message('control_change', channel=5, control=7, value=71, time=2),
    Message('control_change', channel=5, control=7, value=72, time=2),
    Message('control_change', channel=5, control=7, value=73, time=3),
    Message('control_change', channel=5, control=7, value=74, time=2),
    Message('control_change', channel=5, control=7, value=75, time=3),
    Message('control_change', channel=5, control=7, value=76, time=2),
    Message('control_change', channel=5, control=7, value=77, time=2),
    Message('control_change', channel=5, control=7, value=78, time=3),
    Message('control_change', channel=5, control=7, value=79, time=2),
    Message('control_change', channel=5, control=7, value=80, time=3),
    Message('control_change', channel=5, control=7, value=81, time=2),
    Message('control_change', channel=5, control=7, value=82, time=2),
    Message('control_change', channel=5, control=7, value=83, time=3),
    Message('control_change', channel=5, control=7, value=84, time=2),
    Message('control_change', channel=5, control=7, value=85, time=3),
    Message('control_change', channel=5, control=7, value=86, time=2),
    Message('control_change', channel=5, control=7, value=87, time=2),
    Message('control_change', channel=5, control=7, value=88, time=3),
    Message('control_change', channel=5, control=7, value=89, time=2),
    Message('control_change', channel=5, control=7, value=90, time=3),
    Message('control_change', channel=5, control=7, value=91, time=2),
    Message('control_change', channel=5, control=7, value=92, time=2),
    Message('control_change', channel=5, control=7, value=93, time=3),
    Message('control_change', channel=5, control=7, value=94, time=2),
    Message('control_change', channel=5, control=7, value=95, time=3),
    Message('control_change', channel=5, control=7, value=96, time=2),
    Message('control_change', channel=5, control=7, value=97, time=2),
    Message('control_change', channel=5, control=7, value=98, time=3),
    Message('control_change', channel=5, control=7, value=99, time=2),
    Message('control_change', channel=5, control=7, value=100, time=3),
    Message('control_change', channel=5, control=7, value=101, time=2),
    Message('control_change', channel=5, control=7, value=102, time=2),
    Message('control_change', channel=5, control=7, value=103, time=3),
    Message('note_off', channel=5, note=64, velocity=0, time=1),
    Message('note_off', channel=5, note=60, velocity=0, time=0),
    Message('note_off', channel=5, note=55, velocity=0, time=0),
    Message('control_change', channel=5, control=7, value=104, time=1),
    Message('control_change', channel=5, control=7, value=105, time=3),
    Message('control_change', channel=5, control=7, value=106, time=2),
    Message('control_change', channel=5, control=7, value=107, time=2),
    Message('control_change', channel=5, control=7, value=108, time=3),
    Message('control_change', channel=5, control=7, value=109, time=2),
    Message('control_change', channel=5, control=7, value=110, time=3),
    Message('note_on', channel=5, note=58, velocity=92, time=0),
    Message('note_on', channel=5, note=54, velocity=92, time=0),
    Message('note_on', channel=5, note=51, velocity=92, time=0),
    Message('note_off', channel=5, note=51, velocity=0, time=15),
    Message('note_off', channel=5, note=58, velocity=0, time=0),
    Message('note_off', channel=5, note=54, velocity=0, time=0),
    Message('note_on', channel=5, note=63, velocity=92, time=1),
    Message('note_on', channel=5, note=58, velocity=92, time=0),
    Message('note_on', channel=5, note=54, velocity=92, time=0),
    Message('note_off', channel=5, note=54, velocity=0, time=15),
    Message('note_off', channel=5, note=58, velocity=0, time=0),
    Message('note_off', channel=5, note=63, velocity=0, time=0),
    Message('note_on', channel=5, note=66, velocity=92, time=1),
    Message('note_on', channel=5, note=63, velocity=92, time=0),
    Message('note_on', channel=5, note=58, velocity=92, time=0),
    Message('control_change', channel=5, control=7, value=111, time=11),
    Message('note_off', channel=5, note=66, velocity=0, time=4),
    Message('note_off', channel=5, note=63, velocity=0, time=0),
    Message('note_off', channel=5, note=58, velocity=0, time=0),
    Message('note_on', channel=5, note=67, velocity=92, time=1),
    Message('note_on', channel=5, note=64, velocity=92, time=0),
    Message('note_on', channel=5, note=60, velocity=92, time=0),
    Message('control_change', channel=5, control=7, value=112, time=38),
    Message('control_change', channel=5, control=7, value=113, time=43),
    Message('control_change', channel=5, control=7, value=114, time=43),
    Message('control_change', channel=5, control=7, value=115, time=44),
    Message('control_change', channel=5, control=7, value=116, time=43),
    Message('control_change', channel=5, control=7, value=117, time=43),
    Message('control_change', channel=5, control=7, value=118, time=43),
    Message('control_change', channel=5, control=7, value=119, time=43),
    Message('note_off', channel=5, note=60, velocity=0, time=28),
    Message('note_off', channel=5, note=64, velocity=0, time=0),
    Message('note_off', channel=5, note=67, velocity=0, time=0),
    Message('control_change', channel=5, control=7, value=120, time=16),
    Message('note_on', channel=5, note=72, velocity=127, time=0),
    Message('note_on', channel=5, note=67, velocity=127, time=0),
    Message('note_on', channel=5, note=64, velocity=127, time=0),
    Message('note_off', channel=5, note=72, velocity=0, time=24),
    Message('note_off', channel=5, note=67, velocity=0, time=0),
    Message('note_off', channel=5, note=64, velocity=0, time=0),
    Message('control_change', channel=5, control=7, value=100, time=696),
    Message('note_on', channel=5, note=67, velocity=75, time=0),
    Message('note_on', channel=5, note=63, velocity=75, time=0),
    Message('note_on', channel=5, note=58, velocity=75, time=0),
    Message('control_change', channel=5, control=7, value=101, time=43),
    Message('note_off', channel=5, note=58, velocity=0, time=29),
    Message('note_off', channel=5, note=63, velocity=0, time=0),
    Message('note_off', channel=5, note=67, velocity=0, time=0),
    Message('note_on', channel=5, note=70, velocity=77, time=0),
    Message('note_on', channel=5, note=66, velocity=77, time=0),
    Message('note_on', channel=5, note=63, velocity=77, time=0),
    Message('control_change', channel=5, control=7, value=102, time=14),
    Message('control_change', channel=5, control=7, value=103, time=43),
    Message('control_change', channel=5, control=7, value=104, time=43),
    Message('control_change', channel=5, control=7, value=105, time=44),
    Message('control_change', channel=5, control=7, value=106, time=43),
    Message('control_change', channel=5, control=7, value=107, time=43),
    Message('control_change', channel=5, control=7, value=108, time=43),
    Message('control_change', channel=5, control=7, value=109, time=43),
    Message('control_change', channel=5, control=7, value=110, time=44),
    Message('control_change', channel=5, control=7, value=111, time=43),
    Message('control_change', channel=5, control=7, value=112, time=43),
    Message('control_change', channel=5, control=7, value=113, time=43),
    Message('control_change', channel=5, control=7, value=114, time=43),
    Message('control_change', channel=5, control=7, value=115, time=44),
    Message('control_change', channel=5, control=7, value=116, time=43),
    Message('control_change', channel=5, control=7, value=117, time=43),
    Message('control_change', channel=5, control=7, value=118, time=43),
    Message('control_change', channel=5, control=7, value=119, time=43),
    Message('note_off', channel=5, note=63, velocity=0, time=28),
    Message('note_off', channel=5, note=70, velocity=0, time=0),
    Message('note_off', channel=5, note=66, velocity=0, time=0),
    Message('control_change', channel=5, control=7, value=120, time=16),
    Message('note_on', channel=5, note=72, velocity=127, time=0),
    Message('note_on', channel=5, note=67, velocity=127, time=0),
    Message('note_on', channel=5, note=64, velocity=127, time=0),
    Message('note_on', channel=5, note=60, velocity=127, time=0),
    Message('note_off', channel=5, note=72, velocity=0, time=47),
    Message('note_off', channel=5, note=67, velocity=0, time=0),
    Message('note_off', channel=5, note=64, velocity=0, time=0),
    Message('note_off', channel=5, note=60, velocity=0, time=0),
    Message('control_change', channel=5, control=101, value=0, time=1249),
    Message('control_change', channel=5, control=100, value=0, time=0),
    Message('control_change', channel=5, control=6, value=12, time=0),
    Message('control_change', channel=5, control=10, value=64, time=0),
    Message('control_change', channel=5, control=7, value=120, time=0),
    Message('pitchwheel', channel=5, pitch=0, time=0),
    Message('program_change', channel=5, program=60, time=0),
    Message('program_change', channel=5, program=60, time=0),
    Message('control_change', channel=5, control=7, value=127, time=0),
    Message('control_change', channel=5, control=10, value=64, time=0),
    Message('control_change', channel=5, control=101, value=0, time=1),
    Message('control_change', channel=5, control=100, value=0, time=0),
    Message('control_change', channel=5, control=6, value=12, time=0),
    Message('control_change', channel=5, control=10, value=64, time=0),
    Message('control_change', channel=5, control=7, value=120, time=0),
    Message('pitchwheel', channel=5, pitch=0, time=0),
    Message('program_change', channel=5, program=60, time=0),
    MetaMessage('end_of_track', time=0)]),
  MidiTrack([
    MetaMessage('track_name', name='Piano #3', time=0),
    Message('control_change', channel=4, control=10, value=64, time=0),
    Message('control_change', channel=4, control=7, value=127, time=0),
    Message('pitchwheel', channel=4, pitch=0, time=0),
    Message('control_change', channel=4, control=101, value=0, time=0),
    Message('control_change', channel=4, control=100, value=0, time=0),
    Message('control_change', channel=4, control=6, value=12, time=0),
    Message('control_change', channel=4, control=10, value=64, time=0),
    Message('control_change', channel=4, control=7, value=127, time=0),
    Message('pitchwheel', channel=4, pitch=0, time=0),
    Message('program_change', channel=4, program=0, time=0),
    Message('control_change', channel=4, control=7, value=127, time=0),
    Message('control_change', channel=4, control=10, value=64, time=0),
    Message('control_change', channel=4, control=101, value=0, time=0),
    Message('control_change', channel=4, control=100, value=0, time=0),
    Message('control_change', channel=4, control=6, value=12, time=0),
    Message('control_change', channel=4, control=10, value=64, time=0),
    Message('control_change', channel=4, control=7, value=127, time=0),
    Message('pitchwheel', channel=4, pitch=0, time=0),
    Message('program_change', channel=4, program=0, time=0),
    Message('control_change', channel=4, control=7, value=127, time=0),
    Message('control_change', channel=4, control=10, value=64, time=0),
    Message('control_change', channel=4, control=101, value=0, time=0),
    Message('control_change', channel=4, control=100, value=0, time=0),
    Message('control_change', channel=4, control=6, value=12, time=0),
    Message('control_change', channel=4, control=10, value=64, time=0),
    Message('control_change', channel=4, control=7, value=127, time=0),
    Message('pitchwheel', channel=4, pitch=0, time=0),
    Message('program_change', channel=4, program=0, time=0),
    Message('control_change', channel=4, control=7, value=90, time=8544),
    Message('note_on', channel=4, note=28, velocity=42, time=0),
    Message('control_change', channel=4, control=7, value=89, time=734),
    Message('control_change', channel=4, control=7, value=88, time=14),
    Message('control_change', channel=4, control=7, value=87, time=15),
    Message('control_change', channel=4, control=7, value=86, time=14),
    Message('control_change', channel=4, control=7, value=85, time=14),
    Message('control_change', channel=4, control=7, value=84, time=15),
    Message('control_change', channel=4, control=7, value=83, time=14),
    Message('control_change', channel=4, control=7, value=82, time=15),
    Message('control_change', channel=4, control=7, value=81, time=14),
    Message('control_change', channel=4, control=7, value=80, time=14),
    Message('control_change', channel=4, control=7, value=81, time=15),
    Message('control_change', channel=4, control=7, value=82, time=14),
    Message('control_change', channel=4, control=7, value=83, time=15),
    Message('control_change', channel=4, control=7, value=84, time=14),
    Message('control_change', channel=4, control=7, value=85, time=14),
    Message('control_change', channel=4, control=7, value=86, time=15),
    Message('control_change', channel=4, control=7, value=87, time=14),
    Message('control_change', channel=4, control=7, value=88, time=15),
    Message('control_change', channel=4, control=7, value=89, time=14),
    Message('control_change', channel=4, control=7, value=90, time=14),
    Message('note_off', channel=4, note=28, velocity=0, time=48),
    Message('control_change', channel=4, control=7, value=100, time=3457),
    Message('note_on', channel=4, note=64, velocity=75, time=0),
    Message('note_off', channel=4, note=64, velocity=0, time=16),
    Message('note_on', channel=4, note=64, velocity=75, time=32),
    Message('note_off', channel=4, note=64, velocity=0, time=16),
    Message('note_on', channel=4, note=64, velocity=75, time=32),
    Message('note_off', channel=4, note=64, velocity=0, time=16),
    Message('note_on', channel=4, note=64, velocity=75, time=32),
    Message('note_off', channel=4, note=64, velocity=0, time=16),
    Message('note_on', channel=4, note=64, velocity=75, time=32),
    Message('note_off', channel=4, note=64, velocity=0, time=16),
    Message('note_on', channel=4, note=64, velocity=75, time=32),
    Message('note_off', channel=4, note=64, velocity=0, time=16),
    Message('note_on', channel=4, note=63, velocity=75, time=32),
    Message('note_off', channel=4, note=63, velocity=0, time=16),
    Message('note_on', channel=4, note=64, velocity=75, time=32),
    Message('note_off', channel=4, note=64, velocity=0, time=16),
    Message('note_on', channel=4, note=65, velocity=75, time=32),
    Message('note_off', channel=4, note=65, velocity=0, time=96),
    Message('note_on', channel=4, note=64, velocity=75, time=0),
    Message('note_off', channel=4, note=64, velocity=0, time=16),
    Message('note_on', channel=4, note=63, velocity=75, time=32),
    Message('note_off', channel=4, note=63, velocity=0, time=16),
    Message('note_on', channel=4, note=64, velocity=75, time=32),
    Message('note_off', channel=4, note=64, velocity=0, time=24),
    Message('note_on', channel=4, note=59, velocity=75, time=72),
    Message('note_off', channel=4, note=59, velocity=0, time=24),
    Message('note_on', channel=4, note=60, velocity=75, time=72),
    Message('note_off', channel=4, note=60, velocity=0, time=96),
    Message('note_on', channel=4, note=60, velocity=75, time=0),
    Message('note_off', channel=4, note=60, velocity=0, time=16),
    Message('note_on', channel=4, note=59, velocity=75, time=32),
    Message('note_off', channel=4, note=59, velocity=0, time=16),
    Message('note_on', channel=4, note=60, velocity=75, time=32),
    Message('note_off', channel=4, note=60, velocity=0, time=24),
    Message('note_on', channel=4, note=52, velocity=75, time=72),
    Message('note_off', channel=4, note=52, velocity=0, time=96),
    Message('note_on', channel=4, note=52, velocity=75, time=0),
    Message('note_off', channel=4, note=52, velocity=0, time=16),
    Message('note_on', channel=4, note=55, velocity=75, time=80),
    Message('note_off', channel=4, note=55, velocity=0, time=16),
    Message('note_on', channel=4, note=59, velocity=75, time=32),
    Message('note_off', channel=4, note=59, velocity=0, time=16),
    Message('note_on', channel=4, note=63, velocity=105, time=32),
    Message('note_off', channel=4, note=63, velocity=0, time=168),
    Message('note_on', channel=4, note=64, velocity=75, time=24),
    Message('note_off', channel=4, note=64, velocity=0, time=16),
    Message('note_on', channel=4, note=64, velocity=75, time=32),
    Message('note_off', channel=4, note=64, velocity=0, time=16),
    Message('note_on', channel=4, note=64, velocity=75, time=32),
    Message('note_off', channel=4, note=64, velocity=0, time=16),
    Message('note_on', channel=4, note=64, velocity=75, time=32),
    Message('note_off', channel=4, note=64, velocity=0, time=16),
    Message('note_on', channel=4, note=64, velocity=75, time=32),
    Message('note_off', channel=4, note=64, velocity=0, time=16),
    Message('note_on', channel=4, note=64, velocity=75, time=32),
    Message('note_off', channel=4, note=64, velocity=0, time=16),
    Message('note_on', channel=4, note=63, velocity=75, time=32),
    Message('note_off', channel=4, note=63, velocity=0, time=16),
    Message('note_on', channel=4, note=64, velocity=75, time=32),
    Message('note_off', channel=4, note=64, velocity=0, time=48),
    Message('note_on', channel=4, note=67, velocity=75, time=0),
    Message('note_off', channel=4, note=67, velocity=0, time=96),
    Message('note_on', channel=4, note=65, velocity=75, time=0),
    Message('note_off', channel=4, note=65, velocity=0, time=16),
    Message('note_on', channel=4, note=64, velocity=75, time=32),
    Message('note_off', channel=4, note=64, velocity=0, time=16),
    Message('note_on', channel=4, note=65, velocity=75, time=32),
    Message('note_off', channel=4, note=65, velocity=0, time=24),
    Message('note_on', channel=4, note=56, velocity=75, time=72),
    Message('note_off', channel=4, note=56, velocity=0, time=24),
    Message('note_on', channel=4, note=65, velocity=75, time=72),
    Message('note_off', channel=4, note=65, velocity=0, time=96),
    Message('note_on', channel=4, note=64, velocity=75, time=0),
    Message('note_off', channel=4, note=64, velocity=0, time=16),
    Message('note_on', channel=4, note=63, velocity=75, time=32),
    Message('note_off', channel=4, note=63, velocity=0, time=16),
    Message('note_on', channel=4, note=64, velocity=75, time=32),
    Message('note_off', channel=4, note=64, velocity=0, time=24),
    Message('note_on', channel=4, note=55, velocity=75, time=72),
    Message('note_off', channel=4, note=55, velocity=0, time=96),
    Message('note_on', channel=4, note=59, velocity=75, time=0),
    Message('note_off', channel=4, note=59, velocity=0, time=168),
    Message('note_on', channel=4, note=57, velocity=75, time=24),
    Message('note_off', channel=4, note=57, velocity=0, time=168),
    Message('note_on', channel=4, note=57, velocity=75, time=120),
    Message('note_off', channel=4, note=57, velocity=0, time=47),
    Message('control_change', channel=4, control=7, value=120, time=10609),
    Message('note_on', channel=4, note=33, velocity=108, time=0),
    Message('note_off', channel=4, note=33, velocity=0, time=47),
    Message('control_change', channel=4, control=7, value=110, time=337),
    Message('note_on', channel=4, note=33, velocity=92, time=0),
    Message('note_off', channel=4, note=33, velocity=0, time=264),
    Message('note_on', channel=4, note=33, velocity=92, time=24),
    Message('note_off', channel=4, note=33, velocity=0, time=80),
    Message('note_on', channel=4, note=33, velocity=92, time=16),
    Message('note_off', channel=4, note=33, velocity=0, time=264),
    Message('note_on', channel=4, note=33, velocity=92, time=24),
    Message('note_off', channel=4, note=33, velocity=0, time=80),
    Message('note_on', channel=4, note=33, velocity=92, time=16),
    Message('note_off', channel=4, note=33, velocity=0, time=264),
    Message('note_on', channel=4, note=33, velocity=92, time=24),
    Message('note_off', channel=4, note=33, velocity=0, time=80),
    Message('note_on', channel=4, note=33, velocity=92, time=16),
    Message('note_off', channel=4, note=33, velocity=0, time=168),
    Message('note_on', channel=4, note=29, velocity=92, time=24),
    Message('note_off', channel=4, note=29, velocity=0, time=168),
    Message('note_on', channel=4, note=33, velocity=92, time=24),
    Message('note_off', channel=4, note=33, velocity=0, time=360),
    Message('note_on', channel=4, note=36, velocity=92, time=24),
    Message('note_off', channel=4, note=36, velocity=0, time=192),
    Message('note_on', channel=4, note=34, velocity=92, time=0),
    Message('note_off', channel=4, note=34, velocity=0, time=168),
    Message('note_on', channel=4, note=41, velocity=92, time=24),
    Message('note_off', channel=4, note=41, velocity=0, time=192),
    Message('note_on', channel=4, note=33, velocity=92, time=0),
    Message('note_off', channel=4, note=33, velocity=0, time=168),
    Message('control_change', channel=4, control=7, value=100, time=24),
    Message('note_on', channel=4, note=29, velocity=75, time=0),
    Message('control_change', channel=4, control=7, value=101, time=38),
    Message('control_change', channel=4, control=7, value=102, time=38),
    Message('control_change', channel=4, control=7, value=103, time=39),
    Message('control_change', channel=4, control=7, value=104, time=38),
    Message('note_off', channel=4, note=29, velocity=0, time=39),
    Message('control_change', channel=4, control=7, value=105, time=0),
    Message('note_on', channel=4, note=35, velocity=83, time=0),
    Message('control_change', channel=4, control=7, value=106, time=38),
    Message('control_change', channel=4, control=7, value=107, time=38),
    Message('control_change', channel=4, control=7, value=108, time=39),
    Message('control_change', channel=4, control=7, value=109, time=38),
    Message('note_off', channel=4, note=35, velocity=0, time=15),
    Message('control_change', channel=4, control=7, value=110, time=24),
    Message('note_on', channel=4, note=36, velocity=92, time=7008),
    Message('note_off', channel=4, note=36, velocity=0, time=648),
    Message('note_on', channel=4, note=32, velocity=92, time=600),
    Message('note_off', channel=4, note=32, velocity=0, time=168),
    Message('control_change', channel=4, control=7, value=100, time=1848),
    Message('note_on', channel=4, note=41, velocity=75, time=0),
    Message('note_off', channel=4, note=41, velocity=0, time=16),
    Message('note_on', channel=4, note=39, velocity=75, time=32),
    Message('note_off', channel=4, note=39, velocity=0, time=16),
    Message('note_on', channel=4, note=38, velocity=75, time=32),
    Message('note_off', channel=4, note=38, velocity=0, time=96),
    Message('note_on', channel=4, note=36, velocity=75, time=0),
    Message('note_off', channel=4, note=36, velocity=0, time=80),
    Message('note_on', channel=4, note=34, velocity=75, time=16),
    Message('control_change', channel=4, control=7, value=101, time=19),
    Message('control_change', channel=4, control=7, value=102, time=19),
    Message('control_change', channel=4, control=7, value=103, time=19),
    Message('control_change', channel=4, control=7, value=104, time=19),
    Message('note_off', channel=4, note=34, velocity=0, time=20),
    Message('control_change', channel=4, control=7, value=105, time=0),
    Message('note_on', channel=4, note=33, velocity=83, time=0),
    Message('control_change', channel=4, control=7, value=106, time=19),
    Message('control_change', channel=4, control=7, value=107, time=19),
    Message('note_off', channel=4, note=33, velocity=0, time=10),
    Message('note_on', channel=4, note=31, velocity=87, time=0),
    Message('control_change', channel=4, control=7, value=108, time=9),
    Message('control_change', channel=4, control=7, value=109, time=19),
    Message('note_off', channel=4, note=31, velocity=0, time=19),
    Message('control_change', channel=4, control=7, value=110, time=1),
    Message('note_on', channel=4, note=30, velocity=92, time=0),
    Message('note_off', channel=4, note=30, velocity=0, time=47),
    Message('note_on', channel=4, note=44, velocity=127, time=2737),
    Message('note_off', channel=4, note=44, velocity=0, time=24),
    Message('note_on', channel=4, note=42, velocity=92, time=0),
    Message('note_off', channel=4, note=42, velocity=0, time=24),
    Message('note_on', channel=4, note=40, velocity=92, time=0),
    Message('note_off', channel=4, note=40, velocity=0, time=24),
    Message('note_on', channel=4, note=39, velocity=92, time=0),
    Message('note_off', channel=4, note=39, velocity=0, time=24),
    Message('note_on', channel=4, note=37, velocity=92, time=0),
    Message('control_change', channel=4, control=7, value=109, time=134),
    Message('note_off', channel=4, note=37, velocity=0, time=34),
    Message('control_change', channel=4, control=7, value=108, time=100),
    Message('control_change', channel=4, control=7, value=107, time=135),
    Message('control_change', channel=4, control=7, value=106, time=134),
    Message('control_change', channel=4, control=7, value=105, time=134),
    Message('control_change', channel=4, control=7, value=104, time=135),
    Message('control_change', channel=4, control=7, value=103, time=134),
    Message('control_change', channel=4, control=7, value=102, time=135),
    Message('control_change', channel=4, control=7, value=101, time=134),
    Message('control_change', channel=4, control=7, value=100, time=134),
    Message('note_on', channel=4, note=39, velocity=75, time=1),
    Message('note_off', channel=4, note=39, velocity=0, time=48),
    Message('note_on', channel=4, note=37, velocity=75, time=0),
    Message('note_off', channel=4, note=37, velocity=0, time=47),
    Message('note_on', channel=4, note=37, velocity=75, time=1),
    Message('note_off', channel=4, note=37, velocity=0, time=48),
    Message('note_on', channel=4, note=36, velocity=75, time=0),
    Message('note_off', channel=4, note=36, velocity=0, time=47),
    Message('note_on', channel=4, note=36, velocity=75, time=1),
    Message('note_off', channel=4, note=36, velocity=0, time=48),
    Message('note_on', channel=4, note=34, velocity=75, time=0),
    Message('note_off', channel=4, note=34, velocity=0, time=47),
    Message('note_on', channel=4, note=50, velocity=75, time=5713),
    Message('note_on', channel=4, note=38, velocity=75, time=0),
    Message('note_off', channel=4, note=50, velocity=0, time=16),
    Message('note_off', channel=4, note=38, velocity=0, time=0),
    Message('note_on', channel=4, note=48, velocity=75, time=0),
    Message('note_on', channel=4, note=36, velocity=75, time=0),
    Message('note_off', channel=4, note=36, velocity=0, time=16),
    Message('note_off', channel=4, note=48, velocity=0, time=0),
    Message('note_on', channel=4, note=47, velocity=75, time=0),
    Message('note_on', channel=4, note=35, velocity=75, time=0),
    Message('note_off', channel=4, note=35, velocity=0, time=16),
    Message('note_off', channel=4, note=47, velocity=0, time=0),
    Message('note_on', channel=4, note=33, velocity=75, time=0),
    Message('note_off', channel=4, note=33, velocity=0, time=128),
    Message('note_on', channel=4, note=33, velocity=75, time=16),
    Message('note_off', channel=4, note=33, velocity=0, time=80),
    Message('note_on', channel=4, note=33, velocity=75, time=16),
    Message('note_off', channel=4, note=33, velocity=0, time=47),
    Message('note_on', channel=4, note=33, velocity=75, time=1),
    Message('note_off', channel=4, note=33, velocity=0, time=128),
    Message('note_on', channel=4, note=33, velocity=75, time=16),
    Message('note_off', channel=4, note=33, velocity=0, time=80),
    Message('note_on', channel=4, note=33, velocity=75, time=16),
    Message('note_off', channel=4, note=33, velocity=0, time=16),
    Message('note_on', channel=4, note=31, velocity=75, time=1424),
    Message('note_off', channel=4, note=31, velocity=0, time=16),
    Message('note_on', channel=4, note=31, velocity=75, time=272),
    Message('note_off', channel=4, note=31, velocity=0, time=16),
    Message('note_on', channel=4, note=31, velocity=75, time=272),
    Message('note_off', channel=4, note=31, velocity=0, time=16),
    Message('note_on', channel=4, note=31, velocity=75, time=272),
    Message('note_off', channel=4, note=31, velocity=0, time=16),
    Message('note_on', channel=4, note=36, velocity=75, time=3344),
    Message('control_change', channel=4, control=7, value=101, time=21),
    Message('control_change', channel=4, control=7, value=102, time=22),
    Message('control_change', channel=4, control=7, value=103, time=21),
    Message('control_change', channel=4, control=7, value=104, time=22),
    Message('control_change', channel=4, control=7, value=105, time=22),
    Message('control_change', channel=4, control=7, value=106, time=21),
    Message('control_change', channel=4, control=7, value=107, time=22),
    Message('control_change', channel=4, control=7, value=108, time=21),
    Message('control_change', channel=4, control=7, value=109, time=22),
    Message('control_change', channel=4, control=7, value=110, time=22),
    Message('control_change', channel=4, control=7, value=111, time=21),
    Message('control_change', channel=4, control=7, value=112, time=22),
    Message('control_change', channel=4, control=7, value=113, time=21),
    Message('control_change', channel=4, control=7, value=114, time=22),
    Message('control_change', channel=4, control=7, value=115, time=22),
    Message('control_change', channel=4, control=7, value=116, time=21),
    Message('control_change', channel=4, control=7, value=117, time=22),
    Message('control_change', channel=4, control=7, value=118, time=21),
    Message('control_change', channel=4, control=7, value=119, time=22),
    Message('note_off', channel=4, note=36, velocity=0, time=6),
    Message('control_change', channel=4, control=7, value=120, time=16),
    Message('control_change', channel=4, control=101, value=0, time=1296),
    Message('control_change', channel=4, control=100, value=0, time=0),
    Message('control_change', channel=4, control=6, value=12, time=0),
    Message('control_change', channel=4, control=10, value=64, time=0),
    Message('control_change', channel=4, control=7, value=120, time=0),
    Message('pitchwheel', channel=4, pitch=0, time=0),
    Message('program_change', channel=4, program=0, time=0),
    Message('control_change', channel=4, control=7, value=127, time=0),
    Message('control_change', channel=4, control=10, value=64, time=0),
    Message('control_change', channel=4, control=101, value=0, time=1),
    Message('control_change', channel=4, control=100, value=0, time=0),
    Message('control_change', channel=4, control=6, value=12, time=0),
    Message('control_change', channel=4, control=10, value=64, time=0),
    Message('control_change', channel=4, control=7, value=120, time=0),
    Message('pitchwheel', channel=4, pitch=0, time=0),
    Message('program_change', channel=4, program=0, time=0),
    MetaMessage('end_of_track', time=0)]),
  MidiTrack([
    MetaMessage('track_name', name='Trumpet', time=0),
    Message('control_change', channel=6, control=10, value=64, time=0),
    Message('control_change', channel=6, control=7, value=127, time=0),
    Message('pitchwheel', channel=6, pitch=0, time=0),
    Message('control_change', channel=6, control=101, value=0, time=0),
    Message('control_change', channel=6, control=100, value=0, time=0),
    Message('control_change', channel=6, control=6, value=12, time=0),
    Message('control_change', channel=6, control=10, value=64, time=0),
    Message('control_change', channel=6, control=7, value=127, time=0),
    Message('pitchwheel', channel=6, pitch=0, time=0),
    Message('program_change', channel=6, program=56, time=0),
    Message('program_change', channel=6, program=56, time=0),
    Message('control_change', channel=6, control=7, value=127, time=0),
    Message('control_change', channel=6, control=10, value=64, time=0),
    Message('control_change', channel=6, control=101, value=0, time=0),
    Message('control_change', channel=6, control=100, value=0, time=0),
    Message('control_change', channel=6, control=6, value=12, time=0),
    Message('control_change', channel=6, control=10, value=64, time=0),
    Message('control_change', channel=6, control=7, value=127, time=0),
    Message('pitchwheel', channel=6, pitch=0, time=0),
    Message('program_change', channel=6, program=56, time=0),
    Message('program_change', channel=6, program=56, time=0),
    Message('control_change', channel=6, control=7, value=127, time=0),
    Message('control_change', channel=6, control=10, value=64, time=0),
    Message('control_change', channel=6, control=101, value=0, time=0),
    Message('control_change', channel=6, control=100, value=0, time=0),
    Message('control_change', channel=6, control=6, value=12, time=0),
    Message('control_change', channel=6, control=10, value=64, time=0),
    Message('control_change', channel=6, control=7, value=127, time=0),
    Message('pitchwheel', channel=6, pitch=0, time=0),
    Message('program_change', channel=6, program=56, time=0),
    Message('program_change', channel=6, program=59, time=8256),
    Message('control_change', channel=6, control=7, value=90, time=96),
    Message('note_on', channel=6, note=67, velocity=45, time=0),
    Message('note_off', channel=6, note=67, velocity=0, time=47),
    Message('note_on', channel=6, note=71, velocity=45, time=1),
    Message('note_off', channel=6, note=71, velocity=0, time=80),
    Message('note_on', channel=6, note=67, velocity=45, time=16),
    Message('note_off', channel=6, note=67, velocity=0, time=47),
    Message('note_on', channel=6, note=71, velocity=45, time=1),
    Message('note_off', channel=6, note=71, velocity=0, time=80),
    Message('note_on', channel=6, note=67, velocity=45, time=16),
    Message('note_off', channel=6, note=67, velocity=0, time=47),
    Message('note_on', channel=6, note=72, velocity=45, time=1),
    Message('note_off', channel=6, note=72, velocity=0, time=80),
    Message('note_on', channel=6, note=71, velocity=45, time=16),
    Message('note_off', channel=6, note=71, velocity=0, time=47),
    Message('note_on', channel=6, note=70, velocity=45, time=1),
    Message('note_off', channel=6, note=70, velocity=0, time=80),
    Message('note_on', channel=6, note=66, velocity=45, time=16),
    Message('note_off', channel=6, note=66, velocity=0, time=47),
    Message('note_on', channel=6, note=67, velocity=45, time=1),
    Message('note_off', channel=6, note=67, velocity=0, time=71),
    Message('note_on', channel=6, note=71, velocity=45, time=1),
    Message('note_off', channel=6, note=71, velocity=0, time=23),
    Message('note_on', channel=6, note=70, velocity=45, time=1),
    Message('note_off', channel=6, note=70, velocity=0, time=47),
    Message('note_on', channel=6, note=58, velocity=45, time=1),
    Message('note_off', channel=6, note=58, velocity=0, time=80),
    Message('note_on', channel=6, note=60, velocity=45, time=16),
    Message('note_off', channel=6, note=60, velocity=0, time=47),
    Message('note_on', channel=6, note=71, velocity=45, time=1),
    Message('note_off', channel=6, note=71, velocity=0, time=224),
    Message('note_on', channel=6, note=67, velocity=45, time=16),
    Message('note_off', channel=6, note=67, velocity=0, time=47),
    Message('note_on', channel=6, note=71, velocity=45, time=1),
    Message('note_off', channel=6, note=71, velocity=0, time=80),
    Message('note_on', channel=6, note=67, velocity=45, time=16),
    Message('note_off', channel=6, note=67, velocity=0, time=47),
    Message('note_on', channel=6, note=71, velocity=45, time=1),
    Message('note_off', channel=6, note=71, velocity=0, time=80),
    Message('note_on', channel=6, note=67, velocity=45, time=16),
    Message('note_off', channel=6, note=67, velocity=0, time=47),
    Message('note_on', channel=6, note=74, velocity=45, time=1),
    Message('note_off', channel=6, note=74, velocity=0, time=80),
    Message('note_on', channel=6, note=73, velocity=45, time=16),
    Message('note_off', channel=6, note=73, velocity=0, time=47),
    Message('note_on', channel=6, note=72, velocity=45, time=1),
    Message('note_off', channel=6, note=72, velocity=0, time=80),
    Message('note_on', channel=6, note=68, velocity=45, time=16),
    Message('note_off', channel=6, note=68, velocity=0, time=47),
    Message('note_on', channel=6, note=72, velocity=45, time=1),
    Message('note_off', channel=6, note=72, velocity=0, time=71),
    Message('note_on', channel=6, note=71, velocity=45, time=1),
    Message('note_off', channel=6, note=71, velocity=0, time=23),
    Message('note_on', channel=6, note=70, velocity=45, time=1),
    Message('note_off', channel=6, note=70, velocity=0, time=47),
    Message('note_on', channel=6, note=58, velocity=45, time=1),
    Message('note_off', channel=6, note=58, velocity=0, time=80),
    Message('note_on', channel=6, note=67, velocity=45, time=16),
    Message('note_off', channel=6, note=67, velocity=0, time=47),
    Message('note_on', channel=6, note=64, velocity=45, time=1),
    Message('control_change', channel=6, control=7, value=89, time=7),
    Message('control_change', channel=6, control=7, value=88, time=7),
    Message('control_change', channel=6, control=7, value=87, time=7),
    Message('control_change', channel=6, control=7, value=86, time=7),
    Message('control_change', channel=6, control=7, value=85, time=7),
    Message('control_change', channel=6, control=7, value=84, time=8),
    Message('control_change', channel=6, control=7, value=83, time=7),
    Message('control_change', channel=6, control=7, value=82, time=7),
    Message('control_change', channel=6, control=7, value=81, time=7),
    Message('control_change', channel=6, control=7, value=80, time=7),
    Message('control_change', channel=6, control=7, value=79, time=8),
    Message('control_change', channel=6, control=7, value=78, time=7),
    Message('control_change', channel=6, control=7, value=77, time=7),
    Message('control_change', channel=6, control=7, value=76, time=7),
    Message('control_change', channel=6, control=7, value=75, time=7),
    Message('control_change', channel=6, control=7, value=74, time=8),
    Message('control_change', channel=6, control=7, value=73, time=7),
    Message('control_change', channel=6, control=7, value=72, time=7),
    Message('control_change', channel=6, control=7, value=71, time=7),
    Message('control_change', channel=6, control=7, value=70, time=7),
    Message('note_off', channel=6, note=64, velocity=0, time=48),
    Message('program_change', channel=6, program=56, time=4753),
    Message('control_change', channel=6, control=7, value=100, time=768),
    Message('note_on', channel=6, note=76, velocity=75, time=0),
    Message('note_on', channel=6, note=72, velocity=75, time=0),
    Message('note_on', channel=6, note=69, velocity=75, time=0),
    Message('note_off', channel=6, note=76, velocity=0, time=16),
    Message('note_off', channel=6, note=72, velocity=0, time=0),
    Message('note_off', channel=6, note=69, velocity=0, time=0),
    Message('note_on', channel=6, note=76, velocity=75, time=32),
    Message('note_on', channel=6, note=72, velocity=75, time=0),
    Message('note_on', channel=6, note=69, velocity=75, time=0),
    Message('note_off', channel=6, note=76, velocity=0, time=16),
    Message('note_off', channel=6, note=72, velocity=0, time=0),
    Message('note_off', channel=6, note=69, velocity=0, time=0),
    Message('note_on', channel=6, note=76, velocity=75, time=32),
    Message('note_on', channel=6, note=72, velocity=75, time=0),
    Message('note_on', channel=6, note=69, velocity=75, time=0),
    Message('note_off', channel=6, note=76, velocity=0, time=16),
    Message('note_off', channel=6, note=72, velocity=0, time=0),
    Message('note_off', channel=6, note=69, velocity=0, time=0),
    Message('note_on', channel=6, note=76, velocity=75, time=32),
    Message('note_on', channel=6, note=72, velocity=75, time=0),
    Message('note_on', channel=6, note=69, velocity=75, time=0),
    Message('note_off', channel=6, note=76, velocity=0, time=16),
    Message('note_off', channel=6, note=72, velocity=0, time=0),
    Message('note_off', channel=6, note=69, velocity=0, time=0),
    Message('note_on', channel=6, note=76, velocity=75, time=32),
    Message('note_on', channel=6, note=72, velocity=75, time=0),
    Message('note_on', channel=6, note=69, velocity=75, time=0),
    Message('note_off', channel=6, note=76, velocity=0, time=16),
    Message('note_off', channel=6, note=72, velocity=0, time=0),
    Message('note_off', channel=6, note=69, velocity=0, time=0),
    Message('note_on', channel=6, note=76, velocity=75, time=32),
    Message('note_on', channel=6, note=72, velocity=75, time=0),
    Message('note_on', channel=6, note=69, velocity=75, time=0),
    Message('note_off', channel=6, note=76, velocity=0, time=16),
    Message('note_off', channel=6, note=72, velocity=0, time=0),
    Message('note_off', channel=6, note=69, velocity=0, time=0),
    Message('note_on', channel=6, note=75, velocity=75, time=32),
    Message('note_on', channel=6, note=71, velocity=75, time=0),
    Message('note_on', channel=6, note=68, velocity=75, time=0),
    Message('note_off', channel=6, note=75, velocity=0, time=16),
    Message('note_off', channel=6, note=71, velocity=0, time=0),
    Message('note_off', channel=6, note=68, velocity=0, time=0),
    Message('note_on', channel=6, note=76, velocity=75, time=32),
    Message('note_on', channel=6, note=72, velocity=75, time=0),
    Message('note_on', channel=6, note=69, velocity=75, time=0),
    Message('note_off', channel=6, note=76, velocity=0, time=16),
    Message('note_off', channel=6, note=72, velocity=0, time=0),
    Message('note_off', channel=6, note=69, velocity=0, time=0),
    Message('note_on', channel=6, note=77, velocity=75, time=32),
    Message('note_on', channel=6, note=73, velocity=75, time=0),
    Message('note_on', channel=6, note=70, velocity=75, time=0),
    Message('note_off', channel=6, note=77, velocity=0, time=96),
    Message('note_off', channel=6, note=73, velocity=0, time=0),
    Message('note_off', channel=6, note=70, velocity=0, time=0),
    Message('note_on', channel=6, note=76, velocity=75, time=0),
    Message('note_on', channel=6, note=72, velocity=75, time=0),
    Message('note_on', channel=6, note=69, velocity=75, time=0),
    Message('note_off', channel=6, note=69, velocity=0, time=16),
    Message('note_off', channel=6, note=72, velocity=0, time=0),
    Message('note_off', channel=6, note=76, velocity=0, time=0),
    Message('note_on', channel=6, note=75, velocity=75, time=32),
    Message('note_on', channel=6, note=71, velocity=75, time=0),
    Message('note_on', channel=6, note=68, velocity=75, time=0),
    Message('note_off', channel=6, note=75, velocity=0, time=16),
    Message('note_off', channel=6, note=71, velocity=0, time=0),
    Message('note_off', channel=6, note=68, velocity=0, time=0),
    Message('note_on', channel=6, note=76, velocity=75, time=32),
    Message('note_on', channel=6, note=72, velocity=75, time=0),
    Message('note_on', channel=6, note=69, velocity=75, time=0),
    Message('note_off', channel=6, note=76, velocity=0, time=24),
    Message('note_off', channel=6, note=72, velocity=0, time=0),
    Message('note_off', channel=6, note=69, velocity=0, time=0),
    Message('note_on', channel=6, note=72, velocity=75, time=72),
    Message('note_on', channel=6, note=69, velocity=75, time=0),
    Message('note_on', channel=6, note=64, velocity=75, time=0),
    Message('note_off', channel=6, note=72, velocity=0, time=24),
    Message('note_off', channel=6, note=69, velocity=0, time=0),
    Message('note_off', channel=6, note=64, velocity=0, time=0),
    Message('note_on', channel=6, note=74, velocity=75, time=72),
    Message('note_on', channel=6, note=69, velocity=75, time=0),
    Message('note_on', channel=6, note=65, velocity=75, time=0),
    Message('note_off', channel=6, note=74, velocity=0, time=96),
    Message('note_off', channel=6, note=69, velocity=0, time=0),
    Message('note_off', channel=6, note=65, velocity=0, time=0),
    Message('note_on', channel=6, note=74, velocity=75, time=0),
    Message('note_on', channel=6, note=69, velocity=75, time=0),
    Message('note_on', channel=6, note=65, velocity=75, time=0),
    Message('note_off', channel=6, note=65, velocity=0, time=16),
    Message('note_off', channel=6, note=69, velocity=0, time=0),
    Message('note_off', channel=6, note=74, velocity=0, time=0),
    Message('note_on', channel=6, note=73, velocity=75, time=32),
    Message('note_on', channel=6, note=68, velocity=75, time=0),
    Message('note_on', channel=6, note=64, velocity=75, time=0),
    Message('note_off', channel=6, note=73, velocity=0, time=16),
    Message('note_off', channel=6, note=68, velocity=0, time=0),
    Message('note_off', channel=6, note=64, velocity=0, time=0),
    Message('note_on', channel=6, note=74, velocity=75, time=32),
    Message('note_on', channel=6, note=69, velocity=75, time=0),
    Message('note_on', channel=6, note=65, velocity=75, time=0),
    Message('note_off', channel=6, note=74, velocity=0, time=24),
    Message('note_off', channel=6, note=69, velocity=0, time=0),
    Message('note_off', channel=6, note=65, velocity=0, time=0),
    Message('note_on', channel=6, note=65, velocity=75, time=72),
    Message('note_on', channel=6, note=62, velocity=75, time=0),
    Message('note_on', channel=6, note=57, velocity=75, time=0),
    Message('note_off', channel=6, note=65, velocity=0, time=96),
    Message('note_off', channel=6, note=62, velocity=0, time=0),
    Message('note_off', channel=6, note=57, velocity=0, time=0),
    Message('note_on', channel=6, note=64, velocity=75, time=0),
    Message('note_on', channel=6, note=60, velocity=75, time=0),
    Message('note_on', channel=6, note=57, velocity=75, time=0),
    Message('note_off', channel=6, note=57, velocity=0, time=16),
    Message('note_off', channel=6, note=60, velocity=0, time=0),
    Message('note_off', channel=6, note=64, velocity=0, time=0),
    Message('note_on', channel=6, note=69, velocity=75, time=80),
    Message('note_on', channel=6, note=64, velocity=75, time=0),
    Message('note_on', channel=6, note=60, velocity=75, time=0),
    Message('note_off', channel=6, note=69, velocity=0, time=16),
    Message('note_off', channel=6, note=64, velocity=0, time=0),
    Message('note_off', channel=6, note=60, velocity=0, time=0),
    Message('note_on', channel=6, note=72, velocity=75, time=32),
    Message('note_on', channel=6, note=69, velocity=75, time=0),
    Message('note_on', channel=6, note=64, velocity=75, time=0),
    Message('note_off', channel=6, note=72, velocity=0, time=16),
    Message('note_off', channel=6, note=69, velocity=0, time=0),
    Message('note_off', channel=6, note=64, velocity=0, time=0),
    Message('note_on', channel=6, note=75, velocity=105, time=32),
    Message('note_on', channel=6, note=71, velocity=105, time=0),
    Message('note_on', channel=6, note=68, velocity=105, time=0),
    Message('note_off', channel=6, note=75, velocity=0, time=168),
    Message('note_off', channel=6, note=71, velocity=0, time=0),
    Message('note_off', channel=6, note=68, velocity=0, time=0),
    Message('note_on', channel=6, note=76, velocity=75, time=24),
    Message('note_on', channel=6, note=72, velocity=75, time=0),
    Message('note_on', channel=6, note=69, velocity=75, time=0),
    Message('note_off', channel=6, note=76, velocity=0, time=16),
    Message('note_off', channel=6, note=72, velocity=0, time=0),
    Message('note_off', channel=6, note=69, velocity=0, time=0),
    Message('note_on', channel=6, note=76, velocity=75, time=32),
    Message('note_on', channel=6, note=72, velocity=75, time=0),
    Message('note_on', channel=6, note=69, velocity=75, time=0),
    Message('note_off', channel=6, note=76, velocity=0, time=16),
    Message('note_off', channel=6, note=72, velocity=0, time=0),
    Message('note_off', channel=6, note=69, velocity=0, time=0),
    Message('note_on', channel=6, note=76, velocity=75, time=32),
    Message('note_on', channel=6, note=72, velocity=75, time=0),
    Message('note_on', channel=6, note=69, velocity=75, time=0),
    Message('note_off', channel=6, note=76, velocity=0, time=16),
    Message('note_off', channel=6, note=72, velocity=0, time=0),
    Message('note_off', channel=6, note=69, velocity=0, time=0),
    Message('note_on', channel=6, note=76, velocity=75, time=32),
    Message('note_on', channel=6, note=72, velocity=75, time=0),
    Message('note_on', channel=6, note=69, velocity=75, time=0),
    Message('note_off', channel=6, note=69, velocity=0, time=16),
    Message('note_off', channel=6, note=76, velocity=0, time=0),
    Message('note_off', channel=6, note=72, velocity=0, time=0),
    Message('note_on', channel=6, note=76, velocity=75, time=32),
    Message('note_on', channel=6, note=72, velocity=75, time=0),
    Message('note_on', channel=6, note=69, velocity=75, time=0),
    Message('note_off', channel=6, note=69, velocity=0, time=16),
    Message('note_off', channel=6, note=76, velocity=0, time=0),
    Message('note_off', channel=6, note=72, velocity=0, time=0),
    Message('note_on', channel=6, note=76, velocity=75, time=32),
    Message('note_on', channel=6, note=72, velocity=75, time=0),
    Message('note_on', channel=6, note=69, velocity=75, time=0),
    Message('note_off', channel=6, note=76, velocity=0, time=16),
    Message('note_off', channel=6, note=72, velocity=0, time=0),
    Message('note_off', channel=6, note=69, velocity=0, time=0),
    Message('note_on', channel=6, note=75, velocity=75, time=32),
    Message('note_on', channel=6, note=71, velocity=75, time=0),
    Message('note_on', channel=6, note=68, velocity=75, time=0),
    Message('note_off', channel=6, note=75, velocity=0, time=16),
    Message('note_off', channel=6, note=71, velocity=0, time=0),
    Message('note_off', channel=6, note=68, velocity=0, time=0),
    Message('note_on', channel=6, note=76, velocity=75, time=32),
    Message('note_on', channel=6, note=72, velocity=75, time=0),
    Message('note_on', channel=6, note=69, velocity=75, time=0),
    Message('note_off', channel=6, note=76, velocity=0, time=48),
    Message('note_off', channel=6, note=72, velocity=0, time=0),
    Message('note_off', channel=6, note=69, velocity=0, time=0),
    Message('note_on', channel=6, note=79, velocity=75, time=0),
    Message('note_on', channel=6, note=75, velocity=75, time=0),
    Message('note_on', channel=6, note=72, velocity=75, time=0),
    Message('note_off', channel=6, note=72, velocity=0, time=96),
    Message('note_off', channel=6, note=75, velocity=0, time=0),
    Message('note_off', channel=6, note=79, velocity=0, time=0),
    Message('note_on', channel=6, note=77, velocity=75, time=0),
    Message('note_on', channel=6, note=73, velocity=75, time=0),
    Message('note_on', channel=6, note=70, velocity=75, time=0),
    Message('note_off', channel=6, note=70, velocity=0, time=16),
    Message('note_off', channel=6, note=73, velocity=0, time=0),
    Message('note_off', channel=6, note=77, velocity=0, time=0),
    Message('note_on', channel=6, note=76, velocity=75, time=32),
    Message('note_on', channel=6, note=72, velocity=75, time=0),
    Message('note_on', channel=6, note=69, velocity=75, time=0),
    Message('note_off', channel=6, note=76, velocity=0, time=16),
    Message('note_off', channel=6, note=72, velocity=0, time=0),
    Message('note_off', channel=6, note=69, velocity=0, time=0),
    Message('note_on', channel=6, note=77, velocity=75, time=32),
    Message('note_on', channel=6, note=73, velocity=75, time=0),
    Message('note_on', channel=6, note=70, velocity=75, time=0),
    Message('note_off', channel=6, note=77, velocity=0, time=24),
    Message('note_off', channel=6, note=73, velocity=0, time=0),
    Message('note_off', channel=6, note=70, velocity=0, time=0),
    Message('note_on', channel=6, note=70, velocity=75, time=72),
    Message('note_on', channel=6, note=65, velocity=75, time=0),
    Message('note_on', channel=6, note=61, velocity=75, time=0),
    Message('note_off', channel=6, note=70, velocity=0, time=96),
    Message('note_off', channel=6, note=65, velocity=0, time=0),
    Message('note_off', channel=6, note=61, velocity=0, time=0),
    Message('note_on', channel=6, note=77, velocity=75, time=0),
    Message('note_on', channel=6, note=73, velocity=75, time=0),
    Message('note_on', channel=6, note=70, velocity=75, time=0),
    Message('note_off', channel=6, note=70, velocity=0, time=96),
    Message('note_off', channel=6, note=73, velocity=0, time=0),
    Message('note_off', channel=6, note=77, velocity=0, time=0),
    Message('note_on', channel=6, note=76, velocity=75, time=0),
    Message('note_on', channel=6, note=72, velocity=75, time=0),
    Message('note_on', channel=6, note=69, velocity=75, time=0),
    Message('note_off', channel=6, note=69, velocity=0, time=16),
    Message('note_off', channel=6, note=72, velocity=0, time=0),
    Message('note_off', channel=6, note=76, velocity=0, time=0),
    Message('note_on', channel=6, note=75, velocity=75, time=32),
    Message('note_on', channel=6, note=71, velocity=75, time=0),
    Message('note_on', channel=6, note=68, velocity=75, time=0),
    Message('note_off', channel=6, note=75, velocity=0, time=16),
    Message('note_off', channel=6, note=71, velocity=0, time=0),
    Message('note_off', channel=6, note=68, velocity=0, time=0),
    Message('note_on', channel=6, note=76, velocity=75, time=32),
    Message('note_on', channel=6, note=72, velocity=75, time=0),
    Message('note_on', channel=6, note=69, velocity=75, time=0),
    Message('note_off', channel=6, note=76, velocity=0, time=24),
    Message('note_off', channel=6, note=72, velocity=0, time=0),
    Message('note_off', channel=6, note=69, velocity=0, time=0),
    Message('note_on', channel=6, note=69, velocity=75, time=72),
    Message('note_on', channel=6, note=64, velocity=75, time=0),
    Message('note_on', channel=6, note=60, velocity=75, time=0),
    Message('note_off', channel=6, note=69, velocity=0, time=96),
    Message('note_off', channel=6, note=64, velocity=0, time=0),
    Message('note_off', channel=6, note=60, velocity=0, time=0),
    Message('note_on', channel=6, note=72, velocity=75, time=0),
    Message('note_on', channel=6, note=68, velocity=75, time=0),
    Message('note_on', channel=6, note=65, velocity=75, time=0),
    Message('control_change', channel=6, control=7, value=99, time=6),
    Message('control_change', channel=6, control=7, value=98, time=6),
    Message('control_change', channel=6, control=7, value=97, time=7),
    Message('control_change', channel=6, control=7, value=96, time=6),
    Message('control_change', channel=6, control=7, value=95, time=7),
    Message('control_change', channel=6, control=7, value=94, time=6),
    Message('control_change', channel=6, control=7, value=93, time=6),
    Message('control_change', channel=6, control=7, value=92, time=7),
    Message('control_change', channel=6, control=7, value=91, time=6),
    Message('control_change', channel=6, control=7, value=90, time=7),
    Message('control_change', channel=6, control=7, value=89, time=6),
    Message('control_change', channel=6, control=7, value=88, time=6),
    Message('control_change', channel=6, control=7, value=87, time=7),
    Message('control_change', channel=6, control=7, value=86, time=6),
    Message('control_change', channel=6, control=7, value=85, time=7),
    Message('control_change', channel=6, control=7, value=84, time=6),
    Message('control_change', channel=6, control=7, value=83, time=6),
    Message('control_change', channel=6, control=7, value=82, time=7),
    Message('control_change', channel=6, control=7, value=81, time=6),
    Message('control_change', channel=6, control=7, value=80, time=7),
    Message('control_change', channel=6, control=7, value=79, time=6),
    Message('control_change', channel=6, control=7, value=78, time=6),
    Message('control_change', channel=6, control=7, value=77, time=7),
    Message('control_change', channel=6, control=7, value=76, time=6),
    Message('control_change', channel=6, control=7, value=75, time=7),
    Message('control_change', channel=6, control=7, value=74, time=6),
    Message('note_off', channel=6, note=65, velocity=0, time=2),
    Message('note_off', channel=6, note=68, velocity=0, time=0),
    Message('note_off', channel=6, note=72, velocity=0, time=0),
    Message('control_change', channel=6, control=7, value=73, time=4),
    Message('control_change', channel=6, control=7, value=72, time=7),
    Message('control_change', channel=6, control=7, value=71, time=6),
    Message('control_change', channel=6, control=7, value=70, time=7),
    Message('note_on', channel=6, note=64, velocity=43, time=0),
    Message('note_on', channel=6, note=59, velocity=43, time=0),
    Message('note_on', channel=6, note=56, velocity=43, time=0),
    Message('control_change', channel=6, control=7, value=69, time=6),
    Message('control_change', channel=6, control=7, value=68, time=6),
    Message('control_change', channel=6, control=7, value=67, time=7),
    Message('control_change', channel=6, control=7, value=66, time=6),
    Message('control_change', channel=6, control=7, value=65, time=7),
    Message('control_change', channel=6, control=7, value=64, time=6),
    Message('control_change', channel=6, control=7, value=63, time=6),
    Message('control_change', channel=6, control=7, value=62, time=7),
    Message('control_change', channel=6, control=7, value=61, time=6),
    Message('control_change', channel=6, control=7, value=60, time=7),
    Message('control_change', channel=6, control=7, value=59, time=6),
    Message('control_change', channel=6, control=7, value=58, time=6),
    Message('control_change', channel=6, control=7, value=57, time=7),
    Message('control_change', channel=6, control=7, value=56, time=6),
    Message('control_change', channel=6, control=7, value=55, time=7),
    Message('control_change', channel=6, control=7, value=54, time=6),
    Message('control_change', channel=6, control=7, value=53, time=6),
    Message('control_change', channel=6, control=7, value=52, time=7),
    Message('control_change', channel=6, control=7, value=51, time=6),
    Message('control_change', channel=6, control=7, value=50, time=7),
    Message('control_change', channel=6, control=7, value=49, time=6),
    Message('control_change', channel=6, control=7, value=48, time=6),
    Message('control_change', channel=6, control=7, value=47, time=7),
    Message('control_change', channel=6, control=7, value=46, time=6),
    Message('control_change', channel=6, control=7, value=45, time=7),
    Message('control_change', channel=6, control=7, value=44, time=6),
    Message('note_off', channel=6, note=64, velocity=0, time=2),
    Message('note_off', channel=6, note=59, velocity=0, time=0),
    Message('note_off', channel=6, note=56, velocity=0, time=0),
    Message('control_change', channel=6, control=7, value=43, time=4),
    Message('control_change', channel=6, control=7, value=42, time=7),
    Message('control_change', channel=6, control=7, value=41, time=6),
    Message('control_change', channel=6, control=7, value=40, time=7),
    Message('control_change', channel=6, control=7, value=100, time=7584),
    Message('note_on', channel=6, note=64, velocity=105, time=0),
    Message('note_off', channel=6, note=64, velocity=0, time=47),
    Message('control_change', channel=6, control=7, value=110, time=49),
    Message('note_on', channel=6, note=69, velocity=127, time=0),
    Message('note_off', channel=6, note=69, velocity=0, time=47),
    Message('control_change', channel=6, control=7, value=100, time=145),
    Message('note_on', channel=6, note=64, velocity=75, time=0),
    Message('control_change', channel=6, control=7, value=101, time=7),
    Message('control_change', channel=6, control=7, value=102, time=7),
    Message('control_change', channel=6, control=7, value=103, time=7),
    Message('control_change', channel=6, control=7, value=104, time=7),
    Message('control_change', channel=6, control=7, value=105, time=7),
    Message('control_change', channel=6, control=7, value=106, time=7),
    Message('control_change', channel=6, control=7, value=107, time=7),
    Message('control_change', channel=6, control=7, value=108, time=7),
    Message('control_change', channel=6, control=7, value=109, time=8),
    Message('control_change', channel=6, control=7, value=110, time=7),
    Message('control_change', channel=6, control=7, value=111, time=7),
    Message('control_change', channel=6, control=7, value=112, time=7),
    Message('control_change', channel=6, control=7, value=113, time=7),
    Message('control_change', channel=6, control=7, value=114, time=7),
    Message('control_change', channel=6, control=7, value=115, time=7),
    Message('control_change', channel=6, control=7, value=116, time=7),
    Message('control_change', channel=6, control=7, value=117, time=7),
    Message('control_change', channel=6, control=7, value=118, time=8),
    Message('control_change', channel=6, control=7, value=119, time=7),
    Message('control_change', channel=6, control=7, value=120, time=7),
    Message('control_change', channel=6, control=7, value=121, time=7),
    Message('control_change', channel=6, control=7, value=122, time=7),
    Message('control_change', channel=6, control=7, value=123, time=7),
    Message('note_off', channel=6, note=64, velocity=0, time=5),
    Message('control_change', channel=6, control=7, value=124, time=2),
    Message('control_change', channel=6, control=7, value=125, time=7),
    Message('control_change', channel=6, control=7, value=126, time=7),
    Message('control_change', channel=6, control=7, value=127, time=8),
    Message('note_on', channel=6, note=76, velocity=127, time=0),
    Message('note_on', channel=6, note=72, velocity=127, time=0),
    Message('note_on', channel=6, note=69, velocity=127, time=0),
    Message('note_off', channel=6, note=76, velocity=0, time=16),
    Message('note_off', channel=6, note=72, velocity=0, time=0),
    Message('note_off', channel=6, note=69, velocity=0, time=0),
    Message('note_on', channel=6, note=76, velocity=127, time=32),
    Message('note_on', channel=6, note=72, velocity=127, time=0),
    Message('note_on', channel=6, note=69, velocity=127, time=0),
    Message('note_off', channel=6, note=69, velocity=0, time=16),
    Message('note_off', channel=6, note=76, velocity=0, time=0),
    Message('note_off', channel=6, note=72, velocity=0, time=0),
    Message('note_on', channel=6, note=76, velocity=127, time=32),
    Message('note_on', channel=6, note=72, velocity=127, time=0),
    Message('note_on', channel=6, note=69, velocity=127, time=0),
    Message('note_off', channel=6, note=76, velocity=0, time=16),
    Message('note_off', channel=6, note=72, velocity=0, time=0),
    Message('note_off', channel=6, note=69, velocity=0, time=0),
    Message('note_on', channel=6, note=76, velocity=127, time=32),
    Message('note_on', channel=6, note=72, velocity=127, time=0),
    Message('note_on', channel=6, note=69, velocity=127, time=0),
    Message('note_off', channel=6, note=69, velocity=0, time=16),
    Message('note_off', channel=6, note=76, velocity=0, time=0),
    Message('note_off', channel=6, note=72, velocity=0, time=0),
    Message('note_on', channel=6, note=76, velocity=127, time=32),
    Message('note_on', channel=6, note=72, velocity=127, time=0),
    Message('note_on', channel=6, note=69, velocity=127, time=0),
    Message('note_off', channel=6, note=76, velocity=0, time=16),
    Message('note_off', channel=6, note=72, velocity=0, time=0),
    Message('note_off', channel=6, note=69, velocity=0, time=0),
    Message('note_on', channel=6, note=76, velocity=127, time=32),
    Message('note_on', channel=6, note=72, velocity=127, time=0),
    Message('note_on', channel=6, note=69, velocity=127, time=0),
    Message('note_off', channel=6, note=69, velocity=0, time=16),
    Message('note_off', channel=6, note=76, velocity=0, time=0),
    Message('note_off', channel=6, note=72, velocity=0, time=0),
    Message('note_on', channel=6, note=75, velocity=127, time=32),
    Message('note_on', channel=6, note=71, velocity=127, time=0),
    Message('note_on', channel=6, note=68, velocity=127, time=0),
    Message('note_off', channel=6, note=75, velocity=0, time=16),
    Message('note_off', channel=6, note=71, velocity=0, time=0),
    Message('note_off', channel=6, note=68, velocity=0, time=0),
    Message('note_on', channel=6, note=76, velocity=127, time=32),
    Message('note_on', channel=6, note=72, velocity=127, time=0),
    Message('note_on', channel=6, note=69, velocity=127, time=0),
    Message('note_off', channel=6, note=76, velocity=0, time=16),
    Message('note_off', channel=6, note=72, velocity=0, time=0),
    Message('note_off', channel=6, note=69, velocity=0, time=0),
    Message('note_on', channel=6, note=77, velocity=127, time=32),
    Message('note_on', channel=6, note=73, velocity=127, time=0),
    Message('note_on', channel=6, note=70, velocity=127, time=0),
    Message('note_off', channel=6, note=70, velocity=0, time=96),
    Message('note_off', channel=6, note=77, velocity=0, time=0),
    Message('note_off', channel=6, note=73, velocity=0, time=0),
    Message('note_on', channel=6, note=76, velocity=127, time=0),
    Message('note_on', channel=6, note=72, velocity=127, time=0),
    Message('note_on', channel=6, note=69, velocity=127, time=0),
    Message('note_off', channel=6, note=76, velocity=0, time=16),
    Message('note_off', channel=6, note=72, velocity=0, time=0),
    Message('note_off', channel=6, note=69, velocity=0, time=0),
    Message('note_on', channel=6, note=75, velocity=127, time=32),
    Message('note_on', channel=6, note=71, velocity=127, time=0),
    Message('note_on', channel=6, note=68, velocity=127, time=0),
    Message('note_off', channel=6, note=75, velocity=0, time=16),
    Message('note_off', channel=6, note=71, velocity=0, time=0),
    Message('note_off', channel=6, note=68, velocity=0, time=0),
    Message('note_on', channel=6, note=76, velocity=127, time=32),
    Message('note_on', channel=6, note=72, velocity=127, time=0),
    Message('note_on', channel=6, note=69, velocity=127, time=0),
    Message('note_off', channel=6, note=76, velocity=0, time=24),
    Message('note_off', channel=6, note=72, velocity=0, time=0),
    Message('note_off', channel=6, note=69, velocity=0, time=0),
    Message('note_on', channel=6, note=72, velocity=127, time=72),
    Message('note_on', channel=6, note=69, velocity=127, time=0),
    Message('note_on', channel=6, note=64, velocity=127, time=0),
    Message('note_off', channel=6, note=72, velocity=0, time=24),
    Message('note_off', channel=6, note=69, velocity=0, time=0),
    Message('note_off', channel=6, note=64, velocity=0, time=0),
    Message('note_on', channel=6, note=74, velocity=127, time=72),
    Message('note_on', channel=6, note=69, velocity=127, time=0),
    Message('note_on', channel=6, note=65, velocity=127, time=0),
    Message('note_off', channel=6, note=65, velocity=0, time=96),
    Message('note_off', channel=6, note=69, velocity=0, time=0),
    Message('note_off', channel=6, note=74, velocity=0, time=0),
    Message('note_on', channel=6, note=74, velocity=127, time=0),
    Message('note_on', channel=6, note=69, velocity=127, time=0),
    Message('note_on', channel=6, note=65, velocity=127, time=0),
    Message('note_off', channel=6, note=74, velocity=0, time=16),
    Message('note_off', channel=6, note=69, velocity=0, time=0),
    Message('note_off', channel=6, note=65, velocity=0, time=0),
    Message('note_on', channel=6, note=73, velocity=127, time=32),
    Message('note_on', channel=6, note=68, velocity=127, time=0),
    Message('note_on', channel=6, note=64, velocity=127, time=0),
    Message('note_off', channel=6, note=64, velocity=0, time=16),
    Message('note_off', channel=6, note=73, velocity=0, time=0),
    Message('note_off', channel=6, note=68, velocity=0, time=0),
    Message('note_on', channel=6, note=74, velocity=127, time=32),
    Message('note_on', channel=6, note=69, velocity=127, time=0),
    Message('note_on', channel=6, note=65, velocity=127, time=0),
    Message('note_off', channel=6, note=65, velocity=0, time=24),
    Message('note_off', channel=6, note=69, velocity=0, time=0),
    Message('note_off', channel=6, note=74, velocity=0, time=0),
    Message('note_on', channel=6, note=65, velocity=127, time=72),
    Message('note_on', channel=6, note=62, velocity=127, time=0),
    Message('note_on', channel=6, note=57, velocity=127, time=0),
    Message('note_off', channel=6, note=65, velocity=0, time=96),
    Message('note_off', channel=6, note=57, velocity=0, time=0),
    Message('note_off', channel=6, note=62, velocity=0, time=0),
    Message('note_on', channel=6, note=64, velocity=127, time=0),
    Message('note_on', channel=6, note=60, velocity=127, time=0),
    Message('note_on', channel=6, note=57, velocity=127, time=0),
    Message('note_off', channel=6, note=64, velocity=0, time=16),
    Message('note_off', channel=6, note=60, velocity=0, time=0),
    Message('note_off', channel=6, note=57, velocity=0, time=0),
    Message('note_on', channel=6, note=69, velocity=127, time=80),
    Message('note_on', channel=6, note=64, velocity=127, time=0),
    Message('note_on', channel=6, note=60, velocity=127, time=0),
    Message('note_off', channel=6, note=69, velocity=0, time=16),
    Message('note_off', channel=6, note=64, velocity=0, time=0),
    Message('note_off', channel=6, note=60, velocity=0, time=0),
    Message('note_on', channel=6, note=72, velocity=127, time=32),
    Message('note_on', channel=6, note=69, velocity=127, time=0),
    Message('note_on', channel=6, note=64, velocity=127, time=0),
    Message('note_off', channel=6, note=72, velocity=0, time=16),
    Message('note_off', channel=6, note=69, velocity=0, time=0),
    Message('note_off', channel=6, note=64, velocity=0, time=0),
    Message('note_on', channel=6, note=75, velocity=127, time=32),
    Message('note_on', channel=6, note=71, velocity=127, time=0),
    Message('note_on', channel=6, note=68, velocity=127, time=0),
    Message('note_off', channel=6, note=75, velocity=0, time=168),
    Message('note_off', channel=6, note=71, velocity=0, time=0),
    Message('note_off', channel=6, note=68, velocity=0, time=0),
    Message('note_on', channel=6, note=76, velocity=127, time=24),
    Message('note_on', channel=6, note=72, velocity=127, time=0),
    Message('note_on', channel=6, note=69, velocity=127, time=0),
    Message('note_off', channel=6, note=76, velocity=0, time=16),
    Message('note_off', channel=6, note=72, velocity=0, time=0),
    Message('note_off', channel=6, note=69, velocity=0, time=0),
    Message('note_on', channel=6, note=76, velocity=127, time=32),
    Message('note_on', channel=6, note=72, velocity=127, time=0),
    Message('note_on', channel=6, note=69, velocity=127, time=0),
    Message('note_off', channel=6, note=69, velocity=0, time=16),
    Message('note_off', channel=6, note=76, velocity=0, time=0),
    Message('note_off', channel=6, note=72, velocity=0, time=0),
    Message('note_on', channel=6, note=76, velocity=127, time=32),
    Message('note_on', channel=6, note=72, velocity=127, time=0),
    Message('note_on', channel=6, note=69, velocity=127, time=0),
    Message('note_off', channel=6, note=76, velocity=0, time=16),
    Message('note_off', channel=6, note=72, velocity=0, time=0),
    Message('note_off', channel=6, note=69, velocity=0, time=0),
    Message('note_on', channel=6, note=76, velocity=127, time=32),
    Message('note_on', channel=6, note=72, velocity=127, time=0),
    Message('note_on', channel=6, note=69, velocity=127, time=0),
    Message('note_off', channel=6, note=69, velocity=0, time=16),
    Message('note_off', channel=6, note=76, velocity=0, time=0),
    Message('note_off', channel=6, note=72, velocity=0, time=0),
    Message('note_on', channel=6, note=76, velocity=127, time=32),
    Message('note_on', channel=6, note=72, velocity=127, time=0),
    Message('note_on', channel=6, note=69, velocity=127, time=0),
    Message('note_off', channel=6, note=76, velocity=0, time=16),
    Message('note_off', channel=6, note=72, velocity=0, time=0),
    Message('note_off', channel=6, note=69, velocity=0, time=0),
    Message('note_on', channel=6, note=76, velocity=127, time=32),
    Message('note_on', channel=6, note=72, velocity=127, time=0),
    Message('note_on', channel=6, note=69, velocity=127, time=0),
    Message('note_off', channel=6, note=76, velocity=0, time=16),
    Message('note_off', channel=6, note=72, velocity=0, time=0),
    Message('note_off', channel=6, note=69, velocity=0, time=0),
    Message('note_on', channel=6, note=75, velocity=127, time=32),
    Message('note_on', channel=6, note=71, velocity=127, time=0),
    Message('note_on', channel=6, note=68, velocity=127, time=0),
    Message('note_off', channel=6, note=75, velocity=0, time=16),
    Message('note_off', channel=6, note=71, velocity=0, time=0),
    Message('note_off', channel=6, note=68, velocity=0, time=0),
    Message('note_on', channel=6, note=76, velocity=127, time=32),
    Message('note_on', channel=6, note=72, velocity=127, time=0),
    Message('note_on', channel=6, note=69, velocity=127, time=0),
    Message('note_off', channel=6, note=76, velocity=0, time=16),
    Message('note_off', channel=6, note=72, velocity=0, time=0),
    Message('note_off', channel=6, note=69, velocity=0, time=0),
    Message('note_on', channel=6, note=79, velocity=127, time=32),
    Message('note_on', channel=6, note=75, velocity=127, time=0),
    Message('note_on', channel=6, note=72, velocity=127, time=0),
    Message('note_off', channel=6, note=79, velocity=0, time=96),
    Message('note_off', channel=6, note=75, velocity=0, time=0),
    Message('note_off', channel=6, note=72, velocity=0, time=0),
    Message('note_on', channel=6, note=77, velocity=127, time=0),
    Message('note_on', channel=6, note=73, velocity=127, time=0),
    Message('note_on', channel=6, note=70, velocity=127, time=0),
    Message('note_off', channel=6, note=70, velocity=0, time=16),
    Message('note_off', channel=6, note=73, velocity=0, time=0),
    Message('note_off', channel=6, note=77, velocity=0, time=0),
    Message('note_on', channel=6, note=76, velocity=127, time=32),
    Message('note_on', channel=6, note=72, velocity=127, time=0),
    Message('note_on', channel=6, note=69, velocity=127, time=0),
    Message('note_off', channel=6, note=76, velocity=0, time=16),
    Message('note_off', channel=6, note=72, velocity=0, time=0),
    Message('note_off', channel=6, note=69, velocity=0, time=0),
    Message('note_on', channel=6, note=77, velocity=127, time=32),
    Message('note_on', channel=6, note=73, velocity=127, time=0),
    Message('note_on', channel=6, note=70, velocity=127, time=0),
    Message('note_off', channel=6, note=77, velocity=0, time=24),
    Message('note_off', channel=6, note=73, velocity=0, time=0),
    Message('note_off', channel=6, note=70, velocity=0, time=0),
    Message('note_on', channel=6, note=70, velocity=127, time=72),
    Message('note_on', channel=6, note=65, velocity=127, time=0),
    Message('note_on', channel=6, note=61, velocity=127, time=0),
    Message('note_off', channel=6, note=70, velocity=0, time=24),
    Message('note_off', channel=6, note=65, velocity=0, time=0),
    Message('note_off', channel=6, note=61, velocity=0, time=0),
    Message('note_on', channel=6, note=77, velocity=127, time=72),
    Message('note_on', channel=6, note=73, velocity=127, time=0),
    Message('note_on', channel=6, note=70, velocity=127, time=0),
    Message('note_off', channel=6, note=77, velocity=0, time=96),
    Message('note_off', channel=6, note=73, velocity=0, time=0),
    Message('note_off', channel=6, note=70, velocity=0, time=0),
    Message('note_on', channel=6, note=76, velocity=127, time=0),
    Message('note_on', channel=6, note=72, velocity=127, time=0),
    Message('note_on', channel=6, note=69, velocity=127, time=0),
    Message('note_off', channel=6, note=69, velocity=0, time=16),
    Message('note_off', channel=6, note=72, velocity=0, time=0),
    Message('note_off', channel=6, note=76, velocity=0, time=0),
    Message('note_on', channel=6, note=75, velocity=127, time=32),
    Message('note_on', channel=6, note=71, velocity=127, time=0),
    Message('note_on', channel=6, note=68, velocity=127, time=0),
    Message('note_off', channel=6, note=75, velocity=0, time=16),
    Message('note_off', channel=6, note=71, velocity=0, time=0),
    Message('note_off', channel=6, note=68, velocity=0, time=0),
    Message('note_on', channel=6, note=76, velocity=127, time=32),
    Message('note_on', channel=6, note=72, velocity=127, time=0),
    Message('note_on', channel=6, note=69, velocity=127, time=0),
    Message('note_off', channel=6, note=76, velocity=0, time=24),
    Message('note_off', channel=6, note=72, velocity=0, time=0),
    Message('note_off', channel=6, note=69, velocity=0, time=0),
    Message('note_on', channel=6, note=69, velocity=127, time=72),
    Message('note_on', channel=6, note=64, velocity=127, time=0),
    Message('note_on', channel=6, note=60, velocity=127, time=0),
    Message('note_off', channel=6, note=69, velocity=0, time=24),
    Message('note_off', channel=6, note=64, velocity=0, time=0),
    Message('note_off', channel=6, note=60, velocity=0, time=0),
    Message('note_on', channel=6, note=72, velocity=127, time=72),
    Message('note_on', channel=6, note=68, velocity=127, time=0),
    Message('note_on', channel=6, note=65, velocity=127, time=0),
    Message('note_off', channel=6, note=65, velocity=0, time=168),
    Message('note_off', channel=6, note=68, velocity=0, time=0),
    Message('note_off', channel=6, note=72, velocity=0, time=0),
    Message('note_on', channel=6, note=71, velocity=127, time=24),
    Message('note_on', channel=6, note=67, velocity=127, time=0),
    Message('note_on', channel=6, note=64, velocity=127, time=0),
    Message('note_off', channel=6, note=71, velocity=0, time=168),
    Message('note_off', channel=6, note=67, velocity=0, time=0),
    Message('note_off', channel=6, note=64, velocity=0, time=0),
    Message('note_on', channel=6, note=65, velocity=127, time=24),
    Message('note_on', channel=6, note=60, velocity=127, time=0),
    Message('note_on', channel=6, note=56, velocity=127, time=0),
    Message('note_off', channel=6, note=65, velocity=0, time=168),
    Message('note_off', channel=6, note=60, velocity=0, time=0),
    Message('note_off', channel=6, note=56, velocity=0, time=0),
    Message('note_on', channel=6, note=71, velocity=127, time=24),
    Message('note_on', channel=6, note=68, velocity=127, time=0),
    Message('note_on', channel=6, note=64, velocity=127, time=0),
    Message('note_off', channel=6, note=71, velocity=0, time=168),
    Message('note_off', channel=6, note=68, velocity=0, time=0),
    Message('note_off', channel=6, note=64, velocity=0, time=0),
    Message('control_change', channel=6, control=7, value=90, time=3864),
    Message('note_on', channel=6, note=79, velocity=60, time=0),
    Message('note_off', channel=6, note=79, velocity=0, time=192),
    Message('note_on', channel=6, note=72, velocity=60, time=0),
    Message('note_off', channel=6, note=72, velocity=0, time=128),
    Message('control_change', channel=6, control=7, value=100, time=1120),
    Message('note_on', channel=6, note=67, velocity=75, time=0),
    Message('note_off', channel=6, note=67, velocity=0, time=31),
    Message('note_on', channel=6, note=67, velocity=75, time=1),
    Message('note_off', channel=6, note=67, velocity=0, time=31),
    Message('note_on', channel=6, note=67, velocity=75, time=1),
    Message('note_off', channel=6, note=67, velocity=0, time=31),
    Message('note_on', channel=6, note=67, velocity=75, time=1),
    Message('note_off', channel=6, note=67, velocity=0, time=264),
    Message('note_on', channel=6, note=55, velocity=75, time=24),
    Message('note_off', channel=6, note=55, velocity=0, time=31),
    Message('note_on', channel=6, note=55, velocity=75, time=1),
    Message('note_off', channel=6, note=55, velocity=0, time=31),
    Message('note_on', channel=6, note=55, velocity=75, time=1),
    Message('note_off', channel=6, note=55, velocity=0, time=31),
    Message('note_on', channel=6, note=55, velocity=75, time=1),
    Message('note_off', channel=6, note=55, velocity=0, time=47),
    Message('note_on', channel=6, note=67, velocity=75, time=433),
    Message('control_change', channel=6, control=7, value=101, time=14),
    Message('control_change', channel=6, control=7, value=102, time=14),
    Message('control_change', channel=6, control=7, value=103, time=15),
    Message('control_change', channel=6, control=7, value=104, time=14),
    Message('control_change', channel=6, control=7, value=105, time=14),
    Message('control_change', channel=6, control=7, value=106, time=15),
    Message('control_change', channel=6, control=7, value=107, time=14),
    Message('control_change', channel=6, control=7, value=108, time=15),
    Message('control_change', channel=6, control=7, value=109, time=14),
    Message('control_change', channel=6, control=7, value=110, time=14),
    Message('control_change', channel=6, control=7, value=111, time=15),
    Message('control_change', channel=6, control=7, value=112, time=14),
    Message('control_change', channel=6, control=7, value=113, time=15),
    Message('control_change', channel=6, control=7, value=114, time=14),
    Message('control_change', channel=6, control=7, value=115, time=14),
    Message('control_change', channel=6, control=7, value=116, time=15),
    Message('control_change', channel=6, control=7, value=117, time=14),
    Message('control_change', channel=6, control=7, value=118, time=15),
    Message('note_off', channel=6, note=67, velocity=0, time=5),
    Message('control_change', channel=6, control=7, value=119, time=9),
    Message('control_change', channel=6, control=7, value=120, time=14),
    Message('note_on', channel=6, note=79, velocity=127, time=1),
    Message('note_on', channel=6, note=75, velocity=127, time=0),
    Message('note_on', channel=6, note=72, velocity=127, time=0),
    Message('note_off', channel=6, note=79, velocity=0, time=16),
    Message('note_off', channel=6, note=75, velocity=0, time=0),
    Message('note_off', channel=6, note=72, velocity=0, time=0),
    Message('note_on', channel=6, note=79, velocity=108, time=32),
    Message('note_on', channel=6, note=75, velocity=108, time=0),
    Message('note_off', channel=6, note=79, velocity=0, time=16),
    Message('note_off', channel=6, note=75, velocity=0, time=0),
    Message('note_on', channel=6, note=79, velocity=108, time=32),
    Message('note_on', channel=6, note=75, velocity=108, time=0),
    Message('note_on', channel=6, note=72, velocity=108, time=0),
    Message('note_off', channel=6, note=79, velocity=0, time=16),
    Message('note_off', channel=6, note=75, velocity=0, time=0),
    Message('note_off', channel=6, note=72, velocity=0, time=0),
    Message('note_on', channel=6, note=79, velocity=108, time=32),
    Message('note_on', channel=6, note=75, velocity=108, time=0),
    Message('note_on', channel=6, note=72, velocity=108, time=0),
    Message('note_off', channel=6, note=79, velocity=0, time=16),
    Message('note_off', channel=6, note=75, velocity=0, time=0),
    Message('note_off', channel=6, note=72, velocity=0, time=0),
    Message('note_on', channel=6, note=79, velocity=108, time=32),
    Message('note_on', channel=6, note=75, velocity=108, time=0),
    Message('note_on', channel=6, note=72, velocity=108, time=0),
    Message('note_off', channel=6, note=79, velocity=0, time=16),
    Message('note_off', channel=6, note=75, velocity=0, time=0),
    Message('note_off', channel=6, note=72, velocity=0, time=0),
    Message('note_on', channel=6, note=79, velocity=108, time=32),
    Message('note_on', channel=6, note=75, velocity=108, time=0),
    Message('note_on', channel=6, note=72, velocity=108, time=0),
    Message('note_off', channel=6, note=79, velocity=0, time=16),
    Message('note_off', channel=6, note=75, velocity=0, time=0),
    Message('note_off', channel=6, note=72, velocity=0, time=0),
    Message('note_on', channel=6, note=78, velocity=108, time=32),
    Message('note_on', channel=6, note=74, velocity=108, time=0),
    Message('note_on', channel=6, note=71, velocity=108, time=0),
    Message('note_off', channel=6, note=78, velocity=0, time=16),
    Message('note_off', channel=6, note=74, velocity=0, time=0),
    Message('note_off', channel=6, note=71, velocity=0, time=0),
    Message('note_on', channel=6, note=79, velocity=108, time=32),
    Message('note_on', channel=6, note=75, velocity=108, time=0),
    Message('note_on', channel=6, note=72, velocity=108, time=0),
    Message('note_off', channel=6, note=79, velocity=0, time=16),
    Message('note_off', channel=6, note=75, velocity=0, time=0),
    Message('note_off', channel=6, note=72, velocity=0, time=0),
    Message('note_on', channel=6, note=80, velocity=127, time=32),
    Message('note_on', channel=6, note=76, velocity=127, time=0),
    Message('note_on', channel=6, note=73, velocity=127, time=0),
    Message('note_off', channel=6, note=80, velocity=0, time=96),
    Message('note_off', channel=6, note=76, velocity=0, time=0),
    Message('note_off', channel=6, note=73, velocity=0, time=0),
    Message('note_on', channel=6, note=79, velocity=108, time=0),
    Message('note_on', channel=6, note=75, velocity=108, time=0),
    Message('note_on', channel=6, note=72, velocity=108, time=0),
    Message('note_off', channel=6, note=79, velocity=0, time=16),
    Message('note_off', channel=6, note=75, velocity=0, time=0),
    Message('note_off', channel=6, note=72, velocity=0, time=0),
    Message('note_on', channel=6, note=78, velocity=108, time=32),
    Message('note_on', channel=6, note=74, velocity=108, time=0),
    Message('note_on', channel=6, note=71, velocity=108, time=0),
    Message('note_off', channel=6, note=78, velocity=0, time=16),
    Message('note_off', channel=6, note=74, velocity=0, time=0),
    Message('note_off', channel=6, note=71, velocity=0, time=0),
    Message('note_on', channel=6, note=79, velocity=108, time=32),
    Message('note_on', channel=6, note=75, velocity=108, time=0),
    Message('note_on', channel=6, note=72, velocity=108, time=0),
    Message('note_off', channel=6, note=79, velocity=0, time=24),
    Message('note_off', channel=6, note=75, velocity=0, time=0),
    Message('note_off', channel=6, note=72, velocity=0, time=0),
    Message('note_on', channel=6, note=75, velocity=108, time=72),
    Message('note_on', channel=6, note=72, velocity=108, time=0),
    Message('note_on', channel=6, note=67, velocity=108, time=0),
    Message('note_off', channel=6, note=75, velocity=0, time=24),
    Message('note_off', channel=6, note=72, velocity=0, time=0),
    Message('note_off', channel=6, note=67, velocity=0, time=0),
    Message('note_on', channel=6, note=77, velocity=108, time=72),
    Message('note_on', channel=6, note=72, velocity=108, time=0),
    Message('note_on', channel=6, note=68, velocity=108, time=0),
    Message('note_off', channel=6, note=68, velocity=0, time=96),
    Message('note_off', channel=6, note=72, velocity=0, time=0),
    Message('note_off', channel=6, note=77, velocity=0, time=0),
    Message('note_on', channel=6, note=77, velocity=108, time=0),
    Message('note_on', channel=6, note=72, velocity=108, time=0),
    Message('note_on', channel=6, note=68, velocity=108, time=0),
    Message('note_off', channel=6, note=68, velocity=0, time=16),
    Message('note_off', channel=6, note=72, velocity=0, time=0),
    Message('note_off', channel=6, note=77, velocity=0, time=0),
    Message('note_on', channel=6, note=76, velocity=108, time=32),
    Message('note_on', channel=6, note=71, velocity=108, time=0),
    Message('note_on', channel=6, note=67, velocity=108, time=0),
    Message('note_off', channel=6, note=76, velocity=0, time=16),
    Message('note_off', channel=6, note=71, velocity=0, time=0),
    Message('note_off', channel=6, note=67, velocity=0, time=0),
    Message('note_on', channel=6, note=77, velocity=108, time=32),
    Message('note_on', channel=6, note=72, velocity=108, time=0),
    Message('note_on', channel=6, note=68, velocity=108, time=0),
    Message('note_off', channel=6, note=77, velocity=0, time=24),
    Message('note_off', channel=6, note=72, velocity=0, time=0),
    Message('note_off', channel=6, note=68, velocity=0, time=0),
    Message('note_on', channel=6, note=68, velocity=108, time=72),
    Message('note_on', channel=6, note=65, velocity=108, time=0),
    Message('note_on', channel=6, note=60, velocity=108, time=0),
    Message('note_off', channel=6, note=65, velocity=0, time=96),
    Message('note_off', channel=6, note=60, velocity=0, time=0),
    Message('note_off', channel=6, note=68, velocity=0, time=0),
    Message('note_on', channel=6, note=67, velocity=108, time=0),
    Message('note_on', channel=6, note=63, velocity=108, time=0),
    Message('note_on', channel=6, note=60, velocity=108, time=0),
    Message('note_off', channel=6, note=60, velocity=0, time=16),
    Message('note_off', channel=6, note=63, velocity=0, time=0),
    Message('note_off', channel=6, note=67, velocity=0, time=0),
    Message('note_on', channel=6, note=72, velocity=108, time=80),
    Message('note_on', channel=6, note=67, velocity=108, time=0),
    Message('note_on', channel=6, note=63, velocity=108, time=0),
    Message('note_off', channel=6, note=72, velocity=0, time=16),
    Message('note_off', channel=6, note=67, velocity=0, time=0),
    Message('note_off', channel=6, note=63, velocity=0, time=0),
    Message('note_on', channel=6, note=75, velocity=108, time=32),
    Message('note_on', channel=6, note=72, velocity=108, time=0),
    Message('note_on', channel=6, note=67, velocity=108, time=0),
    Message('note_off', channel=6, note=67, velocity=0, time=16),
    Message('note_off', channel=6, note=75, velocity=0, time=0),
    Message('note_off', channel=6, note=72, velocity=0, time=0),
    Message('note_on', channel=6, note=78, velocity=108, time=32),
    Message('note_on', channel=6, note=74, velocity=108, time=0),
    Message('note_on', channel=6, note=71, velocity=108, time=0),
    Message('note_off', channel=6, note=78, velocity=0, time=168),
    Message('note_off', channel=6, note=74, velocity=0, time=0),
    Message('note_off', channel=6, note=71, velocity=0, time=0),
    Message('note_on', channel=6, note=79, velocity=127, time=1560),
    Message('note_on', channel=6, note=72, velocity=127, time=0),
    Message('note_off', channel=6, note=79, velocity=0, time=16),
    Message('note_off', channel=6, note=72, velocity=0, time=0),
    Message('control_change', channel=6, control=7, value=100, time=368),
    Message('note_on', channel=6, note=67, velocity=75, time=288),
    Message('note_off', channel=6, note=67, velocity=0, time=80),
    Message('note_on', channel=6, note=69, velocity=75, time=16),
    Message('note_off', channel=6, note=69, velocity=0, time=80),
    Message('note_on', channel=6, note=68, velocity=75, time=16),
    Message('note_off', channel=6, note=68, velocity=0, time=48),
    Message('note_on', channel=6, note=69, velocity=75, time=0),
    Message('note_off', channel=6, note=69, velocity=0, time=47),
    Message('note_on', channel=6, note=71, velocity=75, time=1),
    Message('note_off', channel=6, note=71, velocity=0, time=80),
    Message('note_on', channel=6, note=69, velocity=75, time=16),
    Message('note_off', channel=6, note=69, velocity=0, time=48),
    Message('note_on', channel=6, note=68, velocity=75, time=0),
    Message('note_off', channel=6, note=68, velocity=0, time=47),
    Message('note_on', channel=6, note=69, velocity=75, time=1),
    Message('note_off', channel=6, note=69, velocity=0, time=48),
    Message('note_on', channel=6, note=71, velocity=75, time=0),
    Message('note_off', channel=6, note=71, velocity=0, time=47),
    Message('note_on', channel=6, note=73, velocity=75, time=1),
    Message('note_off', channel=6, note=73, velocity=0, time=80),
    Message('note_on', channel=6, note=69, velocity=75, time=16),
    Message('note_off', channel=6, note=69, velocity=0, time=96),
    Message('note_on', channel=6, note=68, velocity=75, time=0),
    Message('note_off', channel=6, note=68, velocity=0, time=80),
    Message('note_on', channel=6, note=61, velocity=75, time=16),
    Message('note_off', channel=6, note=61, velocity=0, time=47),
    Message('note_on', channel=6, note=71, velocity=75, time=49),
    Message('note_off', channel=6, note=71, velocity=0, time=24),
    Message('note_on', channel=6, note=69, velocity=75, time=0),
    Message('note_off', channel=6, note=69, velocity=0, time=24),
    Message('note_on', channel=6, note=68, velocity=75, time=0),
    Message('note_off', channel=6, note=68, velocity=0, time=24),
    Message('note_on', channel=6, note=69, velocity=75, time=0),
    Message('note_off', channel=6, note=69, velocity=0, time=24),
    Message('note_on', channel=6, note=71, velocity=75, time=0),
    Message('note_off', channel=6, note=71, velocity=0, time=47),
    Message('note_on', channel=6, note=73, velocity=75, time=49),
    Message('note_off', channel=6, note=73, velocity=0, time=24),
    Message('note_on', channel=6, note=71, velocity=75, time=0),
    Message('note_off', channel=6, note=71, velocity=0, time=24),
    Message('note_on', channel=6, note=69, velocity=75, time=0),
    Message('note_off', channel=6, note=69, velocity=0, time=24),
    Message('note_on', channel=6, note=71, velocity=75, time=0),
    Message('note_off', channel=6, note=71, velocity=0, time=23),
    Message('note_on', channel=6, note=73, velocity=75, time=1),
    Message('control_change', channel=6, control=7, value=99, time=4),
    Message('control_change', channel=6, control=7, value=98, time=4),
    Message('control_change', channel=6, control=7, value=97, time=4),
    Message('control_change', channel=6, control=7, value=96, time=4),
    Message('control_change', channel=6, control=7, value=95, time=4),
    Message('control_change', channel=6, control=7, value=94, time=5),
    Message('control_change', channel=6, control=7, value=93, time=4),
    Message('control_change', channel=6, control=7, value=92, time=4),
    Message('control_change', channel=6, control=7, value=91, time=4),
    Message('control_change', channel=6, control=7, value=90, time=4),
    Message('control_change', channel=6, control=7, value=89, time=5),
    Message('control_change', channel=6, control=7, value=88, time=4),
    Message('control_change', channel=6, control=7, value=87, time=4),
    Message('control_change', channel=6, control=7, value=86, time=4),
    Message('control_change', channel=6, control=7, value=85, time=4),
    Message('control_change', channel=6, control=7, value=84, time=5),
    Message('control_change', channel=6, control=7, value=83, time=4),
    Message('control_change', channel=6, control=7, value=82, time=4),
    Message('control_change', channel=6, control=7, value=81, time=4),
    Message('control_change', channel=6, control=7, value=80, time=4),
    Message('control_change', channel=6, control=7, value=79, time=5),
    Message('control_change', channel=6, control=7, value=78, time=4),
    Message('control_change', channel=6, control=7, value=77, time=4),
    Message('control_change', channel=6, control=7, value=76, time=4),
    Message('control_change', channel=6, control=7, value=75, time=4),
    Message('control_change', channel=6, control=7, value=74, time=5),
    Message('control_change', channel=6, control=7, value=73, time=4),
    Message('control_change', channel=6, control=7, value=72, time=4),
    Message('control_change', channel=6, control=7, value=71, time=4),
    Message('control_change', channel=6, control=7, value=70, time=4),
    Message('control_change', channel=6, control=7, value=69, time=5),
    Message('control_change', channel=6, control=7, value=68, time=4),
    Message('control_change', channel=6, control=7, value=67, time=4),
    Message('control_change', channel=6, control=7, value=66, time=4),
    Message('control_change', channel=6, control=7, value=65, time=4),
    Message('control_change', channel=6, control=7, value=64, time=5),
    Message('control_change', channel=6, control=7, value=63, time=4),
    Message('control_change', channel=6, control=7, value=62, time=4),
    Message('control_change', channel=6, control=7, value=61, time=4),
    Message('control_change', channel=6, control=7, value=60, time=4),
    Message('control_change', channel=6, control=7, value=59, time=5),
    Message('control_change', channel=6, control=7, value=58, time=4),
    Message('control_change', channel=6, control=7, value=57, time=4),
    Message('control_change', channel=6, control=7, value=56, time=4),
    Message('control_change', channel=6, control=7, value=55, time=4),
    Message('control_change', channel=6, control=7, value=54, time=5),
    Message('control_change', channel=6, control=7, value=53, time=4),
    Message('control_change', channel=6, control=7, value=52, time=4),
    Message('control_change', channel=6, control=7, value=51, time=4),
    Message('control_change', channel=6, control=7, value=50, time=4),
    Message('control_change', channel=6, control=7, value=49, time=5),
    Message('control_change', channel=6, control=7, value=48, time=4),
    Message('control_change', channel=6, control=7, value=47, time=4),
    Message('control_change', channel=6, control=7, value=46, time=4),
    Message('control_change', channel=6, control=7, value=45, time=4),
    Message('control_change', channel=6, control=7, value=44, time=5),
    Message('control_change', channel=6, control=7, value=43, time=4),
    Message('control_change', channel=6, control=7, value=42, time=4),
    Message('control_change', channel=6, control=7, value=41, time=4),
    Message('control_change', channel=6, control=7, value=40, time=4),
    Message('control_change', channel=6, control=7, value=39, time=5),
    Message('control_change', channel=6, control=7, value=38, time=4),
    Message('control_change', channel=6, control=7, value=37, time=4),
    Message('control_change', channel=6, control=7, value=36, time=4),
    Message('control_change', channel=6, control=7, value=35, time=4),
    Message('control_change', channel=6, control=7, value=34, time=5),
    Message('control_change', channel=6, control=7, value=33, time=4),
    Message('control_change', channel=6, control=7, value=32, time=4),
    Message('control_change', channel=6, control=7, value=31, time=4),
    Message('control_change', channel=6, control=7, value=30, time=4),
    Message('control_change', channel=6, control=7, value=29, time=5),
    Message('control_change', channel=6, control=7, value=28, time=4),
    Message('control_change', channel=6, control=7, value=27, time=4),
    Message('control_change', channel=6, control=7, value=26, time=4),
    Message('note_off', channel=6, note=73, velocity=0, time=2),
    Message('control_change', channel=6, control=7, value=25, time=2),
    Message('control_change', channel=6, control=7, value=24, time=5),
    Message('control_change', channel=6, control=7, value=23, time=4),
    Message('control_change', channel=6, control=7, value=22, time=4),
    Message('control_change', channel=6, control=7, value=21, time=4),
    Message('control_change', channel=6, control=7, value=20, time=4),
    Message('control_change', channel=6, control=7, value=100, time=433),
    Message('note_on', channel=6, note=67, velocity=75, time=7056),
    Message('note_off', channel=6, note=67, velocity=0, time=80),
    Message('note_on', channel=6, note=63, velocity=75, time=16),
    Message('note_off', channel=6, note=63, velocity=0, time=47),
    Message('note_on', channel=6, note=67, velocity=75, time=1),
    Message('note_off', channel=6, note=67, velocity=0, time=80),
    Message('note_on', channel=6, note=63, velocity=75, time=16),
    Message('note_off', channel=6, note=63, velocity=0, time=47),
    Message('note_on', channel=6, note=68, velocity=105, time=1),
    Message('note_off', channel=6, note=68, velocity=0, time=80),
    Message('note_on', channel=6, note=67, velocity=75, time=16),
    Message('note_off', channel=6, note=67, velocity=0, time=47),
    Message('note_on', channel=6, note=66, velocity=75, time=1),
    Message('note_off', channel=6, note=66, velocity=0, time=335),
    Message('note_on', channel=6, note=64, velocity=75, time=145),
    Message('note_off', channel=6, note=64, velocity=0, time=11),
    Message('note_on', channel=6, note=62, velocity=75, time=1),
    Message('note_off', channel=6, note=62, velocity=0, time=11),
    Message('note_on', channel=6, note=60, velocity=75, time=1),
    Message('note_off', channel=6, note=60, velocity=0, time=11),
    Message('note_on', channel=6, note=59, velocity=75, time=1),
    Message('note_off', channel=6, note=59, velocity=0, time=11),
    Message('note_on', channel=6, note=57, velocity=75, time=1),
    Message('note_off', channel=6, note=57, velocity=0, time=47),
    Message('note_on', channel=6, note=59, velocity=75, time=289),
    Message('note_off', channel=6, note=59, velocity=0, time=23),
    Message('note_on', channel=6, note=59, velocity=75, time=1),
    Message('note_off', channel=6, note=59, velocity=0, time=23),
    Message('note_on', channel=6, note=59, velocity=75, time=1),
    Message('note_off', channel=6, note=59, velocity=0, time=23),
    Message('note_on', channel=6, note=59, velocity=75, time=1),
    Message('note_off', channel=6, note=59, velocity=0, time=23),
    Message('note_on', channel=6, note=59, velocity=75, time=1),
    Message('note_off', channel=6, note=59, velocity=0, time=23),
    Message('note_on', channel=6, note=59, velocity=75, time=1),
    Message('note_off', channel=6, note=59, velocity=0, time=23),
    Message('note_on', channel=6, note=59, velocity=105, time=1),
    Message('note_off', channel=6, note=59, velocity=0, time=23),
    Message('note_on', channel=6, note=59, velocity=75, time=1),
    Message('control_change', channel=6, control=7, value=101, time=148),
    Message('control_change', channel=6, control=7, value=102, time=29),
    Message('control_change', channel=6, control=7, value=103, time=29),
    Message('control_change', channel=6, control=7, value=104, time=29),
    Message('control_change', channel=6, control=7, value=105, time=28),
    Message('control_change', channel=6, control=7, value=106, time=29),
    Message('control_change', channel=6, control=7, value=107, time=29),
    Message('note_off', channel=6, note=59, velocity=0, time=23),
    Message('control_change', channel=6, control=7, value=108, time=6),
    Message('control_change', channel=6, control=7, value=109, time=29),
    Message('control_change', channel=6, control=7, value=110, time=28),
    Message('note_on', channel=6, note=67, velocity=92, time=145),
    Message('note_off', channel=6, note=67, velocity=0, time=16),
    Message('note_on', channel=6, note=66, velocity=92, time=32),
    Message('note_off', channel=6, note=66, velocity=0, time=16),
    Message('note_on', channel=6, note=64, velocity=92, time=32),
    Message('note_off', channel=6, note=64, velocity=0, time=16),
    Message('note_on', channel=6, note=63, velocity=92, time=32),
    Message('note_off', channel=6, note=63, velocity=0, time=16),
    Message('note_on', channel=6, note=64, velocity=92, time=32),
    Message('note_off', channel=6, note=64, velocity=0, time=16),
    Message('note_on', channel=6, note=66, velocity=92, time=32),
    Message('note_off', channel=6, note=66, velocity=0, time=16),
    Message('note_on', channel=6, note=59, velocity=92, time=32),
    Message('note_off', channel=6, note=59, velocity=0, time=24),
    Message('note_on', channel=6, note=58, velocity=92, time=0),
    Message('note_off', channel=6, note=58, velocity=0, time=23),
    Message('note_on', channel=6, note=63, velocity=92, time=385),
    Message('note_off', channel=6, note=63, velocity=0, time=16),
    Message('note_on', channel=6, note=64, velocity=92, time=32),
    Message('note_off', channel=6, note=64, velocity=0, time=16),
    Message('note_on', channel=6, note=66, velocity=92, time=32),
    Message('note_off', channel=6, note=66, velocity=0, time=16),
    Message('note_on', channel=6, note=59, velocity=92, time=32),
    Message('note_off', channel=6, note=59, velocity=0, time=24),
    Message('note_on', channel=6, note=58, velocity=92, time=0),
    Message('note_off', channel=6, note=58, velocity=0, time=23),
    Message('control_change', channel=6, control=7, value=120, time=145),
    Message('note_on', channel=6, note=79, velocity=127, time=0),
    Message('note_on', channel=6, note=75, velocity=127, time=0),
    Message('note_on', channel=6, note=72, velocity=127, time=0),
    Message('note_off', channel=6, note=72, velocity=0, time=24),
    Message('note_off', channel=6, note=75, velocity=0, time=0),
    Message('note_off', channel=6, note=79, velocity=0, time=0),
    Message('note_on', channel=6, note=68, velocity=108, time=264),
    Message('note_on', channel=6, note=63, velocity=108, time=0),
    Message('note_on', channel=6, note=60, velocity=108, time=0),
    Message('note_off', channel=6, note=60, velocity=0, time=15),
    Message('note_off', channel=6, note=63, velocity=0, time=0),
    Message('note_off', channel=6, note=68, velocity=0, time=0),
    Message('note_on', channel=6, note=68, velocity=108, time=1),
    Message('note_on', channel=6, note=63, velocity=108, time=0),
    Message('note_on', channel=6, note=60, velocity=108, time=0),
    Message('note_off', channel=6, note=60, velocity=0, time=15),
    Message('note_off', channel=6, note=68, velocity=0, time=0),
    Message('note_off', channel=6, note=63, velocity=0, time=0),
    Message('note_on', channel=6, note=68, velocity=108, time=1),
    Message('note_on', channel=6, note=63, velocity=108, time=0),
    Message('note_on', channel=6, note=60, velocity=108, time=0),
    Message('note_off', channel=6, note=60, velocity=0, time=15),
    Message('note_off', channel=6, note=63, velocity=0, time=0),
    Message('note_off', channel=6, note=68, velocity=0, time=0),
    Message('note_on', channel=6, note=72, velocity=108, time=1),
    Message('note_on', channel=6, note=67, velocity=108, time=0),
    Message('note_on', channel=6, note=63, velocity=108, time=0),
    Message('note_off', channel=6, note=63, velocity=0, time=15),
    Message('note_off', channel=6, note=67, velocity=0, time=0),
    Message('note_off', channel=6, note=72, velocity=0, time=0),
    Message('note_on', channel=6, note=72, velocity=108, time=1),
    Message('note_on', channel=6, note=67, velocity=108, time=0),
    Message('note_on', channel=6, note=63, velocity=108, time=0),
    Message('note_off', channel=6, note=72, velocity=0, time=15),
    Message('note_off', channel=6, note=63, velocity=0, time=0),
    Message('note_off', channel=6, note=67, velocity=0, time=0),
    Message('note_on', channel=6, note=72, velocity=108, time=1),
    Message('note_on', channel=6, note=67, velocity=108, time=0),
    Message('note_on', channel=6, note=63, velocity=108, time=0),
    Message('note_off', channel=6, note=63, velocity=0, time=15),
    Message('note_off', channel=6, note=72, velocity=0, time=0),
    Message('note_off', channel=6, note=67, velocity=0, time=0),
    Message('note_on', channel=6, note=78, velocity=108, time=1),
    Message('note_on', channel=6, note=75, velocity=108, time=0),
    Message('note_on', channel=6, note=72, velocity=108, time=0),
    Message('note_off', channel=6, note=72, velocity=0, time=24),
    Message('note_off', channel=6, note=75, velocity=0, time=0),
    Message('note_off', channel=6, note=78, velocity=0, time=0),
    Message('note_on', channel=6, note=79, velocity=127, time=168),
    Message('note_on', channel=6, note=75, velocity=127, time=0),
    Message('note_on', channel=6, note=72, velocity=127, time=0),
    Message('note_off', channel=6, note=72, velocity=0, time=24),
    Message('note_off', channel=6, note=75, velocity=0, time=0),
    Message('note_off', channel=6, note=79, velocity=0, time=0),
    Message('note_on', channel=6, note=72, velocity=108, time=264),
    Message('note_on', channel=6, note=67, velocity=108, time=0),
    Message('note_on', channel=6, note=63, velocity=108, time=0),
    Message('note_off', channel=6, note=63, velocity=0, time=16),
    Message('note_off', channel=6, note=67, velocity=0, time=0),
    Message('note_off', channel=6, note=72, velocity=0, time=0),
    Message('note_on', channel=6, note=73, velocity=108, time=0),
    Message('note_on', channel=6, note=68, velocity=108, time=0),
    Message('note_on', channel=6, note=64, velocity=108, time=0),
    Message('note_off', channel=6, note=64, velocity=0, time=16),
    Message('note_off', channel=6, note=68, velocity=0, time=0),
    Message('note_off', channel=6, note=73, velocity=0, time=0),
    Message('note_on', channel=6, note=74, velocity=108, time=0),
    Message('note_on', channel=6, note=69, velocity=108, time=0),
    Message('note_on', channel=6, note=65, velocity=108, time=0),
    Message('note_off', channel=6, note=65, velocity=0, time=16),
    Message('note_off', channel=6, note=69, velocity=0, time=0),
    Message('note_off', channel=6, note=74, velocity=0, time=0),
    Message('note_on', channel=6, note=75, velocity=108, time=0),
    Message('note_on', channel=6, note=70, velocity=108, time=0),
    Message('note_on', channel=6, note=66, velocity=108, time=0),
    Message('note_off', channel=6, note=66, velocity=0, time=16),
    Message('note_off', channel=6, note=70, velocity=0, time=0),
    Message('note_off', channel=6, note=75, velocity=0, time=0),
    Message('note_on', channel=6, note=76, velocity=108, time=0),
    Message('note_on', channel=6, note=71, velocity=108, time=0),
    Message('note_on', channel=6, note=67, velocity=108, time=0),
    Message('note_off', channel=6, note=67, velocity=0, time=16),
    Message('note_off', channel=6, note=71, velocity=0, time=0),
    Message('note_off', channel=6, note=76, velocity=0, time=0),
    Message('note_on', channel=6, note=77, velocity=108, time=0),
    Message('note_on', channel=6, note=72, velocity=108, time=0),
    Message('note_on', channel=6, note=68, velocity=108, time=0),
    Message('note_off', channel=6, note=68, velocity=0, time=15),
    Message('note_off', channel=6, note=72, velocity=0, time=0),
    Message('note_off', channel=6, note=77, velocity=0, time=0),
    Message('note_on', channel=6, note=78, velocity=127, time=1),
    Message('note_on', channel=6, note=73, velocity=127, time=0),
    Message('note_on', channel=6, note=69, velocity=127, time=0),
    Message('note_off', channel=6, note=69, velocity=0, time=16),
    Message('note_off', channel=6, note=73, velocity=0, time=0),
    Message('note_off', channel=6, note=78, velocity=0, time=0),
    Message('note_on', channel=6, note=77, velocity=108, time=0),
    Message('note_on', channel=6, note=72, velocity=108, time=0),
    Message('note_on', channel=6, note=68, velocity=108, time=0),
    Message('note_off', channel=6, note=68, velocity=0, time=16),
    Message('note_off', channel=6, note=72, velocity=0, time=0),
    Message('note_off', channel=6, note=77, velocity=0, time=0),
    Message('note_on', channel=6, note=76, velocity=108, time=0),
    Message('note_on', channel=6, note=71, velocity=108, time=0),
    Message('note_on', channel=6, note=67, velocity=108, time=0),
    Message('note_off', channel=6, note=67, velocity=0, time=16),
    Message('note_off', channel=6, note=71, velocity=0, time=0),
    Message('note_off', channel=6, note=76, velocity=0, time=0),
    Message('note_on', channel=6, note=75, velocity=108, time=0),
    Message('note_on', channel=6, note=70, velocity=108, time=0),
    Message('note_on', channel=6, note=66, velocity=108, time=0),
    Message('note_off', channel=6, note=66, velocity=0, time=16),
    Message('note_off', channel=6, note=70, velocity=0, time=0),
    Message('note_off', channel=6, note=75, velocity=0, time=0),
    Message('note_on', channel=6, note=74, velocity=108, time=0),
    Message('note_on', channel=6, note=69, velocity=108, time=0),
    Message('note_on', channel=6, note=65, velocity=108, time=0),
    Message('note_off', channel=6, note=65, velocity=0, time=16),
    Message('note_off', channel=6, note=69, velocity=0, time=0),
    Message('note_off', channel=6, note=74, velocity=0, time=0),
    Message('note_on', channel=6, note=73, velocity=108, time=0),
    Message('note_on', channel=6, note=68, velocity=108, time=0),
    Message('note_on', channel=6, note=64, velocity=108, time=0),
    Message('note_off', channel=6, note=64, velocity=0, time=16),
    Message('note_off', channel=6, note=68, velocity=0, time=0),
    Message('note_off', channel=6, note=73, velocity=0, time=0),
    Message('note_on', channel=6, note=72, velocity=108, time=0),
    Message('note_on', channel=6, note=67, velocity=108, time=0),
    Message('note_on', channel=6, note=63, velocity=108, time=0),
    Message('note_off', channel=6, note=63, velocity=0, time=16),
    Message('note_off', channel=6, note=67, velocity=0, time=0),
    Message('note_off', channel=6, note=72, velocity=0, time=0),
    Message('note_on', channel=6, note=79, velocity=127, time=80),
    Message('note_on', channel=6, note=75, velocity=127, time=0),
    Message('note_on', channel=6, note=72, velocity=127, time=0),
    Message('note_off', channel=6, note=72, velocity=0, time=24),
    Message('note_off', channel=6, note=75, velocity=0, time=0),
    Message('note_off', channel=6, note=79, velocity=0, time=0),
    Message('note_on', channel=6, note=82, velocity=127, time=264),
    Message('note_on', channel=6, note=78, velocity=127, time=0),
    Message('note_on', channel=6, note=75, velocity=127, time=0),
    Message('note_off', channel=6, note=75, velocity=0, time=24),
    Message('note_off', channel=6, note=82, velocity=0, time=0),
    Message('note_off', channel=6, note=78, velocity=0, time=0),
    Message('note_on', channel=6, note=80, velocity=127, time=120),
    Message('note_on', channel=6, note=76, velocity=127, time=0),
    Message('note_on', channel=6, note=73, velocity=127, time=0),
    Message('note_off', channel=6, note=73, velocity=0, time=24),
    Message('note_off', channel=6, note=80, velocity=0, time=0),
    Message('note_off', channel=6, note=76, velocity=0, time=0),
    Message('note_on', channel=6, note=73, velocity=127, time=120),
    Message('note_on', channel=6, note=70, velocity=127, time=0),
    Message('note_on', channel=6, note=65, velocity=127, time=0),
    Message('note_off', channel=6, note=65, velocity=0, time=24),
    Message('note_off', channel=6, note=73, velocity=0, time=0),
    Message('note_off', channel=6, note=70, velocity=0, time=0),
    Message('note_on', channel=6, note=71, velocity=127, time=120),
    Message('note_on', channel=6, note=67, velocity=127, time=0),
    Message('note_on', channel=6, note=65, velocity=127, time=0),
    Message('note_off', channel=6, note=65, velocity=0, time=24),
    Message('note_off', channel=6, note=67, velocity=0, time=0),
    Message('note_off', channel=6, note=71, velocity=0, time=0),
    Message('note_on', channel=6, note=76, velocity=127, time=72),
    Message('note_on', channel=6, note=73, velocity=127, time=0),
    Message('note_on', channel=6, note=68, velocity=127, time=0),
    Message('note_off', channel=6, note=76, velocity=0, time=24),
    Message('note_off', channel=6, note=73, velocity=0, time=0),
    Message('note_off', channel=6, note=68, velocity=0, time=0),
    Message('note_on', channel=6, note=80, velocity=108, time=24),
    Message('note_on', channel=6, note=76, velocity=108, time=0),
    Message('note_on', channel=6, note=73, velocity=108, time=0),
    Message('note_off', channel=6, note=80, velocity=0, time=15),
    Message('note_off', channel=6, note=76, velocity=0, time=0),
    Message('note_off', channel=6, note=73, velocity=0, time=0),
    Message('note_on', channel=6, note=80, velocity=108, time=1),
    Message('note_on', channel=6, note=76, velocity=108, time=0),
    Message('note_on', channel=6, note=73, velocity=108, time=0),
    Message('note_off', channel=6, note=73, velocity=0, time=15),
    Message('note_off', channel=6, note=76, velocity=0, time=0),
    Message('note_off', channel=6, note=80, velocity=0, time=0),
    Message('note_on', channel=6, note=80, velocity=108, time=1),
    Message('note_on', channel=6, note=76, velocity=108, time=0),
    Message('note_on', channel=6, note=73, velocity=108, time=0),
    Message('note_off', channel=6, note=80, velocity=0, time=15),
    Message('note_off', channel=6, note=76, velocity=0, time=0),
    Message('note_off', channel=6, note=73, velocity=0, time=0),
    Message('note_on', channel=6, note=79, velocity=108, time=1),
    Message('note_on', channel=6, note=76, velocity=108, time=0),
    Message('note_on', channel=6, note=72, velocity=108, time=0),
    Message('note_off', channel=6, note=79, velocity=0, time=15),
    Message('note_off', channel=6, note=76, velocity=0, time=0),
    Message('note_off', channel=6, note=72, velocity=0, time=0),
    Message('note_on', channel=6, note=79, velocity=108, time=1),
    Message('note_on', channel=6, note=76, velocity=108, time=0),
    Message('note_on', channel=6, note=72, velocity=108, time=0),
    Message('note_off', channel=6, note=72, velocity=0, time=15),
    Message('note_off', channel=6, note=76, velocity=0, time=0),
    Message('note_off', channel=6, note=79, velocity=0, time=0),
    Message('note_on', channel=6, note=79, velocity=108, time=1),
    Message('note_on', channel=6, note=76, velocity=108, time=0),
    Message('note_on', channel=6, note=72, velocity=108, time=0),
    Message('note_off', channel=6, note=72, velocity=0, time=15),
    Message('note_off', channel=6, note=76, velocity=0, time=0),
    Message('note_off', channel=6, note=79, velocity=0, time=0),
    Message('note_on', channel=6, note=76, velocity=127, time=1),
    Message('note_on', channel=6, note=73, velocity=127, time=0),
    Message('note_on', channel=6, note=68, velocity=127, time=0),
    Message('note_off', channel=6, note=76, velocity=0, time=24),
    Message('note_off', channel=6, note=73, velocity=0, time=0),
    Message('note_off', channel=6, note=68, velocity=0, time=0),
    Message('note_on', channel=6, note=80, velocity=108, time=24),
    Message('note_on', channel=6, note=76, velocity=108, time=0),
    Message('note_on', channel=6, note=73, velocity=108, time=0),
    Message('note_off', channel=6, note=80, velocity=0, time=15),
    Message('note_off', channel=6, note=76, velocity=0, time=0),
    Message('note_off', channel=6, note=73, velocity=0, time=0),
    Message('note_on', channel=6, note=80, velocity=108, time=1),
    Message('note_on', channel=6, note=76, velocity=108, time=0),
    Message('note_on', channel=6, note=73, velocity=108, time=0),
    Message('note_off', channel=6, note=73, velocity=0, time=15),
    Message('note_off', channel=6, note=76, velocity=0, time=0),
    Message('note_off', channel=6, note=80, velocity=0, time=0),
    Message('note_on', channel=6, note=80, velocity=108, time=1),
    Message('note_on', channel=6, note=76, velocity=108, time=0),
    Message('note_on', channel=6, note=73, velocity=108, time=0),
    Message('note_off', channel=6, note=80, velocity=0, time=15),
    Message('note_off', channel=6, note=76, velocity=0, time=0),
    Message('note_off', channel=6, note=73, velocity=0, time=0),
    Message('note_on', channel=6, note=79, velocity=108, time=1),
    Message('note_on', channel=6, note=76, velocity=108, time=0),
    Message('note_on', channel=6, note=72, velocity=108, time=0),
    Message('note_off', channel=6, note=79, velocity=0, time=15),
    Message('note_off', channel=6, note=76, velocity=0, time=0),
    Message('note_off', channel=6, note=72, velocity=0, time=0),
    Message('note_on', channel=6, note=79, velocity=108, time=1),
    Message('note_on', channel=6, note=76, velocity=108, time=0),
    Message('note_on', channel=6, note=72, velocity=108, time=0),
    Message('note_off', channel=6, note=72, velocity=0, time=15),
    Message('note_off', channel=6, note=76, velocity=0, time=0),
    Message('note_off', channel=6, note=79, velocity=0, time=0),
    Message('note_on', channel=6, note=79, velocity=108, time=1),
    Message('note_on', channel=6, note=76, velocity=108, time=0),
    Message('note_on', channel=6, note=72, velocity=108, time=0),
    Message('note_off', channel=6, note=72, velocity=0, time=15),
    Message('note_off', channel=6, note=76, velocity=0, time=0),
    Message('note_off', channel=6, note=79, velocity=0, time=0),
    Message('note_on', channel=6, note=76, velocity=127, time=1),
    Message('note_on', channel=6, note=73, velocity=127, time=0),
    Message('note_on', channel=6, note=68, velocity=127, time=0),
    Message('note_off', channel=6, note=76, velocity=0, time=24),
    Message('note_off', channel=6, note=73, velocity=0, time=0),
    Message('note_off', channel=6, note=68, velocity=0, time=0),
    Message('note_on', channel=6, note=80, velocity=108, time=24),
    Message('note_on', channel=6, note=76, velocity=108, time=0),
    Message('note_on', channel=6, note=73, velocity=108, time=0),
    Message('note_off', channel=6, note=80, velocity=0, time=15),
    Message('note_off', channel=6, note=76, velocity=0, time=0),
    Message('note_off', channel=6, note=73, velocity=0, time=0),
    Message('note_on', channel=6, note=80, velocity=108, time=1),
    Message('note_on', channel=6, note=76, velocity=108, time=0),
    Message('note_on', channel=6, note=73, velocity=108, time=0),
    Message('note_off', channel=6, note=73, velocity=0, time=15),
    Message('note_off', channel=6, note=76, velocity=0, time=0),
    Message('note_off', channel=6, note=80, velocity=0, time=0),
    Message('note_on', channel=6, note=80, velocity=108, time=1),
    Message('note_on', channel=6, note=76, velocity=108, time=0),
    Message('note_on', channel=6, note=73, velocity=108, time=0),
    Message('note_off', channel=6, note=80, velocity=0, time=15),
    Message('note_off', channel=6, note=76, velocity=0, time=0),
    Message('note_off', channel=6, note=73, velocity=0, time=0),
    Message('note_on', channel=6, note=79, velocity=108, time=1),
    Message('note_on', channel=6, note=76, velocity=108, time=0),
    Message('note_on', channel=6, note=72, velocity=108, time=0),
    Message('note_off', channel=6, note=79, velocity=0, time=15),
    Message('note_off', channel=6, note=76, velocity=0, time=0),
    Message('note_off', channel=6, note=72, velocity=0, time=0),
    Message('note_on', channel=6, note=79, velocity=108, time=1),
    Message('note_on', channel=6, note=76, velocity=108, time=0),
    Message('note_on', channel=6, note=72, velocity=108, time=0),
    Message('note_off', channel=6, note=72, velocity=0, time=15),
    Message('note_off', channel=6, note=76, velocity=0, time=0),
    Message('note_off', channel=6, note=79, velocity=0, time=0),
    Message('note_on', channel=6, note=79, velocity=108, time=1),
    Message('note_on', channel=6, note=76, velocity=108, time=0),
    Message('note_on', channel=6, note=72, velocity=108, time=0),
    Message('note_off', channel=6, note=72, velocity=0, time=15),
    Message('note_off', channel=6, note=76, velocity=0, time=0),
    Message('note_off', channel=6, note=79, velocity=0, time=0),
    Message('note_on', channel=6, note=71, velocity=108, time=1),
    Message('note_on', channel=6, note=68, velocity=108, time=0),
    Message('note_on', channel=6, note=63, velocity=108, time=0),
    Message('note_off', channel=6, note=71, velocity=0, time=24),
    Message('note_off', channel=6, note=68, velocity=0, time=0),
    Message('note_off', channel=6, note=63, velocity=0, time=0),
    Message('note_on', channel=6, note=80, velocity=108, time=24),
    Message('note_on', channel=6, note=76, velocity=108, time=0),
    Message('note_on', channel=6, note=73, velocity=108, time=0),
    Message('note_off', channel=6, note=80, velocity=0, time=15),
    Message('note_off', channel=6, note=76, velocity=0, time=0),
    Message('note_off', channel=6, note=73, velocity=0, time=0),
    Message('note_on', channel=6, note=80, velocity=108, time=1),
    Message('note_on', channel=6, note=76, velocity=108, time=0),
    Message('note_on', channel=6, note=73, velocity=108, time=0),
    Message('note_off', channel=6, note=73, velocity=0, time=15),
    Message('note_off', channel=6, note=76, velocity=0, time=0),
    Message('note_off', channel=6, note=80, velocity=0, time=0),
    Message('note_on', channel=6, note=80, velocity=108, time=1),
    Message('note_on', channel=6, note=76, velocity=108, time=0),
    Message('note_on', channel=6, note=73, velocity=108, time=0),
    Message('note_off', channel=6, note=80, velocity=0, time=15),
    Message('note_off', channel=6, note=76, velocity=0, time=0),
    Message('note_off', channel=6, note=73, velocity=0, time=0),
    Message('note_on', channel=6, note=79, velocity=108, time=1),
    Message('note_on', channel=6, note=76, velocity=108, time=0),
    Message('note_on', channel=6, note=72, velocity=108, time=0),
    Message('note_off', channel=6, note=79, velocity=0, time=15),
    Message('note_off', channel=6, note=76, velocity=0, time=0),
    Message('note_off', channel=6, note=72, velocity=0, time=0),
    Message('note_on', channel=6, note=79, velocity=108, time=1),
    Message('note_on', channel=6, note=76, velocity=108, time=0),
    Message('note_on', channel=6, note=72, velocity=108, time=0),
    Message('note_off', channel=6, note=72, velocity=0, time=15),
    Message('note_off', channel=6, note=76, velocity=0, time=0),
    Message('note_off', channel=6, note=79, velocity=0, time=0),
    Message('note_on', channel=6, note=79, velocity=108, time=1),
    Message('note_on', channel=6, note=76, velocity=108, time=0),
    Message('note_on', channel=6, note=72, velocity=108, time=0),
    Message('note_off', channel=6, note=72, velocity=0, time=15),
    Message('note_off', channel=6, note=76, velocity=0, time=0),
    Message('note_off', channel=6, note=79, velocity=0, time=0),
    Message('note_on', channel=6, note=76, velocity=108, time=1),
    Message('note_on', channel=6, note=72, velocity=108, time=0),
    Message('note_on', channel=6, note=67, velocity=108, time=0),
    Message('control_change', channel=6, control=7, value=119, time=2),
    Message('control_change', channel=6, control=7, value=118, time=2),
    Message('control_change', channel=6, control=7, value=117, time=2),
    Message('control_change', channel=6, control=7, value=116, time=2),
    Message('control_change', channel=6, control=7, value=115, time=2),
    Message('control_change', channel=6, control=7, value=114, time=2),
    Message('control_change', channel=6, control=7, value=113, time=2),
    Message('control_change', channel=6, control=7, value=112, time=2),
    Message('control_change', channel=6, control=7, value=111, time=2),
    Message('control_change', channel=6, control=7, value=110, time=2),
    Message('control_change', channel=6, control=7, value=109, time=2),
    Message('control_change', channel=6, control=7, value=108, time=2),
    Message('control_change', channel=6, control=7, value=107, time=2),
    Message('control_change', channel=6, control=7, value=106, time=2),
    Message('control_change', channel=6, control=7, value=105, time=2),
    Message('control_change', channel=6, control=7, value=104, time=2),
    Message('control_change', channel=6, control=7, value=103, time=2),
    Message('control_change', channel=6, control=7, value=102, time=3),
    Message('control_change', channel=6, control=7, value=101, time=2),
    Message('control_change', channel=6, control=7, value=100, time=2),
    Message('control_change', channel=6, control=7, value=99, time=2),
    Message('control_change', channel=6, control=7, value=98, time=2),
    Message('control_change', channel=6, control=7, value=97, time=2),
    Message('control_change', channel=6, control=7, value=96, time=2),
    Message('control_change', channel=6, control=7, value=95, time=2),
    Message('control_change', channel=6, control=7, value=94, time=2),
    Message('control_change', channel=6, control=7, value=93, time=2),
    Message('control_change', channel=6, control=7, value=92, time=2),
    Message('control_change', channel=6, control=7, value=91, time=2),
    Message('control_change', channel=6, control=7, value=90, time=2),
    Message('control_change', channel=6, control=7, value=89, time=2),
    Message('control_change', channel=6, control=7, value=88, time=2),
    Message('control_change', channel=6, control=7, value=87, time=2),
    Message('control_change', channel=6, control=7, value=86, time=2),
    Message('control_change', channel=6, control=7, value=85, time=3),
    Message('control_change', channel=6, control=7, value=84, time=2),
    Message('control_change', channel=6, control=7, value=83, time=2),
    Message('control_change', channel=6, control=7, value=82, time=2),
    Message('control_change', channel=6, control=7, value=81, time=2),
    Message('control_change', channel=6, control=7, value=80, time=2),
    Message('control_change', channel=6, control=7, value=79, time=2),
    Message('control_change', channel=6, control=7, value=78, time=2),
    Message('control_change', channel=6, control=7, value=77, time=2),
    Message('control_change', channel=6, control=7, value=76, time=2),
    Message('control_change', channel=6, control=7, value=75, time=2),
    Message('control_change', channel=6, control=7, value=74, time=2),
    Message('control_change', channel=6, control=7, value=73, time=2),
    Message('control_change', channel=6, control=7, value=72, time=2),
    Message('control_change', channel=6, control=7, value=71, time=2),
    Message('control_change', channel=6, control=7, value=70, time=2),
    Message('control_change', channel=6, control=7, value=69, time=2),
    Message('control_change', channel=6, control=7, value=68, time=2),
    Message('control_change', channel=6, control=7, value=67, time=3),
    Message('control_change', channel=6, control=7, value=66, time=2),
    Message('control_change', channel=6, control=7, value=65, time=2),
    Message('control_change', channel=6, control=7, value=64, time=2),
    Message('control_change', channel=6, control=7, value=63, time=2),
    Message('control_change', channel=6, control=7, value=62, time=2),
    Message('control_change', channel=6, control=7, value=61, time=2),
    Message('control_change', channel=6, control=7, value=60, time=2),
    Message('control_change', channel=6, control=7, value=59, time=2),
    Message('control_change', channel=6, control=7, value=58, time=2),
    Message('control_change', channel=6, control=7, value=57, time=2),
    Message('control_change', channel=6, control=7, value=56, time=2),
    Message('control_change', channel=6, control=7, value=55, time=2),
    Message('control_change', channel=6, control=7, value=54, time=2),
    Message('control_change', channel=6, control=7, value=53, time=2),
    Message('control_change', channel=6, control=7, value=52, time=2),
    Message('control_change', channel=6, control=7, value=51, time=2),
    Message('control_change', channel=6, control=7, value=50, time=3),
    Message('control_change', channel=6, control=7, value=51, time=2),
    Message('control_change', channel=6, control=7, value=52, time=2),
    Message('control_change', channel=6, control=7, value=53, time=3),
    Message('control_change', channel=6, control=7, value=54, time=2),
    Message('control_change', channel=6, control=7, value=55, time=3),
    Message('control_change', channel=6, control=7, value=56, time=2),
    Message('control_change', channel=6, control=7, value=57, time=2),
    Message('control_change', channel=6, control=7, value=58, time=3),
    Message('control_change', channel=6, control=7, value=59, time=2),
    Message('control_change', channel=6, control=7, value=60, time=3),
    Message('control_change', channel=6, control=7, value=61, time=2),
    Message('control_change', channel=6, control=7, value=62, time=2),
    Message('control_change', channel=6, control=7, value=63, time=3),
    Message('control_change', channel=6, control=7, value=64, time=2),
    Message('control_change', channel=6, control=7, value=65, time=3),
    Message('control_change', channel=6, control=7, value=66, time=2),
    Message('control_change', channel=6, control=7, value=67, time=2),
    Message('control_change', channel=6, control=7, value=68, time=3),
    Message('control_change', channel=6, control=7, value=69, time=2),
    Message('control_change', channel=6, control=7, value=70, time=3),
    Message('control_change', channel=6, control=7, value=71, time=2),
    Message('control_change', channel=6, control=7, value=72, time=2),
    Message('control_change', channel=6, control=7, value=73, time=3),
    Message('control_change', channel=6, control=7, value=74, time=2),
    Message('control_change', channel=6, control=7, value=75, time=3),
    Message('control_change', channel=6, control=7, value=76, time=2),
    Message('control_change', channel=6, control=7, value=77, time=2),
    Message('control_change', channel=6, control=7, value=78, time=3),
    Message('control_change', channel=6, control=7, value=79, time=2),
    Message('control_change', channel=6, control=7, value=80, time=3),
    Message('control_change', channel=6, control=7, value=81, time=2),
    Message('control_change', channel=6, control=7, value=82, time=2),
    Message('control_change', channel=6, control=7, value=83, time=3),
    Message('control_change', channel=6, control=7, value=84, time=2),
    Message('control_change', channel=6, control=7, value=85, time=3),
    Message('control_change', channel=6, control=7, value=86, time=2),
    Message('control_change', channel=6, control=7, value=87, time=2),
    Message('control_change', channel=6, control=7, value=88, time=3),
    Message('control_change', channel=6, control=7, value=89, time=2),
    Message('control_change', channel=6, control=7, value=90, time=3),
    Message('control_change', channel=6, control=7, value=91, time=2),
    Message('control_change', channel=6, control=7, value=92, time=2),
    Message('control_change', channel=6, control=7, value=93, time=3),
    Message('control_change', channel=6, control=7, value=94, time=2),
    Message('control_change', channel=6, control=7, value=95, time=3),
    Message('control_change', channel=6, control=7, value=96, time=2),
    Message('control_change', channel=6, control=7, value=97, time=2),
    Message('control_change', channel=6, control=7, value=98, time=3),
    Message('control_change', channel=6, control=7, value=99, time=2),
    Message('control_change', channel=6, control=7, value=100, time=3),
    Message('control_change', channel=6, control=7, value=101, time=2),
    Message('control_change', channel=6, control=7, value=102, time=2),
    Message('control_change', channel=6, control=7, value=103, time=3),
    Message('note_off', channel=6, note=76, velocity=0, time=1),
    Message('note_off', channel=6, note=72, velocity=0, time=0),
    Message('note_off', channel=6, note=67, velocity=0, time=0),
    Message('control_change', channel=6, control=7, value=104, time=1),
    Message('control_change', channel=6, control=7, value=105, time=3),
    Message('control_change', channel=6, control=7, value=106, time=2),
    Message('control_change', channel=6, control=7, value=107, time=2),
    Message('control_change', channel=6, control=7, value=108, time=3),
    Message('control_change', channel=6, control=7, value=109, time=2),
    Message('control_change', channel=6, control=7, value=110, time=3),
    Message('note_on', channel=6, note=70, velocity=92, time=0),
    Message('note_on', channel=6, note=66, velocity=92, time=0),
    Message('note_on', channel=6, note=63, velocity=92, time=0),
    Message('note_off', channel=6, note=70, velocity=0, time=15),
    Message('note_off', channel=6, note=66, velocity=0, time=0),
    Message('note_off', channel=6, note=63, velocity=0, time=0),
    Message('note_on', channel=6, note=70, velocity=92, time=1),
    Message('note_on', channel=6, note=66, velocity=92, time=0),
    Message('note_on', channel=6, note=63, velocity=92, time=0),
    Message('note_off', channel=6, note=70, velocity=0, time=15),
    Message('note_off', channel=6, note=66, velocity=0, time=0),
    Message('note_off', channel=6, note=63, velocity=0, time=0),
    Message('note_on', channel=6, note=70, velocity=92, time=1),
    Message('note_on', channel=6, note=66, velocity=92, time=0),
    Message('note_on', channel=6, note=63, velocity=92, time=0),
    Message('control_change', channel=6, control=7, value=111, time=11),
    Message('note_off', channel=6, note=70, velocity=0, time=4),
    Message('note_off', channel=6, note=66, velocity=0, time=0),
    Message('note_off', channel=6, note=63, velocity=0, time=0),
    Message('note_on', channel=6, note=79, velocity=92, time=1),
    Message('note_on', channel=6, note=76, velocity=92, time=0),
    Message('note_on', channel=6, note=72, velocity=92, time=0),
    Message('control_change', channel=6, control=7, value=112, time=38),
    Message('control_change', channel=6, control=7, value=113, time=43),
    Message('control_change', channel=6, control=7, value=114, time=43),
    Message('control_change', channel=6, control=7, value=115, time=44),
    Message('control_change', channel=6, control=7, value=116, time=43),
    Message('control_change', channel=6, control=7, value=117, time=43),
    Message('control_change', channel=6, control=7, value=118, time=43),
    Message('control_change', channel=6, control=7, value=119, time=43),
    Message('note_off', channel=6, note=79, velocity=0, time=28),
    Message('note_off', channel=6, note=76, velocity=0, time=0),
    Message('note_off', channel=6, note=72, velocity=0, time=0),
    Message('control_change', channel=6, control=7, value=120, time=16),
    Message('note_on', channel=6, note=84, velocity=127, time=0),
    Message('note_on', channel=6, note=79, velocity=127, time=0),
    Message('note_on', channel=6, note=76, velocity=127, time=0),
    Message('note_off', channel=6, note=84, velocity=0, time=24),
    Message('note_off', channel=6, note=79, velocity=0, time=0),
    Message('note_off', channel=6, note=76, velocity=0, time=0),
    Message('control_change', channel=6, control=7, value=100, time=1128),
    Message('note_on', channel=6, note=78, velocity=75, time=0),
    Message('note_on', channel=6, note=75, velocity=75, time=0),
    Message('note_on', channel=6, note=70, velocity=75, time=0),
    Message('control_change', channel=6, control=7, value=101, time=21),
    Message('control_change', channel=6, control=7, value=102, time=22),
    Message('note_off', channel=6, note=70, velocity=0, time=5),
    Message('note_off', channel=6, note=75, velocity=0, time=0),
    Message('note_off', channel=6, note=78, velocity=0, time=0),
    Message('note_on', channel=6, note=82, velocity=78, time=0),
    Message('note_on', channel=6, note=78, velocity=78, time=0),
    Message('note_on', channel=6, note=75, velocity=78, time=0),
    Message('control_change', channel=6, control=7, value=103, time=16),
    Message('control_change', channel=6, control=7, value=104, time=22),
    Message('control_change', channel=6, control=7, value=105, time=22),
    Message('control_change', channel=6, control=7, value=106, time=21),
    Message('control_change', channel=6, control=7, value=107, time=22),
    Message('control_change', channel=6, control=7, value=108, time=21),
    Message('control_change', channel=6, control=7, value=109, time=22),
    Message('control_change', channel=6, control=7, value=110, time=22),
    Message('control_change', channel=6, control=7, value=111, time=21),
    Message('control_change', channel=6, control=7, value=112, time=22),
    Message('control_change', channel=6, control=7, value=113, time=21),
    Message('control_change', channel=6, control=7, value=114, time=22),
    Message('control_change', channel=6, control=7, value=115, time=22),
    Message('control_change', channel=6, control=7, value=116, time=21),
    Message('control_change', channel=6, control=7, value=117, time=22),
    Message('control_change', channel=6, control=7, value=118, time=21),
    Message('note_off', channel=6, note=75, velocity=0, time=20),
    Message('note_off', channel=6, note=78, velocity=0, time=0),
    Message('note_off', channel=6, note=82, velocity=0, time=0),
    Message('control_change', channel=6, control=7, value=119, time=2),
    Message('control_change', channel=6, control=7, value=120, time=22),
    Message('note_on', channel=6, note=84, velocity=127, time=0),
    Message('note_on', channel=6, note=79, velocity=127, time=0),
    Message('note_on', channel=6, note=76, velocity=127, time=0),
    Message('note_off', channel=6, note=84, velocity=0, time=47),
    Message('note_off', channel=6, note=79, velocity=0, time=0),
    Message('note_off', channel=6, note=76, velocity=0, time=0),
    Message('control_change', channel=6, control=101, value=0, time=1249),
    Message('control_change', channel=6, control=100, value=0, time=0),
    Message('control_change', channel=6, control=6, value=12, time=0),
    Message('control_change', channel=6, control=10, value=64, time=0),
    Message('control_change', channel=6, control=7, value=120, time=0),
    Message('pitchwheel', channel=6, pitch=0, time=0),
    Message('program_change', channel=6, program=56, time=0),
    Message('program_change', channel=6, program=56, time=0),
    Message('control_change', channel=6, control=7, value=127, time=0),
    Message('control_change', channel=6, control=10, value=64, time=0),
    Message('control_change', channel=6, control=101, value=0, time=1),
    Message('control_change', channel=6, control=100, value=0, time=0),
    Message('control_change', channel=6, control=6, value=12, time=0),
    Message('control_change', channel=6, control=10, value=64, time=0),
    Message('control_change', channel=6, control=7, value=120, time=0),
    Message('pitchwheel', channel=6, pitch=0, time=0),
    Message('program_change', channel=6, program=56, time=0),
    MetaMessage('end_of_track', time=0)]),
  MidiTrack([
    MetaMessage('track_name', name='Contrabass', time=0),
    Message('control_change', channel=11, control=10, value=64, time=0),
    Message('control_change', channel=11, control=7, value=127, time=0),
    Message('pitchwheel', channel=11, pitch=0, time=0),
    Message('control_change', channel=11, control=101, value=0, time=0),
    Message('control_change', channel=11, control=100, value=0, time=0),
    Message('control_change', channel=11, control=6, value=12, time=0),
    Message('control_change', channel=11, control=10, value=64, time=0),
    Message('control_change', channel=11, control=7, value=127, time=0),
    Message('pitchwheel', channel=11, pitch=0, time=0),
    Message('program_change', channel=11, program=43, time=0),
    Message('program_change', channel=11, program=43, time=0),
    Message('control_change', channel=11, control=7, value=127, time=0),
    Message('control_change', channel=11, control=10, value=64, time=0),
    Message('control_change', channel=11, control=101, value=0, time=0),
    Message('control_change', channel=11, control=100, value=0, time=0),
    Message('control_change', channel=11, control=6, value=12, time=0),
    Message('control_change', channel=11, control=10, value=64, time=0),
    Message('control_change', channel=11, control=7, value=127, time=0),
    Message('pitchwheel', channel=11, pitch=0, time=0),
    Message('program_change', channel=11, program=43, time=0),
    Message('program_change', channel=11, program=43, time=0),
    Message('control_change', channel=11, control=7, value=127, time=0),
    Message('control_change', channel=11, control=10, value=64, time=0),
    Message('control_change', channel=11, control=101, value=0, time=0),
    Message('control_change', channel=11, control=100, value=0, time=0),
    Message('control_change', channel=11, control=6, value=12, time=0),
    Message('control_change', channel=11, control=10, value=64, time=0),
    Message('control_change', channel=11, control=7, value=127, time=0),
    Message('pitchwheel', channel=11, pitch=0, time=0),
    Message('program_change', channel=11, program=43, time=0),
    Message('program_change', channel=11, program=45, time=10416),
    Message('control_change', channel=11, control=7, value=80, time=96),
    Message('note_on', channel=11, note=34, velocity=45, time=0),
    Message('control_change', channel=11, control=7, value=79, time=4),
    Message('control_change', channel=11, control=7, value=78, time=5),
    Message('control_change', channel=11, control=7, value=77, time=5),
    Message('control_change', channel=11, control=7, value=76, time=5),
    Message('control_change', channel=11, control=7, value=75, time=5),
    Message('control_change', channel=11, control=7, value=74, time=4),
    Message('control_change', channel=11, control=7, value=73, time=5),
    Message('control_change', channel=11, control=7, value=72, time=5),
    Message('control_change', channel=11, control=7, value=71, time=5),
    Message('note_off', channel=11, note=34, velocity=0, time=4),
    Message('control_change', channel=11, control=7, value=70, time=1),
    Message('note_on', channel=11, note=28, velocity=30, time=0),
    Message('note_off', channel=11, note=28, velocity=0, time=47),
    Message('control_change', channel=11, control=7, value=100, time=5713),
    Message('note_on', channel=11, note=45, velocity=75, time=0),
    Message('note_off', channel=11, note=45, velocity=0, time=47),
    Message('program_change', channel=11, program=43, time=1297),
    Message('note_on', channel=11, note=40, velocity=75, time=96),
    Message('note_off', channel=11, note=40, velocity=0, time=24),
    Message('note_on', channel=11, note=38, velocity=75, time=0),
    Message('note_off', channel=11, note=38, velocity=0, time=24),
    Message('note_on', channel=11, note=36, velocity=75, time=0),
    Message('note_off', channel=11, note=36, velocity=0, time=24),
    Message('note_on', channel=11, note=35, velocity=75, time=0),
    Message('note_off', channel=11, note=35, velocity=0, time=24),
    Message('note_on', channel=11, note=33, velocity=75, time=0),
    Message('note_off', channel=11, note=33, velocity=0, time=47),
    Message('note_on', channel=11, note=41, velocity=75, time=241),
    Message('note_off', channel=11, note=41, velocity=0, time=24),
    Message('note_on', channel=11, note=39, velocity=75, time=0),
    Message('note_off', channel=11, note=39, velocity=0, time=24),
    Message('note_on', channel=11, note=37, velocity=75, time=0),
    Message('note_off', channel=11, note=37, velocity=0, time=24),
    Message('note_on', channel=11, note=36, velocity=75, time=0),
    Message('note_off', channel=11, note=36, velocity=0, time=24),
    Message('note_on', channel=11, note=34, velocity=75, time=0),
    Message('note_off', channel=11, note=34, velocity=0, time=47),
    Message('control_change', channel=11, control=7, value=110, time=8497),
    Message('note_on', channel=11, note=38, velocity=92, time=0),
    Message('control_change', channel=11, control=7, value=111, time=9),
    Message('control_change', channel=11, control=7, value=112, time=10),
    Message('note_off', channel=11, note=38, velocity=0, time=5),
    Message('note_on', channel=11, note=36, velocity=96, time=0),
    Message('control_change', channel=11, control=7, value=113, time=4),
    Message('control_change', channel=11, control=7, value=114, time=10),
    Message('note_off', channel=11, note=36, velocity=0, time=10),
    Message('control_change', channel=11, control=7, value=115, time=0),
    Message('note_on', channel=11, note=35, velocity=100, time=0),
    Message('control_change', channel=11, control=7, value=116, time=9),
    Message('control_change', channel=11, control=7, value=117, time=10),
    Message('note_off', channel=11, note=35, velocity=0, time=5),
    Message('note_on', channel=11, note=34, velocity=104, time=0),
    Message('control_change', channel=11, control=7, value=118, time=4),
    Message('control_change', channel=11, control=7, value=119, time=10),
    Message('note_off', channel=11, note=34, velocity=0, time=10),
    Message('control_change', channel=11, control=7, value=120, time=0),
    Message('note_on', channel=11, note=33, velocity=108, time=0),
    Message('note_off', channel=11, note=33, velocity=0, time=47),
    Message('control_change', channel=11, control=7, value=100, time=145),
    Message('note_on', channel=11, note=40, velocity=75, time=0),
    Message('control_change', channel=11, control=7, value=101, time=19),
    Message('control_change', channel=11, control=7, value=102, time=19),
    Message('control_change', channel=11, control=7, value=103, time=19),
    Message('control_change', channel=11, control=7, value=104, time=19),
    Message('control_change', channel=11, control=7, value=105, time=20),
    Message('control_change', channel=11, control=7, value=106, time=19),
    Message('control_change', channel=11, control=7, value=107, time=19),
    Message('control_change', channel=11, control=7, value=108, time=19),
    Message('note_off', channel=11, note=40, velocity=0, time=15),
    Message('control_change', channel=11, control=7, value=109, time=4),
    Message('control_change', channel=11, control=7, value=110, time=20),
    Message('note_on', channel=11, note=33, velocity=92, time=0),
    Message('note_off', channel=11, note=33, velocity=0, time=264),
    Message('note_on', channel=11, note=33, velocity=92, time=24),
    Message('note_off', channel=11, note=33, velocity=0, time=80),
    Message('note_on', channel=11, note=33, velocity=92, time=16),
    Message('note_off', channel=11, note=33, velocity=0, time=264),
    Message('note_on', channel=11, note=33, velocity=92, time=24),
    Message('note_off', channel=11, note=33, velocity=0, time=80),
    Message('note_on', channel=11, note=33, velocity=92, time=16),
    Message('note_off', channel=11, note=33, velocity=0, time=264),
    Message('note_on', channel=11, note=33, velocity=92, time=24),
    Message('note_off', channel=11, note=33, velocity=0, time=80),
    Message('note_on', channel=11, note=33, velocity=92, time=16),
    Message('note_off', channel=11, note=33, velocity=0, time=168),
    Message('note_on', channel=11, note=29, velocity=92, time=24),
    Message('note_off', channel=11, note=29, velocity=0, time=168),
    Message('note_on', channel=11, note=33, velocity=92, time=24),
    Message('note_off', channel=11, note=33, velocity=0, time=360),
    Message('note_on', channel=11, note=36, velocity=92, time=24),
    Message('note_off', channel=11, note=36, velocity=0, time=192),
    Message('note_on', channel=11, note=34, velocity=92, time=0),
    Message('note_off', channel=11, note=34, velocity=0, time=168),
    Message('note_on', channel=11, note=41, velocity=92, time=24),
    Message('note_off', channel=11, note=41, velocity=0, time=192),
    Message('note_on', channel=11, note=33, velocity=92, time=0),
    Message('note_off', channel=11, note=33, velocity=0, time=168),
    Message('control_change', channel=11, control=7, value=100, time=24),
    Message('note_on', channel=11, note=29, velocity=75, time=0),
    Message('control_change', channel=11, control=7, value=101, time=38),
    Message('control_change', channel=11, control=7, value=102, time=38),
    Message('control_change', channel=11, control=7, value=103, time=39),
    Message('control_change', channel=11, control=7, value=104, time=38),
    Message('note_off', channel=11, note=29, velocity=0, time=39),
    Message('control_change', channel=11, control=7, value=105, time=0),
    Message('note_on', channel=11, note=35, velocity=83, time=0),
    Message('control_change', channel=11, control=7, value=106, time=38),
    Message('control_change', channel=11, control=7, value=107, time=38),
    Message('control_change', channel=11, control=7, value=108, time=39),
    Message('control_change', channel=11, control=7, value=109, time=38),
    Message('note_off', channel=11, note=35, velocity=0, time=15),
    Message('control_change', channel=11, control=7, value=110, time=24),
    Message('note_on', channel=11, note=41, velocity=92, time=0),
    Message('note_off', channel=11, note=41, velocity=0, time=168),
    Message('note_on', channel=11, note=40, velocity=92, time=24),
    Message('note_off', channel=11, note=40, velocity=0, time=168),
    Message('control_change', channel=11, control=7, value=100, time=24),
    Message('note_on', channel=11, note=33, velocity=75, time=96),
    Message('note_off', channel=11, note=33, velocity=0, time=80),
    Message('note_on', channel=11, note=33, velocity=75, time=304),
    Message('note_off', channel=11, note=33, velocity=0, time=16),
    Message('note_on', channel=11, note=33, velocity=75, time=32),
    Message('note_off', channel=11, note=33, velocity=0, time=16),
    Message('note_on', channel=11, note=29, velocity=75, time=512),
    Message('note_off', channel=11, note=29, velocity=0, time=16),
    Message('note_on', channel=11, note=28, velocity=75, time=32),
    Message('note_off', channel=11, note=28, velocity=0, time=16),
    Message('note_on', channel=11, note=33, velocity=75, time=32),
    Message('note_off', channel=11, note=33, velocity=0, time=431),
    Message('note_on', channel=11, note=33, velocity=75, time=49),
    Message('note_off', channel=11, note=33, velocity=0, time=24),
    Message('note_on', channel=11, note=29, velocity=75, time=168),
    Message('note_off', channel=11, note=29, velocity=0, time=16),
    Message('note_on', channel=11, note=28, velocity=75, time=32),
    Message('note_off', channel=11, note=28, velocity=0, time=16),
    Message('note_on', channel=11, note=41, velocity=105, time=128),
    Message('note_off', channel=11, note=41, velocity=0, time=32),
    Message('note_on', channel=11, note=40, velocity=75, time=0),
    Message('note_off', channel=11, note=40, velocity=0, time=32),
    Message('note_on', channel=11, note=38, velocity=75, time=0),
    Message('note_off', channel=11, note=38, velocity=0, time=32),
    Message('note_on', channel=11, note=40, velocity=75, time=0),
    Message('note_off', channel=11, note=40, velocity=0, time=32),
    Message('note_on', channel=11, note=38, velocity=75, time=0),
    Message('note_off', channel=11, note=38, velocity=0, time=32),
    Message('note_on', channel=11, note=36, velocity=75, time=0),
    Message('note_off', channel=11, note=36, velocity=0, time=31),
    Message('note_on', channel=11, note=38, velocity=75, time=1),
    Message('note_off', channel=11, note=38, velocity=0, time=32),
    Message('note_on', channel=11, note=36, velocity=75, time=0),
    Message('note_off', channel=11, note=36, velocity=0, time=32),
    Message('note_on', channel=11, note=35, velocity=75, time=0),
    Message('note_off', channel=11, note=35, velocity=0, time=31),
    Message('note_on', channel=11, note=40, velocity=75, time=1),
    Message('note_off', channel=11, note=40, velocity=0, time=32),
    Message('note_on', channel=11, note=38, velocity=75, time=0),
    Message('note_off', channel=11, note=38, velocity=0, time=32),
    Message('note_on', channel=11, note=36, velocity=75, time=0),
    Message('note_off', channel=11, note=36, velocity=0, time=32),
    Message('note_on', channel=11, note=38, velocity=75, time=0),
    Message('note_off', channel=11, note=38, velocity=0, time=32),
    Message('note_on', channel=11, note=36, velocity=75, time=0),
    Message('note_off', channel=11, note=36, velocity=0, time=32),
    Message('note_on', channel=11, note=35, velocity=75, time=0),
    Message('note_off', channel=11, note=35, velocity=0, time=31),
    Message('note_on', channel=11, note=33, velocity=75, time=1),
    Message('note_off', channel=11, note=33, velocity=0, time=168),
    Message('note_on', channel=11, note=48, velocity=75, time=120),
    Message('note_off', channel=11, note=48, velocity=0, time=24),
    Message('note_on', channel=11, note=46, velocity=75, time=0),
    Message('note_off', channel=11, note=46, velocity=0, time=24),
    Message('note_on', channel=11, note=45, velocity=75, time=0),
    Message('note_off', channel=11, note=45, velocity=0, time=24),
    Message('note_on', channel=11, note=44, velocity=75, time=0),
    Message('note_off', channel=11, note=44, velocity=0, time=24),
    Message('note_on', channel=11, note=43, velocity=75, time=0),
    Message('note_off', channel=11, note=43, velocity=0, time=16),
    Message('note_on', channel=11, note=31, velocity=75, time=80),
    Message('note_off', channel=11, note=31, velocity=0, time=24),
    Message('note_on', channel=11, note=36, velocity=75, time=168),
    Message('note_off', channel=11, note=36, velocity=0, time=168),
    Message('note_on', channel=11, note=31, velocity=75, time=24),
    Message('note_off', channel=11, note=31, velocity=0, time=80),
    Message('note_on', channel=11, note=36, velocity=75, time=112),
    Message('note_off', channel=11, note=36, velocity=0, time=31),
    Message('note_on', channel=11, note=36, velocity=75, time=1),
    Message('note_off', channel=11, note=36, velocity=0, time=31),
    Message('note_on', channel=11, note=36, velocity=75, time=1),
    Message('note_off', channel=11, note=36, velocity=0, time=31),
    Message('note_on', channel=11, note=36, velocity=75, time=1),
    Message('note_off', channel=11, note=36, velocity=0, time=47),
    Message('note_on', channel=11, note=41, velocity=75, time=817),
    Message('note_off', channel=11, note=41, velocity=0, time=16),
    Message('note_on', channel=11, note=43, velocity=75, time=32),
    Message('note_off', channel=11, note=43, velocity=0, time=16),
    Message('note_on', channel=11, note=44, velocity=75, time=32),
    Message('note_off', channel=11, note=44, velocity=0, time=48),
    Message('note_on', channel=11, note=43, velocity=75, time=0),
    Message('note_off', channel=11, note=43, velocity=0, time=47),
    Message('note_on', channel=11, note=41, velocity=75, time=1),
    Message('note_off', channel=11, note=41, velocity=0, time=16),
    Message('note_on', channel=11, note=39, velocity=75, time=32),
    Message('note_off', channel=11, note=39, velocity=0, time=16),
    Message('note_on', channel=11, note=38, velocity=75, time=32),
    Message('note_off', channel=11, note=38, velocity=0, time=48),
    Message('note_on', channel=11, note=36, velocity=75, time=0),
    Message('note_off', channel=11, note=36, velocity=0, time=16),
    Message('note_on', channel=11, note=31, velocity=75, time=224),
    Message('note_off', channel=11, note=31, velocity=0, time=552),
    Message('note_on', channel=11, note=29, velocity=75, time=24),
    Message('note_off', channel=11, note=29, velocity=0, time=16),
    Message('note_on', channel=11, note=41, velocity=75, time=560),
    Message('control_change', channel=11, control=7, value=101, time=28),
    Message('note_off', channel=11, note=41, velocity=0, time=4),
    Message('note_on', channel=11, note=39, velocity=76, time=0),
    Message('control_change', channel=11, control=7, value=102, time=25),
    Message('note_off', channel=11, note=39, velocity=0, time=7),
    Message('note_on', channel=11, note=38, velocity=78, time=0),
    Message('control_change', channel=11, control=7, value=103, time=22),
    Message('note_off', channel=11, note=38, velocity=0, time=10),
    Message('note_on', channel=11, note=36, velocity=80, time=0),
    Message('control_change', channel=11, control=7, value=104, time=19),
    Message('note_off', channel=11, note=36, velocity=0, time=13),
    Message('note_on', channel=11, note=35, velocity=82, time=0),
    Message('control_change', channel=11, control=7, value=105, time=15),
    Message('note_off', channel=11, note=35, velocity=0, time=6),
    Message('control_change', channel=11, control=7, value=106, time=23),
    Message('note_on', channel=11, note=34, velocity=86, time=20),
    Message('control_change', channel=11, control=7, value=107, time=9),
    Message('note_off', channel=11, note=34, velocity=0, time=23),
    Message('note_on', channel=11, note=32, velocity=88, time=0),
    Message('control_change', channel=11, control=7, value=108, time=6),
    Message('note_off', channel=11, note=32, velocity=0, time=26),
    Message('note_on', channel=11, note=31, velocity=90, time=0),
    Message('control_change', channel=11, control=7, value=109, time=3),
    Message('note_off', channel=11, note=31, velocity=0, time=28),
    Message('control_change', channel=11, control=7, value=110, time=0),
    Message('note_on', channel=11, note=36, velocity=92, time=97),
    Message('note_off', channel=11, note=36, velocity=0, time=648),
    Message('program_change', channel=11, program=45, time=24),
    Message('note_on', channel=11, note=36, velocity=92, time=96),
    Message('note_off', channel=11, note=36, velocity=0, time=47),
    Message('note_on', channel=11, note=41, velocity=92, time=49),
    Message('note_off', channel=11, note=41, velocity=0, time=47),
    Message('note_on', channel=11, note=48, velocity=92, time=49),
    Message('note_off', channel=11, note=48, velocity=0, time=47),
    Message('program_change', channel=11, program=43, time=49),
    Message('note_on', channel=11, note=36, velocity=92, time=96),
    Message('note_off', channel=11, note=36, velocity=0, time=24),
    Message('note_on', channel=11, note=35, velocity=92, time=0),
    Message('note_off', channel=11, note=35, velocity=0, time=24),
    Message('note_on', channel=11, note=34, velocity=92, time=0),
    Message('note_off', channel=11, note=34, velocity=0, time=24),
    Message('note_on', channel=11, note=33, velocity=92, time=0),
    Message('note_off', channel=11, note=33, velocity=0, time=24),
    Message('note_on', channel=11, note=32, velocity=92, time=0),
    Message('note_off', channel=11, note=32, velocity=0, time=168),
    Message('note_on', channel=11, note=31, velocity=127, time=120),
    Message('note_off', channel=11, note=31, velocity=0, time=16),
    Message('note_on', channel=11, note=44, velocity=92, time=752),
    Message('note_off', channel=11, note=44, velocity=0, time=16),
    Message('note_on', channel=11, note=43, velocity=92, time=80),
    Message('note_off', channel=11, note=43, velocity=0, time=16),
    Message('note_on', channel=11, note=31, velocity=92, time=80),
    Message('note_off', channel=11, note=31, velocity=0, time=16),
    Message('program_change', channel=11, program=45, time=80),
    Message('note_on', channel=11, note=38, velocity=92, time=96),
    Message('note_off', channel=11, note=38, velocity=0, time=24),
    Message('note_on', channel=11, note=38, velocity=92, time=168),
    Message('note_off', channel=11, note=38, velocity=0, time=24),
    Message('program_change', channel=11, program=43, time=72),
    Message('control_change', channel=11, control=7, value=100, time=288),
    Message('note_on', channel=11, note=41, velocity=75, time=0),
    Message('note_off', channel=11, note=41, velocity=0, time=16),
    Message('note_on', channel=11, note=39, velocity=75, time=32),
    Message('note_off', channel=11, note=39, velocity=0, time=16),
    Message('note_on', channel=11, note=38, velocity=75, time=32),
    Message('note_off', channel=11, note=38, velocity=0, time=96),
    Message('note_on', channel=11, note=36, velocity=75, time=0),
    Message('note_off', channel=11, note=36, velocity=0, time=80),
    Message('note_on', channel=11, note=34, velocity=75, time=16),
    Message('control_change', channel=11, control=7, value=101, time=19),
    Message('control_change', channel=11, control=7, value=102, time=19),
    Message('control_change', channel=11, control=7, value=103, time=19),
    Message('control_change', channel=11, control=7, value=104, time=19),
    Message('note_off', channel=11, note=34, velocity=0, time=20),
    Message('control_change', channel=11, control=7, value=105, time=0),
    Message('note_on', channel=11, note=33, velocity=83, time=0),
    Message('control_change', channel=11, control=7, value=106, time=19),
    Message('control_change', channel=11, control=7, value=107, time=19),
    Message('note_off', channel=11, note=33, velocity=0, time=10),
    Message('note_on', channel=11, note=31, velocity=87, time=0),
    Message('control_change', channel=11, control=7, value=108, time=9),
    Message('control_change', channel=11, control=7, value=109, time=19),
    Message('note_off', channel=11, note=31, velocity=0, time=19),
    Message('control_change', channel=11, control=7, value=110, time=1),
    Message('note_on', channel=11, note=30, velocity=92, time=0),
    Message('note_off', channel=11, note=30, velocity=0, time=464),
    Message('note_on', channel=11, note=30, velocity=92, time=16),
    Message('note_off', channel=11, note=30, velocity=0, time=264),
    Message('note_on', channel=11, note=30, velocity=92, time=24),
    Message('note_off', channel=11, note=30, velocity=0, time=47),
    Message('note_on', channel=11, note=30, velocity=92, time=49),
    Message('note_off', channel=11, note=30, velocity=0, time=168),
    Message('note_on', channel=11, note=37, velocity=92, time=24),
    Message('note_off', channel=11, note=37, velocity=0, time=80),
    Message('note_on', channel=11, note=30, velocity=92, time=16),
    Message('note_off', channel=11, note=30, velocity=0, time=47),
    Message('note_on', channel=11, note=30, velocity=92, time=49),
    Message('note_off', channel=11, note=30, velocity=0, time=168),
    Message('program_change', channel=11, program=45, time=24),
    Message('control_change', channel=11, control=7, value=100, time=0),
    Message('note_on', channel=11, note=30, velocity=75, time=0),
    Message('note_off', channel=11, note=30, velocity=0, time=80),
    Message('note_on', channel=11, note=37, velocity=75, time=16),
    Message('note_off', channel=11, note=37, velocity=0, time=80),
    Message('note_on', channel=11, note=44, velocity=75, time=16),
    Message('note_off', channel=11, note=44, velocity=0, time=80),
    Message('note_on', channel=11, note=37, velocity=75, time=16),
    Message('note_off', channel=11, note=37, velocity=0, time=80),
    Message('note_on', channel=11, note=37, velocity=75, time=16),
    Message('note_off', channel=11, note=37, velocity=0, time=80),
    Message('note_on', channel=11, note=37, velocity=75, time=16),
    Message('note_off', channel=11, note=37, velocity=0, time=80),
    Message('note_on', channel=11, note=45, velocity=75, time=16),
    Message('note_off', channel=11, note=45, velocity=0, time=80),
    Message('note_on', channel=11, note=37, velocity=75, time=16),
    Message('note_off', channel=11, note=37, velocity=0, time=80),
    Message('note_on', channel=11, note=42, velocity=75, time=16),
    Message('note_off', channel=11, note=42, velocity=0, time=80),
    Message('note_on', channel=11, note=40, velocity=75, time=16),
    Message('note_off', channel=11, note=40, velocity=0, time=80),
    Message('note_on', channel=11, note=39, velocity=75, time=16),
    Message('note_off', channel=11, note=39, velocity=0, time=80),
    Message('note_on', channel=11, note=37, velocity=75, time=16),
    Message('note_off', channel=11, note=37, velocity=0, time=80),
    Message('note_on', channel=11, note=37, velocity=75, time=16),
    Message('note_off', channel=11, note=37, velocity=0, time=80),
    Message('note_on', channel=11, note=49, velocity=75, time=16),
    Message('note_off', channel=11, note=49, velocity=0, time=47),
    Message('program_change', channel=11, program=43, time=49),
    Message('note_on', channel=11, note=43, velocity=105, time=0),
    Message('note_off', channel=11, note=43, velocity=0, time=24),
    Message('note_on', channel=11, note=42, velocity=75, time=0),
    Message('note_off', channel=11, note=42, velocity=0, time=24),
    Message('note_on', channel=11, note=40, velocity=75, time=0),
    Message('note_off', channel=11, note=40, velocity=0, time=24),
    Message('note_on', channel=11, note=39, velocity=75, time=0),
    Message('note_off', channel=11, note=39, velocity=0, time=24),
    Message('note_on', channel=11, note=37, velocity=75, time=0),
    Message('note_off', channel=11, note=37, velocity=0, time=168),
    Message('note_on', channel=11, note=39, velocity=75, time=1176),
    Message('note_off', channel=11, note=39, velocity=0, time=48),
    Message('note_on', channel=11, note=37, velocity=75, time=0),
    Message('note_off', channel=11, note=37, velocity=0, time=47),
    Message('note_on', channel=11, note=37, velocity=75, time=1),
    Message('note_off', channel=11, note=37, velocity=0, time=48),
    Message('note_on', channel=11, note=36, velocity=75, time=0),
    Message('note_off', channel=11, note=36, velocity=0, time=47),
    Message('note_on', channel=11, note=36, velocity=75, time=1),
    Message('note_off', channel=11, note=36, velocity=0, time=48),
    Message('note_on', channel=11, note=34, velocity=75, time=0),
    Message('note_off', channel=11, note=34, velocity=0, time=47),
    Message('note_on', channel=11, note=45, velocity=75, time=193),
    Message('note_off', channel=11, note=45, velocity=0, time=24),
    Message('note_on', channel=11, note=43, velocity=75, time=0),
    Message('note_off', channel=11, note=43, velocity=0, time=24),
    Message('note_on', channel=11, note=41, velocity=75, time=0),
    Message('note_off', channel=11, note=41, velocity=0, time=24),
    Message('note_on', channel=11, note=40, velocity=75, time=0),
    Message('note_off', channel=11, note=40, velocity=0, time=24),
    Message('note_on', channel=11, note=38, velocity=75, time=0),
    Message('note_off', channel=11, note=38, velocity=0, time=24),
    Message('note_on', channel=11, note=36, velocity=75, time=0),
    Message('note_off', channel=11, note=36, velocity=0, time=24),
    Message('note_on', channel=11, note=34, velocity=75, time=0),
    Message('note_off', channel=11, note=34, velocity=0, time=24),
    Message('note_on', channel=11, note=33, velocity=75, time=0),
    Message('note_off', channel=11, note=33, velocity=0, time=23),
    Message('note_on', channel=11, note=32, velocity=75, time=1),
    Message('control_change', channel=11, control=7, value=101, time=9),
    Message('control_change', channel=11, control=7, value=102, time=10),
    Message('note_off', channel=11, note=32, velocity=0, time=5),
    Message('note_on', channel=11, note=31, velocity=79, time=0),
    Message('control_change', channel=11, control=7, value=103, time=4),
    Message('control_change', channel=11, control=7, value=104, time=10),
    Message('note_off', channel=11, note=31, velocity=0, time=10),
    Message('control_change', channel=11, control=7, value=105, time=0),
    Message('note_on', channel=11, note=29, velocity=83, time=0),
    Message('control_change', channel=11, control=7, value=106, time=9),
    Message('control_change', channel=11, control=7, value=107, time=10),
    Message('note_off', channel=11, note=29, velocity=0, time=5),
    Message('note_on', channel=11, note=28, velocity=87, time=0),
    Message('control_change', channel=11, control=7, value=108, time=4),
    Message('control_change', channel=11, control=7, value=109, time=10),
    Message('note_off', channel=11, note=28, velocity=0, time=9),
    Message('control_change', channel=11, control=7, value=110, time=1),
    Message('note_on', channel=11, note=26, velocity=92, time=0),
    Message('note_off', channel=11, note=26, velocity=0, time=815),
    Message('note_on', channel=11, note=34, velocity=92, time=145),
    Message('note_off', channel=11, note=34, velocity=0, time=168),
    Message('note_on', channel=11, note=38, velocity=92, time=4104),
    Message('note_off', channel=11, note=38, velocity=0, time=16),
    Message('note_on', channel=11, note=36, velocity=92, time=0),
    Message('note_off', channel=11, note=36, velocity=0, time=16),
    Message('note_on', channel=11, note=35, velocity=92, time=0),
    Message('note_off', channel=11, note=35, velocity=0, time=16),
    Message('note_on', channel=11, note=33, velocity=92, time=0),
    Message('note_off', channel=11, note=33, velocity=0, time=128),
    Message('note_on', channel=11, note=33, velocity=92, time=16),
    Message('note_off', channel=11, note=33, velocity=0, time=80),
    Message('note_on', channel=11, note=33, velocity=92, time=16),
    Message('note_off', channel=11, note=33, velocity=0, time=47),
    Message('note_on', channel=11, note=33, velocity=92, time=1),
    Message('note_off', channel=11, note=33, velocity=0, time=128),
    Message('note_on', channel=11, note=33, velocity=92, time=16),
    Message('note_off', channel=11, note=33, velocity=0, time=80),
    Message('note_on', channel=11, note=33, velocity=92, time=16),
    Message('note_off', channel=11, note=33, velocity=0, time=16),
    Message('note_on', channel=11, note=40, velocity=127, time=32),
    Message('note_off', channel=11, note=40, velocity=0, time=16),
    Message('note_on', channel=11, note=35, velocity=92, time=512),
    Message('note_off', channel=11, note=35, velocity=0, time=16),
    Message('note_on', channel=11, note=40, velocity=127, time=32),
    Message('note_off', channel=11, note=40, velocity=0, time=16),
    Message('note_on', channel=11, note=35, velocity=92, time=512),
    Message('note_off', channel=11, note=35, velocity=0, time=16),
    Message('note_on', channel=11, note=36, velocity=92, time=32),
    Message('note_off', channel=11, note=36, velocity=0, time=60),
    Message('note_on', channel=11, note=35, velocity=92, time=0),
    Message('note_off', channel=11, note=35, velocity=0, time=12),
    Message('note_on', channel=11, note=34, velocity=92, time=0),
    Message('note_off', channel=11, note=34, velocity=0, time=8),
    Message('note_on', channel=11, note=33, velocity=92, time=0),
    Message('note_off', channel=11, note=33, velocity=0, time=8),
    Message('note_on', channel=11, note=32, velocity=92, time=0),
    Message('note_off', channel=11, note=32, velocity=0, time=8),
    Message('note_on', channel=11, note=31, velocity=92, time=0),
    Message('note_off', channel=11, note=31, velocity=0, time=16),
    Message('note_on', channel=11, note=36, velocity=92, time=32),
    Message('note_off', channel=11, note=36, velocity=0, time=59),
    Message('note_on', channel=11, note=35, velocity=92, time=1),
    Message('note_off', channel=11, note=35, velocity=0, time=11),
    Message('note_on', channel=11, note=34, velocity=92, time=1),
    Message('note_off', channel=11, note=34, velocity=0, time=7),
    Message('note_on', channel=11, note=33, velocity=92, time=1),
    Message('note_off', channel=11, note=33, velocity=0, time=7),
    Message('note_on', channel=11, note=32, velocity=92, time=1),
    Message('note_off', channel=11, note=32, velocity=0, time=7),
    Message('note_on', channel=11, note=31, velocity=92, time=1),
    Message('note_off', channel=11, note=31, velocity=0, time=16),
    Message('note_on', channel=11, note=36, velocity=92, time=32),
    Message('note_off', channel=11, note=36, velocity=0, time=60),
    Message('note_on', channel=11, note=35, velocity=92, time=0),
    Message('note_off', channel=11, note=35, velocity=0, time=12),
    Message('note_on', channel=11, note=34, velocity=92, time=0),
    Message('note_off', channel=11, note=34, velocity=0, time=8),
    Message('note_on', channel=11, note=33, velocity=92, time=0),
    Message('note_off', channel=11, note=33, velocity=0, time=8),
    Message('note_on', channel=11, note=32, velocity=92, time=0),
    Message('note_off', channel=11, note=32, velocity=0, time=8),
    Message('note_on', channel=11, note=31, velocity=92, time=0),
    Message('note_off', channel=11, note=31, velocity=0, time=16),
    Message('note_on', channel=11, note=36, velocity=92, time=32),
    Message('note_off', channel=11, note=36, velocity=0, time=59),
    Message('note_on', channel=11, note=35, velocity=92, time=1),
    Message('note_off', channel=11, note=35, velocity=0, time=11),
    Message('note_on', channel=11, note=34, velocity=92, time=1),
    Message('note_off', channel=11, note=34, velocity=0, time=7),
    Message('note_on', channel=11, note=33, velocity=92, time=1),
    Message('note_off', channel=11, note=33, velocity=0, time=7),
    Message('note_on', channel=11, note=32, velocity=92, time=1),
    Message('note_off', channel=11, note=32, velocity=0, time=7),
    Message('note_on', channel=11, note=31, velocity=92, time=1),
    Message('note_off', channel=11, note=31, velocity=0, time=16),
    Message('note_on', channel=11, note=36, velocity=92, time=32),
    Message('note_off', channel=11, note=36, velocity=0, time=60),
    Message('note_on', channel=11, note=35, velocity=92, time=0),
    Message('note_off', channel=11, note=35, velocity=0, time=12),
    Message('note_on', channel=11, note=34, velocity=92, time=0),
    Message('note_off', channel=11, note=34, velocity=0, time=8),
    Message('note_on', channel=11, note=33, velocity=92, time=0),
    Message('note_off', channel=11, note=33, velocity=0, time=8),
    Message('note_on', channel=11, note=32, velocity=92, time=0),
    Message('note_off', channel=11, note=32, velocity=0, time=8),
    Message('note_on', channel=11, note=31, velocity=92, time=0),
    Message('note_off', channel=11, note=31, velocity=0, time=16),
    Message('note_on', channel=11, note=43, velocity=92, time=32),
    Message('note_off', channel=11, note=43, velocity=0, time=39),
    Message('note_on', channel=11, note=42, velocity=92, time=1),
    Message('note_off', channel=11, note=42, velocity=0, time=3),
    Message('note_on', channel=11, note=41, velocity=92, time=1),
    Message('note_off', channel=11, note=41, velocity=0, time=3),
    Message('note_on', channel=11, note=40, velocity=92, time=1),
    Message('note_off', channel=11, note=40, velocity=0, time=3),
    Message('note_on', channel=11, note=39, velocity=92, time=1),
    Message('note_off', channel=11, note=39, velocity=0, time=3),
    Message('note_on', channel=11, note=38, velocity=92, time=1),
    Message('note_off', channel=11, note=38, velocity=0, time=3),
    Message('note_on', channel=11, note=37, velocity=92, time=1),
    Message('note_off', channel=11, note=37, velocity=0, time=7),
    Message('note_on', channel=11, note=36, velocity=92, time=1),
    Message('note_off', channel=11, note=36, velocity=0, time=7),
    Message('note_on', channel=11, note=35, velocity=92, time=1),
    Message('note_off', channel=11, note=35, velocity=0, time=7),
    Message('note_on', channel=11, note=34, velocity=92, time=1),
    Message('note_off', channel=11, note=34, velocity=0, time=3),
    Message('note_on', channel=11, note=33, velocity=92, time=1),
    Message('note_off', channel=11, note=33, velocity=0, time=3),
    Message('note_on', channel=11, note=32, velocity=92, time=1),
    Message('note_off', channel=11, note=32, velocity=0, time=3),
    Message('note_on', channel=11, note=31, velocity=92, time=1),
    Message('note_off', channel=11, note=31, velocity=0, time=16),
    Message('note_on', channel=11, note=36, velocity=92, time=32),
    Message('note_off', channel=11, note=36, velocity=0, time=60),
    Message('note_on', channel=11, note=35, velocity=92, time=0),
    Message('note_off', channel=11, note=35, velocity=0, time=12),
    Message('note_on', channel=11, note=34, velocity=92, time=0),
    Message('note_off', channel=11, note=34, velocity=0, time=8),
    Message('note_on', channel=11, note=33, velocity=92, time=0),
    Message('note_off', channel=11, note=33, velocity=0, time=8),
    Message('note_on', channel=11, note=32, velocity=92, time=0),
    Message('note_off', channel=11, note=32, velocity=0, time=8),
    Message('note_on', channel=11, note=31, velocity=92, time=0),
    Message('note_off', channel=11, note=31, velocity=0, time=16),
    Message('note_on', channel=11, note=36, velocity=92, time=32),
    Message('note_off', channel=11, note=36, velocity=0, time=59),
    Message('note_on', channel=11, note=35, velocity=92, time=1),
    Message('note_off', channel=11, note=35, velocity=0, time=11),
    Message('note_on', channel=11, note=34, velocity=92, time=1),
    Message('note_off', channel=11, note=34, velocity=0, time=7),
    Message('note_on', channel=11, note=33, velocity=92, time=1),
    Message('note_off', channel=11, note=33, velocity=0, time=7),
    Message('note_on', channel=11, note=32, velocity=92, time=1),
    Message('note_off', channel=11, note=32, velocity=0, time=7),
    Message('note_on', channel=11, note=31, velocity=92, time=1),
    Message('note_off', channel=11, note=31, velocity=0, time=16),
    Message('note_on', channel=11, note=36, velocity=92, time=32),
    Message('note_off', channel=11, note=36, velocity=0, time=128),
    Message('note_on', channel=11, note=36, velocity=92, time=16),
    Message('note_off', channel=11, note=36, velocity=0, time=80),
    Message('note_on', channel=11, note=36, velocity=92, time=16),
    Message('note_off', channel=11, note=36, velocity=0, time=23),
    Message('note_on', channel=11, note=38, velocity=92, time=1),
    Message('note_off', channel=11, note=38, velocity=0, time=23),
    Message('note_on', channel=11, note=39, velocity=92, time=1),
    Message('note_off', channel=11, note=39, velocity=0, time=80),
    Message('note_on', channel=11, note=38, velocity=92, time=16),
    Message('note_off', channel=11, note=38, velocity=0, time=23),
    Message('note_on', channel=11, note=39, velocity=92, time=1),
    Message('note_off', channel=11, note=39, velocity=0, time=23),
    Message('note_on', channel=11, note=40, velocity=92, time=1),
    Message('note_off', channel=11, note=40, velocity=0, time=80),
    Message('note_on', channel=11, note=41, velocity=92, time=16),
    Message('note_off', channel=11, note=41, velocity=0, time=23),
    Message('note_on', channel=11, note=42, velocity=92, time=1),
    Message('note_off', channel=11, note=42, velocity=0, time=23),
    Message('note_on', channel=11, note=43, velocity=92, time=1),
    Message('note_off', channel=11, note=43, velocity=0, time=128),
    Message('note_on', channel=11, note=31, velocity=92, time=16),
    Message('note_off', channel=11, note=31, velocity=0, time=128),
    Message('note_on', channel=11, note=36, velocity=92, time=16),
    Message('note_off', channel=11, note=36, velocity=0, time=128),
    Message('note_on', channel=11, note=36, velocity=92, time=16),
    Message('note_off', channel=11, note=36, velocity=0, time=128),
    Message('note_on', channel=11, note=36, velocity=92, time=16),
    Message('note_off', channel=11, note=36, velocity=0, time=128),
    Message('note_on', channel=11, note=36, velocity=92, time=16),
    Message('note_off', channel=11, note=36, velocity=0, time=128),
    Message('note_on', channel=11, note=36, velocity=92, time=16),
    Message('control_change', channel=11, control=7, value=109, time=2),
    Message('control_change', channel=11, control=7, value=108, time=2),
    Message('control_change', channel=11, control=7, value=107, time=3),
    Message('control_change', channel=11, control=7, value=106, time=2),
    Message('control_change', channel=11, control=7, value=105, time=3),
    Message('control_change', channel=11, control=7, value=104, time=2),
    Message('control_change', channel=11, control=7, value=103, time=2),
    Message('control_change', channel=11, control=7, value=102, time=3),
    Message('control_change', channel=11, control=7, value=101, time=2),
    Message('control_change', channel=11, control=7, value=100, time=3),
    Message('control_change', channel=11, control=7, value=99, time=2),
    Message('control_change', channel=11, control=7, value=98, time=2),
    Message('control_change', channel=11, control=7, value=97, time=3),
    Message('control_change', channel=11, control=7, value=96, time=2),
    Message('control_change', channel=11, control=7, value=95, time=3),
    Message('control_change', channel=11, control=7, value=94, time=2),
    Message('control_change', channel=11, control=7, value=93, time=2),
    Message('control_change', channel=11, control=7, value=92, time=3),
    Message('control_change', channel=11, control=7, value=91, time=2),
    Message('control_change', channel=11, control=7, value=90, time=3),
    Message('control_change', channel=11, control=7, value=89, time=2),
    Message('control_change', channel=11, control=7, value=88, time=2),
    Message('control_change', channel=11, control=7, value=87, time=3),
    Message('control_change', channel=11, control=7, value=86, time=2),
    Message('control_change', channel=11, control=7, value=85, time=3),
    Message('control_change', channel=11, control=7, value=84, time=2),
    Message('control_change', channel=11, control=7, value=83, time=2),
    Message('control_change', channel=11, control=7, value=82, time=3),
    Message('control_change', channel=11, control=7, value=81, time=2),
    Message('control_change', channel=11, control=7, value=80, time=3),
    Message('control_change', channel=11, control=7, value=79, time=2),
    Message('control_change', channel=11, control=7, value=78, time=2),
    Message('control_change', channel=11, control=7, value=77, time=3),
    Message('control_change', channel=11, control=7, value=76, time=2),
    Message('control_change', channel=11, control=7, value=75, time=3),
    Message('control_change', channel=11, control=7, value=74, time=2),
    Message('control_change', channel=11, control=7, value=73, time=2),
    Message('control_change', channel=11, control=7, value=72, time=3),
    Message('control_change', channel=11, control=7, value=71, time=2),
    Message('control_change', channel=11, control=7, value=70, time=3),
    Message('control_change', channel=11, control=7, value=69, time=2),
    Message('control_change', channel=11, control=7, value=68, time=2),
    Message('control_change', channel=11, control=7, value=67, time=3),
    Message('control_change', channel=11, control=7, value=66, time=2),
    Message('control_change', channel=11, control=7, value=65, time=3),
    Message('control_change', channel=11, control=7, value=64, time=2),
    Message('control_change', channel=11, control=7, value=63, time=2),
    Message('control_change', channel=11, control=7, value=62, time=3),
    Message('control_change', channel=11, control=7, value=61, time=2),
    Message('control_change', channel=11, control=7, value=60, time=3),
    Message('control_change', channel=11, control=7, value=59, time=2),
    Message('control_change', channel=11, control=7, value=58, time=2),
    Message('control_change', channel=11, control=7, value=57, time=3),
    Message('control_change', channel=11, control=7, value=56, time=2),
    Message('control_change', channel=11, control=7, value=55, time=3),
    Message('control_change', channel=11, control=7, value=54, time=2),
    Message('control_change', channel=11, control=7, value=53, time=2),
    Message('control_change', channel=11, control=7, value=52, time=3),
    Message('control_change', channel=11, control=7, value=51, time=2),
    Message('control_change', channel=11, control=7, value=50, time=3),
    Message('control_change', channel=11, control=7, value=51, time=2),
    Message('control_change', channel=11, control=7, value=52, time=2),
    Message('control_change', channel=11, control=7, value=53, time=3),
    Message('control_change', channel=11, control=7, value=54, time=2),
    Message('control_change', channel=11, control=7, value=55, time=3),
    Message('control_change', channel=11, control=7, value=56, time=2),
    Message('control_change', channel=11, control=7, value=57, time=2),
    Message('control_change', channel=11, control=7, value=58, time=3),
    Message('control_change', channel=11, control=7, value=59, time=2),
    Message('control_change', channel=11, control=7, value=60, time=3),
    Message('control_change', channel=11, control=7, value=61, time=2),
    Message('control_change', channel=11, control=7, value=62, time=2),
    Message('control_change', channel=11, control=7, value=63, time=3),
    Message('control_change', channel=11, control=7, value=64, time=2),
    Message('control_change', channel=11, control=7, value=65, time=3),
    Message('control_change', channel=11, control=7, value=66, time=2),
    Message('control_change', channel=11, control=7, value=67, time=2),
    Message('control_change', channel=11, control=7, value=68, time=3),
    Message('control_change', channel=11, control=7, value=69, time=2),
    Message('control_change', channel=11, control=7, value=70, time=3),
    Message('control_change', channel=11, control=7, value=71, time=2),
    Message('control_change', channel=11, control=7, value=72, time=2),
    Message('control_change', channel=11, control=7, value=73, time=3),
    Message('control_change', channel=11, control=7, value=74, time=2),
    Message('control_change', channel=11, control=7, value=75, time=3),
    Message('control_change', channel=11, control=7, value=76, time=2),
    Message('control_change', channel=11, control=7, value=77, time=2),
    Message('control_change', channel=11, control=7, value=78, time=3),
    Message('control_change', channel=11, control=7, value=79, time=2),
    Message('control_change', channel=11, control=7, value=80, time=3),
    Message('control_change', channel=11, control=7, value=81, time=2),
    Message('control_change', channel=11, control=7, value=82, time=2),
    Message('control_change', channel=11, control=7, value=83, time=3),
    Message('control_change', channel=11, control=7, value=84, time=2),
    Message('control_change', channel=11, control=7, value=85, time=3),
    Message('control_change', channel=11, control=7, value=86, time=2),
    Message('control_change', channel=11, control=7, value=87, time=2),
    Message('control_change', channel=11, control=7, value=88, time=3),
    Message('control_change', channel=11, control=7, value=89, time=2),
    Message('control_change', channel=11, control=7, value=90, time=3),
    Message('control_change', channel=11, control=7, value=91, time=2),
    Message('control_change', channel=11, control=7, value=92, time=2),
    Message('control_change', channel=11, control=7, value=93, time=3),
    Message('control_change', channel=11, control=7, value=94, time=2),
    Message('control_change', channel=11, control=7, value=95, time=3),
    Message('control_change', channel=11, control=7, value=96, time=2),
    Message('control_change', channel=11, control=7, value=97, time=2),
    Message('control_change', channel=11, control=7, value=98, time=3),
    Message('control_change', channel=11, control=7, value=99, time=2),
    Message('control_change', channel=11, control=7, value=100, time=3),
    Message('control_change', channel=11, control=7, value=101, time=2),
    Message('control_change', channel=11, control=7, value=102, time=2),
    Message('control_change', channel=11, control=7, value=103, time=3),
    Message('note_off', channel=11, note=36, velocity=0, time=1),
    Message('control_change', channel=11, control=7, value=104, time=1),
    Message('control_change', channel=11, control=7, value=105, time=3),
    Message('control_change', channel=11, control=7, value=106, time=2),
    Message('control_change', channel=11, control=7, value=107, time=2),
    Message('control_change', channel=11, control=7, value=108, time=3),
    Message('control_change', channel=11, control=7, value=109, time=2),
    Message('control_change', channel=11, control=7, value=110, time=3),
    Message('note_on', channel=11, note=48, velocity=92, time=0),
    Message('note_off', channel=11, note=48, velocity=0, time=16),
    Message('control_change', channel=11, control=7, value=111, time=27),
    Message('note_on', channel=11, note=36, velocity=93, time=5),
    Message('control_change', channel=11, control=7, value=112, time=38),
    Message('control_change', channel=11, control=7, value=113, time=43),
    Message('control_change', channel=11, control=7, value=114, time=43),
    Message('control_change', channel=11, control=7, value=115, time=44),
    Message('control_change', channel=11, control=7, value=116, time=43),
    Message('control_change', channel=11, control=7, value=117, time=43),
    Message('control_change', channel=11, control=7, value=118, time=43),
    Message('control_change', channel=11, control=7, value=119, time=43),
    Message('note_off', channel=11, note=36, velocity=0, time=28),
    Message('control_change', channel=11, control=7, value=120, time=16),
    Message('note_on', channel=11, note=36, velocity=127, time=0),
    Message('note_off', channel=11, note=36, velocity=0, time=24),
    Message('program_change', channel=11, program=45, time=696),
    Message('control_change', channel=11, control=7, value=100, time=0),
    Message('note_on', channel=11, note=48, velocity=75, time=0),
    Message('note_off', channel=11, note=48, velocity=0, time=128),
    Message('note_on', channel=11, note=36, velocity=75, time=16),
    Message('note_off', channel=11, note=36, velocity=0, time=128),
    Message('note_on', channel=11, note=48, velocity=75, time=16),
    Message('note_off', channel=11, note=48, velocity=0, time=128),
    Message('note_on', channel=11, note=36, velocity=75, time=16),
    Message('note_off', channel=11, note=36, velocity=0, time=416),
    Message('note_on', channel=11, note=36, velocity=127, time=16),
    Message('note_off', channel=11, note=36, velocity=0, time=47),
    Message('control_change', channel=11, control=101, value=0, time=1249),
    Message('control_change', channel=11, control=100, value=0, time=0),
    Message('control_change', channel=11, control=6, value=12, time=0),
    Message('control_change', channel=11, control=10, value=64, time=0),
    Message('control_change', channel=11, control=7, value=100, time=0),
    Message('pitchwheel', channel=11, pitch=0, time=0),
    Message('program_change', channel=11, program=45, time=0),
    Message('program_change', channel=11, program=43, time=0),
    Message('control_change', channel=11, control=7, value=127, time=0),
    Message('control_change', channel=11, control=10, value=64, time=0),
    Message('control_change', channel=11, control=101, value=0, time=1),
    Message('control_change', channel=11, control=100, value=0, time=0),
    Message('control_change', channel=11, control=6, value=12, time=0),
    Message('control_change', channel=11, control=10, value=64, time=0),
    Message('control_change', channel=11, control=7, value=100, time=0),
    Message('pitchwheel', channel=11, pitch=0, time=0),
    Message('program_change', channel=11, program=45, time=0),
    MetaMessage('end_of_track', time=0)]),
  MidiTrack([
    MetaMessage('track_name', name='Clarinet', time=0),
    Message('control_change', channel=2, control=10, value=64, time=0),
    Message('control_change', channel=2, control=7, value=127, time=0),
    Message('pitchwheel', channel=2, pitch=0, time=0),
    Message('control_change', channel=2, control=101, value=0, time=0),
    Message('control_change', channel=2, control=100, value=0, time=0),
    Message('control_change', channel=2, control=6, value=12, time=0),
    Message('control_change', channel=2, control=10, value=64, time=0),
    Message('control_change', channel=2, control=7, value=127, time=0),
    Message('pitchwheel', channel=2, pitch=0, time=0),
    Message('program_change', channel=2, program=71, time=0),
    Message('program_change', channel=2, program=71, time=0),
    Message('control_change', channel=2, control=7, value=127, time=0),
    Message('control_change', channel=2, control=10, value=64, time=0),
    Message('control_change', channel=2, control=101, value=0, time=0),
    Message('control_change', channel=2, control=100, value=0, time=0),
    Message('control_change', channel=2, control=6, value=12, time=0),
    Message('control_change', channel=2, control=10, value=64, time=0),
    Message('control_change', channel=2, control=7, value=127, time=0),
    Message('pitchwheel', channel=2, pitch=0, time=0),
    Message('program_change', channel=2, program=71, time=0),
    Message('program_change', channel=2, program=71, time=0),
    Message('control_change', channel=2, control=7, value=127, time=0),
    Message('control_change', channel=2, control=10, value=64, time=0),
    Message('control_change', channel=2, control=101, value=0, time=0),
    Message('control_change', channel=2, control=100, value=0, time=0),
    Message('control_change', channel=2, control=6, value=12, time=0),
    Message('control_change', channel=2, control=10, value=64, time=0),
    Message('control_change', channel=2, control=7, value=127, time=0),
    Message('pitchwheel', channel=2, pitch=0, time=0),
    Message('program_change', channel=2, program=71, time=0),
    Message('control_change', channel=2, control=7, value=100, time=12864),
    Message('note_on', channel=2, note=59, velocity=75, time=0),
    Message('note_off', channel=2, note=59, velocity=0, time=168),
    Message('note_on', channel=2, note=71, velocity=75, time=24),
    Message('note_on', channel=2, note=67, velocity=75, time=0),
    Message('note_on', channel=2, note=64, velocity=75, time=0),
    Message('note_off', channel=2, note=71, velocity=0, time=16),
    Message('note_off', channel=2, note=67, velocity=0, time=0),
    Message('note_off', channel=2, note=64, velocity=0, time=0),
    Message('note_on', channel=2, note=71, velocity=75, time=32),
    Message('note_on', channel=2, note=67, velocity=75, time=0),
    Message('note_on', channel=2, note=64, velocity=75, time=0),
    Message('note_off', channel=2, note=71, velocity=0, time=16),
    Message('note_off', channel=2, note=67, velocity=0, time=0),
    Message('note_off', channel=2, note=64, velocity=0, time=0),
    Message('note_on', channel=2, note=71, velocity=75, time=32),
    Message('note_on', channel=2, note=67, velocity=75, time=0),
    Message('note_on', channel=2, note=64, velocity=75, time=0),
    Message('note_off', channel=2, note=71, velocity=0, time=16),
    Message('note_off', channel=2, note=67, velocity=0, time=0),
    Message('note_off', channel=2, note=64, velocity=0, time=0),
    Message('note_on', channel=2, note=71, velocity=75, time=32),
    Message('note_on', channel=2, note=67, velocity=75, time=0),
    Message('note_on', channel=2, note=64, velocity=75, time=0),
    Message('note_off', channel=2, note=71, velocity=0, time=16),
    Message('note_off', channel=2, note=67, velocity=0, time=0),
    Message('note_off', channel=2, note=64, velocity=0, time=0),
    Message('note_on', channel=2, note=71, velocity=75, time=32),
    Message('note_on', channel=2, note=67, velocity=75, time=0),
    Message('note_on', channel=2, note=64, velocity=75, time=0),
    Message('note_off', channel=2, note=71, velocity=0, time=16),
    Message('note_off', channel=2, note=67, velocity=0, time=0),
    Message('note_off', channel=2, note=64, velocity=0, time=0),
    Message('note_on', channel=2, note=71, velocity=75, time=32),
    Message('note_on', channel=2, note=67, velocity=75, time=0),
    Message('note_on', channel=2, note=64, velocity=75, time=0),
    Message('note_off', channel=2, note=71, velocity=0, time=16),
    Message('note_off', channel=2, note=67, velocity=0, time=0),
    Message('note_off', channel=2, note=64, velocity=0, time=0),
    Message('note_on', channel=2, note=70, velocity=75, time=32),
    Message('note_on', channel=2, note=66, velocity=75, time=0),
    Message('note_on', channel=2, note=63, velocity=75, time=0),
    Message('note_off', channel=2, note=70, velocity=0, time=16),
    Message('note_off', channel=2, note=66, velocity=0, time=0),
    Message('note_off', channel=2, note=63, velocity=0, time=0),
    Message('note_on', channel=2, note=71, velocity=75, time=32),
    Message('note_on', channel=2, note=67, velocity=75, time=0),
    Message('note_on', channel=2, note=64, velocity=75, time=0),
    Message('note_off', channel=2, note=71, velocity=0, time=16),
    Message('note_off', channel=2, note=67, velocity=0, time=0),
    Message('note_off', channel=2, note=64, velocity=0, time=0),
    Message('note_on', channel=2, note=72, velocity=75, time=32),
    Message('note_on', channel=2, note=68, velocity=75, time=0),
    Message('note_on', channel=2, note=65, velocity=75, time=0),
    Message('note_off', channel=2, note=72, velocity=0, time=96),
    Message('note_off', channel=2, note=68, velocity=0, time=0),
    Message('note_off', channel=2, note=65, velocity=0, time=0),
    Message('note_on', channel=2, note=71, velocity=75, time=0),
    Message('note_on', channel=2, note=67, velocity=75, time=0),
    Message('note_on', channel=2, note=64, velocity=75, time=0),
    Message('note_off', channel=2, note=64, velocity=0, time=16),
    Message('note_off', channel=2, note=67, velocity=0, time=0),
    Message('note_off', channel=2, note=71, velocity=0, time=0),
    Message('note_on', channel=2, note=70, velocity=75, time=32),
    Message('note_on', channel=2, note=66, velocity=75, time=0),
    Message('note_on', channel=2, note=63, velocity=75, time=0),
    Message('note_off', channel=2, note=70, velocity=0, time=16),
    Message('note_off', channel=2, note=66, velocity=0, time=0),
    Message('note_off', channel=2, note=63, velocity=0, time=0),
    Message('note_on', channel=2, note=71, velocity=75, time=32),
    Message('note_on', channel=2, note=67, velocity=75, time=0),
    Message('note_on', channel=2, note=64, velocity=75, time=0),
    Message('note_off', channel=2, note=71, velocity=0, time=24),
    Message('note_off', channel=2, note=67, velocity=0, time=0),
    Message('note_off', channel=2, note=64, velocity=0, time=0),
    Message('note_on', channel=2, note=67, velocity=75, time=72),
    Message('note_on', channel=2, note=64, velocity=75, time=0),
    Message('note_on', channel=2, note=59, velocity=75, time=0),
    Message('note_off', channel=2, note=67, velocity=0, time=24),
    Message('note_off', channel=2, note=64, velocity=0, time=0),
    Message('note_off', channel=2, note=59, velocity=0, time=0),
    Message('note_on', channel=2, note=69, velocity=75, time=72),
    Message('note_on', channel=2, note=64, velocity=75, time=0),
    Message('note_on', channel=2, note=60, velocity=75, time=0),
    Message('note_off', channel=2, note=69, velocity=0, time=96),
    Message('note_off', channel=2, note=64, velocity=0, time=0),
    Message('note_off', channel=2, note=60, velocity=0, time=0),
    Message('note_on', channel=2, note=69, velocity=75, time=0),
    Message('note_on', channel=2, note=64, velocity=75, time=0),
    Message('note_on', channel=2, note=60, velocity=75, time=0),
    Message('note_off', channel=2, note=60, velocity=0, time=16),
    Message('note_off', channel=2, note=64, velocity=0, time=0),
    Message('note_off', channel=2, note=69, velocity=0, time=0),
    Message('note_on', channel=2, note=68, velocity=75, time=32),
    Message('note_on', channel=2, note=63, velocity=75, time=0),
    Message('note_on', channel=2, note=59, velocity=75, time=0),
    Message('note_off', channel=2, note=68, velocity=0, time=16),
    Message('note_off', channel=2, note=63, velocity=0, time=0),
    Message('note_off', channel=2, note=59, velocity=0, time=0),
    Message('note_on', channel=2, note=69, velocity=75, time=32),
    Message('note_on', channel=2, note=64, velocity=75, time=0),
    Message('note_on', channel=2, note=60, velocity=75, time=0),
    Message('note_off', channel=2, note=69, velocity=0, time=24),
    Message('note_off', channel=2, note=64, velocity=0, time=0),
    Message('note_off', channel=2, note=60, velocity=0, time=0),
    Message('note_on', channel=2, note=60, velocity=75, time=72),
    Message('note_on', channel=2, note=57, velocity=75, time=0),
    Message('note_on', channel=2, note=52, velocity=75, time=0),
    Message('note_off', channel=2, note=60, velocity=0, time=96),
    Message('note_off', channel=2, note=57, velocity=0, time=0),
    Message('note_off', channel=2, note=52, velocity=0, time=0),
    Message('note_on', channel=2, note=59, velocity=75, time=0),
    Message('note_on', channel=2, note=55, velocity=75, time=0),
    Message('note_on', channel=2, note=52, velocity=75, time=0),
    Message('note_off', channel=2, note=52, velocity=0, time=16),
    Message('note_off', channel=2, note=55, velocity=0, time=0),
    Message('note_off', channel=2, note=59, velocity=0, time=0),
    Message('note_on', channel=2, note=64, velocity=75, time=80),
    Message('note_on', channel=2, note=59, velocity=75, time=0),
    Message('note_on', channel=2, note=55, velocity=75, time=0),
    Message('note_off', channel=2, note=64, velocity=0, time=16),
    Message('note_off', channel=2, note=59, velocity=0, time=0),
    Message('note_off', channel=2, note=55, velocity=0, time=0),
    Message('note_on', channel=2, note=67, velocity=75, time=32),
    Message('note_on', channel=2, note=64, velocity=75, time=0),
    Message('note_on', channel=2, note=59, velocity=75, time=0),
    Message('note_off', channel=2, note=67, velocity=0, time=16),
    Message('note_off', channel=2, note=64, velocity=0, time=0),
    Message('note_off', channel=2, note=59, velocity=0, time=0),
    Message('note_on', channel=2, note=70, velocity=105, time=32),
    Message('note_on', channel=2, note=66, velocity=105, time=0),
    Message('note_on', channel=2, note=63, velocity=105, time=0),
    Message('note_off', channel=2, note=70, velocity=0, time=168),
    Message('note_off', channel=2, note=66, velocity=0, time=0),
    Message('note_off', channel=2, note=63, velocity=0, time=0),
    Message('note_on', channel=2, note=71, velocity=75, time=24),
    Message('note_on', channel=2, note=67, velocity=75, time=0),
    Message('note_on', channel=2, note=64, velocity=75, time=0),
    Message('note_off', channel=2, note=71, velocity=0, time=16),
    Message('note_off', channel=2, note=67, velocity=0, time=0),
    Message('note_off', channel=2, note=64, velocity=0, time=0),
    Message('note_on', channel=2, note=71, velocity=75, time=32),
    Message('note_on', channel=2, note=67, velocity=75, time=0),
    Message('note_on', channel=2, note=64, velocity=75, time=0),
    Message('note_off', channel=2, note=71, velocity=0, time=16),
    Message('note_off', channel=2, note=67, velocity=0, time=0),
    Message('note_off', channel=2, note=64, velocity=0, time=0),
    Message('note_on', channel=2, note=71, velocity=75, time=32),
    Message('note_on', channel=2, note=67, velocity=75, time=0),
    Message('note_on', channel=2, note=64, velocity=75, time=0),
    Message('note_off', channel=2, note=71, velocity=0, time=16),
    Message('note_off', channel=2, note=67, velocity=0, time=0),
    Message('note_off', channel=2, note=64, velocity=0, time=0),
    Message('note_on', channel=2, note=71, velocity=75, time=32),
    Message('note_on', channel=2, note=67, velocity=75, time=0),
    Message('note_on', channel=2, note=64, velocity=75, time=0),
    Message('note_off', channel=2, note=71, velocity=0, time=16),
    Message('note_off', channel=2, note=67, velocity=0, time=0),
    Message('note_off', channel=2, note=64, velocity=0, time=0),
    Message('note_on', channel=2, note=71, velocity=75, time=32),
    Message('note_on', channel=2, note=67, velocity=75, time=0),
    Message('note_on', channel=2, note=64, velocity=75, time=0),
    Message('note_off', channel=2, note=71, velocity=0, time=16),
    Message('note_off', channel=2, note=67, velocity=0, time=0),
    Message('note_off', channel=2, note=64, velocity=0, time=0),
    Message('note_on', channel=2, note=71, velocity=75, time=32),
    Message('note_on', channel=2, note=67, velocity=75, time=0),
    Message('note_on', channel=2, note=64, velocity=75, time=0),
    Message('note_off', channel=2, note=71, velocity=0, time=16),
    Message('note_off', channel=2, note=67, velocity=0, time=0),
    Message('note_off', channel=2, note=64, velocity=0, time=0),
    Message('note_on', channel=2, note=70, velocity=75, time=32),
    Message('note_on', channel=2, note=66, velocity=75, time=0),
    Message('note_on', channel=2, note=63, velocity=75, time=0),
    Message('note_off', channel=2, note=70, velocity=0, time=16),
    Message('note_off', channel=2, note=66, velocity=0, time=0),
    Message('note_off', channel=2, note=63, velocity=0, time=0),
    Message('note_on', channel=2, note=71, velocity=75, time=32),
    Message('note_on', channel=2, note=67, velocity=75, time=0),
    Message('note_on', channel=2, note=64, velocity=75, time=0),
    Message('note_off', channel=2, note=71, velocity=0, time=48),
    Message('note_off', channel=2, note=67, velocity=0, time=0),
    Message('note_off', channel=2, note=64, velocity=0, time=0),
    Message('note_on', channel=2, note=74, velocity=75, time=0),
    Message('note_on', channel=2, note=70, velocity=75, time=0),
    Message('note_on', channel=2, note=67, velocity=75, time=0),
    Message('note_off', channel=2, note=67, velocity=0, time=96),
    Message('note_off', channel=2, note=70, velocity=0, time=0),
    Message('note_off', channel=2, note=74, velocity=0, time=0),
    Message('note_on', channel=2, note=72, velocity=75, time=0),
    Message('note_on', channel=2, note=68, velocity=75, time=0),
    Message('note_on', channel=2, note=65, velocity=75, time=0),
    Message('note_off', channel=2, note=65, velocity=0, time=16),
    Message('note_off', channel=2, note=68, velocity=0, time=0),
    Message('note_off', channel=2, note=72, velocity=0, time=0),
    Message('note_on', channel=2, note=71, velocity=75, time=32),
    Message('note_on', channel=2, note=67, velocity=75, time=0),
    Message('note_on', channel=2, note=64, velocity=75, time=0),
    Message('note_off', channel=2, note=71, velocity=0, time=16),
    Message('note_off', channel=2, note=67, velocity=0, time=0),
    Message('note_off', channel=2, note=64, velocity=0, time=0),
    Message('note_on', channel=2, note=72, velocity=75, time=32),
    Message('note_on', channel=2, note=68, velocity=75, time=0),
    Message('note_on', channel=2, note=65, velocity=75, time=0),
    Message('note_off', channel=2, note=72, velocity=0, time=24),
    Message('note_off', channel=2, note=68, velocity=0, time=0),
    Message('note_off', channel=2, note=65, velocity=0, time=0),
    Message('note_on', channel=2, note=65, velocity=75, time=72),
    Message('note_on', channel=2, note=60, velocity=75, time=0),
    Message('note_on', channel=2, note=56, velocity=75, time=0),
    Message('note_off', channel=2, note=65, velocity=0, time=24),
    Message('note_off', channel=2, note=60, velocity=0, time=0),
    Message('note_off', channel=2, note=56, velocity=0, time=0),
    Message('note_on', channel=2, note=72, velocity=75, time=72),
    Message('note_on', channel=2, note=68, velocity=75, time=0),
    Message('note_on', channel=2, note=65, velocity=75, time=0),
    Message('note_off', channel=2, note=72, velocity=0, time=96),
    Message('note_off', channel=2, note=68, velocity=0, time=0),
    Message('note_off', channel=2, note=65, velocity=0, time=0),
    Message('note_on', channel=2, note=71, velocity=75, time=0),
    Message('note_on', channel=2, note=67, velocity=75, time=0),
    Message('note_on', channel=2, note=64, velocity=75, time=0),
    Message('note_off', channel=2, note=64, velocity=0, time=16),
    Message('note_off', channel=2, note=67, velocity=0, time=0),
    Message('note_off', channel=2, note=71, velocity=0, time=0),
    Message('note_on', channel=2, note=70, velocity=75, time=32),
    Message('note_on', channel=2, note=66, velocity=75, time=0),
    Message('note_on', channel=2, note=63, velocity=75, time=0),
    Message('note_off', channel=2, note=70, velocity=0, time=16),
    Message('note_off', channel=2, note=66, velocity=0, time=0),
    Message('note_off', channel=2, note=63, velocity=0, time=0),
    Message('note_on', channel=2, note=71, velocity=75, time=32),
    Message('note_on', channel=2, note=67, velocity=75, time=0),
    Message('note_on', channel=2, note=64, velocity=75, time=0),
    Message('note_off', channel=2, note=71, velocity=0, time=24),
    Message('note_off', channel=2, note=67, velocity=0, time=0),
    Message('note_off', channel=2, note=64, velocity=0, time=0),
    Message('note_on', channel=2, note=64, velocity=75, time=72),
    Message('note_on', channel=2, note=59, velocity=75, time=0),
    Message('note_on', channel=2, note=55, velocity=75, time=0),
    Message('note_off', channel=2, note=64, velocity=0, time=96),
    Message('note_off', channel=2, note=59, velocity=0, time=0),
    Message('note_off', channel=2, note=55, velocity=0, time=0),
    Message('note_on', channel=2, note=67, velocity=75, time=0),
    Message('note_on', channel=2, note=64, velocity=75, time=0),
    Message('note_on', channel=2, note=59, velocity=75, time=0),
    Message('note_off', channel=2, note=59, velocity=0, time=168),
    Message('note_off', channel=2, note=64, velocity=0, time=0),
    Message('note_off', channel=2, note=67, velocity=0, time=0),
    Message('note_on', channel=2, note=63, velocity=75, time=24),
    Message('note_on', channel=2, note=59, velocity=75, time=0),
    Message('note_on', channel=2, note=57, velocity=75, time=0),
    Message('note_off', channel=2, note=63, velocity=0, time=168),
    Message('note_off', channel=2, note=59, velocity=0, time=0),
    Message('note_off', channel=2, note=57, velocity=0, time=0),
    Message('note_on', channel=2, note=64, velocity=75, time=120),
    Message('note_on', channel=2, note=60, velocity=75, time=0),
    Message('note_on', channel=2, note=57, velocity=75, time=0),
    Message('note_off', channel=2, note=57, velocity=0, time=47),
    Message('note_off', channel=2, note=60, velocity=0, time=0),
    Message('note_off', channel=2, note=64, velocity=0, time=0),
    Message('control_change', channel=2, control=7, value=90, time=9841),
    Message('note_on', channel=2, note=64, velocity=60, time=96),
    Message('note_off', channel=2, note=64, velocity=0, time=24),
    Message('note_on', channel=2, note=62, velocity=60, time=0),
    Message('note_off', channel=2, note=62, velocity=0, time=24),
    Message('note_on', channel=2, note=60, velocity=60, time=0),
    Message('note_off', channel=2, note=60, velocity=0, time=24),
    Message('note_on', channel=2, note=59, velocity=60, time=0),
    Message('note_off', channel=2, note=59, velocity=0, time=24),
    Message('note_on', channel=2, note=57, velocity=60, time=0),
    Message('note_off', channel=2, note=57, velocity=0, time=47),
    Message('note_on', channel=2, note=69, velocity=60, time=49),
    Message('control_change', channel=2, control=7, value=91, time=9),
    Message('control_change', channel=2, control=7, value=92, time=10),
    Message('note_off', channel=2, note=69, velocity=0, time=5),
    Message('note_on', channel=2, note=67, velocity=63, time=0),
    Message('control_change', channel=2, control=7, value=93, time=4),
    Message('control_change', channel=2, control=7, value=94, time=10),
    Message('note_off', channel=2, note=67, velocity=0, time=10),
    Message('control_change', channel=2, control=7, value=95, time=0),
    Message('note_on', channel=2, note=66, velocity=67, time=0),
    Message('control_change', channel=2, control=7, value=96, time=9),
    Message('control_change', channel=2, control=7, value=97, time=10),
    Message('note_off', channel=2, note=66, velocity=0, time=5),
    Message('note_on', channel=2, note=65, velocity=71, time=0),
    Message('control_change', channel=2, control=7, value=98, time=4),
    Message('control_change', channel=2, control=7, value=99, time=10),
    Message('note_off', channel=2, note=65, velocity=0, time=10),
    Message('control_change', channel=2, control=7, value=100, time=0),
    Message('note_on', channel=2, note=64, velocity=75, time=0),
    Message('note_off', channel=2, note=64, velocity=0, time=24),
    Message('note_on', channel=2, note=62, velocity=75, time=0),
    Message('note_off', channel=2, note=62, velocity=0, time=24),
    Message('note_on', channel=2, note=60, velocity=75, time=0),
    Message('note_off', channel=2, note=60, velocity=0, time=24),
    Message('note_on', channel=2, note=59, velocity=75, time=0),
    Message('note_off', channel=2, note=59, velocity=0, time=24),
    Message('note_on', channel=2, note=69, velocity=75, time=0),
    Message('note_on', channel=2, note=57, velocity=75, time=0),
    Message('note_off', channel=2, note=69, velocity=0, time=24),
    Message('note_on', channel=2, note=67, velocity=75, time=0),
    Message('note_off', channel=2, note=57, velocity=0, time=23),
    Message('note_off', channel=2, note=67, velocity=0, time=1),
    Message('note_on', channel=2, note=66, velocity=75, time=0),
    Message('note_off', channel=2, note=66, velocity=0, time=24),
    Message('note_on', channel=2, note=65, velocity=75, time=0),
    Message('note_off', channel=2, note=65, velocity=0, time=24),
    Message('note_on', channel=2, note=64, velocity=75, time=0),
    Message('note_off', channel=2, note=64, velocity=0, time=47),
    Message('control_change', channel=2, control=7, value=110, time=49),
    Message('note_on', channel=2, note=76, velocity=92, time=0),
    Message('note_on', channel=2, note=64, velocity=92, time=0),
    Message('note_on', channel=2, note=62, velocity=92, time=0),
    Message('control_change', channel=2, control=7, value=111, time=9),
    Message('control_change', channel=2, control=7, value=112, time=10),
    Message('note_off', channel=2, note=62, velocity=0, time=5),
    Message('note_on', channel=2, note=60, velocity=96, time=0),
    Message('control_change', channel=2, control=7, value=113, time=4),
    Message('control_change', channel=2, control=7, value=114, time=10),
    Message('note_off', channel=2, note=76, velocity=0, time=9),
    Message('note_off', channel=2, note=64, velocity=0, time=0),
    Message('note_off', channel=2, note=60, velocity=0, time=1),
    Message('control_change', channel=2, control=7, value=115, time=0),
    Message('note_on', channel=2, note=59, velocity=100, time=0),
    Message('control_change', channel=2, control=7, value=116, time=9),
    Message('control_change', channel=2, control=7, value=117, time=10),
    Message('note_off', channel=2, note=59, velocity=0, time=5),
    Message('note_on', channel=2, note=58, velocity=104, time=0),
    Message('control_change', channel=2, control=7, value=118, time=4),
    Message('control_change', channel=2, control=7, value=119, time=10),
    Message('note_off', channel=2, note=58, velocity=0, time=10),
    Message('control_change', channel=2, control=7, value=120, time=0),
    Message('note_on', channel=2, note=81, velocity=127, time=0),
    Message('note_on', channel=2, note=69, velocity=127, time=0),
    Message('note_on', channel=2, note=57, velocity=127, time=0),
    Message('note_off', channel=2, note=57, velocity=0, time=47),
    Message('note_off', channel=2, note=69, velocity=0, time=0),
    Message('note_off', channel=2, note=81, velocity=0, time=0),
    Message('control_change', channel=2, control=7, value=100, time=145),
    Message('note_on', channel=2, note=64, velocity=75, time=0),
    Message('control_change', channel=2, control=7, value=101, time=19),
    Message('note_off', channel=2, note=64, velocity=0, time=5),
    Message('note_on', channel=2, note=65, velocity=77, time=0),
    Message('control_change', channel=2, control=7, value=102, time=14),
    Message('note_off', channel=2, note=65, velocity=0, time=10),
    Message('note_on', channel=2, note=68, velocity=79, time=0),
    Message('control_change', channel=2, control=7, value=103, time=9),
    Message('note_off', channel=2, note=68, velocity=0, time=15),
    Message('note_on', channel=2, note=69, velocity=81, time=0),
    Message('control_change', channel=2, control=7, value=104, time=4),
    Message('note_off', channel=2, note=69, velocity=0, time=20),
    Message('control_change', channel=2, control=7, value=105, time=0),
    Message('note_on', channel=2, note=71, velocity=83, time=0),
    Message('note_off', channel=2, note=71, velocity=0, time=16),
    Message('note_on', channel=2, note=72, velocity=84, time=0),
    Message('control_change', channel=2, control=7, value=106, time=3),
    Message('note_off', channel=2, note=72, velocity=0, time=13),
    Message('note_on', channel=2, note=74, velocity=85, time=0),
    Message('control_change', channel=2, control=7, value=107, time=6),
    Message('note_off', channel=2, note=74, velocity=0, time=10),
    Message('note_on', channel=2, note=76, velocity=86, time=0),
    Message('control_change', channel=2, control=7, value=108, time=9),
    Message('note_off', channel=2, note=76, velocity=0, time=7),
    Message('note_on', channel=2, note=77, velocity=88, time=0),
    Message('control_change', channel=2, control=7, value=109, time=12),
    Message('note_off', channel=2, note=77, velocity=0, time=4),
    Message('note_on', channel=2, note=80, velocity=90, time=0),
    Message('note_off', channel=2, note=80, velocity=0, time=16),
    Message('control_change', channel=2, control=7, value=110, time=0),
    Message('note_on', channel=2, note=81, velocity=92, time=0),
    Message('note_off', channel=2, note=81, velocity=0, time=47),
    Message('note_on', channel=2, note=81, velocity=92, time=49),
    Message('note_on', channel=2, note=76, velocity=92, time=0),
    Message('note_on', channel=2, note=72, velocity=92, time=0),
    Message('note_off', channel=2, note=72, velocity=0, time=24),
    Message('note_off', channel=2, note=81, velocity=0, time=0),
    Message('note_off', channel=2, note=76, velocity=0, time=0),
    Message('note_on', channel=2, note=82, velocity=92, time=0),
    Message('note_on', channel=2, note=77, velocity=92, time=0),
    Message('note_on', channel=2, note=73, velocity=92, time=0),
    Message('note_off', channel=2, note=82, velocity=0, time=24),
    Message('note_off', channel=2, note=77, velocity=0, time=0),
    Message('note_off', channel=2, note=73, velocity=0, time=0),
    Message('note_on', channel=2, note=81, velocity=92, time=0),
    Message('note_on', channel=2, note=76, velocity=92, time=0),
    Message('note_on', channel=2, note=72, velocity=92, time=0),
    Message('note_off', channel=2, note=72, velocity=0, time=16),
    Message('note_off', channel=2, note=76, velocity=0, time=0),
    Message('note_off', channel=2, note=81, velocity=0, time=0),
    Message('note_on', channel=2, note=81, velocity=92, time=32),
    Message('note_on', channel=2, note=76, velocity=92, time=0),
    Message('note_on', channel=2, note=72, velocity=92, time=0),
    Message('note_off', channel=2, note=72, velocity=0, time=47),
    Message('note_off', channel=2, note=76, velocity=0, time=0),
    Message('note_off', channel=2, note=81, velocity=0, time=0),
    Message('note_on', channel=2, note=80, velocity=92, time=49),
    Message('note_on', channel=2, note=75, velocity=92, time=0),
    Message('note_on', channel=2, note=71, velocity=92, time=0),
    Message('note_off', channel=2, note=80, velocity=0, time=16),
    Message('note_off', channel=2, note=75, velocity=0, time=0),
    Message('note_off', channel=2, note=71, velocity=0, time=0),
    Message('note_on', channel=2, note=81, velocity=92, time=32),
    Message('note_on', channel=2, note=76, velocity=92, time=0),
    Message('note_on', channel=2, note=72, velocity=92, time=0),
    Message('note_off', channel=2, note=81, velocity=0, time=16),
    Message('note_off', channel=2, note=76, velocity=0, time=0),
    Message('note_off', channel=2, note=72, velocity=0, time=0),
    Message('note_on', channel=2, note=82, velocity=92, time=32),
    Message('note_on', channel=2, note=77, velocity=92, time=0),
    Message('note_on', channel=2, note=73, velocity=92, time=0),
    Message('note_off', channel=2, note=82, velocity=0, time=24),
    Message('note_off', channel=2, note=77, velocity=0, time=0),
    Message('note_off', channel=2, note=73, velocity=0, time=0),
    Message('note_on', channel=2, note=83, velocity=92, time=0),
    Message('note_on', channel=2, note=78, velocity=92, time=0),
    Message('note_on', channel=2, note=74, velocity=92, time=0),
    Message('note_off', channel=2, note=74, velocity=0, time=24),
    Message('note_off', channel=2, note=78, velocity=0, time=0),
    Message('note_off', channel=2, note=83, velocity=0, time=0),
    Message('note_on', channel=2, note=82, velocity=92, time=0),
    Message('note_on', channel=2, note=77, velocity=92, time=0),
    Message('note_on', channel=2, note=73, velocity=92, time=0),
    Message('note_off', channel=2, note=73, velocity=0, time=16),
    Message('note_off', channel=2, note=77, velocity=0, time=0),
    Message('note_off', channel=2, note=82, velocity=0, time=0),
    Message('note_on', channel=2, note=81, velocity=92, time=32),
    Message('note_on', channel=2, note=76, velocity=92, time=0),
    Message('note_on', channel=2, note=72, velocity=92, time=0),
    Message('note_off', channel=2, note=72, velocity=0, time=16),
    Message('note_off', channel=2, note=76, velocity=0, time=0),
    Message('note_off', channel=2, note=81, velocity=0, time=0),
    Message('note_on', channel=2, note=80, velocity=92, time=32),
    Message('note_on', channel=2, note=75, velocity=92, time=0),
    Message('note_on', channel=2, note=71, velocity=92, time=0),
    Message('note_off', channel=2, note=80, velocity=0, time=16),
    Message('note_off', channel=2, note=75, velocity=0, time=0),
    Message('note_off', channel=2, note=71, velocity=0, time=0),
    Message('note_on', channel=2, note=81, velocity=92, time=32),
    Message('note_on', channel=2, note=76, velocity=92, time=0),
    Message('note_on', channel=2, note=72, velocity=92, time=0),
    Message('note_off', channel=2, note=81, velocity=0, time=24),
    Message('note_off', channel=2, note=76, velocity=0, time=0),
    Message('note_off', channel=2, note=72, velocity=0, time=0),
    Message('note_on', channel=2, note=76, velocity=92, time=72),
    Message('note_on', channel=2, note=72, velocity=92, time=0),
    Message('note_on', channel=2, note=69, velocity=92, time=0),
    Message('note_off', channel=2, note=76, velocity=0, time=24),
    Message('note_off', channel=2, note=72, velocity=0, time=0),
    Message('note_off', channel=2, note=69, velocity=0, time=0),
    Message('note_on', channel=2, note=77, velocity=92, time=72),
    Message('note_on', channel=2, note=74, velocity=92, time=0),
    Message('note_on', channel=2, note=69, velocity=92, time=0),
    Message('note_off', channel=2, note=77, velocity=0, time=47),
    Message('note_off', channel=2, note=74, velocity=0, time=0),
    Message('note_off', channel=2, note=69, velocity=0, time=0),
    Message('note_on', channel=2, note=74, velocity=92, time=49),
    Message('note_on', channel=2, note=69, velocity=92, time=0),
    Message('note_on', channel=2, note=65, velocity=92, time=0),
    Message('note_off', channel=2, note=65, velocity=0, time=24),
    Message('note_off', channel=2, note=69, velocity=0, time=0),
    Message('note_off', channel=2, note=74, velocity=0, time=0),
    Message('note_on', channel=2, note=77, velocity=92, time=0),
    Message('note_on', channel=2, note=74, velocity=92, time=0),
    Message('note_on', channel=2, note=69, velocity=92, time=0),
    Message('note_off', channel=2, note=69, velocity=0, time=24),
    Message('note_off', channel=2, note=77, velocity=0, time=0),
    Message('note_off', channel=2, note=74, velocity=0, time=0),
    Message('note_on', channel=2, note=81, velocity=92, time=0),
    Message('note_on', channel=2, note=77, velocity=92, time=0),
    Message('note_on', channel=2, note=74, velocity=92, time=0),
    Message('note_off', channel=2, note=74, velocity=0, time=24),
    Message('note_off', channel=2, note=77, velocity=0, time=0),
    Message('note_off', channel=2, note=81, velocity=0, time=0),
    Message('note_on', channel=2, note=85, velocity=92, time=0),
    Message('note_on', channel=2, note=80, velocity=92, time=0),
    Message('note_on', channel=2, note=76, velocity=92, time=0),
    Message('note_off', channel=2, note=76, velocity=0, time=24),
    Message('note_off', channel=2, note=80, velocity=0, time=0),
    Message('note_off', channel=2, note=85, velocity=0, time=0),
    Message('note_on', channel=2, note=86, velocity=92, time=0),
    Message('note_on', channel=2, note=81, velocity=92, time=0),
    Message('note_on', channel=2, note=77, velocity=92, time=0),
    Message('note_off', channel=2, note=77, velocity=0, time=16),
    Message('note_off', channel=2, note=81, velocity=0, time=0),
    Message('note_off', channel=2, note=86, velocity=0, time=0),
    Message('note_on', channel=2, note=81, velocity=92, time=80),
    Message('note_on', channel=2, note=77, velocity=92, time=0),
    Message('note_on', channel=2, note=74, velocity=92, time=0),
    Message('note_off', channel=2, note=81, velocity=0, time=24),
    Message('note_off', channel=2, note=77, velocity=0, time=0),
    Message('note_off', channel=2, note=74, velocity=0, time=0),
    Message('note_on', channel=2, note=82, velocity=92, time=0),
    Message('note_on', channel=2, note=78, velocity=92, time=0),
    Message('note_on', channel=2, note=75, velocity=92, time=0),
    Message('note_off', channel=2, note=75, velocity=0, time=24),
    Message('note_off', channel=2, note=78, velocity=0, time=0),
    Message('note_off', channel=2, note=82, velocity=0, time=0),
    Message('note_on', channel=2, note=81, velocity=92, time=0),
    Message('note_on', channel=2, note=77, velocity=92, time=0),
    Message('note_on', channel=2, note=74, velocity=92, time=0),
    Message('note_off', channel=2, note=74, velocity=0, time=16),
    Message('note_off', channel=2, note=77, velocity=0, time=0),
    Message('note_off', channel=2, note=81, velocity=0, time=0),
    Message('note_on', channel=2, note=76, velocity=92, time=32),
    Message('note_on', channel=2, note=69, velocity=92, time=0),
    Message('note_on', channel=2, note=64, velocity=92, time=0),
    Message('note_off', channel=2, note=64, velocity=0, time=47),
    Message('note_off', channel=2, note=69, velocity=0, time=0),
    Message('note_off', channel=2, note=76, velocity=0, time=0),
    Message('note_on', channel=2, note=76, velocity=92, time=49),
    Message('note_on', channel=2, note=69, velocity=92, time=0),
    Message('note_on', channel=2, note=60, velocity=92, time=0),
    Message('note_off', channel=2, note=76, velocity=0, time=16),
    Message('note_off', channel=2, note=69, velocity=0, time=0),
    Message('note_off', channel=2, note=60, velocity=0, time=0),
    Message('note_on', channel=2, note=81, velocity=92, time=32),
    Message('note_on', channel=2, note=72, velocity=92, time=0),
    Message('note_on', channel=2, note=64, velocity=92, time=0),
    Message('note_off', channel=2, note=81, velocity=0, time=16),
    Message('note_off', channel=2, note=72, velocity=0, time=0),
    Message('note_off', channel=2, note=64, velocity=0, time=0),
    Message('note_on', channel=2, note=80, velocity=92, time=32),
    Message('note_on', channel=2, note=75, velocity=92, time=0),
    Message('note_on', channel=2, note=71, velocity=92, time=0),
    Message('note_off', channel=2, note=80, velocity=0, time=12),
    Message('note_off', channel=2, note=75, velocity=0, time=0),
    Message('note_off', channel=2, note=71, velocity=0, time=0),
    Message('note_on', channel=2, note=81, velocity=92, time=0),
    Message('note_on', channel=2, note=76, velocity=92, time=0),
    Message('note_on', channel=2, note=72, velocity=92, time=0),
    Message('note_off', channel=2, note=72, velocity=0, time=12),
    Message('note_off', channel=2, note=76, velocity=0, time=0),
    Message('note_off', channel=2, note=81, velocity=0, time=0),
    Message('note_on', channel=2, note=80, velocity=92, time=0),
    Message('note_on', channel=2, note=75, velocity=92, time=0),
    Message('note_on', channel=2, note=71, velocity=92, time=0),
    Message('note_off', channel=2, note=71, velocity=0, time=12),
    Message('note_off', channel=2, note=75, velocity=0, time=0),
    Message('note_off', channel=2, note=80, velocity=0, time=0),
    Message('note_on', channel=2, note=81, velocity=92, time=0),
    Message('note_on', channel=2, note=76, velocity=92, time=0),
    Message('note_on', channel=2, note=72, velocity=92, time=0),
    Message('note_off', channel=2, note=72, velocity=0, time=12),
    Message('note_off', channel=2, note=76, velocity=0, time=0),
    Message('note_off', channel=2, note=81, velocity=0, time=0),
    Message('note_on', channel=2, note=80, velocity=92, time=0),
    Message('note_on', channel=2, note=75, velocity=92, time=0),
    Message('note_on', channel=2, note=71, velocity=92, time=0),
    Message('note_off', channel=2, note=71, velocity=0, time=12),
    Message('note_off', channel=2, note=75, velocity=0, time=0),
    Message('note_off', channel=2, note=80, velocity=0, time=0),
    Message('note_on', channel=2, note=81, velocity=92, time=0),
    Message('note_on', channel=2, note=76, velocity=92, time=0),
    Message('note_on', channel=2, note=72, velocity=92, time=0),
    Message('note_off', channel=2, note=72, velocity=0, time=12),
    Message('note_off', channel=2, note=76, velocity=0, time=0),
    Message('note_off', channel=2, note=81, velocity=0, time=0),
    Message('note_on', channel=2, note=80, velocity=92, time=0),
    Message('note_on', channel=2, note=75, velocity=92, time=0),
    Message('note_on', channel=2, note=71, velocity=92, time=0),
    Message('note_off', channel=2, note=71, velocity=0, time=12),
    Message('note_off', channel=2, note=75, velocity=0, time=0),
    Message('note_off', channel=2, note=80, velocity=0, time=0),
    Message('note_on', channel=2, note=81, velocity=92, time=0),
    Message('note_on', channel=2, note=76, velocity=92, time=0),
    Message('note_on', channel=2, note=72, velocity=92, time=0),
    Message('note_off', channel=2, note=72, velocity=0, time=12),
    Message('note_off', channel=2, note=76, velocity=0, time=0),
    Message('note_off', channel=2, note=81, velocity=0, time=0),
    Message('note_on', channel=2, note=80, velocity=92, time=0),
    Message('note_on', channel=2, note=75, velocity=92, time=0),
    Message('note_on', channel=2, note=71, velocity=92, time=0),
    Message('note_off', channel=2, note=71, velocity=0, time=12),
    Message('note_off', channel=2, note=75, velocity=0, time=0),
    Message('note_off', channel=2, note=80, velocity=0, time=0),
    Message('note_on', channel=2, note=81, velocity=92, time=0),
    Message('note_on', channel=2, note=76, velocity=92, time=0),
    Message('note_on', channel=2, note=72, velocity=92, time=0),
    Message('note_off', channel=2, note=72, velocity=0, time=12),
    Message('note_off', channel=2, note=76, velocity=0, time=0),
    Message('note_off', channel=2, note=81, velocity=0, time=0),
    Message('note_on', channel=2, note=80, velocity=92, time=0),
    Message('note_on', channel=2, note=75, velocity=92, time=0),
    Message('note_on', channel=2, note=71, velocity=92, time=0),
    Message('note_off', channel=2, note=71, velocity=0, time=12),
    Message('note_off', channel=2, note=75, velocity=0, time=0),
    Message('note_off', channel=2, note=80, velocity=0, time=0),
    Message('note_on', channel=2, note=81, velocity=92, time=0),
    Message('note_on', channel=2, note=76, velocity=92, time=0),
    Message('note_on', channel=2, note=72, velocity=92, time=0),
    Message('note_off', channel=2, note=72, velocity=0, time=12),
    Message('note_off', channel=2, note=76, velocity=0, time=0),
    Message('note_off', channel=2, note=81, velocity=0, time=0),
    Message('note_on', channel=2, note=80, velocity=92, time=0),
    Message('note_on', channel=2, note=75, velocity=92, time=0),
    Message('note_on', channel=2, note=71, velocity=92, time=0),
    Message('note_off', channel=2, note=71, velocity=0, time=12),
    Message('note_off', channel=2, note=75, velocity=0, time=0),
    Message('note_off', channel=2, note=80, velocity=0, time=0),
    Message('note_on', channel=2, note=81, velocity=92, time=0),
    Message('note_on', channel=2, note=76, velocity=92, time=0),
    Message('note_on', channel=2, note=72, velocity=92, time=0),
    Message('note_off', channel=2, note=72, velocity=0, time=12),
    Message('note_off', channel=2, note=76, velocity=0, time=0),
    Message('note_off', channel=2, note=81, velocity=0, time=0),
    Message('note_on', channel=2, note=80, velocity=92, time=0),
    Message('note_on', channel=2, note=75, velocity=92, time=0),
    Message('note_on', channel=2, note=71, velocity=92, time=0),
    Message('note_off', channel=2, note=71, velocity=0, time=12),
    Message('note_off', channel=2, note=75, velocity=0, time=0),
    Message('note_off', channel=2, note=80, velocity=0, time=0),
    Message('note_on', channel=2, note=81, velocity=92, time=0),
    Message('note_on', channel=2, note=76, velocity=92, time=0),
    Message('note_on', channel=2, note=72, velocity=92, time=0),
    Message('note_off', channel=2, note=72, velocity=0, time=11),
    Message('note_off', channel=2, note=76, velocity=0, time=0),
    Message('note_off', channel=2, note=81, velocity=0, time=0),
    Message('note_on', channel=2, note=81, velocity=92, time=1),
    Message('note_on', channel=2, note=76, velocity=92, time=0),
    Message('note_on', channel=2, note=72, velocity=92, time=0),
    Message('note_off', channel=2, note=72, velocity=0, time=47),
    Message('note_off', channel=2, note=76, velocity=0, time=0),
    Message('note_off', channel=2, note=81, velocity=0, time=0),
    Message('note_on', channel=2, note=81, velocity=92, time=49),
    Message('note_on', channel=2, note=76, velocity=92, time=0),
    Message('note_on', channel=2, note=72, velocity=92, time=0),
    Message('note_off', channel=2, note=72, velocity=0, time=24),
    Message('note_off', channel=2, note=76, velocity=0, time=0),
    Message('note_off', channel=2, note=81, velocity=0, time=0),
    Message('note_on', channel=2, note=82, velocity=92, time=0),
    Message('note_on', channel=2, note=77, velocity=92, time=0),
    Message('note_on', channel=2, note=73, velocity=92, time=0),
    Message('note_off', channel=2, note=73, velocity=0, time=24),
    Message('note_off', channel=2, note=82, velocity=0, time=0),
    Message('note_off', channel=2, note=77, velocity=0, time=0),
    Message('note_on', channel=2, note=81, velocity=92, time=0),
    Message('note_on', channel=2, note=76, velocity=92, time=0),
    Message('note_on', channel=2, note=72, velocity=92, time=0),
    Message('note_off', channel=2, note=72, velocity=0, time=16),
    Message('note_off', channel=2, note=76, velocity=0, time=0),
    Message('note_off', channel=2, note=81, velocity=0, time=0),
    Message('note_on', channel=2, note=76, velocity=92, time=32),
    Message('note_on', channel=2, note=72, velocity=92, time=0),
    Message('note_on', channel=2, note=69, velocity=92, time=0),
    Message('note_off', channel=2, note=76, velocity=0, time=16),
    Message('note_off', channel=2, note=72, velocity=0, time=0),
    Message('note_off', channel=2, note=69, velocity=0, time=0),
    Message('note_on', channel=2, note=76, velocity=92, time=32),
    Message('note_on', channel=2, note=72, velocity=92, time=0),
    Message('note_on', channel=2, note=69, velocity=92, time=0),
    Message('note_off', channel=2, note=76, velocity=0, time=16),
    Message('note_off', channel=2, note=72, velocity=0, time=0),
    Message('note_off', channel=2, note=69, velocity=0, time=0),
    Message('note_on', channel=2, note=75, velocity=92, time=32),
    Message('note_on', channel=2, note=71, velocity=92, time=0),
    Message('note_on', channel=2, note=68, velocity=92, time=0),
    Message('note_off', channel=2, note=75, velocity=0, time=16),
    Message('note_off', channel=2, note=71, velocity=0, time=0),
    Message('note_off', channel=2, note=68, velocity=0, time=0),
    Message('note_on', channel=2, note=76, velocity=92, time=32),
    Message('note_on', channel=2, note=72, velocity=92, time=0),
    Message('note_on', channel=2, note=69, velocity=92, time=0),
    Message('note_off', channel=2, note=76, velocity=0, time=16),
    Message('note_off', channel=2, note=72, velocity=0, time=0),
    Message('note_off', channel=2, note=69, velocity=0, time=0),
    Message('note_on', channel=2, note=79, velocity=92, time=32),
    Message('note_on', channel=2, note=75, velocity=92, time=0),
    Message('note_on', channel=2, note=72, velocity=92, time=0),
    Message('note_off', channel=2, note=79, velocity=0, time=96),
    Message('note_off', channel=2, note=75, velocity=0, time=0),
    Message('note_off', channel=2, note=72, velocity=0, time=0),
    Message('note_on', channel=2, note=77, velocity=92, time=0),
    Message('note_on', channel=2, note=73, velocity=92, time=0),
    Message('note_on', channel=2, note=70, velocity=92, time=0),
    Message('note_off', channel=2, note=70, velocity=0, time=16),
    Message('note_off', channel=2, note=73, velocity=0, time=0),
    Message('note_off', channel=2, note=77, velocity=0, time=0),
    Message('note_on', channel=2, note=76, velocity=92, time=32),
    Message('note_on', channel=2, note=72, velocity=92, time=0),
    Message('note_on', channel=2, note=69, velocity=92, time=0),
    Message('note_off', channel=2, note=76, velocity=0, time=16),
    Message('note_off', channel=2, note=72, velocity=0, time=0),
    Message('note_off', channel=2, note=69, velocity=0, time=0),
    Message('note_on', channel=2, note=77, velocity=92, time=32),
    Message('note_on', channel=2, note=73, velocity=92, time=0),
    Message('note_on', channel=2, note=70, velocity=92, time=0),
    Message('note_off', channel=2, note=77, velocity=0, time=24),
    Message('note_off', channel=2, note=73, velocity=0, time=0),
    Message('note_off', channel=2, note=70, velocity=0, time=0),
    Message('note_on', channel=2, note=65, velocity=92, time=72),
    Message('note_on', channel=2, note=61, velocity=92, time=0),
    Message('note_on', channel=2, note=58, velocity=92, time=0),
    Message('note_off', channel=2, note=65, velocity=0, time=24),
    Message('note_off', channel=2, note=61, velocity=0, time=0),
    Message('note_off', channel=2, note=58, velocity=0, time=0),
    Message('note_on', channel=2, note=70, velocity=92, time=0),
    Message('note_on', channel=2, note=65, velocity=92, time=0),
    Message('note_on', channel=2, note=61, velocity=92, time=0),
    Message('note_off', channel=2, note=61, velocity=0, time=24),
    Message('note_off', channel=2, note=65, velocity=0, time=0),
    Message('note_off', channel=2, note=70, velocity=0, time=0),
    Message('note_on', channel=2, note=73, velocity=92, time=0),
    Message('note_on', channel=2, note=70, velocity=92, time=0),
    Message('note_on', channel=2, note=65, velocity=92, time=0),
    Message('note_off', channel=2, note=65, velocity=0, time=24),
    Message('note_off', channel=2, note=70, velocity=0, time=0),
    Message('note_off', channel=2, note=73, velocity=0, time=0),
    Message('note_on', channel=2, note=76, velocity=92, time=0),
    Message('note_on', channel=2, note=72, velocity=92, time=0),
    Message('note_on', channel=2, note=69, velocity=92, time=0),
    Message('note_off', channel=2, note=69, velocity=0, time=23),
    Message('note_off', channel=2, note=72, velocity=0, time=0),
    Message('note_off', channel=2, note=76, velocity=0, time=0),
    Message('note_on', channel=2, note=77, velocity=92, time=1),
    Message('note_on', channel=2, note=73, velocity=92, time=0),
    Message('note_on', channel=2, note=70, velocity=92, time=0),
    Message('note_off', channel=2, note=70, velocity=0, time=96),
    Message('note_off', channel=2, note=73, velocity=0, time=0),
    Message('note_off', channel=2, note=77, velocity=0, time=0),
    Message('note_on', channel=2, note=76, velocity=92, time=0),
    Message('note_on', channel=2, note=72, velocity=92, time=0),
    Message('note_on', channel=2, note=69, velocity=92, time=0),
    Message('note_off', channel=2, note=69, velocity=0, time=16),
    Message('note_off', channel=2, note=72, velocity=0, time=0),
    Message('note_off', channel=2, note=76, velocity=0, time=0),
    Message('note_on', channel=2, note=75, velocity=92, time=32),
    Message('note_on', channel=2, note=71, velocity=92, time=0),
    Message('note_on', channel=2, note=68, velocity=92, time=0),
    Message('note_off', channel=2, note=75, velocity=0, time=16),
    Message('note_off', channel=2, note=71, velocity=0, time=0),
    Message('note_off', channel=2, note=68, velocity=0, time=0),
    Message('note_on', channel=2, note=76, velocity=92, time=32),
    Message('note_on', channel=2, note=72, velocity=92, time=0),
    Message('note_on', channel=2, note=69, velocity=92, time=0),
    Message('note_off', channel=2, note=76, velocity=0, time=24),
    Message('note_off', channel=2, note=72, velocity=0, time=0),
    Message('note_off', channel=2, note=69, velocity=0, time=0),
    Message('note_on', channel=2, note=64, velocity=92, time=72),
    Message('note_on', channel=2, note=60, velocity=92, time=0),
    Message('note_on', channel=2, note=57, velocity=92, time=0),
    Message('note_off', channel=2, note=64, velocity=0, time=24),
    Message('note_off', channel=2, note=60, velocity=0, time=0),
    Message('note_off', channel=2, note=57, velocity=0, time=0),
    Message('note_on', channel=2, note=69, velocity=92, time=0),
    Message('note_on', channel=2, note=64, velocity=92, time=0),
    Message('note_on', channel=2, note=60, velocity=92, time=0),
    Message('note_off', channel=2, note=60, velocity=0, time=24),
    Message('note_off', channel=2, note=64, velocity=0, time=0),
    Message('note_off', channel=2, note=69, velocity=0, time=0),
    Message('note_on', channel=2, note=72, velocity=92, time=0),
    Message('note_on', channel=2, note=69, velocity=92, time=0),
    Message('note_on', channel=2, note=64, velocity=92, time=0),
    Message('note_off', channel=2, note=64, velocity=0, time=24),
    Message('note_off', channel=2, note=69, velocity=0, time=0),
    Message('note_off', channel=2, note=72, velocity=0, time=0),
    Message('note_on', channel=2, note=76, velocity=92, time=0),
    Message('note_on', channel=2, note=72, velocity=92, time=0),
    Message('note_on', channel=2, note=69, velocity=92, time=0),
    Message('note_off', channel=2, note=69, velocity=0, time=24),
    Message('note_off', channel=2, note=72, velocity=0, time=0),
    Message('note_off', channel=2, note=76, velocity=0, time=0),
    Message('control_change', channel=2, control=7, value=100, time=0),
    Message('note_on', channel=2, note=77, velocity=75, time=0),
    Message('note_on', channel=2, note=65, velocity=75, time=0),
    Message('note_off', channel=2, note=65, velocity=0, time=16),
    Message('note_off', channel=2, note=77, velocity=0, time=0),
    Message('control_change', channel=2, control=7, value=101, time=3),
    Message('note_on', channel=2, note=70, velocity=77, time=5),
    Message('control_change', channel=2, control=7, value=102, time=14),
    Message('note_off', channel=2, note=70, velocity=0, time=10),
    Message('note_on', channel=2, note=71, velocity=79, time=0),
    Message('control_change', channel=2, control=7, value=103, time=9),
    Message('note_off', channel=2, note=71, velocity=0, time=15),
    Message('note_on', channel=2, note=72, velocity=81, time=0),
    Message('control_change', channel=2, control=7, value=104, time=4),
    Message('note_off', channel=2, note=72, velocity=0, time=20),
    Message('control_change', channel=2, control=7, value=105, time=0),
    Message('note_on', channel=2, note=73, velocity=83, time=0),
    Message('control_change', channel=2, control=7, value=106, time=19),
    Message('note_off', channel=2, note=73, velocity=0, time=5),
    Message('note_on', channel=2, note=74, velocity=85, time=0),
    Message('control_change', channel=2, control=7, value=107, time=14),
    Message('note_off', channel=2, note=74, velocity=0, time=10),
    Message('note_on', channel=2, note=75, velocity=87, time=0),
    Message('control_change', channel=2, control=7, value=108, time=9),
    Message('note_off', channel=2, note=75, velocity=0, time=15),
    Message('note_on', channel=2, note=76, velocity=89, time=0),
    Message('control_change', channel=2, control=7, value=109, time=4),
    Message('note_off', channel=2, note=76, velocity=0, time=19),
    Message('control_change', channel=2, control=7, value=110, time=1),
    Message('note_on', channel=2, note=77, velocity=92, time=0),
    Message('control_change', channel=2, control=7, value=109, time=19),
    Message('note_off', channel=2, note=77, velocity=0, time=5),
    Message('note_on', channel=2, note=76, velocity=90, time=0),
    Message('control_change', channel=2, control=7, value=108, time=14),
    Message('note_off', channel=2, note=76, velocity=0, time=10),
    Message('note_on', channel=2, note=74, velocity=88, time=0),
    Message('control_change', channel=2, control=7, value=107, time=9),
    Message('note_off', channel=2, note=74, velocity=0, time=15),
    Message('note_on', channel=2, note=73, velocity=86, time=0),
    Message('control_change', channel=2, control=7, value=106, time=4),
    Message('note_off', channel=2, note=73, velocity=0, time=20),
    Message('control_change', channel=2, control=7, value=105, time=0),
    Message('note_on', channel=2, note=72, velocity=84, time=0),
    Message('control_change', channel=2, control=7, value=104, time=19),
    Message('note_off', channel=2, note=72, velocity=0, time=5),
    Message('note_on', channel=2, note=71, velocity=82, time=0),
    Message('control_change', channel=2, control=7, value=103, time=14),
    Message('note_off', channel=2, note=71, velocity=0, time=10),
    Message('note_on', channel=2, note=70, velocity=80, time=0),
    Message('control_change', channel=2, control=7, value=102, time=9),
    Message('note_off', channel=2, note=70, velocity=0, time=15),
    Message('note_on', channel=2, note=69, velocity=78, time=0),
    Message('control_change', channel=2, control=7, value=101, time=4),
    Message('note_off', channel=2, note=69, velocity=0, time=19),
    Message('control_change', channel=2, control=7, value=100, time=1),
    Message('note_on', channel=2, note=68, velocity=75, time=0),
    Message('control_change', channel=2, control=7, value=101, time=19),
    Message('note_off', channel=2, note=68, velocity=0, time=4),
    Message('note_on', channel=2, note=69, velocity=77, time=1),
    Message('control_change', channel=2, control=7, value=102, time=14),
    Message('note_off', channel=2, note=69, velocity=0, time=9),
    Message('note_on', channel=2, note=70, velocity=79, time=1),
    Message('control_change', channel=2, control=7, value=103, time=9),
    Message('note_off', channel=2, note=70, velocity=0, time=14),
    Message('note_on', channel=2, note=71, velocity=81, time=1),
    Message('control_change', channel=2, control=7, value=104, time=4),
    Message('note_off', channel=2, note=71, velocity=0, time=19),
    Message('control_change', channel=2, control=7, value=105, time=1),
    Message('note_on', channel=2, note=72, velocity=83, time=0),
    Message('control_change', channel=2, control=7, value=106, time=19),
    Message('note_off', channel=2, note=72, velocity=0, time=4),
    Message('note_on', channel=2, note=73, velocity=85, time=1),
    Message('control_change', channel=2, control=7, value=107, time=14),
    Message('note_off', channel=2, note=73, velocity=0, time=9),
    Message('note_on', channel=2, note=74, velocity=87, time=1),
    Message('control_change', channel=2, control=7, value=108, time=9),
    Message('note_off', channel=2, note=74, velocity=0, time=14),
    Message('note_on', channel=2, note=75, velocity=89, time=1),
    Message('control_change', channel=2, control=7, value=109, time=4),
    Message('note_off', channel=2, note=75, velocity=0, time=19),
    Message('control_change', channel=2, control=7, value=110, time=1),
    Message('note_on', channel=2, note=76, velocity=92, time=0),
    Message('control_change', channel=2, control=7, value=109, time=19),
    Message('note_off', channel=2, note=76, velocity=0, time=4),
    Message('note_on', channel=2, note=77, velocity=90, time=1),
    Message('control_change', channel=2, control=7, value=108, time=14),
    Message('note_off', channel=2, note=77, velocity=0, time=9),
    Message('note_on', channel=2, note=76, velocity=88, time=1),
    Message('control_change', channel=2, control=7, value=107, time=9),
    Message('note_off', channel=2, note=76, velocity=0, time=14),
    Message('note_on', channel=2, note=74, velocity=86, time=1),
    Message('control_change', channel=2, control=7, value=106, time=4),
    Message('note_off', channel=2, note=74, velocity=0, time=19),
    Message('control_change', channel=2, control=7, value=105, time=1),
    Message('note_on', channel=2, note=73, velocity=84, time=0),
    Message('control_change', channel=2, control=7, value=104, time=19),
    Message('note_off', channel=2, note=73, velocity=0, time=4),
    Message('note_on', channel=2, note=72, velocity=82, time=1),
    Message('control_change', channel=2, control=7, value=103, time=14),
    Message('note_off', channel=2, note=72, velocity=0, time=9),
    Message('note_on', channel=2, note=71, velocity=80, time=1),
    Message('control_change', channel=2, control=7, value=102, time=9),
    Message('note_off', channel=2, note=71, velocity=0, time=14),
    Message('note_on', channel=2, note=70, velocity=78, time=1),
    Message('control_change', channel=2, control=7, value=101, time=4),
    Message('note_off', channel=2, note=70, velocity=0, time=19),
    Message('control_change', channel=2, control=7, value=100, time=1),
    Message('note_on', channel=2, note=60, velocity=75, time=0),
    Message('note_off', channel=2, note=60, velocity=0, time=32),
    Message('note_on', channel=2, note=59, velocity=75, time=0),
    Message('note_off', channel=2, note=59, velocity=0, time=32),
    Message('note_on', channel=2, note=60, velocity=75, time=0),
    Message('note_off', channel=2, note=60, velocity=0, time=32),
    Message('note_on', channel=2, note=62, velocity=75, time=0),
    Message('note_off', channel=2, note=62, velocity=0, time=32),
    Message('note_on', channel=2, note=60, velocity=75, time=0),
    Message('note_off', channel=2, note=60, velocity=0, time=32),
    Message('note_on', channel=2, note=59, velocity=75, time=0),
    Message('note_off', channel=2, note=59, velocity=0, time=31),
    Message('note_on', channel=2, note=60, velocity=75, time=1),
    Message('note_off', channel=2, note=60, velocity=0, time=32),
    Message('note_on', channel=2, note=59, velocity=75, time=0),
    Message('note_off', channel=2, note=59, velocity=0, time=32),
    Message('note_on', channel=2, note=57, velocity=75, time=0),
    Message('note_off', channel=2, note=57, velocity=0, time=32),
    Message('note_on', channel=2, note=59, velocity=75, time=0),
    Message('note_off', channel=2, note=59, velocity=0, time=32),
    Message('note_on', channel=2, note=57, velocity=75, time=0),
    Message('note_off', channel=2, note=57, velocity=0, time=32),
    Message('note_on', channel=2, note=56, velocity=75, time=0),
    Message('note_off', channel=2, note=56, velocity=0, time=31),
    Message('note_on', channel=2, note=60, velocity=75, time=1),
    Message('note_off', channel=2, note=60, velocity=0, time=32),
    Message('note_on', channel=2, note=59, velocity=75, time=0),
    Message('note_off', channel=2, note=59, velocity=0, time=32),
    Message('note_on', channel=2, note=60, velocity=75, time=0),
    Message('note_off', channel=2, note=60, velocity=0, time=32),
    Message('note_on', channel=2, note=62, velocity=75, time=0),
    Message('note_off', channel=2, note=62, velocity=0, time=32),
    Message('note_on', channel=2, note=60, velocity=75, time=0),
    Message('note_off', channel=2, note=60, velocity=0, time=32),
    Message('note_on', channel=2, note=59, velocity=75, time=0),
    Message('note_off', channel=2, note=59, velocity=0, time=31),
    Message('note_on', channel=2, note=60, velocity=75, time=1),
    Message('note_off', channel=2, note=60, velocity=0, time=32),
    Message('note_on', channel=2, note=59, velocity=75, time=0),
    Message('note_off', channel=2, note=59, velocity=0, time=32),
    Message('note_on', channel=2, note=57, velocity=75, time=0),
    Message('note_off', channel=2, note=57, velocity=0, time=32),
    Message('note_on', channel=2, note=56, velocity=75, time=0),
    Message('note_off', channel=2, note=56, velocity=0, time=32),
    Message('note_on', channel=2, note=57, velocity=75, time=0),
    Message('note_off', channel=2, note=57, velocity=0, time=32),
    Message('note_on', channel=2, note=59, velocity=75, time=0),
    Message('note_off', channel=2, note=59, velocity=0, time=31),
    Message('note_on', channel=2, note=60, velocity=75, time=1),
    Message('note_off', channel=2, note=60, velocity=0, time=32),
    Message('note_on', channel=2, note=59, velocity=75, time=0),
    Message('note_off', channel=2, note=59, velocity=0, time=32),
    Message('note_on', channel=2, note=57, velocity=75, time=0),
    Message('note_off', channel=2, note=57, velocity=0, time=32),
    Message('note_on', channel=2, note=56, velocity=75, time=0),
    Message('note_off', channel=2, note=56, velocity=0, time=32),
    Message('note_on', channel=2, note=57, velocity=75, time=0),
    Message('note_off', channel=2, note=57, velocity=0, time=32),
    Message('note_on', channel=2, note=59, velocity=75, time=0),
    Message('note_off', channel=2, note=59, velocity=0, time=31),
    Message('note_on', channel=2, note=57, velocity=75, time=1),
    Message('note_off', channel=2, note=57, velocity=0, time=32),
    Message('note_on', channel=2, note=59, velocity=75, time=0),
    Message('note_off', channel=2, note=59, velocity=0, time=32),
    Message('note_on', channel=2, note=60, velocity=75, time=0),
    Message('note_off', channel=2, note=60, velocity=0, time=32),
    Message('note_on', channel=2, note=59, velocity=75, time=0),
    Message('note_off', channel=2, note=59, velocity=0, time=32),
    Message('note_on', channel=2, note=60, velocity=75, time=0),
    Message('note_off', channel=2, note=60, velocity=0, time=32),
    Message('note_on', channel=2, note=62, velocity=75, time=0),
    Message('note_off', channel=2, note=62, velocity=0, time=31),
    Message('note_on', channel=2, note=60, velocity=75, time=1),
    Message('note_off', channel=2, note=60, velocity=0, time=32),
    Message('note_on', channel=2, note=59, velocity=75, time=0),
    Message('note_off', channel=2, note=59, velocity=0, time=32),
    Message('note_on', channel=2, note=57, velocity=75, time=0),
    Message('note_off', channel=2, note=57, velocity=0, time=32),
    Message('note_on', channel=2, note=56, velocity=75, time=0),
    Message('note_off', channel=2, note=56, velocity=0, time=32),
    Message('note_on', channel=2, note=57, velocity=75, time=0),
    Message('note_off', channel=2, note=57, velocity=0, time=32),
    Message('note_on', channel=2, note=60, velocity=75, time=0),
    Message('note_off', channel=2, note=60, velocity=0, time=31),
    Message('note_on', channel=2, note=64, velocity=75, time=1),
    Message('note_off', channel=2, note=64, velocity=0, time=32),
    Message('note_on', channel=2, note=62, velocity=75, time=0),
    Message('note_off', channel=2, note=62, velocity=0, time=32),
    Message('note_on', channel=2, note=60, velocity=75, time=0),
    Message('note_off', channel=2, note=60, velocity=0, time=32),
    Message('note_on', channel=2, note=59, velocity=75, time=0),
    Message('note_off', channel=2, note=59, velocity=0, time=32),
    Message('note_on', channel=2, note=60, velocity=75, time=0),
    Message('note_off', channel=2, note=60, velocity=0, time=32),
    Message('note_on', channel=2, note=62, velocity=75, time=0),
    Message('note_off', channel=2, note=62, velocity=0, time=31),
    Message('note_on', channel=2, note=60, velocity=75, time=1),
    Message('note_off', channel=2, note=60, velocity=0, time=32),
    Message('note_on', channel=2, note=59, velocity=75, time=0),
    Message('note_off', channel=2, note=59, velocity=0, time=32),
    Message('note_on', channel=2, note=57, velocity=75, time=0),
    Message('note_off', channel=2, note=57, velocity=0, time=32),
    Message('note_on', channel=2, note=65, velocity=75, time=0),
    Message('note_off', channel=2, note=65, velocity=0, time=32),
    Message('note_on', channel=2, note=64, velocity=75, time=0),
    Message('note_off', channel=2, note=64, velocity=0, time=32),
    Message('note_on', channel=2, note=62, velocity=75, time=0),
    Message('note_off', channel=2, note=62, velocity=0, time=31),
    Message('note_on', channel=2, note=64, velocity=75, time=1),
    Message('note_off', channel=2, note=64, velocity=0, time=32),
    Message('note_on', channel=2, note=62, velocity=75, time=0),
    Message('note_off', channel=2, note=62, velocity=0, time=32),
    Message('note_on', channel=2, note=60, velocity=75, time=0),
    Message('note_off', channel=2, note=60, velocity=0, time=32),
    Message('note_on', channel=2, note=62, velocity=75, time=0),
    Message('note_off', channel=2, note=62, velocity=0, time=32),
    Message('note_on', channel=2, note=60, velocity=75, time=0),
    Message('note_off', channel=2, note=60, velocity=0, time=32),
    Message('note_on', channel=2, note=59, velocity=75, time=0),
    Message('note_off', channel=2, note=59, velocity=0, time=31),
    Message('note_on', channel=2, note=60, velocity=75, time=1),
    Message('note_off', channel=2, note=60, velocity=0, time=32),
    Message('note_on', channel=2, note=59, velocity=75, time=0),
    Message('note_off', channel=2, note=59, velocity=0, time=32),
    Message('note_on', channel=2, note=60, velocity=75, time=0),
    Message('note_off', channel=2, note=60, velocity=0, time=31),
    Message('note_on', channel=2, note=62, velocity=105, time=1),
    Message('note_off', channel=2, note=62, velocity=0, time=32),
    Message('note_on', channel=2, note=60, velocity=75, time=0),
    Message('note_off', channel=2, note=60, velocity=0, time=32),
    Message('note_on', channel=2, note=59, velocity=75, time=0),
    Message('note_off', channel=2, note=59, velocity=0, time=32),
    Message('note_on', channel=2, note=60, velocity=75, time=0),
    Message('note_off', channel=2, note=60, velocity=0, time=32),
    Message('note_on', channel=2, note=59, velocity=75, time=0),
    Message('note_off', channel=2, note=59, velocity=0, time=32),
    Message('note_on', channel=2, note=57, velocity=75, time=0),
    Message('note_off', channel=2, note=57, velocity=0, time=32),
    Message('note_on', channel=2, note=59, velocity=75, time=0),
    Message('note_off', channel=2, note=59, velocity=0, time=32),
    Message('note_on', channel=2, note=57, velocity=75, time=0),
    Message('note_off', channel=2, note=57, velocity=0, time=32),
    Message('note_on', channel=2, note=56, velocity=75, time=0),
    Message('note_off', channel=2, note=56, velocity=0, time=31),
    Message('note_on', channel=2, note=60, velocity=75, time=1),
    Message('note_off', channel=2, note=60, velocity=0, time=32),
    Message('note_on', channel=2, note=59, velocity=75, time=0),
    Message('note_off', channel=2, note=59, velocity=0, time=32),
    Message('note_on', channel=2, note=57, velocity=75, time=0),
    Message('note_off', channel=2, note=57, velocity=0, time=32),
    Message('note_on', channel=2, note=56, velocity=75, time=0),
    Message('note_off', channel=2, note=56, velocity=0, time=32),
    Message('note_on', channel=2, note=57, velocity=75, time=0),
    Message('note_off', channel=2, note=57, velocity=0, time=32),
    Message('note_on', channel=2, note=59, velocity=75, time=0),
    Message('note_off', channel=2, note=59, velocity=0, time=31),
    Message('note_on', channel=2, note=57, velocity=75, time=1),
    Message('note_off', channel=2, note=57, velocity=0, time=32),
    Message('note_on', channel=2, note=59, velocity=75, time=0),
    Message('note_off', channel=2, note=59, velocity=0, time=32),
    Message('note_on', channel=2, note=60, velocity=75, time=0),
    Message('note_off', channel=2, note=60, velocity=0, time=32),
    Message('note_on', channel=2, note=59, velocity=75, time=0),
    Message('note_off', channel=2, note=59, velocity=0, time=32),
    Message('note_on', channel=2, note=60, velocity=75, time=0),
    Message('note_off', channel=2, note=60, velocity=0, time=32),
    Message('note_on', channel=2, note=62, velocity=75, time=0),
    Message('note_off', channel=2, note=62, velocity=0, time=31),
    Message('note_on', channel=2, note=60, velocity=75, time=1),
    Message('note_off', channel=2, note=60, velocity=0, time=32),
    Message('note_on', channel=2, note=59, velocity=75, time=0),
    Message('note_off', channel=2, note=59, velocity=0, time=32),
    Message('note_on', channel=2, note=60, velocity=75, time=0),
    Message('note_off', channel=2, note=60, velocity=0, time=32),
    Message('note_on', channel=2, note=62, velocity=75, time=0),
    Message('note_off', channel=2, note=62, velocity=0, time=32),
    Message('note_on', channel=2, note=60, velocity=75, time=0),
    Message('note_off', channel=2, note=60, velocity=0, time=32),
    Message('note_on', channel=2, note=59, velocity=75, time=0),
    Message('note_off', channel=2, note=59, velocity=0, time=31),
    Message('note_on', channel=2, note=60, velocity=75, time=1),
    Message('note_off', channel=2, note=60, velocity=0, time=32),
    Message('note_on', channel=2, note=62, velocity=75, time=0),
    Message('note_off', channel=2, note=62, velocity=0, time=32),
    Message('note_on', channel=2, note=63, velocity=75, time=0),
    Message('note_off', channel=2, note=63, velocity=0, time=32),
    Message('note_on', channel=2, note=62, velocity=75, time=0),
    Message('note_off', channel=2, note=62, velocity=0, time=32),
    Message('note_on', channel=2, note=63, velocity=75, time=0),
    Message('note_off', channel=2, note=63, velocity=0, time=32),
    Message('note_on', channel=2, note=65, velocity=75, time=0),
    Message('note_off', channel=2, note=65, velocity=0, time=31),
    Message('note_on', channel=2, note=63, velocity=75, time=1),
    Message('note_off', channel=2, note=63, velocity=0, time=32),
    Message('note_on', channel=2, note=62, velocity=75, time=0),
    Message('note_off', channel=2, note=62, velocity=0, time=32),
    Message('note_on', channel=2, note=60, velocity=75, time=0),
    Message('note_off', channel=2, note=60, velocity=0, time=32),
    Message('note_on', channel=2, note=55, velocity=75, time=0),
    Message('note_off', channel=2, note=55, velocity=0, time=32),
    Message('note_on', channel=2, note=60, velocity=75, time=0),
    Message('note_off', channel=2, note=60, velocity=0, time=32),
    Message('note_on', channel=2, note=63, velocity=75, time=0),
    Message('note_off', channel=2, note=63, velocity=0, time=31),
    Message('note_on', channel=2, note=62, velocity=75, time=1),
    Message('note_off', channel=2, note=62, velocity=0, time=32),
    Message('note_on', channel=2, note=60, velocity=75, time=0),
    Message('note_off', channel=2, note=60, velocity=0, time=32),
    Message('note_on', channel=2, note=59, velocity=75, time=0),
    Message('note_off', channel=2, note=59, velocity=0, time=32),
    Message('note_on', channel=2, note=55, velocity=75, time=0),
    Message('note_off', channel=2, note=55, velocity=0, time=32),
    Message('note_on', channel=2, note=59, velocity=75, time=0),
    Message('note_off', channel=2, note=59, velocity=0, time=32),
    Message('note_on', channel=2, note=62, velocity=75, time=0),
    Message('note_off', channel=2, note=62, velocity=0, time=31),
    Message('note_on', channel=2, note=63, velocity=75, time=1),
    Message('note_off', channel=2, note=63, velocity=0, time=32),
    Message('note_on', channel=2, note=62, velocity=75, time=0),
    Message('note_off', channel=2, note=62, velocity=0, time=32),
    Message('note_on', channel=2, note=60, velocity=75, time=0),
    Message('note_off', channel=2, note=60, velocity=0, time=32),
    Message('note_on', channel=2, note=65, velocity=75, time=0),
    Message('note_off', channel=2, note=65, velocity=0, time=32),
    Message('note_on', channel=2, note=63, velocity=75, time=0),
    Message('note_off', channel=2, note=63, velocity=0, time=32),
    Message('note_on', channel=2, note=62, velocity=75, time=0),
    Message('note_off', channel=2, note=62, velocity=0, time=31),
    Message('note_on', channel=2, note=63, velocity=75, time=1),
    Message('note_off', channel=2, note=63, velocity=0, time=32),
    Message('note_on', channel=2, note=62, velocity=75, time=0),
    Message('note_off', channel=2, note=62, velocity=0, time=32),
    Message('note_on', channel=2, note=60, velocity=75, time=0),
    Message('note_off', channel=2, note=60, velocity=0, time=32),
    Message('note_on', channel=2, note=62, velocity=75, time=0),
    Message('note_off', channel=2, note=62, velocity=0, time=32),
    Message('note_on', channel=2, note=60, velocity=75, time=0),
    Message('note_off', channel=2, note=60, velocity=0, time=32),
    Message('note_on', channel=2, note=59, velocity=75, time=0),
    Message('note_off', channel=2, note=59, velocity=0, time=31),
    Message('control_change', channel=2, control=7, value=110, time=289),
    Message('note_on', channel=2, note=53, velocity=75, time=0),
    Message('note_off', channel=2, note=53, velocity=0, time=16),
    Message('note_on', channel=2, note=55, velocity=75, time=32),
    Message('note_off', channel=2, note=55, velocity=0, time=16),
    Message('note_on', channel=2, note=56, velocity=75, time=32),
    Message('note_off', channel=2, note=56, velocity=0, time=48),
    Message('note_on', channel=2, note=55, velocity=75, time=0),
    Message('note_off', channel=2, note=55, velocity=0, time=47),
    Message('note_on', channel=2, note=53, velocity=75, time=1),
    Message('note_off', channel=2, note=53, velocity=0, time=16),
    Message('note_on', channel=2, note=51, velocity=75, time=32),
    Message('note_off', channel=2, note=51, velocity=0, time=16),
    Message('note_on', channel=2, note=50, velocity=75, time=32),
    Message('note_off', channel=2, note=50, velocity=0, time=48),
    Message('note_on', channel=2, note=48, velocity=75, time=0),
    Message('note_off', channel=2, note=48, velocity=0, time=16),
    Message('control_change', channel=2, control=7, value=100, time=416),
    Message('note_on', channel=2, note=58, velocity=75, time=0),
    Message('note_off', channel=2, note=58, velocity=0, time=32),
    Message('note_on', channel=2, note=56, velocity=75, time=0),
    Message('note_off', channel=2, note=56, velocity=0, time=32),
    Message('note_on', channel=2, note=55, velocity=75, time=0),
    Message('note_off', channel=2, note=55, velocity=0, time=31),
    Message('note_on', channel=2, note=60, velocity=75, time=1),
    Message('note_off', channel=2, note=60, velocity=0, time=32),
    Message('note_on', channel=2, note=58, velocity=75, time=0),
    Message('note_off', channel=2, note=58, velocity=0, time=32),
    Message('note_on', channel=2, note=56, velocity=75, time=0),
    Message('note_off', channel=2, note=56, velocity=0, time=32),
    Message('note_on', channel=2, note=62, velocity=75, time=0),
    Message('note_on', channel=2, note=53, velocity=75, time=0),
    Message('note_off', channel=2, note=53, velocity=0, time=32),
    Message('note_off', channel=2, note=62, velocity=0, time=0),
    Message('note_on', channel=2, note=60, velocity=75, time=0),
    Message('note_on', channel=2, note=51, velocity=75, time=0),
    Message('note_off', channel=2, note=51, velocity=0, time=32),
    Message('note_off', channel=2, note=60, velocity=0, time=0),
    Message('note_on', channel=2, note=59, velocity=75, time=0),
    Message('note_on', channel=2, note=50, velocity=75, time=0),
    Message('note_off', channel=2, note=50, velocity=0, time=31),
    Message('note_off', channel=2, note=59, velocity=0, time=0),
    Message('note_on', channel=2, note=63, velocity=105, time=1),
    Message('note_on', channel=2, note=55, velocity=105, time=0),
    Message('note_off', channel=2, note=63, velocity=0, time=32),
    Message('note_off', channel=2, note=55, velocity=0, time=0),
    Message('note_on', channel=2, note=62, velocity=75, time=0),
    Message('note_on', channel=2, note=53, velocity=75, time=0),
    Message('note_off', channel=2, note=53, velocity=0, time=32),
    Message('note_off', channel=2, note=62, velocity=0, time=0),
    Message('note_on', channel=2, note=60, velocity=75, time=0),
    Message('note_on', channel=2, note=51, velocity=75, time=0),
    Message('note_off', channel=2, note=51, velocity=0, time=32),
    Message('note_off', channel=2, note=60, velocity=0, time=0),
    Message('note_on', channel=2, note=65, velocity=75, time=0),
    Message('note_on', channel=2, note=50, velocity=75, time=0),
    Message('note_off', channel=2, note=50, velocity=0, time=32),
    Message('note_off', channel=2, note=65, velocity=0, time=0),
    Message('note_on', channel=2, note=63, velocity=75, time=0),
    Message('note_on', channel=2, note=48, velocity=75, time=0),
    Message('note_off', channel=2, note=48, velocity=0, time=32),
    Message('note_off', channel=2, note=63, velocity=0, time=0),
    Message('note_on', channel=2, note=62, velocity=75, time=0),
    Message('note_on', channel=2, note=47, velocity=75, time=0),
    Message('note_off', channel=2, note=47, velocity=0, time=31),
    Message('note_off', channel=2, note=62, velocity=0, time=0),
    Message('note_on', channel=2, note=67, velocity=75, time=1),
    Message('note_off', channel=2, note=67, velocity=0, time=32),
    Message('note_on', channel=2, note=65, velocity=75, time=0),
    Message('note_off', channel=2, note=65, velocity=0, time=32),
    Message('note_on', channel=2, note=63, velocity=75, time=0),
    Message('note_off', channel=2, note=63, velocity=0, time=32),
    Message('note_on', channel=2, note=68, velocity=75, time=0),
    Message('note_on', channel=2, note=60, velocity=75, time=0),
    Message('note_off', channel=2, note=60, velocity=0, time=32),
    Message('note_off', channel=2, note=68, velocity=0, time=0),
    Message('note_on', channel=2, note=67, velocity=75, time=0),
    Message('note_on', channel=2, note=58, velocity=75, time=0),
    Message('note_off', channel=2, note=58, velocity=0, time=32),
    Message('note_off', channel=2, note=67, velocity=0, time=0),
    Message('note_on', channel=2, note=65, velocity=75, time=0),
    Message('note_on', channel=2, note=56, velocity=75, time=0),
    Message('note_off', channel=2, note=56, velocity=0, time=31),
    Message('note_off', channel=2, note=65, velocity=0, time=0),
    Message('note_on', channel=2, note=70, velocity=75, time=1),
    Message('note_on', channel=2, note=55, velocity=75, time=0),
    Message('note_off', channel=2, note=70, velocity=0, time=32),
    Message('note_off', channel=2, note=55, velocity=0, time=0),
    Message('note_on', channel=2, note=68, velocity=75, time=0),
    Message('note_on', channel=2, note=53, velocity=75, time=0),
    Message('note_off', channel=2, note=53, velocity=0, time=32),
    Message('note_off', channel=2, note=68, velocity=0, time=0),
    Message('note_on', channel=2, note=67, velocity=75, time=0),
    Message('note_on', channel=2, note=51, velocity=75, time=0),
    Message('note_off', channel=2, note=51, velocity=0, time=32),
    Message('note_off', channel=2, note=67, velocity=0, time=0),
    Message('note_on', channel=2, note=72, velocity=75, time=0),
    Message('note_on', channel=2, note=50, velocity=75, time=0),
    Message('note_off', channel=2, note=50, velocity=0, time=32),
    Message('note_off', channel=2, note=72, velocity=0, time=0),
    Message('note_on', channel=2, note=70, velocity=75, time=0),
    Message('note_on', channel=2, note=48, velocity=75, time=0),
    Message('note_off', channel=2, note=48, velocity=0, time=32),
    Message('note_off', channel=2, note=70, velocity=0, time=0),
    Message('note_on', channel=2, note=68, velocity=75, time=0),
    Message('note_on', channel=2, note=47, velocity=75, time=0),
    Message('note_off', channel=2, note=47, velocity=0, time=31),
    Message('note_off', channel=2, note=68, velocity=0, time=0),
    Message('note_on', channel=2, note=74, velocity=105, time=1),
    Message('note_on', channel=2, note=44, velocity=105, time=0),
    Message('note_off', channel=2, note=74, velocity=0, time=32),
    Message('note_off', channel=2, note=44, velocity=0, time=0),
    Message('note_on', channel=2, note=72, velocity=75, time=0),
    Message('note_on', channel=2, note=43, velocity=75, time=0),
    Message('note_off', channel=2, note=43, velocity=0, time=32),
    Message('note_off', channel=2, note=72, velocity=0, time=0),
    Message('note_on', channel=2, note=71, velocity=75, time=0),
    Message('note_on', channel=2, note=41, velocity=75, time=0),
    Message('note_off', channel=2, note=41, velocity=0, time=31),
    Message('note_off', channel=2, note=71, velocity=0, time=0),
    Message('note_on', channel=2, note=75, velocity=75, time=1),
    Message('note_off', channel=2, note=75, velocity=0, time=32),
    Message('note_on', channel=2, note=74, velocity=75, time=0),
    Message('note_off', channel=2, note=74, velocity=0, time=32),
    Message('note_on', channel=2, note=72, velocity=75, time=0),
    Message('note_off', channel=2, note=72, velocity=0, time=32),
    Message('note_on', channel=2, note=74, velocity=75, time=0),
    Message('note_on', channel=2, note=41, velocity=75, time=0),
    Message('note_off', channel=2, note=41, velocity=0, time=32),
    Message('note_off', channel=2, note=74, velocity=0, time=0),
    Message('note_on', channel=2, note=72, velocity=75, time=0),
    Message('note_on', channel=2, note=39, velocity=75, time=0),
    Message('note_off', channel=2, note=39, velocity=0, time=32),
    Message('note_off', channel=2, note=72, velocity=0, time=0),
    Message('note_on', channel=2, note=77, velocity=105, time=0),
    Message('note_on', channel=2, note=38, velocity=105, time=0),
    Message('note_off', channel=2, note=38, velocity=0, time=32),
    Message('note_off', channel=2, note=77, velocity=0, time=0),
    Message('note_on', channel=2, note=75, velocity=75, time=0),
    Message('note_off', channel=2, note=75, velocity=0, time=32),
    Message('note_on', channel=2, note=74, velocity=75, time=0),
    Message('note_off', channel=2, note=74, velocity=0, time=32),
    Message('note_on', channel=2, note=72, velocity=75, time=0),
    Message('note_off', channel=2, note=72, velocity=0, time=31),
    Message('note_on', channel=2, note=74, velocity=105, time=1),
    Message('note_off', channel=2, note=74, velocity=0, time=31),
    Message('note_on', channel=2, note=67, velocity=75, time=1),
    Message('note_off', channel=2, note=67, velocity=0, time=31),
    Message('note_on', channel=2, note=75, velocity=75, time=1),
    Message('note_off', channel=2, note=75, velocity=0, time=31),
    Message('note_on', channel=2, note=74, velocity=75, time=1),
    Message('note_off', channel=2, note=74, velocity=0, time=31),
    Message('note_on', channel=2, note=72, velocity=75, time=1),
    Message('note_off', channel=2, note=72, velocity=0, time=31),
    Message('note_on', channel=2, note=71, velocity=75, time=1),
    Message('note_off', channel=2, note=71, velocity=0, time=31),
    Message('note_on', channel=2, note=75, velocity=75, time=1),
    Message('note_on', channel=2, note=65, velocity=75, time=0),
    Message('note_off', channel=2, note=65, velocity=0, time=16),
    Message('note_on', channel=2, note=67, velocity=75, time=0),
    Message('note_off', channel=2, note=67, velocity=0, time=16),
    Message('note_on', channel=2, note=74, velocity=75, time=0),
    Message('note_on', channel=2, note=68, velocity=75, time=0),
    Message('note_off', channel=2, note=75, velocity=0, time=15),
    Message('note_off', channel=2, note=68, velocity=0, time=1),
    Message('note_on', channel=2, note=70, velocity=75, time=0),
    Message('note_off', channel=2, note=70, velocity=0, time=16),
    Message('note_on', channel=2, note=80, velocity=75, time=0),
    Message('note_on', channel=2, note=71, velocity=75, time=0),
    Message('note_off', channel=2, note=74, velocity=0, time=15),
    Message('note_off', channel=2, note=71, velocity=0, time=1),
    Message('note_on', channel=2, note=72, velocity=75, time=0),
    Message('note_off', channel=2, note=72, velocity=0, time=16),
    Message('note_on', channel=2, note=77, velocity=75, time=0),
    Message('note_on', channel=2, note=74, velocity=75, time=0),
    Message('note_off', channel=2, note=80, velocity=0, time=15),
    Message('note_off', channel=2, note=74, velocity=0, time=1),
    Message('note_on', channel=2, note=75, velocity=75, time=0),
    Message('note_off', channel=2, note=75, velocity=0, time=16),
    Message('note_on', channel=2, note=77, velocity=75, time=0),
    Message('note_off', channel=2, note=77, velocity=0, time=15),
    Message('note_off', channel=2, note=77, velocity=0, time=1),
    Message('note_on', channel=2, note=79, velocity=75, time=0),
    Message('note_off', channel=2, note=79, velocity=0, time=16),
    Message('note_on', channel=2, note=80, velocity=75, time=0),
    Message('note_on', channel=2, note=74, velocity=75, time=0),
    Message('note_off', channel=2, note=80, velocity=0, time=16),
    Message('note_on', channel=2, note=83, velocity=75, time=0),
    Message('note_off', channel=2, note=83, velocity=0, time=15),
    Message('control_change', channel=2, control=7, value=120, time=1),
    Message('note_on', channel=2, note=72, velocity=127, time=0),
    Message('note_off', channel=2, note=74, velocity=0, time=15),
    Message('note_off', channel=2, note=72, velocity=0, time=9),
    Message('note_on', channel=2, note=79, velocity=127, time=72),
    Message('note_on', channel=2, note=67, velocity=127, time=0),
    Message('note_off', channel=2, note=67, velocity=0, time=24),
    Message('note_off', channel=2, note=79, velocity=0, time=0),
    Message('note_on', channel=2, note=80, velocity=127, time=72),
    Message('note_on', channel=2, note=68, velocity=127, time=0),
    Message('note_off', channel=2, note=80, velocity=0, time=24),
    Message('note_off', channel=2, note=68, velocity=0, time=0),
    Message('note_on', channel=2, note=83, velocity=127, time=72),
    Message('note_on', channel=2, note=71, velocity=127, time=0),
    Message('note_off', channel=2, note=83, velocity=0, time=16),
    Message('note_off', channel=2, note=71, velocity=0, time=0),
    Message('note_on', channel=2, note=84, velocity=127, time=32),
    Message('note_on', channel=2, note=72, velocity=127, time=0),
    Message('note_off', channel=2, note=84, velocity=0, time=16),
    Message('note_off', channel=2, note=72, velocity=0, time=0),
    Message('note_on', channel=2, note=85, velocity=127, time=32),
    Message('note_on', channel=2, note=73, velocity=127, time=0),
    Message('note_off', channel=2, note=85, velocity=0, time=24),
    Message('note_off', channel=2, note=73, velocity=0, time=0),
    Message('note_on', channel=2, note=79, velocity=127, time=72),
    Message('note_on', channel=2, note=67, velocity=127, time=0),
    Message('note_off', channel=2, note=67, velocity=0, time=24),
    Message('note_off', channel=2, note=79, velocity=0, time=0),
    Message('note_on', channel=2, note=84, velocity=127, time=72),
    Message('note_on', channel=2, note=72, velocity=127, time=0),
    Message('note_off', channel=2, note=72, velocity=0, time=36),
    Message('note_off', channel=2, note=84, velocity=0, time=0),
    Message('note_on', channel=2, note=65, velocity=127, time=252),
    Message('note_off', channel=2, note=65, velocity=0, time=24),
    Message('note_on', channel=2, note=64, velocity=108, time=0),
    Message('note_off', channel=2, note=64, velocity=0, time=24),
    Message('note_on', channel=2, note=62, velocity=108, time=0),
    Message('note_off', channel=2, note=62, velocity=0, time=24),
    Message('note_on', channel=2, note=61, velocity=108, time=0),
    Message('note_off', channel=2, note=61, velocity=0, time=24),
    Message('note_on', channel=2, note=60, velocity=108, time=0),
    Message('note_off', channel=2, note=60, velocity=0, time=47),
    Message('note_on', channel=2, note=63, velocity=108, time=241),
    Message('note_on', channel=2, note=55, velocity=108, time=0),
    Message('note_off', channel=2, note=55, velocity=0, time=24),
    Message('note_off', channel=2, note=63, velocity=0, time=0),
    Message('note_on', channel=2, note=67, velocity=108, time=0),
    Message('note_on', channel=2, note=60, velocity=108, time=0),
    Message('note_off', channel=2, note=60, velocity=0, time=24),
    Message('note_off', channel=2, note=67, velocity=0, time=0),
    Message('note_on', channel=2, note=72, velocity=108, time=0),
    Message('note_on', channel=2, note=63, velocity=108, time=0),
    Message('note_off', channel=2, note=63, velocity=0, time=24),
    Message('note_off', channel=2, note=72, velocity=0, time=0),
    Message('note_on', channel=2, note=75, velocity=108, time=0),
    Message('note_on', channel=2, note=67, velocity=108, time=0),
    Message('note_off', channel=2, note=67, velocity=0, time=24),
    Message('note_off', channel=2, note=75, velocity=0, time=0),
    Message('note_on', channel=2, note=78, velocity=108, time=0),
    Message('note_on', channel=2, note=74, velocity=108, time=0),
    Message('note_off', channel=2, note=74, velocity=0, time=168),
    Message('note_off', channel=2, note=78, velocity=0, time=0),
    Message('note_on', channel=2, note=82, velocity=108, time=24),
    Message('note_on', channel=2, note=79, velocity=108, time=0),
    Message('note_on', channel=2, note=67, velocity=108, time=0),
    Message('note_off', channel=2, note=82, velocity=0, time=16),
    Message('note_off', channel=2, note=79, velocity=0, time=0),
    Message('note_off', channel=2, note=67, velocity=0, time=0),
    Message('note_on', channel=2, note=82, velocity=108, time=32),
    Message('note_on', channel=2, note=79, velocity=108, time=0),
    Message('note_on', channel=2, note=67, velocity=108, time=0),
    Message('note_off', channel=2, note=82, velocity=0, time=16),
    Message('note_off', channel=2, note=79, velocity=0, time=0),
    Message('note_off', channel=2, note=67, velocity=0, time=0),
    Message('note_on', channel=2, note=82, velocity=108, time=32),
    Message('note_on', channel=2, note=79, velocity=108, time=0),
    Message('note_on', channel=2, note=67, velocity=108, time=0),
    Message('note_off', channel=2, note=82, velocity=0, time=16),
    Message('note_off', channel=2, note=79, velocity=0, time=0),
    Message('note_off', channel=2, note=67, velocity=0, time=0),
    Message('note_on', channel=2, note=82, velocity=108, time=32),
    Message('note_on', channel=2, note=79, velocity=108, time=0),
    Message('note_on', channel=2, note=67, velocity=108, time=0),
    Message('note_off', channel=2, note=82, velocity=0, time=16),
    Message('note_off', channel=2, note=79, velocity=0, time=0),
    Message('note_off', channel=2, note=67, velocity=0, time=0),
    Message('note_on', channel=2, note=82, velocity=108, time=32),
    Message('note_on', channel=2, note=79, velocity=108, time=0),
    Message('note_on', channel=2, note=67, velocity=108, time=0),
    Message('note_off', channel=2, note=82, velocity=0, time=16),
    Message('note_off', channel=2, note=79, velocity=0, time=0),
    Message('note_off', channel=2, note=67, velocity=0, time=0),
    Message('note_on', channel=2, note=82, velocity=108, time=32),
    Message('note_on', channel=2, note=79, velocity=108, time=0),
    Message('note_on', channel=2, note=67, velocity=108, time=0),
    Message('note_off', channel=2, note=82, velocity=0, time=16),
    Message('note_off', channel=2, note=79, velocity=0, time=0),
    Message('note_off', channel=2, note=67, velocity=0, time=0),
    Message('note_on', channel=2, note=81, velocity=108, time=32),
    Message('note_on', channel=2, note=78, velocity=108, time=0),
    Message('note_on', channel=2, note=66, velocity=108, time=0),
    Message('note_off', channel=2, note=81, velocity=0, time=16),
    Message('note_off', channel=2, note=78, velocity=0, time=0),
    Message('note_off', channel=2, note=66, velocity=0, time=0),
    Message('note_on', channel=2, note=82, velocity=108, time=32),
    Message('note_on', channel=2, note=79, velocity=108, time=0),
    Message('note_on', channel=2, note=67, velocity=108, time=0),
    Message('note_off', channel=2, note=82, velocity=0, time=16),
    Message('note_off', channel=2, note=79, velocity=0, time=0),
    Message('note_off', channel=2, note=67, velocity=0, time=0),
    Message('note_on', channel=2, note=85, velocity=108, time=32),
    Message('note_on', channel=2, note=82, velocity=108, time=0),
    Message('note_on', channel=2, note=70, velocity=108, time=0),
    Message('note_off', channel=2, note=70, velocity=0, time=96),
    Message('note_off', channel=2, note=82, velocity=0, time=0),
    Message('note_off', channel=2, note=85, velocity=0, time=0),
    Message('note_on', channel=2, note=83, velocity=108, time=0),
    Message('note_on', channel=2, note=80, velocity=108, time=0),
    Message('note_on', channel=2, note=68, velocity=108, time=0),
    Message('note_off', channel=2, note=68, velocity=0, time=16),
    Message('note_off', channel=2, note=80, velocity=0, time=0),
    Message('note_off', channel=2, note=83, velocity=0, time=0),
    Message('note_on', channel=2, note=82, velocity=108, time=32),
    Message('note_on', channel=2, note=79, velocity=108, time=0),
    Message('note_on', channel=2, note=67, velocity=108, time=0),
    Message('note_off', channel=2, note=82, velocity=0, time=16),
    Message('note_off', channel=2, note=79, velocity=0, time=0),
    Message('note_off', channel=2, note=67, velocity=0, time=0),
    Message('note_on', channel=2, note=83, velocity=108, time=32),
    Message('note_on', channel=2, note=80, velocity=108, time=0),
    Message('note_on', channel=2, note=68, velocity=108, time=0),
    Message('note_off', channel=2, note=83, velocity=0, time=24),
    Message('note_off', channel=2, note=80, velocity=0, time=0),
    Message('note_off', channel=2, note=68, velocity=0, time=0),
    Message('note_on', channel=2, note=75, velocity=108, time=72),
    Message('note_on', channel=2, note=68, velocity=108, time=0),
    Message('note_on', channel=2, note=59, velocity=108, time=0),
    Message('note_off', channel=2, note=75, velocity=0, time=24),
    Message('note_off', channel=2, note=68, velocity=0, time=0),
    Message('note_off', channel=2, note=59, velocity=0, time=0),
    Message('note_on', channel=2, note=83, velocity=108, time=72),
    Message('note_on', channel=2, note=80, velocity=108, time=0),
    Message('note_on', channel=2, note=68, velocity=108, time=0),
    Message('note_off', channel=2, note=68, velocity=0, time=96),
    Message('note_off', channel=2, note=80, velocity=0, time=0),
    Message('note_off', channel=2, note=83, velocity=0, time=0),
    Message('note_on', channel=2, note=83, velocity=108, time=0),
    Message('note_on', channel=2, note=80, velocity=108, time=0),
    Message('note_on', channel=2, note=68, velocity=108, time=0),
    Message('note_off', channel=2, note=68, velocity=0, time=16),
    Message('note_off', channel=2, note=80, velocity=0, time=0),
    Message('note_off', channel=2, note=83, velocity=0, time=0),
    Message('note_on', channel=2, note=83, velocity=108, time=32),
    Message('note_on', channel=2, note=80, velocity=108, time=0),
    Message('note_on', channel=2, note=68, velocity=108, time=0),
    Message('note_off', channel=2, note=83, velocity=0, time=16),
    Message('note_off', channel=2, note=80, velocity=0, time=0),
    Message('note_off', channel=2, note=68, velocity=0, time=0),
    Message('note_on', channel=2, note=82, velocity=108, time=32),
    Message('note_on', channel=2, note=79, velocity=108, time=0),
    Message('note_on', channel=2, note=67, velocity=108, time=0),
    Message('note_off', channel=2, note=82, velocity=0, time=24),
    Message('note_off', channel=2, note=79, velocity=0, time=0),
    Message('note_off', channel=2, note=67, velocity=0, time=0),
    Message('note_on', channel=2, note=79, velocity=108, time=72),
    Message('note_on', channel=2, note=74, velocity=108, time=0),
    Message('note_on', channel=2, note=58, velocity=108, time=0),
    Message('note_off', channel=2, note=79, velocity=0, time=24),
    Message('note_off', channel=2, note=74, velocity=0, time=0),
    Message('note_off', channel=2, note=58, velocity=0, time=0),
    Message('note_on', channel=2, note=82, velocity=108, time=72),
    Message('note_on', channel=2, note=74, velocity=108, time=0),
    Message('note_on', channel=2, note=62, velocity=108, time=0),
    Message('note_off', channel=2, note=82, velocity=0, time=168),
    Message('note_off', channel=2, note=74, velocity=0, time=0),
    Message('note_off', channel=2, note=62, velocity=0, time=0),
    Message('note_on', channel=2, note=81, velocity=108, time=24),
    Message('note_on', channel=2, note=74, velocity=108, time=0),
    Message('note_on', channel=2, note=62, velocity=108, time=0),
    Message('note_off', channel=2, note=81, velocity=0, time=168),
    Message('note_off', channel=2, note=74, velocity=0, time=0),
    Message('note_off', channel=2, note=62, velocity=0, time=0),
    Message('control_change', channel=2, control=7, value=100, time=24),
    Message('note_on', channel=2, note=67, velocity=75, time=0),
    Message('note_on', channel=2, note=55, velocity=75, time=0),
    Message('control_change', channel=2, control=7, value=101, time=7),
    Message('note_off', channel=2, note=67, velocity=0, time=5),
    Message('note_off', channel=2, note=55, velocity=0, time=0),
    Message('note_on', channel=2, note=69, velocity=77, time=0),
    Message('note_on', channel=2, note=57, velocity=77, time=0),
    Message('control_change', channel=2, control=7, value=102, time=2),
    Message('control_change', channel=2, control=7, value=103, time=7),
    Message('note_off', channel=2, note=69, velocity=0, time=3),
    Message('note_off', channel=2, note=57, velocity=0, time=0),
    Message('note_on', channel=2, note=70, velocity=79, time=0),
    Message('note_on', channel=2, note=58, velocity=79, time=0),
    Message('control_change', channel=2, control=7, value=104, time=4),
    Message('control_change', channel=2, control=7, value=105, time=7),
    Message('note_off', channel=2, note=58, velocity=0, time=1),
    Message('note_off', channel=2, note=70, velocity=0, time=0),
    Message('note_on', channel=2, note=72, velocity=81, time=0),
    Message('note_on', channel=2, note=60, velocity=81, time=0),
    Message('control_change', channel=2, control=7, value=106, time=7),
    Message('note_off', channel=2, note=60, velocity=0, time=5),
    Message('note_off', channel=2, note=72, velocity=0, time=0),
    Message('note_on', channel=2, note=74, velocity=84, time=0),
    Message('note_on', channel=2, note=62, velocity=84, time=0),
    Message('control_change', channel=2, control=7, value=107, time=2),
    Message('control_change', channel=2, control=7, value=108, time=7),
    Message('note_off', channel=2, note=62, velocity=0, time=7),
    Message('note_off', channel=2, note=74, velocity=0, time=0),
    Message('control_change', channel=2, control=7, value=109, time=0),
    Message('note_on', channel=2, note=75, velocity=88, time=0),
    Message('note_on', channel=2, note=63, velocity=88, time=0),
    Message('control_change', channel=2, control=7, value=110, time=7),
    Message('control_change', channel=2, control=7, value=111, time=8),
    Message('note_off', channel=2, note=63, velocity=0, time=1),
    Message('note_off', channel=2, note=75, velocity=0, time=0),
    Message('note_on', channel=2, note=77, velocity=92, time=0),
    Message('note_on', channel=2, note=65, velocity=92, time=0),
    Message('control_change', channel=2, control=7, value=112, time=6),
    Message('control_change', channel=2, control=7, value=113, time=7),
    Message('note_off', channel=2, note=65, velocity=0, time=3),
    Message('note_off', channel=2, note=77, velocity=0, time=0),
    Message('note_on', channel=2, note=79, velocity=96, time=0),
    Message('note_on', channel=2, note=67, velocity=96, time=0),
    Message('control_change', channel=2, control=7, value=114, time=4),
    Message('control_change', channel=2, control=7, value=115, time=7),
    Message('control_change', channel=2, control=7, value=116, time=8),
    Message('control_change', channel=2, control=7, value=117, time=7),
    Message('control_change', channel=2, control=7, value=118, time=7),
    Message('control_change', channel=2, control=7, value=119, time=7),
    Message('note_off', channel=2, note=67, velocity=0, time=7),
    Message('note_off', channel=2, note=79, velocity=0, time=0),
    Message('control_change', channel=2, control=7, value=120, time=0),
    Message('control_change', channel=2, control=7, value=100, time=625),
    Message('note_on', channel=2, note=81, velocity=75, time=0),
    Message('note_on', channel=2, note=69, velocity=75, time=0),
    Message('note_off', channel=2, note=69, velocity=0, time=24),
    Message('note_off', channel=2, note=81, velocity=0, time=0),
    Message('note_on', channel=2, note=78, velocity=75, time=0),
    Message('note_on', channel=2, note=66, velocity=75, time=0),
    Message('note_off', channel=2, note=66, velocity=0, time=24),
    Message('note_off', channel=2, note=78, velocity=0, time=0),
    Message('note_on', channel=2, note=73, velocity=75, time=0),
    Message('note_on', channel=2, note=61, velocity=75, time=0),
    Message('note_off', channel=2, note=61, velocity=0, time=24),
    Message('note_off', channel=2, note=73, velocity=0, time=0),
    Message('note_on', channel=2, note=69, velocity=75, time=0),
    Message('note_on', channel=2, note=57, velocity=75, time=0),
    Message('note_off', channel=2, note=57, velocity=0, time=24),
    Message('note_off', channel=2, note=69, velocity=0, time=0),
    Message('note_on', channel=2, note=68, velocity=75, time=0),
    Message('note_on', channel=2, note=56, velocity=75, time=0),
    Message('note_off', channel=2, note=56, velocity=0, time=24),
    Message('note_off', channel=2, note=68, velocity=0, time=0),
    Message('note_on', channel=2, note=69, velocity=75, time=0),
    Message('note_on', channel=2, note=57, velocity=75, time=0),
    Message('note_off', channel=2, note=57, velocity=0, time=24),
    Message('note_off', channel=2, note=69, velocity=0, time=0),
    Message('note_on', channel=2, note=73, velocity=75, time=0),
    Message('note_on', channel=2, note=61, velocity=75, time=0),
    Message('note_off', channel=2, note=61, velocity=0, time=24),
    Message('note_off', channel=2, note=73, velocity=0, time=0),
    Message('note_on', channel=2, note=78, velocity=75, time=0),
    Message('note_on', channel=2, note=66, velocity=75, time=0),
    Message('note_off', channel=2, note=66, velocity=0, time=23),
    Message('note_off', channel=2, note=78, velocity=0, time=0),
    Message('note_on', channel=2, note=80, velocity=75, time=1),
    Message('note_on', channel=2, note=68, velocity=75, time=0),
    Message('note_off', channel=2, note=80, velocity=0, time=24),
    Message('note_off', channel=2, note=68, velocity=0, time=0),
    Message('note_on', channel=2, note=78, velocity=75, time=0),
    Message('note_on', channel=2, note=66, velocity=75, time=0),
    Message('note_off', channel=2, note=66, velocity=0, time=24),
    Message('note_off', channel=2, note=78, velocity=0, time=0),
    Message('note_on', channel=2, note=73, velocity=75, time=0),
    Message('note_on', channel=2, note=61, velocity=75, time=0),
    Message('note_off', channel=2, note=61, velocity=0, time=24),
    Message('note_off', channel=2, note=73, velocity=0, time=0),
    Message('note_on', channel=2, note=69, velocity=75, time=0),
    Message('note_on', channel=2, note=57, velocity=75, time=0),
    Message('note_off', channel=2, note=57, velocity=0, time=24),
    Message('note_off', channel=2, note=69, velocity=0, time=0),
    Message('note_on', channel=2, note=66, velocity=75, time=0),
    Message('note_on', channel=2, note=54, velocity=75, time=0),
    Message('note_off', channel=2, note=54, velocity=0, time=24),
    Message('note_off', channel=2, note=66, velocity=0, time=0),
    Message('note_on', channel=2, note=69, velocity=75, time=0),
    Message('note_on', channel=2, note=57, velocity=75, time=0),
    Message('note_off', channel=2, note=57, velocity=0, time=24),
    Message('note_off', channel=2, note=69, velocity=0, time=0),
    Message('note_on', channel=2, note=73, velocity=75, time=0),
    Message('note_on', channel=2, note=61, velocity=75, time=0),
    Message('note_off', channel=2, note=61, velocity=0, time=24),
    Message('note_off', channel=2, note=73, velocity=0, time=0),
    Message('note_on', channel=2, note=78, velocity=75, time=0),
    Message('note_on', channel=2, note=66, velocity=75, time=0),
    Message('note_off', channel=2, note=66, velocity=0, time=23),
    Message('note_off', channel=2, note=78, velocity=0, time=0),
    Message('note_on', channel=2, note=81, velocity=75, time=1),
    Message('note_on', channel=2, note=69, velocity=75, time=0),
    Message('note_off', channel=2, note=81, velocity=0, time=24),
    Message('note_off', channel=2, note=69, velocity=0, time=0),
    Message('note_on', channel=2, note=78, velocity=75, time=0),
    Message('note_on', channel=2, note=66, velocity=75, time=0),
    Message('note_off', channel=2, note=66, velocity=0, time=24),
    Message('note_off', channel=2, note=78, velocity=0, time=0),
    Message('note_on', channel=2, note=73, velocity=75, time=0),
    Message('note_on', channel=2, note=61, velocity=75, time=0),
    Message('note_off', channel=2, note=61, velocity=0, time=24),
    Message('note_off', channel=2, note=73, velocity=0, time=0),
    Message('note_on', channel=2, note=69, velocity=75, time=0),
    Message('note_on', channel=2, note=57, velocity=75, time=0),
    Message('note_off', channel=2, note=57, velocity=0, time=24),
    Message('note_off', channel=2, note=69, velocity=0, time=0),
    Message('note_on', channel=2, note=66, velocity=75, time=0),
    Message('note_on', channel=2, note=54, velocity=75, time=0),
    Message('note_off', channel=2, note=54, velocity=0, time=24),
    Message('note_off', channel=2, note=66, velocity=0, time=0),
    Message('note_on', channel=2, note=69, velocity=75, time=0),
    Message('note_on', channel=2, note=57, velocity=75, time=0),
    Message('note_off', channel=2, note=57, velocity=0, time=24),
    Message('note_off', channel=2, note=69, velocity=0, time=0),
    Message('note_on', channel=2, note=73, velocity=75, time=0),
    Message('note_on', channel=2, note=61, velocity=75, time=0),
    Message('note_off', channel=2, note=61, velocity=0, time=24),
    Message('note_off', channel=2, note=73, velocity=0, time=0),
    Message('note_on', channel=2, note=78, velocity=75, time=0),
    Message('note_on', channel=2, note=66, velocity=75, time=0),
    Message('note_off', channel=2, note=66, velocity=0, time=23),
    Message('note_off', channel=2, note=78, velocity=0, time=0),
    Message('note_on', channel=2, note=81, velocity=75, time=1),
    Message('note_on', channel=2, note=69, velocity=75, time=0),
    Message('note_off', channel=2, note=81, velocity=0, time=24),
    Message('note_off', channel=2, note=69, velocity=0, time=0),
    Message('note_on', channel=2, note=78, velocity=75, time=0),
    Message('note_on', channel=2, note=66, velocity=75, time=0),
    Message('note_off', channel=2, note=66, velocity=0, time=24),
    Message('note_off', channel=2, note=78, velocity=0, time=0),
    Message('note_on', channel=2, note=73, velocity=75, time=0),
    Message('note_on', channel=2, note=61, velocity=75, time=0),
    Message('note_off', channel=2, note=61, velocity=0, time=24),
    Message('note_off', channel=2, note=73, velocity=0, time=0),
    Message('note_on', channel=2, note=69, velocity=75, time=0),
    Message('note_on', channel=2, note=57, velocity=75, time=0),
    Message('note_off', channel=2, note=57, velocity=0, time=24),
    Message('note_off', channel=2, note=69, velocity=0, time=0),
    Message('note_on', channel=2, note=68, velocity=75, time=0),
    Message('note_on', channel=2, note=56, velocity=75, time=0),
    Message('note_off', channel=2, note=56, velocity=0, time=24),
    Message('note_off', channel=2, note=68, velocity=0, time=0),
    Message('note_on', channel=2, note=69, velocity=75, time=0),
    Message('note_on', channel=2, note=57, velocity=75, time=0),
    Message('note_off', channel=2, note=57, velocity=0, time=24),
    Message('note_off', channel=2, note=69, velocity=0, time=0),
    Message('note_on', channel=2, note=72, velocity=75, time=0),
    Message('note_on', channel=2, note=60, velocity=75, time=0),
    Message('note_off', channel=2, note=60, velocity=0, time=24),
    Message('note_off', channel=2, note=72, velocity=0, time=0),
    Message('note_on', channel=2, note=73, velocity=75, time=0),
    Message('note_on', channel=2, note=61, velocity=75, time=0),
    Message('note_off', channel=2, note=61, velocity=0, time=24),
    Message('note_off', channel=2, note=73, velocity=0, time=0),
    Message('note_on', channel=2, note=78, velocity=75, time=0),
    Message('note_on', channel=2, note=66, velocity=75, time=0),
    Message('note_off', channel=2, note=66, velocity=0, time=47),
    Message('note_off', channel=2, note=78, velocity=0, time=0),
    Message('note_on', channel=2, note=61, velocity=75, time=625),
    Message('note_off', channel=2, note=61, velocity=0, time=80),
    Message('note_on', channel=2, note=73, velocity=75, time=16),
    Message('note_off', channel=2, note=73, velocity=0, time=96),
    Message('note_on', channel=2, note=72, velocity=75, time=0),
    Message('note_off', channel=2, note=72, velocity=0, time=48),
    Message('note_on', channel=2, note=73, velocity=75, time=0),
    Message('note_off', channel=2, note=73, velocity=0, time=48),
    Message('note_on', channel=2, note=75, velocity=75, time=0),
    Message('note_off', channel=2, note=75, velocity=0, time=96),
    Message('note_on', channel=2, note=73, velocity=75, time=0),
    Message('note_off', channel=2, note=73, velocity=0, time=48),
    Message('note_on', channel=2, note=75, velocity=75, time=0),
    Message('note_off', channel=2, note=75, velocity=0, time=48),
    Message('note_on', channel=2, note=76, velocity=75, time=0),
    Message('note_off', channel=2, note=76, velocity=0, time=48),
    Message('note_on', channel=2, note=78, velocity=75, time=0),
    Message('note_off', channel=2, note=78, velocity=0, time=48),
    Message('note_on', channel=2, note=80, velocity=75, time=0),
    Message('note_off', channel=2, note=80, velocity=0, time=96),
    Message('note_on', channel=2, note=76, velocity=75, time=0),
    Message('note_off', channel=2, note=76, velocity=0, time=96),
    Message('note_on', channel=2, note=75, velocity=75, time=0),
    Message('note_off', channel=2, note=75, velocity=0, time=96),
    Message('note_on', channel=2, note=76, velocity=75, time=0),
    Message('note_off', channel=2, note=76, velocity=0, time=47),
    Message('note_on', channel=2, note=78, velocity=75, time=49),
    Message('note_on', channel=2, note=66, velocity=75, time=0),
    Message('note_off', channel=2, note=78, velocity=0, time=24),
    Message('note_off', channel=2, note=66, velocity=0, time=0),
    Message('note_on', channel=2, note=76, velocity=75, time=0),
    Message('note_on', channel=2, note=64, velocity=75, time=0),
    Message('note_off', channel=2, note=64, velocity=0, time=24),
    Message('note_off', channel=2, note=76, velocity=0, time=0),
    Message('note_on', channel=2, note=75, velocity=75, time=0),
    Message('note_on', channel=2, note=63, velocity=75, time=0),
    Message('note_off', channel=2, note=63, velocity=0, time=24),
    Message('note_off', channel=2, note=75, velocity=0, time=0),
    Message('note_on', channel=2, note=76, velocity=75, time=0),
    Message('note_on', channel=2, note=64, velocity=75, time=0),
    Message('note_off', channel=2, note=64, velocity=0, time=24),
    Message('note_off', channel=2, note=76, velocity=0, time=0),
    Message('note_on', channel=2, note=78, velocity=75, time=0),
    Message('note_on', channel=2, note=66, velocity=75, time=0),
    Message('note_off', channel=2, note=66, velocity=0, time=47),
    Message('note_off', channel=2, note=78, velocity=0, time=0),
    Message('note_on', channel=2, note=80, velocity=75, time=49),
    Message('note_on', channel=2, note=68, velocity=75, time=0),
    Message('note_off', channel=2, note=80, velocity=0, time=24),
    Message('note_off', channel=2, note=68, velocity=0, time=0),
    Message('note_on', channel=2, note=78, velocity=75, time=0),
    Message('note_on', channel=2, note=66, velocity=75, time=0),
    Message('note_off', channel=2, note=66, velocity=0, time=24),
    Message('note_off', channel=2, note=78, velocity=0, time=0),
    Message('note_on', channel=2, note=76, velocity=75, time=0),
    Message('note_on', channel=2, note=64, velocity=75, time=0),
    Message('note_off', channel=2, note=64, velocity=0, time=24),
    Message('note_off', channel=2, note=76, velocity=0, time=0),
    Message('note_on', channel=2, note=78, velocity=75, time=0),
    Message('note_on', channel=2, note=66, velocity=75, time=0),
    Message('note_off', channel=2, note=66, velocity=0, time=24),
    Message('note_off', channel=2, note=78, velocity=0, time=0),
    Message('note_on', channel=2, note=80, velocity=75, time=0),
    Message('note_on', channel=2, note=68, velocity=75, time=0),
    Message('control_change', channel=2, control=7, value=99, time=4),
    Message('control_change', channel=2, control=7, value=98, time=4),
    Message('control_change', channel=2, control=7, value=97, time=4),
    Message('control_change', channel=2, control=7, value=96, time=4),
    Message('control_change', channel=2, control=7, value=95, time=4),
    Message('control_change', channel=2, control=7, value=94, time=5),
    Message('control_change', channel=2, control=7, value=93, time=4),
    Message('control_change', channel=2, control=7, value=92, time=4),
    Message('control_change', channel=2, control=7, value=91, time=4),
    Message('control_change', channel=2, control=7, value=90, time=4),
    Message('control_change', channel=2, control=7, value=89, time=5),
    Message('control_change', channel=2, control=7, value=88, time=4),
    Message('control_change', channel=2, control=7, value=87, time=4),
    Message('control_change', channel=2, control=7, value=86, time=4),
    Message('control_change', channel=2, control=7, value=85, time=4),
    Message('control_change', channel=2, control=7, value=84, time=5),
    Message('control_change', channel=2, control=7, value=83, time=4),
    Message('control_change', channel=2, control=7, value=82, time=4),
    Message('control_change', channel=2, control=7, value=81, time=4),
    Message('control_change', channel=2, control=7, value=80, time=4),
    Message('control_change', channel=2, control=7, value=79, time=5),
    Message('control_change', channel=2, control=7, value=78, time=4),
    Message('control_change', channel=2, control=7, value=77, time=4),
    Message('control_change', channel=2, control=7, value=76, time=4),
    Message('control_change', channel=2, control=7, value=75, time=4),
    Message('control_change', channel=2, control=7, value=74, time=5),
    Message('control_change', channel=2, control=7, value=73, time=4),
    Message('control_change', channel=2, control=7, value=72, time=4),
    Message('control_change', channel=2, control=7, value=71, time=4),
    Message('control_change', channel=2, control=7, value=70, time=4),
    Message('control_change', channel=2, control=7, value=69, time=5),
    Message('control_change', channel=2, control=7, value=68, time=4),
    Message('control_change', channel=2, control=7, value=67, time=4),
    Message('control_change', channel=2, control=7, value=66, time=4),
    Message('control_change', channel=2, control=7, value=65, time=4),
    Message('control_change', channel=2, control=7, value=64, time=5),
    Message('control_change', channel=2, control=7, value=63, time=4),
    Message('control_change', channel=2, control=7, value=62, time=4),
    Message('control_change', channel=2, control=7, value=61, time=4),
    Message('control_change', channel=2, control=7, value=60, time=4),
    Message('control_change', channel=2, control=7, value=59, time=5),
    Message('control_change', channel=2, control=7, value=58, time=4),
    Message('control_change', channel=2, control=7, value=57, time=4),
    Message('control_change', channel=2, control=7, value=56, time=4),
    Message('control_change', channel=2, control=7, value=55, time=4),
    Message('control_change', channel=2, control=7, value=54, time=5),
    Message('control_change', channel=2, control=7, value=53, time=4),
    Message('control_change', channel=2, control=7, value=52, time=4),
    Message('control_change', channel=2, control=7, value=51, time=4),
    Message('control_change', channel=2, control=7, value=50, time=4),
    Message('control_change', channel=2, control=7, value=49, time=5),
    Message('control_change', channel=2, control=7, value=48, time=4),
    Message('control_change', channel=2, control=7, value=47, time=4),
    Message('control_change', channel=2, control=7, value=46, time=4),
    Message('control_change', channel=2, control=7, value=45, time=4),
    Message('control_change', channel=2, control=7, value=44, time=5),
    Message('control_change', channel=2, control=7, value=43, time=4),
    Message('control_change', channel=2, control=7, value=42, time=4),
    Message('control_change', channel=2, control=7, value=41, time=4),
    Message('control_change', channel=2, control=7, value=40, time=4),
    Message('control_change', channel=2, control=7, value=39, time=5),
    Message('control_change', channel=2, control=7, value=38, time=4),
    Message('control_change', channel=2, control=7, value=37, time=4),
    Message('control_change', channel=2, control=7, value=36, time=4),
    Message('control_change', channel=2, control=7, value=35, time=4),
    Message('control_change', channel=2, control=7, value=34, time=5),
    Message('control_change', channel=2, control=7, value=33, time=4),
    Message('control_change', channel=2, control=7, value=32, time=4),
    Message('control_change', channel=2, control=7, value=31, time=4),
    Message('control_change', channel=2, control=7, value=30, time=4),
    Message('control_change', channel=2, control=7, value=29, time=5),
    Message('control_change', channel=2, control=7, value=28, time=4),
    Message('control_change', channel=2, control=7, value=27, time=4),
    Message('control_change', channel=2, control=7, value=26, time=4),
    Message('note_off', channel=2, note=68, velocity=0, time=2),
    Message('note_off', channel=2, note=80, velocity=0, time=0),
    Message('control_change', channel=2, control=7, value=25, time=2),
    Message('control_change', channel=2, control=7, value=24, time=5),
    Message('control_change', channel=2, control=7, value=23, time=4),
    Message('control_change', channel=2, control=7, value=22, time=4),
    Message('control_change', channel=2, control=7, value=21, time=4),
    Message('control_change', channel=2, control=7, value=20, time=4),
    Message('control_change', channel=2, control=7, value=100, time=817),
    Message('note_on', channel=2, note=48, velocity=75, time=0),
    Message('note_off', channel=2, note=48, velocity=0, time=48),
    Message('note_on', channel=2, note=46, velocity=75, time=0),
    Message('note_off', channel=2, note=46, velocity=0, time=47),
    Message('note_on', channel=2, note=46, velocity=75, time=1),
    Message('note_off', channel=2, note=46, velocity=0, time=48),
    Message('note_on', channel=2, note=45, velocity=75, time=0),
    Message('note_off', channel=2, note=45, velocity=0, time=47),
    Message('note_on', channel=2, note=45, velocity=75, time=1),
    Message('note_off', channel=2, note=45, velocity=0, time=48),
    Message('note_on', channel=2, note=43, velocity=75, time=0),
    Message('note_off', channel=2, note=43, velocity=0, time=47),
    Message('note_on', channel=2, note=50, velocity=75, time=1),
    Message('note_off', channel=2, note=50, velocity=0, time=16),
    Message('note_on', channel=2, note=52, velocity=75, time=32),
    Message('note_off', channel=2, note=52, velocity=0, time=16),
    Message('note_on', channel=2, note=53, velocity=75, time=32),
    Message('control_change', channel=2, control=7, value=99, time=9),
    Message('control_change', channel=2, control=7, value=98, time=10),
    Message('control_change', channel=2, control=7, value=97, time=9),
    Message('control_change', channel=2, control=7, value=96, time=10),
    Message('control_change', channel=2, control=7, value=95, time=10),
    Message('control_change', channel=2, control=7, value=94, time=9),
    Message('control_change', channel=2, control=7, value=93, time=10),
    Message('control_change', channel=2, control=7, value=92, time=9),
    Message('control_change', channel=2, control=7, value=91, time=10),
    Message('control_change', channel=2, control=7, value=90, time=10),
    Message('control_change', channel=2, control=7, value=89, time=9),
    Message('control_change', channel=2, control=7, value=88, time=10),
    Message('control_change', channel=2, control=7, value=87, time=9),
    Message('control_change', channel=2, control=7, value=86, time=10),
    Message('control_change', channel=2, control=7, value=85, time=10),
    Message('control_change', channel=2, control=7, value=84, time=9),
    Message('control_change', channel=2, control=7, value=83, time=10),
    Message('control_change', channel=2, control=7, value=82, time=9),
    Message('control_change', channel=2, control=7, value=81, time=10),
    Message('note_off', channel=2, note=53, velocity=0, time=10),
    Message('control_change', channel=2, control=7, value=80, time=0),
    Message('note_on', channel=2, note=46, velocity=45, time=0),
    Message('note_off', channel=2, note=46, velocity=0, time=128),
    Message('control_change', channel=2, control=7, value=90, time=3424),
    Message('note_on', channel=2, note=72, velocity=60, time=0),
    Message('note_on', channel=2, note=67, velocity=60, time=0),
    Message('note_on', channel=2, note=74, velocity=60, time=0),
    Message('note_on', channel=2, note=69, velocity=60, time=0),
    Message('note_off', channel=2, note=72, velocity=0, time=12),
    Message('note_off', channel=2, note=67, velocity=0, time=0),
    Message('note_off', channel=2, note=74, velocity=0, time=0),
    Message('note_off', channel=2, note=69, velocity=0, time=0),
    Message('note_on', channel=2, note=74, velocity=60, time=0),
    Message('note_on', channel=2, note=69, velocity=60, time=0),
    Message('note_off', channel=2, note=69, velocity=0, time=12),
    Message('note_off', channel=2, note=74, velocity=0, time=0),
    Message('note_on', channel=2, note=72, velocity=60, time=0),
    Message('note_on', channel=2, note=67, velocity=60, time=0),
    Message('note_off', channel=2, note=67, velocity=0, time=12),
    Message('note_off', channel=2, note=72, velocity=0, time=0),
    Message('note_on', channel=2, note=74, velocity=60, time=0),
    Message('note_on', channel=2, note=69, velocity=60, time=0),
    Message('note_off', channel=2, note=69, velocity=0, time=12),
    Message('note_off', channel=2, note=74, velocity=0, time=0),
    Message('note_on', channel=2, note=72, velocity=60, time=0),
    Message('note_on', channel=2, note=67, velocity=60, time=0),
    Message('note_off', channel=2, note=67, velocity=0, time=12),
    Message('note_off', channel=2, note=72, velocity=0, time=0),
    Message('note_on', channel=2, note=74, velocity=60, time=0),
    Message('note_on', channel=2, note=69, velocity=60, time=0),
    Message('note_off', channel=2, note=69, velocity=0, time=12),
    Message('note_off', channel=2, note=74, velocity=0, time=0),
    Message('note_on', channel=2, note=72, velocity=60, time=0),
    Message('note_on', channel=2, note=67, velocity=60, time=0),
    Message('note_off', channel=2, note=67, velocity=0, time=12),
    Message('note_off', channel=2, note=72, velocity=0, time=0),
    Message('note_on', channel=2, note=74, velocity=60, time=0),
    Message('note_on', channel=2, note=69, velocity=60, time=0),
    Message('note_off', channel=2, note=69, velocity=0, time=12),
    Message('note_off', channel=2, note=74, velocity=0, time=0),
    Message('note_on', channel=2, note=72, velocity=60, time=0),
    Message('note_on', channel=2, note=67, velocity=60, time=0),
    Message('note_off', channel=2, note=67, velocity=0, time=8),
    Message('note_off', channel=2, note=72, velocity=0, time=0),
    Message('note_on', channel=2, note=74, velocity=60, time=0),
    Message('note_on', channel=2, note=69, velocity=60, time=0),
    Message('note_off', channel=2, note=69, velocity=0, time=8),
    Message('note_off', channel=2, note=74, velocity=0, time=0),
    Message('note_on', channel=2, note=72, velocity=60, time=0),
    Message('note_on', channel=2, note=67, velocity=60, time=0),
    Message('note_off', channel=2, note=67, velocity=0, time=8),
    Message('note_off', channel=2, note=72, velocity=0, time=0),
    Message('note_on', channel=2, note=74, velocity=60, time=0),
    Message('note_on', channel=2, note=69, velocity=60, time=0),
    Message('note_off', channel=2, note=69, velocity=0, time=8),
    Message('note_off', channel=2, note=74, velocity=0, time=0),
    Message('note_on', channel=2, note=72, velocity=60, time=0),
    Message('note_on', channel=2, note=67, velocity=60, time=0),
    Message('note_off', channel=2, note=67, velocity=0, time=8),
    Message('note_off', channel=2, note=72, velocity=0, time=0),
    Message('note_on', channel=2, note=74, velocity=60, time=0),
    Message('note_on', channel=2, note=69, velocity=60, time=0),
    Message('note_off', channel=2, note=69, velocity=0, time=8),
    Message('note_off', channel=2, note=74, velocity=0, time=0),
    Message('note_on', channel=2, note=72, velocity=60, time=0),
    Message('note_on', channel=2, note=67, velocity=60, time=0),
    Message('note_off', channel=2, note=67, velocity=0, time=6),
    Message('note_off', channel=2, note=72, velocity=0, time=0),
    Message('note_on', channel=2, note=74, velocity=60, time=0),
    Message('note_on', channel=2, note=69, velocity=60, time=0),
    Message('note_off', channel=2, note=69, velocity=0, time=6),
    Message('note_off', channel=2, note=74, velocity=0, time=0),
    Message('note_on', channel=2, note=72, velocity=60, time=0),
    Message('note_on', channel=2, note=67, velocity=60, time=0),
    Message('note_off', channel=2, note=67, velocity=0, time=6),
    Message('note_off', channel=2, note=72, velocity=0, time=0),
    Message('note_on', channel=2, note=74, velocity=60, time=0),
    Message('note_on', channel=2, note=69, velocity=60, time=0),
    Message('note_off', channel=2, note=69, velocity=0, time=6),
    Message('note_off', channel=2, note=74, velocity=0, time=0),
    Message('note_on', channel=2, note=72, velocity=60, time=0),
    Message('note_on', channel=2, note=67, velocity=60, time=0),
    Message('note_off', channel=2, note=67, velocity=0, time=6),
    Message('note_off', channel=2, note=72, velocity=0, time=0),
    Message('note_on', channel=2, note=74, velocity=60, time=0),
    Message('note_on', channel=2, note=69, velocity=60, time=0),
    Message('note_off', channel=2, note=69, velocity=0, time=6),
    Message('note_off', channel=2, note=74, velocity=0, time=0),
    Message('note_on', channel=2, note=72, velocity=60, time=0),
    Message('note_on', channel=2, note=67, velocity=60, time=0),
    Message('note_off', channel=2, note=67, velocity=0, time=6),
    Message('note_off', channel=2, note=72, velocity=0, time=0),
    Message('note_on', channel=2, note=74, velocity=60, time=0),
    Message('note_on', channel=2, note=69, velocity=60, time=0),
    Message('note_off', channel=2, note=69, velocity=0, time=6),
    Message('note_off', channel=2, note=74, velocity=0, time=0),
    Message('note_on', channel=2, note=72, velocity=60, time=0),
    Message('note_on', channel=2, note=67, velocity=60, time=0),
    Message('note_off', channel=2, note=67, velocity=0, time=6),
    Message('note_off', channel=2, note=72, velocity=0, time=0),
    Message('note_on', channel=2, note=74, velocity=60, time=0),
    Message('note_on', channel=2, note=69, velocity=60, time=0),
    Message('note_off', channel=2, note=69, velocity=0, time=6),
    Message('note_off', channel=2, note=74, velocity=0, time=0),
    Message('note_on', channel=2, note=72, velocity=60, time=0),
    Message('note_on', channel=2, note=67, velocity=60, time=0),
    Message('note_off', channel=2, note=67, velocity=0, time=6),
    Message('note_off', channel=2, note=72, velocity=0, time=0),
    Message('note_on', channel=2, note=74, velocity=60, time=0),
    Message('note_on', channel=2, note=69, velocity=60, time=0),
    Message('note_off', channel=2, note=69, velocity=0, time=6),
    Message('note_off', channel=2, note=74, velocity=0, time=0),
    Message('note_on', channel=2, note=72, velocity=60, time=0),
    Message('note_on', channel=2, note=67, velocity=60, time=0),
    Message('note_off', channel=2, note=67, velocity=0, time=8),
    Message('note_off', channel=2, note=72, velocity=0, time=0),
    Message('note_on', channel=2, note=74, velocity=60, time=0),
    Message('note_on', channel=2, note=69, velocity=60, time=0),
    Message('note_off', channel=2, note=69, velocity=0, time=8),
    Message('note_off', channel=2, note=74, velocity=0, time=0),
    Message('note_on', channel=2, note=72, velocity=60, time=0),
    Message('note_on', channel=2, note=67, velocity=60, time=0),
    Message('note_off', channel=2, note=67, velocity=0, time=8),
    Message('note_off', channel=2, note=72, velocity=0, time=0),
    Message('note_on', channel=2, note=74, velocity=60, time=0),
    Message('note_on', channel=2, note=69, velocity=60, time=0),
    Message('note_off', channel=2, note=69, velocity=0, time=8),
    Message('note_off', channel=2, note=74, velocity=0, time=0),
    Message('note_on', channel=2, note=72, velocity=60, time=0),
    Message('note_on', channel=2, note=67, velocity=60, time=0),
    Message('note_off', channel=2, note=67, velocity=0, time=8),
    Message('note_off', channel=2, note=72, velocity=0, time=0),
    Message('note_on', channel=2, note=74, velocity=60, time=0),
    Message('note_on', channel=2, note=69, velocity=60, time=0),
    Message('note_off', channel=2, note=69, velocity=0, time=8),
    Message('note_off', channel=2, note=74, velocity=0, time=0),
    Message('note_on', channel=2, note=72, velocity=60, time=0),
    Message('note_on', channel=2, note=67, velocity=60, time=0),
    Message('note_off', channel=2, note=67, velocity=0, time=12),
    Message('note_off', channel=2, note=72, velocity=0, time=0),
    Message('note_on', channel=2, note=74, velocity=60, time=0),
    Message('note_on', channel=2, note=69, velocity=60, time=0),
    Message('note_off', channel=2, note=69, velocity=0, time=12),
    Message('note_off', channel=2, note=74, velocity=0, time=0),
    Message('note_on', channel=2, note=72, velocity=60, time=0),
    Message('note_on', channel=2, note=67, velocity=60, time=0),
    Message('note_off', channel=2, note=67, velocity=0, time=47),
    Message('note_off', channel=2, note=72, velocity=0, time=0),
    Message('note_on', channel=2, note=73, velocity=60, time=1105),
    Message('note_on', channel=2, note=61, velocity=60, time=0),
    Message('note_off', channel=2, note=73, velocity=0, time=80),
    Message('note_off', channel=2, note=61, velocity=0, time=0),
    Message('note_on', channel=2, note=69, velocity=60, time=16),
    Message('note_on', channel=2, note=57, velocity=60, time=0),
    Message('note_off', channel=2, note=57, velocity=0, time=47),
    Message('note_off', channel=2, note=69, velocity=0, time=0),
    Message('note_on', channel=2, note=73, velocity=60, time=1),
    Message('note_on', channel=2, note=61, velocity=60, time=0),
    Message('note_off', channel=2, note=61, velocity=0, time=80),
    Message('note_off', channel=2, note=73, velocity=0, time=0),
    Message('note_on', channel=2, note=69, velocity=60, time=16),
    Message('note_on', channel=2, note=57, velocity=60, time=0),
    Message('note_off', channel=2, note=69, velocity=0, time=47),
    Message('note_off', channel=2, note=57, velocity=0, time=0),
    Message('note_on', channel=2, note=74, velocity=60, time=1),
    Message('note_on', channel=2, note=62, velocity=60, time=0),
    Message('note_off', channel=2, note=62, velocity=0, time=80),
    Message('note_off', channel=2, note=74, velocity=0, time=0),
    Message('note_on', channel=2, note=73, velocity=60, time=16),
    Message('note_on', channel=2, note=61, velocity=60, time=0),
    Message('note_off', channel=2, note=61, velocity=0, time=47),
    Message('note_off', channel=2, note=73, velocity=0, time=0),
    Message('note_on', channel=2, note=72, velocity=60, time=1),
    Message('note_on', channel=2, note=60, velocity=60, time=0),
    Message('note_off', channel=2, note=72, velocity=0, time=264),
    Message('note_off', channel=2, note=60, velocity=0, time=0),
    Message('note_on', channel=2, note=77, velocity=60, time=24),
    Message('note_on', channel=2, note=65, velocity=60, time=0),
    Message('note_off', channel=2, note=77, velocity=0, time=80),
    Message('note_off', channel=2, note=65, velocity=0, time=0),
    Message('note_on', channel=2, note=76, velocity=60, time=16),
    Message('note_on', channel=2, note=64, velocity=60, time=0),
    Message('note_off', channel=2, note=76, velocity=0, time=48),
    Message('note_off', channel=2, note=64, velocity=0, time=0),
    Message('note_on', channel=2, note=75, velocity=60, time=0),
    Message('note_on', channel=2, note=63, velocity=60, time=0),
    Message('note_off', channel=2, note=63, velocity=0, time=16),
    Message('note_off', channel=2, note=75, velocity=0, time=0),
    Message('control_change', channel=2, control=7, value=110, time=560),
    Message('note_on', channel=2, note=55, velocity=92, time=48),
    Message('note_off', channel=2, note=55, velocity=0, time=24),
    Message('note_on', channel=2, note=59, velocity=92, time=0),
    Message('note_off', channel=2, note=59, velocity=0, time=24),
    Message('note_on', channel=2, note=64, velocity=92, time=0),
    Message('note_off', channel=2, note=64, velocity=0, time=12),
    Message('note_on', channel=2, note=67, velocity=92, time=0),
    Message('note_off', channel=2, note=67, velocity=0, time=12),
    Message('note_on', channel=2, note=71, velocity=92, time=0),
    Message('note_off', channel=2, note=71, velocity=0, time=12),
    Message('note_on', channel=2, note=76, velocity=92, time=0),
    Message('note_off', channel=2, note=76, velocity=0, time=11),
    Message('note_on', channel=2, note=79, velocity=92, time=1),
    Message('note_off', channel=2, note=79, velocity=0, time=16),
    Message('note_on', channel=2, note=78, velocity=92, time=32),
    Message('note_off', channel=2, note=78, velocity=0, time=16),
    Message('note_on', channel=2, note=76, velocity=92, time=32),
    Message('note_off', channel=2, note=76, velocity=0, time=16),
    Message('note_on', channel=2, note=75, velocity=92, time=32),
    Message('note_off', channel=2, note=75, velocity=0, time=16),
    Message('note_on', channel=2, note=76, velocity=92, time=32),
    Message('note_off', channel=2, note=76, velocity=0, time=16),
    Message('note_on', channel=2, note=78, velocity=92, time=32),
    Message('note_off', channel=2, note=78, velocity=0, time=16),
    Message('note_on', channel=2, note=83, velocity=92, time=32),
    Message('note_on', channel=2, note=71, velocity=92, time=0),
    Message('note_off', channel=2, note=83, velocity=0, time=24),
    Message('note_off', channel=2, note=71, velocity=0, time=0),
    Message('note_on', channel=2, note=82, velocity=92, time=0),
    Message('note_on', channel=2, note=70, velocity=92, time=0),
    Message('note_off', channel=2, note=70, velocity=0, time=23),
    Message('note_off', channel=2, note=82, velocity=0, time=0),
    Message('note_on', channel=2, note=75, velocity=92, time=385),
    Message('note_off', channel=2, note=75, velocity=0, time=16),
    Message('note_on', channel=2, note=76, velocity=92, time=32),
    Message('note_off', channel=2, note=76, velocity=0, time=16),
    Message('note_on', channel=2, note=78, velocity=92, time=32),
    Message('note_off', channel=2, note=78, velocity=0, time=16),
    Message('note_on', channel=2, note=83, velocity=92, time=32),
    Message('note_on', channel=2, note=71, velocity=92, time=0),
    Message('note_off', channel=2, note=83, velocity=0, time=24),
    Message('note_off', channel=2, note=71, velocity=0, time=0),
    Message('note_on', channel=2, note=82, velocity=92, time=0),
    Message('note_on', channel=2, note=70, velocity=92, time=0),
    Message('note_off', channel=2, note=70, velocity=0, time=23),
    Message('note_off', channel=2, note=82, velocity=0, time=0),
    Message('note_on', channel=2, note=79, velocity=92, time=97),
    Message('note_off', channel=2, note=79, velocity=0, time=12),
    Message('note_on', channel=2, note=75, velocity=92, time=0),
    Message('note_off', channel=2, note=75, velocity=0, time=12),
    Message('note_on', channel=2, note=72, velocity=92, time=0),
    Message('note_off', channel=2, note=72, velocity=0, time=12),
    Message('note_on', channel=2, note=67, velocity=92, time=0),
    Message('note_off', channel=2, note=67, velocity=0, time=12),
    Message('note_on', channel=2, note=63, velocity=92, time=0),
    Message('note_off', channel=2, note=63, velocity=0, time=16),
    Message('note_on', channel=2, note=60, velocity=92, time=0),
    Message('note_off', channel=2, note=60, velocity=0, time=16),
    Message('note_on', channel=2, note=63, velocity=92, time=0),
    Message('note_off', channel=2, note=63, velocity=0, time=16),
    Message('note_on', channel=2, note=67, velocity=92, time=0),
    Message('note_off', channel=2, note=67, velocity=0, time=16),
    Message('note_on', channel=2, note=72, velocity=92, time=0),
    Message('note_off', channel=2, note=72, velocity=0, time=16),
    Message('note_on', channel=2, note=75, velocity=92, time=0),
    Message('note_off', channel=2, note=75, velocity=0, time=16),
    Message('note_on', channel=2, note=80, velocity=92, time=0),
    Message('note_off', channel=2, note=80, velocity=0, time=12),
    Message('note_on', channel=2, note=79, velocity=92, time=0),
    Message('note_off', channel=2, note=79, velocity=0, time=12),
    Message('note_on', channel=2, note=75, velocity=92, time=0),
    Message('note_off', channel=2, note=75, velocity=0, time=12),
    Message('note_on', channel=2, note=72, velocity=92, time=0),
    Message('note_off', channel=2, note=72, velocity=0, time=12),
    Message('note_on', channel=2, note=67, velocity=92, time=0),
    Message('note_off', channel=2, note=67, velocity=0, time=12),
    Message('note_on', channel=2, note=63, velocity=92, time=0),
    Message('note_off', channel=2, note=63, velocity=0, time=12),
    Message('note_on', channel=2, note=60, velocity=92, time=0),
    Message('note_off', channel=2, note=60, velocity=0, time=12),
    Message('note_on', channel=2, note=63, velocity=92, time=0),
    Message('note_off', channel=2, note=63, velocity=0, time=12),
    Message('note_on', channel=2, note=67, velocity=92, time=0),
    Message('note_off', channel=2, note=67, velocity=0, time=12),
    Message('note_on', channel=2, note=72, velocity=92, time=0),
    Message('note_off', channel=2, note=72, velocity=0, time=12),
    Message('note_on', channel=2, note=75, velocity=92, time=0),
    Message('note_off', channel=2, note=75, velocity=0, time=12),
    Message('note_on', channel=2, note=79, velocity=92, time=0),
    Message('note_off', channel=2, note=79, velocity=0, time=12),
    Message('note_on', channel=2, note=80, velocity=92, time=0),
    Message('note_off', channel=2, note=80, velocity=0, time=16),
    Message('note_on', channel=2, note=79, velocity=92, time=0),
    Message('note_off', channel=2, note=79, velocity=0, time=16),
    Message('note_on', channel=2, note=75, velocity=92, time=0),
    Message('note_off', channel=2, note=75, velocity=0, time=16),
    Message('note_on', channel=2, note=72, velocity=92, time=0),
    Message('note_off', channel=2, note=72, velocity=0, time=12),
    Message('note_on', channel=2, note=67, velocity=92, time=0),
    Message('note_off', channel=2, note=67, velocity=0, time=12),
    Message('note_on', channel=2, note=63, velocity=92, time=0),
    Message('note_off', channel=2, note=63, velocity=0, time=12),
    Message('note_on', channel=2, note=60, velocity=92, time=0),
    Message('note_off', channel=2, note=60, velocity=0, time=12),
    Message('note_on', channel=2, note=63, velocity=92, time=0),
    Message('note_off', channel=2, note=63, velocity=0, time=12),
    Message('note_on', channel=2, note=67, velocity=92, time=0),
    Message('note_off', channel=2, note=67, velocity=0, time=12),
    Message('note_on', channel=2, note=72, velocity=92, time=0),
    Message('note_off', channel=2, note=72, velocity=0, time=12),
    Message('note_on', channel=2, note=75, velocity=92, time=0),
    Message('note_off', channel=2, note=75, velocity=0, time=11),
    Message('note_on', channel=2, note=79, velocity=92, time=1),
    Message('note_off', channel=2, note=79, velocity=0, time=16),
    Message('note_on', channel=2, note=78, velocity=92, time=0),
    Message('note_off', channel=2, note=78, velocity=0, time=16),
    Message('note_on', channel=2, note=75, velocity=92, time=0),
    Message('note_off', channel=2, note=75, velocity=0, time=16),
    Message('note_on', channel=2, note=72, velocity=92, time=0),
    Message('note_off', channel=2, note=72, velocity=0, time=12),
    Message('note_on', channel=2, note=67, velocity=92, time=0),
    Message('note_off', channel=2, note=67, velocity=0, time=12),
    Message('note_on', channel=2, note=63, velocity=92, time=0),
    Message('note_off', channel=2, note=63, velocity=0, time=12),
    Message('note_on', channel=2, note=60, velocity=92, time=0),
    Message('note_off', channel=2, note=60, velocity=0, time=12),
    Message('note_on', channel=2, note=63, velocity=92, time=0),
    Message('note_off', channel=2, note=63, velocity=0, time=12),
    Message('note_on', channel=2, note=67, velocity=92, time=0),
    Message('note_off', channel=2, note=67, velocity=0, time=12),
    Message('note_on', channel=2, note=72, velocity=92, time=0),
    Message('note_off', channel=2, note=72, velocity=0, time=12),
    Message('note_on', channel=2, note=75, velocity=92, time=0),
    Message('note_off', channel=2, note=75, velocity=0, time=12),
    Message('note_on', channel=2, note=79, velocity=92, time=0),
    Message('note_off', channel=2, note=79, velocity=0, time=16),
    Message('note_on', channel=2, note=75, velocity=92, time=0),
    Message('note_off', channel=2, note=75, velocity=0, time=16),
    Message('note_on', channel=2, note=72, velocity=92, time=0),
    Message('note_off', channel=2, note=72, velocity=0, time=16),
    Message('note_on', channel=2, note=67, velocity=92, time=0),
    Message('note_off', channel=2, note=67, velocity=0, time=16),
    Message('note_on', channel=2, note=63, velocity=92, time=0),
    Message('note_off', channel=2, note=63, velocity=0, time=16),
    Message('note_on', channel=2, note=60, velocity=92, time=0),
    Message('note_off', channel=2, note=60, velocity=0, time=16),
    Message('note_on', channel=2, note=63, velocity=92, time=0),
    Message('note_off', channel=2, note=63, velocity=0, time=12),
    Message('note_on', channel=2, note=67, velocity=92, time=0),
    Message('note_off', channel=2, note=67, velocity=0, time=12),
    Message('note_on', channel=2, note=72, velocity=92, time=0),
    Message('note_off', channel=2, note=72, velocity=0, time=12),
    Message('note_on', channel=2, note=75, velocity=92, time=0),
    Message('note_off', channel=2, note=75, velocity=0, time=12),
    Message('note_on', channel=2, note=79, velocity=92, time=0),
    Message('note_off', channel=2, note=79, velocity=0, time=16),
    Message('note_on', channel=2, note=75, velocity=92, time=0),
    Message('note_off', channel=2, note=75, velocity=0, time=16),
    Message('note_on', channel=2, note=71, velocity=92, time=0),
    Message('note_off', channel=2, note=71, velocity=0, time=16),
    Message('note_on', channel=2, note=67, velocity=92, time=0),
    Message('note_off', channel=2, note=67, velocity=0, time=16),
    Message('note_on', channel=2, note=63, velocity=92, time=0),
    Message('note_off', channel=2, note=63, velocity=0, time=16),
    Message('note_on', channel=2, note=59, velocity=92, time=0),
    Message('note_off', channel=2, note=59, velocity=0, time=16),
    Message('note_on', channel=2, note=63, velocity=92, time=0),
    Message('note_off', channel=2, note=63, velocity=0, time=12),
    Message('note_on', channel=2, note=67, velocity=92, time=0),
    Message('note_off', channel=2, note=67, velocity=0, time=12),
    Message('note_on', channel=2, note=71, velocity=92, time=0),
    Message('note_off', channel=2, note=71, velocity=0, time=12),
    Message('note_on', channel=2, note=75, velocity=92, time=0),
    Message('note_off', channel=2, note=75, velocity=0, time=12),
    Message('note_on', channel=2, note=79, velocity=92, time=0),
    Message('note_off', channel=2, note=79, velocity=0, time=16),
    Message('note_on', channel=2, note=75, velocity=92, time=0),
    Message('note_off', channel=2, note=75, velocity=0, time=16),
    Message('note_on', channel=2, note=72, velocity=92, time=0),
    Message('note_off', channel=2, note=72, velocity=0, time=16),
    Message('note_on', channel=2, note=67, velocity=92, time=0),
    Message('note_off', channel=2, note=67, velocity=0, time=16),
    Message('note_on', channel=2, note=63, velocity=92, time=0),
    Message('note_off', channel=2, note=63, velocity=0, time=16),
    Message('note_on', channel=2, note=60, velocity=92, time=0),
    Message('note_off', channel=2, note=60, velocity=0, time=16),
    Message('note_on', channel=2, note=63, velocity=92, time=0),
    Message('note_off', channel=2, note=63, velocity=0, time=12),
    Message('note_on', channel=2, note=67, velocity=92, time=0),
    Message('note_off', channel=2, note=67, velocity=0, time=12),
    Message('note_on', channel=2, note=72, velocity=92, time=0),
    Message('note_off', channel=2, note=72, velocity=0, time=12),
    Message('note_on', channel=2, note=75, velocity=92, time=0),
    Message('note_off', channel=2, note=75, velocity=0, time=12),
    Message('note_on', channel=2, note=80, velocity=92, time=0),
    Message('note_off', channel=2, note=80, velocity=0, time=16),
    Message('note_on', channel=2, note=79, velocity=92, time=0),
    Message('note_off', channel=2, note=79, velocity=0, time=16),
    Message('note_on', channel=2, note=75, velocity=92, time=0),
    Message('note_off', channel=2, note=75, velocity=0, time=16),
    Message('note_on', channel=2, note=72, velocity=92, time=0),
    Message('note_off', channel=2, note=72, velocity=0, time=12),
    Message('note_on', channel=2, note=67, velocity=92, time=0),
    Message('note_off', channel=2, note=67, velocity=0, time=12),
    Message('note_on', channel=2, note=63, velocity=92, time=0),
    Message('note_off', channel=2, note=63, velocity=0, time=12),
    Message('note_on', channel=2, note=60, velocity=92, time=0),
    Message('note_off', channel=2, note=60, velocity=0, time=12),
    Message('note_on', channel=2, note=63, velocity=92, time=0),
    Message('note_off', channel=2, note=63, velocity=0, time=12),
    Message('note_on', channel=2, note=67, velocity=92, time=0),
    Message('note_off', channel=2, note=67, velocity=0, time=12),
    Message('note_on', channel=2, note=72, velocity=92, time=0),
    Message('note_off', channel=2, note=72, velocity=0, time=12),
    Message('note_on', channel=2, note=75, velocity=92, time=0),
    Message('note_off', channel=2, note=75, velocity=0, time=12),
    Message('note_on', channel=2, note=79, velocity=92, time=0),
    Message('note_off', channel=2, note=79, velocity=0, time=16),
    Message('note_on', channel=2, note=75, velocity=92, time=0),
    Message('note_off', channel=2, note=75, velocity=0, time=16),
    Message('note_on', channel=2, note=72, velocity=92, time=0),
    Message('note_off', channel=2, note=72, velocity=0, time=16),
    Message('note_on', channel=2, note=67, velocity=92, time=0),
    Message('note_off', channel=2, note=67, velocity=0, time=16),
    Message('note_on', channel=2, note=63, velocity=92, time=0),
    Message('note_off', channel=2, note=63, velocity=0, time=16),
    Message('note_on', channel=2, note=60, velocity=92, time=0),
    Message('note_off', channel=2, note=60, velocity=0, time=16),
    Message('note_on', channel=2, note=63, velocity=92, time=0),
    Message('note_off', channel=2, note=63, velocity=0, time=12),
    Message('note_on', channel=2, note=67, velocity=92, time=0),
    Message('note_off', channel=2, note=67, velocity=0, time=12),
    Message('note_on', channel=2, note=72, velocity=92, time=0),
    Message('note_off', channel=2, note=72, velocity=0, time=12),
    Message('note_on', channel=2, note=75, velocity=92, time=0),
    Message('note_off', channel=2, note=75, velocity=0, time=12),
    Message('note_on', channel=2, note=80, velocity=92, time=0),
    Message('note_off', channel=2, note=80, velocity=0, time=16),
    Message('note_on', channel=2, note=79, velocity=92, time=0),
    Message('note_off', channel=2, note=79, velocity=0, time=16),
    Message('note_on', channel=2, note=75, velocity=92, time=0),
    Message('note_off', channel=2, note=75, velocity=0, time=16),
    Message('note_on', channel=2, note=72, velocity=92, time=0),
    Message('note_off', channel=2, note=72, velocity=0, time=16),
    Message('note_on', channel=2, note=67, velocity=92, time=0),
    Message('note_off', channel=2, note=67, velocity=0, time=16),
    Message('note_on', channel=2, note=63, velocity=92, time=0),
    Message('note_off', channel=2, note=63, velocity=0, time=16),
    Message('note_on', channel=2, note=67, velocity=92, time=0),
    Message('note_off', channel=2, note=67, velocity=0, time=12),
    Message('note_on', channel=2, note=72, velocity=92, time=0),
    Message('note_off', channel=2, note=72, velocity=0, time=12),
    Message('note_on', channel=2, note=75, velocity=92, time=0),
    Message('note_off', channel=2, note=75, velocity=0, time=12),
    Message('note_on', channel=2, note=79, velocity=92, time=0),
    Message('note_off', channel=2, note=79, velocity=0, time=12),
    Message('note_on', channel=2, note=82, velocity=92, time=0),
    Message('note_on', channel=2, note=77, velocity=92, time=0),
    Message('note_off', channel=2, note=77, velocity=0, time=12),
    Message('note_off', channel=2, note=82, velocity=0, time=0),
    Message('note_on', channel=2, note=83, velocity=92, time=0),
    Message('note_on', channel=2, note=78, velocity=92, time=0),
    Message('note_off', channel=2, note=78, velocity=0, time=12),
    Message('note_off', channel=2, note=83, velocity=0, time=0),
    Message('note_on', channel=2, note=82, velocity=92, time=0),
    Message('note_on', channel=2, note=77, velocity=92, time=0),
    Message('note_off', channel=2, note=77, velocity=0, time=71),
    Message('note_off', channel=2, note=82, velocity=0, time=0),
    Message('note_on', channel=2, note=81, velocity=92, time=1),
    Message('note_on', channel=2, note=76, velocity=92, time=0),
    Message('note_off', channel=2, note=81, velocity=0, time=12),
    Message('note_off', channel=2, note=76, velocity=0, time=0),
    Message('note_on', channel=2, note=82, velocity=92, time=0),
    Message('note_on', channel=2, note=77, velocity=92, time=0),
    Message('note_off', channel=2, note=77, velocity=0, time=12),
    Message('note_off', channel=2, note=82, velocity=0, time=0),
    Message('note_on', channel=2, note=81, velocity=92, time=0),
    Message('note_on', channel=2, note=76, velocity=92, time=0),
    Message('note_off', channel=2, note=76, velocity=0, time=23),
    Message('note_off', channel=2, note=81, velocity=0, time=0),
    Message('note_on', channel=2, note=80, velocity=92, time=1),
    Message('note_on', channel=2, note=75, velocity=92, time=0),
    Message('note_off', channel=2, note=80, velocity=0, time=12),
    Message('note_off', channel=2, note=75, velocity=0, time=0),
    Message('note_on', channel=2, note=81, velocity=92, time=0),
    Message('note_on', channel=2, note=76, velocity=92, time=0),
    Message('note_off', channel=2, note=81, velocity=0, time=12),
    Message('note_off', channel=2, note=76, velocity=0, time=0),
    Message('note_on', channel=2, note=80, velocity=92, time=0),
    Message('note_on', channel=2, note=75, velocity=92, time=0),
    Message('note_off', channel=2, note=80, velocity=0, time=71),
    Message('note_off', channel=2, note=75, velocity=0, time=0),
    Message('note_on', channel=2, note=73, velocity=92, time=1),
    Message('note_on', channel=2, note=68, velocity=92, time=0),
    Message('note_off', channel=2, note=73, velocity=0, time=12),
    Message('note_off', channel=2, note=68, velocity=0, time=0),
    Message('note_on', channel=2, note=74, velocity=92, time=0),
    Message('note_on', channel=2, note=69, velocity=92, time=0),
    Message('note_off', channel=2, note=74, velocity=0, time=12),
    Message('note_off', channel=2, note=69, velocity=0, time=0),
    Message('note_on', channel=2, note=73, velocity=92, time=0),
    Message('note_on', channel=2, note=68, velocity=92, time=0),
    Message('note_off', channel=2, note=68, velocity=0, time=23),
    Message('note_off', channel=2, note=73, velocity=0, time=0),
    Message('note_on', channel=2, note=85, velocity=92, time=1),
    Message('note_on', channel=2, note=73, velocity=92, time=0),
    Message('note_off', channel=2, note=85, velocity=0, time=16),
    Message('note_off', channel=2, note=73, velocity=0, time=0),
    Message('note_on', channel=2, note=82, velocity=92, time=0),
    Message('note_on', channel=2, note=70, velocity=92, time=0),
    Message('note_off', channel=2, note=70, velocity=0, time=16),
    Message('note_off', channel=2, note=82, velocity=0, time=0),
    Message('note_on', channel=2, note=77, velocity=92, time=0),
    Message('note_on', channel=2, note=65, velocity=92, time=0),
    Message('note_off', channel=2, note=65, velocity=0, time=16),
    Message('note_off', channel=2, note=77, velocity=0, time=0),
    Message('note_on', channel=2, note=73, velocity=92, time=0),
    Message('note_on', channel=2, note=61, velocity=92, time=0),
    Message('note_off', channel=2, note=61, velocity=0, time=16),
    Message('note_off', channel=2, note=73, velocity=0, time=0),
    Message('note_on', channel=2, note=77, velocity=92, time=0),
    Message('note_on', channel=2, note=65, velocity=92, time=0),
    Message('note_off', channel=2, note=65, velocity=0, time=16),
    Message('note_off', channel=2, note=77, velocity=0, time=0),
    Message('note_on', channel=2, note=82, velocity=92, time=0),
    Message('note_on', channel=2, note=70, velocity=92, time=0),
    Message('note_off', channel=2, note=70, velocity=0, time=16),
    Message('note_off', channel=2, note=82, velocity=0, time=0),
    Message('note_on', channel=2, note=84, velocity=92, time=0),
    Message('note_on', channel=2, note=72, velocity=92, time=0),
    Message('note_off', channel=2, note=72, velocity=0, time=16),
    Message('note_off', channel=2, note=84, velocity=0, time=0),
    Message('note_on', channel=2, note=83, velocity=92, time=32),
    Message('note_on', channel=2, note=71, velocity=92, time=0),
    Message('note_off', channel=2, note=83, velocity=0, time=12),
    Message('note_off', channel=2, note=71, velocity=0, time=0),
    Message('note_on', channel=2, note=84, velocity=92, time=0),
    Message('note_on', channel=2, note=72, velocity=92, time=0),
    Message('note_off', channel=2, note=72, velocity=0, time=12),
    Message('note_off', channel=2, note=84, velocity=0, time=0),
    Message('note_on', channel=2, note=83, velocity=92, time=0),
    Message('note_on', channel=2, note=71, velocity=92, time=0),
    Message('note_off', channel=2, note=71, velocity=0, time=71),
    Message('note_off', channel=2, note=83, velocity=0, time=0),
    Message('note_on', channel=2, note=79, velocity=92, time=1),
    Message('note_on', channel=2, note=67, velocity=92, time=0),
    Message('note_off', channel=2, note=67, velocity=0, time=16),
    Message('note_off', channel=2, note=79, velocity=0, time=0),
    Message('note_on', channel=2, note=80, velocity=92, time=32),
    Message('note_on', channel=2, note=76, velocity=92, time=0),
    Message('note_off', channel=2, note=80, velocity=0, time=47),
    Message('note_off', channel=2, note=76, velocity=0, time=0),
    Message('note_on', channel=2, note=79, velocity=92, time=49),
    Message('note_on', channel=2, note=67, velocity=92, time=0),
    Message('note_on', channel=2, note=64, velocity=92, time=0),
    Message('note_off', channel=2, note=79, velocity=0, time=47),
    Message('note_off', channel=2, note=67, velocity=0, time=0),
    Message('note_off', channel=2, note=64, velocity=0, time=0),
    Message('note_on', channel=2, note=80, velocity=92, time=1),
    Message('note_on', channel=2, note=76, velocity=92, time=0),
    Message('note_off', channel=2, note=76, velocity=0, time=47),
    Message('note_off', channel=2, note=80, velocity=0, time=0),
    Message('note_on', channel=2, note=79, velocity=92, time=49),
    Message('note_on', channel=2, note=67, velocity=92, time=0),
    Message('note_on', channel=2, note=64, velocity=92, time=0),
    Message('note_off', channel=2, note=79, velocity=0, time=47),
    Message('note_off', channel=2, note=67, velocity=0, time=0),
    Message('note_off', channel=2, note=64, velocity=0, time=0),
    Message('note_on', channel=2, note=80, velocity=92, time=1),
    Message('note_on', channel=2, note=76, velocity=92, time=0),
    Message('note_off', channel=2, note=76, velocity=0, time=47),
    Message('note_off', channel=2, note=80, velocity=0, time=0),
    Message('note_on', channel=2, note=79, velocity=92, time=49),
    Message('note_on', channel=2, note=67, velocity=92, time=0),
    Message('note_on', channel=2, note=64, velocity=92, time=0),
    Message('note_off', channel=2, note=79, velocity=0, time=47),
    Message('note_off', channel=2, note=67, velocity=0, time=0),
    Message('note_off', channel=2, note=64, velocity=0, time=0),
    Message('note_on', channel=2, note=80, velocity=92, time=1),
    Message('note_on', channel=2, note=76, velocity=92, time=0),
    Message('note_off', channel=2, note=76, velocity=0, time=47),
    Message('note_off', channel=2, note=80, velocity=0, time=0),
    Message('note_on', channel=2, note=79, velocity=92, time=49),
    Message('note_on', channel=2, note=67, velocity=92, time=0),
    Message('note_on', channel=2, note=64, velocity=92, time=0),
    Message('note_off', channel=2, note=79, velocity=0, time=47),
    Message('note_off', channel=2, note=67, velocity=0, time=0),
    Message('note_off', channel=2, note=64, velocity=0, time=0),
    Message('note_on', channel=2, note=72, velocity=127, time=1),
    Message('note_off', channel=2, note=72, velocity=0, time=11),
    Message('note_on', channel=2, note=80, velocity=92, time=5),
    Message('note_on', channel=2, note=68, velocity=92, time=0),
    Message('note_off', channel=2, note=80, velocity=0, time=16),
    Message('note_off', channel=2, note=68, velocity=0, time=0),
    Message('note_on', channel=2, note=79, velocity=92, time=0),
    Message('note_on', channel=2, note=67, velocity=92, time=0),
    Message('note_off', channel=2, note=67, velocity=0, time=16),
    Message('note_off', channel=2, note=79, velocity=0, time=0),
    Message('note_on', channel=2, note=78, velocity=92, time=0),
    Message('note_on', channel=2, note=66, velocity=92, time=0),
    Message('note_off', channel=2, note=66, velocity=0, time=16),
    Message('note_off', channel=2, note=78, velocity=0, time=0),
    Message('note_on', channel=2, note=75, velocity=92, time=0),
    Message('note_on', channel=2, note=63, velocity=92, time=0),
    Message('note_off', channel=2, note=63, velocity=0, time=16),
    Message('note_off', channel=2, note=75, velocity=0, time=0),
    Message('note_on', channel=2, note=67, velocity=92, time=0),
    Message('note_off', channel=2, note=67, velocity=0, time=16),
    Message('note_on', channel=2, note=72, velocity=92, time=0),
    Message('note_off', channel=2, note=72, velocity=0, time=16),
    Message('note_on', channel=2, note=80, velocity=92, time=0),
    Message('note_on', channel=2, note=68, velocity=92, time=0),
    Message('note_off', channel=2, note=68, velocity=0, time=16),
    Message('note_off', channel=2, note=80, velocity=0, time=0),
    Message('note_on', channel=2, note=79, velocity=92, time=0),
    Message('note_on', channel=2, note=67, velocity=92, time=0),
    Message('note_off', channel=2, note=67, velocity=0, time=15),
    Message('note_off', channel=2, note=79, velocity=0, time=0),
    Message('note_on', channel=2, note=78, velocity=127, time=1),
    Message('note_on', channel=2, note=66, velocity=127, time=0),
    Message('note_off', channel=2, note=78, velocity=0, time=11),
    Message('note_off', channel=2, note=66, velocity=0, time=0),
    Message('note_on', channel=2, note=75, velocity=92, time=5),
    Message('note_on', channel=2, note=63, velocity=92, time=0),
    Message('note_off', channel=2, note=75, velocity=0, time=16),
    Message('note_off', channel=2, note=63, velocity=0, time=0),
    Message('note_on', channel=2, note=67, velocity=92, time=0),
    Message('note_off', channel=2, note=67, velocity=0, time=16),
    Message('note_on', channel=2, note=72, velocity=92, time=0),
    Message('note_off', channel=2, note=72, velocity=0, time=16),
    Message('note_on', channel=2, note=80, velocity=92, time=0),
    Message('note_on', channel=2, note=68, velocity=92, time=0),
    Message('note_off', channel=2, note=68, velocity=0, time=16),
    Message('note_off', channel=2, note=80, velocity=0, time=0),
    Message('note_on', channel=2, note=79, velocity=92, time=0),
    Message('note_on', channel=2, note=67, velocity=92, time=0),
    Message('note_off', channel=2, note=67, velocity=0, time=16),
    Message('note_off', channel=2, note=79, velocity=0, time=0),
    Message('note_on', channel=2, note=78, velocity=92, time=0),
    Message('note_on', channel=2, note=66, velocity=92, time=0),
    Message('note_off', channel=2, note=66, velocity=0, time=16),
    Message('note_off', channel=2, note=78, velocity=0, time=0),
    Message('note_on', channel=2, note=75, velocity=92, time=0),
    Message('note_on', channel=2, note=63, velocity=92, time=0),
    Message('note_off', channel=2, note=63, velocity=0, time=16),
    Message('note_off', channel=2, note=75, velocity=0, time=0),
    Message('note_on', channel=2, note=67, velocity=92, time=0),
    Message('note_off', channel=2, note=67, velocity=0, time=15),
    Message('control_change', channel=2, control=7, value=100, time=1),
    Message('note_on', channel=2, note=66, velocity=105, time=0),
    Message('note_off', channel=2, note=66, velocity=0, time=10),
    Message('note_on', channel=2, note=70, velocity=75, time=6),
    Message('note_off', channel=2, note=70, velocity=0, time=15),
    Message('note_on', channel=2, note=75, velocity=75, time=1),
    Message('note_off', channel=2, note=75, velocity=0, time=15),
    Message('note_on', channel=2, note=79, velocity=75, time=1),
    Message('control_change', channel=2, control=7, value=101, time=19),
    Message('control_change', channel=2, control=7, value=102, time=19),
    Message('control_change', channel=2, control=7, value=103, time=19),
    Message('control_change', channel=2, control=7, value=104, time=19),
    Message('control_change', channel=2, control=7, value=105, time=20),
    Message('control_change', channel=2, control=7, value=106, time=19),
    Message('control_change', channel=2, control=7, value=107, time=19),
    Message('control_change', channel=2, control=7, value=108, time=19),
    Message('control_change', channel=2, control=7, value=109, time=19),
    Message('control_change', channel=2, control=7, value=110, time=20),
    Message('control_change', channel=2, control=7, value=111, time=19),
    Message('control_change', channel=2, control=7, value=112, time=19),
    Message('control_change', channel=2, control=7, value=113, time=19),
    Message('control_change', channel=2, control=7, value=114, time=19),
    Message('control_change', channel=2, control=7, value=115, time=20),
    Message('control_change', channel=2, control=7, value=116, time=19),
    Message('control_change', channel=2, control=7, value=117, time=19),
    Message('control_change', channel=2, control=7, value=118, time=19),
    Message('control_change', channel=2, control=7, value=119, time=19),
    Message('note_off', channel=2, note=79, velocity=0, time=4),
    Message('control_change', channel=2, control=7, value=90, time=16),
    Message('note_on', channel=2, note=67, velocity=60, time=0),
    Message('note_off', channel=2, note=67, velocity=0, time=16),
    Message('note_on', channel=2, note=66, velocity=60, time=0),
    Message('note_off', channel=2, note=66, velocity=0, time=16),
    Message('note_on', channel=2, note=67, velocity=60, time=0),
    Message('note_off', channel=2, note=67, velocity=0, time=16),
    Message('note_on', channel=2, note=68, velocity=60, time=0),
    Message('note_off', channel=2, note=68, velocity=0, time=16),
    Message('note_on', channel=2, note=67, velocity=60, time=0),
    Message('note_off', channel=2, note=67, velocity=0, time=16),
    Message('note_on', channel=2, note=66, velocity=60, time=0),
    Message('note_off', channel=2, note=66, velocity=0, time=16),
    Message('note_on', channel=2, note=61, velocity=60, time=0),
    Message('note_off', channel=2, note=61, velocity=0, time=16),
    Message('note_on', channel=2, note=65, velocity=60, time=0),
    Message('note_off', channel=2, note=65, velocity=0, time=16),
    Message('note_on', channel=2, note=66, velocity=60, time=0),
    Message('note_off', channel=2, note=66, velocity=0, time=15),
    Message('note_on', channel=2, note=67, velocity=60, time=1),
    Message('note_off', channel=2, note=67, velocity=0, time=16),
    Message('note_on', channel=2, note=66, velocity=60, time=0),
    Message('note_off', channel=2, note=66, velocity=0, time=16),
    Message('note_on', channel=2, note=67, velocity=60, time=0),
    Message('note_off', channel=2, note=67, velocity=0, time=16),
    Message('note_on', channel=2, note=68, velocity=60, time=0),
    Message('note_off', channel=2, note=68, velocity=0, time=16),
    Message('note_on', channel=2, note=67, velocity=60, time=0),
    Message('note_off', channel=2, note=67, velocity=0, time=16),
    Message('note_on', channel=2, note=66, velocity=60, time=0),
    Message('note_off', channel=2, note=66, velocity=0, time=16),
    Message('note_on', channel=2, note=61, velocity=60, time=0),
    Message('note_off', channel=2, note=61, velocity=0, time=16),
    Message('note_on', channel=2, note=65, velocity=60, time=0),
    Message('note_off', channel=2, note=65, velocity=0, time=16),
    Message('note_on', channel=2, note=66, velocity=60, time=0),
    Message('note_off', channel=2, note=66, velocity=0, time=15),
    Message('note_on', channel=2, note=75, velocity=60, time=1),
    Message('note_on', channel=2, note=67, velocity=60, time=0),
    Message('note_off', channel=2, note=75, velocity=0, time=16),
    Message('note_off', channel=2, note=67, velocity=0, time=0),
    Message('note_on', channel=2, note=74, velocity=60, time=0),
    Message('note_on', channel=2, note=66, velocity=60, time=0),
    Message('note_off', channel=2, note=66, velocity=0, time=16),
    Message('note_off', channel=2, note=74, velocity=0, time=0),
    Message('note_on', channel=2, note=75, velocity=60, time=0),
    Message('note_on', channel=2, note=67, velocity=60, time=0),
    Message('note_off', channel=2, note=67, velocity=0, time=16),
    Message('note_off', channel=2, note=75, velocity=0, time=0),
    Message('note_on', channel=2, note=77, velocity=60, time=0),
    Message('note_on', channel=2, note=68, velocity=60, time=0),
    Message('note_off', channel=2, note=68, velocity=0, time=16),
    Message('note_off', channel=2, note=77, velocity=0, time=0),
    Message('note_on', channel=2, note=75, velocity=60, time=0),
    Message('note_on', channel=2, note=67, velocity=60, time=0),
    Message('note_off', channel=2, note=67, velocity=0, time=16),
    Message('note_off', channel=2, note=75, velocity=0, time=0),
    Message('note_on', channel=2, note=74, velocity=60, time=0),
    Message('note_on', channel=2, note=66, velocity=60, time=0),
    Message('note_off', channel=2, note=66, velocity=0, time=16),
    Message('note_off', channel=2, note=74, velocity=0, time=0),
    Message('note_on', channel=2, note=66, velocity=60, time=0),
    Message('note_on', channel=2, note=61, velocity=60, time=0),
    Message('note_off', channel=2, note=61, velocity=0, time=16),
    Message('note_off', channel=2, note=66, velocity=0, time=0),
    Message('note_on', channel=2, note=73, velocity=60, time=0),
    Message('note_on', channel=2, note=65, velocity=60, time=0),
    Message('note_off', channel=2, note=65, velocity=0, time=16),
    Message('note_off', channel=2, note=73, velocity=0, time=0),
    Message('note_on', channel=2, note=74, velocity=60, time=0),
    Message('note_on', channel=2, note=66, velocity=60, time=0),
    Message('note_off', channel=2, note=66, velocity=0, time=15),
    Message('note_off', channel=2, note=74, velocity=0, time=0),
    Message('note_on', channel=2, note=75, velocity=60, time=1),
    Message('note_on', channel=2, note=67, velocity=60, time=0),
    Message('note_off', channel=2, note=75, velocity=0, time=16),
    Message('note_off', channel=2, note=67, velocity=0, time=0),
    Message('note_on', channel=2, note=74, velocity=60, time=0),
    Message('note_on', channel=2, note=66, velocity=60, time=0),
    Message('note_off', channel=2, note=66, velocity=0, time=16),
    Message('note_off', channel=2, note=74, velocity=0, time=0),
    Message('note_on', channel=2, note=75, velocity=60, time=0),
    Message('note_on', channel=2, note=67, velocity=60, time=0),
    Message('note_off', channel=2, note=67, velocity=0, time=16),
    Message('note_off', channel=2, note=75, velocity=0, time=0),
    Message('note_on', channel=2, note=77, velocity=60, time=0),
    Message('note_on', channel=2, note=68, velocity=60, time=0),
    Message('note_off', channel=2, note=68, velocity=0, time=16),
    Message('note_off', channel=2, note=77, velocity=0, time=0),
    Message('note_on', channel=2, note=75, velocity=60, time=0),
    Message('note_on', channel=2, note=67, velocity=60, time=0),
    Message('note_off', channel=2, note=67, velocity=0, time=16),
    Message('note_off', channel=2, note=75, velocity=0, time=0),
    Message('note_on', channel=2, note=74, velocity=60, time=0),
    Message('note_on', channel=2, note=66, velocity=60, time=0),
    Message('note_off', channel=2, note=66, velocity=0, time=16),
    Message('note_off', channel=2, note=74, velocity=0, time=0),
    Message('note_on', channel=2, note=66, velocity=60, time=0),
    Message('note_on', channel=2, note=61, velocity=60, time=0),
    Message('note_off', channel=2, note=61, velocity=0, time=16),
    Message('note_off', channel=2, note=66, velocity=0, time=0),
    Message('note_on', channel=2, note=65, velocity=60, time=0),
    Message('note_off', channel=2, note=65, velocity=0, time=16),
    Message('note_on', channel=2, note=66, velocity=60, time=0),
    Message('note_off', channel=2, note=66, velocity=0, time=15),
    Message('note_on', channel=2, note=67, velocity=60, time=1),
    Message('control_change', channel=2, control=7, value=91, time=7),
    Message('control_change', channel=2, control=7, value=92, time=7),
    Message('note_off', channel=2, note=67, velocity=0, time=2),
    Message('note_on', channel=2, note=66, velocity=63, time=0),
    Message('control_change', channel=2, control=7, value=93, time=5),
    Message('control_change', channel=2, control=7, value=94, time=7),
    Message('note_off', channel=2, note=66, velocity=0, time=4),
    Message('note_on', channel=2, note=67, velocity=66, time=0),
    Message('control_change', channel=2, control=7, value=95, time=3),
    Message('control_change', channel=2, control=7, value=96, time=8),
    Message('note_off', channel=2, note=67, velocity=0, time=5),
    Message('note_on', channel=2, note=68, velocity=69, time=0),
    Message('control_change', channel=2, control=7, value=97, time=2),
    Message('control_change', channel=2, control=7, value=98, time=7),
    Message('note_off', channel=2, note=68, velocity=0, time=7),
    Message('control_change', channel=2, control=7, value=99, time=0),
    Message('note_on', channel=2, note=67, velocity=72, time=0),
    Message('control_change', channel=2, control=7, value=100, time=7),
    Message('control_change', channel=2, control=7, value=101, time=8),
    Message('note_off', channel=2, note=67, velocity=0, time=1),
    Message('note_on', channel=2, note=66, velocity=76, time=0),
    Message('control_change', channel=2, control=7, value=102, time=6),
    Message('control_change', channel=2, control=7, value=103, time=7),
    Message('note_off', channel=2, note=66, velocity=0, time=3),
    Message('note_on', channel=2, note=61, velocity=80, time=0),
    Message('control_change', channel=2, control=7, value=104, time=4),
    Message('control_change', channel=2, control=7, value=105, time=7),
    Message('note_off', channel=2, note=61, velocity=0, time=5),
    Message('note_on', channel=2, note=65, velocity=84, time=0),
    Message('control_change', channel=2, control=7, value=106, time=3),
    Message('control_change', channel=2, control=7, value=107, time=7),
    Message('note_off', channel=2, note=65, velocity=0, time=6),
    Message('note_on', channel=2, note=66, velocity=88, time=0),
    Message('control_change', channel=2, control=7, value=108, time=1),
    Message('control_change', channel=2, control=7, value=109, time=7),
    Message('note_off', channel=2, note=66, velocity=0, time=7),
    Message('control_change', channel=2, control=7, value=110, time=0),
    Message('control_change', channel=2, control=7, value=100, time=433),
    Message('note_on', channel=2, note=66, velocity=75, time=0),
    Message('note_off', channel=2, note=66, velocity=0, time=15),
    Message('note_on', channel=2, note=70, velocity=76, time=1),
    Message('control_change', channel=2, control=7, value=101, time=5),
    Message('note_off', channel=2, note=70, velocity=0, time=10),
    Message('note_on', channel=2, note=75, velocity=77, time=1),
    Message('control_change', channel=2, control=7, value=102, time=11),
    Message('note_off', channel=2, note=75, velocity=0, time=4),
    Message('note_on', channel=2, note=78, velocity=78, time=1),
    Message('control_change', channel=2, control=7, value=103, time=16),
    Message('control_change', channel=2, control=7, value=104, time=22),
    Message('control_change', channel=2, control=7, value=105, time=22),
    Message('control_change', channel=2, control=7, value=106, time=21),
    Message('control_change', channel=2, control=7, value=107, time=22),
    Message('control_change', channel=2, control=7, value=108, time=21),
    Message('control_change', channel=2, control=7, value=109, time=22),
    Message('control_change', channel=2, control=7, value=110, time=22),
    Message('control_change', channel=2, control=7, value=111, time=21),
    Message('control_change', channel=2, control=7, value=112, time=22),
    Message('control_change', channel=2, control=7, value=113, time=21),
    Message('control_change', channel=2, control=7, value=114, time=22),
    Message('control_change', channel=2, control=7, value=115, time=22),
    Message('control_change', channel=2, control=7, value=116, time=21),
    Message('control_change', channel=2, control=7, value=117, time=22),
    Message('control_change', channel=2, control=7, value=118, time=21),
    Message('note_off', channel=2, note=78, velocity=0, time=20),
    Message('control_change', channel=2, control=7, value=119, time=2),
    Message('control_change', channel=2, control=7, value=120, time=22),
    Message('note_on', channel=2, note=76, velocity=127, time=0),
    Message('note_on', channel=2, note=72, velocity=127, time=0),
    Message('note_on', channel=2, note=60, velocity=127, time=0),
    Message('note_off', channel=2, note=76, velocity=0, time=47),
    Message('note_off', channel=2, note=72, velocity=0, time=0),
    Message('note_off', channel=2, note=60, velocity=0, time=0),
    Message('control_change', channel=2, control=101, value=0, time=1249),
    Message('control_change', channel=2, control=100, value=0, time=0),
    Message('control_change', channel=2, control=6, value=12, time=0),
    Message('control_change', channel=2, control=10, value=64, time=0),
    Message('control_change', channel=2, control=7, value=120, time=0),
    Message('pitchwheel', channel=2, pitch=0, time=0),
    Message('program_change', channel=2, program=71, time=0),
    Message('program_change', channel=2, program=71, time=0),
    Message('control_change', channel=2, control=7, value=127, time=0),
    Message('control_change', channel=2, control=10, value=64, time=0),
    Message('control_change', channel=2, control=101, value=0, time=1),
    Message('control_change', channel=2, control=100, value=0, time=0),
    Message('control_change', channel=2, control=6, value=12, time=0),
    Message('control_change', channel=2, control=10, value=64, time=0),
    Message('control_change', channel=2, control=7, value=120, time=0),
    Message('pitchwheel', channel=2, pitch=0, time=0),
    Message('program_change', channel=2, program=71, time=0),
    MetaMessage('end_of_track', time=0)]),
  MidiTrack([
    MetaMessage('track_name', name='Flute', time=0),
    Message('control_change', channel=0, control=10, value=64, time=0),
    Message('control_change', channel=0, control=7, value=127, time=0),
    Message('pitchwheel', channel=0, pitch=0, time=0),
    Message('control_change', channel=0, control=101, value=0, time=0),
    Message('control_change', channel=0, control=100, value=0, time=0),
    Message('control_change', channel=0, control=6, value=12, time=0),
    Message('control_change', channel=0, control=10, value=64, time=0),
    Message('control_change', channel=0, control=7, value=127, time=0),
    Message('pitchwheel', channel=0, pitch=0, time=0),
    Message('program_change', channel=0, program=73, time=0),
    Message('program_change', channel=0, program=73, time=0),
    Message('control_change', channel=0, control=7, value=127, time=0),
    Message('control_change', channel=0, control=10, value=64, time=0),
    Message('control_change', channel=0, control=101, value=0, time=0),
    Message('control_change', channel=0, control=100, value=0, time=0),
    Message('control_change', channel=0, control=6, value=12, time=0),
    Message('control_change', channel=0, control=10, value=64, time=0),
    Message('control_change', channel=0, control=7, value=127, time=0),
    Message('pitchwheel', channel=0, pitch=0, time=0),
    Message('program_change', channel=0, program=73, time=0),
    Message('program_change', channel=0, program=73, time=0),
    Message('control_change', channel=0, control=7, value=127, time=0),
    Message('control_change', channel=0, control=10, value=64, time=0),
    Message('control_change', channel=0, control=101, value=0, time=0),
    Message('control_change', channel=0, control=100, value=0, time=0),
    Message('control_change', channel=0, control=6, value=12, time=0),
    Message('control_change', channel=0, control=10, value=64, time=0),
    Message('control_change', channel=0, control=7, value=127, time=0),
    Message('pitchwheel', channel=0, pitch=0, time=0),
    Message('program_change', channel=0, program=73, time=0),
    Message('control_change', channel=0, control=7, value=110, time=26784),
    Message('note_on', channel=0, note=76, velocity=92, time=0),
    Message('control_change', channel=0, control=7, value=111, time=9),
    Message('control_change', channel=0, control=7, value=112, time=10),
    Message('note_off', channel=0, note=76, velocity=0, time=5),
    Message('note_on', channel=0, note=77, velocity=96, time=0),
    Message('control_change', channel=0, control=7, value=113, time=4),
    Message('control_change', channel=0, control=7, value=114, time=10),
    Message('note_off', channel=0, note=77, velocity=0, time=10),
    Message('control_change', channel=0, control=7, value=115, time=0),
    Message('note_on', channel=0, note=79, velocity=100, time=0),
    Message('control_change', channel=0, control=7, value=116, time=9),
    Message('control_change', channel=0, control=7, value=117, time=10),
    Message('note_off', channel=0, note=79, velocity=0, time=5),
    Message('note_on', channel=0, note=80, velocity=104, time=0),
    Message('control_change', channel=0, control=7, value=118, time=4),
    Message('control_change', channel=0, control=7, value=119, time=10),
    Message('note_off', channel=0, note=80, velocity=0, time=10),
    Message('control_change', channel=0, control=7, value=120, time=0),
    Message('note_on', channel=0, note=81, velocity=127, time=0),
    Message('note_off', channel=0, note=81, velocity=0, time=47),
    Message('control_change', channel=0, control=7, value=100, time=241),
    Message('note_on', channel=0, note=72, velocity=75, time=0),
    Message('control_change', channel=0, control=7, value=101, time=9),
    Message('control_change', channel=0, control=7, value=102, time=10),
    Message('note_off', channel=0, note=72, velocity=0, time=5),
    Message('note_on', channel=0, note=74, velocity=79, time=0),
    Message('control_change', channel=0, control=7, value=103, time=4),
    Message('control_change', channel=0, control=7, value=104, time=10),
    Message('note_off', channel=0, note=74, velocity=0, time=10),
    Message('control_change', channel=0, control=7, value=105, time=0),
    Message('note_on', channel=0, note=76, velocity=83, time=0),
    Message('control_change', channel=0, control=7, value=106, time=9),
    Message('note_off', channel=0, note=76, velocity=0, time=7),
    Message('note_on', channel=0, note=77, velocity=86, time=0),
    Message('control_change', channel=0, control=7, value=107, time=3),
    Message('control_change', channel=0, control=7, value=108, time=9),
    Message('note_off', channel=0, note=77, velocity=0, time=4),
    Message('note_on', channel=0, note=80, velocity=89, time=0),
    Message('control_change', channel=0, control=7, value=109, time=6),
    Message('note_off', channel=0, note=80, velocity=0, time=10),
    Message('control_change', channel=0, control=7, value=110, time=0),
    Message('note_on', channel=0, note=81, velocity=92, time=0),
    Message('note_off', channel=0, note=81, velocity=0, time=47),
    Message('note_on', channel=0, note=76, velocity=92, time=49),
    Message('note_off', channel=0, note=76, velocity=0, time=24),
    Message('note_on', channel=0, note=77, velocity=92, time=0),
    Message('note_off', channel=0, note=77, velocity=0, time=24),
    Message('note_on', channel=0, note=76, velocity=92, time=0),
    Message('note_off', channel=0, note=76, velocity=0, time=16),
    Message('note_on', channel=0, note=76, velocity=92, time=32),
    Message('note_off', channel=0, note=76, velocity=0, time=47),
    Message('note_on', channel=0, note=75, velocity=92, time=49),
    Message('note_off', channel=0, note=75, velocity=0, time=16),
    Message('note_on', channel=0, note=76, velocity=92, time=32),
    Message('note_off', channel=0, note=76, velocity=0, time=16),
    Message('control_change', channel=0, control=7, value=100, time=12704),
    Message('note_on', channel=0, note=79, velocity=105, time=0),
    Message('control_change', channel=0, control=7, value=101, time=7),
    Message('control_change', channel=0, control=7, value=102, time=7),
    Message('note_off', channel=0, note=79, velocity=0, time=2),
    Message('note_on', channel=0, note=81, velocity=78, time=0),
    Message('control_change', channel=0, control=7, value=103, time=5),
    Message('control_change', channel=0, control=7, value=104, time=7),
    Message('note_off', channel=0, note=81, velocity=0, time=4),
    Message('note_on', channel=0, note=82, velocity=81, time=0),
    Message('control_change', channel=0, control=7, value=105, time=3),
    Message('control_change', channel=0, control=7, value=106, time=8),
    Message('note_off', channel=0, note=82, velocity=0, time=5),
    Message('note_on', channel=0, note=84, velocity=84, time=0),
    Message('control_change', channel=0, control=7, value=107, time=2),
    Message('control_change', channel=0, control=7, value=108, time=7),
    Message('note_off', channel=0, note=84, velocity=0, time=3),
    Message('note_on', channel=0, note=86, velocity=87, time=0),
    Message('control_change', channel=0, control=7, value=109, time=4),
    Message('control_change', channel=0, control=7, value=110, time=7),
    Message('note_off', channel=0, note=86, velocity=0, time=1),
    Message('note_on', channel=0, note=87, velocity=90, time=0),
    Message('control_change', channel=0, control=7, value=111, time=7),
    Message('note_off', channel=0, note=87, velocity=0, time=5),
    Message('note_on', channel=0, note=89, velocity=93, time=0),
    Message('control_change', channel=0, control=7, value=112, time=2),
    Message('control_change', channel=0, control=7, value=113, time=7),
    Message('note_off', channel=0, note=89, velocity=0, time=3),
    Message('note_on', channel=0, note=91, velocity=96, time=0),
    Message('control_change', channel=0, control=7, value=114, time=4),
    Message('control_change', channel=0, control=7, value=115, time=7),
    Message('control_change', channel=0, control=7, value=116, time=8),
    Message('control_change', channel=0, control=7, value=117, time=7),
    Message('control_change', channel=0, control=7, value=118, time=7),
    Message('control_change', channel=0, control=7, value=119, time=7),
    Message('note_off', channel=0, note=91, velocity=0, time=7),
    Message('control_change', channel=0, control=7, value=120, time=0),
    Message('control_change', channel=0, control=7, value=90, time=8593),
    Message('note_on', channel=0, note=75, velocity=60, time=0),
    Message('note_on', channel=0, note=74, velocity=60, time=0),
    Message('note_off', channel=0, note=75, velocity=0, time=6),
    Message('note_on', channel=0, note=74, velocity=60, time=0),
    Message('note_off', channel=0, note=74, velocity=0, time=6),
    Message('note_off', channel=0, note=74, velocity=0, time=0),
    Message('note_on', channel=0, note=75, velocity=60, time=0),
    Message('note_off', channel=0, note=75, velocity=0, time=6),
    Message('note_on', channel=0, note=74, velocity=60, time=0),
    Message('note_off', channel=0, note=74, velocity=0, time=6),
    Message('note_on', channel=0, note=75, velocity=60, time=0),
    Message('note_off', channel=0, note=75, velocity=0, time=6),
    Message('note_on', channel=0, note=74, velocity=60, time=0),
    Message('note_off', channel=0, note=74, velocity=0, time=6),
    Message('note_on', channel=0, note=75, velocity=60, time=0),
    Message('note_off', channel=0, note=75, velocity=0, time=6),
    Message('note_on', channel=0, note=74, velocity=60, time=0),
    Message('note_off', channel=0, note=74, velocity=0, time=6),
    Message('note_on', channel=0, note=75, velocity=60, time=0),
    Message('note_off', channel=0, note=75, velocity=0, time=8),
    Message('note_on', channel=0, note=74, velocity=60, time=0),
    Message('note_off', channel=0, note=74, velocity=0, time=8),
    Message('note_on', channel=0, note=75, velocity=60, time=0),
    Message('note_off', channel=0, note=75, velocity=0, time=8),
    Message('note_on', channel=0, note=74, velocity=60, time=0),
    Message('note_off', channel=0, note=74, velocity=0, time=8),
    Message('note_on', channel=0, note=75, velocity=60, time=0),
    Message('note_off', channel=0, note=75, velocity=0, time=8),
    Message('note_on', channel=0, note=74, velocity=60, time=0),
    Message('note_off', channel=0, note=74, velocity=0, time=8),
    Message('note_on', channel=0, note=75, velocity=60, time=0),
    Message('note_off', channel=0, note=75, velocity=0, time=8),
    Message('note_on', channel=0, note=74, velocity=60, time=0),
    Message('note_off', channel=0, note=74, velocity=0, time=8),
    Message('note_on', channel=0, note=75, velocity=60, time=0),
    Message('note_off', channel=0, note=75, velocity=0, time=8),
    Message('note_on', channel=0, note=74, velocity=60, time=0),
    Message('note_off', channel=0, note=74, velocity=0, time=8),
    Message('note_on', channel=0, note=75, velocity=60, time=0),
    Message('note_off', channel=0, note=75, velocity=0, time=8),
    Message('note_on', channel=0, note=74, velocity=60, time=0),
    Message('note_off', channel=0, note=74, velocity=0, time=8),
    Message('note_on', channel=0, note=75, velocity=60, time=0),
    Message('note_off', channel=0, note=75, velocity=0, time=6),
    Message('note_on', channel=0, note=74, velocity=60, time=0),
    Message('note_off', channel=0, note=74, velocity=0, time=6),
    Message('note_on', channel=0, note=75, velocity=60, time=0),
    Message('note_off', channel=0, note=75, velocity=0, time=6),
    Message('note_on', channel=0, note=74, velocity=60, time=0),
    Message('note_off', channel=0, note=74, velocity=0, time=6),
    Message('note_on', channel=0, note=74, velocity=60, time=0),
    Message('note_off', channel=0, note=74, velocity=0, time=8),
    Message('note_on', channel=0, note=75, velocity=60, time=0),
    Message('note_off', channel=0, note=75, velocity=0, time=8),
    Message('note_on', channel=0, note=74, velocity=60, time=0),
    Message('note_off', channel=0, note=74, velocity=0, time=8),
    Message('note_on', channel=0, note=75, velocity=60, time=0),
    Message('note_off', channel=0, note=75, velocity=0, time=8),
    Message('note_on', channel=0, note=74, velocity=60, time=0),
    Message('note_off', channel=0, note=74, velocity=0, time=8),
    Message('note_on', channel=0, note=75, velocity=60, time=0),
    Message('note_off', channel=0, note=75, velocity=0, time=8),
    Message('note_on', channel=0, note=75, velocity=60, time=0),
    Message('note_off', channel=0, note=75, velocity=0, time=8),
    Message('note_on', channel=0, note=74, velocity=60, time=0),
    Message('note_off', channel=0, note=74, velocity=0, time=8),
    Message('note_on', channel=0, note=75, velocity=60, time=0),
    Message('note_off', channel=0, note=75, velocity=0, time=8),
    Message('note_on', channel=0, note=75, velocity=60, time=0),
    Message('note_off', channel=0, note=75, velocity=0, time=6),
    Message('note_on', channel=0, note=74, velocity=60, time=0),
    Message('note_off', channel=0, note=74, velocity=0, time=6),
    Message('note_on', channel=0, note=75, velocity=60, time=0),
    Message('note_off', channel=0, note=75, velocity=0, time=6),
    Message('note_on', channel=0, note=74, velocity=60, time=0),
    Message('note_off', channel=0, note=74, velocity=0, time=6),
    Message('note_on', channel=0, note=75, velocity=60, time=0),
    Message('note_off', channel=0, note=75, velocity=0, time=6),
    Message('note_on', channel=0, note=74, velocity=60, time=0),
    Message('note_off', channel=0, note=74, velocity=0, time=6),
    Message('note_on', channel=0, note=75, velocity=60, time=0),
    Message('note_off', channel=0, note=75, velocity=0, time=6),
    Message('note_on', channel=0, note=74, velocity=60, time=0),
    Message('note_off', channel=0, note=74, velocity=0, time=6),
    Message('note_on', channel=0, note=75, velocity=60, time=0),
    Message('note_off', channel=0, note=75, velocity=0, time=47),
    Message('control_change', channel=0, control=101, value=0, time=9889),
    Message('control_change', channel=0, control=100, value=0, time=0),
    Message('control_change', channel=0, control=6, value=12, time=0),
    Message('control_change', channel=0, control=10, value=64, time=0),
    Message('control_change', channel=0, control=7, value=90, time=0),
    Message('pitchwheel', channel=0, pitch=0, time=0),
    Message('program_change', channel=0, program=73, time=0),
    Message('program_change', channel=0, program=73, time=0),
    Message('control_change', channel=0, control=7, value=127, time=0),
    Message('control_change', channel=0, control=10, value=64, time=0),
    Message('control_change', channel=0, control=101, value=0, time=1),
    Message('control_change', channel=0, control=100, value=0, time=0),
    Message('control_change', channel=0, control=6, value=12, time=0),
    Message('control_change', channel=0, control=10, value=64, time=0),
    Message('control_change', channel=0, control=7, value=90, time=0),
    Message('pitchwheel', channel=0, pitch=0, time=0),
    Message('program_change', channel=0, program=73, time=0),
    MetaMessage('end_of_track', time=0)]),
  MidiTrack([
    MetaMessage('track_name', name='Piano #4', time=0),
    Message('control_change', channel=6, control=10, value=64, time=0),
    Message('control_change', channel=6, control=7, value=127, time=0),
    Message('pitchwheel', channel=6, pitch=0, time=0),
    Message('control_change', channel=6, control=101, value=0, time=0),
    Message('control_change', channel=6, control=100, value=0, time=0),
    Message('control_change', channel=6, control=6, value=12, time=0),
    Message('control_change', channel=6, control=10, value=64, time=0),
    Message('control_change', channel=6, control=7, value=127, time=0),
    Message('pitchwheel', channel=6, pitch=0, time=0),
    Message('program_change', channel=6, program=0, time=0),
    Message('control_change', channel=6, control=7, value=127, time=0),
    Message('control_change', channel=6, control=10, value=64, time=0),
    Message('control_change', channel=6, control=101, value=0, time=0),
    Message('control_change', channel=6, control=100, value=0, time=0),
    Message('control_change', channel=6, control=6, value=12, time=0),
    Message('control_change', channel=6, control=10, value=64, time=0),
    Message('control_change', channel=6, control=7, value=127, time=0),
    Message('pitchwheel', channel=6, pitch=0, time=0),
    Message('program_change', channel=6, program=0, time=0),
    Message('control_change', channel=6, control=7, value=127, time=0),
    Message('control_change', channel=6, control=10, value=64, time=0),
    Message('control_change', channel=6, control=101, value=0, time=0),
    Message('control_change', channel=6, control=100, value=0, time=0),
    Message('control_change', channel=6, control=6, value=12, time=0),
    Message('control_change', channel=6, control=10, value=64, time=0),
    Message('control_change', channel=6, control=7, value=127, time=0),
    Message('pitchwheel', channel=6, pitch=0, time=0),
    Message('program_change', channel=6, program=0, time=0),
    Message('control_change', channel=6, control=7, value=110, time=42336),
    Message('note_on', channel=6, note=61, velocity=92, time=0),
    Message('note_off', channel=6, note=61, velocity=0, time=24),
    Message('note_on', channel=6, note=59, velocity=92, time=0),
    Message('note_off', channel=6, note=59, velocity=0, time=24),
    Message('note_on', channel=6, note=57, velocity=92, time=0),
    Message('note_off', channel=6, note=57, velocity=0, time=24),
    Message('note_on', channel=6, note=59, velocity=92, time=0),
    Message('note_off', channel=6, note=59, velocity=0, time=24),
    Message('note_on', channel=6, note=61, velocity=92, time=0),
    Message('note_off', channel=6, note=61, velocity=0, time=168),
    Message('control_change', channel=6, control=7, value=100, time=408),
    Message('note_on', channel=6, note=56, velocity=75, time=0),
    Message('note_off', channel=6, note=56, velocity=0, time=80),
    Message('note_on', channel=6, note=61, velocity=75, time=16),
    Message('note_off', channel=6, note=61, velocity=0, time=80),
    Message('note_on', channel=6, note=64, velocity=75, time=16),
    Message('note_off', channel=6, note=64, velocity=0, time=80),
    Message('note_on', channel=6, note=68, velocity=75, time=16),
    Message('note_off', channel=6, note=68, velocity=0, time=80),
    Message('note_on', channel=6, note=73, velocity=75, time=16),
    Message('note_off', channel=6, note=73, velocity=0, time=47),
    Message('control_change', channel=6, control=101, value=0, time=15841),
    Message('control_change', channel=6, control=100, value=0, time=0),
    Message('control_change', channel=6, control=6, value=12, time=0),
    Message('control_change', channel=6, control=10, value=64, time=0),
    Message('control_change', channel=6, control=7, value=100, time=0),
    Message('pitchwheel', channel=6, pitch=0, time=0),
    Message('program_change', channel=6, program=0, time=0),
    Message('control_change', channel=6, control=7, value=127, time=0),
    Message('control_change', channel=6, control=10, value=64, time=0),
    Message('control_change', channel=6, control=101, value=0, time=1),
    Message('control_change', channel=6, control=100, value=0, time=0),
    Message('control_change', channel=6, control=6, value=12, time=0),
    Message('control_change', channel=6, control=10, value=64, time=0),
    Message('control_change', channel=6, control=7, value=100, time=0),
    Message('pitchwheel', channel=6, pitch=0, time=0),
    Message('program_change', channel=6, program=0, time=0),
    MetaMessage('end_of_track', time=0)]),
  MidiTrack([
    MetaMessage('track_name', name='Trombone', time=0),
    Message('control_change', channel=7, control=10, value=64, time=0),
    Message('control_change', channel=7, control=7, value=127, time=0),
    Message('pitchwheel', channel=7, pitch=0, time=0),
    Message('control_change', channel=7, control=101, value=0, time=0),
    Message('control_change', channel=7, control=100, value=0, time=0),
    Message('control_change', channel=7, control=6, value=12, time=0),
    Message('control_change', channel=7, control=10, value=64, time=0),
    Message('control_change', channel=7, control=7, value=127, time=0),
    Message('pitchwheel', channel=7, pitch=0, time=0),
    Message('program_change', channel=7, program=57, time=0),
    Message('program_change', channel=7, program=57, time=0),
    Message('control_change', channel=7, control=7, value=127, time=0),
    Message('control_change', channel=7, control=10, value=64, time=0),
    Message('control_change', channel=7, control=101, value=0, time=0),
    Message('control_change', channel=7, control=100, value=0, time=0),
    Message('control_change', channel=7, control=6, value=12, time=0),
    Message('control_change', channel=7, control=10, value=64, time=0),
    Message('control_change', channel=7, control=7, value=127, time=0),
    Message('pitchwheel', channel=7, pitch=0, time=0),
    Message('program_change', channel=7, program=57, time=0),
    Message('program_change', channel=7, program=57, time=0),
    Message('control_change', channel=7, control=7, value=127, time=0),
    Message('control_change', channel=7, control=10, value=64, time=0),
    Message('control_change', channel=7, control=101, value=0, time=0),
    Message('control_change', channel=7, control=100, value=0, time=0),
    Message('control_change', channel=7, control=6, value=12, time=0),
    Message('control_change', channel=7, control=10, value=64, time=0),
    Message('control_change', channel=7, control=7, value=127, time=0),
    Message('pitchwheel', channel=7, pitch=0, time=0),
    Message('program_change', channel=7, program=57, time=0),
    Message('control_change', channel=7, control=7, value=100, time=26784),
    Message('note_on', channel=7, note=52, velocity=105, time=0),
    Message('note_off', channel=7, note=52, velocity=0, time=47),
    Message('control_change', channel=7, control=7, value=110, time=49),
    Message('note_on', channel=7, note=45, velocity=127, time=0),
    Message('note_off', channel=7, note=45, velocity=0, time=47),
    Message('control_change', channel=7, control=7, value=100, time=145),
    Message('note_on', channel=7, note=64, velocity=75, time=0),
    Message('note_on', channel=7, note=52, velocity=75, time=0),
    Message('control_change', channel=7, control=7, value=101, time=19),
    Message('control_change', channel=7, control=7, value=102, time=19),
    Message('control_change', channel=7, control=7, value=103, time=19),
    Message('control_change', channel=7, control=7, value=104, time=19),
    Message('control_change', channel=7, control=7, value=105, time=20),
    Message('control_change', channel=7, control=7, value=106, time=19),
    Message('control_change', channel=7, control=7, value=107, time=19),
    Message('control_change', channel=7, control=7, value=108, time=19),
    Message('note_off', channel=7, note=64, velocity=0, time=15),
    Message('note_off', channel=7, note=52, velocity=0, time=0),
    Message('control_change', channel=7, control=7, value=109, time=4),
    Message('control_change', channel=7, control=7, value=110, time=20),
    Message('note_on', channel=7, note=64, velocity=127, time=0),
    Message('note_on', channel=7, note=60, velocity=127, time=0),
    Message('note_on', channel=7, note=57, velocity=127, time=0),
    Message('note_off', channel=7, note=60, velocity=0, time=47),
    Message('note_off', channel=7, note=64, velocity=0, time=0),
    Message('note_off', channel=7, note=57, velocity=0, time=0),
    Message('note_on', channel=7, note=33, velocity=127, time=337),
    Message('note_off', channel=7, note=33, velocity=0, time=648),
    Message('note_on', channel=7, note=52, velocity=92, time=120),
    Message('note_off', channel=7, note=52, velocity=0, time=47),
    Message('note_on', channel=7, note=57, velocity=92, time=49),
    Message('note_on', channel=7, note=52, velocity=92, time=0),
    Message('note_on', channel=7, note=48, velocity=92, time=0),
    Message('note_off', channel=7, note=48, velocity=0, time=47),
    Message('note_off', channel=7, note=52, velocity=0, time=0),
    Message('note_off', channel=7, note=57, velocity=0, time=0),
    Message('note_on', channel=7, note=60, velocity=92, time=1),
    Message('note_on', channel=7, note=57, velocity=92, time=0),
    Message('note_on', channel=7, note=52, velocity=92, time=0),
    Message('note_off', channel=7, note=52, velocity=0, time=47),
    Message('note_off', channel=7, note=57, velocity=0, time=0),
    Message('note_off', channel=7, note=60, velocity=0, time=0),
    Message('note_on', channel=7, note=63, velocity=92, time=1),
    Message('note_on', channel=7, note=59, velocity=92, time=0),
    Message('note_on', channel=7, note=56, velocity=92, time=0),
    Message('note_off', channel=7, note=63, velocity=0, time=168),
    Message('note_off', channel=7, note=59, velocity=0, time=0),
    Message('note_off', channel=7, note=56, velocity=0, time=0),
    Message('note_on', channel=7, note=64, velocity=92, time=24),
    Message('note_on', channel=7, note=60, velocity=92, time=0),
    Message('note_on', channel=7, note=57, velocity=92, time=0),
    Message('note_off', channel=7, note=64, velocity=0, time=16),
    Message('note_off', channel=7, note=60, velocity=0, time=0),
    Message('note_off', channel=7, note=57, velocity=0, time=0),
    Message('note_on', channel=7, note=64, velocity=92, time=176),
    Message('note_on', channel=7, note=60, velocity=92, time=0),
    Message('note_on', channel=7, note=57, velocity=92, time=0),
    Message('note_off', channel=7, note=64, velocity=0, time=16),
    Message('note_off', channel=7, note=60, velocity=0, time=0),
    Message('note_off', channel=7, note=57, velocity=0, time=0),
    Message('note_on', channel=7, note=63, velocity=92, time=80),
    Message('note_on', channel=7, note=59, velocity=92, time=0),
    Message('note_on', channel=7, note=56, velocity=92, time=0),
    Message('note_off', channel=7, note=63, velocity=0, time=16),
    Message('note_off', channel=7, note=59, velocity=0, time=0),
    Message('note_off', channel=7, note=56, velocity=0, time=0),
    Message('note_on', channel=7, note=64, velocity=92, time=32),
    Message('note_on', channel=7, note=60, velocity=92, time=0),
    Message('note_on', channel=7, note=57, velocity=92, time=0),
    Message('note_off', channel=7, note=64, velocity=0, time=16),
    Message('note_off', channel=7, note=60, velocity=0, time=0),
    Message('note_off', channel=7, note=57, velocity=0, time=0),
    Message('note_on', channel=7, note=67, velocity=92, time=32),
    Message('note_on', channel=7, note=63, velocity=92, time=0),
    Message('note_on', channel=7, note=60, velocity=92, time=0),
    Message('note_off', channel=7, note=67, velocity=0, time=96),
    Message('note_off', channel=7, note=63, velocity=0, time=0),
    Message('note_off', channel=7, note=60, velocity=0, time=0),
    Message('note_on', channel=7, note=65, velocity=92, time=0),
    Message('note_on', channel=7, note=61, velocity=92, time=0),
    Message('note_on', channel=7, note=58, velocity=92, time=0),
    Message('note_off', channel=7, note=58, velocity=0, time=16),
    Message('note_off', channel=7, note=61, velocity=0, time=0),
    Message('note_off', channel=7, note=65, velocity=0, time=0),
    Message('note_on', channel=7, note=64, velocity=92, time=32),
    Message('note_on', channel=7, note=60, velocity=92, time=0),
    Message('note_on', channel=7, note=57, velocity=92, time=0),
    Message('note_off', channel=7, note=64, velocity=0, time=16),
    Message('note_off', channel=7, note=60, velocity=0, time=0),
    Message('note_off', channel=7, note=57, velocity=0, time=0),
    Message('note_on', channel=7, note=65, velocity=92, time=32),
    Message('note_on', channel=7, note=61, velocity=92, time=0),
    Message('note_on', channel=7, note=58, velocity=92, time=0),
    Message('note_off', channel=7, note=65, velocity=0, time=24),
    Message('note_off', channel=7, note=61, velocity=0, time=0),
    Message('note_off', channel=7, note=58, velocity=0, time=0),
    Message('note_on', channel=7, note=58, velocity=92, time=72),
    Message('note_on', channel=7, note=53, velocity=92, time=0),
    Message('note_on', channel=7, note=49, velocity=92, time=0),
    Message('note_off', channel=7, note=58, velocity=0, time=24),
    Message('note_off', channel=7, note=53, velocity=0, time=0),
    Message('note_off', channel=7, note=49, velocity=0, time=0),
    Message('note_on', channel=7, note=65, velocity=92, time=72),
    Message('note_on', channel=7, note=61, velocity=92, time=0),
    Message('note_on', channel=7, note=58, velocity=92, time=0),
    Message('note_off', channel=7, note=65, velocity=0, time=96),
    Message('note_off', channel=7, note=61, velocity=0, time=0),
    Message('note_off', channel=7, note=58, velocity=0, time=0),
    Message('note_on', channel=7, note=64, velocity=92, time=0),
    Message('note_on', channel=7, note=60, velocity=92, time=0),
    Message('note_on', channel=7, note=57, velocity=92, time=0),
    Message('note_off', channel=7, note=57, velocity=0, time=16),
    Message('note_off', channel=7, note=60, velocity=0, time=0),
    Message('note_off', channel=7, note=64, velocity=0, time=0),
    Message('note_on', channel=7, note=63, velocity=92, time=32),
    Message('note_on', channel=7, note=59, velocity=92, time=0),
    Message('note_on', channel=7, note=56, velocity=92, time=0),
    Message('note_off', channel=7, note=63, velocity=0, time=16),
    Message('note_off', channel=7, note=59, velocity=0, time=0),
    Message('note_off', channel=7, note=56, velocity=0, time=0),
    Message('note_on', channel=7, note=64, velocity=92, time=32),
    Message('note_on', channel=7, note=60, velocity=92, time=0),
    Message('note_on', channel=7, note=57, velocity=92, time=0),
    Message('note_off', channel=7, note=64, velocity=0, time=24),
    Message('note_off', channel=7, note=60, velocity=0, time=0),
    Message('note_off', channel=7, note=57, velocity=0, time=0),
    Message('note_on', channel=7, note=57, velocity=92, time=72),
    Message('note_on', channel=7, note=52, velocity=92, time=0),
    Message('note_on', channel=7, note=48, velocity=92, time=0),
    Message('note_off', channel=7, note=57, velocity=0, time=24),
    Message('note_off', channel=7, note=52, velocity=0, time=0),
    Message('note_off', channel=7, note=48, velocity=0, time=0),
    Message('note_on', channel=7, note=56, velocity=92, time=72),
    Message('note_off', channel=7, note=56, velocity=0, time=168),
    Message('note_on', channel=7, note=52, velocity=92, time=24),
    Message('note_off', channel=7, note=52, velocity=0, time=168),
    Message('note_on', channel=7, note=48, velocity=92, time=24),
    Message('note_on', channel=7, note=44, velocity=92, time=0),
    Message('note_on', channel=7, note=41, velocity=92, time=0),
    Message('note_off', channel=7, note=48, velocity=0, time=168),
    Message('note_off', channel=7, note=44, velocity=0, time=0),
    Message('note_off', channel=7, note=41, velocity=0, time=0),
    Message('note_on', channel=7, note=59, velocity=92, time=24),
    Message('note_on', channel=7, note=56, velocity=92, time=0),
    Message('note_on', channel=7, note=52, velocity=92, time=0),
    Message('note_off', channel=7, note=59, velocity=0, time=168),
    Message('note_off', channel=7, note=56, velocity=0, time=0),
    Message('note_off', channel=7, note=52, velocity=0, time=0),
    Message('control_change', channel=7, control=7, value=100, time=24),
    Message('note_on', channel=7, note=45, velocity=75, time=96),
    Message('note_off', channel=7, note=45, velocity=0, time=80),
    Message('note_on', channel=7, note=45, velocity=75, time=304),
    Message('note_off', channel=7, note=45, velocity=0, time=16),
    Message('note_on', channel=7, note=45, velocity=75, time=32),
    Message('note_off', channel=7, note=45, velocity=0, time=16),
    Message('note_on', channel=7, note=63, velocity=75, time=2144),
    Message('note_on', channel=7, note=60, velocity=75, time=0),
    Message('note_on', channel=7, note=55, velocity=75, time=0),
    Message('note_off', channel=7, note=63, velocity=0, time=264),
    Message('note_off', channel=7, note=60, velocity=0, time=0),
    Message('note_off', channel=7, note=55, velocity=0, time=0),
    Message('note_on', channel=7, note=62, velocity=75, time=24),
    Message('note_on', channel=7, note=59, velocity=75, time=0),
    Message('note_on', channel=7, note=55, velocity=75, time=0),
    Message('note_off', channel=7, note=55, velocity=0, time=80),
    Message('note_off', channel=7, note=59, velocity=0, time=0),
    Message('note_off', channel=7, note=62, velocity=0, time=0),
    Message('note_on', channel=7, note=63, velocity=75, time=16),
    Message('note_on', channel=7, note=60, velocity=75, time=0),
    Message('note_on', channel=7, note=55, velocity=75, time=0),
    Message('note_off', channel=7, note=55, velocity=0, time=80),
    Message('note_off', channel=7, note=60, velocity=0, time=0),
    Message('note_off', channel=7, note=63, velocity=0, time=0),
    Message('note_on', channel=7, note=62, velocity=75, time=112),
    Message('note_on', channel=7, note=59, velocity=75, time=0),
    Message('note_on', channel=7, note=55, velocity=75, time=0),
    Message('note_off', channel=7, note=55, velocity=0, time=80),
    Message('note_off', channel=7, note=59, velocity=0, time=0),
    Message('note_off', channel=7, note=62, velocity=0, time=0),
    Message('note_on', channel=7, note=63, velocity=75, time=112),
    Message('note_on', channel=7, note=60, velocity=75, time=0),
    Message('note_on', channel=7, note=55, velocity=75, time=0),
    Message('note_off', channel=7, note=63, velocity=0, time=24),
    Message('note_off', channel=7, note=60, velocity=0, time=0),
    Message('note_off', channel=7, note=55, velocity=0, time=0),
    Message('note_on', channel=7, note=67, velocity=75, time=744),
    Message('note_off', channel=7, note=67, velocity=0, time=168),
    Message('note_on', channel=7, note=60, velocity=75, time=24),
    Message('note_off', channel=7, note=60, velocity=0, time=128),
    Message('note_on', channel=7, note=55, velocity=75, time=64),
    Message('note_off', channel=7, note=55, velocity=0, time=168),
    Message('note_on', channel=7, note=48, velocity=75, time=24),
    Message('note_off', channel=7, note=48, velocity=0, time=128),
    Message('note_on', channel=7, note=43, velocity=75, time=160),
    Message('note_off', channel=7, note=43, velocity=0, time=16),
    Message('note_on', channel=7, note=43, velocity=75, time=32),
    Message('note_off', channel=7, note=43, velocity=0, time=16),
    Message('note_on', channel=7, note=43, velocity=75, time=320),
    Message('control_change', channel=7, control=7, value=101, time=19),
    Message('control_change', channel=7, control=7, value=102, time=19),
    Message('control_change', channel=7, control=7, value=103, time=19),
    Message('control_change', channel=7, control=7, value=104, time=19),
    Message('control_change', channel=7, control=7, value=105, time=20),
    Message('control_change', channel=7, control=7, value=106, time=19),
    Message('control_change', channel=7, control=7, value=107, time=19),
    Message('control_change', channel=7, control=7, value=108, time=19),
    Message('control_change', channel=7, control=7, value=109, time=19),
    Message('note_off', channel=7, note=43, velocity=0, time=20),
    Message('control_change', channel=7, control=7, value=110, time=0),
    Message('note_on', channel=7, note=41, velocity=92, time=0),
    Message('note_off', channel=7, note=41, velocity=0, time=16),
    Message('note_on', channel=7, note=48, velocity=127, time=944),
    Message('note_on', channel=7, note=36, velocity=127, time=0),
    Message('note_off', channel=7, note=48, velocity=0, time=16),
    Message('note_off', channel=7, note=36, velocity=0, time=0),
    Message('note_on', channel=7, note=55, velocity=127, time=560),
    Message('note_off', channel=7, note=55, velocity=0, time=24),
    Message('note_on', channel=7, note=65, velocity=92, time=72),
    Message('note_on', channel=7, note=60, velocity=92, time=0),
    Message('note_on', channel=7, note=56, velocity=92, time=0),
    Message('note_off', channel=7, note=65, velocity=0, time=96),
    Message('note_off', channel=7, note=60, velocity=0, time=0),
    Message('note_off', channel=7, note=56, velocity=0, time=0),
    Message('note_on', channel=7, note=65, velocity=92, time=0),
    Message('note_on', channel=7, note=60, velocity=92, time=0),
    Message('note_on', channel=7, note=56, velocity=92, time=0),
    Message('note_off', channel=7, note=65, velocity=0, time=16),
    Message('note_off', channel=7, note=60, velocity=0, time=0),
    Message('note_off', channel=7, note=56, velocity=0, time=0),
    Message('note_on', channel=7, note=64, velocity=92, time=32),
    Message('note_on', channel=7, note=59, velocity=92, time=0),
    Message('note_on', channel=7, note=55, velocity=92, time=0),
    Message('note_off', channel=7, note=64, velocity=0, time=16),
    Message('note_off', channel=7, note=59, velocity=0, time=0),
    Message('note_off', channel=7, note=55, velocity=0, time=0),
    Message('note_on', channel=7, note=65, velocity=92, time=32),
    Message('note_on', channel=7, note=60, velocity=92, time=0),
    Message('note_on', channel=7, note=56, velocity=92, time=0),
    Message('note_off', channel=7, note=65, velocity=0, time=24),
    Message('note_off', channel=7, note=60, velocity=0, time=0),
    Message('note_off', channel=7, note=56, velocity=0, time=0),
    Message('note_on', channel=7, note=56, velocity=92, time=72),
    Message('note_on', channel=7, note=53, velocity=92, time=0),
    Message('note_on', channel=7, note=48, velocity=92, time=0),
    Message('note_off', channel=7, note=56, velocity=0, time=96),
    Message('note_off', channel=7, note=53, velocity=0, time=0),
    Message('note_off', channel=7, note=48, velocity=0, time=0),
    Message('note_on', channel=7, note=55, velocity=92, time=0),
    Message('note_on', channel=7, note=51, velocity=92, time=0),
    Message('note_on', channel=7, note=48, velocity=92, time=0),
    Message('note_off', channel=7, note=48, velocity=0, time=16),
    Message('note_off', channel=7, note=51, velocity=0, time=0),
    Message('note_off', channel=7, note=55, velocity=0, time=0),
    Message('control_change', channel=7, control=7, value=120, time=176),
    Message('note_on', channel=7, note=66, velocity=108, time=0),
    Message('note_on', channel=7, note=62, velocity=108, time=0),
    Message('note_on', channel=7, note=59, velocity=108, time=0),
    Message('note_off', channel=7, note=66, velocity=0, time=168),
    Message('note_off', channel=7, note=62, velocity=0, time=0),
    Message('note_off', channel=7, note=59, velocity=0, time=0),
    Message('note_on', channel=7, note=43, velocity=127, time=120),
    Message('note_on', channel=7, note=31, velocity=127, time=0),
    Message('note_off', channel=7, note=43, velocity=0, time=16),
    Message('note_off', channel=7, note=31, velocity=0, time=0),
    Message('control_change', channel=7, control=7, value=110, time=1424),
    Message('note_on', channel=7, note=62, velocity=127, time=0),
    Message('note_on', channel=7, note=60, velocity=127, time=0),
    Message('note_on', channel=7, note=55, velocity=127, time=0),
    Message('note_off', channel=7, note=62, velocity=0, time=16),
    Message('note_off', channel=7, note=60, velocity=0, time=0),
    Message('note_off', channel=7, note=55, velocity=0, time=0),
    Message('note_on', channel=7, note=62, velocity=92, time=32),
    Message('note_on', channel=7, note=60, velocity=92, time=0),
    Message('note_on', channel=7, note=55, velocity=92, time=0),
    Message('control_change', channel=7, control=7, value=109, time=33),
    Message('control_change', channel=7, control=7, value=108, time=34),
    Message('control_change', channel=7, control=7, value=107, time=33),
    Message('note_off', channel=7, note=62, velocity=0, time=28),
    Message('note_off', channel=7, note=55, velocity=0, time=0),
    Message('note_off', channel=7, note=60, velocity=0, time=0),
    Message('control_change', channel=7, control=7, value=106, time=6),
    Message('note_on', channel=7, note=62, velocity=85, time=10),
    Message('note_on', channel=7, note=60, velocity=85, time=0),
    Message('note_on', channel=7, note=55, velocity=85, time=0),
    Message('control_change', channel=7, control=7, value=105, time=23),
    Message('control_change', channel=7, control=7, value=104, time=34),
    Message('control_change', channel=7, control=7, value=103, time=34),
    Message('control_change', channel=7, control=7, value=102, time=33),
    Message('control_change', channel=7, control=7, value=101, time=34),
    Message('control_change', channel=7, control=7, value=100, time=33),
    Message('control_change', channel=7, control=7, value=101, time=20),
    Message('control_change', channel=7, control=7, value=102, time=19),
    Message('control_change', channel=7, control=7, value=103, time=19),
    Message('control_change', channel=7, control=7, value=104, time=19),
    Message('control_change', channel=7, control=7, value=105, time=20),
    Message('control_change', channel=7, control=7, value=106, time=19),
    Message('control_change', channel=7, control=7, value=107, time=19),
    Message('control_change', channel=7, control=7, value=108, time=19),
    Message('control_change', channel=7, control=7, value=109, time=19),
    Message('control_change', channel=7, control=7, value=110, time=20),
    Message('control_change', channel=7, control=7, value=109, time=19),
    Message('control_change', channel=7, control=7, value=108, time=19),
    Message('control_change', channel=7, control=7, value=107, time=19),
    Message('control_change', channel=7, control=7, value=106, time=19),
    Message('control_change', channel=7, control=7, value=105, time=20),
    Message('control_change', channel=7, control=7, value=104, time=19),
    Message('control_change', channel=7, control=7, value=103, time=19),
    Message('control_change', channel=7, control=7, value=102, time=19),
    Message('note_off', channel=7, note=55, velocity=0, time=15),
    Message('note_off', channel=7, note=60, velocity=0, time=0),
    Message('note_off', channel=7, note=62, velocity=0, time=0),
    Message('control_change', channel=7, control=7, value=101, time=4),
    Message('control_change', channel=7, control=7, value=100, time=20),
    Message('note_on', channel=7, note=61, velocity=75, time=0),
    Message('note_on', channel=7, note=57, velocity=75, time=0),
    Message('note_on', channel=7, note=49, velocity=75, time=0),
    Message('note_off', channel=7, note=61, velocity=0, time=80),
    Message('note_off', channel=7, note=57, velocity=0, time=0),
    Message('note_off', channel=7, note=49, velocity=0, time=0),
    Message('note_on', channel=7, note=61, velocity=75, time=16),
    Message('note_on', channel=7, note=57, velocity=75, time=0),
    Message('note_on', channel=7, note=49, velocity=75, time=0),
    Message('note_off', channel=7, note=61, velocity=0, time=168),
    Message('note_off', channel=7, note=57, velocity=0, time=0),
    Message('note_off', channel=7, note=49, velocity=0, time=0),
    Message('note_on', channel=7, note=61, velocity=75, time=24),
    Message('note_on', channel=7, note=57, velocity=75, time=0),
    Message('note_on', channel=7, note=49, velocity=75, time=0),
    Message('note_off', channel=7, note=61, velocity=0, time=176),
    Message('note_off', channel=7, note=57, velocity=0, time=0),
    Message('note_off', channel=7, note=49, velocity=0, time=0),
    Message('note_on', channel=7, note=61, velocity=75, time=16),
    Message('note_on', channel=7, note=57, velocity=75, time=0),
    Message('note_on', channel=7, note=49, velocity=75, time=0),
    Message('note_off', channel=7, note=61, velocity=0, time=168),
    Message('note_off', channel=7, note=49, velocity=0, time=0),
    Message('note_off', channel=7, note=57, velocity=0, time=0),
    Message('note_on', channel=7, note=59, velocity=75, time=24),
    Message('note_on', channel=7, note=56, velocity=75, time=0),
    Message('note_on', channel=7, note=53, velocity=75, time=0),
    Message('note_off', channel=7, note=53, velocity=0, time=96),
    Message('note_off', channel=7, note=56, velocity=0, time=0),
    Message('note_off', channel=7, note=59, velocity=0, time=0),
    Message('note_on', channel=7, note=61, velocity=75, time=0),
    Message('note_on', channel=7, note=57, velocity=75, time=0),
    Message('note_on', channel=7, note=49, velocity=75, time=0),
    Message('note_off', channel=7, note=49, velocity=0, time=47),
    Message('note_off', channel=7, note=57, velocity=0, time=0),
    Message('note_off', channel=7, note=61, velocity=0, time=0),
    Message('note_on', channel=7, note=57, velocity=75, time=49),
    Message('note_on', channel=7, note=54, velocity=75, time=0),
    Message('note_on', channel=7, note=49, velocity=75, time=0),
    Message('note_off', channel=7, note=57, velocity=0, time=96),
    Message('note_off', channel=7, note=54, velocity=0, time=0),
    Message('note_off', channel=7, note=49, velocity=0, time=0),
    Message('note_on', channel=7, note=59, velocity=75, time=0),
    Message('note_on', channel=7, note=56, velocity=75, time=0),
    Message('note_on', channel=7, note=49, velocity=75, time=0),
    Message('note_off', channel=7, note=49, velocity=0, time=47),
    Message('note_off', channel=7, note=56, velocity=0, time=0),
    Message('note_off', channel=7, note=59, velocity=0, time=0),
    Message('note_on', channel=7, note=59, velocity=75, time=49),
    Message('note_on', channel=7, note=56, velocity=75, time=0),
    Message('note_on', channel=7, note=49, velocity=75, time=0),
    Message('note_off', channel=7, note=59, velocity=0, time=96),
    Message('note_off', channel=7, note=56, velocity=0, time=0),
    Message('note_off', channel=7, note=49, velocity=0, time=0),
    Message('note_on', channel=7, note=61, velocity=75, time=0),
    Message('note_on', channel=7, note=57, velocity=75, time=0),
    Message('note_on', channel=7, note=49, velocity=75, time=0),
    Message('note_off', channel=7, note=49, velocity=0, time=47),
    Message('note_off', channel=7, note=57, velocity=0, time=0),
    Message('note_off', channel=7, note=61, velocity=0, time=0),
    Message('note_on', channel=7, note=61, velocity=75, time=1),
    Message('note_on', channel=7, note=57, velocity=75, time=0),
    Message('note_on', channel=7, note=49, velocity=75, time=0),
    Message('note_off', channel=7, note=49, velocity=0, time=80),
    Message('note_off', channel=7, note=61, velocity=0, time=0),
    Message('note_off', channel=7, note=57, velocity=0, time=0),
    Message('note_on', channel=7, note=61, velocity=75, time=16),
    Message('note_on', channel=7, note=57, velocity=75, time=0),
    Message('note_on', channel=7, note=49, velocity=75, time=0),
    Message('note_off', channel=7, note=49, velocity=0, time=95),
    Message('note_off', channel=7, note=61, velocity=0, time=0),
    Message('note_off', channel=7, note=57, velocity=0, time=0),
    Message('note_on', channel=7, note=61, velocity=75, time=1),
    Message('note_on', channel=7, note=57, velocity=75, time=0),
    Message('note_on', channel=7, note=49, velocity=75, time=0),
    Message('note_off', channel=7, note=57, velocity=0, time=80),
    Message('note_off', channel=7, note=61, velocity=0, time=0),
    Message('note_off', channel=7, note=49, velocity=0, time=0),
    Message('note_on', channel=7, note=61, velocity=75, time=16),
    Message('note_on', channel=7, note=57, velocity=75, time=0),
    Message('note_on', channel=7, note=49, velocity=75, time=0),
    Message('note_off', channel=7, note=61, velocity=0, time=47),
    Message('note_off', channel=7, note=57, velocity=0, time=0),
    Message('note_off', channel=7, note=49, velocity=0, time=0),
    Message('note_on', channel=7, note=56, velocity=75, time=1),
    Message('note_on', channel=7, note=52, velocity=75, time=0),
    Message('note_on', channel=7, note=49, velocity=75, time=0),
    Message('note_off', channel=7, note=56, velocity=0, time=264),
    Message('note_off', channel=7, note=52, velocity=0, time=0),
    Message('note_off', channel=7, note=49, velocity=0, time=0),
    Message('note_on', channel=7, note=56, velocity=75, time=24),
    Message('note_on', channel=7, note=52, velocity=75, time=0),
    Message('note_on', channel=7, note=44, velocity=75, time=0),
    Message('note_off', channel=7, note=44, velocity=0, time=80),
    Message('note_off', channel=7, note=52, velocity=0, time=0),
    Message('note_off', channel=7, note=56, velocity=0, time=0),
    Message('note_on', channel=7, note=56, velocity=75, time=16),
    Message('note_on', channel=7, note=52, velocity=75, time=0),
    Message('note_on', channel=7, note=49, velocity=75, time=0),
    Message('note_off', channel=7, note=56, velocity=0, time=80),
    Message('note_off', channel=7, note=52, velocity=0, time=0),
    Message('note_off', channel=7, note=49, velocity=0, time=0),
    Message('note_on', channel=7, note=61, velocity=75, time=16),
    Message('note_on', channel=7, note=57, velocity=75, time=0),
    Message('note_on', channel=7, note=56, velocity=75, time=0),
    Message('note_off', channel=7, note=61, velocity=0, time=80),
    Message('note_off', channel=7, note=57, velocity=0, time=0),
    Message('note_off', channel=7, note=56, velocity=0, time=0),
    Message('note_on', channel=7, note=64, velocity=75, time=16),
    Message('note_on', channel=7, note=61, velocity=75, time=0),
    Message('note_on', channel=7, note=56, velocity=75, time=0),
    Message('note_off', channel=7, note=64, velocity=0, time=80),
    Message('note_off', channel=7, note=61, velocity=0, time=0),
    Message('note_off', channel=7, note=56, velocity=0, time=0),
    Message('note_on', channel=7, note=63, velocity=75, time=16),
    Message('note_on', channel=7, note=57, velocity=75, time=0),
    Message('note_on', channel=7, note=52, velocity=75, time=0),
    Message('note_off', channel=7, note=63, velocity=0, time=80),
    Message('note_off', channel=7, note=57, velocity=0, time=0),
    Message('note_off', channel=7, note=52, velocity=0, time=0),
    Message('note_on', channel=7, note=61, velocity=75, time=16),
    Message('note_on', channel=7, note=56, velocity=75, time=0),
    Message('note_on', channel=7, note=49, velocity=75, time=0),
    Message('note_off', channel=7, note=61, velocity=0, time=80),
    Message('note_off', channel=7, note=56, velocity=0, time=0),
    Message('note_on', channel=7, note=56, velocity=75, time=16),
    Message('note_off', channel=7, note=49, velocity=0, time=72),
    Message('note_off', channel=7, note=56, velocity=0, time=8),
    Message('note_on', channel=7, note=61, velocity=75, time=16),
    Message('note_on', channel=7, note=54, velocity=75, time=0),
    Message('note_on', channel=7, note=45, velocity=75, time=0),
    Message('note_off', channel=7, note=61, velocity=0, time=168),
    Message('note_off', channel=7, note=54, velocity=0, time=0),
    Message('note_off', channel=7, note=45, velocity=0, time=0),
    Message('note_on', channel=7, note=56, velocity=75, time=24),
    Message('note_on', channel=7, note=52, velocity=75, time=0),
    Message('note_on', channel=7, note=49, velocity=75, time=0),
    Message('note_off', channel=7, note=49, velocity=0, time=47),
    Message('note_off', channel=7, note=52, velocity=0, time=0),
    Message('note_off', channel=7, note=56, velocity=0, time=0),
    Message('note_on', channel=7, note=56, velocity=75, time=49),
    Message('note_on', channel=7, note=52, velocity=75, time=0),
    Message('note_on', channel=7, note=49, velocity=75, time=0),
    Message('note_off', channel=7, note=49, velocity=0, time=168),
    Message('note_off', channel=7, note=56, velocity=0, time=0),
    Message('note_off', channel=7, note=52, velocity=0, time=0),
    Message('note_on', channel=7, note=56, velocity=75, time=24),
    Message('note_on', channel=7, note=52, velocity=75, time=0),
    Message('note_on', channel=7, note=49, velocity=75, time=0),
    Message('note_off', channel=7, note=52, velocity=0, time=47),
    Message('note_off', channel=7, note=49, velocity=0, time=0),
    Message('note_off', channel=7, note=56, velocity=0, time=0),
    Message('note_on', channel=7, note=52, velocity=75, time=337),
    Message('note_off', channel=7, note=52, velocity=0, time=16),
    Message('note_on', channel=7, note=54, velocity=75, time=32),
    Message('note_off', channel=7, note=54, velocity=0, time=16),
    Message('note_on', channel=7, note=56, velocity=75, time=32),
    Message('note_off', channel=7, note=56, velocity=0, time=192),
    Message('note_on', channel=7, note=49, velocity=75, time=0),
    Message('control_change', channel=7, control=7, value=99, time=7),
    Message('control_change', channel=7, control=7, value=98, time=7),
    Message('control_change', channel=7, control=7, value=97, time=7),
    Message('control_change', channel=7, control=7, value=96, time=7),
    Message('control_change', channel=7, control=7, value=95, time=7),
    Message('control_change', channel=7, control=7, value=94, time=8),
    Message('control_change', channel=7, control=7, value=93, time=7),
    Message('control_change', channel=7, control=7, value=92, time=7),
    Message('control_change', channel=7, control=7, value=91, time=7),
    Message('control_change', channel=7, control=7, value=90, time=7),
    Message('control_change', channel=7, control=7, value=89, time=8),
    Message('control_change', channel=7, control=7, value=88, time=7),
    Message('control_change', channel=7, control=7, value=87, time=7),
    Message('control_change', channel=7, control=7, value=86, time=7),
    Message('control_change', channel=7, control=7, value=85, time=7),
    Message('control_change', channel=7, control=7, value=84, time=8),
    Message('control_change', channel=7, control=7, value=83, time=7),
    Message('note_off', channel=7, note=49, velocity=0, time=6),
    Message('control_change', channel=7, control=7, value=82, time=1),
    Message('control_change', channel=7, control=7, value=81, time=7),
    Message('control_change', channel=7, control=7, value=80, time=7),
    Message('control_change', channel=7, control=7, value=100, time=337),
    Message('note_on', channel=7, note=50, velocity=75, time=0),
    Message('note_off', channel=7, note=50, velocity=0, time=16),
    Message('note_on', channel=7, note=52, velocity=75, time=32),
    Message('note_off', channel=7, note=52, velocity=0, time=16),
    Message('note_on', channel=7, note=53, velocity=75, time=32),
    Message('control_change', channel=7, control=7, value=99, time=9),
    Message('control_change', channel=7, control=7, value=98, time=10),
    Message('control_change', channel=7, control=7, value=97, time=9),
    Message('control_change', channel=7, control=7, value=96, time=10),
    Message('control_change', channel=7, control=7, value=95, time=10),
    Message('control_change', channel=7, control=7, value=94, time=9),
    Message('control_change', channel=7, control=7, value=93, time=10),
    Message('control_change', channel=7, control=7, value=92, time=9),
    Message('control_change', channel=7, control=7, value=91, time=10),
    Message('control_change', channel=7, control=7, value=90, time=10),
    Message('control_change', channel=7, control=7, value=89, time=9),
    Message('control_change', channel=7, control=7, value=88, time=10),
    Message('control_change', channel=7, control=7, value=87, time=9),
    Message('control_change', channel=7, control=7, value=86, time=10),
    Message('control_change', channel=7, control=7, value=85, time=10),
    Message('control_change', channel=7, control=7, value=84, time=9),
    Message('control_change', channel=7, control=7, value=83, time=10),
    Message('control_change', channel=7, control=7, value=82, time=9),
    Message('control_change', channel=7, control=7, value=81, time=10),
    Message('note_off', channel=7, note=53, velocity=0, time=10),
    Message('control_change', channel=7, control=7, value=80, time=0),
    Message('note_on', channel=7, note=46, velocity=45, time=0),
    Message('note_off', channel=7, note=46, velocity=0, time=128),
    Message('control_change', channel=7, control=7, value=100, time=3856),
    Message('note_on', channel=7, note=61, velocity=75, time=0),
    Message('note_on', channel=7, note=58, velocity=75, time=0),
    Message('note_on', channel=7, note=53, velocity=75, time=0),
    Message('note_off', channel=7, note=61, velocity=0, time=128),
    Message('note_off', channel=7, note=58, velocity=0, time=0),
    Message('note_off', channel=7, note=53, velocity=0, time=0),
    Message('note_on', channel=7, note=64, velocity=75, time=16),
    Message('note_on', channel=7, note=60, velocity=75, time=0),
    Message('note_on', channel=7, note=57, velocity=75, time=0),
    Message('note_off', channel=7, note=57, velocity=0, time=264),
    Message('note_off', channel=7, note=60, velocity=0, time=0),
    Message('note_off', channel=7, note=64, velocity=0, time=0),
    Message('note_on', channel=7, note=60, velocity=75, time=24),
    Message('note_on', channel=7, note=57, velocity=75, time=0),
    Message('note_on', channel=7, note=52, velocity=75, time=0),
    Message('note_off', channel=7, note=52, velocity=0, time=128),
    Message('note_off', channel=7, note=57, velocity=0, time=0),
    Message('note_off', channel=7, note=60, velocity=0, time=0),
    Message('note_on', channel=7, note=63, velocity=75, time=16),
    Message('note_on', channel=7, note=60, velocity=75, time=0),
    Message('note_on', channel=7, note=55, velocity=75, time=0),
    Message('note_off', channel=7, note=63, velocity=0, time=264),
    Message('note_off', channel=7, note=60, velocity=0, time=0),
    Message('note_off', channel=7, note=55, velocity=0, time=0),
    Message('note_on', channel=7, note=60, velocity=75, time=24),
    Message('note_on', channel=7, note=55, velocity=75, time=0),
    Message('note_on', channel=7, note=51, velocity=75, time=0),
    Message('note_off', channel=7, note=51, velocity=0, time=128),
    Message('note_off', channel=7, note=55, velocity=0, time=0),
    Message('note_off', channel=7, note=60, velocity=0, time=0),
    Message('note_on', channel=7, note=57, velocity=75, time=16),
    Message('note_on', channel=7, note=49, velocity=75, time=0),
    Message('note_on', channel=7, note=42, velocity=75, time=0),
    Message('note_off', channel=7, note=57, velocity=0, time=264),
    Message('note_off', channel=7, note=49, velocity=0, time=0),
    Message('note_off', channel=7, note=42, velocity=0, time=0),
    Message('note_on', channel=7, note=57, velocity=75, time=24),
    Message('note_on', channel=7, note=54, velocity=75, time=0),
    Message('note_on', channel=7, note=49, velocity=75, time=0),
    Message('note_off', channel=7, note=57, velocity=0, time=47),
    Message('note_off', channel=7, note=54, velocity=0, time=0),
    Message('note_off', channel=7, note=49, velocity=0, time=0),
    Message('note_on', channel=7, note=64, velocity=75, time=97),
    Message('note_on', channel=7, note=60, velocity=75, time=0),
    Message('note_on', channel=7, note=52, velocity=75, time=0),
    Message('note_off', channel=7, note=64, velocity=0, time=264),
    Message('note_off', channel=7, note=60, velocity=0, time=0),
    Message('note_off', channel=7, note=52, velocity=0, time=0),
    Message('control_change', channel=7, control=7, value=110, time=24),
    Message('note_on', channel=7, note=60, velocity=92, time=0),
    Message('note_on', channel=7, note=57, velocity=92, time=0),
    Message('note_on', channel=7, note=52, velocity=92, time=0),
    Message('note_off', channel=7, note=52, velocity=0, time=128),
    Message('note_off', channel=7, note=60, velocity=0, time=0),
    Message('note_off', channel=7, note=57, velocity=0, time=0),
    Message('note_on', channel=7, note=59, velocity=92, time=16),
    Message('note_on', channel=7, note=53, velocity=92, time=0),
    Message('note_on', channel=7, note=45, velocity=92, time=0),
    Message('control_change', channel=7, control=7, value=109, time=7),
    Message('control_change', channel=7, control=7, value=108, time=7),
    Message('control_change', channel=7, control=7, value=107, time=7),
    Message('control_change', channel=7, control=7, value=106, time=7),
    Message('control_change', channel=7, control=7, value=105, time=7),
    Message('control_change', channel=7, control=7, value=104, time=8),
    Message('control_change', channel=7, control=7, value=103, time=7),
    Message('control_change', channel=7, control=7, value=102, time=7),
    Message('control_change', channel=7, control=7, value=101, time=7),
    Message('control_change', channel=7, control=7, value=100, time=7),
    Message('control_change', channel=7, control=7, value=99, time=8),
    Message('control_change', channel=7, control=7, value=98, time=7),
    Message('control_change', channel=7, control=7, value=97, time=7),
    Message('control_change', channel=7, control=7, value=96, time=7),
    Message('control_change', channel=7, control=7, value=95, time=7),
    Message('control_change', channel=7, control=7, value=94, time=8),
    Message('control_change', channel=7, control=7, value=93, time=7),
    Message('control_change', channel=7, control=7, value=92, time=7),
    Message('control_change', channel=7, control=7, value=91, time=7),
    Message('control_change', channel=7, control=7, value=90, time=7),
    Message('control_change', channel=7, control=7, value=89, time=8),
    Message('control_change', channel=7, control=7, value=88, time=7),
    Message('control_change', channel=7, control=7, value=87, time=7),
    Message('control_change', channel=7, control=7, value=86, time=7),
    Message('control_change', channel=7, control=7, value=85, time=7),
    Message('control_change', channel=7, control=7, value=84, time=8),
    Message('control_change', channel=7, control=7, value=83, time=7),
    Message('control_change', channel=7, control=7, value=82, time=7),
    Message('control_change', channel=7, control=7, value=81, time=7),
    Message('control_change', channel=7, control=7, value=80, time=7),
    Message('control_change', channel=7, control=7, value=79, time=8),
    Message('control_change', channel=7, control=7, value=78, time=7),
    Message('control_change', channel=7, control=7, value=77, time=7),
    Message('control_change', channel=7, control=7, value=76, time=7),
    Message('control_change', channel=7, control=7, value=75, time=7),
    Message('control_change', channel=7, control=7, value=74, time=8),
    Message('note_off', channel=7, note=45, velocity=0, time=5),
    Message('note_off', channel=7, note=53, velocity=0, time=0),
    Message('note_off', channel=7, note=59, velocity=0, time=0),
    Message('control_change', channel=7, control=7, value=73, time=2),
    Message('control_change', channel=7, control=7, value=72, time=7),
    Message('control_change', channel=7, control=7, value=71, time=7),
    Message('control_change', channel=7, control=7, value=70, time=7),
    Message('note_on', channel=7, note=59, velocity=30, time=1),
    Message('note_on', channel=7, note=53, velocity=30, time=0),
    Message('note_on', channel=7, note=45, velocity=30, time=0),
    Message('control_change', channel=7, control=7, value=71, time=7),
    Message('control_change', channel=7, control=7, value=72, time=7),
    Message('control_change', channel=7, control=7, value=73, time=7),
    Message('control_change', channel=7, control=7, value=74, time=7),
    Message('control_change', channel=7, control=7, value=75, time=7),
    Message('control_change', channel=7, control=7, value=76, time=8),
    Message('control_change', channel=7, control=7, value=77, time=7),
    Message('control_change', channel=7, control=7, value=78, time=7),
    Message('control_change', channel=7, control=7, value=79, time=7),
    Message('control_change', channel=7, control=7, value=80, time=7),
    Message('control_change', channel=7, control=7, value=81, time=8),
    Message('control_change', channel=7, control=7, value=82, time=7),
    Message('control_change', channel=7, control=7, value=83, time=7),
    Message('control_change', channel=7, control=7, value=84, time=7),
    Message('control_change', channel=7, control=7, value=85, time=7),
    Message('control_change', channel=7, control=7, value=86, time=8),
    Message('control_change', channel=7, control=7, value=87, time=7),
    Message('control_change', channel=7, control=7, value=88, time=7),
    Message('control_change', channel=7, control=7, value=89, time=7),
    Message('control_change', channel=7, control=7, value=90, time=7),
    Message('control_change', channel=7, control=7, value=91, time=8),
    Message('control_change', channel=7, control=7, value=92, time=7),
    Message('control_change', channel=7, control=7, value=93, time=7),
    Message('control_change', channel=7, control=7, value=94, time=7),
    Message('control_change', channel=7, control=7, value=95, time=7),
    Message('control_change', channel=7, control=7, value=96, time=8),
    Message('control_change', channel=7, control=7, value=97, time=7),
    Message('control_change', channel=7, control=7, value=98, time=7),
    Message('control_change', channel=7, control=7, value=99, time=7),
    Message('control_change', channel=7, control=7, value=100, time=7),
    Message('control_change', channel=7, control=7, value=101, time=8),
    Message('note_off', channel=7, note=59, velocity=0, time=1),
    Message('note_off', channel=7, note=53, velocity=0, time=0),
    Message('note_off', channel=7, note=45, velocity=0, time=0),
    Message('control_change', channel=7, control=7, value=102, time=6),
    Message('control_change', channel=7, control=7, value=103, time=7),
    Message('control_change', channel=7, control=7, value=104, time=7),
    Message('control_change', channel=7, control=7, value=105, time=7),
    Message('control_change', channel=7, control=7, value=106, time=8),
    Message('control_change', channel=7, control=7, value=107, time=7),
    Message('control_change', channel=7, control=7, value=108, time=7),
    Message('control_change', channel=7, control=7, value=109, time=7),
    Message('control_change', channel=7, control=7, value=110, time=7),
    Message('note_on', channel=7, note=52, velocity=127, time=1),
    Message('note_off', channel=7, note=52, velocity=0, time=16),
    Message('note_on', channel=7, note=52, velocity=92, time=32),
    Message('note_off', channel=7, note=52, velocity=0, time=16),
    Message('note_on', channel=7, note=52, velocity=92, time=32),
    Message('note_off', channel=7, note=52, velocity=0, time=16),
    Message('note_on', channel=7, note=52, velocity=92, time=32),
    Message('note_off', channel=7, note=52, velocity=0, time=16),
    Message('note_on', channel=7, note=52, velocity=92, time=32),
    Message('note_off', channel=7, note=52, velocity=0, time=16),
    Message('note_on', channel=7, note=52, velocity=92, time=32),
    Message('note_off', channel=7, note=52, velocity=0, time=16),
    Message('note_on', channel=7, note=52, velocity=92, time=32),
    Message('note_off', channel=7, note=52, velocity=0, time=16),
    Message('note_on', channel=7, note=52, velocity=92, time=32),
    Message('note_off', channel=7, note=52, velocity=0, time=16),
    Message('note_on', channel=7, note=52, velocity=92, time=32),
    Message('note_off', channel=7, note=52, velocity=0, time=16),
    Message('note_on', channel=7, note=52, velocity=92, time=32),
    Message('note_off', channel=7, note=52, velocity=0, time=16),
    Message('note_on', channel=7, note=52, velocity=92, time=32),
    Message('note_off', channel=7, note=52, velocity=0, time=16),
    Message('note_on', channel=7, note=47, velocity=127, time=32),
    Message('note_off', channel=7, note=47, velocity=0, time=16),
    Message('note_on', channel=7, note=52, velocity=127, time=32),
    Message('note_off', channel=7, note=52, velocity=0, time=16),
    Message('note_on', channel=7, note=52, velocity=92, time=32),
    Message('note_off', channel=7, note=52, velocity=0, time=16),
    Message('note_on', channel=7, note=52, velocity=92, time=32),
    Message('note_off', channel=7, note=52, velocity=0, time=16),
    Message('note_on', channel=7, note=52, velocity=92, time=32),
    Message('note_off', channel=7, note=52, velocity=0, time=16),
    Message('note_on', channel=7, note=52, velocity=92, time=32),
    Message('note_off', channel=7, note=52, velocity=0, time=16),
    Message('note_on', channel=7, note=52, velocity=92, time=32),
    Message('note_off', channel=7, note=52, velocity=0, time=16),
    Message('note_on', channel=7, note=52, velocity=92, time=32),
    Message('note_off', channel=7, note=52, velocity=0, time=16),
    Message('note_on', channel=7, note=52, velocity=92, time=32),
    Message('note_off', channel=7, note=52, velocity=0, time=16),
    Message('note_on', channel=7, note=52, velocity=92, time=32),
    Message('note_off', channel=7, note=52, velocity=0, time=16),
    Message('note_on', channel=7, note=52, velocity=92, time=32),
    Message('note_off', channel=7, note=52, velocity=0, time=16),
    Message('note_on', channel=7, note=52, velocity=92, time=32),
    Message('note_off', channel=7, note=52, velocity=0, time=16),
    Message('control_change', channel=7, control=7, value=127, time=32),
    Message('note_on', channel=7, note=52, velocity=127, time=0),
    Message('note_off', channel=7, note=52, velocity=0, time=47),
    Message('note_on', channel=7, note=55, velocity=127, time=1),
    Message('note_off', channel=7, note=55, velocity=0, time=80),
    Message('note_on', channel=7, note=51, velocity=127, time=16),
    Message('note_off', channel=7, note=51, velocity=0, time=47),
    Message('note_on', channel=7, note=55, velocity=127, time=1),
    Message('note_off', channel=7, note=55, velocity=0, time=80),
    Message('note_on', channel=7, note=51, velocity=127, time=16),
    Message('note_off', channel=7, note=51, velocity=0, time=47),
    Message('note_on', channel=7, note=56, velocity=127, time=1),
    Message('note_off', channel=7, note=56, velocity=0, time=80),
    Message('note_on', channel=7, note=55, velocity=127, time=16),
    Message('note_off', channel=7, note=55, velocity=0, time=47),
    Message('note_on', channel=7, note=54, velocity=127, time=1),
    Message('note_off', channel=7, note=54, velocity=0, time=80),
    Message('note_on', channel=7, note=50, velocity=127, time=16),
    Message('note_off', channel=7, note=50, velocity=0, time=47),
    Message('note_on', channel=7, note=51, velocity=127, time=1),
    Message('note_off', channel=7, note=51, velocity=0, time=71),
    Message('note_on', channel=7, note=55, velocity=127, time=1),
    Message('note_off', channel=7, note=55, velocity=0, time=23),
    Message('note_on', channel=7, note=54, velocity=127, time=1),
    Message('note_off', channel=7, note=54, velocity=0, time=47),
    Message('note_on', channel=7, note=43, velocity=127, time=1),
    Message('note_off', channel=7, note=43, velocity=0, time=80),
    Message('note_on', channel=7, note=51, velocity=127, time=16),
    Message('note_off', channel=7, note=51, velocity=0, time=47),
    Message('note_on', channel=7, note=48, velocity=127, time=1),
    Message('note_off', channel=7, note=48, velocity=0, time=224),
    Message('control_change', channel=7, control=7, value=110, time=16),
    Message('note_on', channel=7, note=43, velocity=92, time=0),
    Message('note_off', channel=7, note=43, velocity=0, time=16),
    Message('note_on', channel=7, note=48, velocity=92, time=32),
    Message('note_off', channel=7, note=48, velocity=0, time=128),
    Message('note_on', channel=7, note=51, velocity=92, time=16),
    Message('note_on', channel=7, note=43, velocity=92, time=0),
    Message('note_off', channel=7, note=51, velocity=0, time=128),
    Message('note_off', channel=7, note=43, velocity=0, time=0),
    Message('note_on', channel=7, note=54, velocity=92, time=16),
    Message('note_on', channel=7, note=46, velocity=92, time=0),
    Message('note_off', channel=7, note=46, velocity=0, time=128),
    Message('note_off', channel=7, note=54, velocity=0, time=0),
    Message('note_on', channel=7, note=56, velocity=92, time=16),
    Message('note_on', channel=7, note=49, velocity=92, time=0),
    Message('note_off', channel=7, note=49, velocity=0, time=128),
    Message('note_off', channel=7, note=56, velocity=0, time=0),
    Message('note_on', channel=7, note=58, velocity=92, time=16),
    Message('note_on', channel=7, note=53, velocity=92, time=0),
    Message('note_on', channel=7, note=49, velocity=92, time=0),
    Message('note_off', channel=7, note=58, velocity=0, time=128),
    Message('note_off', channel=7, note=53, velocity=0, time=0),
    Message('note_off', channel=7, note=49, velocity=0, time=0),
    Message('note_on', channel=7, note=59, velocity=92, time=16),
    Message('note_on', channel=7, note=53, velocity=92, time=0),
    Message('note_on', channel=7, note=49, velocity=92, time=0),
    Message('note_off', channel=7, note=49, velocity=0, time=128),
    Message('note_off', channel=7, note=59, velocity=0, time=0),
    Message('note_off', channel=7, note=53, velocity=0, time=0),
    Message('note_on', channel=7, note=48, velocity=92, time=16),
    Message('note_on', channel=7, note=36, velocity=92, time=0),
    Message('note_off', channel=7, note=36, velocity=0, time=128),
    Message('note_off', channel=7, note=48, velocity=0, time=0),
    Message('note_on', channel=7, note=48, velocity=92, time=16),
    Message('note_on', channel=7, note=36, velocity=92, time=0),
    Message('note_off', channel=7, note=36, velocity=0, time=128),
    Message('note_off', channel=7, note=48, velocity=0, time=0),
    Message('note_on', channel=7, note=48, velocity=92, time=16),
    Message('note_on', channel=7, note=36, velocity=92, time=0),
    Message('note_off', channel=7, note=36, velocity=0, time=128),
    Message('note_off', channel=7, note=48, velocity=0, time=0),
    Message('note_on', channel=7, note=48, velocity=92, time=16),
    Message('note_on', channel=7, note=36, velocity=92, time=0),
    Message('note_off', channel=7, note=36, velocity=0, time=128),
    Message('note_off', channel=7, note=48, velocity=0, time=0),
    Message('note_on', channel=7, note=52, velocity=92, time=16),
    Message('note_on', channel=7, note=48, velocity=92, time=0),
    Message('note_on', channel=7, note=43, velocity=92, time=0),
    Message('control_change', channel=7, control=7, value=109, time=2),
    Message('control_change', channel=7, control=7, value=108, time=2),
    Message('control_change', channel=7, control=7, value=107, time=3),
    Message('control_change', channel=7, control=7, value=106, time=2),
    Message('control_change', channel=7, control=7, value=105, time=3),
    Message('control_change', channel=7, control=7, value=104, time=2),
    Message('control_change', channel=7, control=7, value=103, time=2),
    Message('control_change', channel=7, control=7, value=102, time=3),
    Message('control_change', channel=7, control=7, value=101, time=2),
    Message('control_change', channel=7, control=7, value=100, time=3),
    Message('control_change', channel=7, control=7, value=99, time=2),
    Message('control_change', channel=7, control=7, value=98, time=2),
    Message('control_change', channel=7, control=7, value=97, time=3),
    Message('control_change', channel=7, control=7, value=96, time=2),
    Message('control_change', channel=7, control=7, value=95, time=3),
    Message('control_change', channel=7, control=7, value=94, time=2),
    Message('control_change', channel=7, control=7, value=93, time=2),
    Message('control_change', channel=7, control=7, value=92, time=3),
    Message('control_change', channel=7, control=7, value=91, time=2),
    Message('control_change', channel=7, control=7, value=90, time=3),
    Message('control_change', channel=7, control=7, value=89, time=2),
    Message('control_change', channel=7, control=7, value=88, time=2),
    Message('control_change', channel=7, control=7, value=87, time=3),
    Message('control_change', channel=7, control=7, value=86, time=2),
    Message('control_change', channel=7, control=7, value=85, time=3),
    Message('control_change', channel=7, control=7, value=84, time=2),
    Message('control_change', channel=7, control=7, value=83, time=2),
    Message('control_change', channel=7, control=7, value=82, time=3),
    Message('control_change', channel=7, control=7, value=81, time=2),
    Message('control_change', channel=7, control=7, value=80, time=3),
    Message('control_change', channel=7, control=7, value=79, time=2),
    Message('control_change', channel=7, control=7, value=78, time=2),
    Message('control_change', channel=7, control=7, value=77, time=3),
    Message('control_change', channel=7, control=7, value=76, time=2),
    Message('control_change', channel=7, control=7, value=75, time=3),
    Message('control_change', channel=7, control=7, value=74, time=2),
    Message('control_change', channel=7, control=7, value=73, time=2),
    Message('control_change', channel=7, control=7, value=72, time=3),
    Message('control_change', channel=7, control=7, value=71, time=2),
    Message('control_change', channel=7, control=7, value=70, time=3),
    Message('control_change', channel=7, control=7, value=69, time=2),
    Message('control_change', channel=7, control=7, value=68, time=2),
    Message('control_change', channel=7, control=7, value=67, time=3),
    Message('control_change', channel=7, control=7, value=66, time=2),
    Message('control_change', channel=7, control=7, value=65, time=3),
    Message('control_change', channel=7, control=7, value=64, time=2),
    Message('control_change', channel=7, control=7, value=63, time=2),
    Message('control_change', channel=7, control=7, value=62, time=3),
    Message('control_change', channel=7, control=7, value=61, time=2),
    Message('control_change', channel=7, control=7, value=60, time=3),
    Message('control_change', channel=7, control=7, value=59, time=2),
    Message('control_change', channel=7, control=7, value=58, time=2),
    Message('control_change', channel=7, control=7, value=57, time=3),
    Message('control_change', channel=7, control=7, value=56, time=2),
    Message('control_change', channel=7, control=7, value=55, time=3),
    Message('control_change', channel=7, control=7, value=54, time=2),
    Message('control_change', channel=7, control=7, value=53, time=2),
    Message('control_change', channel=7, control=7, value=52, time=3),
    Message('control_change', channel=7, control=7, value=51, time=2),
    Message('control_change', channel=7, control=7, value=50, time=3),
    Message('control_change', channel=7, control=7, value=51, time=2),
    Message('control_change', channel=7, control=7, value=52, time=2),
    Message('control_change', channel=7, control=7, value=53, time=3),
    Message('control_change', channel=7, control=7, value=54, time=2),
    Message('control_change', channel=7, control=7, value=55, time=3),
    Message('control_change', channel=7, control=7, value=56, time=2),
    Message('control_change', channel=7, control=7, value=57, time=2),
    Message('control_change', channel=7, control=7, value=58, time=3),
    Message('control_change', channel=7, control=7, value=59, time=2),
    Message('control_change', channel=7, control=7, value=60, time=3),
    Message('control_change', channel=7, control=7, value=61, time=2),
    Message('control_change', channel=7, control=7, value=62, time=2),
    Message('control_change', channel=7, control=7, value=63, time=3),
    Message('control_change', channel=7, control=7, value=64, time=2),
    Message('control_change', channel=7, control=7, value=65, time=3),
    Message('control_change', channel=7, control=7, value=66, time=2),
    Message('control_change', channel=7, control=7, value=67, time=2),
    Message('control_change', channel=7, control=7, value=68, time=3),
    Message('control_change', channel=7, control=7, value=69, time=2),
    Message('control_change', channel=7, control=7, value=70, time=3),
    Message('control_change', channel=7, control=7, value=71, time=2),
    Message('control_change', channel=7, control=7, value=72, time=2),
    Message('control_change', channel=7, control=7, value=73, time=3),
    Message('control_change', channel=7, control=7, value=74, time=2),
    Message('control_change', channel=7, control=7, value=75, time=3),
    Message('control_change', channel=7, control=7, value=76, time=2),
    Message('control_change', channel=7, control=7, value=77, time=2),
    Message('control_change', channel=7, control=7, value=78, time=3),
    Message('control_change', channel=7, control=7, value=79, time=2),
    Message('control_change', channel=7, control=7, value=80, time=3),
    Message('control_change', channel=7, control=7, value=81, time=2),
    Message('control_change', channel=7, control=7, value=82, time=2),
    Message('control_change', channel=7, control=7, value=83, time=3),
    Message('control_change', channel=7, control=7, value=84, time=2),
    Message('control_change', channel=7, control=7, value=85, time=3),
    Message('control_change', channel=7, control=7, value=86, time=2),
    Message('control_change', channel=7, control=7, value=87, time=2),
    Message('control_change', channel=7, control=7, value=88, time=3),
    Message('control_change', channel=7, control=7, value=89, time=2),
    Message('control_change', channel=7, control=7, value=90, time=3),
    Message('control_change', channel=7, control=7, value=91, time=2),
    Message('control_change', channel=7, control=7, value=92, time=2),
    Message('control_change', channel=7, control=7, value=93, time=3),
    Message('control_change', channel=7, control=7, value=94, time=2),
    Message('control_change', channel=7, control=7, value=95, time=3),
    Message('control_change', channel=7, control=7, value=96, time=2),
    Message('control_change', channel=7, control=7, value=97, time=2),
    Message('control_change', channel=7, control=7, value=98, time=3),
    Message('control_change', channel=7, control=7, value=99, time=2),
    Message('control_change', channel=7, control=7, value=100, time=3),
    Message('control_change', channel=7, control=7, value=101, time=2),
    Message('control_change', channel=7, control=7, value=102, time=2),
    Message('control_change', channel=7, control=7, value=103, time=3),
    Message('note_off', channel=7, note=52, velocity=0, time=1),
    Message('note_off', channel=7, note=48, velocity=0, time=0),
    Message('note_off', channel=7, note=43, velocity=0, time=0),
    Message('control_change', channel=7, control=7, value=104, time=1),
    Message('control_change', channel=7, control=7, value=105, time=3),
    Message('control_change', channel=7, control=7, value=106, time=2),
    Message('control_change', channel=7, control=7, value=107, time=2),
    Message('control_change', channel=7, control=7, value=108, time=3),
    Message('control_change', channel=7, control=7, value=109, time=2),
    Message('control_change', channel=7, control=7, value=110, time=3),
    Message('note_on', channel=7, note=58, velocity=92, time=0),
    Message('note_on', channel=7, note=54, velocity=92, time=0),
    Message('note_on', channel=7, note=51, velocity=92, time=0),
    Message('note_off', channel=7, note=51, velocity=0, time=16),
    Message('note_off', channel=7, note=54, velocity=0, time=0),
    Message('note_off', channel=7, note=58, velocity=0, time=0),
    Message('control_change', channel=7, control=7, value=111, time=27),
    Message('note_on', channel=7, note=67, velocity=93, time=5),
    Message('note_on', channel=7, note=64, velocity=93, time=0),
    Message('note_on', channel=7, note=60, velocity=93, time=0),
    Message('control_change', channel=7, control=7, value=112, time=38),
    Message('control_change', channel=7, control=7, value=113, time=43),
    Message('control_change', channel=7, control=7, value=114, time=43),
    Message('control_change', channel=7, control=7, value=115, time=44),
    Message('control_change', channel=7, control=7, value=116, time=43),
    Message('control_change', channel=7, control=7, value=117, time=43),
    Message('control_change', channel=7, control=7, value=118, time=43),
    Message('control_change', channel=7, control=7, value=119, time=43),
    Message('note_off', channel=7, note=67, velocity=0, time=28),
    Message('note_off', channel=7, note=64, velocity=0, time=0),
    Message('note_off', channel=7, note=60, velocity=0, time=0),
    Message('control_change', channel=7, control=7, value=120, time=16),
    Message('note_on', channel=7, note=67, velocity=127, time=0),
    Message('note_on', channel=7, note=64, velocity=127, time=0),
    Message('note_off', channel=7, note=67, velocity=0, time=24),
    Message('note_off', channel=7, note=64, velocity=0, time=0),
    Message('control_change', channel=7, control=7, value=100, time=1128),
    Message('note_on', channel=7, note=58, velocity=75, time=0),
    Message('note_on', channel=7, note=54, velocity=75, time=0),
    Message('control_change', channel=7, control=7, value=101, time=21),
    Message('control_change', channel=7, control=7, value=102, time=22),
    Message('control_change', channel=7, control=7, value=103, time=21),
    Message('control_change', channel=7, control=7, value=104, time=22),
    Message('control_change', channel=7, control=7, value=105, time=22),
    Message('control_change', channel=7, control=7, value=106, time=21),
    Message('control_change', channel=7, control=7, value=107, time=22),
    Message('control_change', channel=7, control=7, value=108, time=21),
    Message('control_change', channel=7, control=7, value=109, time=22),
    Message('control_change', channel=7, control=7, value=110, time=22),
    Message('control_change', channel=7, control=7, value=111, time=21),
    Message('control_change', channel=7, control=7, value=112, time=22),
    Message('control_change', channel=7, control=7, value=113, time=21),
    Message('control_change', channel=7, control=7, value=114, time=22),
    Message('control_change', channel=7, control=7, value=115, time=22),
    Message('control_change', channel=7, control=7, value=116, time=21),
    Message('control_change', channel=7, control=7, value=117, time=22),
    Message('control_change', channel=7, control=7, value=118, time=21),
    Message('control_change', channel=7, control=7, value=119, time=22),
    Message('note_off', channel=7, note=58, velocity=0, time=6),
    Message('note_off', channel=7, note=54, velocity=0, time=0),
    Message('control_change', channel=7, control=7, value=120, time=16),
    Message('note_on', channel=7, note=67, velocity=127, time=0),
    Message('note_on', channel=7, note=64, velocity=127, time=0),
    Message('note_on', channel=7, note=55, velocity=127, time=0),
    Message('note_off', channel=7, note=67, velocity=0, time=47),
    Message('note_off', channel=7, note=64, velocity=0, time=0),
    Message('note_off', channel=7, note=55, velocity=0, time=0),
    Message('control_change', channel=7, control=7, value=0, time=697),
    Message('note_on', channel=7, note=95, velocity=10, time=0),
    Message('note_off', channel=7, note=95, velocity=0, time=128),
    Message('control_change', channel=7, control=101, value=0, time=424),
    Message('control_change', channel=7, control=100, value=0, time=0),
    Message('control_change', channel=7, control=6, value=12, time=0),
    Message('control_change', channel=7, control=10, value=64, time=0),
    Message('pitchwheel', channel=7, pitch=0, time=0),
    Message('program_change', channel=7, program=57, time=0),
    Message('program_change', channel=7, program=57, time=0),
    Message('control_change', channel=7, control=7, value=127, time=0),
    Message('control_change', channel=7, control=10, value=64, time=0),
    Message('control_change', channel=7, control=101, value=0, time=1),
    Message('control_change', channel=7, control=100, value=0, time=0),
    Message('control_change', channel=7, control=6, value=12, time=0),
    Message('control_change', channel=7, control=10, value=64, time=0),
    Message('pitchwheel', channel=7, pitch=0, time=0),
    Message('program_change', channel=7, program=57, time=0),
    MetaMessage('end_of_track', time=0)]),
  MidiTrack([
    MetaMessage('track_name', name='Piano #5', time=0),
    Message('control_change', channel=7, control=10, value=64, time=0),
    Message('control_change', channel=7, control=7, value=127, time=0),
    Message('pitchwheel', channel=7, pitch=0, time=0),
    Message('control_change', channel=7, control=101, value=0, time=0),
    Message('control_change', channel=7, control=100, value=0, time=0),
    Message('control_change', channel=7, control=6, value=12, time=0),
    Message('control_change', channel=7, control=10, value=64, time=0),
    Message('control_change', channel=7, control=7, value=127, time=0),
    Message('pitchwheel', channel=7, pitch=0, time=0),
    Message('program_change', channel=7, program=0, time=0),
    Message('control_change', channel=7, control=7, value=127, time=0),
    Message('control_change', channel=7, control=10, value=64, time=0),
    Message('control_change', channel=7, control=101, value=0, time=0),
    Message('control_change', channel=7, control=100, value=0, time=0),
    Message('control_change', channel=7, control=6, value=12, time=0),
    Message('control_change', channel=7, control=10, value=64, time=0),
    Message('control_change', channel=7, control=7, value=127, time=0),
    Message('pitchwheel', channel=7, pitch=0, time=0),
    Message('program_change', channel=7, program=0, time=0),
    Message('control_change', channel=7, control=7, value=127, time=0),
    Message('control_change', channel=7, control=10, value=64, time=0),
    Message('control_change', channel=7, control=101, value=0, time=0),
    Message('control_change', channel=7, control=100, value=0, time=0),
    Message('control_change', channel=7, control=6, value=12, time=0),
    Message('control_change', channel=7, control=10, value=64, time=0),
    Message('control_change', channel=7, control=7, value=127, time=0),
    Message('pitchwheel', channel=7, pitch=0, time=0),
    Message('program_change', channel=7, program=0, time=0),
    Message('control_change', channel=7, control=7, value=110, time=51936),
    Message('note_on', channel=7, note=40, velocity=92, time=0),
    Message('note_off', channel=7, note=40, velocity=0, time=16),
    Message('note_on', channel=7, note=35, velocity=127, time=512),
    Message('note_off', channel=7, note=35, velocity=0, time=16),
    Message('control_change', channel=7, control=7, value=90, time=3920),
    Message('note_on', channel=7, note=48, velocity=60, time=0),
    Message('control_change', channel=7, control=7, value=91, time=115),
    Message('control_change', channel=7, control=7, value=92, time=67),
    Message('control_change', channel=7, control=7, value=93, time=67),
    Message('control_change', channel=7, control=7, value=94, time=67),
    Message('control_change', channel=7, control=7, value=95, time=67),
    Message('control_change', channel=7, control=7, value=96, time=68),
    Message('control_change', channel=7, control=7, value=97, time=67),
    Message('control_change', channel=7, control=7, value=98, time=67),
    Message('control_change', channel=7, control=7, value=99, time=67),
    Message('note_off', channel=7, note=48, velocity=0, time=52),
    Message('control_change', channel=7, control=7, value=100, time=15),
    Message('note_on', channel=7, note=48, velocity=75, time=1),
    Message('note_off', channel=7, note=48, velocity=0, time=416),
    Message('note_on', channel=7, note=48, velocity=75, time=16),
    Message('note_off', channel=7, note=48, velocity=0, time=416),
    Message('control_change', channel=7, control=101, value=0, time=1312),
    Message('control_change', channel=7, control=100, value=0, time=0),
    Message('control_change', channel=7, control=6, value=12, time=0),
    Message('control_change', channel=7, control=10, value=64, time=0),
    Message('control_change', channel=7, control=7, value=100, time=0),
    Message('pitchwheel', channel=7, pitch=0, time=0),
    Message('program_change', channel=7, program=0, time=0),
    Message('control_change', channel=7, control=7, value=127, time=0),
    Message('control_change', channel=7, control=10, value=64, time=0),
    Message('control_change', channel=7, control=101, value=0, time=1),
    Message('control_change', channel=7, control=100, value=0, time=0),
    Message('control_change', channel=7, control=6, value=12, time=0),
    Message('control_change', channel=7, control=10, value=64, time=0),
    Message('control_change', channel=7, control=7, value=100, time=0),
    Message('pitchwheel', channel=7, pitch=0, time=0),
    Message('program_change', channel=7, program=0, time=0),
    MetaMessage('end_of_track', time=0)]),
  MidiTrack([
    MetaMessage('track_name', name='Tuba', time=0),
    Message('control_change', channel=3, control=10, value=64, time=0),
    Message('control_change', channel=3, control=7, value=127, time=0),
    Message('pitchwheel', channel=3, pitch=0, time=0),
    Message('control_change', channel=3, control=101, value=0, time=0),
    Message('control_change', channel=3, control=100, value=0, time=0),
    Message('control_change', channel=3, control=6, value=12, time=0),
    Message('control_change', channel=3, control=10, value=64, time=0),
    Message('control_change', channel=3, control=7, value=127, time=0),
    Message('pitchwheel', channel=3, pitch=0, time=0),
    Message('program_change', channel=3, program=58, time=0),
    Message('program_change', channel=3, program=58, time=0),
    Message('control_change', channel=3, control=7, value=127, time=0),
    Message('control_change', channel=3, control=10, value=64, time=0),
    Message('control_change', channel=3, control=101, value=0, time=0),
    Message('control_change', channel=3, control=100, value=0, time=0),
    Message('control_change', channel=3, control=6, value=12, time=0),
    Message('control_change', channel=3, control=10, value=64, time=0),
    Message('control_change', channel=3, control=7, value=127, time=0),
    Message('pitchwheel', channel=3, pitch=0, time=0),
    Message('program_change', channel=3, program=58, time=0),
    Message('program_change', channel=3, program=58, time=0),
    Message('control_change', channel=3, control=7, value=127, time=0),
    Message('control_change', channel=3, control=10, value=64, time=0),
    Message('control_change', channel=3, control=101, value=0, time=0),
    Message('control_change', channel=3, control=100, value=0, time=0),
    Message('control_change', channel=3, control=6, value=12, time=0),
    Message('control_change', channel=3, control=10, value=64, time=0),
    Message('control_change', channel=3, control=7, value=127, time=0),
    Message('pitchwheel', channel=3, pitch=0, time=0),
    Message('program_change', channel=3, program=58, time=0),
    Message('control_change', channel=3, control=7, value=100, time=27072),
    Message('note_on', channel=3, note=52, velocity=75, time=0),
    Message('control_change', channel=3, control=7, value=101, time=19),
    Message('control_change', channel=3, control=7, value=102, time=19),
    Message('control_change', channel=3, control=7, value=103, time=19),
    Message('control_change', channel=3, control=7, value=104, time=19),
    Message('control_change', channel=3, control=7, value=105, time=20),
    Message('control_change', channel=3, control=7, value=106, time=19),
    Message('control_change', channel=3, control=7, value=107, time=19),
    Message('control_change', channel=3, control=7, value=108, time=19),
    Message('note_off', channel=3, note=52, velocity=0, time=15),
    Message('control_change', channel=3, control=7, value=109, time=4),
    Message('control_change', channel=3, control=7, value=110, time=20),
    Message('note_on', channel=3, note=45, velocity=92, time=0),
    Message('note_off', channel=3, note=45, velocity=0, time=264),
    Message('note_on', channel=3, note=45, velocity=92, time=24),
    Message('note_off', channel=3, note=45, velocity=0, time=80),
    Message('note_on', channel=3, note=33, velocity=127, time=16),
    Message('note_off', channel=3, note=33, velocity=0, time=648),
    Message('note_on', channel=3, note=45, velocity=92, time=120),
    Message('note_off', channel=3, note=45, velocity=0, time=168),
    Message('note_on', channel=3, note=41, velocity=92, time=24),
    Message('note_off', channel=3, note=41, velocity=0, time=168),
    Message('note_on', channel=3, note=45, velocity=92, time=24),
    Message('note_off', channel=3, note=45, velocity=0, time=360),
    Message('note_on', channel=3, note=36, velocity=92, time=24),
    Message('note_off', channel=3, note=36, velocity=0, time=168),
    Message('note_on', channel=3, note=34, velocity=92, time=24),
    Message('note_off', channel=3, note=34, velocity=0, time=168),
    Message('note_on', channel=3, note=41, velocity=92, time=24),
    Message('note_off', channel=3, note=41, velocity=0, time=168),
    Message('note_on', channel=3, note=33, velocity=92, time=24),
    Message('note_off', channel=3, note=33, velocity=0, time=168),
    Message('note_on', channel=3, note=29, velocity=92, time=24),
    Message('note_off', channel=3, note=29, velocity=0, time=168),
    Message('note_on', channel=3, note=35, velocity=92, time=24),
    Message('note_off', channel=3, note=35, velocity=0, time=168),
    Message('note_on', channel=3, note=41, velocity=92, time=24),
    Message('note_off', channel=3, note=41, velocity=0, time=168),
    Message('note_on', channel=3, note=40, velocity=92, time=24),
    Message('note_off', channel=3, note=40, velocity=0, time=168),
    Message('control_change', channel=3, control=7, value=100, time=24),
    Message('note_on', channel=3, note=33, velocity=75, time=96),
    Message('note_off', channel=3, note=33, velocity=0, time=80),
    Message('note_on', channel=3, note=33, velocity=75, time=304),
    Message('note_off', channel=3, note=33, velocity=0, time=16),
    Message('note_on', channel=3, note=33, velocity=75, time=32),
    Message('note_off', channel=3, note=33, velocity=0, time=16),
    Message('note_on', channel=3, note=41, velocity=75, time=3968),
    Message('note_off', channel=3, note=41, velocity=0, time=16),
    Message('note_on', channel=3, note=43, velocity=75, time=32),
    Message('note_off', channel=3, note=43, velocity=0, time=16),
    Message('note_on', channel=3, note=44, velocity=75, time=32),
    Message('note_off', channel=3, note=44, velocity=0, time=48),
    Message('note_on', channel=3, note=43, velocity=75, time=0),
    Message('note_off', channel=3, note=43, velocity=0, time=47),
    Message('note_on', channel=3, note=41, velocity=75, time=1),
    Message('note_off', channel=3, note=41, velocity=0, time=16),
    Message('note_on', channel=3, note=39, velocity=75, time=32),
    Message('note_off', channel=3, note=39, velocity=0, time=16),
    Message('note_on', channel=3, note=38, velocity=75, time=32),
    Message('note_off', channel=3, note=38, velocity=0, time=48),
    Message('note_on', channel=3, note=36, velocity=75, time=0),
    Message('note_off', channel=3, note=36, velocity=0, time=16),
    Message('note_on', channel=3, note=31, velocity=75, time=224),
    Message('note_off', channel=3, note=31, velocity=0, time=16),
    Message('note_on', channel=3, note=31, velocity=75, time=32),
    Message('note_off', channel=3, note=31, velocity=0, time=16),
    Message('note_on', channel=3, note=43, velocity=75, time=320),
    Message('control_change', channel=3, control=7, value=101, time=19),
    Message('control_change', channel=3, control=7, value=102, time=19),
    Message('control_change', channel=3, control=7, value=103, time=19),
    Message('control_change', channel=3, control=7, value=104, time=19),
    Message('control_change', channel=3, control=7, value=105, time=20),
    Message('control_change', channel=3, control=7, value=106, time=19),
    Message('control_change', channel=3, control=7, value=107, time=19),
    Message('control_change', channel=3, control=7, value=108, time=19),
    Message('control_change', channel=3, control=7, value=109, time=19),
    Message('note_off', channel=3, note=43, velocity=0, time=20),
    Message('control_change', channel=3, control=7, value=110, time=0),
    Message('note_on', channel=3, note=41, velocity=92, time=0),
    Message('note_off', channel=3, note=41, velocity=0, time=16),
    Message('note_on', channel=3, note=36, velocity=127, time=944),
    Message('note_off', channel=3, note=36, velocity=0, time=16),
    Message('control_change', channel=3, control=7, value=120, time=1232),
    Message('note_on', channel=3, note=44, velocity=108, time=0),
    Message('note_off', channel=3, note=44, velocity=0, time=168),
    Message('note_on', channel=3, note=31, velocity=127, time=120),
    Message('note_off', channel=3, note=31, velocity=0, time=16),
    Message('control_change', channel=3, control=7, value=100, time=2192),
    Message('note_on', channel=3, note=30, velocity=75, time=0),
    Message('note_off', channel=3, note=30, velocity=0, time=80),
    Message('note_on', channel=3, note=42, velocity=75, time=16),
    Message('note_off', channel=3, note=42, velocity=0, time=168),
    Message('note_on', channel=3, note=42, velocity=75, time=24),
    Message('note_off', channel=3, note=42, velocity=0, time=176),
    Message('note_on', channel=3, note=42, velocity=75, time=16),
    Message('note_off', channel=3, note=42, velocity=0, time=168),
    Message('note_on', channel=3, note=42, velocity=75, time=24),
    Message('note_off', channel=3, note=42, velocity=0, time=96),
    Message('note_on', channel=3, note=42, velocity=75, time=0),
    Message('note_off', channel=3, note=42, velocity=0, time=47),
    Message('note_on', channel=3, note=42, velocity=75, time=49),
    Message('note_off', channel=3, note=42, velocity=0, time=96),
    Message('note_on', channel=3, note=42, velocity=75, time=0),
    Message('note_off', channel=3, note=42, velocity=0, time=47),
    Message('note_on', channel=3, note=42, velocity=75, time=145),
    Message('note_off', channel=3, note=42, velocity=0, time=47),
    Message('note_on', channel=3, note=42, velocity=75, time=49),
    Message('note_off', channel=3, note=42, velocity=0, time=168),
    Message('note_on', channel=3, note=42, velocity=75, time=24),
    Message('note_off', channel=3, note=42, velocity=0, time=80),
    Message('note_on', channel=3, note=37, velocity=75, time=16),
    Message('note_off', channel=3, note=37, velocity=0, time=264),
    Message('note_on', channel=3, note=37, velocity=75, time=24),
    Message('note_off', channel=3, note=37, velocity=0, time=80),
    Message('note_on', channel=3, note=37, velocity=75, time=16),
    Message('note_off', channel=3, note=37, velocity=0, time=80),
    Message('note_on', channel=3, note=45, velocity=75, time=16),
    Message('note_off', channel=3, note=45, velocity=0, time=80),
    Message('note_on', channel=3, note=44, velocity=75, time=16),
    Message('note_off', channel=3, note=44, velocity=0, time=80),
    Message('note_on', channel=3, note=42, velocity=75, time=16),
    Message('note_off', channel=3, note=42, velocity=0, time=80),
    Message('note_on', channel=3, note=40, velocity=75, time=16),
    Message('note_off', channel=3, note=40, velocity=0, time=96),
    Message('note_on', channel=3, note=39, velocity=75, time=0),
    Message('note_off', channel=3, note=39, velocity=0, time=80),
    Message('note_on', channel=3, note=37, velocity=75, time=16),
    Message('note_off', channel=3, note=37, velocity=0, time=168),
    Message('note_on', channel=3, note=44, velocity=105, time=120),
    Message('note_off', channel=3, note=44, velocity=0, time=24),
    Message('note_on', channel=3, note=42, velocity=75, time=0),
    Message('note_off', channel=3, note=42, velocity=0, time=24),
    Message('note_on', channel=3, note=40, velocity=75, time=0),
    Message('note_off', channel=3, note=40, velocity=0, time=24),
    Message('note_on', channel=3, note=39, velocity=75, time=0),
    Message('note_off', channel=3, note=39, velocity=0, time=24),
    Message('note_on', channel=3, note=37, velocity=75, time=0),
    Message('note_off', channel=3, note=37, velocity=0, time=168),
    Message('control_change', channel=3, control=7, value=101, time=556),
    Message('control_change', channel=3, control=7, value=102, time=725),
    Message('control_change', channel=3, control=7, value=103, time=725),
    Message('control_change', channel=3, control=7, value=104, time=725),
    Message('control_change', channel=3, control=7, value=105, time=724),
    Message('control_change', channel=3, control=7, value=106, time=725),
    Message('control_change', channel=3, control=7, value=107, time=725),
    Message('control_change', channel=3, control=7, value=108, time=725),
    Message('control_change', channel=3, control=7, value=109, time=725),
    Message('control_change', channel=3, control=7, value=110, time=724),
    Message('note_on', channel=3, note=52, velocity=92, time=1),
    Message('note_off', channel=3, note=52, velocity=0, time=128),
    Message('note_on', channel=3, note=45, velocity=92, time=16),
    Message('control_change', channel=3, control=7, value=109, time=7),
    Message('control_change', channel=3, control=7, value=108, time=7),
    Message('control_change', channel=3, control=7, value=107, time=7),
    Message('control_change', channel=3, control=7, value=106, time=7),
    Message('control_change', channel=3, control=7, value=105, time=7),
    Message('control_change', channel=3, control=7, value=104, time=8),
    Message('control_change', channel=3, control=7, value=103, time=7),
    Message('control_change', channel=3, control=7, value=102, time=7),
    Message('control_change', channel=3, control=7, value=101, time=7),
    Message('control_change', channel=3, control=7, value=100, time=7),
    Message('control_change', channel=3, control=7, value=99, time=8),
    Message('control_change', channel=3, control=7, value=98, time=7),
    Message('control_change', channel=3, control=7, value=97, time=7),
    Message('control_change', channel=3, control=7, value=96, time=7),
    Message('control_change', channel=3, control=7, value=95, time=7),
    Message('control_change', channel=3, control=7, value=94, time=8),
    Message('control_change', channel=3, control=7, value=93, time=7),
    Message('control_change', channel=3, control=7, value=92, time=7),
    Message('control_change', channel=3, control=7, value=91, time=7),
    Message('control_change', channel=3, control=7, value=90, time=7),
    Message('control_change', channel=3, control=7, value=89, time=8),
    Message('control_change', channel=3, control=7, value=88, time=7),
    Message('control_change', channel=3, control=7, value=87, time=7),
    Message('control_change', channel=3, control=7, value=86, time=7),
    Message('control_change', channel=3, control=7, value=85, time=7),
    Message('control_change', channel=3, control=7, value=84, time=8),
    Message('control_change', channel=3, control=7, value=83, time=7),
    Message('control_change', channel=3, control=7, value=82, time=7),
    Message('control_change', channel=3, control=7, value=81, time=7),
    Message('control_change', channel=3, control=7, value=80, time=7),
    Message('control_change', channel=3, control=7, value=79, time=8),
    Message('control_change', channel=3, control=7, value=78, time=7),
    Message('control_change', channel=3, control=7, value=77, time=7),
    Message('control_change', channel=3, control=7, value=76, time=7),
    Message('control_change', channel=3, control=7, value=75, time=7),
    Message('control_change', channel=3, control=7, value=74, time=8),
    Message('note_off', channel=3, note=45, velocity=0, time=5),
    Message('control_change', channel=3, control=7, value=73, time=2),
    Message('control_change', channel=3, control=7, value=72, time=7),
    Message('control_change', channel=3, control=7, value=71, time=7),
    Message('control_change', channel=3, control=7, value=70, time=7),
    Message('note_on', channel=3, note=45, velocity=30, time=1),
    Message('control_change', channel=3, control=7, value=71, time=7),
    Message('control_change', channel=3, control=7, value=72, time=7),
    Message('control_change', channel=3, control=7, value=73, time=7),
    Message('control_change', channel=3, control=7, value=74, time=7),
    Message('control_change', channel=3, control=7, value=75, time=7),
    Message('control_change', channel=3, control=7, value=76, time=8),
    Message('control_change', channel=3, control=7, value=77, time=7),
    Message('control_change', channel=3, control=7, value=78, time=7),
    Message('control_change', channel=3, control=7, value=79, time=7),
    Message('control_change', channel=3, control=7, value=80, time=7),
    Message('control_change', channel=3, control=7, value=81, time=8),
    Message('control_change', channel=3, control=7, value=82, time=7),
    Message('control_change', channel=3, control=7, value=83, time=7),
    Message('control_change', channel=3, control=7, value=84, time=7),
    Message('control_change', channel=3, control=7, value=85, time=7),
    Message('control_change', channel=3, control=7, value=86, time=8),
    Message('control_change', channel=3, control=7, value=87, time=7),
    Message('control_change', channel=3, control=7, value=88, time=7),
    Message('control_change', channel=3, control=7, value=89, time=7),
    Message('control_change', channel=3, control=7, value=90, time=7),
    Message('control_change', channel=3, control=7, value=91, time=8),
    Message('control_change', channel=3, control=7, value=92, time=7),
    Message('control_change', channel=3, control=7, value=93, time=7),
    Message('control_change', channel=3, control=7, value=94, time=7),
    Message('control_change', channel=3, control=7, value=95, time=7),
    Message('control_change', channel=3, control=7, value=96, time=8),
    Message('control_change', channel=3, control=7, value=97, time=7),
    Message('control_change', channel=3, control=7, value=98, time=7),
    Message('control_change', channel=3, control=7, value=99, time=7),
    Message('control_change', channel=3, control=7, value=100, time=7),
    Message('control_change', channel=3, control=7, value=101, time=8),
    Message('note_off', channel=3, note=45, velocity=0, time=1),
    Message('control_change', channel=3, control=7, value=102, time=6),
    Message('control_change', channel=3, control=7, value=103, time=7),
    Message('control_change', channel=3, control=7, value=104, time=7),
    Message('control_change', channel=3, control=7, value=105, time=7),
    Message('control_change', channel=3, control=7, value=106, time=8),
    Message('control_change', channel=3, control=7, value=107, time=7),
    Message('control_change', channel=3, control=7, value=108, time=7),
    Message('control_change', channel=3, control=7, value=109, time=7),
    Message('control_change', channel=3, control=7, value=110, time=7),
    Message('note_on', channel=3, note=40, velocity=92, time=1),
    Message('note_off', channel=3, note=40, velocity=0, time=16),
    Message('note_on', channel=3, note=35, velocity=127, time=512),
    Message('note_off', channel=3, note=35, velocity=0, time=16),
    Message('note_on', channel=3, note=40, velocity=92, time=32),
    Message('note_off', channel=3, note=40, velocity=0, time=16),
    Message('note_on', channel=3, note=35, velocity=127, time=512),
    Message('note_off', channel=3, note=35, velocity=0, time=16),
    Message('note_on', channel=3, note=36, velocity=127, time=32),
    Message('note_off', channel=3, note=36, velocity=0, time=96),
    Message('note_on', channel=3, note=31, velocity=92, time=0),
    Message('note_off', channel=3, note=31, velocity=0, time=47),
    Message('note_on', channel=3, note=36, velocity=127, time=1),
    Message('note_off', channel=3, note=36, velocity=0, time=96),
    Message('note_on', channel=3, note=31, velocity=92, time=0),
    Message('note_off', channel=3, note=31, velocity=0, time=47),
    Message('note_on', channel=3, note=36, velocity=127, time=1),
    Message('note_off', channel=3, note=36, velocity=0, time=96),
    Message('note_on', channel=3, note=31, velocity=92, time=0),
    Message('note_off', channel=3, note=31, velocity=0, time=47),
    Message('note_on', channel=3, note=36, velocity=127, time=1),
    Message('note_off', channel=3, note=36, velocity=0, time=96),
    Message('note_on', channel=3, note=31, velocity=92, time=0),
    Message('note_off', channel=3, note=31, velocity=0, time=47),
    Message('note_on', channel=3, note=36, velocity=127, time=1),
    Message('note_off', channel=3, note=36, velocity=0, time=96),
    Message('note_on', channel=3, note=31, velocity=92, time=0),
    Message('note_off', channel=3, note=31, velocity=0, time=47),
    Message('note_on', channel=3, note=43, velocity=127, time=1),
    Message('note_off', channel=3, note=43, velocity=0, time=96),
    Message('note_on', channel=3, note=31, velocity=92, time=0),
    Message('note_off', channel=3, note=31, velocity=0, time=47),
    Message('note_on', channel=3, note=36, velocity=127, time=1),
    Message('note_off', channel=3, note=36, velocity=0, time=96),
    Message('note_on', channel=3, note=31, velocity=92, time=0),
    Message('note_off', channel=3, note=31, velocity=0, time=47),
    Message('note_on', channel=3, note=36, velocity=127, time=1),
    Message('note_off', channel=3, note=36, velocity=0, time=96),
    Message('note_on', channel=3, note=31, velocity=92, time=0),
    Message('note_off', channel=3, note=31, velocity=0, time=47),
    Message('note_on', channel=3, note=36, velocity=92, time=1),
    Message('note_off', channel=3, note=36, velocity=0, time=128),
    Message('note_on', channel=3, note=36, velocity=92, time=16),
    Message('note_off', channel=3, note=36, velocity=0, time=80),
    Message('note_on', channel=3, note=36, velocity=92, time=16),
    Message('note_off', channel=3, note=36, velocity=0, time=23),
    Message('note_on', channel=3, note=38, velocity=92, time=1),
    Message('note_off', channel=3, note=38, velocity=0, time=23),
    Message('note_on', channel=3, note=39, velocity=92, time=1),
    Message('note_off', channel=3, note=39, velocity=0, time=80),
    Message('note_on', channel=3, note=38, velocity=92, time=16),
    Message('note_off', channel=3, note=38, velocity=0, time=23),
    Message('note_on', channel=3, note=39, velocity=92, time=1),
    Message('note_off', channel=3, note=39, velocity=0, time=23),
    Message('note_on', channel=3, note=40, velocity=92, time=1),
    Message('note_off', channel=3, note=40, velocity=0, time=80),
    Message('note_on', channel=3, note=41, velocity=92, time=16),
    Message('note_off', channel=3, note=41, velocity=0, time=23),
    Message('note_on', channel=3, note=42, velocity=92, time=1),
    Message('note_off', channel=3, note=42, velocity=0, time=23),
    Message('note_on', channel=3, note=43, velocity=92, time=1),
    Message('note_off', channel=3, note=43, velocity=0, time=128),
    Message('note_on', channel=3, note=31, velocity=92, time=16),
    Message('note_off', channel=3, note=31, velocity=0, time=128),
    Message('note_on', channel=3, note=36, velocity=92, time=16),
    Message('note_off', channel=3, note=36, velocity=0, time=128),
    Message('note_on', channel=3, note=36, velocity=92, time=16),
    Message('note_off', channel=3, note=36, velocity=0, time=128),
    Message('note_on', channel=3, note=36, velocity=92, time=16),
    Message('note_off', channel=3, note=36, velocity=0, time=128),
    Message('note_on', channel=3, note=36, velocity=92, time=16),
    Message('note_off', channel=3, note=36, velocity=0, time=128),
    Message('note_on', channel=3, note=36, velocity=92, time=16),
    Message('control_change', channel=3, control=7, value=109, time=2),
    Message('control_change', channel=3, control=7, value=108, time=2),
    Message('control_change', channel=3, control=7, value=107, time=3),
    Message('control_change', channel=3, control=7, value=106, time=2),
    Message('control_change', channel=3, control=7, value=105, time=3),
    Message('control_change', channel=3, control=7, value=104, time=2),
    Message('control_change', channel=3, control=7, value=103, time=2),
    Message('control_change', channel=3, control=7, value=102, time=3),
    Message('control_change', channel=3, control=7, value=101, time=2),
    Message('control_change', channel=3, control=7, value=100, time=3),
    Message('control_change', channel=3, control=7, value=99, time=2),
    Message('control_change', channel=3, control=7, value=98, time=2),
    Message('control_change', channel=3, control=7, value=97, time=3),
    Message('control_change', channel=3, control=7, value=96, time=2),
    Message('control_change', channel=3, control=7, value=95, time=3),
    Message('control_change', channel=3, control=7, value=94, time=2),
    Message('control_change', channel=3, control=7, value=93, time=2),
    Message('control_change', channel=3, control=7, value=92, time=3),
    Message('control_change', channel=3, control=7, value=91, time=2),
    Message('control_change', channel=3, control=7, value=90, time=3),
    Message('control_change', channel=3, control=7, value=89, time=2),
    Message('control_change', channel=3, control=7, value=88, time=2),
    Message('control_change', channel=3, control=7, value=87, time=3),
    Message('control_change', channel=3, control=7, value=86, time=2),
    Message('control_change', channel=3, control=7, value=85, time=3),
    Message('control_change', channel=3, control=7, value=84, time=2),
    Message('control_change', channel=3, control=7, value=83, time=2),
    Message('control_change', channel=3, control=7, value=82, time=3),
    Message('control_change', channel=3, control=7, value=81, time=2),
    Message('control_change', channel=3, control=7, value=80, time=3),
    Message('control_change', channel=3, control=7, value=79, time=2),
    Message('control_change', channel=3, control=7, value=78, time=2),
    Message('control_change', channel=3, control=7, value=77, time=3),
    Message('control_change', channel=3, control=7, value=76, time=2),
    Message('control_change', channel=3, control=7, value=75, time=3),
    Message('control_change', channel=3, control=7, value=74, time=2),
    Message('control_change', channel=3, control=7, value=73, time=2),
    Message('control_change', channel=3, control=7, value=72, time=3),
    Message('control_change', channel=3, control=7, value=71, time=2),
    Message('control_change', channel=3, control=7, value=70, time=3),
    Message('control_change', channel=3, control=7, value=69, time=2),
    Message('control_change', channel=3, control=7, value=68, time=2),
    Message('control_change', channel=3, control=7, value=67, time=3),
    Message('control_change', channel=3, control=7, value=66, time=2),
    Message('control_change', channel=3, control=7, value=65, time=3),
    Message('control_change', channel=3, control=7, value=64, time=2),
    Message('control_change', channel=3, control=7, value=63, time=2),
    Message('control_change', channel=3, control=7, value=62, time=3),
    Message('control_change', channel=3, control=7, value=61, time=2),
    Message('control_change', channel=3, control=7, value=60, time=3),
    Message('control_change', channel=3, control=7, value=59, time=2),
    Message('control_change', channel=3, control=7, value=58, time=2),
    Message('control_change', channel=3, control=7, value=57, time=3),
    Message('control_change', channel=3, control=7, value=56, time=2),
    Message('control_change', channel=3, control=7, value=55, time=3),
    Message('control_change', channel=3, control=7, value=54, time=2),
    Message('control_change', channel=3, control=7, value=53, time=2),
    Message('control_change', channel=3, control=7, value=52, time=3),
    Message('control_change', channel=3, control=7, value=51, time=2),
    Message('control_change', channel=3, control=7, value=50, time=3),
    Message('control_change', channel=3, control=7, value=51, time=2),
    Message('control_change', channel=3, control=7, value=52, time=2),
    Message('control_change', channel=3, control=7, value=53, time=3),
    Message('control_change', channel=3, control=7, value=54, time=2),
    Message('control_change', channel=3, control=7, value=55, time=3),
    Message('control_change', channel=3, control=7, value=56, time=2),
    Message('control_change', channel=3, control=7, value=57, time=2),
    Message('control_change', channel=3, control=7, value=58, time=3),
    Message('control_change', channel=3, control=7, value=59, time=2),
    Message('control_change', channel=3, control=7, value=60, time=3),
    Message('control_change', channel=3, control=7, value=61, time=2),
    Message('control_change', channel=3, control=7, value=62, time=2),
    Message('control_change', channel=3, control=7, value=63, time=3),
    Message('control_change', channel=3, control=7, value=64, time=2),
    Message('control_change', channel=3, control=7, value=65, time=3),
    Message('control_change', channel=3, control=7, value=66, time=2),
    Message('control_change', channel=3, control=7, value=67, time=2),
    Message('control_change', channel=3, control=7, value=68, time=3),
    Message('control_change', channel=3, control=7, value=69, time=2),
    Message('control_change', channel=3, control=7, value=70, time=3),
    Message('control_change', channel=3, control=7, value=71, time=2),
    Message('control_change', channel=3, control=7, value=72, time=2),
    Message('control_change', channel=3, control=7, value=73, time=3),
    Message('control_change', channel=3, control=7, value=74, time=2),
    Message('control_change', channel=3, control=7, value=75, time=3),
    Message('control_change', channel=3, control=7, value=76, time=2),
    Message('control_change', channel=3, control=7, value=77, time=2),
    Message('control_change', channel=3, control=7, value=78, time=3),
    Message('control_change', channel=3, control=7, value=79, time=2),
    Message('control_change', channel=3, control=7, value=80, time=3),
    Message('control_change', channel=3, control=7, value=81, time=2),
    Message('control_change', channel=3, control=7, value=82, time=2),
    Message('control_change', channel=3, control=7, value=83, time=3),
    Message('control_change', channel=3, control=7, value=84, time=2),
    Message('control_change', channel=3, control=7, value=85, time=3),
    Message('control_change', channel=3, control=7, value=86, time=2),
    Message('control_change', channel=3, control=7, value=87, time=2),
    Message('control_change', channel=3, control=7, value=88, time=3),
    Message('control_change', channel=3, control=7, value=89, time=2),
    Message('control_change', channel=3, control=7, value=90, time=3),
    Message('control_change', channel=3, control=7, value=91, time=2),
    Message('control_change', channel=3, control=7, value=92, time=2),
    Message('control_change', channel=3, control=7, value=93, time=3),
    Message('control_change', channel=3, control=7, value=94, time=2),
    Message('control_change', channel=3, control=7, value=95, time=3),
    Message('control_change', channel=3, control=7, value=96, time=2),
    Message('control_change', channel=3, control=7, value=97, time=2),
    Message('control_change', channel=3, control=7, value=98, time=3),
    Message('control_change', channel=3, control=7, value=99, time=2),
    Message('control_change', channel=3, control=7, value=100, time=3),
    Message('control_change', channel=3, control=7, value=101, time=2),
    Message('control_change', channel=3, control=7, value=102, time=2),
    Message('control_change', channel=3, control=7, value=103, time=3),
    Message('note_off', channel=3, note=36, velocity=0, time=1),
    Message('control_change', channel=3, control=7, value=104, time=1),
    Message('control_change', channel=3, control=7, value=105, time=3),
    Message('control_change', channel=3, control=7, value=106, time=2),
    Message('control_change', channel=3, control=7, value=107, time=2),
    Message('control_change', channel=3, control=7, value=108, time=3),
    Message('control_change', channel=3, control=7, value=109, time=2),
    Message('control_change', channel=3, control=7, value=110, time=3),
    Message('note_on', channel=3, note=48, velocity=92, time=0),
    Message('note_off', channel=3, note=48, velocity=0, time=16),
    Message('control_change', channel=3, control=7, value=111, time=27),
    Message('note_on', channel=3, note=36, velocity=93, time=5),
    Message('control_change', channel=3, control=7, value=112, time=38),
    Message('control_change', channel=3, control=7, value=113, time=43),
    Message('control_change', channel=3, control=7, value=114, time=43),
    Message('control_change', channel=3, control=7, value=115, time=44),
    Message('control_change', channel=3, control=7, value=116, time=43),
    Message('control_change', channel=3, control=7, value=117, time=43),
    Message('control_change', channel=3, control=7, value=118, time=43),
    Message('control_change', channel=3, control=7, value=119, time=43),
    Message('note_off', channel=3, note=36, velocity=0, time=28),
    Message('control_change', channel=3, control=7, value=90, time=16),
    Message('note_on', channel=3, note=36, velocity=60, time=0),
    Message('control_change', channel=3, control=7, value=91, time=115),
    Message('control_change', channel=3, control=7, value=92, time=67),
    Message('control_change', channel=3, control=7, value=93, time=67),
    Message('control_change', channel=3, control=7, value=94, time=67),
    Message('control_change', channel=3, control=7, value=95, time=67),
    Message('control_change', channel=3, control=7, value=96, time=68),
    Message('control_change', channel=3, control=7, value=97, time=67),
    Message('control_change', channel=3, control=7, value=98, time=67),
    Message('control_change', channel=3, control=7, value=99, time=67),
    Message('note_off', channel=3, note=36, velocity=0, time=52),
    Message('control_change', channel=3, control=7, value=100, time=15),
    Message('note_on', channel=3, note=36, velocity=75, time=1),
    Message('note_off', channel=3, note=36, velocity=0, time=416),
    Message('note_on', channel=3, note=36, velocity=75, time=16),
    Message('control_change', channel=3, control=7, value=101, time=21),
    Message('control_change', channel=3, control=7, value=102, time=22),
    Message('control_change', channel=3, control=7, value=103, time=21),
    Message('control_change', channel=3, control=7, value=104, time=22),
    Message('control_change', channel=3, control=7, value=105, time=22),
    Message('control_change', channel=3, control=7, value=106, time=21),
    Message('control_change', channel=3, control=7, value=107, time=22),
    Message('control_change', channel=3, control=7, value=108, time=21),
    Message('control_change', channel=3, control=7, value=109, time=22),
    Message('control_change', channel=3, control=7, value=110, time=22),
    Message('control_change', channel=3, control=7, value=111, time=21),
    Message('control_change', channel=3, control=7, value=112, time=22),
    Message('control_change', channel=3, control=7, value=113, time=21),
    Message('control_change', channel=3, control=7, value=114, time=22),
    Message('control_change', channel=3, control=7, value=115, time=22),
    Message('control_change', channel=3, control=7, value=116, time=21),
    Message('control_change', channel=3, control=7, value=117, time=22),
    Message('control_change', channel=3, control=7, value=118, time=21),
    Message('control_change', channel=3, control=7, value=119, time=22),
    Message('note_off', channel=3, note=36, velocity=0, time=6),
    Message('control_change', channel=3, control=7, value=120, time=16),
    Message('note_on', channel=3, note=36, velocity=127, time=0),
    Message('note_off', channel=3, note=36, velocity=0, time=47),
    Message('control_change', channel=3, control=101, value=0, time=1249),
    Message('control_change', channel=3, control=100, value=0, time=0),
    Message('control_change', channel=3, control=6, value=12, time=0),
    Message('control_change', channel=3, control=10, value=64, time=0),
    Message('control_change', channel=3, control=7, value=120, time=0),
    Message('pitchwheel', channel=3, pitch=0, time=0),
    Message('program_change', channel=3, program=58, time=0),
    Message('program_change', channel=3, program=58, time=0),
    Message('control_change', channel=3, control=7, value=127, time=0),
    Message('control_change', channel=3, control=10, value=64, time=0),
    Message('control_change', channel=3, control=101, value=0, time=1),
    Message('control_change', channel=3, control=100, value=0, time=0),
    Message('control_change', channel=3, control=6, value=12, time=0),
    Message('control_change', channel=3, control=10, value=64, time=0),
    Message('control_change', channel=3, control=7, value=120, time=0),
    Message('pitchwheel', channel=3, pitch=0, time=0),
    Message('program_change', channel=3, program=58, time=0),
    MetaMessage('end_of_track', time=0)]),
  MidiTrack([
    MetaMessage('track_name', name='Timpani', time=0),
    Message('control_change', channel=8, control=10, value=64, time=0),
    Message('control_change', channel=8, control=7, value=127, time=0),
    Message('pitchwheel', channel=8, pitch=0, time=0),
    Message('control_change', channel=8, control=101, value=0, time=0),
    Message('control_change', channel=8, control=100, value=0, time=0),
    Message('control_change', channel=8, control=6, value=12, time=0),
    Message('control_change', channel=8, control=10, value=64, time=0),
    Message('control_change', channel=8, control=7, value=127, time=0),
    Message('pitchwheel', channel=8, pitch=0, time=0),
    Message('program_change', channel=8, program=47, time=0),
    Message('program_change', channel=8, program=47, time=0),
    Message('control_change', channel=8, control=7, value=127, time=0),
    Message('control_change', channel=8, control=10, value=64, time=0),
    Message('control_change', channel=8, control=101, value=0, time=0),
    Message('control_change', channel=8, control=100, value=0, time=0),
    Message('control_change', channel=8, control=6, value=12, time=0),
    Message('control_change', channel=8, control=10, value=64, time=0),
    Message('control_change', channel=8, control=7, value=127, time=0),
    Message('pitchwheel', channel=8, pitch=0, time=0),
    Message('program_change', channel=8, program=47, time=0),
    Message('program_change', channel=8, program=47, time=0),
    Message('control_change', channel=8, control=7, value=127, time=0),
    Message('control_change', channel=8, control=10, value=64, time=0),
    Message('control_change', channel=8, control=101, value=0, time=0),
    Message('control_change', channel=8, control=100, value=0, time=0),
    Message('control_change', channel=8, control=6, value=12, time=0),
    Message('control_change', channel=8, control=10, value=64, time=0),
    Message('control_change', channel=8, control=7, value=127, time=0),
    Message('pitchwheel', channel=8, pitch=0, time=0),
    Message('program_change', channel=8, program=47, time=0),
    Message('control_change', channel=8, control=7, value=100, time=26784),
    Message('note_on', channel=8, note=52, velocity=105, time=0),
    Message('note_off', channel=8, note=52, velocity=0, time=47),
    Message('control_change', channel=8, control=7, value=110, time=49),
    Message('note_on', channel=8, note=45, velocity=127, time=0),
    Message('note_off', channel=8, note=45, velocity=0, time=47),
    Message('control_change', channel=8, control=7, value=100, time=145),
    Message('note_on', channel=8, note=52, velocity=75, time=0),
    Message('note_off', channel=8, note=52, velocity=0, time=12),
    Message('note_on', channel=8, note=52, velocity=76, time=0),
    Message('control_change', channel=8, control=7, value=101, time=7),
    Message('note_off', channel=8, note=52, velocity=0, time=5),
    Message('note_on', channel=8, note=52, velocity=77, time=0),
    Message('note_off', channel=8, note=52, velocity=0, time=12),
    Message('note_on', channel=8, note=52, velocity=78, time=0),
    Message('control_change', channel=8, control=7, value=102, time=2),
    Message('note_off', channel=8, note=52, velocity=0, time=10),
    Message('note_on', channel=8, note=52, velocity=79, time=0),
    Message('control_change', channel=8, control=7, value=103, time=9),
    Message('note_off', channel=8, note=52, velocity=0, time=3),
    Message('note_on', channel=8, note=52, velocity=80, time=0),
    Message('note_off', channel=8, note=52, velocity=0, time=12),
    Message('note_on', channel=8, note=52, velocity=81, time=0),
    Message('control_change', channel=8, control=7, value=104, time=4),
    Message('note_off', channel=8, note=52, velocity=0, time=8),
    Message('note_on', channel=8, note=52, velocity=82, time=0),
    Message('note_off', channel=8, note=52, velocity=0, time=12),
    Message('control_change', channel=8, control=7, value=105, time=0),
    Message('note_on', channel=8, note=52, velocity=83, time=0),
    Message('note_off', channel=8, note=52, velocity=0, time=12),
    Message('note_on', channel=8, note=52, velocity=84, time=0),
    Message('control_change', channel=8, control=7, value=106, time=7),
    Message('note_off', channel=8, note=52, velocity=0, time=5),
    Message('note_on', channel=8, note=52, velocity=85, time=0),
    Message('note_off', channel=8, note=52, velocity=0, time=12),
    Message('note_on', channel=8, note=52, velocity=86, time=0),
    Message('control_change', channel=8, control=7, value=107, time=2),
    Message('note_off', channel=8, note=52, velocity=0, time=10),
    Message('note_on', channel=8, note=52, velocity=87, time=0),
    Message('control_change', channel=8, control=7, value=108, time=9),
    Message('note_off', channel=8, note=52, velocity=0, time=3),
    Message('note_on', channel=8, note=52, velocity=88, time=0),
    Message('note_off', channel=8, note=52, velocity=0, time=12),
    Message('note_on', channel=8, note=52, velocity=89, time=0),
    Message('control_change', channel=8, control=7, value=109, time=4),
    Message('note_off', channel=8, note=52, velocity=0, time=8),
    Message('note_on', channel=8, note=52, velocity=90, time=0),
    Message('note_off', channel=8, note=52, velocity=0, time=12),
    Message('control_change', channel=8, control=7, value=110, time=0),
    Message('note_on', channel=8, note=45, velocity=127, time=0),
    Message('note_off', channel=8, note=45, velocity=0, time=80),
    Message('control_change', channel=8, control=7, value=100, time=3376),
    Message('note_on', channel=8, note=45, velocity=75, time=96),
    Message('note_off', channel=8, note=45, velocity=0, time=80),
    Message('note_on', channel=8, note=45, velocity=75, time=304),
    Message('note_off', channel=8, note=45, velocity=0, time=16),
    Message('note_on', channel=8, note=45, velocity=75, time=32),
    Message('note_off', channel=8, note=45, velocity=0, time=16),
    Message('note_on', channel=8, note=48, velocity=75, time=3008),
    Message('note_off', channel=8, note=48, velocity=0, time=31),
    Message('note_on', channel=8, note=48, velocity=75, time=1),
    Message('note_off', channel=8, note=48, velocity=0, time=31),
    Message('note_on', channel=8, note=48, velocity=75, time=1),
    Message('note_off', channel=8, note=48, velocity=0, time=31),
    Message('note_on', channel=8, note=48, velocity=75, time=1),
    Message('note_off', channel=8, note=48, velocity=0, time=47),
    Message('program_change', channel=8, program=116, time=913),
    Message('control_change', channel=8, control=7, value=70, time=0),
    Message('note_on', channel=8, note=36, velocity=30, time=0),
    Message('note_on', channel=8, note=24, velocity=30, time=0),
    Message('control_change', channel=8, control=7, value=71, time=6),
    Message('note_off', channel=8, note=36, velocity=0, time=6),
    Message('note_off', channel=8, note=24, velocity=0, time=0),
    Message('control_change', channel=8, control=7, value=72, time=0),
    Message('note_on', channel=8, note=36, velocity=32, time=0),
    Message('note_on', channel=8, note=24, velocity=32, time=0),
    Message('control_change', channel=8, control=7, value=73, time=7),
    Message('note_off', channel=8, note=24, velocity=0, time=5),
    Message('note_off', channel=8, note=36, velocity=0, time=0),
    Message('note_on', channel=8, note=36, velocity=34, time=0),
    Message('note_on', channel=8, note=24, velocity=34, time=0),
    Message('control_change', channel=8, control=7, value=74, time=1),
    Message('control_change', channel=8, control=7, value=75, time=7),
    Message('note_off', channel=8, note=24, velocity=0, time=4),
    Message('note_off', channel=8, note=36, velocity=0, time=0),
    Message('note_on', channel=8, note=36, velocity=36, time=0),
    Message('note_on', channel=8, note=24, velocity=36, time=0),
    Message('control_change', channel=8, control=7, value=76, time=2),
    Message('control_change', channel=8, control=7, value=77, time=6),
    Message('note_off', channel=8, note=24, velocity=0, time=4),
    Message('note_off', channel=8, note=36, velocity=0, time=0),
    Message('note_on', channel=8, note=36, velocity=39, time=0),
    Message('note_on', channel=8, note=24, velocity=39, time=0),
    Message('control_change', channel=8, control=7, value=78, time=3),
    Message('control_change', channel=8, control=7, value=79, time=6),
    Message('note_off', channel=8, note=24, velocity=0, time=3),
    Message('note_off', channel=8, note=36, velocity=0, time=0),
    Message('note_on', channel=8, note=36, velocity=42, time=0),
    Message('note_on', channel=8, note=24, velocity=42, time=0),
    Message('control_change', channel=8, control=7, value=80, time=4),
    Message('control_change', channel=8, control=7, value=81, time=6),
    Message('note_off', channel=8, note=24, velocity=0, time=2),
    Message('note_off', channel=8, note=36, velocity=0, time=0),
    Message('note_on', channel=8, note=36, velocity=45, time=0),
    Message('note_on', channel=8, note=24, velocity=45, time=0),
    Message('control_change', channel=8, control=7, value=82, time=4),
    Message('control_change', channel=8, control=7, value=83, time=7),
    Message('note_off', channel=8, note=24, velocity=0, time=1),
    Message('note_off', channel=8, note=36, velocity=0, time=0),
    Message('note_on', channel=8, note=36, velocity=48, time=0),
    Message('note_on', channel=8, note=24, velocity=48, time=0),
    Message('control_change', channel=8, control=7, value=84, time=5),
    Message('note_off', channel=8, note=24, velocity=0, time=7),
    Message('note_off', channel=8, note=36, velocity=0, time=0),
    Message('control_change', channel=8, control=7, value=85, time=0),
    Message('note_on', channel=8, note=36, velocity=51, time=0),
    Message('note_on', channel=8, note=24, velocity=51, time=0),
    Message('control_change', channel=8, control=7, value=86, time=6),
    Message('note_off', channel=8, note=24, velocity=0, time=6),
    Message('note_off', channel=8, note=36, velocity=0, time=0),
    Message('control_change', channel=8, control=7, value=87, time=0),
    Message('note_on', channel=8, note=36, velocity=54, time=0),
    Message('note_on', channel=8, note=24, velocity=54, time=0),
    Message('control_change', channel=8, control=7, value=88, time=7),
    Message('note_off', channel=8, note=24, velocity=0, time=5),
    Message('note_off', channel=8, note=36, velocity=0, time=0),
    Message('note_on', channel=8, note=36, velocity=57, time=0),
    Message('note_on', channel=8, note=24, velocity=57, time=0),
    Message('control_change', channel=8, control=7, value=89, time=1),
    Message('control_change', channel=8, control=7, value=90, time=7),
    Message('note_off', channel=8, note=24, velocity=0, time=4),
    Message('note_off', channel=8, note=36, velocity=0, time=0),
    Message('note_on', channel=8, note=36, velocity=60, time=0),
    Message('note_on', channel=8, note=24, velocity=60, time=0),
    Message('control_change', channel=8, control=7, value=91, time=2),
    Message('control_change', channel=8, control=7, value=92, time=6),
    Message('note_off', channel=8, note=24, velocity=0, time=4),
    Message('note_off', channel=8, note=36, velocity=0, time=0),
    Message('note_on', channel=8, note=36, velocity=63, time=0),
    Message('note_on', channel=8, note=24, velocity=63, time=0),
    Message('control_change', channel=8, control=7, value=93, time=3),
    Message('control_change', channel=8, control=7, value=94, time=6),
    Message('note_off', channel=8, note=24, velocity=0, time=3),
    Message('note_off', channel=8, note=36, velocity=0, time=0),
    Message('note_on', channel=8, note=36, velocity=66, time=0),
    Message('note_on', channel=8, note=24, velocity=66, time=0),
    Message('control_change', channel=8, control=7, value=95, time=4),
    Message('control_change', channel=8, control=7, value=96, time=6),
    Message('note_off', channel=8, note=24, velocity=0, time=2),
    Message('note_off', channel=8, note=36, velocity=0, time=0),
    Message('note_on', channel=8, note=36, velocity=69, time=0),
    Message('note_on', channel=8, note=24, velocity=69, time=0),
    Message('control_change', channel=8, control=7, value=97, time=4),
    Message('control_change', channel=8, control=7, value=98, time=7),
    Message('note_off', channel=8, note=24, velocity=0, time=1),
    Message('note_off', channel=8, note=36, velocity=0, time=0),
    Message('note_on', channel=8, note=36, velocity=72, time=0),
    Message('note_on', channel=8, note=24, velocity=72, time=0),
    Message('control_change', channel=8, control=7, value=99, time=5),
    Message('note_off', channel=8, note=24, velocity=0, time=7),
    Message('note_off', channel=8, note=36, velocity=0, time=0),
    Message('control_change', channel=8, control=7, value=100, time=0),
    Message('note_on', channel=8, note=36, velocity=75, time=0),
    Message('note_on', channel=8, note=24, velocity=75, time=0),
    Message('note_off', channel=8, note=24, velocity=0, time=80),
    Message('note_off', channel=8, note=36, velocity=0, time=0),
    Message('program_change', channel=8, program=47, time=112),
    Message('note_on', channel=8, note=43, velocity=75, time=96),
    Message('note_off', channel=8, note=43, velocity=0, time=47),
    Message('note_on', channel=8, note=43, velocity=75, time=1),
    Message('note_off', channel=8, note=43, velocity=0, time=47),
    Message('note_on', channel=8, note=43, velocity=75, time=1),
    Message('note_off', channel=8, note=43, velocity=0, time=47),
    Message('note_on', channel=8, note=43, velocity=75, time=1),
    Message('note_off', channel=8, note=43, velocity=0, time=47),
    Message('note_on', channel=8, note=43, velocity=75, time=1),
    Message('note_off', channel=8, note=43, velocity=0, time=47),
    Message('note_on', channel=8, note=43, velocity=75, time=1),
    Message('note_off', channel=8, note=43, velocity=0, time=47),
    Message('note_on', channel=8, note=43, velocity=75, time=1),
    Message('note_off', channel=8, note=43, velocity=0, time=47),
    Message('note_on', channel=8, note=43, velocity=75, time=1),
    Message('note_off', channel=8, note=43, velocity=0, time=47),
    Message('note_on', channel=8, note=43, velocity=75, time=1),
    Message('note_off', channel=8, note=43, velocity=0, time=47),
    Message('note_on', channel=8, note=43, velocity=75, time=1),
    Message('note_off', channel=8, note=43, velocity=0, time=47),
    Message('note_on', channel=8, note=43, velocity=75, time=1),
    Message('note_off', channel=8, note=43, velocity=0, time=47),
    Message('note_on', channel=8, note=43, velocity=75, time=1),
    Message('note_off', channel=8, note=43, velocity=0, time=47),
    Message('control_change', channel=8, control=7, value=90, time=577),
    Message('note_on', channel=8, note=43, velocity=60, time=0),
    Message('control_change', channel=8, control=7, value=91, time=9),
    Message('note_off', channel=8, note=43, velocity=0, time=3),
    Message('note_on', channel=8, note=43, velocity=62, time=0),
    Message('control_change', channel=8, control=7, value=92, time=7),
    Message('note_off', channel=8, note=43, velocity=0, time=5),
    Message('note_on', channel=8, note=43, velocity=64, time=0),
    Message('control_change', channel=8, control=7, value=93, time=4),
    Message('note_off', channel=8, note=43, velocity=0, time=8),
    Message('note_on', channel=8, note=43, velocity=66, time=0),
    Message('control_change', channel=8, control=7, value=94, time=2),
    Message('note_off', channel=8, note=43, velocity=0, time=10),
    Message('control_change', channel=8, control=7, value=95, time=0),
    Message('note_on', channel=8, note=43, velocity=68, time=0),
    Message('control_change', channel=8, control=7, value=96, time=9),
    Message('note_off', channel=8, note=43, velocity=0, time=3),
    Message('note_on', channel=8, note=43, velocity=70, time=0),
    Message('control_change', channel=8, control=7, value=97, time=7),
    Message('note_off', channel=8, note=43, velocity=0, time=5),
    Message('note_on', channel=8, note=43, velocity=72, time=0),
    Message('control_change', channel=8, control=7, value=98, time=4),
    Message('note_off', channel=8, note=43, velocity=0, time=8),
    Message('note_on', channel=8, note=43, velocity=74, time=0),
    Message('control_change', channel=8, control=7, value=99, time=2),
    Message('note_off', channel=8, note=43, velocity=0, time=10),
    Message('control_change', channel=8, control=7, value=100, time=0),
    Message('note_on', channel=8, note=43, velocity=76, time=0),
    Message('control_change', channel=8, control=7, value=101, time=9),
    Message('note_off', channel=8, note=43, velocity=0, time=3),
    Message('note_on', channel=8, note=43, velocity=78, time=0),
    Message('control_change', channel=8, control=7, value=102, time=7),
    Message('note_off', channel=8, note=43, velocity=0, time=5),
    Message('note_on', channel=8, note=43, velocity=80, time=0),
    Message('control_change', channel=8, control=7, value=103, time=4),
    Message('note_off', channel=8, note=43, velocity=0, time=8),
    Message('note_on', channel=8, note=43, velocity=82, time=0),
    Message('control_change', channel=8, control=7, value=104, time=2),
    Message('note_off', channel=8, note=43, velocity=0, time=10),
    Message('control_change', channel=8, control=7, value=105, time=0),
    Message('note_on', channel=8, note=43, velocity=84, time=0),
    Message('control_change', channel=8, control=7, value=106, time=9),
    Message('note_off', channel=8, note=43, velocity=0, time=3),
    Message('note_on', channel=8, note=43, velocity=86, time=0),
    Message('control_change', channel=8, control=7, value=107, time=7),
    Message('note_off', channel=8, note=43, velocity=0, time=5),
    Message('note_on', channel=8, note=43, velocity=88, time=0),
    Message('control_change', channel=8, control=7, value=108, time=4),
    Message('note_off', channel=8, note=43, velocity=0, time=8),
    Message('note_on', channel=8, note=43, velocity=90, time=0),
    Message('control_change', channel=8, control=7, value=109, time=2),
    Message('note_off', channel=8, note=43, velocity=0, time=10),
    Message('control_change', channel=8, control=7, value=110, time=0),
    Message('note_on', channel=8, note=43, velocity=92, time=0),
    Message('control_change', channel=8, control=7, value=111, time=9),
    Message('note_off', channel=8, note=43, velocity=0, time=3),
    Message('note_on', channel=8, note=43, velocity=94, time=0),
    Message('control_change', channel=8, control=7, value=112, time=7),
    Message('note_off', channel=8, note=43, velocity=0, time=5),
    Message('note_on', channel=8, note=43, velocity=96, time=0),
    Message('control_change', channel=8, control=7, value=113, time=4),
    Message('note_off', channel=8, note=43, velocity=0, time=8),
    Message('note_on', channel=8, note=43, velocity=98, time=0),
    Message('control_change', channel=8, control=7, value=114, time=2),
    Message('note_off', channel=8, note=43, velocity=0, time=10),
    Message('control_change', channel=8, control=7, value=115, time=0),
    Message('note_on', channel=8, note=43, velocity=100, time=0),
    Message('control_change', channel=8, control=7, value=116, time=9),
    Message('note_off', channel=8, note=43, velocity=0, time=3),
    Message('note_on', channel=8, note=43, velocity=102, time=0),
    Message('control_change', channel=8, control=7, value=117, time=7),
    Message('note_off', channel=8, note=43, velocity=0, time=5),
    Message('note_on', channel=8, note=43, velocity=104, time=0),
    Message('control_change', channel=8, control=7, value=118, time=4),
    Message('note_off', channel=8, note=43, velocity=0, time=8),
    Message('note_on', channel=8, note=43, velocity=106, time=0),
    Message('control_change', channel=8, control=7, value=119, time=2),
    Message('note_off', channel=8, note=43, velocity=0, time=9),
    Message('control_change', channel=8, control=7, value=120, time=1),
    Message('note_on', channel=8, note=48, velocity=127, time=96),
    Message('note_off', channel=8, note=48, velocity=0, time=80),
    Message('control_change', channel=8, control=7, value=110, time=976),
    Message('program_change', channel=8, program=116, time=0),
    Message('note_on', channel=8, note=36, velocity=92, time=96),
    Message('note_on', channel=8, note=35, velocity=92, time=0),
    Message('note_on', channel=8, note=33, velocity=92, time=0),
    Message('note_on', channel=8, note=31, velocity=92, time=0),
    Message('note_on', channel=8, note=29, velocity=92, time=0),
    Message('note_on', channel=8, note=28, velocity=92, time=0),
    Message('note_on', channel=8, note=26, velocity=92, time=0),
    Message('note_on', channel=8, note=24, velocity=92, time=0),
    Message('note_off', channel=8, note=24, velocity=0, time=80),
    Message('note_off', channel=8, note=26, velocity=0, time=0),
    Message('note_off', channel=8, note=28, velocity=0, time=0),
    Message('note_off', channel=8, note=29, velocity=0, time=0),
    Message('note_off', channel=8, note=36, velocity=0, time=0),
    Message('note_off', channel=8, note=35, velocity=0, time=0),
    Message('note_off', channel=8, note=33, velocity=0, time=0),
    Message('note_off', channel=8, note=31, velocity=0, time=0),
    Message('program_change', channel=8, program=47, time=208),
    Message('control_change', channel=8, control=7, value=120, time=96),
    Message('note_on', channel=8, note=43, velocity=127, time=0),
    Message('note_off', channel=8, note=43, velocity=0, time=47),
    Message('control_change', channel=8, control=7, value=110, time=13009),
    Message('note_on', channel=8, note=52, velocity=127, time=0),
    Message('note_off', channel=8, note=52, velocity=0, time=47),
    Message('note_on', channel=8, note=47, velocity=127, time=481),
    Message('note_off', channel=8, note=47, velocity=0, time=47),
    Message('note_on', channel=8, note=52, velocity=127, time=1),
    Message('note_off', channel=8, note=52, velocity=0, time=47),
    Message('note_on', channel=8, note=48, velocity=92, time=529),
    Message('note_off', channel=8, note=48, velocity=0, time=128),
    Message('note_on', channel=8, note=43, velocity=92, time=112),
    Message('note_off', channel=8, note=43, velocity=0, time=47),
    Message('note_on', channel=8, note=48, velocity=92, time=1),
    Message('note_off', channel=8, note=48, velocity=0, time=128),
    Message('note_on', channel=8, note=43, velocity=92, time=112),
    Message('note_off', channel=8, note=43, velocity=0, time=47),
    Message('note_on', channel=8, note=48, velocity=92, time=1),
    Message('note_off', channel=8, note=48, velocity=0, time=128),
    Message('note_on', channel=8, note=43, velocity=92, time=112),
    Message('note_off', channel=8, note=43, velocity=0, time=47),
    Message('note_on', channel=8, note=48, velocity=92, time=1),
    Message('note_off', channel=8, note=48, velocity=0, time=128),
    Message('note_on', channel=8, note=43, velocity=92, time=112),
    Message('note_off', channel=8, note=43, velocity=0, time=47),
    Message('note_on', channel=8, note=48, velocity=92, time=1),
    Message('note_off', channel=8, note=48, velocity=0, time=128),
    Message('note_on', channel=8, note=48, velocity=92, time=736),
    Message('note_off', channel=8, note=48, velocity=0, time=128),
    Message('note_on', channel=8, note=48, velocity=92, time=16),
    Message('note_off', channel=8, note=48, velocity=0, time=128),
    Message('note_on', channel=8, note=48, velocity=92, time=16),
    Message('note_off', channel=8, note=48, velocity=0, time=128),
    Message('note_on', channel=8, note=48, velocity=92, time=16),
    Message('note_off', channel=8, note=48, velocity=0, time=128),
    Message('control_change', channel=8, control=7, value=107, time=16),
    Message('note_on', channel=8, note=48, velocity=92, time=0),
    Message('control_change', channel=8, control=7, value=102, time=1),
    Message('control_change', channel=8, control=7, value=97, time=1),
    Message('control_change', channel=8, control=7, value=92, time=1),
    Message('control_change', channel=8, control=7, value=87, time=1),
    Message('control_change', channel=8, control=7, value=82, time=1),
    Message('control_change', channel=8, control=7, value=77, time=1),
    Message('control_change', channel=8, control=7, value=72, time=1),
    Message('control_change', channel=8, control=7, value=67, time=1),
    Message('control_change', channel=8, control=7, value=62, time=1),
    Message('control_change', channel=8, control=7, value=57, time=1),
    Message('control_change', channel=8, control=7, value=52, time=1),
    Message('note_off', channel=8, note=48, velocity=0, time=1),
    Message('control_change', channel=8, control=7, value=50, time=0),
    Message('note_on', channel=8, note=48, velocity=10, time=0),
    Message('control_change', channel=8, control=7, value=51, time=4),
    Message('control_change', channel=8, control=7, value=52, time=5),
    Message('note_off', channel=8, note=48, velocity=0, time=3),
    Message('note_on', channel=8, note=48, velocity=13, time=0),
    Message('control_change', channel=8, control=7, value=53, time=1),
    Message('control_change', channel=8, control=7, value=54, time=5),
    Message('control_change', channel=8, control=7, value=55, time=4),
    Message('note_off', channel=8, note=48, velocity=0, time=2),
    Message('note_on', channel=8, note=48, velocity=16, time=0),
    Message('control_change', channel=8, control=7, value=56, time=3),
    Message('control_change', channel=8, control=7, value=57, time=5),
    Message('note_off', channel=8, note=48, velocity=0, time=4),
    Message('control_change', channel=8, control=7, value=58, time=0),
    Message('note_on', channel=8, note=48, velocity=19, time=0),
    Message('control_change', channel=8, control=7, value=59, time=5),
    Message('control_change', channel=8, control=7, value=60, time=4),
    Message('note_off', channel=8, note=48, velocity=0, time=3),
    Message('note_on', channel=8, note=48, velocity=22, time=0),
    Message('control_change', channel=8, control=7, value=61, time=2),
    Message('control_change', channel=8, control=7, value=62, time=5),
    Message('control_change', channel=8, control=7, value=63, time=4),
    Message('note_off', channel=8, note=48, velocity=0, time=1),
    Message('note_on', channel=8, note=48, velocity=25, time=0),
    Message('control_change', channel=8, control=7, value=64, time=4),
    Message('control_change', channel=8, control=7, value=65, time=4),
    Message('note_off', channel=8, note=48, velocity=0, time=4),
    Message('note_on', channel=8, note=48, velocity=28, time=0),
    Message('control_change', channel=8, control=7, value=66, time=1),
    Message('control_change', channel=8, control=7, value=67, time=5),
    Message('control_change', channel=8, control=7, value=68, time=4),
    Message('note_off', channel=8, note=48, velocity=0, time=2),
    Message('note_on', channel=8, note=48, velocity=31, time=0),
    Message('control_change', channel=8, control=7, value=69, time=3),
    Message('control_change', channel=8, control=7, value=70, time=4),
    Message('note_off', channel=8, note=48, velocity=0, time=5),
    Message('control_change', channel=8, control=7, value=71, time=0),
    Message('note_on', channel=8, note=48, velocity=34, time=0),
    Message('control_change', channel=8, control=7, value=72, time=5),
    Message('control_change', channel=8, control=7, value=73, time=4),
    Message('note_off', channel=8, note=48, velocity=0, time=3),
    Message('note_on', channel=8, note=48, velocity=37, time=0),
    Message('control_change', channel=8, control=7, value=74, time=2),
    Message('control_change', channel=8, control=7, value=75, time=4),
    Message('control_change', channel=8, control=7, value=76, time=5),
    Message('note_off', channel=8, note=48, velocity=0, time=1),
    Message('note_on', channel=8, note=48, velocity=40, time=0),
    Message('control_change', channel=8, control=7, value=77, time=4),
    Message('control_change', channel=8, control=7, value=78, time=4),
    Message('note_off', channel=8, note=48, velocity=0, time=4),
    Message('note_on', channel=8, note=48, velocity=44, time=0),
    Message('control_change', channel=8, control=7, value=79, time=1),
    Message('control_change', channel=8, control=7, value=80, time=4),
    Message('control_change', channel=8, control=7, value=81, time=5),
    Message('note_off', channel=8, note=48, velocity=0, time=2),
    Message('note_on', channel=8, note=48, velocity=48, time=0),
    Message('control_change', channel=8, control=7, value=82, time=3),
    Message('control_change', channel=8, control=7, value=83, time=4),
    Message('note_off', channel=8, note=48, velocity=0, time=5),
    Message('control_change', channel=8, control=7, value=84, time=0),
    Message('note_on', channel=8, note=48, velocity=52, time=0),
    Message('control_change', channel=8, control=7, value=85, time=4),
    Message('control_change', channel=8, control=7, value=86, time=5),
    Message('note_off', channel=8, note=48, velocity=0, time=3),
    Message('note_on', channel=8, note=48, velocity=56, time=0),
    Message('control_change', channel=8, control=7, value=87, time=2),
    Message('control_change', channel=8, control=7, value=88, time=4),
    Message('control_change', channel=8, control=7, value=89, time=5),
    Message('note_off', channel=8, note=48, velocity=0, time=1),
    Message('note_on', channel=8, note=48, velocity=60, time=0),
    Message('control_change', channel=8, control=7, value=90, time=3),
    Message('control_change', channel=8, control=7, value=91, time=5),
    Message('note_off', channel=8, note=48, velocity=0, time=4),
    Message('note_on', channel=8, note=48, velocity=64, time=0),
    Message('control_change', channel=8, control=7, value=92, time=1),
    Message('control_change', channel=8, control=7, value=93, time=4),
    Message('control_change', channel=8, control=7, value=94, time=5),
    Message('note_off', channel=8, note=48, velocity=0, time=2),
    Message('note_on', channel=8, note=48, velocity=68, time=0),
    Message('control_change', channel=8, control=7, value=95, time=2),
    Message('control_change', channel=8, control=7, value=96, time=5),
    Message('note_off', channel=8, note=48, velocity=0, time=5),
    Message('control_change', channel=8, control=7, value=97, time=0),
    Message('note_on', channel=8, note=48, velocity=72, time=0),
    Message('control_change', channel=8, control=7, value=98, time=4),
    Message('control_change', channel=8, control=7, value=99, time=5),
    Message('note_off', channel=8, note=48, velocity=0, time=3),
    Message('note_on', channel=8, note=48, velocity=76, time=0),
    Message('control_change', channel=8, control=7, value=100, time=1),
    Message('control_change', channel=8, control=7, value=101, time=5),
    Message('control_change', channel=8, control=7, value=102, time=5),
    Message('note_off', channel=8, note=48, velocity=0, time=1),
    Message('note_on', channel=8, note=48, velocity=80, time=0),
    Message('control_change', channel=8, control=7, value=103, time=3),
    Message('control_change', channel=8, control=7, value=104, time=5),
    Message('note_off', channel=8, note=48, velocity=0, time=4),
    Message('control_change', channel=8, control=7, value=105, time=0),
    Message('note_on', channel=8, note=48, velocity=84, time=0),
    Message('control_change', channel=8, control=7, value=106, time=5),
    Message('control_change', channel=8, control=7, value=107, time=5),
    Message('note_off', channel=8, note=48, velocity=0, time=2),
    Message('note_on', channel=8, note=48, velocity=88, time=0),
    Message('control_change', channel=8, control=7, value=108, time=2),
    Message('control_change', channel=8, control=7, value=109, time=5),
    Message('control_change', channel=8, control=7, value=110, time=4),
    Message('note_off', channel=8, note=48, velocity=0, time=1),
    Message('note_on', channel=8, note=48, velocity=92, time=0),
    Message('note_off', channel=8, note=48, velocity=0, time=15),
    Message('note_on', channel=8, note=48, velocity=92, time=1),
    Message('note_off', channel=8, note=48, velocity=0, time=15),
    Message('note_on', channel=8, note=48, velocity=92, time=1),
    Message('note_off', channel=8, note=48, velocity=0, time=15),
    Message('note_on', channel=8, note=48, velocity=92, time=1),
    Message('note_off', channel=8, note=48, velocity=0, time=80),
    Message('control_change', channel=8, control=7, value=90, time=16),
    Message('note_on', channel=8, note=48, velocity=60, time=0),
    Message('control_change', channel=8, control=7, value=91, time=9),
    Message('note_off', channel=8, note=48, velocity=0, time=3),
    Message('note_on', channel=8, note=48, velocity=62, time=0),
    Message('control_change', channel=8, control=7, value=92, time=7),
    Message('note_off', channel=8, note=48, velocity=0, time=5),
    Message('note_on', channel=8, note=48, velocity=64, time=0),
    Message('control_change', channel=8, control=7, value=93, time=4),
    Message('note_off', channel=8, note=48, velocity=0, time=8),
    Message('note_on', channel=8, note=48, velocity=66, time=0),
    Message('control_change', channel=8, control=7, value=94, time=2),
    Message('note_off', channel=8, note=48, velocity=0, time=10),
    Message('control_change', channel=8, control=7, value=95, time=0),
    Message('note_on', channel=8, note=48, velocity=68, time=0),
    Message('control_change', channel=8, control=7, value=96, time=9),
    Message('note_off', channel=8, note=48, velocity=0, time=3),
    Message('note_on', channel=8, note=48, velocity=70, time=0),
    Message('control_change', channel=8, control=7, value=97, time=7),
    Message('note_off', channel=8, note=48, velocity=0, time=5),
    Message('note_on', channel=8, note=48, velocity=72, time=0),
    Message('control_change', channel=8, control=7, value=98, time=4),
    Message('note_off', channel=8, note=48, velocity=0, time=8),
    Message('note_on', channel=8, note=48, velocity=74, time=0),
    Message('control_change', channel=8, control=7, value=99, time=2),
    Message('note_off', channel=8, note=48, velocity=0, time=10),
    Message('control_change', channel=8, control=7, value=100, time=0),
    Message('note_on', channel=8, note=48, velocity=76, time=0),
    Message('control_change', channel=8, control=7, value=101, time=9),
    Message('note_off', channel=8, note=48, velocity=0, time=3),
    Message('note_on', channel=8, note=48, velocity=78, time=0),
    Message('control_change', channel=8, control=7, value=102, time=7),
    Message('note_off', channel=8, note=48, velocity=0, time=5),
    Message('note_on', channel=8, note=48, velocity=80, time=0),
    Message('control_change', channel=8, control=7, value=103, time=4),
    Message('note_off', channel=8, note=48, velocity=0, time=8),
    Message('note_on', channel=8, note=48, velocity=82, time=0),
    Message('control_change', channel=8, control=7, value=104, time=2),
    Message('note_off', channel=8, note=48, velocity=0, time=10),
    Message('control_change', channel=8, control=7, value=105, time=0),
    Message('note_on', channel=8, note=48, velocity=84, time=0),
    Message('control_change', channel=8, control=7, value=106, time=9),
    Message('note_off', channel=8, note=48, velocity=0, time=3),
    Message('note_on', channel=8, note=48, velocity=86, time=0),
    Message('control_change', channel=8, control=7, value=107, time=7),
    Message('note_off', channel=8, note=48, velocity=0, time=5),
    Message('note_on', channel=8, note=48, velocity=88, time=0),
    Message('control_change', channel=8, control=7, value=108, time=4),
    Message('note_off', channel=8, note=48, velocity=0, time=8),
    Message('note_on', channel=8, note=48, velocity=90, time=0),
    Message('control_change', channel=8, control=7, value=109, time=2),
    Message('note_off', channel=8, note=48, velocity=0, time=10),
    Message('control_change', channel=8, control=7, value=110, time=0),
    Message('note_on', channel=8, note=48, velocity=92, time=0),
    Message('control_change', channel=8, control=7, value=111, time=9),
    Message('note_off', channel=8, note=48, velocity=0, time=3),
    Message('note_on', channel=8, note=48, velocity=94, time=0),
    Message('control_change', channel=8, control=7, value=112, time=7),
    Message('note_off', channel=8, note=48, velocity=0, time=5),
    Message('note_on', channel=8, note=48, velocity=96, time=0),
    Message('control_change', channel=8, control=7, value=113, time=4),
    Message('note_off', channel=8, note=48, velocity=0, time=8),
    Message('note_on', channel=8, note=48, velocity=98, time=0),
    Message('control_change', channel=8, control=7, value=114, time=2),
    Message('note_off', channel=8, note=48, velocity=0, time=10),
    Message('control_change', channel=8, control=7, value=115, time=0),
    Message('note_on', channel=8, note=48, velocity=100, time=0),
    Message('control_change', channel=8, control=7, value=116, time=9),
    Message('note_off', channel=8, note=48, velocity=0, time=3),
    Message('note_on', channel=8, note=48, velocity=102, time=0),
    Message('control_change', channel=8, control=7, value=117, time=7),
    Message('note_off', channel=8, note=48, velocity=0, time=5),
    Message('note_on', channel=8, note=48, velocity=104, time=0),
    Message('control_change', channel=8, control=7, value=118, time=4),
    Message('note_off', channel=8, note=48, velocity=0, time=8),
    Message('note_on', channel=8, note=48, velocity=106, time=0),
    Message('control_change', channel=8, control=7, value=119, time=2),
    Message('note_off', channel=8, note=48, velocity=0, time=10),
    Message('control_change', channel=8, control=7, value=120, time=0),
    Message('note_on', channel=8, note=48, velocity=127, time=0),
    Message('note_off', channel=8, note=48, velocity=0, time=12),
    Message('control_change', channel=8, control=7, value=80, time=0),
    Message('note_on', channel=8, note=48, velocity=45, time=0),
    Message('note_off', channel=8, note=48, velocity=0, time=12),
    Message('note_on', channel=8, note=48, velocity=45, time=0),
    Message('note_off', channel=8, note=48, velocity=0, time=12),
    Message('note_on', channel=8, note=48, velocity=45, time=0),
    Message('note_off', channel=8, note=48, velocity=0, time=12),
    Message('note_on', channel=8, note=48, velocity=45, time=0),
    Message('note_off', channel=8, note=48, velocity=0, time=12),
    Message('note_on', channel=8, note=48, velocity=45, time=0),
    Message('note_off', channel=8, note=48, velocity=0, time=12),
    Message('note_on', channel=8, note=48, velocity=45, time=0),
    Message('note_off', channel=8, note=48, velocity=0, time=12),
    Message('note_on', channel=8, note=48, velocity=45, time=0),
    Message('note_off', channel=8, note=48, velocity=0, time=12),
    Message('note_on', channel=8, note=48, velocity=45, time=0),
    Message('note_off', channel=8, note=48, velocity=0, time=12),
    Message('note_on', channel=8, note=48, velocity=45, time=0),
    Message('note_off', channel=8, note=48, velocity=0, time=12),
    Message('note_on', channel=8, note=48, velocity=45, time=0),
    Message('note_off', channel=8, note=48, velocity=0, time=12),
    Message('note_on', channel=8, note=48, velocity=45, time=0),
    Message('note_off', channel=8, note=48, velocity=0, time=12),
    Message('note_on', channel=8, note=48, velocity=45, time=0),
    Message('note_off', channel=8, note=48, velocity=0, time=12),
    Message('note_on', channel=8, note=48, velocity=45, time=0),
    Message('note_off', channel=8, note=48, velocity=0, time=12),
    Message('note_on', channel=8, note=48, velocity=45, time=0),
    Message('note_off', channel=8, note=48, velocity=0, time=12),
    Message('note_on', channel=8, note=48, velocity=45, time=0),
    Message('note_off', channel=8, note=48, velocity=0, time=12),
    Message('note_on', channel=8, note=48, velocity=45, time=0),
    Message('note_off', channel=8, note=48, velocity=0, time=12),
    Message('note_on', channel=8, note=48, velocity=45, time=0),
    Message('note_off', channel=8, note=48, velocity=0, time=12),
    Message('note_on', channel=8, note=48, velocity=45, time=0),
    Message('note_off', channel=8, note=48, velocity=0, time=12),
    Message('note_on', channel=8, note=48, velocity=45, time=0),
    Message('note_off', channel=8, note=48, velocity=0, time=12),
    Message('note_on', channel=8, note=48, velocity=45, time=0),
    Message('note_off', channel=8, note=48, velocity=0, time=12),
    Message('note_on', channel=8, note=48, velocity=45, time=0),
    Message('note_off', channel=8, note=48, velocity=0, time=12),
    Message('note_on', channel=8, note=48, velocity=45, time=0),
    Message('note_off', channel=8, note=48, velocity=0, time=12),
    Message('note_on', channel=8, note=48, velocity=45, time=0),
    Message('note_off', channel=8, note=48, velocity=0, time=12),
    Message('note_on', channel=8, note=48, velocity=45, time=0),
    Message('note_off', channel=8, note=48, velocity=0, time=12),
    Message('note_on', channel=8, note=48, velocity=45, time=0),
    Message('control_change', channel=8, control=7, value=81, time=9),
    Message('note_off', channel=8, note=48, velocity=0, time=3),
    Message('note_on', channel=8, note=48, velocity=45, time=0),
    Message('note_off', channel=8, note=48, velocity=0, time=12),
    Message('note_on', channel=8, note=48, velocity=45, time=0),
    Message('control_change', channel=8, control=7, value=82, time=7),
    Message('note_off', channel=8, note=48, velocity=0, time=5),
    Message('note_on', channel=8, note=48, velocity=45, time=0),
    Message('note_off', channel=8, note=48, velocity=0, time=12),
    Message('note_on', channel=8, note=48, velocity=45, time=0),
    Message('control_change', channel=8, control=7, value=83, time=4),
    Message('note_off', channel=8, note=48, velocity=0, time=8),
    Message('note_on', channel=8, note=48, velocity=45, time=0),
    Message('note_off', channel=8, note=48, velocity=0, time=12),
    Message('note_on', channel=8, note=48, velocity=46, time=0),
    Message('control_change', channel=8, control=7, value=84, time=2),
    Message('note_off', channel=8, note=48, velocity=0, time=10),
    Message('note_on', channel=8, note=48, velocity=46, time=0),
    Message('note_off', channel=8, note=48, velocity=0, time=12),
    Message('control_change', channel=8, control=7, value=85, time=0),
    Message('note_on', channel=8, note=48, velocity=47, time=0),
    Message('note_off', channel=8, note=48, velocity=0, time=12),
    Message('note_on', channel=8, note=48, velocity=48, time=0),
    Message('control_change', channel=8, control=7, value=86, time=9),
    Message('note_off', channel=8, note=48, velocity=0, time=3),
    Message('note_on', channel=8, note=48, velocity=49, time=0),
    Message('note_off', channel=8, note=48, velocity=0, time=12),
    Message('note_on', channel=8, note=48, velocity=50, time=0),
    Message('control_change', channel=8, control=7, value=87, time=7),
    Message('note_off', channel=8, note=48, velocity=0, time=5),
    Message('note_on', channel=8, note=48, velocity=51, time=0),
    Message('note_off', channel=8, note=48, velocity=0, time=12),
    Message('note_on', channel=8, note=48, velocity=52, time=0),
    Message('control_change', channel=8, control=7, value=88, time=4),
    Message('note_off', channel=8, note=48, velocity=0, time=8),
    Message('note_on', channel=8, note=48, velocity=53, time=0),
    Message('note_off', channel=8, note=48, velocity=0, time=12),
    Message('note_on', channel=8, note=48, velocity=54, time=0),
    Message('control_change', channel=8, control=7, value=89, time=2),
    Message('note_off', channel=8, note=48, velocity=0, time=10),
    Message('note_on', channel=8, note=48, velocity=55, time=0),
    Message('note_off', channel=8, note=48, velocity=0, time=12),
    Message('control_change', channel=8, control=7, value=90, time=0),
    Message('note_on', channel=8, note=48, velocity=56, time=0),
    Message('note_off', channel=8, note=48, velocity=0, time=12),
    Message('note_on', channel=8, note=48, velocity=57, time=0),
    Message('control_change', channel=8, control=7, value=91, time=9),
    Message('note_off', channel=8, note=48, velocity=0, time=3),
    Message('note_on', channel=8, note=48, velocity=58, time=0),
    Message('note_off', channel=8, note=48, velocity=0, time=12),
    Message('note_on', channel=8, note=48, velocity=59, time=0),
    Message('control_change', channel=8, control=7, value=92, time=7),
    Message('note_off', channel=8, note=48, velocity=0, time=5),
    Message('note_on', channel=8, note=48, velocity=60, time=0),
    Message('note_off', channel=8, note=48, velocity=0, time=12),
    Message('note_on', channel=8, note=48, velocity=61, time=0),
    Message('control_change', channel=8, control=7, value=93, time=4),
    Message('note_off', channel=8, note=48, velocity=0, time=8),
    Message('note_on', channel=8, note=48, velocity=62, time=0),
    Message('note_off', channel=8, note=48, velocity=0, time=12),
    Message('note_on', channel=8, note=48, velocity=63, time=0),
    Message('control_change', channel=8, control=7, value=94, time=2),
    Message('note_off', channel=8, note=48, velocity=0, time=10),
    Message('note_on', channel=8, note=48, velocity=64, time=0),
    Message('note_off', channel=8, note=48, velocity=0, time=12),
    Message('control_change', channel=8, control=7, value=95, time=0),
    Message('note_on', channel=8, note=48, velocity=65, time=0),
    Message('note_off', channel=8, note=48, velocity=0, time=12),
    Message('note_on', channel=8, note=48, velocity=66, time=0),
    Message('control_change', channel=8, control=7, value=96, time=9),
    Message('note_off', channel=8, note=48, velocity=0, time=3),
    Message('note_on', channel=8, note=48, velocity=67, time=0),
    Message('note_off', channel=8, note=48, velocity=0, time=12),
    Message('note_on', channel=8, note=48, velocity=68, time=0),
    Message('control_change', channel=8, control=7, value=97, time=7),
    Message('note_off', channel=8, note=48, velocity=0, time=5),
    Message('note_on', channel=8, note=48, velocity=69, time=0),
    Message('note_off', channel=8, note=48, velocity=0, time=12),
    Message('note_on', channel=8, note=48, velocity=70, time=0),
    Message('control_change', channel=8, control=7, value=98, time=4),
    Message('note_off', channel=8, note=48, velocity=0, time=8),
    Message('note_on', channel=8, note=48, velocity=71, time=0),
    Message('note_off', channel=8, note=48, velocity=0, time=12),
    Message('note_on', channel=8, note=48, velocity=72, time=0),
    Message('control_change', channel=8, control=7, value=99, time=2),
    Message('note_off', channel=8, note=48, velocity=0, time=10),
    Message('note_on', channel=8, note=48, velocity=73, time=0),
    Message('note_off', channel=8, note=48, velocity=0, time=12),
    Message('control_change', channel=8, control=7, value=100, time=0),
    Message('note_on', channel=8, note=48, velocity=75, time=0),
    Message('note_off', channel=8, note=48, velocity=0, time=128),
    Message('control_change', channel=8, control=7, value=90, time=304),
    Message('note_on', channel=8, note=48, velocity=60, time=0),
    Message('note_off', channel=8, note=48, velocity=0, time=12),
    Message('note_on', channel=8, note=48, velocity=61, time=0),
    Message('control_change', channel=8, control=7, value=91, time=2),
    Message('note_off', channel=8, note=48, velocity=0, time=10),
    Message('note_on', channel=8, note=48, velocity=62, time=0),
    Message('control_change', channel=8, control=7, value=92, time=4),
    Message('note_off', channel=8, note=48, velocity=0, time=8),
    Message('note_on', channel=8, note=48, velocity=63, time=0),
    Message('control_change', channel=8, control=7, value=93, time=7),
    Message('note_off', channel=8, note=48, velocity=0, time=5),
    Message('note_on', channel=8, note=48, velocity=64, time=0),
    Message('control_change', channel=8, control=7, value=94, time=9),
    Message('note_off', channel=8, note=48, velocity=0, time=3),
    Message('note_on', channel=8, note=48, velocity=65, time=0),
    Message('control_change', channel=8, control=7, value=95, time=11),
    Message('note_off', channel=8, note=48, velocity=0, time=1),
    Message('note_on', channel=8, note=48, velocity=66, time=0),
    Message('note_off', channel=8, note=48, velocity=0, time=12),
    Message('note_on', channel=8, note=48, velocity=67, time=0),
    Message('control_change', channel=8, control=7, value=96, time=2),
    Message('note_off', channel=8, note=48, velocity=0, time=10),
    Message('note_on', channel=8, note=48, velocity=68, time=0),
    Message('control_change', channel=8, control=7, value=97, time=4),
    Message('note_off', channel=8, note=48, velocity=0, time=8),
    Message('note_on', channel=8, note=48, velocity=69, time=0),
    Message('control_change', channel=8, control=7, value=98, time=7),
    Message('note_off', channel=8, note=48, velocity=0, time=5),
    Message('note_on', channel=8, note=48, velocity=70, time=0),
    Message('control_change', channel=8, control=7, value=99, time=9),
    Message('note_off', channel=8, note=48, velocity=0, time=3),
    Message('note_on', channel=8, note=48, velocity=71, time=0),
    Message('control_change', channel=8, control=7, value=100, time=11),
    Message('note_off', channel=8, note=48, velocity=0, time=1),
    Message('note_on', channel=8, note=48, velocity=72, time=0),
    Message('note_off', channel=8, note=48, velocity=0, time=12),
    Message('note_on', channel=8, note=48, velocity=73, time=0),
    Message('control_change', channel=8, control=7, value=101, time=2),
    Message('note_off', channel=8, note=48, velocity=0, time=10),
    Message('note_on', channel=8, note=48, velocity=74, time=0),
    Message('control_change', channel=8, control=7, value=102, time=4),
    Message('note_off', channel=8, note=48, velocity=0, time=8),
    Message('note_on', channel=8, note=48, velocity=75, time=0),
    Message('control_change', channel=8, control=7, value=103, time=7),
    Message('note_off', channel=8, note=48, velocity=0, time=5),
    Message('note_on', channel=8, note=48, velocity=76, time=0),
    Message('control_change', channel=8, control=7, value=104, time=9),
    Message('note_off', channel=8, note=48, velocity=0, time=3),
    Message('note_on', channel=8, note=48, velocity=77, time=0),
    Message('control_change', channel=8, control=7, value=105, time=11),
    Message('note_off', channel=8, note=48, velocity=0, time=1),
    Message('note_on', channel=8, note=48, velocity=78, time=0),
    Message('note_off', channel=8, note=48, velocity=0, time=12),
    Message('note_on', channel=8, note=48, velocity=79, time=0),
    Message('control_change', channel=8, control=7, value=106, time=2),
    Message('note_off', channel=8, note=48, velocity=0, time=10),
    Message('note_on', channel=8, note=48, velocity=80, time=0),
    Message('control_change', channel=8, control=7, value=107, time=4),
    Message('note_off', channel=8, note=48, velocity=0, time=8),
    Message('note_on', channel=8, note=48, velocity=81, time=0),
    Message('control_change', channel=8, control=7, value=108, time=7),
    Message('note_off', channel=8, note=48, velocity=0, time=5),
    Message('note_on', channel=8, note=48, velocity=82, time=0),
    Message('control_change', channel=8, control=7, value=109, time=9),
    Message('note_off', channel=8, note=48, velocity=0, time=3),
    Message('note_on', channel=8, note=48, velocity=83, time=0),
    Message('control_change', channel=8, control=7, value=110, time=11),
    Message('note_off', channel=8, note=48, velocity=0, time=1),
    Message('note_on', channel=8, note=48, velocity=84, time=0),
    Message('note_off', channel=8, note=48, velocity=0, time=12),
    Message('note_on', channel=8, note=48, velocity=86, time=0),
    Message('control_change', channel=8, control=7, value=111, time=2),
    Message('note_off', channel=8, note=48, velocity=0, time=10),
    Message('note_on', channel=8, note=48, velocity=88, time=0),
    Message('control_change', channel=8, control=7, value=112, time=4),
    Message('note_off', channel=8, note=48, velocity=0, time=8),
    Message('note_on', channel=8, note=48, velocity=90, time=0),
    Message('control_change', channel=8, control=7, value=113, time=7),
    Message('note_off', channel=8, note=48, velocity=0, time=5),
    Message('note_on', channel=8, note=48, velocity=92, time=0),
    Message('control_change', channel=8, control=7, value=114, time=9),
    Message('note_off', channel=8, note=48, velocity=0, time=3),
    Message('note_on', channel=8, note=48, velocity=94, time=0),
    Message('control_change', channel=8, control=7, value=115, time=11),
    Message('note_off', channel=8, note=48, velocity=0, time=1),
    Message('note_on', channel=8, note=48, velocity=96, time=0),
    Message('note_off', channel=8, note=48, velocity=0, time=12),
    Message('note_on', channel=8, note=48, velocity=98, time=0),
    Message('control_change', channel=8, control=7, value=116, time=2),
    Message('note_off', channel=8, note=48, velocity=0, time=10),
    Message('note_on', channel=8, note=48, velocity=100, time=0),
    Message('control_change', channel=8, control=7, value=117, time=4),
    Message('note_off', channel=8, note=48, velocity=0, time=8),
    Message('note_on', channel=8, note=48, velocity=102, time=0),
    Message('control_change', channel=8, control=7, value=118, time=7),
    Message('note_off', channel=8, note=48, velocity=0, time=5),
    Message('note_on', channel=8, note=48, velocity=104, time=0),
    Message('control_change', channel=8, control=7, value=119, time=9),
    Message('note_off', channel=8, note=48, velocity=0, time=3),
    Message('note_on', channel=8, note=48, velocity=106, time=0),
    Message('control_change', channel=8, control=7, value=120, time=11),
    Message('note_off', channel=8, note=48, velocity=0, time=1),
    Message('note_on', channel=8, note=48, velocity=127, time=0),
    Message('note_off', channel=8, note=48, velocity=0, time=47),
    Message('control_change', channel=8, control=101, value=0, time=1249),
    Message('control_change', channel=8, control=100, value=0, time=0),
    Message('control_change', channel=8, control=6, value=12, time=0),
    Message('control_change', channel=8, control=10, value=64, time=0),
    Message('control_change', channel=8, control=7, value=120, time=0),
    Message('pitchwheel', channel=8, pitch=0, time=0),
    Message('program_change', channel=8, program=47, time=0),
    Message('program_change', channel=8, program=47, time=0),
    Message('control_change', channel=8, control=7, value=127, time=0),
    Message('control_change', channel=8, control=10, value=64, time=0),
    Message('control_change', channel=8, control=101, value=0, time=1),
    Message('control_change', channel=8, control=100, value=0, time=0),
    Message('control_change', channel=8, control=6, value=12, time=0),
    Message('control_change', channel=8, control=10, value=64, time=0),
    Message('control_change', channel=8, control=7, value=120, time=0),
    Message('pitchwheel', channel=8, pitch=0, time=0),
    Message('program_change', channel=8, program=47, time=0),
    MetaMessage('end_of_track', time=0)]),
  MidiTrack([
    MetaMessage('track_name', name='Piano #6', time=0),
    Message('control_change', channel=9, control=10, value=64, time=0),
    Message('control_change', channel=9, control=7, value=127, time=0),
    Message('pitchwheel', channel=9, pitch=0, time=0),
    Message('control_change', channel=9, control=101, value=0, time=0),
    Message('control_change', channel=9, control=100, value=0, time=0),
    Message('control_change', channel=9, control=6, value=12, time=0),
    Message('control_change', channel=9, control=10, value=64, time=0),
    Message('control_change', channel=9, control=7, value=127, time=0),
    Message('pitchwheel', channel=9, pitch=0, time=0),
    Message('program_change', channel=9, program=0, time=0),
    Message('control_change', channel=9, control=7, value=127, time=0),
    Message('control_change', channel=9, control=10, value=64, time=0),
    Message('control_change', channel=9, control=101, value=0, time=0),
    Message('control_change', channel=9, control=100, value=0, time=0),
    Message('control_change', channel=9, control=6, value=12, time=0),
    Message('control_change', channel=9, control=10, value=64, time=0),
    Message('control_change', channel=9, control=7, value=127, time=0),
    Message('pitchwheel', channel=9, pitch=0, time=0),
    Message('program_change', channel=9, program=0, time=0),
    Message('control_change', channel=9, control=7, value=127, time=0),
    Message('control_change', channel=9, control=10, value=64, time=0),
    Message('control_change', channel=9, control=101, value=0, time=0),
    Message('control_change', channel=9, control=100, value=0, time=0),
    Message('control_change', channel=9, control=6, value=12, time=0),
    Message('control_change', channel=9, control=10, value=64, time=0),
    Message('control_change', channel=9, control=7, value=127, time=0),
    Message('pitchwheel', channel=9, pitch=0, time=0),
    Message('program_change', channel=9, program=48, time=0),
    Message('program_change', channel=9, program=48, time=26880),
    Message('control_change', channel=9, control=7, value=100, time=0),
    Message('note_on', channel=9, note=81, velocity=75, time=0),
    Message('note_off', channel=9, note=81, velocity=0, time=80),
    Message('control_change', channel=9, control=7, value=70, time=112),
    Message('note_on', channel=9, note=54, velocity=30, time=0),
    Message('note_on', channel=9, note=52, velocity=30, time=0),
    Message('control_change', channel=9, control=7, value=71, time=6),
    Message('note_off', channel=9, note=54, velocity=0, time=6),
    Message('note_off', channel=9, note=52, velocity=0, time=0),
    Message('control_change', channel=9, control=7, value=72, time=0),
    Message('note_on', channel=9, note=54, velocity=32, time=0),
    Message('note_on', channel=9, note=52, velocity=32, time=0),
    Message('control_change', channel=9, control=7, value=73, time=7),
    Message('note_off', channel=9, note=52, velocity=0, time=5),
    Message('note_off', channel=9, note=54, velocity=0, time=0),
    Message('note_on', channel=9, note=54, velocity=34, time=0),
    Message('note_on', channel=9, note=52, velocity=34, time=0),
    Message('control_change', channel=9, control=7, value=74, time=1),
    Message('control_change', channel=9, control=7, value=75, time=7),
    Message('note_off', channel=9, note=52, velocity=0, time=4),
    Message('note_off', channel=9, note=54, velocity=0, time=0),
    Message('note_on', channel=9, note=54, velocity=36, time=0),
    Message('note_on', channel=9, note=52, velocity=36, time=0),
    Message('control_change', channel=9, control=7, value=76, time=2),
    Message('control_change', channel=9, control=7, value=77, time=6),
    Message('note_off', channel=9, note=52, velocity=0, time=4),
    Message('note_off', channel=9, note=54, velocity=0, time=0),
    Message('note_on', channel=9, note=54, velocity=39, time=0),
    Message('note_on', channel=9, note=52, velocity=39, time=0),
    Message('control_change', channel=9, control=7, value=78, time=3),
    Message('control_change', channel=9, control=7, value=79, time=6),
    Message('note_off', channel=9, note=52, velocity=0, time=3),
    Message('note_off', channel=9, note=54, velocity=0, time=0),
    Message('note_on', channel=9, note=54, velocity=42, time=0),
    Message('note_on', channel=9, note=52, velocity=42, time=0),
    Message('control_change', channel=9, control=7, value=80, time=4),
    Message('control_change', channel=9, control=7, value=81, time=6),
    Message('note_off', channel=9, note=52, velocity=0, time=2),
    Message('note_off', channel=9, note=54, velocity=0, time=0),
    Message('note_on', channel=9, note=54, velocity=45, time=0),
    Message('note_on', channel=9, note=52, velocity=45, time=0),
    Message('control_change', channel=9, control=7, value=82, time=4),
    Message('control_change', channel=9, control=7, value=83, time=7),
    Message('note_off', channel=9, note=52, velocity=0, time=1),
    Message('note_off', channel=9, note=54, velocity=0, time=0),
    Message('note_on', channel=9, note=54, velocity=48, time=0),
    Message('note_on', channel=9, note=52, velocity=48, time=0),
    Message('control_change', channel=9, control=7, value=84, time=5),
    Message('note_off', channel=9, note=52, velocity=0, time=7),
    Message('note_off', channel=9, note=54, velocity=0, time=0),
    Message('control_change', channel=9, control=7, value=85, time=0),
    Message('note_on', channel=9, note=54, velocity=51, time=0),
    Message('note_on', channel=9, note=52, velocity=51, time=0),
    Message('control_change', channel=9, control=7, value=86, time=6),
    Message('note_off', channel=9, note=52, velocity=0, time=6),
    Message('note_off', channel=9, note=54, velocity=0, time=0),
    Message('control_change', channel=9, control=7, value=87, time=0),
    Message('note_on', channel=9, note=54, velocity=54, time=0),
    Message('note_on', channel=9, note=52, velocity=54, time=0),
    Message('control_change', channel=9, control=7, value=88, time=7),
    Message('note_off', channel=9, note=52, velocity=0, time=5),
    Message('note_off', channel=9, note=54, velocity=0, time=0),
    Message('note_on', channel=9, note=54, velocity=57, time=0),
    Message('note_on', channel=9, note=52, velocity=57, time=0),
    Message('control_change', channel=9, control=7, value=89, time=1),
    Message('control_change', channel=9, control=7, value=90, time=7),
    Message('note_off', channel=9, note=52, velocity=0, time=4),
    Message('note_off', channel=9, note=54, velocity=0, time=0),
    Message('note_on', channel=9, note=54, velocity=60, time=0),
    Message('note_on', channel=9, note=52, velocity=60, time=0),
    Message('control_change', channel=9, control=7, value=91, time=2),
    Message('control_change', channel=9, control=7, value=92, time=6),
    Message('note_off', channel=9, note=52, velocity=0, time=4),
    Message('note_off', channel=9, note=54, velocity=0, time=0),
    Message('note_on', channel=9, note=54, velocity=63, time=0),
    Message('note_on', channel=9, note=52, velocity=63, time=0),
    Message('control_change', channel=9, control=7, value=93, time=3),
    Message('control_change', channel=9, control=7, value=94, time=6),
    Message('note_off', channel=9, note=52, velocity=0, time=3),
    Message('note_off', channel=9, note=54, velocity=0, time=0),
    Message('note_on', channel=9, note=54, velocity=66, time=0),
    Message('note_on', channel=9, note=52, velocity=66, time=0),
    Message('control_change', channel=9, control=7, value=95, time=4),
    Message('control_change', channel=9, control=7, value=96, time=6),
    Message('note_off', channel=9, note=52, velocity=0, time=2),
    Message('note_off', channel=9, note=54, velocity=0, time=0),
    Message('note_on', channel=9, note=54, velocity=69, time=0),
    Message('note_on', channel=9, note=52, velocity=69, time=0),
    Message('control_change', channel=9, control=7, value=97, time=4),
    Message('control_change', channel=9, control=7, value=98, time=7),
    Message('note_off', channel=9, note=52, velocity=0, time=1),
    Message('note_off', channel=9, note=54, velocity=0, time=0),
    Message('note_on', channel=9, note=54, velocity=72, time=0),
    Message('note_on', channel=9, note=52, velocity=72, time=0),
    Message('control_change', channel=9, control=7, value=99, time=5),
    Message('note_off', channel=9, note=52, velocity=0, time=7),
    Message('note_off', channel=9, note=54, velocity=0, time=0),
    Message('control_change', channel=9, control=7, value=100, time=0),
    Message('note_on', channel=9, note=83, velocity=75, time=0),
    Message('note_on', channel=9, note=54, velocity=75, time=0),
    Message('note_on', channel=9, note=52, velocity=75, time=0),
    Message('note_off', channel=9, note=52, velocity=0, time=80),
    Message('note_off', channel=9, note=54, velocity=0, time=0),
    Message('note_off', channel=9, note=83, velocity=0, time=0),
    Message('note_on', channel=9, note=83, velocity=75, time=16),
    Message('note_off', channel=9, note=83, velocity=0, time=47),
    Message('note_on', channel=9, note=83, velocity=75, time=1),
    Message('note_off', channel=9, note=83, velocity=0, time=47),
    Message('note_on', channel=9, note=83, velocity=75, time=1),
    Message('note_off', channel=9, note=83, velocity=0, time=80),
    Message('note_on', channel=9, note=83, velocity=75, time=16),
    Message('note_off', channel=9, note=83, velocity=0, time=47),
    Message('note_on', channel=9, note=83, velocity=75, time=1),
    Message('note_off', channel=9, note=83, velocity=0, time=47),
    Message('note_on', channel=9, note=83, velocity=75, time=1),
    Message('note_off', channel=9, note=83, velocity=0, time=80),
    Message('note_on', channel=9, note=83, velocity=75, time=16),
    Message('note_off', channel=9, note=83, velocity=0, time=47),
    Message('note_on', channel=9, note=83, velocity=75, time=1),
    Message('note_off', channel=9, note=83, velocity=0, time=47),
    Message('note_on', channel=9, note=83, velocity=75, time=1),
    Message('note_off', channel=9, note=83, velocity=0, time=80),
    Message('note_on', channel=9, note=83, velocity=75, time=16),
    Message('note_off', channel=9, note=83, velocity=0, time=80),
    Message('note_on', channel=9, note=83, velocity=75, time=16),
    Message('note_off', channel=9, note=83, velocity=0, time=80),
    Message('note_on', channel=9, note=83, velocity=75, time=16),
    Message('note_off', channel=9, note=83, velocity=0, time=47),
    Message('note_on', channel=9, note=83, velocity=75, time=1),
    Message('note_off', channel=9, note=83, velocity=0, time=47),
    Message('note_on', channel=9, note=83, velocity=75, time=1),
    Message('note_off', channel=9, note=83, velocity=0, time=80),
    Message('note_on', channel=9, note=83, velocity=75, time=16),
    Message('note_off', channel=9, note=83, velocity=0, time=80),
    Message('note_on', channel=9, note=83, velocity=75, time=16),
    Message('note_off', channel=9, note=83, velocity=0, time=80),
    Message('note_on', channel=9, note=83, velocity=75, time=16),
    Message('note_off', channel=9, note=83, velocity=0, time=47),
    Message('note_on', channel=9, note=83, velocity=75, time=1),
    Message('note_off', channel=9, note=83, velocity=0, time=47),
    Message('note_on', channel=9, note=83, velocity=75, time=1),
    Message('note_on', channel=9, note=57, velocity=75, time=0),
    Message('note_on', channel=9, note=48, velocity=75, time=0),
    Message('note_off', channel=9, note=83, velocity=0, time=23),
    Message('note_on', channel=9, note=83, velocity=75, time=1),
    Message('note_off', channel=9, note=83, velocity=0, time=23),
    Message('note_on', channel=9, note=83, velocity=75, time=1),
    Message('note_off', channel=9, note=83, velocity=0, time=23),
    Message('note_on', channel=9, note=83, velocity=75, time=1),
    Message('note_off', channel=9, note=83, velocity=0, time=23),
    Message('note_on', channel=9, note=83, velocity=75, time=1),
    Message('note_off', channel=9, note=83, velocity=0, time=23),
    Message('note_on', channel=9, note=83, velocity=75, time=1),
    Message('note_off', channel=9, note=83, velocity=0, time=23),
    Message('note_on', channel=9, note=83, velocity=75, time=1),
    Message('note_off', channel=9, note=83, velocity=0, time=23),
    Message('note_off', channel=9, note=57, velocity=0, time=1),
    Message('note_off', channel=9, note=48, velocity=0, time=0),
    Message('note_on', channel=9, note=83, velocity=75, time=0),
    Message('note_off', channel=9, note=83, velocity=0, time=23),
    Message('note_on', channel=9, note=83, velocity=75, time=1),
    Message('note_off', channel=9, note=83, velocity=0, time=80),
    Message('note_on', channel=9, note=83, velocity=75, time=16),
    Message('note_off', channel=9, note=83, velocity=0, time=47),
    Message('note_on', channel=9, note=83, velocity=75, time=1),
    Message('note_off', channel=9, note=83, velocity=0, time=47),
    Message('note_on', channel=9, note=83, velocity=75, time=1),
    Message('note_off', channel=9, note=83, velocity=0, time=80),
    Message('note_on', channel=9, note=83, velocity=75, time=16),
    Message('note_off', channel=9, note=83, velocity=0, time=47),
    Message('note_on', channel=9, note=83, velocity=75, time=1),
    Message('note_off', channel=9, note=83, velocity=0, time=47),
    Message('note_on', channel=9, note=83, velocity=75, time=1),
    Message('note_off', channel=9, note=83, velocity=0, time=80),
    Message('note_on', channel=9, note=83, velocity=75, time=16),
    Message('note_off', channel=9, note=83, velocity=0, time=47),
    Message('note_on', channel=9, note=83, velocity=75, time=1),
    Message('note_off', channel=9, note=83, velocity=0, time=47),
    Message('note_on', channel=9, note=83, velocity=75, time=1),
    Message('note_off', channel=9, note=83, velocity=0, time=80),
    Message('note_on', channel=9, note=83, velocity=75, time=16),
    Message('note_off', channel=9, note=83, velocity=0, time=47),
    Message('note_on', channel=9, note=83, velocity=75, time=1),
    Message('note_off', channel=9, note=83, velocity=0, time=47),
    Message('note_on', channel=9, note=83, velocity=75, time=1),
    Message('note_off', channel=9, note=83, velocity=0, time=80),
    Message('note_on', channel=9, note=83, velocity=75, time=16),
    Message('note_off', channel=9, note=83, velocity=0, time=47),
    Message('note_on', channel=9, note=83, velocity=75, time=1),
    Message('note_off', channel=9, note=83, velocity=0, time=47),
    Message('note_on', channel=9, note=83, velocity=75, time=1),
    Message('note_off', channel=9, note=83, velocity=0, time=80),
    Message('note_on', channel=9, note=83, velocity=75, time=16),
    Message('note_off', channel=9, note=83, velocity=0, time=47),
    Message('note_on', channel=9, note=83, velocity=75, time=1),
    Message('note_off', channel=9, note=83, velocity=0, time=47),
    Message('control_change', channel=9, control=7, value=70, time=1),
    Message('note_on', channel=9, note=83, velocity=30, time=0),
    Message('note_on', channel=9, note=52, velocity=30, time=0),
    Message('control_change', channel=9, control=7, value=71, time=6),
    Message('note_off', channel=9, note=52, velocity=0, time=6),
    Message('control_change', channel=9, control=7, value=72, time=0),
    Message('note_on', channel=9, note=52, velocity=32, time=0),
    Message('control_change', channel=9, control=7, value=73, time=7),
    Message('note_off', channel=9, note=52, velocity=0, time=5),
    Message('note_on', channel=9, note=52, velocity=34, time=0),
    Message('control_change', channel=9, control=7, value=74, time=1),
    Message('control_change', channel=9, control=7, value=75, time=7),
    Message('note_off', channel=9, note=52, velocity=0, time=4),
    Message('note_on', channel=9, note=52, velocity=36, time=0),
    Message('control_change', channel=9, control=7, value=76, time=2),
    Message('control_change', channel=9, control=7, value=77, time=6),
    Message('note_off', channel=9, note=83, velocity=0, time=3),
    Message('note_off', channel=9, note=52, velocity=0, time=1),
    Message('note_on', channel=9, note=83, velocity=39, time=0),
    Message('note_on', channel=9, note=52, velocity=39, time=0),
    Message('control_change', channel=9, control=7, value=78, time=3),
    Message('control_change', channel=9, control=7, value=79, time=6),
    Message('note_off', channel=9, note=52, velocity=0, time=3),
    Message('note_on', channel=9, note=52, velocity=42, time=0),
    Message('control_change', channel=9, control=7, value=80, time=4),
    Message('control_change', channel=9, control=7, value=81, time=6),
    Message('note_off', channel=9, note=52, velocity=0, time=2),
    Message('note_on', channel=9, note=52, velocity=45, time=0),
    Message('control_change', channel=9, control=7, value=82, time=4),
    Message('control_change', channel=9, control=7, value=83, time=7),
    Message('note_off', channel=9, note=52, velocity=0, time=1),
    Message('note_on', channel=9, note=52, velocity=48, time=0),
    Message('control_change', channel=9, control=7, value=84, time=5),
    Message('note_off', channel=9, note=83, velocity=0, time=6),
    Message('note_off', channel=9, note=52, velocity=0, time=1),
    Message('control_change', channel=9, control=7, value=85, time=0),
    Message('note_on', channel=9, note=83, velocity=51, time=0),
    Message('note_on', channel=9, note=52, velocity=51, time=0),
    Message('control_change', channel=9, control=7, value=86, time=6),
    Message('note_off', channel=9, note=52, velocity=0, time=6),
    Message('control_change', channel=9, control=7, value=87, time=0),
    Message('note_on', channel=9, note=52, velocity=54, time=0),
    Message('control_change', channel=9, control=7, value=88, time=7),
    Message('note_off', channel=9, note=52, velocity=0, time=5),
    Message('note_on', channel=9, note=52, velocity=57, time=0),
    Message('control_change', channel=9, control=7, value=89, time=1),
    Message('control_change', channel=9, control=7, value=90, time=7),
    Message('note_off', channel=9, note=52, velocity=0, time=4),
    Message('note_on', channel=9, note=52, velocity=60, time=0),
    Message('control_change', channel=9, control=7, value=91, time=2),
    Message('control_change', channel=9, control=7, value=92, time=6),
    Message('note_off', channel=9, note=83, velocity=0, time=3),
    Message('note_off', channel=9, note=52, velocity=0, time=1),
    Message('note_on', channel=9, note=83, velocity=63, time=0),
    Message('note_on', channel=9, note=52, velocity=63, time=0),
    Message('control_change', channel=9, control=7, value=93, time=3),
    Message('control_change', channel=9, control=7, value=94, time=6),
    Message('note_off', channel=9, note=52, velocity=0, time=3),
    Message('note_on', channel=9, note=52, velocity=66, time=0),
    Message('control_change', channel=9, control=7, value=95, time=4),
    Message('control_change', channel=9, control=7, value=96, time=6),
    Message('note_off', channel=9, note=52, velocity=0, time=2),
    Message('note_on', channel=9, note=52, velocity=69, time=0),
    Message('control_change', channel=9, control=7, value=97, time=4),
    Message('control_change', channel=9, control=7, value=98, time=7),
    Message('note_off', channel=9, note=52, velocity=0, time=1),
    Message('note_on', channel=9, note=52, velocity=72, time=0),
    Message('control_change', channel=9, control=7, value=99, time=5),
    Message('note_off', channel=9, note=83, velocity=0, time=6),
    Message('note_off', channel=9, note=52, velocity=0, time=1),
    Message('control_change', channel=9, control=7, value=100, time=0),
    Message('note_on', channel=9, note=83, velocity=75, time=0),
    Message('note_on', channel=9, note=52, velocity=75, time=0),
    Message('control_change', channel=9, control=7, value=99, time=6),
    Message('note_off', channel=9, note=52, velocity=0, time=6),
    Message('control_change', channel=9, control=7, value=98, time=0),
    Message('note_on', channel=9, note=52, velocity=73, time=0),
    Message('control_change', channel=9, control=7, value=97, time=7),
    Message('note_off', channel=9, note=52, velocity=0, time=5),
    Message('note_on', channel=9, note=52, velocity=71, time=0),
    Message('control_change', channel=9, control=7, value=96, time=1),
    Message('control_change', channel=9, control=7, value=95, time=7),
    Message('note_off', channel=9, note=52, velocity=0, time=4),
    Message('note_on', channel=9, note=52, velocity=69, time=0),
    Message('control_change', channel=9, control=7, value=94, time=2),
    Message('control_change', channel=9, control=7, value=93, time=6),
    Message('note_off', channel=9, note=83, velocity=0, time=3),
    Message('note_off', channel=9, note=52, velocity=0, time=1),
    Message('note_on', channel=9, note=83, velocity=66, time=0),
    Message('note_on', channel=9, note=52, velocity=66, time=0),
    Message('control_change', channel=9, control=7, value=92, time=3),
    Message('control_change', channel=9, control=7, value=91, time=6),
    Message('note_off', channel=9, note=52, velocity=0, time=3),
    Message('note_on', channel=9, note=52, velocity=63, time=0),
    Message('control_change', channel=9, control=7, value=90, time=4),
    Message('control_change', channel=9, control=7, value=89, time=6),
    Message('note_off', channel=9, note=52, velocity=0, time=2),
    Message('note_on', channel=9, note=52, velocity=60, time=0),
    Message('control_change', channel=9, control=7, value=88, time=4),
    Message('control_change', channel=9, control=7, value=87, time=7),
    Message('note_off', channel=9, note=52, velocity=0, time=1),
    Message('note_on', channel=9, note=52, velocity=57, time=0),
    Message('control_change', channel=9, control=7, value=86, time=5),
    Message('note_off', channel=9, note=83, velocity=0, time=6),
    Message('note_off', channel=9, note=52, velocity=0, time=1),
    Message('control_change', channel=9, control=7, value=85, time=0),
    Message('note_on', channel=9, note=83, velocity=54, time=0),
    Message('note_on', channel=9, note=52, velocity=54, time=0),
    Message('control_change', channel=9, control=7, value=84, time=6),
    Message('note_off', channel=9, note=52, velocity=0, time=6),
    Message('control_change', channel=9, control=7, value=83, time=0),
    Message('note_on', channel=9, note=52, velocity=51, time=0),
    Message('control_change', channel=9, control=7, value=82, time=7),
    Message('note_off', channel=9, note=52, velocity=0, time=5),
    Message('note_on', channel=9, note=52, velocity=48, time=0),
    Message('control_change', channel=9, control=7, value=81, time=1),
    Message('control_change', channel=9, control=7, value=80, time=7),
    Message('note_off', channel=9, note=52, velocity=0, time=4),
    Message('note_on', channel=9, note=52, velocity=45, time=0),
    Message('control_change', channel=9, control=7, value=79, time=2),
    Message('control_change', channel=9, control=7, value=78, time=6),
    Message('note_off', channel=9, note=83, velocity=0, time=3),
    Message('note_off', channel=9, note=52, velocity=0, time=1),
    Message('note_on', channel=9, note=83, velocity=42, time=0),
    Message('note_on', channel=9, note=52, velocity=42, time=0),
    Message('control_change', channel=9, control=7, value=77, time=3),
    Message('control_change', channel=9, control=7, value=76, time=6),
    Message('note_off', channel=9, note=52, velocity=0, time=3),
    Message('note_on', channel=9, note=52, velocity=39, time=0),
    Message('control_change', channel=9, control=7, value=75, time=4),
    Message('control_change', channel=9, control=7, value=74, time=6),
    Message('note_off', channel=9, note=52, velocity=0, time=2),
    Message('note_on', channel=9, note=52, velocity=36, time=0),
    Message('control_change', channel=9, control=7, value=73, time=4),
    Message('control_change', channel=9, control=7, value=72, time=7),
    Message('note_off', channel=9, note=52, velocity=0, time=1),
    Message('note_on', channel=9, note=52, velocity=33, time=0),
    Message('control_change', channel=9, control=7, value=71, time=5),
    Message('note_off', channel=9, note=83, velocity=0, time=6),
    Message('note_off', channel=9, note=52, velocity=0, time=1),
    Message('control_change', channel=9, control=7, value=70, time=0),
    Message('note_on', channel=9, note=83, velocity=30, time=0),
    Message('note_on', channel=9, note=52, velocity=30, time=0),
    Message('control_change', channel=9, control=7, value=71, time=6),
    Message('note_off', channel=9, note=52, velocity=0, time=6),
    Message('control_change', channel=9, control=7, value=72, time=0),
    Message('note_on', channel=9, note=52, velocity=32, time=0),
    Message('control_change', channel=9, control=7, value=73, time=7),
    Message('note_off', channel=9, note=52, velocity=0, time=5),
    Message('note_on', channel=9, note=52, velocity=34, time=0),
    Message('control_change', channel=9, control=7, value=74, time=1),
    Message('control_change', channel=9, control=7, value=75, time=7),
    Message('note_off', channel=9, note=52, velocity=0, time=4),
    Message('note_on', channel=9, note=52, velocity=36, time=0),
    Message('control_change', channel=9, control=7, value=76, time=2),
    Message('control_change', channel=9, control=7, value=77, time=6),
    Message('note_off', channel=9, note=83, velocity=0, time=3),
    Message('note_off', channel=9, note=52, velocity=0, time=1),
    Message('note_on', channel=9, note=83, velocity=39, time=0),
    Message('note_on', channel=9, note=52, velocity=39, time=0),
    Message('control_change', channel=9, control=7, value=78, time=3),
    Message('control_change', channel=9, control=7, value=79, time=6),
    Message('note_off', channel=9, note=52, velocity=0, time=3),
    Message('note_on', channel=9, note=52, velocity=42, time=0),
    Message('control_change', channel=9, control=7, value=80, time=4),
    Message('control_change', channel=9, control=7, value=81, time=6),
    Message('note_off', channel=9, note=52, velocity=0, time=2),
    Message('note_on', channel=9, note=52, velocity=45, time=0),
    Message('control_change', channel=9, control=7, value=82, time=4),
    Message('control_change', channel=9, control=7, value=83, time=7),
    Message('note_off', channel=9, note=52, velocity=0, time=1),
    Message('note_on', channel=9, note=52, velocity=48, time=0),
    Message('control_change', channel=9, control=7, value=84, time=5),
    Message('note_off', channel=9, note=83, velocity=0, time=6),
    Message('note_off', channel=9, note=52, velocity=0, time=1),
    Message('control_change', channel=9, control=7, value=85, time=0),
    Message('note_on', channel=9, note=83, velocity=51, time=0),
    Message('note_on', channel=9, note=52, velocity=51, time=0),
    Message('control_change', channel=9, control=7, value=86, time=6),
    Message('note_off', channel=9, note=52, velocity=0, time=6),
    Message('control_change', channel=9, control=7, value=87, time=0),
    Message('note_on', channel=9, note=52, velocity=54, time=0),
    Message('control_change', channel=9, control=7, value=88, time=7),
    Message('note_off', channel=9, note=52, velocity=0, time=5),
    Message('note_on', channel=9, note=52, velocity=57, time=0),
    Message('control_change', channel=9, control=7, value=89, time=1),
    Message('control_change', channel=9, control=7, value=90, time=7),
    Message('note_off', channel=9, note=52, velocity=0, time=4),
    Message('note_on', channel=9, note=52, velocity=60, time=0),
    Message('control_change', channel=9, control=7, value=91, time=2),
    Message('control_change', channel=9, control=7, value=92, time=6),
    Message('note_off', channel=9, note=83, velocity=0, time=3),
    Message('note_off', channel=9, note=52, velocity=0, time=1),
    Message('note_on', channel=9, note=83, velocity=63, time=0),
    Message('note_on', channel=9, note=52, velocity=63, time=0),
    Message('control_change', channel=9, control=7, value=93, time=3),
    Message('control_change', channel=9, control=7, value=94, time=6),
    Message('note_off', channel=9, note=52, velocity=0, time=3),
    Message('note_on', channel=9, note=52, velocity=66, time=0),
    Message('control_change', channel=9, control=7, value=95, time=4),
    Message('control_change', channel=9, control=7, value=96, time=6),
    Message('note_off', channel=9, note=52, velocity=0, time=2),
    Message('note_on', channel=9, note=52, velocity=69, time=0),
    Message('control_change', channel=9, control=7, value=97, time=4),
    Message('control_change', channel=9, control=7, value=98, time=7),
    Message('note_off', channel=9, note=52, velocity=0, time=1),
    Message('note_on', channel=9, note=52, velocity=72, time=0),
    Message('control_change', channel=9, control=7, value=99, time=5),
    Message('note_off', channel=9, note=83, velocity=0, time=6),
    Message('note_off', channel=9, note=52, velocity=0, time=1),
    Message('control_change', channel=9, control=7, value=100, time=0),
    Message('note_on', channel=9, note=83, velocity=75, time=0),
    Message('note_on', channel=9, note=52, velocity=75, time=0),
    Message('control_change', channel=9, control=7, value=99, time=6),
    Message('note_off', channel=9, note=52, velocity=0, time=6),
    Message('control_change', channel=9, control=7, value=98, time=0),
    Message('note_on', channel=9, note=52, velocity=73, time=0),
    Message('control_change', channel=9, control=7, value=97, time=7),
    Message('note_off', channel=9, note=52, velocity=0, time=5),
    Message('note_on', channel=9, note=52, velocity=71, time=0),
    Message('control_change', channel=9, control=7, value=96, time=1),
    Message('control_change', channel=9, control=7, value=95, time=7),
    Message('note_off', channel=9, note=52, velocity=0, time=4),
    Message('note_on', channel=9, note=52, velocity=69, time=0),
    Message('control_change', channel=9, control=7, value=94, time=2),
    Message('control_change', channel=9, control=7, value=93, time=6),
    Message('note_off', channel=9, note=83, velocity=0, time=3),
    Message('note_off', channel=9, note=52, velocity=0, time=1),
    Message('note_on', channel=9, note=83, velocity=66, time=0),
    Message('note_on', channel=9, note=52, velocity=66, time=0),
    Message('control_change', channel=9, control=7, value=92, time=3),
    Message('control_change', channel=9, control=7, value=91, time=6),
    Message('note_off', channel=9, note=52, velocity=0, time=3),
    Message('note_on', channel=9, note=52, velocity=63, time=0),
    Message('control_change', channel=9, control=7, value=90, time=4),
    Message('control_change', channel=9, control=7, value=89, time=6),
    Message('note_off', channel=9, note=52, velocity=0, time=2),
    Message('note_on', channel=9, note=52, velocity=60, time=0),
    Message('control_change', channel=9, control=7, value=88, time=4),
    Message('control_change', channel=9, control=7, value=87, time=7),
    Message('note_off', channel=9, note=52, velocity=0, time=1),
    Message('note_on', channel=9, note=52, velocity=57, time=0),
    Message('control_change', channel=9, control=7, value=86, time=5),
    Message('note_off', channel=9, note=83, velocity=0, time=6),
    Message('note_off', channel=9, note=52, velocity=0, time=1),
    Message('control_change', channel=9, control=7, value=85, time=0),
    Message('note_on', channel=9, note=83, velocity=54, time=0),
    Message('note_on', channel=9, note=52, velocity=54, time=0),
    Message('control_change', channel=9, control=7, value=84, time=6),
    Message('note_off', channel=9, note=52, velocity=0, time=6),
    Message('control_change', channel=9, control=7, value=83, time=0),
    Message('note_on', channel=9, note=52, velocity=51, time=0),
    Message('control_change', channel=9, control=7, value=82, time=7),
    Message('note_off', channel=9, note=52, velocity=0, time=5),
    Message('note_on', channel=9, note=52, velocity=48, time=0),
    Message('control_change', channel=9, control=7, value=81, time=1),
    Message('control_change', channel=9, control=7, value=80, time=7),
    Message('note_off', channel=9, note=52, velocity=0, time=4),
    Message('note_on', channel=9, note=52, velocity=45, time=0),
    Message('control_change', channel=9, control=7, value=79, time=2),
    Message('control_change', channel=9, control=7, value=78, time=6),
    Message('note_off', channel=9, note=83, velocity=0, time=3),
    Message('note_off', channel=9, note=52, velocity=0, time=1),
    Message('note_on', channel=9, note=83, velocity=42, time=0),
    Message('note_on', channel=9, note=52, velocity=42, time=0),
    Message('control_change', channel=9, control=7, value=77, time=3),
    Message('control_change', channel=9, control=7, value=76, time=6),
    Message('note_off', channel=9, note=52, velocity=0, time=3),
    Message('note_on', channel=9, note=52, velocity=39, time=0),
    Message('control_change', channel=9, control=7, value=75, time=4),
    Message('control_change', channel=9, control=7, value=74, time=6),
    Message('note_off', channel=9, note=52, velocity=0, time=2),
    Message('note_on', channel=9, note=52, velocity=36, time=0),
    Message('control_change', channel=9, control=7, value=73, time=4),
    Message('control_change', channel=9, control=7, value=72, time=7),
    Message('note_off', channel=9, note=52, velocity=0, time=1),
    Message('note_on', channel=9, note=52, velocity=33, time=0),
    Message('control_change', channel=9, control=7, value=71, time=5),
    Message('note_off', channel=9, note=83, velocity=0, time=6),
    Message('note_off', channel=9, note=52, velocity=0, time=1),
    Message('control_change', channel=9, control=7, value=70, time=0),
    Message('note_on', channel=9, note=52, velocity=30, time=0),
    Message('note_off', channel=9, note=52, velocity=0, time=80),
    Message('note_on', channel=9, note=52, velocity=30, time=1840),
    Message('control_change', channel=9, control=7, value=71, time=8),
    Message('note_off', channel=9, note=52, velocity=0, time=4),
    Message('note_on', channel=9, note=52, velocity=30, time=0),
    Message('control_change', channel=9, control=7, value=72, time=4),
    Message('note_off', channel=9, note=52, velocity=0, time=8),
    Message('note_on', channel=9, note=52, velocity=30, time=0),
    Message('control_change', channel=9, control=7, value=73, time=1),
    Message('control_change', channel=9, control=7, value=74, time=8),
    Message('note_off', channel=9, note=52, velocity=0, time=3),
    Message('note_on', channel=9, note=52, velocity=30, time=0),
    Message('control_change', channel=9, control=7, value=75, time=5),
    Message('note_off', channel=9, note=52, velocity=0, time=7),
    Message('note_on', channel=9, note=52, velocity=30, time=0),
    Message('control_change', channel=9, control=7, value=76, time=2),
    Message('control_change', channel=9, control=7, value=77, time=8),
    Message('note_off', channel=9, note=52, velocity=0, time=2),
    Message('note_on', channel=9, note=52, velocity=30, time=0),
    Message('control_change', channel=9, control=7, value=78, time=7),
    Message('note_off', channel=9, note=52, velocity=0, time=5),
    Message('note_on', channel=9, note=52, velocity=30, time=0),
    Message('control_change', channel=9, control=7, value=79, time=3),
    Message('control_change', channel=9, control=7, value=80, time=8),
    Message('note_off', channel=9, note=52, velocity=0, time=1),
    Message('note_on', channel=9, note=52, velocity=30, time=0),
    Message('control_change', channel=9, control=7, value=81, time=8),
    Message('note_off', channel=9, note=52, velocity=0, time=4),
    Message('note_on', channel=9, note=52, velocity=30, time=0),
    Message('control_change', channel=9, control=7, value=82, time=4),
    Message('note_off', channel=9, note=52, velocity=0, time=8),
    Message('note_on', channel=9, note=52, velocity=30, time=0),
    Message('control_change', channel=9, control=7, value=83, time=1),
    Message('control_change', channel=9, control=7, value=84, time=8),
    Message('note_off', channel=9, note=52, velocity=0, time=3),
    Message('note_on', channel=9, note=52, velocity=30, time=0),
    Message('control_change', channel=9, control=7, value=85, time=5),
    Message('note_off', channel=9, note=52, velocity=0, time=7),
    Message('note_on', channel=9, note=52, velocity=30, time=0),
    Message('control_change', channel=9, control=7, value=86, time=2),
    Message('control_change', channel=9, control=7, value=87, time=8),
    Message('note_off', channel=9, note=52, velocity=0, time=2),
    Message('note_on', channel=9, note=52, velocity=30, time=0),
    Message('control_change', channel=9, control=7, value=88, time=7),
    Message('note_off', channel=9, note=52, velocity=0, time=5),
    Message('note_on', channel=9, note=52, velocity=30, time=0),
    Message('control_change', channel=9, control=7, value=89, time=3),
    Message('control_change', channel=9, control=7, value=90, time=8),
    Message('note_off', channel=9, note=52, velocity=0, time=1),
    Message('note_on', channel=9, note=52, velocity=30, time=0),
    Message('control_change', channel=9, control=7, value=89, time=10),
    Message('note_off', channel=9, note=52, velocity=0, time=2),
    Message('note_on', channel=9, note=52, velocity=30, time=0),
    Message('control_change', channel=9, control=7, value=88, time=9),
    Message('note_off', channel=9, note=52, velocity=0, time=3),
    Message('note_on', channel=9, note=52, velocity=30, time=0),
    Message('control_change', channel=9, control=7, value=87, time=8),
    Message('note_off', channel=9, note=52, velocity=0, time=4),
    Message('note_on', channel=9, note=52, velocity=30, time=0),
    Message('control_change', channel=9, control=7, value=86, time=7),
    Message('note_off', channel=9, note=52, velocity=0, time=5),
    Message('note_on', channel=9, note=52, velocity=30, time=0),
    Message('control_change', channel=9, control=7, value=85, time=6),
    Message('note_off', channel=9, note=52, velocity=0, time=6),
    Message('note_on', channel=9, note=52, velocity=30, time=0),
    Message('control_change', channel=9, control=7, value=84, time=4),
    Message('note_off', channel=9, note=52, velocity=0, time=8),
    Message('note_on', channel=9, note=52, velocity=30, time=0),
    Message('control_change', channel=9, control=7, value=83, time=3),
    Message('note_off', channel=9, note=52, velocity=0, time=9),
    Message('note_on', channel=9, note=52, velocity=30, time=0),
    Message('control_change', channel=9, control=7, value=82, time=2),
    Message('note_off', channel=9, note=52, velocity=0, time=10),
    Message('note_on', channel=9, note=52, velocity=30, time=0),
    Message('control_change', channel=9, control=7, value=81, time=1),
    Message('note_off', channel=9, note=52, velocity=0, time=11),
    Message('control_change', channel=9, control=7, value=80, time=0),
    Message('note_on', channel=9, note=52, velocity=30, time=0),
    Message('control_change', channel=9, control=7, value=79, time=10),
    Message('note_off', channel=9, note=52, velocity=0, time=2),
    Message('note_on', channel=9, note=52, velocity=30, time=0),
    Message('control_change', channel=9, control=7, value=78, time=9),
    Message('note_off', channel=9, note=52, velocity=0, time=3),
    Message('note_on', channel=9, note=52, velocity=30, time=0),
    Message('control_change', channel=9, control=7, value=77, time=8),
    Message('note_off', channel=9, note=52, velocity=0, time=4),
    Message('note_on', channel=9, note=52, velocity=30, time=0),
    Message('control_change', channel=9, control=7, value=76, time=7),
    Message('note_off', channel=9, note=52, velocity=0, time=5),
    Message('note_on', channel=9, note=52, velocity=30, time=0),
    Message('control_change', channel=9, control=7, value=75, time=6),
    Message('note_off', channel=9, note=52, velocity=0, time=6),
    Message('note_on', channel=9, note=52, velocity=30, time=0),
    Message('control_change', channel=9, control=7, value=74, time=4),
    Message('note_off', channel=9, note=52, velocity=0, time=8),
    Message('note_on', channel=9, note=52, velocity=30, time=0),
    Message('control_change', channel=9, control=7, value=73, time=3),
    Message('note_off', channel=9, note=52, velocity=0, time=9),
    Message('note_on', channel=9, note=52, velocity=30, time=0),
    Message('control_change', channel=9, control=7, value=72, time=2),
    Message('note_off', channel=9, note=52, velocity=0, time=10),
    Message('note_on', channel=9, note=52, velocity=30, time=0),
    Message('control_change', channel=9, control=7, value=71, time=1),
    Message('note_off', channel=9, note=52, velocity=0, time=11),
    Message('control_change', channel=9, control=7, value=70, time=0),
    Message('note_on', channel=9, note=52, velocity=30, time=0),
    Message('note_off', channel=9, note=52, velocity=0, time=80),
    Message('note_on', channel=9, note=84, velocity=30, time=2224),
    Message('note_on', channel=9, note=52, velocity=30, time=0),
    Message('control_change', channel=9, control=7, value=71, time=6),
    Message('note_off', channel=9, note=84, velocity=0, time=6),
    Message('note_off', channel=9, note=52, velocity=0, time=0),
    Message('control_change', channel=9, control=7, value=72, time=0),
    Message('note_on', channel=9, note=84, velocity=32, time=0),
    Message('note_on', channel=9, note=52, velocity=32, time=0),
    Message('control_change', channel=9, control=7, value=73, time=7),
    Message('note_off', channel=9, note=52, velocity=0, time=5),
    Message('note_off', channel=9, note=84, velocity=0, time=0),
    Message('note_on', channel=9, note=84, velocity=34, time=0),
    Message('note_on', channel=9, note=52, velocity=34, time=0),
    Message('control_change', channel=9, control=7, value=74, time=1),
    Message('control_change', channel=9, control=7, value=75, time=7),
    Message('note_off', channel=9, note=52, velocity=0, time=4),
    Message('note_off', channel=9, note=84, velocity=0, time=0),
    Message('note_on', channel=9, note=84, velocity=36, time=0),
    Message('note_on', channel=9, note=52, velocity=36, time=0),
    Message('control_change', channel=9, control=7, value=76, time=2),
    Message('control_change', channel=9, control=7, value=77, time=6),
    Message('note_off', channel=9, note=52, velocity=0, time=4),
    Message('note_off', channel=9, note=84, velocity=0, time=0),
    Message('note_on', channel=9, note=84, velocity=39, time=0),
    Message('note_on', channel=9, note=52, velocity=39, time=0),
    Message('control_change', channel=9, control=7, value=78, time=3),
    Message('control_change', channel=9, control=7, value=79, time=6),
    Message('note_off', channel=9, note=52, velocity=0, time=3),
    Message('note_off', channel=9, note=84, velocity=0, time=0),
    Message('note_on', channel=9, note=84, velocity=42, time=0),
    Message('note_on', channel=9, note=52, velocity=42, time=0),
    Message('control_change', channel=9, control=7, value=80, time=4),
    Message('control_change', channel=9, control=7, value=81, time=6),
    Message('note_off', channel=9, note=52, velocity=0, time=2),
    Message('note_off', channel=9, note=84, velocity=0, time=0),
    Message('note_on', channel=9, note=84, velocity=45, time=0),
    Message('note_on', channel=9, note=52, velocity=45, time=0),
    Message('control_change', channel=9, control=7, value=82, time=4),
    Message('control_change', channel=9, control=7, value=83, time=7),
    Message('note_off', channel=9, note=52, velocity=0, time=1),
    Message('note_off', channel=9, note=84, velocity=0, time=0),
    Message('note_on', channel=9, note=84, velocity=48, time=0),
    Message('note_on', channel=9, note=52, velocity=48, time=0),
    Message('control_change', channel=9, control=7, value=84, time=5),
    Message('note_off', channel=9, note=84, velocity=0, time=7),
    Message('note_off', channel=9, note=52, velocity=0, time=0),
    Message('control_change', channel=9, control=7, value=85, time=0),
    Message('note_on', channel=9, note=84, velocity=51, time=0),
    Message('note_on', channel=9, note=52, velocity=51, time=0),
    Message('control_change', channel=9, control=7, value=86, time=6),
    Message('note_off', channel=9, note=84, velocity=0, time=6),
    Message('note_off', channel=9, note=52, velocity=0, time=0),
    Message('control_change', channel=9, control=7, value=87, time=0),
    Message('note_on', channel=9, note=84, velocity=54, time=0),
    Message('note_on', channel=9, note=52, velocity=54, time=0),
    Message('control_change', channel=9, control=7, value=88, time=7),
    Message('note_off', channel=9, note=84, velocity=0, time=5),
    Message('note_off', channel=9, note=52, velocity=0, time=0),
    Message('note_on', channel=9, note=84, velocity=57, time=0),
    Message('note_on', channel=9, note=52, velocity=57, time=0),
    Message('control_change', channel=9, control=7, value=89, time=1),
    Message('control_change', channel=9, control=7, value=90, time=7),
    Message('note_off', channel=9, note=52, velocity=0, time=4),
    Message('note_off', channel=9, note=84, velocity=0, time=0),
    Message('note_on', channel=9, note=84, velocity=60, time=0),
    Message('note_on', channel=9, note=52, velocity=60, time=0),
    Message('control_change', channel=9, control=7, value=91, time=2),
    Message('control_change', channel=9, control=7, value=92, time=6),
    Message('note_off', channel=9, note=52, velocity=0, time=4),
    Message('note_off', channel=9, note=84, velocity=0, time=0),
    Message('note_on', channel=9, note=84, velocity=63, time=0),
    Message('note_on', channel=9, note=52, velocity=63, time=0),
    Message('control_change', channel=9, control=7, value=93, time=3),
    Message('control_change', channel=9, control=7, value=94, time=6),
    Message('note_off', channel=9, note=84, velocity=0, time=3),
    Message('note_off', channel=9, note=52, velocity=0, time=0),
    Message('note_on', channel=9, note=84, velocity=66, time=0),
    Message('note_on', channel=9, note=52, velocity=66, time=0),
    Message('control_change', channel=9, control=7, value=95, time=4),
    Message('control_change', channel=9, control=7, value=96, time=6),
    Message('note_off', channel=9, note=84, velocity=0, time=2),
    Message('note_off', channel=9, note=52, velocity=0, time=0),
    Message('note_on', channel=9, note=84, velocity=69, time=0),
    Message('note_on', channel=9, note=52, velocity=69, time=0),
    Message('control_change', channel=9, control=7, value=97, time=4),
    Message('control_change', channel=9, control=7, value=98, time=7),
    Message('note_off', channel=9, note=52, velocity=0, time=1),
    Message('note_off', channel=9, note=84, velocity=0, time=0),
    Message('note_on', channel=9, note=84, velocity=72, time=0),
    Message('note_on', channel=9, note=52, velocity=72, time=0),
    Message('control_change', channel=9, control=7, value=99, time=5),
    Message('note_off', channel=9, note=52, velocity=0, time=7),
    Message('note_off', channel=9, note=84, velocity=0, time=0),
    Message('control_change', channel=9, control=7, value=100, time=0),
    Message('note_on', channel=9, note=84, velocity=75, time=0),
    Message('note_on', channel=9, note=52, velocity=75, time=0),
    Message('note_off', channel=9, note=52, velocity=0, time=80),
    Message('note_off', channel=9, note=84, velocity=0, time=0),
    Message('control_change', channel=9, control=7, value=50, time=1360),
    Message('note_on', channel=9, note=52, velocity=10, time=0),
    Message('control_change', channel=9, control=7, value=51, time=4),
    Message('control_change', channel=9, control=7, value=52, time=4),
    Message('note_off', channel=9, note=52, velocity=0, time=4),
    Message('control_change', channel=9, control=7, value=53, time=0),
    Message('note_on', channel=9, note=52, velocity=14, time=0),
    Message('control_change', channel=9, control=7, value=54, time=4),
    Message('control_change', channel=9, control=7, value=55, time=4),
    Message('note_off', channel=9, note=52, velocity=0, time=4),
    Message('control_change', channel=9, control=7, value=56, time=0),
    Message('note_on', channel=9, note=52, velocity=18, time=0),
    Message('control_change', channel=9, control=7, value=57, time=4),
    Message('control_change', channel=9, control=7, value=58, time=4),
    Message('note_off', channel=9, note=52, velocity=0, time=4),
    Message('note_on', channel=9, note=52, velocity=22, time=0),
    Message('control_change', channel=9, control=7, value=59, time=1),
    Message('control_change', channel=9, control=7, value=60, time=4),
    Message('control_change', channel=9, control=7, value=61, time=4),
    Message('note_off', channel=9, note=52, velocity=0, time=3),
    Message('note_on', channel=9, note=52, velocity=26, time=0),
    Message('control_change', channel=9, control=7, value=62, time=1),
    Message('control_change', channel=9, control=7, value=63, time=4),
    Message('control_change', channel=9, control=7, value=64, time=4),
    Message('note_off', channel=9, note=52, velocity=0, time=3),
    Message('note_on', channel=9, note=52, velocity=30, time=0),
    Message('control_change', channel=9, control=7, value=65, time=1),
    Message('control_change', channel=9, control=7, value=66, time=4),
    Message('control_change', channel=9, control=7, value=67, time=4),
    Message('note_off', channel=9, note=52, velocity=0, time=3),
    Message('note_on', channel=9, note=52, velocity=34, time=0),
    Message('control_change', channel=9, control=7, value=68, time=2),
    Message('control_change', channel=9, control=7, value=69, time=4),
    Message('control_change', channel=9, control=7, value=70, time=4),
    Message('note_off', channel=9, note=52, velocity=0, time=2),
    Message('note_on', channel=9, note=52, velocity=38, time=0),
    Message('control_change', channel=9, control=7, value=71, time=2),
    Message('control_change', channel=9, control=7, value=72, time=4),
    Message('control_change', channel=9, control=7, value=73, time=4),
    Message('note_off', channel=9, note=52, velocity=0, time=2),
    Message('note_on', channel=9, note=55, velocity=42, time=0),
    Message('note_on', channel=9, note=52, velocity=42, time=0),
    Message('control_change', channel=9, control=7, value=74, time=2),
    Message('control_change', channel=9, control=7, value=75, time=4),
    Message('control_change', channel=9, control=7, value=76, time=4),
    Message('note_off', channel=9, note=55, velocity=0, time=2),
    Message('note_off', channel=9, note=52, velocity=0, time=0),
    Message('note_on', channel=9, note=55, velocity=46, time=0),
    Message('note_on', channel=9, note=52, velocity=46, time=0),
    Message('control_change', channel=9, control=7, value=77, time=3),
    Message('control_change', channel=9, control=7, value=78, time=4),
    Message('control_change', channel=9, control=7, value=79, time=4),
    Message('note_off', channel=9, note=52, velocity=0, time=1),
    Message('note_off', channel=9, note=55, velocity=0, time=0),
    Message('note_on', channel=9, note=55, velocity=50, time=0),
    Message('note_on', channel=9, note=52, velocity=50, time=0),
    Message('control_change', channel=9, control=7, value=80, time=3),
    Message('control_change', channel=9, control=7, value=81, time=4),
    Message('control_change', channel=9, control=7, value=82, time=4),
    Message('note_off', channel=9, note=52, velocity=0, time=1),
    Message('note_off', channel=9, note=55, velocity=0, time=0),
    Message('note_on', channel=9, note=55, velocity=54, time=0),
    Message('note_on', channel=9, note=52, velocity=54, time=0),
    Message('control_change', channel=9, control=7, value=83, time=3),
    Message('control_change', channel=9, control=7, value=84, time=4),
    Message('note_off', channel=9, note=52, velocity=0, time=5),
    Message('note_off', channel=9, note=55, velocity=0, time=0),
    Message('control_change', channel=9, control=7, value=85, time=0),
    Message('note_on', channel=9, note=55, velocity=58, time=0),
    Message('note_on', channel=9, note=52, velocity=58, time=0),
    Message('control_change', channel=9, control=7, value=86, time=4),
    Message('control_change', channel=9, control=7, value=87, time=4),
    Message('note_off', channel=9, note=55, velocity=0, time=4),
    Message('note_off', channel=9, note=52, velocity=0, time=0),
    Message('control_change', channel=9, control=7, value=88, time=0),
    Message('note_on', channel=9, note=55, velocity=62, time=0),
    Message('note_on', channel=9, note=52, velocity=62, time=0),
    Message('control_change', channel=9, control=7, value=89, time=4),
    Message('control_change', channel=9, control=7, value=90, time=4),
    Message('note_off', channel=9, note=52, velocity=0, time=4),
    Message('note_off', channel=9, note=55, velocity=0, time=0),
    Message('control_change', channel=9, control=7, value=91, time=0),
    Message('note_on', channel=9, note=55, velocity=66, time=0),
    Message('note_on', channel=9, note=52, velocity=66, time=0),
    Message('control_change', channel=9, control=7, value=92, time=4),
    Message('control_change', channel=9, control=7, value=93, time=4),
    Message('note_off', channel=9, note=52, velocity=0, time=4),
    Message('note_off', channel=9, note=55, velocity=0, time=0),
    Message('note_on', channel=9, note=55, velocity=70, time=0),
    Message('note_on', channel=9, note=52, velocity=70, time=0),
    Message('control_change', channel=9, control=7, value=94, time=1),
    Message('control_change', channel=9, control=7, value=95, time=4),
    Message('control_change', channel=9, control=7, value=96, time=4),
    Message('note_off', channel=9, note=52, velocity=0, time=3),
    Message('note_off', channel=9, note=55, velocity=0, time=0),
    Message('note_on', channel=9, note=55, velocity=74, time=0),
    Message('note_on', channel=9, note=52, velocity=74, time=0),
    Message('control_change', channel=9, control=7, value=97, time=1),
    Message('control_change', channel=9, control=7, value=98, time=4),
    Message('control_change', channel=9, control=7, value=99, time=4),
    Message('note_off', channel=9, note=52, velocity=0, time=3),
    Message('note_off', channel=9, note=55, velocity=0, time=0),
    Message('note_on', channel=9, note=55, velocity=78, time=0),
    Message('note_on', channel=9, note=52, velocity=78, time=0),
    Message('control_change', channel=9, control=7, value=100, time=1),
    Message('control_change', channel=9, control=7, value=101, time=4),
    Message('control_change', channel=9, control=7, value=102, time=4),
    Message('note_off', channel=9, note=55, velocity=0, time=3),
    Message('note_off', channel=9, note=52, velocity=0, time=0),
    Message('note_on', channel=9, note=55, velocity=82, time=0),
    Message('note_on', channel=9, note=52, velocity=82, time=0),
    Message('control_change', channel=9, control=7, value=103, time=2),
    Message('control_change', channel=9, control=7, value=104, time=4),
    Message('control_change', channel=9, control=7, value=105, time=4),
    Message('note_off', channel=9, note=52, velocity=0, time=2),
    Message('note_off', channel=9, note=55, velocity=0, time=0),
    Message('note_on', channel=9, note=55, velocity=86, time=0),
    Message('note_on', channel=9, note=52, velocity=86, time=0),
    Message('control_change', channel=9, control=7, value=106, time=2),
    Message('control_change', channel=9, control=7, value=107, time=4),
    Message('control_change', channel=9, control=7, value=108, time=4),
    Message('note_off', channel=9, note=52, velocity=0, time=2),
    Message('note_off', channel=9, note=55, velocity=0, time=0),
    Message('note_on', channel=9, note=55, velocity=90, time=0),
    Message('note_on', channel=9, note=52, velocity=90, time=0),
    Message('control_change', channel=9, control=7, value=109, time=2),
    Message('control_change', channel=9, control=7, value=110, time=4),
    Message('control_change', channel=9, control=7, value=111, time=4),
    Message('note_off', channel=9, note=52, velocity=0, time=2),
    Message('note_off', channel=9, note=55, velocity=0, time=0),
    Message('note_on', channel=9, note=55, velocity=94, time=0),
    Message('note_on', channel=9, note=52, velocity=94, time=0),
    Message('control_change', channel=9, control=7, value=112, time=3),
    Message('control_change', channel=9, control=7, value=113, time=4),
    Message('control_change', channel=9, control=7, value=114, time=4),
    Message('note_off', channel=9, note=52, velocity=0, time=1),
    Message('note_off', channel=9, note=55, velocity=0, time=0),
    Message('note_on', channel=9, note=55, velocity=98, time=0),
    Message('note_on', channel=9, note=52, velocity=98, time=0),
    Message('control_change', channel=9, control=7, value=115, time=3),
    Message('control_change', channel=9, control=7, value=116, time=4),
    Message('control_change', channel=9, control=7, value=117, time=4),
    Message('note_off', channel=9, note=52, velocity=0, time=1),
    Message('note_off', channel=9, note=55, velocity=0, time=0),
    Message('note_on', channel=9, note=55, velocity=103, time=0),
    Message('note_on', channel=9, note=52, velocity=103, time=0),
    Message('control_change', channel=9, control=7, value=118, time=3),
    Message('control_change', channel=9, control=7, value=119, time=4),
    Message('note_off', channel=9, note=55, velocity=0, time=5),
    Message('note_off', channel=9, note=52, velocity=0, time=0),
    Message('control_change', channel=9, control=7, value=120, time=0),
    Message('note_on', channel=9, note=55, velocity=108, time=0),
    Message('note_on', channel=9, note=52, velocity=108, time=0),
    Message('note_off', channel=9, note=52, velocity=0, time=80),
    Message('note_off', channel=9, note=55, velocity=0, time=0),
    Message('note_on', channel=9, note=57, velocity=127, time=112),
    Message('note_on', channel=9, note=49, velocity=127, time=0),
    Message('note_off', channel=9, note=49, velocity=0, time=80),
    Message('note_off', channel=9, note=57, velocity=0, time=0),
    Message('control_change', channel=9, control=7, value=110, time=880),
    Message('note_on', channel=9, note=57, velocity=92, time=192),
    Message('note_on', channel=9, note=49, velocity=92, time=0),
    Message('note_off', channel=9, note=57, velocity=0, time=168),
    Message('note_off', channel=9, note=49, velocity=0, time=0),
    Message('control_change', channel=9, control=7, value=70, time=1464),
    Message('note_on', channel=9, note=46, velocity=30, time=0),
    Message('control_change', channel=9, control=7, value=71, time=2),
    Message('control_change', channel=9, control=7, value=72, time=2),
    Message('control_change', channel=9, control=7, value=73, time=3),
    Message('control_change', channel=9, control=7, value=74, time=2),
    Message('note_off', channel=9, note=46, velocity=0, time=3),
    Message('control_change', channel=9, control=7, value=75, time=0),
    Message('note_on', channel=9, note=46, velocity=37, time=0),
    Message('control_change', channel=9, control=7, value=76, time=2),
    Message('control_change', channel=9, control=7, value=77, time=2),
    Message('control_change', channel=9, control=7, value=78, time=3),
    Message('control_change', channel=9, control=7, value=79, time=2),
    Message('note_off', channel=9, note=46, velocity=0, time=3),
    Message('control_change', channel=9, control=7, value=80, time=0),
    Message('note_on', channel=9, note=46, velocity=44, time=0),
    Message('control_change', channel=9, control=7, value=81, time=2),
    Message('control_change', channel=9, control=7, value=82, time=2),
    Message('control_change', channel=9, control=7, value=83, time=3),
    Message('control_change', channel=9, control=7, value=84, time=2),
    Message('note_off', channel=9, note=46, velocity=0, time=3),
    Message('control_change', channel=9, control=7, value=85, time=0),
    Message('note_on', channel=9, note=46, velocity=52, time=0),
    Message('control_change', channel=9, control=7, value=86, time=2),
    Message('control_change', channel=9, control=7, value=87, time=2),
    Message('control_change', channel=9, control=7, value=88, time=3),
    Message('control_change', channel=9, control=7, value=89, time=2),
    Message('note_off', channel=9, note=46, velocity=0, time=3),
    Message('control_change', channel=9, control=7, value=90, time=0),
    Message('note_on', channel=9, note=46, velocity=60, time=0),
    Message('control_change', channel=9, control=7, value=91, time=2),
    Message('control_change', channel=9, control=7, value=92, time=2),
    Message('control_change', channel=9, control=7, value=93, time=3),
    Message('control_change', channel=9, control=7, value=94, time=2),
    Message('note_off', channel=9, note=46, velocity=0, time=3),
    Message('control_change', channel=9, control=7, value=95, time=0),
    Message('note_on', channel=9, note=46, velocity=68, time=0),
    Message('control_change', channel=9, control=7, value=96, time=2),
    Message('control_change', channel=9, control=7, value=97, time=2),
    Message('control_change', channel=9, control=7, value=98, time=3),
    Message('control_change', channel=9, control=7, value=99, time=2),
    Message('note_off', channel=9, note=46, velocity=0, time=3),
    Message('control_change', channel=9, control=7, value=100, time=0),
    Message('note_on', channel=9, note=46, velocity=76, time=0),
    Message('control_change', channel=9, control=7, value=101, time=2),
    Message('control_change', channel=9, control=7, value=102, time=2),
    Message('control_change', channel=9, control=7, value=103, time=3),
    Message('control_change', channel=9, control=7, value=104, time=2),
    Message('note_off', channel=9, note=46, velocity=0, time=3),
    Message('control_change', channel=9, control=7, value=105, time=0),
    Message('note_on', channel=9, note=46, velocity=84, time=0),
    Message('control_change', channel=9, control=7, value=106, time=2),
    Message('control_change', channel=9, control=7, value=107, time=2),
    Message('control_change', channel=9, control=7, value=108, time=3),
    Message('control_change', channel=9, control=7, value=109, time=2),
    Message('note_off', channel=9, note=46, velocity=0, time=3),
    Message('control_change', channel=9, control=7, value=110, time=0),
    Message('note_on', channel=9, note=46, velocity=127, time=0),
    Message('note_off', channel=9, note=46, velocity=0, time=47),
    Message('control_change', channel=9, control=7, value=60, time=4945),
    Message('note_on', channel=9, note=84, velocity=45, time=0),
    Message('note_on', channel=9, note=52, velocity=45, time=0),
    Message('control_change', channel=9, control=7, value=61, time=3),
    Message('control_change', channel=9, control=7, value=62, time=4),
    Message('control_change', channel=9, control=7, value=63, time=4),
    Message('note_off', channel=9, note=84, velocity=0, time=1),
    Message('note_off', channel=9, note=52, velocity=0, time=0),
    Message('note_on', channel=9, note=84, velocity=47, time=0),
    Message('note_on', channel=9, note=52, velocity=47, time=0),
    Message('control_change', channel=9, control=7, value=64, time=3),
    Message('control_change', channel=9, control=7, value=65, time=4),
    Message('control_change', channel=9, control=7, value=66, time=4),
    Message('note_off', channel=9, note=52, velocity=0, time=1),
    Message('note_off', channel=9, note=84, velocity=0, time=0),
    Message('note_on', channel=9, note=84, velocity=50, time=0),
    Message('note_on', channel=9, note=52, velocity=50, time=0),
    Message('control_change', channel=9, control=7, value=67, time=2),
    Message('control_change', channel=9, control=7, value=68, time=4),
    Message('control_change', channel=9, control=7, value=69, time=4),
    Message('note_off', channel=9, note=52, velocity=0, time=2),
    Message('note_off', channel=9, note=84, velocity=0, time=0),
    Message('note_on', channel=9, note=84, velocity=53, time=0),
    Message('note_on', channel=9, note=52, velocity=53, time=0),
    Message('control_change', channel=9, control=7, value=70, time=2),
    Message('control_change', channel=9, control=7, value=71, time=4),
    Message('control_change', channel=9, control=7, value=72, time=4),
    Message('note_off', channel=9, note=52, velocity=0, time=2),
    Message('note_off', channel=9, note=84, velocity=0, time=0),
    Message('note_on', channel=9, note=84, velocity=56, time=0),
    Message('note_on', channel=9, note=52, velocity=56, time=0),
    Message('control_change', channel=9, control=7, value=73, time=1),
    Message('control_change', channel=9, control=7, value=74, time=4),
    Message('control_change', channel=9, control=7, value=75, time=4),
    Message('note_off', channel=9, note=52, velocity=0, time=3),
    Message('note_off', channel=9, note=84, velocity=0, time=0),
    Message('note_on', channel=9, note=84, velocity=59, time=0),
    Message('note_on', channel=9, note=52, velocity=59, time=0),
    Message('control_change', channel=9, control=7, value=76, time=1),
    Message('control_change', channel=9, control=7, value=77, time=4),
    Message('control_change', channel=9, control=7, value=78, time=4),
    Message('note_off', channel=9, note=52, velocity=0, time=3),
    Message('note_off', channel=9, note=84, velocity=0, time=0),
    Message('control_change', channel=9, control=7, value=79, time=0),
    Message('note_on', channel=9, note=84, velocity=62, time=0),
    Message('note_on', channel=9, note=52, velocity=62, time=0),
    Message('control_change', channel=9, control=7, value=80, time=4),
    Message('control_change', channel=9, control=7, value=81, time=4),
    Message('note_off', channel=9, note=52, velocity=0, time=4),
    Message('note_off', channel=9, note=84, velocity=0, time=0),
    Message('control_change', channel=9, control=7, value=82, time=0),
    Message('note_on', channel=9, note=84, velocity=65, time=0),
    Message('note_on', channel=9, note=52, velocity=65, time=0),
    Message('control_change', channel=9, control=7, value=83, time=4),
    Message('control_change', channel=9, control=7, value=84, time=4),
    Message('control_change', channel=9, control=7, value=85, time=3),
    Message('note_off', channel=9, note=52, velocity=0, time=1),
    Message('note_off', channel=9, note=84, velocity=0, time=0),
    Message('note_on', channel=9, note=84, velocity=68, time=0),
    Message('note_on', channel=9, note=52, velocity=68, time=0),
    Message('control_change', channel=9, control=7, value=86, time=3),
    Message('control_change', channel=9, control=7, value=87, time=4),
    Message('control_change', channel=9, control=7, value=88, time=4),
    Message('note_off', channel=9, note=52, velocity=0, time=1),
    Message('note_off', channel=9, note=84, velocity=0, time=0),
    Message('note_on', channel=9, note=84, velocity=71, time=0),
    Message('note_on', channel=9, note=52, velocity=71, time=0),
    Message('control_change', channel=9, control=7, value=89, time=3),
    Message('control_change', channel=9, control=7, value=90, time=4),
    Message('control_change', channel=9, control=7, value=91, time=4),
    Message('note_off', channel=9, note=52, velocity=0, time=1),
    Message('note_off', channel=9, note=84, velocity=0, time=0),
    Message('note_on', channel=9, note=84, velocity=74, time=0),
    Message('note_on', channel=9, note=52, velocity=74, time=0),
    Message('control_change', channel=9, control=7, value=92, time=2),
    Message('control_change', channel=9, control=7, value=93, time=4),
    Message('control_change', channel=9, control=7, value=94, time=4),
    Message('note_off', channel=9, note=52, velocity=0, time=2),
    Message('note_off', channel=9, note=84, velocity=0, time=0),
    Message('note_on', channel=9, note=84, velocity=77, time=0),
    Message('note_on', channel=9, note=52, velocity=77, time=0),
    Message('control_change', channel=9, control=7, value=95, time=2),
    Message('control_change', channel=9, control=7, value=96, time=4),
    Message('control_change', channel=9, control=7, value=97, time=4),
    Message('note_off', channel=9, note=52, velocity=0, time=2),
    Message('note_off', channel=9, note=84, velocity=0, time=0),
    Message('note_on', channel=9, note=84, velocity=80, time=0),
    Message('note_on', channel=9, note=52, velocity=80, time=0),
    Message('control_change', channel=9, control=7, value=98, time=1),
    Message('control_change', channel=9, control=7, value=99, time=4),
    Message('control_change', channel=9, control=7, value=100, time=4),
    Message('note_off', channel=9, note=52, velocity=0, time=3),
    Message('note_on', channel=9, note=52, velocity=83, time=0),
    Message('control_change', channel=9, control=7, value=101, time=1),
    Message('control_change', channel=9, control=7, value=102, time=4),
    Message('control_change', channel=9, control=7, value=103, time=4),
    Message('note_off', channel=9, note=52, velocity=0, time=3),
    Message('control_change', channel=9, control=7, value=104, time=0),
    Message('note_on', channel=9, note=52, velocity=86, time=0),
    Message('control_change', channel=9, control=7, value=105, time=4),
    Message('control_change', channel=9, control=7, value=106, time=4),
    Message('note_off', channel=9, note=52, velocity=0, time=4),
    Message('control_change', channel=9, control=7, value=107, time=0),
    Message('note_on', channel=9, note=52, velocity=89, time=0),
    Message('control_change', channel=9, control=7, value=108, time=4),
    Message('control_change', channel=9, control=7, value=109, time=4),
    Message('control_change', channel=9, control=7, value=110, time=3),
    Message('note_off', channel=9, note=52, velocity=0, time=1),
    Message('note_on', channel=9, note=52, velocity=92, time=0),
    Message('note_off', channel=9, note=84, velocity=0, time=80),
    Message('note_off', channel=9, note=52, velocity=0, time=0),
    Message('note_on', channel=9, note=81, velocity=92, time=1456),
    Message('note_off', channel=9, note=81, velocity=0, time=80),
    Message('control_change', channel=9, control=7, value=50, time=1936),
    Message('note_on', channel=9, note=84, velocity=10, time=0),
    Message('note_on', channel=9, note=81, velocity=10, time=0),
    Message('note_on', channel=9, note=55, velocity=10, time=0),
    Message('note_off', channel=9, note=81, velocity=0, time=6),
    Message('note_off', channel=9, note=55, velocity=0, time=0),
    Message('note_on', channel=9, note=81, velocity=10, time=0),
    Message('note_on', channel=9, note=55, velocity=10, time=0),
    Message('control_change', channel=9, control=7, value=51, time=3),
    Message('note_off', channel=9, note=55, velocity=0, time=3),
    Message('note_off', channel=9, note=81, velocity=0, time=0),
    Message('note_on', channel=9, note=81, velocity=10, time=0),
    Message('note_on', channel=9, note=55, velocity=10, time=0),
    Message('note_off', channel=9, note=55, velocity=0, time=6),
    Message('note_off', channel=9, note=81, velocity=0, time=0),
    Message('note_on', channel=9, note=81, velocity=10, time=0),
    Message('note_on', channel=9, note=55, velocity=10, time=0),
    Message('control_change', channel=9, control=7, value=52, time=1),
    Message('note_off', channel=9, note=55, velocity=0, time=5),
    Message('note_off', channel=9, note=81, velocity=0, time=0),
    Message('note_on', channel=9, note=81, velocity=10, time=0),
    Message('note_on', channel=9, note=55, velocity=10, time=0),
    Message('control_change', channel=9, control=7, value=53, time=4),
    Message('note_off', channel=9, note=55, velocity=0, time=2),
    Message('note_off', channel=9, note=81, velocity=0, time=0),
    Message('note_on', channel=9, note=81, velocity=10, time=0),
    Message('note_on', channel=9, note=55, velocity=10, time=0),
    Message('note_off', channel=9, note=55, velocity=0, time=6),
    Message('note_off', channel=9, note=81, velocity=0, time=0),
    Message('note_on', channel=9, note=81, velocity=10, time=0),
    Message('note_on', channel=9, note=55, velocity=10, time=0),
    Message('control_change', channel=9, control=7, value=54, time=2),
    Message('note_off', channel=9, note=55, velocity=0, time=4),
    Message('note_off', channel=9, note=81, velocity=0, time=0),
    Message('note_on', channel=9, note=81, velocity=10, time=0),
    Message('note_on', channel=9, note=55, velocity=10, time=0),
    Message('note_off', channel=9, note=55, velocity=0, time=6),
    Message('note_off', channel=9, note=81, velocity=0, time=0),
    Message('control_change', channel=9, control=7, value=55, time=0),
    Message('note_on', channel=9, note=81, velocity=10, time=0),
    Message('note_on', channel=9, note=55, velocity=10, time=0),
    Message('note_off', channel=9, note=55, velocity=0, time=6),
    Message('note_off', channel=9, note=81, velocity=0, time=0),
    Message('note_on', channel=9, note=81, velocity=10, time=0),
    Message('note_on', channel=9, note=55, velocity=10, time=0),
    Message('control_change', channel=9, control=7, value=56, time=3),
    Message('note_off', channel=9, note=55, velocity=0, time=3),
    Message('note_off', channel=9, note=81, velocity=0, time=0),
    Message('note_on', channel=9, note=81, velocity=10, time=0),
    Message('note_on', channel=9, note=55, velocity=10, time=0),
    Message('note_off', channel=9, note=55, velocity=0, time=6),
    Message('note_off', channel=9, note=81, velocity=0, time=0),
    Message('note_on', channel=9, note=81, velocity=10, time=0),
    Message('note_on', channel=9, note=55, velocity=10, time=0),
    Message('control_change', channel=9, control=7, value=57, time=1),
    Message('note_off', channel=9, note=55, velocity=0, time=5),
    Message('note_off', channel=9, note=81, velocity=0, time=0),
    Message('note_on', channel=9, note=81, velocity=10, time=0),
    Message('note_on', channel=9, note=55, velocity=10, time=0),
    Message('control_change', channel=9, control=7, value=58, time=4),
    Message('note_off', channel=9, note=55, velocity=0, time=2),
    Message('note_off', channel=9, note=81, velocity=0, time=0),
    Message('note_on', channel=9, note=81, velocity=10, time=0),
    Message('note_on', channel=9, note=55, velocity=10, time=0),
    Message('note_off', channel=9, note=84, velocity=0, time=2),
    Message('note_off', channel=9, note=55, velocity=0, time=4),
    Message('note_off', channel=9, note=81, velocity=0, time=0),
    Message('note_on', channel=9, note=81, velocity=11, time=0),
    Message('note_on', channel=9, note=55, velocity=11, time=0),
    Message('control_change', channel=9, control=7, value=59, time=2),
    Message('note_off', channel=9, note=55, velocity=0, time=4),
    Message('note_off', channel=9, note=81, velocity=0, time=0),
    Message('note_on', channel=9, note=81, velocity=12, time=0),
    Message('note_on', channel=9, note=55, velocity=12, time=0),
    Message('note_off', channel=9, note=55, velocity=0, time=6),
    Message('note_off', channel=9, note=81, velocity=0, time=0),
    Message('control_change', channel=9, control=7, value=60, time=0),
    Message('note_on', channel=9, note=81, velocity=13, time=0),
    Message('note_on', channel=9, note=55, velocity=13, time=0),
    Message('note_off', channel=9, note=55, velocity=0, time=6),
    Message('note_off', channel=9, note=81, velocity=0, time=0),
    Message('note_on', channel=9, note=81, velocity=14, time=0),
    Message('note_on', channel=9, note=55, velocity=14, time=0),
    Message('control_change', channel=9, control=7, value=61, time=3),
    Message('note_off', channel=9, note=55, velocity=0, time=3),
    Message('note_off', channel=9, note=81, velocity=0, time=0),
    Message('note_on', channel=9, note=81, velocity=14, time=0),
    Message('note_on', channel=9, note=55, velocity=14, time=0),
    Message('note_off', channel=9, note=55, velocity=0, time=6),
    Message('note_off', channel=9, note=81, velocity=0, time=0),
    Message('note_on', channel=9, note=81, velocity=15, time=0),
    Message('note_on', channel=9, note=55, velocity=15, time=0),
    Message('control_change', channel=9, control=7, value=62, time=1),
    Message('note_off', channel=9, note=55, velocity=0, time=5),
    Message('note_off', channel=9, note=81, velocity=0, time=0),
    Message('note_on', channel=9, note=81, velocity=16, time=0),
    Message('note_on', channel=9, note=55, velocity=16, time=0),
    Message('control_change', channel=9, control=7, value=63, time=4),
    Message('note_off', channel=9, note=55, velocity=0, time=2),
    Message('note_off', channel=9, note=81, velocity=0, time=0),
    Message('note_on', channel=9, note=81, velocity=17, time=0),
    Message('note_on', channel=9, note=55, velocity=17, time=0),
    Message('note_off', channel=9, note=55, velocity=0, time=6),
    Message('note_off', channel=9, note=81, velocity=0, time=0),
    Message('note_on', channel=9, note=81, velocity=18, time=0),
    Message('note_on', channel=9, note=55, velocity=18, time=0),
    Message('control_change', channel=9, control=7, value=64, time=2),
    Message('note_off', channel=9, note=55, velocity=0, time=4),
    Message('note_off', channel=9, note=81, velocity=0, time=0),
    Message('note_on', channel=9, note=81, velocity=19, time=0),
    Message('note_on', channel=9, note=55, velocity=19, time=0),
    Message('note_off', channel=9, note=55, velocity=0, time=6),
    Message('note_off', channel=9, note=81, velocity=0, time=0),
    Message('control_change', channel=9, control=7, value=65, time=0),
    Message('note_on', channel=9, note=81, velocity=20, time=0),
    Message('note_on', channel=9, note=55, velocity=20, time=0),
    Message('note_off', channel=9, note=55, velocity=0, time=6),
    Message('note_off', channel=9, note=81, velocity=0, time=0),
    Message('note_on', channel=9, note=81, velocity=21, time=0),
    Message('note_on', channel=9, note=55, velocity=21, time=0),
    Message('control_change', channel=9, control=7, value=66, time=3),
    Message('note_off', channel=9, note=55, velocity=0, time=3),
    Message('note_off', channel=9, note=81, velocity=0, time=0),
    Message('note_on', channel=9, note=81, velocity=22, time=0),
    Message('note_on', channel=9, note=55, velocity=22, time=0),
    Message('note_off', channel=9, note=55, velocity=0, time=6),
    Message('note_off', channel=9, note=81, velocity=0, time=0),
    Message('note_on', channel=9, note=81, velocity=23, time=0),
    Message('note_on', channel=9, note=55, velocity=23, time=0),
    Message('control_change', channel=9, control=7, value=67, time=1),
    Message('note_off', channel=9, note=55, velocity=0, time=5),
    Message('note_off', channel=9, note=81, velocity=0, time=0),
    Message('note_on', channel=9, note=81, velocity=24, time=0),
    Message('note_on', channel=9, note=55, velocity=24, time=0),
    Message('control_change', channel=9, control=7, value=68, time=4),
    Message('note_off', channel=9, note=55, velocity=0, time=2),
    Message('note_off', channel=9, note=81, velocity=0, time=0),
    Message('note_on', channel=9, note=81, velocity=25, time=0),
    Message('note_on', channel=9, note=55, velocity=25, time=0),
    Message('note_off', channel=9, note=55, velocity=0, time=6),
    Message('note_off', channel=9, note=81, velocity=0, time=0),
    Message('note_on', channel=9, note=81, velocity=26, time=0),
    Message('note_on', channel=9, note=55, velocity=26, time=0),
    Message('control_change', channel=9, control=7, value=69, time=2),
    Message('note_off', channel=9, note=55, velocity=0, time=4),
    Message('note_off', channel=9, note=81, velocity=0, time=0),
    Message('note_on', channel=9, note=81, velocity=27, time=0),
    Message('note_on', channel=9, note=55, velocity=27, time=0),
    Message('note_off', channel=9, note=55, velocity=0, time=6),
    Message('note_off', channel=9, note=81, velocity=0, time=0),
    Message('control_change', channel=9, control=7, value=70, time=0),
    Message('note_on', channel=9, note=81, velocity=28, time=0),
    Message('note_on', channel=9, note=55, velocity=28, time=0),
    Message('note_off', channel=9, note=55, velocity=0, time=6),
    Message('note_off', channel=9, note=81, velocity=0, time=0),
    Message('note_on', channel=9, note=81, velocity=29, time=0),
    Message('note_on', channel=9, note=55, velocity=29, time=0),
    Message('control_change', channel=9, control=7, value=71, time=3),
    Message('note_off', channel=9, note=55, velocity=0, time=3),
    Message('note_off', channel=9, note=81, velocity=0, time=0),
    Message('note_on', channel=9, note=81, velocity=30, time=0),
    Message('note_on', channel=9, note=55, velocity=30, time=0),
    Message('note_off', channel=9, note=55, velocity=0, time=6),
    Message('note_off', channel=9, note=81, velocity=0, time=0),
    Message('note_on', channel=9, note=81, velocity=31, time=0),
    Message('note_on', channel=9, note=55, velocity=31, time=0),
    Message('control_change', channel=9, control=7, value=72, time=1),
    Message('note_off', channel=9, note=55, velocity=0, time=5),
    Message('note_off', channel=9, note=81, velocity=0, time=0),
    Message('note_on', channel=9, note=81, velocity=32, time=0),
    Message('note_on', channel=9, note=55, velocity=32, time=0),
    Message('control_change', channel=9, control=7, value=73, time=4),
    Message('note_off', channel=9, note=55, velocity=0, time=2),
    Message('note_off', channel=9, note=81, velocity=0, time=0),
    Message('note_on', channel=9, note=81, velocity=33, time=0),
    Message('note_on', channel=9, note=55, velocity=33, time=0),
    Message('note_off', channel=9, note=55, velocity=0, time=6),
    Message('note_off', channel=9, note=81, velocity=0, time=0),
    Message('note_on', channel=9, note=81, velocity=34, time=0),
    Message('note_on', channel=9, note=55, velocity=34, time=0),
    Message('control_change', channel=9, control=7, value=74, time=2),
    Message('note_off', channel=9, note=55, velocity=0, time=4),
    Message('note_off', channel=9, note=81, velocity=0, time=0),
    Message('note_on', channel=9, note=81, velocity=35, time=0),
    Message('note_on', channel=9, note=55, velocity=35, time=0),
    Message('note_off', channel=9, note=55, velocity=0, time=6),
    Message('note_off', channel=9, note=81, velocity=0, time=0),
    Message('control_change', channel=9, control=7, value=75, time=0),
    Message('note_on', channel=9, note=81, velocity=36, time=0),
    Message('note_on', channel=9, note=55, velocity=36, time=0),
    Message('note_off', channel=9, note=55, velocity=0, time=6),
    Message('note_off', channel=9, note=81, velocity=0, time=0),
    Message('note_on', channel=9, note=81, velocity=37, time=0),
    Message('note_on', channel=9, note=55, velocity=37, time=0),
    Message('control_change', channel=9, control=7, value=76, time=3),
    Message('note_off', channel=9, note=55, velocity=0, time=3),
    Message('note_off', channel=9, note=81, velocity=0, time=0),
    Message('note_on', channel=9, note=81, velocity=38, time=0),
    Message('note_on', channel=9, note=55, velocity=38, time=0),
    Message('note_off', channel=9, note=55, velocity=0, time=6),
    Message('note_off', channel=9, note=81, velocity=0, time=0),
    Message('note_on', channel=9, note=81, velocity=39, time=0),
    Message('note_on', channel=9, note=55, velocity=39, time=0),
    Message('control_change', channel=9, control=7, value=77, time=1),
    Message('note_off', channel=9, note=55, velocity=0, time=5),
    Message('note_off', channel=9, note=81, velocity=0, time=0),
    Message('note_on', channel=9, note=81, velocity=40, time=0),
    Message('note_on', channel=9, note=55, velocity=40, time=0),
    Message('control_change', channel=9, control=7, value=78, time=4),
    Message('note_off', channel=9, note=55, velocity=0, time=2),
    Message('note_off', channel=9, note=81, velocity=0, time=0),
    Message('note_on', channel=9, note=81, velocity=41, time=0),
    Message('note_on', channel=9, note=55, velocity=41, time=0),
    Message('note_off', channel=9, note=55, velocity=0, time=6),
    Message('note_off', channel=9, note=81, velocity=0, time=0),
    Message('note_on', channel=9, note=81, velocity=42, time=0),
    Message('note_on', channel=9, note=55, velocity=42, time=0),
    Message('control_change', channel=9, control=7, value=79, time=2),
    Message('note_off', channel=9, note=55, velocity=0, time=4),
    Message('note_off', channel=9, note=81, velocity=0, time=0),
    Message('note_on', channel=9, note=81, velocity=43, time=0),
    Message('note_on', channel=9, note=55, velocity=43, time=0),
    Message('note_off', channel=9, note=55, velocity=0, time=6),
    Message('note_off', channel=9, note=81, velocity=0, time=0),
    Message('control_change', channel=9, control=7, value=80, time=0),
    Message('note_on', channel=9, note=55, velocity=45, time=0),
    Message('note_off', channel=9, note=55, velocity=0, time=6),
    Message('note_on', channel=9, note=55, velocity=45, time=0),
    Message('control_change', channel=9, control=7, value=79, time=3),
    Message('note_off', channel=9, note=55, velocity=0, time=3),
    Message('note_on', channel=9, note=55, velocity=45, time=0),
    Message('note_off', channel=9, note=55, velocity=0, time=6),
    Message('note_on', channel=9, note=55, velocity=45, time=0),
    Message('control_change', channel=9, control=7, value=78, time=1),
    Message('note_off', channel=9, note=55, velocity=0, time=5),
    Message('note_on', channel=9, note=55, velocity=45, time=0),
    Message('control_change', channel=9, control=7, value=77, time=4),
    Message('note_off', channel=9, note=55, velocity=0, time=2),
    Message('note_on', channel=9, note=55, velocity=45, time=0),
    Message('note_off', channel=9, note=55, velocity=0, time=6),
    Message('note_on', channel=9, note=55, velocity=45, time=0),
    Message('control_change', channel=9, control=7, value=76, time=2),
    Message('note_off', channel=9, note=55, velocity=0, time=4),
    Message('note_on', channel=9, note=55, velocity=45, time=0),
    Message('note_off', channel=9, note=55, velocity=0, time=6),
    Message('control_change', channel=9, control=7, value=75, time=0),
    Message('note_on', channel=9, note=55, velocity=45, time=0),
    Message('note_off', channel=9, note=55, velocity=0, time=6),
    Message('note_on', channel=9, note=55, velocity=45, time=0),
    Message('control_change', channel=9, control=7, value=74, time=3),
    Message('note_off', channel=9, note=55, velocity=0, time=3),
    Message('note_on', channel=9, note=55, velocity=45, time=0),
    Message('note_off', channel=9, note=55, velocity=0, time=6),
    Message('note_on', channel=9, note=55, velocity=45, time=0),
    Message('control_change', channel=9, control=7, value=73, time=1),
    Message('note_off', channel=9, note=55, velocity=0, time=5),
    Message('note_on', channel=9, note=55, velocity=45, time=0),
    Message('control_change', channel=9, control=7, value=72, time=4),
    Message('note_off', channel=9, note=55, velocity=0, time=2),
    Message('note_on', channel=9, note=55, velocity=45, time=0),
    Message('note_off', channel=9, note=55, velocity=0, time=6),
    Message('note_on', channel=9, note=55, velocity=44, time=0),
    Message('control_change', channel=9, control=7, value=71, time=2),
    Message('note_off', channel=9, note=55, velocity=0, time=4),
    Message('note_on', channel=9, note=55, velocity=43, time=0),
    Message('note_off', channel=9, note=55, velocity=0, time=6),
    Message('control_change', channel=9, control=7, value=70, time=0),
    Message('note_on', channel=9, note=55, velocity=42, time=0),
    Message('note_off', channel=9, note=55, velocity=0, time=6),
    Message('note_on', channel=9, note=55, velocity=41, time=0),
    Message('control_change', channel=9, control=7, value=69, time=3),
    Message('note_off', channel=9, note=55, velocity=0, time=3),
    Message('note_on', channel=9, note=55, velocity=41, time=0),
    Message('note_off', channel=9, note=55, velocity=0, time=6),
    Message('note_on', channel=9, note=55, velocity=40, time=0),
    Message('control_change', channel=9, control=7, value=68, time=1),
    Message('note_off', channel=9, note=55, velocity=0, time=5),
    Message('note_on', channel=9, note=55, velocity=39, time=0),
    Message('control_change', channel=9, control=7, value=67, time=4),
    Message('note_off', channel=9, note=55, velocity=0, time=2),
    Message('note_on', channel=9, note=55, velocity=38, time=0),
    Message('note_off', channel=9, note=55, velocity=0, time=6),
    Message('note_on', channel=9, note=55, velocity=37, time=0),
    Message('control_change', channel=9, control=7, value=66, time=2),
    Message('note_off', channel=9, note=55, velocity=0, time=4),
    Message('note_on', channel=9, note=55, velocity=36, time=0),
    Message('note_off', channel=9, note=55, velocity=0, time=6),
    Message('control_change', channel=9, control=7, value=65, time=0),
    Message('note_on', channel=9, note=55, velocity=35, time=0),
    Message('note_off', channel=9, note=55, velocity=0, time=6),
    Message('note_on', channel=9, note=55, velocity=34, time=0),
    Message('control_change', channel=9, control=7, value=64, time=3),
    Message('note_off', channel=9, note=55, velocity=0, time=3),
    Message('note_on', channel=9, note=55, velocity=33, time=0),
    Message('note_off', channel=9, note=55, velocity=0, time=6),
    Message('note_on', channel=9, note=55, velocity=32, time=0),
    Message('control_change', channel=9, control=7, value=63, time=1),
    Message('note_off', channel=9, note=55, velocity=0, time=5),
    Message('note_on', channel=9, note=55, velocity=31, time=0),
    Message('control_change', channel=9, control=7, value=62, time=4),
    Message('note_off', channel=9, note=55, velocity=0, time=2),
    Message('note_on', channel=9, note=55, velocity=30, time=0),
    Message('note_off', channel=9, note=55, velocity=0, time=6),
    Message('note_on', channel=9, note=55, velocity=29, time=0),
    Message('control_change', channel=9, control=7, value=61, time=2),
    Message('note_off', channel=9, note=55, velocity=0, time=4),
    Message('note_on', channel=9, note=55, velocity=28, time=0),
    Message('note_off', channel=9, note=55, velocity=0, time=6),
    Message('control_change', channel=9, control=7, value=60, time=0),
    Message('note_on', channel=9, note=55, velocity=27, time=0),
    Message('note_off', channel=9, note=55, velocity=0, time=6),
    Message('note_on', channel=9, note=55, velocity=26, time=0),
    Message('control_change', channel=9, control=7, value=59, time=3),
    Message('note_off', channel=9, note=55, velocity=0, time=3),
    Message('note_on', channel=9, note=55, velocity=25, time=0),
    Message('note_off', channel=9, note=55, velocity=0, time=6),
    Message('note_on', channel=9, note=55, velocity=24, time=0),
    Message('control_change', channel=9, control=7, value=58, time=1),
    Message('note_off', channel=9, note=55, velocity=0, time=5),
    Message('note_on', channel=9, note=55, velocity=23, time=0),
    Message('control_change', channel=9, control=7, value=57, time=4),
    Message('note_off', channel=9, note=55, velocity=0, time=2),
    Message('note_on', channel=9, note=55, velocity=22, time=0),
    Message('note_off', channel=9, note=55, velocity=0, time=6),
    Message('note_on', channel=9, note=55, velocity=21, time=0),
    Message('control_change', channel=9, control=7, value=56, time=2),
    Message('note_off', channel=9, note=55, velocity=0, time=4),
    Message('note_on', channel=9, note=55, velocity=20, time=0),
    Message('note_off', channel=9, note=55, velocity=0, time=6),
    Message('control_change', channel=9, control=7, value=55, time=0),
    Message('note_on', channel=9, note=55, velocity=19, time=0),
    Message('note_off', channel=9, note=55, velocity=0, time=6),
    Message('note_on', channel=9, note=55, velocity=18, time=0),
    Message('control_change', channel=9, control=7, value=54, time=3),
    Message('note_off', channel=9, note=55, velocity=0, time=3),
    Message('note_on', channel=9, note=55, velocity=17, time=0),
    Message('note_off', channel=9, note=55, velocity=0, time=6),
    Message('note_on', channel=9, note=55, velocity=16, time=0),
    Message('control_change', channel=9, control=7, value=53, time=1),
    Message('note_off', channel=9, note=55, velocity=0, time=5),
    Message('note_on', channel=9, note=55, velocity=15, time=0),
    Message('control_change', channel=9, control=7, value=52, time=4),
    Message('note_off', channel=9, note=55, velocity=0, time=2),
    Message('note_on', channel=9, note=55, velocity=14, time=0),
    Message('note_off', channel=9, note=55, velocity=0, time=6),
    Message('note_on', channel=9, note=55, velocity=13, time=0),
    Message('control_change', channel=9, control=7, value=51, time=2),
    Message('note_off', channel=9, note=55, velocity=0, time=4),
    Message('note_on', channel=9, note=55, velocity=12, time=0),
    Message('note_off', channel=9, note=55, velocity=0, time=6),
    Message('control_change', channel=9, control=7, value=50, time=0),
    Message('note_on', channel=9, note=55, velocity=10, time=0),
    Message('note_off', channel=9, note=55, velocity=0, time=47),
    Message('note_on', channel=9, note=52, velocity=10, time=2113),
    Message('control_change', channel=9, control=7, value=51, time=2),
    Message('control_change', channel=9, control=7, value=52, time=2),
    Message('control_change', channel=9, control=7, value=53, time=3),
    Message('control_change', channel=9, control=7, value=54, time=2),
    Message('note_off', channel=9, note=52, velocity=0, time=3),
    Message('control_change', channel=9, control=7, value=55, time=0),
    Message('note_on', channel=9, note=52, velocity=16, time=0),
    Message('control_change', channel=9, control=7, value=56, time=2),
    Message('control_change', channel=9, control=7, value=57, time=2),
    Message('control_change', channel=9, control=7, value=58, time=3),
    Message('control_change', channel=9, control=7, value=59, time=2),
    Message('note_off', channel=9, note=52, velocity=0, time=3),
    Message('control_change', channel=9, control=7, value=60, time=0),
    Message('note_on', channel=9, note=52, velocity=22, time=0),
    Message('control_change', channel=9, control=7, value=61, time=2),
    Message('control_change', channel=9, control=7, value=62, time=2),
    Message('control_change', channel=9, control=7, value=63, time=3),
    Message('control_change', channel=9, control=7, value=64, time=2),
    Message('note_off', channel=9, note=52, velocity=0, time=3),
    Message('control_change', channel=9, control=7, value=65, time=0),
    Message('note_on', channel=9, note=52, velocity=29, time=0),
    Message('control_change', channel=9, control=7, value=66, time=2),
    Message('control_change', channel=9, control=7, value=67, time=2),
    Message('control_change', channel=9, control=7, value=68, time=3),
    Message('control_change', channel=9, control=7, value=69, time=2),
    Message('note_off', channel=9, note=52, velocity=0, time=3),
    Message('control_change', channel=9, control=7, value=70, time=0),
    Message('note_on', channel=9, note=52, velocity=36, time=0),
    Message('control_change', channel=9, control=7, value=71, time=2),
    Message('control_change', channel=9, control=7, value=72, time=2),
    Message('control_change', channel=9, control=7, value=73, time=3),
    Message('control_change', channel=9, control=7, value=74, time=2),
    Message('note_off', channel=9, note=52, velocity=0, time=3),
    Message('control_change', channel=9, control=7, value=75, time=0),
    Message('note_on', channel=9, note=52, velocity=43, time=0),
    Message('control_change', channel=9, control=7, value=76, time=2),
    Message('control_change', channel=9, control=7, value=77, time=2),
    Message('control_change', channel=9, control=7, value=78, time=3),
    Message('control_change', channel=9, control=7, value=79, time=2),
    Message('note_off', channel=9, note=52, velocity=0, time=3),
    Message('control_change', channel=9, control=7, value=80, time=0),
    Message('note_on', channel=9, note=52, velocity=50, time=0),
    Message('control_change', channel=9, control=7, value=81, time=2),
    Message('control_change', channel=9, control=7, value=82, time=2),
    Message('control_change', channel=9, control=7, value=83, time=3),
    Message('control_change', channel=9, control=7, value=84, time=2),
    Message('note_off', channel=9, note=52, velocity=0, time=3),
    Message('control_change', channel=9, control=7, value=85, time=0),
    Message('note_on', channel=9, note=52, velocity=57, time=0),
    Message('control_change', channel=9, control=7, value=86, time=2),
    Message('control_change', channel=9, control=7, value=87, time=2),
    Message('control_change', channel=9, control=7, value=88, time=3),
    Message('control_change', channel=9, control=7, value=89, time=2),
    Message('note_off', channel=9, note=52, velocity=0, time=3),
    Message('control_change', channel=9, control=7, value=90, time=0),
    Message('note_on', channel=9, note=52, velocity=64, time=0),
    Message('control_change', channel=9, control=7, value=91, time=2),
    Message('control_change', channel=9, control=7, value=92, time=2),
    Message('control_change', channel=9, control=7, value=93, time=3),
    Message('control_change', channel=9, control=7, value=94, time=2),
    Message('note_off', channel=9, note=52, velocity=0, time=3),
    Message('control_change', channel=9, control=7, value=95, time=0),
    Message('note_on', channel=9, note=52, velocity=71, time=0),
    Message('control_change', channel=9, control=7, value=96, time=2),
    Message('control_change', channel=9, control=7, value=97, time=2),
    Message('control_change', channel=9, control=7, value=98, time=3),
    Message('control_change', channel=9, control=7, value=99, time=2),
    Message('note_off', channel=9, note=52, velocity=0, time=3),
    Message('control_change', channel=9, control=7, value=100, time=0),
    Message('note_on', channel=9, note=52, velocity=78, time=0),
    Message('control_change', channel=9, control=7, value=101, time=2),
    Message('control_change', channel=9, control=7, value=102, time=2),
    Message('control_change', channel=9, control=7, value=103, time=3),
    Message('control_change', channel=9, control=7, value=104, time=2),
    Message('note_off', channel=9, note=52, velocity=0, time=3),
    Message('control_change', channel=9, control=7, value=105, time=0),
    Message('note_on', channel=9, note=52, velocity=85, time=0),
    Message('control_change', channel=9, control=7, value=106, time=2),
    Message('control_change', channel=9, control=7, value=107, time=2),
    Message('control_change', channel=9, control=7, value=108, time=3),
    Message('control_change', channel=9, control=7, value=109, time=2),
    Message('note_off', channel=9, note=52, velocity=0, time=3),
    Message('control_change', channel=9, control=7, value=110, time=0),
    Message('note_on', channel=9, note=52, velocity=92, time=0),
    Message('note_off', channel=9, note=52, velocity=0, time=47),
    Message('control_change', channel=9, control=7, value=50, time=961),
    Message('note_on', channel=9, note=52, velocity=10, time=0),
    Message('control_change', channel=9, control=7, value=51, time=2),
    Message('control_change', channel=9, control=7, value=52, time=2),
    Message('control_change', channel=9, control=7, value=53, time=3),
    Message('control_change', channel=9, control=7, value=54, time=2),
    Message('note_off', channel=9, note=52, velocity=0, time=3),
    Message('control_change', channel=9, control=7, value=55, time=0),
    Message('note_on', channel=9, note=52, velocity=16, time=0),
    Message('control_change', channel=9, control=7, value=56, time=2),
    Message('control_change', channel=9, control=7, value=57, time=2),
    Message('control_change', channel=9, control=7, value=58, time=3),
    Message('control_change', channel=9, control=7, value=59, time=2),
    Message('note_off', channel=9, note=52, velocity=0, time=3),
    Message('control_change', channel=9, control=7, value=60, time=0),
    Message('note_on', channel=9, note=52, velocity=22, time=0),
    Message('control_change', channel=9, control=7, value=61, time=2),
    Message('control_change', channel=9, control=7, value=62, time=2),
    Message('control_change', channel=9, control=7, value=63, time=3),
    Message('control_change', channel=9, control=7, value=64, time=2),
    Message('note_off', channel=9, note=52, velocity=0, time=3),
    Message('control_change', channel=9, control=7, value=65, time=0),
    Message('note_on', channel=9, note=52, velocity=29, time=0),
    Message('control_change', channel=9, control=7, value=66, time=2),
    Message('control_change', channel=9, control=7, value=67, time=2),
    Message('control_change', channel=9, control=7, value=68, time=3),
    Message('control_change', channel=9, control=7, value=69, time=2),
    Message('note_off', channel=9, note=52, velocity=0, time=3),
    Message('control_change', channel=9, control=7, value=70, time=0),
    Message('note_on', channel=9, note=52, velocity=36, time=0),
    Message('control_change', channel=9, control=7, value=71, time=2),
    Message('control_change', channel=9, control=7, value=72, time=2),
    Message('control_change', channel=9, control=7, value=73, time=3),
    Message('control_change', channel=9, control=7, value=74, time=2),
    Message('note_off', channel=9, note=52, velocity=0, time=3),
    Message('control_change', channel=9, control=7, value=75, time=0),
    Message('note_on', channel=9, note=52, velocity=43, time=0),
    Message('control_change', channel=9, control=7, value=76, time=2),
    Message('control_change', channel=9, control=7, value=77, time=2),
    Message('control_change', channel=9, control=7, value=78, time=3),
    Message('control_change', channel=9, control=7, value=79, time=2),
    Message('note_off', channel=9, note=52, velocity=0, time=3),
    Message('control_change', channel=9, control=7, value=80, time=0),
    Message('note_on', channel=9, note=52, velocity=50, time=0),
    Message('control_change', channel=9, control=7, value=81, time=2),
    Message('control_change', channel=9, control=7, value=82, time=2),
    Message('control_change', channel=9, control=7, value=83, time=3),
    Message('control_change', channel=9, control=7, value=84, time=2),
    Message('note_off', channel=9, note=52, velocity=0, time=3),
    Message('control_change', channel=9, control=7, value=85, time=0),
    Message('note_on', channel=9, note=52, velocity=57, time=0),
    Message('control_change', channel=9, control=7, value=86, time=2),
    Message('control_change', channel=9, control=7, value=87, time=2),
    Message('control_change', channel=9, control=7, value=88, time=3),
    Message('control_change', channel=9, control=7, value=89, time=2),
    Message('note_off', channel=9, note=52, velocity=0, time=3),
    Message('control_change', channel=9, control=7, value=90, time=0),
    Message('note_on', channel=9, note=52, velocity=64, time=0),
    Message('control_change', channel=9, control=7, value=91, time=2),
    Message('control_change', channel=9, control=7, value=92, time=2),
    Message('control_change', channel=9, control=7, value=93, time=3),
    Message('control_change', channel=9, control=7, value=94, time=2),
    Message('note_off', channel=9, note=52, velocity=0, time=3),
    Message('control_change', channel=9, control=7, value=95, time=0),
    Message('note_on', channel=9, note=52, velocity=71, time=0),
    Message('control_change', channel=9, control=7, value=96, time=2),
    Message('control_change', channel=9, control=7, value=97, time=2),
    Message('control_change', channel=9, control=7, value=98, time=3),
    Message('control_change', channel=9, control=7, value=99, time=2),
    Message('note_off', channel=9, note=52, velocity=0, time=3),
    Message('control_change', channel=9, control=7, value=100, time=0),
    Message('note_on', channel=9, note=52, velocity=78, time=0),
    Message('control_change', channel=9, control=7, value=101, time=2),
    Message('control_change', channel=9, control=7, value=102, time=2),
    Message('control_change', channel=9, control=7, value=103, time=3),
    Message('control_change', channel=9, control=7, value=104, time=2),
    Message('note_off', channel=9, note=52, velocity=0, time=3),
    Message('control_change', channel=9, control=7, value=105, time=0),
    Message('note_on', channel=9, note=52, velocity=85, time=0),
    Message('control_change', channel=9, control=7, value=106, time=2),
    Message('control_change', channel=9, control=7, value=107, time=2),
    Message('control_change', channel=9, control=7, value=108, time=3),
    Message('control_change', channel=9, control=7, value=109, time=2),
    Message('note_off', channel=9, note=52, velocity=0, time=3),
    Message('control_change', channel=9, control=7, value=110, time=0),
    Message('note_on', channel=9, note=57, velocity=127, time=0),
    Message('note_on', channel=9, note=52, velocity=127, time=0),
    Message('note_on', channel=9, note=49, velocity=127, time=0),
    Message('note_off', channel=9, note=57, velocity=0, time=47),
    Message('note_off', channel=9, note=52, velocity=0, time=0),
    Message('note_off', channel=9, note=49, velocity=0, time=0),
    Message('control_change', channel=9, control=7, value=50, time=1825),
    Message('note_on', channel=9, note=52, velocity=10, time=0),
    Message('control_change', channel=9, control=7, value=51, time=2),
    Message('control_change', channel=9, control=7, value=52, time=2),
    Message('control_change', channel=9, control=7, value=53, time=3),
    Message('control_change', channel=9, control=7, value=54, time=2),
    Message('note_off', channel=9, note=52, velocity=0, time=3),
    Message('control_change', channel=9, control=7, value=55, time=0),
    Message('note_on', channel=9, note=52, velocity=16, time=0),
    Message('control_change', channel=9, control=7, value=56, time=2),
    Message('control_change', channel=9, control=7, value=57, time=2),
    Message('control_change', channel=9, control=7, value=58, time=3),
    Message('control_change', channel=9, control=7, value=59, time=2),
    Message('note_off', channel=9, note=52, velocity=0, time=3),
    Message('control_change', channel=9, control=7, value=60, time=0),
    Message('note_on', channel=9, note=52, velocity=22, time=0),
    Message('control_change', channel=9, control=7, value=61, time=2),
    Message('control_change', channel=9, control=7, value=62, time=2),
    Message('control_change', channel=9, control=7, value=63, time=3),
    Message('control_change', channel=9, control=7, value=64, time=2),
    Message('note_off', channel=9, note=52, velocity=0, time=3),
    Message('control_change', channel=9, control=7, value=65, time=0),
    Message('note_on', channel=9, note=52, velocity=29, time=0),
    Message('control_change', channel=9, control=7, value=66, time=2),
    Message('control_change', channel=9, control=7, value=67, time=2),
    Message('control_change', channel=9, control=7, value=68, time=3),
    Message('control_change', channel=9, control=7, value=69, time=2),
    Message('note_off', channel=9, note=52, velocity=0, time=3),
    Message('control_change', channel=9, control=7, value=70, time=0),
    Message('note_on', channel=9, note=52, velocity=36, time=0),
    Message('control_change', channel=9, control=7, value=71, time=2),
    Message('control_change', channel=9, control=7, value=72, time=2),
    Message('control_change', channel=9, control=7, value=73, time=3),
    Message('control_change', channel=9, control=7, value=74, time=2),
    Message('note_off', channel=9, note=52, velocity=0, time=3),
    Message('control_change', channel=9, control=7, value=75, time=0),
    Message('note_on', channel=9, note=52, velocity=43, time=0),
    Message('control_change', channel=9, control=7, value=76, time=2),
    Message('control_change', channel=9, control=7, value=77, time=2),
    Message('control_change', channel=9, control=7, value=78, time=3),
    Message('control_change', channel=9, control=7, value=79, time=2),
    Message('note_off', channel=9, note=52, velocity=0, time=3),
    Message('control_change', channel=9, control=7, value=80, time=0),
    Message('note_on', channel=9, note=52, velocity=50, time=0),
    Message('control_change', channel=9, control=7, value=81, time=2),
    Message('control_change', channel=9, control=7, value=82, time=2),
    Message('control_change', channel=9, control=7, value=83, time=3),
    Message('control_change', channel=9, control=7, value=84, time=2),
    Message('note_off', channel=9, note=52, velocity=0, time=3),
    Message('control_change', channel=9, control=7, value=85, time=0),
    Message('note_on', channel=9, note=52, velocity=57, time=0),
    Message('control_change', channel=9, control=7, value=86, time=2),
    Message('control_change', channel=9, control=7, value=87, time=2),
    Message('control_change', channel=9, control=7, value=88, time=3),
    Message('control_change', channel=9, control=7, value=89, time=2),
    Message('note_off', channel=9, note=52, velocity=0, time=3),
    Message('control_change', channel=9, control=7, value=90, time=0),
    Message('note_on', channel=9, note=52, velocity=64, time=0),
    Message('control_change', channel=9, control=7, value=91, time=2),
    Message('control_change', channel=9, control=7, value=92, time=2),
    Message('control_change', channel=9, control=7, value=93, time=3),
    Message('control_change', channel=9, control=7, value=94, time=2),
    Message('note_off', channel=9, note=52, velocity=0, time=3),
    Message('control_change', channel=9, control=7, value=95, time=0),
    Message('note_on', channel=9, note=52, velocity=71, time=0),
    Message('control_change', channel=9, control=7, value=96, time=2),
    Message('control_change', channel=9, control=7, value=97, time=2),
    Message('control_change', channel=9, control=7, value=98, time=3),
    Message('control_change', channel=9, control=7, value=99, time=2),
    Message('note_off', channel=9, note=52, velocity=0, time=3),
    Message('control_change', channel=9, control=7, value=100, time=0),
    Message('note_on', channel=9, note=52, velocity=78, time=0),
    Message('control_change', channel=9, control=7, value=101, time=2),
    Message('control_change', channel=9, control=7, value=102, time=2),
    Message('control_change', channel=9, control=7, value=103, time=3),
    Message('control_change', channel=9, control=7, value=104, time=2),
    Message('note_off', channel=9, note=52, velocity=0, time=3),
    Message('control_change', channel=9, control=7, value=105, time=0),
    Message('note_on', channel=9, note=52, velocity=85, time=0),
    Message('control_change', channel=9, control=7, value=106, time=2),
    Message('control_change', channel=9, control=7, value=107, time=2),
    Message('control_change', channel=9, control=7, value=108, time=3),
    Message('control_change', channel=9, control=7, value=109, time=2),
    Message('note_off', channel=9, note=52, velocity=0, time=3),
    Message('control_change', channel=9, control=7, value=110, time=0),
    Message('note_on', channel=9, note=52, velocity=127, time=0),
    Message('note_off', channel=9, note=52, velocity=0, time=47),
    Message('control_change', channel=9, control=7, value=50, time=817),
    Message('note_on', channel=9, note=81, velocity=10, time=0),
    Message('note_on', channel=9, note=55, velocity=10, time=0),
    Message('note_on', channel=9, note=52, velocity=10, time=0),
    Message('control_change', channel=9, control=7, value=51, time=6),
    Message('note_off', channel=9, note=81, velocity=0, time=6),
    Message('note_off', channel=9, note=55, velocity=0, time=0),
    Message('note_off', channel=9, note=52, velocity=0, time=0),
    Message('control_change', channel=9, control=7, value=52, time=0),
    Message('note_on', channel=9, note=81, velocity=12, time=0),
    Message('note_on', channel=9, note=55, velocity=12, time=0),
    Message('note_on', channel=9, note=52, velocity=12, time=0),
    Message('control_change', channel=9, control=7, value=53, time=6),
    Message('note_off', channel=9, note=81, velocity=0, time=6),
    Message('note_off', channel=9, note=52, velocity=0, time=0),
    Message('note_off', channel=9, note=55, velocity=0, time=0),
    Message('control_change', channel=9, control=7, value=54, time=0),
    Message('note_on', channel=9, note=81, velocity=14, time=0),
    Message('note_on', channel=9, note=55, velocity=14, time=0),
    Message('note_on', channel=9, note=52, velocity=14, time=0),
    Message('control_change', channel=9, control=7, value=55, time=6),
    Message('note_off', channel=9, note=81, velocity=0, time=6),
    Message('note_off', channel=9, note=55, velocity=0, time=0),
    Message('note_off', channel=9, note=52, velocity=0, time=0),
    Message('note_on', channel=9, note=81, velocity=16, time=0),
    Message('note_on', channel=9, note=55, velocity=16, time=0),
    Message('note_on', channel=9, note=52, velocity=16, time=0),
    Message('control_change', channel=9, control=7, value=56, time=1),
    Message('control_change', channel=9, control=7, value=57, time=6),
    Message('note_off', channel=9, note=52, velocity=0, time=5),
    Message('note_off', channel=9, note=55, velocity=0, time=0),
    Message('note_off', channel=9, note=81, velocity=0, time=0),
    Message('note_on', channel=9, note=81, velocity=18, time=0),
    Message('note_on', channel=9, note=55, velocity=18, time=0),
    Message('note_on', channel=9, note=52, velocity=18, time=0),
    Message('control_change', channel=9, control=7, value=58, time=1),
    Message('control_change', channel=9, control=7, value=59, time=6),
    Message('note_off', channel=9, note=81, velocity=0, time=5),
    Message('note_off', channel=9, note=55, velocity=0, time=0),
    Message('note_off', channel=9, note=52, velocity=0, time=0),
    Message('note_on', channel=9, note=81, velocity=20, time=0),
    Message('note_on', channel=9, note=55, velocity=20, time=0),
    Message('note_on', channel=9, note=52, velocity=20, time=0),
    Message('control_change', channel=9, control=7, value=60, time=1),
    Message('control_change', channel=9, control=7, value=61, time=6),
    Message('note_off', channel=9, note=52, velocity=0, time=5),
    Message('note_off', channel=9, note=55, velocity=0, time=0),
    Message('note_off', channel=9, note=81, velocity=0, time=0),
    Message('note_on', channel=9, note=81, velocity=22, time=0),
    Message('note_on', channel=9, note=55, velocity=22, time=0),
    Message('note_on', channel=9, note=52, velocity=22, time=0),
    Message('control_change', channel=9, control=7, value=62, time=2),
    Message('control_change', channel=9, control=7, value=63, time=6),
    Message('note_off', channel=9, note=52, velocity=0, time=4),
    Message('note_off', channel=9, note=55, velocity=0, time=0),
    Message('note_off', channel=9, note=81, velocity=0, time=0),
    Message('note_on', channel=9, note=81, velocity=24, time=0),
    Message('note_on', channel=9, note=55, velocity=24, time=0),
    Message('note_on', channel=9, note=52, velocity=24, time=0),
    Message('control_change', channel=9, control=7, value=64, time=2),
    Message('control_change', channel=9, control=7, value=65, time=6),
    Message('note_off', channel=9, note=52, velocity=0, time=4),
    Message('note_off', channel=9, note=55, velocity=0, time=0),
    Message('note_off', channel=9, note=81, velocity=0, time=0),
    Message('note_on', channel=9, note=81, velocity=26, time=0),
    Message('note_on', channel=9, note=55, velocity=26, time=0),
    Message('note_on', channel=9, note=52, velocity=26, time=0),
    Message('control_change', channel=9, control=7, value=66, time=2),
    Message('control_change', channel=9, control=7, value=67, time=6),
    Message('note_off', channel=9, note=52, velocity=0, time=4),
    Message('note_off', channel=9, note=55, velocity=0, time=0),
    Message('note_off', channel=9, note=81, velocity=0, time=0),
    Message('note_on', channel=9, note=81, velocity=28, time=0),
    Message('note_on', channel=9, note=55, velocity=28, time=0),
    Message('note_on', channel=9, note=52, velocity=28, time=0),
    Message('control_change', channel=9, control=7, value=68, time=3),
    Message('control_change', channel=9, control=7, value=69, time=6),
    Message('note_off', channel=9, note=52, velocity=0, time=3),
    Message('note_off', channel=9, note=55, velocity=0, time=0),
    Message('note_off', channel=9, note=81, velocity=0, time=0),
    Message('note_on', channel=9, note=81, velocity=30, time=0),
    Message('note_on', channel=9, note=55, velocity=30, time=0),
    Message('note_on', channel=9, note=52, velocity=30, time=0),
    Message('control_change', channel=9, control=7, value=70, time=3),
    Message('control_change', channel=9, control=7, value=71, time=6),
    Message('note_off', channel=9, note=52, velocity=0, time=3),
    Message('note_off', channel=9, note=55, velocity=0, time=0),
    Message('note_off', channel=9, note=81, velocity=0, time=0),
    Message('note_on', channel=9, note=81, velocity=33, time=0),
    Message('note_on', channel=9, note=55, velocity=33, time=0),
    Message('note_on', channel=9, note=52, velocity=33, time=0),
    Message('control_change', channel=9, control=7, value=72, time=3),
    Message('control_change', channel=9, control=7, value=73, time=6),
    Message('note_off', channel=9, note=52, velocity=0, time=3),
    Message('note_off', channel=9, note=55, velocity=0, time=0),
    Message('note_off', channel=9, note=81, velocity=0, time=0),
    Message('note_on', channel=9, note=81, velocity=35, time=0),
    Message('note_on', channel=9, note=55, velocity=35, time=0),
    Message('note_on', channel=9, note=52, velocity=35, time=0),
    Message('control_change', channel=9, control=7, value=74, time=4),
    Message('control_change', channel=9, control=7, value=75, time=6),
    Message('note_off', channel=9, note=52, velocity=0, time=2),
    Message('note_off', channel=9, note=55, velocity=0, time=0),
    Message('note_off', channel=9, note=81, velocity=0, time=0),
    Message('note_on', channel=9, note=81, velocity=38, time=0),
    Message('note_on', channel=9, note=55, velocity=38, time=0),
    Message('note_on', channel=9, note=52, velocity=38, time=0),
    Message('control_change', channel=9, control=7, value=76, time=4),
    Message('control_change', channel=9, control=7, value=77, time=6),
    Message('note_off', channel=9, note=52, velocity=0, time=2),
    Message('note_off', channel=9, note=55, velocity=0, time=0),
    Message('note_off', channel=9, note=81, velocity=0, time=0),
    Message('note_on', channel=9, note=81, velocity=41, time=0),
    Message('note_on', channel=9, note=55, velocity=41, time=0),
    Message('note_on', channel=9, note=52, velocity=41, time=0),
    Message('control_change', channel=9, control=7, value=78, time=4),
    Message('control_change', channel=9, control=7, value=79, time=6),
    Message('note_off', channel=9, note=52, velocity=0, time=2),
    Message('note_off', channel=9, note=55, velocity=0, time=0),
    Message('note_off', channel=9, note=81, velocity=0, time=0),
    Message('note_on', channel=9, note=81, velocity=44, time=0),
    Message('note_on', channel=9, note=55, velocity=44, time=0),
    Message('note_on', channel=9, note=52, velocity=44, time=0),
    Message('control_change', channel=9, control=7, value=80, time=5),
    Message('control_change', channel=9, control=7, value=81, time=6),
    Message('note_off', channel=9, note=52, velocity=0, time=1),
    Message('note_off', channel=9, note=55, velocity=0, time=0),
    Message('note_off', channel=9, note=81, velocity=0, time=0),
    Message('note_on', channel=9, note=81, velocity=47, time=0),
    Message('note_on', channel=9, note=55, velocity=47, time=0),
    Message('note_on', channel=9, note=52, velocity=47, time=0),
    Message('control_change', channel=9, control=7, value=82, time=5),
    Message('control_change', channel=9, control=7, value=83, time=6),
    Message('note_off', channel=9, note=52, velocity=0, time=1),
    Message('note_off', channel=9, note=55, velocity=0, time=0),
    Message('note_off', channel=9, note=81, velocity=0, time=0),
    Message('note_on', channel=9, note=81, velocity=50, time=0),
    Message('note_on', channel=9, note=55, velocity=50, time=0),
    Message('note_on', channel=9, note=52, velocity=50, time=0),
    Message('control_change', channel=9, control=7, value=84, time=5),
    Message('note_off', channel=9, note=52, velocity=0, time=7),
    Message('note_off', channel=9, note=55, velocity=0, time=0),
    Message('note_off', channel=9, note=81, velocity=0, time=0),
    Message('control_change', channel=9, control=7, value=85, time=0),
    Message('note_on', channel=9, note=81, velocity=53, time=0),
    Message('note_on', channel=9, note=55, velocity=53, time=0),
    Message('note_on', channel=9, note=52, velocity=53, time=0),
    Message('control_change', channel=9, control=7, value=86, time=6),
    Message('note_off', channel=9, note=52, velocity=0, time=6),
    Message('note_off', channel=9, note=55, velocity=0, time=0),
    Message('note_off', channel=9, note=81, velocity=0, time=0),
    Message('control_change', channel=9, control=7, value=87, time=0),
    Message('note_on', channel=9, note=81, velocity=56, time=0),
    Message('note_on', channel=9, note=55, velocity=56, time=0),
    Message('note_on', channel=9, note=52, velocity=56, time=0),
    Message('control_change', channel=9, control=7, value=88, time=6),
    Message('note_off', channel=9, note=52, velocity=0, time=6),
    Message('note_off', channel=9, note=55, velocity=0, time=0),
    Message('note_off', channel=9, note=81, velocity=0, time=0),
    Message('control_change', channel=9, control=7, value=89, time=0),
    Message('note_on', channel=9, note=81, velocity=59, time=0),
    Message('note_on', channel=9, note=55, velocity=59, time=0),
    Message('note_on', channel=9, note=52, velocity=59, time=0),
    Message('control_change', channel=9, control=7, value=90, time=6),
    Message('note_off', channel=9, note=52, velocity=0, time=6),
    Message('note_off', channel=9, note=55, velocity=0, time=0),
    Message('note_off', channel=9, note=81, velocity=0, time=0),
    Message('note_on', channel=9, note=81, velocity=62, time=0),
    Message('note_on', channel=9, note=55, velocity=62, time=0),
    Message('note_on', channel=9, note=52, velocity=62, time=0),
    Message('control_change', channel=9, control=7, value=91, time=1),
    Message('control_change', channel=9, control=7, value=92, time=6),
    Message('note_off', channel=9, note=52, velocity=0, time=5),
    Message('note_off', channel=9, note=55, velocity=0, time=0),
    Message('note_off', channel=9, note=81, velocity=0, time=0),
    Message('note_on', channel=9, note=81, velocity=65, time=0),
    Message('note_on', channel=9, note=55, velocity=65, time=0),
    Message('note_on', channel=9, note=52, velocity=65, time=0),
    Message('control_change', channel=9, control=7, value=93, time=1),
    Message('control_change', channel=9, control=7, value=94, time=6),
    Message('note_off', channel=9, note=81, velocity=0, time=5),
    Message('note_off', channel=9, note=52, velocity=0, time=0),
    Message('note_off', channel=9, note=55, velocity=0, time=0),
    Message('note_on', channel=9, note=81, velocity=68, time=0),
    Message('note_on', channel=9, note=55, velocity=68, time=0),
    Message('note_on', channel=9, note=52, velocity=68, time=0),
    Message('control_change', channel=9, control=7, value=95, time=1),
    Message('control_change', channel=9, control=7, value=96, time=6),
    Message('note_off', channel=9, note=52, velocity=0, time=5),
    Message('note_off', channel=9, note=55, velocity=0, time=0),
    Message('note_off', channel=9, note=81, velocity=0, time=0),
    Message('note_on', channel=9, note=81, velocity=71, time=0),
    Message('note_on', channel=9, note=55, velocity=71, time=0),
    Message('note_on', channel=9, note=52, velocity=71, time=0),
    Message('control_change', channel=9, control=7, value=97, time=2),
    Message('control_change', channel=9, control=7, value=98, time=6),
    Message('note_off', channel=9, note=52, velocity=0, time=4),
    Message('note_off', channel=9, note=55, velocity=0, time=0),
    Message('note_off', channel=9, note=81, velocity=0, time=0),
    Message('note_on', channel=9, note=81, velocity=74, time=0),
    Message('note_on', channel=9, note=55, velocity=74, time=0),
    Message('note_on', channel=9, note=52, velocity=74, time=0),
    Message('control_change', channel=9, control=7, value=99, time=2),
    Message('control_change', channel=9, control=7, value=100, time=6),
    Message('note_off', channel=9, note=52, velocity=0, time=4),
    Message('note_off', channel=9, note=55, velocity=0, time=0),
    Message('note_off', channel=9, note=81, velocity=0, time=0),
    Message('note_on', channel=9, note=81, velocity=77, time=0),
    Message('note_on', channel=9, note=55, velocity=77, time=0),
    Message('note_on', channel=9, note=52, velocity=77, time=0),
    Message('control_change', channel=9, control=7, value=101, time=2),
    Message('control_change', channel=9, control=7, value=102, time=6),
    Message('note_off', channel=9, note=52, velocity=0, time=4),
    Message('note_off', channel=9, note=55, velocity=0, time=0),
    Message('note_off', channel=9, note=81, velocity=0, time=0),
    Message('note_on', channel=9, note=81, velocity=80, time=0),
    Message('note_on', channel=9, note=55, velocity=80, time=0),
    Message('note_on', channel=9, note=52, velocity=80, time=0),
    Message('control_change', channel=9, control=7, value=103, time=3),
    Message('control_change', channel=9, control=7, value=104, time=6),
    Message('note_off', channel=9, note=52, velocity=0, time=3),
    Message('note_off', channel=9, note=55, velocity=0, time=0),
    Message('note_off', channel=9, note=81, velocity=0, time=0),
    Message('note_on', channel=9, note=81, velocity=83, time=0),
    Message('note_on', channel=9, note=55, velocity=83, time=0),
    Message('note_on', channel=9, note=52, velocity=83, time=0),
    Message('control_change', channel=9, control=7, value=105, time=3),
    Message('control_change', channel=9, control=7, value=106, time=6),
    Message('note_off', channel=9, note=52, velocity=0, time=3),
    Message('note_off', channel=9, note=55, velocity=0, time=0),
    Message('note_off', channel=9, note=81, velocity=0, time=0),
    Message('note_on', channel=9, note=81, velocity=86, time=0),
    Message('note_on', channel=9, note=55, velocity=86, time=0),
    Message('note_on', channel=9, note=52, velocity=86, time=0),
    Message('control_change', channel=9, control=7, value=107, time=3),
    Message('control_change', channel=9, control=7, value=108, time=6),
    Message('note_off', channel=9, note=52, velocity=0, time=3),
    Message('note_off', channel=9, note=55, velocity=0, time=0),
    Message('note_off', channel=9, note=81, velocity=0, time=0),
    Message('note_on', channel=9, note=81, velocity=89, time=0),
    Message('note_on', channel=9, note=55, velocity=89, time=0),
    Message('note_on', channel=9, note=52, velocity=89, time=0),
    Message('control_change', channel=9, control=7, value=109, time=4),
    Message('control_change', channel=9, control=7, value=110, time=6),
    Message('note_off', channel=9, note=52, velocity=0, time=2),
    Message('note_off', channel=9, note=55, velocity=0, time=0),
    Message('note_off', channel=9, note=81, velocity=0, time=0),
    Message('note_on', channel=9, note=81, velocity=92, time=0),
    Message('note_on', channel=9, note=55, velocity=92, time=0),
    Message('note_on', channel=9, note=52, velocity=92, time=0),
    Message('control_change', channel=9, control=7, value=111, time=4),
    Message('control_change', channel=9, control=7, value=112, time=6),
    Message('note_off', channel=9, note=52, velocity=0, time=2),
    Message('note_off', channel=9, note=55, velocity=0, time=0),
    Message('note_off', channel=9, note=81, velocity=0, time=0),
    Message('note_on', channel=9, note=81, velocity=95, time=0),
    Message('note_on', channel=9, note=55, velocity=95, time=0),
    Message('note_on', channel=9, note=52, velocity=95, time=0),
    Message('control_change', channel=9, control=7, value=113, time=4),
    Message('control_change', channel=9, control=7, value=114, time=6),
    Message('note_off', channel=9, note=52, velocity=0, time=2),
    Message('note_off', channel=9, note=55, velocity=0, time=0),
    Message('note_off', channel=9, note=81, velocity=0, time=0),
    Message('note_on', channel=9, note=81, velocity=98, time=0),
    Message('note_on', channel=9, note=55, velocity=98, time=0),
    Message('note_on', channel=9, note=52, velocity=98, time=0),
    Message('control_change', channel=9, control=7, value=115, time=5),
    Message('control_change', channel=9, control=7, value=116, time=6),
    Message('note_off', channel=9, note=52, velocity=0, time=1),
    Message('note_off', channel=9, note=55, velocity=0, time=0),
    Message('note_off', channel=9, note=81, velocity=0, time=0),
    Message('note_on', channel=9, note=81, velocity=101, time=0),
    Message('note_on', channel=9, note=55, velocity=101, time=0),
    Message('note_on', channel=9, note=52, velocity=101, time=0),
    Message('control_change', channel=9, control=7, value=117, time=5),
    Message('control_change', channel=9, control=7, value=118, time=6),
    Message('note_off', channel=9, note=81, velocity=0, time=1),
    Message('note_off', channel=9, note=55, velocity=0, time=0),
    Message('note_off', channel=9, note=52, velocity=0, time=0),
    Message('note_on', channel=9, note=81, velocity=104, time=0),
    Message('note_on', channel=9, note=55, velocity=104, time=0),
    Message('note_on', channel=9, note=52, velocity=104, time=0),
    Message('control_change', channel=9, control=7, value=119, time=5),
    Message('note_off', channel=9, note=52, velocity=0, time=7),
    Message('note_off', channel=9, note=55, velocity=0, time=0),
    Message('note_off', channel=9, note=81, velocity=0, time=0),
    Message('control_change', channel=9, control=7, value=120, time=0),
    Message('note_on', channel=9, note=81, velocity=127, time=0),
    Message('note_on', channel=9, note=55, velocity=127, time=0),
    Message('note_on', channel=9, note=52, velocity=127, time=0),
    Message('note_off', channel=9, note=52, velocity=0, time=47),
    Message('note_off', channel=9, note=55, velocity=0, time=0),
    Message('note_off', channel=9, note=81, velocity=0, time=0),
    Message('control_change', channel=9, control=7, value=50, time=1249),
    Message('note_on', channel=9, note=81, velocity=10, time=0),
    Message('note_on', channel=9, note=55, velocity=10, time=0),
    Message('note_on', channel=9, note=52, velocity=10, time=0),
    Message('control_change', channel=9, control=7, value=51, time=4),
    Message('control_change', channel=9, control=7, value=52, time=4),
    Message('note_off', channel=9, note=52, velocity=0, time=4),
    Message('note_off', channel=9, note=81, velocity=0, time=0),
    Message('note_off', channel=9, note=55, velocity=0, time=0),
    Message('control_change', channel=9, control=7, value=53, time=0),
    Message('note_on', channel=9, note=81, velocity=14, time=0),
    Message('note_on', channel=9, note=55, velocity=14, time=0),
    Message('note_on', channel=9, note=52, velocity=14, time=0),
    Message('control_change', channel=9, control=7, value=54, time=4),
    Message('control_change', channel=9, control=7, value=55, time=4),
    Message('note_off', channel=9, note=52, velocity=0, time=4),
    Message('note_off', channel=9, note=81, velocity=0, time=0),
    Message('note_off', channel=9, note=55, velocity=0, time=0),
    Message('control_change', channel=9, control=7, value=56, time=0),
    Message('note_on', channel=9, note=81, velocity=18, time=0),
    Message('note_on', channel=9, note=55, velocity=18, time=0),
    Message('note_on', channel=9, note=52, velocity=18, time=0),
    Message('control_change', channel=9, control=7, value=57, time=4),
    Message('control_change', channel=9, control=7, value=58, time=4),
    Message('note_off', channel=9, note=52, velocity=0, time=4),
    Message('note_off', channel=9, note=55, velocity=0, time=0),
    Message('note_off', channel=9, note=81, velocity=0, time=0),
    Message('note_on', channel=9, note=81, velocity=22, time=0),
    Message('note_on', channel=9, note=55, velocity=22, time=0),
    Message('note_on', channel=9, note=52, velocity=22, time=0),
    Message('control_change', channel=9, control=7, value=59, time=1),
    Message('control_change', channel=9, control=7, value=60, time=4),
    Message('control_change', channel=9, control=7, value=61, time=4),
    Message('note_off', channel=9, note=52, velocity=0, time=3),
    Message('note_off', channel=9, note=55, velocity=0, time=0),
    Message('note_off', channel=9, note=81, velocity=0, time=0),
    Message('note_on', channel=9, note=81, velocity=26, time=0),
    Message('note_on', channel=9, note=55, velocity=26, time=0),
    Message('note_on', channel=9, note=52, velocity=26, time=0),
    Message('control_change', channel=9, control=7, value=62, time=1),
    Message('control_change', channel=9, control=7, value=63, time=4),
    Message('control_change', channel=9, control=7, value=64, time=4),
    Message('note_off', channel=9, note=52, velocity=0, time=3),
    Message('note_off', channel=9, note=55, velocity=0, time=0),
    Message('note_off', channel=9, note=81, velocity=0, time=0),
    Message('note_on', channel=9, note=81, velocity=30, time=0),
    Message('note_on', channel=9, note=55, velocity=30, time=0),
    Message('note_on', channel=9, note=52, velocity=30, time=0),
    Message('control_change', channel=9, control=7, value=65, time=1),
    Message('control_change', channel=9, control=7, value=66, time=4),
    Message('control_change', channel=9, control=7, value=67, time=4),
    Message('note_off', channel=9, note=52, velocity=0, time=3),
    Message('note_off', channel=9, note=55, velocity=0, time=0),
    Message('note_off', channel=9, note=81, velocity=0, time=0),
    Message('note_on', channel=9, note=81, velocity=34, time=0),
    Message('note_on', channel=9, note=55, velocity=34, time=0),
    Message('note_on', channel=9, note=52, velocity=34, time=0),
    Message('control_change', channel=9, control=7, value=68, time=2),
    Message('control_change', channel=9, control=7, value=69, time=4),
    Message('control_change', channel=9, control=7, value=70, time=4),
    Message('note_off', channel=9, note=52, velocity=0, time=2),
    Message('note_off', channel=9, note=55, velocity=0, time=0),
    Message('note_off', channel=9, note=81, velocity=0, time=0),
    Message('note_on', channel=9, note=81, velocity=38, time=0),
    Message('note_on', channel=9, note=55, velocity=38, time=0),
    Message('note_on', channel=9, note=52, velocity=38, time=0),
    Message('control_change', channel=9, control=7, value=71, time=2),
    Message('control_change', channel=9, control=7, value=72, time=4),
    Message('control_change', channel=9, control=7, value=73, time=4),
    Message('note_off', channel=9, note=52, velocity=0, time=2),
    Message('note_off', channel=9, note=55, velocity=0, time=0),
    Message('note_off', channel=9, note=81, velocity=0, time=0),
    Message('note_on', channel=9, note=81, velocity=42, time=0),
    Message('note_on', channel=9, note=55, velocity=42, time=0),
    Message('note_on', channel=9, note=52, velocity=42, time=0),
    Message('control_change', channel=9, control=7, value=74, time=2),
    Message('control_change', channel=9, control=7, value=75, time=4),
    Message('control_change', channel=9, control=7, value=76, time=4),
    Message('note_off', channel=9, note=52, velocity=0, time=2),
    Message('note_off', channel=9, note=55, velocity=0, time=0),
    Message('note_off', channel=9, note=81, velocity=0, time=0),
    Message('note_on', channel=9, note=81, velocity=46, time=0),
    Message('note_on', channel=9, note=55, velocity=46, time=0),
    Message('note_on', channel=9, note=52, velocity=46, time=0),
    Message('control_change', channel=9, control=7, value=77, time=3),
    Message('control_change', channel=9, control=7, value=78, time=4),
    Message('control_change', channel=9, control=7, value=79, time=4),
    Message('note_off', channel=9, note=52, velocity=0, time=1),
    Message('note_off', channel=9, note=55, velocity=0, time=0),
    Message('note_off', channel=9, note=81, velocity=0, time=0),
    Message('note_on', channel=9, note=81, velocity=50, time=0),
    Message('note_on', channel=9, note=55, velocity=50, time=0),
    Message('note_on', channel=9, note=52, velocity=50, time=0),
    Message('control_change', channel=9, control=7, value=80, time=3),
    Message('control_change', channel=9, control=7, value=81, time=4),
    Message('control_change', channel=9, control=7, value=82, time=4),
    Message('note_off', channel=9, note=52, velocity=0, time=1),
    Message('note_off', channel=9, note=55, velocity=0, time=0),
    Message('note_off', channel=9, note=81, velocity=0, time=0),
    Message('note_on', channel=9, note=81, velocity=54, time=0),
    Message('note_on', channel=9, note=55, velocity=54, time=0),
    Message('note_on', channel=9, note=52, velocity=54, time=0),
    Message('control_change', channel=9, control=7, value=83, time=3),
    Message('control_change', channel=9, control=7, value=84, time=4),
    Message('note_off', channel=9, note=52, velocity=0, time=5),
    Message('note_off', channel=9, note=55, velocity=0, time=0),
    Message('note_off', channel=9, note=81, velocity=0, time=0),
    Message('control_change', channel=9, control=7, value=85, time=0),
    Message('note_on', channel=9, note=81, velocity=58, time=0),
    Message('note_on', channel=9, note=55, velocity=58, time=0),
    Message('note_on', channel=9, note=52, velocity=58, time=0),
    Message('control_change', channel=9, control=7, value=86, time=4),
    Message('control_change', channel=9, control=7, value=87, time=4),
    Message('note_off', channel=9, note=52, velocity=0, time=4),
    Message('note_off', channel=9, note=55, velocity=0, time=0),
    Message('note_off', channel=9, note=81, velocity=0, time=0),
    Message('control_change', channel=9, control=7, value=88, time=0),
    Message('note_on', channel=9, note=81, velocity=62, time=0),
    Message('note_on', channel=9, note=55, velocity=62, time=0),
    Message('note_on', channel=9, note=52, velocity=62, time=0),
    Message('control_change', channel=9, control=7, value=89, time=4),
    Message('control_change', channel=9, control=7, value=90, time=4),
    Message('note_off', channel=9, note=52, velocity=0, time=4),
    Message('note_off', channel=9, note=55, velocity=0, time=0),
    Message('note_off', channel=9, note=81, velocity=0, time=0),
    Message('control_change', channel=9, control=7, value=91, time=0),
    Message('note_on', channel=9, note=81, velocity=66, time=0),
    Message('note_on', channel=9, note=55, velocity=66, time=0),
    Message('note_on', channel=9, note=52, velocity=66, time=0),
    Message('control_change', channel=9, control=7, value=92, time=4),
    Message('control_change', channel=9, control=7, value=93, time=4),
    Message('note_off', channel=9, note=52, velocity=0, time=4),
    Message('note_off', channel=9, note=55, velocity=0, time=0),
    Message('note_off', channel=9, note=81, velocity=0, time=0),
    Message('note_on', channel=9, note=81, velocity=70, time=0),
    Message('note_on', channel=9, note=55, velocity=70, time=0),
    Message('note_on', channel=9, note=52, velocity=70, time=0),
    Message('control_change', channel=9, control=7, value=94, time=1),
    Message('control_change', channel=9, control=7, value=95, time=4),
    Message('control_change', channel=9, control=7, value=96, time=4),
    Message('note_off', channel=9, note=52, velocity=0, time=3),
    Message('note_off', channel=9, note=55, velocity=0, time=0),
    Message('note_off', channel=9, note=81, velocity=0, time=0),
    Message('note_on', channel=9, note=81, velocity=74, time=0),
    Message('note_on', channel=9, note=55, velocity=74, time=0),
    Message('note_on', channel=9, note=52, velocity=74, time=0),
    Message('control_change', channel=9, control=7, value=97, time=1),
    Message('control_change', channel=9, control=7, value=98, time=4),
    Message('control_change', channel=9, control=7, value=99, time=4),
    Message('note_off', channel=9, note=52, velocity=0, time=3),
    Message('note_off', channel=9, note=55, velocity=0, time=0),
    Message('note_off', channel=9, note=81, velocity=0, time=0),
    Message('note_on', channel=9, note=81, velocity=78, time=0),
    Message('note_on', channel=9, note=55, velocity=78, time=0),
    Message('note_on', channel=9, note=52, velocity=78, time=0),
    Message('control_change', channel=9, control=7, value=100, time=1),
    Message('control_change', channel=9, control=7, value=101, time=4),
    Message('control_change', channel=9, control=7, value=102, time=4),
    Message('note_off', channel=9, note=52, velocity=0, time=3),
    Message('note_off', channel=9, note=55, velocity=0, time=0),
    Message('note_off', channel=9, note=81, velocity=0, time=0),
    Message('note_on', channel=9, note=81, velocity=82, time=0),
    Message('note_on', channel=9, note=55, velocity=82, time=0),
    Message('note_on', channel=9, note=52, velocity=82, time=0),
    Message('control_change', channel=9, control=7, value=103, time=2),
    Message('control_change', channel=9, control=7, value=104, time=4),
    Message('control_change', channel=9, control=7, value=105, time=4),
    Message('note_off', channel=9, note=52, velocity=0, time=2),
    Message('note_off', channel=9, note=55, velocity=0, time=0),
    Message('note_off', channel=9, note=81, velocity=0, time=0),
    Message('note_on', channel=9, note=81, velocity=86, time=0),
    Message('note_on', channel=9, note=55, velocity=86, time=0),
    Message('note_on', channel=9, note=52, velocity=86, time=0),
    Message('control_change', channel=9, control=7, value=106, time=2),
    Message('control_change', channel=9, control=7, value=107, time=4),
    Message('control_change', channel=9, control=7, value=108, time=4),
    Message('note_off', channel=9, note=52, velocity=0, time=2),
    Message('note_off', channel=9, note=55, velocity=0, time=0),
    Message('note_off', channel=9, note=81, velocity=0, time=0),
    Message('note_on', channel=9, note=81, velocity=90, time=0),
    Message('note_on', channel=9, note=55, velocity=90, time=0),
    Message('note_on', channel=9, note=52, velocity=90, time=0),
    Message('control_change', channel=9, control=7, value=109, time=2),
    Message('control_change', channel=9, control=7, value=110, time=4),
    Message('control_change', channel=9, control=7, value=111, time=4),
    Message('note_off', channel=9, note=52, velocity=0, time=2),
    Message('note_off', channel=9, note=55, velocity=0, time=0),
    Message('note_off', channel=9, note=81, velocity=0, time=0),
    Message('note_on', channel=9, note=81, velocity=94, time=0),
    Message('note_on', channel=9, note=55, velocity=94, time=0),
    Message('note_on', channel=9, note=52, velocity=94, time=0),
    Message('control_change', channel=9, control=7, value=112, time=3),
    Message('control_change', channel=9, control=7, value=113, time=4),
    Message('control_change', channel=9, control=7, value=114, time=4),
    Message('note_off', channel=9, note=52, velocity=0, time=1),
    Message('note_off', channel=9, note=55, velocity=0, time=0),
    Message('note_off', channel=9, note=81, velocity=0, time=0),
    Message('note_on', channel=9, note=81, velocity=98, time=0),
    Message('note_on', channel=9, note=55, velocity=98, time=0),
    Message('note_on', channel=9, note=52, velocity=98, time=0),
    Message('control_change', channel=9, control=7, value=115, time=3),
    Message('control_change', channel=9, control=7, value=116, time=4),
    Message('control_change', channel=9, control=7, value=117, time=4),
    Message('control_change', channel=9, control=7, value=118, time=4),
    Message('control_change', channel=9, control=7, value=119, time=4),
    Message('note_off', channel=9, note=81, velocity=0, time=4),
    Message('note_off', channel=9, note=55, velocity=0, time=0),
    Message('note_off', channel=9, note=52, velocity=0, time=0),
    Message('control_change', channel=9, control=7, value=120, time=1),
    Message('control_change', channel=9, control=101, value=0, time=1296),
    Message('control_change', channel=9, control=100, value=0, time=0),
    Message('control_change', channel=9, control=6, value=12, time=0),
    Message('control_change', channel=9, control=10, value=64, time=0),
    Message('control_change', channel=9, control=7, value=120, time=0),
    Message('pitchwheel', channel=9, pitch=0, time=0),
    Message('program_change', channel=9, program=48, time=0),
    Message('control_change', channel=9, control=7, value=127, time=0),
    Message('control_change', channel=9, control=10, value=64, time=0),
    Message('control_change', channel=9, control=101, value=0, time=1),
    Message('control_change', channel=9, control=100, value=0, time=0),
    Message('control_change', channel=9, control=6, value=12, time=0),
    Message('control_change', channel=9, control=10, value=64, time=0),
    Message('control_change', channel=9, control=7, value=120, time=0),
    Message('pitchwheel', channel=9, pitch=0, time=0),
    Message('program_change', channel=9, program=48, time=0),
    MetaMessage('end_of_track', time=0)]),
  MidiTrack([
    MetaMessage('track_name', name='Piano #7', time=0),
    Message('control_change', channel=5, control=10, value=64, time=0),
    Message('control_change', channel=5, control=7, value=127, time=0),
    Message('pitchwheel', channel=5, pitch=0, time=0),
    Message('control_change', channel=5, control=101, value=0, time=0),
    Message('control_change', channel=5, control=100, value=0, time=0),
    Message('control_change', channel=5, control=6, value=12, time=0),
    Message('control_change', channel=5, control=10, value=64, time=0),
    Message('control_change', channel=5, control=7, value=127, time=0),
    Message('pitchwheel', channel=5, pitch=0, time=0),
    Message('program_change', channel=5, program=0, time=0),
    Message('control_change', channel=5, control=7, value=127, time=0),
    Message('control_change', channel=5, control=10, value=64, time=0),
    Message('control_change', channel=5, control=101, value=0, time=0),
    Message('control_change', channel=5, control=100, value=0, time=0),
    Message('control_change', channel=5, control=6, value=12, time=0),
    Message('control_change', channel=5, control=10, value=64, time=0),
    Message('control_change', channel=5, control=7, value=127, time=0),
    Message('pitchwheel', channel=5, pitch=0, time=0),
    Message('program_change', channel=5, program=0, time=0),
    Message('control_change', channel=5, control=7, value=127, time=0),
    Message('control_change', channel=5, control=10, value=64, time=0),
    Message('control_change', channel=5, control=101, value=0, time=0),
    Message('control_change', channel=5, control=100, value=0, time=0),
    Message('control_change', channel=5, control=6, value=12, time=0),
    Message('control_change', channel=5, control=10, value=64, time=0),
    Message('control_change', channel=5, control=7, value=127, time=0),
    Message('pitchwheel', channel=5, pitch=0, time=0),
    Message('program_change', channel=5, program=0, time=0),
    Message('control_change', channel=5, control=7, value=110, time=51936),
    Message('note_on', channel=5, note=66, velocity=92, time=192),
    Message('note_off', channel=5, note=66, velocity=0, time=16),
    Message('note_on', channel=5, note=64, velocity=92, time=32),
    Message('note_off', channel=5, note=64, velocity=0, time=16),
    Message('note_on', channel=5, note=63, velocity=92, time=32),
    Message('note_off', channel=5, note=63, velocity=0, time=16),
    Message('note_on', channel=5, note=64, velocity=92, time=32),
    Message('note_off', channel=5, note=64, velocity=0, time=16),
    Message('note_on', channel=5, note=66, velocity=92, time=32),
    Message('note_off', channel=5, note=66, velocity=0, time=16),
    Message('note_on', channel=5, note=63, velocity=92, time=464),
    Message('note_off', channel=5, note=63, velocity=0, time=16),
    Message('note_on', channel=5, note=64, velocity=92, time=32),
    Message('note_off', channel=5, note=64, velocity=0, time=16),
    Message('note_on', channel=5, note=66, velocity=92, time=32),
    Message('note_off', channel=5, note=66, velocity=0, time=16),
    Message('control_change', channel=5, control=101, value=0, time=6368),
    Message('control_change', channel=5, control=100, value=0, time=0),
    Message('control_change', channel=5, control=6, value=12, time=0),
    Message('control_change', channel=5, control=10, value=64, time=0),
    Message('control_change', channel=5, control=7, value=110, time=0),
    Message('pitchwheel', channel=5, pitch=0, time=0),
    Message('program_change', channel=5, program=0, time=0),
    Message('control_change', channel=5, control=7, value=127, time=0),
    Message('control_change', channel=5, control=10, value=64, time=0),
    Message('control_change', channel=5, control=101, value=0, time=1),
    Message('control_change', channel=5, control=100, value=0, time=0),
    Message('control_change', channel=5, control=6, value=12, time=0),
    Message('control_change', channel=5, control=10, value=64, time=0),
    Message('control_change', channel=5, control=7, value=110, time=0),
    Message('pitchwheel', channel=5, pitch=0, time=0),
    Message('program_change', channel=5, program=0, time=0),
    MetaMessage('end_of_track', time=0)]),
  MidiTrack([
    MetaMessage('track_name', name='Harp #2', time=0),
    Message('control_change', channel=10, control=10, value=64, time=0),
    Message('control_change', channel=10, control=7, value=127, time=0),
    Message('pitchwheel', channel=10, pitch=0, time=0),
    Message('control_change', channel=10, control=101, value=0, time=0),
    Message('control_change', channel=10, control=100, value=0, time=0),
    Message('control_change', channel=10, control=6, value=12, time=0),
    Message('control_change', channel=10, control=10, value=64, time=0),
    Message('control_change', channel=10, control=7, value=127, time=0),
    Message('pitchwheel', channel=10, pitch=0, time=0),
    Message('program_change', channel=10, program=46, time=0),
    Message('program_change', channel=10, program=46, time=0),
    Message('control_change', channel=10, control=7, value=127, time=0),
    Message('control_change', channel=10, control=10, value=64, time=0),
    Message('control_change', channel=10, control=101, value=0, time=0),
    Message('control_change', channel=10, control=100, value=0, time=0),
    Message('control_change', channel=10, control=6, value=12, time=0),
    Message('control_change', channel=10, control=10, value=64, time=0),
    Message('control_change', channel=10, control=7, value=127, time=0),
    Message('pitchwheel', channel=10, pitch=0, time=0),
    Message('program_change', channel=10, program=46, time=0),
    Message('program_change', channel=10, program=46, time=0),
    Message('control_change', channel=10, control=7, value=127, time=0),
    Message('control_change', channel=10, control=10, value=64, time=0),
    Message('control_change', channel=10, control=101, value=0, time=0),
    Message('control_change', channel=10, control=100, value=0, time=0),
    Message('control_change', channel=10, control=6, value=12, time=0),
    Message('control_change', channel=10, control=10, value=64, time=0),
    Message('control_change', channel=10, control=7, value=127, time=0),
    Message('pitchwheel', channel=10, pitch=0, time=0),
    Message('program_change', channel=10, program=46, time=0),
    Message('control_change', channel=10, control=7, value=90, time=49056),
    Message('note_on', channel=10, note=81, velocity=60, time=0),
    Message('control_change', channel=10, control=7, value=91, time=8),
    Message('note_off', channel=10, note=81, velocity=0, time=4),
    Message('note_on', channel=10, note=82, velocity=62, time=0),
    Message('control_change', channel=10, control=7, value=92, time=4),
    Message('note_off', channel=10, note=82, velocity=0, time=8),
    Message('note_on', channel=10, note=84, velocity=64, time=0),
    Message('control_change', channel=10, control=7, value=93, time=1),
    Message('control_change', channel=10, control=7, value=94, time=8),
    Message('note_off', channel=10, note=84, velocity=0, time=3),
    Message('note_on', channel=10, note=86, velocity=66, time=0),
    Message('control_change', channel=10, control=7, value=95, time=5),
    Message('note_off', channel=10, note=86, velocity=0, time=7),
    Message('note_on', channel=10, note=88, velocity=68, time=0),
    Message('control_change', channel=10, control=7, value=96, time=2),
    Message('control_change', channel=10, control=7, value=97, time=8),
    Message('note_off', channel=10, note=88, velocity=0, time=2),
    Message('note_on', channel=10, note=89, velocity=70, time=0),
    Message('control_change', channel=10, control=7, value=98, time=7),
    Message('note_off', channel=10, note=89, velocity=0, time=5),
    Message('note_on', channel=10, note=92, velocity=72, time=0),
    Message('control_change', channel=10, control=7, value=99, time=3),
    Message('control_change', channel=10, control=7, value=100, time=8),
    Message('note_off', channel=10, note=92, velocity=0, time=1),
    Message('note_on', channel=10, note=93, velocity=75, time=0),
    Message('note_off', channel=10, note=93, velocity=0, time=12),
    Message('note_on', channel=10, note=94, velocity=75, time=0),
    Message('control_change', channel=10, control=7, value=99, time=8),
    Message('note_off', channel=10, note=94, velocity=0, time=4),
    Message('note_on', channel=10, note=96, velocity=75, time=0),
    Message('note_off', channel=10, note=96, velocity=0, time=12),
    Message('note_on', channel=10, note=98, velocity=74, time=0),
    Message('control_change', channel=10, control=7, value=98, time=4),
    Message('note_off', channel=10, note=98, velocity=0, time=8),
    Message('note_on', channel=10, note=96, velocity=73, time=0),
    Message('note_off', channel=10, note=96, velocity=0, time=12),
    Message('note_on', channel=10, note=94, velocity=72, time=0),
    Message('control_change', channel=10, control=7, value=97, time=1),
    Message('note_off', channel=10, note=94, velocity=0, time=11),
    Message('note_on', channel=10, note=93, velocity=71, time=0),
    Message('control_change', channel=10, control=7, value=96, time=9),
    Message('note_off', channel=10, note=93, velocity=0, time=3),
    Message('note_on', channel=10, note=92, velocity=70, time=0),
    Message('note_off', channel=10, note=92, velocity=0, time=12),
    Message('note_on', channel=10, note=89, velocity=69, time=0),
    Message('control_change', channel=10, control=7, value=95, time=5),
    Message('note_off', channel=10, note=89, velocity=0, time=7),
    Message('note_on', channel=10, note=88, velocity=68, time=0),
    Message('note_off', channel=10, note=88, velocity=0, time=12),
    Message('note_on', channel=10, note=86, velocity=67, time=0),
    Message('control_change', channel=10, control=7, value=94, time=2),
    Message('note_off', channel=10, note=86, velocity=0, time=10),
    Message('note_on', channel=10, note=84, velocity=66, time=0),
    Message('note_off', channel=10, note=84, velocity=0, time=8),
    Message('note_on', channel=10, note=83, velocity=66, time=0),
    Message('control_change', channel=10, control=7, value=93, time=2),
    Message('note_off', channel=10, note=83, velocity=0, time=6),
    Message('note_on', channel=10, note=82, velocity=66, time=0),
    Message('note_off', channel=10, note=82, velocity=0, time=8),
    Message('note_on', channel=10, note=81, velocity=66, time=0),
    Message('control_change', channel=10, control=7, value=92, time=7),
    Message('note_off', channel=10, note=81, velocity=0, time=1),
    Message('note_on', channel=10, note=80, velocity=65, time=0),
    Message('note_off', channel=10, note=80, velocity=0, time=8),
    Message('note_on', channel=10, note=77, velocity=64, time=0),
    Message('note_off', channel=10, note=77, velocity=0, time=8),
    Message('note_on', channel=10, note=76, velocity=63, time=0),
    Message('control_change', channel=10, control=7, value=91, time=3),
    Message('note_off', channel=10, note=76, velocity=0, time=5),
    Message('note_on', channel=10, note=77, velocity=62, time=0),
    Message('note_off', channel=10, note=77, velocity=0, time=8),
    Message('note_on', channel=10, note=80, velocity=61, time=0),
    Message('control_change', channel=10, control=7, value=90, time=7),
    Message('note_off', channel=10, note=80, velocity=0, time=1),
    Message('note_on', channel=10, note=81, velocity=60, time=0),
    Message('note_off', channel=10, note=81, velocity=0, time=12),
    Message('note_on', channel=10, note=82, velocity=60, time=0),
    Message('note_off', channel=10, note=82, velocity=0, time=12),
    Message('note_on', channel=10, note=84, velocity=60, time=0),
    Message('note_off', channel=10, note=84, velocity=0, time=12),
    Message('note_on', channel=10, note=82, velocity=60, time=0),
    Message('note_off', channel=10, note=82, velocity=0, time=12),
    Message('note_on', channel=10, note=81, velocity=60, time=0),
    Message('note_off', channel=10, note=81, velocity=0, time=12),
    Message('note_on', channel=10, note=80, velocity=60, time=0),
    Message('note_off', channel=10, note=80, velocity=0, time=12),
    Message('control_change', channel=10, control=7, value=100, time=0),
    Message('note_on', channel=10, note=81, velocity=75, time=0),
    Message('control_change', channel=10, control=7, value=99, time=3),
    Message('control_change', channel=10, control=7, value=98, time=4),
    Message('control_change', channel=10, control=7, value=97, time=3),
    Message('note_off', channel=10, note=81, velocity=0, time=2),
    Message('note_on', channel=10, note=82, velocity=70, time=0),
    Message('control_change', channel=10, control=7, value=96, time=2),
    Message('control_change', channel=10, control=7, value=95, time=3),
    Message('control_change', channel=10, control=7, value=94, time=4),
    Message('note_off', channel=10, note=82, velocity=0, time=3),
    Message('note_on', channel=10, note=84, velocity=65, time=0),
    Message('control_change', channel=10, control=7, value=93, time=1),
    Message('control_change', channel=10, control=7, value=92, time=3),
    Message('control_change', channel=10, control=7, value=91, time=4),
    Message('control_change', channel=10, control=7, value=90, time=3),
    Message('note_off', channel=10, note=84, velocity=0, time=1),
    Message('note_on', channel=10, note=82, velocity=60, time=0),
    Message('control_change', channel=10, control=7, value=91, time=6),
    Message('note_off', channel=10, note=82, velocity=0, time=6),
    Message('control_change', channel=10, control=7, value=92, time=0),
    Message('note_on', channel=10, note=81, velocity=63, time=0),
    Message('control_change', channel=10, control=7, value=93, time=6),
    Message('note_off', channel=10, note=81, velocity=0, time=6),
    Message('control_change', channel=10, control=7, value=94, time=0),
    Message('note_on', channel=10, note=80, velocity=66, time=0),
    Message('control_change', channel=10, control=7, value=95, time=6),
    Message('note_off', channel=10, note=80, velocity=0, time=6),
    Message('control_change', channel=10, control=7, value=96, time=0),
    Message('note_on', channel=10, note=81, velocity=69, time=0),
    Message('control_change', channel=10, control=7, value=97, time=6),
    Message('note_off', channel=10, note=81, velocity=0, time=6),
    Message('control_change', channel=10, control=7, value=98, time=0),
    Message('note_on', channel=10, note=82, velocity=72, time=0),
    Message('control_change', channel=10, control=7, value=99, time=6),
    Message('note_off', channel=10, note=82, velocity=0, time=6),
    Message('control_change', channel=10, control=7, value=100, time=0),
    Message('note_on', channel=10, note=86, velocity=75, time=0),
    Message('control_change', channel=10, control=7, value=99, time=4),
    Message('control_change', channel=10, control=7, value=98, time=5),
    Message('note_off', channel=10, note=86, velocity=0, time=3),
    Message('note_on', channel=10, note=84, velocity=72, time=0),
    Message('control_change', channel=10, control=7, value=97, time=2),
    Message('control_change', channel=10, control=7, value=96, time=5),
    Message('note_off', channel=10, note=84, velocity=0, time=5),
    Message('control_change', channel=10, control=7, value=95, time=0),
    Message('note_on', channel=10, note=82, velocity=68, time=0),
    Message('control_change', channel=10, control=7, value=94, time=4),
    Message('control_change', channel=10, control=7, value=93, time=5),
    Message('note_off', channel=10, note=82, velocity=0, time=3),
    Message('note_on', channel=10, note=81, velocity=64, time=0),
    Message('control_change', channel=10, control=7, value=92, time=2),
    Message('control_change', channel=10, control=7, value=91, time=5),
    Message('note_off', channel=10, note=81, velocity=0, time=5),
    Message('control_change', channel=10, control=7, value=90, time=0),
    Message('note_on', channel=10, note=80, velocity=60, time=0),
    Message('control_change', channel=10, control=7, value=91, time=7),
    Message('note_off', channel=10, note=80, velocity=0, time=5),
    Message('note_on', channel=10, note=77, velocity=62, time=0),
    Message('control_change', channel=10, control=7, value=92, time=2),
    Message('control_change', channel=10, control=7, value=93, time=7),
    Message('note_off', channel=10, note=77, velocity=0, time=3),
    Message('note_on', channel=10, note=76, velocity=64, time=0),
    Message('control_change', channel=10, control=7, value=94, time=4),
    Message('control_change', channel=10, control=7, value=95, time=7),
    Message('note_off', channel=10, note=76, velocity=0, time=1),
    Message('note_on', channel=10, note=74, velocity=66, time=0),
    Message('control_change', channel=10, control=7, value=96, time=7),
    Message('note_off', channel=10, note=74, velocity=0, time=5),
    Message('note_on', channel=10, note=72, velocity=69, time=0),
    Message('control_change', channel=10, control=7, value=97, time=2),
    Message('control_change', channel=10, control=7, value=98, time=7),
    Message('note_off', channel=10, note=72, velocity=0, time=3),
    Message('note_on', channel=10, note=70, velocity=72, time=0),
    Message('control_change', channel=10, control=7, value=99, time=4),
    Message('control_change', channel=10, control=7, value=100, time=7),
    Message('note_off', channel=10, note=70, velocity=0, time=1),
    Message('note_on', channel=10, note=69, velocity=75, time=0),
    Message('note_off', channel=10, note=69, velocity=0, time=47),
    Message('control_change', channel=10, control=101, value=0, time=9601),
    Message('control_change', channel=10, control=100, value=0, time=0),
    Message('control_change', channel=10, control=6, value=12, time=0),
    Message('control_change', channel=10, control=10, value=64, time=0),
    Message('control_change', channel=10, control=7, value=100, time=0),
    Message('pitchwheel', channel=10, pitch=0, time=0),
    Message('program_change', channel=10, program=46, time=0),
    Message('program_change', channel=10, program=46, time=0),
    Message('control_change', channel=10, control=7, value=127, time=0),
    Message('control_change', channel=10, control=10, value=64, time=0),
    Message('control_change', channel=10, control=101, value=0, time=1),
    Message('control_change', channel=10, control=100, value=0, time=0),
    Message('control_change', channel=10, control=6, value=12, time=0),
    Message('control_change', channel=10, control=10, value=64, time=0),
    Message('control_change', channel=10, control=7, value=100, time=0),
    Message('pitchwheel', channel=10, pitch=0, time=0),
    Message('program_change', channel=10, program=46, time=0),
    MetaMessage('end_of_track', time=0)]),
  MidiTrack([
    MetaMessage('track_name', name='Piano #8', time=0),
    Message('control_change', channel=13, control=10, value=64, time=0),
    Message('control_change', channel=13, control=7, value=127, time=0),
    Message('pitchwheel', channel=13, pitch=0, time=0),
    Message('control_change', channel=13, control=101, value=0, time=0),
    Message('control_change', channel=13, control=100, value=0, time=0),
    Message('control_change', channel=13, control=6, value=12, time=0),
    Message('control_change', channel=13, control=10, value=64, time=0),
    Message('control_change', channel=13, control=7, value=127, time=0),
    Message('pitchwheel', channel=13, pitch=0, time=0),
    Message('program_change', channel=13, program=0, time=0),
    Message('control_change', channel=13, control=7, value=127, time=0),
    Message('control_change', channel=13, control=10, value=64, time=0),
    Message('control_change', channel=13, control=101, value=0, time=0),
    Message('control_change', channel=13, control=100, value=0, time=0),
    Message('control_change', channel=13, control=6, value=12, time=0),
    Message('control_change', channel=13, control=10, value=64, time=0),
    Message('control_change', channel=13, control=7, value=127, time=0),
    Message('pitchwheel', channel=13, pitch=0, time=0),
    Message('program_change', channel=13, program=0, time=0),
    Message('control_change', channel=13, control=7, value=127, time=0),
    Message('control_change', channel=13, control=10, value=64, time=0),
    Message('control_change', channel=13, control=101, value=0, time=0),
    Message('control_change', channel=13, control=100, value=0, time=0),
    Message('control_change', channel=13, control=6, value=12, time=0),
    Message('control_change', channel=13, control=10, value=64, time=0),
    Message('control_change', channel=13, control=7, value=127, time=0),
    Message('pitchwheel', channel=13, pitch=0, time=0),
    Message('program_change', channel=13, program=0, time=0),
    Message('control_change', channel=13, control=101, value=0, time=59280),
    Message('control_change', channel=13, control=100, value=0, time=0),
    Message('control_change', channel=13, control=6, value=12, time=0),
    Message('control_change', channel=13, control=10, value=64, time=0),
    Message('control_change', channel=13, control=7, value=127, time=0),
    Message('pitchwheel', channel=13, pitch=0, time=0),
    Message('program_change', channel=13, program=0, time=0),
    Message('control_change', channel=13, control=7, value=127, time=0),
    Message('control_change', channel=13, control=10, value=64, time=0),
    Message('control_change', channel=13, control=101, value=0, time=1),
    Message('control_change', channel=13, control=100, value=0, time=0),
    Message('control_change', channel=13, control=6, value=12, time=0),
    Message('control_change', channel=13, control=10, value=64, time=0),
    Message('control_change', channel=13, control=7, value=127, time=0),
    Message('pitchwheel', channel=13, pitch=0, time=0),
    Message('program_change', channel=13, program=0, time=0),
    MetaMessage('end_of_track', time=0)]),
  MidiTrack([
    MetaMessage('track_name', name="John Williams - Hedwig's Theme", time=0),
    Message('control_change', channel=13, control=10, value=64, time=0),
    Message('control_change', channel=13, control=7, value=127, time=0),
    Message('pitchwheel', channel=13, pitch=0, time=0),
    Message('control_change', channel=13, control=101, value=0, time=0),
    Message('control_change', channel=13, control=100, value=0, time=0),
    Message('control_change', channel=13, control=6, value=12, time=0),
    Message('control_change', channel=13, control=10, value=64, time=0),
    Message('control_change', channel=13, control=7, value=127, time=0),
    Message('pitchwheel', channel=13, pitch=0, time=0),
    Message('program_change', channel=13, program=0, time=0),
    Message('control_change', channel=13, control=101, value=0, time=0),
    Message('control_change', channel=13, control=100, value=0, time=0),
    Message('control_change', channel=13, control=6, value=12, time=0),
    Message('control_change', channel=13, control=10, value=64, time=0),
    Message('control_change', channel=13, control=7, value=127, time=0),
    Message('pitchwheel', channel=13, pitch=0, time=0),
    Message('program_change', channel=13, program=0, time=0),
    Message('control_change', channel=13, control=101, value=0, time=0),
    Message('control_change', channel=13, control=100, value=0, time=0),
    Message('control_change', channel=13, control=6, value=12, time=0),
    Message('control_change', channel=13, control=10, value=64, time=0),
    Message('control_change', channel=13, control=7, value=127, time=0),
    Message('pitchwheel', channel=13, pitch=0, time=0),
    Message('program_change', channel=13, program=0, time=0),
    Message('control_change', channel=13, control=101, value=0, time=59280),
    Message('control_change', channel=13, control=100, value=0, time=0),
    Message('control_change', channel=13, control=6, value=12, time=0),
    Message('control_change', channel=13, control=10, value=64, time=0),
    Message('control_change', channel=13, control=7, value=127, time=0),
    Message('pitchwheel', channel=13, pitch=0, time=0),
    Message('program_change', channel=13, program=0, time=0),
    Message('control_change', channel=13, control=101, value=0, time=1),
    Message('control_change', channel=13, control=100, value=0, time=0),
    Message('control_change', channel=13, control=6, value=12, time=0),
    Message('control_change', channel=13, control=10, value=64, time=0),
    Message('control_change', channel=13, control=7, value=127, time=0),
    Message('pitchwheel', channel=13, pitch=0, time=0),
    Message('program_change', channel=13, program=0, time=0),
    MetaMessage('end_of_track', time=0)]),
  MidiTrack([
    MetaMessage('track_name', name='Carlo Prato', time=0),
    Message('control_change', channel=13, control=10, value=64, time=0),
    Message('control_change', channel=13, control=7, value=127, time=0),
    Message('pitchwheel', channel=13, pitch=0, time=0),
    Message('control_change', channel=13, control=101, value=0, time=0),
    Message('control_change', channel=13, control=100, value=0, time=0),
    Message('control_change', channel=13, control=6, value=12, time=0),
    Message('control_change', channel=13, control=10, value=64, time=0),
    Message('control_change', channel=13, control=7, value=127, time=0),
    Message('pitchwheel', channel=13, pitch=0, time=0),
    Message('program_change', channel=13, program=0, time=0),
    Message('control_change', channel=13, control=101, value=0, time=0),
    Message('control_change', channel=13, control=100, value=0, time=0),
    Message('control_change', channel=13, control=6, value=12, time=0),
    Message('control_change', channel=13, control=10, value=64, time=0),
    Message('control_change', channel=13, control=7, value=127, time=0),
    Message('pitchwheel', channel=13, pitch=0, time=0),
    Message('program_change', channel=13, program=0, time=0),
    Message('control_change', channel=13, control=101, value=0, time=0),
    Message('control_change', channel=13, control=100, value=0, time=0),
    Message('control_change', channel=13, control=6, value=12, time=0),
    Message('control_change', channel=13, control=10, value=64, time=0),
    Message('control_change', channel=13, control=7, value=127, time=0),
    Message('pitchwheel', channel=13, pitch=0, time=0),
    Message('program_change', channel=13, program=0, time=0),
    Message('control_change', channel=13, control=101, value=0, time=59280),
    Message('control_change', channel=13, control=100, value=0, time=0),
    Message('control_change', channel=13, control=6, value=12, time=0),
    Message('control_change', channel=13, control=10, value=64, time=0),
    Message('control_change', channel=13, control=7, value=127, time=0),
    Message('pitchwheel', channel=13, pitch=0, time=0),
    Message('program_change', channel=13, program=0, time=0),
    Message('control_change', channel=13, control=101, value=0, time=1),
    Message('control_change', channel=13, control=100, value=0, time=0),
    Message('control_change', channel=13, control=6, value=12, time=0),
    Message('control_change', channel=13, control=10, value=64, time=0),
    Message('control_change', channel=13, control=7, value=127, time=0),
    Message('pitchwheel', channel=13, pitch=0, time=0),
    Message('program_change', channel=13, program=0, time=0),
    MetaMessage('end_of_track', time=0)]),
  MidiTrack([
    MetaMessage('track_name', name='cprato.com', time=0),
    Message('control_change', channel=13, control=10, value=64, time=0),
    Message('control_change', channel=13, control=7, value=127, time=0),
    Message('pitchwheel', channel=13, pitch=0, time=0),
    Message('control_change', channel=13, control=101, value=0, time=0),
    Message('control_change', channel=13, control=100, value=0, time=0),
    Message('control_change', channel=13, control=6, value=12, time=0),
    Message('control_change', channel=13, control=10, value=64, time=0),
    Message('control_change', channel=13, control=7, value=127, time=0),
    Message('pitchwheel', channel=13, pitch=0, time=0),
    Message('program_change', channel=13, program=0, time=0),
    Message('control_change', channel=13, control=101, value=0, time=0),
    Message('control_change', channel=13, control=100, value=0, time=0),
    Message('control_change', channel=13, control=6, value=12, time=0),
    Message('control_change', channel=13, control=10, value=64, time=0),
    Message('control_change', channel=13, control=7, value=127, time=0),
    Message('pitchwheel', channel=13, pitch=0, time=0),
    Message('program_change', channel=13, program=0, time=0),
    Message('control_change', channel=13, control=101, value=0, time=0),
    Message('control_change', channel=13, control=100, value=0, time=0),
    Message('control_change', channel=13, control=6, value=12, time=0),
    Message('control_change', channel=13, control=10, value=64, time=0),
    Message('control_change', channel=13, control=7, value=127, time=0),
    Message('pitchwheel', channel=13, pitch=0, time=0),
    Message('program_change', channel=13, program=0, time=0),
    Message('control_change', channel=13, control=101, value=0, time=59280),
    Message('control_change', channel=13, control=100, value=0, time=0),
    Message('control_change', channel=13, control=6, value=12, time=0),
    Message('control_change', channel=13, control=10, value=64, time=0),
    Message('control_change', channel=13, control=7, value=127, time=0),
    Message('pitchwheel', channel=13, pitch=0, time=0),
    Message('program_change', channel=13, program=0, time=0),
    Message('control_change', channel=13, control=101, value=0, time=1),
    Message('control_change', channel=13, control=100, value=0, time=0),
    Message('control_change', channel=13, control=6, value=12, time=0),
    Message('control_change', channel=13, control=10, value=64, time=0),
    Message('control_change', channel=13, control=7, value=127, time=0),
    Message('pitchwheel', channel=13, pitch=0, time=0),
    Message('program_change', channel=13, program=0, time=0),
    MetaMessage('end_of_track', time=0)])
])