MidiFile(type=1, ticks_per_beat=120, tracks=[
  MidiTrack([
    MetaMessage('time_signature', numerator=4, denominator=4, clocks_per_click=24, notated_32nd_notes_per_beat=8, time=0),
    MetaMessage('track_name', name='meta', time=0),
    MetaMessage('key_signature', key='C', time=0),
    MetaMessage('set_tempo', tempo=500000, time=0),
    MetaMessage('end_of_track', time=0)]),
  MidiTrack([
    MetaMessage('track_name', name='Strings', time=0),
    Message('program_change', channel=0, program=81, time=0),
    Message('note_on', channel=0, note=82, velocity=64, time=480),
    Message('note_on', channel=0, note=82, velocity=0, time=1285),
    Message('note_on', channel=0, note=81, velocity=64, time=58),
    Message('note_on', channel=0, note=81, velocity=0, time=23),
    Message('note_on', channel=0, note=84, velocity=64, time=24),
    Message('note_on', channel=0, note=84, velocity=0, time=22),
    Message('note_on', channel=0, note=87, velocity=64, time=23),
    Message('note_on', channel=0, note=87, velocity=0, time=26),
    Message('note_on', channel=0, note=91, velocity=64, time=24),
    Message('note_on', channel=0, note=91, velocity=0, time=26),
    Message('note_on', channel=0, note=94, velocity=64, time=22),
    Message('note_on', channel=0, note=94, velocity=0, time=1536),
    Message('note_on', channel=0, note=60, velocity=64, time=57),
    Message('note_on', channel=0, note=60, velocity=0, time=12),
    Message('note_on', channel=0, note=59, velocity=64, time=4),
    Message('note_on', channel=0, note=59, velocity=0, time=18),
    Message('note_on', channel=0, note=60, velocity=64, time=2),
    Message('note_on', channel=0, note=60, velocity=0, time=16),
    Message('note_on', channel=0, note=62, velocity=64, time=2),
    Message('note_on', channel=0, note=62, velocity=0, time=20),
    Message('note_on', channel=0, note=63, velocity=64, time=0),
    Message('note_on', channel=0, note=63, velocity=0, time=13),
    Message('note_on', channel=0, note=64, velocity=64, time=4),
    Message('note_on', channel=0, note=64, velocity=0, time=18),
    Message('note_on', channel=0, note=65, velocity=64, time=3),
    Message('note_on', channel=0, note=65, velocity=0, time=15),
    Message('note_on', channel=0, note=64, velocity=64, time=4),
    Message('note_on', channel=0, note=64, velocity=0, time=18),
    Message('note_on', channel=0, note=65, velocity=64, time=2),
    Message('note_on', channel=0, note=65, velocity=0, time=18),
    Message('note_on', channel=0, note=67, velocity=64, time=3),
    Message('note_on', channel=0, note=67, velocity=0, time=15),
    Message('note_on', channel=0, note=69, velocity=64, time=4),
    Message('note_on', channel=0, note=69, velocity=0, time=15),
    Message('note_on', channel=0, note=70, velocity=64, time=4),
    Message('note_on', channel=0, note=70, velocity=0, time=15),
    Message('note_on', channel=0, note=72, velocity=64, time=8),
    Message('note_on', channel=0, note=72, velocity=0, time=15),
    Message('note_on', channel=0, note=74, velocity=64, time=6),
    Message('note_on', channel=0, note=74, velocity=0, time=22),
    Message('note_on', channel=0, note=77, velocity=64, time=13),
    Message('note_on', channel=0, note=77, velocity=0, time=25),
    Message('note_on', channel=0, note=81, velocity=64, time=13),
    Message('note_on', channel=0, note=81, velocity=0, time=30),
    Message('note_on', channel=0, note=82, velocity=64, time=39),
    Message('note_on', channel=0, note=82, velocity=0, time=26),
    Message('note_on', channel=0, note=82, velocity=64, time=12),
    Message('note_on', channel=0, note=82, velocity=0, time=21),
    Message('note_on', channel=0, note=82, velocity=64, time=14),
    Message('note_on', channel=0, note=82, velocity=0, time=21),
    Message('note_on', channel=0, note=82, velocity=64, time=20),
    Message('note_on', channel=0, note=82, velocity=0, time=22),
    Message('note_on', channel=0, note=82, velocity=64, time=12),
    Message('note_on', channel=0, note=82, velocity=0, time=22),
    Message('note_on', channel=0, note=82, velocity=64, time=17),
    Message('note_on', channel=0, note=82, velocity=0, time=21),
    Message('note_on', channel=0, note=82, velocity=64, time=25),
    Message('note_on', channel=0, note=82, velocity=0, time=25),
    Message('note_on', channel=0, note=82, velocity=64, time=15),
    Message('note_on', channel=0, note=82, velocity=0, time=23),
    Message('note_on', channel=0, note=82, velocity=64, time=16),
    Message('note_on', channel=0, note=82, velocity=0, time=19),
    Message('note_on', channel=0, note=82, velocity=64, time=22),
    Message('note_on', channel=0, note=82, velocity=0, time=25),
    Message('note_on', channel=0, note=82, velocity=64, time=15),
    Message('note_on', channel=0, note=82, velocity=0, time=23),
    Message('note_on', channel=0, note=82, velocity=64, time=17),
    Message('note_on', channel=0, note=82, velocity=0, time=21),
    Message('note_on', channel=0, note=82, velocity=64, time=24),
    Message('note_on', channel=0, note=82, velocity=0, time=21),
    Message('note_on', channel=0, note=82, velocity=64, time=15),
    Message('note_on', channel=0, note=82, velocity=0, time=22),
    Message('note_on', channel=0, note=82, velocity=64, time=15),
    Message('note_on', channel=0, note=82, velocity=0, time=20),
    Message('note_on', channel=0, note=82, velocity=64, time=22),
    Message('note_on', channel=0, note=82, velocity=0, time=24),
    Message('note_on', channel=0, note=82, velocity=64, time=15),
    Message('note_on', channel=0, note=82, velocity=0, time=24),
    Message('note_on', channel=0, note=82, velocity=64, time=15),
    Message('note_on', channel=0, note=82, velocity=0, time=19),
    Message('note_on', channel=0, note=82, velocity=64, time=24),
    Message('note_on', channel=0, note=82, velocity=0, time=24),
    Message('note_on', channel=0, note=82, velocity=64, time=16),
    Message('note_on', channel=0, note=82, velocity=0, time=23),
    Message('note_on', channel=0, note=82, velocity=64, time=20),
    Message('note_on', channel=0, note=82, velocity=0, time=19),
    Message('note_on', channel=0, note=82, velocity=64, time=25),
    Message('note_on', channel=0, note=82, velocity=0, time=23),
    Message('note_on', channel=0, note=82, velocity=64, time=15),
    Message('note_on', channel=0, note=82, velocity=0, time=23),
    Message('note_on', channel=0, note=82, velocity=64, time=15),
    Message('note_on', channel=0, note=82, velocity=0, time=20),
    Message('note_on', channel=0, note=82, velocity=64, time=21),
    Message('note_on', channel=0, note=82, velocity=0, time=20),
    Message('note_on', channel=0, note=82, velocity=64, time=15),
    Message('note_on', channel=0, note=82, velocity=0, time=24),
    Message('note_on', channel=0, note=82, velocity=64, time=19),
    Message('note_on', channel=0, note=82, velocity=0, time=18),
    Message('note_on', channel=0, note=82, velocity=64, time=25),
    Message('note_on', channel=0, note=82, velocity=0, time=23),
    Message('note_on', channel=0, note=82, velocity=64, time=16),
    Message('note_on', channel=0, note=82, velocity=0, time=27),
    Message('note_on', channel=0, note=82, velocity=64, time=14),
    Message('note_on', channel=0, note=82, velocity=0, time=20),
    Message('note_on', channel=0, note=82, velocity=64, time=20),
    Message('note_on', channel=0, note=82, velocity=0, time=19),
    Message('note_on', channel=0, note=82, velocity=64, time=15),
    Message('note_on', channel=0, note=82, velocity=0, time=25),
    Message('note_on', channel=0, note=82, velocity=64, time=17),
    Message('note_on', channel=0, note=82, velocity=0, time=18),
    Message('note_on', channel=0, note=82, velocity=64, time=23),
    Message('note_on', channel=0, note=82, velocity=0, time=23),
    Message('note_on', channel=0, note=82, velocity=64, time=17),
    Message('note_on', channel=0, note=82, velocity=0, time=26),
    Message('note_on', channel=0, note=80, velocity=64, time=18),
    Message('note_on', channel=0, note=80, velocity=0, time=16),
    Message('note_on', channel=0, note=79, velocity=64, time=19),
    Message('note_on', channel=0, note=79, velocity=0, time=20),
    Message('note_on', channel=0, note=80, velocity=64, time=16),
    Message('note_on', channel=0, note=80, velocity=0, time=20),
    Message('note_on', channel=0, note=77, velocity=64, time=18),
    Message('note_on', channel=0, note=77, velocity=0, time=175),
    Message('note_on', channel=0, note=77, velocity=64, time=65),
    Message('note_on', channel=0, note=77, velocity=0, time=83),
    Message('note_on', channel=0, note=77, velocity=64, time=11),
    Message('note_on', channel=0, note=77, velocity=0, time=36),
    Message('note_on', channel=0, note=79, velocity=64, time=0),
    Message('note_on', channel=0, note=79, velocity=0, time=165),
    Message('note_on', channel=0, note=79, velocity=64, time=0),
    Message('note_on', channel=0, note=79, velocity=0, time=165),
    Message('note_on', channel=0, note=84, velocity=64, time=11),
    Message('note_on', channel=0, note=84, velocity=0, time=65),
    Message('note_on', channel=0, note=82, velocity=64, time=63),
    Message('note_on', channel=0, note=82, velocity=0, time=48),
    Message('note_on', channel=0, note=86, velocity=64, time=25),
    Message('note_on', channel=0, note=86, velocity=0, time=46),
    Message('note_on', channel=0, note=84, velocity=64, time=2),
    Message('note_on', channel=0, note=84, velocity=0, time=85),
    Message('note_on', channel=0, note=79, velocity=64, time=4),
    Message('note_on', channel=0, note=79, velocity=0, time=35),
    Message('note_on', channel=0, note=81, velocity=64, time=1),
    Message('note_on', channel=0, note=81, velocity=0, time=112),
    Message('note_on', channel=0, note=77, velocity=64, time=6),
    Message('note_on', channel=0, note=77, velocity=0, time=70),
    Message('note_on', channel=0, note=77, velocity=64, time=19),
    Message('note_on', channel=0, note=77, velocity=0, time=41),
    Message('note_on', channel=0, note=79, velocity=64, time=169),
    Message('note_on', channel=0, note=79, velocity=0, time=27),
    Message('note_on', channel=0, note=87, velocity=64, time=30),
    Message('note_on', channel=0, note=87, velocity=0, time=55),
    Message('note_on', channel=0, note=86, velocity=64, time=1),
    Message('note_on', channel=0, note=86, velocity=0, time=55),
    Message('note_on', channel=0, note=84, velocity=64, time=1),
    Message('note_on', channel=0, note=84, velocity=0, time=61),
    Message('note_on', channel=0, note=82, velocity=64, time=2),
    Message('note_on', channel=0, note=82, velocity=0, time=40),
    Message('note_on', channel=0, note=89, velocity=64, time=13),
    Message('note_on', channel=0, note=89, velocity=0, time=102),
    Message('note_on', channel=0, note=84, velocity=64, time=1),
    Message('note_on', channel=0, note=84, velocity=0, time=20),
    Message('note_on', channel=0, note=84, velocity=64, time=5),
    Message('note_on', channel=0, note=84, velocity=0, time=329),
    Message('note_on', channel=0, note=77, velocity=64, time=10),
    Message('note_on', channel=0, note=77, velocity=0, time=36),
    Message('note_on', channel=0, note=79, velocity=64, time=165),
    Message('note_on', channel=0, note=79, velocity=0, time=61),
    Message('note_on', channel=0, note=86, velocity=64, time=61),
    Message('note_on', channel=0, note=86, velocity=0, time=51),
    Message('note_on', channel=0, note=84, velocity=64, time=3),
    Message('note_on', channel=0, note=84, velocity=0, time=65),
    Message('note_on', channel=0, note=82, velocity=64, time=63),
    Message('note_on', channel=0, note=82, velocity=0, time=48),
    Message('note_on', channel=0, note=86, velocity=64, time=25),
    Message('note_on', channel=0, note=86, velocity=0, time=46),
    Message('note_on', channel=0, note=84, velocity=64, time=2),
    Message('note_on', channel=0, note=84, velocity=0, time=85),
    Message('note_on', channel=0, note=79, velocity=64, time=4),
    Message('note_on', channel=0, note=79, velocity=0, time=28),
    Message('note_on', channel=0, note=81, velocity=64, time=8),
    Message('note_on', channel=0, note=81, velocity=0, time=112),
    Message('note_on', channel=0, note=89, velocity=64, time=15),
    Message('note_on', channel=0, note=89, velocity=0, time=68),
    Message('note_on', channel=0, note=89, velocity=64, time=21),
    Message('note_on', channel=0, note=89, velocity=0, time=20),
    Message('note_on', channel=0, note=94, velocity=64, time=3),
    Message('note_on', channel=0, note=94, velocity=0, time=60),
    Message('note_on', channel=0, note=89, velocity=64, time=38),
    Message('note_on', channel=0, note=89, velocity=0, time=18),
    Message('note_on', channel=0, note=90, velocity=64, time=4),
    Message('note_on', channel=0, note=90, velocity=0, time=54),
    Message('note_on', channel=0, note=85, velocity=64, time=42),
    Message('note_on', channel=0, note=85, velocity=0, time=16),
    Message('note_on', channel=0, note=87, velocity=64, time=14),
    Message('note_on', channel=0, note=87, velocity=0, time=45),
    Message('note_on', channel=0, note=82, velocity=64, time=42),
    Message('note_on', channel=0, note=82, velocity=0, time=16),
    Message('note_on', channel=0, note=80, velocity=64, time=16),
    Message('note_on', channel=0, note=80, velocity=0, time=49),
    Message('note_on', channel=0, note=82, velocity=64, time=34),
    Message('note_on', channel=0, note=82, velocity=0, time=11),
    Message('note_on', channel=0, note=89, velocity=64, time=28),
    Message('note_on', channel=0, note=89, velocity=0, time=355),
    Message('note_on', channel=0, note=65, velocity=64, time=3),
    Message('note_on', channel=0, note=65, velocity=0, time=22),
    Message('note_on', channel=0, note=65, velocity=64, time=68),
    Message('note_on', channel=0, note=65, velocity=0, time=22),
    Message('note_on', channel=0, note=65, velocity=64, time=8),
    Message('note_on', channel=0, note=65, velocity=0, time=22),
    Message('note_on', channel=0, note=65, velocity=64, time=68),
    Message('note_on', channel=0, note=65, velocity=0, time=22),
    Message('note_on', channel=0, note=65, velocity=64, time=8),
    Message('note_on', channel=0, note=65, velocity=0, time=22),
    MetaMessage('end_of_track', time=0)]),
  MidiTrack([
    MetaMessage('track_name', name='String 2', time=0),
    Message('program_change', channel=1, program=81, time=0),
    Message('note_on', channel=1, note=62, velocity=64, time=480),
    Message('note_on', channel=1, note=62, velocity=0, time=150),
    Message('note_on', channel=1, note=34, velocity=64, time=1481),
    Message('note_on', channel=1, note=34, velocity=0, time=4),
    Message('note_on', channel=1, note=41, velocity=64, time=15),
    Message('note_on', channel=1, note=41, velocity=0, time=2),
    Message('note_on', channel=1, note=34, velocity=64, time=17),
    Message('note_on', channel=1, note=34, velocity=0, time=144),
    Message('note_on', channel=1, note=41, velocity=64, time=47),
    Message('note_on', channel=1, note=41, velocity=0, time=10),
    Message('note_on', channel=1, note=41, velocity=64, time=10),
    Message('note_on', channel=1, note=41, velocity=0, time=8),
    Message('note_on', channel=1, note=41, velocity=64, time=8),
    Message('note_on', channel=1, note=41, velocity=0, time=8),
    Message('note_on', channel=1, note=41, velocity=64, time=19),
    Message('note_on', channel=1, note=41, velocity=0, time=22),
    Message('note_on', channel=1, note=56, velocity=64, time=35),
    Message('note_on', channel=1, note=56, velocity=0, time=20),
    Message('note_on', channel=1, note=29, velocity=64, time=100),
    Message('note_on', channel=1, note=29, velocity=0, time=38),
    Message('note_on', channel=1, note=56, velocity=64, time=82),
    Message('note_on', channel=1, note=56, velocity=0, time=36),
    Message('note_on', channel=1, note=58, velocity=64, time=27),
    Message('note_on', channel=1, note=58, velocity=0, time=21),
    Message('note_on', channel=1, note=29, velocity=64, time=34),
    Message('note_on', channel=1, note=29, velocity=0, time=13),
    Message('note_on', channel=1, note=58, velocity=64, time=9),
    Message('note_on', channel=1, note=58, velocity=0, time=10),
    Message('note_on', channel=1, note=58, velocity=64, time=9),
    Message('note_on', channel=1, note=58, velocity=0, time=13),
    Message('note_on', channel=1, note=50, velocity=64, time=9),
    Message('note_on', channel=1, note=50, velocity=0, time=16),
    Message('note_on', channel=1, note=58, velocity=64, time=24),
    Message('note_on', channel=1, note=58, velocity=0, time=15),
    Message('note_on', channel=1, note=46, velocity=64, time=25),
    Message('note_on', channel=1, note=46, velocity=0, time=20),
    Message('note_on', channel=1, note=58, velocity=64, time=79),
    Message('note_on', channel=1, note=58, velocity=0, time=36),
    Message('note_on', channel=1, note=56, velocity=64, time=84),
    Message('note_on', channel=1, note=56, velocity=0, time=36),
    Message('note_on', channel=1, note=51, velocity=64, time=27),
    Message('note_on', channel=1, note=51, velocity=0, time=21),
    Message('note_on', channel=1, note=29, velocity=64, time=34),
    Message('note_on', channel=1, note=29, velocity=0, time=13),
    Message('note_on', channel=1, note=51, velocity=64, time=9),
    Message('note_on', channel=1, note=51, velocity=0, time=10),
    Message('note_on', channel=1, note=51, velocity=64, time=9),
    Message('note_on', channel=1, note=51, velocity=0, time=13),
    Message('note_on', channel=1, note=51, velocity=64, time=9),
    Message('note_on', channel=1, note=51, velocity=0, time=16),
    Message('note_on', channel=1, note=58, velocity=64, time=24),
    Message('note_on', channel=1, note=58, velocity=0, time=15),
    Message('note_on', channel=1, note=46, velocity=64, time=25),
    Message('note_on', channel=1, note=46, velocity=0, time=20),
    Message('note_on', channel=1, note=41, velocity=64, time=142),
    Message('note_on', channel=1, note=41, velocity=0, time=26),
    Message('note_on', channel=1, note=41, velocity=64, time=147),
    Message('note_on', channel=1, note=41, velocity=0, time=13),
    Message('note_on', channel=1, note=41, velocity=64, time=7),
    Message('note_on', channel=1, note=41, velocity=0, time=11),
    Message('note_on', channel=1, note=41, velocity=64, time=6),
    Message('note_on', channel=1, note=41, velocity=0, time=12),
    Message('note_on', channel=1, note=41, velocity=64, time=13),
    Message('note_on', channel=1, note=41, velocity=0, time=30),
    Message('note_on', channel=1, note=41, velocity=64, time=28),
    Message('note_on', channel=1, note=41, velocity=0, time=26),
    Message('note_on', channel=1, note=34, velocity=64, time=36),
    Message('note_on', channel=1, note=34, velocity=0, time=105),
    Message('note_on', channel=1, note=33, velocity=64, time=13),
    Message('note_on', channel=1, note=33, velocity=0, time=97),
    Message('note_on', channel=1, note=33, velocity=64, time=24),
    Message('note_on', channel=1, note=33, velocity=0, time=75),
    Message('note_on', channel=1, note=46, velocity=64, time=47),
    Message('note_on', channel=1, note=46, velocity=0, time=18),
    Message('note_on', channel=1, note=34, velocity=64, time=21),
    Message('note_on', channel=1, note=34, velocity=0, time=18),
    Message('note_on', channel=1, note=33, velocity=64, time=15),
    Message('note_on', channel=1, note=33, velocity=0, time=22),
    Message('note_on', channel=1, note=31, velocity=64, time=25),
    Message('note_on', channel=1, note=31, velocity=0, time=108),
    Message('note_on', channel=1, note=31, velocity=64, time=14),
    Message('note_on', channel=1, note=31, velocity=0, time=81),
    Message('note_on', channel=1, note=39, velocity=64, time=2),
    Message('note_on', channel=1, note=39, velocity=0, time=21),
    Message('note_on', channel=1, note=39, velocity=64, time=17),
    Message('note_on', channel=1, note=39, velocity=0, time=20),
    Message('note_on', channel=1, note=38, velocity=64, time=22),
    Message('note_on', channel=1, note=38, velocity=0, time=19),
    Message('note_on', channel=1, note=36, velocity=64, time=21),
    Message('note_on', channel=1, note=36, velocity=0, time=19),
    Message('note_on', channel=1, note=34, velocity=64, time=25),
    Message('note_on', channel=1, note=34, velocity=0, time=20),
    Message('note_on', channel=1, note=33, velocity=64, time=18),
    Message('note_on', channel=1, note=33, velocity=0, time=18),
    Message('note_on', channel=1, note=31, velocity=64, time=20),
    Message('note_on', channel=1, note=31, velocity=0, time=21),
    Message('note_on', channel=1, note=29, velocity=64, time=23),
    Message('note_on', channel=1, note=29, velocity=0, time=85),
    Message('note_on', channel=1, note=31, velocity=64, time=29),
    Message('note_on', channel=1, note=31, velocity=0, time=26),
    Message('note_on', channel=1, note=33, velocity=64, time=29),
    Message('note_on', channel=1, note=33, velocity=0, time=26),
    Message('note_on', channel=1, note=34, velocity=64, time=32),
    Message('note_on', channel=1, note=34, velocity=0, time=21),
    Message('note_on', channel=1, note=33, velocity=64, time=20),
    Message('note_on', channel=1, note=33, velocity=0, time=16),
    Message('note_on', channel=1, note=31, velocity=64, time=22),
    Message('note_on', channel=1, note=31, velocity=0, time=22),
    Message('note_on', channel=1, note=29, velocity=64, time=22),
    Message('note_on', channel=1, note=29, velocity=0, time=28),
    Message('note_on', channel=1, note=34, velocity=64, time=34),
    Message('note_on', channel=1, note=34, velocity=0, time=34),
    Message('note_on', channel=1, note=53, velocity=64, time=24),
    Message('note_on', channel=1, note=53, velocity=0, time=87),
    Message('note_on', channel=1, note=29, velocity=64, time=27),
    Message('note_on', channel=1, note=29, velocity=0, time=20),
    Message('note_on', channel=1, note=29, velocity=64, time=16),
    Message('note_on', channel=1, note=29, velocity=0, time=19),
    Message('note_on', channel=1, note=29, velocity=64, time=19),
    Message('note_on', channel=1, note=29, velocity=0, time=20),
    Message('note_on', channel=1, note=29, velocity=64, time=26),
    Message('note_on', channel=1, note=29, velocity=0, time=105),
    Message('note_on', channel=1, note=65, velocity=64, time=15),
    Message('note_on', channel=1, note=65, velocity=0, time=83),
    Message('note_on', channel=1, note=65, velocity=64, time=11),
    Message('note_on', channel=1, note=65, velocity=0, time=36),
    Message('note_on', channel=1, note=67, velocity=64, time=0),
    Message('note_on', channel=1, note=67, velocity=0, time=165),
    Message('note_on', channel=1, note=67, velocity=64, time=0),
    Message('note_on', channel=1, note=67, velocity=0, time=165),
    Message('note_on', channel=1, note=72, velocity=64, time=11),
    Message('note_on', channel=1, note=72, velocity=0, time=65),
    Message('note_on', channel=1, note=70, velocity=64, time=63),
    Message('note_on', channel=1, note=70, velocity=0, time=48),
    Message('note_on', channel=1, note=74, velocity=64, time=25),
    Message('note_on', channel=1, note=74, velocity=0, time=46),
    Message('note_on', channel=1, note=72, velocity=64, time=2),
    Message('note_on', channel=1, note=72, velocity=0, time=85),
    Message('note_on', channel=1, note=67, velocity=64, time=4),
    Message('note_on', channel=1, note=67, velocity=0, time=35),
    Message('note_on', channel=1, note=69, velocity=64, time=1),
    Message('note_on', channel=1, note=69, velocity=0, time=112),
    Message('note_on', channel=1, note=29, velocity=64, time=3),
    Message('note_on', channel=1, note=29, velocity=0, time=158),
    Message('note_on', channel=1, note=29, velocity=64, time=77),
    Message('note_on', channel=1, note=29, velocity=0, time=178),
    Message('note_on', channel=1, note=74, velocity=64, time=2),
    Message('note_on', channel=1, note=74, velocity=0, time=55),
    Message('note_on', channel=1, note=72, velocity=64, time=1),
    Message('note_on', channel=1, note=72, velocity=0, time=61),
    Message('note_on', channel=1, note=70, velocity=64, time=2),
    Message('note_on', channel=1, note=70, velocity=0, time=40),
    Message('note_on', channel=1, note=77, velocity=64, time=13),
    Message('note_on', channel=1, note=77, velocity=0, time=102),
    Message('note_on', channel=1, note=72, velocity=64, time=1),
    Message('note_on', channel=1, note=72, velocity=0, time=20),
    Message('note_on', channel=1, note=72, velocity=64, time=5),
    Message('note_on', channel=1, note=72, velocity=0, time=329),
    Message('note_on', channel=1, note=65, velocity=64, time=10),
    Message('note_on', channel=1, note=65, velocity=0, time=36),
    Message('note_on', channel=1, note=67, velocity=64, time=165),
    Message('note_on', channel=1, note=67, velocity=0, time=61),
    Message('note_on', channel=1, note=36, velocity=64, time=5),
    Message('note_on', channel=1, note=36, velocity=0, time=235),
    Message('note_on', channel=1, note=70, velocity=64, time=3),
    Message('note_on', channel=1, note=70, velocity=0, time=48),
    Message('note_on', channel=1, note=74, velocity=64, time=25),
    Message('note_on', channel=1, note=74, velocity=0, time=46),
    Message('note_on', channel=1, note=72, velocity=64, time=2),
    Message('note_on', channel=1, note=72, velocity=0, time=85),
    Message('note_on', channel=1, note=67, velocity=64, time=4),
    Message('note_on', channel=1, note=67, velocity=0, time=28),
    Message('note_on', channel=1, note=69, velocity=64, time=8),
    Message('note_on', channel=1, note=69, velocity=0, time=112),
    Message('note_on', channel=1, note=41, velocity=64, time=10),
    Message('note_on', channel=1, note=41, velocity=0, time=64),
    Message('note_on', channel=1, note=53, velocity=64, time=28),
    Message('note_on', channel=1, note=53, velocity=0, time=26),
    Message('note_on', channel=1, note=36, velocity=64, time=2),
    Message('note_on', channel=1, note=36, velocity=0, time=76),
    Message('note_on', channel=1, note=38, velocity=64, time=16),
    Message('note_on', channel=1, note=38, velocity=0, time=19),
    Message('note_on', channel=1, note=39, velocity=64, time=11),
    Message('note_on', channel=1, note=39, velocity=0, time=69),
    Message('note_on', channel=1, note=53, velocity=64, time=23),
    Message('note_on', channel=1, note=53, velocity=0, time=23),
    Message('note_on', channel=1, note=54, velocity=64, time=6),
    Message('note_on', channel=1, note=54, velocity=0, time=71),
    Message('note_on', channel=1, note=44, velocity=64, time=28),
    Message('note_on', channel=1, note=44, velocity=0, time=13),
    Message('note_on', channel=1, note=46, velocity=64, time=14),
    Message('note_on', channel=1, note=46, velocity=0, time=68),
    Message('note_on', channel=1, note=53, velocity=64, time=45),
    Message('note_on', channel=1, note=53, velocity=0, time=192),
    Message('note_on', channel=1, note=53, velocity=64, time=18),
    Message('note_on', channel=1, note=53, velocity=0, time=27),
    Message('note_on', channel=1, note=53, velocity=64, time=3),
    Message('note_on', channel=1, note=53, velocity=0, time=27),
    Message('note_on', channel=1, note=53, velocity=64, time=3),
    Message('note_on', channel=1, note=53, velocity=0, time=27),
    Message('note_on', channel=1, note=53, velocity=64, time=3),
    Message('note_on', channel=1, note=53, velocity=0, time=27),
    Message('note_on', channel=1, note=53, velocity=64, time=3),
    Message('note_on', channel=1, note=53, velocity=0, time=27),
    Message('note_on', channel=1, note=53, velocity=64, time=3),
    Message('note_on', channel=1, note=53, velocity=0, time=27),
    Message('note_on', channel=1, note=53, velocity=64, time=63),
    Message('note_on', channel=1, note=53, velocity=0, time=27),
    Message('note_on', channel=1, note=53, velocity=64, time=3),
    Message('note_on', channel=1, note=53, velocity=0, time=27),
    Message('note_on', channel=1, note=53, velocity=64, time=63),
    Message('note_on', channel=1, note=53, velocity=0, time=27),
    Message('note_on', channel=1, note=53, velocity=64, time=3),
    Message('note_on', channel=1, note=53, velocity=0, time=27),
    MetaMessage('end_of_track', time=0)]),
  MidiTrack([
    MetaMessage('track_name', name='Horns', time=0),
    Message('program_change', channel=2, program=81, time=0),
    Message('note_on', channel=2, note=58, velocity=64, time=602),
    Message('note_on', channel=2, note=58, velocity=0, time=163),
    Message('note_on', channel=2, note=58, velocity=64, time=17),
    Message('note_on', channel=2, note=58, velocity=0, time=22),
    Message('note_on', channel=2, note=58, velocity=64, time=38),
    Message('note_on', channel=2, note=58, velocity=0, time=25),
    Message('note_on', channel=2, note=58, velocity=64, time=15),
    Message('note_on', channel=2, note=58, velocity=0, time=17),
    Message('note_on', channel=2, note=58, velocity=64, time=23),
    Message('note_on', channel=2, note=58, velocity=0, time=16),
    Message('note_on', channel=2, note=58, velocity=64, time=24),
    Message('note_on', channel=2, note=58, velocity=0, time=147),
    Message('note_on', channel=2, note=65, velocity=64, time=38),
    Message('note_on', channel=2, note=65, velocity=0, time=15),
    Message('note_on', channel=2, note=70, velocity=64, time=42),
    Message('note_on', channel=2, note=70, velocity=0, time=130),
    Message('note_on', channel=2, note=68, velocity=64, time=28),
    Message('note_on', channel=2, note=68, velocity=0, time=13),
    Message('note_on', channel=2, note=68, velocity=64, time=25),
    Message('note_on', channel=2, note=68, velocity=0, time=15),
    Message('note_on', channel=2, note=70, velocity=64, time=26),
    Message('note_on', channel=2, note=70, velocity=0, time=17),
    Message('note_on', channel=2, note=70, velocity=64, time=25),
    Message('note_on', channel=2, note=70, velocity=0, time=15),
    Message('note_on', channel=2, note=70, velocity=64, time=21),
    Message('note_on', channel=2, note=70, velocity=0, time=18),
    Message('note_on', channel=2, note=70, velocity=64, time=26),
    Message('note_on', channel=2, note=70, velocity=0, time=206),
    Message('note_on', channel=2, note=68, velocity=64, time=1711),
    Message('note_on', channel=2, note=68, velocity=0, time=18),
    Message('note_on', channel=2, note=71, velocity=64, time=28),
    Message('note_on', channel=2, note=71, velocity=0, time=15),
    Message('note_on', channel=2, note=68, velocity=64, time=24),
    Message('note_on', channel=2, note=68, velocity=0, time=19),
    Message('note_on', channel=2, note=69, velocity=64, time=21),
    Message('note_on', channel=2, note=69, velocity=0, time=215),
    Message('note_on', channel=2, note=50, velocity=64, time=143),
    Message('note_on', channel=2, note=50, velocity=0, time=64),
    Message('note_on', channel=2, note=50, velocity=64, time=56),
    Message('note_on', channel=2, note=50, velocity=0, time=54),
    Message('note_on', channel=2, note=50, velocity=64, time=61),
    Message('note_on', channel=2, note=50, velocity=0, time=51),
    Message('note_on', channel=2, note=50, velocity=64, time=45),
    Message('note_on', channel=2, note=50, velocity=0, time=8),
    Message('note_on', channel=2, note=50, velocity=64, time=15),
    Message('note_on', channel=2, note=50, velocity=0, time=15),
    Message('note_on', channel=2, note=50, velocity=64, time=31),
    Message('note_on', channel=2, note=50, velocity=0, time=13),
    Message('note_on', channel=2, note=50, velocity=64, time=22),
    Message('note_on', channel=2, note=50, velocity=0, time=16),
    Message('note_on', channel=2, note=51, velocity=64, time=26),
    Message('note_on', channel=2, note=51, velocity=0, time=90),
    Message('note_on', channel=2, note=53, velocity=64, time=23),
    Message('note_on', channel=2, note=53, velocity=0, time=62),
    Message('note_on', channel=2, note=55, velocity=64, time=16),
    Message('note_on', channel=2, note=55, velocity=0, time=27),
    Message('note_on', channel=2, note=55, velocity=64, time=28),
    Message('note_on', channel=2, note=55, velocity=0, time=86),
    Message('note_on', channel=2, note=53, velocity=64, time=25),
    Message('note_on', channel=2, note=53, velocity=0, time=82),
    Message('note_on', channel=2, note=51, velocity=64, time=41),
    Message('note_on', channel=2, note=51, velocity=0, time=88),
    Message('note_on', channel=2, note=51, velocity=64, time=32),
    Message('note_on', channel=2, note=51, velocity=0, time=12),
    Message('note_on', channel=2, note=51, velocity=64, time=29),
    Message('note_on', channel=2, note=51, velocity=0, time=12),
    Message('note_on', channel=2, note=63, velocity=64, time=25),
    Message('note_on', channel=2, note=63, velocity=0, time=14),
    Message('note_on', channel=2, note=58, velocity=64, time=28),
    Message('note_on', channel=2, note=58, velocity=0, time=92),
    Message('note_on', channel=2, note=62, velocity=64, time=26),
    Message('note_on', channel=2, note=62, velocity=0, time=13),
    Message('note_on', channel=2, note=62, velocity=64, time=25),
    Message('note_on', channel=2, note=62, velocity=0, time=15),
    Message('note_on', channel=2, note=62, velocity=64, time=24),
    Message('note_on', channel=2, note=62, velocity=0, time=14),
    Message('note_on', channel=2, note=72, velocity=64, time=29),
    Message('note_on', channel=2, note=72, velocity=0, time=15),
    Message('note_on', channel=2, note=71, velocity=64, time=27),
    Message('note_on', channel=2, note=71, velocity=0, time=14),
    Message('note_on', channel=2, note=68, velocity=64, time=26),
    Message('note_on', channel=2, note=68, velocity=0, time=18),
    Message('note_on', channel=2, note=69, velocity=64, time=23),
    Message('note_on', channel=2, note=69, velocity=0, time=204),
    Message('note_on', channel=2, note=55, velocity=64, time=156),
    Message('note_on', channel=2, note=55, velocity=0, time=103),
    Message('note_on', channel=2, note=63, velocity=64, time=18),
    Message('note_on', channel=2, note=63, velocity=0, time=204),
    Message('note_on', channel=2, note=55, velocity=64, time=29),
    Message('note_on', channel=2, note=55, velocity=0, time=105),
    Message('note_on', channel=2, note=55, velocity=64, time=16),
    Message('note_on', channel=2, note=55, velocity=0, time=167),
    Message('note_on', channel=2, note=55, velocity=64, time=19),
    Message('note_on', channel=2, note=55, velocity=0, time=42),
    Message('note_on', channel=2, note=57, velocity=64, time=14),
    Message('note_on', channel=2, note=57, velocity=0, time=178),
    Message('note_on', channel=2, note=57, velocity=64, time=9),
    Message('note_on', channel=2, note=57, velocity=0, time=31),
    Message('note_on', channel=2, note=63, velocity=64, time=24),
    Message('note_on', channel=2, note=63, velocity=0, time=60),
    Message('note_on', channel=2, note=63, velocity=64, time=59),
    Message('note_on', channel=2, note=63, velocity=0, time=219),
    Message('note_on', channel=2, note=63, velocity=64, time=18),
    Message('note_on', channel=2, note=63, velocity=0, time=100),
    Message('note_on', channel=2, note=56, velocity=64, time=22),
    Message('note_on', channel=2, note=56, velocity=0, time=103),
    Message('note_on', channel=2, note=60, velocity=64, time=14),
    Message('note_on', channel=2, note=60, velocity=0, time=107),
    Message('note_on', channel=2, note=55, velocity=64, time=10),
    Message('note_on', channel=2, note=55, velocity=0, time=127),
    Message('note_on', channel=2, note=55, velocity=64, time=124),
    Message('note_on', channel=2, note=55, velocity=0, time=114),
    Message('note_on', channel=2, note=57, velocity=64, time=2),
    Message('note_on', channel=2, note=57, velocity=0, time=58),
    Message('note_on', channel=2, note=59, velocity=64, time=58),
    Message('note_on', channel=2, note=59, velocity=0, time=122),
    Message('note_on', channel=2, note=58, velocity=64, time=45),
    Message('note_on', channel=2, note=58, velocity=0, time=61),
    Message('note_on', channel=2, note=63, velocity=64, time=6),
    Message('note_on', channel=2, note=63, velocity=0, time=120),
    Message('note_on', channel=2, note=60, velocity=64, time=121),
    Message('note_on', channel=2, note=60, velocity=0, time=109),
    Message('note_on', channel=2, note=65, velocity=64, time=24),
    Message('note_on', channel=2, note=65, velocity=0, time=51),
    Message('note_on', channel=2, note=65, velocity=64, time=38),
    Message('note_on', channel=2, note=65, velocity=0, time=20),
    Message('note_on', channel=2, note=70, velocity=64, time=4),
    Message('note_on', channel=2, note=70, velocity=0, time=428),
    Message('note_on', channel=2, note=54, velocity=64, time=21),
    Message('note_on', channel=2, note=54, velocity=0, time=20),
    MetaMessage('end_of_track', time=0)]),
  MidiTrack([
    MetaMessage('track_name', name='String 2-', time=0),
    Message('program_change', channel=3, program=81, time=0),
    Message('note_on', channel=3, note=70, velocity=64, time=480),
    Message('note_on', channel=3, note=70, velocity=0, time=195),
    Message('note_on', channel=3, note=41, velocity=64, time=1436),
    Message('note_on', channel=3, note=41, velocity=0, time=6),
    Message('note_on', channel=3, note=34, velocity=64, time=13),
    Message('note_on', channel=3, note=34, velocity=0, time=4),
    Message('note_on', channel=3, note=41, velocity=64, time=15),
    Message('note_on', channel=3, note=41, velocity=0, time=146),
    Message('note_on', channel=3, note=50, velocity=64, time=45),
    Message('note_on', channel=3, note=50, velocity=0, time=11),
    Message('note_on', channel=3, note=34, velocity=64, time=9),
    Message('note_on', channel=3, note=34, velocity=0, time=8),
    Message('note_on', channel=3, note=50, velocity=64, time=8),
    Message('note_on', channel=3, note=50, velocity=0, time=21),
    Message('note_on', channel=3, note=58, velocity=64, time=6),
    Message('note_on', channel=3, note=58, velocity=0, time=23),
    Message('note_on', channel=3, note=41, velocity=64, time=34),
    Message('note_on', channel=3, note=41, velocity=0, time=23),
    Message('note_on', channel=3, note=53, velocity=64, time=98),
    Message('note_on', channel=3, note=53, velocity=0, time=39),
    Message('note_on', channel=3, note=29, velocity=64, time=80),
    Message('note_on', channel=3, note=29, velocity=0, time=36),
    Message('note_on', channel=3, note=63, velocity=64, time=28),
    Message('note_on', channel=3, note=63, velocity=0, time=16),
    Message('note_on', channel=3, note=58, velocity=64, time=40),
    Message('note_on', channel=3, note=58, velocity=0, time=10),
    Message('note_on', channel=3, note=63, velocity=64, time=11),
    Message('note_on', channel=3, note=63, velocity=0, time=8),
    Message('note_on', channel=3, note=29, velocity=64, time=11),
    Message('note_on', channel=3, note=29, velocity=0, time=12),
    Message('note_on', channel=3, note=58, velocity=64, time=9),
    Message('note_on', channel=3, note=58, velocity=0, time=16),
    Message('note_on', channel=3, note=50, velocity=64, time=24),
    Message('note_on', channel=3, note=50, velocity=0, time=15),
    Message('note_on', channel=3, note=53, velocity=64, time=25),
    Message('note_on', channel=3, note=53, velocity=0, time=20),
    Message('note_on', channel=3, note=29, velocity=64, time=79),
    Message('note_on', channel=3, note=29, velocity=0, time=38),
    Message('note_on', channel=3, note=29, velocity=64, time=82),
    Message('note_on', channel=3, note=29, velocity=0, time=36),
    Message('note_on', channel=3, note=58, velocity=64, time=27),
    Message('note_on', channel=3, note=58, velocity=0, time=21),
    Message('note_on', channel=3, note=51, velocity=64, time=36),
    Message('note_on', channel=3, note=51, velocity=0, time=10),
    Message('note_on', channel=3, note=58, velocity=64, time=10),
    Message('note_on', channel=3, note=58, velocity=0, time=10),
    Message('note_on', channel=3, note=58, velocity=64, time=9),
    Message('note_on', channel=3, note=58, velocity=0, time=13),
    Message('note_on', channel=3, note=58, velocity=64, time=9),
    Message('note_on', channel=3, note=58, velocity=0, time=16),
    Message('note_on', channel=3, note=50, velocity=64, time=24),
    Message('note_on', channel=3, note=50, velocity=0, time=15),
    Message('note_on', channel=3, note=53, velocity=64, time=25),
    Message('note_on', channel=3, note=53, velocity=0, time=20),
    Message('note_on', channel=3, note=46, velocity=64, time=497),
    Message('note_on', channel=3, note=46, velocity=0, time=105),
    Message('note_on', channel=3, note=45, velocity=64, time=13),
    Message('note_on', channel=3, note=45, velocity=0, time=97),
    Message('note_on', channel=3, note=45, velocity=64, time=24),
    Message('note_on', channel=3, note=45, velocity=0, time=75),
    Message('note_on', channel=3, note=34, velocity=64, time=47),
    Message('note_on', channel=3, note=34, velocity=0, time=18),
    Message('note_on', channel=3, note=46, velocity=64, time=21),
    Message('note_on', channel=3, note=46, velocity=0, time=18),
    Message('note_on', channel=3, note=45, velocity=64, time=15),
    Message('note_on', channel=3, note=45, velocity=0, time=22),
    Message('note_on', channel=3, note=43, velocity=64, time=25),
    Message('note_on', channel=3, note=43, velocity=0, time=108),
    Message('note_on', channel=3, note=43, velocity=64, time=14),
    Message('note_on', channel=3, note=43, velocity=0, time=81),
    Message('note_on', channel=3, note=51, velocity=64, time=2),
    Message('note_on', channel=3, note=51, velocity=0, time=21),
    Message('note_on', channel=3, note=51, velocity=64, time=17),
    Message('note_on', channel=3, note=51, velocity=0, time=20),
    Message('note_on', channel=3, note=50, velocity=64, time=22),
    Message('note_on', channel=3, note=50, velocity=0, time=19),
    Message('note_on', channel=3, note=48, velocity=64, time=21),
    Message('note_on', channel=3, note=48, velocity=0, time=19),
    Message('note_on', channel=3, note=46, velocity=64, time=25),
    Message('note_on', channel=3, note=46, velocity=0, time=20),
    Message('note_on', channel=3, note=45, velocity=64, time=18),
    Message('note_on', channel=3, note=45, velocity=0, time=18),
    Message('note_on', channel=3, note=43, velocity=64, time=20),
    Message('note_on', channel=3, note=43, velocity=0, time=21),
    Message('note_on', channel=3, note=41, velocity=64, time=23),
    Message('note_on', channel=3, note=41, velocity=0, time=85),
    Message('note_on', channel=3, note=43, velocity=64, time=29),
    Message('note_on', channel=3, note=43, velocity=0, time=26),
    Message('note_on', channel=3, note=45, velocity=64, time=29),
    Message('note_on', channel=3, note=45, velocity=0, time=26),
    Message('note_on', channel=3, note=46, velocity=64, time=32),
    Message('note_on', channel=3, note=46, velocity=0, time=21),
    Message('note_on', channel=3, note=45, velocity=64, time=20),
    Message('note_on', channel=3, note=45, velocity=0, time=16),
    Message('note_on', channel=3, note=43, velocity=64, time=22),
    Message('note_on', channel=3, note=43, velocity=0, time=22),
    Message('note_on', channel=3, note=41, velocity=64, time=22),
    Message('note_on', channel=3, note=41, velocity=0, time=28),
    Message('note_on', channel=3, note=46, velocity=64, time=34),
    Message('note_on', channel=3, note=46, velocity=0, time=34),
    Message('note_on', channel=3, note=41, velocity=64, time=25),
    Message('note_on', channel=3, note=41, velocity=0, time=93),
    Message('note_on', channel=3, note=41, velocity=64, time=21),
    Message('note_on', channel=3, note=41, velocity=0, time=18),
    Message('note_on', channel=3, note=29, velocity=64, time=458),
    Message('note_on', channel=3, note=29, velocity=0, time=168),
    Message('note_on', channel=3, note=74, velocity=64, time=12),
    Message('note_on', channel=3, note=74, velocity=0, time=51),
    Message('note_on', channel=3, note=29, velocity=64, time=4),
    Message('note_on', channel=3, note=29, velocity=0, time=181),
    Message('note_on', channel=3, note=29, velocity=64, time=69),
    Message('note_on', channel=3, note=29, velocity=0, time=170),
    Message('note_on', channel=3, note=65, velocity=64, time=71),
    Message('note_on', channel=3, note=65, velocity=0, time=70),
    Message('note_on', channel=3, note=65, velocity=64, time=19),
    Message('note_on', channel=3, note=65, velocity=0, time=41),
    Message('note_on', channel=3, note=67, velocity=64, time=169),
    Message('note_on', channel=3, note=67, velocity=0, time=27),
    Message('note_on', channel=3, note=75, velocity=64, time=30),
    Message('note_on', channel=3, note=75, velocity=0, time=55),
    Message('note_on', channel=3, note=29, velocity=64, time=65),
    Message('note_on', channel=3, note=29, velocity=0, time=114),
    Message('note_on', channel=3, note=37, velocity=64, time=12),
    Message('note_on', channel=3, note=37, velocity=0, time=107),
    Message('note_on', channel=3, note=29, velocity=64, time=13),
    Message('note_on', channel=3, note=29, velocity=0, time=193),
    Message('note_on', channel=3, note=41, velocity=64, time=41),
    Message('note_on', channel=3, note=41, velocity=0, time=111),
    Message('note_on', channel=3, note=39, velocity=64, time=10),
    Message('note_on', channel=3, note=39, velocity=0, time=223),
    Message('note_on', channel=3, note=75, velocity=64, time=9),
    Message('note_on', channel=3, note=75, velocity=0, time=67),
    Message('note_on', channel=3, note=72, velocity=64, time=52),
    Message('note_on', channel=3, note=72, velocity=0, time=65),
    Message('note_on', channel=3, note=48, velocity=64, time=59),
    Message('note_on', channel=3, note=48, velocity=0, time=126),
    Message('note_on', channel=3, note=53, velocity=64, time=250),
    Message('note_on', channel=3, note=53, velocity=0, time=61),
    Message('note_on', channel=3, note=41, velocity=64, time=27),
    Message('note_on', channel=3, note=41, velocity=0, time=26),
    Message('note_on', channel=3, note=48, velocity=64, time=7),
    Message('note_on', channel=3, note=48, velocity=0, time=73),
    Message('note_on', channel=3, note=50, velocity=64, time=15),
    Message('note_on', channel=3, note=50, velocity=0, time=25),
    Message('note_on', channel=3, note=51, velocity=64, time=5),
    Message('note_on', channel=3, note=51, velocity=0, time=66),
    Message('note_on', channel=3, note=41, velocity=64, time=28),
    Message('note_on', channel=3, note=41, velocity=0, time=16),
    Message('note_on', channel=3, note=42, velocity=64, time=12),
    Message('note_on', channel=3, note=42, velocity=0, time=75),
    Message('note_on', channel=3, note=56, velocity=64, time=22),
    Message('note_on', channel=3, note=56, velocity=0, time=16),
    Message('note_on', channel=3, note=58, velocity=64, time=12),
    Message('note_on', channel=3, note=58, velocity=0, time=71),
    MetaMessage('end_of_track', time=0)]),
  MidiTrack([
    MetaMessage('track_name', name='Trumpets', time=0),
    Message('program_change', channel=4, program=81, time=0),
    Message('note_on', channel=4, note=70, velocity=64, time=1015),
    Message('note_on', channel=4, note=70, velocity=0, time=10),
    Message('note_on', channel=4, note=70, velocity=64, time=5),
    Message('note_on', channel=4, note=70, velocity=0, time=10),
    Message('note_on', channel=4, note=70, velocity=64, time=5),
    Message('note_on', channel=4, note=70, velocity=0, time=9),
    Message('note_on', channel=4, note=70, velocity=64, time=6),
    Message('note_on', channel=4, note=70, velocity=0, time=13),
    Message('note_on', channel=4, note=70, velocity=64, time=3),
    Message('note_on', channel=4, note=70, velocity=0, time=18),
    Message('note_on', channel=4, note=65, velocity=64, time=21),
    Message('note_on', channel=4, note=65, velocity=0, time=13),
    Message('note_on', channel=4, note=75, velocity=64, time=25),
    Message('note_on', channel=4, note=75, velocity=0, time=13),
    Message('note_on', channel=4, note=77, velocity=64, time=30),
    Message('note_on', channel=4, note=77, velocity=0, time=15),
    Message('note_on', channel=4, note=75, velocity=64, time=25),
    Message('note_on', channel=4, note=75, velocity=0, time=13),
    Message('note_on', channel=4, note=70, velocity=64, time=25),
    Message('note_on', channel=4, note=70, velocity=0, time=16),
    Message('note_on', channel=4, note=70, velocity=64, time=27),
    Message('note_on', channel=4, note=70, velocity=0, time=16),
    Message('note_on', channel=4, note=65, velocity=64, time=22),
    Message('note_on', channel=4, note=65, velocity=0, time=15),
    Message('note_on', channel=4, note=75, velocity=64, time=25),
    Message('note_on', channel=4, note=75, velocity=0, time=11),
    Message('note_on', channel=4, note=77, velocity=64, time=32),
    Message('note_on', channel=4, note=77, velocity=0, time=14),
    Message('note_on', channel=4, note=75, velocity=64, time=26),
    Message('note_on', channel=4, note=75, velocity=0, time=11),
    Message('note_on', channel=4, note=70, velocity=64, time=26),
    Message('note_on', channel=4, note=70, velocity=0, time=13),
    Message('note_on', channel=4, note=70, velocity=64, time=29),
    Message('note_on', channel=4, note=70, velocity=0, time=15),
    Message('note_on', channel=4, note=65, velocity=64, time=25),
    Message('note_on', channel=4, note=65, velocity=0, time=16),
    Message('note_on', channel=4, note=75, velocity=64, time=25),
    Message('note_on', channel=4, note=75, velocity=0, time=14),
    Message('note_on', channel=4, note=77, velocity=64, time=28),
    Message('note_on', channel=4, note=77, velocity=0, time=14),
    Message('note_on', channel=4, note=70, velocity=64, time=31),
    Message('note_on', channel=4, note=70, velocity=0, time=13),
    Message('note_on', channel=4, note=70, velocity=64, time=3),
    Message('note_on', channel=4, note=70, velocity=0, time=18),
    Message('note_on', channel=4, note=70, velocity=64, time=13),
    Message('note_on', channel=4, note=70, velocity=0, time=18),
    Message('note_on', channel=4, note=65, velocity=64, time=40),
    Message('note_on', channel=4, note=65, velocity=0, time=14),
    Message('note_on', channel=4, note=65, velocity=64, time=49),
    Message('note_on', channel=4, note=65, velocity=0, time=22),
    Message('note_on', channel=4, note=65, velocity=64, time=42),
    Message('note_on', channel=4, note=65, velocity=0, time=22),
    Message('note_on', channel=4, note=70, velocity=64, time=63),
    Message('note_on', channel=4, note=70, velocity=0, time=217),
    Message('note_on', channel=4, note=77, velocity=64, time=23),
    Message('note_on', channel=4, note=77, velocity=0, time=208),
    Message('note_on', channel=4, note=75, velocity=64, time=31),
    Message('note_on', channel=4, note=75, velocity=0, time=16),
    Message('note_on', channel=4, note=74, velocity=64, time=19),
    Message('note_on', channel=4, note=74, velocity=0, time=13),
    Message('note_on', channel=4, note=72, velocity=64, time=27),
    Message('note_on', channel=4, note=72, velocity=0, time=16),
    Message('note_on', channel=4, note=82, velocity=64, time=30),
    Message('note_on', channel=4, note=82, velocity=0, time=210),
    Message('note_on', channel=4, note=77, velocity=64, time=29),
    Message('note_on', channel=4, note=77, velocity=0, time=88),
    Message('note_on', channel=4, note=75, velocity=64, time=27),
    Message('note_on', channel=4, note=75, velocity=0, time=18),
    Message('note_on', channel=4, note=74, velocity=64, time=17),
    Message('note_on', channel=4, note=74, velocity=0, time=13),
    Message('note_on', channel=4, note=72, velocity=64, time=28),
    Message('note_on', channel=4, note=72, velocity=0, time=17),
    Message('note_on', channel=4, note=82, velocity=64, time=31),
    Message('note_on', channel=4, note=82, velocity=0, time=220),
    Message('note_on', channel=4, note=77, velocity=64, time=25),
    Message('note_on', channel=4, note=77, velocity=0, time=70),
    Message('note_on', channel=4, note=75, velocity=64, time=48),
    Message('note_on', channel=4, note=75, velocity=0, time=14),
    Message('note_on', channel=4, note=74, velocity=64, time=21),
    Message('note_on', channel=4, note=74, velocity=0, time=15),
    Message('note_on', channel=4, note=75, velocity=64, time=25),
    Message('note_on', channel=4, note=75, velocity=0, time=14),
    Message('note_on', channel=4, note=72, velocity=64, time=27),
    Message('note_on', channel=4, note=72, velocity=0, time=250),
    Message('note_on', channel=4, note=65, velocity=64, time=47),
    Message('note_on', channel=4, note=65, velocity=0, time=11),
    Message('note_on', channel=4, note=65, velocity=64, time=8),
    Message('note_on', channel=4, note=65, velocity=0, time=15),
    Message('note_on', channel=4, note=65, velocity=64, time=5),
    Message('note_on', channel=4, note=65, velocity=0, time=15),
    Message('note_on', channel=4, note=70, velocity=64, time=8),
    Message('note_on', channel=4, note=70, velocity=0, time=223),
    Message('note_on', channel=4, note=77, velocity=64, time=20),
    Message('note_on', channel=4, note=77, velocity=0, time=230),
    Message('note_on', channel=4, note=75, velocity=64, time=10),
    Message('note_on', channel=4, note=75, velocity=0, time=13),
    Message('note_on', channel=4, note=74, velocity=64, time=24),
    Message('note_on', channel=4, note=74, velocity=0, time=13),
    Message('note_on', channel=4, note=72, velocity=64, time=26),
    Message('note_on', channel=4, note=72, velocity=0, time=15),
    Message('note_on', channel=4, note=82, velocity=64, time=29),
    Message('note_on', channel=4, note=82, velocity=0, time=225),
    Message('note_on', channel=4, note=77, velocity=64, time=15),
    Message('note_on', channel=4, note=77, velocity=0, time=98),
    Message('note_on', channel=4, note=75, velocity=64, time=21),
    Message('note_on', channel=4, note=75, velocity=0, time=19),
    Message('note_on', channel=4, note=74, velocity=64, time=21),
    Message('note_on', channel=4, note=74, velocity=0, time=13),
    Message('note_on', channel=4, note=72, velocity=64, time=24),
    Message('note_on', channel=4, note=72, velocity=0, time=15),
    Message('note_on', channel=4, note=82, velocity=64, time=28),
    Message('note_on', channel=4, note=82, velocity=0, time=236),
    Message('note_on', channel=4, note=77, velocity=64, time=4),
    Message('note_on', channel=4, note=77, velocity=0, time=110),
    Message('note_on', channel=4, note=75, velocity=64, time=13),
    Message('note_on', channel=4, note=75, velocity=0, time=14),
    Message('note_on', channel=4, note=74, velocity=64, time=25),
    Message('note_on', channel=4, note=74, velocity=0, time=10),
    Message('note_on', channel=4, note=75, velocity=64, time=29),
    Message('note_on', channel=4, note=75, velocity=0, time=13),
    Message('note_on', channel=4, note=72, velocity=64, time=26),
    Message('note_on', channel=4, note=72, velocity=0, time=221),
    Message('note_on', channel=4, note=77, velocity=64, time=2889),
    Message('note_on', channel=4, note=77, velocity=0, time=76),
    Message('note_on', channel=4, note=77, velocity=64, time=19),
    Message('note_on', channel=4, note=77, velocity=0, time=20),
    Message('note_on', channel=4, note=82, velocity=64, time=15),
    Message('note_on', channel=4, note=82, velocity=0, time=60),
    Message('note_on', channel=4, note=80, velocity=64, time=26),
    Message('note_on', channel=4, note=80, velocity=0, time=14),
    Message('note_on', channel=4, note=78, velocity=64, time=20),
    Message('note_on', channel=4, note=78, velocity=0, time=60),
    Message('note_on', channel=4, note=77, velocity=64, time=30),
    Message('note_on', channel=4, note=77, velocity=0, time=18),
    Message('note_on', channel=4, note=75, velocity=64, time=15),
    Message('note_on', channel=4, note=75, velocity=0, time=60),
    Message('note_on', channel=4, note=73, velocity=64, time=29),
    Message('note_on', channel=4, note=73, velocity=0, time=14),
    Message('note_on', channel=4, note=72, velocity=64, time=16),
    Message('note_on', channel=4, note=72, velocity=0, time=61),
    Message('note_on', channel=4, note=70, velocity=64, time=23),
    Message('note_on', channel=4, note=70, velocity=0, time=13),
    Message('note_on', channel=4, note=77, velocity=64, time=32),
    Message('note_on', channel=4, note=77, velocity=0, time=236),
    MetaMessage('end_of_track', time=0)]),
  MidiTrack([
    MetaMessage('track_name', name='Horns-', time=0),
    Message('program_change', channel=5, program=81, time=0),
    Message('note_on', channel=5, note=65, velocity=64, time=1205),
    Message('note_on', channel=5, note=65, velocity=0, time=100),
    Message('note_on', channel=5, note=63, velocity=64, time=15),
    Message('note_on', channel=5, note=63, velocity=0, time=17),
    Message('note_on', channel=5, note=63, velocity=64, time=26),
    Message('note_on', channel=5, note=63, velocity=0, time=15),
    Message('note_on', channel=5, note=63, velocity=64, time=24),
    Message('note_on', channel=5, note=63, velocity=0, time=13),
    Message('note_on', channel=5, note=63, velocity=64, time=26),
    Message('note_on', channel=5, note=63, velocity=0, time=102),
    Message('note_on', channel=5, note=63, velocity=64, time=22),
    Message('note_on', channel=5, note=63, velocity=0, time=15),
    Message('note_on', channel=5, note=63, velocity=64, time=26),
    Message('note_on', channel=5, note=63, velocity=0, time=15),
    Message('note_on', channel=5, note=63, velocity=64, time=24),
    Message('note_on', channel=5, note=63, velocity=0, time=14),
    Message('note_on', channel=5, note=63, velocity=64, time=25),
    Message('note_on', channel=5, note=63, velocity=0, time=75),
    Message('note_on', channel=5, note=72, velocity=64, time=1731),
    Message('note_on', channel=5, note=72, velocity=0, time=16),
    Message('note_on', channel=5, note=67, velocity=64, time=21),
    Message('note_on', channel=5, note=67, velocity=0, time=18),
    Message('note_on', channel=5, note=72, velocity=64, time=21),
    Message('note_on', channel=5, note=72, velocity=0, time=16),
    Message('note_on', channel=5, note=65, velocity=64, time=25),
    Message('note_on', channel=5, note=65, velocity=0, time=212),
    Message('note_on', channel=5, note=63, velocity=64, time=1221),
    Message('note_on', channel=5, note=63, velocity=0, time=13),
    Message('note_on', channel=5, note=63, velocity=64, time=28),
    Message('note_on', channel=5, note=63, velocity=0, time=13),
    Message('note_on', channel=5, note=51, velocity=64, time=24),
    Message('note_on', channel=5, note=51, velocity=0, time=14),
    Message('note_on', channel=5, note=57, velocity=64, time=28),
    Message('note_on', channel=5, note=57, velocity=0, time=100),
    Message('note_on', channel=5, note=58, velocity=64, time=20),
    Message('note_on', channel=5, note=58, velocity=0, time=15),
    Message('note_on', channel=5, note=58, velocity=64, time=22),
    Message('note_on', channel=5, note=58, velocity=0, time=14),
    Message('note_on', channel=5, note=58, velocity=64, time=26),
    Message('note_on', channel=5, note=58, velocity=0, time=18),
    Message('note_on', channel=5, note=68, velocity=64, time=23),
    Message('note_on', channel=5, note=68, velocity=0, time=19),
    Message('note_on', channel=5, note=67, velocity=64, time=23),
    Message('note_on', channel=5, note=67, velocity=0, time=16),
    Message('note_on', channel=5, note=72, velocity=64, time=25),
    Message('note_on', channel=5, note=72, velocity=0, time=16),
    Message('note_on', channel=5, note=65, velocity=64, time=24),
    Message('note_on', channel=5, note=65, velocity=0, time=208),
    Message('note_on', channel=5, note=63, velocity=64, time=153),
    Message('note_on', channel=5, note=63, velocity=0, time=100),
    Message('note_on', channel=5, note=55, velocity=64, time=20),
    Message('note_on', channel=5, note=55, velocity=0, time=205),
    Message('note_on', channel=5, note=63, velocity=64, time=29),
    Message('note_on', channel=5, note=63, velocity=0, time=100),
    Message('note_on', channel=5, note=63, velocity=64, time=20),
    Message('note_on', channel=5, note=63, velocity=0, time=171),
    Message('note_on', channel=5, note=65, velocity=64, time=71),
    Message('note_on', channel=5, note=65, velocity=0, time=180),
    Message('note_on', channel=5, note=55, velocity=64, time=63),
    Message('note_on', channel=5, note=55, velocity=0, time=53),
    Message('note_on', channel=5, note=55, velocity=64, time=66),
    Message('note_on', channel=5, note=55, velocity=0, time=211),
    Message('note_on', channel=5, note=55, velocity=64, time=27),
    Message('note_on', channel=5, note=55, velocity=0, time=96),
    Message('note_on', channel=5, note=61, velocity=64, time=25),
    Message('note_on', channel=5, note=61, velocity=0, time=107),
    Message('note_on', channel=5, note=57, velocity=64, time=11),
    Message('note_on', channel=5, note=57, velocity=0, time=105),
    Message('note_on', channel=5, note=63, velocity=64, time=11),
    Message('note_on', channel=5, note=63, velocity=0, time=125),
    Message('note_on', channel=5, note=63, velocity=64, time=127),
    Message('note_on', channel=5, note=63, velocity=0, time=275),
    Message('note_on', channel=5, note=62, velocity=64, time=7),
    Message('note_on', channel=5, note=62, velocity=0, time=57),
    Message('note_on', channel=5, note=60, velocity=64, time=11),
    Message('note_on', channel=5, note=60, velocity=0, time=46),
    Message('note_on', channel=5, note=62, velocity=64, time=2),
    Message('note_on', channel=5, note=62, velocity=0, time=57),
    Message('note_on', channel=5, note=58, velocity=64, time=10),
    Message('note_on', channel=5, note=58, velocity=0, time=220),
    Message('note_on', channel=5, note=66, velocity=64, time=277),
    Message('note_on', channel=5, note=66, velocity=0, time=70),
    Message('note_on', channel=5, note=65, velocity=64, time=16),
    Message('note_on', channel=5, note=65, velocity=0, time=18),
    Message('note_on', channel=5, note=66, velocity=64, time=14),
    Message('note_on', channel=5, note=66, velocity=0, time=73),
    Message('note_on', channel=5, note=65, velocity=64, time=13),
    Message('note_on', channel=5, note=65, velocity=0, time=20),
    Message('note_on', channel=5, note=63, velocity=64, time=15),
    Message('note_on', channel=5, note=63, velocity=0, time=63),
    Message('note_on', channel=5, note=58, velocity=64, time=19),
    Message('note_on', channel=5, note=58, velocity=0, time=16),
    Message('note_on', channel=5, note=56, velocity=64, time=16),
    Message('note_on', channel=5, note=56, velocity=0, time=49),
    Message('note_on', channel=5, note=58, velocity=64, time=39),
    Message('note_on', channel=5, note=58, velocity=0, time=11),
    MetaMessage('end_of_track', time=0)]),
  MidiTrack([
    MetaMessage('track_name', name='Trombones', time=0),
    Message('program_change', channel=6, program=81, time=0),
    Message('note_on', channel=6, note=58, velocity=64, time=480),
    Message('note_on', channel=6, note=58, velocity=0, time=163),
    Message('note_on', channel=6, note=58, velocity=64, time=17),
    Message('note_on', channel=6, note=58, velocity=0, time=15),
    Message('note_on', channel=6, note=58, velocity=64, time=1),
    Message('note_on', channel=6, note=58, velocity=0, time=13),
    Message('note_on', channel=6, note=58, velocity=64, time=3),
    Message('note_on', channel=6, note=58, velocity=0, time=13),
    Message('note_on', channel=6, note=58, velocity=64, time=3),
    Message('note_on', channel=6, note=58, velocity=0, time=12),
    Message('note_on', channel=6, note=58, velocity=64, time=2),
    Message('note_on', channel=6, note=58, velocity=0, time=145),
    Message('note_on', channel=6, note=58, velocity=64, time=33),
    Message('note_on', channel=6, note=58, velocity=0, time=15),
    Message('note_on', channel=6, note=58, velocity=64, time=1),
    Message('note_on', channel=6, note=58, velocity=0, time=13),
    Message('note_on', channel=6, note=58, velocity=64, time=3),
    Message('note_on', channel=6, note=58, velocity=0, time=13),
    Message('note_on', channel=6, note=58, velocity=64, time=3),
    Message('note_on', channel=6, note=58, velocity=0, time=12),
    Message('note_on', channel=6, note=58, velocity=64, time=2),
    Message('note_on', channel=6, note=58, velocity=0, time=20),
    Message('note_on', channel=6, note=53, velocity=64, time=18),
    Message('note_on', channel=6, note=53, velocity=0, time=19),
    Message('note_on', channel=6, note=58, velocity=64, time=21),
    Message('note_on', channel=6, note=58, velocity=0, time=18),
    Message('note_on', channel=6, note=65, velocity=64, time=20),
    Message('note_on', channel=6, note=65, velocity=0, time=16),
    Message('note_on', channel=6, note=63, velocity=64, time=24),
    Message('note_on', channel=6, note=63, velocity=0, time=16),
    Message('note_on', channel=6, note=58, velocity=64, time=21),
    Message('note_on', channel=6, note=58, velocity=0, time=16),
    Message('note_on', channel=6, note=58, velocity=64, time=25),
    Message('note_on', channel=6, note=58, velocity=0, time=18),
    Message('note_on', channel=6, note=53, velocity=64, time=20),
    Message('note_on', channel=6, note=53, velocity=0, time=19),
    Message('note_on', channel=6, note=63, velocity=64, time=23),
    Message('note_on', channel=6, note=63, velocity=0, time=16),
    Message('note_on', channel=6, note=65, velocity=64, time=25),
    Message('note_on', channel=6, note=65, velocity=0, time=15),
    Message('note_on', channel=6, note=58, velocity=64, time=26),
    Message('note_on', channel=6, note=58, velocity=0, time=9),
    Message('note_on', channel=6, note=58, velocity=64, time=11),
    Message('note_on', channel=6, note=58, velocity=0, time=10),
    Message('note_on', channel=6, note=58, velocity=64, time=7),
    Message('note_on', channel=6, note=58, velocity=0, time=14),
    Message('note_on', channel=6, note=63, velocity=64, time=28),
    Message('note_on', channel=6, note=63, velocity=0, time=18),
    Message('note_on', channel=6, note=58, velocity=64, time=21),
    Message('note_on', channel=6, note=58, velocity=0, time=20),
    Message('note_on', channel=6, note=65, velocity=64, time=20),
    Message('note_on', channel=6, note=65, velocity=0, time=15),
    Message('note_on', channel=6, note=68, velocity=64, time=29),
    Message('note_on', channel=6, note=68, velocity=0, time=231),
    Message('note_on', channel=6, note=58, velocity=64, time=46),
    Message('note_on', channel=6, note=58, velocity=0, time=41),
    Message('note_on', channel=6, note=53, velocity=64, time=29),
    Message('note_on', channel=6, note=53, velocity=0, time=29),
    Message('note_on', channel=6, note=53, velocity=64, time=32),
    Message('note_on', channel=6, note=53, velocity=0, time=43),
    Message('note_on', channel=6, note=58, velocity=64, time=110),
    Message('note_on', channel=6, note=58, velocity=0, time=11),
    Message('note_on', channel=6, note=58, velocity=64, time=9),
    Message('note_on', channel=6, note=58, velocity=0, time=8),
    Message('note_on', channel=6, note=53, velocity=64, time=11),
    Message('note_on', channel=6, note=53, velocity=0, time=150),
    Message('note_on', channel=6, note=58, velocity=64, time=30),
    Message('note_on', channel=6, note=58, velocity=0, time=10),
    Message('note_on', channel=6, note=58, velocity=64, time=10),
    Message('note_on', channel=6, note=58, velocity=0, time=8),
    Message('note_on', channel=6, note=58, velocity=64, time=9),
    Message('note_on', channel=6, note=58, velocity=0, time=8),
    Message('note_on', channel=6, note=53, velocity=64, time=18),
    Message('note_on', channel=6, note=53, velocity=0, time=19),
    Message('note_on', channel=6, note=56, velocity=64, time=38),
    Message('note_on', channel=6, note=56, velocity=0, time=19),
    Message('note_on', channel=6, note=56, velocity=64, time=101),
    Message('note_on', channel=6, note=56, velocity=0, time=25),
    Message('note_on', channel=6, note=63, velocity=64, time=93),
    Message('note_on', channel=6, note=63, velocity=0, time=30),
    Message('note_on', channel=6, note=58, velocity=64, time=33),
    Message('note_on', channel=6, note=58, velocity=0, time=21),
    Message('note_on', channel=6, note=58, velocity=64, time=36),
    Message('note_on', channel=6, note=58, velocity=0, time=10),
    Message('note_on', channel=6, note=58, velocity=64, time=10),
    Message('note_on', channel=6, note=58, velocity=0, time=10),
    Message('note_on', channel=6, note=58, velocity=64, time=10),
    Message('note_on', channel=6, note=58, velocity=0, time=13),
    Message('note_on', channel=6, note=58, velocity=64, time=9),
    Message('note_on', channel=6, note=58, velocity=0, time=16),
    Message('note_on', channel=6, note=58, velocity=64, time=24),
    Message('note_on', channel=6, note=58, velocity=0, time=15),
    Message('note_on', channel=6, note=53, velocity=64, time=25),
    Message('note_on', channel=6, note=53, velocity=0, time=20),
    Message('note_on', channel=6, note=53, velocity=64, time=80),
    Message('note_on', channel=6, note=53, velocity=0, time=25),
    Message('note_on', channel=6, note=63, velocity=64, time=93),
    Message('note_on', channel=6, note=63, velocity=0, time=30),
    Message('note_on', channel=6, note=58, velocity=64, time=33),
    Message('note_on', channel=6, note=58, velocity=0, time=21),
    Message('note_on', channel=6, note=58, velocity=64, time=36),
    Message('note_on', channel=6, note=58, velocity=0, time=10),
    Message('note_on', channel=6, note=58, velocity=64, time=10),
    Message('note_on', channel=6, note=58, velocity=0, time=10),
    Message('note_on', channel=6, note=58, velocity=64, time=5),
    Message('note_on', channel=6, note=58, velocity=0, time=16),
    Message('note_on', channel=6, note=58, velocity=64, time=11),
    Message('note_on', channel=6, note=58, velocity=0, time=16),
    Message('note_on', channel=6, note=58, velocity=64, time=24),
    Message('note_on', channel=6, note=58, velocity=0, time=15),
    Message('note_on', channel=6, note=53, velocity=64, time=25),
    Message('note_on', channel=6, note=53, velocity=0, time=20),
    Message('note_on', channel=6, note=58, velocity=64, time=502),
    Message('note_on', channel=6, note=58, velocity=0, time=92),
    Message('note_on', channel=6, note=58, velocity=64, time=26),
    Message('note_on', channel=6, note=58, velocity=0, time=83),
    Message('note_on', channel=6, note=58, velocity=64, time=36),
    Message('note_on', channel=6, note=58, velocity=0, time=76),
    Message('note_on', channel=6, note=58, velocity=64, time=18),
    Message('note_on', channel=6, note=58, velocity=0, time=9),
    Message('note_on', channel=6, note=58, velocity=64, time=14),
    Message('note_on', channel=6, note=58, velocity=0, time=15),
    Message('note_on', channel=6, note=58, velocity=64, time=34),
    Message('note_on', channel=6, note=58, velocity=0, time=12),
    Message('note_on', channel=6, note=58, velocity=64, time=23),
    Message('note_on', channel=6, note=58, velocity=0, time=13),
    Message('note_on', channel=6, note=63, velocity=64, time=29),
    Message('note_on', channel=6, note=63, velocity=0, time=87),
    Message('note_on', channel=6, note=63, velocity=64, time=27),
    Message('note_on', channel=6, note=63, velocity=0, time=58),
    Message('note_on', channel=6, note=63, velocity=64, time=20),
    Message('note_on', channel=6, note=63, velocity=0, time=21),
    Message('note_on', channel=6, note=63, velocity=64, time=30),
    Message('note_on', channel=6, note=63, velocity=0, time=85),
    Message('note_on', channel=6, note=62, velocity=64, time=25),
    Message('note_on', channel=6, note=62, velocity=0, time=81),
    Message('note_on', channel=6, note=63, velocity=64, time=44),
    Message('note_on', channel=6, note=63, velocity=0, time=88),
    Message('note_on', channel=6, note=58, velocity=64, time=32),
    Message('note_on', channel=6, note=58, velocity=0, time=9),
    Message('note_on', channel=6, note=63, velocity=64, time=32),
    Message('note_on', channel=6, note=63, velocity=0, time=13),
    Message('note_on', channel=6, note=58, velocity=64, time=24),
    Message('note_on', channel=6, note=58, velocity=0, time=13),
    Message('note_on', channel=6, note=58, velocity=64, time=29),
    Message('note_on', channel=6, note=58, velocity=0, time=92),
    Message('note_on', channel=6, note=62, velocity=64, time=26),
    Message('note_on', channel=6, note=62, velocity=0, time=13),
    Message('note_on', channel=6, note=62, velocity=64, time=25),
    Message('note_on', channel=6, note=62, velocity=0, time=15),
    Message('note_on', channel=6, note=62, velocity=64, time=24),
    Message('note_on', channel=6, note=62, velocity=0, time=14),
    Message('note_on', channel=6, note=63, velocity=64, time=29),
    Message('note_on', channel=6, note=63, velocity=0, time=15),
    Message('note_on', channel=6, note=62, velocity=64, time=27),
    Message('note_on', channel=6, note=62, velocity=0, time=14),
    Message('note_on', channel=6, note=60, velocity=64, time=26),
    Message('note_on', channel=6, note=60, velocity=0, time=18),
    Message('note_on', channel=6, note=60, velocity=64, time=23),
    Message('note_on', channel=6, note=60, velocity=0, time=225),
    Message('note_on', channel=6, note=60, velocity=64, time=3494),
    Message('note_on', channel=6, note=60, velocity=0, time=30),
    Message('note_on', channel=6, note=53, velocity=64, time=210),
    Message('note_on', channel=6, note=53, velocity=0, time=15),
    Message('note_on', channel=6, note=53, velocity=64, time=15),
    Message('note_on', channel=6, note=53, velocity=0, time=17),
    Message('note_on', channel=6, note=53, velocity=64, time=13),
    Message('note_on', channel=6, note=53, velocity=0, time=15),
    Message('note_on', channel=6, note=53, velocity=64, time=15),
    Message('note_on', channel=6, note=53, velocity=0, time=17),
    Message('note_on', channel=6, note=53, velocity=64, time=13),
    Message('note_on', channel=6, note=53, velocity=0, time=19),
    Message('note_on', channel=6, note=53, velocity=64, time=221),
    Message('note_on', channel=6, note=53, velocity=0, time=16),
    Message('note_on', channel=6, note=53, velocity=64, time=14),
    Message('note_on', channel=6, note=53, velocity=0, time=12),
    MetaMessage('end_of_track', time=0)]),
  MidiTrack([
    MetaMessage('track_name', name='Strings-', time=0),
    Message('program_change', channel=7, program=81, time=0),
    Message('note_on', channel=7, note=62, velocity=64, time=485),
    Message('note_on', channel=7, note=62, velocity=0, time=465),
    Message('note_on', channel=7, note=82, velocity=64, time=893),
    Message('note_on', channel=7, note=82, velocity=0, time=26),
    Message('note_on', channel=7, note=85, velocity=64, time=22),
    Message('note_on', channel=7, note=85, velocity=0, time=26),
    Message('note_on', channel=7, note=89, velocity=64, time=21),
    Message('note_on', channel=7, note=89, velocity=0, time=26),
    Message('note_on', channel=7, note=93, velocity=64, time=24),
    Message('note_on', channel=7, note=93, velocity=0, time=32),
    Message('note_on', channel=7, note=75, velocity=64, time=1856),
    Message('note_on', channel=7, note=75, velocity=0, time=21),
    Message('note_on', channel=7, note=79, velocity=64, time=18),
    Message('note_on', channel=7, note=79, velocity=0, time=23),
    Message('note_on', channel=7, note=82, velocity=64, time=22),
    Message('note_on', channel=7, note=82, velocity=0, time=19),
    Message('note_on', channel=7, note=81, velocity=64, time=41),
    Message('note_on', channel=7, note=81, velocity=0, time=24),
    Message('note_on', channel=7, note=81, velocity=64, time=13),
    Message('note_on', channel=7, note=81, velocity=0, time=25),
    Message('note_on', channel=7, note=81, velocity=64, time=50),
    Message('note_on', channel=7, note=81, velocity=0, time=25),
    Message('note_on', channel=7, note=81, velocity=64, time=11),
    Message('note_on', channel=7, note=81, velocity=0, time=24),
    Message('note_on', channel=7, note=81, velocity=64, time=62),
    Message('note_on', channel=7, note=81, velocity=0, time=25),
    Message('note_on', channel=7, note=81, velocity=64, time=15),
    Message('note_on', channel=7, note=81, velocity=0, time=25),
    Message('note_on', channel=7, note=81, velocity=64, time=54),
    Message('note_on', channel=7, note=81, velocity=0, time=25),
    Message('note_on', channel=7, note=81, velocity=64, time=14),
    Message('note_on', channel=7, note=81, velocity=0, time=25),
    Message('note_on', channel=7, note=81, velocity=64, time=56),
    Message('note_on', channel=7, note=81, velocity=0, time=27),
    Message('note_on', channel=7, note=81, velocity=64, time=12),
    Message('note_on', channel=7, note=81, velocity=0, time=27),
    Message('note_on', channel=7, note=81, velocity=64, time=53),
    Message('note_on', channel=7, note=81, velocity=0, time=26),
    Message('note_on', channel=7, note=81, velocity=64, time=14),
    Message('note_on', channel=7, note=81, velocity=0, time=25),
    Message('note_on', channel=7, note=81, velocity=64, time=56),
    Message('note_on', channel=7, note=81, velocity=0, time=27),
    Message('note_on', channel=7, note=81, velocity=64, time=15),
    Message('note_on', channel=7, note=81, velocity=0, time=24),
    Message('note_on', channel=7, note=81, velocity=64, time=61),
    Message('note_on', channel=7, note=81, velocity=0, time=26),
    Message('note_on', channel=7, note=81, velocity=64, time=14),
    Message('note_on', channel=7, note=81, velocity=0, time=25),
    Message('note_on', channel=7, note=81, velocity=64, time=48),
    Message('note_on', channel=7, note=81, velocity=0, time=29),
    Message('note_on', channel=7, note=81, velocity=64, time=13),
    Message('note_on', channel=7, note=81, velocity=0, time=23),
    Message('note_on', channel=7, note=81, velocity=64, time=60),
    Message('note_on', channel=7, note=81, velocity=0, time=27),
    Message('note_on', channel=7, note=81, velocity=64, time=15),
    Message('note_on', channel=7, note=81, velocity=0, time=21),
    Message('note_on', channel=7, note=81, velocity=64, time=52),
    Message('note_on', channel=7, note=81, velocity=0, time=29),
    Message('note_on', channel=7, note=81, velocity=64, time=13),
    Message('note_on', channel=7, note=81, velocity=0, time=25),
    Message('note_on', channel=7, note=81, velocity=64, time=55),
    Message('note_on', channel=7, note=81, velocity=0, time=27),
    Message('note_on', channel=7, note=81, velocity=64, time=14),
    Message('note_on', channel=7, note=81, velocity=0, time=23),
    Message('note_on', channel=7, note=87, velocity=64, time=704),
    Message('note_on', channel=7, note=87, velocity=0, time=67),
    Message('note_on', channel=7, note=82, velocity=64, time=114),
    Message('note_on', channel=7, note=82, velocity=0, time=60),
    Message('note_on', channel=7, note=84, velocity=64, time=43),
    Message('note_on', channel=7, note=84, velocity=0, time=35),
    Message('note_on', channel=7, note=79, velocity=64, time=413),
    Message('note_on', channel=7, note=79, velocity=0, time=168),
    Message('note_on', channel=7, note=87, velocity=64, time=35),
    Message('note_on', channel=7, note=87, velocity=0, time=28),
    Message('note_on', channel=7, note=89, velocity=64, time=206),
    Message('note_on', channel=7, note=89, velocity=0, time=20),
    Message('note_on', channel=7, note=79, velocity=64, time=504),
    Message('note_on', channel=7, note=79, velocity=0, time=167),
    Message('note_on', channel=7, note=87, velocity=64, time=60),
    Message('note_on', channel=7, note=87, velocity=0, time=67),
    Message('note_on', channel=7, note=82, velocity=64, time=114),
    Message('note_on', channel=7, note=82, velocity=0, time=60),
    Message('note_on', channel=7, note=84, velocity=64, time=43),
    Message('note_on', channel=7, note=84, velocity=0, time=35),
    Message('note_on', channel=7, note=90, velocity=64, time=415),
    Message('note_on', channel=7, note=90, velocity=0, time=51),
    Message('note_on', channel=7, note=92, velocity=64, time=49),
    Message('note_on', channel=7, note=92, velocity=0, time=17),
    Message('note_on', channel=7, note=87, velocity=64, time=3),
    Message('note_on', channel=7, note=87, velocity=0, time=54),
    Message('note_on', channel=7, note=89, velocity=64, time=40),
    Message('note_on', channel=7, note=89, velocity=0, time=20),
    Message('note_on', channel=7, note=84, velocity=64, time=16),
    Message('note_on', channel=7, note=84, velocity=0, time=47),
    Message('note_on', channel=7, note=85, velocity=64, time=43),
    Message('note_on', channel=7, note=85, velocity=0, time=18),
    Message('note_on', channel=7, note=84, velocity=64, time=10),
    Message('note_on', channel=7, note=84, velocity=0, time=49),
    Message('note_on', channel=7, note=78, velocity=64, time=31),
    Message('note_on', channel=7, note=78, velocity=0, time=20),
    Message('note_on', channel=7, note=65, velocity=64, time=105),
    Message('note_on', channel=7, note=65, velocity=0, time=22),
    Message('note_on', channel=7, note=65, velocity=64, time=8),
    Message('note_on', channel=7, note=65, velocity=0, time=22),
    Message('note_on', channel=7, note=65, velocity=64, time=68),
    Message('note_on', channel=7, note=65, velocity=0, time=22),
    Message('note_on', channel=7, note=65, velocity=64, time=8),
    Message('note_on', channel=7, note=65, velocity=0, time=22),
    Message('note_on', channel=7, note=65, velocity=64, time=8),
    Message('note_on', channel=7, note=65, velocity=0, time=22),
    Message('note_on', channel=7, note=65, velocity=64, time=8),
    Message('note_on', channel=7, note=65, velocity=0, time=22),
    Message('note_on', channel=7, note=65, velocity=64, time=8),
    Message('note_on', channel=7, note=65, velocity=0, time=22),
    MetaMessage('end_of_track', time=0)]),
  MidiTrack([
    MetaMessage('track_name', name='String 2--', time=0),
    Message('program_change', channel=8, program=81, time=0),
    Message('note_on', channel=8, note=46, velocity=64, time=480),
    Message('note_on', channel=8, note=46, velocity=0, time=202),
    Message('note_on', channel=8, note=58, velocity=64, time=1660),
    Message('note_on', channel=8, note=58, velocity=0, time=8),
    Message('note_on', channel=8, note=58, velocity=64, time=10),
    Message('note_on', channel=8, note=58, velocity=0, time=8),
    Message('note_on', channel=8, note=34, velocity=64, time=9),
    Message('note_on', channel=8, note=34, velocity=0, time=10),
    Message('note_on', channel=8, note=34, velocity=64, time=16),
    Message('note_on', channel=8, note=34, velocity=0, time=23),
    Message('note_on', channel=8, note=29, velocity=64, time=34),
    Message('note_on', channel=8, note=29, velocity=0, time=23),
    Message('note_on', channel=8, note=56, velocity=64, time=98),
    Message('note_on', channel=8, note=56, velocity=0, time=31),
    Message('note_on', channel=8, note=58, velocity=64, time=89),
    Message('note_on', channel=8, note=58, velocity=0, time=24),
    Message('note_on', channel=8, note=29, velocity=64, time=39),
    Message('note_on', channel=8, note=29, velocity=0, time=26),
    Message('note_on', channel=8, note=56, velocity=64, time=31),
    Message('note_on', channel=8, note=56, velocity=0, time=8),
    Message('note_on', channel=8, note=29, velocity=64, time=12),
    Message('note_on', channel=8, note=29, velocity=0, time=9),
    Message('note_on', channel=8, note=56, velocity=64, time=10),
    Message('note_on', channel=8, note=56, velocity=0, time=19),
    Message('note_on', channel=8, note=34, velocity=64, time=2),
    Message('note_on', channel=8, note=34, velocity=0, time=17),
    Message('note_on', channel=8, note=34, velocity=64, time=23),
    Message('note_on', channel=8, note=34, velocity=0, time=18),
    Message('note_on', channel=8, note=50, velocity=64, time=22),
    Message('note_on', channel=8, note=50, velocity=0, time=20),
    Message('note_on', channel=8, note=56, velocity=64, time=80),
    Message('note_on', channel=8, note=56, velocity=0, time=31),
    Message('note_on', channel=8, note=58, velocity=64, time=89),
    Message('note_on', channel=8, note=58, velocity=0, time=24),
    Message('note_on', channel=8, note=29, velocity=64, time=39),
    Message('note_on', channel=8, note=29, velocity=0, time=26),
    Message('note_on', channel=8, note=58, velocity=64, time=30),
    Message('note_on', channel=8, note=58, velocity=0, time=10),
    Message('note_on', channel=8, note=29, velocity=64, time=11),
    Message('note_on', channel=8, note=29, velocity=0, time=9),
    Message('note_on', channel=8, note=29, velocity=64, time=10),
    Message('note_on', channel=8, note=29, velocity=0, time=12),
    Message('note_on', channel=8, note=34, velocity=64, time=9),
    Message('note_on', channel=8, note=34, velocity=0, time=17),
    Message('note_on', channel=8, note=34, velocity=64, time=23),
    Message('note_on', channel=8, note=34, velocity=0, time=18),
    Message('note_on', channel=8, note=50, velocity=64, time=22),
    Message('note_on', channel=8, note=50, velocity=0, time=20),
    Message('note_on', channel=8, note=33, velocity=64, time=805),
    Message('note_on', channel=8, note=33, velocity=0, time=69),
    Message('note_on', channel=8, note=56, velocity=64, time=1064),
    Message('note_on', channel=8, note=56, velocity=0, time=20),
    Message('note_on', channel=8, note=55, velocity=64, time=16),
    Message('note_on', channel=8, note=55, velocity=0, time=17),
    Message('note_on', channel=8, note=56, velocity=64, time=24),
    Message('note_on', channel=8, note=56, velocity=0, time=16),
    Message('note_on', channel=8, note=53, velocity=64, time=22),
    Message('note_on', channel=8, note=53, velocity=0, time=260),
    Message('note_on', channel=8, note=75, velocity=64, time=329),
    Message('note_on', channel=8, note=75, velocity=0, time=67),
    Message('note_on', channel=8, note=70, velocity=64, time=114),
    Message('note_on', channel=8, note=70, velocity=0, time=60),
    Message('note_on', channel=8, note=72, velocity=64, time=43),
    Message('note_on', channel=8, note=72, velocity=0, time=35),
    Message('note_on', channel=8, note=67, velocity=64, time=413),
    Message('note_on', channel=8, note=67, velocity=0, time=168),
    Message('note_on', channel=8, note=75, velocity=64, time=35),
    Message('note_on', channel=8, note=75, velocity=0, time=28),
    Message('note_on', channel=8, note=77, velocity=64, time=206),
    Message('note_on', channel=8, note=77, velocity=0, time=20),
    Message('note_on', channel=8, note=67, velocity=64, time=504),
    Message('note_on', channel=8, note=67, velocity=0, time=167),
    Message('note_on', channel=8, note=74, velocity=64, time=125),
    Message('note_on', channel=8, note=74, velocity=0, time=51),
    Message('note_on', channel=8, note=60, velocity=64, time=14),
    Message('note_on', channel=8, note=60, velocity=0, time=51),
    Message('note_on', channel=8, note=70, velocity=64, time=0),
    Message('note_on', channel=8, note=70, velocity=0, time=60),
    Message('note_on', channel=8, note=72, velocity=64, time=43),
    Message('note_on', channel=8, note=72, velocity=0, time=35),
    Message('note_on', channel=8, note=53, velocity=64, time=49),
    Message('note_on', channel=8, note=53, velocity=0, time=227),
    MetaMessage('end_of_track', time=0)]),
  MidiTrack([
    MetaMessage('track_name', name='Trombones-', time=0),
    Message('program_change', channel=9, program=81, time=0),
    Message('note_on', channel=9, note=51, velocity=64, time=1446),
    Message('note_on', channel=9, note=51, velocity=0, time=20),
    Message('note_on', channel=9, note=46, velocity=64, time=16),
    Message('note_on', channel=9, note=46, velocity=0, time=27),
    Message('note_on', channel=9, note=53, velocity=64, time=13),
    Message('note_on', channel=9, note=53, velocity=0, time=17),
    Message('note_on', channel=9, note=56, velocity=64, time=31),
    Message('note_on', channel=9, note=56, velocity=0, time=235),
    Message('note_on', channel=9, note=53, velocity=64, time=33),
    Message('note_on', channel=9, note=53, velocity=0, time=36),
    Message('note_on', channel=9, note=58, velocity=64, time=36),
    Message('note_on', channel=9, note=58, velocity=0, time=32),
    Message('note_on', channel=9, note=58, velocity=64, time=28),
    Message('note_on', channel=9, note=58, velocity=0, time=42),
    Message('note_on', channel=9, note=53, velocity=64, time=111),
    Message('note_on', channel=9, note=53, velocity=0, time=8),
    Message('note_on', channel=9, note=53, velocity=64, time=11),
    Message('note_on', channel=9, note=53, velocity=0, time=7),
    Message('note_on', channel=9, note=58, velocity=64, time=11),
    Message('note_on', channel=9, note=58, velocity=0, time=152),
    Message('note_on', channel=9, note=53, velocity=64, time=30),
    Message('note_on', channel=9, note=53, velocity=0, time=10),
    Message('note_on', channel=9, note=53, velocity=64, time=8),
    Message('note_on', channel=9, note=53, velocity=0, time=9),
    Message('note_on', channel=9, note=53, velocity=64, time=9),
    Message('note_on', channel=9, note=53, velocity=0, time=8),
    Message('note_on', channel=9, note=58, velocity=64, time=18),
    Message('note_on', channel=9, note=58, velocity=0, time=22),
    Message('note_on', channel=9, note=58, velocity=64, time=34),
    Message('note_on', channel=9, note=58, velocity=0, time=25),
    Message('note_on', channel=9, note=58, velocity=64, time=95),
    Message('note_on', channel=9, note=58, velocity=0, time=30),
    Message('note_on', channel=9, note=58, velocity=64, time=89),
    Message('note_on', channel=9, note=58, velocity=0, time=25),
    Message('note_on', channel=9, note=63, velocity=64, time=39),
    Message('note_on', channel=9, note=63, velocity=0, time=16),
    Message('note_on', channel=9, note=63, velocity=64, time=41),
    Message('note_on', channel=9, note=63, velocity=0, time=8),
    Message('note_on', channel=9, note=63, velocity=64, time=12),
    Message('note_on', channel=9, note=63, velocity=0, time=8),
    Message('note_on', channel=9, note=63, velocity=64, time=11),
    Message('note_on', channel=9, note=63, velocity=0, time=10),
    Message('note_on', channel=9, note=53, velocity=64, time=11),
    Message('note_on', channel=9, note=53, velocity=0, time=18),
    Message('note_on', channel=9, note=53, velocity=64, time=22),
    Message('note_on', channel=9, note=53, velocity=0, time=18),
    Message('note_on', channel=9, note=58, velocity=64, time=22),
    Message('note_on', channel=9, note=58, velocity=0, time=20),
    Message('note_on', channel=9, note=58, velocity=64, time=80),
    Message('note_on', channel=9, note=58, velocity=0, time=30),
    Message('note_on', channel=9, note=58, velocity=64, time=89),
    Message('note_on', channel=9, note=58, velocity=0, time=25),
    Message('note_on', channel=9, note=63, velocity=64, time=39),
    Message('note_on', channel=9, note=63, velocity=0, time=16),
    Message('note_on', channel=9, note=63, velocity=64, time=41),
    Message('note_on', channel=9, note=63, velocity=0, time=8),
    Message('note_on', channel=9, note=63, velocity=64, time=12),
    Message('note_on', channel=9, note=63, velocity=0, time=8),
    Message('note_on', channel=9, note=63, velocity=64, time=11),
    Message('note_on', channel=9, note=63, velocity=0, time=10),
    Message('note_on', channel=9, note=53, velocity=64, time=11),
    Message('note_on', channel=9, note=53, velocity=0, time=18),
    Message('note_on', channel=9, note=53, velocity=64, time=22),
    Message('note_on', channel=9, note=53, velocity=0, time=18),
    Message('note_on', channel=9, note=58, velocity=64, time=22),
    Message('note_on', channel=9, note=58, velocity=0, time=20),
    Message('note_on', channel=9, note=58, velocity=64, time=1336),
    Message('note_on', channel=9, note=58, velocity=0, time=85),
    Message('note_on', channel=9, note=58, velocity=64, time=39),
    Message('note_on', channel=9, note=58, velocity=0, time=90),
    Message('note_on', channel=9, note=63, velocity=64, time=30),
    Message('note_on', channel=9, note=63, velocity=0, time=13),
    Message('note_on', channel=9, note=58, velocity=64, time=28),
    Message('note_on', channel=9, note=58, velocity=0, time=13),
    Message('note_on', channel=9, note=63, velocity=64, time=24),
    Message('note_on', channel=9, note=63, velocity=0, time=14),
    Message('note_on', channel=9, note=62, velocity=64, time=29),
    Message('note_on', channel=9, note=62, velocity=0, time=93),
    Message('note_on', channel=9, note=58, velocity=64, time=26),
    Message('note_on', channel=9, note=58, velocity=0, time=15),
    Message('note_on', channel=9, note=58, velocity=64, time=22),
    Message('note_on', channel=9, note=58, velocity=0, time=14),
    Message('note_on', channel=9, note=58, velocity=64, time=26),
    Message('note_on', channel=9, note=58, velocity=0, time=18),
    Message('note_on', channel=9, note=60, velocity=64, time=23),
    Message('note_on', channel=9, note=60, velocity=0, time=19),
    Message('note_on', channel=9, note=59, velocity=64, time=23),
    Message('note_on', channel=9, note=59, velocity=0, time=16),
    Message('note_on', channel=9, note=63, velocity=64, time=25),
    Message('note_on', channel=9, note=63, velocity=0, time=16),
    Message('note_on', channel=9, note=57, velocity=64, time=24),
    Message('note_on', channel=9, note=57, velocity=0, time=225),
    Message('note_on', channel=9, note=65, velocity=64, time=3494),
    Message('note_on', channel=9, note=65, velocity=0, time=225),
    MetaMessage('end_of_track', time=0)]),
  MidiTrack([
    MetaMessage('track_name', name='Harp', time=0),
    Message('program_change', channel=10, program=81, time=0),
    Message('note_on', channel=10, note=70, velocity=64, time=2523),
    Message('note_on', channel=10, note=70, velocity=0, time=11),
    Message('note_on', channel=10, note=75, velocity=64, time=12),
    Message('note_on', channel=10, note=75, velocity=0, time=11),
    Message('note_on', channel=10, note=77, velocity=64, time=7),
    Message('note_on', channel=10, note=77, velocity=0, time=11),
    Message('note_on', channel=10, note=82, velocity=64, time=7),
    Message('note_on', channel=10, note=82, velocity=0, time=11),
    Message('note_on', channel=10, note=77, velocity=64, time=11),
    Message('note_on', channel=10, note=77, velocity=0, time=11),
    Message('note_on', channel=10, note=75, velocity=64, time=8),
    Message('note_on', channel=10, note=75, velocity=0, time=12),
    Message('note_on', channel=10, note=70, velocity=64, time=11),
    Message('note_on', channel=10, note=70, velocity=0, time=11),
    Message('note_on', channel=10, note=75, velocity=64, time=9),
    Message('note_on', channel=10, note=75, velocity=0, time=11),
    Message('note_on', channel=10, note=77, velocity=64, time=8),
    Message('note_on', channel=10, note=77, velocity=0, time=11),
    Message('note_on', channel=10, note=82, velocity=64, time=9),
    Message('note_on', channel=10, note=82, velocity=0, time=12),
    Message('note_on', channel=10, note=77, velocity=64, time=8),
    Message('note_on', channel=10, note=77, velocity=0, time=11),
    Message('note_on', channel=10, note=75, velocity=64, time=8),
    Message('note_on', channel=10, note=75, velocity=0, time=11),
    Message('note_on', channel=10, note=70, velocity=64, time=9),
    Message('note_on', channel=10, note=70, velocity=0, time=11),
    Message('note_on', channel=10, note=72, velocity=64, time=8),
    Message('note_on', channel=10, note=72, velocity=0, time=11),
    Message('note_on', channel=10, note=77, velocity=64, time=9),
    Message('note_on', channel=10, note=77, velocity=0, time=11),
    Message('note_on', channel=10, note=82, velocity=64, time=10),
    Message('note_on', channel=10, note=82, velocity=0, time=11),
    Message('note_on', channel=10, note=77, velocity=64, time=7),
    Message('note_on', channel=10, note=77, velocity=0, time=11),
    Message('note_on', channel=10, note=72, velocity=64, time=7),
    Message('note_on', channel=10, note=72, velocity=0, time=11),
    Message('note_on', channel=10, note=70, velocity=64, time=10),
    Message('note_on', channel=10, note=70, velocity=0, time=11),
    Message('note_on', channel=10, note=72, velocity=64, time=9),
    Message('note_on', channel=10, note=72, velocity=0, time=12),
    Message('note_on', channel=10, note=77, velocity=64, time=7),
    Message('note_on', channel=10, note=77, velocity=0, time=11),
    Message('note_on', channel=10, note=82, velocity=64, time=9),
    Message('note_on', channel=10, note=82, velocity=0, time=12),
    Message('note_on', channel=10, note=77, velocity=64, time=8),
    Message('note_on', channel=10, note=77, velocity=0, time=11),
    Message('note_on', channel=10, note=72, velocity=64, time=8),
    Message('note_on', channel=10, note=72, velocity=0, time=11),
    Message('note_on', channel=10, note=70, velocity=64, time=8),
    Message('note_on', channel=10, note=70, velocity=0, time=12),
    Message('note_on', channel=10, note=75, velocity=64, time=9),
    Message('note_on', channel=10, note=75, velocity=0, time=11),
    Message('note_on', channel=10, note=77, velocity=64, time=8),
    Message('note_on', channel=10, note=77, velocity=0, time=12),
    Message('note_on', channel=10, note=82, velocity=64, time=8),
    Message('note_on', channel=10, note=82, velocity=0, time=11),
    Message('note_on', channel=10, note=77, velocity=64, time=9),
    Message('note_on', channel=10, note=77, velocity=0, time=11),
    Message('note_on', channel=10, note=75, velocity=64, time=7),
    Message('note_on', channel=10, note=75, velocity=0, time=11),
    Message('note_on', channel=10, note=70, velocity=64, time=9),
    Message('note_on', channel=10, note=70, velocity=0, time=10),
    Message('note_on', channel=10, note=75, velocity=64, time=12),
    Message('note_on', channel=10, note=75, velocity=0, time=11),
    Message('note_on', channel=10, note=77, velocity=64, time=6),
    Message('note_on', channel=10, note=77, velocity=0, time=11),
    Message('note_on', channel=10, note=82, velocity=64, time=10),
    Message('note_on', channel=10, note=82, velocity=0, time=11),
    Message('note_on', channel=10, note=77, velocity=64, time=9),
    Message('note_on', channel=10, note=77, velocity=0, time=11),
    Message('note_on', channel=10, note=75, velocity=64, time=9),
    Message('note_on', channel=10, note=75, velocity=0, time=11),
    Message('note_on', channel=10, note=70, velocity=64, time=10),
    Message('note_on', channel=10, note=70, velocity=0, time=11),
    Message('note_on', channel=10, note=72, velocity=64, time=9),
    Message('note_on', channel=10, note=72, velocity=0, time=12),
    Message('note_on', channel=10, note=77, velocity=64, time=7),
    Message('note_on', channel=10, note=77, velocity=0, time=11),
    Message('note_on', channel=10, note=82, velocity=64, time=11),
    Message('note_on', channel=10, note=82, velocity=0, time=11),
    Message('note_on', channel=10, note=77, velocity=64, time=9),
    Message('note_on', channel=10, note=77, velocity=0, time=11),
    Message('note_on', channel=10, note=72, velocity=64, time=8),
    Message('note_on', channel=10, note=72, velocity=0, time=11),
    Message('note_on', channel=10, note=70, velocity=64, time=8),
    Message('note_on', channel=10, note=70, velocity=0, time=11),
    Message('note_on', channel=10, note=72, velocity=64, time=9),
    Message('note_on', channel=10, note=72, velocity=0, time=11),
    Message('note_on', channel=10, note=77, velocity=64, time=9),
    Message('note_on', channel=10, note=77, velocity=0, time=11),
    Message('note_on', channel=10, note=82, velocity=64, time=8),
    Message('note_on', channel=10, note=82, velocity=0, time=11),
    Message('note_on', channel=10, note=77, velocity=64, time=10),
    Message('note_on', channel=10, note=77, velocity=0, time=11),
    Message('note_on', channel=10, note=72, velocity=64, time=8),
    Message('note_on', channel=10, note=72, velocity=0, time=11),
    Message('note_on', channel=10, note=70, velocity=64, time=19),
    Message('note_on', channel=10, note=70, velocity=0, time=11),
    Message('note_on', channel=10, note=65, velocity=64, time=2386),
    Message('note_on', channel=10, note=65, velocity=0, time=13),
    Message('note_on', channel=10, note=67, velocity=64, time=5),
    Message('note_on', channel=10, note=67, velocity=0, time=13),
    Message('note_on', channel=10, note=70, velocity=64, time=3),
    Message('note_on', channel=10, note=70, velocity=0, time=13),
    Message('note_on', channel=10, note=75, velocity=64, time=7),
    Message('note_on', channel=10, note=75, velocity=0, time=13),
    Message('note_on', channel=10, note=77, velocity=64, time=4),
    Message('note_on', channel=10, note=77, velocity=0, time=13),
    Message('note_on', channel=10, note=82, velocity=64, time=5),
    Message('note_on', channel=10, note=82, velocity=0, time=13),
    Message('note_on', channel=10, note=65, velocity=64, time=9),
    Message('note_on', channel=10, note=65, velocity=0, time=13),
    Message('note_on', channel=10, note=67, velocity=64, time=5),
    Message('note_on', channel=10, note=67, velocity=0, time=13),
    Message('note_on', channel=10, note=70, velocity=64, time=6),
    Message('note_on', channel=10, note=70, velocity=0, time=13),
    Message('note_on', channel=10, note=75, velocity=64, time=7),
    Message('note_on', channel=10, note=75, velocity=0, time=13),
    Message('note_on', channel=10, note=77, velocity=64, time=5),
    Message('note_on', channel=10, note=77, velocity=0, time=13),
    Message('note_on', channel=10, note=82, velocity=64, time=5),
    Message('note_on', channel=10, note=82, velocity=0, time=13),
    Message('note_on', channel=10, note=65, velocity=64, time=9),
    Message('note_on', channel=10, note=65, velocity=0, time=13),
    Message('note_on', channel=10, note=67, velocity=64, time=7),
    Message('note_on', channel=10, note=67, velocity=0, time=13),
    Message('note_on', channel=10, note=70, velocity=64, time=7),
    Message('note_on', channel=10, note=70, velocity=0, time=13),
    Message('note_on', channel=10, note=75, velocity=64, time=10),
    Message('note_on', channel=10, note=75, velocity=0, time=13),
    Message('note_on', channel=10, note=77, velocity=64, time=7),
    Message('note_on', channel=10, note=77, velocity=0, time=13),
    Message('note_on', channel=10, note=82, velocity=64, time=6),
    Message('note_on', channel=10, note=82, velocity=0, time=13),
    Message('note_on', channel=10, note=65, velocity=64, time=12),
    Message('note_on', channel=10, note=65, velocity=0, time=13),
    Message('note_on', channel=10, note=67, velocity=64, time=6),
    Message('note_on', channel=10, note=67, velocity=0, time=13),
    Message('note_on', channel=10, note=70, velocity=64, time=6),
    Message('note_on', channel=10, note=70, velocity=0, time=13),
    Message('note_on', channel=10, note=75, velocity=64, time=10),
    Message('note_on', channel=10, note=75, velocity=0, time=13),
    Message('note_on', channel=10, note=77, velocity=64, time=2),
    Message('note_on', channel=10, note=77, velocity=0, time=13),
    Message('note_on', channel=10, note=82, velocity=64, time=6),
    Message('note_on', channel=10, note=82, velocity=0, time=13),
    Message('note_on', channel=10, note=65, velocity=64, time=10),
    Message('note_on', channel=10, note=65, velocity=0, time=13),
    Message('note_on', channel=10, note=67, velocity=64, time=5),
    Message('note_on', channel=10, note=67, velocity=0, time=13),
    Message('note_on', channel=10, note=70, velocity=64, time=6),
    Message('note_on', channel=10, note=70, velocity=0, time=13),
    Message('note_on', channel=10, note=75, velocity=64, time=10),
    Message('note_on', channel=10, note=75, velocity=0, time=13),
    Message('note_on', channel=10, note=77, velocity=64, time=7),
    Message('note_on', channel=10, note=77, velocity=0, time=13),
    Message('note_on', channel=10, note=82, velocity=64, time=4),
    Message('note_on', channel=10, note=82, velocity=0, time=13),
    Message('note_on', channel=10, note=65, velocity=64, time=10),
    Message('note_on', channel=10, note=65, velocity=0, time=13),
    Message('note_on', channel=10, note=67, velocity=64, time=5),
    Message('note_on', channel=10, note=67, velocity=0, time=13),
    Message('note_on', channel=10, note=70, velocity=64, time=8),
    Message('note_on', channel=10, note=70, velocity=0, time=13),
    Message('note_on', channel=10, note=75, velocity=64, time=9),
    Message('note_on', channel=10, note=75, velocity=0, time=13),
    Message('note_on', channel=10, note=77, velocity=64, time=4),
    Message('note_on', channel=10, note=77, velocity=0, time=13),
    Message('note_on', channel=10, note=82, velocity=64, time=6),
    Message('note_on', channel=10, note=82, velocity=0, time=13),
    Message('note_on', channel=10, note=65, velocity=64, time=259),
    Message('note_on', channel=10, note=65, velocity=0, time=13),
    Message('note_on', channel=10, note=67, velocity=64, time=5),
    Message('note_on', channel=10, note=67, velocity=0, time=13),
    Message('note_on', channel=10, note=70, velocity=64, time=3),
    Message('note_on', channel=10, note=70, velocity=0, time=13),
    Message('note_on', channel=10, note=75, velocity=64, time=7),
    Message('note_on', channel=10, note=75, velocity=0, time=13),
    Message('note_on', channel=10, note=77, velocity=64, time=4),
    Message('note_on', channel=10, note=77, velocity=0, time=13),
    Message('note_on', channel=10, note=82, velocity=64, time=5),
    Message('note_on', channel=10, note=82, velocity=0, time=13),
    Message('note_on', channel=10, note=65, velocity=64, time=9),
    Message('note_on', channel=10, note=65, velocity=0, time=13),
    Message('note_on', channel=10, note=67, velocity=64, time=5),
    Message('note_on', channel=10, note=67, velocity=0, time=13),
    Message('note_on', channel=10, note=70, velocity=64, time=6),
    Message('note_on', channel=10, note=70, velocity=0, time=13),
    Message('note_on', channel=10, note=75, velocity=64, time=7),
    Message('note_on', channel=10, note=75, velocity=0, time=13),
    Message('note_on', channel=10, note=77, velocity=64, time=5),
    Message('note_on', channel=10, note=77, velocity=0, time=13),
    Message('note_on', channel=10, note=82, velocity=64, time=5),
    Message('note_on', channel=10, note=82, velocity=0, time=13),
    Message('note_on', channel=10, note=65, velocity=64, time=9),
    Message('note_on', channel=10, note=65, velocity=0, time=13),
    Message('note_on', channel=10, note=67, velocity=64, time=7),
    Message('note_on', channel=10, note=67, velocity=0, time=13),
    Message('note_on', channel=10, note=70, velocity=64, time=7),
    Message('note_on', channel=10, note=70, velocity=0, time=13),
    Message('note_on', channel=10, note=75, velocity=64, time=10),
    Message('note_on', channel=10, note=75, velocity=0, time=13),
    Message('note_on', channel=10, note=77, velocity=64, time=7),
    Message('note_on', channel=10, note=77, velocity=0, time=13),
    Message('note_on', channel=10, note=82, velocity=64, time=6),
    Message('note_on', channel=10, note=82, velocity=0, time=13),
    Message('note_on', channel=10, note=65, velocity=64, time=12),
    Message('note_on', channel=10, note=65, velocity=0, time=13),
    Message('note_on', channel=10, note=67, velocity=64, time=6),
    Message('note_on', channel=10, note=67, velocity=0, time=13),
    Message('note_on', channel=10, note=70, velocity=64, time=6),
    Message('note_on', channel=10, note=70, velocity=0, time=13),
    Message('note_on', channel=10, note=75, velocity=64, time=10),
    Message('note_on', channel=10, note=75, velocity=0, time=13),
    Message('note_on', channel=10, note=77, velocity=64, time=2),
    Message('note_on', channel=10, note=77, velocity=0, time=13),
    Message('note_on', channel=10, note=82, velocity=64, time=6),
    Message('note_on', channel=10, note=82, velocity=0, time=13),
    Message('note_on', channel=10, note=65, velocity=64, time=10),
    Message('note_on', channel=10, note=65, velocity=0, time=13),
    Message('note_on', channel=10, note=68, velocity=64, time=5),
    Message('note_on', channel=10, note=68, velocity=0, time=13),
    Message('note_on', channel=10, note=72, velocity=64, time=6),
    Message('note_on', channel=10, note=72, velocity=0, time=13),
    Message('note_on', channel=10, note=73, velocity=64, time=10),
    Message('note_on', channel=10, note=73, velocity=0, time=13),
    Message('note_on', channel=10, note=77, velocity=64, time=7),
    Message('note_on', channel=10, note=77, velocity=0, time=13),
    Message('note_on', channel=10, note=80, velocity=64, time=4),
    Message('note_on', channel=10, note=80, velocity=0, time=13),
    Message('note_on', channel=10, note=65, velocity=64, time=10),
    Message('note_on', channel=10, note=65, velocity=0, time=13),
    Message('note_on', channel=10, note=72, velocity=64, time=5),
    Message('note_on', channel=10, note=72, velocity=0, time=13),
    Message('note_on', channel=10, note=77, velocity=64, time=8),
    Message('note_on', channel=10, note=77, velocity=0, time=13),
    Message('note_on', channel=10, note=89, velocity=64, time=9),
    Message('note_on', channel=10, note=89, velocity=0, time=13),
    Message('note_on', channel=10, note=84, velocity=64, time=4),
    Message('note_on', channel=10, note=84, velocity=0, time=13),
    Message('note_on', channel=10, note=77, velocity=64, time=6),
    Message('note_on', channel=10, note=77, velocity=0, time=13),
    Message('note_on', channel=10, note=89, velocity=64, time=1698),
    Message('note_on', channel=10, note=89, velocity=0, time=101),
    MetaMessage('end_of_track', time=0)]),
  MidiTrack([
    MetaMessage('track_name', name='Strings---', time=0),
    Message('program_change', channel=11, program=81, time=0),
    Message('note_on', channel=11, note=94, velocity=64, time=499),
    Message('note_on', channel=11, note=94, velocity=0, time=1265),
    MetaMessage('end_of_track', time=0)]),
  MidiTrack([
    MetaMessage('track_name', name='Piano', time=0),
    Message('program_change', channel=12, program=81, time=0),
    Message('note_on', channel=12, note=75, velocity=64, time=5882),
    Message('note_on', channel=12, note=75, velocity=0, time=25),
    Message('note_on', channel=12, note=70, velocity=64, time=10),
    Message('note_on', channel=12, note=70, velocity=0, time=25),
    Message('note_on', channel=12, note=65, velocity=64, time=14),
    Message('note_on', channel=12, note=65, velocity=0, time=25),
    Message('note_on', channel=12, note=67, velocity=64, time=15),
    Message('note_on', channel=12, note=67, velocity=0, time=25),
    Message('note_on', channel=12, note=72, velocity=64, time=15),
    Message('note_on', channel=12, note=72, velocity=0, time=25),
    Message('note_on', channel=12, note=77, velocity=64, time=14),
    Message('note_on', channel=12, note=77, velocity=0, time=25),
    Message('note_on', channel=12, note=79, velocity=64, time=16),
    Message('note_on', channel=12, note=79, velocity=0, time=25),
    Message('note_on', channel=12, note=75, velocity=64, time=16),
    Message('note_on', channel=12, note=75, velocity=0, time=25),
    Message('note_on', channel=12, note=70, velocity=64, time=14),
    Message('note_on', channel=12, note=70, velocity=0, time=25),
    Message('note_on', channel=12, note=69, velocity=64, time=15),
    Message('note_on', channel=12, note=69, velocity=0, time=25),
    Message('note_on', channel=12, note=70, velocity=64, time=15),
    Message('note_on', channel=12, note=70, velocity=0, time=25),
    Message('note_on', channel=12, note=77, velocity=64, time=15),
    Message('note_on', channel=12, note=77, velocity=0, time=25),
    Message('note_on', channel=12, note=82, velocity=64, time=17),
    Message('note_on', channel=12, note=82, velocity=0, time=25),
    Message('note_on', channel=12, note=77, velocity=64, time=15),
    Message('note_on', channel=12, note=77, velocity=0, time=25),
    Message('note_on', channel=12, note=72, velocity=64, time=15),
    Message('note_on', channel=12, note=72, velocity=0, time=25),
    Message('note_on', channel=12, note=77, velocity=64, time=15),
    Message('note_on', channel=12, note=77, velocity=0, time=25),
    Message('note_on', channel=12, note=82, velocity=64, time=14),
    Message('note_on', channel=12, note=82, velocity=0, time=25),
    Message('note_on', channel=12, note=87, velocity=64, time=14),
    Message('note_on', channel=12, note=87, velocity=0, time=25),
    Message('note_on', channel=12, note=84, velocity=64, time=17),
    Message('note_on', channel=12, note=84, velocity=0, time=25),
    Message('note_on', channel=12, note=77, velocity=64, time=14),
    Message('note_on', channel=12, note=77, velocity=0, time=25),
    Message('note_on', channel=12, note=72, velocity=64, time=15),
    Message('note_on', channel=12, note=72, velocity=0, time=25),
    Message('note_on', channel=12, note=77, velocity=64, time=15),
    Message('note_on', channel=12, note=77, velocity=0, time=25),
    Message('note_on', channel=12, note=84, velocity=64, time=15),
    Message('note_on', channel=12, note=84, velocity=0, time=25),
    Message('note_on', channel=12, note=89, velocity=64, time=15),
    Message('note_on', channel=12, note=89, velocity=0, time=25),
    Message('note_on', channel=12, note=87, velocity=64, time=16),
    Message('note_on', channel=12, note=87, velocity=0, time=25),
    Message('note_on', channel=12, note=82, velocity=64, time=14),
    Message('note_on', channel=12, note=82, velocity=0, time=25),
    Message('note_on', channel=12, note=77, velocity=64, time=14),
    Message('note_on', channel=12, note=77, velocity=0, time=25),
    Message('note_on', channel=12, note=72, velocity=64, time=16),
    Message('note_on', channel=12, note=72, velocity=0, time=25),
    Message('note_on', channel=12, note=77, velocity=64, time=14),
    Message('note_on', channel=12, note=77, velocity=0, time=25),
    Message('note_on', channel=12, note=82, velocity=64, time=15),
    Message('note_on', channel=12, note=82, velocity=0, time=25),
    Message('note_on', channel=12, note=87, velocity=64, time=15),
    Message('note_on', channel=12, note=87, velocity=0, time=25),
    Message('note_on', channel=12, note=82, velocity=64, time=15),
    Message('note_on', channel=12, note=82, velocity=0, time=25),
    Message('note_on', channel=12, note=77, velocity=64, time=16),
    Message('note_on', channel=12, note=77, velocity=0, time=25),
    Message('note_on', channel=12, note=75, velocity=64, time=16),
    Message('note_on', channel=12, note=75, velocity=0, time=25),
    Message('note_on', channel=12, note=77, velocity=64, time=14),
    Message('note_on', channel=12, note=77, velocity=0, time=25),
    Message('note_on', channel=12, note=82, velocity=64, time=15),
    Message('note_on', channel=12, note=82, velocity=0, time=25),
    Message('note_on', channel=12, note=89, velocity=64, time=16),
    Message('note_on', channel=12, note=89, velocity=0, time=25),
    Message('note_on', channel=12, note=84, velocity=64, time=15),
    Message('note_on', channel=12, note=84, velocity=0, time=25),
    Message('note_on', channel=12, note=77, velocity=64, time=14),
    Message('note_on', channel=12, note=77, velocity=0, time=25),
    Message('note_on', channel=12, note=72, velocity=64, time=15),
    Message('note_on', channel=12, note=72, velocity=0, time=25),
    Message('note_on', channel=12, note=77, velocity=64, time=14),
    Message('note_on', channel=12, note=77, velocity=0, time=25),
    Message('note_on', channel=12, note=84, velocity=64, time=14),
    Message('note_on', channel=12, note=84, velocity=0, time=25),
    Message('note_on', channel=12, note=89, velocity=64, time=16),
    Message('note_on', channel=12, note=89, velocity=0, time=25),
    Message('note_on', channel=12, note=82, velocity=64, time=14),
    Message('note_on', channel=12, note=82, velocity=0, time=25),
    Message('note_on', channel=12, note=75, velocity=64, time=15),
    Message('note_on', channel=12, note=75, velocity=0, time=25),
    Message('note_on', channel=12, note=84, velocity=64, time=16),
    Message('note_on', channel=12, note=84, velocity=0, time=25),
    Message('note_on', channel=12, note=77, velocity=64, time=14),
    Message('note_on', channel=12, note=77, velocity=0, time=25),
    Message('note_on', channel=12, note=72, velocity=64, time=15),
    Message('note_on', channel=12, note=72, velocity=0, time=25),
    MetaMessage('end_of_track', time=0)]),
  MidiTrack([
    MetaMessage('track_name', name='String 2---', time=0),
    Message('program_change', channel=13, program=81, time=0),
    Message('note_on', channel=13, note=34, velocity=64, time=480),
    Message('note_on', channel=13, note=34, velocity=0, time=230),
    Message('note_on', channel=13, note=34, velocity=64, time=1632),
    Message('note_on', channel=13, note=34, velocity=0, time=8),
    Message('note_on', channel=13, note=50, velocity=64, time=10),
    Message('note_on', channel=13, note=50, velocity=0, time=10),
    Message('note_on', channel=13, note=58, velocity=64, time=7),
    Message('note_on', channel=13, note=58, velocity=0, time=10),
    Message('note_on', channel=13, note=50, velocity=64, time=17),
    Message('note_on', channel=13, note=50, velocity=0, time=24),
    Message('note_on', channel=13, note=58, velocity=64, time=33),
    Message('note_on', channel=13, note=58, velocity=0, time=23),
    Message('note_on', channel=13, note=56, velocity=64, time=280),
    Message('note_on', channel=13, note=56, velocity=0, time=16),
    Message('note_on', channel=13, note=63, velocity=64, time=41),
    Message('note_on', channel=13, note=63, velocity=0, time=8),
    Message('note_on', channel=13, note=56, velocity=64, time=12),
    Message('note_on', channel=13, note=56, velocity=0, time=8),
    Message('note_on', channel=13, note=63, velocity=64, time=11),
    Message('note_on', channel=13, note=63, velocity=0, time=10),
    Message('note_on', channel=13, note=53, velocity=64, time=11),
    Message('note_on', channel=13, note=53, velocity=0, time=18),
    Message('note_on', channel=13, note=53, velocity=64, time=22),
    Message('note_on', channel=13, note=53, velocity=0, time=18),
    Message('note_on', channel=13, note=58, velocity=64, time=22),
    Message('note_on', channel=13, note=58, velocity=0, time=20),
    Message('note_on', channel=13, note=51, velocity=64, time=80),
    Message('note_on', channel=13, note=51, velocity=0, time=36),
    Message('note_on', channel=13, note=51, velocity=64, time=84),
    Message('note_on', channel=13, note=51, velocity=0, time=33),
    Message('note_on', channel=13, note=56, velocity=64, time=30),
    Message('note_on', channel=13, note=56, velocity=0, time=16),
    Message('note_on', channel=13, note=63, velocity=64, time=41),
    Message('note_on', channel=13, note=63, velocity=0, time=8),
    Message('note_on', channel=13, note=56, velocity=64, time=12),
    Message('note_on', channel=13, note=56, velocity=0, time=8),
    Message('note_on', channel=13, note=63, velocity=64, time=11),
    Message('note_on', channel=13, note=63, velocity=0, time=10),
    Message('note_on', channel=13, note=53, velocity=64, time=11),
    Message('note_on', channel=13, note=53, velocity=0, time=18),
    Message('note_on', channel=13, note=53, velocity=64, time=22),
    Message('note_on', channel=13, note=53, velocity=0, time=18),
    Message('note_on', channel=13, note=58, velocity=64, time=22),
    Message('note_on', channel=13, note=58, velocity=0, time=20),
    Message('note_on', channel=13, note=45, velocity=64, time=805),
    Message('note_on', channel=13, note=45, velocity=0, time=69),
    Message('note_on', channel=13, note=41, velocity=64, time=1215),
    Message('note_on', channel=13, note=41, velocity=0, time=18),
    Message('note_on', channel=13, note=41, velocity=64, time=19),
    Message('note_on', channel=13, note=41, velocity=0, time=22),
    Message('note_on', channel=13, note=41, velocity=64, time=24),
    Message('note_on', channel=13, note=41, velocity=0, time=103),
    Message('note_on', channel=13, note=29, velocity=64, time=24),
    Message('note_on', channel=13, note=29, velocity=0, time=40),
    Message('note_on', channel=13, note=62, velocity=64, time=2407),
    Message('note_on', channel=13, note=62, velocity=0, time=68),
    MetaMessage('end_of_track', time=0)]),
  MidiTrack([
    MetaMessage('track_name', name='Horns--', time=0),
    Message('program_change', channel=14, program=81, time=0),
    Message('note_on', channel=14, note=62, velocity=64, time=5161),
    Message('note_on', channel=14, note=62, velocity=0, time=93),
    Message('note_on', channel=14, note=60, velocity=64, time=2422),
    Message('note_on', channel=14, note=60, velocity=0, time=106),
    Message('note_on', channel=14, note=58, velocity=64, time=191),
    Message('note_on', channel=14, note=58, velocity=0, time=64),
    Message('note_on', channel=14, note=65, velocity=64, time=349),
    Message('note_on', channel=14, note=65, velocity=0, time=228),
    Message('note_on', channel=14, note=68, velocity=64, time=243),
    Message('note_on', channel=14, note=68, velocity=0, time=17),
    Message('note_on', channel=14, note=63, velocity=64, time=13),
    Message('note_on', channel=14, note=63, velocity=0, time=73),
    Message('note_on', channel=14, note=61, velocity=64, time=11),
    Message('note_on', channel=14, note=61, velocity=0, time=16),
    Message('note_on', channel=14, note=60, velocity=64, time=20),
    Message('note_on', channel=14, note=60, velocity=0, time=66),
    Message('note_on', channel=14, note=61, velocity=64, time=24),
    Message('note_on', channel=14, note=61, velocity=0, time=18),
    Message('note_on', channel=14, note=60, velocity=64, time=10),
    Message('note_on', channel=14, note=60, velocity=0, time=44),
    MetaMessage('end_of_track', time=0)]),
  MidiTrack([
    MetaMessage('track_name', name='Bassoon-', time=0),
    Message('program_change', channel=15, program=81, time=0),
    Message('note_on', channel=15, note=70, velocity=64, time=480),
    Message('note_on', channel=15, note=70, velocity=0, time=175),
    Message('note_on', channel=15, note=63, velocity=64, time=663),
    Message('note_on', channel=15, note=63, velocity=0, time=13),
    Message('note_on', channel=15, note=63, velocity=64, time=24),
    Message('note_on', channel=15, note=63, velocity=0, time=11),
    Message('note_on', channel=15, note=63, velocity=64, time=30),
    Message('note_on', channel=15, note=63, velocity=0, time=10),
    Message('note_on', channel=15, note=63, velocity=64, time=32),
    Message('note_on', channel=15, note=63, velocity=0, time=96),
    Message('note_on', channel=15, note=63, velocity=64, time=27),
    Message('note_on', channel=15, note=63, velocity=0, time=11),
    Message('note_on', channel=15, note=65, velocity=64, time=30),
    Message('note_on', channel=15, note=65, velocity=0, time=10),
    Message('note_on', channel=15, note=63, velocity=64, time=29),
    Message('note_on', channel=15, note=63, velocity=0, time=13),
    Message('note_on', channel=15, note=63, velocity=64, time=32),
    Message('note_on', channel=15, note=63, velocity=0, time=14),
    Message('note_on', channel=15, note=70, velocity=64, time=158),
    Message('note_on', channel=15, note=70, velocity=0, time=23),
    Message('note_on', channel=15, note=75, velocity=64, time=49),
    Message('note_on', channel=15, note=75, velocity=0, time=22),
    Message('note_on', channel=15, note=82, velocity=64, time=81),
    Message('note_on', channel=15, note=82, velocity=0, time=285),
    MetaMessage('end_of_track', time=0)]),
  MidiTrack([
    MetaMessage('track_name', name='String 2----', time=0),
    Message('program_change', channel=0, program=81, time=0),
    Message('note_on', channel=0, note=46, velocity=64, time=2881),
    Message('note_on', channel=0, note=46, velocity=0, time=18),
    Message('note_on', channel=0, note=46, velocity=64, time=22),
    Message('note_on', channel=0, note=46, velocity=0, time=18),
    Message('note_on', channel=0, note=34, velocity=64, time=22),
    Message('note_on', channel=0, note=34, velocity=0, time=21),
    Message('note_on', channel=0, note=63, velocity=64, time=262),
    Message('note_on', channel=0, note=63, velocity=0, time=16),
    Message('note_on', channel=0, note=56, velocity=64, time=41),
    Message('note_on', channel=0, note=56, velocity=0, time=8),
    Message('note_on', channel=0, note=63, velocity=64, time=12),
    Message('note_on', channel=0, note=63, velocity=0, time=8),
    Message('note_on', channel=0, note=56, velocity=64, time=11),
    Message('note_on', channel=0, note=56, velocity=0, time=10),
    Message('note_on', channel=0, note=46, velocity=64, time=11),
    Message('note_on', channel=0, note=46, velocity=0, time=18),
    Message('note_on', channel=0, note=46, velocity=64, time=22),
    Message('note_on', channel=0, note=46, velocity=0, time=18),
    Message('note_on', channel=0, note=34, velocity=64, time=22),
    Message('note_on', channel=0, note=34, velocity=0, time=21),
    Message('note_on', channel=0, note=63, velocity=64, time=4809),
    Message('note_on', channel=0, note=63, velocity=0, time=336),
    MetaMessage('end_of_track', time=0)]),
  MidiTrack([
    MetaMessage('track_name', name='Bassoon', time=0),
    Message('program_change', channel=1, program=81, time=0),
    Message('note_on', channel=1, note=82, velocity=64, time=480),
    Message('note_on', channel=1, note=82, velocity=0, time=173),
    Message('note_on', channel=1, note=68, velocity=64, time=664),
    Message('note_on', channel=1, note=68, velocity=0, time=12),
    Message('note_on', channel=1, note=68, velocity=64, time=26),
    Message('note_on', channel=1, note=68, velocity=0, time=10),
    Message('note_on', channel=1, note=68, velocity=64, time=31),
    Message('note_on', channel=1, note=68, velocity=0, time=9),
    Message('note_on', channel=1, note=65, velocity=64, time=33),
    Message('note_on', channel=1, note=65, velocity=0, time=93),
    Message('note_on', channel=1, note=65, velocity=64, time=30),
    Message('note_on', channel=1, note=65, velocity=0, time=11),
    Message('note_on', channel=1, note=63, velocity=64, time=29),
    Message('note_on', channel=1, note=63, velocity=0, time=10),
    Message('note_on', channel=1, note=65, velocity=64, time=30),
    Message('note_on', channel=1, note=65, velocity=0, time=11),
    Message('note_on', channel=1, note=65, velocity=64, time=33),
    Message('note_on', channel=1, note=65, velocity=0, time=10),
    Message('note_on', channel=1, note=69, velocity=64, time=143),
    Message('note_on', channel=1, note=69, velocity=0, time=21),
    Message('note_on', channel=1, note=72, velocity=64, time=26),
    Message('note_on', channel=1, note=72, velocity=0, time=21),
    Message('note_on', channel=1, note=73, velocity=64, time=0),
    Message('note_on', channel=1, note=73, velocity=0, time=25),
    Message('note_on', channel=1, note=77, velocity=64, time=22),
    Message('note_on', channel=1, note=77, velocity=0, time=25),
    Message('note_on', channel=1, note=79, velocity=64, time=2),
    Message('note_on', channel=1, note=79, velocity=0, time=21),
    Message('note_on', channel=1, note=81, velocity=64, time=2),
    Message('note_on', channel=1, note=81, velocity=0, time=31),
    MetaMessage('end_of_track', time=0)]),
  MidiTrack([
    MetaMessage('track_name', name='Horns---', time=0),
    Message('program_change', channel=2, program=81, time=0),
    Message('note_on', channel=2, note=57, velocity=64, time=7676),
    Message('note_on', channel=2, note=57, velocity=0, time=100),
    Message('note_on', channel=2, note=53, velocity=64, time=610),
    Message('note_on', channel=2, note=53, velocity=0, time=238),
    MetaMessage('end_of_track', time=0)]),
  MidiTrack([
    MetaMessage('track_name', name='Trumpets-', time=0),
    Message('program_change', channel=3, program=81, time=0),
    Message('note_on', channel=3, note=57, velocity=64, time=1831),
    Message('note_on', channel=3, note=57, velocity=0, time=36),
    Message('note_on', channel=3, note=65, velocity=64, time=38),
    Message('note_on', channel=3, note=65, velocity=0, time=11),
    Message('note_on', channel=3, note=65, velocity=64, time=52),
    Message('note_on', channel=3, note=65, velocity=0, time=11),
    Message('note_on', channel=3, note=78, velocity=64, time=6782),
    Message('note_on', channel=3, note=78, velocity=0, time=22),
    Message('note_on', channel=3, note=77, velocity=64, time=63),
    Message('note_on', channel=3, note=77, velocity=0, time=18),
    Message('note_on', channel=3, note=75, velocity=64, time=17),
    Message('note_on', channel=3, note=75, velocity=0, time=19),
    Message('note_on', channel=3, note=73, velocity=64, time=71),
    Message('note_on', channel=3, note=73, velocity=0, time=13),
    Message('note_on', channel=3, note=72, velocity=64, time=21),
    Message('note_on', channel=3, note=72, velocity=0, time=30),
    Message('note_on', channel=3, note=70, velocity=64, time=58),
    Message('note_on', channel=3, note=70, velocity=0, time=14),
    Message('note_on', channel=3, note=68, velocity=64, time=18),
    Message('note_on', channel=3, note=68, velocity=0, time=30),
    MetaMessage('end_of_track', time=0)]),
  MidiTrack([
    MetaMessage('track_name', name='Strings--', time=0),
    Message('program_change', channel=4, program=81, time=0),
    Message('note_on', channel=4, note=53, velocity=64, time=485),
    Message('note_on', channel=4, note=53, velocity=0, time=130),
    Message('note_on', channel=4, note=86, velocity=64, time=5553),
    Message('note_on', channel=4, note=86, velocity=0, time=51),
    MetaMessage('end_of_track', time=0)]),
  MidiTrack([
    MetaMessage('track_name', name='Trumpets--', time=0),
    Message('program_change', channel=5, program=81, time=0),
    Message('note_on', channel=5, note=65, velocity=64, time=1837),
    Message('note_on', channel=5, note=65, velocity=0, time=8),
    MetaMessage('end_of_track', time=0)])
])