MidiFile(type=1, ticks_per_beat=120, tracks=[
  MidiTrack([
    MetaMessage('time_signature', numerator=4, denominator=4, clocks_per_click=24, notated_32nd_notes_per_beat=8, time=0),
    MetaMessage('key_signature', key='C', time=0),
    MetaMessage('set_tempo', tempo=582524, time=0),
    MetaMessage('set_tempo', tempo=447761, time=1800),
    MetaMessage('set_tempo', tempo=576923, time=240),
    MetaMessage('set_tempo', tempo=576923, time=6600),
    MetaMessage('set_tempo', tempo=576923, time=85),
    MetaMessage('set_tempo', tempo=571428, time=5),
    MetaMessage('set_tempo', tempo=566037, time=85),
    MetaMessage('set_tempo', tempo=560747, time=5),
    MetaMessage('set_tempo', tempo=555555, time=85),
    MetaMessage('set_tempo', tempo=550458, time=5),
    MetaMessage('set_tempo', tempo=550458, time=85),
    MetaMessage('set_tempo', tempo=540540, time=5),
    MetaMessage('set_tempo', tempo=540540, time=235),
    MetaMessage('set_tempo', tempo=512820, time=5),
    MetaMessage('set_tempo', tempo=504201, time=120),
    MetaMessage('set_tempo', tempo=504201, time=210),
    MetaMessage('set_tempo', tempo=495867, time=5),
    MetaMessage('set_tempo', tempo=576923, time=4345),
    MetaMessage('set_tempo', tempo=625000, time=6960),
    MetaMessage('set_tempo', tempo=631578, time=3850),
    MetaMessage('set_tempo', tempo=631578, time=5),
    MetaMessage('set_tempo', tempo=638297, time=95),
    MetaMessage('set_tempo', tempo=645161, time=5),
    MetaMessage('set_tempo', tempo=652173, time=95),
    MetaMessage('set_tempo', tempo=659340, time=5),
    MetaMessage('set_tempo', tempo=674157, time=90),
    MetaMessage('set_tempo', tempo=674157, time=5),
    MetaMessage('set_tempo', tempo=689655, time=85),
    MetaMessage('set_tempo', tempo=689655, time=5),
    MetaMessage('set_tempo', tempo=697674, time=80),
    MetaMessage('set_tempo', tempo=705882, time=5),
    MetaMessage('set_tempo', tempo=705882, time=75),
    MetaMessage('set_tempo', tempo=714285, time=5),
    MetaMessage('set_tempo', tempo=722891, time=75),
    MetaMessage('set_tempo', tempo=731707, time=5),
    MetaMessage('set_tempo', tempo=740740, time=70),
    MetaMessage('set_tempo', tempo=750000, time=5),
    MetaMessage('set_tempo', tempo=750000, time=65),
    MetaMessage('set_tempo', tempo=759493, time=5),
    MetaMessage('set_tempo', tempo=769230, time=65),
    MetaMessage('set_tempo', tempo=779220, time=5),
    MetaMessage('set_tempo', tempo=789473, time=65),
    MetaMessage('set_tempo', tempo=789473, time=5),
    MetaMessage('set_tempo', tempo=800000, time=55),
    MetaMessage('set_tempo', tempo=810810, time=5),
    MetaMessage('set_tempo', tempo=821917, time=60),
    MetaMessage('set_tempo', tempo=821917, time=5),
    MetaMessage('set_tempo', tempo=845070, time=55),
    MetaMessage('set_tempo', tempo=845070, time=5),
    MetaMessage('set_tempo', tempo=845070, time=50),
    MetaMessage('set_tempo', tempo=857142, time=5),
    MetaMessage('set_tempo', tempo=535714, time=40),
    MetaMessage('set_tempo', tempo=454545, time=5),
    MetaMessage('set_tempo', tempo=454545, time=9530),
    MetaMessage('set_tempo', tempo=447761, time=5),
    MetaMessage('time_signature', numerator=3, denominator=4, clocks_per_click=24, notated_32nd_notes_per_beat=8, time=50),
    MetaMessage('set_tempo', tempo=441176, time=120),
    MetaMessage('set_tempo', tempo=441176, time=5),
    MetaMessage('set_tempo', tempo=441176, time=35),
    MetaMessage('set_tempo', tempo=441176, time=5),
    MetaMessage('set_tempo', tempo=437956, time=85),
    MetaMessage('set_tempo', tempo=437956, time=5),
    MetaMessage('set_tempo', tempo=458015, time=5875),
    MetaMessage('set_tempo', tempo=461538, time=5),
    MetaMessage('set_tempo', tempo=759493, time=1435),
    MetaMessage('set_tempo', tempo=833333, time=5),
    MetaMessage('set_tempo', tempo=555555, time=235),
    MetaMessage('set_tempo', tempo=487804, time=5),
    MetaMessage('end_of_track', time=0)]),
  MidiTrack([
    MetaMessage('midi_port', port=1, time=0),
    MetaMessage('track_name', name='Bassoon', time=0),
    Message('program_change', channel=1, program=70, time=0),
    Message('control_change', channel=1, control=7, value=104, time=0),
    Message('control_change', channel=1, control=10, value=72, time=0),
    Message('control_change', channel=1, control=18, value=0, time=5),
    Message('note_on', channel=1, note=82, velocity=70, time=475),
    Message('note_on', channel=1, note=70, velocity=62, time=0),
    Message('note_on', channel=1, note=82, velocity=0, time=173),
    Message('note_on', channel=1, note=70, velocity=0, time=2),
    Message('note_on', channel=1, note=68, velocity=66, time=662),
    Message('note_on', channel=1, note=63, velocity=70, time=1),
    Message('note_on', channel=1, note=68, velocity=0, time=11),
    Message('note_on', channel=1, note=63, velocity=0, time=2),
    Message('note_on', channel=1, note=63, velocity=70, time=24),
    Message('note_on', channel=1, note=68, velocity=58, time=0),
    Message('note_on', channel=1, note=68, velocity=0, time=10),
    Message('note_on', channel=1, note=63, velocity=0, time=1),
    Message('note_on', channel=1, note=63, velocity=66, time=30),
    Message('note_on', channel=1, note=68, velocity=62, time=0),
    Message('note_on', channel=1, note=68, velocity=0, time=9),
    Message('note_on', channel=1, note=63, velocity=0, time=1),
    Message('note_on', channel=1, note=65, velocity=66, time=32),
    Message('note_on', channel=1, note=63, velocity=74, time=0),
    Message('note_on', channel=1, note=65, velocity=0, time=93),
    Message('note_on', channel=1, note=63, velocity=0, time=3),
    Message('note_on', channel=1, note=63, velocity=70, time=27),
    Message('note_on', channel=1, note=65, velocity=66, time=0),
    Message('note_on', channel=1, note=65, velocity=0, time=11),
    Message('note_on', channel=1, note=63, velocity=0, time=0),
    Message('note_on', channel=1, note=63, velocity=70, time=29),
    Message('note_on', channel=1, note=65, velocity=62, time=1),
    Message('note_on', channel=1, note=63, velocity=0, time=9),
    Message('note_on', channel=1, note=65, velocity=0, time=1),
    Message('note_on', channel=1, note=65, velocity=66, time=29),
    Message('note_on', channel=1, note=63, velocity=70, time=0),
    Message('note_on', channel=1, note=65, velocity=0, time=11),
    Message('note_on', channel=1, note=63, velocity=0, time=2),
    Message('note_on', channel=1, note=65, velocity=70, time=31),
    Message('note_on', channel=1, note=63, velocity=74, time=1),
    Message('note_on', channel=1, note=65, velocity=0, time=9),
    Message('note_on', channel=1, note=63, velocity=0, time=5),
    Message('note_on', channel=1, note=69, velocity=54, time=138),
    Message('note_on', channel=1, note=70, velocity=50, time=20),
    Message('note_on', channel=1, note=69, velocity=0, time=1),
    Message('note_on', channel=1, note=70, velocity=0, time=22),
    Message('note_on', channel=1, note=72, velocity=50, time=4),
    Message('note_on', channel=1, note=72, velocity=0, time=21),
    Message('note_on', channel=1, note=73, velocity=50, time=0),
    Message('note_on', channel=1, note=75, velocity=50, time=24),
    Message('note_on', channel=1, note=73, velocity=0, time=1),
    Message('note_on', channel=1, note=75, velocity=0, time=21),
    Message('note_on', channel=1, note=77, velocity=52, time=1),
    Message('note_on', channel=1, note=77, velocity=0, time=25),
    Message('note_on', channel=1, note=79, velocity=52, time=2),
    Message('note_on', channel=1, note=79, velocity=0, time=21),
    Message('note_on', channel=1, note=81, velocity=52, time=2),
    Message('note_on', channel=1, note=82, velocity=48, time=30),
    Message('note_on', channel=1, note=81, velocity=0, time=1),
    Message('note_on', channel=1, note=82, velocity=0, time=284),
    MetaMessage('end_of_track', time=0)]),
  MidiTrack([
    MetaMessage('midi_port', port=1, time=0),
    MetaMessage('track_name', name='Flute', time=0),
    Message('program_change', channel=0, program=73, time=0),
    Message('control_change', channel=0, control=7, value=108, time=0),
    Message('control_change', channel=0, control=10, value=55, time=0),
    Message('control_change', channel=0, control=18, value=0, time=1),
    Message('note_on', channel=0, note=81, velocity=57, time=24732),
    Message('note_on', channel=0, note=80, velocity=48, time=64),
    Message('note_on', channel=0, note=81, velocity=0, time=2),
    Message('note_on', channel=0, note=81, velocity=46, time=56),
    Message('note_on', channel=0, note=80, velocity=0, time=2),
    Message('note_on', channel=0, note=80, velocity=55, time=66),
    Message('note_on', channel=0, note=81, velocity=0, time=5),
    Message('note_on', channel=0, note=80, velocity=0, time=55),
    Message('note_on', channel=0, note=81, velocity=53, time=0),
    Message('note_on', channel=0, note=80, velocity=54, time=57),
    Message('note_on', channel=0, note=81, velocity=0, time=3),
    Message('note_on', channel=0, note=80, velocity=0, time=60),
    Message('note_on', channel=0, note=81, velocity=53, time=0),
    Message('note_on', channel=0, note=77, velocity=56, time=58),
    Message('note_on', channel=0, note=81, velocity=0, time=7),
    Message('note_on', channel=0, note=77, velocity=0, time=58),
    Message('note_on', channel=0, note=80, velocity=56, time=0),
    Message('note_on', channel=0, note=80, velocity=0, time=58),
    Message('note_on', channel=0, note=77, velocity=48, time=0),
    Message('note_on', channel=0, note=80, velocity=59, time=59),
    Message('note_on', channel=0, note=77, velocity=0, time=1),
    Message('note_on', channel=0, note=80, velocity=0, time=57),
    Message('note_on', channel=0, note=77, velocity=56, time=2),
    Message('note_on', channel=0, note=77, velocity=0, time=62),
    Message('note_on', channel=0, note=80, velocity=67, time=0),
    Message('note_on', channel=0, note=80, velocity=0, time=56),
    Message('note_on', channel=0, note=77, velocity=53, time=1),
    Message('note_on', channel=0, note=80, velocity=59, time=62),
    Message('note_on', channel=0, note=77, velocity=0, time=1),
    Message('note_on', channel=0, note=80, velocity=0, time=60),
    Message('note_on', channel=0, note=77, velocity=48, time=1),
    Message('note_on', channel=0, note=77, velocity=0, time=63),
    Message('note_on', channel=0, note=80, velocity=59, time=1),
    Message('note_on', channel=0, note=80, velocity=0, time=53),
    Message('note_on', channel=0, note=77, velocity=45, time=2),
    Message('note_on', channel=0, note=77, velocity=0, time=60),
    Message('note_on', channel=0, note=81, velocity=56, time=0),
    Message('note_on', channel=0, note=81, velocity=0, time=59),
    Message('note_on', channel=0, note=77, velocity=53, time=1),
    Message('note_on', channel=0, note=77, velocity=0, time=61),
    MetaMessage('end_of_track', time=0)]),
  MidiTrack([
    MetaMessage('midi_port', port=1, time=0),
    MetaMessage('track_name', name='Horns', time=0),
    Message('program_change', channel=2, program=60, time=0),
    Message('control_change', channel=2, control=7, value=126, time=0),
    Message('control_change', channel=2, control=10, value=73, time=0),
    Message('control_change', channel=2, control=18, value=64, time=6),
    Message('note_on', channel=2, note=58, velocity=114, time=596),
    Message('note_on', channel=2, note=58, velocity=0, time=163),
    Message('note_on', channel=2, note=58, velocity=114, time=17),
    Message('note_on', channel=2, note=58, velocity=0, time=22),
    Message('note_on', channel=2, note=58, velocity=114, time=38),
    Message('note_on', channel=2, note=58, velocity=0, time=25),
    Message('note_on', channel=2, note=58, velocity=114, time=15),
    Message('note_on', channel=2, note=58, velocity=0, time=17),
    Message('note_on', channel=2, note=58, velocity=114, time=23),
    Message('note_on', channel=2, note=58, velocity=0, time=16),
    Message('note_on', channel=2, note=58, velocity=114, time=24),
    Message('note_on', channel=2, note=58, velocity=0, time=147),
    Message('note_on', channel=2, note=65, velocity=114, time=38),
    Message('note_on', channel=2, note=65, velocity=0, time=15),
    Message('note_on', channel=2, note=70, velocity=114, time=42),
    Message('note_on', channel=2, note=65, velocity=114, time=1),
    Message('note_on', channel=2, note=65, velocity=0, time=100),
    Message('note_on', channel=2, note=63, velocity=114, time=15),
    Message('note_on', channel=2, note=70, velocity=0, time=14),
    Message('note_on', channel=2, note=63, velocity=0, time=3),
    Message('note_on', channel=2, note=68, velocity=114, time=25),
    Message('note_on', channel=2, note=63, velocity=114, time=1),
    Message('note_on', channel=2, note=68, velocity=0, time=12),
    Message('note_on', channel=2, note=63, velocity=0, time=3),
    Message('note_on', channel=2, note=68, velocity=114, time=22),
    Message('note_on', channel=2, note=63, velocity=114, time=2),
    Message('note_on', channel=2, note=63, velocity=0, time=13),
    Message('note_on', channel=2, note=68, velocity=0, time=0),
    Message('note_on', channel=2, note=70, velocity=114, time=26),
    Message('note_on', channel=2, note=63, velocity=114, time=0),
    Message('note_on', channel=2, note=70, velocity=0, time=17),
    Message('note_on', channel=2, note=70, velocity=114, time=25),
    Message('note_on', channel=2, note=70, velocity=0, time=15),
    Message('note_on', channel=2, note=70, velocity=114, time=21),
    Message('note_on', channel=2, note=70, velocity=0, time=18),
    Message('note_on', channel=2, note=63, velocity=0, time=6),
    Message('note_on', channel=2, note=70, velocity=114, time=20),
    Message('note_on', channel=2, note=63, velocity=114, time=2),
    Message('note_on', channel=2, note=63, velocity=0, time=15),
    Message('note_on', channel=2, note=63, velocity=114, time=26),
    Message('note_on', channel=2, note=63, velocity=0, time=15),
    Message('note_on', channel=2, note=63, velocity=114, time=24),
    Message('note_on', channel=2, note=63, velocity=0, time=14),
    Message('note_on', channel=2, note=63, velocity=114, time=25),
    Message('note_on', channel=2, note=63, velocity=0, time=75),
    Message('note_on', channel=2, note=70, velocity=0, time=10),
    Message('note_on', channel=2, note=68, velocity=114, time=1711),
    Message('note_on', channel=2, note=72, velocity=114, time=10),
    Message('note_on', channel=2, note=68, velocity=0, time=8),
    Message('note_on', channel=2, note=72, velocity=0, time=8),
    Message('note_on', channel=2, note=71, velocity=114, time=20),
    Message('note_on', channel=2, note=67, velocity=114, time=1),
    Message('note_on', channel=2, note=71, velocity=0, time=14),
    Message('note_on', channel=2, note=67, velocity=0, time=4),
    Message('note_on', channel=2, note=68, velocity=114, time=20),
    Message('note_on', channel=2, note=72, velocity=114, time=1),
    Message('note_on', channel=2, note=72, velocity=0, time=16),
    Message('note_on', channel=2, note=68, velocity=0, time=2),
    Message('note_on', channel=2, note=69, velocity=114, time=21),
    Message('note_on', channel=2, note=65, velocity=114, time=2),
    Message('note_on', channel=2, note=65, velocity=0, time=212),
    Message('note_on', channel=2, note=69, velocity=0, time=1),
    Message('note_on', channel=2, note=50, velocity=87, time=143),
    Message('note_on', channel=2, note=50, velocity=0, time=64),
    Message('note_on', channel=2, note=50, velocity=87, time=56),
    Message('note_on', channel=2, note=50, velocity=0, time=54),
    Message('note_on', channel=2, note=50, velocity=87, time=61),
    Message('note_on', channel=2, note=50, velocity=0, time=51),
    Message('note_on', channel=2, note=50, velocity=87, time=45),
    Message('note_on', channel=2, note=50, velocity=0, time=8),
    Message('note_on', channel=2, note=50, velocity=87, time=15),
    Message('note_on', channel=2, note=50, velocity=0, time=15),
    Message('note_on', channel=2, note=50, velocity=87, time=31),
    Message('note_on', channel=2, note=50, velocity=0, time=13),
    Message('note_on', channel=2, note=50, velocity=87, time=22),
    Message('note_on', channel=2, note=50, velocity=0, time=16),
    Message('note_on', channel=2, note=51, velocity=87, time=26),
    Message('note_on', channel=2, note=51, velocity=0, time=90),
    Message('note_on', channel=2, note=53, velocity=87, time=23),
    Message('note_on', channel=2, note=53, velocity=0, time=62),
    Message('note_on', channel=2, note=55, velocity=87, time=16),
    Message('note_on', channel=2, note=55, velocity=0, time=27),
    Message('note_on', channel=2, note=55, velocity=87, time=28),
    Message('note_on', channel=2, note=55, velocity=0, time=86),
    Message('note_on', channel=2, note=53, velocity=87, time=25),
    Message('note_on', channel=2, note=53, velocity=0, time=82),
    Message('note_on', channel=2, note=51, velocity=87, time=41),
    Message('note_on', channel=2, note=51, velocity=0, time=88),
    Message('note_on', channel=2, note=51, velocity=87, time=32),
    Message('note_on', channel=2, note=63, velocity=87, time=0),
    Message('note_on', channel=2, note=51, velocity=0, time=12),
    Message('note_on', channel=2, note=63, velocity=0, time=1),
    Message('note_on', channel=2, note=51, velocity=87, time=28),
    Message('note_on', channel=2, note=63, velocity=87, time=0),
    Message('note_on', channel=2, note=51, velocity=0, time=12),
    Message('note_on', channel=2, note=63, velocity=0, time=1),
    Message('note_on', channel=2, note=51, velocity=87, time=24),
    Message('note_on', channel=2, note=63, velocity=87, time=0),
    Message('note_on', channel=2, note=63, velocity=0, time=14),
    Message('note_on', channel=2, note=51, velocity=0, time=0),
    Message('note_on', channel=2, note=57, velocity=87, time=28),
    Message('note_on', channel=2, note=58, velocity=87, time=0),
    Message('note_on', channel=2, note=62, velocity=87, time=1),
    Message('note_on', channel=2, note=58, velocity=0, time=91),
    Message('note_on', channel=2, note=62, velocity=0, time=2),
    Message('note_on', channel=2, note=57, velocity=0, time=6),
    Message('note_on', channel=2, note=62, velocity=87, time=18),
    Message('note_on', channel=2, note=58, velocity=87, time=2),
    Message('note_on', channel=2, note=62, velocity=0, time=11),
    Message('note_on', channel=2, note=58, velocity=0, time=4),
    Message('note_on', channel=2, note=62, velocity=87, time=21),
    Message('note_on', channel=2, note=58, velocity=87, time=1),
    Message('note_on', channel=2, note=58, velocity=0, time=14),
    Message('note_on', channel=2, note=62, velocity=0, time=0),
    Message('note_on', channel=2, note=62, velocity=87, time=24),
    Message('note_on', channel=2, note=58, velocity=87, time=2),
    Message('note_on', channel=2, note=62, velocity=0, time=12),
    Message('note_on', channel=2, note=58, velocity=0, time=6),
    Message('note_on', channel=2, note=72, velocity=87, time=23),
    Message('note_on', channel=2, note=68, velocity=87, time=0),
    Message('note_on', channel=2, note=72, velocity=0, time=15),
    Message('note_on', channel=2, note=68, velocity=0, time=4),
    Message('note_on', channel=2, note=67, velocity=87, time=23),
    Message('note_on', channel=2, note=71, velocity=87, time=0),
    Message('note_on', channel=2, note=71, velocity=0, time=14),
    Message('note_on', channel=2, note=67, velocity=0, time=2),
    Message('note_on', channel=2, note=68, velocity=87, time=24),
    Message('note_on', channel=2, note=72, velocity=87, time=1),
    Message('note_on', channel=2, note=72, velocity=0, time=16),
    Message('note_on', channel=2, note=68, velocity=0, time=1),
    Message('note_on', channel=2, note=69, velocity=87, time=23),
    Message('note_on', channel=2, note=65, velocity=87, time=0),
    Message('note_on', channel=2, note=69, velocity=0, time=204),
    Message('note_on', channel=2, note=65, velocity=0, time=4),
    Message('note_on', channel=2, note=55, velocity=49, time=152),
    Message('note_on', channel=2, note=63, velocity=38, time=1),
    Message('note_on', channel=2, note=63, velocity=0, time=100),
    Message('note_on', channel=2, note=55, velocity=0, time=2),
    Message('note_on', channel=2, note=55, velocity=51, time=18),
    Message('note_on', channel=2, note=63, velocity=50, time=0),
    Message('note_on', channel=2, note=63, velocity=0, time=204),
    Message('note_on', channel=2, note=55, velocity=0, time=1),
    Message('note_on', channel=2, note=55, velocity=50, time=28),
    Message('note_on', channel=2, note=63, velocity=54, time=1),
    Message('note_on', channel=2, note=63, velocity=0, time=100),
    Message('note_on', channel=2, note=55, velocity=0, time=4),
    Message('note_on', channel=2, note=63, velocity=56, time=16),
    Message('note_on', channel=2, note=55, velocity=54, time=0),
    Message('note_on', channel=2, note=55, velocity=0, time=167),
    Message('note_on', channel=2, note=63, velocity=0, time=4),
    Message('note_on', channel=2, note=55, velocity=65, time=15),
    Message('note_on', channel=2, note=55, velocity=0, time=42),
    Message('note_on', channel=2, note=57, velocity=63, time=14),
    Message('note_on', channel=2, note=65, velocity=66, time=0),
    Message('note_on', channel=2, note=57, velocity=0, time=178),
    Message('note_on', channel=2, note=65, velocity=0, time=2),
    Message('note_on', channel=2, note=57, velocity=68, time=7),
    Message('note_on', channel=2, note=57, velocity=0, time=31),
    Message('note_on', channel=2, note=63, velocity=71, time=24),
    Message('note_on', channel=2, note=55, velocity=71, time=1),
    Message('note_on', channel=2, note=55, velocity=0, time=53),
    Message('note_on', channel=2, note=63, velocity=0, time=6),
    Message('note_on', channel=2, note=63, velocity=75, time=59),
    Message('note_on', channel=2, note=55, velocity=75, time=1),
    Message('note_on', channel=2, note=55, velocity=0, time=211),
    Message('note_on', channel=2, note=63, velocity=0, time=7),
    Message('note_on', channel=2, note=63, velocity=79, time=18),
    Message('note_on', channel=2, note=55, velocity=81, time=2),
    Message('note_on', channel=2, note=55, velocity=0, time=96),
    Message('note_on', channel=2, note=63, velocity=0, time=2),
    Message('note_on', channel=2, note=56, velocity=83, time=22),
    Message('note_on', channel=2, note=61, velocity=83, time=1),
    Message('note_on', channel=2, note=56, velocity=0, time=102),
    Message('note_on', channel=2, note=61, velocity=0, time=5),
    Message('note_on', channel=2, note=60, velocity=86, time=9),
    Message('note_on', channel=2, note=57, velocity=86, time=2),
    Message('note_on', channel=2, note=57, velocity=0, time=105),
    Message('note_on', channel=2, note=60, velocity=0, time=0),
    Message('note_on', channel=2, note=55, velocity=88, time=10),
    Message('note_on', channel=2, note=63, velocity=88, time=1),
    Message('note_on', channel=2, note=60, velocity=92, time=123),
    Message('note_on', channel=2, note=57, velocity=92, time=0),
    Message('note_on', channel=2, note=63, velocity=0, time=2),
    Message('note_on', channel=2, note=55, velocity=0, time=1),
    Message('note_on', channel=2, note=57, velocity=0, time=97),
    Message('note_on', channel=2, note=60, velocity=0, time=6),
    Message('note_on', channel=2, note=55, velocity=95, time=21),
    Message('note_on', channel=2, note=63, velocity=95, time=2),
    Message('note_on', channel=2, note=55, velocity=0, time=112),
    Message('note_on', channel=2, note=57, velocity=98, time=2),
    Message('note_on', channel=2, note=58, velocity=99, time=54),
    Message('note_on', channel=2, note=57, velocity=0, time=4),
    Message('note_on', channel=2, note=59, velocity=100, time=58),
    Message('note_on', channel=2, note=58, velocity=0, time=2),
    Message('note_on', channel=2, note=63, velocity=0, time=43),
    Message('note_on', channel=2, note=62, velocity=101, time=7),
    Message('note_on', channel=2, note=62, velocity=0, time=57),
    Message('note_on', channel=2, note=60, velocity=103, time=11),
    Message('note_on', channel=2, note=59, velocity=0, time=2),
    Message('note_on', channel=2, note=60, velocity=0, time=44),
    Message('note_on', channel=2, note=58, velocity=104, time=1),
    Message('note_on', channel=2, note=62, velocity=104, time=1),
    Message('note_on', channel=2, note=62, velocity=0, time=57),
    Message('note_on', channel=2, note=58, velocity=0, time=3),
    Message('note_on', channel=2, note=63, velocity=104, time=6),
    Message('note_on', channel=2, note=58, velocity=104, time=1),
    Message('note_on', channel=2, note=53, velocity=104, time=116),
    Message('note_on', channel=2, note=65, velocity=104, time=0),
    Message('note_on', channel=2, note=63, velocity=0, time=3),
    Message('note_on', channel=2, note=58, velocity=0, time=101),
    Message('note_on', channel=2, note=60, velocity=104, time=20),
    Message('note_on', channel=2, note=65, velocity=0, time=104),
    Message('note_on', channel=2, note=60, velocity=0, time=5),
    Message('note_on', channel=2, note=53, velocity=0, time=5),
    Message('note_on', channel=2, note=65, velocity=103, time=19),
    Message('note_on', channel=2, note=65, velocity=0, time=51),
    Message('note_on', channel=2, note=65, velocity=103, time=38),
    Message('note_on', channel=2, note=65, velocity=0, time=20),
    Message('note_on', channel=2, note=70, velocity=103, time=4),
    Message('note_on', channel=2, note=66, velocity=103, time=11),
    Message('note_on', channel=2, note=66, velocity=0, time=70),
    Message('note_on', channel=2, note=65, velocity=103, time=16),
    Message('note_on', channel=2, note=68, velocity=103, time=4),
    Message('note_on', channel=2, note=65, velocity=0, time=14),
    Message('note_on', channel=2, note=68, velocity=0, time=3),
    Message('note_on', channel=2, note=66, velocity=103, time=11),
    Message('note_on', channel=2, note=63, velocity=103, time=2),
    Message('note_on', channel=2, note=66, velocity=0, time=71),
    Message('note_on', channel=2, note=63, velocity=0, time=2),
    Message('note_on', channel=2, note=61, velocity=103, time=11),
    Message('note_on', channel=2, note=65, velocity=103, time=0),
    Message('note_on', channel=2, note=61, velocity=0, time=16),
    Message('note_on', channel=2, note=65, velocity=0, time=4),
    Message('note_on', channel=2, note=63, velocity=103, time=15),
    Message('note_on', channel=2, note=60, velocity=103, time=1),
    Message('note_on', channel=2, note=63, velocity=0, time=62),
    Message('note_on', channel=2, note=60, velocity=0, time=4),
    Message('note_on', channel=2, note=58, velocity=103, time=15),
    Message('note_on', channel=2, note=61, velocity=103, time=9),
    Message('note_on', channel=2, note=58, velocity=0, time=7),
    Message('note_on', channel=2, note=61, velocity=0, time=11),
    Message('note_on', channel=2, note=56, velocity=103, time=5),
    Message('note_on', channel=2, note=60, velocity=103, time=5),
    Message('note_on', channel=2, note=60, velocity=0, time=44),
    Message('note_on', channel=2, note=56, velocity=0, time=0),
    Message('note_on', channel=2, note=70, velocity=0, time=15),
    Message('note_on', channel=2, note=54, velocity=103, time=21),
    Message('note_on', channel=2, note=58, velocity=103, time=3),
    Message('note_on', channel=2, note=58, velocity=0, time=11),
    Message('note_on', channel=2, note=54, velocity=0, time=6),
    Message('note_on', channel=2, note=60, velocity=121, time=3236),
    Message('note_on', channel=2, note=60, velocity=0, time=12),
    Message('note_on', channel=2, note=60, velocity=112, time=15),
    Message('note_on', channel=2, note=60, velocity=0, time=125),
    Message('note_on', channel=2, note=57, velocity=127, time=0),
    Message('note_on', channel=2, note=57, velocity=0, time=30),
    Message('note_on', channel=2, note=60, velocity=112, time=60),
    Message('note_on', channel=2, note=60, velocity=0, time=11),
    Message('note_on', channel=2, note=60, velocity=118, time=19),
    Message('note_on', channel=2, note=57, velocity=126, time=115),
    Message('note_on', channel=2, note=60, velocity=0, time=3),
    Message('note_on', channel=2, note=57, velocity=0, time=31),
    Message('note_on', channel=2, note=63, velocity=112, time=49),
    Message('note_on', channel=2, note=63, velocity=0, time=16),
    Message('note_on', channel=2, note=63, velocity=96, time=13),
    Message('note_on', channel=2, note=62, velocity=107, time=126),
    Message('note_on', channel=2, note=63, velocity=0, time=7),
    Message('note_on', channel=2, note=62, velocity=0, time=35),
    Message('note_on', channel=2, note=63, velocity=101, time=20),
    Message('note_on', channel=2, note=62, velocity=102, time=25),
    Message('note_on', channel=2, note=63, velocity=0, time=10),
    Message('note_on', channel=2, note=60, velocity=121, time=20),
    Message('note_on', channel=2, note=62, velocity=0, time=2),
    Message('note_on', channel=2, note=60, velocity=0, time=28),
    Message('note_on', channel=2, note=57, velocity=124, time=32),
    Message('note_on', channel=2, note=57, velocity=0, time=95),
    Message('note_on', channel=2, note=62, velocity=43, time=570),
    Message('note_on', channel=2, note=55, velocity=126, time=3),
    Message('note_on', channel=2, note=62, velocity=0, time=343),
    Message('note_on', channel=2, note=55, velocity=0, time=24),
    Message('note_on', channel=2, note=58, velocity=108, time=2330),
    Message('note_on', channel=2, note=62, velocity=127, time=1),
    Message('note_on', channel=2, note=58, velocity=0, time=12),
    Message('note_on', channel=2, note=62, velocity=0, time=1),
    Message('note_on', channel=2, note=58, velocity=103, time=6),
    Message('note_on', channel=2, note=62, velocity=127, time=1),
    Message('note_on', channel=2, note=58, velocity=0, time=12),
    Message('note_on', channel=2, note=62, velocity=0, time=1),
    Message('note_on', channel=2, note=58, velocity=114, time=6),
    Message('note_on', channel=2, note=62, velocity=127, time=1),
    Message('note_on', channel=2, note=58, velocity=0, time=12),
    Message('note_on', channel=2, note=62, velocity=0, time=1),
    Message('note_on', channel=2, note=59, velocity=108, time=6),
    Message('note_on', channel=2, note=63, velocity=127, time=0),
    Message('note_on', channel=2, note=63, velocity=0, time=13),
    Message('note_on', channel=2, note=59, velocity=0, time=0),
    Message('note_on', channel=2, note=59, velocity=114, time=7),
    Message('note_on', channel=2, note=63, velocity=127, time=1),
    Message('note_on', channel=2, note=59, velocity=0, time=11),
    Message('note_on', channel=2, note=63, velocity=0, time=1),
    Message('note_on', channel=2, note=59, velocity=127, time=6),
    Message('note_on', channel=2, note=63, velocity=127, time=1),
    Message('note_on', channel=2, note=59, velocity=0, time=12),
    Message('note_on', channel=2, note=63, velocity=0, time=1),
    Message('note_on', channel=2, note=65, velocity=127, time=7),
    Message('note_on', channel=2, note=61, velocity=108, time=0),
    Message('note_on', channel=2, note=61, velocity=0, time=12),
    Message('note_on', channel=2, note=65, velocity=0, time=0),
    Message('note_on', channel=2, note=61, velocity=108, time=7),
    Message('note_on', channel=2, note=65, velocity=127, time=0),
    Message('note_on', channel=2, note=65, velocity=0, time=13),
    Message('note_on', channel=2, note=61, velocity=0, time=0),
    Message('note_on', channel=2, note=65, velocity=127, time=6),
    Message('note_on', channel=2, note=61, velocity=108, time=2),
    Message('note_on', channel=2, note=65, velocity=0, time=9),
    Message('note_on', channel=2, note=61, velocity=0, time=2),
    Message('note_on', channel=2, note=58, velocity=93, time=3910),
    Message('note_on', channel=2, note=62, velocity=127, time=0),
    Message('note_on', channel=2, note=58, velocity=0, time=10),
    Message('note_on', channel=2, note=62, velocity=0, time=3),
    Message('note_on', channel=2, note=58, velocity=109, time=6),
    Message('note_on', channel=2, note=62, velocity=127, time=1),
    Message('note_on', channel=2, note=58, velocity=0, time=12),
    Message('note_on', channel=2, note=62, velocity=0, time=1),
    Message('note_on', channel=2, note=58, velocity=112, time=6),
    Message('note_on', channel=2, note=62, velocity=127, time=1),
    Message('note_on', channel=2, note=58, velocity=0, time=12),
    Message('note_on', channel=2, note=62, velocity=0, time=1),
    Message('note_on', channel=2, note=59, velocity=114, time=6),
    Message('note_on', channel=2, note=63, velocity=127, time=0),
    Message('note_on', channel=2, note=63, velocity=0, time=13),
    Message('note_on', channel=2, note=59, velocity=0, time=0),
    Message('note_on', channel=2, note=59, velocity=117, time=7),
    Message('note_on', channel=2, note=63, velocity=127, time=1),
    Message('note_on', channel=2, note=59, velocity=0, time=11),
    Message('note_on', channel=2, note=63, velocity=0, time=1),
    Message('note_on', channel=2, note=59, velocity=119, time=6),
    Message('note_on', channel=2, note=63, velocity=127, time=1),
    Message('note_on', channel=2, note=59, velocity=0, time=12),
    Message('note_on', channel=2, note=63, velocity=0, time=1),
    Message('note_on', channel=2, note=65, velocity=127, time=7),
    Message('note_on', channel=2, note=61, velocity=121, time=0),
    Message('note_on', channel=2, note=61, velocity=0, time=12),
    Message('note_on', channel=2, note=65, velocity=0, time=0),
    Message('note_on', channel=2, note=61, velocity=123, time=7),
    Message('note_on', channel=2, note=65, velocity=127, time=1),
    Message('note_on', channel=2, note=61, velocity=0, time=12),
    Message('note_on', channel=2, note=65, velocity=0, time=1),
    Message('note_on', channel=2, note=61, velocity=126, time=7),
    Message('note_on', channel=2, note=65, velocity=127, time=0),
    Message('note_on', channel=2, note=65, velocity=0, time=11),
    Message('note_on', channel=2, note=61, velocity=0, time=0),
    Message('note_on', channel=2, note=52, velocity=88, time=5551),
    Message('note_on', channel=2, note=57, velocity=99, time=236),
    Message('note_on', channel=2, note=52, velocity=0, time=6),
    Message('note_on', channel=2, note=59, velocity=112, time=454),
    Message('note_on', channel=2, note=57, velocity=0, time=4),
    Message('note_on', channel=2, note=64, velocity=76, time=245),
    Message('note_on', channel=2, note=60, velocity=99, time=124),
    Message('note_on', channel=2, note=59, velocity=0, time=7),
    Message('note_on', channel=2, note=62, velocity=88, time=42),
    Message('note_on', channel=2, note=60, velocity=0, time=1),
    Message('note_on', channel=2, note=60, velocity=99, time=54),
    Message('note_on', channel=2, note=62, velocity=0, time=2),
    Message('note_on', channel=2, note=69, velocity=85, time=16),
    Message('note_on', channel=2, note=64, velocity=0, time=11),
    Message('note_on', channel=2, note=71, velocity=72, time=455),
    Message('note_on', channel=2, note=69, velocity=0, time=13),
    Message('note_on', channel=2, note=60, velocity=0, time=174),
    Message('note_on', channel=2, note=52, velocity=127, time=55),
    Message('note_on', channel=2, note=72, velocity=68, time=133),
    Message('note_on', channel=2, note=71, velocity=0, time=6),
    Message('note_on', channel=2, note=72, velocity=0, time=49),
    Message('note_on', channel=2, note=74, velocity=83, time=7),
    Message('note_on', channel=2, note=57, velocity=108, time=29),
    Message('note_on', channel=2, note=52, velocity=0, time=1),
    Message('note_on', channel=2, note=74, velocity=0, time=45),
    Message('note_on', channel=2, note=72, velocity=67, time=1),
    Message('note_on', channel=2, note=59, velocity=87, time=324),
    Message('note_on', channel=2, note=57, velocity=0, time=9),
    Message('note_on', channel=2, note=72, velocity=0, time=2),
    Message('note_on', channel=2, note=71, velocity=73, time=4),
    Message('note_on', channel=2, note=60, velocity=100, time=117),
    Message('note_on', channel=2, note=59, velocity=0, time=4),
    Message('note_on', channel=2, note=71, velocity=0, time=3),
    Message('note_on', channel=2, note=69, velocity=63, time=1),
    Message('note_on', channel=2, note=60, velocity=0, time=104),
    Message('note_on', channel=2, note=52, velocity=100, time=0),
    Message('note_on', channel=2, note=60, velocity=87, time=127),
    Message('note_on', channel=2, note=52, velocity=0, time=1),
    Message('note_on', channel=2, note=67, velocity=39, time=4),
    Message('note_on', channel=2, note=69, velocity=0, time=17),
    Message('note_on', channel=2, note=57, velocity=100, time=56),
    Message('note_on', channel=2, note=60, velocity=0, time=5),
    Message('note_on', channel=2, note=57, velocity=0, time=76),
    Message('note_on', channel=2, note=64, velocity=100, time=0),
    Message('note_on', channel=2, note=62, velocity=113, time=75),
    Message('note_on', channel=2, note=64, velocity=0, time=5),
    Message('note_on', channel=2, note=67, velocity=0, time=2),
    Message('note_on', channel=2, note=66, velocity=39, time=2),
    Message('note_on', channel=2, note=66, velocity=0, time=561),
    Message('note_on', channel=2, note=62, velocity=0, time=427),
    Message('note_on', channel=2, note=69, velocity=121, time=687),
    Message('note_on', channel=2, note=69, velocity=0, time=95),
    Message('note_on', channel=2, note=69, velocity=86, time=90),
    Message('note_on', channel=2, note=69, velocity=0, time=28),
    Message('note_on', channel=2, note=69, velocity=114, time=28),
    Message('note_on', channel=2, note=69, velocity=0, time=508),
    Message('note_on', channel=2, note=65, velocity=91, time=202),
    Message('note_on', channel=2, note=65, velocity=0, time=153),
    Message('note_on', channel=2, note=70, velocity=91, time=21),
    Message('note_on', channel=2, note=70, velocity=0, time=45),
    Message('note_on', channel=2, note=69, velocity=101, time=25),
    Message('note_on', channel=2, note=69, velocity=0, time=230),
    Message('note_on', channel=2, note=65, velocity=101, time=11),
    Message('note_on', channel=2, note=65, velocity=0, time=172),
    Message('note_on', channel=2, note=70, velocity=111, time=17),
    Message('note_on', channel=2, note=70, velocity=0, time=35),
    Message('note_on', channel=2, note=69, velocity=91, time=20),
    Message('note_on', channel=2, note=69, velocity=0, time=185),
    Message('note_on', channel=2, note=69, velocity=120, time=54),
    Message('note_on', channel=2, note=69, velocity=0, time=88),
    Message('note_on', channel=2, note=69, velocity=109, time=92),
    Message('note_on', channel=2, note=69, velocity=0, time=28),
    Message('note_on', channel=2, note=69, velocity=99, time=39),
    Message('note_on', channel=2, note=69, velocity=0, time=693),
    Message('note_on', channel=2, note=66, velocity=96, time=20),
    Message('note_on', channel=2, note=66, velocity=0, time=230),
    Message('note_on', channel=2, note=62, velocity=108, time=11),
    Message('control_change', channel=2, control=18, value=63, time=215),
    Message('note_on', channel=2, note=62, velocity=0, time=494),
    Message('note_on', channel=2, note=60, velocity=96, time=6),
    Message('note_on', channel=2, note=60, velocity=0, time=15),
    Message('note_on', channel=2, note=58, velocity=105, time=25),
    Message('note_on', channel=2, note=58, velocity=0, time=16),
    Message('note_on', channel=2, note=57, velocity=80, time=24),
    Message('note_on', channel=2, note=57, velocity=0, time=19),
    Message('note_on', channel=2, note=67, velocity=96, time=16),
    Message('note_on', channel=2, note=67, velocity=0, time=231),
    Message('note_on', channel=2, note=62, velocity=98, time=14),
    Message('note_on', channel=2, note=62, velocity=0, time=346),
    Message('note_on', channel=2, note=60, velocity=98, time=14),
    Message('note_on', channel=2, note=60, velocity=0, time=33),
    Message('note_on', channel=2, note=58, velocity=92, time=7),
    Message('note_on', channel=2, note=58, velocity=0, time=35),
    Message('note_on', channel=2, note=57, velocity=83, time=5),
    Message('note_on', channel=2, note=57, velocity=0, time=34),
    Message('note_on', channel=2, note=67, velocity=92, time=6),
    Message('note_on', channel=2, note=62, velocity=98, time=240),
    Message('note_on', channel=2, note=67, velocity=0, time=1),
    Message('note_on', channel=2, note=60, velocity=89, time=359),
    Message('note_on', channel=2, note=62, velocity=0, time=5),
    Message('note_on', channel=2, note=60, velocity=0, time=320),
    Message('note_on', channel=2, note=53, velocity=116, time=35),
    Message('note_on', channel=2, note=53, velocity=0, time=37),
    Message('note_on', channel=2, note=53, velocity=101, time=83),
    Message('note_on', channel=2, note=53, velocity=0, time=205),
    Message('note_on', channel=2, note=55, velocity=106, time=35),
    Message('note_on', channel=2, note=55, velocity=0, time=45),
    Message('note_on', channel=2, note=53, velocity=105, time=75),
    Message('note_on', channel=2, note=53, velocity=0, time=43),
    Message('note_on', channel=2, note=53, velocity=101, time=77),
    Message('note_on', channel=2, note=53, velocity=0, time=204),
    Message('note_on', channel=2, note=55, velocity=99, time=36),
    Message('note_on', channel=2, note=55, velocity=0, time=73),
    Message('note_on', channel=2, note=53, velocity=109, time=47),
    Message('note_on', channel=2, note=53, velocity=0, time=52),
    Message('note_on', channel=2, note=53, velocity=106, time=68),
    Message('note_on', channel=2, note=53, velocity=0, time=184),
    Message('note_on', channel=2, note=51, velocity=106, time=56),
    Message('note_on', channel=2, note=51, velocity=0, time=65),
    Message('note_on', channel=2, note=53, velocity=109, time=55),
    Message('note_on', channel=2, note=53, velocity=0, time=49),
    Message('note_on', channel=2, note=53, velocity=110, time=71),
    Message('note_on', channel=2, note=53, velocity=0, time=209),
    Message('note_on', channel=2, note=51, velocity=111, time=31),
    Message('note_on', channel=2, note=51, velocity=0, time=60),
    Message('note_on', channel=2, note=68, velocity=127, time=3937),
    Message('note_on', channel=2, note=60, velocity=127, time=6),
    Message('note_on', channel=2, note=68, velocity=0, time=22),
    Message('note_on', channel=2, note=60, velocity=0, time=2),
    Message('note_on', channel=2, note=70, velocity=127, time=11),
    Message('note_on', channel=2, note=63, velocity=127, time=0),
    Message('note_on', channel=2, note=70, velocity=0, time=25),
    Message('note_on', channel=2, note=63, velocity=0, time=1),
    Message('note_on', channel=2, note=68, velocity=127, time=15),
    Message('note_on', channel=2, note=77, velocity=127, time=2),
    Message('note_on', channel=2, note=68, velocity=0, time=39),
    Message('note_on', channel=2, note=77, velocity=0, time=25),
    Message('note_on', channel=2, note=68, velocity=127, time=15),
    Message('note_on', channel=2, note=60, velocity=127, time=3),
    Message('note_on', channel=2, note=68, velocity=0, time=6),
    Message('note_on', channel=2, note=70, velocity=127, time=2),
    Message('note_on', channel=2, note=63, velocity=127, time=4),
    Message('note_on', channel=2, note=60, velocity=0, time=1),
    Message('note_on', channel=2, note=77, velocity=127, time=16),
    Message('note_on', channel=2, note=70, velocity=0, time=1),
    Message('note_on', channel=2, note=68, velocity=127, time=9),
    Message('note_on', channel=2, note=63, velocity=0, time=10),
    Message('note_on', channel=2, note=68, velocity=0, time=118),
    Message('note_on', channel=2, note=77, velocity=0, time=95),
    Message('note_on', channel=2, note=67, velocity=127, time=615),
    Message('note_on', channel=2, note=67, velocity=0, time=85),
    Message('note_on', channel=2, note=74, velocity=127, time=35),
    Message('note_on', channel=2, note=74, velocity=0, time=90),
    Message('note_on', channel=2, note=72, velocity=127, time=30),
    Message('note_on', channel=2, note=72, velocity=0, time=18),
    Message('note_on', channel=2, note=71, velocity=127, time=22),
    Message('note_on', channel=2, note=71, velocity=0, time=23),
    Message('note_on', channel=2, note=69, velocity=127, time=17),
    Message('note_on', channel=2, note=69, velocity=0, time=22),
    Message('note_on', channel=2, note=72, velocity=127, time=32),
    Message('note_on', channel=2, note=72, velocity=0, time=931),
    Message('note_on', channel=2, note=62, velocity=127, time=135),
    Message('note_on', channel=2, note=62, velocity=0, time=9),
    Message('note_on', channel=2, note=62, velocity=127, time=31),
    Message('note_on', channel=2, note=62, velocity=0, time=10),
    Message('note_on', channel=2, note=62, velocity=127, time=30),
    Message('note_on', channel=2, note=62, velocity=0, time=11),
    Message('note_on', channel=2, note=62, velocity=127, time=29),
    Message('note_on', channel=2, note=62, velocity=0, time=56),
    MetaMessage('end_of_track', time=0)]),
  MidiTrack([
    MetaMessage('midi_port', port=1, time=0),
    MetaMessage('track_name', name='Trumpets', time=0),
    Message('program_change', channel=3, program=56, time=0),
    Message('control_change', channel=3, control=7, value=126, time=0),
    Message('control_change', channel=3, control=10, value=64, time=0),
    Message('control_change', channel=3, control=18, value=64, time=7),
    Message('note_on', channel=3, note=70, velocity=114, time=1008),
    Message('note_on', channel=3, note=70, velocity=0, time=10),
    Message('note_on', channel=3, note=70, velocity=114, time=5),
    Message('note_on', channel=3, note=70, velocity=0, time=10),
    Message('note_on', channel=3, note=70, velocity=114, time=5),
    Message('note_on', channel=3, note=70, velocity=0, time=9),
    Message('note_on', channel=3, note=70, velocity=114, time=6),
    Message('note_on', channel=3, note=70, velocity=0, time=13),
    Message('note_on', channel=3, note=70, velocity=114, time=3),
    Message('note_on', channel=3, note=70, velocity=0, time=18),
    Message('note_on', channel=3, note=65, velocity=114, time=21),
    Message('note_on', channel=3, note=65, velocity=0, time=13),
    Message('note_on', channel=3, note=75, velocity=114, time=25),
    Message('note_on', channel=3, note=75, velocity=0, time=13),
    Message('note_on', channel=3, note=77, velocity=114, time=30),
    Message('note_on', channel=3, note=77, velocity=0, time=15),
    Message('note_on', channel=3, note=75, velocity=114, time=25),
    Message('note_on', channel=3, note=75, velocity=0, time=13),
    Message('note_on', channel=3, note=70, velocity=114, time=25),
    Message('note_on', channel=3, note=70, velocity=0, time=16),
    Message('note_on', channel=3, note=70, velocity=114, time=27),
    Message('note_on', channel=3, note=70, velocity=0, time=16),
    Message('note_on', channel=3, note=65, velocity=114, time=22),
    Message('note_on', channel=3, note=65, velocity=0, time=15),
    Message('note_on', channel=3, note=75, velocity=114, time=25),
    Message('note_on', channel=3, note=75, velocity=0, time=11),
    Message('note_on', channel=3, note=77, velocity=114, time=32),
    Message('note_on', channel=3, note=77, velocity=0, time=14),
    Message('note_on', channel=3, note=75, velocity=114, time=26),
    Message('note_on', channel=3, note=75, velocity=0, time=11),
    Message('note_on', channel=3, note=70, velocity=114, time=26),
    Message('note_on', channel=3, note=70, velocity=0, time=13),
    Message('note_on', channel=3, note=70, velocity=114, time=29),
    Message('note_on', channel=3, note=70, velocity=0, time=15),
    Message('note_on', channel=3, note=65, velocity=114, time=25),
    Message('note_on', channel=3, note=65, velocity=0, time=16),
    Message('note_on', channel=3, note=75, velocity=114, time=25),
    Message('note_on', channel=3, note=75, velocity=0, time=14),
    Message('note_on', channel=3, note=77, velocity=114, time=28),
    Message('note_on', channel=3, note=77, velocity=0, time=14),
    Message('note_on', channel=3, note=70, velocity=114, time=31),
    Message('note_on', channel=3, note=70, velocity=0, time=13),
    Message('note_on', channel=3, note=70, velocity=114, time=3),
    Message('note_on', channel=3, note=70, velocity=0, time=18),
    Message('note_on', channel=3, note=70, velocity=114, time=13),
    Message('note_on', channel=3, note=70, velocity=0, time=18),
    Message('note_on', channel=3, note=65, velocity=113, time=40),
    Message('note_on', channel=3, note=57, velocity=113, time=1),
    Message('note_on', channel=3, note=65, velocity=113, time=6),
    Message('note_on', channel=3, note=65, velocity=0, time=7),
    Message('note_on', channel=3, note=65, velocity=0, time=1),
    Message('note_on', channel=3, note=57, velocity=0, time=22),
    Message('note_on', channel=3, note=65, velocity=113, time=26),
    Message('note_on', channel=3, note=65, velocity=113, time=12),
    Message('note_on', channel=3, note=65, velocity=0, time=10),
    Message('note_on', channel=3, note=65, velocity=0, time=1),
    Message('control_change', channel=3, control=7, value=124, time=5),
    Message('note_on', channel=3, note=65, velocity=113, time=36),
    Message('note_on', channel=3, note=65, velocity=113, time=11),
    Message('note_on', channel=3, note=65, velocity=0, time=11),
    Message('note_on', channel=3, note=65, velocity=0, time=0),
    Message('note_on', channel=3, note=70, velocity=113, time=63),
    Message('note_on', channel=3, note=70, velocity=0, time=217),
    Message('note_on', channel=3, note=77, velocity=113, time=23),
    Message('note_on', channel=3, note=77, velocity=0, time=208),
    Message('note_on', channel=3, note=75, velocity=113, time=31),
    Message('note_on', channel=3, note=75, velocity=0, time=16),
    Message('note_on', channel=3, note=74, velocity=113, time=19),
    Message('note_on', channel=3, note=74, velocity=0, time=13),
    Message('note_on', channel=3, note=72, velocity=113, time=27),
    Message('note_on', channel=3, note=72, velocity=0, time=16),
    Message('note_on', channel=3, note=82, velocity=113, time=30),
    Message('note_on', channel=3, note=82, velocity=0, time=210),
    Message('note_on', channel=3, note=77, velocity=113, time=29),
    Message('note_on', channel=3, note=77, velocity=0, time=88),
    Message('note_on', channel=3, note=75, velocity=113, time=27),
    Message('note_on', channel=3, note=75, velocity=0, time=18),
    Message('note_on', channel=3, note=74, velocity=113, time=17),
    Message('note_on', channel=3, note=74, velocity=0, time=13),
    Message('note_on', channel=3, note=72, velocity=113, time=28),
    Message('note_on', channel=3, note=72, velocity=0, time=17),
    Message('note_on', channel=3, note=82, velocity=113, time=31),
    Message('note_on', channel=3, note=82, velocity=0, time=220),
    Message('note_on', channel=3, note=77, velocity=113, time=25),
    Message('note_on', channel=3, note=77, velocity=0, time=70),
    Message('note_on', channel=3, note=75, velocity=114, time=48),
    Message('note_on', channel=3, note=75, velocity=0, time=14),
    Message('note_on', channel=3, note=74, velocity=114, time=21),
    Message('note_on', channel=3, note=74, velocity=0, time=15),
    Message('note_on', channel=3, note=75, velocity=114, time=25),
    Message('note_on', channel=3, note=75, velocity=0, time=14),
    Message('note_on', channel=3, note=72, velocity=114, time=27),
    Message('note_on', channel=3, note=72, velocity=0, time=250),
    Message('note_on', channel=3, note=65, velocity=114, time=47),
    Message('note_on', channel=3, note=65, velocity=0, time=11),
    Message('note_on', channel=3, note=65, velocity=114, time=8),
    Message('note_on', channel=3, note=65, velocity=0, time=15),
    Message('note_on', channel=3, note=65, velocity=114, time=5),
    Message('note_on', channel=3, note=65, velocity=0, time=15),
    Message('note_on', channel=3, note=70, velocity=114, time=8),
    Message('note_on', channel=3, note=70, velocity=0, time=223),
    Message('note_on', channel=3, note=77, velocity=114, time=20),
    Message('note_on', channel=3, note=77, velocity=0, time=230),
    Message('note_on', channel=3, note=75, velocity=114, time=10),
    Message('note_on', channel=3, note=75, velocity=0, time=13),
    Message('note_on', channel=3, note=74, velocity=114, time=24),
    Message('note_on', channel=3, note=74, velocity=0, time=13),
    Message('note_on', channel=3, note=72, velocity=114, time=26),
    Message('note_on', channel=3, note=72, velocity=0, time=15),
    Message('note_on', channel=3, note=82, velocity=114, time=29),
    Message('note_on', channel=3, note=82, velocity=0, time=225),
    Message('note_on', channel=3, note=77, velocity=114, time=15),
    Message('note_on', channel=3, note=77, velocity=0, time=98),
    Message('note_on', channel=3, note=75, velocity=114, time=21),
    Message('note_on', channel=3, note=75, velocity=0, time=19),
    Message('note_on', channel=3, note=74, velocity=114, time=21),
    Message('note_on', channel=3, note=74, velocity=0, time=13),
    Message('note_on', channel=3, note=72, velocity=114, time=24),
    Message('note_on', channel=3, note=72, velocity=0, time=15),
    Message('note_on', channel=3, note=82, velocity=114, time=28),
    Message('note_on', channel=3, note=82, velocity=0, time=236),
    Message('note_on', channel=3, note=77, velocity=114, time=4),
    Message('note_on', channel=3, note=77, velocity=0, time=110),
    Message('note_on', channel=3, note=75, velocity=114, time=13),
    Message('note_on', channel=3, note=75, velocity=0, time=14),
    Message('note_on', channel=3, note=74, velocity=114, time=25),
    Message('note_on', channel=3, note=74, velocity=0, time=10),
    Message('note_on', channel=3, note=75, velocity=114, time=29),
    Message('note_on', channel=3, note=75, velocity=0, time=13),
    Message('note_on', channel=3, note=72, velocity=114, time=26),
    Message('note_on', channel=3, note=72, velocity=0, time=221),
    Message('note_on', channel=3, note=77, velocity=114, time=2889),
    Message('note_on', channel=3, note=77, velocity=0, time=76),
    Message('note_on', channel=3, note=77, velocity=103, time=19),
    Message('note_on', channel=3, note=77, velocity=0, time=20),
    Message('note_on', channel=3, note=82, velocity=103, time=15),
    Message('note_on', channel=3, note=78, velocity=103, time=1),
    Message('note_on', channel=3, note=78, velocity=0, time=22),
    Message('note_on', channel=3, note=82, velocity=0, time=37),
    Message('note_on', channel=3, note=77, velocity=103, time=26),
    Message('note_on', channel=3, note=80, velocity=103, time=0),
    Message('note_on', channel=3, note=80, velocity=0, time=14),
    Message('note_on', channel=3, note=77, velocity=0, time=4),
    Message('note_on', channel=3, note=78, velocity=103, time=16),
    Message('note_on', channel=3, note=75, velocity=103, time=1),
    Message('note_on', channel=3, note=75, velocity=0, time=19),
    Message('note_on', channel=3, note=78, velocity=0, time=40),
    Message('note_on', channel=3, note=77, velocity=103, time=30),
    Message('note_on', channel=3, note=73, velocity=103, time=1),
    Message('note_on', channel=3, note=73, velocity=0, time=13),
    Message('note_on', channel=3, note=77, velocity=0, time=4),
    Message('note_on', channel=3, note=75, velocity=103, time=15),
    Message('note_on', channel=3, note=72, velocity=103, time=2),
    Message('note_on', channel=3, note=72, velocity=0, time=30),
    Message('note_on', channel=3, note=75, velocity=0, time=28),
    Message('note_on', channel=3, note=73, velocity=103, time=29),
    Message('note_on', channel=3, note=70, velocity=103, time=1),
    Message('note_on', channel=3, note=73, velocity=0, time=13),
    Message('note_on', channel=3, note=70, velocity=0, time=1),
    Message('note_on', channel=3, note=72, velocity=103, time=15),
    Message('note_on', channel=3, note=68, velocity=103, time=3),
    Message('note_on', channel=3, note=68, velocity=0, time=30),
    Message('note_on', channel=3, note=72, velocity=0, time=28),
    Message('note_on', channel=3, note=70, velocity=103, time=23),
    Message('note_on', channel=3, note=70, velocity=0, time=13),
    Message('note_on', channel=3, note=77, velocity=111, time=32),
    Message('note_on', channel=3, note=77, velocity=0, time=236),
    Message('note_on', channel=3, note=67, velocity=127, time=443),
    Message('note_on', channel=3, note=63, velocity=127, time=0),
    Message('note_on', channel=3, note=70, velocity=127, time=0),
    Message('note_on', channel=3, note=70, velocity=0, time=14),
    Message('note_on', channel=3, note=67, velocity=0, time=2),
    Message('note_on', channel=3, note=63, velocity=0, time=1),
    Message('note_on', channel=3, note=67, velocity=127, time=13),
    Message('note_on', channel=3, note=70, velocity=127, time=0),
    Message('note_on', channel=3, note=63, velocity=127, time=0),
    Message('note_on', channel=3, note=70, velocity=0, time=108),
    Message('note_on', channel=3, note=67, velocity=0, time=5),
    Message('note_on', channel=3, note=63, velocity=0, time=1),
    Message('note_on', channel=3, note=60, velocity=112, time=6),
    Message('note_on', channel=3, note=67, velocity=117, time=0),
    Message('note_on', channel=3, note=64, velocity=127, time=0),
    Message('note_on', channel=3, note=64, velocity=0, time=31),
    Message('note_on', channel=3, note=67, velocity=0, time=22),
    Message('note_on', channel=3, note=60, velocity=0, time=2),
    Message('note_on', channel=3, note=70, velocity=127, time=35),
    Message('note_on', channel=3, note=67, velocity=127, time=0),
    Message('note_on', channel=3, note=63, velocity=127, time=0),
    Message('note_on', channel=3, note=70, velocity=0, time=16),
    Message('note_on', channel=3, note=67, velocity=0, time=2),
    Message('note_on', channel=3, note=63, velocity=0, time=2),
    Message('note_on', channel=3, note=70, velocity=127, time=10),
    Message('note_on', channel=3, note=63, velocity=123, time=0),
    Message('note_on', channel=3, note=67, velocity=127, time=0),
    Message('note_on', channel=3, note=67, velocity=0, time=111),
    Message('note_on', channel=3, note=60, velocity=116, time=9),
    Message('note_on', channel=3, note=67, velocity=127, time=0),
    Message('note_on', channel=3, note=64, velocity=127, time=0),
    Message('note_on', channel=3, note=63, velocity=0, time=1),
    Message('note_on', channel=3, note=70, velocity=0, time=7),
    Message('note_on', channel=3, note=64, velocity=0, time=28),
    Message('note_on', channel=3, note=67, velocity=0, time=4),
    Message('note_on', channel=3, note=60, velocity=0, time=10),
    Message('note_on', channel=3, note=70, velocity=127, time=40),
    Message('note_on', channel=3, note=66, velocity=127, time=0),
    Message('note_on', channel=3, note=73, velocity=127, time=0),
    Message('note_on', channel=3, note=73, velocity=0, time=13),
    Message('note_on', channel=3, note=70, velocity=0, time=3),
    Message('note_on', channel=3, note=66, velocity=0, time=5),
    Message('note_on', channel=3, note=73, velocity=127, time=9),
    Message('note_on', channel=3, note=66, velocity=116, time=0),
    Message('note_on', channel=3, note=70, velocity=127, time=0),
    Message('note_on', channel=3, note=70, velocity=0, time=97),
    Message('note_on', channel=3, note=66, velocity=0, time=23),
    Message('note_on', channel=3, note=69, velocity=127, time=0),
    Message('note_on', channel=3, note=72, velocity=127, time=0),
    Message('note_on', channel=3, note=65, velocity=127, time=0),
    Message('note_on', channel=3, note=73, velocity=0, time=5),
    Message('note_on', channel=3, note=69, velocity=0, time=28),
    Message('note_on', channel=3, note=72, velocity=0, time=3),
    Message('note_on', channel=3, note=65, velocity=0, time=4),
    Message('note_on', channel=3, note=73, velocity=126, time=20),
    Message('note_on', channel=3, note=66, velocity=117, time=0),
    Message('note_on', channel=3, note=70, velocity=127, time=0),
    Message('note_on', channel=3, note=70, velocity=0, time=21),
    Message('note_on', channel=3, note=73, velocity=0, time=7),
    Message('note_on', channel=3, note=69, velocity=127, time=2),
    Message('note_on', channel=3, note=65, velocity=110, time=0),
    Message('note_on', channel=3, note=72, velocity=123, time=0),
    Message('note_on', channel=3, note=66, velocity=0, time=1),
    Message('note_on', channel=3, note=69, velocity=0, time=26),
    Message('note_on', channel=3, note=67, velocity=127, time=3),
    Message('note_on', channel=3, note=63, velocity=127, time=0),
    Message('note_on', channel=3, note=70, velocity=116, time=0),
    Message('note_on', channel=3, note=72, velocity=0, time=1),
    Message('note_on', channel=3, note=65, velocity=0, time=6),
    Message('note_on', channel=3, note=63, velocity=0, time=11),
    Message('note_on', channel=3, note=67, velocity=0, time=0),
    Message('note_on', channel=3, note=70, velocity=0, time=0),
    Message('note_on', channel=3, note=60, velocity=127, time=42),
    Message('note_on', channel=3, note=64, velocity=127, time=0),
    Message('note_on', channel=3, note=67, velocity=127, time=0),
    Message('note_on', channel=3, note=64, velocity=0, time=945),
    Message('note_on', channel=3, note=60, velocity=0, time=5),
    Message('note_on', channel=3, note=67, velocity=0, time=10),
    Message('note_on', channel=3, note=65, velocity=127, time=748),
    Message('note_on', channel=3, note=72, velocity=127, time=2),
    Message('note_on', channel=3, note=69, velocity=123, time=3),
    Message('note_on', channel=3, note=72, velocity=0, time=13),
    Message('note_on', channel=3, note=69, velocity=0, time=2),
    Message('note_on', channel=3, note=65, velocity=0, time=1),
    Message('note_on', channel=3, note=65, velocity=116, time=16),
    Message('note_on', channel=3, note=72, velocity=116, time=1),
    Message('note_on', channel=3, note=69, velocity=124, time=1),
    Message('note_on', channel=3, note=72, velocity=0, time=112),
    Message('note_on', channel=3, note=69, velocity=0, time=8),
    Message('note_on', channel=3, note=69, velocity=124, time=1),
    Message('note_on', channel=3, note=62, velocity=127, time=0),
    Message('note_on', channel=3, note=65, velocity=0, time=2),
    Message('note_on', channel=3, note=66, velocity=127, time=5),
    Message('note_on', channel=3, note=66, velocity=0, time=32),
    Message('note_on', channel=3, note=69, velocity=0, time=4),
    Message('note_on', channel=3, note=62, velocity=0, time=3),
    Message('note_on', channel=3, note=69, velocity=127, time=46),
    Message('note_on', channel=3, note=72, velocity=127, time=0),
    Message('note_on', channel=3, note=65, velocity=81, time=3),
    Message('note_on', channel=3, note=65, velocity=0, time=9),
    Message('note_on', channel=3, note=72, velocity=0, time=1),
    Message('note_on', channel=3, note=69, velocity=0, time=0),
    Message('note_on', channel=3, note=65, velocity=107, time=10),
    Message('note_on', channel=3, note=72, velocity=127, time=7),
    Message('note_on', channel=3, note=69, velocity=127, time=3),
    Message('note_on', channel=3, note=69, velocity=124, time=107),
    Message('note_on', channel=3, note=62, velocity=121, time=1),
    Message('note_on', channel=3, note=69, velocity=0, time=2),
    Message('note_on', channel=3, note=72, velocity=0, time=0),
    Message('note_on', channel=3, note=65, velocity=0, time=5),
    Message('note_on', channel=3, note=66, velocity=121, time=0),
    Message('note_on', channel=3, note=66, velocity=0, time=31),
    Message('note_on', channel=3, note=62, velocity=0, time=7),
    Message('note_on', channel=3, note=72, velocity=126, time=44),
    Message('note_on', channel=3, note=75, velocity=116, time=5),
    Message('note_on', channel=3, note=68, velocity=127, time=1),
    Message('note_on', channel=3, note=72, velocity=0, time=9),
    Message('note_on', channel=3, note=69, velocity=0, time=1),
    Message('note_on', channel=3, note=75, velocity=0, time=4),
    Message('note_on', channel=3, note=68, velocity=0, time=1),
    Message('note_on', channel=3, note=72, velocity=116, time=12),
    Message('note_on', channel=3, note=68, velocity=117, time=2),
    Message('note_on', channel=3, note=75, velocity=112, time=1),
    Message('note_on', channel=3, note=72, velocity=0, time=110),
    Message('note_on', channel=3, note=71, velocity=126, time=4),
    Message('note_on', channel=3, note=67, velocity=123, time=3),
    Message('note_on', channel=3, note=74, velocity=116, time=0),
    Message('note_on', channel=3, note=68, velocity=0, time=6),
    Message('note_on', channel=3, note=75, velocity=0, time=4),
    Message('note_on', channel=3, note=67, velocity=0, time=20),
    Message('note_on', channel=3, note=71, velocity=0, time=0),
    Message('note_on', channel=3, note=74, velocity=0, time=0),
    Message('note_on', channel=3, note=75, velocity=109, time=30),
    Message('note_on', channel=3, note=72, velocity=123, time=0),
    Message('note_on', channel=3, note=68, velocity=121, time=2),
    Message('note_on', channel=3, note=72, velocity=0, time=12),
    Message('note_on', channel=3, note=68, velocity=0, time=11),
    Message('note_on', channel=3, note=71, velocity=93, time=0),
    Message('note_on', channel=3, note=67, velocity=110, time=2),
    Message('note_on', channel=3, note=74, velocity=90, time=5),
    Message('note_on', channel=3, note=75, velocity=0, time=7),
    Message('note_on', channel=3, note=71, velocity=0, time=9),
    Message('note_on', channel=3, note=67, velocity=0, time=2),
    Message('note_on', channel=3, note=65, velocity=127, time=5),
    Message('note_on', channel=3, note=72, velocity=127, time=3),
    Message('note_on', channel=3, note=69, velocity=127, time=0),
    Message('note_on', channel=3, note=74, velocity=0, time=6),
    Message('note_on', channel=3, note=65, velocity=0, time=11),
    Message('note_on', channel=3, note=69, velocity=0, time=1),
    Message('note_on', channel=3, note=72, velocity=0, time=17),
    Message('note_on', channel=3, note=76, velocity=98, time=621),
    Message('note_on', channel=3, note=76, velocity=0, time=24),
    Message('note_on', channel=3, note=77, velocity=101, time=1),
    Message('note_on', channel=3, note=77, velocity=0, time=16),
    Message('note_on', channel=3, note=78, velocity=111, time=8),
    Message('note_on', channel=3, note=79, velocity=125, time=18),
    Message('note_on', channel=3, note=78, velocity=0, time=8),
    Message('note_on', channel=3, note=79, velocity=0, time=62),
    Message('note_on', channel=3, note=67, velocity=117, time=888),
    Message('note_on', channel=3, note=67, velocity=0, time=90),
    Message('note_on', channel=3, note=67, velocity=123, time=43),
    Message('note_on', channel=3, note=67, velocity=0, time=81),
    Message('note_on', channel=3, note=67, velocity=123, time=44),
    Message('note_on', channel=3, note=67, velocity=0, time=72),
    Message('note_on', channel=3, note=63, velocity=123, time=39),
    Message('note_on', channel=3, note=63, velocity=0, time=61),
    Message('note_on', channel=3, note=70, velocity=123, time=25),
    Message('note_on', channel=3, note=70, velocity=0, time=18),
    Message('note_on', channel=3, note=67, velocity=123, time=15),
    Message('note_on', channel=3, note=67, velocity=0, time=96),
    Message('note_on', channel=3, note=63, velocity=123, time=26),
    Message('note_on', channel=3, note=63, velocity=0, time=52),
    Message('note_on', channel=3, note=70, velocity=123, time=40),
    Message('note_on', channel=3, note=70, velocity=0, time=18),
    Message('note_on', channel=3, note=67, velocity=123, time=13),
    Message('note_on', channel=3, note=67, velocity=0, time=157),
    Message('note_on', channel=3, note=74, velocity=123, time=81),
    Message('note_on', channel=3, note=74, velocity=0, time=81),
    Message('note_on', channel=3, note=74, velocity=123, time=39),
    Message('note_on', channel=3, note=74, velocity=0, time=80),
    Message('note_on', channel=3, note=74, velocity=123, time=42),
    Message('note_on', channel=3, note=74, velocity=0, time=80),
    Message('note_on', channel=3, note=75, velocity=123, time=40),
    Message('note_on', channel=3, note=75, velocity=0, time=53),
    Message('note_on', channel=3, note=70, velocity=123, time=34),
    Message('note_on', channel=3, note=70, velocity=0, time=16),
    Message('note_on', channel=3, note=66, velocity=123, time=15),
    Message('note_on', channel=3, note=66, velocity=0, time=75),
    Message('note_on', channel=3, note=63, velocity=123, time=42),
    Message('note_on', channel=3, note=63, velocity=0, time=65),
    Message('note_on', channel=3, note=70, velocity=123, time=25),
    Message('note_on', channel=3, note=70, velocity=0, time=20),
    Message('note_on', channel=3, note=67, velocity=123, time=13),
    Message('note_on', channel=3, note=67, velocity=0, time=146),
    Message('note_on', channel=3, note=79, velocity=123, time=98),
    Message('note_on', channel=3, note=79, velocity=0, time=72),
    Message('note_on', channel=3, note=67, velocity=123, time=41),
    Message('note_on', channel=3, note=67, velocity=0, time=44),
    Message('note_on', channel=3, note=67, velocity=123, time=54),
    Message('note_on', channel=3, note=67, velocity=0, time=18),
    Message('note_on', channel=3, note=79, velocity=123, time=10),
    Message('note_on', channel=3, note=79, velocity=0, time=81),
    Message('note_on', channel=3, note=78, velocity=123, time=39),
    Message('note_on', channel=3, note=78, velocity=0, time=62),
    Message('note_on', channel=3, note=77, velocity=123, time=30),
    Message('note_on', channel=3, note=77, velocity=0, time=20),
    Message('note_on', channel=3, note=76, velocity=123, time=7),
    Message('note_on', channel=3, note=76, velocity=0, time=22),
    Message('note_on', channel=3, note=75, velocity=123, time=6),
    Message('note_on', channel=3, note=75, velocity=0, time=18),
    Message('note_on', channel=3, note=76, velocity=123, time=6),
    Message('note_on', channel=3, note=76, velocity=0, time=39),
    Message('note_on', channel=3, note=68, velocity=123, time=85),
    Message('note_on', channel=3, note=68, velocity=0, time=22),
    Message('note_on', channel=3, note=73, velocity=123, time=42),
    Message('note_on', channel=3, note=73, velocity=0, time=90),
    Message('note_on', channel=3, note=72, velocity=123, time=28),
    Message('note_on', channel=3, note=72, velocity=0, time=75),
    Message('note_on', channel=3, note=71, velocity=123, time=17),
    Message('note_on', channel=3, note=71, velocity=0, time=21),
    Message('note_on', channel=3, note=70, velocity=123, time=10),
    Message('note_on', channel=3, note=70, velocity=0, time=22),
    Message('note_on', channel=3, note=69, velocity=123, time=7),
    Message('note_on', channel=3, note=69, velocity=0, time=20),
    Message('note_on', channel=3, note=70, velocity=123, time=11),
    Message('note_on', channel=3, note=70, velocity=0, time=16),
    Message('note_on', channel=3, note=63, velocity=123, time=104),
    Message('note_on', channel=3, note=63, velocity=0, time=21),
    Message('note_on', channel=3, note=66, velocity=123, time=37),
    Message('note_on', channel=3, note=66, velocity=0, time=84),
    Message('note_on', channel=3, note=63, velocity=123, time=35),
    Message('note_on', channel=3, note=63, velocity=0, time=75),
    Message('note_on', channel=3, note=66, velocity=123, time=17),
    Message('note_on', channel=3, note=66, velocity=0, time=16),
    Message('note_on', channel=3, note=70, velocity=123, time=15),
    Message('note_on', channel=3, note=70, velocity=0, time=83),
    Message('note_on', channel=3, note=67, velocity=123, time=38),
    Message('note_on', channel=3, note=67, velocity=0, time=60),
    Message('note_on', channel=3, note=70, velocity=123, time=28),
    Message('note_on', channel=3, note=70, velocity=0, time=17),
    Message('note_on', channel=3, note=74, velocity=123, time=14),
    Message('note_on', channel=3, note=74, velocity=0, time=168),
    Message('note_on', channel=3, note=79, velocity=123, time=73),
    Message('note_on', channel=3, note=79, velocity=0, time=72),
    Message('note_on', channel=3, note=67, velocity=123, time=41),
    Message('note_on', channel=3, note=67, velocity=0, time=44),
    Message('note_on', channel=3, note=67, velocity=123, time=54),
    Message('note_on', channel=3, note=67, velocity=0, time=18),
    Message('note_on', channel=3, note=79, velocity=123, time=10),
    Message('note_on', channel=3, note=79, velocity=0, time=81),
    Message('note_on', channel=3, note=78, velocity=123, time=39),
    Message('note_on', channel=3, note=78, velocity=0, time=62),
    Message('note_on', channel=3, note=77, velocity=123, time=30),
    Message('note_on', channel=3, note=77, velocity=0, time=20),
    Message('note_on', channel=3, note=76, velocity=123, time=7),
    Message('note_on', channel=3, note=76, velocity=0, time=22),
    Message('note_on', channel=3, note=75, velocity=123, time=6),
    Message('note_on', channel=3, note=75, velocity=0, time=18),
    Message('note_on', channel=3, note=76, velocity=123, time=6),
    Message('note_on', channel=3, note=76, velocity=0, time=39),
    Message('note_on', channel=3, note=68, velocity=123, time=85),
    Message('note_on', channel=3, note=68, velocity=0, time=22),
    Message('note_on', channel=3, note=73, velocity=123, time=42),
    Message('note_on', channel=3, note=73, velocity=0, time=90),
    Message('note_on', channel=3, note=72, velocity=123, time=28),
    Message('note_on', channel=3, note=72, velocity=0, time=75),
    Message('note_on', channel=3, note=71, velocity=123, time=17),
    Message('note_on', channel=3, note=71, velocity=0, time=21),
    Message('note_on', channel=3, note=70, velocity=123, time=10),
    Message('note_on', channel=3, note=70, velocity=0, time=22),
    Message('note_on', channel=3, note=69, velocity=123, time=7),
    Message('note_on', channel=3, note=69, velocity=0, time=20),
    Message('note_on', channel=3, note=70, velocity=123, time=11),
    Message('note_on', channel=3, note=70, velocity=0, time=16),
    Message('note_on', channel=3, note=63, velocity=123, time=104),
    Message('note_on', channel=3, note=63, velocity=0, time=21),
    Message('note_on', channel=3, note=66, velocity=123, time=37),
    Message('note_on', channel=3, note=66, velocity=0, time=84),
    Message('note_on', channel=3, note=63, velocity=123, time=35),
    Message('note_on', channel=3, note=63, velocity=0, time=75),
    Message('note_on', channel=3, note=70, velocity=123, time=17),
    Message('note_on', channel=3, note=70, velocity=0, time=16),
    Message('note_on', channel=3, note=67, velocity=123, time=15),
    Message('note_on', channel=3, note=67, velocity=0, time=83),
    Message('note_on', channel=3, note=63, velocity=123, time=38),
    Message('note_on', channel=3, note=63, velocity=0, time=60),
    Message('note_on', channel=3, note=70, velocity=123, time=28),
    Message('note_on', channel=3, note=70, velocity=0, time=17),
    Message('note_on', channel=3, note=67, velocity=123, time=14),
    Message('note_on', channel=3, note=67, velocity=0, time=168),
    Message('note_on', channel=3, note=62, velocity=122, time=1269),
    Message('note_on', channel=3, note=62, velocity=0, time=65),
    Message('note_on', channel=3, note=62, velocity=127, time=178),
    Message('note_on', channel=3, note=62, velocity=0, time=53),
    Message('note_on', channel=3, note=62, velocity=127, time=187),
    Message('note_on', channel=3, note=62, velocity=0, time=48),
    Message('note_on', channel=3, note=60, velocity=109, time=968),
    Message('note_on', channel=3, note=64, velocity=106, time=0),
    Message('note_on', channel=3, note=68, velocity=112, time=1),
    Message('note_on', channel=3, note=68, velocity=0, time=8),
    Message('note_on', channel=3, note=64, velocity=0, time=1),
    Message('note_on', channel=3, note=60, velocity=0, time=1),
    Message('note_on', channel=3, note=60, velocity=101, time=12),
    Message('note_on', channel=3, note=68, velocity=112, time=0),
    Message('note_on', channel=3, note=64, velocity=86, time=0),
    Message('note_on', channel=3, note=68, velocity=0, time=7),
    Message('note_on', channel=3, note=64, velocity=0, time=1),
    Message('note_on', channel=3, note=60, velocity=0, time=2),
    Message('note_on', channel=3, note=64, velocity=91, time=6),
    Message('note_on', channel=3, note=68, velocity=86, time=0),
    Message('note_on', channel=3, note=60, velocity=91, time=2),
    Message('note_on', channel=3, note=68, velocity=0, time=8),
    Message('note_on', channel=3, note=64, velocity=0, time=0),
    Message('note_on', channel=3, note=60, velocity=0, time=2),
    Message('note_on', channel=3, note=65, velocity=70, time=10),
    Message('note_on', channel=3, note=69, velocity=78, time=0),
    Message('note_on', channel=3, note=61, velocity=112, time=1),
    Message('note_on', channel=3, note=65, velocity=0, time=7),
    Message('note_on', channel=3, note=69, velocity=0, time=1),
    Message('note_on', channel=3, note=61, velocity=0, time=1),
    Message('note_on', channel=3, note=69, velocity=75, time=9),
    Message('note_on', channel=3, note=65, velocity=75, time=0),
    Message('note_on', channel=3, note=61, velocity=109, time=1),
    Message('note_on', channel=3, note=69, velocity=0, time=7),
    Message('note_on', channel=3, note=61, velocity=0, time=1),
    Message('note_on', channel=3, note=65, velocity=0, time=1),
    Message('note_on', channel=3, note=69, velocity=78, time=9),
    Message('note_on', channel=3, note=65, velocity=78, time=0),
    Message('note_on', channel=3, note=61, velocity=121, time=0),
    Message('note_on', channel=3, note=69, velocity=0, time=9),
    Message('note_on', channel=3, note=61, velocity=0, time=1),
    Message('note_on', channel=3, note=65, velocity=0, time=0),
    Message('note_on', channel=3, note=58, velocity=101, time=14),
    Message('note_on', channel=3, note=66, velocity=124, time=0),
    Message('note_on', channel=3, note=62, velocity=99, time=1),
    Message('note_on', channel=3, note=66, velocity=0, time=7),
    Message('note_on', channel=3, note=62, velocity=0, time=2),
    Message('note_on', channel=3, note=58, velocity=0, time=0),
    Message('note_on', channel=3, note=62, velocity=65, time=8),
    Message('note_on', channel=3, note=66, velocity=106, time=0),
    Message('note_on', channel=3, note=58, velocity=121, time=2),
    Message('note_on', channel=3, note=66, velocity=0, time=6),
    Message('note_on', channel=3, note=62, velocity=0, time=0),
    Message('note_on', channel=3, note=58, velocity=0, time=2),
    Message('note_on', channel=3, note=62, velocity=75, time=8),
    Message('note_on', channel=3, note=66, velocity=119, time=0),
    Message('note_on', channel=3, note=58, velocity=105, time=2),
    Message('note_on', channel=3, note=66, velocity=0, time=9),
    Message('note_on', channel=3, note=58, velocity=0, time=2),
    Message('note_on', channel=3, note=62, velocity=0, time=0),
    Message('note_on', channel=3, note=64, velocity=96, time=69),
    Message('note_on', channel=3, note=68, velocity=127, time=0),
    Message('note_on', channel=3, note=60, velocity=96, time=1),
    Message('note_on', channel=3, note=68, velocity=0, time=7),
    Message('note_on', channel=3, note=64, velocity=0, time=2),
    Message('note_on', channel=3, note=60, velocity=0, time=1),
    Message('note_on', channel=3, note=68, velocity=95, time=11),
    Message('note_on', channel=3, note=64, velocity=96, time=0),
    Message('note_on', channel=3, note=60, velocity=101, time=0),
    Message('note_on', channel=3, note=68, velocity=0, time=7),
    Message('note_on', channel=3, note=60, velocity=0, time=1),
    Message('note_on', channel=3, note=64, velocity=0, time=1),
    Message('note_on', channel=3, note=64, velocity=96, time=7),
    Message('note_on', channel=3, note=68, velocity=96, time=0),
    Message('note_on', channel=3, note=60, velocity=80, time=1),
    Message('note_on', channel=3, note=68, velocity=0, time=8),
    Message('note_on', channel=3, note=64, velocity=0, time=1),
    Message('note_on', channel=3, note=60, velocity=0, time=1),
    Message('note_on', channel=3, note=65, velocity=91, time=12),
    Message('note_on', channel=3, note=61, velocity=127, time=0),
    Message('note_on', channel=3, note=69, velocity=94, time=1),
    Message('note_on', channel=3, note=69, velocity=0, time=7),
    Message('note_on', channel=3, note=65, velocity=0, time=0),
    Message('note_on', channel=3, note=61, velocity=0, time=2),
    Message('note_on', channel=3, note=69, velocity=86, time=9),
    Message('note_on', channel=3, note=65, velocity=80, time=0),
    Message('note_on', channel=3, note=61, velocity=109, time=2),
    Message('note_on', channel=3, note=65, velocity=0, time=6),
    Message('note_on', channel=3, note=69, velocity=0, time=0),
    Message('note_on', channel=3, note=61, velocity=0, time=2),
    Message('note_on', channel=3, note=65, velocity=80, time=8),
    Message('note_on', channel=3, note=69, velocity=96, time=1),
    Message('note_on', channel=3, note=61, velocity=121, time=0),
    Message('note_on', channel=3, note=69, velocity=0, time=8),
    Message('note_on', channel=3, note=65, velocity=0, time=1),
    Message('note_on', channel=3, note=61, velocity=0, time=1),
    Message('note_on', channel=3, note=62, velocity=101, time=14),
    Message('note_on', channel=3, note=66, velocity=127, time=0),
    Message('note_on', channel=3, note=58, velocity=127, time=2),
    Message('note_on', channel=3, note=66, velocity=0, time=6),
    Message('note_on', channel=3, note=62, velocity=0, time=3),
    Message('note_on', channel=3, note=58, velocity=0, time=1),
    Message('note_on', channel=3, note=66, velocity=124, time=7),
    Message('note_on', channel=3, note=62, velocity=80, time=1),
    Message('note_on', channel=3, note=58, velocity=101, time=0),
    Message('note_on', channel=3, note=66, velocity=0, time=7),
    Message('note_on', channel=3, note=62, velocity=0, time=2),
    Message('note_on', channel=3, note=58, velocity=0, time=2),
    Message('note_on', channel=3, note=62, velocity=75, time=4),
    Message('note_on', channel=3, note=66, velocity=119, time=0),
    Message('note_on', channel=3, note=58, velocity=105, time=2),
    Message('note_on', channel=3, note=66, velocity=0, time=9),
    Message('note_on', channel=3, note=58, velocity=0, time=2),
    Message('note_on', channel=3, note=62, velocity=0, time=0),
    Message('note_on', channel=3, note=64, velocity=109, time=68),
    Message('note_on', channel=3, note=68, velocity=106, time=0),
    Message('note_on', channel=3, note=72, velocity=112, time=1),
    Message('note_on', channel=3, note=72, velocity=0, time=8),
    Message('note_on', channel=3, note=68, velocity=0, time=1),
    Message('note_on', channel=3, note=64, velocity=0, time=1),
    Message('note_on', channel=3, note=64, velocity=101, time=12),
    Message('note_on', channel=3, note=72, velocity=112, time=0),
    Message('note_on', channel=3, note=68, velocity=86, time=0),
    Message('note_on', channel=3, note=72, velocity=0, time=7),
    Message('note_on', channel=3, note=68, velocity=0, time=1),
    Message('note_on', channel=3, note=64, velocity=0, time=2),
    Message('note_on', channel=3, note=68, velocity=91, time=6),
    Message('note_on', channel=3, note=72, velocity=86, time=0),
    Message('note_on', channel=3, note=64, velocity=91, time=2),
    Message('note_on', channel=3, note=72, velocity=0, time=8),
    Message('note_on', channel=3, note=68, velocity=0, time=0),
    Message('note_on', channel=3, note=64, velocity=0, time=2),
    Message('note_on', channel=3, note=69, velocity=70, time=10),
    Message('note_on', channel=3, note=73, velocity=78, time=0),
    Message('note_on', channel=3, note=65, velocity=112, time=1),
    Message('note_on', channel=3, note=69, velocity=0, time=7),
    Message('note_on', channel=3, note=73, velocity=0, time=1),
    Message('note_on', channel=3, note=65, velocity=0, time=1),
    Message('note_on', channel=3, note=73, velocity=75, time=9),
    Message('note_on', channel=3, note=69, velocity=75, time=0),
    Message('note_on', channel=3, note=65, velocity=109, time=1),
    Message('note_on', channel=3, note=73, velocity=0, time=7),
    Message('note_on', channel=3, note=65, velocity=0, time=1),
    Message('note_on', channel=3, note=69, velocity=0, time=1),
    Message('note_on', channel=3, note=73, velocity=78, time=9),
    Message('note_on', channel=3, note=69, velocity=78, time=0),
    Message('note_on', channel=3, note=65, velocity=121, time=0),
    Message('note_on', channel=3, note=73, velocity=0, time=9),
    Message('note_on', channel=3, note=65, velocity=0, time=1),
    Message('note_on', channel=3, note=69, velocity=0, time=0),
    Message('note_on', channel=3, note=62, velocity=101, time=14),
    Message('note_on', channel=3, note=70, velocity=124, time=0),
    Message('note_on', channel=3, note=66, velocity=99, time=1),
    Message('note_on', channel=3, note=70, velocity=0, time=7),
    Message('note_on', channel=3, note=66, velocity=0, time=2),
    Message('note_on', channel=3, note=62, velocity=0, time=0),
    Message('note_on', channel=3, note=66, velocity=65, time=8),
    Message('note_on', channel=3, note=70, velocity=106, time=0),
    Message('note_on', channel=3, note=62, velocity=121, time=2),
    Message('note_on', channel=3, note=70, velocity=0, time=6),
    Message('note_on', channel=3, note=66, velocity=0, time=0),
    Message('note_on', channel=3, note=62, velocity=0, time=2),
    Message('note_on', channel=3, note=66, velocity=75, time=8),
    Message('note_on', channel=3, note=70, velocity=119, time=0),
    Message('note_on', channel=3, note=62, velocity=105, time=2),
    Message('note_on', channel=3, note=70, velocity=0, time=9),
    Message('note_on', channel=3, note=62, velocity=0, time=2),
    Message('note_on', channel=3, note=66, velocity=0, time=0),
    Message('note_on', channel=3, note=68, velocity=96, time=69),
    Message('note_on', channel=3, note=72, velocity=127, time=0),
    Message('note_on', channel=3, note=64, velocity=96, time=1),
    Message('note_on', channel=3, note=72, velocity=0, time=9),
    Message('note_on', channel=3, note=68, velocity=0, time=1),
    Message('note_on', channel=3, note=64, velocity=0, time=1),
    Message('note_on', channel=3, note=72, velocity=95, time=10),
    Message('note_on', channel=3, note=68, velocity=96, time=0),
    Message('note_on', channel=3, note=64, velocity=101, time=0),
    Message('note_on', channel=3, note=72, velocity=0, time=8),
    Message('note_on', channel=3, note=64, velocity=0, time=2),
    Message('note_on', channel=3, note=68, velocity=0, time=1),
    Message('note_on', channel=3, note=68, velocity=96, time=5),
    Message('note_on', channel=3, note=72, velocity=96, time=0),
    Message('note_on', channel=3, note=64, velocity=80, time=1),
    Message('note_on', channel=3, note=72, velocity=0, time=10),
    Message('note_on', channel=3, note=68, velocity=0, time=1),
    Message('note_on', channel=3, note=64, velocity=0, time=1),
    Message('note_on', channel=3, note=69, velocity=91, time=10),
    Message('note_on', channel=3, note=65, velocity=127, time=0),
    Message('note_on', channel=3, note=73, velocity=94, time=1),
    Message('note_on', channel=3, note=73, velocity=0, time=9),
    Message('note_on', channel=3, note=69, velocity=0, time=0),
    Message('note_on', channel=3, note=65, velocity=0, time=1),
    Message('note_on', channel=3, note=73, velocity=86, time=8),
    Message('note_on', channel=3, note=69, velocity=80, time=0),
    Message('note_on', channel=3, note=65, velocity=109, time=2),
    Message('note_on', channel=3, note=69, velocity=0, time=8),
    Message('note_on', channel=3, note=73, velocity=0, time=0),
    Message('note_on', channel=3, note=65, velocity=0, time=1),
    Message('note_on', channel=3, note=69, velocity=80, time=7),
    Message('note_on', channel=3, note=73, velocity=96, time=1),
    Message('note_on', channel=3, note=65, velocity=121, time=0),
    Message('note_on', channel=3, note=73, velocity=0, time=10),
    Message('note_on', channel=3, note=69, velocity=0, time=1),
    Message('note_on', channel=3, note=65, velocity=0, time=1),
    Message('note_on', channel=3, note=66, velocity=101, time=12),
    Message('note_on', channel=3, note=70, velocity=127, time=0),
    Message('note_on', channel=3, note=62, velocity=127, time=2),
    Message('note_on', channel=3, note=70, velocity=0, time=8),
    Message('note_on', channel=3, note=62, velocity=0, time=3),
    Message('note_on', channel=3, note=66, velocity=0, time=0),
    Message('note_on', channel=3, note=70, velocity=124, time=6),
    Message('note_on', channel=3, note=66, velocity=80, time=1),
    Message('note_on', channel=3, note=62, velocity=101, time=0),
    Message('note_on', channel=3, note=70, velocity=0, time=9),
    Message('note_on', channel=3, note=66, velocity=0, time=2),
    Message('note_on', channel=3, note=62, velocity=0, time=2),
    Message('note_on', channel=3, note=66, velocity=96, time=4),
    Message('note_on', channel=3, note=70, velocity=114, time=0),
    Message('note_on', channel=3, note=62, velocity=127, time=1),
    Message('note_on', channel=3, note=70, velocity=0, time=12),
    Message('note_on', channel=3, note=62, velocity=0, time=1),
    Message('note_on', channel=3, note=66, velocity=0, time=1),
    Message('note_on', channel=3, note=67, velocity=112, time=13),
    Message('note_on', channel=3, note=72, velocity=119, time=0),
    Message('note_on', channel=3, note=60, velocity=109, time=1),
    Message('note_on', channel=3, note=72, velocity=0, time=49),
    Message('note_on', channel=3, note=67, velocity=0, time=0),
    Message('note_on', channel=3, note=60, velocity=0, time=1),
    Message('note_on', channel=3, note=67, velocity=127, time=64),
    Message('note_on', channel=3, note=60, velocity=114, time=0),
    Message('note_on', channel=3, note=72, velocity=114, time=2),
    Message('note_on', channel=3, note=72, velocity=0, time=23),
    Message('note_on', channel=3, note=67, velocity=0, time=0),
    Message('note_on', channel=3, note=60, velocity=0, time=3),
    Message('note_on', channel=3, note=72, velocity=121, time=35),
    Message('note_on', channel=3, note=67, velocity=105, time=1),
    Message('note_on', channel=3, note=60, velocity=122, time=1),
    Message('note_on', channel=3, note=72, velocity=0, time=48),
    Message('note_on', channel=3, note=67, velocity=0, time=1),
    Message('note_on', channel=3, note=60, velocity=0, time=1),
    Message('note_on', channel=3, note=67, velocity=124, time=64),
    Message('note_on', channel=3, note=72, velocity=127, time=1),
    Message('note_on', channel=3, note=60, velocity=112, time=1),
    Message('note_on', channel=3, note=67, velocity=0, time=48),
    Message('note_on', channel=3, note=72, velocity=0, time=1),
    Message('note_on', channel=3, note=60, velocity=0, time=1),
    Message('note_on', channel=3, note=60, velocity=127, time=66),
    Message('note_on', channel=3, note=67, velocity=127, time=0),
    Message('note_on', channel=3, note=72, velocity=127, time=0),
    Message('note_on', channel=3, note=72, velocity=0, time=50),
    Message('note_on', channel=3, note=67, velocity=0, time=0),
    Message('note_on', channel=3, note=60, velocity=0, time=0),
    Message('note_on', channel=3, note=74, velocity=97, time=6505),
    Message('note_on', channel=3, note=74, velocity=0, time=48),
    Message('note_on', channel=3, note=81, velocity=95, time=72),
    Message('note_on', channel=3, note=81, velocity=0, time=40),
    Message('note_on', channel=3, note=79, velocity=81, time=71),
    Message('note_on', channel=3, note=79, velocity=0, time=28),
    Message('note_on', channel=3, note=78, velocity=73, time=14),
    Message('note_on', channel=3, note=78, velocity=0, time=29),
    Message('note_on', channel=3, note=76, velocity=84, time=8),
    Message('note_on', channel=3, note=76, velocity=0, time=25),
    Message('note_on', channel=3, note=86, velocity=107, time=17),
    Message('note_on', channel=3, note=86, velocity=0, time=47),
    Message('note_on', channel=3, note=81, velocity=88, time=83),
    Message('note_on', channel=3, note=81, velocity=0, time=296),
    Message('note_on', channel=3, note=67, velocity=117, time=282),
    Message('note_on', channel=3, note=67, velocity=0, time=11),
    Message('note_on', channel=3, note=66, velocity=100, time=23),
    Message('note_on', channel=3, note=66, velocity=0, time=21),
    Message('note_on', channel=3, note=64, velocity=110, time=12),
    Message('note_on', channel=3, note=64, velocity=0, time=14),
    Message('note_on', channel=3, note=69, velocity=119, time=42),
    Message('note_on', channel=3, note=69, velocity=0, time=31),
    Message('note_on', channel=3, note=67, velocity=117, time=86),
    Message('note_on', channel=3, note=67, velocity=0, time=11),
    Message('note_on', channel=3, note=66, velocity=97, time=26),
    Message('note_on', channel=3, note=66, velocity=0, time=20),
    Message('note_on', channel=3, note=64, velocity=103, time=16),
    Message('note_on', channel=3, note=64, velocity=0, time=11),
    Message('note_on', channel=3, note=74, velocity=96, time=41),
    Message('note_on', channel=3, note=74, velocity=0, time=43),
    Message('note_on', channel=3, note=69, velocity=117, time=87),
    Message('note_on', channel=3, note=69, velocity=0, time=35),
    Message('note_on', channel=3, note=74, velocity=70, time=56),
    Message('note_on', channel=3, note=69, velocity=102, time=5),
    Message('note_on', channel=3, note=74, velocity=0, time=10),
    Message('note_on', channel=3, note=81, velocity=96, time=6),
    Message('note_on', channel=3, note=69, velocity=0, time=17),
    Message('note_on', channel=3, note=74, velocity=106, time=7),
    Message('note_on', channel=3, note=81, velocity=0, time=10),
    Message('note_on', channel=3, note=74, velocity=0, time=8),
    Message('note_on', channel=3, note=74, velocity=62, time=68),
    Message('note_on', channel=3, note=69, velocity=92, time=1),
    Message('note_on', channel=3, note=69, velocity=0, time=14),
    Message('note_on', channel=3, note=74, velocity=0, time=0),
    Message('note_on', channel=3, note=81, velocity=95, time=0),
    Message('note_on', channel=3, note=74, velocity=110, time=8),
    Message('note_on', channel=3, note=74, velocity=0, time=31),
    Message('note_on', channel=3, note=81, velocity=0, time=1),
    Message('note_on', channel=3, note=69, velocity=63, time=55),
    Message('note_on', channel=3, note=69, velocity=0, time=16),
    Message('note_on', channel=3, note=79, velocity=80, time=4),
    Message('note_on', channel=3, note=74, velocity=94, time=4),
    Message('note_on', channel=3, note=74, velocity=0, time=30),
    Message('note_on', channel=3, note=78, velocity=88, time=6),
    Message('note_on', channel=3, note=79, velocity=0, time=3),
    Message('note_on', channel=3, note=78, velocity=0, time=19),
    Message('note_on', channel=3, note=76, velocity=88, time=9),
    Message('note_on', channel=3, note=76, velocity=0, time=25),
    Message('note_on', channel=3, note=86, velocity=110, time=27),
    Message('note_on', channel=3, note=86, velocity=0, time=63),
    Message('note_on', channel=3, note=81, velocity=80, time=69),
    Message('note_on', channel=3, note=74, velocity=56, time=97),
    Message('note_on', channel=3, note=74, velocity=0, time=15),
    Message('note_on', channel=3, note=69, velocity=114, time=33),
    Message('note_on', channel=3, note=69, velocity=0, time=16),
    Message('note_on', channel=3, note=74, velocity=112, time=20),
    Message('note_on', channel=3, note=74, velocity=0, time=15),
    Message('note_on', channel=3, note=76, velocity=105, time=25),
    Message('note_on', channel=3, note=76, velocity=0, time=81),
    Message('note_on', channel=3, note=74, velocity=127, time=41),
    Message('note_on', channel=3, note=74, velocity=0, time=15),
    Message('note_on', channel=3, note=69, velocity=95, time=36),
    Message('note_on', channel=3, note=69, velocity=0, time=21),
    Message('note_on', channel=3, note=74, velocity=113, time=10),
    Message('note_on', channel=3, note=74, velocity=0, time=17),
    Message('note_on', channel=3, note=83, velocity=109, time=23),
    Message('note_on', channel=3, note=81, velocity=0, time=1),
    Message('note_on', channel=3, note=78, velocity=123, time=1),
    Message('note_on', channel=3, note=78, velocity=0, time=422),
    Message('note_on', channel=3, note=83, velocity=0, time=1),
    Message('note_on', channel=3, note=58, velocity=121, time=2570),
    Message('note_on', channel=3, note=58, velocity=0, time=38),
    Message('note_on', channel=3, note=58, velocity=103, time=82),
    Message('note_on', channel=3, note=58, velocity=0, time=202),
    Message('note_on', channel=3, note=58, velocity=110, time=38),
    Message('note_on', channel=3, note=58, velocity=0, time=35),
    Message('note_on', channel=3, note=58, velocity=111, time=85),
    Message('note_on', channel=3, note=58, velocity=0, time=38),
    Message('note_on', channel=3, note=58, velocity=110, time=82),
    Message('note_on', channel=3, note=58, velocity=0, time=209),
    Message('note_on', channel=3, note=58, velocity=113, time=31),
    Message('note_on', channel=3, note=58, velocity=0, time=43),
    Message('note_on', channel=3, note=58, velocity=111, time=77),
    Message('note_on', channel=3, note=58, velocity=0, time=43),
    Message('note_on', channel=3, note=58, velocity=109, time=77),
    Message('note_on', channel=3, note=58, velocity=0, time=203),
    Message('note_on', channel=3, note=58, velocity=112, time=37),
    Message('note_on', channel=3, note=58, velocity=0, time=45),
    Message('note_on', channel=3, note=58, velocity=110, time=75),
    Message('note_on', channel=3, note=58, velocity=0, time=41),
    Message('note_on', channel=3, note=58, velocity=106, time=79),
    Message('note_on', channel=3, note=58, velocity=0, time=190),
    Message('note_on', channel=3, note=58, velocity=111, time=50),
    Message('note_on', channel=3, note=58, velocity=0, time=51),
    Message('note_on', channel=3, note=75, velocity=127, time=3552),
    Message('note_on', channel=3, note=75, velocity=0, time=61),
    Message('note_on', channel=3, note=70, velocity=127, time=56),
    Message('note_on', channel=3, note=70, velocity=0, time=85),
    Message('note_on', channel=3, note=68, velocity=127, time=29),
    Message('note_on', channel=3, note=68, velocity=0, time=26),
    Message('note_on', channel=3, note=67, velocity=127, time=11),
    Message('note_on', channel=3, note=67, velocity=0, time=23),
    Message('note_on', channel=3, note=65, velocity=127, time=17),
    Message('note_on', channel=3, note=65, velocity=0, time=19),
    Message('note_on', channel=3, note=72, velocity=127, time=38),
    Message('note_on', channel=3, note=74, velocity=127, time=352),
    Message('note_on', channel=3, note=72, velocity=0, time=4),
    Message('note_on', channel=3, note=74, velocity=0, time=66),
    Message('note_on', channel=3, note=81, velocity=127, time=21),
    Message('note_on', channel=3, note=81, velocity=0, time=15),
    Message('note_on', channel=3, note=81, velocity=127, time=18),
    Message('note_on', channel=3, note=81, velocity=0, time=246),
    Message('note_on', channel=3, note=84, velocity=127, time=1560),
    Message('note_on', channel=3, note=84, velocity=0, time=16),
    Message('note_on', channel=3, note=83, velocity=127, time=27),
    Message('note_on', channel=3, note=83, velocity=0, time=15),
    Message('note_on', channel=3, note=81, velocity=127, time=15),
    Message('note_on', channel=3, note=81, velocity=0, time=16),
    Message('note_on', channel=3, note=86, velocity=127, time=24),
    Message('note_on', channel=3, note=93, velocity=100, time=7),
    Message('note_on', channel=3, note=86, velocity=0, time=100),
    Message('note_on', channel=3, note=93, velocity=0, time=5),
    Message('note_on', channel=3, note=74, velocity=127, time=5),
    Message('note_on', channel=3, note=74, velocity=0, time=10),
    Message('note_on', channel=3, note=74, velocity=127, time=30),
    Message('note_on', channel=3, note=74, velocity=0, time=16),
    Message('note_on', channel=3, note=74, velocity=127, time=24),
    Message('note_on', channel=3, note=74, velocity=0, time=14),
    Message('note_on', channel=3, note=74, velocity=127, time=26),
    Message('note_on', channel=3, note=74, velocity=0, time=34),
    MetaMessage('end_of_track', time=0)]),
  MidiTrack([
    MetaMessage('midi_port', port=1, time=0),
    MetaMessage('track_name', name='Trombones', time=0),
    Message('program_change', channel=4, program=57, time=0),
    Message('control_change', channel=4, control=7, value=125, time=0),
    Message('control_change', channel=4, control=10, value=38, time=0),
    Message('control_change', channel=4, control=18, value=64, time=8),
    Message('note_on', channel=4, note=58, velocity=114, time=472),
    Message('note_on', channel=4, note=58, velocity=0, time=163),
    Message('note_on', channel=4, note=58, velocity=114, time=17),
    Message('note_on', channel=4, note=58, velocity=0, time=15),
    Message('note_on', channel=4, note=58, velocity=114, time=1),
    Message('note_on', channel=4, note=58, velocity=0, time=13),
    Message('note_on', channel=4, note=58, velocity=114, time=3),
    Message('note_on', channel=4, note=58, velocity=0, time=13),
    Message('note_on', channel=4, note=58, velocity=114, time=3),
    Message('note_on', channel=4, note=58, velocity=0, time=12),
    Message('note_on', channel=4, note=58, velocity=114, time=2),
    Message('note_on', channel=4, note=58, velocity=0, time=145),
    Message('note_on', channel=4, note=58, velocity=114, time=33),
    Message('note_on', channel=4, note=58, velocity=0, time=15),
    Message('note_on', channel=4, note=58, velocity=114, time=1),
    Message('note_on', channel=4, note=58, velocity=0, time=13),
    Message('note_on', channel=4, note=58, velocity=114, time=3),
    Message('note_on', channel=4, note=58, velocity=0, time=13),
    Message('note_on', channel=4, note=58, velocity=114, time=3),
    Message('note_on', channel=4, note=58, velocity=0, time=12),
    Message('note_on', channel=4, note=58, velocity=114, time=2),
    Message('note_on', channel=4, note=58, velocity=0, time=20),
    Message('note_on', channel=4, note=53, velocity=114, time=18),
    Message('note_on', channel=4, note=53, velocity=0, time=19),
    Message('note_on', channel=4, note=58, velocity=114, time=21),
    Message('note_on', channel=4, note=58, velocity=0, time=18),
    Message('note_on', channel=4, note=65, velocity=114, time=20),
    Message('note_on', channel=4, note=65, velocity=0, time=16),
    Message('note_on', channel=4, note=63, velocity=114, time=24),
    Message('note_on', channel=4, note=63, velocity=0, time=16),
    Message('note_on', channel=4, note=58, velocity=114, time=21),
    Message('note_on', channel=4, note=58, velocity=0, time=16),
    Message('note_on', channel=4, note=58, velocity=114, time=25),
    Message('note_on', channel=4, note=58, velocity=0, time=18),
    Message('note_on', channel=4, note=53, velocity=114, time=20),
    Message('note_on', channel=4, note=53, velocity=0, time=19),
    Message('note_on', channel=4, note=63, velocity=114, time=23),
    Message('note_on', channel=4, note=63, velocity=0, time=16),
    Message('note_on', channel=4, note=65, velocity=114, time=25),
    Message('note_on', channel=4, note=65, velocity=0, time=15),
    Message('note_on', channel=4, note=58, velocity=114, time=26),
    Message('note_on', channel=4, note=58, velocity=0, time=9),
    Message('note_on', channel=4, note=58, velocity=114, time=11),
    Message('note_on', channel=4, note=58, velocity=0, time=10),
    Message('note_on', channel=4, note=58, velocity=114, time=7),
    Message('note_on', channel=4, note=58, velocity=0, time=14),
    Message('note_on', channel=4, note=63, velocity=114, time=28),
    Message('note_on', channel=4, note=51, velocity=114, time=9),
    Message('note_on', channel=4, note=63, velocity=0, time=9),
    Message('note_on', channel=4, note=51, velocity=0, time=11),
    Message('note_on', channel=4, note=58, velocity=114, time=10),
    Message('note_on', channel=4, note=46, velocity=114, time=6),
    Message('note_on', channel=4, note=58, velocity=0, time=14),
    Message('note_on', channel=4, note=46, velocity=0, time=13),
    Message('note_on', channel=4, note=65, velocity=114, time=7),
    Message('note_on', channel=4, note=53, velocity=114, time=6),
    Message('note_on', channel=4, note=65, velocity=0, time=9),
    Message('note_on', channel=4, note=53, velocity=0, time=8),
    Message('note_on', channel=4, note=68, velocity=114, time=21),
    Message('note_on', channel=4, note=56, velocity=114, time=10),
    Message('note_on', channel=4, note=68, velocity=0, time=221),
    Message('note_on', channel=4, note=56, velocity=0, time=14),
    Message('note_on', channel=4, note=58, velocity=107, time=32),
    Message('note_on', channel=4, note=53, velocity=107, time=1),
    Message('note_on', channel=4, note=53, velocity=0, time=36),
    Message('note_on', channel=4, note=58, velocity=0, time=4),
    Message('note_on', channel=4, note=53, velocity=107, time=29),
    Message('note_on', channel=4, note=58, velocity=107, time=3),
    Message('note_on', channel=4, note=53, velocity=0, time=26),
    Message('note_on', channel=4, note=58, velocity=0, time=6),
    Message('note_on', channel=4, note=53, velocity=107, time=26),
    Message('note_on', channel=4, note=58, velocity=107, time=2),
    Message('note_on', channel=4, note=53, velocity=0, time=41),
    Message('note_on', channel=4, note=58, velocity=0, time=1),
    Message('note_on', channel=4, note=58, velocity=107, time=109),
    Message('note_on', channel=4, note=53, velocity=107, time=2),
    Message('note_on', channel=4, note=53, velocity=0, time=8),
    Message('note_on', channel=4, note=58, velocity=0, time=1),
    Message('note_on', channel=4, note=58, velocity=107, time=9),
    Message('note_on', channel=4, note=53, velocity=107, time=1),
    Message('note_on', channel=4, note=53, velocity=0, time=7),
    Message('note_on', channel=4, note=58, velocity=0, time=0),
    Message('note_on', channel=4, note=58, velocity=107, time=11),
    Message('note_on', channel=4, note=53, velocity=107, time=0),
    Message('note_on', channel=4, note=53, velocity=0, time=150),
    Message('note_on', channel=4, note=58, velocity=0, time=2),
    Message('note_on', channel=4, note=58, velocity=107, time=28),
    Message('note_on', channel=4, note=53, velocity=107, time=2),
    Message('note_on', channel=4, note=58, velocity=0, time=8),
    Message('note_on', channel=4, note=53, velocity=0, time=2),
    Message('note_on', channel=4, note=53, velocity=107, time=8),
    Message('note_on', channel=4, note=58, velocity=107, time=0),
    Message('note_on', channel=4, note=58, velocity=0, time=8),
    Message('note_on', channel=4, note=53, velocity=0, time=1),
    Message('note_on', channel=4, note=58, velocity=107, time=8),
    Message('note_on', channel=4, note=53, velocity=107, time=1),
    Message('note_on', channel=4, note=58, velocity=0, time=7),
    Message('note_on', channel=4, note=53, velocity=0, time=1),
    Message('note_on', channel=4, note=53, velocity=107, time=17),
    Message('note_on', channel=4, note=58, velocity=107, time=1),
    Message('note_on', channel=4, note=53, velocity=0, time=18),
    Message('note_on', channel=4, note=58, velocity=0, time=4),
    Message('note_on', channel=4, note=58, velocity=107, time=34),
    Message('note_on', channel=4, note=56, velocity=107, time=0),
    Message('note_on', channel=4, note=56, velocity=0, time=19),
    Message('note_on', channel=4, note=58, velocity=0, time=6),
    Message('note_on', channel=4, note=58, velocity=107, time=95),
    Message('note_on', channel=4, note=56, velocity=107, time=0),
    Message('note_on', channel=4, note=56, velocity=0, time=25),
    Message('note_on', channel=4, note=58, velocity=0, time=5),
    Message('note_on', channel=4, note=63, velocity=107, time=88),
    Message('note_on', channel=4, note=58, velocity=107, time=1),
    Message('note_on', channel=4, note=58, velocity=0, time=25),
    Message('note_on', channel=4, note=63, velocity=0, time=4),
    Message('note_on', channel=4, note=58, velocity=107, time=33),
    Message('note_on', channel=4, note=63, velocity=107, time=2),
    Message('note_on', channel=4, note=63, velocity=0, time=16),
    Message('note_on', channel=4, note=58, velocity=0, time=3),
    Message('note_on', channel=4, note=58, velocity=107, time=36),
    Message('note_on', channel=4, note=63, velocity=107, time=2),
    Message('note_on', channel=4, note=63, velocity=0, time=8),
    Message('note_on', channel=4, note=58, velocity=0, time=0),
    Message('note_on', channel=4, note=58, velocity=107, time=10),
    Message('note_on', channel=4, note=63, velocity=107, time=2),
    Message('note_on', channel=4, note=63, velocity=0, time=8),
    Message('note_on', channel=4, note=58, velocity=0, time=0),
    Message('note_on', channel=4, note=58, velocity=107, time=10),
    Message('note_on', channel=4, note=63, velocity=107, time=1),
    Message('note_on', channel=4, note=63, velocity=0, time=10),
    Message('note_on', channel=4, note=58, velocity=0, time=2),
    Message('note_on', channel=4, note=58, velocity=107, time=9),
    Message('note_on', channel=4, note=53, velocity=107, time=0),
    Message('note_on', channel=4, note=58, velocity=0, time=16),
    Message('note_on', channel=4, note=53, velocity=0, time=2),
    Message('note_on', channel=4, note=58, velocity=107, time=22),
    Message('note_on', channel=4, note=53, velocity=107, time=0),
    Message('note_on', channel=4, note=58, velocity=0, time=15),
    Message('note_on', channel=4, note=53, velocity=0, time=3),
    Message('note_on', channel=4, note=58, velocity=107, time=22),
    Message('note_on', channel=4, note=53, velocity=107, time=0),
    Message('note_on', channel=4, note=53, velocity=0, time=20),
    Message('note_on', channel=4, note=58, velocity=0, time=0),
    Message('note_on', channel=4, note=58, velocity=107, time=80),
    Message('note_on', channel=4, note=53, velocity=107, time=0),
    Message('note_on', channel=4, note=53, velocity=0, time=25),
    Message('note_on', channel=4, note=58, velocity=0, time=5),
    Message('note_on', channel=4, note=63, velocity=107, time=88),
    Message('note_on', channel=4, note=58, velocity=107, time=1),
    Message('note_on', channel=4, note=58, velocity=0, time=25),
    Message('note_on', channel=4, note=63, velocity=0, time=4),
    Message('note_on', channel=4, note=58, velocity=107, time=33),
    Message('note_on', channel=4, note=63, velocity=107, time=2),
    Message('note_on', channel=4, note=63, velocity=0, time=16),
    Message('note_on', channel=4, note=58, velocity=0, time=3),
    Message('note_on', channel=4, note=58, velocity=107, time=36),
    Message('note_on', channel=4, note=63, velocity=107, time=2),
    Message('note_on', channel=4, note=63, velocity=0, time=8),
    Message('note_on', channel=4, note=58, velocity=0, time=0),
    Message('note_on', channel=4, note=58, velocity=107, time=10),
    Message('note_on', channel=4, note=63, velocity=107, time=2),
    Message('note_on', channel=4, note=63, velocity=0, time=8),
    Message('note_on', channel=4, note=58, velocity=0, time=0),
    Message('note_on', channel=4, note=58, velocity=107, time=5),
    Message('note_on', channel=4, note=63, velocity=107, time=6),
    Message('note_on', channel=4, note=63, velocity=0, time=10),
    Message('note_on', channel=4, note=58, velocity=0, time=0),
    Message('note_on', channel=4, note=58, velocity=107, time=11),
    Message('note_on', channel=4, note=53, velocity=107, time=0),
    Message('note_on', channel=4, note=58, velocity=0, time=16),
    Message('note_on', channel=4, note=53, velocity=0, time=2),
    Message('note_on', channel=4, note=58, velocity=107, time=22),
    Message('note_on', channel=4, note=53, velocity=107, time=0),
    Message('note_on', channel=4, note=58, velocity=0, time=15),
    Message('note_on', channel=4, note=53, velocity=0, time=3),
    Message('note_on', channel=4, note=58, velocity=107, time=22),
    Message('note_on', channel=4, note=53, velocity=107, time=0),
    Message('note_on', channel=4, note=53, velocity=0, time=20),
    Message('note_on', channel=4, note=58, velocity=0, time=0),
    Message('note_on', channel=4, note=58, velocity=97, time=502),
    Message('note_on', channel=4, note=58, velocity=0, time=92),
    Message('note_on', channel=4, note=58, velocity=97, time=26),
    Message('note_on', channel=4, note=58, velocity=0, time=83),
    Message('note_on', channel=4, note=58, velocity=97, time=36),
    Message('note_on', channel=4, note=58, velocity=0, time=76),
    Message('note_on', channel=4, note=58, velocity=97, time=18),
    Message('note_on', channel=4, note=58, velocity=0, time=9),
    Message('note_on', channel=4, note=58, velocity=97, time=14),
    Message('note_on', channel=4, note=58, velocity=0, time=15),
    Message('note_on', channel=4, note=58, velocity=97, time=34),
    Message('note_on', channel=4, note=58, velocity=0, time=12),
    Message('note_on', channel=4, note=58, velocity=97, time=23),
    Message('note_on', channel=4, note=58, velocity=0, time=13),
    Message('note_on', channel=4, note=63, velocity=97, time=29),
    Message('note_on', channel=4, note=63, velocity=0, time=87),
    Message('note_on', channel=4, note=63, velocity=97, time=27),
    Message('note_on', channel=4, note=63, velocity=0, time=58),
    Message('note_on', channel=4, note=63, velocity=97, time=20),
    Message('note_on', channel=4, note=63, velocity=0, time=21),
    Message('note_on', channel=4, note=63, velocity=97, time=30),
    Message('note_on', channel=4, note=63, velocity=0, time=85),
    Message('note_on', channel=4, note=62, velocity=97, time=25),
    Message('note_on', channel=4, note=58, velocity=97, time=1),
    Message('note_on', channel=4, note=62, velocity=0, time=80),
    Message('note_on', channel=4, note=58, velocity=0, time=5),
    Message('note_on', channel=4, note=63, velocity=97, time=39),
    Message('note_on', channel=4, note=58, velocity=97, time=0),
    Message('note_on', channel=4, note=63, velocity=0, time=88),
    Message('note_on', channel=4, note=58, velocity=0, time=2),
    Message('note_on', channel=4, note=58, velocity=97, time=30),
    Message('note_on', channel=4, note=63, velocity=97, time=0),
    Message('note_on', channel=4, note=58, velocity=0, time=9),
    Message('note_on', channel=4, note=63, velocity=0, time=4),
    Message('note_on', channel=4, note=58, velocity=97, time=28),
    Message('note_on', channel=4, note=63, velocity=97, time=0),
    Message('note_on', channel=4, note=63, velocity=0, time=13),
    Message('note_on', channel=4, note=58, velocity=0, time=0),
    Message('note_on', channel=4, note=58, velocity=97, time=24),
    Message('note_on', channel=4, note=63, velocity=97, time=0),
    Message('note_on', channel=4, note=58, velocity=0, time=13),
    Message('note_on', channel=4, note=63, velocity=0, time=1),
    Message('note_on', channel=4, note=58, velocity=97, time=28),
    Message('note_on', channel=4, note=62, velocity=97, time=1),
    Message('note_on', channel=4, note=58, velocity=0, time=91),
    Message('note_on', channel=4, note=62, velocity=0, time=2),
    Message('note_on', channel=4, note=62, velocity=97, time=24),
    Message('note_on', channel=4, note=58, velocity=97, time=2),
    Message('note_on', channel=4, note=62, velocity=0, time=11),
    Message('note_on', channel=4, note=58, velocity=0, time=4),
    Message('note_on', channel=4, note=62, velocity=97, time=21),
    Message('note_on', channel=4, note=58, velocity=97, time=1),
    Message('note_on', channel=4, note=58, velocity=0, time=14),
    Message('note_on', channel=4, note=62, velocity=0, time=0),
    Message('note_on', channel=4, note=62, velocity=97, time=24),
    Message('note_on', channel=4, note=58, velocity=97, time=2),
    Message('note_on', channel=4, note=62, velocity=0, time=12),
    Message('note_on', channel=4, note=58, velocity=0, time=6),
    Message('note_on', channel=4, note=60, velocity=97, time=23),
    Message('note_on', channel=4, note=63, velocity=97, time=0),
    Message('note_on', channel=4, note=63, velocity=0, time=15),
    Message('note_on', channel=4, note=60, velocity=0, time=4),
    Message('note_on', channel=4, note=59, velocity=97, time=23),
    Message('note_on', channel=4, note=62, velocity=97, time=0),
    Message('note_on', channel=4, note=62, velocity=0, time=14),
    Message('note_on', channel=4, note=59, velocity=0, time=2),
    Message('note_on', channel=4, note=60, velocity=97, time=24),
    Message('note_on', channel=4, note=63, velocity=97, time=1),
    Message('note_on', channel=4, note=63, velocity=0, time=16),
    Message('note_on', channel=4, note=60, velocity=0, time=1),
    Message('note_on', channel=4, note=57, velocity=97, time=23),
    Message('note_on', channel=4, note=60, velocity=97, time=0),
    Message('note_on', channel=4, note=60, velocity=0, time=225),
    Message('note_on', channel=4, note=57, velocity=0, time=0),
    Message('note_on', channel=4, note=65, velocity=127, time=3494),
    Message('note_on', channel=4, note=60, velocity=127, time=0),
    Message('note_on', channel=4, note=60, velocity=0, time=30),
    Message('note_on', channel=4, note=65, velocity=0, time=195),
    Message('note_on', channel=4, note=53, velocity=127, time=15),
    Message('note_on', channel=4, note=53, velocity=0, time=15),
    Message('note_on', channel=4, note=53, velocity=126, time=15),
    Message('note_on', channel=4, note=53, velocity=0, time=17),
    Message('note_on', channel=4, note=53, velocity=127, time=13),
    Message('note_on', channel=4, note=53, velocity=0, time=15),
    Message('note_on', channel=4, note=53, velocity=127, time=15),
    Message('note_on', channel=4, note=53, velocity=0, time=17),
    Message('note_on', channel=4, note=53, velocity=127, time=13),
    Message('note_on', channel=4, note=53, velocity=0, time=19),
    Message('note_on', channel=4, note=53, velocity=127, time=221),
    Message('note_on', channel=4, note=53, velocity=0, time=16),
    Message('note_on', channel=4, note=53, velocity=122, time=14),
    Message('note_on', channel=4, note=53, velocity=0, time=12),
    Message('note_on', channel=4, note=53, velocity=127, time=18),
    Message('note_on', channel=4, note=53, velocity=0, time=16),
    Message('note_on', channel=4, note=53, velocity=127, time=14),
    Message('note_on', channel=4, note=53, velocity=0, time=18),
    Message('note_on', channel=4, note=53, velocity=127, time=12),
    Message('note_on', channel=4, note=53, velocity=0, time=19),
    Message('note_on', channel=4, note=53, velocity=127, time=221),
    Message('note_on', channel=4, note=53, velocity=0, time=16),
    Message('note_on', channel=4, note=53, velocity=123, time=14),
    Message('note_on', channel=4, note=53, velocity=0, time=13),
    Message('note_on', channel=4, note=53, velocity=127, time=17),
    Message('note_on', channel=4, note=53, velocity=0, time=13),
    Message('note_on', channel=4, note=53, velocity=123, time=17),
    Message('note_on', channel=4, note=53, velocity=0, time=19),
    Message('note_on', channel=4, note=53, velocity=127, time=11),
    Message('note_on', channel=4, note=53, velocity=0, time=25),
    Message('note_on', channel=4, note=53, velocity=127, time=215),
    Message('note_on', channel=4, note=53, velocity=0, time=16),
    Message('note_on', channel=4, note=53, velocity=127, time=14),
    Message('note_on', channel=4, note=53, velocity=0, time=18),
    Message('note_on', channel=4, note=53, velocity=127, time=12),
    Message('note_on', channel=4, note=53, velocity=0, time=8),
    Message('note_on', channel=4, note=53, velocity=127, time=22),
    Message('note_on', channel=4, note=53, velocity=0, time=17),
    Message('note_on', channel=4, note=53, velocity=127, time=13),
    Message('note_on', channel=4, note=53, velocity=0, time=21),
    Message('note_on', channel=4, note=53, velocity=127, time=219),
    Message('note_on', channel=4, note=53, velocity=0, time=15),
    Message('note_on', channel=4, note=53, velocity=127, time=15),
    Message('note_on', channel=4, note=53, velocity=0, time=16),
    Message('note_on', channel=4, note=53, velocity=127, time=14),
    Message('note_on', channel=4, note=53, velocity=0, time=10),
    Message('note_on', channel=4, note=53, velocity=127, time=20),
    Message('note_on', channel=4, note=53, velocity=0, time=19),
    Message('note_on', channel=4, note=53, velocity=127, time=11),
    Message('note_on', channel=4, note=53, velocity=0, time=22),
    Message('note_on', channel=4, note=53, velocity=127, time=218),
    Message('note_on', channel=4, note=53, velocity=0, time=18),
    Message('note_on', channel=4, note=53, velocity=116, time=12),
    Message('note_on', channel=4, note=53, velocity=0, time=19),
    Message('note_on', channel=4, note=53, velocity=127, time=11),
    Message('note_on', channel=4, note=53, velocity=0, time=7),
    Message('note_on', channel=4, note=53, velocity=115, time=23),
    Message('note_on', channel=4, note=53, velocity=0, time=16),
    Message('note_on', channel=4, note=53, velocity=127, time=14),
    Message('note_on', channel=4, note=53, velocity=0, time=23),
    Message('note_on', channel=4, note=53, velocity=127, time=217),
    Message('note_on', channel=4, note=53, velocity=0, time=16),
    Message('note_on', channel=4, note=53, velocity=127, time=14),
    Message('note_on', channel=4, note=53, velocity=0, time=18),
    Message('note_on', channel=4, note=53, velocity=127, time=12),
    Message('note_on', channel=4, note=53, velocity=0, time=12),
    Message('note_on', channel=4, note=53, velocity=127, time=18),
    Message('note_on', channel=4, note=53, velocity=0, time=16),
    Message('note_on', channel=4, note=53, velocity=127, time=14),
    Message('note_on', channel=4, note=53, velocity=0, time=30),
    Message('note_on', channel=4, note=53, velocity=127, time=60),
    Message('note_on', channel=4, note=53, velocity=0, time=20),
    Message('note_on', channel=4, note=56, velocity=127, time=10),
    Message('note_on', channel=4, note=56, velocity=0, time=18),
    Message('note_on', channel=4, note=56, velocity=116, time=12),
    Message('note_on', channel=4, note=56, velocity=0, time=16),
    Message('note_on', channel=4, note=56, velocity=127, time=14),
    Message('note_on', channel=4, note=56, velocity=0, time=17),
    Message('note_on', channel=4, note=56, velocity=127, time=13),
    Message('note_on', channel=4, note=56, velocity=0, time=17),
    Message('note_on', channel=4, note=72, velocity=127, time=1183),
    Message('note_on', channel=4, note=75, velocity=127, time=5),
    Message('note_on', channel=4, note=68, velocity=127, time=1),
    Message('note_on', channel=4, note=72, velocity=0, time=9),
    Message('note_on', channel=4, note=75, velocity=0, time=5),
    Message('note_on', channel=4, note=68, velocity=0, time=1),
    Message('note_on', channel=4, note=72, velocity=127, time=7),
    Message('note_on', channel=4, note=68, velocity=127, time=7),
    Message('note_on', channel=4, note=75, velocity=126, time=1),
    Message('note_on', channel=4, note=72, velocity=0, time=105),
    Message('note_on', channel=4, note=71, velocity=127, time=9),
    Message('note_on', channel=4, note=67, velocity=127, time=3),
    Message('note_on', channel=4, note=74, velocity=127, time=0),
    Message('note_on', channel=4, note=68, velocity=0, time=6),
    Message('note_on', channel=4, note=75, velocity=0, time=4),
    Message('note_on', channel=4, note=67, velocity=0, time=20),
    Message('note_on', channel=4, note=71, velocity=0, time=0),
    Message('note_on', channel=4, note=74, velocity=0, time=0),
    Message('note_on', channel=4, note=75, velocity=127, time=25),
    Message('note_on', channel=4, note=72, velocity=127, time=5),
    Message('note_on', channel=4, note=68, velocity=127, time=2),
    Message('note_on', channel=4, note=72, velocity=0, time=21),
    Message('note_on', channel=4, note=71, velocity=127, time=2),
    Message('note_on', channel=4, note=67, velocity=127, time=2),
    Message('note_on', channel=4, note=74, velocity=127, time=5),
    Message('note_on', channel=4, note=68, velocity=0, time=3),
    Message('note_on', channel=4, note=75, velocity=0, time=8),
    Message('note_on', channel=4, note=65, velocity=127, time=12),
    Message('note_on', channel=4, note=71, velocity=0, time=3),
    Message('note_on', channel=4, note=69, velocity=127, time=0),
    Message('note_on', channel=4, note=72, velocity=127, time=0),
    Message('note_on', channel=4, note=67, velocity=0, time=1),
    Message('note_on', channel=4, note=74, velocity=0, time=5),
    Message('note_on', channel=4, note=65, velocity=0, time=11),
    Message('note_on', channel=4, note=69, velocity=0, time=1),
    Message('note_on', channel=4, note=72, velocity=0, time=2),
    Message('note_on', channel=4, note=69, velocity=127, time=30),
    Message('note_on', channel=4, note=62, velocity=127, time=4),
    Message('note_on', channel=4, note=62, velocity=0, time=389),
    Message('note_on', channel=4, note=69, velocity=0, time=10),
    Message('note_on', channel=4, note=55, velocity=123, time=517),
    Message('note_on', channel=4, note=55, velocity=0, time=11),
    Message('note_on', channel=4, note=55, velocity=123, time=109),
    Message('note_on', channel=4, note=55, velocity=0, time=8),
    Message('note_on', channel=4, note=55, velocity=123, time=52),
    Message('note_on', channel=4, note=55, velocity=0, time=10),
    Message('note_on', channel=4, note=55, velocity=123, time=10),
    Message('note_on', channel=4, note=55, velocity=0, time=9),
    Message('note_on', channel=4, note=55, velocity=123, time=11),
    Message('note_on', channel=4, note=55, velocity=0, time=11),
    Message('note_on', channel=4, note=55, velocity=123, time=9),
    Message('note_on', channel=4, note=55, velocity=0, time=10),
    Message('note_on', channel=4, note=55, velocity=123, time=54),
    Message('note_on', channel=4, note=55, velocity=0, time=11),
    Message('note_on', channel=4, note=55, velocity=123, time=9),
    Message('note_on', channel=4, note=55, velocity=0, time=10),
    Message('note_on', channel=4, note=55, velocity=123, time=8),
    Message('note_on', channel=4, note=55, velocity=0, time=12),
    Message('note_on', channel=4, note=51, velocity=123, time=8),
    Message('note_on', channel=4, note=51, velocity=0, time=10),
    Message('note_on', channel=4, note=51, velocity=123, time=8),
    Message('note_on', channel=4, note=51, velocity=0, time=13),
    Message('note_on', channel=4, note=51, velocity=123, time=6),
    Message('note_on', channel=4, note=51, velocity=0, time=11),
    Message('note_on', channel=4, note=51, velocity=123, time=9),
    Message('note_on', channel=4, note=51, velocity=0, time=12),
    Message('note_on', channel=4, note=67, velocity=127, time=51),
    Message('note_on', channel=4, note=67, velocity=0, time=67),
    Message('note_on', channel=4, note=67, velocity=123, time=50),
    Message('note_on', channel=4, note=55, velocity=123, time=1),
    Message('note_on', channel=4, note=55, velocity=0, time=11),
    Message('note_on', channel=4, note=55, velocity=123, time=51),
    Message('note_on', channel=4, note=55, velocity=0, time=10),
    Message('note_on', channel=4, note=67, velocity=0, time=0),
    Message('note_on', channel=4, note=55, velocity=123, time=10),
    Message('note_on', channel=4, note=55, velocity=0, time=10),
    Message('note_on', channel=4, note=55, velocity=123, time=9),
    Message('note_on', channel=4, note=55, velocity=0, time=11),
    Message('note_on', channel=4, note=55, velocity=123, time=8),
    Message('note_on', channel=4, note=67, velocity=123, time=5),
    Message('note_on', channel=4, note=55, velocity=0, time=5),
    Message('note_on', channel=4, note=55, velocity=123, time=50),
    Message('note_on', channel=4, note=55, velocity=0, time=11),
    Message('note_on', channel=4, note=67, velocity=0, time=8),
    Message('note_on', channel=4, note=55, velocity=123, time=1),
    Message('note_on', channel=4, note=55, velocity=0, time=11),
    Message('note_on', channel=4, note=55, velocity=123, time=8),
    Message('note_on', channel=4, note=55, velocity=0, time=12),
    Message('note_on', channel=4, note=51, velocity=123, time=9),
    Message('note_on', channel=4, note=63, velocity=123, time=2),
    Message('note_on', channel=4, note=51, velocity=0, time=8),
    Message('note_on', channel=4, note=51, velocity=123, time=8),
    Message('note_on', channel=4, note=51, velocity=0, time=14),
    Message('note_on', channel=4, note=51, velocity=123, time=6),
    Message('note_on', channel=4, note=51, velocity=0, time=11),
    Message('note_on', channel=4, note=51, velocity=123, time=10),
    Message('note_on', channel=4, note=63, velocity=0, time=1),
    Message('note_on', channel=4, note=51, velocity=0, time=12),
    Message('note_on', channel=4, note=70, velocity=123, time=18),
    Message('note_on', channel=4, note=70, velocity=0, time=16),
    Message('note_on', channel=4, note=67, velocity=123, time=15),
    Message('note_on', channel=4, note=55, velocity=123, time=1),
    Message('note_on', channel=4, note=55, velocity=0, time=12),
    Message('note_on', channel=4, note=67, velocity=0, time=71),
    Message('note_on', channel=4, note=55, velocity=123, time=34),
    Message('note_on', channel=4, note=63, velocity=123, time=1),
    Message('note_on', channel=4, note=55, velocity=0, time=10),
    Message('note_on', channel=4, note=63, velocity=0, time=48),
    Message('note_on', channel=4, note=55, velocity=123, time=1),
    Message('note_on', channel=4, note=55, velocity=0, time=11),
    Message('note_on', channel=4, note=55, velocity=123, time=9),
    Message('note_on', channel=4, note=55, velocity=0, time=11),
    Message('note_on', channel=4, note=70, velocity=123, time=3),
    Message('note_on', channel=4, note=55, velocity=123, time=6),
    Message('note_on', channel=4, note=70, velocity=0, time=10),
    Message('note_on', channel=4, note=55, velocity=0, time=1),
    Message('note_on', channel=4, note=55, velocity=123, time=9),
    Message('note_on', channel=4, note=67, velocity=123, time=2),
    Message('note_on', channel=4, note=55, velocity=0, time=9),
    Message('note_on', channel=4, note=55, velocity=123, time=47),
    Message('note_on', channel=4, note=55, velocity=0, time=11),
    Message('note_on', channel=4, note=55, velocity=123, time=9),
    Message('note_on', channel=4, note=55, velocity=0, time=11),
    Message('note_on', channel=4, note=55, velocity=123, time=11),
    Message('note_on', channel=4, note=55, velocity=0, time=11),
    Message('note_on', channel=4, note=51, velocity=123, time=9),
    Message('note_on', channel=4, note=51, velocity=0, time=11),
    Message('note_on', channel=4, note=51, velocity=123, time=9),
    Message('note_on', channel=4, note=51, velocity=0, time=13),
    Message('note_on', channel=4, note=67, velocity=0, time=1),
    Message('note_on', channel=4, note=51, velocity=123, time=4),
    Message('note_on', channel=4, note=51, velocity=0, time=11),
    Message('note_on', channel=4, note=51, velocity=123, time=11),
    Message('note_on', channel=4, note=51, velocity=0, time=11),
    Message('note_on', channel=4, note=74, velocity=123, time=50),
    Message('note_on', channel=4, note=55, velocity=123, time=1),
    Message('note_on', channel=4, note=55, velocity=0, time=11),
    Message('note_on', channel=4, note=74, velocity=0, time=64),
    Message('note_on', channel=4, note=74, velocity=123, time=44),
    Message('note_on', channel=4, note=55, velocity=123, time=2),
    Message('note_on', channel=4, note=55, velocity=0, time=11),
    Message('note_on', channel=4, note=55, velocity=123, time=49),
    Message('note_on', channel=4, note=55, velocity=0, time=10),
    Message('note_on', channel=4, note=74, velocity=0, time=3),
    Message('note_on', channel=4, note=55, velocity=123, time=6),
    Message('note_on', channel=4, note=55, velocity=0, time=11),
    Message('note_on', channel=4, note=55, velocity=123, time=9),
    Message('note_on', channel=4, note=55, velocity=0, time=12),
    Message('note_on', channel=4, note=74, velocity=123, time=6),
    Message('note_on', channel=4, note=55, velocity=123, time=1),
    Message('note_on', channel=4, note=55, velocity=0, time=11),
    Message('note_on', channel=4, note=55, velocity=123, time=51),
    Message('note_on', channel=4, note=55, velocity=0, time=10),
    Message('note_on', channel=4, note=74, velocity=0, time=5),
    Message('note_on', channel=4, note=55, velocity=123, time=4),
    Message('note_on', channel=4, note=55, velocity=0, time=10),
    Message('note_on', channel=4, note=55, velocity=123, time=10),
    Message('note_on', channel=4, note=55, velocity=0, time=12),
    Message('note_on', channel=4, note=51, velocity=123, time=7),
    Message('note_on', channel=4, note=75, velocity=123, time=3),
    Message('note_on', channel=4, note=51, velocity=0, time=7),
    Message('note_on', channel=4, note=51, velocity=123, time=10),
    Message('note_on', channel=4, note=51, velocity=0, time=11),
    Message('note_on', channel=4, note=51, velocity=123, time=9),
    Message('note_on', channel=4, note=51, velocity=0, time=11),
    Message('note_on', channel=4, note=75, velocity=0, time=4),
    Message('note_on', channel=4, note=51, velocity=123, time=6),
    Message('note_on', channel=4, note=51, velocity=0, time=13),
    Message('note_on', channel=4, note=70, velocity=123, time=16),
    Message('note_on', channel=4, note=70, velocity=0, time=19),
    Message('note_on', channel=4, note=63, velocity=123, time=8),
    Message('note_on', channel=4, note=66, velocity=123, time=7),
    Message('note_on', channel=4, note=63, velocity=0, time=6),
    Message('note_on', channel=4, note=66, velocity=0, time=78),
    Message('note_on', channel=4, note=60, velocity=123, time=31),
    Message('note_on', channel=4, note=63, velocity=123, time=1),
    Message('note_on', channel=4, note=60, velocity=0, time=13),
    Message('note_on', channel=4, note=63, velocity=0, time=37),
    Message('note_on', channel=4, note=60, velocity=123, time=10),
    Message('note_on', channel=4, note=60, velocity=0, time=14),
    Message('note_on', channel=4, note=60, velocity=123, time=6),
    Message('note_on', channel=4, note=70, velocity=123, time=7),
    Message('note_on', channel=4, note=60, velocity=0, time=6),
    Message('note_on', channel=4, note=60, velocity=123, time=7),
    Message('note_on', channel=4, note=70, velocity=0, time=4),
    Message('note_on', channel=4, note=60, velocity=0, time=9),
    Message('note_on', channel=4, note=55, velocity=123, time=6),
    Message('note_on', channel=4, note=67, velocity=123, time=1),
    Message('note_on', channel=4, note=55, velocity=0, time=9),
    Message('note_on', channel=4, note=55, velocity=123, time=71),
    Message('note_on', channel=4, note=55, velocity=0, time=11),
    Message('note_on', channel=4, note=55, velocity=123, time=8),
    Message('note_on', channel=4, note=55, velocity=0, time=13),
    Message('note_on', channel=4, note=55, velocity=123, time=8),
    Message('note_on', channel=4, note=55, velocity=0, time=11),
    Message('note_on', channel=4, note=55, velocity=123, time=8),
    Message('note_on', channel=4, note=67, velocity=0, time=7),
    Message('note_on', channel=4, note=55, velocity=0, time=6),
    Message('note_on', channel=4, note=55, velocity=123, time=7),
    Message('note_on', channel=4, note=55, velocity=0, time=12),
    Message('note_on', channel=4, note=55, velocity=123, time=8),
    Message('note_on', channel=4, note=55, velocity=0, time=13),
    Message('note_on', channel=4, note=55, velocity=123, time=47),
    Message('note_on', channel=4, note=79, velocity=123, time=0),
    Message('note_on', channel=4, note=55, velocity=0, time=11),
    Message('note_on', channel=4, note=79, velocity=0, time=81),
    Message('note_on', channel=4, note=55, velocity=123, time=29),
    Message('note_on', channel=4, note=67, velocity=123, time=0),
    Message('note_on', channel=4, note=55, velocity=0, time=11),
    Message('note_on', channel=4, note=67, velocity=0, time=49),
    Message('note_on', channel=4, note=55, velocity=123, time=2),
    Message('note_on', channel=4, note=55, velocity=0, time=10),
    Message('note_on', channel=4, note=55, velocity=123, time=10),
    Message('note_on', channel=4, note=55, velocity=0, time=10),
    Message('note_on', channel=4, note=67, velocity=123, time=2),
    Message('note_on', channel=4, note=55, velocity=123, time=7),
    Message('note_on', channel=4, note=55, velocity=0, time=11),
    Message('note_on', channel=4, note=67, velocity=0, time=5),
    Message('note_on', channel=4, note=55, velocity=123, time=3),
    Message('note_on', channel=4, note=79, velocity=123, time=4),
    Message('note_on', channel=4, note=55, velocity=0, time=6),
    Message('note_on', channel=4, note=55, velocity=123, time=50),
    Message('note_on', channel=4, note=55, velocity=0, time=11),
    Message('note_on', channel=4, note=79, velocity=0, time=9),
    Message('note_on', channel=4, note=55, velocity=123, time=0),
    Message('note_on', channel=4, note=55, velocity=0, time=11),
    Message('note_on', channel=4, note=55, velocity=123, time=8),
    Message('note_on', channel=4, note=55, velocity=0, time=12),
    Message('note_on', channel=4, note=78, velocity=123, time=2),
    Message('note_on', channel=4, note=51, velocity=123, time=7),
    Message('note_on', channel=4, note=51, velocity=0, time=10),
    Message('note_on', channel=4, note=51, velocity=123, time=8),
    Message('note_on', channel=4, note=51, velocity=0, time=14),
    Message('note_on', channel=4, note=51, velocity=123, time=6),
    Message('note_on', channel=4, note=51, velocity=0, time=11),
    Message('note_on', channel=4, note=78, velocity=0, time=9),
    Message('note_on', channel=4, note=51, velocity=123, time=1),
    Message('note_on', channel=4, note=51, velocity=0, time=13),
    Message('note_on', channel=4, note=77, velocity=123, time=19),
    Message('note_on', channel=4, note=77, velocity=0, time=20),
    Message('note_on', channel=4, note=76, velocity=123, time=6),
    Message('note_on', channel=4, note=61, velocity=123, time=1),
    Message('note_on', channel=4, note=61, velocity=0, time=12),
    Message('note_on', channel=4, note=76, velocity=0, time=15),
    Message('note_on', channel=4, note=75, velocity=123, time=12),
    Message('note_on', channel=4, note=75, velocity=0, time=20),
    Message('note_on', channel=4, note=76, velocity=123, time=2),
    Message('note_on', channel=4, note=76, velocity=0, time=27),
    Message('note_on', channel=4, note=61, velocity=123, time=30),
    Message('note_on', channel=4, note=61, velocity=0, time=11),
    Message('note_on', channel=4, note=61, velocity=123, time=52),
    Message('note_on', channel=4, note=68, velocity=123, time=3),
    Message('note_on', channel=4, note=61, velocity=0, time=8),
    Message('note_on', channel=4, note=61, velocity=123, time=9),
    Message('note_on', channel=4, note=68, velocity=0, time=6),
    Message('note_on', channel=4, note=61, velocity=0, time=5),
    Message('note_on', channel=4, note=61, velocity=123, time=9),
    Message('note_on', channel=4, note=61, velocity=0, time=11),
    Message('note_on', channel=4, note=61, velocity=123, time=9),
    Message('note_on', channel=4, note=73, velocity=123, time=3),
    Message('note_on', channel=4, note=61, velocity=0, time=8),
    Message('note_on', channel=4, note=61, velocity=123, time=47),
    Message('note_on', channel=4, note=61, velocity=0, time=11),
    Message('note_on', channel=4, note=61, velocity=123, time=9),
    Message('note_on', channel=4, note=73, velocity=0, time=5),
    Message('note_on', channel=4, note=61, velocity=0, time=6),
    Message('note_on', channel=4, note=61, velocity=123, time=11),
    Message('note_on', channel=4, note=61, velocity=0, time=11),
    Message('note_on', channel=4, note=61, velocity=123, time=9),
    Message('note_on', channel=4, note=72, velocity=123, time=3),
    Message('note_on', channel=4, note=61, velocity=0, time=8),
    Message('note_on', channel=4, note=61, velocity=123, time=9),
    Message('note_on', channel=4, note=61, velocity=0, time=13),
    Message('note_on', channel=4, note=61, velocity=123, time=5),
    Message('note_on', channel=4, note=61, velocity=0, time=11),
    Message('note_on', channel=4, note=61, velocity=123, time=11),
    Message('note_on', channel=4, note=72, velocity=0, time=9),
    Message('note_on', channel=4, note=61, velocity=0, time=2),
    Message('note_on', channel=4, note=71, velocity=123, time=22),
    Message('note_on', channel=4, note=71, velocity=0, time=22),
    Message('note_on', channel=4, note=63, velocity=123, time=4),
    Message('note_on', channel=4, note=70, velocity=123, time=6),
    Message('note_on', channel=4, note=63, velocity=0, time=6),
    Message('note_on', channel=4, note=70, velocity=0, time=17),
    Message('note_on', channel=4, note=69, velocity=123, time=4),
    Message('note_on', channel=4, note=69, velocity=0, time=18),
    Message('note_on', channel=4, note=70, velocity=123, time=13),
    Message('note_on', channel=4, note=70, velocity=0, time=26),
    Message('note_on', channel=4, note=63, velocity=123, time=28),
    Message('note_on', channel=4, note=63, velocity=0, time=11),
    Message('note_on', channel=4, note=63, velocity=123, time=52),
    Message('note_on', channel=4, note=63, velocity=123, time=5),
    Message('note_on', channel=4, note=63, velocity=0, time=3),
    Message('note_on', channel=4, note=63, velocity=0, time=1),
    Message('note_on', channel=4, note=63, velocity=123, time=11),
    Message('note_on', channel=4, note=63, velocity=0, time=5),
    Message('note_on', channel=4, note=63, velocity=123, time=14),
    Message('note_on', channel=4, note=63, velocity=0, time=11),
    Message('note_on', channel=4, note=62, velocity=123, time=10),
    Message('note_on', channel=4, note=66, velocity=123, time=5),
    Message('note_on', channel=4, note=62, velocity=0, time=20),
    Message('note_on', channel=4, note=66, velocity=0, time=52),
    Message('note_on', channel=4, note=60, velocity=123, time=43),
    Message('note_on', channel=4, note=63, velocity=123, time=7),
    Message('note_on', channel=4, note=60, velocity=0, time=4),
    Message('note_on', channel=4, note=60, velocity=123, time=9),
    Message('note_on', channel=4, note=60, velocity=0, time=13),
    Message('note_on', channel=4, note=60, velocity=123, time=5),
    Message('note_on', channel=4, note=60, velocity=0, time=11),
    Message('note_on', channel=4, note=60, velocity=123, time=11),
    Message('note_on', channel=4, note=60, velocity=0, time=11),
    Message('note_on', channel=4, note=63, velocity=0, time=4),
    Message('note_on', channel=4, note=66, velocity=123, time=21),
    Message('note_on', channel=4, note=66, velocity=0, time=15),
    Message('note_on', channel=4, note=55, velocity=123, time=10),
    Message('note_on', channel=4, note=70, velocity=123, time=9),
    Message('note_on', channel=4, note=55, velocity=0, time=2),
    Message('note_on', channel=4, note=70, velocity=0, time=79),
    Message('note_on', channel=4, note=63, velocity=123, time=29),
    Message('note_on', channel=4, note=67, velocity=123, time=5),
    Message('note_on', channel=4, note=63, velocity=0, time=6),
    Message('note_on', channel=4, note=63, velocity=123, time=9),
    Message('note_on', channel=4, note=63, velocity=0, time=13),
    Message('note_on', channel=4, note=63, velocity=123, time=5),
    Message('note_on', channel=4, note=63, velocity=0, time=11),
    Message('note_on', channel=4, note=63, velocity=123, time=11),
    Message('note_on', channel=4, note=63, velocity=0, time=11),
    Message('note_on', channel=4, note=67, velocity=0, time=1),
    Message('note_on', channel=4, note=70, velocity=123, time=23),
    Message('note_on', channel=4, note=70, velocity=0, time=16),
    Message('note_on', channel=4, note=55, velocity=123, time=12),
    Message('note_on', channel=4, note=74, velocity=123, time=4),
    Message('note_on', channel=4, note=55, velocity=0, time=6),
    Message('note_on', channel=4, note=55, velocity=123, time=48),
    Message('note_on', channel=4, note=55, velocity=0, time=11),
    Message('note_on', channel=4, note=55, velocity=123, time=9),
    Message('note_on', channel=4, note=55, velocity=0, time=11),
    Message('note_on', channel=4, note=55, velocity=123, time=9),
    Message('note_on', channel=4, note=55, velocity=0, time=12),
    Message('note_on', channel=4, note=55, velocity=123, time=8),
    Message('note_on', channel=4, note=55, velocity=0, time=10),
    Message('note_on', channel=4, note=55, velocity=123, time=9),
    Message('note_on', channel=4, note=55, velocity=0, time=13),
    Message('note_on', channel=4, note=74, velocity=0, time=5),
    Message('note_on', channel=4, note=55, velocity=123, time=2),
    Message('note_on', channel=4, note=55, velocity=0, time=11),
    Message('note_on', channel=4, note=55, velocity=123, time=10),
    Message('note_on', channel=4, note=55, velocity=0, time=10),
    Message('note_on', channel=4, note=55, velocity=123, time=9),
    Message('note_on', channel=4, note=55, velocity=0, time=13),
    Message('note_on', channel=4, note=55, velocity=123, time=7),
    Message('note_on', channel=4, note=55, velocity=0, time=11),
    Message('note_on', channel=4, note=63, velocity=123, time=9),
    Message('note_on', channel=4, note=79, velocity=123, time=0),
    Message('note_on', channel=4, note=63, velocity=0, time=11),
    Message('note_on', channel=4, note=79, velocity=0, time=81),
    Message('note_on', channel=4, note=63, velocity=123, time=29),
    Message('note_on', channel=4, note=67, velocity=123, time=0),
    Message('note_on', channel=4, note=63, velocity=0, time=11),
    Message('note_on', channel=4, note=67, velocity=0, time=49),
    Message('note_on', channel=4, note=63, velocity=123, time=2),
    Message('note_on', channel=4, note=63, velocity=0, time=10),
    Message('note_on', channel=4, note=63, velocity=123, time=10),
    Message('note_on', channel=4, note=63, velocity=0, time=10),
    Message('note_on', channel=4, note=67, velocity=123, time=2),
    Message('note_on', channel=4, note=63, velocity=123, time=7),
    Message('note_on', channel=4, note=63, velocity=0, time=11),
    Message('note_on', channel=4, note=67, velocity=0, time=5),
    Message('note_on', channel=4, note=55, velocity=123, time=3),
    Message('note_on', channel=4, note=79, velocity=123, time=4),
    Message('note_on', channel=4, note=55, velocity=0, time=6),
    Message('note_on', channel=4, note=55, velocity=123, time=50),
    Message('note_on', channel=4, note=55, velocity=0, time=11),
    Message('note_on', channel=4, note=79, velocity=0, time=9),
    Message('note_on', channel=4, note=55, velocity=123, time=0),
    Message('note_on', channel=4, note=55, velocity=0, time=11),
    Message('note_on', channel=4, note=55, velocity=123, time=8),
    Message('note_on', channel=4, note=55, velocity=0, time=12),
    Message('note_on', channel=4, note=78, velocity=123, time=2),
    Message('note_on', channel=4, note=51, velocity=123, time=7),
    Message('note_on', channel=4, note=51, velocity=0, time=10),
    Message('note_on', channel=4, note=51, velocity=123, time=8),
    Message('note_on', channel=4, note=51, velocity=0, time=14),
    Message('note_on', channel=4, note=51, velocity=123, time=6),
    Message('note_on', channel=4, note=51, velocity=0, time=11),
    Message('note_on', channel=4, note=78, velocity=0, time=9),
    Message('note_on', channel=4, note=51, velocity=123, time=1),
    Message('note_on', channel=4, note=51, velocity=0, time=13),
    Message('note_on', channel=4, note=77, velocity=123, time=19),
    Message('note_on', channel=4, note=77, velocity=0, time=20),
    Message('note_on', channel=4, note=76, velocity=123, time=6),
    Message('note_on', channel=4, note=61, velocity=123, time=1),
    Message('note_on', channel=4, note=61, velocity=0, time=12),
    Message('note_on', channel=4, note=76, velocity=0, time=15),
    Message('note_on', channel=4, note=75, velocity=123, time=12),
    Message('note_on', channel=4, note=75, velocity=0, time=20),
    Message('note_on', channel=4, note=76, velocity=123, time=2),
    Message('note_on', channel=4, note=76, velocity=0, time=27),
    Message('note_on', channel=4, note=61, velocity=123, time=30),
    Message('note_on', channel=4, note=61, velocity=0, time=11),
    Message('note_on', channel=4, note=61, velocity=123, time=52),
    Message('note_on', channel=4, note=68, velocity=123, time=3),
    Message('note_on', channel=4, note=61, velocity=0, time=8),
    Message('note_on', channel=4, note=61, velocity=123, time=9),
    Message('note_on', channel=4, note=68, velocity=0, time=6),
    Message('note_on', channel=4, note=61, velocity=0, time=5),
    Message('note_on', channel=4, note=61, velocity=123, time=9),
    Message('note_on', channel=4, note=61, velocity=0, time=11),
    Message('note_on', channel=4, note=61, velocity=123, time=9),
    Message('note_on', channel=4, note=73, velocity=123, time=3),
    Message('note_on', channel=4, note=68, velocity=123, time=2),
    Message('note_on', channel=4, note=61, velocity=0, time=6),
    Message('note_on', channel=4, note=61, velocity=123, time=47),
    Message('note_on', channel=4, note=61, velocity=0, time=11),
    Message('note_on', channel=4, note=61, velocity=123, time=9),
    Message('note_on', channel=4, note=73, velocity=0, time=5),
    Message('note_on', channel=4, note=68, velocity=0, time=2),
    Message('note_on', channel=4, note=61, velocity=0, time=4),
    Message('note_on', channel=4, note=61, velocity=123, time=11),
    Message('note_on', channel=4, note=61, velocity=0, time=11),
    Message('note_on', channel=4, note=61, velocity=123, time=9),
    Message('note_on', channel=4, note=72, velocity=123, time=3),
    Message('note_on', channel=4, note=68, velocity=123, time=2),
    Message('note_on', channel=4, note=61, velocity=0, time=6),
    Message('note_on', channel=4, note=61, velocity=123, time=9),
    Message('note_on', channel=4, note=61, velocity=0, time=13),
    Message('note_on', channel=4, note=61, velocity=123, time=5),
    Message('note_on', channel=4, note=61, velocity=0, time=11),
    Message('note_on', channel=4, note=68, velocity=0, time=9),
    Message('note_on', channel=4, note=61, velocity=123, time=2),
    Message('note_on', channel=4, note=72, velocity=0, time=9),
    Message('note_on', channel=4, note=61, velocity=0, time=2),
    Message('note_on', channel=4, note=71, velocity=123, time=22),
    Message('note_on', channel=4, note=68, velocity=123, time=0),
    Message('note_on', channel=4, note=71, velocity=0, time=16),
    Message('note_on', channel=4, note=68, velocity=0, time=2),
    Message('note_on', channel=4, note=63, velocity=123, time=8),
    Message('note_on', channel=4, note=70, velocity=123, time=4),
    Message('note_on', channel=4, note=66, velocity=123, time=1),
    Message('note_on', channel=4, note=63, velocity=0, time=7),
    Message('note_on', channel=4, note=66, velocity=0, time=13),
    Message('note_on', channel=4, note=70, velocity=0, time=2),
    Message('note_on', channel=4, note=65, velocity=123, time=5),
    Message('note_on', channel=4, note=69, velocity=123, time=0),
    Message('note_on', channel=4, note=69, velocity=0, time=18),
    Message('note_on', channel=4, note=65, velocity=0, time=2),
    Message('note_on', channel=4, note=70, velocity=123, time=10),
    Message('note_on', channel=4, note=66, velocity=123, time=2),
    Message('note_on', channel=4, note=66, velocity=0, time=23),
    Message('note_on', channel=4, note=70, velocity=0, time=1),
    Message('note_on', channel=4, note=63, velocity=123, time=30),
    Message('note_on', channel=4, note=63, velocity=0, time=11),
    Message('note_on', channel=4, note=63, velocity=123, time=52),
    Message('note_on', channel=4, note=63, velocity=123, time=5),
    Message('note_on', channel=4, note=63, velocity=0, time=3),
    Message('note_on', channel=4, note=63, velocity=0, time=1),
    Message('note_on', channel=4, note=63, velocity=123, time=11),
    Message('note_on', channel=4, note=63, velocity=0, time=5),
    Message('note_on', channel=4, note=63, velocity=123, time=15),
    Message('note_on', channel=4, note=63, velocity=0, time=11),
    Message('note_on', channel=4, note=63, velocity=123, time=9),
    Message('note_on', channel=4, note=66, velocity=123, time=5),
    Message('note_on', channel=4, note=63, velocity=0, time=6),
    Message('note_on', channel=4, note=66, velocity=0, time=66),
    Message('note_on', channel=4, note=60, velocity=123, time=43),
    Message('note_on', channel=4, note=66, velocity=123, time=1),
    Message('note_on', channel=4, note=70, velocity=123, time=2),
    Message('note_on', channel=4, note=63, velocity=123, time=0),
    Message('note_on', channel=4, note=60, velocity=0, time=8),
    Message('note_on', channel=4, note=60, velocity=123, time=9),
    Message('note_on', channel=4, note=60, velocity=0, time=13),
    Message('note_on', channel=4, note=60, velocity=123, time=5),
    Message('note_on', channel=4, note=60, velocity=0, time=11),
    Message('note_on', channel=4, note=60, velocity=123, time=11),
    Message('note_on', channel=4, note=60, velocity=0, time=11),
    Message('note_on', channel=4, note=63, velocity=0, time=0),
    Message('note_on', channel=4, note=66, velocity=0, time=6),
    Message('note_on', channel=4, note=70, velocity=0, time=5),
    Message('note_on', channel=4, note=70, velocity=123, time=14),
    Message('note_on', channel=4, note=70, velocity=0, time=15),
    Message('note_on', channel=4, note=55, velocity=123, time=10),
    Message('note_on', channel=4, note=67, velocity=123, time=3),
    Message('note_on', channel=4, note=55, velocity=0, time=8),
    Message('note_on', channel=4, note=67, velocity=0, time=72),
    Message('note_on', channel=4, note=66, velocity=123, time=36),
    Message('note_on', channel=4, note=63, velocity=123, time=0),
    Message('note_on', channel=4, note=70, velocity=123, time=0),
    Message('note_on', channel=4, note=63, velocity=123, time=1),
    Message('note_on', channel=4, note=63, velocity=0, time=1),
    Message('note_on', channel=4, note=63, velocity=0, time=1),
    Message('note_on', channel=4, note=63, velocity=123, time=17),
    Message('note_on', channel=4, note=63, velocity=0, time=13),
    Message('note_on', channel=4, note=63, velocity=123, time=5),
    Message('note_on', channel=4, note=63, velocity=0, time=11),
    Message('note_on', channel=4, note=63, velocity=123, time=11),
    Message('note_on', channel=4, note=63, velocity=0, time=9),
    Message('note_on', channel=4, note=70, velocity=0, time=1),
    Message('note_on', channel=4, note=66, velocity=0, time=0),
    Message('note_on', channel=4, note=70, velocity=123, time=27),
    Message('note_on', channel=4, note=70, velocity=0, time=16),
    Message('note_on', channel=4, note=55, velocity=123, time=10),
    Message('note_on', channel=4, note=67, velocity=123, time=0),
    Message('note_on', channel=4, note=55, velocity=0, time=10),
    Message('note_on', channel=4, note=55, velocity=123, time=48),
    Message('note_on', channel=4, note=55, velocity=0, time=11),
    Message('note_on', channel=4, note=55, velocity=123, time=9),
    Message('note_on', channel=4, note=55, velocity=0, time=11),
    Message('note_on', channel=4, note=55, velocity=123, time=9),
    Message('note_on', channel=4, note=55, velocity=0, time=12),
    Message('note_on', channel=4, note=55, velocity=123, time=8),
    Message('note_on', channel=4, note=55, velocity=0, time=10),
    Message('note_on', channel=4, note=55, velocity=106, time=9),
    Message('note_on', channel=4, note=55, velocity=0, time=13),
    Message('note_on', channel=4, note=67, velocity=0, time=1),
    Message('note_on', channel=4, note=55, velocity=106, time=6),
    Message('note_on', channel=4, note=55, velocity=0, time=11),
    Message('note_on', channel=4, note=55, velocity=106, time=10),
    Message('note_on', channel=4, note=55, velocity=0, time=13),
    Message('note_on', channel=4, note=55, velocity=106, time=127),
    Message('note_on', channel=4, note=55, velocity=0, time=11),
    Message('note_on', channel=4, note=55, velocity=106, time=8),
    Message('note_on', channel=4, note=55, velocity=0, time=13),
    Message('note_on', channel=4, note=55, velocity=106, time=8),
    Message('note_on', channel=4, note=55, velocity=0, time=11),
    Message('note_on', channel=4, note=55, velocity=106, time=8),
    Message('note_on', channel=4, note=55, velocity=0, time=13),
    Message('note_on', channel=4, note=55, velocity=106, time=7),
    Message('note_on', channel=4, note=55, velocity=0, time=12),
    Message('note_on', channel=4, note=55, velocity=106, time=8),
    Message('note_on', channel=4, note=55, velocity=0, time=13),
    Message('note_on', channel=4, note=50, velocity=127, time=1008),
    Message('note_on', channel=4, note=62, velocity=114, time=2),
    Message('note_on', channel=4, note=62, velocity=0, time=54),
    Message('note_on', channel=4, note=50, velocity=0, time=2),
    Message('note_on', channel=4, note=50, velocity=119, time=184),
    Message('note_on', channel=4, note=62, velocity=103, time=1),
    Message('note_on', channel=4, note=62, velocity=0, time=45),
    Message('note_on', channel=4, note=50, velocity=0, time=4),
    Message('note_on', channel=4, note=50, velocity=127, time=190),
    Message('note_on', channel=4, note=62, velocity=114, time=0),
    Message('note_on', channel=4, note=62, velocity=0, time=46),
    Message('note_on', channel=4, note=50, velocity=0, time=1),
    Message('note_on', channel=4, note=60, velocity=109, time=972),
    Message('note_on', channel=4, note=64, velocity=106, time=0),
    Message('note_on', channel=4, note=68, velocity=112, time=1),
    Message('note_on', channel=4, note=68, velocity=0, time=8),
    Message('note_on', channel=4, note=64, velocity=0, time=1),
    Message('note_on', channel=4, note=60, velocity=0, time=1),
    Message('note_on', channel=4, note=60, velocity=101, time=12),
    Message('note_on', channel=4, note=68, velocity=112, time=0),
    Message('note_on', channel=4, note=64, velocity=86, time=0),
    Message('note_on', channel=4, note=68, velocity=0, time=7),
    Message('note_on', channel=4, note=64, velocity=0, time=1),
    Message('note_on', channel=4, note=60, velocity=0, time=2),
    Message('note_on', channel=4, note=64, velocity=91, time=6),
    Message('note_on', channel=4, note=68, velocity=86, time=0),
    Message('note_on', channel=4, note=60, velocity=91, time=2),
    Message('note_on', channel=4, note=68, velocity=0, time=8),
    Message('note_on', channel=4, note=64, velocity=0, time=0),
    Message('note_on', channel=4, note=60, velocity=0, time=2),
    Message('note_on', channel=4, note=65, velocity=70, time=10),
    Message('note_on', channel=4, note=69, velocity=78, time=0),
    Message('note_on', channel=4, note=61, velocity=112, time=1),
    Message('note_on', channel=4, note=65, velocity=0, time=7),
    Message('note_on', channel=4, note=69, velocity=0, time=1),
    Message('note_on', channel=4, note=61, velocity=0, time=1),
    Message('note_on', channel=4, note=69, velocity=75, time=9),
    Message('note_on', channel=4, note=65, velocity=75, time=0),
    Message('note_on', channel=4, note=61, velocity=109, time=1),
    Message('note_on', channel=4, note=69, velocity=0, time=7),
    Message('note_on', channel=4, note=61, velocity=0, time=1),
    Message('note_on', channel=4, note=65, velocity=0, time=1),
    Message('note_on', channel=4, note=69, velocity=78, time=9),
    Message('note_on', channel=4, note=65, velocity=78, time=0),
    Message('note_on', channel=4, note=61, velocity=121, time=0),
    Message('note_on', channel=4, note=69, velocity=0, time=9),
    Message('note_on', channel=4, note=61, velocity=0, time=1),
    Message('note_on', channel=4, note=65, velocity=0, time=0),
    Message('note_on', channel=4, note=58, velocity=101, time=14),
    Message('note_on', channel=4, note=66, velocity=124, time=0),
    Message('note_on', channel=4, note=62, velocity=99, time=1),
    Message('note_on', channel=4, note=66, velocity=0, time=7),
    Message('note_on', channel=4, note=62, velocity=0, time=2),
    Message('note_on', channel=4, note=58, velocity=0, time=0),
    Message('note_on', channel=4, note=62, velocity=65, time=8),
    Message('note_on', channel=4, note=66, velocity=106, time=0),
    Message('note_on', channel=4, note=58, velocity=121, time=2),
    Message('note_on', channel=4, note=66, velocity=0, time=6),
    Message('note_on', channel=4, note=62, velocity=0, time=0),
    Message('note_on', channel=4, note=58, velocity=0, time=2),
    Message('note_on', channel=4, note=62, velocity=75, time=8),
    Message('note_on', channel=4, note=66, velocity=119, time=0),
    Message('note_on', channel=4, note=58, velocity=105, time=2),
    Message('note_on', channel=4, note=66, velocity=0, time=9),
    Message('note_on', channel=4, note=58, velocity=0, time=2),
    Message('note_on', channel=4, note=62, velocity=0, time=0),
    Message('note_on', channel=4, note=64, velocity=96, time=69),
    Message('note_on', channel=4, note=68, velocity=127, time=0),
    Message('note_on', channel=4, note=60, velocity=96, time=1),
    Message('note_on', channel=4, note=68, velocity=0, time=7),
    Message('note_on', channel=4, note=64, velocity=0, time=2),
    Message('note_on', channel=4, note=60, velocity=0, time=1),
    Message('note_on', channel=4, note=68, velocity=95, time=11),
    Message('note_on', channel=4, note=64, velocity=96, time=0),
    Message('note_on', channel=4, note=60, velocity=101, time=0),
    Message('note_on', channel=4, note=68, velocity=0, time=7),
    Message('note_on', channel=4, note=60, velocity=0, time=1),
    Message('note_on', channel=4, note=64, velocity=0, time=1),
    Message('note_on', channel=4, note=64, velocity=96, time=7),
    Message('note_on', channel=4, note=68, velocity=96, time=0),
    Message('note_on', channel=4, note=60, velocity=80, time=1),
    Message('note_on', channel=4, note=68, velocity=0, time=8),
    Message('note_on', channel=4, note=64, velocity=0, time=1),
    Message('note_on', channel=4, note=60, velocity=0, time=1),
    Message('note_on', channel=4, note=65, velocity=91, time=12),
    Message('note_on', channel=4, note=61, velocity=127, time=0),
    Message('note_on', channel=4, note=69, velocity=94, time=1),
    Message('note_on', channel=4, note=69, velocity=0, time=7),
    Message('note_on', channel=4, note=65, velocity=0, time=0),
    Message('note_on', channel=4, note=61, velocity=0, time=2),
    Message('note_on', channel=4, note=69, velocity=86, time=9),
    Message('note_on', channel=4, note=65, velocity=80, time=0),
    Message('note_on', channel=4, note=61, velocity=109, time=2),
    Message('note_on', channel=4, note=65, velocity=0, time=6),
    Message('note_on', channel=4, note=69, velocity=0, time=0),
    Message('note_on', channel=4, note=61, velocity=0, time=2),
    Message('note_on', channel=4, note=65, velocity=80, time=8),
    Message('note_on', channel=4, note=69, velocity=96, time=1),
    Message('note_on', channel=4, note=61, velocity=121, time=0),
    Message('note_on', channel=4, note=69, velocity=0, time=8),
    Message('note_on', channel=4, note=65, velocity=0, time=1),
    Message('note_on', channel=4, note=61, velocity=0, time=1),
    Message('note_on', channel=4, note=62, velocity=101, time=14),
    Message('note_on', channel=4, note=66, velocity=127, time=0),
    Message('note_on', channel=4, note=58, velocity=127, time=2),
    Message('note_on', channel=4, note=66, velocity=0, time=6),
    Message('note_on', channel=4, note=62, velocity=0, time=3),
    Message('note_on', channel=4, note=58, velocity=0, time=1),
    Message('note_on', channel=4, note=66, velocity=124, time=7),
    Message('note_on', channel=4, note=62, velocity=80, time=1),
    Message('note_on', channel=4, note=58, velocity=101, time=0),
    Message('note_on', channel=4, note=66, velocity=0, time=7),
    Message('note_on', channel=4, note=62, velocity=0, time=2),
    Message('note_on', channel=4, note=58, velocity=0, time=2),
    Message('note_on', channel=4, note=60, velocity=109, time=85),
    Message('note_on', channel=4, note=64, velocity=106, time=0),
    Message('note_on', channel=4, note=68, velocity=112, time=1),
    Message('note_on', channel=4, note=68, velocity=0, time=8),
    Message('note_on', channel=4, note=64, velocity=0, time=1),
    Message('note_on', channel=4, note=60, velocity=0, time=1),
    Message('note_on', channel=4, note=60, velocity=101, time=12),
    Message('note_on', channel=4, note=68, velocity=112, time=0),
    Message('note_on', channel=4, note=64, velocity=86, time=0),
    Message('note_on', channel=4, note=68, velocity=0, time=7),
    Message('note_on', channel=4, note=64, velocity=0, time=1),
    Message('note_on', channel=4, note=60, velocity=0, time=2),
    Message('note_on', channel=4, note=64, velocity=91, time=6),
    Message('note_on', channel=4, note=68, velocity=86, time=0),
    Message('note_on', channel=4, note=60, velocity=91, time=2),
    Message('note_on', channel=4, note=68, velocity=0, time=8),
    Message('note_on', channel=4, note=64, velocity=0, time=0),
    Message('note_on', channel=4, note=60, velocity=0, time=2),
    Message('note_on', channel=4, note=65, velocity=70, time=10),
    Message('note_on', channel=4, note=69, velocity=78, time=0),
    Message('note_on', channel=4, note=61, velocity=112, time=1),
    Message('note_on', channel=4, note=65, velocity=0, time=7),
    Message('note_on', channel=4, note=69, velocity=0, time=1),
    Message('note_on', channel=4, note=61, velocity=0, time=1),
    Message('note_on', channel=4, note=69, velocity=75, time=9),
    Message('note_on', channel=4, note=65, velocity=75, time=0),
    Message('note_on', channel=4, note=61, velocity=109, time=1),
    Message('note_on', channel=4, note=69, velocity=0, time=7),
    Message('note_on', channel=4, note=61, velocity=0, time=1),
    Message('note_on', channel=4, note=65, velocity=0, time=1),
    Message('note_on', channel=4, note=69, velocity=78, time=9),
    Message('note_on', channel=4, note=65, velocity=78, time=0),
    Message('note_on', channel=4, note=61, velocity=121, time=0),
    Message('note_on', channel=4, note=69, velocity=0, time=9),
    Message('note_on', channel=4, note=61, velocity=0, time=1),
    Message('note_on', channel=4, note=65, velocity=0, time=0),
    Message('note_on', channel=4, note=58, velocity=101, time=14),
    Message('note_on', channel=4, note=66, velocity=124, time=0),
    Message('note_on', channel=4, note=62, velocity=99, time=1),
    Message('note_on', channel=4, note=66, velocity=0, time=7),
    Message('note_on', channel=4, note=62, velocity=0, time=2),
    Message('note_on', channel=4, note=58, velocity=0, time=0),
    Message('note_on', channel=4, note=62, velocity=65, time=8),
    Message('note_on', channel=4, note=66, velocity=106, time=0),
    Message('note_on', channel=4, note=58, velocity=121, time=2),
    Message('note_on', channel=4, note=66, velocity=0, time=6),
    Message('note_on', channel=4, note=62, velocity=0, time=0),
    Message('note_on', channel=4, note=58, velocity=0, time=2),
    Message('note_on', channel=4, note=62, velocity=75, time=8),
    Message('note_on', channel=4, note=66, velocity=119, time=0),
    Message('note_on', channel=4, note=58, velocity=105, time=2),
    Message('note_on', channel=4, note=66, velocity=0, time=9),
    Message('note_on', channel=4, note=58, velocity=0, time=2),
    Message('note_on', channel=4, note=62, velocity=0, time=0),
    Message('note_on', channel=4, note=64, velocity=96, time=69),
    Message('note_on', channel=4, note=68, velocity=127, time=0),
    Message('note_on', channel=4, note=60, velocity=96, time=1),
    Message('note_on', channel=4, note=68, velocity=0, time=7),
    Message('note_on', channel=4, note=64, velocity=0, time=2),
    Message('note_on', channel=4, note=60, velocity=0, time=1),
    Message('note_on', channel=4, note=68, velocity=95, time=11),
    Message('note_on', channel=4, note=64, velocity=96, time=0),
    Message('note_on', channel=4, note=60, velocity=101, time=0),
    Message('note_on', channel=4, note=68, velocity=0, time=7),
    Message('note_on', channel=4, note=60, velocity=0, time=1),
    Message('note_on', channel=4, note=64, velocity=0, time=1),
    Message('note_on', channel=4, note=64, velocity=96, time=7),
    Message('note_on', channel=4, note=68, velocity=96, time=0),
    Message('note_on', channel=4, note=60, velocity=80, time=1),
    Message('note_on', channel=4, note=68, velocity=0, time=8),
    Message('note_on', channel=4, note=64, velocity=0, time=1),
    Message('note_on', channel=4, note=60, velocity=0, time=1),
    Message('note_on', channel=4, note=65, velocity=91, time=12),
    Message('note_on', channel=4, note=61, velocity=127, time=0),
    Message('note_on', channel=4, note=69, velocity=94, time=1),
    Message('note_on', channel=4, note=69, velocity=0, time=7),
    Message('note_on', channel=4, note=65, velocity=0, time=0),
    Message('note_on', channel=4, note=61, velocity=0, time=2),
    Message('note_on', channel=4, note=69, velocity=86, time=9),
    Message('note_on', channel=4, note=65, velocity=80, time=0),
    Message('note_on', channel=4, note=61, velocity=109, time=2),
    Message('note_on', channel=4, note=65, velocity=0, time=6),
    Message('note_on', channel=4, note=69, velocity=0, time=0),
    Message('note_on', channel=4, note=61, velocity=0, time=2),
    Message('note_on', channel=4, note=65, velocity=80, time=8),
    Message('note_on', channel=4, note=69, velocity=96, time=1),
    Message('note_on', channel=4, note=61, velocity=121, time=0),
    Message('note_on', channel=4, note=69, velocity=0, time=8),
    Message('note_on', channel=4, note=65, velocity=0, time=1),
    Message('note_on', channel=4, note=61, velocity=0, time=1),
    Message('note_on', channel=4, note=62, velocity=101, time=14),
    Message('note_on', channel=4, note=66, velocity=127, time=0),
    Message('note_on', channel=4, note=58, velocity=127, time=2),
    Message('note_on', channel=4, note=66, velocity=0, time=6),
    Message('note_on', channel=4, note=62, velocity=0, time=3),
    Message('note_on', channel=4, note=58, velocity=0, time=1),
    Message('note_on', channel=4, note=66, velocity=124, time=7),
    Message('note_on', channel=4, note=62, velocity=80, time=1),
    Message('note_on', channel=4, note=58, velocity=101, time=0),
    Message('note_on', channel=4, note=66, velocity=0, time=7),
    Message('note_on', channel=4, note=62, velocity=0, time=2),
    Message('note_on', channel=4, note=58, velocity=0, time=2),
    Message('note_on', channel=4, note=62, velocity=96, time=6),
    Message('note_on', channel=4, note=66, velocity=114, time=0),
    Message('note_on', channel=4, note=58, velocity=127, time=1),
    Message('note_on', channel=4, note=66, velocity=0, time=9),
    Message('note_on', channel=4, note=58, velocity=0, time=1),
    Message('note_on', channel=4, note=62, velocity=0, time=1),
    Message('note_on', channel=4, note=54, velocity=121, time=11),
    Message('note_on', channel=4, note=49, velocity=124, time=4),
    Message('note_on', channel=4, note=42, velocity=117, time=0),
    Message('note_on', channel=4, note=54, velocity=0, time=46),
    Message('note_on', channel=4, note=42, velocity=0, time=4),
    Message('note_on', channel=4, note=49, velocity=0, time=0),
    Message('note_on', channel=4, note=54, velocity=127, time=70),
    Message('note_on', channel=4, note=49, velocity=127, time=0),
    Message('note_on', channel=4, note=42, velocity=106, time=1),
    Message('note_on', channel=4, note=42, velocity=0, time=25),
    Message('note_on', channel=4, note=49, velocity=0, time=0),
    Message('note_on', channel=4, note=54, velocity=0, time=2),
    Message('note_on', channel=4, note=54, velocity=127, time=28),
    Message('note_on', channel=4, note=49, velocity=127, time=0),
    Message('note_on', channel=4, note=42, velocity=106, time=1),
    Message('note_on', channel=4, note=49, velocity=0, time=49),
    Message('note_on', channel=4, note=54, velocity=0, time=0),
    Message('note_on', channel=4, note=42, velocity=0, time=1),
    Message('note_on', channel=4, note=54, velocity=127, time=70),
    Message('note_on', channel=4, note=49, velocity=127, time=2),
    Message('note_on', channel=4, note=42, velocity=106, time=1),
    Message('note_on', channel=4, note=54, velocity=0, time=47),
    Message('note_on', channel=4, note=49, velocity=0, time=2),
    Message('note_on', channel=4, note=42, velocity=0, time=1),
    Message('note_on', channel=4, note=54, velocity=127, time=63),
    Message('note_on', channel=4, note=49, velocity=127, time=1),
    Message('note_on', channel=4, note=42, velocity=127, time=2),
    Message('note_on', channel=4, note=54, velocity=0, time=47),
    Message('note_on', channel=4, note=49, velocity=0, time=1),
    Message('note_on', channel=4, note=42, velocity=0, time=2),
    Message('note_on', channel=4, note=68, velocity=62, time=184),
    Message('note_on', channel=4, note=65, velocity=86, time=1),
    Message('note_on', channel=4, note=61, velocity=58, time=3),
    Message('note_on', channel=4, note=68, velocity=0, time=22),
    Message('note_on', channel=4, note=65, velocity=0, time=1),
    Message('note_on', channel=4, note=61, velocity=0, time=2),
    Message('note_on', channel=4, note=65, velocity=68, time=30),
    Message('note_on', channel=4, note=61, velocity=61, time=1),
    Message('note_on', channel=4, note=68, velocity=50, time=0),
    Message('note_on', channel=4, note=68, velocity=0, time=158),
    Message('note_on', channel=4, note=61, velocity=0, time=0),
    Message('note_on', channel=4, note=65, velocity=0, time=1),
    Message('note_on', channel=4, note=65, velocity=119, time=17),
    Message('note_on', channel=4, note=68, velocity=76, time=2),
    Message('note_on', channel=4, note=61, velocity=83, time=2),
    Message('note_on', channel=4, note=68, velocity=0, time=16),
    Message('note_on', channel=4, note=61, velocity=0, time=2),
    Message('note_on', channel=4, note=65, velocity=0, time=1),
    Message('note_on', channel=4, note=65, velocity=88, time=44),
    Message('note_on', channel=4, note=69, velocity=95, time=3),
    Message('note_on', channel=4, note=61, velocity=74, time=5),
    Message('note_on', channel=4, note=69, velocity=0, time=29),
    Message('note_on', channel=4, note=61, velocity=0, time=4),
    Message('note_on', channel=4, note=65, velocity=0, time=0),
    Message('note_on', channel=4, note=65, velocity=114, time=41),
    Message('note_on', channel=4, note=61, velocity=109, time=0),
    Message('note_on', channel=4, note=69, velocity=100, time=1),
    Message('note_on', channel=4, note=69, velocity=0, time=10),
    Message('note_on', channel=4, note=65, velocity=0, time=2),
    Message('note_on', channel=4, note=61, velocity=0, time=4),
    Message('note_on', channel=4, note=68, velocity=82, time=16),
    Message('note_on', channel=4, note=61, velocity=62, time=1),
    Message('note_on', channel=4, note=65, velocity=97, time=1),
    Message('note_on', channel=4, note=65, velocity=0, time=386),
    Message('note_on', channel=4, note=68, velocity=0, time=42),
    Message('note_on', channel=4, note=61, velocity=0, time=5),
    Message('note_on', channel=4, note=62, velocity=117, time=4254),
    Message('note_on', channel=4, note=62, velocity=0, time=105),
    Message('note_on', channel=4, note=69, velocity=114, time=131),
    Message('note_on', channel=4, note=69, velocity=0, time=160),
    Message('note_on', channel=4, note=67, velocity=117, time=78),
    Message('note_on', channel=4, note=67, velocity=0, time=60),
    Message('note_on', channel=4, note=66, velocity=110, time=29),
    Message('note_on', channel=4, note=66, velocity=0, time=31),
    Message('note_on', channel=4, note=64, velocity=112, time=46),
    Message('note_on', channel=4, note=64, velocity=0, time=31),
    Message('note_on', channel=4, note=74, velocity=117, time=45),
    Message('note_on', channel=4, note=74, velocity=0, time=198),
    Message('note_on', channel=4, note=69, velocity=113, time=40),
    Message('note_on', channel=4, note=69, velocity=0, time=610),
    Message('note_on', channel=4, note=69, velocity=102, time=1301),
    Message('note_on', channel=4, note=74, velocity=47, time=1),
    Message('note_on', channel=4, note=81, velocity=109, time=17),
    Message('note_on', channel=4, note=74, velocity=0, time=5),
    Message('note_on', channel=4, note=69, velocity=0, time=0),
    Message('note_on', channel=4, note=81, velocity=0, time=33),
    Message('note_on', channel=4, note=74, velocity=92, time=62),
    Message('note_on', channel=4, note=69, velocity=88, time=8),
    Message('note_on', channel=4, note=81, velocity=111, time=7),
    Message('note_on', channel=4, note=69, velocity=0, time=9),
    Message('note_on', channel=4, note=74, velocity=0, time=2),
    Message('note_on', channel=4, note=74, velocity=74, time=7),
    Message('note_on', channel=4, note=81, velocity=0, time=16),
    Message('note_on', channel=4, note=74, velocity=0, time=5),
    Message('note_on', channel=4, note=79, velocity=73, time=66),
    Message('note_on', channel=4, note=74, velocity=97, time=7),
    Message('note_on', channel=4, note=71, velocity=44, time=11),
    Message('note_on', channel=4, note=74, velocity=0, time=9),
    Message('note_on', channel=4, note=71, velocity=0, time=5),
    Message('note_on', channel=4, note=79, velocity=0, time=19),
    Message('note_on', channel=4, note=78, velocity=92, time=7),
    Message('note_on', channel=4, note=71, velocity=88, time=22),
    Message('note_on', channel=4, note=78, velocity=0, time=5),
    Message('note_on', channel=4, note=71, velocity=0, time=10),
    Message('note_on', channel=4, note=76, velocity=106, time=0),
    Message('note_on', channel=4, note=76, velocity=0, time=20),
    Message('note_on', channel=4, note=74, velocity=88, time=19),
    Message('note_on', channel=4, note=86, velocity=127, time=1),
    Message('note_on', channel=4, note=74, velocity=0, time=14),
    Message('note_on', channel=4, note=86, velocity=0, time=25),
    Message('note_on', channel=4, note=81, velocity=76, time=86),
    Message('note_on', channel=4, note=62, velocity=80, time=360),
    Message('note_on', channel=4, note=62, velocity=0, time=33),
    Message('note_on', channel=4, note=64, velocity=110, time=24),
    Message('note_on', channel=4, note=64, velocity=0, time=30),
    Message('note_on', channel=4, note=62, velocity=59, time=24),
    Message('note_on', channel=4, note=66, velocity=114, time=4),
    Message('note_on', channel=4, note=74, velocity=127, time=10),
    Message('note_on', channel=4, note=69, velocity=102, time=0),
    Message('note_on', channel=4, note=81, velocity=0, time=13),
    Message('note_on', channel=4, note=62, velocity=0, time=7),
    Message('note_on', channel=4, note=74, velocity=0, time=10),
    Message('note_on', channel=4, note=69, velocity=0, time=0),
    Message('note_on', channel=4, note=66, velocity=0, time=1),
    Message('note_on', channel=4, note=59, velocity=121, time=77),
    Message('note_on', channel=4, note=74, velocity=127, time=5),
    Message('note_on', channel=4, note=69, velocity=116, time=2),
    Message('note_on', channel=4, note=62, velocity=84, time=3),
    Message('note_on', channel=4, note=62, velocity=0, time=20),
    Message('note_on', channel=4, note=74, velocity=0, time=0),
    Message('note_on', channel=4, note=69, velocity=0, time=3),
    Message('note_on', channel=4, note=59, velocity=0, time=1),
    Message('note_on', channel=4, note=69, velocity=122, time=90),
    Message('note_on', channel=4, note=74, velocity=127, time=1),
    Message('note_on', channel=4, note=62, velocity=111, time=0),
    Message('note_on', channel=4, note=59, velocity=114, time=5),
    Message('note_on', channel=4, note=62, velocity=0, time=16),
    Message('note_on', channel=4, note=74, velocity=0, time=2),
    Message('note_on', channel=4, note=69, velocity=0, time=1),
    Message('note_on', channel=4, note=69, velocity=120, time=61),
    Message('note_on', channel=4, note=74, velocity=116, time=2),
    Message('note_on', channel=4, note=81, velocity=86, time=1),
    Message('note_on', channel=4, note=69, velocity=0, time=13),
    Message('note_on', channel=4, note=81, velocity=0, time=1),
    Message('note_on', channel=4, note=74, velocity=0, time=0),
    Message('note_on', channel=4, note=69, velocity=127, time=23),
    Message('note_on', channel=4, note=74, velocity=117, time=0),
    Message('note_on', channel=4, note=81, velocity=102, time=1),
    Message('note_on', channel=4, note=74, velocity=0, time=14),
    Message('note_on', channel=4, note=69, velocity=0, time=0),
    Message('note_on', channel=4, note=81, velocity=0, time=4),
    Message('note_on', channel=4, note=69, velocity=124, time=16),
    Message('note_on', channel=4, note=81, velocity=97, time=4),
    Message('note_on', channel=4, note=74, velocity=117, time=3),
    Message('note_on', channel=4, note=69, velocity=0, time=9),
    Message('note_on', channel=4, note=81, velocity=0, time=5),
    Message('note_on', channel=4, note=74, velocity=0, time=1),
    Message('note_on', channel=4, note=81, velocity=106, time=15),
    Message('note_on', channel=4, note=69, velocity=117, time=0),
    Message('note_on', channel=4, note=74, velocity=127, time=3),
    Message('note_on', channel=4, note=69, velocity=0, time=16),
    Message('note_on', channel=4, note=59, velocity=0, time=0),
    Message('note_on', channel=4, note=81, velocity=0, time=3),
    Message('note_on', channel=4, note=74, velocity=0, time=1),
    Message('note_on', channel=4, note=67, velocity=97, time=12),
    Message('note_on', channel=4, note=79, velocity=127, time=6),
    Message('note_on', channel=4, note=86, velocity=127, time=0),
    Message('note_on', channel=4, note=67, velocity=127, time=10),
    Message('note_on', channel=4, note=67, velocity=0, time=16),
    Message('note_on', channel=4, note=67, velocity=0, time=0),
    Message('note_on', channel=4, note=79, velocity=0, time=33),
    Message('note_on', channel=4, note=86, velocity=0, time=2),
    Message('note_on', channel=4, note=74, velocity=127, time=293),
    Message('note_on', channel=4, note=74, velocity=0, time=355),
    Message('note_on', channel=4, note=72, velocity=121, time=5),
    Message('note_on', channel=4, note=72, velocity=0, time=30),
    Message('note_on', channel=4, note=70, velocity=127, time=10),
    Message('note_on', channel=4, note=70, velocity=0, time=31),
    Message('note_on', channel=4, note=69, velocity=100, time=9),
    Message('note_on', channel=4, note=69, velocity=0, time=34),
    Message('note_on', channel=4, note=79, velocity=120, time=6),
    Message('note_on', channel=4, note=79, velocity=0, time=231),
    Message('note_on', channel=4, note=74, velocity=122, time=9),
    Message('note_on', channel=4, note=74, velocity=0, time=346),
    Message('note_on', channel=4, note=72, velocity=122, time=14),
    Message('note_on', channel=4, note=72, velocity=0, time=23),
    Message('note_on', channel=4, note=70, velocity=114, time=17),
    Message('note_on', channel=4, note=70, velocity=0, time=25),
    Message('note_on', channel=4, note=69, velocity=104, time=15),
    Message('note_on', channel=4, note=69, velocity=0, time=24),
    Message('note_on', channel=4, note=79, velocity=114, time=16),
    Message('note_on', channel=4, note=74, velocity=122, time=240),
    Message('note_on', channel=4, note=79, velocity=0, time=1),
    Message('note_on', channel=4, note=72, velocity=108, time=359),
    Message('note_on', channel=4, note=74, velocity=0, time=5),
    Message('note_on', channel=4, note=72, velocity=0, time=320),
    Message('note_on', channel=4, note=50, velocity=122, time=35),
    Message('note_on', channel=4, note=50, velocity=0, time=41),
    Message('note_on', channel=4, note=50, velocity=106, time=79),
    Message('note_on', channel=4, note=50, velocity=0, time=201),
    Message('note_on', channel=4, note=51, velocity=106, time=39),
    Message('note_on', channel=4, note=51, velocity=0, time=63),
    Message('note_on', channel=4, note=50, velocity=112, time=57),
    Message('note_on', channel=4, note=50, velocity=0, time=44),
    Message('note_on', channel=4, note=50, velocity=109, time=76),
    Message('note_on', channel=4, note=50, velocity=0, time=197),
    Message('note_on', channel=4, note=51, velocity=110, time=43),
    Message('note_on', channel=4, note=51, velocity=0, time=59),
    Message('note_on', channel=4, note=48, velocity=106, time=61),
    Message('note_on', channel=4, note=48, velocity=0, time=46),
    Message('note_on', channel=4, note=48, velocity=105, time=74),
    Message('note_on', channel=4, note=48, velocity=0, time=185),
    Message('note_on', channel=4, note=48, velocity=102, time=55),
    Message('note_on', channel=4, note=48, velocity=0, time=66),
    Message('note_on', channel=4, note=48, velocity=106, time=54),
    Message('note_on', channel=4, note=48, velocity=0, time=63),
    Message('note_on', channel=4, note=48, velocity=101, time=57),
    Message('note_on', channel=4, note=48, velocity=0, time=200),
    Message('note_on', channel=4, note=48, velocity=107, time=40),
    Message('note_on', channel=4, note=48, velocity=0, time=58),
    Message('note_on', channel=4, note=58, velocity=127, time=3063),
    Message('note_on', channel=4, note=58, velocity=0, time=63),
    Message('note_on', channel=4, note=65, velocity=127, time=53),
    Message('note_on', channel=4, note=65, velocity=0, time=133),
    Message('note_on', channel=4, note=63, velocity=127, time=31),
    Message('note_on', channel=4, note=63, velocity=0, time=15),
    Message('note_on', channel=4, note=65, velocity=127, time=15),
    Message('note_on', channel=4, note=65, velocity=0, time=17),
    Message('note_on', channel=4, note=67, velocity=127, time=23),
    Message('note_on', channel=4, note=67, velocity=0, time=61),
    Message('note_on', channel=4, note=63, velocity=127, time=59),
    Message('note_on', channel=4, note=63, velocity=0, time=80),
    Message('note_on', channel=4, note=63, velocity=127, time=39),
    Message('note_on', channel=4, note=63, velocity=0, time=17),
    Message('note_on', channel=4, note=62, velocity=127, time=20),
    Message('note_on', channel=4, note=62, velocity=0, time=13),
    Message('note_on', channel=4, note=63, velocity=127, time=22),
    Message('note_on', channel=4, note=63, velocity=0, time=20),
    Message('note_on', channel=4, note=63, velocity=127, time=9),
    Message('note_on', channel=4, note=63, velocity=0, time=6),
    Message('note_on', channel=4, note=63, velocity=127, time=9),
    Message('note_on', channel=4, note=63, velocity=0, time=10),
    Message('note_on', channel=4, note=63, velocity=127, time=6),
    Message('note_on', channel=4, note=63, velocity=0, time=16),
    Message('note_on', channel=4, note=63, velocity=127, time=19),
    Message('note_on', channel=4, note=63, velocity=0, time=11),
    Message('note_on', channel=4, note=63, velocity=127, time=23),
    Message('note_on', channel=4, note=63, velocity=0, time=11),
    Message('note_on', channel=4, note=68, velocity=127, time=39),
    Message('note_on', channel=4, note=68, velocity=0, time=159),
    Message('note_on', channel=4, note=62, velocity=127, time=40),
    Message('note_on', channel=4, note=62, velocity=0, time=15),
    Message('note_on', channel=4, note=68, velocity=127, time=25),
    Message('note_on', channel=4, note=68, velocity=0, time=18),
    Message('note_on', channel=4, note=72, velocity=127, time=22),
    Message('note_on', channel=4, note=72, velocity=0, time=19),
    Message('note_on', channel=4, note=63, velocity=127, time=21),
    Message('note_on', channel=4, note=63, velocity=0, time=20),
    Message('note_on', channel=4, note=74, velocity=127, time=21),
    Message('note_on', channel=4, note=74, velocity=0, time=357),
    Message('note_on', channel=4, note=62, velocity=127, time=3),
    Message('note_on', channel=4, note=62, velocity=0, time=90),
    Message('note_on', channel=4, note=69, velocity=127, time=32),
    Message('note_on', channel=4, note=69, velocity=0, time=90),
    Message('note_on', channel=4, note=67, velocity=127, time=28),
    Message('note_on', channel=4, note=67, velocity=0, time=21),
    Message('note_on', channel=4, note=66, velocity=127, time=19),
    Message('note_on', channel=4, note=66, velocity=0, time=22),
    Message('note_on', channel=4, note=64, velocity=127, time=18),
    Message('note_on', channel=4, note=64, velocity=0, time=16),
    Message('note_on', channel=4, note=67, velocity=127, time=29),
    Message('note_on', channel=4, note=67, velocity=0, time=713),
    Message('note_on', channel=4, note=76, velocity=127, time=1),
    Message('note_on', channel=4, note=76, velocity=0, time=25),
    Message('note_on', channel=4, note=74, velocity=127, time=15),
    Message('note_on', channel=4, note=74, velocity=0, time=28),
    Message('note_on', channel=4, note=72, velocity=127, time=12),
    Message('note_on', channel=4, note=72, velocity=0, time=35),
    Message('note_on', channel=4, note=77, velocity=127, time=10),
    Message('note_on', channel=4, note=77, velocity=0, time=330),
    Message('note_on', channel=4, note=72, velocity=127, time=30),
    Message('note_on', channel=4, note=72, velocity=0, time=21),
    Message('note_on', channel=4, note=71, velocity=127, time=22),
    Message('note_on', channel=4, note=71, velocity=0, time=20),
    Message('note_on', channel=4, note=69, velocity=127, time=20),
    Message('note_on', channel=4, note=69, velocity=0, time=21),
    Message('note_on', channel=4, note=74, velocity=127, time=29),
    Message('note_on', channel=4, note=74, velocity=0, time=102),
    Message('note_on', channel=4, note=50, velocity=127, time=1),
    Message('note_on', channel=4, note=50, velocity=0, time=12),
    Message('note_on', channel=4, note=50, velocity=127, time=28),
    Message('note_on', channel=4, note=50, velocity=0, time=16),
    Message('note_on', channel=4, note=50, velocity=127, time=24),
    Message('note_on', channel=4, note=50, velocity=0, time=19),
    Message('note_on', channel=4, note=50, velocity=127, time=21),
    Message('note_on', channel=4, note=50, velocity=0, time=38),
    MetaMessage('end_of_track', time=0)]),
  MidiTrack([
    MetaMessage('midi_port', port=1, time=0),
    MetaMessage('track_name', name='Harp', time=0),
    Message('program_change', channel=6, program=46, time=0),
    Message('control_change', channel=6, control=7, value=102, time=0),
    Message('control_change', channel=6, control=10, value=38, time=0),
    Message('control_change', channel=6, control=18, value=64, time=11),
    Message('note_on', channel=6, note=70, velocity=68, time=2512),
    Message('note_on', channel=6, note=70, velocity=0, time=11),
    Message('note_on', channel=6, note=75, velocity=56, time=12),
    Message('note_on', channel=6, note=75, velocity=0, time=11),
    Message('note_on', channel=6, note=77, velocity=56, time=7),
    Message('note_on', channel=6, note=77, velocity=0, time=11),
    Message('note_on', channel=6, note=82, velocity=61, time=7),
    Message('note_on', channel=6, note=82, velocity=0, time=11),
    Message('note_on', channel=6, note=77, velocity=54, time=11),
    Message('note_on', channel=6, note=77, velocity=0, time=11),
    Message('note_on', channel=6, note=75, velocity=61, time=8),
    Message('note_on', channel=6, note=75, velocity=0, time=12),
    Message('note_on', channel=6, note=70, velocity=64, time=11),
    Message('note_on', channel=6, note=70, velocity=0, time=11),
    Message('note_on', channel=6, note=75, velocity=61, time=9),
    Message('note_on', channel=6, note=75, velocity=0, time=11),
    Message('note_on', channel=6, note=77, velocity=61, time=8),
    Message('note_on', channel=6, note=77, velocity=0, time=11),
    Message('note_on', channel=6, note=82, velocity=56, time=9),
    Message('note_on', channel=6, note=82, velocity=0, time=12),
    Message('note_on', channel=6, note=77, velocity=54, time=8),
    Message('note_on', channel=6, note=77, velocity=0, time=11),
    Message('note_on', channel=6, note=75, velocity=56, time=8),
    Message('note_on', channel=6, note=75, velocity=0, time=11),
    Message('note_on', channel=6, note=70, velocity=68, time=9),
    Message('note_on', channel=6, note=70, velocity=0, time=11),
    Message('note_on', channel=6, note=72, velocity=61, time=8),
    Message('note_on', channel=6, note=72, velocity=0, time=11),
    Message('note_on', channel=6, note=77, velocity=61, time=9),
    Message('note_on', channel=6, note=77, velocity=0, time=11),
    Message('note_on', channel=6, note=82, velocity=61, time=10),
    Message('note_on', channel=6, note=82, velocity=0, time=11),
    Message('note_on', channel=6, note=77, velocity=61, time=7),
    Message('note_on', channel=6, note=77, velocity=0, time=11),
    Message('note_on', channel=6, note=72, velocity=64, time=7),
    Message('note_on', channel=6, note=72, velocity=0, time=11),
    Message('note_on', channel=6, note=70, velocity=68, time=10),
    Message('note_on', channel=6, note=70, velocity=0, time=11),
    Message('note_on', channel=6, note=72, velocity=61, time=9),
    Message('note_on', channel=6, note=72, velocity=0, time=12),
    Message('note_on', channel=6, note=77, velocity=54, time=7),
    Message('note_on', channel=6, note=77, velocity=0, time=11),
    Message('note_on', channel=6, note=82, velocity=61, time=9),
    Message('note_on', channel=6, note=82, velocity=0, time=12),
    Message('note_on', channel=6, note=77, velocity=54, time=8),
    Message('note_on', channel=6, note=77, velocity=0, time=11),
    Message('note_on', channel=6, note=72, velocity=64, time=8),
    Message('note_on', channel=6, note=72, velocity=0, time=11),
    Message('note_on', channel=6, note=70, velocity=68, time=8),
    Message('note_on', channel=6, note=70, velocity=0, time=12),
    Message('note_on', channel=6, note=75, velocity=56, time=9),
    Message('note_on', channel=6, note=75, velocity=0, time=11),
    Message('note_on', channel=6, note=77, velocity=51, time=8),
    Message('note_on', channel=6, note=77, velocity=0, time=12),
    Message('note_on', channel=6, note=82, velocity=61, time=8),
    Message('note_on', channel=6, note=82, velocity=0, time=11),
    Message('note_on', channel=6, note=77, velocity=54, time=9),
    Message('note_on', channel=6, note=77, velocity=0, time=11),
    Message('note_on', channel=6, note=75, velocity=61, time=7),
    Message('note_on', channel=6, note=75, velocity=0, time=11),
    Message('note_on', channel=6, note=70, velocity=64, time=9),
    Message('note_on', channel=6, note=70, velocity=0, time=10),
    Message('note_on', channel=6, note=75, velocity=56, time=12),
    Message('note_on', channel=6, note=75, velocity=0, time=11),
    Message('note_on', channel=6, note=77, velocity=56, time=6),
    Message('note_on', channel=6, note=77, velocity=0, time=11),
    Message('note_on', channel=6, note=82, velocity=61, time=10),
    Message('note_on', channel=6, note=82, velocity=0, time=11),
    Message('note_on', channel=6, note=77, velocity=52, time=9),
    Message('note_on', channel=6, note=77, velocity=0, time=11),
    Message('note_on', channel=6, note=75, velocity=52, time=9),
    Message('note_on', channel=6, note=75, velocity=0, time=11),
    Message('note_on', channel=6, note=70, velocity=64, time=10),
    Message('note_on', channel=6, note=70, velocity=0, time=11),
    Message('note_on', channel=6, note=72, velocity=64, time=9),
    Message('note_on', channel=6, note=72, velocity=0, time=12),
    Message('note_on', channel=6, note=77, velocity=61, time=7),
    Message('note_on', channel=6, note=77, velocity=0, time=11),
    Message('note_on', channel=6, note=82, velocity=61, time=11),
    Message('note_on', channel=6, note=82, velocity=0, time=11),
    Message('note_on', channel=6, note=77, velocity=61, time=9),
    Message('note_on', channel=6, note=77, velocity=0, time=11),
    Message('note_on', channel=6, note=72, velocity=68, time=8),
    Message('note_on', channel=6, note=72, velocity=0, time=11),
    Message('note_on', channel=6, note=70, velocity=68, time=8),
    Message('note_on', channel=6, note=70, velocity=0, time=11),
    Message('note_on', channel=6, note=72, velocity=61, time=9),
    Message('note_on', channel=6, note=72, velocity=0, time=11),
    Message('note_on', channel=6, note=77, velocity=56, time=9),
    Message('note_on', channel=6, note=77, velocity=0, time=11),
    Message('note_on', channel=6, note=82, velocity=56, time=8),
    Message('note_on', channel=6, note=82, velocity=0, time=11),
    Message('note_on', channel=6, note=77, velocity=54, time=10),
    Message('note_on', channel=6, note=77, velocity=0, time=11),
    Message('note_on', channel=6, note=72, velocity=64, time=8),
    Message('note_on', channel=6, note=72, velocity=0, time=11),
    Message('note_on', channel=6, note=70, velocity=68, time=19),
    Message('note_on', channel=6, note=70, velocity=0, time=11),
    Message('note_on', channel=6, note=65, velocity=49, time=2386),
    Message('note_on', channel=6, note=65, velocity=0, time=13),
    Message('note_on', channel=6, note=67, velocity=49, time=5),
    Message('note_on', channel=6, note=67, velocity=0, time=13),
    Message('note_on', channel=6, note=70, velocity=49, time=3),
    Message('note_on', channel=6, note=70, velocity=0, time=13),
    Message('note_on', channel=6, note=75, velocity=42, time=7),
    Message('note_on', channel=6, note=75, velocity=0, time=13),
    Message('note_on', channel=6, note=77, velocity=45, time=4),
    Message('note_on', channel=6, note=77, velocity=0, time=13),
    Message('note_on', channel=6, note=82, velocity=45, time=5),
    Message('note_on', channel=6, note=82, velocity=0, time=13),
    Message('note_on', channel=6, note=65, velocity=49, time=9),
    Message('note_on', channel=6, note=65, velocity=0, time=13),
    Message('note_on', channel=6, note=67, velocity=49, time=5),
    Message('note_on', channel=6, note=67, velocity=0, time=13),
    Message('note_on', channel=6, note=70, velocity=49, time=6),
    Message('note_on', channel=6, note=70, velocity=0, time=13),
    Message('note_on', channel=6, note=75, velocity=41, time=7),
    Message('note_on', channel=6, note=75, velocity=0, time=13),
    Message('note_on', channel=6, note=77, velocity=45, time=5),
    Message('note_on', channel=6, note=77, velocity=0, time=13),
    Message('note_on', channel=6, note=82, velocity=45, time=5),
    Message('note_on', channel=6, note=82, velocity=0, time=13),
    Message('note_on', channel=6, note=65, velocity=49, time=9),
    Message('note_on', channel=6, note=65, velocity=0, time=13),
    Message('note_on', channel=6, note=67, velocity=45, time=7),
    Message('note_on', channel=6, note=67, velocity=0, time=13),
    Message('note_on', channel=6, note=70, velocity=49, time=7),
    Message('note_on', channel=6, note=70, velocity=0, time=13),
    Message('note_on', channel=6, note=75, velocity=45, time=10),
    Message('note_on', channel=6, note=75, velocity=0, time=13),
    Message('note_on', channel=6, note=77, velocity=43, time=7),
    Message('note_on', channel=6, note=77, velocity=0, time=13),
    Message('note_on', channel=6, note=82, velocity=45, time=6),
    Message('note_on', channel=6, note=82, velocity=0, time=13),
    Message('note_on', channel=6, note=65, velocity=45, time=12),
    Message('note_on', channel=6, note=65, velocity=0, time=13),
    Message('note_on', channel=6, note=67, velocity=49, time=6),
    Message('note_on', channel=6, note=67, velocity=0, time=13),
    Message('note_on', channel=6, note=70, velocity=53, time=6),
    Message('note_on', channel=6, note=70, velocity=0, time=13),
    Message('note_on', channel=6, note=75, velocity=42, time=10),
    Message('note_on', channel=6, note=75, velocity=0, time=13),
    Message('note_on', channel=6, note=77, velocity=45, time=2),
    Message('note_on', channel=6, note=77, velocity=0, time=13),
    Message('note_on', channel=6, note=82, velocity=45, time=6),
    Message('note_on', channel=6, note=82, velocity=0, time=13),
    Message('note_on', channel=6, note=65, velocity=49, time=10),
    Message('note_on', channel=6, note=65, velocity=0, time=13),
    Message('note_on', channel=6, note=67, velocity=49, time=5),
    Message('note_on', channel=6, note=67, velocity=0, time=13),
    Message('note_on', channel=6, note=70, velocity=49, time=6),
    Message('note_on', channel=6, note=70, velocity=0, time=13),
    Message('note_on', channel=6, note=75, velocity=45, time=10),
    Message('note_on', channel=6, note=75, velocity=0, time=13),
    Message('note_on', channel=6, note=77, velocity=43, time=7),
    Message('note_on', channel=6, note=77, velocity=0, time=13),
    Message('note_on', channel=6, note=82, velocity=45, time=4),
    Message('note_on', channel=6, note=82, velocity=0, time=13),
    Message('note_on', channel=6, note=65, velocity=49, time=10),
    Message('note_on', channel=6, note=65, velocity=0, time=13),
    Message('note_on', channel=6, note=67, velocity=45, time=5),
    Message('note_on', channel=6, note=67, velocity=0, time=13),
    Message('note_on', channel=6, note=70, velocity=49, time=8),
    Message('note_on', channel=6, note=70, velocity=0, time=13),
    Message('note_on', channel=6, note=75, velocity=43, time=9),
    Message('note_on', channel=6, note=75, velocity=0, time=13),
    Message('note_on', channel=6, note=77, velocity=49, time=4),
    Message('note_on', channel=6, note=77, velocity=0, time=13),
    Message('note_on', channel=6, note=82, velocity=49, time=6),
    Message('note_on', channel=6, note=82, velocity=0, time=13),
    Message('note_on', channel=6, note=65, velocity=49, time=259),
    Message('note_on', channel=6, note=65, velocity=0, time=13),
    Message('note_on', channel=6, note=67, velocity=49, time=5),
    Message('note_on', channel=6, note=67, velocity=0, time=13),
    Message('note_on', channel=6, note=70, velocity=49, time=3),
    Message('note_on', channel=6, note=70, velocity=0, time=13),
    Message('note_on', channel=6, note=75, velocity=42, time=7),
    Message('note_on', channel=6, note=75, velocity=0, time=13),
    Message('note_on', channel=6, note=77, velocity=45, time=4),
    Message('note_on', channel=6, note=77, velocity=0, time=13),
    Message('note_on', channel=6, note=82, velocity=45, time=5),
    Message('note_on', channel=6, note=82, velocity=0, time=13),
    Message('note_on', channel=6, note=65, velocity=49, time=9),
    Message('note_on', channel=6, note=65, velocity=0, time=13),
    Message('note_on', channel=6, note=67, velocity=49, time=5),
    Message('note_on', channel=6, note=67, velocity=0, time=13),
    Message('note_on', channel=6, note=70, velocity=49, time=6),
    Message('note_on', channel=6, note=70, velocity=0, time=13),
    Message('note_on', channel=6, note=75, velocity=41, time=7),
    Message('note_on', channel=6, note=75, velocity=0, time=13),
    Message('note_on', channel=6, note=77, velocity=45, time=5),
    Message('note_on', channel=6, note=77, velocity=0, time=13),
    Message('note_on', channel=6, note=82, velocity=45, time=5),
    Message('note_on', channel=6, note=82, velocity=0, time=13),
    Message('note_on', channel=6, note=65, velocity=49, time=9),
    Message('note_on', channel=6, note=65, velocity=0, time=13),
    Message('note_on', channel=6, note=67, velocity=45, time=7),
    Message('note_on', channel=6, note=67, velocity=0, time=13),
    Message('note_on', channel=6, note=70, velocity=49, time=7),
    Message('note_on', channel=6, note=70, velocity=0, time=13),
    Message('note_on', channel=6, note=75, velocity=45, time=10),
    Message('note_on', channel=6, note=75, velocity=0, time=13),
    Message('note_on', channel=6, note=77, velocity=43, time=7),
    Message('note_on', channel=6, note=77, velocity=0, time=13),
    Message('note_on', channel=6, note=82, velocity=45, time=6),
    Message('note_on', channel=6, note=82, velocity=0, time=13),
    Message('note_on', channel=6, note=65, velocity=45, time=12),
    Message('note_on', channel=6, note=65, velocity=0, time=13),
    Message('note_on', channel=6, note=67, velocity=49, time=6),
    Message('note_on', channel=6, note=67, velocity=0, time=13),
    Message('note_on', channel=6, note=70, velocity=53, time=6),
    Message('note_on', channel=6, note=70, velocity=0, time=13),
    Message('note_on', channel=6, note=75, velocity=42, time=10),
    Message('note_on', channel=6, note=75, velocity=0, time=13),
    Message('note_on', channel=6, note=77, velocity=45, time=2),
    Message('note_on', channel=6, note=77, velocity=0, time=13),
    Message('note_on', channel=6, note=82, velocity=45, time=6),
    Message('note_on', channel=6, note=82, velocity=0, time=13),
    Message('note_on', channel=6, note=65, velocity=49, time=10),
    Message('note_on', channel=6, note=65, velocity=0, time=13),
    Message('note_on', channel=6, note=68, velocity=49, time=5),
    Message('note_on', channel=6, note=68, velocity=0, time=13),
    Message('note_on', channel=6, note=72, velocity=49, time=6),
    Message('note_on', channel=6, note=72, velocity=0, time=13),
    Message('note_on', channel=6, note=73, velocity=45, time=10),
    Message('note_on', channel=6, note=73, velocity=0, time=13),
    Message('note_on', channel=6, note=77, velocity=43, time=7),
    Message('note_on', channel=6, note=77, velocity=0, time=13),
    Message('note_on', channel=6, note=80, velocity=45, time=4),
    Message('note_on', channel=6, note=80, velocity=0, time=13),
    Message('note_on', channel=6, note=65, velocity=49, time=10),
    Message('note_on', channel=6, note=65, velocity=0, time=13),
    Message('note_on', channel=6, note=72, velocity=45, time=5),
    Message('note_on', channel=6, note=72, velocity=0, time=13),
    Message('note_on', channel=6, note=77, velocity=49, time=8),
    Message('note_on', channel=6, note=77, velocity=0, time=13),
    Message('note_on', channel=6, note=89, velocity=43, time=9),
    Message('note_on', channel=6, note=89, velocity=0, time=13),
    Message('note_on', channel=6, note=84, velocity=49, time=4),
    Message('note_on', channel=6, note=84, velocity=0, time=13),
    Message('note_on', channel=6, note=77, velocity=49, time=6),
    Message('note_on', channel=6, note=77, velocity=0, time=13),
    Message('note_on', channel=6, note=89, velocity=74, time=1698),
    Message('note_on', channel=6, note=89, velocity=0, time=101),
    Message('control_change', channel=6, control=18, value=65, time=10708),
    Message('note_on', channel=6, note=60, velocity=56, time=848),
    Message('note_on', channel=6, note=48, velocity=53, time=1),
    Message('note_on', channel=6, note=48, velocity=0, time=46),
    Message('note_on', channel=6, note=60, velocity=0, time=3),
    Message('note_on', channel=6, note=62, velocity=56, time=910),
    Message('note_on', channel=6, note=50, velocity=53, time=1),
    Message('note_on', channel=6, note=50, velocity=0, time=46),
    Message('note_on', channel=6, note=62, velocity=0, time=3),
    Message('note_on', channel=6, note=52, velocity=59, time=1233),
    Message('note_on', channel=6, note=53, velocity=16, time=4),
    Message('note_on', channel=6, note=52, velocity=0, time=18),
    Message('note_on', channel=6, note=55, velocity=20, time=3),
    Message('note_on', channel=6, note=53, velocity=0, time=9),
    Message('note_on', channel=6, note=57, velocity=43, time=4),
    Message('note_on', channel=6, note=55, velocity=0, time=7),
    Message('note_on', channel=6, note=59, velocity=37, time=4),
    Message('note_on', channel=6, note=57, velocity=0, time=5),
    Message('note_on', channel=6, note=60, velocity=46, time=8),
    Message('note_on', channel=6, note=59, velocity=0, time=4),
    Message('note_on', channel=6, note=62, velocity=48, time=4),
    Message('note_on', channel=6, note=60, velocity=0, time=4),
    Message('note_on', channel=6, note=64, velocity=52, time=5),
    Message('note_on', channel=6, note=62, velocity=0, time=4),
    Message('note_on', channel=6, note=65, velocity=55, time=4),
    Message('note_on', channel=6, note=64, velocity=0, time=3),
    Message('note_on', channel=6, note=67, velocity=43, time=5),
    Message('note_on', channel=6, note=65, velocity=0, time=4),
    Message('note_on', channel=6, note=69, velocity=48, time=4),
    Message('note_on', channel=6, note=67, velocity=0, time=4),
    Message('note_on', channel=6, note=71, velocity=40, time=5),
    Message('note_on', channel=6, note=69, velocity=0, time=5),
    Message('note_on', channel=6, note=72, velocity=40, time=7),
    Message('note_on', channel=6, note=71, velocity=0, time=4),
    Message('note_on', channel=6, note=74, velocity=46, time=7),
    Message('note_on', channel=6, note=72, velocity=0, time=4),
    Message('note_on', channel=6, note=76, velocity=68, time=8),
    Message('note_on', channel=6, note=74, velocity=0, time=4),
    Message('note_on', channel=6, note=76, velocity=0, time=20),
    Message('note_on', channel=6, note=85, velocity=59, time=1423),
    Message('note_on', channel=6, note=85, velocity=0, time=44),
    Message('note_on', channel=6, note=81, velocity=53, time=1),
    Message('note_on', channel=6, note=81, velocity=0, time=40),
    Message('note_on', channel=6, note=77, velocity=40, time=2),
    Message('note_on', channel=6, note=77, velocity=0, time=37),
    Message('note_on', channel=6, note=85, velocity=64, time=4),
    Message('note_on', channel=6, note=85, velocity=0, time=38),
    Message('note_on', channel=6, note=81, velocity=50, time=2),
    Message('note_on', channel=6, note=81, velocity=0, time=40),
    Message('note_on', channel=6, note=77, velocity=56, time=0),
    Message('note_on', channel=6, note=77, velocity=0, time=35),
    Message('note_on', channel=6, note=85, velocity=67, time=3),
    Message('note_on', channel=6, note=85, velocity=0, time=41),
    Message('note_on', channel=6, note=81, velocity=59, time=0),
    Message('note_on', channel=6, note=81, velocity=0, time=36),
    Message('note_on', channel=6, note=77, velocity=69, time=1),
    Message('note_on', channel=6, note=77, velocity=0, time=38),
    Message('note_on', channel=6, note=85, velocity=71, time=1),
    Message('note_on', channel=6, note=81, velocity=64, time=42),
    Message('note_on', channel=6, note=85, velocity=0, time=2),
    Message('note_on', channel=6, note=81, velocity=0, time=35),
    Message('note_on', channel=6, note=77, velocity=64, time=1),
    Message('note_on', channel=6, note=77, velocity=0, time=41),
    Message('note_on', channel=6, note=85, velocity=75, time=1),
    Message('note_on', channel=6, note=85, velocity=0, time=38),
    Message('note_on', channel=6, note=81, velocity=62, time=0),
    Message('note_on', channel=6, note=81, velocity=0, time=36),
    Message('note_on', channel=6, note=77, velocity=67, time=1),
    Message('note_on', channel=6, note=77, velocity=0, time=38),
    Message('note_on', channel=6, note=85, velocity=68, time=3),
    Message('note_on', channel=6, note=81, velocity=69, time=37),
    Message('note_on', channel=6, note=85, velocity=0, time=3),
    Message('note_on', channel=6, note=81, velocity=0, time=37),
    Message('note_on', channel=6, note=77, velocity=71, time=1),
    Message('note_on', channel=6, note=77, velocity=0, time=37),
    Message('note_on', channel=6, note=85, velocity=73, time=2),
    Message('note_on', channel=6, note=85, velocity=0, time=38),
    Message('note_on', channel=6, note=81, velocity=84, time=0),
    Message('note_on', channel=6, note=81, velocity=0, time=38),
    Message('note_on', channel=6, note=77, velocity=75, time=1),
    Message('note_on', channel=6, note=81, velocity=69, time=40),
    Message('note_on', channel=6, note=77, velocity=0, time=2),
    Message('note_on', channel=6, note=77, velocity=69, time=39),
    Message('note_on', channel=6, note=81, velocity=0, time=2),
    Message('note_on', channel=6, note=73, velocity=75, time=37),
    Message('note_on', channel=6, note=77, velocity=0, time=1),
    Message('note_on', channel=6, note=81, velocity=75, time=44),
    Message('note_on', channel=6, note=73, velocity=0, time=1),
    Message('note_on', channel=6, note=77, velocity=69, time=39),
    Message('note_on', channel=6, note=81, velocity=0, time=2),
    Message('note_on', channel=6, note=73, velocity=65, time=33),
    Message('note_on', channel=6, note=77, velocity=0, time=2),
    Message('note_on', channel=6, note=77, velocity=65, time=39),
    Message('note_on', channel=6, note=73, velocity=0, time=6),
    Message('note_on', channel=6, note=73, velocity=69, time=33),
    Message('note_on', channel=6, note=77, velocity=0, time=1),
    Message('note_on', channel=6, note=69, velocity=65, time=38),
    Message('note_on', channel=6, note=73, velocity=0, time=2),
    Message('note_on', channel=6, note=64, velocity=43, time=50),
    Message('note_on', channel=6, note=69, velocity=0, time=3),
    Message('note_on', channel=6, note=64, velocity=0, time=50),
    Message('note_on', channel=6, note=69, velocity=80, time=3),
    Message('note_on', channel=6, note=71, velocity=96, time=43),
    Message('note_on', channel=6, note=69, velocity=0, time=12),
    Message('note_on', channel=6, note=76, velocity=73, time=18),
    Message('note_on', channel=6, note=71, velocity=0, time=17),
    Message('note_on', channel=6, note=76, velocity=0, time=14),
    Message('note_on', channel=6, note=83, velocity=81, time=4),
    Message('note_on', channel=6, note=84, velocity=66, time=31),
    Message('note_on', channel=6, note=83, velocity=0, time=28),
    Message('note_on', channel=6, note=88, velocity=72, time=6),
    Message('note_on', channel=6, note=84, velocity=0, time=16),
    Message('note_on', channel=6, note=88, velocity=0, time=45),
    Message('control_change', channel=6, control=18, value=63, time=8219),
    Message('control_change', channel=6, control=18, value=64, time=4920),
    Message('note_on', channel=6, note=75, velocity=114, time=6),
    Message('note_on', channel=6, note=75, velocity=0, time=11),
    Message('note_on', channel=6, note=76, velocity=52, time=55),
    Message('note_on', channel=6, note=76, velocity=0, time=11),
    Message('note_on', channel=6, note=78, velocity=99, time=46),
    Message('note_on', channel=6, note=78, velocity=0, time=16),
    Message('note_on', channel=6, note=80, velocity=85, time=37),
    Message('note_on', channel=6, note=80, velocity=0, time=12),
    Message('note_on', channel=6, note=75, velocity=114, time=49),
    Message('note_on', channel=6, note=75, velocity=0, time=15),
    Message('note_on', channel=6, note=76, velocity=103, time=44),
    Message('note_on', channel=6, note=76, velocity=0, time=19),
    Message('note_on', channel=6, note=78, velocity=114, time=52),
    Message('note_on', channel=6, note=78, velocity=0, time=16),
    Message('note_on', channel=6, note=78, velocity=114, time=104),
    Message('note_on', channel=6, note=78, velocity=0, time=10),
    Message('note_on', channel=6, note=75, velocity=114, time=104),
    Message('note_on', channel=6, note=75, velocity=0, time=15),
    Message('note_on', channel=6, note=76, velocity=105, time=46),
    Message('note_on', channel=6, note=76, velocity=0, time=10),
    Message('note_on', channel=6, note=76, velocity=6, time=6),
    Message('note_on', channel=6, note=76, velocity=0, time=11),
    Message('note_on', channel=6, note=78, velocity=109, time=35),
    Message('note_on', channel=6, note=78, velocity=0, time=16),
    Message('note_on', channel=6, note=80, velocity=96, time=43),
    Message('note_on', channel=6, note=80, velocity=0, time=11),
    Message('note_on', channel=6, note=75, velocity=114, time=50),
    Message('note_on', channel=6, note=75, velocity=0, time=16),
    Message('note_on', channel=6, note=76, velocity=103, time=41),
    Message('note_on', channel=6, note=76, velocity=0, time=11),
    Message('note_on', channel=6, note=78, velocity=114, time=57),
    Message('note_on', channel=6, note=78, velocity=0, time=13),
    Message('note_on', channel=6, note=78, velocity=114, time=104),
    Message('note_on', channel=6, note=78, velocity=0, time=11),
    Message('note_on', channel=6, note=75, velocity=114, time=109),
    Message('note_on', channel=6, note=75, velocity=0, time=13),
    Message('note_on', channel=6, note=76, velocity=114, time=45),
    Message('note_on', channel=6, note=76, velocity=0, time=22),
    Message('note_on', channel=6, note=42, velocity=82, time=48),
    Message('note_on', channel=6, note=42, velocity=0, time=8),
    Message('note_on', channel=6, note=44, velocity=94, time=17),
    Message('note_on', channel=6, note=44, velocity=0, time=8),
    Message('note_on', channel=6, note=46, velocity=94, time=11),
    Message('note_on', channel=6, note=46, velocity=0, time=8),
    Message('note_on', channel=6, note=47, velocity=94, time=7),
    Message('note_on', channel=6, note=47, velocity=0, time=8),
    Message('note_on', channel=6, note=49, velocity=94, time=11),
    Message('note_on', channel=6, note=49, velocity=0, time=8),
    Message('note_on', channel=6, note=51, velocity=94, time=12),
    Message('note_on', channel=6, note=51, velocity=0, time=8),
    Message('note_on', channel=6, note=52, velocity=94, time=15),
    Message('note_on', channel=6, note=52, velocity=0, time=8),
    Message('note_on', channel=6, note=54, velocity=94, time=14),
    Message('note_on', channel=6, note=54, velocity=0, time=8),
    Message('note_on', channel=6, note=70, velocity=94, time=819),
    Message('note_on', channel=6, note=70, velocity=0, time=12),
    Message('note_on', channel=6, note=77, velocity=65, time=19),
    Message('note_on', channel=6, note=77, velocity=0, time=20),
    Message('note_on', channel=6, note=82, velocity=94, time=40),
    Message('note_on', channel=6, note=82, velocity=0, time=11),
    Message('note_on', channel=6, note=77, velocity=90, time=48),
    Message('note_on', channel=6, note=77, velocity=0, time=11),
    Message('note_on', channel=6, note=70, velocity=94, time=49),
    Message('note_on', channel=6, note=70, velocity=0, time=13),
    Message('note_on', channel=6, note=77, velocity=94, time=47),
    Message('note_on', channel=6, note=77, velocity=0, time=17),
    Message('note_on', channel=6, note=82, velocity=94, time=43),
    Message('note_on', channel=6, note=82, velocity=0, time=11),
    Message('note_on', channel=6, note=77, velocity=91, time=50),
    Message('note_on', channel=6, note=77, velocity=0, time=10),
    Message('note_on', channel=6, note=72, velocity=94, time=49),
    Message('note_on', channel=6, note=72, velocity=0, time=19),
    Message('note_on', channel=6, note=77, velocity=94, time=41),
    Message('note_on', channel=6, note=77, velocity=0, time=21),
    Message('note_on', channel=6, note=82, velocity=94, time=39),
    Message('note_on', channel=6, note=82, velocity=0, time=10),
    Message('note_on', channel=6, note=77, velocity=94, time=50),
    Message('note_on', channel=6, note=77, velocity=0, time=21),
    Message('note_on', channel=6, note=72, velocity=94, time=40),
    Message('note_on', channel=6, note=72, velocity=0, time=25),
    Message('note_on', channel=6, note=77, velocity=84, time=35),
    Message('note_on', channel=6, note=77, velocity=0, time=18),
    Message('note_on', channel=6, note=82, velocity=94, time=42),
    Message('note_on', channel=6, note=82, velocity=0, time=10),
    Message('note_on', channel=6, note=77, velocity=89, time=50),
    Message('note_on', channel=6, note=77, velocity=0, time=10),
    Message('note_on', channel=6, note=75, velocity=123, time=50),
    Message('note_on', channel=6, note=75, velocity=0, time=17),
    Message('note_on', channel=6, note=80, velocity=123, time=42),
    Message('note_on', channel=6, note=80, velocity=0, time=21),
    Message('note_on', channel=6, note=87, velocity=123, time=40),
    Message('note_on', channel=6, note=87, velocity=0, time=10),
    Message('note_on', channel=6, note=80, velocity=116, time=50),
    Message('note_on', channel=6, note=80, velocity=0, time=15),
    Message('note_on', channel=6, note=75, velocity=123, time=45),
    Message('note_on', channel=6, note=75, velocity=0, time=15),
    Message('note_on', channel=6, note=80, velocity=123, time=45),
    Message('note_on', channel=6, note=80, velocity=0, time=16),
    Message('note_on', channel=6, note=87, velocity=123, time=44),
    Message('note_on', channel=6, note=87, velocity=0, time=10),
    Message('note_on', channel=6, note=50, velocity=92, time=109),
    Message('note_on', channel=6, note=50, velocity=0, time=8),
    Message('note_on', channel=6, note=52, velocity=92, time=0),
    Message('note_on', channel=6, note=52, velocity=0, time=3),
    Message('note_on', channel=6, note=54, velocity=92, time=2),
    Message('note_on', channel=6, note=54, velocity=0, time=3),
    Message('note_on', channel=6, note=55, velocity=92, time=4),
    Message('note_on', channel=6, note=55, velocity=0, time=3),
    Message('note_on', channel=6, note=57, velocity=92, time=3),
    Message('note_on', channel=6, note=57, velocity=0, time=2),
    Message('note_on', channel=6, note=59, velocity=92, time=3),
    Message('note_on', channel=6, note=59, velocity=0, time=3),
    Message('note_on', channel=6, note=61, velocity=92, time=2),
    Message('note_on', channel=6, note=61, velocity=0, time=3),
    Message('note_on', channel=6, note=62, velocity=92, time=2),
    Message('note_on', channel=6, note=62, velocity=0, time=3),
    Message('note_on', channel=6, note=64, velocity=92, time=2),
    Message('note_on', channel=6, note=64, velocity=0, time=3),
    Message('note_on', channel=6, note=66, velocity=92, time=2),
    Message('note_on', channel=6, note=66, velocity=0, time=3),
    Message('note_on', channel=6, note=67, velocity=92, time=2),
    Message('note_on', channel=6, note=67, velocity=0, time=3),
    Message('note_on', channel=6, note=69, velocity=92, time=2),
    Message('note_on', channel=6, note=69, velocity=0, time=5),
    Message('note_on', channel=6, note=67, velocity=86, time=8),
    Message('note_on', channel=6, note=67, velocity=0, time=3),
    Message('note_on', channel=6, note=66, velocity=76, time=6),
    Message('note_on', channel=6, note=66, velocity=0, time=3),
    Message('note_on', channel=6, note=64, velocity=92, time=4),
    Message('note_on', channel=6, note=64, velocity=0, time=3),
    Message('note_on', channel=6, note=62, velocity=92, time=7),
    Message('note_on', channel=6, note=62, velocity=0, time=3),
    Message('note_on', channel=6, note=50, velocity=92, time=17),
    Message('note_on', channel=6, note=50, velocity=0, time=8),
    Message('note_on', channel=6, note=52, velocity=92, time=0),
    Message('note_on', channel=6, note=52, velocity=0, time=3),
    Message('note_on', channel=6, note=54, velocity=92, time=2),
    Message('note_on', channel=6, note=54, velocity=0, time=3),
    Message('note_on', channel=6, note=55, velocity=92, time=4),
    Message('note_on', channel=6, note=55, velocity=0, time=3),
    Message('note_on', channel=6, note=57, velocity=92, time=3),
    Message('note_on', channel=6, note=57, velocity=0, time=2),
    Message('note_on', channel=6, note=59, velocity=92, time=3),
    Message('note_on', channel=6, note=59, velocity=0, time=3),
    Message('note_on', channel=6, note=61, velocity=92, time=2),
    Message('note_on', channel=6, note=61, velocity=0, time=3),
    Message('note_on', channel=6, note=62, velocity=92, time=2),
    Message('note_on', channel=6, note=62, velocity=0, time=3),
    Message('note_on', channel=6, note=64, velocity=92, time=2),
    Message('note_on', channel=6, note=64, velocity=0, time=3),
    Message('note_on', channel=6, note=66, velocity=92, time=2),
    Message('note_on', channel=6, note=66, velocity=0, time=3),
    Message('note_on', channel=6, note=67, velocity=92, time=2),
    Message('note_on', channel=6, note=67, velocity=0, time=3),
    Message('note_on', channel=6, note=69, velocity=92, time=2),
    Message('note_on', channel=6, note=69, velocity=0, time=5),
    Message('note_on', channel=6, note=67, velocity=86, time=8),
    Message('note_on', channel=6, note=67, velocity=0, time=3),
    Message('note_on', channel=6, note=66, velocity=77, time=6),
    Message('note_on', channel=6, note=66, velocity=0, time=3),
    Message('note_on', channel=6, note=64, velocity=92, time=4),
    Message('note_on', channel=6, note=64, velocity=0, time=3),
    Message('note_on', channel=6, note=57, velocity=92, time=19),
    Message('note_on', channel=6, note=57, velocity=0, time=6),
    Message('note_on', channel=6, note=59, velocity=92, time=0),
    Message('note_on', channel=6, note=59, velocity=0, time=6),
    Message('note_on', channel=6, note=61, velocity=92, time=2),
    Message('note_on', channel=6, note=61, velocity=0, time=6),
    Message('note_on', channel=6, note=62, velocity=92, time=3),
    Message('note_on', channel=6, note=62, velocity=0, time=6),
    Message('note_on', channel=6, note=64, velocity=92, time=6),
    Message('note_on', channel=6, note=64, velocity=0, time=6),
    Message('note_on', channel=6, note=66, velocity=92, time=9),
    Message('note_on', channel=6, note=66, velocity=0, time=6),
    Message('note_on', channel=6, note=67, velocity=92, time=7),
    Message('note_on', channel=6, note=67, velocity=0, time=6),
    Message('note_on', channel=6, note=69, velocity=92, time=5),
    Message('note_on', channel=6, note=69, velocity=0, time=6),
    Message('note_on', channel=6, note=71, velocity=92, time=6),
    Message('note_on', channel=6, note=71, velocity=0, time=6),
    Message('note_on', channel=6, note=73, velocity=92, time=3),
    Message('note_on', channel=6, note=73, velocity=0, time=6),
    Message('note_on', channel=6, note=74, velocity=92, time=4),
    Message('note_on', channel=6, note=74, velocity=0, time=6),
    Message('note_on', channel=6, note=76, velocity=92, time=2),
    Message('note_on', channel=6, note=76, velocity=0, time=6),
    Message('note_on', channel=6, note=81, velocity=92, time=2),
    Message('note_on', channel=6, note=81, velocity=0, time=6),
    MetaMessage('end_of_track', time=0)]),
  MidiTrack([
    MetaMessage('midi_port', port=1, time=0),
    MetaMessage('track_name', name='Piano', time=0),
    Message('program_change', channel=7, program=1, time=0),
    Message('control_change', channel=7, control=7, value=110, time=0),
    Message('control_change', channel=7, control=10, value=90, time=0),
    Message('control_change', channel=7, control=18, value=63, time=11),
    Message('control_change', channel=7, control=18, value=64, time=5269),
    Message('note_on', channel=7, note=75, velocity=71, time=602),
    Message('note_on', channel=7, note=75, velocity=0, time=25),
    Message('note_on', channel=7, note=70, velocity=66, time=10),
    Message('note_on', channel=7, note=70, velocity=0, time=25),
    Message('note_on', channel=7, note=65, velocity=68, time=14),
    Message('note_on', channel=7, note=65, velocity=0, time=25),
    Message('note_on', channel=7, note=67, velocity=68, time=15),
    Message('note_on', channel=7, note=67, velocity=0, time=25),
    Message('note_on', channel=7, note=72, velocity=75, time=15),
    Message('note_on', channel=7, note=72, velocity=0, time=25),
    Message('note_on', channel=7, note=77, velocity=75, time=14),
    Message('note_on', channel=7, note=77, velocity=0, time=25),
    Message('note_on', channel=7, note=79, velocity=75, time=16),
    Message('note_on', channel=7, note=79, velocity=0, time=25),
    Message('note_on', channel=7, note=75, velocity=71, time=16),
    Message('note_on', channel=7, note=75, velocity=0, time=25),
    Message('note_on', channel=7, note=70, velocity=71, time=14),
    Message('note_on', channel=7, note=70, velocity=0, time=25),
    Message('note_on', channel=7, note=69, velocity=75, time=15),
    Message('note_on', channel=7, note=69, velocity=0, time=25),
    Message('note_on', channel=7, note=70, velocity=66, time=15),
    Message('note_on', channel=7, note=70, velocity=0, time=25),
    Message('note_on', channel=7, note=77, velocity=71, time=15),
    Message('note_on', channel=7, note=77, velocity=0, time=25),
    Message('note_on', channel=7, note=82, velocity=80, time=17),
    Message('note_on', channel=7, note=82, velocity=0, time=25),
    Message('note_on', channel=7, note=77, velocity=77, time=15),
    Message('note_on', channel=7, note=77, velocity=0, time=25),
    Message('note_on', channel=7, note=72, velocity=80, time=15),
    Message('note_on', channel=7, note=72, velocity=0, time=25),
    Message('note_on', channel=7, note=77, velocity=86, time=15),
    Message('note_on', channel=7, note=77, velocity=0, time=25),
    Message('note_on', channel=7, note=82, velocity=68, time=14),
    Message('note_on', channel=7, note=82, velocity=0, time=25),
    Message('note_on', channel=7, note=87, velocity=71, time=14),
    Message('note_on', channel=7, note=87, velocity=0, time=25),
    Message('note_on', channel=7, note=84, velocity=80, time=17),
    Message('note_on', channel=7, note=84, velocity=0, time=25),
    Message('note_on', channel=7, note=77, velocity=75, time=14),
    Message('note_on', channel=7, note=77, velocity=0, time=25),
    Message('note_on', channel=7, note=72, velocity=77, time=15),
    Message('note_on', channel=7, note=72, velocity=0, time=25),
    Message('note_on', channel=7, note=77, velocity=75, time=15),
    Message('note_on', channel=7, note=77, velocity=0, time=25),
    Message('note_on', channel=7, note=84, velocity=77, time=15),
    Message('note_on', channel=7, note=84, velocity=0, time=25),
    Message('note_on', channel=7, note=89, velocity=71, time=15),
    Message('note_on', channel=7, note=89, velocity=0, time=25),
    Message('note_on', channel=7, note=87, velocity=86, time=16),
    Message('note_on', channel=7, note=87, velocity=0, time=25),
    Message('note_on', channel=7, note=82, velocity=77, time=14),
    Message('note_on', channel=7, note=82, velocity=0, time=25),
    Message('note_on', channel=7, note=77, velocity=77, time=14),
    Message('note_on', channel=7, note=77, velocity=0, time=25),
    Message('note_on', channel=7, note=72, velocity=77, time=16),
    Message('note_on', channel=7, note=72, velocity=0, time=25),
    Message('note_on', channel=7, note=77, velocity=77, time=14),
    Message('note_on', channel=7, note=77, velocity=0, time=25),
    Message('note_on', channel=7, note=82, velocity=68, time=15),
    Message('note_on', channel=7, note=82, velocity=0, time=25),
    Message('note_on', channel=7, note=87, velocity=77, time=15),
    Message('note_on', channel=7, note=87, velocity=0, time=25),
    Message('note_on', channel=7, note=82, velocity=60, time=15),
    Message('note_on', channel=7, note=82, velocity=0, time=25),
    Message('note_on', channel=7, note=77, velocity=75, time=16),
    Message('note_on', channel=7, note=77, velocity=0, time=25),
    Message('note_on', channel=7, note=75, velocity=86, time=16),
    Message('note_on', channel=7, note=75, velocity=0, time=25),
    Message('note_on', channel=7, note=77, velocity=80, time=14),
    Message('note_on', channel=7, note=77, velocity=0, time=25),
    Message('note_on', channel=7, note=82, velocity=68, time=15),
    Message('note_on', channel=7, note=82, velocity=0, time=25),
    Message('note_on', channel=7, note=89, velocity=86, time=16),
    Message('note_on', channel=7, note=89, velocity=0, time=25),
    Message('note_on', channel=7, note=84, velocity=71, time=15),
    Message('note_on', channel=7, note=84, velocity=0, time=25),
    Message('note_on', channel=7, note=77, velocity=71, time=14),
    Message('note_on', channel=7, note=77, velocity=0, time=25),
    Message('note_on', channel=7, note=72, velocity=86, time=15),
    Message('note_on', channel=7, note=72, velocity=0, time=25),
    Message('note_on', channel=7, note=77, velocity=77, time=14),
    Message('note_on', channel=7, note=77, velocity=0, time=25),
    Message('note_on', channel=7, note=84, velocity=77, time=14),
    Message('note_on', channel=7, note=84, velocity=0, time=25),
    Message('note_on', channel=7, note=89, velocity=86, time=16),
    Message('note_on', channel=7, note=89, velocity=0, time=25),
    Message('note_on', channel=7, note=82, velocity=75, time=14),
    Message('note_on', channel=7, note=82, velocity=0, time=25),
    Message('note_on', channel=7, note=75, velocity=86, time=15),
    Message('note_on', channel=7, note=75, velocity=0, time=25),
    Message('note_on', channel=7, note=84, velocity=80, time=16),
    Message('note_on', channel=7, note=84, velocity=0, time=25),
    Message('note_on', channel=7, note=77, velocity=77, time=14),
    Message('note_on', channel=7, note=77, velocity=0, time=25),
    Message('note_on', channel=7, note=72, velocity=86, time=15),
    Message('note_on', channel=7, note=72, velocity=0, time=25),
    Message('control_change', channel=7, control=18, value=0, time=1340),
    MetaMessage('end_of_track', time=0)]),
  MidiTrack([
    MetaMessage('midi_port', port=1, time=0),
    MetaMessage('track_name', name='Strings', time=0),
    Message('program_change', channel=8, program=48, time=0),
    Message('control_change', channel=8, control=7, value=125, time=0),
    Message('control_change', channel=8, control=10, value=45, time=0),
    Message('control_change', channel=8, control=18, value=64, time=13),
    Message('note_on', channel=8, note=82, velocity=59, time=467),
    Message('note_on', channel=8, note=53, velocity=108, time=5),
    Message('note_on', channel=8, note=62, velocity=67, time=0),
    Message('note_on', channel=8, note=94, velocity=97, time=14),
    Message('note_on', channel=8, note=53, velocity=0, time=116),
    Message('note_on', channel=8, note=62, velocity=0, time=335),
    Message('note_on', channel=8, note=94, velocity=0, time=814),
    Message('note_on', channel=8, note=82, velocity=0, time=1),
    Message('note_on', channel=8, note=81, velocity=60, time=58),
    Message('note_on', channel=8, note=82, velocity=63, time=20),
    Message('note_on', channel=8, note=81, velocity=0, time=3),
    Message('note_on', channel=8, note=82, velocity=0, time=23),
    Message('note_on', channel=8, note=84, velocity=68, time=1),
    Message('note_on', channel=8, note=85, velocity=73, time=21),
    Message('note_on', channel=8, note=84, velocity=0, time=1),
    Message('note_on', channel=8, note=87, velocity=77, time=23),
    Message('note_on', channel=8, note=85, velocity=0, time=2),
    Message('note_on', channel=8, note=89, velocity=81, time=21),
    Message('note_on', channel=8, note=87, velocity=0, time=3),
    Message('note_on', channel=8, note=89, velocity=0, time=23),
    Message('note_on', channel=8, note=91, velocity=86, time=1),
    Message('note_on', channel=8, note=93, velocity=91, time=23),
    Message('note_on', channel=8, note=91, velocity=0, time=3),
    Message('note_on', channel=8, note=94, velocity=99, time=22),
    Message('note_on', channel=8, note=93, velocity=0, time=7),
    Message('note_on', channel=8, note=94, velocity=0, time=1529),
    Message('note_on', channel=8, note=60, velocity=114, time=57),
    Message('note_on', channel=8, note=60, velocity=0, time=12),
    Message('note_on', channel=8, note=59, velocity=114, time=4),
    Message('note_on', channel=8, note=59, velocity=0, time=18),
    Message('note_on', channel=8, note=60, velocity=114, time=2),
    Message('note_on', channel=8, note=60, velocity=0, time=16),
    Message('note_on', channel=8, note=62, velocity=114, time=2),
    Message('note_on', channel=8, note=62, velocity=0, time=20),
    Message('note_on', channel=8, note=63, velocity=114, time=0),
    Message('note_on', channel=8, note=63, velocity=0, time=13),
    Message('note_on', channel=8, note=64, velocity=114, time=4),
    Message('note_on', channel=8, note=64, velocity=0, time=18),
    Message('note_on', channel=8, note=65, velocity=114, time=3),
    Message('note_on', channel=8, note=65, velocity=0, time=15),
    Message('note_on', channel=8, note=64, velocity=114, time=4),
    Message('note_on', channel=8, note=64, velocity=0, time=18),
    Message('note_on', channel=8, note=65, velocity=114, time=2),
    Message('note_on', channel=8, note=65, velocity=0, time=18),
    Message('note_on', channel=8, note=67, velocity=114, time=3),
    Message('note_on', channel=8, note=67, velocity=0, time=15),
    Message('note_on', channel=8, note=69, velocity=114, time=4),
    Message('note_on', channel=8, note=69, velocity=0, time=15),
    Message('note_on', channel=8, note=70, velocity=114, time=4),
    Message('note_on', channel=8, note=70, velocity=0, time=15),
    Message('note_on', channel=8, note=72, velocity=114, time=8),
    Message('note_on', channel=8, note=72, velocity=0, time=15),
    Message('note_on', channel=8, note=74, velocity=93, time=6),
    Message('note_on', channel=8, note=75, velocity=93, time=16),
    Message('note_on', channel=8, note=74, velocity=0, time=6),
    Message('note_on', channel=8, note=77, velocity=93, time=13),
    Message('note_on', channel=8, note=75, velocity=0, time=2),
    Message('note_on', channel=8, note=79, velocity=93, time=18),
    Message('note_on', channel=8, note=77, velocity=0, time=5),
    Message('note_on', channel=8, note=81, velocity=93, time=13),
    Message('note_on', channel=8, note=79, velocity=0, time=5),
    Message('note_on', channel=8, note=82, velocity=93, time=22),
    Message('note_on', channel=8, note=81, velocity=0, time=3),
    Message('note_on', channel=8, note=82, velocity=0, time=16),
    Message('note_on', channel=8, note=82, velocity=93, time=23),
    Message('note_on', channel=8, note=81, velocity=93, time=18),
    Message('note_on', channel=8, note=82, velocity=0, time=8),
    Message('note_on', channel=8, note=82, velocity=93, time=12),
    Message('note_on', channel=8, note=81, velocity=0, time=4),
    Message('note_on', channel=8, note=81, velocity=93, time=13),
    Message('note_on', channel=8, note=82, velocity=0, time=4),
    Message('note_on', channel=8, note=82, velocity=93, time=14),
    Message('note_on', channel=8, note=81, velocity=0, time=7),
    Message('note_on', channel=8, note=82, velocity=0, time=14),
    Message('note_on', channel=8, note=82, velocity=93, time=20),
    Message('note_on', channel=8, note=81, velocity=93, time=16),
    Message('note_on', channel=8, note=82, velocity=0, time=6),
    Message('note_on', channel=8, note=82, velocity=93, time=12),
    Message('note_on', channel=8, note=81, velocity=0, time=7),
    Message('note_on', channel=8, note=81, velocity=93, time=11),
    Message('note_on', channel=8, note=82, velocity=0, time=4),
    Message('note_on', channel=8, note=82, velocity=93, time=17),
    Message('note_on', channel=8, note=81, velocity=0, time=3),
    Message('note_on', channel=8, note=82, velocity=0, time=18),
    Message('note_on', channel=8, note=82, velocity=93, time=25),
    Message('note_on', channel=8, note=81, velocity=93, time=19),
    Message('note_on', channel=8, note=82, velocity=0, time=6),
    Message('note_on', channel=8, note=82, velocity=93, time=15),
    Message('note_on', channel=8, note=81, velocity=0, time=4),
    Message('note_on', channel=8, note=81, velocity=93, time=15),
    Message('note_on', channel=8, note=82, velocity=0, time=4),
    Message('note_on', channel=8, note=82, velocity=93, time=16),
    Message('note_on', channel=8, note=81, velocity=0, time=5),
    Message('note_on', channel=8, note=82, velocity=0, time=14),
    Message('note_on', channel=8, note=82, velocity=93, time=22),
    Message('note_on', channel=8, note=81, velocity=93, time=18),
    Message('note_on', channel=8, note=82, velocity=0, time=7),
    Message('note_on', channel=8, note=82, velocity=93, time=15),
    Message('note_on', channel=8, note=81, velocity=0, time=3),
    Message('note_on', channel=8, note=81, velocity=93, time=14),
    Message('note_on', channel=8, note=82, velocity=0, time=6),
    Message('note_on', channel=8, note=82, velocity=93, time=17),
    Message('note_on', channel=8, note=81, velocity=0, time=2),
    Message('note_on', channel=8, note=82, velocity=0, time=19),
    Message('note_on', channel=8, note=82, velocity=93, time=24),
    Message('note_on', channel=8, note=81, velocity=93, time=13),
    Message('note_on', channel=8, note=82, velocity=0, time=8),
    Message('note_on', channel=8, note=82, velocity=93, time=15),
    Message('note_on', channel=8, note=81, velocity=0, time=4),
    Message('note_on', channel=8, note=81, velocity=93, time=12),
    Message('note_on', channel=8, note=82, velocity=0, time=6),
    Message('note_on', channel=8, note=82, velocity=93, time=15),
    Message('note_on', channel=8, note=81, velocity=0, time=6),
    Message('note_on', channel=8, note=82, velocity=0, time=14),
    Message('note_on', channel=8, note=82, velocity=93, time=22),
    Message('note_on', channel=8, note=81, velocity=93, time=17),
    Message('note_on', channel=8, note=82, velocity=0, time=7),
    Message('note_on', channel=8, note=82, velocity=93, time=15),
    Message('note_on', channel=8, note=81, velocity=0, time=4),
    Message('note_on', channel=8, note=81, velocity=93, time=14),
    Message('note_on', channel=8, note=82, velocity=0, time=6),
    Message('note_on', channel=8, note=82, velocity=93, time=15),
    Message('note_on', channel=8, note=81, velocity=0, time=4),
    Message('note_on', channel=8, note=82, velocity=0, time=15),
    Message('note_on', channel=8, note=82, velocity=93, time=24),
    Message('note_on', channel=8, note=81, velocity=93, time=17),
    Message('note_on', channel=8, note=82, velocity=0, time=7),
    Message('note_on', channel=8, note=82, velocity=93, time=16),
    Message('note_on', channel=8, note=81, velocity=0, time=4),
    Message('note_on', channel=8, note=81, velocity=93, time=15),
    Message('note_on', channel=8, note=82, velocity=0, time=4),
    Message('note_on', channel=8, note=81, velocity=0, time=20),
    Message('note_on', channel=8, note=82, velocity=93, time=0),
    Message('note_on', channel=8, note=82, velocity=0, time=19),
    Message('note_on', channel=8, note=82, velocity=93, time=25),
    Message('note_on', channel=8, note=81, velocity=93, time=17),
    Message('note_on', channel=8, note=82, velocity=0, time=6),
    Message('note_on', channel=8, note=82, velocity=93, time=15),
    Message('note_on', channel=8, note=81, velocity=0, time=5),
    Message('note_on', channel=8, note=81, velocity=93, time=14),
    Message('note_on', channel=8, note=82, velocity=0, time=4),
    Message('note_on', channel=8, note=82, velocity=93, time=15),
    Message('note_on', channel=8, note=81, velocity=0, time=6),
    Message('note_on', channel=8, note=82, velocity=0, time=14),
    Message('note_on', channel=8, note=82, velocity=93, time=21),
    Message('note_on', channel=8, note=81, velocity=93, time=13),
    Message('note_on', channel=8, note=82, velocity=0, time=7),
    Message('note_on', channel=8, note=82, velocity=93, time=15),
    Message('note_on', channel=8, note=81, velocity=0, time=7),
    Message('note_on', channel=8, note=81, velocity=93, time=13),
    Message('note_on', channel=8, note=82, velocity=0, time=4),
    Message('note_on', channel=8, note=81, velocity=0, time=19),
    Message('note_on', channel=8, note=82, velocity=93, time=0),
    Message('note_on', channel=8, note=82, velocity=0, time=18),
    Message('note_on', channel=8, note=82, velocity=93, time=25),
    Message('note_on', channel=8, note=81, velocity=93, time=17),
    Message('note_on', channel=8, note=82, velocity=0, time=6),
    Message('note_on', channel=8, note=82, velocity=93, time=16),
    Message('note_on', channel=8, note=81, velocity=0, time=5),
    Message('note_on', channel=8, note=81, velocity=93, time=15),
    Message('note_on', channel=8, note=82, velocity=0, time=7),
    Message('note_on', channel=8, note=81, velocity=0, time=14),
    Message('note_on', channel=8, note=82, velocity=93, time=0),
    Message('note_on', channel=8, note=82, velocity=0, time=20),
    Message('note_on', channel=8, note=82, velocity=93, time=20),
    Message('note_on', channel=8, note=81, velocity=93, time=12),
    Message('note_on', channel=8, note=82, velocity=0, time=7),
    Message('note_on', channel=8, note=82, velocity=93, time=15),
    Message('note_on', channel=8, note=81, velocity=0, time=7),
    Message('note_on', channel=8, note=81, velocity=93, time=13),
    Message('note_on', channel=8, note=82, velocity=0, time=5),
    Message('note_on', channel=8, note=82, velocity=93, time=17),
    Message('note_on', channel=8, note=81, velocity=0, time=3),
    Message('note_on', channel=8, note=82, velocity=0, time=15),
    Message('note_on', channel=8, note=82, velocity=93, time=23),
    Message('note_on', channel=8, note=81, velocity=93, time=17),
    Message('note_on', channel=8, note=82, velocity=0, time=6),
    Message('note_on', channel=8, note=82, velocity=93, time=17),
    Message('note_on', channel=8, note=81, velocity=0, time=4),
    Message('note_on', channel=8, note=81, velocity=93, time=14),
    Message('note_on', channel=8, note=82, velocity=0, time=8),
    Message('note_on', channel=8, note=81, velocity=0, time=15),
    Message('note_on', channel=8, note=80, velocity=93, time=3),
    Message('note_on', channel=8, note=80, velocity=0, time=16),
    Message('note_on', channel=8, note=79, velocity=93, time=19),
    Message('note_on', channel=8, note=79, velocity=0, time=20),
    Message('note_on', channel=8, note=80, velocity=93, time=16),
    Message('note_on', channel=8, note=80, velocity=0, time=20),
    Message('note_on', channel=8, note=77, velocity=93, time=18),
    Message('note_on', channel=8, note=77, velocity=0, time=175),
    Message('note_on', channel=8, note=77, velocity=97, time=65),
    Message('note_on', channel=8, note=77, velocity=0, time=83),
    Message('note_on', channel=8, note=77, velocity=97, time=11),
    Message('note_on', channel=8, note=77, velocity=0, time=36),
    Message('note_on', channel=8, note=79, velocity=97, time=0),
    Message('note_on', channel=8, note=79, velocity=0, time=165),
    Message('note_on', channel=8, note=79, velocity=97, time=0),
    Message('note_on', channel=8, note=87, velocity=97, time=57),
    Message('note_on', channel=8, note=86, velocity=97, time=65),
    Message('note_on', channel=8, note=87, velocity=0, time=2),
    Message('note_on', channel=8, note=79, velocity=0, time=41),
    Message('note_on', channel=8, note=86, velocity=0, time=8),
    Message('note_on', channel=8, note=84, velocity=97, time=3),
    Message('note_on', channel=8, note=82, velocity=96, time=62),
    Message('note_on', channel=8, note=84, velocity=0, time=3),
    Message('note_on', channel=8, note=82, velocity=0, time=57),
    Message('note_on', channel=8, note=82, velocity=94, time=6),
    Message('note_on', channel=8, note=84, velocity=94, time=37),
    Message('note_on', channel=8, note=82, velocity=0, time=11),
    Message('note_on', channel=8, note=84, velocity=0, time=24),
    Message('note_on', channel=8, note=86, velocity=94, time=1),
    Message('note_on', channel=8, note=86, velocity=0, time=46),
    Message('note_on', channel=8, note=84, velocity=96, time=2),
    Message('note_on', channel=8, note=84, velocity=0, time=85),
    Message('note_on', channel=8, note=79, velocity=97, time=4),
    Message('note_on', channel=8, note=79, velocity=0, time=35),
    Message('note_on', channel=8, note=81, velocity=97, time=1),
    Message('note_on', channel=8, note=81, velocity=0, time=112),
    Message('note_on', channel=8, note=77, velocity=97, time=6),
    Message('note_on', channel=8, note=77, velocity=0, time=70),
    Message('note_on', channel=8, note=77, velocity=97, time=19),
    Message('note_on', channel=8, note=79, velocity=97, time=32),
    Message('note_on', channel=8, note=77, velocity=0, time=9),
    Message('note_on', channel=8, note=79, velocity=0, time=159),
    Message('note_on', channel=8, note=79, velocity=97, time=10),
    Message('note_on', channel=8, note=87, velocity=74, time=25),
    Message('note_on', channel=8, note=79, velocity=0, time=2),
    Message('note_on', channel=8, note=87, velocity=0, time=26),
    Message('note_on', channel=8, note=87, velocity=97, time=4),
    Message('note_on', channel=8, note=87, velocity=0, time=55),
    Message('note_on', channel=8, note=86, velocity=97, time=1),
    Message('note_on', channel=8, note=86, velocity=0, time=55),
    Message('note_on', channel=8, note=84, velocity=97, time=1),
    Message('note_on', channel=8, note=84, velocity=0, time=61),
    Message('note_on', channel=8, note=82, velocity=96, time=2),
    Message('note_on', channel=8, note=89, velocity=86, time=27),
    Message('note_on', channel=8, note=82, velocity=0, time=13),
    Message('note_on', channel=8, note=89, velocity=0, time=7),
    Message('note_on', channel=8, note=89, velocity=97, time=6),
    Message('note_on', channel=8, note=89, velocity=0, time=102),
    Message('note_on', channel=8, note=84, velocity=86, time=1),
    Message('note_on', channel=8, note=84, velocity=0, time=20),
    Message('note_on', channel=8, note=84, velocity=97, time=5),
    Message('note_on', channel=8, note=84, velocity=0, time=329),
    Message('note_on', channel=8, note=77, velocity=97, time=10),
    Message('note_on', channel=8, note=79, velocity=97, time=31),
    Message('note_on', channel=8, note=77, velocity=0, time=5),
    Message('note_on', channel=8, note=79, velocity=0, time=162),
    Message('note_on', channel=8, note=79, velocity=97, time=3),
    Message('note_on', channel=8, note=87, velocity=97, time=57),
    Message('note_on', channel=8, note=79, velocity=0, time=4),
    Message('note_on', channel=8, note=86, velocity=97, time=61),
    Message('note_on', channel=8, note=87, velocity=0, time=2),
    Message('note_on', channel=8, note=86, velocity=0, time=49),
    Message('note_on', channel=8, note=84, velocity=97, time=3),
    Message('note_on', channel=8, note=82, velocity=96, time=62),
    Message('note_on', channel=8, note=84, velocity=0, time=3),
    Message('note_on', channel=8, note=82, velocity=0, time=57),
    Message('note_on', channel=8, note=82, velocity=94, time=6),
    Message('note_on', channel=8, note=84, velocity=94, time=37),
    Message('note_on', channel=8, note=82, velocity=0, time=11),
    Message('note_on', channel=8, note=84, velocity=0, time=24),
    Message('note_on', channel=8, note=86, velocity=94, time=1),
    Message('note_on', channel=8, note=86, velocity=0, time=46),
    Message('note_on', channel=8, note=84, velocity=96, time=2),
    Message('note_on', channel=8, note=84, velocity=0, time=85),
    Message('note_on', channel=8, note=79, velocity=97, time=4),
    Message('note_on', channel=8, note=79, velocity=0, time=28),
    Message('note_on', channel=8, note=81, velocity=97, time=8),
    Message('note_on', channel=8, note=81, velocity=0, time=112),
    Message('note_on', channel=8, note=89, velocity=86, time=15),
    Message('note_on', channel=8, note=89, velocity=0, time=68),
    Message('note_on', channel=8, note=89, velocity=88, time=21),
    Message('note_on', channel=8, note=89, velocity=0, time=20),
    Message('note_on', channel=8, note=94, velocity=91, time=3),
    Message('note_on', channel=8, note=90, velocity=91, time=2),
    Message('note_on', channel=8, note=90, velocity=0, time=51),
    Message('note_on', channel=8, note=94, velocity=0, time=7),
    Message('note_on', channel=8, note=89, velocity=90, time=38),
    Message('note_on', channel=8, note=92, velocity=94, time=4),
    Message('note_on', channel=8, note=89, velocity=0, time=14),
    Message('note_on', channel=8, note=92, velocity=0, time=3),
    Message('note_on', channel=8, note=90, velocity=95, time=1),
    Message('note_on', channel=8, note=87, velocity=95, time=2),
    Message('note_on', channel=8, note=90, velocity=0, time=52),
    Message('note_on', channel=8, note=87, velocity=0, time=2),
    Message('note_on', channel=8, note=85, velocity=97, time=40),
    Message('note_on', channel=8, note=89, velocity=97, time=0),
    Message('note_on', channel=8, note=85, velocity=0, time=16),
    Message('note_on', channel=8, note=89, velocity=0, time=4),
    Message('note_on', channel=8, note=87, velocity=99, time=10),
    Message('note_on', channel=8, note=84, velocity=99, time=6),
    Message('note_on', channel=8, note=87, velocity=0, time=39),
    Message('note_on', channel=8, note=84, velocity=0, time=8),
    Message('note_on', channel=8, note=82, velocity=101, time=34),
    Message('note_on', channel=8, note=85, velocity=102, time=9),
    Message('note_on', channel=8, note=82, velocity=0, time=7),
    Message('note_on', channel=8, note=85, velocity=0, time=11),
    Message('note_on', channel=8, note=80, velocity=102, time=5),
    Message('note_on', channel=8, note=84, velocity=102, time=5),
    Message('note_on', channel=8, note=80, velocity=0, time=44),
    Message('note_on', channel=8, note=84, velocity=0, time=5),
    Message('note_on', channel=8, note=82, velocity=106, time=29),
    Message('note_on', channel=8, note=78, velocity=106, time=2),
    Message('note_on', channel=8, note=82, velocity=0, time=9),
    Message('note_on', channel=8, note=78, velocity=0, time=11),
    Message('note_on', channel=8, note=89, velocity=77, time=17),
    Message('note_on', channel=8, note=65, velocity=100, time=88),
    Message('note_on', channel=8, note=65, velocity=0, time=22),
    Message('note_on', channel=8, note=65, velocity=114, time=8),
    Message('note_on', channel=8, note=65, velocity=0, time=22),
    Message('note_on', channel=8, note=65, velocity=85, time=68),
    Message('note_on', channel=8, note=65, velocity=0, time=22),
    Message('note_on', channel=8, note=65, velocity=114, time=8),
    Message('note_on', channel=8, note=65, velocity=0, time=22),
    Message('note_on', channel=8, note=65, velocity=85, time=8),
    Message('note_on', channel=8, note=65, velocity=0, time=22),
    Message('note_on', channel=8, note=65, velocity=85, time=8),
    Message('note_on', channel=8, note=65, velocity=0, time=22),
    Message('note_on', channel=8, note=65, velocity=85, time=8),
    Message('note_on', channel=8, note=65, velocity=0, time=22),
    Message('note_on', channel=8, note=89, velocity=0, time=5),
    Message('note_on', channel=8, note=65, velocity=114, time=3),
    Message('note_on', channel=8, note=65, velocity=0, time=22),
    Message('note_on', channel=8, note=65, velocity=85, time=68),
    Message('note_on', channel=8, note=65, velocity=0, time=22),
    Message('note_on', channel=8, note=65, velocity=114, time=8),
    Message('note_on', channel=8, note=65, velocity=0, time=22),
    Message('note_on', channel=8, note=65, velocity=85, time=68),
    Message('note_on', channel=8, note=65, velocity=0, time=22),
    Message('note_on', channel=8, note=65, velocity=114, time=8),
    Message('note_on', channel=8, note=65, velocity=0, time=22),
    Message('note_on', channel=8, note=65, velocity=85, time=8),
    Message('note_on', channel=8, note=65, velocity=0, time=22),
    Message('note_on', channel=8, note=65, velocity=85, time=8),
    Message('note_on', channel=8, note=65, velocity=0, time=22),
    Message('note_on', channel=8, note=65, velocity=85, time=8),
    Message('note_on', channel=8, note=65, velocity=0, time=22),
    Message('note_on', channel=8, note=65, velocity=114, time=8),
    Message('note_on', channel=8, note=65, velocity=0, time=22),
    Message('note_on', channel=8, note=65, velocity=85, time=68),
    Message('note_on', channel=8, note=65, velocity=0, time=22),
    Message('note_on', channel=8, note=65, velocity=127, time=8),
    Message('note_on', channel=8, note=65, velocity=0, time=22),
    Message('note_on', channel=8, note=65, velocity=96, time=68),
    Message('note_on', channel=8, note=65, velocity=0, time=22),
    Message('note_on', channel=8, note=65, velocity=127, time=8),
    Message('note_on', channel=8, note=65, velocity=0, time=22),
    Message('note_on', channel=8, note=65, velocity=96, time=8),
    Message('note_on', channel=8, note=65, velocity=0, time=22),
    Message('note_on', channel=8, note=65, velocity=96, time=8),
    Message('note_on', channel=8, note=65, velocity=0, time=22),
    Message('note_on', channel=8, note=65, velocity=96, time=8),
    Message('note_on', channel=8, note=65, velocity=0, time=22),
    Message('note_on', channel=8, note=65, velocity=127, time=8),
    Message('note_on', channel=8, note=65, velocity=0, time=22),
    Message('note_on', channel=8, note=65, velocity=96, time=68),
    Message('note_on', channel=8, note=65, velocity=0, time=22),
    Message('note_on', channel=8, note=65, velocity=127, time=8),
    Message('note_on', channel=8, note=65, velocity=0, time=22),
    Message('note_on', channel=8, note=65, velocity=96, time=68),
    Message('note_on', channel=8, note=65, velocity=0, time=22),
    Message('note_on', channel=8, note=65, velocity=127, time=8),
    Message('note_on', channel=8, note=65, velocity=0, time=22),
    Message('note_on', channel=8, note=65, velocity=96, time=8),
    Message('note_on', channel=8, note=65, velocity=0, time=22),
    Message('note_on', channel=8, note=65, velocity=96, time=8),
    Message('note_on', channel=8, note=65, velocity=0, time=22),
    Message('note_on', channel=8, note=65, velocity=96, time=8),
    Message('note_on', channel=8, note=65, velocity=0, time=22),
    Message('note_on', channel=8, note=65, velocity=127, time=8),
    Message('note_on', channel=8, note=65, velocity=0, time=22),
    Message('note_on', channel=8, note=65, velocity=96, time=68),
    Message('note_on', channel=8, note=65, velocity=0, time=22),
    Message('note_on', channel=8, note=65, velocity=127, time=8),
    Message('note_on', channel=8, note=65, velocity=0, time=22),
    Message('note_on', channel=8, note=65, velocity=96, time=68),
    Message('note_on', channel=8, note=65, velocity=0, time=22),
    Message('note_on', channel=8, note=61, velocity=127, time=8),
    Message('note_on', channel=8, note=61, velocity=111, time=7),
    Message('note_on', channel=8, note=61, velocity=0, time=7),
    Message('note_on', channel=8, note=61, velocity=0, time=1),
    Message('note_on', channel=8, note=61, velocity=96, time=15),
    Message('note_on', channel=8, note=61, velocity=99, time=6),
    Message('note_on', channel=8, note=61, velocity=0, time=6),
    Message('note_on', channel=8, note=61, velocity=0, time=0),
    Message('note_on', channel=8, note=61, velocity=96, time=18),
    Message('note_on', channel=8, note=61, velocity=111, time=6),
    Message('note_on', channel=8, note=61, velocity=0, time=6),
    Message('note_on', channel=8, note=61, velocity=0, time=0),
    Message('note_on', channel=8, note=61, velocity=96, time=18),
    Message('note_on', channel=8, note=61, velocity=83, time=3),
    Message('note_on', channel=8, note=61, velocity=0, time=3),
    Message('note_on', channel=8, note=61, velocity=0, time=0),
    Message('note_on', channel=8, note=65, velocity=127, time=24),
    Message('note_on', channel=8, note=65, velocity=0, time=22),
    Message('note_on', channel=8, note=65, velocity=96, time=68),
    Message('note_on', channel=8, note=65, velocity=0, time=22),
    Message('note_on', channel=8, note=65, velocity=127, time=8),
    Message('note_on', channel=8, note=65, velocity=0, time=22),
    Message('note_on', channel=8, note=65, velocity=96, time=68),
    Message('note_on', channel=8, note=65, velocity=0, time=22),
    Message('note_on', channel=8, note=61, velocity=127, time=8),
    Message('note_on', channel=8, note=61, velocity=110, time=0),
    Message('note_on', channel=8, note=61, velocity=0, time=1),
    Message('note_on', channel=8, note=61, velocity=0, time=15),
    Message('note_on', channel=8, note=61, velocity=95, time=12),
    Message('note_on', channel=8, note=61, velocity=0, time=2),
    Message('note_on', channel=8, note=61, velocity=96, time=0),
    Message('note_on', channel=8, note=61, velocity=0, time=1),
    Message('note_on', channel=8, note=61, velocity=112, time=26),
    Message('note_on', channel=8, note=61, velocity=96, time=3),
    Message('note_on', channel=8, note=61, velocity=0, time=2),
    Message('note_on', channel=8, note=61, velocity=0, time=0),
    Message('note_on', channel=8, note=61, velocity=83, time=21),
    Message('note_on', channel=8, note=61, velocity=96, time=7),
    Message('note_on', channel=8, note=61, velocity=0, time=6),
    Message('note_on', channel=8, note=61, velocity=0, time=0),
    Message('note_on', channel=8, note=65, velocity=127, time=24),
    Message('note_on', channel=8, note=65, velocity=0, time=22),
    Message('note_on', channel=8, note=65, velocity=96, time=68),
    Message('note_on', channel=8, note=65, velocity=0, time=22),
    Message('note_on', channel=8, note=65, velocity=127, time=8),
    Message('note_on', channel=8, note=65, velocity=0, time=22),
    Message('note_on', channel=8, note=65, velocity=96, time=68),
    Message('note_on', channel=8, note=65, velocity=0, time=22),
    Message('note_on', channel=8, note=61, velocity=106, time=6),
    Message('note_on', channel=8, note=61, velocity=0, time=2),
    Message('note_on', channel=8, note=61, velocity=127, time=0),
    Message('note_on', channel=8, note=61, velocity=0, time=1),
    Message('note_on', channel=8, note=61, velocity=84, time=27),
    Message('note_on', channel=8, note=61, velocity=0, time=2),
    Message('note_on', channel=8, note=61, velocity=96, time=0),
    Message('note_on', channel=8, note=61, velocity=0, time=1),
    Message('note_on', channel=8, note=61, velocity=96, time=29),
    Message('note_on', channel=8, note=61, velocity=101, time=0),
    Message('note_on', channel=8, note=61, velocity=0, time=1),
    Message('note_on', channel=8, note=61, velocity=0, time=10),
    Message('note_on', channel=8, note=61, velocity=99, time=12),
    Message('note_on', channel=8, note=61, velocity=96, time=7),
    Message('note_on', channel=8, note=61, velocity=0, time=6),
    Message('note_on', channel=8, note=61, velocity=0, time=0),
    Message('note_on', channel=8, note=65, velocity=127, time=24),
    Message('note_on', channel=8, note=65, velocity=0, time=22),
    Message('note_on', channel=8, note=65, velocity=96, time=8),
    Message('note_on', channel=8, note=65, velocity=0, time=22),
    Message('note_on', channel=8, note=65, velocity=96, time=8),
    Message('note_on', channel=8, note=65, velocity=0, time=22),
    Message('note_on', channel=8, note=65, velocity=96, time=8),
    Message('note_on', channel=8, note=65, velocity=0, time=22),
    Message('note_on', channel=8, note=60, velocity=127, time=8),
    Message('note_on', channel=8, note=60, velocity=0, time=22),
    Message('note_on', channel=8, note=60, velocity=96, time=8),
    Message('note_on', channel=8, note=60, velocity=0, time=22),
    Message('note_on', channel=8, note=60, velocity=96, time=8),
    Message('note_on', channel=8, note=60, velocity=0, time=22),
    Message('note_on', channel=8, note=60, velocity=96, time=8),
    Message('note_on', channel=8, note=60, velocity=0, time=22),
    Message('note_on', channel=8, note=67, velocity=101, time=98),
    Message('note_on', channel=8, note=67, velocity=0, time=22),
    Message('note_on', channel=8, note=67, velocity=127, time=8),
    Message('note_on', channel=8, note=67, velocity=0, time=22),
    Message('note_on', channel=8, note=67, velocity=101, time=68),
    Message('note_on', channel=8, note=67, velocity=0, time=22),
    Message('note_on', channel=8, note=67, velocity=127, time=8),
    Message('note_on', channel=8, note=67, velocity=0, time=22),
    Message('note_on', channel=8, note=67, velocity=101, time=68),
    Message('note_on', channel=8, note=67, velocity=0, time=22),
    Message('note_on', channel=8, note=67, velocity=127, time=8),
    Message('note_on', channel=8, note=67, velocity=0, time=22),
    Message('note_on', channel=8, note=67, velocity=101, time=8),
    Message('note_on', channel=8, note=67, velocity=0, time=22),
    Message('note_on', channel=8, note=67, velocity=101, time=8),
    Message('note_on', channel=8, note=67, velocity=0, time=22),
    Message('note_on', channel=8, note=67, velocity=101, time=8),
    Message('note_on', channel=8, note=67, velocity=0, time=22),
    Message('note_on', channel=8, note=67, velocity=127, time=8),
    Message('note_on', channel=8, note=67, velocity=0, time=22),
    Message('note_on', channel=8, note=67, velocity=101, time=68),
    Message('note_on', channel=8, note=67, velocity=0, time=22),
    Message('note_on', channel=8, note=67, velocity=127, time=8),
    Message('note_on', channel=8, note=67, velocity=0, time=22),
    Message('note_on', channel=8, note=67, velocity=101, time=68),
    Message('note_on', channel=8, note=67, velocity=0, time=22),
    Message('note_on', channel=8, note=67, velocity=127, time=8),
    Message('note_on', channel=8, note=67, velocity=0, time=22),
    Message('note_on', channel=8, note=67, velocity=101, time=8),
    Message('note_on', channel=8, note=67, velocity=0, time=22),
    Message('note_on', channel=8, note=67, velocity=101, time=8),
    Message('note_on', channel=8, note=67, velocity=0, time=22),
    Message('note_on', channel=8, note=67, velocity=101, time=8),
    Message('note_on', channel=8, note=67, velocity=0, time=22),
    Message('note_on', channel=8, note=67, velocity=127, time=8),
    Message('note_on', channel=8, note=86, velocity=60, time=6),
    Message('note_on', channel=8, note=67, velocity=0, time=16),
    Message('note_on', channel=8, note=87, velocity=61, time=15),
    Message('note_on', channel=8, note=86, velocity=0, time=4),
    Message('note_on', channel=8, note=86, velocity=61, time=20),
    Message('note_on', channel=8, note=87, velocity=0, time=7),
    Message('note_on', channel=8, note=87, velocity=62, time=25),
    Message('note_on', channel=8, note=86, velocity=0, time=4),
    Message('note_on', channel=8, note=86, velocity=63, time=23),
    Message('note_on', channel=8, note=87, velocity=0, time=6),
    Message('note_on', channel=8, note=87, velocity=65, time=26),
    Message('note_on', channel=8, note=86, velocity=0, time=2),
    Message('note_on', channel=8, note=86, velocity=66, time=27),
    Message('note_on', channel=8, note=87, velocity=0, time=3),
    Message('note_on', channel=8, note=87, velocity=67, time=28),
    Message('note_on', channel=8, note=86, velocity=0, time=2),
    Message('note_on', channel=8, note=86, velocity=68, time=29),
    Message('note_on', channel=8, note=87, velocity=0, time=2),
    Message('note_on', channel=8, note=87, velocity=69, time=26),
    Message('note_on', channel=8, note=86, velocity=0, time=1),
    Message('note_on', channel=8, note=86, velocity=70, time=31),
    Message('note_on', channel=8, note=87, velocity=0, time=1),
    Message('note_on', channel=8, note=86, velocity=0, time=27),
    Message('note_on', channel=8, note=87, velocity=71, time=2),
    Message('note_on', channel=8, note=86, velocity=72, time=27),
    Message('note_on', channel=8, note=87, velocity=0, time=4),
    Message('note_on', channel=8, note=87, velocity=73, time=24),
    Message('note_on', channel=8, note=86, velocity=0, time=2),
    Message('note_on', channel=8, note=86, velocity=74, time=28),
    Message('note_on', channel=8, note=87, velocity=0, time=5),
    Message('note_on', channel=8, note=87, velocity=75, time=23),
    Message('note_on', channel=8, note=86, velocity=0, time=5),
    Message('note_on', channel=8, note=86, velocity=76, time=22),
    Message('note_on', channel=8, note=87, velocity=0, time=4),
    Message('note_on', channel=8, note=87, velocity=77, time=23),
    Message('note_on', channel=8, note=86, velocity=0, time=4),
    Message('note_on', channel=8, note=86, velocity=78, time=27),
    Message('note_on', channel=8, note=87, velocity=0, time=3),
    Message('note_on', channel=8, note=87, velocity=79, time=26),
    Message('note_on', channel=8, note=86, velocity=0, time=3),
    Message('note_on', channel=8, note=86, velocity=80, time=27),
    Message('note_on', channel=8, note=87, velocity=0, time=5),
    Message('note_on', channel=8, note=87, velocity=81, time=24),
    Message('note_on', channel=8, note=86, velocity=0, time=1),
    Message('note_on', channel=8, note=86, velocity=82, time=26),
    Message('note_on', channel=8, note=87, velocity=0, time=6),
    Message('note_on', channel=8, note=87, velocity=83, time=25),
    Message('note_on', channel=8, note=86, velocity=0, time=2),
    Message('note_on', channel=8, note=86, velocity=84, time=24),
    Message('note_on', channel=8, note=87, velocity=0, time=10),
    Message('note_on', channel=8, note=87, velocity=85, time=22),
    Message('note_on', channel=8, note=86, velocity=0, time=4),
    Message('note_on', channel=8, note=86, velocity=86, time=25),
    Message('note_on', channel=8, note=87, velocity=0, time=8),
    Message('note_on', channel=8, note=87, velocity=87, time=24),
    Message('note_on', channel=8, note=86, velocity=0, time=3),
    Message('note_on', channel=8, note=86, velocity=88, time=23),
    Message('note_on', channel=8, note=87, velocity=0, time=10),
    Message('note_on', channel=8, note=87, velocity=89, time=19),
    Message('note_on', channel=8, note=86, velocity=0, time=7),
    Message('note_on', channel=8, note=86, velocity=90, time=17),
    Message('note_on', channel=8, note=87, velocity=0, time=9),
    Message('note_on', channel=8, note=84, velocity=95, time=11),
    Message('note_on', channel=8, note=86, velocity=0, time=9),
    Message('note_on', channel=8, note=85, velocity=98, time=18),
    Message('note_on', channel=8, note=84, velocity=0, time=1),
    Message('note_on', channel=8, note=85, velocity=0, time=24),
    Message('note_on', channel=8, note=86, velocity=102, time=4),
    Message('note_on', channel=8, note=86, velocity=0, time=31),
    Message('note_on', channel=8, note=87, velocity=106, time=1),
    Message('note_on', channel=8, note=87, velocity=0, time=24),
    Message('note_on', channel=8, note=88, velocity=110, time=6),
    Message('note_on', channel=8, note=88, velocity=0, time=25),
    Message('note_on', channel=8, note=89, velocity=113, time=0),
    Message('note_on', channel=8, note=89, velocity=0, time=18),
    Message('note_on', channel=8, note=90, velocity=116, time=2),
    Message('note_on', channel=8, note=91, velocity=119, time=23),
    Message('note_on', channel=8, note=90, velocity=0, time=4),
    Message('note_on', channel=8, note=91, velocity=0, time=99),
    Message('note_on', channel=8, note=55, velocity=127, time=88),
    Message('note_on', channel=8, note=55, velocity=0, time=7),
    Message('note_on', channel=8, note=55, velocity=127, time=12),
    Message('note_on', channel=8, note=55, velocity=0, time=8),
    Message('note_on', channel=8, note=55, velocity=127, time=11),
    Message('note_on', channel=8, note=55, velocity=0, time=9),
    Message('note_on', channel=8, note=55, velocity=127, time=10),
    Message('note_on', channel=8, note=55, velocity=0, time=10),
    Message('note_on', channel=8, note=55, velocity=127, time=54),
    Message('note_on', channel=8, note=55, velocity=0, time=9),
    Message('note_on', channel=8, note=55, velocity=127, time=11),
    Message('note_on', channel=8, note=55, velocity=0, time=10),
    Message('note_on', channel=8, note=55, velocity=127, time=8),
    Message('note_on', channel=8, note=55, velocity=0, time=10),
    Message('note_on', channel=8, note=63, velocity=127, time=10),
    Message('note_on', channel=8, note=63, velocity=0, time=10),
    Message('note_on', channel=8, note=63, velocity=127, time=9),
    Message('note_on', channel=8, note=63, velocity=0, time=10),
    Message('note_on', channel=8, note=63, velocity=127, time=10),
    Message('note_on', channel=8, note=63, velocity=0, time=11),
    Message('note_on', channel=8, note=63, velocity=127, time=9),
    Message('note_on', channel=8, note=63, velocity=0, time=8),
    Message('note_on', channel=8, note=55, velocity=127, time=52),
    Message('note_on', channel=8, note=55, velocity=0, time=10),
    Message('note_on', channel=8, note=55, velocity=127, time=111),
    Message('note_on', channel=8, note=55, velocity=0, time=7),
    Message('note_on', channel=8, note=55, velocity=127, time=54),
    Message('note_on', channel=8, note=55, velocity=0, time=8),
    Message('note_on', channel=8, note=55, velocity=127, time=11),
    Message('note_on', channel=8, note=55, velocity=0, time=11),
    Message('note_on', channel=8, note=55, velocity=127, time=9),
    Message('note_on', channel=8, note=55, velocity=0, time=9),
    Message('note_on', channel=8, note=55, velocity=127, time=11),
    Message('note_on', channel=8, note=55, velocity=0, time=11),
    Message('note_on', channel=8, note=55, velocity=127, time=50),
    Message('note_on', channel=8, note=55, velocity=0, time=9),
    Message('note_on', channel=8, note=55, velocity=127, time=11),
    Message('note_on', channel=8, note=55, velocity=0, time=11),
    Message('note_on', channel=8, note=55, velocity=127, time=9),
    Message('note_on', channel=8, note=55, velocity=0, time=10),
    Message('note_on', channel=8, note=63, velocity=127, time=9),
    Message('note_on', channel=8, note=63, velocity=0, time=10),
    Message('note_on', channel=8, note=63, velocity=127, time=10),
    Message('note_on', channel=8, note=63, velocity=0, time=11),
    Message('note_on', channel=8, note=63, velocity=127, time=8),
    Message('note_on', channel=8, note=63, velocity=0, time=10),
    Message('note_on', channel=8, note=63, velocity=127, time=11),
    Message('note_on', channel=8, note=63, velocity=0, time=10),
    Message('note_on', channel=8, note=55, velocity=127, time=50),
    Message('note_on', channel=8, note=55, velocity=0, time=9),
    Message('note_on', channel=8, note=55, velocity=127, time=110),
    Message('note_on', channel=8, note=55, velocity=0, time=11),
    Message('note_on', channel=8, note=55, velocity=127, time=55),
    Message('note_on', channel=8, note=55, velocity=0, time=9),
    Message('note_on', channel=8, note=55, velocity=127, time=10),
    Message('note_on', channel=8, note=55, velocity=0, time=11),
    Message('note_on', channel=8, note=55, velocity=127, time=8),
    Message('note_on', channel=8, note=55, velocity=0, time=11),
    Message('note_on', channel=8, note=55, velocity=127, time=5),
    Message('note_on', channel=8, note=55, velocity=0, time=13),
    Message('note_on', channel=8, note=55, velocity=127, time=50),
    Message('note_on', channel=8, note=55, velocity=0, time=10),
    Message('note_on', channel=8, note=55, velocity=127, time=9),
    Message('note_on', channel=8, note=55, velocity=0, time=11),
    Message('note_on', channel=8, note=55, velocity=127, time=9),
    Message('note_on', channel=8, note=55, velocity=0, time=10),
    Message('note_on', channel=8, note=63, velocity=127, time=8),
    Message('note_on', channel=8, note=55, velocity=127, time=1),
    Message('note_on', channel=8, note=55, velocity=0, time=11),
    Message('note_on', channel=8, note=63, velocity=0, time=1),
    Message('note_on', channel=8, note=55, velocity=127, time=7),
    Message('note_on', channel=8, note=63, velocity=127, time=1),
    Message('note_on', channel=8, note=63, velocity=0, time=10),
    Message('note_on', channel=8, note=55, velocity=0, time=0),
    Message('note_on', channel=8, note=55, velocity=127, time=7),
    Message('note_on', channel=8, note=63, velocity=127, time=3),
    Message('note_on', channel=8, note=55, velocity=0, time=7),
    Message('note_on', channel=8, note=63, velocity=0, time=4),
    Message('note_on', channel=8, note=55, velocity=127, time=7),
    Message('note_on', channel=8, note=63, velocity=127, time=1),
    Message('note_on', channel=8, note=55, velocity=0, time=9),
    Message('note_on', channel=8, note=63, velocity=0, time=4),
    Message('note_on', channel=8, note=55, velocity=127, time=52),
    Message('note_on', channel=8, note=55, velocity=0, time=8),
    Message('note_on', channel=8, note=55, velocity=127, time=110),
    Message('note_on', channel=8, note=55, velocity=0, time=8),
    Message('note_on', channel=8, note=55, velocity=127, time=54),
    Message('note_on', channel=8, note=55, velocity=0, time=9),
    Message('note_on', channel=8, note=55, velocity=127, time=8),
    Message('note_on', channel=8, note=55, velocity=0, time=10),
    Message('note_on', channel=8, note=55, velocity=127, time=10),
    Message('note_on', channel=8, note=55, velocity=0, time=11),
    Message('note_on', channel=8, note=55, velocity=127, time=4),
    Message('note_on', channel=8, note=55, velocity=0, time=11),
    Message('note_on', channel=8, note=55, velocity=127, time=56),
    Message('note_on', channel=8, note=55, velocity=0, time=9),
    Message('note_on', channel=8, note=55, velocity=127, time=10),
    Message('note_on', channel=8, note=55, velocity=0, time=11),
    Message('note_on', channel=8, note=55, velocity=127, time=7),
    Message('note_on', channel=8, note=55, velocity=0, time=12),
    Message('note_on', channel=8, note=55, velocity=127, time=5),
    Message('note_on', channel=8, note=58, velocity=127, time=1),
    Message('note_on', channel=8, note=55, velocity=0, time=10),
    Message('note_on', channel=8, note=58, velocity=0, time=1),
    Message('note_on', channel=8, note=58, velocity=127, time=10),
    Message('note_on', channel=8, note=55, velocity=127, time=0),
    Message('note_on', channel=8, note=55, velocity=0, time=11),
    Message('note_on', channel=8, note=58, velocity=0, time=0),
    Message('note_on', channel=8, note=55, velocity=127, time=4),
    Message('note_on', channel=8, note=58, velocity=127, time=3),
    Message('note_on', channel=8, note=55, velocity=0, time=8),
    Message('note_on', channel=8, note=58, velocity=0, time=4),
    Message('note_on', channel=8, note=58, velocity=127, time=7),
    Message('note_on', channel=8, note=55, velocity=127, time=1),
    Message('note_on', channel=8, note=55, velocity=0, time=10),
    Message('note_on', channel=8, note=58, velocity=0, time=2),
    Message('note_on', channel=8, note=55, velocity=127, time=51),
    Message('note_on', channel=8, note=55, velocity=0, time=10),
    Message('note_on', channel=8, note=55, velocity=127, time=110),
    Message('note_on', channel=8, note=55, velocity=0, time=10),
    Message('note_on', channel=8, note=55, velocity=127, time=56),
    Message('note_on', channel=8, note=55, velocity=0, time=9),
    Message('note_on', channel=8, note=55, velocity=127, time=10),
    Message('note_on', channel=8, note=55, velocity=0, time=11),
    Message('note_on', channel=8, note=55, velocity=127, time=10),
    Message('note_on', channel=8, note=55, velocity=0, time=9),
    Message('note_on', channel=8, note=55, velocity=127, time=7),
    Message('note_on', channel=8, note=55, velocity=0, time=11),
    Message('note_on', channel=8, note=55, velocity=127, time=47),
    Message('note_on', channel=8, note=55, velocity=0, time=9),
    Message('note_on', channel=8, note=55, velocity=127, time=11),
    Message('note_on', channel=8, note=55, velocity=0, time=12),
    Message('note_on', channel=8, note=55, velocity=127, time=8),
    Message('note_on', channel=8, note=55, velocity=0, time=11),
    Message('note_on', channel=8, note=66, velocity=127, time=8),
    Message('note_on', channel=8, note=58, velocity=127, time=0),
    Message('note_on', channel=8, note=66, velocity=0, time=11),
    Message('note_on', channel=8, note=58, velocity=0, time=1),
    Message('note_on', channel=8, note=66, velocity=127, time=8),
    Message('note_on', channel=8, note=58, velocity=127, time=0),
    Message('note_on', channel=8, note=58, velocity=0, time=12),
    Message('note_on', channel=8, note=66, velocity=0, time=0),
    Message('note_on', channel=8, note=66, velocity=127, time=8),
    Message('note_on', channel=8, note=58, velocity=127, time=1),
    Message('note_on', channel=8, note=66, velocity=0, time=9),
    Message('note_on', channel=8, note=58, velocity=0, time=3),
    Message('note_on', channel=8, note=66, velocity=127, time=7),
    Message('note_on', channel=8, note=58, velocity=127, time=0),
    Message('note_on', channel=8, note=58, velocity=0, time=10),
    Message('note_on', channel=8, note=66, velocity=0, time=0),
    Message('note_on', channel=8, note=63, velocity=127, time=53),
    Message('note_on', channel=8, note=58, velocity=127, time=0),
    Message('note_on', channel=8, note=63, velocity=0, time=10),
    Message('note_on', channel=8, note=58, velocity=0, time=10),
    Message('note_on', channel=8, note=63, velocity=127, time=97),
    Message('note_on', channel=8, note=63, velocity=127, time=2),
    Message('note_on', channel=8, note=63, velocity=0, time=2),
    Message('note_on', channel=8, note=63, velocity=0, time=1),
    Message('note_on', channel=8, note=63, velocity=127, time=64),
    Message('note_on', channel=8, note=63, velocity=0, time=10),
    Message('note_on', channel=8, note=63, velocity=127, time=7),
    Message('note_on', channel=8, note=63, velocity=0, time=12),
    Message('note_on', channel=8, note=63, velocity=127, time=7),
    Message('note_on', channel=8, note=63, velocity=0, time=6),
    Message('note_on', channel=8, note=55, velocity=127, time=11),
    Message('note_on', channel=8, note=55, velocity=0, time=11),
    Message('note_on', channel=8, note=58, velocity=127, time=47),
    Message('note_on', channel=8, note=62, velocity=127, time=1),
    Message('note_on', channel=8, note=62, velocity=0, time=9),
    Message('note_on', channel=8, note=58, velocity=0, time=2),
    Message('note_on', channel=8, note=62, velocity=127, time=8),
    Message('note_on', channel=8, note=58, velocity=127, time=0),
    Message('note_on', channel=8, note=58, velocity=0, time=13),
    Message('note_on', channel=8, note=62, velocity=0, time=0),
    Message('note_on', channel=8, note=62, velocity=127, time=7),
    Message('note_on', channel=8, note=58, velocity=127, time=0),
    Message('note_on', channel=8, note=58, velocity=0, time=13),
    Message('note_on', channel=8, note=62, velocity=0, time=0),
    Message('note_on', channel=8, note=63, velocity=127, time=7),
    Message('note_on', channel=8, note=59, velocity=127, time=0),
    Message('note_on', channel=8, note=59, velocity=0, time=13),
    Message('note_on', channel=8, note=63, velocity=0, time=0),
    Message('note_on', channel=8, note=63, velocity=127, time=7),
    Message('note_on', channel=8, note=59, velocity=127, time=0),
    Message('note_on', channel=8, note=59, velocity=0, time=12),
    Message('note_on', channel=8, note=63, velocity=0, time=0),
    Message('note_on', channel=8, note=59, velocity=127, time=8),
    Message('note_on', channel=8, note=63, velocity=127, time=0),
    Message('note_on', channel=8, note=63, velocity=0, time=13),
    Message('note_on', channel=8, note=59, velocity=0, time=0),
    Message('note_on', channel=8, note=61, velocity=127, time=7),
    Message('note_on', channel=8, note=65, velocity=127, time=0),
    Message('note_on', channel=8, note=65, velocity=0, time=12),
    Message('note_on', channel=8, note=61, velocity=0, time=0),
    Message('note_on', channel=8, note=65, velocity=127, time=8),
    Message('note_on', channel=8, note=61, velocity=127, time=0),
    Message('note_on', channel=8, note=61, velocity=0, time=13),
    Message('note_on', channel=8, note=65, velocity=0, time=0),
    Message('note_on', channel=8, note=65, velocity=127, time=7),
    Message('note_on', channel=8, note=61, velocity=127, time=0),
    Message('note_on', channel=8, note=61, velocity=0, time=11),
    Message('note_on', channel=8, note=65, velocity=0, time=0),
    Message('note_on', channel=8, note=67, velocity=127, time=10),
    Message('note_on', channel=8, note=67, velocity=0, time=9),
    Message('note_on', channel=8, note=67, velocity=127, time=110),
    Message('note_on', channel=8, note=67, velocity=0, time=11),
    Message('note_on', channel=8, note=67, velocity=127, time=55),
    Message('note_on', channel=8, note=67, velocity=0, time=9),
    Message('note_on', channel=8, note=67, velocity=127, time=10),
    Message('note_on', channel=8, note=67, velocity=0, time=11),
    Message('note_on', channel=8, note=67, velocity=127, time=8),
    Message('note_on', channel=8, note=67, velocity=0, time=11),
    Message('note_on', channel=8, note=67, velocity=127, time=5),
    Message('note_on', channel=8, note=67, velocity=0, time=13),
    Message('note_on', channel=8, note=67, velocity=127, time=50),
    Message('note_on', channel=8, note=67, velocity=0, time=10),
    Message('note_on', channel=8, note=67, velocity=127, time=9),
    Message('note_on', channel=8, note=67, velocity=0, time=11),
    Message('note_on', channel=8, note=67, velocity=127, time=9),
    Message('note_on', channel=8, note=67, velocity=0, time=10),
    Message('note_on', channel=8, note=63, velocity=127, time=8),
    Message('note_on', channel=8, note=67, velocity=127, time=1),
    Message('note_on', channel=8, note=67, velocity=0, time=11),
    Message('note_on', channel=8, note=63, velocity=0, time=1),
    Message('note_on', channel=8, note=67, velocity=127, time=7),
    Message('note_on', channel=8, note=63, velocity=127, time=1),
    Message('note_on', channel=8, note=63, velocity=0, time=10),
    Message('note_on', channel=8, note=67, velocity=0, time=0),
    Message('note_on', channel=8, note=67, velocity=127, time=7),
    Message('note_on', channel=8, note=63, velocity=127, time=3),
    Message('note_on', channel=8, note=67, velocity=0, time=7),
    Message('note_on', channel=8, note=63, velocity=0, time=4),
    Message('note_on', channel=8, note=67, velocity=127, time=7),
    Message('note_on', channel=8, note=63, velocity=127, time=1),
    Message('note_on', channel=8, note=67, velocity=0, time=9),
    Message('note_on', channel=8, note=63, velocity=0, time=4),
    Message('note_on', channel=8, note=64, velocity=127, time=49),
    Message('note_on', channel=8, note=68, velocity=127, time=0),
    Message('note_on', channel=8, note=68, velocity=0, time=8),
    Message('note_on', channel=8, note=64, velocity=0, time=0),
    Message('note_on', channel=8, note=68, velocity=127, time=113),
    Message('note_on', channel=8, note=64, velocity=127, time=0),
    Message('note_on', channel=8, note=64, velocity=0, time=8),
    Message('note_on', channel=8, note=68, velocity=0, time=0),
    Message('note_on', channel=8, note=68, velocity=127, time=55),
    Message('note_on', channel=8, note=64, velocity=127, time=0),
    Message('note_on', channel=8, note=64, velocity=0, time=9),
    Message('note_on', channel=8, note=68, velocity=0, time=0),
    Message('note_on', channel=8, note=68, velocity=127, time=8),
    Message('note_on', channel=8, note=64, velocity=127, time=0),
    Message('note_on', channel=8, note=64, velocity=0, time=10),
    Message('note_on', channel=8, note=68, velocity=0, time=0),
    Message('note_on', channel=8, note=68, velocity=127, time=10),
    Message('note_on', channel=8, note=64, velocity=127, time=0),
    Message('note_on', channel=8, note=64, velocity=0, time=11),
    Message('note_on', channel=8, note=68, velocity=0, time=0),
    Message('note_on', channel=8, note=68, velocity=127, time=4),
    Message('note_on', channel=8, note=64, velocity=127, time=0),
    Message('note_on', channel=8, note=64, velocity=0, time=11),
    Message('note_on', channel=8, note=68, velocity=0, time=0),
    Message('note_on', channel=8, note=68, velocity=127, time=56),
    Message('note_on', channel=8, note=64, velocity=127, time=0),
    Message('note_on', channel=8, note=64, velocity=0, time=9),
    Message('note_on', channel=8, note=68, velocity=0, time=0),
    Message('note_on', channel=8, note=68, velocity=127, time=11),
    Message('note_on', channel=8, note=64, velocity=127, time=0),
    Message('note_on', channel=8, note=64, velocity=0, time=11),
    Message('note_on', channel=8, note=68, velocity=0, time=0),
    Message('note_on', channel=8, note=68, velocity=127, time=6),
    Message('note_on', channel=8, note=64, velocity=127, time=0),
    Message('note_on', channel=8, note=64, velocity=0, time=12),
    Message('note_on', channel=8, note=68, velocity=0, time=0),
    Message('note_on', channel=8, note=64, velocity=127, time=6),
    Message('note_on', channel=8, note=68, velocity=127, time=0),
    Message('note_on', channel=8, note=68, velocity=0, time=11),
    Message('note_on', channel=8, note=64, velocity=0, time=0),
    Message('note_on', channel=8, note=68, velocity=127, time=10),
    Message('note_on', channel=8, note=64, velocity=127, time=0),
    Message('note_on', channel=8, note=64, velocity=0, time=11),
    Message('note_on', channel=8, note=68, velocity=0, time=0),
    Message('note_on', channel=8, note=68, velocity=127, time=4),
    Message('note_on', channel=8, note=64, velocity=127, time=0),
    Message('note_on', channel=8, note=64, velocity=0, time=11),
    Message('note_on', channel=8, note=68, velocity=0, time=0),
    Message('note_on', channel=8, note=68, velocity=127, time=12),
    Message('note_on', channel=8, note=64, velocity=127, time=0),
    Message('note_on', channel=8, note=64, velocity=0, time=10),
    Message('note_on', channel=8, note=68, velocity=0, time=0),
    Message('note_on', channel=8, note=66, velocity=127, time=54),
    Message('note_on', channel=8, note=63, velocity=127, time=0),
    Message('note_on', channel=8, note=63, velocity=0, time=11),
    Message('note_on', channel=8, note=66, velocity=0, time=0),
    Message('note_on', channel=8, note=66, velocity=127, time=103),
    Message('note_on', channel=8, note=63, velocity=127, time=0),
    Message('note_on', channel=8, note=63, velocity=0, time=11),
    Message('note_on', channel=8, note=66, velocity=0, time=0),
    Message('note_on', channel=8, note=66, velocity=127, time=52),
    Message('note_on', channel=8, note=63, velocity=127, time=0),
    Message('note_on', channel=8, note=63, velocity=0, time=11),
    Message('note_on', channel=8, note=66, velocity=0, time=0),
    Message('note_on', channel=8, note=66, velocity=127, time=9),
    Message('note_on', channel=8, note=63, velocity=127, time=0),
    Message('note_on', channel=8, note=63, velocity=0, time=11),
    Message('note_on', channel=8, note=66, velocity=0, time=0),
    Message('note_on', channel=8, note=66, velocity=127, time=9),
    Message('note_on', channel=8, note=63, velocity=127, time=0),
    Message('note_on', channel=8, note=63, velocity=0, time=11),
    Message('note_on', channel=8, note=66, velocity=0, time=0),
    Message('note_on', channel=8, note=66, velocity=127, time=9),
    Message('note_on', channel=8, note=63, velocity=127, time=0),
    Message('note_on', channel=8, note=63, velocity=0, time=11),
    Message('note_on', channel=8, note=66, velocity=0, time=0),
    Message('note_on', channel=8, note=66, velocity=127, time=109),
    Message('note_on', channel=8, note=63, velocity=127, time=0),
    Message('note_on', channel=8, note=63, velocity=0, time=11),
    Message('note_on', channel=8, note=66, velocity=0, time=0),
    Message('note_on', channel=8, note=66, velocity=127, time=9),
    Message('note_on', channel=8, note=63, velocity=127, time=0),
    Message('note_on', channel=8, note=63, velocity=0, time=13),
    Message('note_on', channel=8, note=66, velocity=0, time=0),
    Message('note_on', channel=8, note=66, velocity=127, time=5),
    Message('note_on', channel=8, note=63, velocity=127, time=0),
    Message('note_on', channel=8, note=63, velocity=0, time=11),
    Message('note_on', channel=8, note=66, velocity=0, time=0),
    Message('note_on', channel=8, note=66, velocity=127, time=11),
    Message('note_on', channel=8, note=63, velocity=127, time=0),
    Message('note_on', channel=8, note=63, velocity=0, time=11),
    Message('note_on', channel=8, note=66, velocity=0, time=0),
    Message('note_on', channel=8, note=67, velocity=127, time=50),
    Message('note_on', channel=8, note=67, velocity=0, time=11),
    Message('note_on', channel=8, note=67, velocity=127, time=108),
    Message('note_on', channel=8, note=63, velocity=127, time=0),
    Message('note_on', channel=8, note=63, velocity=0, time=11),
    Message('note_on', channel=8, note=67, velocity=0, time=0),
    Message('note_on', channel=8, note=67, velocity=127, time=9),
    Message('note_on', channel=8, note=63, velocity=127, time=0),
    Message('note_on', channel=8, note=63, velocity=0, time=13),
    Message('note_on', channel=8, note=67, velocity=0, time=0),
    Message('note_on', channel=8, note=67, velocity=127, time=5),
    Message('note_on', channel=8, note=63, velocity=127, time=0),
    Message('note_on', channel=8, note=63, velocity=0, time=11),
    Message('note_on', channel=8, note=67, velocity=0, time=0),
    Message('note_on', channel=8, note=67, velocity=127, time=11),
    Message('note_on', channel=8, note=63, velocity=127, time=0),
    Message('note_on', channel=8, note=63, velocity=0, time=11),
    Message('note_on', channel=8, note=67, velocity=0, time=0),
    Message('note_on', channel=8, note=67, velocity=127, time=52),
    Message('note_on', channel=8, note=67, velocity=0, time=10),
    Message('note_on', channel=8, note=67, velocity=127, time=48),
    Message('note_on', channel=8, note=67, velocity=0, time=11),
    Message('note_on', channel=8, note=67, velocity=127, time=9),
    Message('note_on', channel=8, note=67, velocity=0, time=11),
    Message('note_on', channel=8, note=67, velocity=127, time=9),
    Message('note_on', channel=8, note=67, velocity=0, time=10),
    Message('note_on', channel=8, note=67, velocity=127, time=10),
    Message('note_on', channel=8, note=67, velocity=0, time=10),
    Message('note_on', channel=8, note=67, velocity=127, time=9),
    Message('note_on', channel=8, note=67, velocity=0, time=13),
    Message('note_on', channel=8, note=67, velocity=127, time=7),
    Message('note_on', channel=8, note=67, velocity=0, time=11),
    Message('note_on', channel=8, note=67, velocity=127, time=10),
    Message('note_on', channel=8, note=67, velocity=0, time=10),
    Message('note_on', channel=8, note=67, velocity=127, time=9),
    Message('note_on', channel=8, note=67, velocity=0, time=13),
    Message('note_on', channel=8, note=67, velocity=127, time=7),
    Message('note_on', channel=8, note=67, velocity=0, time=11),
    Message('note_on', channel=8, note=67, velocity=127, time=10),
    Message('note_on', channel=8, note=67, velocity=0, time=9),
    Message('note_on', channel=8, note=67, velocity=127, time=110),
    Message('note_on', channel=8, note=67, velocity=0, time=11),
    Message('note_on', channel=8, note=67, velocity=127, time=55),
    Message('note_on', channel=8, note=67, velocity=0, time=9),
    Message('note_on', channel=8, note=67, velocity=127, time=10),
    Message('note_on', channel=8, note=67, velocity=0, time=11),
    Message('note_on', channel=8, note=67, velocity=127, time=8),
    Message('note_on', channel=8, note=67, velocity=0, time=11),
    Message('note_on', channel=8, note=67, velocity=127, time=5),
    Message('note_on', channel=8, note=67, velocity=0, time=13),
    Message('note_on', channel=8, note=67, velocity=127, time=50),
    Message('note_on', channel=8, note=67, velocity=0, time=10),
    Message('note_on', channel=8, note=67, velocity=127, time=9),
    Message('note_on', channel=8, note=67, velocity=0, time=11),
    Message('note_on', channel=8, note=67, velocity=127, time=9),
    Message('note_on', channel=8, note=67, velocity=0, time=10),
    Message('note_on', channel=8, note=63, velocity=127, time=8),
    Message('note_on', channel=8, note=67, velocity=127, time=1),
    Message('note_on', channel=8, note=67, velocity=0, time=11),
    Message('note_on', channel=8, note=63, velocity=0, time=1),
    Message('note_on', channel=8, note=67, velocity=127, time=7),
    Message('note_on', channel=8, note=63, velocity=127, time=1),
    Message('note_on', channel=8, note=63, velocity=0, time=10),
    Message('note_on', channel=8, note=67, velocity=0, time=0),
    Message('note_on', channel=8, note=67, velocity=127, time=7),
    Message('note_on', channel=8, note=63, velocity=127, time=3),
    Message('note_on', channel=8, note=67, velocity=0, time=7),
    Message('note_on', channel=8, note=63, velocity=0, time=4),
    Message('note_on', channel=8, note=67, velocity=127, time=7),
    Message('note_on', channel=8, note=63, velocity=127, time=1),
    Message('note_on', channel=8, note=67, velocity=0, time=9),
    Message('note_on', channel=8, note=63, velocity=0, time=4),
    Message('note_on', channel=8, note=64, velocity=127, time=49),
    Message('note_on', channel=8, note=68, velocity=127, time=0),
    Message('note_on', channel=8, note=68, velocity=0, time=8),
    Message('note_on', channel=8, note=64, velocity=0, time=0),
    Message('note_on', channel=8, note=68, velocity=127, time=113),
    Message('note_on', channel=8, note=64, velocity=127, time=0),
    Message('note_on', channel=8, note=64, velocity=0, time=8),
    Message('note_on', channel=8, note=68, velocity=0, time=0),
    Message('note_on', channel=8, note=64, velocity=127, time=52),
    Message('note_on', channel=8, note=68, velocity=127, time=3),
    Message('note_on', channel=8, note=64, velocity=0, time=5),
    Message('note_on', channel=8, note=68, velocity=0, time=4),
    Message('note_on', channel=8, note=64, velocity=127, time=7),
    Message('note_on', channel=8, note=68, velocity=127, time=1),
    Message('note_on', channel=8, note=64, velocity=0, time=9),
    Message('note_on', channel=8, note=68, velocity=0, time=1),
    Message('note_on', channel=8, note=64, velocity=127, time=8),
    Message('note_on', channel=8, note=68, velocity=127, time=2),
    Message('note_on', channel=8, note=64, velocity=0, time=9),
    Message('note_on', channel=8, note=68, velocity=0, time=2),
    Message('note_on', channel=8, note=68, velocity=127, time=4),
    Message('note_on', channel=8, note=64, velocity=127, time=2),
    Message('note_on', channel=8, note=68, velocity=0, time=9),
    Message('note_on', channel=8, note=64, velocity=0, time=2),
    Message('note_on', channel=8, note=64, velocity=127, time=52),
    Message('note_on', channel=8, note=68, velocity=127, time=2),
    Message('note_on', channel=8, note=64, velocity=0, time=7),
    Message('note_on', channel=8, note=68, velocity=0, time=2),
    Message('note_on', channel=8, note=64, velocity=127, time=9),
    Message('note_on', channel=8, note=68, velocity=127, time=2),
    Message('note_on', channel=8, note=64, velocity=0, time=8),
    Message('note_on', channel=8, note=68, velocity=0, time=3),
    Message('note_on', channel=8, note=64, velocity=127, time=5),
    Message('note_on', channel=8, note=68, velocity=127, time=1),
    Message('note_on', channel=8, note=64, velocity=0, time=10),
    Message('note_on', channel=8, note=68, velocity=0, time=2),
    Message('note_on', channel=8, note=64, velocity=127, time=6),
    Message('note_on', channel=8, note=68, velocity=127, time=0),
    Message('note_on', channel=8, note=68, velocity=0, time=11),
    Message('note_on', channel=8, note=64, velocity=0, time=0),
    Message('note_on', channel=8, note=68, velocity=127, time=10),
    Message('note_on', channel=8, note=64, velocity=127, time=0),
    Message('note_on', channel=8, note=64, velocity=0, time=11),
    Message('note_on', channel=8, note=68, velocity=0, time=0),
    Message('note_on', channel=8, note=68, velocity=127, time=4),
    Message('note_on', channel=8, note=64, velocity=127, time=2),
    Message('note_on', channel=8, note=68, velocity=0, time=9),
    Message('note_on', channel=8, note=64, velocity=0, time=2),
    Message('note_on', channel=8, note=68, velocity=127, time=10),
    Message('note_on', channel=8, note=64, velocity=127, time=1),
    Message('note_on', channel=8, note=68, velocity=0, time=9),
    Message('note_on', channel=8, note=64, velocity=0, time=1),
    Message('note_on', channel=8, note=66, velocity=127, time=53),
    Message('note_on', channel=8, note=63, velocity=127, time=0),
    Message('note_on', channel=8, note=63, velocity=0, time=11),
    Message('note_on', channel=8, note=66, velocity=0, time=0),
    Message('note_on', channel=8, note=66, velocity=127, time=103),
    Message('note_on', channel=8, note=63, velocity=127, time=0),
    Message('note_on', channel=8, note=63, velocity=0, time=11),
    Message('note_on', channel=8, note=66, velocity=0, time=0),
    Message('note_on', channel=8, note=66, velocity=127, time=52),
    Message('note_on', channel=8, note=63, velocity=127, time=0),
    Message('note_on', channel=8, note=63, velocity=0, time=11),
    Message('note_on', channel=8, note=66, velocity=0, time=0),
    Message('note_on', channel=8, note=66, velocity=127, time=9),
    Message('note_on', channel=8, note=63, velocity=127, time=0),
    Message('note_on', channel=8, note=63, velocity=0, time=11),
    Message('note_on', channel=8, note=66, velocity=0, time=0),
    Message('note_on', channel=8, note=66, velocity=127, time=9),
    Message('note_on', channel=8, note=63, velocity=127, time=0),
    Message('note_on', channel=8, note=63, velocity=0, time=11),
    Message('note_on', channel=8, note=66, velocity=0, time=0),
    Message('note_on', channel=8, note=66, velocity=127, time=9),
    Message('note_on', channel=8, note=63, velocity=127, time=0),
    Message('note_on', channel=8, note=63, velocity=0, time=11),
    Message('note_on', channel=8, note=66, velocity=0, time=0),
    Message('note_on', channel=8, note=66, velocity=127, time=109),
    Message('note_on', channel=8, note=63, velocity=127, time=0),
    Message('note_on', channel=8, note=63, velocity=0, time=11),
    Message('note_on', channel=8, note=66, velocity=0, time=0),
    Message('note_on', channel=8, note=66, velocity=127, time=9),
    Message('note_on', channel=8, note=63, velocity=127, time=0),
    Message('note_on', channel=8, note=63, velocity=0, time=13),
    Message('note_on', channel=8, note=66, velocity=0, time=0),
    Message('note_on', channel=8, note=66, velocity=127, time=5),
    Message('note_on', channel=8, note=63, velocity=127, time=0),
    Message('note_on', channel=8, note=63, velocity=0, time=11),
    Message('note_on', channel=8, note=66, velocity=0, time=0),
    Message('note_on', channel=8, note=66, velocity=127, time=11),
    Message('note_on', channel=8, note=63, velocity=127, time=0),
    Message('note_on', channel=8, note=63, velocity=0, time=11),
    Message('note_on', channel=8, note=66, velocity=0, time=0),
    Message('note_on', channel=8, note=67, velocity=127, time=50),
    Message('note_on', channel=8, note=67, velocity=0, time=11),
    Message('note_on', channel=8, note=66, velocity=127, time=108),
    Message('note_on', channel=8, note=63, velocity=127, time=0),
    Message('note_on', channel=8, note=63, velocity=0, time=11),
    Message('note_on', channel=8, note=66, velocity=0, time=0),
    Message('note_on', channel=8, note=66, velocity=127, time=9),
    Message('note_on', channel=8, note=63, velocity=127, time=0),
    Message('note_on', channel=8, note=63, velocity=0, time=13),
    Message('note_on', channel=8, note=66, velocity=0, time=0),
    Message('note_on', channel=8, note=66, velocity=127, time=5),
    Message('note_on', channel=8, note=63, velocity=127, time=0),
    Message('note_on', channel=8, note=63, velocity=0, time=11),
    Message('note_on', channel=8, note=66, velocity=0, time=0),
    Message('note_on', channel=8, note=66, velocity=127, time=11),
    Message('note_on', channel=8, note=63, velocity=127, time=0),
    Message('note_on', channel=8, note=63, velocity=0, time=11),
    Message('note_on', channel=8, note=66, velocity=0, time=0),
    Message('note_on', channel=8, note=67, velocity=127, time=52),
    Message('note_on', channel=8, note=67, velocity=0, time=10),
    Message('note_on', channel=8, note=67, velocity=127, time=48),
    Message('note_on', channel=8, note=67, velocity=0, time=11),
    Message('note_on', channel=8, note=67, velocity=127, time=9),
    Message('note_on', channel=8, note=67, velocity=0, time=11),
    Message('note_on', channel=8, note=67, velocity=127, time=9),
    Message('note_on', channel=8, note=67, velocity=0, time=10),
    Message('note_on', channel=8, note=67, velocity=127, time=10),
    Message('note_on', channel=8, note=67, velocity=0, time=10),
    Message('note_on', channel=8, note=67, velocity=127, time=9),
    Message('note_on', channel=8, note=67, velocity=0, time=13),
    Message('note_on', channel=8, note=67, velocity=127, time=7),
    Message('note_on', channel=8, note=67, velocity=0, time=11),
    Message('note_on', channel=8, note=67, velocity=127, time=10),
    Message('note_on', channel=8, note=67, velocity=0, time=13),
    Message('note_on', channel=8, note=58, velocity=127, time=106),
    Message('note_on', channel=8, note=62, velocity=127, time=1),
    Message('note_on', channel=8, note=62, velocity=0, time=9),
    Message('note_on', channel=8, note=58, velocity=0, time=2),
    Message('note_on', channel=8, note=62, velocity=127, time=8),
    Message('note_on', channel=8, note=58, velocity=127, time=0),
    Message('note_on', channel=8, note=58, velocity=0, time=13),
    Message('note_on', channel=8, note=62, velocity=0, time=0),
    Message('note_on', channel=8, note=62, velocity=127, time=7),
    Message('note_on', channel=8, note=58, velocity=127, time=0),
    Message('note_on', channel=8, note=58, velocity=0, time=13),
    Message('note_on', channel=8, note=62, velocity=0, time=0),
    Message('note_on', channel=8, note=63, velocity=127, time=7),
    Message('note_on', channel=8, note=59, velocity=127, time=0),
    Message('note_on', channel=8, note=59, velocity=0, time=13),
    Message('note_on', channel=8, note=63, velocity=0, time=0),
    Message('note_on', channel=8, note=63, velocity=127, time=7),
    Message('note_on', channel=8, note=59, velocity=127, time=0),
    Message('note_on', channel=8, note=59, velocity=0, time=12),
    Message('note_on', channel=8, note=63, velocity=0, time=0),
    Message('note_on', channel=8, note=63, velocity=127, time=7),
    Message('note_on', channel=8, note=59, velocity=127, time=1),
    Message('note_on', channel=8, note=63, velocity=0, time=12),
    Message('note_on', channel=8, note=59, velocity=0, time=1),
    Message('note_on', channel=8, note=65, velocity=127, time=7),
    Message('note_on', channel=8, note=61, velocity=127, time=0),
    Message('note_on', channel=8, note=65, velocity=0, time=11),
    Message('note_on', channel=8, note=61, velocity=0, time=1),
    Message('note_on', channel=8, note=65, velocity=127, time=6),
    Message('note_on', channel=8, note=61, velocity=127, time=2),
    Message('note_on', channel=8, note=65, velocity=0, time=11),
    Message('note_on', channel=8, note=61, velocity=0, time=2),
    Message('note_on', channel=8, note=65, velocity=127, time=5),
    Message('note_on', channel=8, note=61, velocity=127, time=2),
    Message('note_on', channel=8, note=65, velocity=0, time=9),
    Message('note_on', channel=8, note=61, velocity=0, time=2),
    Message('note_on', channel=8, note=62, velocity=127, time=966),
    Message('note_on', channel=8, note=62, velocity=0, time=38),
    Message('note_on', channel=8, note=62, velocity=127, time=208),
    Message('note_on', channel=8, note=62, velocity=0, time=36),
    Message('note_on', channel=8, note=62, velocity=127, time=205),
    Message('note_on', channel=8, note=62, velocity=0, time=30),
    Message('note_on', channel=8, note=71, velocity=77, time=447),
    Message('note_on', channel=8, note=68, velocity=88, time=1),
    Message('note_on', channel=8, note=72, velocity=77, time=18),
    Message('note_on', channel=8, note=71, velocity=0, time=2),
    Message('note_on', channel=8, note=68, velocity=0, time=2),
    Message('note_on', channel=8, note=67, velocity=63, time=0),
    Message('note_on', channel=8, note=74, velocity=69, time=15),
    Message('note_on', channel=8, note=72, velocity=0, time=4),
    Message('note_on', channel=8, note=64, velocity=77, time=1),
    Message('note_on', channel=8, note=67, velocity=0, time=5),
    Message('note_on', channel=8, note=77, velocity=59, time=12),
    Message('note_on', channel=8, note=64, velocity=0, time=1),
    Message('note_on', channel=8, note=60, velocity=88, time=1),
    Message('note_on', channel=8, note=74, velocity=0, time=1),
    Message('note_on', channel=8, note=77, velocity=0, time=13),
    Message('note_on', channel=8, note=60, velocity=0, time=3),
    Message('note_on', channel=8, note=76, velocity=59, time=0),
    Message('note_on', channel=8, note=59, velocity=74, time=3),
    Message('note_on', channel=8, note=59, velocity=0, time=15),
    Message('note_on', channel=8, note=76, velocity=0, time=0),
    Message('note_on', channel=8, note=60, velocity=63, time=0),
    Message('note_on', channel=8, note=77, velocity=63, time=1),
    Message('note_on', channel=8, note=60, velocity=0, time=20),
    Message('note_on', channel=8, note=64, velocity=77, time=1),
    Message('note_on', channel=8, note=72, velocity=77, time=0),
    Message('note_on', channel=8, note=77, velocity=0, time=2),
    Message('note_on', channel=8, note=72, velocity=0, time=16),
    Message('note_on', channel=8, note=63, velocity=69, time=0),
    Message('note_on', channel=8, note=64, velocity=0, time=1),
    Message('note_on', channel=8, note=71, velocity=74, time=0),
    Message('note_on', channel=8, note=63, velocity=0, time=15),
    Message('note_on', channel=8, note=64, velocity=69, time=1),
    Message('note_on', channel=8, note=72, velocity=77, time=4),
    Message('note_on', channel=8, note=71, velocity=0, time=5),
    Message('note_on', channel=8, note=64, velocity=0, time=13),
    Message('note_on', channel=8, note=68, velocity=88, time=1),
    Message('note_on', channel=8, note=76, velocity=59, time=2),
    Message('note_on', channel=8, note=72, velocity=0, time=3),
    Message('note_on', channel=8, note=76, velocity=0, time=11),
    Message('note_on', channel=8, note=67, velocity=69, time=2),
    Message('note_on', channel=8, note=68, velocity=0, time=2),
    Message('note_on', channel=8, note=75, velocity=55, time=1),
    Message('note_on', channel=8, note=68, velocity=88, time=16),
    Message('note_on', channel=8, note=67, velocity=0, time=2),
    Message('note_on', channel=8, note=75, velocity=0, time=2),
    Message('note_on', channel=8, note=76, velocity=74, time=0),
    Message('note_on', channel=8, note=68, velocity=0, time=14),
    Message('note_on', channel=8, note=76, velocity=0, time=2),
    Message('note_on', channel=8, note=69, velocity=99, time=6),
    Message('note_on', channel=8, note=77, velocity=77, time=0),
    Message('note_on', channel=8, note=69, velocity=0, time=18),
    Message('note_on', channel=8, note=76, velocity=77, time=1),
    Message('note_on', channel=8, note=68, velocity=69, time=0),
    Message('note_on', channel=8, note=77, velocity=0, time=1),
    Message('note_on', channel=8, note=77, velocity=74, time=17),
    Message('note_on', channel=8, note=69, velocity=74, time=1),
    Message('note_on', channel=8, note=76, velocity=0, time=1),
    Message('note_on', channel=8, note=68, velocity=0, time=3),
    Message('note_on', channel=8, note=77, velocity=0, time=17),
    Message('note_on', channel=8, note=80, velocity=74, time=1),
    Message('note_on', channel=8, note=71, velocity=77, time=0),
    Message('note_on', channel=8, note=69, velocity=0, time=3),
    Message('note_on', channel=8, note=71, velocity=0, time=14),
    Message('note_on', channel=8, note=69, velocity=69, time=0),
    Message('note_on', channel=8, note=79, velocity=74, time=2),
    Message('note_on', channel=8, note=80, velocity=0, time=1),
    Message('note_on', channel=8, note=71, velocity=77, time=16),
    Message('note_on', channel=8, note=79, velocity=0, time=3),
    Message('note_on', channel=8, note=80, velocity=69, time=0),
    Message('note_on', channel=8, note=69, velocity=0, time=1),
    Message('note_on', channel=8, note=71, velocity=0, time=16),
    Message('note_on', channel=8, note=80, velocity=0, time=2),
    Message('note_on', channel=8, note=83, velocity=88, time=0),
    Message('note_on', channel=8, note=59, velocity=99, time=3),
    Message('note_on', channel=8, note=83, velocity=0, time=17),
    Message('note_on', channel=8, note=82, velocity=69, time=0),
    Message('note_on', channel=8, note=60, velocity=77, time=2),
    Message('note_on', channel=8, note=59, velocity=0, time=4),
    Message('note_on', channel=8, note=83, velocity=88, time=12),
    Message('note_on', channel=8, note=82, velocity=0, time=3),
    Message('note_on', channel=8, note=64, velocity=74, time=0),
    Message('note_on', channel=8, note=60, velocity=0, time=1),
    Message('note_on', channel=8, note=83, velocity=0, time=13),
    Message('note_on', channel=8, note=64, velocity=0, time=2),
    Message('note_on', channel=8, note=65, velocity=74, time=3),
    Message('note_on', channel=8, note=71, velocity=99, time=1),
    Message('note_on', channel=8, note=72, velocity=77, time=18),
    Message('note_on', channel=8, note=68, velocity=77, time=0),
    Message('note_on', channel=8, note=71, velocity=0, time=4),
    Message('note_on', channel=8, note=65, velocity=0, time=0),
    Message('note_on', channel=8, note=68, velocity=0, time=15),
    Message('note_on', channel=8, note=71, velocity=77, time=0),
    Message('note_on', channel=8, note=72, velocity=0, time=1),
    Message('note_on', channel=8, note=76, velocity=74, time=0),
    Message('note_on', channel=8, note=71, velocity=0, time=19),
    Message('note_on', channel=8, note=76, velocity=0, time=1),
    Message('note_on', channel=8, note=57, velocity=108, time=239),
    Message('note_on', channel=8, note=65, velocity=119, time=2),
    Message('note_on', channel=8, note=57, velocity=0, time=30),
    Message('note_on', channel=8, note=65, velocity=0, time=1),
    Message('note_on', channel=8, note=57, velocity=119, time=211),
    Message('note_on', channel=8, note=65, velocity=119, time=1),
    Message('note_on', channel=8, note=57, velocity=0, time=30),
    Message('note_on', channel=8, note=65, velocity=0, time=7),
    Message('note_on', channel=8, note=57, velocity=127, time=198),
    Message('note_on', channel=8, note=65, velocity=127, time=1),
    Message('note_on', channel=8, note=57, velocity=0, time=31),
    Message('note_on', channel=8, note=65, velocity=0, time=3),
    Message('note_on', channel=8, note=68, velocity=55, time=688),
    Message('note_on', channel=8, note=72, velocity=61, time=19),
    Message('note_on', channel=8, note=68, velocity=0, time=2),
    Message('note_on', channel=8, note=72, velocity=0, time=16),
    Message('note_on', channel=8, note=73, velocity=55, time=2),
    Message('note_on', channel=8, note=73, velocity=0, time=20),
    Message('note_on', channel=8, note=77, velocity=55, time=1),
    Message('note_on', channel=8, note=73, velocity=55, time=20),
    Message('note_on', channel=8, note=77, velocity=0, time=6),
    Message('note_on', channel=8, note=73, velocity=0, time=13),
    Message('note_on', channel=8, note=72, velocity=55, time=0),
    Message('note_on', channel=8, note=72, velocity=0, time=21),
    Message('note_on', channel=8, note=68, velocity=55, time=0),
    Message('note_on', channel=8, note=68, velocity=0, time=18),
    Message('note_on', channel=8, note=72, velocity=61, time=2),
    Message('note_on', channel=8, note=73, velocity=55, time=17),
    Message('note_on', channel=8, note=72, velocity=0, time=5),
    Message('note_on', channel=8, note=73, velocity=0, time=18),
    Message('note_on', channel=8, note=77, velocity=55, time=0),
    Message('note_on', channel=8, note=73, velocity=55, time=18),
    Message('note_on', channel=8, note=77, velocity=0, time=3),
    Message('note_on', channel=8, note=72, velocity=55, time=16),
    Message('note_on', channel=8, note=73, velocity=0, time=2),
    Message('note_on', channel=8, note=72, velocity=0, time=17),
    Message('note_on', channel=8, note=68, velocity=63, time=2),
    Message('note_on', channel=8, note=92, velocity=64, time=15),
    Message('note_on', channel=8, note=68, velocity=0, time=4),
    Message('note_on', channel=8, note=72, velocity=61, time=0),
    Message('note_on', channel=8, note=73, velocity=55, time=20),
    Message('note_on', channel=8, note=72, velocity=0, time=1),
    Message('note_on', channel=8, note=73, velocity=0, time=20),
    Message('note_on', channel=8, note=77, velocity=55, time=0),
    Message('note_on', channel=8, note=73, velocity=55, time=19),
    Message('note_on', channel=8, note=77, velocity=0, time=1),
    Message('note_on', channel=8, note=73, velocity=0, time=17),
    Message('note_on', channel=8, note=72, velocity=55, time=3),
    Message('note_on', channel=8, note=68, velocity=55, time=22),
    Message('note_on', channel=8, note=72, velocity=0, time=2),
    Message('note_on', channel=8, note=72, velocity=55, time=16),
    Message('note_on', channel=8, note=68, velocity=0, time=3),
    Message('note_on', channel=8, note=73, velocity=55, time=16),
    Message('note_on', channel=8, note=72, velocity=0, time=6),
    Message('note_on', channel=8, note=73, velocity=0, time=13),
    Message('note_on', channel=8, note=77, velocity=55, time=2),
    Message('note_on', channel=8, note=73, velocity=55, time=19),
    Message('note_on', channel=8, note=77, velocity=0, time=7),
    Message('note_on', channel=8, note=72, velocity=55, time=13),
    Message('note_on', channel=8, note=73, velocity=0, time=4),
    Message('note_on', channel=8, note=72, velocity=0, time=16),
    Message('note_on', channel=8, note=68, velocity=55, time=3),
    Message('note_on', channel=8, note=89, velocity=64, time=5),
    Message('note_on', channel=8, note=69, velocity=61, time=14),
    Message('note_on', channel=8, note=68, velocity=0, time=2),
    Message('note_on', channel=8, note=92, velocity=0, time=5),
    Message('note_on', channel=8, note=69, velocity=0, time=11),
    Message('note_on', channel=8, note=73, velocity=55, time=2),
    Message('note_on', channel=8, note=73, velocity=0, time=20),
    Message('note_on', channel=8, note=77, velocity=55, time=1),
    Message('note_on', channel=8, note=73, velocity=55, time=20),
    Message('note_on', channel=8, note=77, velocity=0, time=6),
    Message('note_on', channel=8, note=73, velocity=0, time=13),
    Message('note_on', channel=8, note=69, velocity=55, time=0),
    Message('note_on', channel=8, note=69, velocity=0, time=21),
    Message('note_on', channel=8, note=68, velocity=55, time=0),
    Message('note_on', channel=8, note=68, velocity=0, time=18),
    Message('note_on', channel=8, note=69, velocity=61, time=2),
    Message('note_on', channel=8, note=73, velocity=55, time=17),
    Message('note_on', channel=8, note=69, velocity=0, time=5),
    Message('note_on', channel=8, note=73, velocity=0, time=18),
    Message('note_on', channel=8, note=77, velocity=55, time=0),
    Message('note_on', channel=8, note=73, velocity=55, time=18),
    Message('note_on', channel=8, note=77, velocity=0, time=3),
    Message('note_on', channel=8, note=69, velocity=55, time=16),
    Message('note_on', channel=8, note=73, velocity=0, time=2),
    Message('note_on', channel=8, note=91, velocity=64, time=13),
    Message('note_on', channel=8, note=89, velocity=0, time=2),
    Message('note_on', channel=8, note=69, velocity=0, time=2),
    Message('note_on', channel=8, note=68, velocity=63, time=2),
    Message('note_on', channel=8, note=68, velocity=0, time=19),
    Message('note_on', channel=8, note=69, velocity=61, time=0),
    Message('note_on', channel=8, note=73, velocity=55, time=20),
    Message('note_on', channel=8, note=69, velocity=0, time=1),
    Message('note_on', channel=8, note=73, velocity=0, time=20),
    Message('note_on', channel=8, note=77, velocity=55, time=0),
    Message('note_on', channel=8, note=73, velocity=55, time=19),
    Message('note_on', channel=8, note=77, velocity=0, time=1),
    Message('note_on', channel=8, note=73, velocity=0, time=17),
    Message('note_on', channel=8, note=69, velocity=55, time=3),
    Message('note_on', channel=8, note=68, velocity=55, time=22),
    Message('note_on', channel=8, note=69, velocity=0, time=2),
    Message('note_on', channel=8, note=69, velocity=55, time=16),
    Message('note_on', channel=8, note=68, velocity=0, time=3),
    Message('note_on', channel=8, note=73, velocity=55, time=16),
    Message('note_on', channel=8, note=69, velocity=0, time=6),
    Message('note_on', channel=8, note=73, velocity=0, time=13),
    Message('note_on', channel=8, note=77, velocity=55, time=2),
    Message('note_on', channel=8, note=73, velocity=55, time=19),
    Message('note_on', channel=8, note=77, velocity=0, time=7),
    Message('note_on', channel=8, note=69, velocity=55, time=13),
    Message('note_on', channel=8, note=73, velocity=0, time=4),
    Message('note_on', channel=8, note=91, velocity=0, time=3),
    Message('note_on', channel=8, note=69, velocity=0, time=13),
    Message('note_on', channel=8, note=77, velocity=55, time=2),
    Message('note_on', channel=8, note=88, velocity=64, time=0),
    Message('note_on', channel=8, note=73, velocity=55, time=20),
    Message('note_on', channel=8, note=77, velocity=0, time=8),
    Message('note_on', channel=8, note=69, velocity=55, time=11),
    Message('note_on', channel=8, note=73, velocity=0, time=2),
    Message('note_on', channel=8, note=69, velocity=0, time=15),
    Message('note_on', channel=8, note=73, velocity=55, time=5),
    Message('note_on', channel=8, note=69, velocity=61, time=20),
    Message('note_on', channel=8, note=73, velocity=0, time=8),
    Message('note_on', channel=8, note=69, velocity=0, time=12),
    Message('note_on', channel=8, note=65, velocity=55, time=0),
    Message('note_on', channel=8, note=73, velocity=55, time=21),
    Message('note_on', channel=8, note=65, velocity=0, time=4),
    Message('note_on', channel=8, note=69, velocity=55, time=16),
    Message('note_on', channel=8, note=73, velocity=0, time=8),
    Message('note_on', channel=8, note=69, velocity=0, time=10),
    Message('note_on', channel=8, note=65, velocity=55, time=2),
    Message('note_on', channel=8, note=69, velocity=68, time=22),
    Message('note_on', channel=8, note=65, velocity=0, time=1),
    Message('note_on', channel=8, note=69, velocity=0, time=26),
    Message('note_on', channel=8, note=65, velocity=55, time=0),
    Message('note_on', channel=8, note=65, velocity=0, time=28),
    Message('note_on', channel=8, note=73, velocity=55, time=1),
    Message('note_on', channel=8, note=73, velocity=0, time=28),
    Message('note_on', channel=8, note=71, velocity=55, time=50),
    Message('note_on', channel=8, note=71, velocity=0, time=77),
    Message('note_on', channel=8, note=64, velocity=55, time=13),
    Message('note_on', channel=8, note=72, velocity=74, time=76),
    Message('note_on', channel=8, note=64, velocity=0, time=11),
    Message('note_on', channel=8, note=72, velocity=0, time=65),
    Message('note_on', channel=8, note=71, velocity=55, time=3),
    Message('note_on', channel=8, note=71, velocity=0, time=88),
    Message('note_on', channel=8, note=64, velocity=55, time=5),
    Message('note_on', channel=8, note=72, velocity=69, time=65),
    Message('note_on', channel=8, note=64, velocity=0, time=27),
    Message('note_on', channel=8, note=72, velocity=0, time=45),
    Message('note_on', channel=8, note=71, velocity=59, time=6),
    Message('note_on', channel=8, note=60, velocity=55, time=63),
    Message('note_on', channel=8, note=71, velocity=0, time=22),
    Message('note_on', channel=8, note=64, velocity=55, time=6),
    Message('note_on', channel=8, note=72, velocity=77, time=69),
    Message('note_on', channel=8, note=64, velocity=0, time=2),
    Message('note_on', channel=8, note=60, velocity=0, time=17),
    Message('note_on', channel=8, note=71, velocity=59, time=34),
    Message('note_on', channel=8, note=72, velocity=0, time=30),
    Message('note_on', channel=8, note=71, velocity=0, time=34),
    Message('note_on', channel=8, note=69, velocity=63, time=1),
    Message('note_on', channel=8, note=60, velocity=56, time=24),
    Message('note_on', channel=8, note=64, velocity=63, time=35),
    Message('note_on', channel=8, note=69, velocity=0, time=13),
    Message('note_on', channel=8, note=72, velocity=69, time=51),
    Message('note_on', channel=8, note=64, velocity=0, time=12),
    Message('note_on', channel=8, note=60, velocity=0, time=4),
    Message('note_on', channel=8, note=71, velocity=55, time=47),
    Message('note_on', channel=8, note=72, velocity=0, time=23),
    Message('note_on', channel=8, note=60, velocity=63, time=34),
    Message('note_on', channel=8, note=71, velocity=0, time=1),
    Message('note_on', channel=8, note=69, velocity=55, time=0),
    Message('note_on', channel=8, note=64, velocity=63, time=63),
    Message('note_on', channel=8, note=69, velocity=0, time=15),
    Message('note_on', channel=8, note=72, velocity=74, time=45),
    Message('note_on', channel=8, note=60, velocity=0, time=6),
    Message('note_on', channel=8, note=64, velocity=0, time=6),
    Message('note_on', channel=8, note=88, velocity=0, time=29),
    Message('note_on', channel=8, note=71, velocity=59, time=18),
    Message('note_on', channel=8, note=72, velocity=0, time=17),
    Message('note_on', channel=8, note=71, velocity=0, time=37),
    Message('note_on', channel=8, note=69, velocity=63, time=1),
    Message('note_on', channel=8, note=60, velocity=69, time=8),
    Message('note_on', channel=8, note=64, velocity=69, time=53),
    Message('note_on', channel=8, note=69, velocity=0, time=18),
    Message('note_on', channel=8, note=72, velocity=77, time=44),
    Message('note_on', channel=8, note=60, velocity=0, time=10),
    Message('note_on', channel=8, note=64, velocity=0, time=7),
    Message('note_on', channel=8, note=71, velocity=55, time=41),
    Message('note_on', channel=8, note=72, velocity=0, time=22),
    Message('note_on', channel=8, note=71, velocity=0, time=33),
    Message('note_on', channel=8, note=69, velocity=55, time=3),
    Message('note_on', channel=8, note=60, velocity=63, time=7),
    Message('note_on', channel=8, note=64, velocity=74, time=52),
    Message('note_on', channel=8, note=69, velocity=0, time=17),
    Message('note_on', channel=8, note=72, velocity=77, time=45),
    Message('note_on', channel=8, note=64, velocity=0, time=8),
    Message('note_on', channel=8, note=60, velocity=0, time=1),
    Message('note_on', channel=8, note=71, velocity=59, time=52),
    Message('note_on', channel=8, note=72, velocity=0, time=15),
    Message('note_on', channel=8, note=69, velocity=55, time=42),
    Message('note_on', channel=8, note=60, velocity=55, time=6),
    Message('note_on', channel=8, note=71, velocity=0, time=1),
    Message('note_on', channel=8, note=64, velocity=63, time=56),
    Message('note_on', channel=8, note=69, velocity=0, time=22),
    Message('note_on', channel=8, note=72, velocity=77, time=38),
    Message('note_on', channel=8, note=60, velocity=0, time=9),
    Message('note_on', channel=8, note=64, velocity=0, time=5),
    Message('note_on', channel=8, note=71, velocity=59, time=46),
    Message('note_on', channel=8, note=72, velocity=0, time=13),
    Message('note_on', channel=8, note=69, velocity=63, time=44),
    Message('note_on', channel=8, note=71, velocity=0, time=1),
    Message('note_on', channel=8, note=60, velocity=55, time=4),
    Message('note_on', channel=8, note=64, velocity=63, time=57),
    Message('note_on', channel=8, note=69, velocity=0, time=17),
    Message('note_on', channel=8, note=72, velocity=69, time=44),
    Message('note_on', channel=8, note=64, velocity=0, time=5),
    Message('note_on', channel=8, note=60, velocity=0, time=6),
    Message('note_on', channel=8, note=71, velocity=55, time=49),
    Message('note_on', channel=8, note=72, velocity=0, time=15),
    Message('note_on', channel=8, note=60, velocity=55, time=33),
    Message('note_on', channel=8, note=69, velocity=55, time=9),
    Message('note_on', channel=8, note=71, velocity=0, time=4),
    Message('note_on', channel=8, note=64, velocity=59, time=57),
    Message('note_on', channel=8, note=69, velocity=0, time=13),
    Message('note_on', channel=8, note=72, velocity=69, time=48),
    Message('note_on', channel=8, note=60, velocity=0, time=9),
    Message('note_on', channel=8, note=64, velocity=0, time=1),
    Message('note_on', channel=8, note=71, velocity=59, time=51),
    Message('note_on', channel=8, note=72, velocity=0, time=17),
    Message('note_on', channel=8, note=60, velocity=55, time=36),
    Message('note_on', channel=8, note=69, velocity=55, time=7),
    Message('note_on', channel=8, note=71, velocity=0, time=1),
    Message('note_on', channel=8, note=64, velocity=59, time=60),
    Message('note_on', channel=8, note=69, velocity=0, time=15),
    Message('note_on', channel=8, note=60, velocity=0, time=38),
    Message('note_on', channel=8, note=72, velocity=74, time=7),
    Message('note_on', channel=8, note=64, velocity=0, time=8),
    Message('note_on', channel=8, note=71, velocity=63, time=51),
    Message('note_on', channel=8, note=72, velocity=0, time=16),
    Message('note_on', channel=8, note=60, velocity=63, time=37),
    Message('note_on', channel=8, note=69, velocity=59, time=4),
    Message('note_on', channel=8, note=71, velocity=0, time=1),
    Message('note_on', channel=8, note=64, velocity=63, time=59),
    Message('note_on', channel=8, note=69, velocity=0, time=16),
    Message('note_on', channel=8, note=72, velocity=69, time=46),
    Message('note_on', channel=8, note=64, velocity=0, time=10),
    Message('note_on', channel=8, note=71, velocity=59, time=50),
    Message('note_on', channel=8, note=72, velocity=0, time=26),
    Message('note_on', channel=8, note=62, velocity=85, time=27),
    Message('note_on', channel=8, note=71, velocity=0, time=5),
    Message('note_on', channel=8, note=60, velocity=0, time=0),
    Message('note_on', channel=8, note=69, velocity=55, time=1),
    Message('note_on', channel=8, note=64, velocity=55, time=60),
    Message('note_on', channel=8, note=69, velocity=0, time=15),
    Message('note_on', channel=8, note=72, velocity=74, time=47),
    Message('note_on', channel=8, note=64, velocity=61, time=2),
    Message('note_on', channel=8, note=64, velocity=0, time=1),
    Message('note_on', channel=8, note=62, velocity=0, time=4),
    Message('note_on', channel=8, note=71, velocity=59, time=52),
    Message('note_on', channel=8, note=72, velocity=0, time=6),
    Message('note_on', channel=8, note=64, velocity=0, time=0),
    Message('note_on', channel=8, note=69, velocity=55, time=52),
    Message('note_on', channel=8, note=52, velocity=77, time=5),
    Message('note_on', channel=8, note=71, velocity=0, time=5),
    Message('note_on', channel=8, note=64, velocity=74, time=50),
    Message('note_on', channel=8, note=69, velocity=0, time=20),
    Message('note_on', channel=8, note=72, velocity=69, time=41),
    Message('note_on', channel=8, note=64, velocity=0, time=12),
    Message('note_on', channel=8, note=71, velocity=63, time=48),
    Message('note_on', channel=8, note=72, velocity=0, time=15),
    Message('note_on', channel=8, note=71, velocity=0, time=43),
    Message('note_on', channel=8, note=69, velocity=55, time=1),
    Message('note_on', channel=8, note=52, velocity=0, time=6),
    Message('note_on', channel=8, note=55, velocity=77, time=0),
    Message('note_on', channel=8, note=64, velocity=69, time=51),
    Message('note_on', channel=8, note=69, velocity=0, time=14),
    Message('note_on', channel=8, note=74, velocity=69, time=52),
    Message('note_on', channel=8, note=55, velocity=0, time=3),
    Message('note_on', channel=8, note=57, velocity=77, time=4),
    Message('note_on', channel=8, note=64, velocity=0, time=5),
    Message('note_on', channel=8, note=70, velocity=59, time=46),
    Message('note_on', channel=8, note=74, velocity=0, time=17),
    Message('note_on', channel=8, note=69, velocity=55, time=42),
    Message('note_on', channel=8, note=70, velocity=0, time=20),
    Message('note_on', channel=8, note=66, velocity=55, time=43),
    Message('note_on', channel=8, note=69, velocity=0, time=15),
    Message('note_on', channel=8, note=66, velocity=0, time=42),
    Message('note_on', channel=8, note=74, velocity=74, time=3),
    Message('note_on', channel=8, note=70, velocity=63, time=60),
    Message('note_on', channel=8, note=74, velocity=0, time=8),
    Message('note_on', channel=8, note=69, velocity=63, time=52),
    Message('note_on', channel=8, note=70, velocity=0, time=1),
    Message('note_on', channel=8, note=66, velocity=55, time=57),
    Message('note_on', channel=8, note=69, velocity=0, time=8),
    Message('note_on', channel=8, note=74, velocity=69, time=54),
    Message('note_on', channel=8, note=66, velocity=0, time=1),
    Message('note_on', channel=8, note=70, velocity=55, time=59),
    Message('note_on', channel=8, note=74, velocity=0, time=12),
    Message('note_on', channel=8, note=69, velocity=69, time=48),
    Message('note_on', channel=8, note=70, velocity=0, time=11),
    Message('note_on', channel=8, note=66, velocity=59, time=48),
    Message('note_on', channel=8, note=69, velocity=0, time=1),
    Message('note_on', channel=8, note=74, velocity=63, time=60),
    Message('note_on', channel=8, note=66, velocity=0, time=10),
    Message('note_on', channel=8, note=70, velocity=55, time=50),
    Message('note_on', channel=8, note=74, velocity=0, time=18),
    Message('note_on', channel=8, note=69, velocity=59, time=42),
    Message('note_on', channel=8, note=70, velocity=0, time=22),
    Message('note_on', channel=8, note=66, velocity=59, time=37),
    Message('note_on', channel=8, note=69, velocity=0, time=5),
    Message('note_on', channel=8, note=74, velocity=55, time=56),
    Message('note_on', channel=8, note=66, velocity=0, time=29),
    Message('note_on', channel=8, note=70, velocity=55, time=31),
    Message('note_on', channel=8, note=74, velocity=0, time=15),
    Message('note_on', channel=8, note=69, velocity=55, time=46),
    Message('note_on', channel=8, note=70, velocity=0, time=15),
    Message('note_on', channel=8, note=66, velocity=63, time=44),
    Message('note_on', channel=8, note=69, velocity=0, time=2),
    Message('note_on', channel=8, note=74, velocity=69, time=58),
    Message('note_on', channel=8, note=66, velocity=0, time=13),
    Message('note_on', channel=8, note=70, velocity=59, time=47),
    Message('note_on', channel=8, note=74, velocity=0, time=21),
    Message('note_on', channel=8, note=70, velocity=0, time=36),
    Message('note_on', channel=8, note=69, velocity=55, time=4),
    Message('note_on', channel=8, note=66, velocity=59, time=59),
    Message('note_on', channel=8, note=69, velocity=0, time=6),
    Message('note_on', channel=8, note=66, velocity=0, time=42),
    Message('note_on', channel=8, note=74, velocity=55, time=14),
    Message('note_on', channel=8, note=70, velocity=55, time=62),
    Message('note_on', channel=8, note=74, velocity=0, time=10),
    Message('note_on', channel=8, note=69, velocity=69, time=50),
    Message('note_on', channel=8, note=70, velocity=0, time=26),
    Message('note_on', channel=8, note=62, velocity=59, time=34),
    Message('note_on', channel=8, note=69, velocity=0, time=15),
    Message('note_on', channel=8, note=74, velocity=59, time=45),
    Message('note_on', channel=8, note=62, velocity=0, time=18),
    Message('note_on', channel=8, note=70, velocity=63, time=42),
    Message('note_on', channel=8, note=74, velocity=0, time=20),
    Message('note_on', channel=8, note=69, velocity=63, time=40),
    Message('note_on', channel=8, note=70, velocity=0, time=13),
    Message('note_on', channel=8, note=69, velocity=0, time=43),
    Message('note_on', channel=8, note=62, velocity=59, time=0),
    Message('note_on', channel=8, note=74, velocity=74, time=61),
    Message('note_on', channel=8, note=62, velocity=0, time=14),
    Message('note_on', channel=8, note=70, velocity=63, time=48),
    Message('note_on', channel=8, note=74, velocity=0, time=14),
    Message('note_on', channel=8, note=69, velocity=63, time=43),
    Message('note_on', channel=8, note=70, velocity=0, time=7),
    Message('note_on', channel=8, note=62, velocity=55, time=52),
    Message('note_on', channel=8, note=69, velocity=0, time=23),
    Message('note_on', channel=8, note=74, velocity=63, time=38),
    Message('note_on', channel=8, note=62, velocity=0, time=15),
    Message('note_on', channel=8, note=70, velocity=55, time=43),
    Message('note_on', channel=8, note=74, velocity=0, time=29),
    Message('note_on', channel=8, note=69, velocity=59, time=32),
    Message('note_on', channel=8, note=70, velocity=0, time=15),
    Message('note_on', channel=8, note=62, velocity=55, time=46),
    Message('note_on', channel=8, note=69, velocity=0, time=9),
    Message('note_on', channel=8, note=57, velocity=0, time=1),
    Message('note_on', channel=8, note=62, velocity=0, time=31),
    Message('note_on', channel=8, note=77, velocity=59, time=19),
    Message('note_on', channel=8, note=57, velocity=55, time=12),
    Message('note_on', channel=8, note=70, velocity=63, time=48),
    Message('note_on', channel=8, note=77, velocity=0, time=6),
    Message('note_on', channel=8, note=70, velocity=0, time=52),
    Message('note_on', channel=8, note=66, velocity=55, time=7),
    Message('note_on', channel=8, note=57, velocity=0, time=34),
    Message('note_on', channel=8, note=66, velocity=0, time=11),
    Message('note_on', channel=8, note=65, velocity=59, time=3),
    Message('note_on', channel=8, note=77, velocity=63, time=66),
    Message('note_on', channel=8, note=65, velocity=0, time=5),
    Message('note_on', channel=8, note=57, velocity=69, time=1),
    Message('note_on', channel=8, note=70, velocity=63, time=54),
    Message('note_on', channel=8, note=77, velocity=0, time=6),
    Message('note_on', channel=8, note=66, velocity=55, time=50),
    Message('note_on', channel=8, note=70, velocity=0, time=3),
    Message('note_on', channel=8, note=57, velocity=0, time=29),
    Message('note_on', channel=8, note=65, velocity=69, time=25),
    Message('note_on', channel=8, note=66, velocity=0, time=3),
    Message('note_on', channel=8, note=77, velocity=77, time=60),
    Message('note_on', channel=8, note=65, velocity=0, time=5),
    Message('note_on', channel=8, note=57, velocity=63, time=5),
    Message('note_on', channel=8, note=70, velocity=69, time=47),
    Message('note_on', channel=8, note=77, velocity=0, time=14),
    Message('note_on', channel=8, note=66, velocity=77, time=44),
    Message('note_on', channel=8, note=70, velocity=0, time=7),
    Message('note_on', channel=8, note=57, velocity=0, time=27),
    Message('note_on', channel=8, note=65, velocity=111, time=22),
    Message('note_on', channel=8, note=66, velocity=0, time=1),
    Message('note_on', channel=8, note=77, velocity=88, time=65),
    Message('note_on', channel=8, note=65, velocity=0, time=2),
    Message('note_on', channel=8, note=57, velocity=77, time=13),
    Message('note_on', channel=8, note=70, velocity=74, time=43),
    Message('note_on', channel=8, note=77, velocity=0, time=18),
    Message('note_on', channel=8, note=66, velocity=74, time=44),
    Message('note_on', channel=8, note=70, velocity=0, time=5),
    Message('note_on', channel=8, note=57, velocity=0, time=25),
    Message('note_on', channel=8, note=65, velocity=77, time=36),
    Message('note_on', channel=8, note=66, velocity=0, time=4),
    Message('note_on', channel=8, note=65, velocity=0, time=40),
    Message('note_on', channel=8, note=74, velocity=74, time=16),
    Message('note_on', channel=8, note=57, velocity=81, time=11),
    Message('note_on', channel=8, note=70, velocity=69, time=45),
    Message('note_on', channel=8, note=74, velocity=0, time=8),
    Message('note_on', channel=8, note=69, velocity=69, time=56),
    Message('note_on', channel=8, note=70, velocity=0, time=17),
    Message('note_on', channel=8, note=57, velocity=0, time=14),
    Message('note_on', channel=8, note=62, velocity=69, time=29),
    Message('note_on', channel=8, note=69, velocity=0, time=12),
    Message('note_on', channel=8, note=74, velocity=69, time=55),
    Message('note_on', channel=8, note=57, velocity=74, time=2),
    Message('note_on', channel=8, note=62, velocity=0, time=4),
    Message('note_on', channel=8, note=70, velocity=63, time=51),
    Message('note_on', channel=8, note=74, velocity=0, time=14),
    Message('note_on', channel=8, note=69, velocity=74, time=40),
    Message('note_on', channel=8, note=70, velocity=0, time=16),
    Message('note_on', channel=8, note=57, velocity=0, time=5),
    Message('note_on', channel=8, note=62, velocity=69, time=39),
    Message('note_on', channel=8, note=69, velocity=0, time=15),
    Message('note_on', channel=8, note=74, velocity=77, time=48),
    Message('note_on', channel=8, note=57, velocity=77, time=7),
    Message('note_on', channel=8, note=62, velocity=0, time=4),
    Message('note_on', channel=8, note=70, velocity=74, time=43),
    Message('note_on', channel=8, note=74, velocity=0, time=16),
    Message('note_on', channel=8, note=69, velocity=63, time=38),
    Message('note_on', channel=8, note=70, velocity=0, time=15),
    Message('note_on', channel=8, note=57, velocity=0, time=9),
    Message('note_on', channel=8, note=62, velocity=55, time=41),
    Message('note_on', channel=8, note=69, velocity=0, time=14),
    Message('note_on', channel=8, note=74, velocity=77, time=46),
    Message('note_on', channel=8, note=62, velocity=0, time=12),
    Message('note_on', channel=8, note=57, velocity=96, time=3),
    Message('note_on', channel=8, note=70, velocity=69, time=44),
    Message('note_on', channel=8, note=74, velocity=0, time=19),
    Message('note_on', channel=8, note=69, velocity=63, time=37),
    Message('note_on', channel=8, note=70, velocity=0, time=14),
    Message('note_on', channel=8, note=57, velocity=0, time=22),
    Message('note_on', channel=8, note=62, velocity=69, time=26),
    Message('note_on', channel=8, note=69, velocity=0, time=8),
    Message('note_on', channel=8, note=62, velocity=0, time=45),
    Message('note_on', channel=8, note=71, velocity=77, time=17),
    Message('note_on', channel=8, note=57, velocity=63, time=5),
    Message('note_on', channel=8, note=67, velocity=63, time=53),
    Message('note_on', channel=8, note=71, velocity=0, time=10),
    Message('note_on', channel=8, note=66, velocity=74, time=50),
    Message('note_on', channel=8, note=67, velocity=0, time=8),
    Message('note_on', channel=8, note=57, velocity=0, time=26),
    Message('note_on', channel=8, note=59, velocity=69, time=28),
    Message('note_on', channel=8, note=66, velocity=0, time=10),
    Message('note_on', channel=8, note=71, velocity=77, time=49),
    Message('note_on', channel=8, note=59, velocity=0, time=2),
    Message('note_on', channel=8, note=57, velocity=68, time=1),
    Message('note_on', channel=8, note=67, velocity=74, time=52),
    Message('note_on', channel=8, note=71, velocity=0, time=8),
    Message('note_on', channel=8, note=66, velocity=55, time=49),
    Message('note_on', channel=8, note=67, velocity=0, time=8),
    Message('note_on', channel=8, note=57, velocity=0, time=31),
    Message('note_on', channel=8, note=59, velocity=74, time=21),
    Message('note_on', channel=8, note=66, velocity=0, time=16),
    Message('note_on', channel=8, note=59, velocity=0, time=45),
    Message('note_on', channel=8, note=71, velocity=88, time=2),
    Message('note_on', channel=8, note=57, velocity=55, time=4),
    Message('note_on', channel=8, note=62, velocity=54, time=33),
    Message('note_on', channel=8, note=62, velocity=0, time=27),
    Message('note_on', channel=8, note=61, velocity=73, time=3),
    Message('note_on', channel=8, note=61, velocity=0, time=27),
    Message('note_on', channel=8, note=58, velocity=73, time=3),
    Message('note_on', channel=8, note=71, velocity=0, time=6),
    Message('note_on', channel=8, note=58, velocity=0, time=21),
    Message('note_on', channel=8, note=57, velocity=91, time=3),
    Message('note_on', channel=8, note=57, velocity=0, time=15),
    Message('note_on', channel=8, note=58, velocity=73, time=15),
    Message('note_on', channel=8, note=58, velocity=0, time=27),
    Message('note_on', channel=8, note=61, velocity=73, time=3),
    Message('note_on', channel=8, note=61, velocity=0, time=27),
    Message('note_on', channel=8, note=62, velocity=74, time=3),
    Message('note_on', channel=8, note=62, velocity=0, time=27),
    Message('note_on', channel=8, note=57, velocity=92, time=3),
    Message('note_on', channel=8, note=57, velocity=0, time=3),
    Message('note_on', channel=8, note=57, velocity=0, time=0),
    Message('note_on', channel=8, note=58, velocity=74, time=27),
    Message('note_on', channel=8, note=58, velocity=0, time=27),
    Message('note_on', channel=8, note=61, velocity=74, time=3),
    Message('note_on', channel=8, note=61, velocity=0, time=27),
    Message('note_on', channel=8, note=62, velocity=74, time=3),
    Message('note_on', channel=8, note=62, velocity=0, time=27),
    Message('note_on', channel=8, note=62, velocity=54, time=33),
    Message('note_on', channel=8, note=62, velocity=0, time=27),
    Message('note_on', channel=8, note=61, velocity=75, time=3),
    Message('note_on', channel=8, note=61, velocity=0, time=27),
    Message('note_on', channel=8, note=58, velocity=75, time=3),
    Message('note_on', channel=8, note=58, velocity=0, time=27),
    Message('note_on', channel=8, note=57, velocity=93, time=3),
    Message('note_on', channel=8, note=57, velocity=0, time=27),
    Message('note_on', channel=8, note=58, velocity=75, time=3),
    Message('note_on', channel=8, note=58, velocity=0, time=27),
    Message('note_on', channel=8, note=61, velocity=75, time=3),
    Message('note_on', channel=8, note=61, velocity=0, time=27),
    Message('note_on', channel=8, note=62, velocity=75, time=3),
    Message('note_on', channel=8, note=62, velocity=0, time=27),
    Message('note_on', channel=8, note=64, velocity=94, time=3),
    Message('note_on', channel=8, note=64, velocity=0, time=27),
    Message('note_on', channel=8, note=66, velocity=76, time=3),
    Message('note_on', channel=8, note=66, velocity=0, time=27),
    Message('note_on', channel=8, note=67, velocity=76, time=3),
    Message('note_on', channel=8, note=67, velocity=0, time=27),
    Message('note_on', channel=8, note=69, velocity=76, time=3),
    Message('note_on', channel=8, note=69, velocity=0, time=27),
    Message('note_on', channel=8, note=62, velocity=57, time=93),
    Message('note_on', channel=8, note=62, velocity=0, time=27),
    Message('note_on', channel=8, note=62, velocity=96, time=3),
    Message('note_on', channel=8, note=62, velocity=0, time=27),
    Message('note_on', channel=8, note=64, velocity=77, time=3),
    Message('note_on', channel=8, note=64, velocity=0, time=27),
    Message('note_on', channel=8, note=66, velocity=77, time=3),
    Message('note_on', channel=8, note=66, velocity=0, time=27),
    Message('note_on', channel=8, note=67, velocity=57, time=3),
    Message('note_on', channel=8, note=67, velocity=0, time=27),
    Message('note_on', channel=8, note=67, velocity=96, time=3),
    Message('note_on', channel=8, note=67, velocity=0, time=27),
    Message('note_on', channel=8, note=69, velocity=78, time=3),
    Message('note_on', channel=8, note=69, velocity=0, time=27),
    Message('note_on', channel=8, note=70, velocity=78, time=3),
    Message('note_on', channel=8, note=70, velocity=0, time=27),
    Message('note_on', channel=8, note=72, velocity=78, time=3),
    Message('note_on', channel=8, note=72, velocity=0, time=27),
    Message('note_on', channel=8, note=73, velocity=58, time=33),
    Message('note_on', channel=8, note=73, velocity=0, time=27),
    Message('note_on', channel=8, note=72, velocity=79, time=3),
    Message('note_on', channel=8, note=72, velocity=0, time=27),
    Message('note_on', channel=8, note=70, velocity=79, time=3),
    Message('note_on', channel=8, note=70, velocity=0, time=27),
    Message('note_on', channel=8, note=62, velocity=99, time=3),
    Message('note_on', channel=8, note=62, velocity=0, time=27),
    Message('note_on', channel=8, note=69, velocity=59, time=63),
    Message('note_on', channel=8, note=69, velocity=0, time=27),
    Message('note_on', channel=8, note=73, velocity=99, time=3),
    Message('note_on', channel=8, note=73, velocity=0, time=27),
    Message('note_on', channel=8, note=72, velocity=80, time=3),
    Message('note_on', channel=8, note=72, velocity=0, time=27),
    Message('note_on', channel=8, note=70, velocity=81, time=3),
    Message('note_on', channel=8, note=70, velocity=0, time=27),
    Message('note_on', channel=8, note=62, velocity=81, time=3),
    Message('note_on', channel=8, note=62, velocity=0, time=27),
    Message('note_on', channel=8, note=62, velocity=60, time=93),
    Message('note_on', channel=8, note=62, velocity=0, time=27),
    Message('note_on', channel=8, note=62, velocity=101, time=3),
    Message('note_on', channel=8, note=62, velocity=0, time=27),
    Message('note_on', channel=8, note=64, velocity=83, time=3),
    Message('note_on', channel=8, note=64, velocity=0, time=27),
    Message('note_on', channel=8, note=66, velocity=83, time=3),
    Message('note_on', channel=8, note=66, velocity=0, time=27),
    Message('note_on', channel=8, note=67, velocity=83, time=3),
    Message('note_on', channel=8, note=67, velocity=0, time=27),
    Message('note_on', channel=8, note=69, velocity=102, time=3),
    Message('note_on', channel=8, note=69, velocity=0, time=27),
    Message('note_on', channel=8, note=70, velocity=83, time=3),
    Message('note_on', channel=8, note=70, velocity=0, time=27),
    Message('note_on', channel=8, note=72, velocity=83, time=3),
    Message('note_on', channel=8, note=72, velocity=0, time=27),
    Message('note_on', channel=8, note=73, velocity=83, time=3),
    Message('note_on', channel=8, note=73, velocity=0, time=27),
    Message('note_on', channel=8, note=73, velocity=62, time=33),
    Message('note_on', channel=8, note=73, velocity=0, time=27),
    Message('note_on', channel=8, note=72, velocity=83, time=3),
    Message('note_on', channel=8, note=72, velocity=0, time=27),
    Message('note_on', channel=8, note=70, velocity=104, time=3),
    Message('note_on', channel=8, note=70, velocity=0, time=27),
    Message('note_on', channel=8, note=73, velocity=62, time=33),
    Message('note_on', channel=8, note=73, velocity=0, time=27),
    Message('note_on', channel=8, note=72, velocity=85, time=3),
    Message('note_on', channel=8, note=72, velocity=0, time=27),
    Message('note_on', channel=8, note=70, velocity=85, time=3),
    Message('note_on', channel=8, note=70, velocity=0, time=27),
    Message('note_on', channel=8, note=62, velocity=105, time=3),
    Message('note_on', channel=8, note=62, velocity=0, time=27),
    Message('note_on', channel=8, note=62, velocity=62, time=63),
    Message('note_on', channel=8, note=62, velocity=0, time=27),
    Message('note_on', channel=8, note=67, velocity=106, time=3),
    Message('note_on', channel=8, note=67, velocity=0, time=27),
    Message('note_on', channel=8, note=69, velocity=86, time=3),
    Message('note_on', channel=8, note=69, velocity=0, time=27),
    Message('note_on', channel=8, note=70, velocity=86, time=3),
    Message('note_on', channel=8, note=70, velocity=0, time=27),
    Message('note_on', channel=8, note=72, velocity=86, time=3),
    Message('note_on', channel=8, note=72, velocity=0, time=27),
    Message('note_on', channel=8, note=67, velocity=107, time=63),
    Message('note_on', channel=8, note=67, velocity=0, time=27),
    Message('note_on', channel=8, note=69, velocity=87, time=3),
    Message('note_on', channel=8, note=69, velocity=0, time=27),
    Message('note_on', channel=8, note=70, velocity=118, time=3),
    Message('note_on', channel=8, note=70, velocity=0, time=27),
    Message('note_on', channel=8, note=72, velocity=87, time=3),
    Message('note_on', channel=8, note=72, velocity=0, time=27),
    Message('note_on', channel=8, note=73, velocity=87, time=3),
    Message('note_on', channel=8, note=73, velocity=0, time=27),
    Message('note_on', channel=8, note=75, velocity=87, time=3),
    Message('note_on', channel=8, note=75, velocity=0, time=27),
    Message('note_on', channel=8, note=70, velocity=119, time=0),
    Message('note_on', channel=8, note=70, velocity=0, time=27),
    Message('note_on', channel=8, note=69, velocity=119, time=6),
    Message('note_on', channel=8, note=69, velocity=0, time=27),
    Message('note_on', channel=8, note=67, velocity=105, time=3),
    Message('note_on', channel=8, note=67, velocity=0, time=27),
    Message('note_on', channel=8, note=65, velocity=106, time=3),
    Message('note_on', channel=8, note=65, velocity=0, time=27),
    Message('note_on', channel=8, note=70, velocity=106, time=3),
    Message('note_on', channel=8, note=70, velocity=0, time=27),
    Message('note_on', channel=8, note=69, velocity=106, time=3),
    Message('note_on', channel=8, note=69, velocity=0, time=27),
    Message('note_on', channel=8, note=67, velocity=106, time=3),
    Message('note_on', channel=8, note=67, velocity=0, time=27),
    Message('note_on', channel=8, note=65, velocity=106, time=3),
    Message('note_on', channel=8, note=65, velocity=0, time=27),
    Message('note_on', channel=8, note=70, velocity=106, time=3),
    Message('note_on', channel=8, note=70, velocity=0, time=27),
    Message('note_on', channel=8, note=69, velocity=106, time=3),
    Message('note_on', channel=8, note=69, velocity=0, time=27),
    Message('note_on', channel=8, note=67, velocity=106, time=3),
    Message('note_on', channel=8, note=67, velocity=0, time=27),
    Message('note_on', channel=8, note=65, velocity=106, time=3),
    Message('note_on', channel=8, note=65, velocity=0, time=27),
    Message('note_on', channel=8, note=75, velocity=106, time=3),
    Message('note_on', channel=8, note=75, velocity=0, time=27),
    Message('note_on', channel=8, note=74, velocity=106, time=3),
    Message('note_on', channel=8, note=74, velocity=0, time=27),
    Message('note_on', channel=8, note=72, velocity=106, time=3),
    Message('note_on', channel=8, note=72, velocity=0, time=27),
    Message('note_on', channel=8, note=70, velocity=106, time=3),
    Message('note_on', channel=8, note=70, velocity=0, time=27),
    Message('note_on', channel=8, note=70, velocity=108, time=3),
    Message('note_on', channel=8, note=70, velocity=0, time=27),
    Message('note_on', channel=8, note=69, velocity=108, time=3),
    Message('note_on', channel=8, note=69, velocity=0, time=27),
    Message('note_on', channel=8, note=67, velocity=108, time=3),
    Message('note_on', channel=8, note=67, velocity=0, time=27),
    Message('note_on', channel=8, note=65, velocity=108, time=3),
    Message('note_on', channel=8, note=65, velocity=0, time=27),
    Message('note_on', channel=8, note=70, velocity=108, time=3),
    Message('note_on', channel=8, note=70, velocity=0, time=27),
    Message('note_on', channel=8, note=69, velocity=108, time=3),
    Message('note_on', channel=8, note=69, velocity=0, time=27),
    Message('note_on', channel=8, note=67, velocity=108, time=3),
    Message('note_on', channel=8, note=67, velocity=0, time=27),
    Message('note_on', channel=8, note=65, velocity=108, time=3),
    Message('note_on', channel=8, note=65, velocity=0, time=27),
    Message('note_on', channel=8, note=70, velocity=108, time=3),
    Message('note_on', channel=8, note=70, velocity=0, time=27),
    Message('note_on', channel=8, note=69, velocity=108, time=3),
    Message('note_on', channel=8, note=69, velocity=0, time=27),
    Message('note_on', channel=8, note=67, velocity=108, time=3),
    Message('note_on', channel=8, note=67, velocity=0, time=27),
    Message('note_on', channel=8, note=65, velocity=108, time=3),
    Message('note_on', channel=8, note=65, velocity=0, time=27),
    Message('note_on', channel=8, note=75, velocity=109, time=3),
    Message('note_on', channel=8, note=75, velocity=0, time=27),
    Message('note_on', channel=8, note=74, velocity=109, time=3),
    Message('note_on', channel=8, note=74, velocity=0, time=27),
    Message('note_on', channel=8, note=72, velocity=109, time=3),
    Message('note_on', channel=8, note=72, velocity=0, time=27),
    Message('note_on', channel=8, note=70, velocity=109, time=3),
    Message('note_on', channel=8, note=70, velocity=0, time=27),
    Message('note_on', channel=8, note=70, velocity=109, time=3),
    Message('note_on', channel=8, note=70, velocity=0, time=27),
    Message('note_on', channel=8, note=69, velocity=109, time=3),
    Message('note_on', channel=8, note=69, velocity=0, time=27),
    Message('note_on', channel=8, note=67, velocity=109, time=3),
    Message('note_on', channel=8, note=67, velocity=0, time=27),
    Message('note_on', channel=8, note=65, velocity=109, time=3),
    Message('note_on', channel=8, note=65, velocity=0, time=27),
    Message('note_on', channel=8, note=70, velocity=109, time=3),
    Message('note_on', channel=8, note=70, velocity=0, time=27),
    Message('note_on', channel=8, note=69, velocity=109, time=3),
    Message('note_on', channel=8, note=69, velocity=0, time=27),
    Message('note_on', channel=8, note=67, velocity=109, time=3),
    Message('note_on', channel=8, note=67, velocity=0, time=27),
    Message('note_on', channel=8, note=65, velocity=109, time=3),
    Message('note_on', channel=8, note=65, velocity=0, time=27),
    Message('note_on', channel=8, note=70, velocity=109, time=3),
    Message('note_on', channel=8, note=70, velocity=0, time=27),
    Message('note_on', channel=8, note=69, velocity=110, time=3),
    Message('note_on', channel=8, note=69, velocity=0, time=27),
    Message('note_on', channel=8, note=67, velocity=110, time=3),
    Message('note_on', channel=8, note=67, velocity=0, time=27),
    Message('note_on', channel=8, note=65, velocity=110, time=3),
    Message('note_on', channel=8, note=65, velocity=0, time=27),
    Message('note_on', channel=8, note=75, velocity=110, time=3),
    Message('note_on', channel=8, note=75, velocity=0, time=27),
    Message('note_on', channel=8, note=74, velocity=110, time=3),
    Message('note_on', channel=8, note=74, velocity=0, time=27),
    Message('note_on', channel=8, note=72, velocity=110, time=3),
    Message('note_on', channel=8, note=72, velocity=0, time=27),
    Message('note_on', channel=8, note=70, velocity=110, time=3),
    Message('note_on', channel=8, note=70, velocity=0, time=27),
    Message('note_on', channel=8, note=70, velocity=110, time=3),
    Message('note_on', channel=8, note=70, velocity=0, time=27),
    Message('note_on', channel=8, note=69, velocity=110, time=3),
    Message('note_on', channel=8, note=69, velocity=0, time=27),
    Message('note_on', channel=8, note=67, velocity=110, time=3),
    Message('note_on', channel=8, note=67, velocity=0, time=27),
    Message('note_on', channel=8, note=65, velocity=110, time=3),
    Message('note_on', channel=8, note=65, velocity=0, time=27),
    Message('note_on', channel=8, note=70, velocity=110, time=3),
    Message('note_on', channel=8, note=70, velocity=0, time=27),
    Message('note_on', channel=8, note=69, velocity=111, time=3),
    Message('note_on', channel=8, note=69, velocity=0, time=27),
    Message('note_on', channel=8, note=67, velocity=111, time=3),
    Message('note_on', channel=8, note=67, velocity=0, time=27),
    Message('note_on', channel=8, note=65, velocity=111, time=3),
    Message('note_on', channel=8, note=65, velocity=0, time=27),
    Message('note_on', channel=8, note=70, velocity=111, time=3),
    Message('note_on', channel=8, note=70, velocity=0, time=27),
    Message('note_on', channel=8, note=69, velocity=111, time=3),
    Message('note_on', channel=8, note=69, velocity=0, time=27),
    Message('note_on', channel=8, note=67, velocity=111, time=3),
    Message('note_on', channel=8, note=67, velocity=0, time=27),
    Message('note_on', channel=8, note=65, velocity=111, time=3),
    Message('note_on', channel=8, note=65, velocity=0, time=27),
    Message('note_on', channel=8, note=75, velocity=111, time=3),
    Message('note_on', channel=8, note=75, velocity=0, time=27),
    Message('note_on', channel=8, note=74, velocity=88, time=3),
    Message('note_on', channel=8, note=74, velocity=0, time=27),
    Message('note_on', channel=8, note=72, velocity=88, time=3),
    Message('note_on', channel=8, note=72, velocity=0, time=27),
    Message('note_on', channel=8, note=70, velocity=88, time=3),
    Message('note_on', channel=8, note=70, velocity=0, time=27),
    Message('note_on', channel=8, note=57, velocity=88, time=5),
    Message('note_on', channel=8, note=57, velocity=0, time=27),
    Message('note_on', channel=8, note=58, velocity=89, time=1),
    Message('note_on', channel=8, note=58, velocity=0, time=27),
    Message('note_on', channel=8, note=59, velocity=89, time=8),
    Message('note_on', channel=8, note=59, velocity=0, time=27),
    Message('note_on', channel=8, note=61, velocity=91, time=3),
    Message('note_on', channel=8, note=59, velocity=91, time=25),
    Message('note_on', channel=8, note=61, velocity=0, time=2),
    Message('note_on', channel=8, note=59, velocity=0, time=25),
    Message('note_on', channel=8, note=58, velocity=91, time=3),
    Message('note_on', channel=8, note=58, velocity=0, time=27),
    Message('note_on', channel=8, note=56, velocity=91, time=3),
    Message('note_on', channel=8, note=56, velocity=0, time=27),
    Message('note_on', channel=8, note=54, velocity=91, time=3),
    Message('note_on', channel=8, note=54, velocity=0, time=27),
    Message('note_on', channel=8, note=59, velocity=91, time=3),
    Message('note_on', channel=8, note=59, velocity=0, time=27),
    Message('note_on', channel=8, note=61, velocity=93, time=3),
    Message('note_on', channel=8, note=61, velocity=0, time=27),
    Message('note_on', channel=8, note=63, velocity=93, time=3),
    Message('note_on', channel=8, note=63, velocity=0, time=27),
    Message('note_on', channel=8, note=66, velocity=93, time=3),
    Message('note_on', channel=8, note=66, velocity=0, time=27),
    Message('note_on', channel=8, note=64, velocity=93, time=3),
    Message('note_on', channel=8, note=64, velocity=0, time=27),
    Message('note_on', channel=8, note=63, velocity=93, time=3),
    Message('note_on', channel=8, note=63, velocity=0, time=27),
    Message('note_on', channel=8, note=61, velocity=93, time=3),
    Message('note_on', channel=8, note=61, velocity=0, time=27),
    Message('note_on', channel=8, note=59, velocity=95, time=3),
    Message('note_on', channel=8, note=59, velocity=0, time=27),
    Message('note_on', channel=8, note=83, velocity=70, time=8),
    Message('note_on', channel=8, note=61, velocity=95, time=5),
    Message('note_on', channel=8, note=63, velocity=95, time=25),
    Message('note_on', channel=8, note=61, velocity=0, time=2),
    Message('note_on', channel=8, note=63, velocity=0, time=25),
    Message('note_on', channel=8, note=83, velocity=0, time=3),
    Message('note_on', channel=8, note=64, velocity=95, time=0),
    Message('note_on', channel=8, note=85, velocity=70, time=19),
    Message('note_on', channel=8, note=64, velocity=0, time=8),
    Message('note_on', channel=8, note=68, velocity=95, time=3),
    Message('note_on', channel=8, note=87, velocity=70, time=7),
    Message('note_on', channel=8, note=85, velocity=0, time=3),
    Message('note_on', channel=8, note=88, velocity=70, time=5),
    Message('note_on', channel=8, note=87, velocity=0, time=7),
    Message('note_on', channel=8, note=68, velocity=0, time=5),
    Message('note_on', channel=8, note=90, velocity=72, time=2),
    Message('note_on', channel=8, note=66, velocity=97, time=1),
    Message('note_on', channel=8, note=88, velocity=0, time=3),
    Message('note_on', channel=8, note=90, velocity=0, time=13),
    Message('note_on', channel=8, note=66, velocity=0, time=11),
    Message('note_on', channel=8, note=63, velocity=97, time=3),
    Message('note_on', channel=8, note=63, velocity=0, time=27),
    Message('note_on', channel=8, note=61, velocity=97, time=3),
    Message('note_on', channel=8, note=61, velocity=0, time=27),
    Message('note_on', channel=8, note=63, velocity=97, time=3),
    Message('note_on', channel=8, note=63, velocity=0, time=27),
    Message('note_on', channel=8, note=64, velocity=97, time=3),
    Message('note_on', channel=8, note=64, velocity=0, time=27),
    Message('note_on', channel=8, note=70, velocity=97, time=3),
    Message('note_on', channel=8, note=70, velocity=0, time=27),
    Message('note_on', channel=8, note=73, velocity=99, time=3),
    Message('note_on', channel=8, note=73, velocity=0, time=27),
    Message('note_on', channel=8, note=71, velocity=99, time=3),
    Message('note_on', channel=8, note=71, velocity=0, time=27),
    Message('note_on', channel=8, note=70, velocity=99, time=3),
    Message('note_on', channel=8, note=70, velocity=0, time=27),
    Message('note_on', channel=8, note=68, velocity=99, time=3),
    Message('note_on', channel=8, note=68, velocity=0, time=27),
    Message('note_on', channel=8, note=66, velocity=99, time=3),
    Message('note_on', channel=8, note=66, velocity=0, time=27),
    Message('note_on', channel=8, note=64, velocity=99, time=3),
    Message('note_on', channel=8, note=64, velocity=0, time=27),
    Message('note_on', channel=8, note=71, velocity=101, time=3),
    Message('note_on', channel=8, note=63, velocity=101, time=0),
    Message('note_on', channel=8, note=70, velocity=101, time=25),
    Message('note_on', channel=8, note=63, velocity=0, time=2),
    Message('note_on', channel=8, note=71, velocity=0, time=0),
    Message('note_on', channel=8, note=66, velocity=101, time=3),
    Message('note_on', channel=8, note=70, velocity=0, time=22),
    Message('note_on', channel=8, note=68, velocity=101, time=3),
    Message('note_on', channel=8, note=66, velocity=0, time=2),
    Message('note_on', channel=8, note=64, velocity=101, time=3),
    Message('note_on', channel=8, note=68, velocity=0, time=22),
    Message('note_on', channel=8, note=66, velocity=101, time=3),
    Message('note_on', channel=8, note=64, velocity=0, time=2),
    Message('note_on', channel=8, note=63, velocity=101, time=3),
    Message('note_on', channel=8, note=66, velocity=0, time=22),
    Message('note_on', channel=8, note=76, velocity=101, time=0),
    Message('note_on', channel=8, note=71, velocity=101, time=3),
    Message('note_on', channel=8, note=63, velocity=0, time=2),
    Message('note_on', channel=8, note=78, velocity=101, time=1),
    Message('note_on', channel=8, note=61, velocity=101, time=2),
    Message('note_on', channel=8, note=76, velocity=0, time=5),
    Message('note_on', channel=8, note=78, velocity=0, time=9),
    Message('note_on', channel=8, note=71, velocity=0, time=8),
    Message('note_on', channel=8, note=70, velocity=101, time=3),
    Message('note_on', channel=8, note=61, velocity=0, time=2),
    Message('note_on', channel=8, note=59, velocity=101, time=3),
    Message('note_on', channel=8, note=70, velocity=0, time=22),
    Message('note_on', channel=8, note=68, velocity=104, time=3),
    Message('note_on', channel=8, note=59, velocity=0, time=2),
    Message('note_on', channel=8, note=58, velocity=104, time=3),
    Message('note_on', channel=8, note=68, velocity=0, time=22),
    Message('note_on', channel=8, note=66, velocity=102, time=3),
    Message('note_on', channel=8, note=58, velocity=0, time=2),
    Message('note_on', channel=8, note=56, velocity=104, time=3),
    Message('note_on', channel=8, note=66, velocity=0, time=22),
    Message('note_on', channel=8, note=71, velocity=104, time=3),
    Message('note_on', channel=8, note=56, velocity=0, time=2),
    Message('note_on', channel=8, note=63, velocity=104, time=3),
    Message('note_on', channel=8, note=71, velocity=0, time=22),
    Message('note_on', channel=8, note=70, velocity=85, time=3),
    Message('note_on', channel=8, note=61, velocity=104, time=0),
    Message('note_on', channel=8, note=63, velocity=0, time=2),
    Message('note_on', channel=8, note=61, velocity=0, time=25),
    Message('note_on', channel=8, note=70, velocity=0, time=0),
    Message('note_on', channel=8, note=68, velocity=85, time=3),
    Message('note_on', channel=8, note=59, velocity=104, time=0),
    Message('note_on', channel=8, note=59, velocity=0, time=27),
    Message('note_on', channel=8, note=68, velocity=0, time=0),
    Message('note_on', channel=8, note=66, velocity=85, time=3),
    Message('note_on', channel=8, note=58, velocity=104, time=0),
    Message('note_on', channel=8, note=58, velocity=0, time=27),
    Message('note_on', channel=8, note=66, velocity=0, time=0),
    Message('note_on', channel=8, note=76, velocity=106, time=3),
    Message('note_on', channel=8, note=68, velocity=106, time=5),
    Message('note_on', channel=8, note=76, velocity=0, time=22),
    Message('note_on', channel=8, note=75, velocity=87, time=3),
    Message('note_on', channel=8, note=66, velocity=106, time=0),
    Message('note_on', channel=8, note=68, velocity=0, time=2),
    Message('note_on', channel=8, note=66, velocity=0, time=25),
    Message('note_on', channel=8, note=75, velocity=0, time=0),
    Message('note_on', channel=8, note=73, velocity=87, time=3),
    Message('note_on', channel=8, note=64, velocity=106, time=0),
    Message('note_on', channel=8, note=64, velocity=0, time=27),
    Message('note_on', channel=8, note=73, velocity=0, time=0),
    Message('note_on', channel=8, note=71, velocity=87, time=3),
    Message('note_on', channel=8, note=66, velocity=106, time=5),
    Message('note_on', channel=8, note=63, velocity=106, time=20),
    Message('note_on', channel=8, note=71, velocity=0, time=2),
    Message('note_on', channel=8, note=71, velocity=106, time=3),
    Message('note_on', channel=8, note=66, velocity=0, time=2),
    Message('note_on', channel=8, note=63, velocity=0, time=20),
    Message('note_on', channel=8, note=71, velocity=0, time=5),
    Message('note_on', channel=8, note=70, velocity=87, time=3),
    Message('note_on', channel=8, note=61, velocity=106, time=0),
    Message('note_on', channel=8, note=61, velocity=0, time=27),
    Message('note_on', channel=8, note=70, velocity=0, time=0),
    Message('note_on', channel=8, note=68, velocity=89, time=3),
    Message('note_on', channel=8, note=59, velocity=108, time=0),
    Message('note_on', channel=8, note=59, velocity=0, time=27),
    Message('note_on', channel=8, note=68, velocity=0, time=0),
    Message('note_on', channel=8, note=66, velocity=89, time=3),
    Message('note_on', channel=8, note=58, velocity=108, time=0),
    Message('note_on', channel=8, note=78, velocity=108, time=16),
    Message('note_on', channel=8, note=80, velocity=108, time=7),
    Message('note_on', channel=8, note=78, velocity=0, time=4),
    Message('note_on', channel=8, note=66, velocity=0, time=0),
    Message('note_on', channel=8, note=58, velocity=0, time=0),
    Message('note_on', channel=8, note=82, velocity=108, time=1),
    Message('note_on', channel=8, note=71, velocity=108, time=2),
    Message('note_on', channel=8, note=80, velocity=0, time=4),
    Message('note_on', channel=8, note=63, velocity=108, time=1),
    Message('note_on', channel=8, note=83, velocity=108, time=1),
    Message('note_on', channel=8, note=82, velocity=0, time=5),
    Message('note_on', channel=8, note=83, velocity=0, time=13),
    Message('note_on', channel=8, note=71, velocity=0, time=3),
    Message('note_on', channel=8, note=70, velocity=89, time=3),
    Message('note_on', channel=8, note=61, velocity=108, time=0),
    Message('note_on', channel=8, note=63, velocity=0, time=2),
    Message('note_on', channel=8, note=61, velocity=0, time=25),
    Message('note_on', channel=8, note=70, velocity=0, time=0),
    Message('note_on', channel=8, note=68, velocity=89, time=3),
    Message('note_on', channel=8, note=59, velocity=108, time=0),
    Message('note_on', channel=8, note=59, velocity=0, time=27),
    Message('note_on', channel=8, note=68, velocity=0, time=0),
    Message('note_on', channel=8, note=66, velocity=89, time=3),
    Message('note_on', channel=8, note=58, velocity=108, time=0),
    Message('note_on', channel=8, note=58, velocity=0, time=27),
    Message('note_on', channel=8, note=66, velocity=0, time=0),
    Message('note_on', channel=8, note=71, velocity=110, time=3),
    Message('note_on', channel=8, note=63, velocity=110, time=0),
    Message('note_on', channel=8, note=63, velocity=0, time=27),
    Message('note_on', channel=8, note=71, velocity=0, time=0),
    Message('note_on', channel=8, note=70, velocity=91, time=3),
    Message('note_on', channel=8, note=61, velocity=110, time=0),
    Message('note_on', channel=8, note=61, velocity=0, time=27),
    Message('note_on', channel=8, note=70, velocity=0, time=0),
    Message('note_on', channel=8, note=68, velocity=91, time=3),
    Message('note_on', channel=8, note=59, velocity=110, time=0),
    Message('note_on', channel=8, note=59, velocity=0, time=27),
    Message('note_on', channel=8, note=68, velocity=0, time=0),
    Message('note_on', channel=8, note=66, velocity=91, time=3),
    Message('note_on', channel=8, note=78, velocity=110, time=0),
    Message('note_on', channel=8, note=58, velocity=110, time=0),
    Message('note_on', channel=8, note=80, velocity=110, time=9),
    Message('note_on', channel=8, note=78, velocity=0, time=2),
    Message('note_on', channel=8, note=82, velocity=110, time=12),
    Message('note_on', channel=8, note=80, velocity=0, time=1),
    Message('note_on', channel=8, note=66, velocity=0, time=3),
    Message('note_on', channel=8, note=58, velocity=0, time=0),
    Message('note_on', channel=8, note=76, velocity=110, time=3),
    Message('note_on', channel=8, note=68, velocity=110, time=0),
    Message('note_on', channel=8, note=83, velocity=110, time=5),
    Message('note_on', channel=8, note=82, velocity=0, time=1),
    Message('note_on', channel=8, note=83, velocity=0, time=15),
    Message('note_on', channel=8, note=68, velocity=0, time=6),
    Message('note_on', channel=8, note=76, velocity=0, time=0),
    Message('note_on', channel=8, note=75, velocity=91, time=3),
    Message('note_on', channel=8, note=66, velocity=110, time=0),
    Message('note_on', channel=8, note=66, velocity=0, time=27),
    Message('note_on', channel=8, note=75, velocity=0, time=0),
    Message('note_on', channel=8, note=73, velocity=106, time=3),
    Message('note_on', channel=8, note=64, velocity=127, time=0),
    Message('note_on', channel=8, note=64, velocity=0, time=27),
    Message('note_on', channel=8, note=73, velocity=0, time=0),
    Message('note_on', channel=8, note=71, velocity=106, time=3),
    Message('note_on', channel=8, note=63, velocity=127, time=5),
    Message('note_on', channel=8, note=71, velocity=0, time=22),
    Message('note_on', channel=8, note=63, velocity=0, time=5),
    Message('note_on', channel=8, note=63, velocity=123, time=3),
    Message('note_on', channel=8, note=61, velocity=117, time=27),
    Message('note_on', channel=8, note=63, velocity=0, time=6),
    Message('note_on', channel=8, note=59, velocity=111, time=25),
    Message('note_on', channel=8, note=61, velocity=0, time=4),
    Message('note_on', channel=8, note=59, velocity=0, time=22),
    Message('note_on', channel=8, note=58, velocity=111, time=5),
    Message('note_on', channel=8, note=58, velocity=0, time=30),
    Message('note_on', channel=8, note=63, velocity=123, time=2),
    Message('note_on', channel=8, note=61, velocity=118, time=29),
    Message('note_on', channel=8, note=63, velocity=0, time=3),
    Message('note_on', channel=8, note=59, velocity=112, time=29),
    Message('note_on', channel=8, note=61, velocity=0, time=3),
    Message('note_on', channel=8, note=59, velocity=0, time=26),
    Message('note_on', channel=8, note=58, velocity=112, time=1),
    Message('note_on', channel=8, note=75, velocity=120, time=27),
    Message('note_on', channel=8, note=58, velocity=0, time=4),
    Message('note_on', channel=8, note=73, velocity=119, time=25),
    Message('note_on', channel=8, note=75, velocity=0, time=3),
    Message('note_on', channel=8, note=71, velocity=113, time=28),
    Message('note_on', channel=8, note=73, velocity=0, time=10),
    Message('note_on', channel=8, note=71, velocity=0, time=16),
    Message('note_on', channel=8, note=70, velocity=113, time=5),
    Message('note_on', channel=8, note=70, velocity=0, time=32),
    Message('note_on', channel=8, note=87, velocity=118, time=3),
    Message('note_on', channel=8, note=85, velocity=118, time=29),
    Message('note_on', channel=8, note=87, velocity=0, time=2),
    Message('note_on', channel=8, note=83, velocity=114, time=28),
    Message('note_on', channel=8, note=85, velocity=0, time=10),
    Message('note_on', channel=8, note=82, velocity=114, time=15),
    Message('note_on', channel=8, note=83, velocity=0, time=7),
    Message('note_on', channel=8, note=82, velocity=0, time=26),
    Message('note_on', channel=8, note=87, velocity=116, time=0),
    Message('note_on', channel=8, note=87, velocity=0, time=31),
    Message('note_on', channel=8, note=85, velocity=121, time=0),
    Message('note_on', channel=8, note=83, velocity=125, time=26),
    Message('note_on', channel=8, note=85, velocity=0, time=4),
    Message('note_on', channel=8, note=83, velocity=0, time=24),
    Message('note_on', channel=8, note=82, velocity=125, time=1),
    Message('note_on', channel=8, note=82, velocity=0, time=31),
    Message('note_on', channel=8, note=80, velocity=125, time=5),
    Message('note_on', channel=8, note=78, velocity=127, time=29),
    Message('note_on', channel=8, note=80, velocity=0, time=1),
    Message('note_on', channel=8, note=78, velocity=0, time=28),
    Message('note_on', channel=8, note=76, velocity=127, time=0),
    Message('note_on', channel=8, note=76, velocity=0, time=26),
    Message('note_on', channel=8, note=75, velocity=127, time=4),
    Message('note_on', channel=8, note=75, velocity=0, time=25),
    Message('note_on', channel=8, note=73, velocity=127, time=5),
    Message('note_on', channel=8, note=73, velocity=0, time=28),
    Message('note_on', channel=8, note=71, velocity=127, time=2),
    Message('note_on', channel=8, note=70, velocity=127, time=12),
    Message('note_on', channel=8, note=71, velocity=0, time=14),
    Message('note_on', channel=8, note=68, velocity=127, time=9),
    Message('note_on', channel=8, note=70, velocity=0, time=4),
    Message('note_on', channel=8, note=66, velocity=127, time=16),
    Message('note_on', channel=8, note=68, velocity=0, time=11),
    Message('note_on', channel=8, note=64, velocity=127, time=10),
    Message('note_on', channel=8, note=66, velocity=0, time=5),
    Message('note_on', channel=8, note=63, velocity=127, time=14),
    Message('note_on', channel=8, note=64, velocity=0, time=6),
    Message('note_on', channel=8, note=61, velocity=127, time=10),
    Message('note_on', channel=8, note=63, velocity=0, time=9),
    Message('note_on', channel=8, note=59, velocity=127, time=10),
    Message('note_on', channel=8, note=61, velocity=0, time=7),
    Message('note_on', channel=8, note=58, velocity=127, time=11),
    Message('note_on', channel=8, note=59, velocity=0, time=2),
    Message('note_on', channel=8, note=56, velocity=127, time=15),
    Message('note_on', channel=8, note=58, velocity=0, time=9),
    Message('note_on', channel=8, note=56, velocity=0, time=12),
    Message('note_on', channel=8, note=54, velocity=127, time=0),
    Message('note_on', channel=8, note=65, velocity=108, time=20),
    Message('note_on', channel=8, note=54, velocity=0, time=3),
    Message('note_on', channel=8, note=53, velocity=127, time=4),
    Message('note_on', channel=8, note=65, velocity=0, time=10),
    Message('note_on', channel=8, note=70, velocity=109, time=3),
    Message('note_on', channel=8, note=70, velocity=0, time=19),
    Message('note_on', channel=8, note=77, velocity=109, time=0),
    Message('note_on', channel=8, note=77, velocity=0, time=10),
    Message('note_on', channel=8, note=77, velocity=102, time=10),
    Message('note_on', channel=8, note=70, velocity=102, time=20),
    Message('note_on', channel=8, note=77, velocity=0, time=1),
    Message('note_on', channel=8, note=70, velocity=0, time=14),
    Message('note_on', channel=8, note=65, velocity=102, time=5),
    Message('note_on', channel=8, note=65, velocity=0, time=14),
    Message('note_on', channel=8, note=65, velocity=102, time=6),
    Message('note_on', channel=8, note=65, velocity=0, time=15),
    Message('note_on', channel=8, note=70, velocity=102, time=5),
    Message('note_on', channel=8, note=70, velocity=0, time=17),
    Message('note_on', channel=8, note=77, velocity=111, time=3),
    Message('note_on', channel=8, note=77, velocity=0, time=13),
    Message('note_on', channel=8, note=77, velocity=112, time=7),
    Message('note_on', channel=8, note=70, velocity=112, time=20),
    Message('note_on', channel=8, note=77, velocity=0, time=1),
    Message('note_on', channel=8, note=70, velocity=0, time=15),
    Message('note_on', channel=8, note=65, velocity=112, time=4),
    Message('note_on', channel=8, note=65, velocity=0, time=11),
    Message('note_on', channel=8, note=65, velocity=112, time=9),
    Message('note_on', channel=8, note=65, velocity=0, time=16),
    Message('note_on', channel=8, note=53, velocity=0, time=2),
    Message('note_on', channel=8, note=70, velocity=112, time=2),
    Message('note_on', channel=8, note=70, velocity=0, time=18),
    Message('note_on', channel=8, note=77, velocity=112, time=2),
    Message('note_on', channel=8, note=77, velocity=0, time=11),
    Message('note_on', channel=8, note=77, velocity=112, time=9),
    Message('note_on', channel=8, note=77, velocity=0, time=20),
    Message('note_on', channel=8, note=70, velocity=112, time=0),
    Message('note_on', channel=8, note=70, velocity=0, time=16),
    Message('note_on', channel=8, note=65, velocity=113, time=4),
    Message('note_on', channel=8, note=65, velocity=0, time=13),
    Message('note_on', channel=8, note=65, velocity=113, time=7),
    Message('note_on', channel=8, note=65, velocity=0, time=20),
    Message('note_on', channel=8, note=70, velocity=113, time=0),
    Message('note_on', channel=8, note=70, velocity=0, time=18),
    Message('note_on', channel=8, note=77, velocity=113, time=2),
    Message('note_on', channel=8, note=77, velocity=0, time=10),
    Message('note_on', channel=8, note=77, velocity=114, time=10),
    Message('note_on', channel=8, note=70, velocity=114, time=20),
    Message('note_on', channel=8, note=77, velocity=0, time=4),
    Message('note_on', channel=8, note=65, velocity=114, time=12),
    Message('note_on', channel=8, note=70, velocity=0, time=1),
    Message('note_on', channel=8, note=65, velocity=0, time=9),
    Message('note_on', channel=8, note=65, velocity=114, time=19),
    Message('note_on', channel=8, note=70, velocity=114, time=15),
    Message('note_on', channel=8, note=65, velocity=0, time=4),
    Message('note_on', channel=8, note=75, velocity=116, time=16),
    Message('note_on', channel=8, note=70, velocity=0, time=1),
    Message('note_on', channel=8, note=75, velocity=0, time=10),
    Message('note_on', channel=8, note=75, velocity=116, time=9),
    Message('note_on', channel=8, note=70, velocity=116, time=20),
    Message('note_on', channel=8, note=75, velocity=0, time=2),
    Message('note_on', channel=8, note=70, velocity=0, time=12),
    Message('note_on', channel=8, note=65, velocity=116, time=2),
    Message('note_on', channel=8, note=65, velocity=0, time=10),
    Message('note_on', channel=8, note=65, velocity=116, time=14),
    Message('note_on', channel=8, note=70, velocity=116, time=15),
    Message('note_on', channel=8, note=65, velocity=0, time=3),
    Message('note_on', channel=8, note=70, velocity=0, time=13),
    Message('note_on', channel=8, note=75, velocity=116, time=5),
    Message('note_on', channel=8, note=75, velocity=0, time=10),
    Message('note_on', channel=8, note=75, velocity=117, time=17),
    Message('note_on', channel=8, note=70, velocity=117, time=17),
    Message('note_on', channel=8, note=75, velocity=0, time=3),
    Message('note_on', channel=8, note=70, velocity=0, time=13),
    Message('note_on', channel=8, note=65, velocity=117, time=2),
    Message('note_on', channel=8, note=65, velocity=0, time=11),
    Message('note_on', channel=8, note=65, velocity=117, time=11),
    Message('note_on', channel=8, note=65, velocity=0, time=18),
    Message('note_on', channel=8, note=70, velocity=118, time=2),
    Message('note_on', channel=8, note=70, velocity=0, time=15),
    Message('note_on', channel=8, note=75, velocity=118, time=5),
    Message('note_on', channel=8, note=75, velocity=0, time=10),
    Message('note_on', channel=8, note=75, velocity=118, time=10),
    Message('note_on', channel=8, note=75, velocity=0, time=20),
    Message('note_on', channel=8, note=70, velocity=118, time=0),
    Message('note_on', channel=8, note=70, velocity=0, time=16),
    Message('note_on', channel=8, note=65, velocity=118, time=5),
    Message('note_on', channel=8, note=65, velocity=0, time=10),
    Message('note_on', channel=8, note=65, velocity=119, time=12),
    Message('note_on', channel=8, note=70, velocity=119, time=12),
    Message('note_on', channel=8, note=65, velocity=0, time=11),
    Message('note_on', channel=8, note=70, velocity=0, time=4),
    Message('note_on', channel=8, note=75, velocity=119, time=8),
    Message('note_on', channel=8, note=75, velocity=0, time=11),
    Message('note_on', channel=8, note=75, velocity=119, time=11),
    Message('note_on', channel=8, note=70, velocity=119, time=20),
    Message('note_on', channel=8, note=75, velocity=0, time=3),
    Message('note_on', channel=8, note=65, velocity=119, time=10),
    Message('note_on', channel=8, note=70, velocity=0, time=6),
    Message('note_on', channel=8, note=65, velocity=0, time=4),
    Message('note_on', channel=8, note=63, velocity=119, time=17),
    Message('note_on', channel=8, note=70, velocity=120, time=20),
    Message('note_on', channel=8, note=63, velocity=0, time=11),
    Message('note_on', channel=8, note=70, velocity=0, time=4),
    Message('note_on', channel=8, note=75, velocity=120, time=5),
    Message('note_on', channel=8, note=75, velocity=0, time=10),
    Message('note_on', channel=8, note=75, velocity=120, time=10),
    Message('note_on', channel=8, note=70, velocity=120, time=20),
    Message('note_on', channel=8, note=75, velocity=0, time=2),
    Message('note_on', channel=8, note=70, velocity=0, time=18),
    Message('note_on', channel=8, note=63, velocity=121, time=0),
    Message('note_on', channel=8, note=63, velocity=0, time=9),
    Message('note_on', channel=8, note=63, velocity=121, time=11),
    Message('note_on', channel=8, note=63, velocity=0, time=17),
    Message('note_on', channel=8, note=68, velocity=121, time=3),
    Message('note_on', channel=8, note=75, velocity=121, time=20),
    Message('note_on', channel=8, note=68, velocity=0, time=1),
    Message('note_on', channel=8, note=75, velocity=0, time=8),
    Message('note_on', channel=8, note=75, velocity=122, time=11),
    Message('note_on', channel=8, note=75, velocity=0, time=20),
    Message('note_on', channel=8, note=68, velocity=122, time=0),
    Message('note_on', channel=8, note=68, velocity=0, time=20),
    Message('note_on', channel=8, note=63, velocity=123, time=0),
    Message('note_on', channel=8, note=63, velocity=0, time=11),
    Message('note_on', channel=8, note=72, velocity=87, time=6),
    Message('note_on', channel=8, note=63, velocity=123, time=3),
    Message('note_on', channel=8, note=63, velocity=0, time=20),
    Message('note_on', channel=8, note=72, velocity=0, time=0),
    Message('note_on', channel=8, note=65, velocity=123, time=0),
    Message('note_on', channel=8, note=74, velocity=91, time=1),
    Message('note_on', channel=8, note=65, velocity=0, time=17),
    Message('note_on', channel=8, note=67, velocity=122, time=2),
    Message('note_on', channel=8, note=74, velocity=0, time=1),
    Message('note_on', channel=8, note=75, velocity=97, time=1),
    Message('note_on', channel=8, note=67, velocity=0, time=3),
    Message('note_on', channel=8, note=75, velocity=0, time=15),
    Message('note_on', channel=8, note=68, velocity=121, time=0),
    Message('note_on', channel=8, note=77, velocity=101, time=2),
    Message('note_on', channel=8, note=77, velocity=0, time=16),
    Message('note_on', channel=8, note=79, velocity=104, time=2),
    Message('note_on', channel=8, note=70, velocity=120, time=0),
    Message('note_on', channel=8, note=68, velocity=0, time=2),
    Message('note_on', channel=8, note=79, velocity=0, time=16),
    Message('note_on', channel=8, note=81, velocity=108, time=1),
    Message('note_on', channel=8, note=70, velocity=0, time=1),
    Message('note_on', channel=8, note=72, velocity=120, time=0),
    Message('note_on', channel=8, note=72, velocity=0, time=14),
    Message('note_on', channel=8, note=81, velocity=0, time=3),
    Message('note_on', channel=8, note=73, velocity=120, time=3),
    Message('note_on', channel=8, note=82, velocity=111, time=1),
    Message('note_on', channel=8, note=73, velocity=0, time=18),
    Message('note_on', channel=8, note=82, velocity=0, time=1),
    Message('note_on', channel=8, note=75, velocity=116, time=0),
    Message('note_on', channel=8, note=84, velocity=117, time=2),
    Message('note_on', channel=8, note=84, velocity=0, time=18),
    Message('note_on', channel=8, note=75, velocity=0, time=0),
    Message('note_on', channel=8, note=77, velocity=114, time=0),
    Message('note_on', channel=8, note=86, velocity=121, time=1),
    Message('note_on', channel=8, note=77, velocity=0, time=10),
    Message('note_on', channel=8, note=86, velocity=0, time=8),
    Message('note_on', channel=8, note=87, velocity=125, time=1),
    Message('note_on', channel=8, note=79, velocity=114, time=0),
    Message('note_on', channel=8, note=87, velocity=0, time=15),
    Message('note_on', channel=8, note=89, velocity=127, time=3),
    Message('note_on', channel=8, note=79, velocity=0, time=3),
    Message('note_on', channel=8, note=80, velocity=110, time=0),
    Message('note_on', channel=8, note=89, velocity=0, time=13),
    Message('note_on', channel=8, note=80, velocity=0, time=2),
    Message('note_on', channel=8, note=91, velocity=127, time=2),
    Message('note_on', channel=8, note=81, velocity=85, time=2),
    Message('note_on', channel=8, note=91, velocity=0, time=9),
    Message('note_on', channel=8, note=93, velocity=122, time=14),
    Message('note_on', channel=8, note=81, velocity=0, time=4),
    Message('note_on', channel=8, note=74, velocity=106, time=478),
    Message('note_on', channel=8, note=67, velocity=95, time=0),
    Message('note_on', channel=8, note=69, velocity=95, time=5),
    Message('note_on', channel=8, note=95, velocity=91, time=238),
    Message('note_on', channel=8, note=93, velocity=0, time=10),
    Message('note_on', channel=8, note=74, velocity=0, time=217),
    Message('note_on', channel=8, note=67, velocity=0, time=0),
    Message('note_on', channel=8, note=69, velocity=0, time=5),
    Message('note_on', channel=8, note=72, velocity=100, time=5),
    Message('note_on', channel=8, note=79, velocity=115, time=0),
    Message('note_on', channel=8, note=100, velocity=88, time=5),
    Message('note_on', channel=8, note=74, velocity=100, time=5),
    Message('note_on', channel=8, note=79, velocity=0, time=460),
    Message('note_on', channel=8, note=72, velocity=0, time=0),
    Message('note_on', channel=8, note=105, velocity=87, time=8),
    Message('note_on', channel=8, note=74, velocity=0, time=2),
    Message('note_on', channel=8, note=77, velocity=103, time=0),
    Message('note_on', channel=8, note=79, velocity=104, time=0),
    Message('note_on', channel=8, note=84, velocity=114, time=0),
    Message('note_on', channel=8, note=81, velocity=123, time=396),
    Message('note_on', channel=8, note=83, velocity=123, time=19),
    Message('note_on', channel=8, note=81, velocity=0, time=11),
    Message('note_on', channel=8, note=95, velocity=0, time=8),
    Message('note_on', channel=8, note=100, velocity=0, time=1),
    Message('note_on', channel=8, note=84, velocity=123, time=0),
    Message('note_on', channel=8, note=83, velocity=0, time=15),
    Message('note_on', channel=8, note=85, velocity=123, time=6),
    Message('note_on', channel=8, note=84, velocity=0, time=14),
    Message('note_on', channel=8, note=79, velocity=0, time=5),
    Message('note_on', channel=8, note=77, velocity=0, time=0),
    Message('note_on', channel=8, note=86, velocity=123, time=0),
    Message('note_on', channel=8, note=81, velocity=123, time=0),
    Message('note_on', channel=8, note=74, velocity=123, time=1),
    Message('note_on', channel=8, note=85, velocity=0, time=15),
    Message('note_on', channel=8, note=105, velocity=0, time=8),
    Message('note_on', channel=8, note=81, velocity=0, time=53),
    Message('note_on', channel=8, note=86, velocity=0, time=0),
    Message('note_on', channel=8, note=74, velocity=0, time=1),
    Message('note_on', channel=8, note=50, velocity=124, time=43),
    Message('note_on', channel=8, note=38, velocity=124, time=0),
    Message('note_on', channel=8, note=38, velocity=0, time=13),
    Message('note_on', channel=8, note=50, velocity=0, time=0),
    Message('note_on', channel=8, note=38, velocity=124, time=27),
    Message('note_on', channel=8, note=50, velocity=124, time=0),
    Message('note_on', channel=8, note=50, velocity=0, time=13),
    Message('note_on', channel=8, note=38, velocity=0, time=2),
    Message('note_on', channel=8, note=50, velocity=124, time=25),
    Message('note_on', channel=8, note=38, velocity=124, time=0),
    Message('note_on', channel=8, note=38, velocity=0, time=14),
    Message('note_on', channel=8, note=50, velocity=0, time=2),
    Message('note_on', channel=8, note=50, velocity=124, time=24),
    Message('note_on', channel=8, note=38, velocity=124, time=0),
    Message('note_on', channel=8, note=38, velocity=0, time=44),
    Message('note_on', channel=8, note=50, velocity=0, time=2),
    Message('note_on', channel=8, note=84, velocity=0, time=108),
    MetaMessage('end_of_track', time=0)]),
  MidiTrack([
    MetaMessage('midi_port', port=1, time=0),
    MetaMessage('track_name', name='String 2', time=0),
    Message('program_change', channel=10, program=48, time=0),
    Message('control_change', channel=10, control=7, value=108, time=0),
    Message('control_change', channel=10, control=10, value=83, time=0),
    Message('control_change', channel=10, control=18, value=64, time=15),
    Message('note_on', channel=10, note=62, velocity=114, time=465),
    Message('note_on', channel=10, note=34, velocity=114, time=0),
    Message('note_on', channel=10, note=46, velocity=114, time=0),
    Message('note_on', channel=10, note=70, velocity=114, time=0),
    Message('note_on', channel=10, note=62, velocity=0, time=150),
    Message('note_on', channel=10, note=70, velocity=0, time=45),
    Message('note_on', channel=10, note=46, velocity=0, time=7),
    Message('note_on', channel=10, note=34, velocity=0, time=28),
    Message('note_on', channel=10, note=41, velocity=99, time=1401),
    Message('note_on', channel=10, note=34, velocity=99, time=0),
    Message('note_on', channel=10, note=34, velocity=0, time=4),
    Message('note_on', channel=10, note=41, velocity=0, time=2),
    Message('note_on', channel=10, note=34, velocity=99, time=13),
    Message('note_on', channel=10, note=41, velocity=99, time=0),
    Message('note_on', channel=10, note=41, velocity=0, time=2),
    Message('note_on', channel=10, note=34, velocity=0, time=2),
    Message('note_on', channel=10, note=41, velocity=99, time=15),
    Message('note_on', channel=10, note=34, velocity=99, time=0),
    Message('note_on', channel=10, note=34, velocity=0, time=144),
    Message('note_on', channel=10, note=41, velocity=0, time=2),
    Message('note_on', channel=10, note=41, velocity=99, time=45),
    Message('note_on', channel=10, note=50, velocity=99, time=0),
    Message('note_on', channel=10, note=34, velocity=99, time=2),
    Message('note_on', channel=10, note=58, velocity=107, time=0),
    Message('note_on', channel=10, note=58, velocity=0, time=8),
    Message('note_on', channel=10, note=34, velocity=0, time=0),
    Message('note_on', channel=10, note=41, velocity=0, time=0),
    Message('note_on', channel=10, note=50, velocity=0, time=1),
    Message('note_on', channel=10, note=58, velocity=107, time=9),
    Message('note_on', channel=10, note=50, velocity=99, time=0),
    Message('note_on', channel=10, note=34, velocity=99, time=0),
    Message('note_on', channel=10, note=41, velocity=99, time=0),
    Message('note_on', channel=10, note=41, velocity=0, time=8),
    Message('note_on', channel=10, note=34, velocity=0, time=0),
    Message('note_on', channel=10, note=58, velocity=0, time=0),
    Message('note_on', channel=10, note=50, velocity=0, time=2),
    Message('note_on', channel=10, note=50, velocity=99, time=6),
    Message('note_on', channel=10, note=41, velocity=99, time=0),
    Message('note_on', channel=10, note=34, velocity=99, time=1),
    Message('note_on', channel=10, note=58, velocity=107, time=0),
    Message('note_on', channel=10, note=41, velocity=0, time=7),
    Message('note_on', channel=10, note=58, velocity=0, time=3),
    Message('note_on', channel=10, note=34, velocity=0, time=0),
    Message('note_on', channel=10, note=50, velocity=0, time=10),
    Message('note_on', channel=10, note=58, velocity=107, time=6),
    Message('note_on', channel=10, note=34, velocity=99, time=0),
    Message('note_on', channel=10, note=41, velocity=99, time=0),
    Message('note_on', channel=10, note=50, velocity=99, time=1),
    Message('note_on', channel=10, note=41, velocity=0, time=21),
    Message('note_on', channel=10, note=58, velocity=0, time=1),
    Message('note_on', channel=10, note=34, velocity=0, time=0),
    Message('note_on', channel=10, note=50, velocity=0, time=2),
    Message('note_on', channel=10, note=41, velocity=99, time=32),
    Message('note_on', channel=10, note=29, velocity=99, time=0),
    Message('note_on', channel=10, note=56, velocity=99, time=0),
    Message('note_on', channel=10, note=58, velocity=107, time=1),
    Message('note_on', channel=10, note=56, velocity=0, time=19),
    Message('note_on', channel=10, note=41, velocity=0, time=3),
    Message('note_on', channel=10, note=29, velocity=0, time=0),
    Message('note_on', channel=10, note=58, velocity=0, time=1),
    Message('note_on', channel=10, note=29, velocity=99, time=96),
    Message('note_on', channel=10, note=56, velocity=99, time=1),
    Message('note_on', channel=10, note=53, velocity=99, time=0),
    Message('note_on', channel=10, note=56, velocity=0, time=31),
    Message('note_on', channel=10, note=29, velocity=0, time=6),
    Message('note_on', channel=10, note=53, velocity=0, time=2),
    Message('note_on', channel=10, note=29, velocity=99, time=80),
    Message('note_on', channel=10, note=56, velocity=99, time=0),
    Message('note_on', channel=10, note=58, velocity=99, time=1),
    Message('note_on', channel=10, note=58, velocity=0, time=24),
    Message('note_on', channel=10, note=56, velocity=0, time=11),
    Message('note_on', channel=10, note=29, velocity=0, time=0),
    Message('note_on', channel=10, note=58, velocity=107, time=27),
    Message('note_on', channel=10, note=63, velocity=107, time=1),
    Message('note_on', channel=10, note=29, velocity=99, time=0),
    Message('note_on', channel=10, note=56, velocity=99, time=0),
    Message('note_on', channel=10, note=56, velocity=0, time=16),
    Message('note_on', channel=10, note=63, velocity=0, time=0),
    Message('note_on', channel=10, note=58, velocity=0, time=4),
    Message('note_on', channel=10, note=29, velocity=0, time=6),
    Message('note_on', channel=10, note=29, velocity=99, time=28),
    Message('note_on', channel=10, note=58, velocity=107, time=2),
    Message('note_on', channel=10, note=63, velocity=107, time=1),
    Message('note_on', channel=10, note=56, velocity=99, time=0),
    Message('note_on', channel=10, note=56, velocity=0, time=8),
    Message('note_on', channel=10, note=63, velocity=0, time=0),
    Message('note_on', channel=10, note=58, velocity=0, time=1),
    Message('note_on', channel=10, note=29, velocity=0, time=1),
    Message('note_on', channel=10, note=58, velocity=107, time=9),
    Message('note_on', channel=10, note=63, velocity=107, time=1),
    Message('note_on', channel=10, note=29, velocity=99, time=0),
    Message('note_on', channel=10, note=56, velocity=99, time=0),
    Message('note_on', channel=10, note=56, velocity=0, time=8),
    Message('note_on', channel=10, note=63, velocity=0, time=0),
    Message('note_on', channel=10, note=29, velocity=0, time=1),
    Message('note_on', channel=10, note=58, velocity=0, time=0),
    Message('note_on', channel=10, note=58, velocity=107, time=9),
    Message('note_on', channel=10, note=29, velocity=99, time=1),
    Message('note_on', channel=10, note=56, velocity=99, time=0),
    Message('note_on', channel=10, note=63, velocity=107, time=0),
    Message('note_on', channel=10, note=63, velocity=0, time=10),
    Message('note_on', channel=10, note=58, velocity=0, time=2),
    Message('note_on', channel=10, note=29, velocity=0, time=0),
    Message('note_on', channel=10, note=56, velocity=0, time=7),
    Message('note_on', channel=10, note=58, velocity=107, time=2),
    Message('note_on', channel=10, note=53, velocity=107, time=0),
    Message('note_on', channel=10, note=34, velocity=99, time=0),
    Message('note_on', channel=10, note=46, velocity=99, time=0),
    Message('note_on', channel=10, note=50, velocity=99, time=0),
    Message('note_on', channel=10, note=50, velocity=0, time=16),
    Message('note_on', channel=10, note=58, velocity=0, time=0),
    Message('note_on', channel=10, note=34, velocity=0, time=1),
    Message('note_on', channel=10, note=53, velocity=0, time=1),
    Message('note_on', channel=10, note=46, velocity=0, time=0),
    Message('note_on', channel=10, note=50, velocity=99, time=22),
    Message('note_on', channel=10, note=58, velocity=107, time=0),
    Message('note_on', channel=10, note=53, velocity=107, time=0),
    Message('note_on', channel=10, note=34, velocity=99, time=0),
    Message('note_on', channel=10, note=46, velocity=99, time=0),
    Message('note_on', channel=10, note=58, velocity=0, time=15),
    Message('note_on', channel=10, note=50, velocity=0, time=0),
    Message('note_on', channel=10, note=34, velocity=0, time=3),
    Message('note_on', channel=10, note=53, velocity=0, time=0),
    Message('note_on', channel=10, note=46, velocity=0, time=0),
    Message('note_on', channel=10, note=50, velocity=99, time=22),
    Message('note_on', channel=10, note=58, velocity=107, time=0),
    Message('note_on', channel=10, note=53, velocity=107, time=0),
    Message('note_on', channel=10, note=46, velocity=99, time=0),
    Message('note_on', channel=10, note=34, velocity=99, time=0),
    Message('note_on', channel=10, note=46, velocity=0, time=20),
    Message('note_on', channel=10, note=53, velocity=0, time=0),
    Message('note_on', channel=10, note=50, velocity=0, time=0),
    Message('note_on', channel=10, note=58, velocity=0, time=0),
    Message('note_on', channel=10, note=34, velocity=0, time=1),
    Message('note_on', channel=10, note=58, velocity=99, time=78),
    Message('note_on', channel=10, note=29, velocity=99, time=0),
    Message('note_on', channel=10, note=56, velocity=99, time=1),
    Message('note_on', channel=10, note=51, velocity=99, time=0),
    Message('note_on', channel=10, note=56, velocity=0, time=31),
    Message('note_on', channel=10, note=58, velocity=0, time=4),
    Message('note_on', channel=10, note=51, velocity=0, time=1),
    Message('note_on', channel=10, note=29, velocity=0, time=1),
    Message('note_on', channel=10, note=29, velocity=99, time=82),
    Message('note_on', channel=10, note=56, velocity=99, time=0),
    Message('note_on', channel=10, note=51, velocity=99, time=1),
    Message('note_on', channel=10, note=58, velocity=99, time=0),
    Message('note_on', channel=10, note=58, velocity=0, time=24),
    Message('note_on', channel=10, note=51, velocity=0, time=9),
    Message('note_on', channel=10, note=56, velocity=0, time=2),
    Message('note_on', channel=10, note=29, velocity=0, time=0),
    Message('note_on', channel=10, note=51, velocity=99, time=27),
    Message('note_on', channel=10, note=58, velocity=107, time=0),
    Message('note_on', channel=10, note=63, velocity=107, time=1),
    Message('note_on', channel=10, note=29, velocity=99, time=0),
    Message('note_on', channel=10, note=56, velocity=99, time=0),
    Message('note_on', channel=10, note=56, velocity=0, time=16),
    Message('note_on', channel=10, note=63, velocity=0, time=0),
    Message('note_on', channel=10, note=51, velocity=0, time=4),
    Message('note_on', channel=10, note=58, velocity=0, time=0),
    Message('note_on', channel=10, note=29, velocity=0, time=6),
    Message('note_on', channel=10, note=29, velocity=99, time=28),
    Message('note_on', channel=10, note=51, velocity=99, time=2),
    Message('note_on', channel=10, note=58, velocity=107, time=0),
    Message('note_on', channel=10, note=63, velocity=107, time=1),
    Message('note_on', channel=10, note=56, velocity=99, time=0),
    Message('note_on', channel=10, note=56, velocity=0, time=8),
    Message('note_on', channel=10, note=63, velocity=0, time=0),
    Message('note_on', channel=10, note=58, velocity=0, time=1),
    Message('note_on', channel=10, note=51, velocity=0, time=0),
    Message('note_on', channel=10, note=29, velocity=0, time=1),
    Message('note_on', channel=10, note=51, velocity=99, time=9),
    Message('note_on', channel=10, note=58, velocity=107, time=0),
    Message('note_on', channel=10, note=63, velocity=107, time=1),
    Message('note_on', channel=10, note=29, velocity=99, time=0),
    Message('note_on', channel=10, note=56, velocity=99, time=0),
    Message('note_on', channel=10, note=56, velocity=0, time=8),
    Message('note_on', channel=10, note=63, velocity=0, time=0),
    Message('note_on', channel=10, note=51, velocity=0, time=1),
    Message('note_on', channel=10, note=58, velocity=0, time=0),
    Message('note_on', channel=10, note=29, velocity=0, time=0),
    Message('note_on', channel=10, note=51, velocity=99, time=9),
    Message('note_on', channel=10, note=58, velocity=107, time=0),
    Message('note_on', channel=10, note=29, velocity=99, time=1),
    Message('note_on', channel=10, note=56, velocity=99, time=0),
    Message('note_on', channel=10, note=63, velocity=107, time=0),
    Message('note_on', channel=10, note=63, velocity=0, time=10),
    Message('note_on', channel=10, note=56, velocity=0, time=0),
    Message('note_on', channel=10, note=51, velocity=0, time=2),
    Message('note_on', channel=10, note=58, velocity=0, time=0),
    Message('note_on', channel=10, note=29, velocity=0, time=0),
    Message('note_on', channel=10, note=58, velocity=107, time=9),
    Message('note_on', channel=10, note=53, velocity=107, time=0),
    Message('note_on', channel=10, note=34, velocity=99, time=0),
    Message('note_on', channel=10, note=46, velocity=99, time=0),
    Message('note_on', channel=10, note=51, velocity=99, time=0),
    Message('note_on', channel=10, note=51, velocity=0, time=16),
    Message('note_on', channel=10, note=58, velocity=0, time=0),
    Message('note_on', channel=10, note=34, velocity=0, time=1),
    Message('note_on', channel=10, note=53, velocity=0, time=1),
    Message('note_on', channel=10, note=46, velocity=0, time=0),
    Message('note_on', channel=10, note=50, velocity=99, time=22),
    Message('note_on', channel=10, note=58, velocity=107, time=0),
    Message('note_on', channel=10, note=53, velocity=107, time=0),
    Message('note_on', channel=10, note=34, velocity=99, time=0),
    Message('note_on', channel=10, note=46, velocity=99, time=0),
    Message('note_on', channel=10, note=58, velocity=0, time=15),
    Message('note_on', channel=10, note=50, velocity=0, time=0),
    Message('note_on', channel=10, note=34, velocity=0, time=3),
    Message('note_on', channel=10, note=53, velocity=0, time=0),
    Message('note_on', channel=10, note=46, velocity=0, time=0),
    Message('note_on', channel=10, note=50, velocity=99, time=22),
    Message('note_on', channel=10, note=58, velocity=107, time=0),
    Message('note_on', channel=10, note=53, velocity=107, time=0),
    Message('note_on', channel=10, note=46, velocity=99, time=0),
    Message('note_on', channel=10, note=34, velocity=99, time=0),
    Message('note_on', channel=10, note=46, velocity=0, time=20),
    Message('note_on', channel=10, note=53, velocity=0, time=0),
    Message('note_on', channel=10, note=50, velocity=0, time=0),
    Message('note_on', channel=10, note=58, velocity=0, time=0),
    Message('note_on', channel=10, note=34, velocity=0, time=1),
    Message('note_on', channel=10, note=41, velocity=105, time=141),
    Message('note_on', channel=10, note=41, velocity=0, time=26),
    Message('note_on', channel=10, note=41, velocity=105, time=147),
    Message('note_on', channel=10, note=41, velocity=0, time=13),
    Message('note_on', channel=10, note=41, velocity=105, time=7),
    Message('note_on', channel=10, note=41, velocity=0, time=11),
    Message('note_on', channel=10, note=41, velocity=90, time=6),
    Message('note_on', channel=10, note=41, velocity=0, time=12),
    Message('note_on', channel=10, note=41, velocity=105, time=13),
    Message('note_on', channel=10, note=41, velocity=0, time=30),
    Message('note_on', channel=10, note=41, velocity=95, time=28),
    Message('note_on', channel=10, note=41, velocity=0, time=26),
    Message('note_on', channel=10, note=46, velocity=95, time=36),
    Message('note_on', channel=10, note=34, velocity=95, time=0),
    Message('note_on', channel=10, note=34, velocity=0, time=105),
    Message('note_on', channel=10, note=46, velocity=0, time=0),
    Message('note_on', channel=10, note=45, velocity=95, time=13),
    Message('note_on', channel=10, note=33, velocity=95, time=0),
    Message('note_on', channel=10, note=33, velocity=0, time=97),
    Message('note_on', channel=10, note=45, velocity=0, time=0),
    Message('note_on', channel=10, note=45, velocity=95, time=24),
    Message('note_on', channel=10, note=33, velocity=95, time=0),
    Message('note_on', channel=10, note=45, velocity=95, time=69),
    Message('note_on', channel=10, note=33, velocity=95, time=0),
    Message('note_on', channel=10, note=33, velocity=0, time=6),
    Message('note_on', channel=10, note=45, velocity=0, time=0),
    Message('note_on', channel=10, note=46, velocity=95, time=47),
    Message('note_on', channel=10, note=34, velocity=95, time=0),
    Message('note_on', channel=10, note=33, velocity=0, time=16),
    Message('note_on', channel=10, note=45, velocity=0, time=0),
    Message('note_on', channel=10, note=46, velocity=0, time=2),
    Message('note_on', channel=10, note=34, velocity=0, time=0),
    Message('note_on', channel=10, note=46, velocity=95, time=21),
    Message('note_on', channel=10, note=34, velocity=95, time=0),
    Message('note_on', channel=10, note=34, velocity=0, time=18),
    Message('note_on', channel=10, note=46, velocity=0, time=0),
    Message('note_on', channel=10, note=45, velocity=95, time=15),
    Message('note_on', channel=10, note=33, velocity=95, time=0),
    Message('note_on', channel=10, note=33, velocity=0, time=22),
    Message('note_on', channel=10, note=45, velocity=0, time=0),
    Message('note_on', channel=10, note=43, velocity=95, time=25),
    Message('note_on', channel=10, note=31, velocity=95, time=0),
    Message('note_on', channel=10, note=31, velocity=0, time=108),
    Message('note_on', channel=10, note=43, velocity=0, time=0),
    Message('note_on', channel=10, note=43, velocity=95, time=14),
    Message('note_on', channel=10, note=31, velocity=95, time=0),
    Message('note_on', channel=10, note=31, velocity=0, time=81),
    Message('note_on', channel=10, note=43, velocity=0, time=0),
    Message('note_on', channel=10, note=51, velocity=95, time=2),
    Message('note_on', channel=10, note=39, velocity=95, time=0),
    Message('note_on', channel=10, note=39, velocity=0, time=21),
    Message('note_on', channel=10, note=51, velocity=0, time=0),
    Message('note_on', channel=10, note=51, velocity=95, time=17),
    Message('note_on', channel=10, note=39, velocity=95, time=0),
    Message('note_on', channel=10, note=39, velocity=0, time=20),
    Message('note_on', channel=10, note=51, velocity=0, time=0),
    Message('note_on', channel=10, note=50, velocity=95, time=22),
    Message('note_on', channel=10, note=38, velocity=95, time=0),
    Message('note_on', channel=10, note=38, velocity=0, time=19),
    Message('note_on', channel=10, note=50, velocity=0, time=0),
    Message('note_on', channel=10, note=48, velocity=95, time=21),
    Message('note_on', channel=10, note=36, velocity=95, time=0),
    Message('note_on', channel=10, note=36, velocity=0, time=19),
    Message('note_on', channel=10, note=48, velocity=0, time=0),
    Message('note_on', channel=10, note=46, velocity=95, time=25),
    Message('note_on', channel=10, note=34, velocity=95, time=0),
    Message('note_on', channel=10, note=34, velocity=0, time=20),
    Message('note_on', channel=10, note=46, velocity=0, time=0),
    Message('note_on', channel=10, note=45, velocity=95, time=18),
    Message('note_on', channel=10, note=33, velocity=95, time=0),
    Message('note_on', channel=10, note=33, velocity=0, time=18),
    Message('note_on', channel=10, note=45, velocity=0, time=0),
    Message('note_on', channel=10, note=43, velocity=95, time=20),
    Message('note_on', channel=10, note=31, velocity=95, time=0),
    Message('note_on', channel=10, note=31, velocity=0, time=21),
    Message('note_on', channel=10, note=43, velocity=0, time=0),
    Message('note_on', channel=10, note=41, velocity=95, time=23),
    Message('note_on', channel=10, note=29, velocity=95, time=0),
    Message('note_on', channel=10, note=29, velocity=0, time=85),
    Message('note_on', channel=10, note=41, velocity=0, time=0),
    Message('note_on', channel=10, note=43, velocity=95, time=29),
    Message('note_on', channel=10, note=31, velocity=95, time=0),
    Message('note_on', channel=10, note=31, velocity=0, time=26),
    Message('note_on', channel=10, note=43, velocity=0, time=0),
    Message('note_on', channel=10, note=45, velocity=95, time=29),
    Message('note_on', channel=10, note=33, velocity=95, time=0),
    Message('note_on', channel=10, note=33, velocity=0, time=26),
    Message('note_on', channel=10, note=45, velocity=0, time=0),
    Message('note_on', channel=10, note=46, velocity=95, time=32),
    Message('note_on', channel=10, note=34, velocity=95, time=0),
    Message('note_on', channel=10, note=34, velocity=0, time=21),
    Message('note_on', channel=10, note=46, velocity=0, time=0),
    Message('note_on', channel=10, note=45, velocity=95, time=20),
    Message('note_on', channel=10, note=33, velocity=95, time=0),
    Message('note_on', channel=10, note=33, velocity=0, time=16),
    Message('note_on', channel=10, note=45, velocity=0, time=0),
    Message('note_on', channel=10, note=43, velocity=95, time=22),
    Message('note_on', channel=10, note=31, velocity=95, time=0),
    Message('note_on', channel=10, note=31, velocity=0, time=22),
    Message('note_on', channel=10, note=43, velocity=0, time=0),
    Message('note_on', channel=10, note=41, velocity=95, time=22),
    Message('note_on', channel=10, note=29, velocity=95, time=0),
    Message('note_on', channel=10, note=29, velocity=0, time=28),
    Message('note_on', channel=10, note=41, velocity=0, time=0),
    Message('note_on', channel=10, note=46, velocity=95, time=34),
    Message('note_on', channel=10, note=34, velocity=95, time=0),
    Message('note_on', channel=10, note=34, velocity=0, time=34),
    Message('note_on', channel=10, note=46, velocity=0, time=0),
    Message('note_on', channel=10, note=53, velocity=95, time=24),
    Message('note_on', channel=10, note=41, velocity=95, time=1),
    Message('note_on', channel=10, note=56, velocity=95, time=1),
    Message('note_on', channel=10, note=56, velocity=0, time=20),
    Message('note_on', channel=10, note=55, velocity=95, time=16),
    Message('note_on', channel=10, note=55, velocity=0, time=17),
    Message('note_on', channel=10, note=56, velocity=95, time=24),
    Message('note_on', channel=10, note=53, velocity=0, time=8),
    Message('note_on', channel=10, note=41, velocity=0, time=7),
    Message('note_on', channel=10, note=56, velocity=0, time=1),
    Message('note_on', channel=10, note=29, velocity=95, time=19),
    Message('note_on', channel=10, note=41, velocity=95, time=1),
    Message('note_on', channel=10, note=53, velocity=95, time=2),
    Message('note_on', channel=10, note=41, velocity=0, time=16),
    Message('note_on', channel=10, note=29, velocity=0, time=1),
    Message('note_on', channel=10, note=29, velocity=95, time=16),
    Message('note_on', channel=10, note=41, velocity=95, time=3),
    Message('note_on', channel=10, note=29, velocity=0, time=16),
    Message('note_on', channel=10, note=41, velocity=0, time=2),
    Message('note_on', channel=10, note=29, velocity=95, time=17),
    Message('note_on', channel=10, note=41, velocity=95, time=2),
    Message('note_on', channel=10, note=29, velocity=0, time=18),
    Message('note_on', channel=10, note=41, velocity=0, time=4),
    Message('note_on', channel=10, note=29, velocity=95, time=22),
    Message('note_on', channel=10, note=41, velocity=95, time=2),
    Message('note_on', channel=10, note=41, velocity=0, time=103),
    Message('note_on', channel=10, note=29, velocity=0, time=0),
    Message('note_on', channel=10, note=65, velocity=92, time=15),
    Message('note_on', channel=10, note=29, velocity=87, time=9),
    Message('note_on', channel=10, note=53, velocity=0, time=14),
    Message('note_on', channel=10, note=29, velocity=0, time=26),
    Message('note_on', channel=10, note=65, velocity=0, time=34),
    Message('note_on', channel=10, note=65, velocity=92, time=11),
    Message('note_on', channel=10, note=65, velocity=0, time=36),
    Message('note_on', channel=10, note=67, velocity=92, time=0),
    Message('note_on', channel=10, note=29, velocity=89, time=107),
    Message('note_on', channel=10, note=67, velocity=0, time=58),
    Message('note_on', channel=10, note=67, velocity=92, time=0),
    Message('note_on', channel=10, note=75, velocity=92, time=57),
    Message('note_on', channel=10, note=29, velocity=0, time=53),
    Message('note_on', channel=10, note=74, velocity=92, time=12),
    Message('note_on', channel=10, note=75, velocity=0, time=2),
    Message('note_on', channel=10, note=67, velocity=0, time=41),
    Message('note_on', channel=10, note=74, velocity=0, time=8),
    Message('note_on', channel=10, note=72, velocity=92, time=3),
    Message('note_on', channel=10, note=29, velocity=89, time=1),
    Message('note_on', channel=10, note=70, velocity=91, time=61),
    Message('note_on', channel=10, note=72, velocity=0, time=3),
    Message('note_on', channel=10, note=70, velocity=0, time=57),
    Message('note_on', channel=10, note=70, velocity=89, time=6),
    Message('note_on', channel=10, note=72, velocity=89, time=37),
    Message('note_on', channel=10, note=70, velocity=0, time=11),
    Message('note_on', channel=10, note=29, velocity=0, time=6),
    Message('note_on', channel=10, note=72, velocity=0, time=18),
    Message('note_on', channel=10, note=74, velocity=89, time=1),
    Message('note_on', channel=10, note=74, velocity=0, time=46),
    Message('note_on', channel=10, note=72, velocity=91, time=2),
    Message('note_on', channel=10, note=29, velocity=89, time=2),
    Message('note_on', channel=10, note=72, velocity=0, time=83),
    Message('note_on', channel=10, note=67, velocity=92, time=4),
    Message('note_on', channel=10, note=67, velocity=0, time=35),
    Message('note_on', channel=10, note=69, velocity=92, time=1),
    Message('note_on', channel=10, note=29, velocity=0, time=47),
    Message('note_on', channel=10, note=69, velocity=0, time=65),
    Message('note_on', channel=10, note=29, velocity=89, time=3),
    Message('note_on', channel=10, note=65, velocity=92, time=3),
    Message('note_on', channel=10, note=65, velocity=0, time=70),
    Message('note_on', channel=10, note=65, velocity=92, time=19),
    Message('note_on', channel=10, note=67, velocity=92, time=32),
    Message('note_on', channel=10, note=65, velocity=0, time=9),
    Message('note_on', channel=10, note=29, velocity=0, time=25),
    Message('note_on', channel=10, note=29, velocity=89, time=77),
    Message('note_on', channel=10, note=67, velocity=0, time=57),
    Message('note_on', channel=10, note=67, velocity=92, time=10),
    Message('note_on', channel=10, note=75, velocity=69, time=25),
    Message('note_on', channel=10, note=67, velocity=0, time=2),
    Message('note_on', channel=10, note=75, velocity=0, time=26),
    Message('note_on', channel=10, note=75, velocity=92, time=4),
    Message('note_on', channel=10, note=29, velocity=0, time=54),
    Message('note_on', channel=10, note=75, velocity=0, time=1),
    Message('note_on', channel=10, note=74, velocity=92, time=1),
    Message('note_on', channel=10, note=74, velocity=0, time=55),
    Message('note_on', channel=10, note=72, velocity=92, time=1),
    Message('note_on', channel=10, note=29, velocity=89, time=8),
    Message('note_on', channel=10, note=72, velocity=0, time=53),
    Message('note_on', channel=10, note=70, velocity=91, time=2),
    Message('note_on', channel=10, note=77, velocity=81, time=27),
    Message('note_on', channel=10, note=70, velocity=0, time=13),
    Message('note_on', channel=10, note=77, velocity=0, time=7),
    Message('note_on', channel=10, note=77, velocity=92, time=6),
    Message('note_on', channel=10, note=29, velocity=0, time=6),
    Message('note_on', channel=10, note=37, velocity=89, time=12),
    Message('note_on', channel=10, note=77, velocity=0, time=84),
    Message('note_on', channel=10, note=72, velocity=82, time=1),
    Message('note_on', channel=10, note=72, velocity=0, time=20),
    Message('note_on', channel=10, note=37, velocity=0, time=2),
    Message('note_on', channel=10, note=72, velocity=92, time=3),
    Message('note_on', channel=10, note=29, velocity=89, time=10),
    Message('note_on', channel=10, note=29, velocity=0, time=193),
    Message('note_on', channel=10, note=41, velocity=89, time=41),
    Message('note_on', channel=10, note=72, velocity=0, time=85),
    Message('note_on', channel=10, note=65, velocity=92, time=10),
    Message('note_on', channel=10, note=41, velocity=0, time=16),
    Message('note_on', channel=10, note=39, velocity=89, time=10),
    Message('note_on', channel=10, note=67, velocity=92, time=5),
    Message('note_on', channel=10, note=65, velocity=0, time=5),
    Message('note_on', channel=10, note=67, velocity=0, time=162),
    Message('note_on', channel=10, note=67, velocity=92, time=3),
    Message('note_on', channel=10, note=39, velocity=0, time=48),
    Message('note_on', channel=10, note=75, velocity=92, time=9),
    Message('note_on', channel=10, note=67, velocity=0, time=4),
    Message('note_on', channel=10, note=36, velocity=114, time=5),
    Message('note_on', channel=10, note=74, velocity=92, time=56),
    Message('note_on', channel=10, note=75, velocity=0, time=2),
    Message('note_on', channel=10, note=74, velocity=0, time=49),
    Message('note_on', channel=10, note=72, velocity=92, time=3),
    Message('note_on', channel=10, note=60, velocity=114, time=11),
    Message('note_on', channel=10, note=60, velocity=0, time=51),
    Message('note_on', channel=10, note=70, velocity=91, time=0),
    Message('note_on', channel=10, note=72, velocity=0, time=3),
    Message('note_on', channel=10, note=62, velocity=114, time=0),
    Message('note_on', channel=10, note=70, velocity=0, time=57),
    Message('note_on', channel=10, note=48, velocity=114, time=2),
    Message('note_on', channel=10, note=36, velocity=0, time=1),
    Message('note_on', channel=10, note=70, velocity=89, time=3),
    Message('note_on', channel=10, note=63, velocity=114, time=1),
    Message('note_on', channel=10, note=62, velocity=0, time=4),
    Message('note_on', channel=10, note=72, velocity=89, time=32),
    Message('note_on', channel=10, note=70, velocity=0, time=11),
    Message('note_on', channel=10, note=72, velocity=0, time=24),
    Message('note_on', channel=10, note=74, velocity=89, time=1),
    Message('note_on', channel=10, note=74, velocity=0, time=46),
    Message('note_on', channel=10, note=72, velocity=91, time=2),
    Message('note_on', channel=10, note=53, velocity=114, time=0),
    Message('note_on', channel=10, note=48, velocity=0, time=1),
    Message('note_on', channel=10, note=72, velocity=0, time=84),
    Message('note_on', channel=10, note=67, velocity=92, time=4),
    Message('note_on', channel=10, note=67, velocity=0, time=28),
    Message('note_on', channel=10, note=69, velocity=92, time=8),
    Message('note_on', channel=10, note=63, velocity=0, time=91),
    Message('note_on', channel=10, note=53, velocity=0, time=11),
    Message('note_on', channel=10, note=69, velocity=0, time=10),
    Message('note_on', channel=10, note=41, velocity=114, time=10),
    Message('note_on', channel=10, note=53, velocity=114, time=4),
    Message('note_on', channel=10, note=41, velocity=0, time=60),
    Message('note_on', channel=10, note=53, velocity=0, time=1),
    Message('note_on', channel=10, note=41, velocity=114, time=27),
    Message('note_on', channel=10, note=53, velocity=114, time=0),
    Message('note_on', channel=10, note=53, velocity=0, time=26),
    Message('note_on', channel=10, note=41, velocity=0, time=0),
    Message('note_on', channel=10, note=36, velocity=114, time=2),
    Message('note_on', channel=10, note=48, velocity=114, time=5),
    Message('note_on', channel=10, note=36, velocity=0, time=71),
    Message('note_on', channel=10, note=48, velocity=0, time=2),
    Message('note_on', channel=10, note=38, velocity=114, time=14),
    Message('note_on', channel=10, note=50, velocity=114, time=1),
    Message('note_on', channel=10, note=38, velocity=0, time=18),
    Message('note_on', channel=10, note=50, velocity=0, time=7),
    Message('note_on', channel=10, note=39, velocity=114, time=4),
    Message('note_on', channel=10, note=51, velocity=114, time=1),
    Message('note_on', channel=10, note=51, velocity=0, time=66),
    Message('note_on', channel=10, note=39, velocity=0, time=2),
    Message('note_on', channel=10, note=53, velocity=114, time=23),
    Message('note_on', channel=10, note=41, velocity=114, time=3),
    Message('note_on', channel=10, note=41, velocity=0, time=16),
    Message('note_on', channel=10, note=53, velocity=0, time=4),
    Message('note_on', channel=10, note=54, velocity=114, time=6),
    Message('note_on', channel=10, note=42, velocity=114, time=2),
    Message('note_on', channel=10, note=54, velocity=0, time=69),
    Message('note_on', channel=10, note=42, velocity=0, time=6),
    Message('note_on', channel=10, note=44, velocity=114, time=22),
    Message('note_on', channel=10, note=56, velocity=114, time=0),
    Message('note_on', channel=10, note=44, velocity=0, time=13),
    Message('note_on', channel=10, note=56, velocity=0, time=3),
    Message('note_on', channel=10, note=46, velocity=114, time=11),
    Message('note_on', channel=10, note=58, velocity=114, time=1),
    Message('note_on', channel=10, note=46, velocity=0, time=67),
    Message('note_on', channel=10, note=58, velocity=0, time=4),
    Message('note_on', channel=10, note=53, velocity=127, time=41),
    Message('note_on', channel=10, note=53, velocity=0, time=192),
    Message('note_on', channel=10, note=53, velocity=98, time=18),
    Message('control_change', channel=10, control=7, value=76, time=10),
    Message('control_change', channel=10, control=18, value=65, time=0),
    Message('note_on', channel=10, note=53, velocity=0, time=17),
    Message('note_on', channel=10, note=53, velocity=124, time=3),
    Message('note_on', channel=10, note=53, velocity=0, time=27),
    Message('note_on', channel=10, note=53, velocity=98, time=3),
    Message('note_on', channel=10, note=53, velocity=0, time=27),
    Message('note_on', channel=10, note=53, velocity=98, time=3),
    Message('note_on', channel=10, note=53, velocity=0, time=27),
    Message('note_on', channel=10, note=53, velocity=98, time=3),
    Message('note_on', channel=10, note=53, velocity=0, time=27),
    Message('note_on', channel=10, note=53, velocity=124, time=3),
    Message('note_on', channel=10, note=53, velocity=0, time=27),
    Message('note_on', channel=10, note=53, velocity=98, time=63),
    Message('note_on', channel=10, note=53, velocity=0, time=27),
    Message('note_on', channel=10, note=53, velocity=124, time=3),
    Message('note_on', channel=10, note=53, velocity=0, time=27),
    Message('note_on', channel=10, note=53, velocity=98, time=63),
    Message('note_on', channel=10, note=53, velocity=0, time=27),
    Message('note_on', channel=10, note=53, velocity=124, time=3),
    Message('note_on', channel=10, note=53, velocity=0, time=27),
    Message('note_on', channel=10, note=53, velocity=98, time=3),
    Message('note_on', channel=10, note=53, velocity=0, time=27),
    Message('note_on', channel=10, note=53, velocity=98, time=3),
    Message('note_on', channel=10, note=53, velocity=0, time=27),
    Message('note_on', channel=10, note=53, velocity=98, time=3),
    Message('note_on', channel=10, note=53, velocity=0, time=27),
    Message('note_on', channel=10, note=53, velocity=124, time=3),
    Message('note_on', channel=10, note=53, velocity=0, time=27),
    Message('note_on', channel=10, note=53, velocity=98, time=63),
    Message('note_on', channel=10, note=53, velocity=0, time=27),
    Message('note_on', channel=10, note=53, velocity=127, time=3),
    Message('note_on', channel=10, note=53, velocity=0, time=27),
    Message('note_on', channel=10, note=53, velocity=110, time=63),
    Message('note_on', channel=10, note=53, velocity=0, time=27),
    Message('note_on', channel=10, note=53, velocity=127, time=3),
    Message('note_on', channel=10, note=53, velocity=0, time=27),
    Message('note_on', channel=10, note=53, velocity=110, time=3),
    Message('note_on', channel=10, note=53, velocity=0, time=27),
    Message('note_on', channel=10, note=53, velocity=110, time=3),
    Message('note_on', channel=10, note=53, velocity=0, time=27),
    Message('note_on', channel=10, note=53, velocity=110, time=3),
    Message('note_on', channel=10, note=53, velocity=0, time=27),
    Message('note_on', channel=10, note=53, velocity=127, time=3),
    Message('note_on', channel=10, note=53, velocity=0, time=27),
    Message('note_on', channel=10, note=53, velocity=110, time=63),
    Message('note_on', channel=10, note=53, velocity=0, time=27),
    Message('note_on', channel=10, note=53, velocity=127, time=3),
    Message('note_on', channel=10, note=53, velocity=0, time=27),
    Message('note_on', channel=10, note=53, velocity=110, time=63),
    Message('note_on', channel=10, note=53, velocity=0, time=27),
    Message('note_on', channel=10, note=53, velocity=127, time=3),
    Message('note_on', channel=10, note=53, velocity=0, time=27),
    Message('note_on', channel=10, note=53, velocity=110, time=3),
    Message('note_on', channel=10, note=53, velocity=0, time=27),
    Message('note_on', channel=10, note=53, velocity=110, time=3),
    Message('note_on', channel=10, note=53, velocity=0, time=27),
    Message('note_on', channel=10, note=53, velocity=110, time=3),
    Message('note_on', channel=10, note=53, velocity=0, time=27),
    Message('note_on', channel=10, note=53, velocity=127, time=3),
    Message('note_on', channel=10, note=53, velocity=0, time=27),
    Message('note_on', channel=10, note=53, velocity=110, time=63),
    Message('note_on', channel=10, note=53, velocity=0, time=27),
    Message('note_on', channel=10, note=53, velocity=127, time=3),
    Message('note_on', channel=10, note=53, velocity=0, time=27),
    Message('note_on', channel=10, note=53, velocity=110, time=63),
    Message('note_on', channel=10, note=53, velocity=0, time=27),
    Message('note_on', channel=10, note=49, velocity=127, time=3),
    Message('note_on', channel=10, note=49, velocity=0, time=27),
    Message('note_on', channel=10, note=49, velocity=110, time=3),
    Message('note_on', channel=10, note=49, velocity=0, time=27),
    Message('note_on', channel=10, note=49, velocity=110, time=3),
    Message('note_on', channel=10, note=49, velocity=0, time=27),
    Message('note_on', channel=10, note=49, velocity=110, time=3),
    Message('note_on', channel=10, note=49, velocity=0, time=27),
    Message('note_on', channel=10, note=53, velocity=127, time=3),
    Message('note_on', channel=10, note=53, velocity=0, time=27),
    Message('note_on', channel=10, note=53, velocity=110, time=63),
    Message('note_on', channel=10, note=53, velocity=0, time=27),
    Message('note_on', channel=10, note=53, velocity=127, time=3),
    Message('note_on', channel=10, note=53, velocity=0, time=27),
    Message('note_on', channel=10, note=53, velocity=110, time=63),
    Message('note_on', channel=10, note=53, velocity=0, time=27),
    Message('note_on', channel=10, note=49, velocity=127, time=3),
    Message('note_on', channel=10, note=49, velocity=0, time=27),
    Message('note_on', channel=10, note=49, velocity=110, time=3),
    Message('note_on', channel=10, note=49, velocity=0, time=27),
    Message('note_on', channel=10, note=49, velocity=110, time=3),
    Message('note_on', channel=10, note=49, velocity=0, time=27),
    Message('note_on', channel=10, note=49, velocity=110, time=3),
    Message('note_on', channel=10, note=49, velocity=0, time=27),
    Message('note_on', channel=10, note=53, velocity=127, time=3),
    Message('note_on', channel=10, note=53, velocity=0, time=27),
    Message('note_on', channel=10, note=53, velocity=110, time=63),
    Message('note_on', channel=10, note=53, velocity=0, time=27),
    Message('note_on', channel=10, note=53, velocity=127, time=3),
    Message('note_on', channel=10, note=53, velocity=0, time=27),
    Message('note_on', channel=10, note=53, velocity=110, time=63),
    Message('note_on', channel=10, note=53, velocity=0, time=27),
    Message('note_on', channel=10, note=49, velocity=127, time=3),
    Message('note_on', channel=10, note=49, velocity=0, time=27),
    Message('note_on', channel=10, note=49, velocity=110, time=3),
    Message('note_on', channel=10, note=49, velocity=0, time=27),
    Message('note_on', channel=10, note=49, velocity=110, time=3),
    Message('note_on', channel=10, note=49, velocity=0, time=27),
    Message('note_on', channel=10, note=49, velocity=110, time=3),
    Message('note_on', channel=10, note=49, velocity=0, time=27),
    Message('note_on', channel=10, note=53, velocity=127, time=3),
    Message('note_on', channel=10, note=53, velocity=0, time=27),
    Message('note_on', channel=10, note=53, velocity=110, time=3),
    Message('note_on', channel=10, note=53, velocity=0, time=27),
    Message('note_on', channel=10, note=53, velocity=110, time=3),
    Message('note_on', channel=10, note=53, velocity=0, time=27),
    Message('note_on', channel=10, note=53, velocity=110, time=3),
    Message('note_on', channel=10, note=53, velocity=0, time=27),
    Message('note_on', channel=10, note=48, velocity=127, time=3),
    Message('note_on', channel=10, note=48, velocity=0, time=27),
    Message('note_on', channel=10, note=48, velocity=110, time=3),
    Message('note_on', channel=10, note=48, velocity=0, time=27),
    Message('note_on', channel=10, note=48, velocity=110, time=3),
    Message('note_on', channel=10, note=48, velocity=0, time=27),
    Message('note_on', channel=10, note=48, velocity=110, time=3),
    Message('note_on', channel=10, note=48, velocity=0, time=27),
    Message('note_on', channel=10, note=55, velocity=110, time=93),
    Message('note_on', channel=10, note=55, velocity=0, time=27),
    Message('note_on', channel=10, note=55, velocity=127, time=3),
    Message('note_on', channel=10, note=55, velocity=0, time=27),
    Message('note_on', channel=10, note=55, velocity=110, time=63),
    Message('note_on', channel=10, note=55, velocity=0, time=27),
    Message('note_on', channel=10, note=55, velocity=127, time=3),
    Message('note_on', channel=10, note=55, velocity=0, time=27),
    Message('note_on', channel=10, note=55, velocity=110, time=63),
    Message('control_change', channel=10, control=18, value=65, time=10),
    Message('note_on', channel=10, note=55, velocity=0, time=17),
    Message('note_on', channel=10, note=55, velocity=127, time=3),
    Message('note_on', channel=10, note=55, velocity=0, time=27),
    Message('note_on', channel=10, note=55, velocity=110, time=3),
    Message('note_on', channel=10, note=55, velocity=0, time=27),
    Message('note_on', channel=10, note=55, velocity=110, time=3),
    Message('note_on', channel=10, note=55, velocity=0, time=27),
    Message('note_on', channel=10, note=55, velocity=110, time=3),
    Message('note_on', channel=10, note=55, velocity=0, time=27),
    Message('note_on', channel=10, note=55, velocity=127, time=3),
    Message('note_on', channel=10, note=55, velocity=0, time=27),
    Message('note_on', channel=10, note=55, velocity=110, time=63),
    Message('note_on', channel=10, note=55, velocity=0, time=27),
    Message('note_on', channel=10, note=55, velocity=127, time=3),
    Message('note_on', channel=10, note=55, velocity=0, time=27),
    Message('note_on', channel=10, note=55, velocity=110, time=63),
    Message('note_on', channel=10, note=55, velocity=0, time=27),
    Message('note_on', channel=10, note=55, velocity=127, time=3),
    Message('note_on', channel=10, note=55, velocity=0, time=27),
    Message('note_on', channel=10, note=55, velocity=110, time=3),
    Message('note_on', channel=10, note=55, velocity=0, time=27),
    Message('note_on', channel=10, note=55, velocity=110, time=3),
    Message('note_on', channel=10, note=55, velocity=0, time=27),
    Message('note_on', channel=10, note=55, velocity=110, time=3),
    Message('note_on', channel=10, note=55, velocity=0, time=27),
    Message('note_on', channel=10, note=55, velocity=127, time=3),
    Message('note_on', channel=10, note=55, velocity=0, time=27),
    Message('note_on', channel=10, note=55, velocity=110, time=63),
    Message('note_on', channel=10, note=55, velocity=0, time=27),
    Message('note_on', channel=10, note=55, velocity=127, time=3),
    Message('note_on', channel=10, note=55, velocity=0, time=27),
    Message('note_on', channel=10, note=55, velocity=110, time=63),
    Message('note_on', channel=10, note=55, velocity=0, time=27),
    Message('note_on', channel=10, note=55, velocity=127, time=3),
    Message('note_on', channel=10, note=55, velocity=0, time=27),
    Message('note_on', channel=10, note=55, velocity=110, time=3),
    Message('note_on', channel=10, note=55, velocity=0, time=27),
    Message('note_on', channel=10, note=55, velocity=110, time=3),
    Message('note_on', channel=10, note=55, velocity=0, time=27),
    Message('note_on', channel=10, note=55, velocity=110, time=3),
    Message('note_on', channel=10, note=55, velocity=0, time=27),
    Message('note_on', channel=10, note=55, velocity=127, time=3),
    Message('note_on', channel=10, note=55, velocity=0, time=27),
    Message('note_on', channel=10, note=55, velocity=110, time=63),
    Message('note_on', channel=10, note=55, velocity=0, time=27),
    Message('note_on', channel=10, note=55, velocity=127, time=3),
    Message('note_on', channel=10, note=55, velocity=0, time=27),
    Message('note_on', channel=10, note=55, velocity=110, time=63),
    Message('note_on', channel=10, note=55, velocity=0, time=27),
    Message('note_on', channel=10, note=51, velocity=127, time=3),
    Message('note_on', channel=10, note=51, velocity=0, time=27),
    Message('note_on', channel=10, note=51, velocity=110, time=3),
    Message('note_on', channel=10, note=51, velocity=0, time=27),
    Message('note_on', channel=10, note=51, velocity=110, time=3),
    Message('note_on', channel=10, note=51, velocity=0, time=27),
    Message('note_on', channel=10, note=51, velocity=110, time=3),
    Message('note_on', channel=10, note=51, velocity=0, time=27),
    Message('note_on', channel=10, note=55, velocity=127, time=3),
    Message('note_on', channel=10, note=55, velocity=0, time=27),
    Message('note_on', channel=10, note=55, velocity=110, time=63),
    Message('note_on', channel=10, note=55, velocity=0, time=27),
    Message('note_on', channel=10, note=55, velocity=127, time=3),
    Message('note_on', channel=10, note=55, velocity=0, time=27),
    Message('note_on', channel=10, note=51, velocity=127, time=93),
    Message('note_on', channel=10, note=51, velocity=0, time=27),
    Message('note_on', channel=10, note=51, velocity=110, time=3),
    Message('note_on', channel=10, note=51, velocity=0, time=27),
    Message('note_on', channel=10, note=51, velocity=110, time=3),
    Message('note_on', channel=10, note=51, velocity=0, time=27),
    Message('note_on', channel=10, note=51, velocity=110, time=3),
    Message('note_on', channel=10, note=51, velocity=0, time=27),
    Message('note_on', channel=10, note=43, velocity=127, time=14),
    Message('note_on', channel=10, note=43, velocity=0, time=59),
    Message('note_on', channel=10, note=43, velocity=127, time=60),
    Message('note_on', channel=10, note=31, velocity=127, time=0),
    Message('note_on', channel=10, note=31, velocity=0, time=10),
    Message('note_on', channel=10, note=43, velocity=0, time=0),
    Message('note_on', channel=10, note=31, velocity=127, time=48),
    Message('note_on', channel=10, note=43, velocity=127, time=0),
    Message('note_on', channel=10, note=43, velocity=0, time=10),
    Message('note_on', channel=10, note=31, velocity=0, time=0),
    Message('note_on', channel=10, note=43, velocity=127, time=10),
    Message('note_on', channel=10, note=31, velocity=127, time=0),
    Message('note_on', channel=10, note=31, velocity=0, time=10),
    Message('note_on', channel=10, note=43, velocity=0, time=0),
    Message('note_on', channel=10, note=31, velocity=127, time=9),
    Message('note_on', channel=10, note=43, velocity=127, time=0),
    Message('note_on', channel=10, note=43, velocity=0, time=8),
    Message('note_on', channel=10, note=31, velocity=0, time=0),
    Message('note_on', channel=10, note=43, velocity=127, time=15),
    Message('note_on', channel=10, note=31, velocity=127, time=0),
    Message('note_on', channel=10, note=31, velocity=0, time=18),
    Message('note_on', channel=10, note=43, velocity=0, time=0),
    Message('note_on', channel=10, note=31, velocity=127, time=42),
    Message('note_on', channel=10, note=43, velocity=127, time=0),
    Message('note_on', channel=10, note=43, velocity=0, time=11),
    Message('note_on', channel=10, note=31, velocity=0, time=0),
    Message('note_on', channel=10, note=43, velocity=127, time=9),
    Message('note_on', channel=10, note=31, velocity=127, time=0),
    Message('note_on', channel=10, note=31, velocity=0, time=10),
    Message('note_on', channel=10, note=43, velocity=0, time=0),
    Message('note_on', channel=10, note=31, velocity=127, time=10),
    Message('note_on', channel=10, note=43, velocity=127, time=0),
    Message('note_on', channel=10, note=43, velocity=0, time=10),
    Message('note_on', channel=10, note=31, velocity=0, time=0),
    Message('note_on', channel=10, note=39, velocity=127, time=9),
    Message('note_on', channel=10, note=27, velocity=127, time=0),
    Message('note_on', channel=10, note=58, velocity=127, time=2),
    Message('note_on', channel=10, note=27, velocity=0, time=8),
    Message('note_on', channel=10, note=39, velocity=0, time=0),
    Message('note_on', channel=10, note=58, velocity=0, time=5),
    Message('note_on', channel=10, note=39, velocity=127, time=4),
    Message('note_on', channel=10, note=27, velocity=127, time=0),
    Message('note_on', channel=10, note=58, velocity=127, time=3),
    Message('note_on', channel=10, note=27, velocity=0, time=8),
    Message('note_on', channel=10, note=39, velocity=0, time=0),
    Message('note_on', channel=10, note=58, velocity=0, time=2),
    Message('note_on', channel=10, note=39, velocity=127, time=6),
    Message('note_on', channel=10, note=27, velocity=127, time=0),
    Message('note_on', channel=10, note=58, velocity=127, time=5),
    Message('note_on', channel=10, note=27, velocity=0, time=5),
    Message('note_on', channel=10, note=39, velocity=0, time=0),
    Message('note_on', channel=10, note=58, velocity=0, time=5),
    Message('note_on', channel=10, note=39, velocity=127, time=6),
    Message('note_on', channel=10, note=27, velocity=127, time=0),
    Message('note_on', channel=10, note=58, velocity=127, time=3),
    Message('note_on', channel=10, note=58, velocity=0, time=11),
    Message('note_on', channel=10, note=27, velocity=0, time=0),
    Message('note_on', channel=10, note=39, velocity=0, time=0),
    Message('note_on', channel=10, note=43, velocity=127, time=49),
    Message('note_on', channel=10, note=31, velocity=127, time=0),
    Message('note_on', channel=10, note=31, velocity=0, time=11),
    Message('note_on', channel=10, note=43, velocity=0, time=0),
    Message('note_on', channel=10, note=31, velocity=127, time=109),
    Message('note_on', channel=10, note=43, velocity=127, time=0),
    Message('note_on', channel=10, note=43, velocity=0, time=8),
    Message('note_on', channel=10, note=31, velocity=0, time=0),
    Message('note_on', channel=10, note=43, velocity=127, time=52),
    Message('note_on', channel=10, note=31, velocity=127, time=0),
    Message('note_on', channel=10, note=31, velocity=0, time=10),
    Message('note_on', channel=10, note=43, velocity=0, time=0),
    Message('note_on', channel=10, note=31, velocity=127, time=10),
    Message('note_on', channel=10, note=43, velocity=127, time=0),
    Message('note_on', channel=10, note=43, velocity=0, time=9),
    Message('note_on', channel=10, note=31, velocity=0, time=0),
    Message('note_on', channel=10, note=43, velocity=127, time=11),
    Message('note_on', channel=10, note=31, velocity=127, time=0),
    Message('note_on', channel=10, note=31, velocity=0, time=11),
    Message('note_on', channel=10, note=43, velocity=0, time=0),
    Message('note_on', channel=10, note=31, velocity=127, time=9),
    Message('note_on', channel=10, note=43, velocity=127, time=0),
    Message('note_on', channel=10, note=43, velocity=0, time=10),
    Message('note_on', channel=10, note=31, velocity=0, time=0),
    Message('note_on', channel=10, note=43, velocity=127, time=54),
    Message('note_on', channel=10, note=31, velocity=127, time=0),
    Message('note_on', channel=10, note=31, velocity=0, time=11),
    Message('note_on', channel=10, note=43, velocity=0, time=0),
    Message('note_on', channel=10, note=31, velocity=127, time=9),
    Message('note_on', channel=10, note=43, velocity=127, time=0),
    Message('note_on', channel=10, note=43, velocity=0, time=10),
    Message('note_on', channel=10, note=31, velocity=0, time=0),
    Message('note_on', channel=10, note=43, velocity=127, time=8),
    Message('note_on', channel=10, note=31, velocity=127, time=0),
    Message('note_on', channel=10, note=31, velocity=0, time=12),
    Message('note_on', channel=10, note=43, velocity=0, time=0),
    Message('note_on', channel=10, note=58, velocity=127, time=6),
    Message('note_on', channel=10, note=39, velocity=127, time=2),
    Message('note_on', channel=10, note=27, velocity=127, time=0),
    Message('note_on', channel=10, note=27, velocity=0, time=10),
    Message('note_on', channel=10, note=39, velocity=0, time=0),
    Message('note_on', channel=10, note=58, velocity=0, time=0),
    Message('note_on', channel=10, note=58, velocity=127, time=8),
    Message('note_on', channel=10, note=39, velocity=127, time=0),
    Message('note_on', channel=10, note=27, velocity=127, time=0),
    Message('note_on', channel=10, note=58, velocity=0, time=10),
    Message('note_on', channel=10, note=27, velocity=0, time=3),
    Message('note_on', channel=10, note=39, velocity=0, time=0),
    Message('note_on', channel=10, note=27, velocity=127, time=6),
    Message('note_on', channel=10, note=39, velocity=127, time=0),
    Message('note_on', channel=10, note=58, velocity=127, time=1),
    Message('note_on', channel=10, note=39, velocity=0, time=10),
    Message('note_on', channel=10, note=27, velocity=0, time=0),
    Message('note_on', channel=10, note=58, velocity=0, time=1),
    Message('note_on', channel=10, note=58, velocity=127, time=8),
    Message('note_on', channel=10, note=39, velocity=127, time=0),
    Message('note_on', channel=10, note=27, velocity=127, time=0),
    Message('note_on', channel=10, note=27, velocity=0, time=12),
    Message('note_on', channel=10, note=39, velocity=0, time=0),
    Message('note_on', channel=10, note=58, velocity=0, time=2),
    Message('note_on', channel=10, note=31, velocity=127, time=167),
    Message('note_on', channel=10, note=43, velocity=127, time=0),
    Message('note_on', channel=10, note=43, velocity=0, time=11),
    Message('note_on', channel=10, note=31, velocity=0, time=0),
    Message('note_on', channel=10, note=43, velocity=127, time=51),
    Message('note_on', channel=10, note=31, velocity=127, time=0),
    Message('note_on', channel=10, note=31, velocity=0, time=10),
    Message('note_on', channel=10, note=43, velocity=0, time=0),
    Message('note_on', channel=10, note=31, velocity=127, time=10),
    Message('note_on', channel=10, note=43, velocity=127, time=0),
    Message('note_on', channel=10, note=43, velocity=0, time=10),
    Message('note_on', channel=10, note=31, velocity=0, time=0),
    Message('note_on', channel=10, note=43, velocity=127, time=9),
    Message('note_on', channel=10, note=31, velocity=127, time=0),
    Message('note_on', channel=10, note=31, velocity=0, time=11),
    Message('note_on', channel=10, note=43, velocity=0, time=0),
    Message('note_on', channel=10, note=31, velocity=127, time=8),
    Message('note_on', channel=10, note=43, velocity=127, time=0),
    Message('note_on', channel=10, note=43, velocity=0, time=10),
    Message('note_on', channel=10, note=31, velocity=0, time=0),
    Message('note_on', channel=10, note=43, velocity=127, time=50),
    Message('note_on', channel=10, note=31, velocity=127, time=0),
    Message('note_on', channel=10, note=31, velocity=0, time=11),
    Message('note_on', channel=10, note=43, velocity=0, time=0),
    Message('note_on', channel=10, note=31, velocity=127, time=9),
    Message('note_on', channel=10, note=43, velocity=127, time=0),
    Message('note_on', channel=10, note=43, velocity=0, time=11),
    Message('note_on', channel=10, note=31, velocity=0, time=0),
    Message('note_on', channel=10, note=43, velocity=127, time=8),
    Message('note_on', channel=10, note=31, velocity=127, time=0),
    Message('note_on', channel=10, note=31, velocity=0, time=12),
    Message('note_on', channel=10, note=43, velocity=0, time=0),
    Message('note_on', channel=10, note=39, velocity=127, time=9),
    Message('note_on', channel=10, note=27, velocity=127, time=0),
    Message('note_on', channel=10, note=27, velocity=0, time=10),
    Message('note_on', channel=10, note=39, velocity=0, time=0),
    Message('note_on', channel=10, note=27, velocity=127, time=8),
    Message('note_on', channel=10, note=39, velocity=127, time=0),
    Message('note_on', channel=10, note=39, velocity=0, time=14),
    Message('note_on', channel=10, note=27, velocity=0, time=0),
    Message('note_on', channel=10, note=39, velocity=127, time=6),
    Message('note_on', channel=10, note=27, velocity=127, time=0),
    Message('note_on', channel=10, note=27, velocity=0, time=11),
    Message('note_on', channel=10, note=39, velocity=0, time=0),
    Message('note_on', channel=10, note=39, velocity=127, time=10),
    Message('note_on', channel=10, note=27, velocity=127, time=0),
    Message('note_on', channel=10, note=27, velocity=0, time=13),
    Message('note_on', channel=10, note=39, velocity=0, time=0),
    Message('note_on', channel=10, note=31, velocity=127, time=50),
    Message('note_on', channel=10, note=43, velocity=127, time=0),
    Message('note_on', channel=10, note=43, velocity=0, time=12),
    Message('note_on', channel=10, note=31, velocity=0, time=0),
    Message('note_on', channel=10, note=43, velocity=127, time=105),
    Message('note_on', channel=10, note=31, velocity=127, time=0),
    Message('note_on', channel=10, note=31, velocity=0, time=11),
    Message('note_on', channel=10, note=43, velocity=0, time=0),
    Message('note_on', channel=10, note=31, velocity=127, time=49),
    Message('note_on', channel=10, note=43, velocity=127, time=0),
    Message('note_on', channel=10, note=43, velocity=0, time=11),
    Message('note_on', channel=10, note=31, velocity=0, time=0),
    Message('note_on', channel=10, note=43, velocity=127, time=9),
    Message('note_on', channel=10, note=31, velocity=127, time=0),
    Message('note_on', channel=10, note=31, velocity=0, time=11),
    Message('note_on', channel=10, note=43, velocity=0, time=0),
    Message('note_on', channel=10, note=31, velocity=127, time=9),
    Message('note_on', channel=10, note=43, velocity=127, time=0),
    Message('note_on', channel=10, note=43, velocity=0, time=11),
    Message('note_on', channel=10, note=31, velocity=0, time=0),
    Message('note_on', channel=10, note=43, velocity=127, time=9),
    Message('note_on', channel=10, note=31, velocity=127, time=0),
    Message('note_on', channel=10, note=31, velocity=0, time=11),
    Message('note_on', channel=10, note=43, velocity=0, time=0),
    Message('note_on', channel=10, note=31, velocity=127, time=47),
    Message('note_on', channel=10, note=43, velocity=127, time=0),
    Message('note_on', channel=10, note=43, velocity=0, time=11),
    Message('note_on', channel=10, note=31, velocity=0, time=0),
    Message('note_on', channel=10, note=43, velocity=127, time=9),
    Message('note_on', channel=10, note=31, velocity=127, time=0),
    Message('note_on', channel=10, note=31, velocity=0, time=11),
    Message('note_on', channel=10, note=43, velocity=0, time=0),
    Message('note_on', channel=10, note=31, velocity=127, time=11),
    Message('note_on', channel=10, note=43, velocity=127, time=0),
    Message('note_on', channel=10, note=43, velocity=0, time=11),
    Message('note_on', channel=10, note=31, velocity=0, time=0),
    Message('note_on', channel=10, note=39, velocity=127, time=9),
    Message('note_on', channel=10, note=27, velocity=127, time=0),
    Message('note_on', channel=10, note=27, velocity=0, time=11),
    Message('note_on', channel=10, note=39, velocity=0, time=0),
    Message('note_on', channel=10, note=39, velocity=127, time=9),
    Message('note_on', channel=10, note=27, velocity=127, time=0),
    Message('note_on', channel=10, note=27, velocity=0, time=13),
    Message('note_on', channel=10, note=39, velocity=0, time=0),
    Message('note_on', channel=10, note=39, velocity=127, time=5),
    Message('note_on', channel=10, note=27, velocity=127, time=0),
    Message('note_on', channel=10, note=27, velocity=0, time=11),
    Message('note_on', channel=10, note=39, velocity=0, time=0),
    Message('note_on', channel=10, note=39, velocity=127, time=11),
    Message('note_on', channel=10, note=27, velocity=127, time=0),
    Message('note_on', channel=10, note=27, velocity=0, time=11),
    Message('note_on', channel=10, note=39, velocity=0, time=0),
    Message('note_on', channel=10, note=31, velocity=127, time=51),
    Message('note_on', channel=10, note=43, velocity=127, time=0),
    Message('note_on', channel=10, note=43, velocity=0, time=11),
    Message('note_on', channel=10, note=31, velocity=0, time=0),
    Message('note_on', channel=10, note=43, velocity=127, time=110),
    Message('note_on', channel=10, note=31, velocity=127, time=0),
    Message('note_on', channel=10, note=31, velocity=0, time=11),
    Message('note_on', channel=10, note=43, velocity=0, time=0),
    Message('note_on', channel=10, note=31, velocity=127, time=49),
    Message('note_on', channel=10, note=43, velocity=127, time=0),
    Message('note_on', channel=10, note=43, velocity=0, time=10),
    Message('note_on', channel=10, note=31, velocity=0, time=0),
    Message('note_on', channel=10, note=43, velocity=127, time=9),
    Message('note_on', channel=10, note=31, velocity=127, time=0),
    Message('note_on', channel=10, note=31, velocity=0, time=11),
    Message('note_on', channel=10, note=43, velocity=0, time=0),
    Message('note_on', channel=10, note=31, velocity=127, time=9),
    Message('note_on', channel=10, note=43, velocity=127, time=0),
    Message('note_on', channel=10, note=43, velocity=0, time=12),
    Message('note_on', channel=10, note=31, velocity=0, time=0),
    Message('note_on', channel=10, note=43, velocity=127, time=7),
    Message('note_on', channel=10, note=31, velocity=127, time=0),
    Message('note_on', channel=10, note=31, velocity=0, time=11),
    Message('note_on', channel=10, note=43, velocity=0, time=0),
    Message('note_on', channel=10, note=31, velocity=127, time=51),
    Message('note_on', channel=10, note=43, velocity=127, time=0),
    Message('note_on', channel=10, note=43, velocity=0, time=10),
    Message('note_on', channel=10, note=31, velocity=0, time=0),
    Message('note_on', channel=10, note=43, velocity=127, time=9),
    Message('note_on', channel=10, note=31, velocity=127, time=0),
    Message('note_on', channel=10, note=31, velocity=0, time=10),
    Message('note_on', channel=10, note=43, velocity=0, time=0),
    Message('note_on', channel=10, note=31, velocity=127, time=10),
    Message('note_on', channel=10, note=43, velocity=127, time=0),
    Message('note_on', channel=10, note=43, velocity=0, time=12),
    Message('note_on', channel=10, note=31, velocity=0, time=0),
    Message('note_on', channel=10, note=58, velocity=127, time=7),
    Message('note_on', channel=10, note=39, velocity=127, time=0),
    Message('note_on', channel=10, note=27, velocity=127, time=0),
    Message('note_on', channel=10, note=27, velocity=0, time=10),
    Message('note_on', channel=10, note=39, velocity=0, time=0),
    Message('note_on', channel=10, note=58, velocity=0, time=1),
    Message('note_on', channel=10, note=58, velocity=127, time=8),
    Message('note_on', channel=10, note=39, velocity=127, time=1),
    Message('note_on', channel=10, note=27, velocity=127, time=0),
    Message('note_on', channel=10, note=58, velocity=0, time=10),
    Message('note_on', channel=10, note=27, velocity=0, time=1),
    Message('note_on', channel=10, note=39, velocity=0, time=0),
    Message('note_on', channel=10, note=58, velocity=127, time=9),
    Message('note_on', channel=10, note=39, velocity=127, time=0),
    Message('note_on', channel=10, note=27, velocity=127, time=0),
    Message('note_on', channel=10, note=27, velocity=0, time=11),
    Message('note_on', channel=10, note=39, velocity=0, time=0),
    Message('note_on', channel=10, note=58, velocity=0, time=2),
    Message('note_on', channel=10, note=58, velocity=127, time=6),
    Message('note_on', channel=10, note=39, velocity=127, time=2),
    Message('note_on', channel=10, note=27, velocity=127, time=0),
    Message('note_on', channel=10, note=27, velocity=0, time=13),
    Message('note_on', channel=10, note=39, velocity=0, time=0),
    Message('note_on', channel=10, note=58, velocity=0, time=0),
    Message('note_on', channel=10, note=39, velocity=127, time=43),
    Message('note_on', channel=10, note=51, velocity=127, time=0),
    Message('note_on', channel=10, note=51, velocity=0, time=13),
    Message('note_on', channel=10, note=39, velocity=0, time=3),
    Message('note_on', channel=10, note=48, velocity=127, time=106),
    Message('note_on', channel=10, note=36, velocity=127, time=0),
    Message('note_on', channel=10, note=48, velocity=0, time=14),
    Message('note_on', channel=10, note=36, velocity=0, time=2),
    Message('note_on', channel=10, note=48, velocity=127, time=45),
    Message('note_on', channel=10, note=36, velocity=127, time=0),
    Message('note_on', channel=10, note=48, velocity=0, time=14),
    Message('note_on', channel=10, note=36, velocity=0, time=2),
    Message('note_on', channel=10, note=36, velocity=127, time=4),
    Message('note_on', channel=10, note=48, velocity=127, time=0),
    Message('note_on', channel=10, note=48, velocity=0, time=13),
    Message('note_on', channel=10, note=36, velocity=0, time=2),
    Message('note_on', channel=10, note=48, velocity=127, time=5),
    Message('note_on', channel=10, note=36, velocity=127, time=0),
    Message('note_on', channel=10, note=48, velocity=0, time=13),
    Message('note_on', channel=10, note=36, velocity=0, time=2),
    Message('note_on', channel=10, note=31, velocity=127, time=4),
    Message('note_on', channel=10, note=43, velocity=127, time=0),
    Message('note_on', channel=10, note=43, velocity=0, time=10),
    Message('note_on', channel=10, note=31, velocity=0, time=0),
    Message('note_on', channel=10, note=43, velocity=127, time=71),
    Message('note_on', channel=10, note=31, velocity=127, time=0),
    Message('note_on', channel=10, note=31, velocity=0, time=11),
    Message('note_on', channel=10, note=43, velocity=0, time=0),
    Message('note_on', channel=10, note=43, velocity=127, time=8),
    Message('note_on', channel=10, note=31, velocity=127, time=0),
    Message('note_on', channel=10, note=31, velocity=0, time=13),
    Message('note_on', channel=10, note=43, velocity=0, time=0),
    Message('note_on', channel=10, note=43, velocity=127, time=8),
    Message('note_on', channel=10, note=31, velocity=127, time=0),
    Message('note_on', channel=10, note=50, velocity=127, time=2),
    Message('note_on', channel=10, note=31, velocity=0, time=9),
    Message('note_on', channel=10, note=43, velocity=0, time=0),
    Message('note_on', channel=10, note=50, velocity=0, time=1),
    Message('note_on', channel=10, note=43, velocity=127, time=7),
    Message('note_on', channel=10, note=31, velocity=127, time=0),
    Message('note_on', channel=10, note=50, velocity=127, time=3),
    Message('note_on', channel=10, note=31, velocity=0, time=10),
    Message('note_on', channel=10, note=43, velocity=0, time=0),
    Message('note_on', channel=10, note=50, velocity=0, time=3),
    Message('note_on', channel=10, note=43, velocity=127, time=4),
    Message('note_on', channel=10, note=31, velocity=127, time=0),
    Message('note_on', channel=10, note=50, velocity=127, time=3),
    Message('note_on', channel=10, note=31, velocity=0, time=9),
    Message('note_on', channel=10, note=43, velocity=0, time=0),
    Message('note_on', channel=10, note=50, velocity=0, time=2),
    Message('note_on', channel=10, note=43, velocity=127, time=6),
    Message('note_on', channel=10, note=31, velocity=127, time=0),
    Message('note_on', channel=10, note=50, velocity=127, time=2),
    Message('note_on', channel=10, note=31, velocity=0, time=11),
    Message('note_on', channel=10, note=43, velocity=0, time=0),
    Message('note_on', channel=10, note=50, velocity=0, time=2),
    Message('note_on', channel=10, note=43, velocity=127, time=45),
    Message('note_on', channel=10, note=31, velocity=127, time=0),
    Message('note_on', channel=10, note=31, velocity=0, time=11),
    Message('note_on', channel=10, note=43, velocity=0, time=0),
    Message('note_on', channel=10, note=31, velocity=127, time=110),
    Message('note_on', channel=10, note=43, velocity=127, time=0),
    Message('note_on', channel=10, note=43, velocity=0, time=11),
    Message('note_on', channel=10, note=31, velocity=0, time=0),
    Message('note_on', channel=10, note=43, velocity=127, time=51),
    Message('note_on', channel=10, note=31, velocity=127, time=0),
    Message('note_on', channel=10, note=31, velocity=0, time=10),
    Message('note_on', channel=10, note=43, velocity=0, time=0),
    Message('note_on', channel=10, note=31, velocity=127, time=10),
    Message('note_on', channel=10, note=43, velocity=127, time=0),
    Message('note_on', channel=10, note=43, velocity=0, time=10),
    Message('note_on', channel=10, note=31, velocity=0, time=0),
    Message('note_on', channel=10, note=43, velocity=127, time=9),
    Message('note_on', channel=10, note=31, velocity=127, time=0),
    Message('note_on', channel=10, note=31, velocity=0, time=11),
    Message('note_on', channel=10, note=43, velocity=0, time=0),
    Message('note_on', channel=10, note=31, velocity=127, time=8),
    Message('note_on', channel=10, note=43, velocity=127, time=0),
    Message('note_on', channel=10, note=43, velocity=0, time=10),
    Message('note_on', channel=10, note=31, velocity=0, time=0),
    Message('note_on', channel=10, note=43, velocity=127, time=50),
    Message('note_on', channel=10, note=31, velocity=127, time=0),
    Message('note_on', channel=10, note=31, velocity=0, time=11),
    Message('note_on', channel=10, note=43, velocity=0, time=0),
    Message('note_on', channel=10, note=31, velocity=127, time=9),
    Message('note_on', channel=10, note=43, velocity=127, time=0),
    Message('note_on', channel=10, note=43, velocity=0, time=11),
    Message('note_on', channel=10, note=31, velocity=0, time=0),
    Message('note_on', channel=10, note=43, velocity=127, time=8),
    Message('note_on', channel=10, note=31, velocity=127, time=0),
    Message('note_on', channel=10, note=31, velocity=0, time=12),
    Message('note_on', channel=10, note=43, velocity=0, time=0),
    Message('note_on', channel=10, note=39, velocity=127, time=9),
    Message('note_on', channel=10, note=27, velocity=127, time=0),
    Message('note_on', channel=10, note=27, velocity=0, time=10),
    Message('note_on', channel=10, note=39, velocity=0, time=0),
    Message('note_on', channel=10, note=27, velocity=127, time=8),
    Message('note_on', channel=10, note=39, velocity=127, time=0),
    Message('note_on', channel=10, note=39, velocity=0, time=14),
    Message('note_on', channel=10, note=27, velocity=0, time=0),
    Message('note_on', channel=10, note=39, velocity=127, time=6),
    Message('note_on', channel=10, note=27, velocity=127, time=0),
    Message('note_on', channel=10, note=27, velocity=0, time=11),
    Message('note_on', channel=10, note=39, velocity=0, time=0),
    Message('note_on', channel=10, note=39, velocity=127, time=10),
    Message('note_on', channel=10, note=27, velocity=127, time=0),
    Message('note_on', channel=10, note=27, velocity=0, time=13),
    Message('note_on', channel=10, note=39, velocity=0, time=0),
    Message('note_on', channel=10, note=49, velocity=127, time=46),
    Message('note_on', channel=10, note=37, velocity=127, time=4),
    Message('note_on', channel=10, note=49, velocity=0, time=8),
    Message('note_on', channel=10, note=37, velocity=0, time=4),
    Message('note_on', channel=10, note=49, velocity=127, time=102),
    Message('note_on', channel=10, note=37, velocity=127, time=3),
    Message('note_on', channel=10, note=49, velocity=0, time=8),
    Message('note_on', channel=10, note=37, velocity=0, time=3),
    Message('note_on', channel=10, note=49, velocity=127, time=49),
    Message('note_on', channel=10, note=37, velocity=127, time=0),
    Message('note_on', channel=10, note=37, velocity=0, time=11),
    Message('note_on', channel=10, note=49, velocity=0, time=0),
    Message('note_on', channel=10, note=49, velocity=127, time=9),
    Message('note_on', channel=10, note=37, velocity=127, time=0),
    Message('note_on', channel=10, note=37, velocity=0, time=11),
    Message('note_on', channel=10, note=49, velocity=0, time=0),
    Message('note_on', channel=10, note=49, velocity=127, time=9),
    Message('note_on', channel=10, note=37, velocity=127, time=0),
    Message('note_on', channel=10, note=37, velocity=0, time=11),
    Message('note_on', channel=10, note=49, velocity=0, time=0),
    Message('note_on', channel=10, note=49, velocity=127, time=9),
    Message('note_on', channel=10, note=37, velocity=127, time=0),
    Message('note_on', channel=10, note=37, velocity=0, time=11),
    Message('note_on', channel=10, note=49, velocity=0, time=0),
    Message('note_on', channel=10, note=37, velocity=127, time=47),
    Message('note_on', channel=10, note=49, velocity=127, time=0),
    Message('note_on', channel=10, note=49, velocity=0, time=11),
    Message('note_on', channel=10, note=37, velocity=0, time=0),
    Message('note_on', channel=10, note=49, velocity=127, time=9),
    Message('note_on', channel=10, note=37, velocity=127, time=0),
    Message('note_on', channel=10, note=37, velocity=0, time=11),
    Message('note_on', channel=10, note=49, velocity=0, time=0),
    Message('note_on', channel=10, note=49, velocity=127, time=11),
    Message('note_on', channel=10, note=37, velocity=127, time=0),
    Message('note_on', channel=10, note=37, velocity=0, time=11),
    Message('note_on', channel=10, note=49, velocity=0, time=0),
    Message('note_on', channel=10, note=49, velocity=127, time=9),
    Message('note_on', channel=10, note=37, velocity=127, time=0),
    Message('note_on', channel=10, note=37, velocity=0, time=11),
    Message('note_on', channel=10, note=49, velocity=0, time=0),
    Message('note_on', channel=10, note=49, velocity=127, time=9),
    Message('note_on', channel=10, note=37, velocity=127, time=0),
    Message('note_on', channel=10, note=37, velocity=0, time=13),
    Message('note_on', channel=10, note=49, velocity=0, time=0),
    Message('note_on', channel=10, note=49, velocity=127, time=5),
    Message('note_on', channel=10, note=37, velocity=127, time=0),
    Message('note_on', channel=10, note=37, velocity=0, time=11),
    Message('note_on', channel=10, note=49, velocity=0, time=0),
    Message('note_on', channel=10, note=49, velocity=127, time=11),
    Message('note_on', channel=10, note=37, velocity=127, time=0),
    Message('note_on', channel=10, note=37, velocity=0, time=11),
    Message('note_on', channel=10, note=49, velocity=0, time=0),
    Message('note_on', channel=10, note=51, velocity=127, time=48),
    Message('note_on', channel=10, note=39, velocity=127, time=2),
    Message('note_on', channel=10, note=39, velocity=0, time=10),
    Message('note_on', channel=10, note=51, velocity=0, time=0),
    Message('note_on', channel=10, note=51, velocity=127, time=106),
    Message('note_on', channel=10, note=39, velocity=127, time=0),
    Message('note_on', channel=10, note=39, velocity=0, time=11),
    Message('note_on', channel=10, note=51, velocity=0, time=0),
    Message('note_on', channel=10, note=39, velocity=127, time=52),
    Message('note_on', channel=10, note=51, velocity=127, time=0),
    Message('note_on', channel=10, note=51, velocity=0, time=11),
    Message('note_on', channel=10, note=39, velocity=0, time=0),
    Message('note_on', channel=10, note=51, velocity=127, time=9),
    Message('note_on', channel=10, note=39, velocity=127, time=0),
    Message('note_on', channel=10, note=39, velocity=0, time=11),
    Message('note_on', channel=10, note=51, velocity=0, time=0),
    Message('note_on', channel=10, note=51, velocity=127, time=8),
    Message('note_on', channel=10, note=39, velocity=127, time=1),
    Message('note_on', channel=10, note=51, velocity=0, time=10),
    Message('note_on', channel=10, note=39, velocity=0, time=1),
    Message('note_on', channel=10, note=38, velocity=127, time=9),
    Message('note_on', channel=10, note=50, velocity=127, time=0),
    Message('note_on', channel=10, note=50, velocity=0, time=25),
    Message('note_on', channel=10, note=38, velocity=0, time=6),
    Message('note_on', channel=10, note=48, velocity=127, time=89),
    Message('note_on', channel=10, note=36, velocity=127, time=0),
    Message('note_on', channel=10, note=36, velocity=0, time=11),
    Message('note_on', channel=10, note=48, velocity=0, time=0),
    Message('note_on', channel=10, note=36, velocity=127, time=9),
    Message('note_on', channel=10, note=48, velocity=127, time=0),
    Message('note_on', channel=10, note=48, velocity=0, time=13),
    Message('note_on', channel=10, note=36, velocity=0, time=0),
    Message('note_on', channel=10, note=48, velocity=127, time=5),
    Message('note_on', channel=10, note=36, velocity=127, time=0),
    Message('note_on', channel=10, note=36, velocity=0, time=11),
    Message('note_on', channel=10, note=48, velocity=0, time=0),
    Message('note_on', channel=10, note=36, velocity=127, time=11),
    Message('note_on', channel=10, note=48, velocity=127, time=0),
    Message('note_on', channel=10, note=48, velocity=0, time=11),
    Message('note_on', channel=10, note=36, velocity=0, time=0),
    Message('note_on', channel=10, note=43, velocity=127, time=50),
    Message('note_on', channel=10, note=31, velocity=127, time=0),
    Message('note_on', channel=10, note=31, velocity=0, time=11),
    Message('note_on', channel=10, note=43, velocity=0, time=0),
    Message('note_on', channel=10, note=39, velocity=127, time=108),
    Message('note_on', channel=10, note=51, velocity=127, time=0),
    Message('note_on', channel=10, note=51, velocity=0, time=11),
    Message('note_on', channel=10, note=39, velocity=0, time=0),
    Message('note_on', channel=10, note=51, velocity=127, time=9),
    Message('note_on', channel=10, note=39, velocity=127, time=0),
    Message('note_on', channel=10, note=39, velocity=0, time=13),
    Message('note_on', channel=10, note=51, velocity=0, time=0),
    Message('note_on', channel=10, note=39, velocity=127, time=5),
    Message('note_on', channel=10, note=51, velocity=127, time=0),
    Message('note_on', channel=10, note=51, velocity=0, time=11),
    Message('note_on', channel=10, note=39, velocity=0, time=0),
    Message('note_on', channel=10, note=51, velocity=127, time=11),
    Message('note_on', channel=10, note=39, velocity=127, time=1),
    Message('note_on', channel=10, note=51, velocity=0, time=10),
    Message('note_on', channel=10, note=39, velocity=0, time=1),
    Message('note_on', channel=10, note=31, velocity=127, time=51),
    Message('note_on', channel=10, note=43, velocity=127, time=0),
    Message('note_on', channel=10, note=43, velocity=0, time=10),
    Message('note_on', channel=10, note=31, velocity=0, time=0),
    Message('note_on', channel=10, note=43, velocity=127, time=48),
    Message('note_on', channel=10, note=31, velocity=127, time=0),
    Message('note_on', channel=10, note=31, velocity=0, time=11),
    Message('note_on', channel=10, note=43, velocity=0, time=0),
    Message('note_on', channel=10, note=31, velocity=127, time=9),
    Message('note_on', channel=10, note=43, velocity=127, time=0),
    Message('note_on', channel=10, note=43, velocity=0, time=11),
    Message('note_on', channel=10, note=31, velocity=0, time=0),
    Message('note_on', channel=10, note=43, velocity=127, time=9),
    Message('note_on', channel=10, note=31, velocity=127, time=0),
    Message('note_on', channel=10, note=31, velocity=0, time=12),
    Message('note_on', channel=10, note=43, velocity=0, time=0),
    Message('note_on', channel=10, note=31, velocity=127, time=8),
    Message('note_on', channel=10, note=43, velocity=127, time=0),
    Message('note_on', channel=10, note=43, velocity=0, time=10),
    Message('note_on', channel=10, note=31, velocity=0, time=0),
    Message('note_on', channel=10, note=43, velocity=127, time=9),
    Message('note_on', channel=10, note=31, velocity=127, time=0),
    Message('note_on', channel=10, note=31, velocity=0, time=13),
    Message('note_on', channel=10, note=43, velocity=0, time=0),
    Message('note_on', channel=10, note=31, velocity=127, time=7),
    Message('note_on', channel=10, note=43, velocity=127, time=0),
    Message('note_on', channel=10, note=43, velocity=0, time=11),
    Message('note_on', channel=10, note=31, velocity=0, time=0),
    Message('note_on', channel=10, note=43, velocity=127, time=10),
    Message('note_on', channel=10, note=31, velocity=127, time=0),
    Message('note_on', channel=10, note=31, velocity=0, time=10),
    Message('note_on', channel=10, note=43, velocity=0, time=0),
    Message('note_on', channel=10, note=31, velocity=127, time=9),
    Message('note_on', channel=10, note=43, velocity=127, time=0),
    Message('note_on', channel=10, note=43, velocity=0, time=13),
    Message('note_on', channel=10, note=31, velocity=0, time=0),
    Message('note_on', channel=10, note=43, velocity=127, time=7),
    Message('note_on', channel=10, note=31, velocity=127, time=0),
    Message('note_on', channel=10, note=31, velocity=0, time=11),
    Message('note_on', channel=10, note=43, velocity=0, time=0),
    Message('note_on', channel=10, note=39, velocity=127, time=9),
    Message('note_on', channel=10, note=51, velocity=127, time=0),
    Message('note_on', channel=10, note=51, velocity=0, time=11),
    Message('note_on', channel=10, note=39, velocity=0, time=0),
    Message('note_on', channel=10, note=51, velocity=127, time=110),
    Message('note_on', channel=10, note=39, velocity=127, time=0),
    Message('note_on', channel=10, note=39, velocity=0, time=11),
    Message('note_on', channel=10, note=51, velocity=0, time=0),
    Message('note_on', channel=10, note=39, velocity=127, time=51),
    Message('note_on', channel=10, note=51, velocity=127, time=0),
    Message('note_on', channel=10, note=51, velocity=0, time=10),
    Message('note_on', channel=10, note=39, velocity=0, time=0),
    Message('note_on', channel=10, note=51, velocity=127, time=10),
    Message('note_on', channel=10, note=39, velocity=127, time=0),
    Message('note_on', channel=10, note=39, velocity=0, time=10),
    Message('note_on', channel=10, note=51, velocity=0, time=0),
    Message('note_on', channel=10, note=39, velocity=127, time=9),
    Message('note_on', channel=10, note=51, velocity=127, time=0),
    Message('note_on', channel=10, note=51, velocity=0, time=11),
    Message('note_on', channel=10, note=39, velocity=0, time=0),
    Message('note_on', channel=10, note=43, velocity=127, time=8),
    Message('note_on', channel=10, note=31, velocity=127, time=0),
    Message('note_on', channel=10, note=31, velocity=0, time=10),
    Message('note_on', channel=10, note=43, velocity=0, time=0),
    Message('note_on', channel=10, note=31, velocity=127, time=50),
    Message('note_on', channel=10, note=43, velocity=127, time=0),
    Message('note_on', channel=10, note=43, velocity=0, time=11),
    Message('note_on', channel=10, note=31, velocity=0, time=0),
    Message('note_on', channel=10, note=43, velocity=127, time=9),
    Message('note_on', channel=10, note=31, velocity=127, time=0),
    Message('note_on', channel=10, note=31, velocity=0, time=11),
    Message('note_on', channel=10, note=43, velocity=0, time=0),
    Message('note_on', channel=10, note=31, velocity=127, time=8),
    Message('note_on', channel=10, note=43, velocity=127, time=0),
    Message('note_on', channel=10, note=43, velocity=0, time=12),
    Message('note_on', channel=10, note=31, velocity=0, time=0),
    Message('note_on', channel=10, note=39, velocity=127, time=9),
    Message('note_on', channel=10, note=27, velocity=127, time=0),
    Message('note_on', channel=10, note=27, velocity=0, time=10),
    Message('note_on', channel=10, note=39, velocity=0, time=0),
    Message('note_on', channel=10, note=27, velocity=127, time=8),
    Message('note_on', channel=10, note=39, velocity=127, time=0),
    Message('note_on', channel=10, note=39, velocity=0, time=14),
    Message('note_on', channel=10, note=27, velocity=0, time=0),
    Message('note_on', channel=10, note=39, velocity=127, time=6),
    Message('note_on', channel=10, note=27, velocity=127, time=0),
    Message('note_on', channel=10, note=27, velocity=0, time=11),
    Message('note_on', channel=10, note=39, velocity=0, time=0),
    Message('note_on', channel=10, note=39, velocity=127, time=10),
    Message('note_on', channel=10, note=27, velocity=127, time=0),
    Message('note_on', channel=10, note=27, velocity=0, time=13),
    Message('note_on', channel=10, note=39, velocity=0, time=0),
    Message('note_on', channel=10, note=49, velocity=127, time=46),
    Message('note_on', channel=10, note=37, velocity=127, time=4),
    Message('note_on', channel=10, note=49, velocity=0, time=8),
    Message('note_on', channel=10, note=37, velocity=0, time=4),
    Message('note_on', channel=10, note=49, velocity=127, time=102),
    Message('note_on', channel=10, note=37, velocity=127, time=3),
    Message('note_on', channel=10, note=49, velocity=0, time=8),
    Message('note_on', channel=10, note=37, velocity=0, time=3),
    Message('note_on', channel=10, note=49, velocity=127, time=49),
    Message('note_on', channel=10, note=37, velocity=127, time=0),
    Message('note_on', channel=10, note=37, velocity=0, time=11),
    Message('note_on', channel=10, note=49, velocity=0, time=0),
    Message('note_on', channel=10, note=49, velocity=127, time=9),
    Message('note_on', channel=10, note=37, velocity=127, time=0),
    Message('note_on', channel=10, note=37, velocity=0, time=11),
    Message('note_on', channel=10, note=49, velocity=0, time=0),
    Message('note_on', channel=10, note=49, velocity=127, time=9),
    Message('note_on', channel=10, note=37, velocity=127, time=0),
    Message('note_on', channel=10, note=37, velocity=0, time=11),
    Message('note_on', channel=10, note=49, velocity=0, time=0),
    Message('note_on', channel=10, note=49, velocity=127, time=9),
    Message('note_on', channel=10, note=37, velocity=127, time=0),
    Message('note_on', channel=10, note=37, velocity=0, time=11),
    Message('note_on', channel=10, note=49, velocity=0, time=0),
    Message('note_on', channel=10, note=37, velocity=127, time=47),
    Message('note_on', channel=10, note=49, velocity=127, time=0),
    Message('note_on', channel=10, note=49, velocity=0, time=11),
    Message('note_on', channel=10, note=37, velocity=0, time=0),
    Message('note_on', channel=10, note=49, velocity=127, time=9),
    Message('note_on', channel=10, note=37, velocity=127, time=0),
    Message('note_on', channel=10, note=37, velocity=0, time=11),
    Message('note_on', channel=10, note=49, velocity=0, time=0),
    Message('note_on', channel=10, note=49, velocity=127, time=11),
    Message('note_on', channel=10, note=37, velocity=127, time=0),
    Message('note_on', channel=10, note=37, velocity=0, time=11),
    Message('note_on', channel=10, note=49, velocity=0, time=0),
    Message('note_on', channel=10, note=49, velocity=127, time=9),
    Message('note_on', channel=10, note=37, velocity=127, time=0),
    Message('note_on', channel=10, note=37, velocity=0, time=11),
    Message('note_on', channel=10, note=49, velocity=0, time=0),
    Message('note_on', channel=10, note=49, velocity=127, time=9),
    Message('note_on', channel=10, note=37, velocity=127, time=0),
    Message('note_on', channel=10, note=37, velocity=0, time=13),
    Message('note_on', channel=10, note=49, velocity=0, time=0),
    Message('note_on', channel=10, note=49, velocity=127, time=5),
    Message('note_on', channel=10, note=37, velocity=127, time=0),
    Message('note_on', channel=10, note=37, velocity=0, time=11),
    Message('note_on', channel=10, note=49, velocity=0, time=0),
    Message('note_on', channel=10, note=37, velocity=127, time=11),
    Message('note_on', channel=10, note=49, velocity=127, time=0),
    Message('note_on', channel=10, note=49, velocity=0, time=11),
    Message('note_on', channel=10, note=37, velocity=0, time=0),
    Message('note_on', channel=10, note=51, velocity=127, time=48),
    Message('note_on', channel=10, note=39, velocity=127, time=2),
    Message('note_on', channel=10, note=39, velocity=0, time=10),
    Message('note_on', channel=10, note=51, velocity=0, time=0),
    Message('note_on', channel=10, note=51, velocity=127, time=106),
    Message('note_on', channel=10, note=39, velocity=127, time=0),
    Message('note_on', channel=10, note=39, velocity=0, time=11),
    Message('note_on', channel=10, note=51, velocity=0, time=0),
    Message('note_on', channel=10, note=39, velocity=127, time=52),
    Message('note_on', channel=10, note=51, velocity=127, time=0),
    Message('note_on', channel=10, note=51, velocity=0, time=11),
    Message('note_on', channel=10, note=39, velocity=0, time=0),
    Message('note_on', channel=10, note=51, velocity=127, time=9),
    Message('note_on', channel=10, note=39, velocity=127, time=0),
    Message('note_on', channel=10, note=39, velocity=0, time=11),
    Message('note_on', channel=10, note=51, velocity=0, time=0),
    Message('note_on', channel=10, note=39, velocity=127, time=9),
    Message('note_on', channel=10, note=51, velocity=127, time=0),
    Message('note_on', channel=10, note=51, velocity=0, time=11),
    Message('note_on', channel=10, note=39, velocity=0, time=0),
    Message('note_on', channel=10, note=51, velocity=127, time=9),
    Message('note_on', channel=10, note=39, velocity=127, time=0),
    Message('note_on', channel=10, note=39, velocity=0, time=11),
    Message('note_on', channel=10, note=51, velocity=0, time=0),
    Message('note_on', channel=10, note=36, velocity=127, time=109),
    Message('note_on', channel=10, note=48, velocity=127, time=0),
    Message('note_on', channel=10, note=48, velocity=0, time=11),
    Message('note_on', channel=10, note=36, velocity=0, time=0),
    Message('note_on', channel=10, note=48, velocity=127, time=9),
    Message('note_on', channel=10, note=36, velocity=127, time=0),
    Message('note_on', channel=10, note=36, velocity=0, time=13),
    Message('note_on', channel=10, note=48, velocity=0, time=0),
    Message('note_on', channel=10, note=36, velocity=127, time=5),
    Message('note_on', channel=10, note=48, velocity=127, time=0),
    Message('note_on', channel=10, note=48, velocity=0, time=11),
    Message('note_on', channel=10, note=36, velocity=0, time=0),
    Message('note_on', channel=10, note=48, velocity=127, time=11),
    Message('note_on', channel=10, note=36, velocity=127, time=0),
    Message('note_on', channel=10, note=36, velocity=0, time=11),
    Message('note_on', channel=10, note=48, velocity=0, time=0),
    Message('note_on', channel=10, note=31, velocity=127, time=50),
    Message('note_on', channel=10, note=43, velocity=127, time=0),
    Message('note_on', channel=10, note=43, velocity=0, time=11),
    Message('note_on', channel=10, note=31, velocity=0, time=0),
    Message('note_on', channel=10, note=51, velocity=127, time=108),
    Message('note_on', channel=10, note=39, velocity=127, time=0),
    Message('note_on', channel=10, note=39, velocity=0, time=11),
    Message('note_on', channel=10, note=51, velocity=0, time=0),
    Message('note_on', channel=10, note=39, velocity=127, time=9),
    Message('note_on', channel=10, note=51, velocity=127, time=0),
    Message('note_on', channel=10, note=51, velocity=0, time=13),
    Message('note_on', channel=10, note=39, velocity=0, time=0),
    Message('note_on', channel=10, note=51, velocity=127, time=5),
    Message('note_on', channel=10, note=39, velocity=127, time=0),
    Message('note_on', channel=10, note=39, velocity=0, time=11),
    Message('note_on', channel=10, note=51, velocity=0, time=0),
    Message('note_on', channel=10, note=39, velocity=127, time=11),
    Message('note_on', channel=10, note=51, velocity=127, time=0),
    Message('note_on', channel=10, note=51, velocity=0, time=11),
    Message('note_on', channel=10, note=39, velocity=0, time=0),
    Message('note_on', channel=10, note=43, velocity=127, time=52),
    Message('note_on', channel=10, note=31, velocity=127, time=0),
    Message('note_on', channel=10, note=31, velocity=0, time=10),
    Message('note_on', channel=10, note=43, velocity=0, time=0),
    Message('note_on', channel=10, note=31, velocity=127, time=48),
    Message('note_on', channel=10, note=43, velocity=127, time=0),
    Message('note_on', channel=10, note=43, velocity=0, time=11),
    Message('note_on', channel=10, note=31, velocity=0, time=0),
    Message('note_on', channel=10, note=43, velocity=127, time=9),
    Message('note_on', channel=10, note=31, velocity=127, time=0),
    Message('note_on', channel=10, note=31, velocity=0, time=11),
    Message('note_on', channel=10, note=43, velocity=0, time=0),
    Message('note_on', channel=10, note=31, velocity=127, time=9),
    Message('note_on', channel=10, note=43, velocity=127, time=0),
    Message('note_on', channel=10, note=43, velocity=0, time=12),
    Message('note_on', channel=10, note=31, velocity=0, time=0),
    Message('note_on', channel=10, note=43, velocity=127, time=8),
    Message('note_on', channel=10, note=31, velocity=127, time=0),
    Message('note_on', channel=10, note=31, velocity=0, time=10),
    Message('note_on', channel=10, note=43, velocity=0, time=0),
    Message('note_on', channel=10, note=31, velocity=127, time=9),
    Message('note_on', channel=10, note=43, velocity=127, time=0),
    Message('note_on', channel=10, note=43, velocity=0, time=13),
    Message('note_on', channel=10, note=31, velocity=0, time=0),
    Message('note_on', channel=10, note=43, velocity=127, time=7),
    Message('note_on', channel=10, note=31, velocity=127, time=0),
    Message('note_on', channel=10, note=31, velocity=0, time=11),
    Message('note_on', channel=10, note=43, velocity=0, time=0),
    Message('note_on', channel=10, note=31, velocity=127, time=10),
    Message('note_on', channel=10, note=43, velocity=127, time=0),
    Message('note_on', channel=10, note=43, velocity=0, time=13),
    Message('note_on', channel=10, note=31, velocity=0, time=0),
    Message('note_on', channel=10, note=25, velocity=127, time=3654),
    Message('note_on', channel=10, note=25, velocity=0, time=443),
    Message('note_on', channel=10, note=37, velocity=74, time=31),
    Message('note_on', channel=10, note=38, velocity=55, time=1379),
    Message('note_on', channel=10, note=37, velocity=0, time=11),
    Message('note_on', channel=10, note=39, velocity=57, time=30),
    Message('note_on', channel=10, note=38, velocity=0, time=12),
    Message('note_on', channel=10, note=40, velocity=55, time=9),
    Message('note_on', channel=10, note=39, velocity=0, time=11),
    Message('note_on', channel=10, note=57, velocity=63, time=1664),
    Message('note_on', channel=10, note=57, velocity=0, time=183),
    Message('note_on', channel=10, note=57, velocity=55, time=57),
    Message('note_on', channel=10, note=57, velocity=0, time=186),
    Message('note_on', channel=10, note=57, velocity=55, time=58),
    Message('note_on', channel=10, note=40, velocity=0, time=7),
    Message('note_on', channel=10, note=57, velocity=0, time=156),
    Message('note_on', channel=10, note=48, velocity=84, time=71),
    Message('note_on', channel=10, note=57, velocity=55, time=8),
    Message('note_on', channel=10, note=57, velocity=0, time=165),
    Message('note_on', channel=10, note=57, velocity=69, time=74),
    Message('note_on', channel=10, note=47, velocity=84, time=104),
    Message('note_on', channel=10, note=48, velocity=0, time=5),
    Message('note_on', channel=10, note=57, velocity=0, time=63),
    Message('note_on', channel=10, note=57, velocity=63, time=67),
    Message('note_on', channel=10, note=45, velocity=84, time=3),
    Message('note_on', channel=10, note=47, velocity=0, time=1),
    Message('note_on', channel=10, note=57, velocity=0, time=141),
    Message('note_on', channel=10, note=57, velocity=59, time=89),
    Message('note_on', channel=10, note=43, velocity=88, time=131),
    Message('note_on', channel=10, note=45, velocity=0, time=9),
    Message('note_on', channel=10, note=57, velocity=0, time=38),
    Message('note_on', channel=10, note=57, velocity=59, time=66),
    Message('note_on', channel=10, note=42, velocity=84, time=3),
    Message('note_on', channel=10, note=43, velocity=0, time=4),
    Message('note_on', channel=10, note=57, velocity=0, time=173),
    Message('note_on', channel=10, note=57, velocity=55, time=63),
    Message('note_on', channel=10, note=57, velocity=0, time=168),
    Message('note_on', channel=10, note=57, velocity=55, time=73),
    Message('note_on', channel=10, note=57, velocity=0, time=155),
    Message('note_on', channel=10, note=57, velocity=55, time=86),
    Message('note_on', channel=10, note=57, velocity=0, time=168),
    Message('note_on', channel=10, note=38, velocity=88, time=68),
    Message('note_on', channel=10, note=42, velocity=0, time=2),
    Message('note_on', channel=10, note=57, velocity=55, time=2),
    Message('note_on', channel=10, note=57, velocity=0, time=176),
    Message('note_on', channel=10, note=44, velocity=84, time=64),
    Message('note_on', channel=10, note=57, velocity=55, time=0),
    Message('note_on', channel=10, note=38, velocity=0, time=6),
    Message('note_on', channel=10, note=57, velocity=0, time=120),
    Message('note_on', channel=10, note=42, velocity=76, time=117),
    Message('note_on', channel=10, note=44, velocity=0, time=2),
    Message('note_on', channel=10, note=57, velocity=63, time=3),
    Message('note_on', channel=10, note=57, velocity=0, time=128),
    Message('note_on', channel=10, note=57, velocity=72, time=105),
    Message('note_on', channel=10, note=57, velocity=0, time=114),
    Message('note_on', channel=10, note=57, velocity=55, time=122),
    Message('note_on', channel=10, note=57, velocity=0, time=118),
    Message('note_on', channel=10, note=57, velocity=55, time=118),
    Message('note_on', channel=10, note=57, velocity=0, time=128),
    Message('note_on', channel=10, note=38, velocity=108, time=95),
    Message('note_on', channel=10, note=42, velocity=0, time=1),
    Message('note_on', channel=10, note=58, velocity=55, time=19),
    Message('note_on', channel=10, note=57, velocity=72, time=949),
    Message('note_on', channel=10, note=42, velocity=88, time=5),
    Message('note_on', channel=10, note=58, velocity=0, time=1),
    Message('note_on', channel=10, note=38, velocity=0, time=5),
    Message('note_on', channel=10, note=57, velocity=0, time=944),
    Message('note_on', channel=10, note=39, velocity=76, time=0),
    Message('note_on', channel=10, note=59, velocity=55, time=1),
    Message('note_on', channel=10, note=42, velocity=0, time=5),
    Message('note_on', channel=10, note=50, velocity=83, time=519),
    Message('note_on', channel=10, note=50, velocity=0, time=27),
    Message('note_on', channel=10, note=49, velocity=106, time=3),
    Message('note_on', channel=10, note=49, velocity=0, time=27),
    Message('note_on', channel=10, note=46, velocity=106, time=3),
    Message('note_on', channel=10, note=46, velocity=0, time=27),
    Message('note_on', channel=10, note=30, velocity=121, time=1),
    Message('note_on', channel=10, note=45, velocity=106, time=2),
    Message('note_on', channel=10, note=45, velocity=0, time=27),
    Message('note_on', channel=10, note=46, velocity=106, time=3),
    Message('note_on', channel=10, note=30, velocity=0, time=4),
    Message('note_on', channel=10, note=46, velocity=0, time=23),
    Message('note_on', channel=10, note=28, velocity=121, time=1),
    Message('note_on', channel=10, note=49, velocity=106, time=2),
    Message('note_on', channel=10, note=49, velocity=0, time=27),
    Message('note_on', channel=10, note=50, velocity=107, time=3),
    Message('note_on', channel=10, note=28, velocity=0, time=16),
    Message('note_on', channel=10, note=50, velocity=0, time=11),
    Message('note_on', channel=10, note=45, velocity=107, time=3),
    Message('note_on', channel=10, note=45, velocity=0, time=27),
    Message('note_on', channel=10, note=46, velocity=107, time=3),
    Message('note_on', channel=10, note=46, velocity=0, time=27),
    Message('note_on', channel=10, note=49, velocity=107, time=3),
    Message('note_on', channel=10, note=49, velocity=0, time=27),
    Message('note_on', channel=10, note=50, velocity=107, time=3),
    Message('note_on', channel=10, note=50, velocity=0, time=27),
    Message('note_on', channel=10, note=50, velocity=85, time=33),
    Message('note_on', channel=10, note=50, velocity=0, time=27),
    Message('note_on', channel=10, note=49, velocity=109, time=3),
    Message('note_on', channel=10, note=49, velocity=0, time=27),
    Message('note_on', channel=10, note=46, velocity=109, time=3),
    Message('note_on', channel=10, note=59, velocity=0, time=9),
    Message('note_on', channel=10, note=39, velocity=0, time=17),
    Message('note_on', channel=10, note=46, velocity=0, time=1),
    Message('note_on', channel=10, note=30, velocity=123, time=1),
    Message('note_on', channel=10, note=45, velocity=109, time=2),
    Message('note_on', channel=10, note=45, velocity=0, time=27),
    Message('note_on', channel=10, note=46, velocity=109, time=3),
    Message('note_on', channel=10, note=30, velocity=0, time=14),
    Message('note_on', channel=10, note=46, velocity=0, time=13),
    Message('note_on', channel=10, note=49, velocity=109, time=3),
    Message('note_on', channel=10, note=49, velocity=0, time=27),
    Message('note_on', channel=10, note=50, velocity=109, time=3),
    Message('note_on', channel=10, note=50, velocity=0, time=27),
    Message('note_on', channel=10, note=28, velocity=124, time=1),
    Message('note_on', channel=10, note=52, velocity=110, time=2),
    Message('note_on', channel=10, note=52, velocity=0, time=27),
    Message('note_on', channel=10, note=54, velocity=110, time=3),
    Message('note_on', channel=10, note=28, velocity=0, time=9),
    Message('note_on', channel=10, note=54, velocity=0, time=18),
    Message('note_on', channel=10, note=55, velocity=110, time=3),
    Message('note_on', channel=10, note=55, velocity=0, time=27),
    Message('note_on', channel=10, note=57, velocity=110, time=3),
    Message('note_on', channel=10, note=57, velocity=0, time=27),
    Message('note_on', channel=10, note=50, velocity=88, time=93),
    Message('note_on', channel=10, note=50, velocity=0, time=27),
    Message('note_on', channel=10, note=50, velocity=113, time=3),
    Message('note_on', channel=10, note=50, velocity=0, time=27),
    Message('note_on', channel=10, note=52, velocity=113, time=3),
    Message('note_on', channel=10, note=52, velocity=0, time=27),
    Message('note_on', channel=10, note=54, velocity=113, time=3),
    Message('note_on', channel=10, note=54, velocity=0, time=27),
    Message('note_on', channel=10, note=55, velocity=88, time=3),
    Message('note_on', channel=10, note=55, velocity=0, time=27),
    Message('note_on', channel=10, note=30, velocity=126, time=1),
    Message('note_on', channel=10, note=55, velocity=113, time=2),
    Message('note_on', channel=10, note=55, velocity=0, time=27),
    Message('note_on', channel=10, note=57, velocity=114, time=3),
    Message('note_on', channel=10, note=30, velocity=0, time=7),
    Message('note_on', channel=10, note=57, velocity=0, time=20),
    Message('note_on', channel=10, note=28, velocity=127, time=1),
    Message('note_on', channel=10, note=58, velocity=114, time=2),
    Message('note_on', channel=10, note=58, velocity=0, time=27),
    Message('note_on', channel=10, note=60, velocity=114, time=3),
    Message('note_on', channel=10, note=28, velocity=0, time=4),
    Message('note_on', channel=10, note=60, velocity=0, time=23),
    Message('note_on', channel=10, note=61, velocity=89, time=33),
    Message('note_on', channel=10, note=61, velocity=0, time=27),
    Message('note_on', channel=10, note=60, velocity=116, time=3),
    Message('note_on', channel=10, note=60, velocity=0, time=27),
    Message('note_on', channel=10, note=58, velocity=116, time=3),
    Message('note_on', channel=10, note=58, velocity=0, time=27),
    Message('note_on', channel=10, note=30, velocity=127, time=1),
    Message('note_on', channel=10, note=50, velocity=116, time=2),
    Message('note_on', channel=10, note=50, velocity=0, time=27),
    Message('note_on', channel=10, note=30, velocity=0, time=12),
    Message('note_on', channel=10, note=57, velocity=91, time=51),
    Message('note_on', channel=10, note=57, velocity=0, time=27),
    Message('note_on', channel=10, note=28, velocity=127, time=1),
    Message('note_on', channel=10, note=61, velocity=116, time=2),
    Message('note_on', channel=10, note=61, velocity=0, time=27),
    Message('note_on', channel=10, note=60, velocity=116, time=3),
    Message('note_on', channel=10, note=28, velocity=0, time=13),
    Message('note_on', channel=10, note=60, velocity=0, time=14),
    Message('note_on', channel=10, note=58, velocity=116, time=3),
    Message('note_on', channel=10, note=58, velocity=0, time=27),
    Message('note_on', channel=10, note=50, velocity=116, time=3),
    Message('note_on', channel=10, note=50, velocity=0, time=27),
    Message('note_on', channel=10, note=50, velocity=93, time=93),
    Message('note_on', channel=10, note=50, velocity=0, time=27),
    Message('note_on', channel=10, note=50, velocity=117, time=3),
    Message('note_on', channel=10, note=50, velocity=0, time=27),
    Message('note_on', channel=10, note=52, velocity=117, time=3),
    Message('note_on', channel=10, note=52, velocity=0, time=27),
    Message('note_on', channel=10, note=33, velocity=127, time=1),
    Message('note_on', channel=10, note=54, velocity=117, time=2),
    Message('note_on', channel=10, note=54, velocity=0, time=27),
    Message('note_on', channel=10, note=55, velocity=117, time=3),
    Message('note_on', channel=10, note=33, velocity=0, time=11),
    Message('note_on', channel=10, note=55, velocity=0, time=16),
    Message('note_on', channel=10, note=30, velocity=127, time=1),
    Message('note_on', channel=10, note=57, velocity=117, time=2),
    Message('note_on', channel=10, note=57, velocity=0, time=27),
    Message('note_on', channel=10, note=58, velocity=117, time=3),
    Message('note_on', channel=10, note=30, velocity=0, time=4),
    Message('note_on', channel=10, note=58, velocity=0, time=23),
    Message('note_on', channel=10, note=28, velocity=127, time=1),
    Message('note_on', channel=10, note=60, velocity=117, time=2),
    Message('note_on', channel=10, note=60, velocity=0, time=27),
    Message('note_on', channel=10, note=61, velocity=117, time=3),
    Message('note_on', channel=10, note=28, velocity=0, time=7),
    Message('note_on', channel=10, note=61, velocity=0, time=20),
    Message('note_on', channel=10, note=61, velocity=95, time=33),
    Message('note_on', channel=10, note=61, velocity=0, time=27),
    Message('note_on', channel=10, note=60, velocity=118, time=3),
    Message('note_on', channel=10, note=60, velocity=0, time=27),
    Message('note_on', channel=10, note=58, velocity=118, time=3),
    Message('note_on', channel=10, note=58, velocity=0, time=27),
    Message('note_on', channel=10, note=30, velocity=127, time=1),
    Message('note_on', channel=10, note=61, velocity=96, time=32),
    Message('note_on', channel=10, note=30, velocity=0, time=24),
    Message('note_on', channel=10, note=61, velocity=0, time=3),
    Message('note_on', channel=10, note=60, velocity=118, time=3),
    Message('note_on', channel=10, note=60, velocity=0, time=27),
    Message('note_on', channel=10, note=58, velocity=118, time=3),
    Message('note_on', channel=10, note=58, velocity=0, time=27),
    Message('note_on', channel=10, note=28, velocity=127, time=1),
    Message('note_on', channel=10, note=50, velocity=118, time=2),
    Message('note_on', channel=10, note=50, velocity=0, time=27),
    Message('note_on', channel=10, note=28, velocity=0, time=15),
    Message('note_on', channel=10, note=50, velocity=97, time=48),
    Message('note_on', channel=10, note=50, velocity=0, time=27),
    Message('note_on', channel=10, note=55, velocity=118, time=3),
    Message('note_on', channel=10, note=55, velocity=0, time=27),
    Message('note_on', channel=10, note=57, velocity=118, time=3),
    Message('note_on', channel=10, note=57, velocity=0, time=27),
    Message('note_on', channel=10, note=34, velocity=127, time=1),
    Message('note_on', channel=10, note=58, velocity=118, time=2),
    Message('note_on', channel=10, note=58, velocity=0, time=27),
    Message('note_on', channel=10, note=60, velocity=119, time=3),
    Message('note_on', channel=10, note=34, velocity=0, time=7),
    Message('note_on', channel=10, note=60, velocity=0, time=20),
    Message('note_on', channel=10, note=33, velocity=127, time=1),
    Message('note_on', channel=10, note=33, velocity=0, time=40),
    Message('note_on', channel=10, note=31, velocity=127, time=20),
    Message('note_on', channel=10, note=55, velocity=119, time=2),
    Message('note_on', channel=10, note=55, velocity=0, time=27),
    Message('note_on', channel=10, note=31, velocity=0, time=3),
    Message('note_on', channel=10, note=57, velocity=119, time=0),
    Message('note_on', channel=10, note=57, velocity=0, time=27),
    Message('note_on', channel=10, note=30, velocity=127, time=1),
    Message('note_on', channel=10, note=58, velocity=119, time=2),
    Message('note_on', channel=10, note=58, velocity=0, time=27),
    Message('note_on', channel=10, note=60, velocity=119, time=3),
    Message('note_on', channel=10, note=30, velocity=0, time=7),
    Message('note_on', channel=10, note=60, velocity=0, time=20),
    Message('note_on', channel=10, note=28, velocity=127, time=1),
    Message('note_on', channel=10, note=61, velocity=119, time=2),
    Message('note_on', channel=10, note=61, velocity=0, time=27),
    Message('note_on', channel=10, note=63, velocity=119, time=3),
    Message('note_on', channel=10, note=28, velocity=0, time=9),
    Message('note_on', channel=10, note=63, velocity=0, time=18),
    Message('note_on', channel=10, note=34, velocity=127, time=3),
    Message('note_on', channel=10, note=34, velocity=0, time=343),
    Message('note_on', channel=10, note=39, velocity=112, time=17),
    Message('note_on', channel=10, note=39, velocity=0, time=65),
    Message('note_on', channel=10, note=34, velocity=112, time=55),
    Message('note_on', channel=10, note=34, velocity=0, time=355),
    Message('note_on', channel=10, note=39, velocity=112, time=5),
    Message('note_on', channel=10, note=39, velocity=0, time=77),
    Message('note_on', channel=10, note=31, velocity=112, time=43),
    Message('note_on', channel=10, note=31, velocity=0, time=358),
    Message('note_on', channel=10, note=41, velocity=112, time=2),
    Message('note_on', channel=10, note=41, velocity=0, time=74),
    Message('note_on', channel=10, note=31, velocity=112, time=46),
    Message('note_on', channel=10, note=41, velocity=112, time=360),
    Message('note_on', channel=10, note=31, velocity=0, time=10),
    Message('note_on', channel=10, note=41, velocity=0, time=51),
    Message('note_on', channel=10, note=29, velocity=89, time=64),
    Message('note_on', channel=10, note=50, velocity=88, time=0),
    Message('note_on', channel=10, note=51, velocity=91, time=115),
    Message('note_on', channel=10, note=30, velocity=91, time=0),
    Message('note_on', channel=10, note=50, velocity=0, time=15),
    Message('note_on', channel=10, note=29, velocity=0, time=0),
    Message('note_on', channel=10, note=51, velocity=0, time=340),
    Message('note_on', channel=10, note=30, velocity=0, time=0),
    Message('note_on', channel=10, note=31, velocity=95, time=10),
    Message('note_on', channel=10, note=52, velocity=95, time=0),
    Message('note_on', channel=10, note=52, velocity=0, time=235),
    Message('note_on', channel=10, note=31, velocity=0, time=0),
    Message('note_on', channel=10, note=51, velocity=97, time=0),
    Message('note_on', channel=10, note=30, velocity=97, time=0),
    Message('note_on', channel=10, note=31, velocity=99, time=120),
    Message('note_on', channel=10, note=52, velocity=99, time=0),
    Message('note_on', channel=10, note=30, velocity=0, time=5),
    Message('note_on', channel=10, note=51, velocity=0, time=0),
    Message('note_on', channel=10, note=42, velocity=101, time=121),
    Message('note_on', channel=10, note=31, velocity=0, time=4),
    Message('note_on', channel=10, note=52, velocity=0, time=0),
    Message('note_on', channel=10, note=51, velocity=92, time=1),
    Message('note_on', channel=10, note=52, velocity=86, time=119),
    Message('note_on', channel=10, note=43, velocity=101, time=0),
    Message('note_on', channel=10, note=42, velocity=0, time=4),
    Message('note_on', channel=10, note=51, velocity=0, time=5),
    Message('note_on', channel=10, note=51, velocity=71, time=99),
    Message('note_on', channel=10, note=42, velocity=97, time=5),
    Message('note_on', channel=10, note=52, velocity=0, time=20),
    Message('note_on', channel=10, note=43, velocity=0, time=0),
    Message('note_on', channel=10, note=52, velocity=106, time=88),
    Message('note_on', channel=10, note=43, velocity=106, time=5),
    Message('note_on', channel=10, note=51, velocity=0, time=13),
    Message('note_on', channel=10, note=42, velocity=0, time=5),
    Message('note_on', channel=10, note=51, velocity=106, time=95),
    Message('note_on', channel=10, note=43, velocity=0, time=10),
    Message('note_on', channel=10, note=42, velocity=106, time=5),
    Message('note_on', channel=10, note=52, velocity=0, time=17),
    Message('note_on', channel=10, note=52, velocity=108, time=93),
    Message('note_on', channel=10, note=43, velocity=108, time=10),
    Message('note_on', channel=10, note=42, velocity=0, time=1),
    Message('note_on', channel=10, note=51, velocity=0, time=23),
    Message('note_on', channel=10, note=51, velocity=110, time=83),
    Message('note_on', channel=10, note=52, velocity=0, time=9),
    Message('note_on', channel=10, note=42, velocity=110, time=1),
    Message('note_on', channel=10, note=43, velocity=0, time=9),
    Message('note_on', channel=10, note=52, velocity=110, time=100),
    Message('note_on', channel=10, note=43, velocity=110, time=10),
    Message('note_on', channel=10, note=51, velocity=0, time=8),
    Message('note_on', channel=10, note=42, velocity=0, time=10),
    Message('note_on', channel=10, note=52, velocity=0, time=88),
    Message('note_on', channel=10, note=43, velocity=0, time=10),
    Message('note_on', channel=10, note=47, velocity=90, time=4),
    Message('note_on', channel=10, note=40, velocity=95, time=0),
    Message('note_on', channel=10, note=51, velocity=95, time=128),
    Message('note_on', channel=10, note=47, velocity=0, time=9),
    Message('note_on', channel=10, note=54, velocity=99, time=113),
    Message('note_on', channel=10, note=51, velocity=0, time=8),
    Message('note_on', channel=10, note=56, velocity=104, time=109),
    Message('note_on', channel=10, note=54, velocity=0, time=23),
    Message('note_on', channel=10, note=58, velocity=110, time=98),
    Message('note_on', channel=10, note=56, velocity=0, time=7),
    Message('note_on', channel=10, note=58, velocity=0, time=221),
    Message('note_on', channel=10, note=61, velocity=109, time=4),
    Message('note_on', channel=10, note=70, velocity=92, time=1),
    Message('note_on', channel=10, note=68, velocity=95, time=24),
    Message('note_on', channel=10, note=70, velocity=0, time=7),
    Message('note_on', channel=10, note=66, velocity=96, time=13),
    Message('note_on', channel=10, note=68, velocity=0, time=7),
    Message('note_on', channel=10, note=64, velocity=98, time=9),
    Message('note_on', channel=10, note=66, velocity=0, time=3),
    Message('note_on', channel=10, note=64, velocity=0, time=12),
    Message('note_on', channel=10, note=63, velocity=98, time=5),
    Message('note_on', channel=10, note=63, velocity=0, time=20),
    Message('note_on', channel=10, note=61, velocity=98, time=0),
    Message('note_on', channel=10, note=61, velocity=0, time=18),
    Message('note_on', channel=10, note=63, velocity=112, time=1),
    Message('note_on', channel=10, note=59, velocity=98, time=1),
    Message('note_on', channel=10, note=59, velocity=0, time=19),
    Message('note_on', channel=10, note=58, velocity=98, time=1),
    Message('note_on', channel=10, note=56, velocity=98, time=20),
    Message('note_on', channel=10, note=58, velocity=0, time=5),
    Message('note_on', channel=10, note=54, velocity=98, time=15),
    Message('note_on', channel=10, note=56, velocity=0, time=6),
    Message('note_on', channel=10, note=52, velocity=98, time=13),
    Message('note_on', channel=10, note=61, velocity=0, time=1),
    Message('note_on', channel=10, note=54, velocity=0, time=0),
    Message('note_on', channel=10, note=51, velocity=98, time=19),
    Message('note_on', channel=10, note=52, velocity=0, time=2),
    Message('note_on', channel=10, note=62, velocity=114, time=13),
    Message('note_on', channel=10, note=63, velocity=0, time=5),
    Message('note_on', channel=10, note=46, velocity=110, time=0),
    Message('note_on', channel=10, note=50, velocity=98, time=1),
    Message('note_on', channel=10, note=51, velocity=0, time=2),
    Message('note_on', channel=10, note=34, velocity=61, time=2),
    Message('note_on', channel=10, note=40, velocity=0, time=5),
    Message('note_on', channel=10, note=53, velocity=110, time=1),
    Message('note_on', channel=10, note=62, velocity=0, time=109),
    Message('note_on', channel=10, note=58, velocity=103, time=2),
    Message('note_on', channel=10, note=50, velocity=0, time=110),
    Message('note_on', channel=10, note=62, velocity=104, time=130),
    Message('note_on', channel=10, note=58, velocity=0, time=8),
    Message('note_on', channel=10, note=34, velocity=0, time=90),
    Message('note_on', channel=10, note=60, velocity=105, time=20),
    Message('note_on', channel=10, note=62, velocity=0, time=2),
    Message('note_on', channel=10, note=53, velocity=0, time=103),
    Message('note_on', channel=10, note=65, velocity=105, time=12),
    Message('note_on', channel=10, note=60, velocity=0, time=29),
    Message('note_on', channel=10, note=67, velocity=95, time=97),
    Message('note_on', channel=10, note=60, velocity=106, time=118),
    Message('note_on', channel=10, note=46, velocity=0, time=114),
    Message('note_on', channel=10, note=34, velocity=96, time=0),
    Message('note_on', channel=10, note=68, velocity=79, time=3),
    Message('note_on', channel=10, note=68, velocity=0, time=476),
    Message('note_on', channel=10, note=67, velocity=0, time=1),
    Message('note_on', channel=10, note=34, velocity=0, time=5),
    Message('note_on', channel=10, note=60, velocity=0, time=4),
    Message('note_on', channel=10, note=65, velocity=0, time=6),
    Message('note_on', channel=10, note=38, velocity=88, time=3),
    Message('note_on', channel=10, note=26, velocity=98, time=3),
    Message('note_on', channel=10, note=38, velocity=0, time=1897),
    Message('note_on', channel=10, note=26, velocity=0, time=7),
    Message('note_on', channel=10, note=38, velocity=106, time=115),
    Message('note_on', channel=10, note=38, velocity=0, time=29),
    Message('note_on', channel=10, note=38, velocity=106, time=11),
    Message('note_on', channel=10, note=38, velocity=0, time=27),
    Message('note_on', channel=10, note=38, velocity=106, time=14),
    Message('note_on', channel=10, note=38, velocity=0, time=26),
    Message('note_on', channel=10, note=38, velocity=106, time=14),
    Message('note_on', channel=10, note=38, velocity=0, time=61),
    MetaMessage('end_of_track', time=0)]),
  MidiTrack([
    MetaMessage('midi_port', port=1, time=0),
    MetaMessage('track_name', name='String 3', time=0),
    Message('control_change', channel=11, control=7, value=124, time=0),
    Message('control_change', channel=11, control=10, value=83, time=0),
    Message('control_change', channel=11, control=18, value=64, time=15),
    Message('program_change', channel=11, program=44, time=20625),
    Message('note_on', channel=11, note=43, velocity=127, time=91),
    Message('note_on', channel=11, note=31, velocity=127, time=0),
    Message('note_on', channel=11, note=31, velocity=0, time=11),
    Message('note_on', channel=11, note=43, velocity=0, time=0),
    Message('note_on', channel=11, note=43, velocity=127, time=8),
    Message('note_on', channel=11, note=31, velocity=127, time=0),
    Message('note_on', channel=11, note=31, velocity=0, time=13),
    Message('note_on', channel=11, note=43, velocity=0, time=0),
    Message('note_on', channel=11, note=43, velocity=127, time=8),
    Message('note_on', channel=11, note=31, velocity=127, time=0),
    Message('note_on', channel=11, note=50, velocity=127, time=2),
    Message('note_on', channel=11, note=31, velocity=0, time=9),
    Message('note_on', channel=11, note=43, velocity=0, time=0),
    Message('note_on', channel=11, note=50, velocity=0, time=1),
    Message('note_on', channel=11, note=43, velocity=127, time=7),
    Message('note_on', channel=11, note=31, velocity=127, time=0),
    Message('note_on', channel=11, note=50, velocity=127, time=3),
    Message('note_on', channel=11, note=31, velocity=0, time=10),
    Message('note_on', channel=11, note=43, velocity=0, time=0),
    Message('note_on', channel=11, note=50, velocity=0, time=3),
    Message('note_on', channel=11, note=43, velocity=127, time=4),
    Message('note_on', channel=11, note=31, velocity=127, time=0),
    Message('note_on', channel=11, note=50, velocity=127, time=3),
    Message('note_on', channel=11, note=31, velocity=0, time=9),
    Message('note_on', channel=11, note=43, velocity=0, time=0),
    Message('note_on', channel=11, note=50, velocity=0, time=2),
    Message('note_on', channel=11, note=43, velocity=127, time=6),
    Message('note_on', channel=11, note=31, velocity=127, time=0),
    Message('note_on', channel=11, note=50, velocity=127, time=2),
    Message('note_on', channel=11, note=31, velocity=0, time=11),
    Message('note_on', channel=11, note=43, velocity=0, time=0),
    Message('note_on', channel=11, note=50, velocity=0, time=2),
    Message('note_on', channel=11, note=36, velocity=127, time=50),
    Message('note_on', channel=11, note=55, velocity=106, time=60),
    Message('note_on', channel=11, note=51, velocity=127, time=2),
    Message('note_on', channel=11, note=55, velocity=0, time=5),
    Message('note_on', channel=11, note=51, velocity=0, time=2),
    Message('note_on', channel=11, note=55, velocity=92, time=11),
    Message('note_on', channel=11, note=51, velocity=106, time=2),
    Message('note_on', channel=11, note=55, velocity=0, time=4),
    Message('note_on', channel=11, note=36, velocity=0, time=0),
    Message('note_on', channel=11, note=51, velocity=0, time=1),
    Message('note_on', channel=11, note=51, velocity=106, time=9),
    Message('note_on', channel=11, note=55, velocity=83, time=2),
    Message('note_on', channel=11, note=55, velocity=0, time=10),
    Message('note_on', channel=11, note=51, velocity=0, time=3),
    Message('note_on', channel=11, note=47, velocity=119, time=7),
    Message('note_on', channel=11, note=56, velocity=127, time=0),
    Message('note_on', channel=11, note=56, velocity=0, time=9),
    Message('note_on', channel=11, note=47, velocity=0, time=3),
    Message('note_on', channel=11, note=56, velocity=106, time=8),
    Message('note_on', channel=11, note=47, velocity=106, time=3),
    Message('note_on', channel=11, note=56, velocity=0, time=4),
    Message('note_on', channel=11, note=47, velocity=0, time=6),
    Message('note_on', channel=11, note=56, velocity=92, time=6),
    Message('note_on', channel=11, note=47, velocity=106, time=2),
    Message('note_on', channel=11, note=47, velocity=0, time=9),
    Message('note_on', channel=11, note=56, velocity=0, time=2),
    Message('note_on', channel=11, note=53, velocity=106, time=8),
    Message('note_on', channel=11, note=50, velocity=119, time=2),
    Message('note_on', channel=11, note=53, velocity=0, time=8),
    Message('note_on', channel=11, note=50, velocity=0, time=2),
    Message('note_on', channel=11, note=53, velocity=83, time=8),
    Message('note_on', channel=11, note=50, velocity=92, time=3),
    Message('note_on', channel=11, note=53, velocity=0, time=7),
    Message('note_on', channel=11, note=50, velocity=0, time=1),
    Message('note_on', channel=11, note=53, velocity=106, time=8),
    Message('note_on', channel=11, note=50, velocity=89, time=2),
    Message('note_on', channel=11, note=53, velocity=0, time=7),
    Message('note_on', channel=11, note=50, velocity=0, time=6),
    Message('note_on', channel=11, note=36, velocity=127, time=15),
    Message('note_on', channel=11, note=55, velocity=106, time=51),
    Message('note_on', channel=11, note=63, velocity=127, time=4),
    Message('note_on', channel=11, note=55, velocity=0, time=5),
    Message('note_on', channel=11, note=63, velocity=0, time=3),
    Message('note_on', channel=11, note=55, velocity=127, time=6),
    Message('note_on', channel=11, note=36, velocity=0, time=1),
    Message('note_on', channel=11, note=63, velocity=106, time=5),
    Message('note_on', channel=11, note=55, velocity=0, time=4),
    Message('note_on', channel=11, note=63, velocity=0, time=2),
    Message('note_on', channel=11, note=55, velocity=119, time=8),
    Message('note_on', channel=11, note=63, velocity=106, time=4),
    Message('note_on', channel=11, note=55, velocity=0, time=6),
    Message('note_on', channel=11, note=63, velocity=0, time=3),
    Message('note_on', channel=11, note=51, velocity=119, time=9),
    Message('note_on', channel=11, note=62, velocity=106, time=2),
    Message('note_on', channel=11, note=51, velocity=0, time=6),
    Message('note_on', channel=11, note=62, velocity=0, time=3),
    Message('note_on', channel=11, note=51, velocity=127, time=9),
    Message('note_on', channel=11, note=62, velocity=106, time=2),
    Message('note_on', channel=11, note=51, velocity=0, time=6),
    Message('note_on', channel=11, note=62, velocity=0, time=2),
    Message('note_on', channel=11, note=51, velocity=127, time=8),
    Message('note_on', channel=11, note=62, velocity=92, time=2),
    Message('note_on', channel=11, note=51, velocity=0, time=6),
    Message('note_on', channel=11, note=62, velocity=0, time=6),
    Message('note_on', channel=11, note=59, velocity=92, time=9),
    Message('note_on', channel=11, note=54, velocity=127, time=1),
    Message('note_on', channel=11, note=54, velocity=0, time=9),
    Message('note_on', channel=11, note=59, velocity=0, time=0),
    Message('note_on', channel=11, note=59, velocity=106, time=11),
    Message('note_on', channel=11, note=54, velocity=92, time=0),
    Message('note_on', channel=11, note=54, velocity=0, time=8),
    Message('note_on', channel=11, note=59, velocity=0, time=2),
    Message('note_on', channel=11, note=54, velocity=106, time=6),
    Message('note_on', channel=11, note=59, velocity=92, time=4),
    Message('note_on', channel=11, note=54, velocity=0, time=5),
    Message('note_on', channel=11, note=59, velocity=0, time=4),
    Message('note_on', channel=11, note=36, velocity=83, time=7),
    Message('note_on', channel=11, note=67, velocity=127, time=61),
    Message('note_on', channel=11, note=59, velocity=127, time=0),
    Message('note_on', channel=11, note=59, velocity=0, time=8),
    Message('note_on', channel=11, note=67, velocity=0, time=0),
    Message('note_on', channel=11, note=59, velocity=127, time=12),
    Message('note_on', channel=11, note=67, velocity=90, time=1),
    Message('note_on', channel=11, note=59, velocity=0, time=7),
    Message('note_on', channel=11, note=67, velocity=0, time=1),
    Message('note_on', channel=11, note=67, velocity=82, time=9),
    Message('note_on', channel=11, note=59, velocity=90, time=0),
    Message('note_on', channel=11, note=59, velocity=0, time=8),
    Message('note_on', channel=11, note=67, velocity=0, time=3),
    Message('note_on', channel=11, note=38, velocity=84, time=7),
    Message('note_on', channel=11, note=36, velocity=0, time=2),
    Message('note_on', channel=11, note=66, velocity=127, time=3),
    Message('note_on', channel=11, note=60, velocity=126, time=3),
    Message('note_on', channel=11, note=66, velocity=0, time=7),
    Message('note_on', channel=11, note=60, velocity=0, time=1),
    Message('note_on', channel=11, note=60, velocity=101, time=6),
    Message('note_on', channel=11, note=66, velocity=127, time=4),
    Message('note_on', channel=11, note=60, velocity=0, time=6),
    Message('note_on', channel=11, note=66, velocity=0, time=2),
    Message('note_on', channel=11, note=60, velocity=104, time=7),
    Message('note_on', channel=11, note=66, velocity=116, time=3),
    Message('note_on', channel=11, note=60, velocity=0, time=9),
    Message('note_on', channel=11, note=66, velocity=0, time=1),
    Message('note_on', channel=11, note=54, velocity=119, time=10),
    Message('note_on', channel=11, note=62, velocity=97, time=3),
    Message('note_on', channel=11, note=54, velocity=0, time=6),
    Message('note_on', channel=11, note=62, velocity=0, time=4),
    Message('note_on', channel=11, note=54, velocity=90, time=7),
    Message('note_on', channel=11, note=62, velocity=90, time=5),
    Message('note_on', channel=11, note=54, velocity=0, time=3),
    Message('note_on', channel=11, note=62, velocity=0, time=6),
    Message('note_on', channel=11, note=54, velocity=127, time=4),
    Message('note_on', channel=11, note=62, velocity=76, time=6),
    Message('note_on', channel=11, note=54, velocity=0, time=3),
    Message('note_on', channel=11, note=39, velocity=89, time=4),
    Message('note_on', channel=11, note=62, velocity=0, time=3),
    Message('note_on', channel=11, note=65, velocity=127, time=4),
    Message('note_on', channel=11, note=57, velocity=119, time=2),
    Message('note_on', channel=11, note=65, velocity=0, time=8),
    Message('note_on', channel=11, note=57, velocity=0, time=1),
    Message('note_on', channel=11, note=38, velocity=0, time=0),
    Message('note_on', channel=11, note=65, velocity=121, time=8),
    Message('note_on', channel=11, note=57, velocity=97, time=1),
    Message('note_on', channel=11, note=65, velocity=0, time=8),
    Message('note_on', channel=11, note=57, velocity=0, time=2),
    Message('note_on', channel=11, note=65, velocity=97, time=9),
    Message('note_on', channel=11, note=57, velocity=104, time=1),
    Message('note_on', channel=11, note=65, velocity=0, time=6),
    Message('note_on', channel=11, note=57, velocity=0, time=7),
    Message('note_on', channel=11, note=63, velocity=127, time=7),
    Message('note_on', channel=11, note=55, velocity=116, time=1),
    Message('note_on', channel=11, note=63, velocity=0, time=6),
    Message('note_on', channel=11, note=55, velocity=0, time=3),
    Message('note_on', channel=11, note=63, velocity=97, time=8),
    Message('note_on', channel=11, note=55, velocity=101, time=2),
    Message('note_on', channel=11, note=63, velocity=0, time=5),
    Message('note_on', channel=11, note=55, velocity=0, time=3),
    Message('note_on', channel=11, note=63, velocity=104, time=8),
    Message('note_on', channel=11, note=55, velocity=127, time=4),
    Message('note_on', channel=11, note=63, velocity=0, time=7),
    Message('note_on', channel=11, note=55, velocity=0, time=2),
    Message('note_on', channel=11, note=39, velocity=0, time=5),
    Message('note_on', channel=11, note=41, velocity=92, time=0),
    Message('note_on', channel=11, note=59, velocity=121, time=4),
    Message('note_on', channel=11, note=51, velocity=127, time=3),
    Message('note_on', channel=11, note=59, velocity=0, time=7),
    Message('note_on', channel=11, note=51, velocity=0, time=1),
    Message('note_on', channel=11, note=59, velocity=114, time=9),
    Message('note_on', channel=11, note=51, velocity=127, time=2),
    Message('note_on', channel=11, note=59, velocity=0, time=8),
    Message('note_on', channel=11, note=51, velocity=0, time=1),
    Message('note_on', channel=11, note=59, velocity=76, time=9),
    Message('note_on', channel=11, note=51, velocity=119, time=1),
    Message('note_on', channel=11, note=59, velocity=0, time=8),
    Message('note_on', channel=11, note=51, velocity=0, time=1),
    Message('note_on', channel=11, note=56, velocity=86, time=8),
    Message('note_on', channel=11, note=47, velocity=121, time=5),
    Message('note_on', channel=11, note=56, velocity=0, time=6),
    Message('note_on', channel=11, note=47, velocity=0, time=2),
    Message('note_on', channel=11, note=56, velocity=104, time=11),
    Message('note_on', channel=11, note=47, velocity=127, time=1),
    Message('note_on', channel=11, note=56, velocity=0, time=5),
    Message('note_on', channel=11, note=47, velocity=0, time=4),
    Message('note_on', channel=11, note=56, velocity=114, time=6),
    Message('note_on', channel=11, note=47, velocity=127, time=4),
    Message('note_on', channel=11, note=56, velocity=0, time=4),
    Message('note_on', channel=11, note=47, velocity=0, time=6),
    Message('note_on', channel=11, note=41, velocity=0, time=4),
    Message('note_on', channel=11, note=50, velocity=127, time=4),
    Message('note_on', channel=11, note=38, velocity=127, time=3),
    Message('note_on', channel=11, note=45, velocity=119, time=5),
    Message('note_on', channel=11, note=50, velocity=0, time=41),
    Message('note_on', channel=11, note=38, velocity=0, time=8),
    Message('note_on', channel=11, note=57, velocity=106, time=10),
    Message('note_on', channel=11, note=53, velocity=127, time=2),
    Message('note_on', channel=11, note=57, velocity=0, time=5),
    Message('note_on', channel=11, note=53, velocity=0, time=2),
    Message('note_on', channel=11, note=45, velocity=0, time=2),
    Message('note_on', channel=11, note=57, velocity=92, time=9),
    Message('note_on', channel=11, note=53, velocity=106, time=2),
    Message('note_on', channel=11, note=57, velocity=0, time=4),
    Message('note_on', channel=11, note=53, velocity=0, time=1),
    Message('note_on', channel=11, note=53, velocity=106, time=9),
    Message('note_on', channel=11, note=57, velocity=83, time=2),
    Message('note_on', channel=11, note=57, velocity=0, time=10),
    Message('note_on', channel=11, note=53, velocity=0, time=3),
    Message('note_on', channel=11, note=49, velocity=119, time=7),
    Message('note_on', channel=11, note=58, velocity=127, time=0),
    Message('note_on', channel=11, note=58, velocity=0, time=9),
    Message('note_on', channel=11, note=49, velocity=0, time=3),
    Message('note_on', channel=11, note=58, velocity=106, time=8),
    Message('note_on', channel=11, note=49, velocity=106, time=3),
    Message('note_on', channel=11, note=58, velocity=0, time=4),
    Message('note_on', channel=11, note=49, velocity=0, time=6),
    Message('note_on', channel=11, note=58, velocity=92, time=6),
    Message('note_on', channel=11, note=49, velocity=106, time=2),
    Message('note_on', channel=11, note=49, velocity=0, time=9),
    Message('note_on', channel=11, note=58, velocity=0, time=2),
    Message('note_on', channel=11, note=55, velocity=106, time=8),
    Message('note_on', channel=11, note=52, velocity=119, time=2),
    Message('note_on', channel=11, note=55, velocity=0, time=8),
    Message('note_on', channel=11, note=52, velocity=0, time=2),
    Message('note_on', channel=11, note=55, velocity=83, time=8),
    Message('note_on', channel=11, note=52, velocity=92, time=3),
    Message('note_on', channel=11, note=55, velocity=0, time=7),
    Message('note_on', channel=11, note=52, velocity=0, time=1),
    Message('note_on', channel=11, note=55, velocity=106, time=8),
    Message('note_on', channel=11, note=52, velocity=89, time=2),
    Message('note_on', channel=11, note=55, velocity=0, time=7),
    Message('note_on', channel=11, note=52, velocity=0, time=6),
    Message('note_on', channel=11, note=38, velocity=127, time=5),
    Message('note_on', channel=11, note=50, velocity=127, time=1),
    Message('note_on', channel=11, note=45, velocity=127, time=8),
    Message('note_on', channel=11, note=50, velocity=0, time=34),
    Message('note_on', channel=11, note=38, velocity=0, time=4),
    Message('note_on', channel=11, note=57, velocity=106, time=14),
    Message('note_on', channel=11, note=65, velocity=127, time=4),
    Message('note_on', channel=11, note=57, velocity=0, time=5),
    Message('note_on', channel=11, note=65, velocity=0, time=3),
    Message('note_on', channel=11, note=45, velocity=0, time=2),
    Message('note_on', channel=11, note=57, velocity=127, time=4),
    Message('note_on', channel=11, note=65, velocity=106, time=6),
    Message('note_on', channel=11, note=57, velocity=0, time=4),
    Message('note_on', channel=11, note=65, velocity=0, time=2),
    Message('note_on', channel=11, note=57, velocity=119, time=8),
    Message('note_on', channel=11, note=65, velocity=106, time=4),
    Message('note_on', channel=11, note=57, velocity=0, time=6),
    Message('note_on', channel=11, note=65, velocity=0, time=3),
    Message('note_on', channel=11, note=53, velocity=119, time=9),
    Message('note_on', channel=11, note=64, velocity=106, time=2),
    Message('note_on', channel=11, note=53, velocity=0, time=6),
    Message('note_on', channel=11, note=64, velocity=0, time=3),
    Message('note_on', channel=11, note=53, velocity=127, time=9),
    Message('note_on', channel=11, note=64, velocity=106, time=2),
    Message('note_on', channel=11, note=53, velocity=0, time=6),
    Message('note_on', channel=11, note=64, velocity=0, time=2),
    Message('note_on', channel=11, note=53, velocity=127, time=8),
    Message('note_on', channel=11, note=64, velocity=92, time=2),
    Message('note_on', channel=11, note=53, velocity=0, time=6),
    Message('note_on', channel=11, note=64, velocity=0, time=6),
    Message('note_on', channel=11, note=61, velocity=92, time=9),
    Message('note_on', channel=11, note=56, velocity=127, time=1),
    Message('note_on', channel=11, note=56, velocity=0, time=9),
    Message('note_on', channel=11, note=61, velocity=0, time=0),
    Message('note_on', channel=11, note=61, velocity=106, time=11),
    Message('note_on', channel=11, note=56, velocity=92, time=0),
    Message('note_on', channel=11, note=56, velocity=0, time=8),
    Message('note_on', channel=11, note=61, velocity=0, time=2),
    Message('note_on', channel=11, note=56, velocity=106, time=6),
    Message('note_on', channel=11, note=61, velocity=92, time=4),
    Message('note_on', channel=11, note=56, velocity=0, time=5),
    Message('note_on', channel=11, note=61, velocity=0, time=4),
    Message('note_on', channel=11, note=50, velocity=127, time=7),
    Message('note_on', channel=11, note=38, velocity=127, time=0),
    Message('note_on', channel=11, note=50, velocity=0, time=46),
    Message('note_on', channel=11, note=38, velocity=0, time=3),
    Message('note_on', channel=11, note=69, velocity=127, time=12),
    Message('note_on', channel=11, note=61, velocity=127, time=0),
    Message('note_on', channel=11, note=61, velocity=0, time=8),
    Message('note_on', channel=11, note=69, velocity=0, time=0),
    Message('note_on', channel=11, note=61, velocity=127, time=12),
    Message('note_on', channel=11, note=69, velocity=90, time=1),
    Message('note_on', channel=11, note=61, velocity=0, time=7),
    Message('note_on', channel=11, note=69, velocity=0, time=1),
    Message('note_on', channel=11, note=69, velocity=82, time=9),
    Message('note_on', channel=11, note=61, velocity=90, time=0),
    Message('note_on', channel=11, note=61, velocity=0, time=8),
    Message('note_on', channel=11, note=69, velocity=0, time=3),
    Message('note_on', channel=11, note=68, velocity=127, time=12),
    Message('note_on', channel=11, note=62, velocity=126, time=3),
    Message('note_on', channel=11, note=47, velocity=104, time=0),
    Message('note_on', channel=11, note=68, velocity=0, time=7),
    Message('note_on', channel=11, note=62, velocity=0, time=1),
    Message('note_on', channel=11, note=62, velocity=101, time=6),
    Message('note_on', channel=11, note=68, velocity=127, time=4),
    Message('note_on', channel=11, note=62, velocity=0, time=6),
    Message('note_on', channel=11, note=68, velocity=0, time=2),
    Message('note_on', channel=11, note=62, velocity=104, time=7),
    Message('note_on', channel=11, note=68, velocity=116, time=3),
    Message('note_on', channel=11, note=62, velocity=0, time=9),
    Message('note_on', channel=11, note=68, velocity=0, time=1),
    Message('note_on', channel=11, note=56, velocity=119, time=10),
    Message('note_on', channel=11, note=64, velocity=97, time=3),
    Message('note_on', channel=11, note=56, velocity=0, time=6),
    Message('note_on', channel=11, note=64, velocity=0, time=4),
    Message('note_on', channel=11, note=56, velocity=90, time=7),
    Message('note_on', channel=11, note=64, velocity=90, time=5),
    Message('note_on', channel=11, note=56, velocity=0, time=3),
    Message('note_on', channel=11, note=64, velocity=0, time=6),
    Message('note_on', channel=11, note=56, velocity=127, time=4),
    Message('note_on', channel=11, note=64, velocity=76, time=6),
    Message('note_on', channel=11, note=56, velocity=0, time=3),
    Message('note_on', channel=11, note=64, velocity=0, time=7),
    Message('note_on', channel=11, note=67, velocity=127, time=4),
    Message('note_on', channel=11, note=59, velocity=119, time=2),
    Message('note_on', channel=11, note=48, velocity=94, time=4),
    Message('note_on', channel=11, note=67, velocity=0, time=4),
    Message('note_on', channel=11, note=59, velocity=0, time=1),
    Message('note_on', channel=11, note=47, velocity=0, time=2),
    Message('note_on', channel=11, note=67, velocity=121, time=6),
    Message('note_on', channel=11, note=59, velocity=97, time=1),
    Message('note_on', channel=11, note=67, velocity=0, time=8),
    Message('note_on', channel=11, note=59, velocity=0, time=2),
    Message('note_on', channel=11, note=67, velocity=97, time=9),
    Message('note_on', channel=11, note=59, velocity=104, time=1),
    Message('note_on', channel=11, note=67, velocity=0, time=6),
    Message('note_on', channel=11, note=59, velocity=0, time=7),
    Message('note_on', channel=11, note=65, velocity=127, time=7),
    Message('note_on', channel=11, note=57, velocity=116, time=1),
    Message('note_on', channel=11, note=65, velocity=0, time=6),
    Message('note_on', channel=11, note=57, velocity=0, time=3),
    Message('note_on', channel=11, note=65, velocity=97, time=8),
    Message('note_on', channel=11, note=57, velocity=101, time=2),
    Message('note_on', channel=11, note=65, velocity=0, time=5),
    Message('note_on', channel=11, note=57, velocity=0, time=3),
    Message('note_on', channel=11, note=65, velocity=104, time=8),
    Message('note_on', channel=11, note=57, velocity=127, time=4),
    Message('note_on', channel=11, note=65, velocity=0, time=7),
    Message('note_on', channel=11, note=57, velocity=0, time=2),
    Message('note_on', channel=11, note=61, velocity=121, time=9),
    Message('note_on', channel=11, note=53, velocity=127, time=3),
    Message('note_on', channel=11, note=61, velocity=0, time=7),
    Message('note_on', channel=11, note=53, velocity=0, time=1),
    Message('note_on', channel=11, note=49, velocity=90, time=0),
    Message('note_on', channel=11, note=61, velocity=114, time=9),
    Message('note_on', channel=11, note=48, velocity=0, time=2),
    Message('note_on', channel=11, note=53, velocity=127, time=0),
    Message('note_on', channel=11, note=61, velocity=0, time=8),
    Message('note_on', channel=11, note=53, velocity=0, time=1),
    Message('note_on', channel=11, note=61, velocity=76, time=9),
    Message('note_on', channel=11, note=53, velocity=119, time=1),
    Message('note_on', channel=11, note=61, velocity=0, time=8),
    Message('note_on', channel=11, note=53, velocity=0, time=1),
    Message('note_on', channel=11, note=58, velocity=86, time=8),
    Message('note_on', channel=11, note=49, velocity=121, time=5),
    Message('note_on', channel=11, note=58, velocity=0, time=6),
    Message('note_on', channel=11, note=49, velocity=0, time=2),
    Message('note_on', channel=11, note=58, velocity=87, time=11),
    Message('note_on', channel=11, note=49, velocity=109, time=1),
    Message('note_on', channel=11, note=58, velocity=0, time=5),
    Message('note_on', channel=11, note=49, velocity=0, time=4),
    Message('note_on', channel=11, note=58, velocity=95, time=8),
    Message('note_on', channel=11, note=49, velocity=119, time=4),
    Message('note_on', channel=11, note=58, velocity=0, time=4),
    Message('note_on', channel=11, note=49, velocity=0, time=6),
    Message('note_on', channel=11, note=49, velocity=0, time=2),
    Message('note_on', channel=11, note=52, velocity=88, time=7),
    Message('note_on', channel=11, note=52, velocity=88, time=0),
    Message('note_on', channel=11, note=52, velocity=0, time=1),
    Message('note_on', channel=11, note=53, velocity=77, time=18),
    Message('note_on', channel=11, note=47, velocity=77, time=0),
    Message('note_on', channel=11, note=52, velocity=0, time=6),
    Message('note_on', channel=11, note=47, velocity=0, time=12),
    Message('note_on', channel=11, note=55, velocity=69, time=1),
    Message('note_on', channel=11, note=41, velocity=74, time=1),
    Message('note_on', channel=11, note=53, velocity=0, time=3),
    Message('note_on', channel=11, note=56, velocity=55, time=16),
    Message('note_on', channel=11, note=55, velocity=0, time=1),
    Message('note_on', channel=11, note=40, velocity=99, time=1),
    Message('note_on', channel=11, note=41, velocity=0, time=6),
    Message('note_on', channel=11, note=55, velocity=74, time=13),
    Message('note_on', channel=11, note=39, velocity=77, time=0),
    Message('note_on', channel=11, note=40, velocity=0, time=2),
    Message('note_on', channel=11, note=56, velocity=0, time=2),
    Message('note_on', channel=11, note=55, velocity=0, time=15),
    Message('note_on', channel=11, note=56, velocity=74, time=0),
    Message('note_on', channel=11, note=39, velocity=0, time=1),
    Message('note_on', channel=11, note=40, velocity=77, time=0),
    Message('note_on', channel=11, note=40, velocity=0, time=21),
    Message('note_on', channel=11, note=44, velocity=88, time=0),
    Message('note_on', channel=11, note=53, velocity=88, time=0),
    Message('note_on', channel=11, note=56, velocity=0, time=3),
    Message('note_on', channel=11, note=53, velocity=0, time=13),
    Message('note_on', channel=11, note=52, velocity=74, time=2),
    Message('note_on', channel=11, note=43, velocity=77, time=4),
    Message('note_on', channel=11, note=44, velocity=0, time=3),
    Message('note_on', channel=11, note=53, velocity=69, time=13),
    Message('note_on', channel=11, note=44, velocity=77, time=1),
    Message('note_on', channel=11, note=52, velocity=0, time=3),
    Message('note_on', channel=11, note=43, velocity=0, time=2),
    Message('note_on', channel=11, note=60, velocity=77, time=14),
    Message('note_on', channel=11, note=53, velocity=0, time=1),
    Message('note_on', channel=11, note=44, velocity=0, time=0),
    Message('note_on', channel=11, note=47, velocity=77, time=0),
    Message('note_on', channel=11, note=60, velocity=0, time=19),
    Message('note_on', channel=11, note=59, velocity=74, time=0),
    Message('note_on', channel=11, note=47, velocity=0, time=1),
    Message('note_on', channel=11, note=46, velocity=99, time=1),
    Message('note_on', channel=11, note=59, velocity=0, time=17),
    Message('note_on', channel=11, note=60, velocity=77, time=1),
    Message('note_on', channel=11, note=46, velocity=0, time=1),
    Message('note_on', channel=11, note=47, velocity=88, time=0),
    Message('note_on', channel=11, note=47, velocity=0, time=16),
    Message('note_on', channel=11, note=60, velocity=0, time=1),
    Message('note_on', channel=11, note=52, velocity=88, time=5),
    Message('note_on', channel=11, note=60, velocity=88, time=1),
    Message('note_on', channel=11, note=59, velocity=69, time=18),
    Message('note_on', channel=11, note=48, velocity=74, time=1),
    Message('note_on', channel=11, note=52, velocity=0, time=1),
    Message('note_on', channel=11, note=60, velocity=0, time=3),
    Message('note_on', channel=11, note=47, velocity=74, time=14),
    Message('note_on', channel=11, note=59, velocity=0, time=1),
    Message('note_on', channel=11, note=48, velocity=0, time=0),
    Message('note_on', channel=11, note=57, velocity=74, time=0),
    Message('note_on', channel=11, note=53, velocity=88, time=20),
    Message('note_on', channel=11, note=47, velocity=0, time=4),
    Message('note_on', channel=11, note=56, velocity=69, time=1),
    Message('note_on', channel=11, note=57, velocity=0, time=11),
    Message('note_on', channel=11, note=52, velocity=63, time=4),
    Message('note_on', channel=11, note=56, velocity=0, time=3),
    Message('note_on', channel=11, note=53, velocity=0, time=0),
    Message('note_on', channel=11, note=59, velocity=74, time=1),
    Message('note_on', channel=11, note=48, velocity=88, time=16),
    Message('note_on', channel=11, note=64, velocity=88, time=2),
    Message('note_on', channel=11, note=59, velocity=0, time=1),
    Message('note_on', channel=11, note=52, velocity=0, time=4),
    Message('note_on', channel=11, note=64, velocity=0, time=6),
    Message('note_on', channel=11, note=48, velocity=0, time=2),
    Message('note_on', channel=11, note=41, velocity=74, time=5),
    Message('note_on', channel=11, note=64, velocity=88, time=4),
    Message('note_on', channel=11, note=44, velocity=69, time=16),
    Message('note_on', channel=11, note=64, velocity=0, time=1),
    Message('note_on', channel=11, note=60, velocity=74, time=3),
    Message('note_on', channel=11, note=41, velocity=0, time=3),
    Message('note_on', channel=11, note=47, velocity=74, time=13),
    Message('note_on', channel=11, note=44, velocity=0, time=1),
    Message('note_on', channel=11, note=59, velocity=77, time=0),
    Message('note_on', channel=11, note=60, velocity=0, time=3),
    Message('note_on', channel=11, note=59, velocity=0, time=17),
    Message('note_on', channel=11, note=47, velocity=0, time=0),
    Message('note_on', channel=11, note=48, velocity=74, time=0),
    Message('note_on', channel=11, note=56, velocity=74, time=2),
    Message('note_on', channel=11, note=48, velocity=0, time=16),
    Message('note_on', channel=11, note=47, velocity=77, time=1),
    Message('note_on', channel=11, note=64, velocity=77, time=4),
    Message('note_on', channel=11, note=56, velocity=0, time=3),
    Message('note_on', channel=11, note=48, velocity=77, time=13),
    Message('note_on', channel=11, note=68, velocity=77, time=0),
    Message('note_on', channel=11, note=47, velocity=0, time=1),
    Message('note_on', channel=11, note=64, velocity=0, time=1),
    Message('note_on', channel=11, note=68, velocity=0, time=9),
    Message('note_on', channel=11, note=48, velocity=0, time=9),
    Message('note_on', channel=11, note=53, velocity=127, time=241),
    Message('note_on', channel=11, note=61, velocity=119, time=0),
    Message('note_on', channel=11, note=38, velocity=127, time=2),
    Message('note_on', channel=11, note=49, velocity=108, time=0),
    Message('note_on', channel=11, note=53, velocity=0, time=24),
    Message('note_on', channel=11, note=61, velocity=0, time=2),
    Message('note_on', channel=11, note=38, velocity=0, time=2),
    Message('note_on', channel=11, note=49, velocity=0, time=0),
    Message('note_on', channel=11, note=53, velocity=127, time=210),
    Message('note_on', channel=11, note=61, velocity=119, time=0),
    Message('note_on', channel=11, note=49, velocity=119, time=2),
    Message('note_on', channel=11, note=38, velocity=127, time=2),
    Message('note_on', channel=11, note=38, velocity=0, time=21),
    Message('note_on', channel=11, note=53, velocity=0, time=2),
    Message('note_on', channel=11, note=61, velocity=0, time=1),
    Message('note_on', channel=11, note=49, velocity=0, time=2),
    Message('note_on', channel=11, note=53, velocity=127, time=211),
    Message('note_on', channel=11, note=61, velocity=119, time=0),
    Message('note_on', channel=11, note=49, velocity=119, time=2),
    Message('note_on', channel=11, note=38, velocity=127, time=0),
    Message('note_on', channel=11, note=25, velocity=127, time=5),
    Message('note_on', channel=11, note=53, velocity=0, time=13),
    Message('note_on', channel=11, note=61, velocity=0, time=2),
    Message('note_on', channel=11, note=38, velocity=0, time=5),
    Message('note_on', channel=11, note=49, velocity=0, time=3),
    Message('note_on', channel=11, note=25, velocity=0, time=53),
    MetaMessage('end_of_track', time=0)]),
  MidiTrack([
    MetaMessage('midi_port', port=1, time=0),
    MetaMessage('track_name', name='Timpani', time=0),
    Message('program_change', channel=5, program=47, time=0),
    Message('control_change', channel=5, control=7, value=109, time=0),
    Message('control_change', channel=5, control=10, value=50, time=0),
    Message('control_change', channel=5, control=18, value=64, time=10),
    Message('note_on', channel=5, note=34, velocity=72, time=470),
    Message('note_on', channel=5, note=46, velocity=119, time=0),
    Message('note_on', channel=5, note=46, velocity=0, time=338),
    Message('note_on', channel=5, note=34, velocity=0, time=0),
    Message('note_on', channel=5, note=41, velocity=87, time=1022),
    Message('note_on', channel=5, note=41, velocity=0, time=33),
    Message('note_on', channel=5, note=41, velocity=87, time=30),
    Message('note_on', channel=5, note=41, velocity=0, time=28),
    Message('note_on', channel=5, note=41, velocity=87, time=32),
    Message('note_on', channel=5, note=41, velocity=0, time=31),
    Message('note_on', channel=5, note=46, velocity=69, time=127),
    Message('note_on', channel=5, note=46, velocity=0, time=10),
    Message('note_on', channel=5, note=46, velocity=71, time=9),
    Message('note_on', channel=5, note=46, velocity=0, time=9),
    Message('note_on', channel=5, note=46, velocity=71, time=11),
    Message('note_on', channel=5, note=46, velocity=0, time=150),
    Message('note_on', channel=5, note=46, velocity=63, time=32),
    Message('note_on', channel=5, note=46, velocity=0, time=8),
    Message('note_on', channel=5, note=46, velocity=71, time=10),
    Message('note_on', channel=5, note=46, velocity=0, time=8),
    Message('note_on', channel=5, note=46, velocity=71, time=9),
    Message('note_on', channel=5, note=46, velocity=0, time=10),
    Message('note_on', channel=5, note=46, velocity=71, time=16),
    Message('note_on', channel=5, note=46, velocity=0, time=23),
    Message('note_on', channel=5, note=41, velocity=71, time=35),
    Message('note_on', channel=5, note=41, velocity=0, time=23),
    Message('note_on', channel=5, note=29, velocity=61, time=1089),
    Message('note_on', channel=5, note=29, velocity=0, time=6),
    Message('note_on', channel=5, note=29, velocity=53, time=2),
    Message('note_on', channel=5, note=29, velocity=0, time=6),
    Message('note_on', channel=5, note=29, velocity=61, time=3),
    Message('note_on', channel=5, note=29, velocity=0, time=5),
    Message('note_on', channel=5, note=29, velocity=70, time=5),
    Message('note_on', channel=5, note=29, velocity=0, time=60),
    Message('note_on', channel=5, note=29, velocity=56, time=120),
    Message('note_on', channel=5, note=29, velocity=0, time=10),
    Message('note_on', channel=5, note=29, velocity=61, time=5),
    Message('note_on', channel=5, note=29, velocity=0, time=8),
    Message('note_on', channel=5, note=29, velocity=63, time=12),
    Message('note_on', channel=5, note=29, velocity=0, time=8),
    Message('note_on', channel=5, note=29, velocity=55, time=17),
    Message('note_on', channel=5, note=29, velocity=0, time=21),
    Message('note_on', channel=5, note=29, velocity=52, time=39),
    Message('note_on', channel=5, note=29, velocity=0, time=23),
    Message('note_on', channel=5, note=34, velocity=73, time=35),
    Message('note_on', channel=5, note=34, velocity=0, time=105),
    Message('note_on', channel=5, note=33, velocity=71, time=13),
    Message('note_on', channel=5, note=33, velocity=0, time=97),
    Message('note_on', channel=5, note=33, velocity=71, time=24),
    Message('note_on', channel=5, note=33, velocity=65, time=69),
    Message('note_on', channel=5, note=33, velocity=0, time=6),
    Message('note_on', channel=5, note=34, velocity=55, time=47),
    Message('note_on', channel=5, note=33, velocity=0, time=16),
    Message('note_on', channel=5, note=34, velocity=0, time=2),
    Message('note_on', channel=5, note=34, velocity=56, time=21),
    Message('note_on', channel=5, note=34, velocity=0, time=18),
    Message('note_on', channel=5, note=33, velocity=65, time=15),
    Message('note_on', channel=5, note=33, velocity=0, time=22),
    Message('note_on', channel=5, note=31, velocity=73, time=25),
    Message('note_on', channel=5, note=31, velocity=0, time=108),
    Message('note_on', channel=5, note=31, velocity=71, time=14),
    Message('note_on', channel=5, note=31, velocity=0, time=81),
    Message('note_on', channel=5, note=53, velocity=65, time=756),
    Message('note_on', channel=5, note=41, velocity=65, time=1),
    Message('note_on', channel=5, note=53, velocity=0, time=86),
    Message('note_on', channel=5, note=41, velocity=0, time=7),
    Message('note_on', channel=5, note=29, velocity=71, time=20),
    Message('note_on', channel=5, note=41, velocity=71, time=1),
    Message('note_on', channel=5, note=41, velocity=0, time=18),
    Message('note_on', channel=5, note=29, velocity=0, time=1),
    Message('note_on', channel=5, note=29, velocity=73, time=16),
    Message('note_on', channel=5, note=41, velocity=62, time=3),
    Message('note_on', channel=5, note=29, velocity=0, time=16),
    Message('note_on', channel=5, note=41, velocity=0, time=2),
    Message('note_on', channel=5, note=29, velocity=71, time=17),
    Message('note_on', channel=5, note=41, velocity=62, time=2),
    Message('note_on', channel=5, note=29, velocity=0, time=18),
    Message('note_on', channel=5, note=41, velocity=0, time=4),
    Message('note_on', channel=5, note=29, velocity=73, time=22),
    Message('note_on', channel=5, note=41, velocity=71, time=2),
    Message('note_on', channel=5, note=41, velocity=0, time=103),
    Message('note_on', channel=5, note=29, velocity=0, time=0),
    Message('note_on', channel=5, note=41, velocity=118, time=3504),
    Message('note_on', channel=5, note=41, velocity=0, time=19),
    Message('note_on', channel=5, note=41, velocity=62, time=71),
    Message('note_on', channel=5, note=41, velocity=0, time=23),
    Message('note_on', channel=5, note=41, velocity=111, time=7),
    Message('note_on', channel=5, note=41, velocity=0, time=20),
    Message('note_on', channel=5, note=41, velocity=62, time=70),
    Message('note_on', channel=5, note=41, velocity=0, time=19),
    Message('note_on', channel=5, note=41, velocity=105, time=11),
    Message('note_on', channel=5, note=41, velocity=0, time=18),
    Message('note_on', channel=5, note=41, velocity=72, time=12),
    Message('note_on', channel=5, note=41, velocity=0, time=19),
    Message('note_on', channel=5, note=41, velocity=99, time=11),
    Message('note_on', channel=5, note=41, velocity=0, time=16),
    Message('note_on', channel=5, note=41, velocity=69, time=14),
    Message('note_on', channel=5, note=41, velocity=0, time=21),
    Message('note_on', channel=5, note=41, velocity=105, time=9),
    Message('note_on', channel=5, note=41, velocity=0, time=20),
    Message('note_on', channel=5, note=41, velocity=68, time=70),
    Message('note_on', channel=5, note=41, velocity=0, time=22),
    Message('note_on', channel=5, note=41, velocity=113, time=8),
    Message('note_on', channel=5, note=41, velocity=0, time=21),
    Message('note_on', channel=5, note=41, velocity=73, time=69),
    Message('note_on', channel=5, note=41, velocity=0, time=20),
    Message('note_on', channel=5, note=41, velocity=108, time=10),
    Message('note_on', channel=5, note=41, velocity=0, time=19),
    Message('note_on', channel=5, note=41, velocity=68, time=11),
    Message('note_on', channel=5, note=41, velocity=0, time=20),
    Message('note_on', channel=5, note=41, velocity=104, time=10),
    Message('note_on', channel=5, note=41, velocity=0, time=15),
    Message('note_on', channel=5, note=41, velocity=68, time=15),
    Message('note_on', channel=5, note=41, velocity=0, time=21),
    Message('note_on', channel=5, note=41, velocity=106, time=9),
    Message('note_on', channel=5, note=41, velocity=0, time=20),
    Message('note_on', channel=5, note=41, velocity=72, time=70),
    Message('note_on', channel=5, note=41, velocity=0, time=20),
    Message('note_on', channel=5, note=41, velocity=111, time=10),
    Message('note_on', channel=5, note=41, velocity=0, time=21),
    Message('note_on', channel=5, note=41, velocity=65, time=69),
    Message('note_on', channel=5, note=41, velocity=0, time=21),
    Message('note_on', channel=5, note=41, velocity=106, time=9),
    Message('note_on', channel=5, note=41, velocity=0, time=20),
    Message('note_on', channel=5, note=41, velocity=71, time=10),
    Message('note_on', channel=5, note=41, velocity=0, time=16),
    Message('note_on', channel=5, note=41, velocity=102, time=14),
    Message('note_on', channel=5, note=41, velocity=0, time=19),
    Message('note_on', channel=5, note=41, velocity=71, time=11),
    Message('note_on', channel=5, note=41, velocity=0, time=18),
    Message('note_on', channel=5, note=41, velocity=105, time=12),
    Message('note_on', channel=5, note=41, velocity=0, time=23),
    Message('note_on', channel=5, note=41, velocity=78, time=67),
    Message('note_on', channel=5, note=41, velocity=0, time=22),
    Message('note_on', channel=5, note=41, velocity=111, time=8),
    Message('note_on', channel=5, note=41, velocity=0, time=21),
    Message('note_on', channel=5, note=41, velocity=73, time=69),
    Message('note_on', channel=5, note=41, velocity=0, time=19),
    Message('note_on', channel=5, note=41, velocity=105, time=11),
    Message('note_on', channel=5, note=41, velocity=0, time=19),
    Message('note_on', channel=5, note=41, velocity=73, time=11),
    Message('note_on', channel=5, note=41, velocity=0, time=22),
    Message('note_on', channel=5, note=41, velocity=94, time=8),
    Message('note_on', channel=5, note=41, velocity=0, time=15),
    Message('note_on', channel=5, note=41, velocity=77, time=15),
    Message('note_on', channel=5, note=41, velocity=0, time=23),
    Message('note_on', channel=5, note=41, velocity=107, time=7),
    Message('note_on', channel=5, note=41, velocity=0, time=23),
    Message('note_on', channel=5, note=41, velocity=73, time=67),
    Message('note_on', channel=5, note=41, velocity=0, time=22),
    Message('note_on', channel=5, note=41, velocity=107, time=8),
    Message('note_on', channel=5, note=41, velocity=0, time=22),
    Message('note_on', channel=5, note=41, velocity=68, time=68),
    Message('note_on', channel=5, note=41, velocity=0, time=21),
    Message('note_on', channel=5, note=41, velocity=105, time=9),
    Message('note_on', channel=5, note=41, velocity=0, time=20),
    Message('note_on', channel=5, note=41, velocity=71, time=10),
    Message('note_on', channel=5, note=41, velocity=0, time=10),
    Message('note_on', channel=5, note=41, velocity=102, time=20),
    Message('note_on', channel=5, note=41, velocity=0, time=19),
    Message('note_on', channel=5, note=41, velocity=68, time=11),
    Message('note_on', channel=5, note=41, velocity=0, time=19),
    Message('note_on', channel=5, note=41, velocity=111, time=11),
    Message('note_on', channel=5, note=41, velocity=0, time=25),
    Message('note_on', channel=5, note=41, velocity=73, time=65),
    Message('note_on', channel=5, note=41, velocity=0, time=24),
    Message('note_on', channel=5, note=41, velocity=112, time=6),
    Message('note_on', channel=5, note=41, velocity=0, time=23),
    Message('note_on', channel=5, note=41, velocity=65, time=67),
    Message('note_on', channel=5, note=41, velocity=0, time=19),
    Message('note_on', channel=5, note=41, velocity=106, time=11),
    Message('note_on', channel=5, note=41, velocity=0, time=21),
    Message('note_on', channel=5, note=41, velocity=78, time=9),
    Message('note_on', channel=5, note=41, velocity=0, time=19),
    Message('note_on', channel=5, note=41, velocity=107, time=11),
    Message('note_on', channel=5, note=41, velocity=0, time=16),
    Message('note_on', channel=5, note=41, velocity=78, time=14),
    Message('note_on', channel=5, note=41, velocity=0, time=26),
    Message('note_on', channel=5, note=41, velocity=106, time=4),
    Message('note_on', channel=5, note=41, velocity=0, time=23),
    Message('note_on', channel=5, note=41, velocity=73, time=67),
    Message('note_on', channel=5, note=41, velocity=0, time=20),
    Message('note_on', channel=5, note=41, velocity=107, time=10),
    Message('note_on', channel=5, note=41, velocity=0, time=21),
    Message('note_on', channel=5, note=41, velocity=79, time=69),
    Message('note_on', channel=5, note=41, velocity=0, time=23),
    Message('note_on', channel=5, note=41, velocity=112, time=7),
    Message('note_on', channel=5, note=41, velocity=0, time=19),
    Message('note_on', channel=5, note=41, velocity=82, time=11),
    Message('note_on', channel=5, note=41, velocity=0, time=16),
    Message('note_on', channel=5, note=41, velocity=106, time=14),
    Message('note_on', channel=5, note=41, velocity=0, time=18),
    Message('note_on', channel=5, note=41, velocity=95, time=12),
    Message('note_on', channel=5, note=41, velocity=0, time=23),
    Message('note_on', channel=5, note=41, velocity=87, time=7),
    Message('note_on', channel=5, note=41, velocity=0, time=16),
    Message('note_on', channel=5, note=41, velocity=76, time=14),
    Message('note_on', channel=5, note=41, velocity=0, time=20),
    Message('note_on', channel=5, note=41, velocity=86, time=10),
    Message('note_on', channel=5, note=41, velocity=0, time=18),
    Message('note_on', channel=5, note=41, velocity=77, time=12),
    Message('note_on', channel=5, note=41, velocity=0, time=18),
    Message('note_on', channel=5, note=36, velocity=88, time=12),
    Message('note_on', channel=5, note=36, velocity=0, time=16),
    Message('note_on', channel=5, note=36, velocity=82, time=14),
    Message('note_on', channel=5, note=36, velocity=0, time=17),
    Message('note_on', channel=5, note=36, velocity=95, time=13),
    Message('note_on', channel=5, note=36, velocity=0, time=15),
    Message('note_on', channel=5, note=36, velocity=86, time=15),
    Message('note_on', channel=5, note=36, velocity=0, time=20),
    Message('note_on', channel=5, note=43, velocity=119, time=5),
    Message('note_on', channel=5, note=43, velocity=0, time=37),
    Message('note_on', channel=5, note=43, velocity=87, time=58),
    Message('note_on', channel=5, note=43, velocity=0, time=13),
    Message('note_on', channel=5, note=43, velocity=108, time=17),
    Message('note_on', channel=5, note=43, velocity=0, time=35),
    Message('note_on', channel=5, note=43, velocity=87, time=55),
    Message('note_on', channel=5, note=43, velocity=0, time=13),
    Message('note_on', channel=5, note=43, velocity=116, time=17),
    Message('note_on', channel=5, note=43, velocity=0, time=30),
    Message('note_on', channel=5, note=43, velocity=88, time=60),
    Message('note_on', channel=5, note=43, velocity=0, time=15),
    Message('note_on', channel=5, note=43, velocity=112, time=15),
    Message('note_on', channel=5, note=43, velocity=0, time=20),
    Message('note_on', channel=5, note=43, velocity=88, time=10),
    Message('note_on', channel=5, note=43, velocity=0, time=6),
    Message('note_on', channel=5, note=43, velocity=107, time=24),
    Message('note_on', channel=5, note=43, velocity=0, time=15),
    Message('note_on', channel=5, note=43, velocity=96, time=15),
    Message('note_on', channel=5, note=43, velocity=0, time=18),
    Message('note_on', channel=5, note=43, velocity=116, time=12),
    Message('note_on', channel=5, note=43, velocity=0, time=27),
    Message('note_on', channel=5, note=43, velocity=94, time=63),
    Message('note_on', channel=5, note=43, velocity=0, time=10),
    Message('note_on', channel=5, note=43, velocity=112, time=20),
    Message('note_on', channel=5, note=43, velocity=0, time=21),
    Message('note_on', channel=5, note=43, velocity=87, time=69),
    Message('note_on', channel=5, note=43, velocity=0, time=16),
    Message('note_on', channel=5, note=43, velocity=112, time=14),
    Message('note_on', channel=5, note=43, velocity=0, time=17),
    Message('note_on', channel=5, note=43, velocity=86, time=13),
    Message('note_on', channel=5, note=43, velocity=0, time=16),
    Message('note_on', channel=5, note=43, velocity=105, time=14),
    Message('note_on', channel=5, note=43, velocity=0, time=8),
    Message('note_on', channel=5, note=43, velocity=89, time=22),
    Message('note_on', channel=5, note=43, velocity=0, time=23),
    Message('note_on', channel=5, note=43, velocity=116, time=7),
    Message('note_on', channel=5, note=43, velocity=0, time=21),
    Message('note_on', channel=5, note=43, velocity=89, time=69),
    Message('note_on', channel=5, note=43, velocity=0, time=18),
    Message('note_on', channel=5, note=43, velocity=112, time=12),
    Message('note_on', channel=5, note=43, velocity=0, time=17),
    Message('note_on', channel=5, note=43, velocity=80, time=73),
    Message('note_on', channel=5, note=43, velocity=0, time=13),
    Message('note_on', channel=5, note=43, velocity=112, time=17),
    Message('note_on', channel=5, note=43, velocity=0, time=15),
    Message('note_on', channel=5, note=43, velocity=80, time=15),
    Message('note_on', channel=5, note=43, velocity=0, time=14),
    Message('note_on', channel=5, note=43, velocity=107, time=16),
    Message('note_on', channel=5, note=43, velocity=0, time=11),
    Message('note_on', channel=5, note=43, velocity=87, time=19),
    Message('note_on', channel=5, note=43, velocity=0, time=21),
    Message('note_on', channel=5, note=43, velocity=115, time=9),
    Message('note_on', channel=5, note=43, velocity=0, time=26),
    Message('note_on', channel=5, note=43, velocity=78, time=64),
    Message('note_on', channel=5, note=43, velocity=0, time=18),
    Message('note_on', channel=5, note=43, velocity=106, time=12),
    Message('note_on', channel=5, note=43, velocity=0, time=28),
    Message('note_on', channel=5, note=43, velocity=83, time=62),
    Message('note_on', channel=5, note=43, velocity=0, time=20),
    Message('note_on', channel=5, note=43, velocity=108, time=10),
    Message('note_on', channel=5, note=43, velocity=0, time=20),
    Message('note_on', channel=5, note=43, velocity=85, time=10),
    Message('note_on', channel=5, note=43, velocity=0, time=7),
    Message('note_on', channel=5, note=43, velocity=108, time=23),
    Message('note_on', channel=5, note=43, velocity=0, time=16),
    Message('note_on', channel=5, note=43, velocity=86, time=14),
    Message('note_on', channel=5, note=43, velocity=0, time=21),
    Message('note_on', channel=5, note=43, velocity=117, time=9),
    Message('note_on', channel=5, note=43, velocity=0, time=35),
    Message('note_on', channel=5, note=43, velocity=88, time=55),
    Message('note_on', channel=5, note=43, velocity=0, time=20),
    Message('note_on', channel=5, note=43, velocity=106, time=10),
    Message('note_on', channel=5, note=43, velocity=0, time=27),
    Message('note_on', channel=5, note=43, velocity=88, time=63),
    Message('note_on', channel=5, note=43, velocity=0, time=20),
    Message('note_on', channel=5, note=43, velocity=108, time=10),
    Message('note_on', channel=5, note=43, velocity=0, time=18),
    Message('note_on', channel=5, note=43, velocity=95, time=12),
    Message('note_on', channel=5, note=43, velocity=0, time=16),
    Message('note_on', channel=5, note=43, velocity=115, time=14),
    Message('note_on', channel=5, note=43, velocity=0, time=15),
    Message('note_on', channel=5, note=43, velocity=96, time=15),
    Message('note_on', channel=5, note=43, velocity=0, time=18),
    Message('note_on', channel=5, note=43, velocity=112, time=12),
    Message('note_on', channel=5, note=43, velocity=0, time=24),
    Message('note_on', channel=5, note=39, velocity=119, time=342),
    Message('note_on', channel=5, note=39, velocity=0, time=12),
    Message('note_on', channel=5, note=39, velocity=119, time=8),
    Message('note_on', channel=5, note=39, velocity=0, time=12),
    Message('note_on', channel=5, note=39, velocity=119, time=10),
    Message('note_on', channel=5, note=39, velocity=0, time=15),
    Message('note_on', channel=5, note=39, velocity=119, time=4),
    Message('note_on', channel=5, note=39, velocity=0, time=12),
    Message('note_on', channel=5, note=39, velocity=119, time=411),
    Message('note_on', channel=5, note=39, velocity=0, time=13),
    Message('note_on', channel=5, note=39, velocity=119, time=7),
    Message('note_on', channel=5, note=39, velocity=0, time=12),
    Message('note_on', channel=5, note=39, velocity=119, time=10),
    Message('note_on', channel=5, note=39, velocity=0, time=15),
    Message('note_on', channel=5, note=39, velocity=119, time=6),
    Message('note_on', channel=5, note=39, velocity=0, time=12),
    Message('note_on', channel=5, note=39, velocity=119, time=401),
    Message('note_on', channel=5, note=39, velocity=0, time=14),
    Message('note_on', channel=5, note=39, velocity=119, time=11),
    Message('note_on', channel=5, note=39, velocity=0, time=10),
    Message('note_on', channel=5, note=39, velocity=119, time=11),
    Message('note_on', channel=5, note=39, velocity=0, time=12),
    Message('note_on', channel=5, note=39, velocity=119, time=7),
    Message('note_on', channel=5, note=39, velocity=0, time=10),
    Message('note_on', channel=5, note=39, velocity=119, time=406),
    Message('note_on', channel=5, note=39, velocity=0, time=13),
    Message('note_on', channel=5, note=39, velocity=119, time=8),
    Message('note_on', channel=5, note=39, velocity=0, time=13),
    Message('note_on', channel=5, note=39, velocity=119, time=10),
    Message('note_on', channel=5, note=39, velocity=0, time=12),
    Message('note_on', channel=5, note=39, velocity=119, time=8),
    Message('note_on', channel=5, note=39, velocity=0, time=9),
    Message('note_on', channel=5, note=39, velocity=119, time=408),
    Message('note_on', channel=5, note=39, velocity=0, time=13),
    Message('note_on', channel=5, note=39, velocity=119, time=7),
    Message('note_on', channel=5, note=39, velocity=0, time=11),
    Message('note_on', channel=5, note=39, velocity=119, time=12),
    Message('note_on', channel=5, note=39, velocity=0, time=12),
    Message('note_on', channel=5, note=39, velocity=119, time=10),
    Message('note_on', channel=5, note=39, velocity=0, time=12),
    Message('note_on', channel=5, note=39, velocity=119, time=405),
    Message('note_on', channel=5, note=39, velocity=0, time=13),
    Message('note_on', channel=5, note=39, velocity=119, time=10),
    Message('note_on', channel=5, note=39, velocity=0, time=10),
    Message('note_on', channel=5, note=39, velocity=119, time=14),
    Message('note_on', channel=5, note=39, velocity=0, time=10),
    Message('note_on', channel=5, note=39, velocity=119, time=8),
    Message('note_on', channel=5, note=39, velocity=0, time=12),
    Message('note_on', channel=5, note=43, velocity=119, time=409),
    Message('note_on', channel=5, note=43, velocity=0, time=14),
    Message('note_on', channel=5, note=43, velocity=119, time=11),
    Message('note_on', channel=5, note=43, velocity=0, time=10),
    Message('note_on', channel=5, note=43, velocity=119, time=11),
    Message('note_on', channel=5, note=43, velocity=0, time=12),
    Message('note_on', channel=5, note=43, velocity=119, time=7),
    Message('note_on', channel=5, note=43, velocity=0, time=10),
    Message('note_on', channel=5, note=49, velocity=119, time=43),
    Message('note_on', channel=5, note=49, velocity=0, time=29),
    Message('note_on', channel=5, note=49, velocity=119, time=327),
    Message('note_on', channel=5, note=49, velocity=0, time=13),
    Message('note_on', channel=5, note=49, velocity=119, time=7),
    Message('note_on', channel=5, note=49, velocity=0, time=13),
    Message('note_on', channel=5, note=49, velocity=119, time=10),
    Message('note_on', channel=5, note=49, velocity=0, time=12),
    Message('note_on', channel=5, note=49, velocity=119, time=8),
    Message('note_on', channel=5, note=49, velocity=0, time=9),
    Message('note_on', channel=5, note=42, velocity=119, time=409),
    Message('note_on', channel=5, note=42, velocity=0, time=14),
    Message('note_on', channel=5, note=42, velocity=119, time=11),
    Message('note_on', channel=5, note=42, velocity=0, time=10),
    Message('note_on', channel=5, note=42, velocity=119, time=11),
    Message('note_on', channel=5, note=42, velocity=0, time=12),
    Message('note_on', channel=5, note=42, velocity=119, time=7),
    Message('note_on', channel=5, note=42, velocity=0, time=10),
    Message('note_on', channel=5, note=43, velocity=119, time=411),
    Message('note_on', channel=5, note=43, velocity=0, time=13),
    Message('note_on', channel=5, note=43, velocity=119, time=8),
    Message('note_on', channel=5, note=43, velocity=0, time=13),
    Message('note_on', channel=5, note=43, velocity=119, time=10),
    Message('note_on', channel=5, note=43, velocity=0, time=12),
    Message('note_on', channel=5, note=43, velocity=119, time=8),
    Message('note_on', channel=5, note=43, velocity=0, time=13),
    Message('note_on', channel=5, note=43, velocity=119, time=7),
    Message('note_on', channel=5, note=43, velocity=0, time=13),
    Message('note_on', channel=5, note=43, velocity=119, time=10),
    Message('note_on', channel=5, note=51, velocity=119, time=9),
    Message('note_on', channel=5, note=43, velocity=0, time=3),
    Message('note_on', channel=5, note=51, velocity=0, time=25),
    Message('note_on', channel=5, note=43, velocity=119, time=335),
    Message('note_on', channel=5, note=43, velocity=0, time=14),
    Message('note_on', channel=5, note=43, velocity=119, time=11),
    Message('note_on', channel=5, note=43, velocity=0, time=10),
    Message('note_on', channel=5, note=43, velocity=119, time=11),
    Message('note_on', channel=5, note=43, velocity=0, time=12),
    Message('note_on', channel=5, note=43, velocity=119, time=7),
    Message('note_on', channel=5, note=43, velocity=0, time=10),
    Message('note_on', channel=5, note=49, velocity=119, time=43),
    Message('note_on', channel=5, note=49, velocity=0, time=29),
    Message('note_on', channel=5, note=49, velocity=119, time=329),
    Message('note_on', channel=5, note=49, velocity=0, time=13),
    Message('note_on', channel=5, note=49, velocity=119, time=8),
    Message('note_on', channel=5, note=49, velocity=0, time=13),
    Message('note_on', channel=5, note=49, velocity=119, time=10),
    Message('note_on', channel=5, note=49, velocity=0, time=12),
    Message('note_on', channel=5, note=49, velocity=119, time=8),
    Message('note_on', channel=5, note=49, velocity=0, time=9),
    Message('note_on', channel=5, note=42, velocity=119, time=406),
    Message('note_on', channel=5, note=42, velocity=0, time=14),
    Message('note_on', channel=5, note=42, velocity=119, time=11),
    Message('note_on', channel=5, note=42, velocity=0, time=10),
    Message('note_on', channel=5, note=42, velocity=119, time=11),
    Message('note_on', channel=5, note=42, velocity=0, time=12),
    Message('note_on', channel=5, note=42, velocity=119, time=7),
    Message('note_on', channel=5, note=42, velocity=0, time=10),
    Message('note_on', channel=5, note=43, velocity=119, time=408),
    Message('note_on', channel=5, note=43, velocity=0, time=13),
    Message('note_on', channel=5, note=43, velocity=119, time=7),
    Message('note_on', channel=5, note=43, velocity=0, time=13),
    Message('note_on', channel=5, note=43, velocity=119, time=19),
    Message('note_on', channel=5, note=43, velocity=0, time=12),
    Message('note_on', channel=5, note=43, velocity=119, time=8),
    Message('note_on', channel=5, note=43, velocity=0, time=9),
    Message('note_on', channel=5, note=50, velocity=119, time=37),
    Message('note_on', channel=5, note=50, velocity=119, time=4),
    Message('note_on', channel=5, note=50, velocity=0, time=3),
    Message('note_on', channel=5, note=50, velocity=0, time=0),
    Message('note_on', channel=5, note=39, velocity=119, time=111),
    Message('note_on', channel=5, note=39, velocity=0, time=13),
    Message('note_on', channel=5, note=39, velocity=119, time=10),
    Message('note_on', channel=5, note=39, velocity=0, time=10),
    Message('note_on', channel=5, note=39, velocity=119, time=14),
    Message('note_on', channel=5, note=39, velocity=0, time=10),
    Message('note_on', channel=5, note=39, velocity=119, time=8),
    Message('note_on', channel=5, note=39, velocity=0, time=12),
    Message('note_on', channel=5, note=47, velocity=119, time=49),
    Message('note_on', channel=5, note=47, velocity=0, time=118),
    Message('note_on', channel=5, note=50, velocity=118, time=839),
    Message('note_on', channel=5, note=50, velocity=0, time=50),
    Message('note_on', channel=5, note=50, velocity=119, time=196),
    Message('note_on', channel=5, note=50, velocity=0, time=45),
    Message('note_on', channel=5, note=50, velocity=119, time=191),
    Message('note_on', channel=5, note=50, velocity=0, time=44),
    Message('note_on', channel=5, note=52, velocity=119, time=912),
    Message('note_on', channel=5, note=52, velocity=0, time=45),
    Message('note_on', channel=5, note=46, velocity=119, time=16),
    Message('note_on', channel=5, note=46, velocity=0, time=44),
    Message('note_on', channel=5, note=52, velocity=119, time=17),
    Message('note_on', channel=5, note=52, velocity=0, time=38),
    Message('note_on', channel=5, note=46, velocity=119, time=24),
    Message('note_on', channel=5, note=46, velocity=0, time=38),
    Message('note_on', channel=5, note=52, velocity=119, time=19),
    Message('note_on', channel=5, note=52, velocity=0, time=36),
    Message('note_on', channel=5, note=46, velocity=99, time=24),
    Message('note_on', channel=5, note=46, velocity=0, time=40),
    Message('note_on', channel=5, note=52, velocity=119, time=22),
    Message('note_on', channel=5, note=52, velocity=0, time=37),
    Message('note_on', channel=5, note=46, velocity=119, time=22),
    Message('note_on', channel=5, note=46, velocity=0, time=42),
    Message('note_on', channel=5, note=52, velocity=119, time=16),
    Message('note_on', channel=5, note=52, velocity=0, time=45),
    Message('note_on', channel=5, note=46, velocity=119, time=16),
    Message('note_on', channel=5, note=46, velocity=0, time=44),
    Message('note_on', channel=5, note=52, velocity=119, time=17),
    Message('note_on', channel=5, note=52, velocity=0, time=38),
    Message('note_on', channel=5, note=46, velocity=119, time=24),
    Message('note_on', channel=5, note=46, velocity=0, time=38),
    Message('note_on', channel=5, note=52, velocity=119, time=19),
    Message('note_on', channel=5, note=52, velocity=0, time=36),
    Message('note_on', channel=5, note=46, velocity=99, time=24),
    Message('note_on', channel=5, note=46, velocity=0, time=40),
    Message('note_on', channel=5, note=52, velocity=119, time=22),
    Message('note_on', channel=5, note=52, velocity=0, time=37),
    Message('note_on', channel=5, note=46, velocity=119, time=22),
    Message('note_on', channel=5, note=46, velocity=0, time=42),
    Message('note_on', channel=5, note=52, velocity=119, time=17),
    Message('note_on', channel=5, note=52, velocity=0, time=35),
    Message('note_on', channel=5, note=46, velocity=119, time=24),
    Message('note_on', channel=5, note=46, velocity=0, time=40),
    Message('note_on', channel=5, note=52, velocity=119, time=20),
    Message('note_on', channel=5, note=52, velocity=0, time=36),
    Message('note_on', channel=5, note=46, velocity=119, time=24),
    Message('note_on', channel=5, note=46, velocity=0, time=40),
    Message('note_on', channel=5, note=52, velocity=119, time=21),
    Message('note_on', channel=5, note=52, velocity=0, time=37),
    Message('note_on', channel=5, note=46, velocity=119, time=21),
    Message('note_on', channel=5, note=46, velocity=0, time=39),
    Message('note_on', channel=5, note=52, velocity=119, time=23),
    Message('note_on', channel=5, note=52, velocity=0, time=37),
    Message('note_on', channel=5, note=46, velocity=119, time=21),
    Message('note_on', channel=5, note=46, velocity=0, time=33),
    Message('note_on', channel=5, note=45, velocity=79, time=5190),
    Message('note_on', channel=5, note=45, velocity=0, time=25),
    Message('note_on', channel=5, note=45, velocity=96, time=35),
    Message('note_on', channel=5, note=45, velocity=0, time=25),
    Message('note_on', channel=5, note=45, velocity=102, time=33),
    Message('note_on', channel=5, note=45, velocity=0, time=26),
    Message('note_on', channel=5, note=45, velocity=73, time=97),
    Message('note_on', channel=5, note=45, velocity=0, time=25),
    Message('note_on', channel=5, note=45, velocity=76, time=97),
    Message('note_on', channel=5, note=45, velocity=0, time=22),
    Message('note_on', channel=5, note=45, velocity=73, time=1531),
    Message('note_on', channel=5, note=45, velocity=0, time=24),
    Message('note_on', channel=5, note=45, velocity=79, time=34),
    Message('note_on', channel=5, note=45, velocity=0, time=23),
    Message('note_on', channel=5, note=45, velocity=85, time=40),
    Message('note_on', channel=5, note=45, velocity=0, time=31),
    Message('note_on', channel=5, note=45, velocity=85, time=91),
    Message('note_on', channel=5, note=45, velocity=0, time=26),
    Message('note_on', channel=5, note=45, velocity=71, time=96),
    Message('note_on', channel=5, note=45, velocity=0, time=35),
    Message('note_on', channel=5, note=45, velocity=85, time=1521),
    Message('note_on', channel=5, note=45, velocity=0, time=25),
    Message('note_on', channel=5, note=45, velocity=76, time=34),
    Message('note_on', channel=5, note=45, velocity=0, time=22),
    Message('note_on', channel=5, note=45, velocity=102, time=37),
    Message('note_on', channel=5, note=45, velocity=0, time=26),
    Message('note_on', channel=5, note=45, velocity=90, time=97),
    Message('note_on', channel=5, note=45, velocity=0, time=26),
    Message('note_on', channel=5, note=45, velocity=96, time=98),
    Message('note_on', channel=5, note=45, velocity=0, time=37),
    Message('note_on', channel=5, note=42, velocity=85, time=318),
    Message('note_on', channel=5, note=42, velocity=0, time=23),
    Message('note_on', channel=5, note=40, velocity=84, time=37),
    Message('note_on', channel=5, note=40, velocity=0, time=41),
    Message('note_on', channel=5, note=42, velocity=96, time=259),
    Message('note_on', channel=5, note=42, velocity=0, time=20),
    Message('note_on', channel=5, note=40, velocity=94, time=100),
    Message('note_on', channel=5, note=40, velocity=0, time=35),
    Message('note_on', channel=5, note=42, velocity=96, time=325),
    Message('note_on', channel=5, note=42, velocity=0, time=25),
    Message('note_on', channel=5, note=40, velocity=88, time=35),
    Message('note_on', channel=5, note=40, velocity=0, time=38),
    Message('note_on', channel=5, note=42, velocity=97, time=142),
    Message('note_on', channel=5, note=42, velocity=0, time=25),
    Message('note_on', channel=5, note=40, velocity=92, time=95),
    Message('note_on', channel=5, note=40, velocity=0, time=24),
    Message('note_on', channel=5, note=45, velocity=88, time=276),
    Message('note_on', channel=5, note=45, velocity=0, time=25),
    Message('note_on', channel=5, note=42, velocity=99, time=35),
    Message('note_on', channel=5, note=42, velocity=0, time=20),
    Message('note_on', channel=5, note=40, velocity=99, time=40),
    Message('note_on', channel=5, note=40, velocity=0, time=23),
    Message('note_on', channel=5, note=42, velocity=95, time=157),
    Message('note_on', channel=5, note=42, velocity=0, time=20),
    Message('note_on', channel=5, note=40, velocity=94, time=100),
    Message('note_on', channel=5, note=40, velocity=0, time=23),
    Message('note_on', channel=5, note=46, velocity=95, time=157),
    Message('note_on', channel=5, note=46, velocity=0, time=20),
    Message('note_on', channel=5, note=45, velocity=95, time=40),
    Message('note_on', channel=5, note=45, velocity=0, time=20),
    Message('note_on', channel=5, note=46, velocity=104, time=220),
    Message('note_on', channel=5, note=46, velocity=0, time=14),
    Message('note_on', channel=5, note=51, velocity=93, time=346),
    Message('note_on', channel=5, note=51, velocity=0, time=10),
    Message('note_on', channel=5, note=51, velocity=82, time=20),
    Message('note_on', channel=5, note=51, velocity=0, time=18),
    Message('note_on', channel=5, note=51, velocity=82, time=12),
    Message('note_on', channel=5, note=51, velocity=0, time=9),
    Message('note_on', channel=5, note=46, velocity=108, time=51),
    Message('note_on', channel=5, note=46, velocity=0, time=19),
    Message('note_on', channel=5, note=51, velocity=95, time=341),
    Message('note_on', channel=5, note=51, velocity=0, time=15),
    Message('note_on', channel=5, note=51, velocity=82, time=15),
    Message('note_on', channel=5, note=51, velocity=0, time=10),
    Message('note_on', channel=5, note=51, velocity=95, time=20),
    Message('note_on', channel=5, note=51, velocity=0, time=14),
    Message('note_on', channel=5, note=43, velocity=108, time=46),
    Message('note_on', channel=5, note=43, velocity=0, time=22),
    Message('note_on', channel=5, note=53, velocity=87, time=338),
    Message('note_on', channel=5, note=53, velocity=0, time=11),
    Message('note_on', channel=5, note=53, velocity=92, time=19),
    Message('note_on', channel=5, note=53, velocity=0, time=20),
    Message('note_on', channel=5, note=53, velocity=97, time=10),
    Message('note_on', channel=5, note=53, velocity=0, time=13),
    Message('note_on', channel=5, note=43, velocity=109, time=47),
    Message('note_on', channel=5, note=43, velocity=0, time=22),
    Message('note_on', channel=5, note=53, velocity=89, time=338),
    Message('note_on', channel=5, note=53, velocity=0, time=11),
    Message('note_on', channel=5, note=53, velocity=83, time=19),
    Message('note_on', channel=5, note=53, velocity=0, time=20),
    Message('note_on', channel=5, note=53, velocity=86, time=10),
    Message('note_on', channel=5, note=53, velocity=0, time=13),
    Message('note_on', channel=5, note=47, velocity=99, time=47),
    Message('note_on', channel=5, note=47, velocity=0, time=14),
    Message('note_on', channel=5, note=52, velocity=87, time=346),
    Message('note_on', channel=5, note=52, velocity=0, time=10),
    Message('note_on', channel=5, note=52, velocity=78, time=20),
    Message('note_on', channel=5, note=52, velocity=0, time=18),
    Message('note_on', channel=5, note=52, velocity=78, time=12),
    Message('note_on', channel=5, note=52, velocity=0, time=9),
    Message('note_on', channel=5, note=47, velocity=101, time=51),
    Message('note_on', channel=5, note=47, velocity=0, time=19),
    Message('note_on', channel=5, note=52, velocity=87, time=341),
    Message('note_on', channel=5, note=52, velocity=0, time=15),
    Message('note_on', channel=5, note=52, velocity=75, time=15),
    Message('note_on', channel=5, note=52, velocity=0, time=10),
    Message('note_on', channel=5, note=52, velocity=87, time=20),
    Message('note_on', channel=5, note=52, velocity=0, time=14),
    Message('note_on', channel=5, note=44, velocity=99, time=46),
    Message('note_on', channel=5, note=44, velocity=0, time=22),
    Message('note_on', channel=5, note=54, velocity=79, time=338),
    Message('note_on', channel=5, note=54, velocity=0, time=11),
    Message('note_on', channel=5, note=54, velocity=84, time=19),
    Message('note_on', channel=5, note=54, velocity=0, time=20),
    Message('note_on', channel=5, note=54, velocity=87, time=10),
    Message('note_on', channel=5, note=54, velocity=0, time=13),
    Message('note_on', channel=5, note=44, velocity=99, time=47),
    Message('note_on', channel=5, note=44, velocity=0, time=22),
    Message('note_on', channel=5, note=54, velocity=79, time=338),
    Message('note_on', channel=5, note=54, velocity=0, time=11),
    Message('note_on', channel=5, note=54, velocity=84, time=19),
    Message('note_on', channel=5, note=54, velocity=0, time=20),
    Message('note_on', channel=5, note=54, velocity=87, time=10),
    Message('note_on', channel=5, note=54, velocity=0, time=13),
    Message('note_on', channel=5, note=50, velocity=111, time=2443),
    Message('note_on', channel=5, note=50, velocity=0, time=11),
    Message('note_on', channel=5, note=50, velocity=113, time=474),
    Message('note_on', channel=5, note=50, velocity=0, time=18),
    Message('note_on', channel=5, note=45, velocity=113, time=42),
    Message('note_on', channel=5, note=45, velocity=0, time=18),
    Message('note_on', channel=5, note=50, velocity=113, time=42),
    Message('note_on', channel=5, note=50, velocity=0, time=21),
    Message('note_on', channel=5, note=45, velocity=113, time=39),
    Message('note_on', channel=5, note=45, velocity=0, time=18),
    Message('note_on', channel=5, note=50, velocity=113, time=42),
    Message('note_on', channel=5, note=50, velocity=0, time=21),
    Message('note_on', channel=5, note=45, velocity=113, time=39),
    Message('note_on', channel=5, note=45, velocity=0, time=20),
    Message('note_on', channel=5, note=50, velocity=113, time=40),
    Message('note_on', channel=5, note=50, velocity=0, time=20),
    Message('note_on', channel=5, note=45, velocity=113, time=40),
    Message('note_on', channel=5, note=45, velocity=0, time=17),
    Message('note_on', channel=5, note=50, velocity=113, time=43),
    Message('note_on', channel=5, note=50, velocity=0, time=20),
    Message('note_on', channel=5, note=45, velocity=113, time=40),
    Message('note_on', channel=5, note=45, velocity=0, time=17),
    Message('note_on', channel=5, note=50, velocity=113, time=43),
    Message('note_on', channel=5, note=50, velocity=0, time=18),
    Message('note_on', channel=5, note=45, velocity=113, time=42),
    Message('note_on', channel=5, note=45, velocity=0, time=17),
    Message('note_on', channel=5, note=50, velocity=113, time=43),
    Message('note_on', channel=5, note=50, velocity=0, time=15),
    Message('note_on', channel=5, note=45, velocity=113, time=45),
    Message('note_on', channel=5, note=45, velocity=0, time=15),
    Message('note_on', channel=5, note=50, velocity=113, time=45),
    Message('note_on', channel=5, note=50, velocity=0, time=20),
    Message('note_on', channel=5, note=45, velocity=113, time=40),
    Message('note_on', channel=5, note=45, velocity=0, time=17),
    Message('note_on', channel=5, note=50, velocity=113, time=43),
    Message('note_on', channel=5, note=50, velocity=0, time=21),
    Message('note_on', channel=5, note=45, velocity=113, time=39),
    Message('note_on', channel=5, note=45, velocity=0, time=21),
    Message('note_on', channel=5, note=50, velocity=113, time=39),
    Message('note_on', channel=5, note=50, velocity=0, time=23),
    Message('note_on', channel=5, note=45, velocity=113, time=37),
    Message('note_on', channel=5, note=45, velocity=0, time=25),
    Message('note_on', channel=5, note=50, velocity=113, time=35),
    Message('note_on', channel=5, note=50, velocity=0, time=20),
    Message('note_on', channel=5, note=45, velocity=113, time=40),
    Message('note_on', channel=5, note=45, velocity=0, time=21),
    Message('note_on', channel=5, note=50, velocity=113, time=39),
    Message('note_on', channel=5, note=50, velocity=0, time=21),
    Message('note_on', channel=5, note=45, velocity=113, time=38),
    Message('note_on', channel=5, note=45, velocity=0, time=43),
    Message('note_on', channel=5, note=50, velocity=105, time=177),
    Message('note_on', channel=5, note=50, velocity=105, time=1),
    Message('note_on', channel=5, note=50, velocity=0, time=1),
    Message('note_on', channel=5, note=50, velocity=0, time=0),
    Message('note_on', channel=5, note=50, velocity=105, time=39),
    Message('note_on', channel=5, note=50, velocity=0, time=15),
    Message('note_on', channel=5, note=50, velocity=105, time=25),
    Message('note_on', channel=5, note=50, velocity=0, time=37),
    MetaMessage('end_of_track', time=0)]),
  MidiTrack([
    MetaMessage('midi_port', port=1, time=0),
    MetaMessage('track_name', name='Drums', time=0),
    Message('control_change', channel=9, control=7, value=85, time=0),
    Message('note_on', channel=9, note=57, velocity=95, time=480),
    Message('note_on', channel=9, note=59, velocity=95, time=0),
    Message('note_on', channel=9, note=59, velocity=0, time=899),
    Message('note_on', channel=9, note=57, velocity=0, time=0),
    Message('note_on', channel=9, note=38, velocity=50, time=742),
    Message('note_on', channel=9, note=38, velocity=0, time=11),
    Message('note_on', channel=9, note=38, velocity=55, time=6),
    Message('note_on', channel=9, note=38, velocity=0, time=8),
    Message('note_on', channel=9, note=38, velocity=53, time=14),
    Message('note_on', channel=9, note=38, velocity=0, time=152),
    Message('note_on', channel=9, note=38, velocity=50, time=28),
    Message('note_on', channel=9, note=38, velocity=0, time=10),
    Message('note_on', channel=9, note=38, velocity=53, time=5),
    Message('note_on', channel=9, note=38, velocity=0, time=8),
    Message('note_on', channel=9, note=38, velocity=55, time=12),
    Message('note_on', channel=9, note=38, velocity=0, time=8),
    Message('note_on', channel=9, note=38, velocity=58, time=17),
    Message('note_on', channel=9, note=38, velocity=0, time=21),
    Message('note_on', channel=9, note=38, velocity=53, time=39),
    Message('note_on', channel=9, note=38, velocity=0, time=23),
    Message('note_on', channel=9, note=38, velocity=53, time=70),
    Message('note_on', channel=9, note=38, velocity=0, time=6),
    Message('note_on', channel=9, note=38, velocity=48, time=2),
    Message('note_on', channel=9, note=38, velocity=0, time=6),
    Message('note_on', channel=9, note=38, velocity=53, time=3),
    Message('note_on', channel=9, note=38, velocity=0, time=5),
    Message('note_on', channel=9, note=38, velocity=61, time=5),
    Message('note_on', channel=9, note=38, velocity=0, time=60),
    Message('note_on', channel=9, note=38, velocity=53, time=33),
    Message('note_on', channel=9, note=38, velocity=0, time=6),
    Message('note_on', channel=9, note=38, velocity=48, time=2),
    Message('note_on', channel=9, note=38, velocity=0, time=6),
    Message('note_on', channel=9, note=38, velocity=53, time=3),
    Message('note_on', channel=9, note=38, velocity=0, time=5),
    Message('note_on', channel=9, note=38, velocity=61, time=5),
    Message('note_on', channel=9, note=38, velocity=0, time=30),
    Message('note_on', channel=9, note=38, velocity=43, time=5),
    Message('note_on', channel=9, note=38, velocity=0, time=5),
    Message('note_on', channel=9, note=38, velocity=48, time=3),
    Message('note_on', channel=9, note=38, velocity=0, time=6),
    Message('note_on', channel=9, note=38, velocity=49, time=3),
    Message('note_on', channel=9, note=38, velocity=0, time=5),
    Message('note_on', channel=9, note=38, velocity=55, time=4),
    Message('note_on', channel=9, note=38, velocity=0, time=10),
    Message('note_on', channel=9, note=38, velocity=55, time=29),
    Message('note_on', channel=9, note=38, velocity=0, time=11),
    Message('note_on', channel=9, note=38, velocity=58, time=5),
    Message('note_on', channel=9, note=38, velocity=0, time=8),
    Message('note_on', channel=9, note=38, velocity=58, time=7),
    Message('note_on', channel=9, note=38, velocity=0, time=14),
    Message('note_on', channel=9, note=38, velocity=61, time=34),
    Message('note_on', channel=9, note=38, velocity=0, time=14),
    Message('note_on', channel=9, note=38, velocity=58, time=28),
    Message('note_on', channel=9, note=38, velocity=0, time=13),
    Message('note_on', channel=9, note=38, velocity=58, time=23),
    Message('note_on', channel=9, note=38, velocity=0, time=16),
    Message('note_on', channel=9, note=38, velocity=53, time=60),
    Message('note_on', channel=9, note=38, velocity=0, time=6),
    Message('note_on', channel=9, note=38, velocity=48, time=2),
    Message('note_on', channel=9, note=38, velocity=0, time=6),
    Message('note_on', channel=9, note=38, velocity=53, time=3),
    Message('note_on', channel=9, note=38, velocity=0, time=5),
    Message('note_on', channel=9, note=38, velocity=61, time=5),
    Message('note_on', channel=9, note=38, velocity=0, time=60),
    Message('note_on', channel=9, note=38, velocity=53, time=33),
    Message('note_on', channel=9, note=38, velocity=0, time=6),
    Message('note_on', channel=9, note=38, velocity=48, time=2),
    Message('note_on', channel=9, note=38, velocity=0, time=6),
    Message('note_on', channel=9, note=38, velocity=53, time=3),
    Message('note_on', channel=9, note=38, velocity=0, time=5),
    Message('note_on', channel=9, note=38, velocity=61, time=5),
    Message('note_on', channel=9, note=38, velocity=0, time=30),
    Message('note_on', channel=9, note=38, velocity=43, time=5),
    Message('note_on', channel=9, note=38, velocity=0, time=5),
    Message('note_on', channel=9, note=38, velocity=48, time=3),
    Message('note_on', channel=9, note=38, velocity=0, time=6),
    Message('note_on', channel=9, note=38, velocity=49, time=3),
    Message('note_on', channel=9, note=38, velocity=0, time=5),
    Message('note_on', channel=9, note=38, velocity=55, time=4),
    Message('note_on', channel=9, note=38, velocity=0, time=10),
    Message('note_on', channel=9, note=38, velocity=55, time=29),
    Message('note_on', channel=9, note=38, velocity=0, time=11),
    Message('note_on', channel=9, note=38, velocity=58, time=5),
    Message('note_on', channel=9, note=38, velocity=0, time=8),
    Message('note_on', channel=9, note=38, velocity=58, time=7),
    Message('note_on', channel=9, note=38, velocity=0, time=14),
    Message('note_on', channel=9, note=38, velocity=61, time=34),
    Message('note_on', channel=9, note=38, velocity=0, time=14),
    Message('note_on', channel=9, note=38, velocity=58, time=28),
    Message('note_on', channel=9, note=38, velocity=0, time=13),
    Message('note_on', channel=9, note=38, velocity=58, time=23),
    Message('note_on', channel=9, note=38, velocity=0, time=16),
    Message('note_on', channel=9, note=38, velocity=57, time=120),
    Message('note_on', channel=9, note=38, velocity=0, time=6),
    Message('note_on', channel=9, note=38, velocity=50, time=2),
    Message('note_on', channel=9, note=38, velocity=0, time=6),
    Message('note_on', channel=9, note=38, velocity=57, time=3),
    Message('note_on', channel=9, note=38, velocity=0, time=5),
    Message('note_on', channel=9, note=38, velocity=63, time=5),
    Message('note_on', channel=9, note=38, velocity=0, time=60),
    Message('note_on', channel=9, note=38, velocity=53, time=120),
    Message('note_on', channel=9, note=38, velocity=0, time=10),
    Message('note_on', channel=9, note=38, velocity=57, time=5),
    Message('note_on', channel=9, note=38, velocity=0, time=8),
    Message('note_on', channel=9, note=38, velocity=60, time=12),
    Message('note_on', channel=9, note=38, velocity=0, time=8),
    Message('note_on', channel=9, note=38, velocity=52, time=17),
    Message('note_on', channel=9, note=38, velocity=0, time=21),
    Message('note_on', channel=9, note=38, velocity=49, time=39),
    Message('note_on', channel=9, note=38, velocity=0, time=23),
    Message('note_on', channel=9, note=38, velocity=49, time=10),
    Message('note_on', channel=9, note=38, velocity=0, time=6),
    Message('note_on', channel=9, note=38, velocity=43, time=2),
    Message('note_on', channel=9, note=38, velocity=0, time=6),
    Message('note_on', channel=9, note=38, velocity=49, time=3),
    Message('note_on', channel=9, note=38, velocity=0, time=5),
    Message('note_on', channel=9, note=38, velocity=54, time=5),
    Message('note_on', channel=9, note=38, velocity=0, time=60),
    Message('note_on', channel=9, note=38, velocity=49, time=33),
    Message('note_on', channel=9, note=38, velocity=0, time=6),
    Message('note_on', channel=9, note=38, velocity=43, time=2),
    Message('note_on', channel=9, note=38, velocity=0, time=6),
    Message('note_on', channel=9, note=38, velocity=49, time=3),
    Message('note_on', channel=9, note=38, velocity=0, time=5),
    Message('note_on', channel=9, note=38, velocity=54, time=5),
    Message('note_on', channel=9, note=38, velocity=0, time=30),
    Message('note_on', channel=9, note=38, velocity=49, time=63),
    Message('note_on', channel=9, note=38, velocity=0, time=6),
    Message('note_on', channel=9, note=38, velocity=43, time=2),
    Message('note_on', channel=9, note=38, velocity=0, time=6),
    Message('note_on', channel=9, note=38, velocity=49, time=3),
    Message('note_on', channel=9, note=38, velocity=0, time=5),
    Message('note_on', channel=9, note=38, velocity=54, time=5),
    Message('note_on', channel=9, note=38, velocity=0, time=60),
    Message('note_on', channel=9, note=38, velocity=49, time=33),
    Message('note_on', channel=9, note=38, velocity=0, time=6),
    Message('note_on', channel=9, note=38, velocity=43, time=2),
    Message('note_on', channel=9, note=38, velocity=0, time=6),
    Message('note_on', channel=9, note=38, velocity=49, time=3),
    Message('note_on', channel=9, note=38, velocity=0, time=5),
    Message('note_on', channel=9, note=38, velocity=54, time=5),
    Message('note_on', channel=9, note=38, velocity=0, time=30),
    Message('note_on', channel=9, note=38, velocity=49, time=63),
    Message('note_on', channel=9, note=38, velocity=0, time=6),
    Message('note_on', channel=9, note=38, velocity=43, time=2),
    Message('note_on', channel=9, note=38, velocity=0, time=6),
    Message('note_on', channel=9, note=38, velocity=49, time=3),
    Message('note_on', channel=9, note=38, velocity=0, time=5),
    Message('note_on', channel=9, note=38, velocity=54, time=5),
    Message('note_on', channel=9, note=38, velocity=0, time=60),
    Message('note_on', channel=9, note=38, velocity=49, time=33),
    Message('note_on', channel=9, note=38, velocity=0, time=6),
    Message('note_on', channel=9, note=38, velocity=43, time=2),
    Message('note_on', channel=9, note=38, velocity=0, time=6),
    Message('note_on', channel=9, note=38, velocity=49, time=3),
    Message('note_on', channel=9, note=38, velocity=0, time=5),
    Message('note_on', channel=9, note=38, velocity=54, time=5),
    Message('note_on', channel=9, note=38, velocity=0, time=30),
    Message('note_on', channel=9, note=38, velocity=49, time=63),
    Message('note_on', channel=9, note=38, velocity=0, time=6),
    Message('note_on', channel=9, note=38, velocity=43, time=2),
    Message('note_on', channel=9, note=38, velocity=0, time=6),
    Message('note_on', channel=9, note=38, velocity=49, time=3),
    Message('note_on', channel=9, note=38, velocity=0, time=5),
    Message('note_on', channel=9, note=38, velocity=54, time=5),
    Message('note_on', channel=9, note=38, velocity=0, time=60),
    Message('note_on', channel=9, note=38, velocity=49, time=33),
    Message('note_on', channel=9, note=38, velocity=0, time=6),
    Message('note_on', channel=9, note=38, velocity=43, time=2),
    Message('note_on', channel=9, note=38, velocity=0, time=6),
    Message('note_on', channel=9, note=38, velocity=49, time=3),
    Message('note_on', channel=9, note=38, velocity=0, time=5),
    Message('note_on', channel=9, note=38, velocity=54, time=5),
    Message('note_on', channel=9, note=38, velocity=0, time=30),
    Message('note_on', channel=9, note=38, velocity=49, time=63),
    Message('note_on', channel=9, note=38, velocity=0, time=6),
    Message('note_on', channel=9, note=38, velocity=43, time=2),
    Message('note_on', channel=9, note=38, velocity=0, time=6),
    Message('note_on', channel=9, note=38, velocity=49, time=3),
    Message('note_on', channel=9, note=38, velocity=0, time=5),
    Message('note_on', channel=9, note=38, velocity=54, time=5),
    Message('note_on', channel=9, note=38, velocity=0, time=60),
    Message('note_on', channel=9, note=38, velocity=49, time=33),
    Message('note_on', channel=9, note=38, velocity=0, time=6),
    Message('note_on', channel=9, note=38, velocity=43, time=2),
    Message('note_on', channel=9, note=38, velocity=0, time=6),
    Message('note_on', channel=9, note=38, velocity=49, time=3),
    Message('note_on', channel=9, note=38, velocity=0, time=5),
    Message('note_on', channel=9, note=38, velocity=54, time=5),
    Message('note_on', channel=9, note=38, velocity=0, time=30),
    Message('note_on', channel=9, note=38, velocity=49, time=63),
    Message('note_on', channel=9, note=38, velocity=0, time=6),
    Message('note_on', channel=9, note=38, velocity=43, time=2),
    Message('note_on', channel=9, note=38, velocity=0, time=6),
    Message('note_on', channel=9, note=38, velocity=49, time=3),
    Message('note_on', channel=9, note=38, velocity=0, time=5),
    Message('note_on', channel=9, note=38, velocity=54, time=5),
    Message('note_on', channel=9, note=38, velocity=0, time=60),
    Message('note_on', channel=9, note=38, velocity=49, time=33),
    Message('note_on', channel=9, note=38, velocity=0, time=6),
    Message('note_on', channel=9, note=38, velocity=43, time=2),
    Message('note_on', channel=9, note=38, velocity=0, time=6),
    Message('note_on', channel=9, note=38, velocity=49, time=3),
    Message('note_on', channel=9, note=38, velocity=0, time=5),
    Message('note_on', channel=9, note=38, velocity=54, time=5),
    Message('note_on', channel=9, note=38, velocity=0, time=30),
    Message('note_on', channel=9, note=38, velocity=37, time=65),
    Message('note_on', channel=9, note=38, velocity=0, time=5),
    Message('note_on', channel=9, note=38, velocity=43, time=3),
    Message('note_on', channel=9, note=38, velocity=0, time=6),
    Message('note_on', channel=9, note=38, velocity=44, time=3),
    Message('note_on', channel=9, note=38, velocity=0, time=5),
    Message('note_on', channel=9, note=38, velocity=50, time=4),
    Message('note_on', channel=9, note=38, velocity=0, time=10),
    Message('note_on', channel=9, note=38, velocity=54, time=108),
    Message('note_on', channel=9, note=38, velocity=0, time=14),
    Message('note_on', channel=9, note=38, velocity=52, time=28),
    Message('note_on', channel=9, note=38, velocity=0, time=13),
    Message('note_on', channel=9, note=38, velocity=52, time=23),
    Message('note_on', channel=9, note=38, velocity=0, time=16),
    Message('note_on', channel=9, note=38, velocity=76, time=27),
    Message('note_on', channel=9, note=38, velocity=0, time=5),
    Message('note_on', channel=9, note=38, velocity=50, time=2),
    Message('note_on', channel=9, note=38, velocity=0, time=6),
    Message('note_on', channel=9, note=38, velocity=52, time=3),
    Message('note_on', channel=9, note=38, velocity=0, time=6),
    Message('note_on', channel=9, note=38, velocity=45, time=3),
    Message('note_on', channel=9, note=38, velocity=0, time=10),
    Message('note_on', channel=9, note=38, velocity=63, time=2845),
    Message('note_on', channel=9, note=38, velocity=0, time=14),
    Message('note_on', channel=9, note=38, velocity=61, time=27),
    Message('note_on', channel=9, note=38, velocity=0, time=13),
    Message('note_on', channel=9, note=38, velocity=61, time=23),
    Message('note_on', channel=9, note=38, velocity=0, time=16),
    Message('note_on', channel=9, note=38, velocity=76, time=27),
    Message('note_on', channel=9, note=38, velocity=0, time=6),
    Message('note_on', channel=9, note=38, velocity=50, time=2),
    Message('note_on', channel=9, note=38, velocity=0, time=6),
    Message('note_on', channel=9, note=38, velocity=52, time=2),
    Message('note_on', channel=9, note=38, velocity=0, time=5),
    Message('note_on', channel=9, note=38, velocity=45, time=4),
    Message('note_on', channel=9, note=38, velocity=0, time=10),
    Message('note_on', channel=9, note=38, velocity=76, time=48),
    Message('note_on', channel=9, note=38, velocity=0, time=16),
    Message('note_on', channel=9, note=38, velocity=66, time=19),
    Message('note_on', channel=9, note=38, velocity=0, time=53),
    Message('note_on', channel=9, note=38, velocity=94, time=429),
    Message('note_on', channel=9, note=57, velocity=82, time=8),
    Message('note_on', channel=9, note=38, velocity=0, time=8),
    Message('note_on', channel=9, note=38, velocity=68, time=74),
    Message('note_on', channel=9, note=38, velocity=0, time=12),
    Message('note_on', channel=9, note=38, velocity=85, time=18),
    Message('note_on', channel=9, note=57, velocity=0, time=3),
    Message('note_on', channel=9, note=38, velocity=0, time=13),
    Message('note_on', channel=9, note=38, velocity=51, time=74),
    Message('note_on', channel=9, note=38, velocity=0, time=12),
    Message('note_on', channel=9, note=38, velocity=92, time=18),
    Message('note_on', channel=9, note=38, velocity=0, time=13),
    Message('note_on', channel=9, note=38, velocity=67, time=17),
    Message('note_on', channel=9, note=38, velocity=0, time=18),
    Message('note_on', channel=9, note=38, velocity=84, time=12),
    Message('note_on', channel=9, note=38, velocity=0, time=10),
    Message('note_on', channel=9, note=38, velocity=49, time=20),
    Message('note_on', channel=9, note=38, velocity=0, time=18),
    Message('note_on', channel=9, note=38, velocity=92, time=12),
    Message('note_on', channel=9, note=38, velocity=0, time=18),
    Message('note_on', channel=9, note=38, velocity=75, time=72),
    Message('note_on', channel=9, note=38, velocity=0, time=16),
    Message('note_on', channel=9, note=38, velocity=92, time=14),
    Message('note_on', channel=9, note=38, velocity=0, time=16),
    Message('note_on', channel=9, note=38, velocity=55, time=74),
    Message('note_on', channel=9, note=38, velocity=0, time=13),
    Message('note_on', channel=9, note=38, velocity=92, time=17),
    Message('note_on', channel=9, note=38, velocity=0, time=15),
    Message('note_on', channel=9, note=38, velocity=67, time=15),
    Message('note_on', channel=9, note=38, velocity=0, time=16),
    Message('note_on', channel=9, note=38, velocity=95, time=14),
    Message('note_on', channel=9, note=38, velocity=0, time=15),
    Message('note_on', channel=9, note=38, velocity=68, time=15),
    Message('note_on', channel=9, note=38, velocity=0, time=20),
    Message('note_on', channel=9, note=38, velocity=100, time=10),
    Message('note_on', channel=9, note=38, velocity=0, time=18),
    Message('note_on', channel=9, note=38, velocity=73, time=72),
    Message('note_on', channel=9, note=38, velocity=0, time=18),
    Message('note_on', channel=9, note=38, velocity=83, time=12),
    Message('note_on', channel=9, note=38, velocity=0, time=18),
    Message('note_on', channel=9, note=38, velocity=52, time=72),
    Message('note_on', channel=9, note=38, velocity=0, time=18),
    Message('note_on', channel=9, note=38, velocity=89, time=12),
    Message('note_on', channel=9, note=38, velocity=0, time=15),
    Message('note_on', channel=9, note=38, velocity=58, time=15),
    Message('note_on', channel=9, note=38, velocity=0, time=16),
    Message('note_on', channel=9, note=38, velocity=88, time=14),
    Message('note_on', channel=9, note=38, velocity=0, time=13),
    Message('note_on', channel=9, note=38, velocity=64, time=17),
    Message('note_on', channel=9, note=38, velocity=0, time=21),
    Message('note_on', channel=9, note=38, velocity=88, time=9),
    Message('note_on', channel=9, note=38, velocity=0, time=16),
    Message('note_on', channel=9, note=38, velocity=59, time=74),
    Message('note_on', channel=9, note=38, velocity=0, time=18),
    Message('note_on', channel=9, note=38, velocity=94, time=12),
    Message('note_on', channel=9, note=38, velocity=0, time=16),
    Message('note_on', channel=9, note=38, velocity=57, time=74),
    Message('note_on', channel=9, note=38, velocity=0, time=18),
    Message('note_on', channel=9, note=38, velocity=90, time=12),
    Message('note_on', channel=9, note=38, velocity=0, time=18),
    Message('note_on', channel=9, note=38, velocity=51, time=12),
    Message('note_on', channel=9, note=38, velocity=0, time=16),
    Message('note_on', channel=9, note=38, velocity=85, time=14),
    Message('note_on', channel=9, note=38, velocity=0, time=13),
    Message('note_on', channel=9, note=38, velocity=62, time=17),
    Message('note_on', channel=9, note=38, velocity=0, time=20),
    Message('note_on', channel=9, note=38, velocity=87, time=10),
    Message('note_on', channel=9, note=38, velocity=0, time=19),
    Message('note_on', channel=9, note=38, velocity=66, time=71),
    Message('note_on', channel=9, note=38, velocity=0, time=16),
    Message('note_on', channel=9, note=38, velocity=89, time=14),
    Message('note_on', channel=9, note=38, velocity=0, time=15),
    Message('note_on', channel=9, note=38, velocity=60, time=75),
    Message('note_on', channel=9, note=38, velocity=0, time=18),
    Message('note_on', channel=9, note=38, velocity=89, time=12),
    Message('note_on', channel=9, note=38, velocity=0, time=16),
    Message('note_on', channel=9, note=38, velocity=55, time=14),
    Message('note_on', channel=9, note=38, velocity=0, time=17),
    Message('note_on', channel=9, note=38, velocity=85, time=13),
    Message('note_on', channel=9, note=38, velocity=0, time=13),
    Message('note_on', channel=9, note=38, velocity=57, time=17),
    Message('note_on', channel=9, note=38, velocity=0, time=18),
    Message('note_on', channel=9, note=38, velocity=88, time=12),
    Message('note_on', channel=9, note=38, velocity=0, time=20),
    Message('note_on', channel=9, note=38, velocity=66, time=70),
    Message('note_on', channel=9, note=38, velocity=0, time=18),
    Message('note_on', channel=9, note=38, velocity=89, time=12),
    Message('note_on', channel=9, note=38, velocity=0, time=19),
    Message('note_on', channel=9, note=38, velocity=60, time=71),
    Message('note_on', channel=9, note=38, velocity=0, time=18),
    Message('note_on', channel=9, note=38, velocity=85, time=12),
    Message('note_on', channel=9, note=38, velocity=0, time=17),
    Message('note_on', channel=9, note=38, velocity=61, time=13),
    Message('note_on', channel=9, note=38, velocity=0, time=19),
    Message('note_on', channel=9, note=38, velocity=88, time=11),
    Message('note_on', channel=9, note=38, velocity=0, time=16),
    Message('note_on', channel=9, note=38, velocity=68, time=14),
    Message('note_on', channel=9, note=38, velocity=0, time=21),
    Message('note_on', channel=9, note=38, velocity=89, time=9),
    Message('note_on', channel=9, note=38, velocity=0, time=22),
    Message('note_on', channel=9, note=38, velocity=72, time=68),
    Message('note_on', channel=9, note=38, velocity=0, time=19),
    Message('note_on', channel=9, note=38, velocity=89, time=11),
    Message('note_on', channel=9, note=38, velocity=0, time=21),
    Message('note_on', channel=9, note=38, velocity=61, time=69),
    Message('note_on', channel=9, note=38, velocity=0, time=19),
    Message('note_on', channel=9, note=38, velocity=87, time=11),
    Message('note_on', channel=9, note=38, velocity=0, time=16),
    Message('note_on', channel=9, note=38, velocity=69, time=14),
    Message('note_on', channel=9, note=38, velocity=0, time=19),
    Message('note_on', channel=9, note=38, velocity=86, time=11),
    Message('note_on', channel=9, note=38, velocity=0, time=15),
    Message('note_on', channel=9, note=38, velocity=75, time=15),
    Message('note_on', channel=9, note=38, velocity=0, time=18),
    Message('note_on', channel=9, note=38, velocity=75, time=12),
    Message('note_on', channel=9, note=38, velocity=0, time=13),
    Message('note_on', channel=9, note=38, velocity=45, time=17),
    Message('note_on', channel=9, note=38, velocity=0, time=16),
    Message('note_on', channel=9, note=38, velocity=74, time=14),
    Message('note_on', channel=9, note=38, velocity=0, time=18),
    Message('note_on', channel=9, note=38, velocity=59, time=12),
    Message('note_on', channel=9, note=38, velocity=0, time=17),
    Message('note_on', channel=9, note=38, velocity=80, time=13),
    Message('note_on', channel=9, note=38, velocity=0, time=17),
    Message('note_on', channel=9, note=38, velocity=52, time=13),
    Message('note_on', channel=9, note=38, velocity=0, time=17),
    Message('note_on', channel=9, note=38, velocity=87, time=13),
    Message('note_on', channel=9, note=38, velocity=0, time=16),
    Message('note_on', channel=9, note=38, velocity=66, time=14),
    Message('note_on', channel=9, note=38, velocity=0, time=20),
    Message('note_on', channel=9, note=57, velocity=97, time=10),
    Message('note_on', channel=9, note=57, velocity=0, time=55),
    Message('note_on', channel=9, note=38, velocity=66, time=35),
    Message('note_on', channel=9, note=38, velocity=0, time=17),
    Message('note_on', channel=9, note=38, velocity=90, time=13),
    Message('note_on', channel=9, note=38, velocity=0, time=23),
    Message('note_on', channel=9, note=38, velocity=66, time=67),
    Message('note_on', channel=9, note=38, velocity=0, time=17),
    Message('note_on', channel=9, note=38, velocity=88, time=13),
    Message('note_on', channel=9, note=38, velocity=0, time=18),
    Message('note_on', channel=9, note=38, velocity=58, time=72),
    Message('note_on', channel=9, note=38, velocity=0, time=17),
    Message('note_on', channel=9, note=38, velocity=85, time=13),
    Message('note_on', channel=9, note=38, velocity=0, time=16),
    Message('note_on', channel=9, note=38, velocity=55, time=14),
    Message('note_on', channel=9, note=38, velocity=0, time=17),
    Message('note_on', channel=9, note=38, velocity=86, time=13),
    Message('note_on', channel=9, note=38, velocity=0, time=16),
    Message('note_on', channel=9, note=38, velocity=60, time=14),
    Message('note_on', channel=9, note=38, velocity=0, time=20),
    Message('note_on', channel=9, note=38, velocity=86, time=10),
    Message('note_on', channel=9, note=38, velocity=0, time=21),
    Message('note_on', channel=9, note=38, velocity=74, time=69),
    Message('note_on', channel=9, note=38, velocity=0, time=17),
    Message('note_on', channel=9, note=38, velocity=86, time=13),
    Message('note_on', channel=9, note=38, velocity=0, time=21),
    Message('note_on', channel=9, note=38, velocity=58, time=69),
    Message('note_on', channel=9, note=38, velocity=0, time=18),
    Message('note_on', channel=9, note=38, velocity=89, time=12),
    Message('note_on', channel=9, note=38, velocity=0, time=18),
    Message('note_on', channel=9, note=38, velocity=61, time=12),
    Message('note_on', channel=9, note=38, velocity=0, time=20),
    Message('note_on', channel=9, note=38, velocity=80, time=10),
    Message('note_on', channel=9, note=38, velocity=0, time=14),
    Message('note_on', channel=9, note=38, velocity=68, time=16),
    Message('note_on', channel=9, note=38, velocity=0, time=20),
    Message('note_on', channel=9, note=38, velocity=90, time=10),
    Message('note_on', channel=9, note=38, velocity=0, time=21),
    Message('note_on', channel=9, note=38, velocity=61, time=69),
    Message('note_on', channel=9, note=38, velocity=0, time=20),
    Message('note_on', channel=9, note=38, velocity=89, time=10),
    Message('note_on', channel=9, note=38, velocity=0, time=18),
    Message('note_on', channel=9, note=38, velocity=62, time=72),
    Message('note_on', channel=9, note=38, velocity=0, time=17),
    Message('note_on', channel=9, note=38, velocity=90, time=13),
    Message('note_on', channel=9, note=38, velocity=0, time=16),
    Message('note_on', channel=9, note=38, velocity=64, time=14),
    Message('note_on', channel=9, note=38, velocity=0, time=20),
    Message('note_on', channel=9, note=38, velocity=87, time=10),
    Message('note_on', channel=9, note=38, velocity=0, time=17),
    Message('note_on', channel=9, note=38, velocity=58, time=13),
    Message('note_on', channel=9, note=38, velocity=0, time=16),
    Message('note_on', channel=9, note=38, velocity=85, time=14),
    Message('note_on', channel=9, note=38, velocity=0, time=27),
    Message('note_on', channel=9, note=38, velocity=58, time=63),
    Message('note_on', channel=9, note=38, velocity=0, time=18),
    Message('note_on', channel=9, note=38, velocity=89, time=12),
    Message('note_on', channel=9, note=38, velocity=0, time=20),
    Message('note_on', channel=9, note=38, velocity=61, time=70),
    Message('note_on', channel=9, note=38, velocity=0, time=17),
    Message('note_on', channel=9, note=38, velocity=88, time=13),
    Message('note_on', channel=9, note=38, velocity=0, time=18),
    Message('note_on', channel=9, note=38, velocity=73, time=12),
    Message('note_on', channel=9, note=38, velocity=0, time=11),
    Message('note_on', channel=9, note=38, velocity=88, time=19),
    Message('note_on', channel=9, note=38, velocity=0, time=15),
    Message('note_on', channel=9, note=38, velocity=63, time=15),
    Message('note_on', channel=9, note=38, velocity=0, time=10),
    Message('note_on', channel=9, note=38, velocity=96, time=20),
    Message('note_on', channel=9, note=38, velocity=0, time=23),
    Message('note_on', channel=9, note=38, velocity=70, time=67),
    Message('note_on', channel=9, note=38, velocity=0, time=21),
    Message('note_on', channel=9, note=38, velocity=103, time=9),
    Message('note_on', channel=9, note=38, velocity=0, time=24),
    Message('note_on', channel=9, note=38, velocity=84, time=66),
    Message('note_on', channel=9, note=38, velocity=0, time=18),
    Message('note_on', channel=9, note=38, velocity=110, time=12),
    Message('note_on', channel=9, note=38, velocity=0, time=16),
    Message('note_on', channel=9, note=38, velocity=83, time=14),
    Message('note_on', channel=9, note=38, velocity=0, time=18),
    Message('note_on', channel=9, note=38, velocity=113, time=12),
    Message('note_on', channel=9, note=38, velocity=0, time=15),
    Message('note_on', channel=9, note=38, velocity=86, time=15),
    Message('note_on', channel=9, note=38, velocity=0, time=23),
    Message('note_on', channel=9, note=38, velocity=127, time=7),
    Message('note_on', channel=9, note=38, velocity=98, time=11),
    Message('note_on', channel=9, note=57, velocity=127, time=1),
    Message('note_on', channel=9, note=38, velocity=0, time=9),
    Message('note_on', channel=9, note=38, velocity=125, time=0),
    Message('note_on', channel=9, note=38, velocity=0, time=1),
    Message('note_on', channel=9, note=38, velocity=0, time=0),
    Message('note_on', channel=9, note=57, velocity=0, time=22),
    Message('note_on', channel=9, note=38, velocity=92, time=34),
    Message('note_on', channel=9, note=38, velocity=0, time=11),
    Message('note_on', channel=9, note=38, velocity=92, time=8),
    Message('note_on', channel=9, note=38, velocity=0, time=11),
    Message('note_on', channel=9, note=38, velocity=91, time=10),
    Message('note_on', channel=9, note=38, velocity=0, time=13),
    Message('note_on', channel=9, note=38, velocity=90, time=1),
    Message('note_on', channel=9, note=38, velocity=0, time=11),
    Message('note_on', channel=9, note=38, velocity=77, time=50),
    Message('note_on', channel=9, note=38, velocity=0, time=8),
    Message('note_on', channel=9, note=38, velocity=62, time=12),
    Message('note_on', channel=9, note=38, velocity=0, time=9),
    Message('note_on', channel=9, note=38, velocity=87, time=11),
    Message('note_on', channel=9, note=38, velocity=0, time=10),
    Message('note_on', channel=9, note=38, velocity=86, time=8),
    Message('note_on', channel=9, note=38, velocity=0, time=11),
    Message('note_on', channel=9, note=38, velocity=74, time=50),
    Message('note_on', channel=9, note=38, velocity=0, time=10),
    Message('note_on', channel=9, note=38, velocity=72, time=9),
    Message('note_on', channel=9, note=38, velocity=0, time=13),
    Message('note_on', channel=9, note=38, velocity=78, time=8),
    Message('note_on', channel=9, note=38, velocity=0, time=12),
    Message('note_on', channel=9, note=51, velocity=21, time=2),
    Message('note_on', channel=9, note=57, velocity=20, time=0),
    Message('note_on', channel=9, note=38, velocity=73, time=5),
    Message('note_on', channel=9, note=57, velocity=0, time=6),
    Message('note_on', channel=9, note=51, velocity=0, time=1),
    Message('note_on', channel=9, note=38, velocity=0, time=5),
    Message('note_on', channel=9, note=38, velocity=81, time=9),
    Message('note_on', channel=9, note=38, velocity=0, time=12),
    Message('note_on', channel=9, note=38, velocity=80, time=7),
    Message('note_on', channel=9, note=38, velocity=0, time=13),
    Message('note_on', channel=9, note=51, velocity=2, time=3),
    Message('note_on', channel=9, note=57, velocity=2, time=2),
    Message('note_on', channel=9, note=38, velocity=79, time=4),
    Message('note_on', channel=9, note=57, velocity=0, time=6),
    Message('note_on', channel=9, note=51, velocity=0, time=1),
    Message('note_on', channel=9, note=38, velocity=0, time=4),
    Message('note_on', channel=9, note=38, velocity=79, time=49),
    Message('note_on', channel=9, note=38, velocity=0, time=11),
    Message('note_on', channel=9, note=38, velocity=79, time=105),
    Message('note_on', channel=9, note=38, velocity=0, time=13),
    Message('note_on', channel=9, note=38, velocity=79, time=49),
    Message('note_on', channel=9, note=38, velocity=0, time=11),
    Message('note_on', channel=9, note=38, velocity=51, time=9),
    Message('note_on', channel=9, note=38, velocity=0, time=10),
    Message('note_on', channel=9, note=38, velocity=79, time=10),
    Message('note_on', channel=9, note=38, velocity=0, time=11),
    Message('note_on', channel=9, note=38, velocity=79, time=8),
    Message('note_on', channel=9, note=38, velocity=0, time=13),
    Message('note_on', channel=9, note=38, velocity=71, time=49),
    Message('note_on', channel=9, note=38, velocity=0, time=10),
    Message('note_on', channel=9, note=38, velocity=75, time=10),
    Message('note_on', channel=9, note=38, velocity=0, time=13),
    Message('note_on', channel=9, note=38, velocity=79, time=6),
    Message('note_on', channel=9, note=38, velocity=0, time=13),
    Message('note_on', channel=9, note=51, velocity=7, time=6),
    Message('note_on', channel=9, note=57, velocity=7, time=0),
    Message('note_on', channel=9, note=38, velocity=79, time=1),
    Message('note_on', channel=9, note=57, velocity=0, time=9),
    Message('note_on', channel=9, note=38, velocity=0, time=2),
    Message('note_on', channel=9, note=51, velocity=0, time=1),
    Message('note_on', channel=9, note=38, velocity=79, time=9),
    Message('note_on', channel=9, note=38, velocity=0, time=11),
    Message('note_on', channel=9, note=38, velocity=77, time=9),
    Message('note_on', channel=9, note=38, velocity=0, time=12),
    Message('note_on', channel=9, note=57, velocity=2, time=6),
    Message('note_on', channel=9, note=38, velocity=79, time=2),
    Message('note_on', channel=9, note=57, velocity=2, time=1),
    Message('note_on', channel=9, note=57, velocity=0, time=3),
    Message('note_on', channel=9, note=57, velocity=0, time=1),
    Message('note_on', channel=9, note=38, velocity=0, time=6),
    Message('note_on', channel=9, note=38, velocity=79, time=49),
    Message('note_on', channel=9, note=48, velocity=79, time=8),
    Message('note_on', channel=9, note=51, velocity=79, time=1),
    Message('note_on', channel=9, note=38, velocity=0, time=1),
    Message('note_on', channel=9, note=51, velocity=0, time=9),
    Message('note_on', channel=9, note=48, velocity=0, time=0),
    Message('note_on', channel=9, note=38, velocity=105, time=100),
    Message('note_on', channel=9, note=38, velocity=0, time=11),
    Message('note_on', channel=9, note=38, velocity=105, time=49),
    Message('note_on', channel=9, note=38, velocity=0, time=10),
    Message('note_on', channel=9, note=38, velocity=105, time=7),
    Message('note_on', channel=9, note=38, velocity=0, time=12),
    Message('note_on', channel=9, note=38, velocity=105, time=10),
    Message('note_on', channel=9, note=38, velocity=0, time=9),
    Message('note_on', channel=9, note=38, velocity=105, time=11),
    Message('note_on', channel=9, note=38, velocity=0, time=15),
    Message('note_on', channel=9, note=38, velocity=105, time=46),
    Message('note_on', channel=9, note=38, velocity=0, time=11),
    Message('note_on', channel=9, note=38, velocity=105, time=10),
    Message('note_on', channel=9, note=38, velocity=0, time=12),
    Message('note_on', channel=9, note=38, velocity=105, time=8),
    Message('note_on', channel=9, note=38, velocity=0, time=12),
    Message('note_on', channel=9, note=38, velocity=105, time=7),
    Message('note_on', channel=9, note=38, velocity=0, time=11),
    Message('note_on', channel=9, note=38, velocity=105, time=8),
    Message('note_on', channel=9, note=38, velocity=0, time=13),
    Message('note_on', channel=9, note=38, velocity=105, time=7),
    Message('note_on', channel=9, note=38, velocity=0, time=13),
    Message('note_on', channel=9, note=38, velocity=105, time=8),
    Message('note_on', channel=9, note=38, velocity=0, time=12),
    Message('note_on', channel=9, note=38, velocity=105, time=50),
    Message('note_on', channel=9, note=38, velocity=0, time=13),
    Message('note_on', channel=9, note=38, velocity=105, time=107),
    Message('note_on', channel=9, note=38, velocity=0, time=12),
    Message('note_on', channel=9, note=38, velocity=95, time=48),
    Message('note_on', channel=9, note=38, velocity=0, time=10),
    Message('note_on', channel=9, note=38, velocity=105, time=9),
    Message('note_on', channel=9, note=38, velocity=0, time=11),
    Message('note_on', channel=9, note=38, velocity=105, time=9),
    Message('note_on', channel=9, note=38, velocity=0, time=12),
    Message('note_on', channel=9, note=38, velocity=95, time=6),
    Message('note_on', channel=9, note=38, velocity=0, time=10),
    Message('note_on', channel=9, note=38, velocity=105, time=51),
    Message('note_on', channel=9, note=38, velocity=0, time=11),
    Message('note_on', channel=9, note=38, velocity=105, time=8),
    Message('note_on', channel=9, note=38, velocity=0, time=13),
    Message('note_on', channel=9, note=38, velocity=105, time=7),
    Message('note_on', channel=9, note=38, velocity=0, time=12),
    Message('note_on', channel=9, note=38, velocity=105, time=8),
    Message('note_on', channel=9, note=38, velocity=0, time=11),
    Message('note_on', channel=9, note=38, velocity=105, time=9),
    Message('note_on', channel=9, note=38, velocity=0, time=14),
    Message('note_on', channel=9, note=38, velocity=105, time=6),
    Message('note_on', channel=9, note=38, velocity=0, time=11),
    Message('note_on', channel=9, note=38, velocity=105, time=10),
    Message('note_on', channel=9, note=38, velocity=0, time=11),
    Message('note_on', channel=9, note=38, velocity=105, time=49),
    Message('note_on', channel=9, note=38, velocity=0, time=10),
    Message('note_on', channel=9, note=38, velocity=105, time=110),
    Message('note_on', channel=9, note=38, velocity=0, time=11),
    Message('note_on', channel=9, note=38, velocity=105, time=50),
    Message('note_on', channel=9, note=38, velocity=0, time=11),
    Message('note_on', channel=9, note=38, velocity=81, time=9),
    Message('note_on', channel=9, note=38, velocity=0, time=11),
    Message('note_on', channel=9, note=38, velocity=105, time=8),
    Message('note_on', channel=9, note=38, velocity=0, time=11),
    Message('note_on', channel=9, note=38, velocity=105, time=9),
    Message('note_on', channel=9, note=38, velocity=0, time=11),
    Message('note_on', channel=9, note=38, velocity=105, time=53),
    Message('note_on', channel=9, note=38, velocity=0, time=10),
    Message('note_on', channel=9, note=38, velocity=100, time=9),
    Message('note_on', channel=9, note=38, velocity=0, time=11),
    Message('note_on', channel=9, note=38, velocity=105, time=7),
    Message('note_on', channel=9, note=38, velocity=0, time=13),
    Message('note_on', channel=9, note=38, velocity=105, time=7),
    Message('note_on', channel=9, note=38, velocity=0, time=12),
    Message('note_on', channel=9, note=38, velocity=105, time=7),
    Message('note_on', channel=9, note=38, velocity=0, time=13),
    Message('note_on', channel=9, note=38, velocity=105, time=7),
    Message('note_on', channel=9, note=38, velocity=0, time=12),
    Message('note_on', channel=9, note=38, velocity=105, time=10),
    Message('note_on', channel=9, note=38, velocity=0, time=11),
    Message('note_on', channel=9, note=38, velocity=105, time=48),
    Message('note_on', channel=9, note=38, velocity=0, time=11),
    Message('note_on', channel=9, note=38, velocity=105, time=108),
    Message('note_on', channel=9, note=38, velocity=0, time=11),
    Message('note_on', channel=9, note=38, velocity=105, time=49),
    Message('note_on', channel=9, note=38, velocity=0, time=11),
    Message('note_on', channel=9, note=38, velocity=100, time=9),
    Message('note_on', channel=9, note=38, velocity=0, time=13),
    Message('note_on', channel=9, note=38, velocity=105, time=7),
    Message('note_on', channel=9, note=38, velocity=0, time=13),
    Message('note_on', channel=9, note=38, velocity=105, time=7),
    Message('note_on', channel=9, note=38, velocity=0, time=13),
    Message('note_on', channel=9, note=38, velocity=105, time=48),
    Message('note_on', channel=9, note=38, velocity=0, time=11),
    Message('note_on', channel=9, note=38, velocity=100, time=10),
    Message('note_on', channel=9, note=38, velocity=0, time=13),
    Message('note_on', channel=9, note=38, velocity=105, time=6),
    Message('note_on', channel=9, note=38, velocity=0, time=12),
    Message('note_on', channel=9, note=38, velocity=105, time=7),
    Message('note_on', channel=9, note=38, velocity=0, time=11),
    Message('note_on', channel=9, note=38, velocity=105, time=9),
    Message('note_on', channel=9, note=38, velocity=0, time=13),
    Message('note_on', channel=9, note=38, velocity=105, time=7),
    Message('note_on', channel=9, note=38, velocity=0, time=11),
    Message('note_on', channel=9, note=38, velocity=105, time=9),
    Message('note_on', channel=9, note=38, velocity=0, time=10),
    Message('note_on', channel=9, note=38, velocity=105, time=7),
    Message('note_on', channel=9, note=38, velocity=0, time=11),
    Message('note_on', channel=9, note=38, velocity=105, time=11),
    Message('note_on', channel=9, note=38, velocity=0, time=9),
    Message('note_on', channel=9, note=38, velocity=105, time=13),
    Message('note_on', channel=9, note=38, velocity=0, time=10),
    Message('note_on', channel=9, note=38, velocity=105, time=109),
    Message('note_on', channel=9, note=38, velocity=0, time=11),
    Message('note_on', channel=9, note=38, velocity=105, time=49),
    Message('note_on', channel=9, note=38, velocity=0, time=10),
    Message('note_on', channel=9, note=38, velocity=105, time=7),
    Message('note_on', channel=9, note=38, velocity=0, time=12),
    Message('note_on', channel=9, note=38, velocity=105, time=10),
    Message('note_on', channel=9, note=38, velocity=0, time=9),
    Message('note_on', channel=9, note=38, velocity=105, time=11),
    Message('note_on', channel=9, note=38, velocity=0, time=15),
    Message('note_on', channel=9, note=38, velocity=105, time=46),
    Message('note_on', channel=9, note=38, velocity=0, time=11),
    Message('note_on', channel=9, note=38, velocity=105, time=10),
    Message('note_on', channel=9, note=38, velocity=0, time=12),
    Message('note_on', channel=9, note=38, velocity=105, time=8),
    Message('note_on', channel=9, note=38, velocity=0, time=12),
    Message('note_on', channel=9, note=38, velocity=105, time=7),
    Message('note_on', channel=9, note=38, velocity=0, time=11),
    Message('note_on', channel=9, note=38, velocity=105, time=8),
    Message('note_on', channel=9, note=38, velocity=0, time=13),
    Message('note_on', channel=9, note=38, velocity=105, time=7),
    Message('note_on', channel=9, note=38, velocity=0, time=13),
    Message('note_on', channel=9, note=38, velocity=105, time=8),
    Message('note_on', channel=9, note=38, velocity=0, time=12),
    Message('note_on', channel=9, note=38, velocity=105, time=50),
    Message('note_on', channel=9, note=38, velocity=0, time=13),
    Message('note_on', channel=9, note=38, velocity=105, time=107),
    Message('note_on', channel=9, note=38, velocity=0, time=12),
    Message('note_on', channel=9, note=38, velocity=95, time=48),
    Message('note_on', channel=9, note=38, velocity=0, time=10),
    Message('note_on', channel=9, note=38, velocity=105, time=9),
    Message('note_on', channel=9, note=38, velocity=0, time=11),
    Message('note_on', channel=9, note=38, velocity=105, time=9),
    Message('note_on', channel=9, note=38, velocity=0, time=12),
    Message('note_on', channel=9, note=38, velocity=95, time=6),
    Message('note_on', channel=9, note=38, velocity=0, time=10),
    Message('note_on', channel=9, note=38, velocity=105, time=51),
    Message('note_on', channel=9, note=38, velocity=0, time=11),
    Message('note_on', channel=9, note=38, velocity=105, time=8),
    Message('note_on', channel=9, note=38, velocity=0, time=13),
    Message('note_on', channel=9, note=38, velocity=105, time=7),
    Message('note_on', channel=9, note=38, velocity=0, time=12),
    Message('note_on', channel=9, note=38, velocity=105, time=8),
    Message('note_on', channel=9, note=38, velocity=0, time=11),
    Message('note_on', channel=9, note=38, velocity=105, time=9),
    Message('note_on', channel=9, note=38, velocity=0, time=14),
    Message('note_on', channel=9, note=38, velocity=105, time=6),
    Message('note_on', channel=9, note=38, velocity=0, time=11),
    Message('note_on', channel=9, note=38, velocity=105, time=10),
    Message('note_on', channel=9, note=38, velocity=0, time=11),
    Message('note_on', channel=9, note=38, velocity=105, time=50),
    Message('note_on', channel=9, note=38, velocity=0, time=10),
    Message('note_on', channel=9, note=38, velocity=105, time=109),
    Message('note_on', channel=9, note=38, velocity=0, time=11),
    Message('note_on', channel=9, note=38, velocity=105, time=49),
    Message('note_on', channel=9, note=38, velocity=0, time=10),
    Message('note_on', channel=9, note=38, velocity=105, time=7),
    Message('note_on', channel=9, note=38, velocity=0, time=12),
    Message('note_on', channel=9, note=38, velocity=105, time=10),
    Message('note_on', channel=9, note=38, velocity=0, time=9),
    Message('note_on', channel=9, note=38, velocity=105, time=11),
    Message('note_on', channel=9, note=38, velocity=0, time=15),
    Message('note_on', channel=9, note=38, velocity=105, time=46),
    Message('note_on', channel=9, note=38, velocity=0, time=11),
    Message('note_on', channel=9, note=38, velocity=105, time=10),
    Message('note_on', channel=9, note=38, velocity=0, time=12),
    Message('note_on', channel=9, note=38, velocity=105, time=8),
    Message('note_on', channel=9, note=38, velocity=0, time=12),
    Message('note_on', channel=9, note=38, velocity=105, time=7),
    Message('note_on', channel=9, note=38, velocity=0, time=11),
    Message('note_on', channel=9, note=38, velocity=105, time=8),
    Message('note_on', channel=9, note=38, velocity=0, time=13),
    Message('note_on', channel=9, note=38, velocity=105, time=7),
    Message('note_on', channel=9, note=38, velocity=0, time=13),
    Message('note_on', channel=9, note=38, velocity=105, time=8),
    Message('note_on', channel=9, note=38, velocity=0, time=12),
    Message('note_on', channel=9, note=38, velocity=105, time=50),
    Message('note_on', channel=9, note=38, velocity=0, time=13),
    Message('note_on', channel=9, note=38, velocity=105, time=107),
    Message('note_on', channel=9, note=38, velocity=0, time=12),
    Message('note_on', channel=9, note=38, velocity=95, time=48),
    Message('note_on', channel=9, note=38, velocity=0, time=10),
    Message('note_on', channel=9, note=38, velocity=105, time=9),
    Message('note_on', channel=9, note=38, velocity=0, time=11),
    Message('note_on', channel=9, note=38, velocity=105, time=9),
    Message('note_on', channel=9, note=38, velocity=0, time=12),
    Message('note_on', channel=9, note=38, velocity=95, time=6),
    Message('note_on', channel=9, note=38, velocity=0, time=10),
    Message('note_on', channel=9, note=38, velocity=105, time=51),
    Message('note_on', channel=9, note=38, velocity=0, time=11),
    Message('note_on', channel=9, note=38, velocity=105, time=8),
    Message('note_on', channel=9, note=38, velocity=0, time=13),
    Message('note_on', channel=9, note=38, velocity=105, time=7),
    Message('note_on', channel=9, note=38, velocity=0, time=12),
    Message('note_on', channel=9, note=38, velocity=105, time=8),
    Message('note_on', channel=9, note=38, velocity=0, time=11),
    Message('note_on', channel=9, note=38, velocity=105, time=9),
    Message('note_on', channel=9, note=38, velocity=0, time=14),
    Message('note_on', channel=9, note=38, velocity=105, time=6),
    Message('note_on', channel=9, note=38, velocity=0, time=11),
    Message('note_on', channel=9, note=38, velocity=105, time=10),
    Message('note_on', channel=9, note=38, velocity=0, time=10),
    Message('note_on', channel=9, note=38, velocity=105, time=7),
    Message('note_on', channel=9, note=38, velocity=0, time=11),
    Message('note_on', channel=9, note=38, velocity=105, time=10),
    Message('note_on', channel=9, note=38, velocity=0, time=9),
    Message('note_on', channel=9, note=38, velocity=105, time=14),
    Message('note_on', channel=9, note=38, velocity=0, time=10),
    Message('note_on', channel=9, note=38, velocity=105, time=109),
    Message('note_on', channel=9, note=38, velocity=0, time=11),
    Message('note_on', channel=9, note=38, velocity=105, time=49),
    Message('note_on', channel=9, note=38, velocity=0, time=10),
    Message('note_on', channel=9, note=38, velocity=105, time=7),
    Message('note_on', channel=9, note=38, velocity=0, time=12),
    Message('note_on', channel=9, note=38, velocity=105, time=10),
    Message('note_on', channel=9, note=38, velocity=0, time=9),
    Message('note_on', channel=9, note=38, velocity=105, time=11),
    Message('note_on', channel=9, note=38, velocity=0, time=15),
    Message('note_on', channel=9, note=38, velocity=105, time=46),
    Message('note_on', channel=9, note=38, velocity=0, time=11),
    Message('note_on', channel=9, note=38, velocity=105, time=10),
    Message('note_on', channel=9, note=38, velocity=0, time=12),
    Message('note_on', channel=9, note=38, velocity=105, time=8),
    Message('note_on', channel=9, note=38, velocity=0, time=12),
    Message('note_on', channel=9, note=38, velocity=105, time=7),
    Message('note_on', channel=9, note=38, velocity=0, time=11),
    Message('note_on', channel=9, note=38, velocity=105, time=8),
    Message('note_on', channel=9, note=38, velocity=0, time=13),
    Message('note_on', channel=9, note=38, velocity=105, time=7),
    Message('note_on', channel=9, note=38, velocity=0, time=13),
    Message('note_on', channel=9, note=38, velocity=105, time=8),
    Message('note_on', channel=9, note=38, velocity=0, time=12),
    Message('note_on', channel=9, note=38, velocity=105, time=50),
    Message('note_on', channel=9, note=38, velocity=0, time=13),
    Message('note_on', channel=9, note=38, velocity=105, time=107),
    Message('note_on', channel=9, note=38, velocity=0, time=12),
    Message('note_on', channel=9, note=38, velocity=95, time=48),
    Message('note_on', channel=9, note=38, velocity=0, time=10),
    Message('note_on', channel=9, note=38, velocity=105, time=9),
    Message('note_on', channel=9, note=38, velocity=0, time=11),
    Message('note_on', channel=9, note=38, velocity=105, time=9),
    Message('note_on', channel=9, note=38, velocity=0, time=12),
    Message('note_on', channel=9, note=38, velocity=95, time=6),
    Message('note_on', channel=9, note=38, velocity=0, time=10),
    Message('note_on', channel=9, note=38, velocity=105, time=51),
    Message('note_on', channel=9, note=38, velocity=0, time=11),
    Message('note_on', channel=9, note=38, velocity=105, time=8),
    Message('note_on', channel=9, note=38, velocity=0, time=13),
    Message('note_on', channel=9, note=38, velocity=105, time=7),
    Message('note_on', channel=9, note=38, velocity=0, time=12),
    Message('note_on', channel=9, note=38, velocity=105, time=8),
    Message('note_on', channel=9, note=38, velocity=0, time=11),
    Message('note_on', channel=9, note=38, velocity=105, time=9),
    Message('note_on', channel=9, note=38, velocity=0, time=14),
    Message('note_on', channel=9, note=38, velocity=105, time=6),
    Message('note_on', channel=9, note=38, velocity=0, time=11),
    Message('note_on', channel=9, note=38, velocity=105, time=10),
    Message('note_on', channel=9, note=38, velocity=0, time=11),
    Message('note_on', channel=9, note=38, velocity=105, time=50),
    Message('note_on', channel=9, note=38, velocity=0, time=10),
    Message('note_on', channel=9, note=38, velocity=105, time=109),
    Message('note_on', channel=9, note=38, velocity=0, time=11),
    Message('note_on', channel=9, note=38, velocity=105, time=49),
    Message('note_on', channel=9, note=38, velocity=0, time=10),
    Message('note_on', channel=9, note=38, velocity=105, time=7),
    Message('note_on', channel=9, note=38, velocity=0, time=12),
    Message('note_on', channel=9, note=38, velocity=105, time=10),
    Message('note_on', channel=9, note=38, velocity=0, time=9),
    Message('note_on', channel=9, note=38, velocity=105, time=11),
    Message('note_on', channel=9, note=38, velocity=0, time=15),
    Message('note_on', channel=9, note=38, velocity=105, time=46),
    Message('note_on', channel=9, note=38, velocity=0, time=11),
    Message('note_on', channel=9, note=38, velocity=105, time=10),
    Message('note_on', channel=9, note=38, velocity=0, time=12),
    Message('note_on', channel=9, note=38, velocity=105, time=8),
    Message('note_on', channel=9, note=38, velocity=0, time=12),
    Message('note_on', channel=9, note=38, velocity=105, time=7),
    Message('note_on', channel=9, note=38, velocity=0, time=11),
    Message('note_on', channel=9, note=38, velocity=105, time=8),
    Message('note_on', channel=9, note=38, velocity=0, time=13),
    Message('note_on', channel=9, note=38, velocity=105, time=7),
    Message('note_on', channel=9, note=38, velocity=0, time=13),
    Message('note_on', channel=9, note=38, velocity=105, time=8),
    Message('note_on', channel=9, note=38, velocity=0, time=12),
    Message('note_on', channel=9, note=38, velocity=105, time=50),
    Message('note_on', channel=9, note=49, velocity=67, time=10),
    Message('note_on', channel=9, note=38, velocity=0, time=3),
    Message('note_on', channel=9, note=49, velocity=0, time=30),
    Message('note_on', channel=9, note=38, velocity=105, time=77),
    Message('note_on', channel=9, note=38, velocity=0, time=12),
    Message('note_on', channel=9, note=38, velocity=95, time=48),
    Message('note_on', channel=9, note=38, velocity=0, time=10),
    Message('note_on', channel=9, note=38, velocity=105, time=9),
    Message('note_on', channel=9, note=38, velocity=0, time=11),
    Message('note_on', channel=9, note=38, velocity=105, time=9),
    Message('note_on', channel=9, note=38, velocity=0, time=12),
    Message('note_on', channel=9, note=38, velocity=95, time=6),
    Message('note_on', channel=9, note=57, velocity=67, time=1),
    Message('note_on', channel=9, note=38, velocity=0, time=9),
    Message('note_on', channel=9, note=57, velocity=0, time=17),
    Message('note_on', channel=9, note=38, velocity=105, time=34),
    Message('note_on', channel=9, note=38, velocity=0, time=11),
    Message('note_on', channel=9, note=38, velocity=105, time=8),
    Message('note_on', channel=9, note=38, velocity=0, time=13),
    Message('note_on', channel=9, note=38, velocity=105, time=7),
    Message('note_on', channel=9, note=38, velocity=0, time=12),
    Message('note_on', channel=9, note=38, velocity=105, time=8),
    Message('note_on', channel=9, note=57, velocity=67, time=1),
    Message('note_on', channel=9, note=38, velocity=0, time=11),
    Message('note_on', channel=9, note=38, velocity=105, time=8),
    Message('note_on', channel=9, note=57, velocity=0, time=1),
    Message('note_on', channel=9, note=38, velocity=0, time=13),
    Message('note_on', channel=9, note=38, velocity=105, time=6),
    Message('note_on', channel=9, note=38, velocity=0, time=12),
    Message('note_on', channel=9, note=38, velocity=105, time=9),
    Message('note_on', channel=9, note=38, velocity=0, time=11),
    Message('note_on', channel=9, note=38, velocity=105, time=110),
    Message('note_on', channel=9, note=38, velocity=0, time=11),
    Message('note_on', channel=9, note=38, velocity=100, time=10),
    Message('note_on', channel=9, note=38, velocity=0, time=13),
    Message('note_on', channel=9, note=38, velocity=105, time=6),
    Message('note_on', channel=9, note=38, velocity=0, time=12),
    Message('note_on', channel=9, note=38, velocity=105, time=7),
    Message('note_on', channel=9, note=38, velocity=0, time=11),
    Message('note_on', channel=9, note=38, velocity=105, time=9),
    Message('note_on', channel=9, note=38, velocity=0, time=13),
    Message('note_on', channel=9, note=38, velocity=105, time=7),
    Message('note_on', channel=9, note=38, velocity=0, time=11),
    Message('note_on', channel=9, note=38, velocity=105, time=9),
    Message('note_on', channel=9, note=38, velocity=0, time=10),
    Message('note_on', channel=9, note=38, velocity=105, time=7),
    Message('note_on', channel=9, note=38, velocity=0, time=11),
    Message('note_on', channel=9, note=38, velocity=105, time=11),
    Message('note_on', channel=9, note=38, velocity=0, time=9),
    Message('note_on', channel=9, note=46, velocity=74, time=1),
    Message('note_on', channel=9, note=57, velocity=127, time=5),
    Message('note_on', channel=9, note=57, velocity=116, time=5),
    Message('note_on', channel=9, note=57, velocity=0, time=5),
    Message('note_on', channel=9, note=57, velocity=0, time=1),
    Message('note_on', channel=9, note=46, velocity=0, time=104),
    Message('note_on', channel=9, note=57, velocity=127, time=2300),
    Message('note_on', channel=9, note=57, velocity=0, time=10),
    Message('note_on', channel=9, note=57, velocity=127, time=223),
    Message('note_on', channel=9, note=57, velocity=0, time=11),
    Message('note_on', channel=9, note=57, velocity=127, time=228),
    Message('note_on', channel=9, note=57, velocity=0, time=10),
    Message('note_on', channel=9, note=57, velocity=127, time=230),
    Message('note_on', channel=9, note=57, velocity=0, time=16),
    Message('note_on', channel=9, note=57, velocity=127, time=226),
    Message('note_on', channel=9, note=57, velocity=90, time=7),
    Message('note_on', channel=9, note=57, velocity=0, time=4),
    Message('note_on', channel=9, note=57, velocity=0, time=2),
    Message('note_on', channel=9, note=57, velocity=127, time=105),
    Message('note_on', channel=9, note=57, velocity=81, time=3),
    Message('note_on', channel=9, note=57, velocity=0, time=3),
    Message('note_on', channel=9, note=57, velocity=0, time=0),
    Message('note_on', channel=9, note=57, velocity=127, time=53),
    Message('note_on', channel=9, note=57, velocity=69, time=7),
    Message('note_on', channel=9, note=57, velocity=0, time=3),
    Message('note_on', channel=9, note=57, velocity=0, time=5),
    Message('note_on', channel=9, note=57, velocity=127, time=107),
    Message('note_on', channel=9, note=57, velocity=81, time=0),
    Message('note_on', channel=9, note=57, velocity=0, time=1),
    Message('note_on', channel=9, note=57, velocity=0, time=9),
    Message('note_on', channel=9, note=57, velocity=127, time=108),
    Message('note_on', channel=9, note=57, velocity=76, time=2),
    Message('note_on', channel=9, note=57, velocity=0, time=1),
    Message('note_on', channel=9, note=57, velocity=0, time=0),
    Message('note_on', channel=9, note=38, velocity=66, time=4981),
    Message('note_on', channel=9, note=38, velocity=0, time=12),
    Message('note_on', channel=9, note=38, velocity=66, time=28),
    Message('note_on', channel=9, note=38, velocity=0, time=8),
    Message('note_on', channel=9, note=38, velocity=56, time=29),
    Message('note_on', channel=9, note=38, velocity=0, time=10),
    Message('note_on', channel=9, note=38, velocity=84, time=33),
    Message('note_on', channel=9, note=38, velocity=0, time=23),
    Message('note_on', channel=9, note=38, velocity=56, time=103),
    Message('note_on', channel=9, note=38, velocity=0, time=10),
    Message('note_on', channel=9, note=38, velocity=40, time=30),
    Message('note_on', channel=9, note=38, velocity=0, time=9),
    Message('note_on', channel=9, note=38, velocity=58, time=20),
    Message('note_on', channel=9, note=38, velocity=0, time=10),
    Message('note_on', channel=9, note=59, velocity=58, time=35),
    Message('note_on', channel=9, note=38, velocity=61, time=6),
    Message('note_on', channel=9, note=59, velocity=0, time=2),
    Message('note_on', channel=9, note=38, velocity=0, time=8),
    Message('note_on', channel=9, note=38, velocity=43, time=833),
    Message('note_on', channel=9, note=38, velocity=0, time=13),
    Message('note_on', channel=9, note=38, velocity=8, time=21),
    Message('note_on', channel=9, note=38, velocity=0, time=8),
    Message('note_on', channel=9, note=38, velocity=48, time=9),
    Message('note_on', channel=9, note=38, velocity=0, time=11),
    Message('note_on', channel=9, note=38, velocity=54, time=19),
    Message('note_on', channel=9, note=38, velocity=0, time=10),
    Message('note_on', channel=9, note=38, velocity=106, time=17),
    Message('note_on', channel=9, note=38, velocity=0, time=16),
    Message('note_on', channel=9, note=38, velocity=49, time=108),
    Message('note_on', channel=9, note=38, velocity=0, time=15),
    Message('note_on', channel=9, note=38, velocity=49, time=27),
    Message('note_on', channel=9, note=38, velocity=0, time=8),
    Message('note_on', channel=9, note=38, velocity=67, time=26),
    Message('note_on', channel=9, note=38, velocity=0, time=16),
    Message('note_on', channel=9, note=38, velocity=98, time=27),
    Message('note_on', channel=9, note=38, velocity=0, time=45),
    Message('note_on', channel=9, note=38, velocity=58, time=380),
    Message('note_on', channel=9, note=38, velocity=0, time=8),
    Message('note_on', channel=9, note=38, velocity=57, time=10),
    Message('note_on', channel=9, note=38, velocity=0, time=8),
    Message('note_on', channel=9, note=38, velocity=77, time=11),
    Message('note_on', channel=9, note=38, velocity=0, time=8),
    Message('note_on', channel=9, note=38, velocity=99, time=13),
    Message('note_on', channel=9, note=38, velocity=0, time=51),
    Message('note_on', channel=9, note=38, velocity=72, time=72),
    Message('note_on', channel=9, note=38, velocity=0, time=16),
    Message('note_on', channel=9, note=38, velocity=71, time=44),
    Message('note_on', channel=9, note=38, velocity=0, time=13),
    Message('note_on', channel=9, note=38, velocity=98, time=46),
    Message('note_on', channel=9, note=38, velocity=0, time=49),
    Message('note_on', channel=9, note=38, velocity=52, time=71),
    Message('note_on', channel=9, note=38, velocity=0, time=9),
    Message('note_on', channel=9, note=38, velocity=79, time=43),
    Message('note_on', channel=9, note=38, velocity=0, time=21),
    Message('note_on', channel=9, note=38, velocity=89, time=40),
    Message('note_on', channel=9, note=38, velocity=0, time=12),
    Message('note_on', channel=9, note=38, velocity=49, time=113),
    Message('note_on', channel=9, note=38, velocity=0, time=8),
    Message('note_on', channel=9, note=38, velocity=50, time=18),
    Message('note_on', channel=9, note=38, velocity=0, time=8),
    Message('note_on', channel=9, note=38, velocity=45, time=18),
    Message('note_on', channel=9, note=38, velocity=0, time=13),
    Message('note_on', channel=9, note=38, velocity=68, time=17),
    Message('note_on', channel=9, note=38, velocity=0, time=8),
    Message('note_on', channel=9, note=38, velocity=89, time=22),
    Message('note_on', channel=9, note=38, velocity=0, time=14),
    Message('note_on', channel=9, note=38, velocity=48, time=354),
    Message('note_on', channel=9, note=38, velocity=0, time=9),
    Message('note_on', channel=9, note=38, velocity=47, time=19),
    Message('note_on', channel=9, note=38, velocity=0, time=8),
    Message('note_on', channel=9, note=38, velocity=55, time=18),
    Message('note_on', channel=9, note=38, velocity=0, time=14),
    Message('note_on', channel=9, note=38, velocity=74, time=16),
    Message('note_on', channel=9, note=38, velocity=0, time=12),
    Message('note_on', channel=9, note=38, velocity=55, time=21),
    Message('note_on', channel=9, note=59, velocity=69, time=7),
    Message('note_on', channel=9, note=38, velocity=0, time=8),
    Message('note_on', channel=9, note=59, velocity=0, time=4),
    Message('note_on', channel=9, note=38, velocity=54, time=470),
    Message('note_on', channel=9, note=38, velocity=0, time=8),
    Message('note_on', channel=9, note=38, velocity=33, time=21),
    Message('note_on', channel=9, note=38, velocity=0, time=8),
    Message('note_on', channel=9, note=38, velocity=42, time=25),
    Message('note_on', channel=9, note=38, velocity=0, time=9),
    Message('note_on', channel=9, note=38, velocity=50, time=20),
    Message('note_on', channel=9, note=38, velocity=0, time=22),
    Message('note_on', channel=9, note=38, velocity=97, time=9),
    Message('note_on', channel=9, note=38, velocity=0, time=20),
    Message('note_on', channel=9, note=38, velocity=68, time=44),
    Message('note_on', channel=9, note=38, velocity=0, time=11),
    Message('note_on', channel=9, note=38, velocity=55, time=16),
    Message('note_on', channel=9, note=38, velocity=0, time=9),
    Message('note_on', channel=9, note=38, velocity=97, time=21),
    Message('note_on', channel=9, note=38, velocity=0, time=27),
    Message('note_on', channel=9, note=38, velocity=80, time=96),
    Message('note_on', channel=9, note=38, velocity=0, time=14),
    Message('note_on', channel=9, note=38, velocity=89, time=97),
    Message('note_on', channel=9, note=38, velocity=0, time=16),
    Message('note_on', channel=9, note=38, velocity=3, time=51),
    Message('note_on', channel=9, note=38, velocity=0, time=8),
    Message('note_on', channel=9, note=38, velocity=79, time=14),
    Message('note_on', channel=9, note=38, velocity=0, time=16),
    Message('note_on', channel=9, note=38, velocity=105, time=15),
    Message('note_on', channel=9, note=38, velocity=0, time=16),
    Message('note_on', channel=9, note=38, velocity=86, time=43),
    Message('note_on', channel=9, note=38, velocity=0, time=20),
    Message('note_on', channel=9, note=38, velocity=79, time=43),
    Message('note_on', channel=9, note=38, velocity=0, time=16),
    Message('note_on', channel=9, note=38, velocity=80, time=94),
    Message('note_on', channel=9, note=38, velocity=0, time=15),
    Message('note_on', channel=9, note=38, velocity=76, time=13),
    Message('note_on', channel=9, note=38, velocity=0, time=12),
    Message('note_on', channel=9, note=38, velocity=74, time=17),
    Message('note_on', channel=9, note=38, velocity=0, time=16),
    Message('note_on', channel=9, note=38, velocity=80, time=15),
    Message('note_on', channel=9, note=38, velocity=0, time=10),
    Message('note_on', channel=9, note=57, velocity=127, time=2422),
    Message('note_on', channel=9, note=57, velocity=0, time=20),
    Message('note_on', channel=9, note=59, velocity=77, time=2020),
    Message('note_on', channel=9, note=59, velocity=0, time=16),
    Message('note_on', channel=9, note=38, velocity=101, time=1787),
    Message('note_on', channel=9, note=38, velocity=0, time=15),
    Message('note_on', channel=9, note=38, velocity=112, time=12),
    Message('note_on', channel=9, note=38, velocity=0, time=15),
    Message('note_on', channel=9, note=38, velocity=123, time=14),
    Message('note_on', channel=9, note=38, velocity=0, time=15),
    Message('note_on', channel=9, note=38, velocity=127, time=15),
    Message('note_on', channel=9, note=38, velocity=0, time=15),
    Message('note_on', channel=9, note=57, velocity=127, time=2416),
    Message('note_on', channel=9, note=59, velocity=117, time=0),
    Message('note_on', channel=9, note=59, velocity=0, time=83),
    Message('note_on', channel=9, note=38, velocity=80, time=81),
    Message('note_on', channel=9, note=38, velocity=0, time=3),
    Message('note_on', channel=9, note=38, velocity=87, time=3),
    Message('note_on', channel=9, note=38, velocity=0, time=3),
    Message('note_on', channel=9, note=38, velocity=98, time=5),
    Message('note_on', channel=9, note=38, velocity=0, time=3),
    Message('note_on', channel=9, note=38, velocity=107, time=4),
    Message('note_on', channel=9, note=38, velocity=0, time=3),
    Message('note_on', channel=9, note=38, velocity=116, time=2),
    Message('note_on', channel=9, note=38, velocity=0, time=3),
    Message('note_on', channel=9, note=38, velocity=123, time=3),
    Message('note_on', channel=9, note=38, velocity=0, time=3),
    Message('note_on', channel=9, note=38, velocity=127, time=4),
    Message('note_on', channel=9, note=57, velocity=0, time=2),
    Message('note_on', channel=9, note=38, velocity=0, time=1),
    Message('note_on', channel=9, note=38, velocity=127, time=2),
    Message('note_on', channel=9, note=38, velocity=0, time=3),
    Message('note_on', channel=9, note=38, velocity=127, time=5),
    Message('note_on', channel=9, note=38, velocity=0, time=3),
    Message('note_on', channel=9, note=38, velocity=127, time=3),
    Message('note_on', channel=9, note=38, velocity=0, time=3),
    Message('note_on', channel=9, note=38, velocity=127, time=3),
    Message('note_on', channel=9, note=38, velocity=0, time=3),
    Message('note_on', channel=9, note=38, velocity=127, time=2),
    Message('note_on', channel=9, note=38, velocity=0, time=3),
    Message('note_on', channel=9, note=59, velocity=127, time=4),
    Message('note_on', channel=9, note=38, velocity=127, time=0),
    Message('note_on', channel=9, note=57, velocity=127, time=2),
    Message('note_on', channel=9, note=38, velocity=0, time=1),
    Message('note_on', channel=9, note=59, velocity=0, time=80),
    Message('note_on', channel=9, note=57, velocity=0, time=2),
    Message('note_on', channel=9, note=38, velocity=127, time=154),
    Message('note_on', channel=9, note=38, velocity=0, time=13),
    Message('note_on', channel=9, note=38, velocity=127, time=65),
    Message('note_on', channel=9, note=38, velocity=0, time=8),
    Message('note_on', channel=9, note=38, velocity=127, time=7),
    Message('note_on', channel=9, note=38, velocity=0, time=8),
    Message('note_on', channel=9, note=38, velocity=127, time=3),
    Message('note_on', channel=9, note=38, velocity=0, time=8),
    Message('note_on', channel=9, note=38, velocity=127, time=11),
    Message('note_on', channel=9, note=38, velocity=0, time=7),
    Message('note_on', channel=9, note=38, velocity=127, time=186),
    Message('note_on', channel=9, note=38, velocity=0, time=8),
    Message('note_on', channel=9, note=38, velocity=127, time=9),
    Message('note_on', channel=9, note=38, velocity=0, time=9),
    Message('note_on', channel=9, note=38, velocity=127, time=1),
    Message('note_on', channel=9, note=38, velocity=0, time=8),
    Message('note_on', channel=9, note=38, velocity=127, time=7),
    Message('note_on', channel=9, note=38, velocity=0, time=20),
    Message('note_on', channel=9, note=38, velocity=127, time=20),
    Message('note_on', channel=9, note=38, velocity=0, time=15),
    Message('note_on', channel=9, note=38, velocity=127, time=25),
    Message('note_on', channel=9, note=38, velocity=0, time=20),
    Message('note_on', channel=9, note=38, velocity=127, time=20),
    Message('note_on', channel=9, note=38, velocity=0, time=13),
    Message('note_on', channel=9, note=38, velocity=127, time=107),
    Message('note_on', channel=9, note=38, velocity=0, time=42),
    Message('note_on', channel=9, note=38, velocity=127, time=78),
    Message('note_on', channel=9, note=38, velocity=0, time=11),
    Message('note_on', channel=9, note=38, velocity=127, time=29),
    Message('note_on', channel=9, note=38, velocity=0, time=17),
    Message('note_on', channel=9, note=38, velocity=127, time=23),
    Message('note_on', channel=9, note=38, velocity=0, time=21),
    Message('note_on', channel=9, note=38, velocity=127, time=19),
    Message('note_on', channel=9, note=38, velocity=0, time=26),
    Message('note_on', channel=9, note=38, velocity=127, time=14),
    Message('note_on', channel=9, note=38, velocity=0, time=10),
    Message('note_on', channel=9, note=38, velocity=127, time=30),
    Message('note_on', channel=9, note=38, velocity=0, time=17),
    Message('note_on', channel=9, note=38, velocity=127, time=23),
    Message('note_on', channel=9, note=38, velocity=0, time=21),
    Message('note_on', channel=9, note=38, velocity=127, time=57),
    Message('note_on', channel=9, note=38, velocity=0, time=8),
    Message('note_on', channel=9, note=38, velocity=127, time=7),
    Message('note_on', channel=9, note=38, velocity=0, time=9),
    Message('note_on', channel=9, note=38, velocity=127, time=6),
    Message('note_on', channel=9, note=38, velocity=0, time=8),
    Message('note_on', channel=9, note=38, velocity=127, time=4),
    Message('note_on', channel=9, note=38, velocity=0, time=61),
    Message('note_on', channel=9, note=38, velocity=127, time=59),
    Message('note_on', channel=9, note=38, velocity=0, time=15),
    Message('note_on', channel=9, note=38, velocity=127, time=25),
    Message('note_on', channel=9, note=38, velocity=0, time=18),
    Message('note_on', channel=9, note=38, velocity=127, time=22),
    Message('note_on', channel=9, note=38, velocity=0, time=22),
    Message('note_on', channel=9, note=38, velocity=127, time=18),
    Message('note_on', channel=9, note=38, velocity=0, time=23),
    Message('note_on', channel=9, note=38, velocity=127, time=17),
    Message('note_on', channel=9, note=38, velocity=0, time=15),
    Message('note_on', channel=9, note=38, velocity=127, time=25),
    Message('note_on', channel=9, note=38, velocity=0, time=32),
    Message('note_on', channel=9, note=38, velocity=127, time=8),
    Message('note_on', channel=9, note=57, velocity=125, time=3),
    Message('note_on', channel=9, note=38, velocity=0, time=17),
    Message('note_on', channel=9, note=57, velocity=0, time=65),
    Message('note_on', channel=9, note=38, velocity=127, time=35),
    Message('note_on', channel=9, note=38, velocity=0, time=10),
    Message('note_on', channel=9, note=38, velocity=127, time=30),
    Message('note_on', channel=9, note=38, velocity=0, time=11),
    Message('note_on', channel=9, note=38, velocity=127, time=29),
    Message('note_on', channel=9, note=38, velocity=0, time=13),
    Message('note_on', channel=9, note=38, velocity=127, time=27),
    Message('note_on', channel=9, note=38, velocity=0, time=53),
    MetaMessage('end_of_track', time=0)]),
  MidiTrack([
    MetaMessage('midi_port', port=0, time=0),
    MetaMessage('track_name', name='SysEx', time=0),
    MetaMessage('end_of_track', time=0)])
])